<?xml version="1.0" encoding="utf-8" standalone="no"?>
<!DOCTYPE svg PUBLIC "-//W3C//DTD SVG 1.1//EN"
  "http://www.w3.org/Graphics/SVG/1.1/DTD/svg11.dtd">
<svg xmlns:xlink="http://www.w3.org/1999/xlink" width="460.8pt" height="345.6pt" viewBox="0 0 460.8 345.6" xmlns="http://www.w3.org/2000/svg" version="1.1">
 <metadata>
  <rdf:RDF xmlns:dc="http://purl.org/dc/elements/1.1/" xmlns:cc="http://creativecommons.org/ns#" xmlns:rdf="http://www.w3.org/1999/02/22-rdf-syntax-ns#">
   <cc:Work>
    <dc:type rdf:resource="http://purl.org/dc/dcmitype/StillImage"/>
    <dc:date>2023-06-14T04:12:48.959362</dc:date>
    <dc:format>image/svg+xml</dc:format>
    <dc:creator>
     <cc:Agent>
      <dc:title>Matplotlib v3.7.1, https://matplotlib.org/</dc:title>
     </cc:Agent>
    </dc:creator>
   </cc:Work>
  </rdf:RDF>
 </metadata>
 <defs>
  <style type="text/css">*{stroke-linejoin: round; stroke-linecap: butt}</style>
 </defs>
 <g id="figure_1">
  <g id="patch_1">
   <path d="M 0 345.6 
L 460.8 345.6 
L 460.8 0 
L 0 0 
z
" style="fill: #ffffff"/>
  </g>
  <g id="axes_1">
   <g id="patch_2">
    <path d="M 57.6 307.584 
L 414.72 307.584 
L 414.72 41.472 
L 57.6 41.472 
z
" style="fill: #ffffff"/>
   </g>
   <g id="matplotlib.axis_1">
    <g id="xtick_1">
     <g id="line2d_1">
      <defs>
       <path id="m671c96c422" d="M 0 0 
L 0 3.5 
" style="stroke: #000000; stroke-width: 0.8"/>
      </defs>
      <g>
       <use xlink:href="#m671c96c422" x="73.767783" y="307.584" style="stroke: #000000; stroke-width: 0.8"/>
      </g>
     </g>
     <g id="text_1">
      <!-- 0 -->
      <g transform="translate(70.586533 322.182437) scale(0.1 -0.1)">
       <defs>
        <path id="DejaVuSans-30" d="M 2034 4250 
Q 1547 4250 1301 3770 
Q 1056 3291 1056 2328 
Q 1056 1369 1301 889 
Q 1547 409 2034 409 
Q 2525 409 2770 889 
Q 3016 1369 3016 2328 
Q 3016 3291 2770 3770 
Q 2525 4250 2034 4250 
z
M 2034 4750 
Q 2819 4750 3233 4129 
Q 3647 3509 3647 2328 
Q 3647 1150 3233 529 
Q 2819 -91 2034 -91 
Q 1250 -91 836 529 
Q 422 1150 422 2328 
Q 422 3509 836 4129 
Q 1250 4750 2034 4750 
z
" transform="scale(0.015625)"/>
       </defs>
       <use xlink:href="#DejaVuSans-30"/>
      </g>
     </g>
    </g>
    <g id="xtick_2">
     <g id="line2d_2">
      <g>
       <use xlink:href="#m671c96c422" x="138.711681" y="307.584" style="stroke: #000000; stroke-width: 0.8"/>
      </g>
     </g>
     <g id="text_2">
      <!-- 1000 -->
      <g transform="translate(125.986681 322.182437) scale(0.1 -0.1)">
       <defs>
        <path id="DejaVuSans-31" d="M 794 531 
L 1825 531 
L 1825 4091 
L 703 3866 
L 703 4441 
L 1819 4666 
L 2450 4666 
L 2450 531 
L 3481 531 
L 3481 0 
L 794 0 
L 794 531 
z
" transform="scale(0.015625)"/>
       </defs>
       <use xlink:href="#DejaVuSans-31"/>
       <use xlink:href="#DejaVuSans-30" x="63.623047"/>
       <use xlink:href="#DejaVuSans-30" x="127.246094"/>
       <use xlink:href="#DejaVuSans-30" x="190.869141"/>
      </g>
     </g>
    </g>
    <g id="xtick_3">
     <g id="line2d_3">
      <g>
       <use xlink:href="#m671c96c422" x="203.655579" y="307.584" style="stroke: #000000; stroke-width: 0.8"/>
      </g>
     </g>
     <g id="text_3">
      <!-- 2000 -->
      <g transform="translate(190.930579 322.182437) scale(0.1 -0.1)">
       <defs>
        <path id="DejaVuSans-32" d="M 1228 531 
L 3431 531 
L 3431 0 
L 469 0 
L 469 531 
Q 828 903 1448 1529 
Q 2069 2156 2228 2338 
Q 2531 2678 2651 2914 
Q 2772 3150 2772 3378 
Q 2772 3750 2511 3984 
Q 2250 4219 1831 4219 
Q 1534 4219 1204 4116 
Q 875 4013 500 3803 
L 500 4441 
Q 881 4594 1212 4672 
Q 1544 4750 1819 4750 
Q 2544 4750 2975 4387 
Q 3406 4025 3406 3419 
Q 3406 3131 3298 2873 
Q 3191 2616 2906 2266 
Q 2828 2175 2409 1742 
Q 1991 1309 1228 531 
z
" transform="scale(0.015625)"/>
       </defs>
       <use xlink:href="#DejaVuSans-32"/>
       <use xlink:href="#DejaVuSans-30" x="63.623047"/>
       <use xlink:href="#DejaVuSans-30" x="127.246094"/>
       <use xlink:href="#DejaVuSans-30" x="190.869141"/>
      </g>
     </g>
    </g>
    <g id="xtick_4">
     <g id="line2d_4">
      <g>
       <use xlink:href="#m671c96c422" x="268.599477" y="307.584" style="stroke: #000000; stroke-width: 0.8"/>
      </g>
     </g>
     <g id="text_4">
      <!-- 3000 -->
      <g transform="translate(255.874477 322.182437) scale(0.1 -0.1)">
       <defs>
        <path id="DejaVuSans-33" d="M 2597 2516 
Q 3050 2419 3304 2112 
Q 3559 1806 3559 1356 
Q 3559 666 3084 287 
Q 2609 -91 1734 -91 
Q 1441 -91 1130 -33 
Q 819 25 488 141 
L 488 750 
Q 750 597 1062 519 
Q 1375 441 1716 441 
Q 2309 441 2620 675 
Q 2931 909 2931 1356 
Q 2931 1769 2642 2001 
Q 2353 2234 1838 2234 
L 1294 2234 
L 1294 2753 
L 1863 2753 
Q 2328 2753 2575 2939 
Q 2822 3125 2822 3475 
Q 2822 3834 2567 4026 
Q 2313 4219 1838 4219 
Q 1578 4219 1281 4162 
Q 984 4106 628 3988 
L 628 4550 
Q 988 4650 1302 4700 
Q 1616 4750 1894 4750 
Q 2613 4750 3031 4423 
Q 3450 4097 3450 3541 
Q 3450 3153 3228 2886 
Q 3006 2619 2597 2516 
z
" transform="scale(0.015625)"/>
       </defs>
       <use xlink:href="#DejaVuSans-33"/>
       <use xlink:href="#DejaVuSans-30" x="63.623047"/>
       <use xlink:href="#DejaVuSans-30" x="127.246094"/>
       <use xlink:href="#DejaVuSans-30" x="190.869141"/>
      </g>
     </g>
    </g>
    <g id="xtick_5">
     <g id="line2d_5">
      <g>
       <use xlink:href="#m671c96c422" x="333.543375" y="307.584" style="stroke: #000000; stroke-width: 0.8"/>
      </g>
     </g>
     <g id="text_5">
      <!-- 4000 -->
      <g transform="translate(320.818375 322.182437) scale(0.1 -0.1)">
       <defs>
        <path id="DejaVuSans-34" d="M 2419 4116 
L 825 1625 
L 2419 1625 
L 2419 4116 
z
M 2253 4666 
L 3047 4666 
L 3047 1625 
L 3713 1625 
L 3713 1100 
L 3047 1100 
L 3047 0 
L 2419 0 
L 2419 1100 
L 313 1100 
L 313 1709 
L 2253 4666 
z
" transform="scale(0.015625)"/>
       </defs>
       <use xlink:href="#DejaVuSans-34"/>
       <use xlink:href="#DejaVuSans-30" x="63.623047"/>
       <use xlink:href="#DejaVuSans-30" x="127.246094"/>
       <use xlink:href="#DejaVuSans-30" x="190.869141"/>
      </g>
     </g>
    </g>
    <g id="xtick_6">
     <g id="line2d_6">
      <g>
       <use xlink:href="#m671c96c422" x="398.487273" y="307.584" style="stroke: #000000; stroke-width: 0.8"/>
      </g>
     </g>
     <g id="text_6">
      <!-- 5000 -->
      <g transform="translate(385.762273 322.182437) scale(0.1 -0.1)">
       <defs>
        <path id="DejaVuSans-35" d="M 691 4666 
L 3169 4666 
L 3169 4134 
L 1269 4134 
L 1269 2991 
Q 1406 3038 1543 3061 
Q 1681 3084 1819 3084 
Q 2600 3084 3056 2656 
Q 3513 2228 3513 1497 
Q 3513 744 3044 326 
Q 2575 -91 1722 -91 
Q 1428 -91 1123 -41 
Q 819 9 494 109 
L 494 744 
Q 775 591 1075 516 
Q 1375 441 1709 441 
Q 2250 441 2565 725 
Q 2881 1009 2881 1497 
Q 2881 1984 2565 2268 
Q 2250 2553 1709 2553 
Q 1456 2553 1204 2497 
Q 953 2441 691 2322 
L 691 4666 
z
" transform="scale(0.015625)"/>
       </defs>
       <use xlink:href="#DejaVuSans-35"/>
       <use xlink:href="#DejaVuSans-30" x="63.623047"/>
       <use xlink:href="#DejaVuSans-30" x="127.246094"/>
       <use xlink:href="#DejaVuSans-30" x="190.869141"/>
      </g>
     </g>
    </g>
    <g id="text_7">
     <!-- epoch -->
     <g transform="translate(220.931875 335.860562) scale(0.1 -0.1)">
      <defs>
       <path id="DejaVuSans-65" d="M 3597 1894 
L 3597 1613 
L 953 1613 
Q 991 1019 1311 708 
Q 1631 397 2203 397 
Q 2534 397 2845 478 
Q 3156 559 3463 722 
L 3463 178 
Q 3153 47 2828 -22 
Q 2503 -91 2169 -91 
Q 1331 -91 842 396 
Q 353 884 353 1716 
Q 353 2575 817 3079 
Q 1281 3584 2069 3584 
Q 2775 3584 3186 3129 
Q 3597 2675 3597 1894 
z
M 3022 2063 
Q 3016 2534 2758 2815 
Q 2500 3097 2075 3097 
Q 1594 3097 1305 2825 
Q 1016 2553 972 2059 
L 3022 2063 
z
" transform="scale(0.015625)"/>
       <path id="DejaVuSans-70" d="M 1159 525 
L 1159 -1331 
L 581 -1331 
L 581 3500 
L 1159 3500 
L 1159 2969 
Q 1341 3281 1617 3432 
Q 1894 3584 2278 3584 
Q 2916 3584 3314 3078 
Q 3713 2572 3713 1747 
Q 3713 922 3314 415 
Q 2916 -91 2278 -91 
Q 1894 -91 1617 61 
Q 1341 213 1159 525 
z
M 3116 1747 
Q 3116 2381 2855 2742 
Q 2594 3103 2138 3103 
Q 1681 3103 1420 2742 
Q 1159 2381 1159 1747 
Q 1159 1113 1420 752 
Q 1681 391 2138 391 
Q 2594 391 2855 752 
Q 3116 1113 3116 1747 
z
" transform="scale(0.015625)"/>
       <path id="DejaVuSans-6f" d="M 1959 3097 
Q 1497 3097 1228 2736 
Q 959 2375 959 1747 
Q 959 1119 1226 758 
Q 1494 397 1959 397 
Q 2419 397 2687 759 
Q 2956 1122 2956 1747 
Q 2956 2369 2687 2733 
Q 2419 3097 1959 3097 
z
M 1959 3584 
Q 2709 3584 3137 3096 
Q 3566 2609 3566 1747 
Q 3566 888 3137 398 
Q 2709 -91 1959 -91 
Q 1206 -91 779 398 
Q 353 888 353 1747 
Q 353 2609 779 3096 
Q 1206 3584 1959 3584 
z
" transform="scale(0.015625)"/>
       <path id="DejaVuSans-63" d="M 3122 3366 
L 3122 2828 
Q 2878 2963 2633 3030 
Q 2388 3097 2138 3097 
Q 1578 3097 1268 2742 
Q 959 2388 959 1747 
Q 959 1106 1268 751 
Q 1578 397 2138 397 
Q 2388 397 2633 464 
Q 2878 531 3122 666 
L 3122 134 
Q 2881 22 2623 -34 
Q 2366 -91 2075 -91 
Q 1284 -91 818 406 
Q 353 903 353 1747 
Q 353 2603 823 3093 
Q 1294 3584 2113 3584 
Q 2378 3584 2631 3529 
Q 2884 3475 3122 3366 
z
" transform="scale(0.015625)"/>
       <path id="DejaVuSans-68" d="M 3513 2113 
L 3513 0 
L 2938 0 
L 2938 2094 
Q 2938 2591 2744 2837 
Q 2550 3084 2163 3084 
Q 1697 3084 1428 2787 
Q 1159 2491 1159 1978 
L 1159 0 
L 581 0 
L 581 4863 
L 1159 4863 
L 1159 2956 
Q 1366 3272 1645 3428 
Q 1925 3584 2291 3584 
Q 2894 3584 3203 3211 
Q 3513 2838 3513 2113 
z
" transform="scale(0.015625)"/>
      </defs>
      <use xlink:href="#DejaVuSans-65"/>
      <use xlink:href="#DejaVuSans-70" x="61.523438"/>
      <use xlink:href="#DejaVuSans-6f" x="125"/>
      <use xlink:href="#DejaVuSans-63" x="186.181641"/>
      <use xlink:href="#DejaVuSans-68" x="241.162109"/>
     </g>
    </g>
   </g>
   <g id="matplotlib.axis_2">
    <g id="ytick_1">
     <g id="line2d_7">
      <defs>
       <path id="mf2865cdc3c" d="M 0 0 
L -3.5 0 
" style="stroke: #000000; stroke-width: 0.8"/>
      </defs>
      <g>
       <use xlink:href="#mf2865cdc3c" x="57.6" y="303.515476" style="stroke: #000000; stroke-width: 0.8"/>
      </g>
     </g>
     <g id="text_8">
      <!-- 0 -->
      <g transform="translate(44.2375 307.314695) scale(0.1 -0.1)">
       <use xlink:href="#DejaVuSans-30"/>
      </g>
     </g>
    </g>
    <g id="ytick_2">
     <g id="line2d_8">
      <g>
       <use xlink:href="#mf2865cdc3c" x="57.6" y="257.152784" style="stroke: #000000; stroke-width: 0.8"/>
      </g>
     </g>
     <g id="text_9">
      <!-- 1 -->
      <g transform="translate(44.2375 260.952003) scale(0.1 -0.1)">
       <use xlink:href="#DejaVuSans-31"/>
      </g>
     </g>
    </g>
    <g id="ytick_3">
     <g id="line2d_9">
      <g>
       <use xlink:href="#mf2865cdc3c" x="57.6" y="210.790092" style="stroke: #000000; stroke-width: 0.8"/>
      </g>
     </g>
     <g id="text_10">
      <!-- 2 -->
      <g transform="translate(44.2375 214.589311) scale(0.1 -0.1)">
       <use xlink:href="#DejaVuSans-32"/>
      </g>
     </g>
    </g>
    <g id="ytick_4">
     <g id="line2d_10">
      <g>
       <use xlink:href="#mf2865cdc3c" x="57.6" y="164.4274" style="stroke: #000000; stroke-width: 0.8"/>
      </g>
     </g>
     <g id="text_11">
      <!-- 3 -->
      <g transform="translate(44.2375 168.226619) scale(0.1 -0.1)">
       <use xlink:href="#DejaVuSans-33"/>
      </g>
     </g>
    </g>
    <g id="ytick_5">
     <g id="line2d_11">
      <g>
       <use xlink:href="#mf2865cdc3c" x="57.6" y="118.064708" style="stroke: #000000; stroke-width: 0.8"/>
      </g>
     </g>
     <g id="text_12">
      <!-- 4 -->
      <g transform="translate(44.2375 121.863926) scale(0.1 -0.1)">
       <use xlink:href="#DejaVuSans-34"/>
      </g>
     </g>
    </g>
    <g id="ytick_6">
     <g id="line2d_12">
      <g>
       <use xlink:href="#mf2865cdc3c" x="57.6" y="71.702015" style="stroke: #000000; stroke-width: 0.8"/>
      </g>
     </g>
     <g id="text_13">
      <!-- 5 -->
      <g transform="translate(44.2375 75.501234) scale(0.1 -0.1)">
       <use xlink:href="#DejaVuSans-35"/>
      </g>
     </g>
    </g>
    <g id="text_14">
     <!-- loss -->
     <g transform="translate(38.157812 184.185812) rotate(-90) scale(0.1 -0.1)">
      <defs>
       <path id="DejaVuSans-6c" d="M 603 4863 
L 1178 4863 
L 1178 0 
L 603 0 
L 603 4863 
z
" transform="scale(0.015625)"/>
       <path id="DejaVuSans-73" d="M 2834 3397 
L 2834 2853 
Q 2591 2978 2328 3040 
Q 2066 3103 1784 3103 
Q 1356 3103 1142 2972 
Q 928 2841 928 2578 
Q 928 2378 1081 2264 
Q 1234 2150 1697 2047 
L 1894 2003 
Q 2506 1872 2764 1633 
Q 3022 1394 3022 966 
Q 3022 478 2636 193 
Q 2250 -91 1575 -91 
Q 1294 -91 989 -36 
Q 684 19 347 128 
L 347 722 
Q 666 556 975 473 
Q 1284 391 1588 391 
Q 1994 391 2212 530 
Q 2431 669 2431 922 
Q 2431 1156 2273 1281 
Q 2116 1406 1581 1522 
L 1381 1569 
Q 847 1681 609 1914 
Q 372 2147 372 2553 
Q 372 3047 722 3315 
Q 1072 3584 1716 3584 
Q 2034 3584 2315 3537 
Q 2597 3491 2834 3397 
z
" transform="scale(0.015625)"/>
      </defs>
      <use xlink:href="#DejaVuSans-6c"/>
      <use xlink:href="#DejaVuSans-6f" x="27.783203"/>
      <use xlink:href="#DejaVuSans-73" x="88.964844"/>
      <use xlink:href="#DejaVuSans-73" x="141.064453"/>
     </g>
    </g>
   </g>
   <g id="line2d_13">
    <path d="M 73.832727 195.901407 
L 74.417222 205.069291 
L 74.741942 207.725159 
L 75.001717 208.336364 
L 75.391381 208.651726 
L 77.144866 212.749995 
L 77.859249 215.154059 
L 78.768464 219.002298 
L 80.132285 225.955867 
L 82.859929 239.999312 
L 84.353639 246.433543 
L 85.717461 251.33959 
L 87.016339 255.206195 
L 88.315216 258.415051 
L 89.679038 261.21257 
L 91.04286 263.529105 
L 92.53657 265.628169 
L 94.160167 267.513509 
L 95.978596 269.271886 
L 97.861969 270.804596 
L 100.005118 272.266907 
L 102.278155 273.581267 
L 105.070742 274.948365 
L 108.317937 276.267221 
L 112.279515 277.596733 
L 120.722222 279.895054 
L 129.03504 281.564416 
L 135.139767 282.544876 
L 139.620896 283.151923 
L 153.129227 284.730614 
L 157.480468 285.153492 
L 159.428785 285.336615 
L 171.703181 286.391573 
L 173.261835 286.516982 
L 184.432185 287.351139 
L 190.212192 287.754275 
L 193.589275 287.986529 
L 215.605256 289.32327 
L 256.195192 291.272397 
L 261.715424 291.490302 
L 263.598797 291.561238 
L 265.48217 291.641809 
L 271.262177 291.857843 
L 274.639259 291.977218 
L 279.510052 292.150586 
L 302.240416 292.86994 
L 306.072106 292.98016 
L 311.982001 293.151288 
L 315.878635 293.260422 
L 328.023144 293.570033 
L 329.906517 293.614199 
L 331.530114 293.662623 
L 349.45463 294.132825 
L 350.688564 294.175879 
L 357.312841 294.336103 
L 360.9497 294.425351 
L 362.768129 294.469214 
L 366.145212 294.56394 
L 398.422329 295.484432 
L 398.487273 295.488 
L 398.487273 295.488 
" clip-path="url(#pd1dd0bc74b)" style="fill: none; stroke: #0000ff; stroke-width: 1.5; stroke-linecap: square"/>
   </g>
   <g id="line2d_14">
    <path d="M 73.832727 195.864498 
L 74.417222 204.957814 
L 74.741942 207.534195 
L 74.936774 208.024626 
L 75.456325 208.342167 
L 77.729361 213.676502 
L 78.638576 216.999827 
L 79.742622 221.936566 
L 84.223751 242.919209 
L 85.457685 247.289157 
L 86.561731 250.442862 
L 87.665778 252.967357 
L 88.639936 254.726497 
L 89.679038 256.198157 
L 90.718141 257.336041 
L 91.822187 258.242463 
L 92.991177 258.935623 
L 94.679718 259.571301 
L 96.04354 259.851668 
L 97.147587 259.965847 
L 98.121745 260.000647 
L 99.03096 259.955681 
L 100.135006 259.78516 
L 103.577032 258.436506 
L 106.629396 256.725082 
L 107.473666 256.214129 
L 108.188049 255.756842 
L 109.876591 254.664977 
L 110.461086 254.276577 
L 112.86401 252.690759 
L 114.487607 251.617857 
L 115.20199 251.133217 
L 116.046261 250.574623 
L 116.435924 250.337913 
L 126.307397 243.864491 
L 126.437285 243.805193 
L 128.19077 242.685915 
L 128.645377 242.423941 
L 140.53011 234.912398 
L 140.789886 234.716824 
L 140.984718 234.610349 
L 148.19349 230.040075 
L 148.453266 229.900478 
L 150.206751 228.742213 
L 150.336639 228.717364 
L 150.726302 228.453915 
L 151.051022 228.260889 
L 151.635517 227.875938 
L 151.895293 227.76083 
L 152.284956 227.462373 
L 152.414844 227.414798 
L 152.804507 227.146447 
L 152.934395 227.064312 
L 154.493048 226.09196 
L 154.622936 225.99938 
L 154.947656 225.809095 
L 155.402263 225.515011 
L 155.85687 225.25537 
L 156.116646 225.041574 
L 156.831029 224.630624 
L 157.090804 224.408975 
L 157.155748 224.436913 
L 157.415524 224.209566 
L 157.545412 224.141259 
L 159.68856 222.778434 
L 159.818448 222.716721 
L 160.987438 221.995592 
L 161.701821 221.532961 
L 163.065643 220.707629 
L 163.325419 220.579538 
L 163.974858 220.169246 
L 164.624296 219.75246 
L 165.01396 219.51948 
L 165.923174 218.956818 
L 168.131267 217.583779 
L 168.261155 217.53401 
L 169.300257 216.926469 
L 177.158469 212.218759 
L 177.3533 212.085777 
L 177.613076 211.906867 
L 177.742964 211.851432 
L 179.301617 210.894163 
L 179.496449 210.797465 
L 180.210832 210.400382 
L 180.730383 210.055848 
L 181.120047 209.835846 
L 181.704542 209.495667 
L 192.355341 203.464842 
L 192.550173 203.351873 
L 193.459387 202.891695 
L 193.913994 202.607924 
L 194.758265 202.150753 
L 195.082985 201.955677 
L 195.212872 201.902674 
L 195.602536 201.64919 
L 195.66748 201.671685 
L 195.862311 201.543539 
L 196.901414 200.933417 
L 197.161189 200.856185 
L 197.420965 200.622619 
L 197.485909 200.687461 
L 197.745684 200.409979 
L 197.875572 200.408122 
L 198.135348 200.220794 
L 198.330179 200.179056 
L 198.784787 199.860808 
L 199.044562 199.776766 
L 199.304338 199.577136 
L 199.434226 199.517998 
L 199.629057 199.405825 
L 199.888833 199.289186 
L 200.538272 198.906683 
L 200.798048 198.773784 
L 201.057823 198.575779 
L 201.187711 198.534438 
L 201.447487 198.391502 
L 202.031982 198.047698 
L 202.616477 197.68161 
L 207.032662 195.195604 
L 207.357381 195.006663 
L 208.00682 194.626337 
L 208.266596 194.50877 
L 208.656259 194.253086 
L 208.786147 194.219284 
L 209.565474 193.796468 
L 210.149969 193.477203 
L 210.409744 193.297668 
L 210.604576 193.213649 
L 211.968398 192.466815 
L 212.228174 192.338271 
L 213.656939 191.514492 
L 213.851771 191.417728 
L 214.631098 190.988633 
L 215.605256 190.461127 
L 216.579415 189.918345 
L 216.774246 189.860556 
L 217.034022 189.668807 
L 217.293798 189.538296 
L 218.267956 189.003671 
L 218.527732 188.867589 
L 219.177171 188.480255 
L 219.631778 188.281067 
L 220.281217 187.905638 
L 220.605936 187.749869 
L 220.865712 187.592718 
L 221.190432 187.421087 
L 222.749085 186.5582 
L 222.814029 186.604725 
L 223.008861 186.414346 
L 223.528412 186.140689 
L 223.788187 186.000893 
L 223.983019 185.908749 
L 224.892234 185.433383 
L 225.152009 185.235809 
L 225.281897 185.227298 
L 225.606617 184.994705 
L 226.191112 184.722828 
L 226.515831 184.524236 
L 227.749765 183.854414 
L 228.074485 183.649511 
L 228.723924 183.298058 
L 229.698082 182.754479 
L 229.82797 182.668238 
L 230.282577 182.4894 
L 230.477409 182.34264 
L 231.32168 181.880881 
L 231.646399 181.690625 
L 232.425726 181.242584 
L 232.685501 181.122441 
L 237.231574 178.56463 
L 237.361462 178.508776 
L 237.816069 178.262764 
L 240.089106 177.055421 
L 240.413825 176.894821 
L 240.803489 176.693157 
L 241.063264 176.543821 
L 247.49271 172.768874 
L 247.752486 172.596546 
L 248.531813 172.174681 
L 248.726644 172.079342 
L 249.246195 171.707506 
L 249.311139 171.751732 
L 249.505971 171.556192 
L 249.895634 171.36127 
L 250.610017 170.98352 
L 250.934737 170.776959 
L 251.129568 170.610965 
L 251.584176 170.320109 
L 251.779007 170.130206 
L 251.908895 170.080431 
L 252.168671 169.968224 
L 252.428446 169.753594 
L 252.947998 169.457642 
L 253.272717 169.171328 
L 253.402605 169.161236 
L 253.727324 168.868389 
L 253.792268 168.939288 
L 254.052044 168.725 
L 254.311819 168.605675 
L 254.701483 168.292623 
L 254.831371 168.258522 
L 255.15609 167.950466 
L 255.285978 167.972275 
L 255.610697 167.71364 
L 256.065305 167.478273 
L 256.195192 167.401516 
L 256.260136 167.386582 
L 256.32508 167.219063 
L 256.390024 167.319375 
L 256.6498 167.029911 
L 256.714744 167.060696 
L 256.844631 166.950634 
L 256.909575 166.9594 
L 257.104407 166.789548 
L 257.429127 166.562516 
L 259.507331 165.23556 
L 259.702163 165.139956 
L 263.14419 163.005061 
L 263.339021 162.848994 
L 263.468909 162.774812 
L 263.533853 162.762863 
L 263.728685 162.541568 
L 263.793629 162.602341 
L 263.858572 162.514563 
L 263.98846 162.481855 
L 264.248236 162.284657 
L 265.612058 161.449128 
L 265.677002 161.456125 
L 265.806889 161.355259 
L 266.001721 161.23673 
L 266.196553 161.051591 
L 266.716104 160.801821 
L 267.040823 160.567991 
L 267.495431 160.299054 
L 274.574316 155.814048 
L 274.769147 155.642351 
L 277.756567 153.725645 
L 278.081286 153.421635 
L 278.14623 153.496225 
L 278.341062 153.275604 
L 278.406006 153.370666 
L 278.600837 153.138958 
L 278.665781 153.155085 
L 278.860613 152.997382 
L 279.250276 152.725018 
L 279.445108 152.598508 
L 280.354323 152.050807 
L 280.549154 151.879695 
L 280.614098 151.896298 
L 280.80893 151.7225 
L 281.068705 151.609741 
L 281.263537 151.436485 
L 281.523313 151.298424 
L 281.783088 151.108863 
L 281.912976 151.088657 
L 282.237696 150.761235 
L 282.367583 150.760991 
L 282.562415 150.590808 
L 282.627359 150.640285 
L 282.692303 150.552817 
L 282.822191 150.509243 
L 283.081966 150.271952 
L 283.276798 150.246706 
L 283.601517 149.934515 
L 283.796349 149.890964 
L 285.225115 148.957819 
L 285.419947 148.897698 
L 285.48489 148.710149 
L 285.549834 148.749379 
L 285.80961 148.611848 
L 286.329161 148.248269 
L 287.563095 147.424291 
L 287.952759 147.1808 
L 288.926917 146.543298 
L 289.056805 146.47198 
L 289.381524 146.176337 
L 289.446468 146.272217 
L 289.511412 146.082822 
L 289.576356 146.141429 
L 289.836132 145.959374 
L 289.901075 145.960888 
L 290.095907 145.695466 
L 290.160851 145.778358 
L 290.225795 145.60193 
L 290.290739 145.66634 
L 290.550514 145.451433 
L 290.615458 145.464863 
L 290.81029 145.291143 
L 291.264897 145.042744 
L 291.459729 144.896536 
L 291.719505 144.678269 
L 291.784449 144.702444 
L 291.849392 144.537997 
L 291.914336 144.595256 
L 292.174112 144.389855 
L 292.239056 144.395868 
L 292.433888 144.213946 
L 299.902436 138.690045 
L 299.96738 138.586472 
L 300.032324 138.721769 
L 300.097267 138.4676 
L 300.162211 138.617422 
L 300.421987 138.305254 
L 300.486931 138.335806 
L 300.681763 138.116235 
L 301.331202 137.671024 
L 301.590977 137.39971 
L 301.655921 137.397643 
L 301.850753 137.15665 
L 301.98064 137.139815 
L 302.175472 136.985494 
L 302.370304 136.854408 
L 302.889855 136.436168 
L 302.954799 136.448725 
L 303.214575 136.156818 
L 303.279518 136.172824 
L 303.47435 135.968518 
L 303.734126 135.826345 
L 303.993901 135.557949 
L 304.448509 135.290792 
L 304.513453 135.103586 
L 304.578396 135.178972 
L 304.773228 135.010049 
L 304.903116 134.97932 
L 305.097948 134.734756 
L 305.162891 134.758997 
L 305.357723 134.580501 
L 305.747387 134.303528 
L 305.942218 134.092358 
L 306.13705 133.992708 
L 306.331882 133.763609 
L 306.461769 133.747404 
L 306.656601 133.562431 
L 306.721545 133.573739 
L 306.916377 133.377922 
L 309.579077 131.434986 
L 309.773908 131.258271 
L 310.293459 130.902197 
L 310.358403 130.730123 
L 310.423347 130.787536 
L 310.877954 130.440007 
L 310.942898 130.451072 
L 311.13773 130.240841 
L 311.202674 130.244511 
L 311.46245 129.946624 
L 311.722225 129.835623 
L 311.982001 129.61646 
L 312.046945 129.623844 
L 312.241776 129.402339 
L 313.670542 128.378852 
L 313.865374 128.236259 
L 314.449869 127.741185 
L 314.514813 127.82967 
L 314.709644 127.58588 
L 315.359083 127.164799 
L 315.943579 126.640731 
L 316.073466 126.620436 
L 316.398186 126.277782 
L 316.46313 126.36725 
L 316.657961 126.033428 
L 316.722905 126.221463 
L 316.917737 125.875901 
L 316.982681 125.95404 
L 317.242456 125.622075 
L 317.3074 125.703408 
L 317.567176 125.385702 
L 317.63212 125.489695 
L 317.826952 125.240831 
L 317.956839 125.165832 
L 319.12583 124.3843 
L 319.320661 124.167714 
L 319.450549 124.043669 
L 319.840212 123.787664 
L 320.035044 123.6095 
L 320.229876 123.4427 
L 320.359764 123.414148 
L 320.814371 122.954722 
L 320.879315 123.065325 
L 321.074146 122.813765 
L 321.204034 122.793459 
L 321.398866 122.565133 
L 321.593698 122.550896 
L 321.788529 122.247007 
L 321.853473 122.304851 
L 321.918417 122.224424 
L 322.113249 122.032432 
L 322.373024 121.89919 
L 322.827632 121.578566 
L 323.087407 121.376857 
L 323.282239 121.218546 
L 323.542015 120.99872 
L 324.321341 120.424711 
L 324.516173 120.288751 
L 325.750107 119.3888 
L 325.815051 119.192895 
L 325.879995 119.346973 
L 326.074827 119.105681 
L 326.46449 118.860001 
L 329.062246 116.869755 
L 329.12719 116.914523 
L 329.322021 116.611562 
L 329.386965 116.694156 
L 329.581797 116.484931 
L 329.906517 116.109502 
L 329.97146 116.184247 
L 330.166292 115.938987 
L 330.231236 116.016607 
L 330.491012 115.651215 
L 330.555956 115.684066 
L 330.815731 115.482513 
L 330.880675 115.503448 
L 331.075507 115.248572 
L 331.140451 115.324489 
L 331.400226 115.02942 
L 337.569897 110.186827 
L 337.764728 109.984765 
L 337.829672 109.984676 
L 338.024504 109.829813 
L 338.738887 109.208992 
L 338.803831 109.287739 
L 339.063606 109.001093 
L 339.45327 108.717234 
L 339.518213 108.717609 
L 339.583157 108.521936 
L 339.648101 108.620116 
L 339.972821 108.296308 
L 340.557316 107.825331 
L 340.882035 107.535325 
L 340.946979 107.529754 
L 341.011923 107.397883 
L 341.076867 107.495708 
L 341.596418 106.952992 
L 341.661362 106.965439 
L 341.726306 106.812455 
L 341.79125 106.877075 
L 342.310801 106.481551 
L 342.375745 106.477992 
L 342.570577 106.213012 
L 342.635521 106.283468 
L 342.830352 106.09414 
L 343.220016 105.786073 
L 343.414847 105.538867 
L 343.479791 105.640362 
L 343.674623 105.422958 
L 343.804511 105.336893 
L 344.389006 104.806138 
L 344.45395 104.864258 
L 344.518894 104.660781 
L 344.583837 104.735548 
L 344.973501 104.347297 
L 345.29822 104.179236 
L 345.493052 103.830425 
L 345.557996 103.949009 
L 345.62294 103.84327 
L 345.817772 103.682792 
L 346.986762 102.773114 
L 347.181593 102.539328 
L 349.389686 100.757533 
L 349.584518 100.438279 
L 349.649462 100.550652 
L 349.844293 100.247315 
L 349.909237 100.33769 
L 350.169013 99.999446 
L 350.233957 100.087478 
L 350.428788 99.838946 
L 350.62362 99.680546 
L 350.818452 99.555241 
L 351.013283 99.246975 
L 351.078227 99.30063 
L 351.143171 99.219672 
L 351.597778 98.768791 
L 351.662722 98.864295 
L 351.727666 98.609529 
L 351.79261 98.718076 
L 352.052386 98.435278 
L 352.11733 98.454113 
L 352.312161 98.174277 
L 352.506993 98.122767 
L 352.701825 97.88593 
L 353.28632 97.395365 
L 353.481152 97.223612 
L 353.805871 96.937166 
L 354.325422 96.462563 
L 354.780029 96.061976 
L 354.974861 95.962581 
L 355.169693 95.757004 
L 355.494412 95.478251 
L 355.6243 95.335348 
L 355.689244 95.326859 
L 355.884076 95.119005 
L 361.534195 90.03376 
L 361.599139 89.833179 
L 361.664083 90.00051 
L 361.858914 89.789185 
L 361.923858 89.816488 
L 362.183634 89.475016 
L 362.573297 89.116831 
L 362.638241 89.143868 
L 362.833073 88.855543 
L 362.898017 88.843671 
L 363.157792 88.519598 
L 363.222736 88.572324 
L 363.417568 88.363055 
L 363.482512 88.382642 
L 363.677343 88.111561 
L 363.742287 88.122415 
L 364.002063 87.820803 
L 364.261839 87.555713 
L 364.326782 87.671556 
L 364.391726 87.409185 
L 364.45667 87.488683 
L 364.846334 86.997743 
L 364.911278 87.084979 
L 365.106109 86.810183 
L 365.235997 86.728452 
L 365.430829 86.505454 
L 366.080268 85.953453 
L 366.469931 85.634332 
L 367.184314 84.990983 
L 367.573977 84.620484 
L 368.872855 83.457765 
L 369.067687 83.188297 
L 369.132631 83.200942 
L 369.327463 82.998571 
L 371.665443 80.660973 
L 371.860275 80.502484 
L 372.184994 80.082509 
L 372.249938 80.099068 
L 372.574657 79.739689 
L 372.704545 79.61476 
L 373.159153 79.161026 
L 373.224096 79.197702 
L 373.418928 78.92388 
L 374.068367 78.233641 
L 374.522974 77.836856 
L 374.717806 77.565598 
L 374.847694 77.442459 
L 374.977582 77.34344 
L 375.691965 76.55836 
L 376.211516 76.099962 
L 376.406347 75.807524 
L 376.471291 75.844488 
L 376.666123 75.557577 
L 376.731067 75.594652 
L 376.925899 75.288463 
L 377.185674 75.073933 
L 377.380506 74.825511 
L 377.44545 74.846978 
L 377.640282 74.581489 
L 378.094889 74.126474 
L 378.419608 73.767051 
L 379.718486 72.51327 
L 379.913318 72.251164 
L 380.302981 71.855353 
L 380.562757 71.576202 
L 380.757589 71.336225 
L 380.822533 71.379821 
L 381.017364 71.151142 
L 381.731747 70.397786 
L 382.056467 70.027575 
L 382.12141 70.020257 
L 382.316242 69.689198 
L 382.381186 69.826286 
L 382.576018 69.405935 
L 382.640962 69.463348 
L 382.705906 69.375007 
L 382.900737 69.075075 
L 382.965681 69.139209 
L 383.160513 68.806403 
L 383.225457 68.884354 
L 383.745008 68.261145 
L 383.874896 68.147933 
L 384.459391 67.53885 
L 384.524335 67.507944 
L 384.78411 67.169877 
L 384.978942 66.99357 
L 385.563437 66.360478 
L 385.758269 66.192307 
L 386.018044 65.896421 
L 386.147932 65.730217 
L 386.667483 65.23344 
L 386.992203 64.83429 
L 387.057147 64.853878 
L 387.251978 64.511942 
L 387.316922 64.549834 
L 387.576698 64.223859 
L 387.641642 64.248288 
L 387.836473 63.924325 
L 387.901417 63.930317 
L 388.096249 63.627997 
L 388.161193 63.65625 
L 388.356025 63.384041 
L 388.550856 63.20108 
L 389.265239 62.507812 
L 389.460071 62.194881 
L 389.589959 62.113924 
L 389.979622 61.753351 
L 390.174454 61.455564 
L 390.239398 61.478357 
L 390.499173 61.136133 
L 390.823893 60.825037 
L 391.148612 60.426175 
L 391.408388 60.213081 
L 391.862995 59.68836 
L 392.122771 59.500557 
L 392.44749 59.232483 
L 392.77221 59.04877 
L 392.967041 58.848454 
L 393.096929 58.759914 
L 393.9412 58.101531 
L 394.071088 58.081369 
L 394.915358 57.587555 
L 395.305022 57.149607 
L 395.694685 56.808688 
L 395.889517 56.508535 
L 395.954461 56.562013 
L 396.149292 56.300946 
L 396.214236 56.302957 
L 396.27918 56.03223 
L 396.344124 56.132487 
L 396.6039 55.744191 
L 396.668844 55.88422 
L 396.863675 55.302706 
L 396.928619 55.450406 
L 396.993563 55.414835 
L 397.188395 55.040312 
L 397.253339 55.217835 
L 397.513114 54.662009 
L 397.578058 54.719268 
L 397.707946 54.508451 
L 397.77289 54.552799 
L 398.032665 54.074239 
L 398.487273 53.568 
L 398.487273 53.568 
" clip-path="url(#pd1dd0bc74b)" style="fill: none; stroke: #008000; stroke-width: 1.5; stroke-linecap: square"/>
   </g>
   <g id="line2d_15">
    <path d="M 73.832727 195.925393 
L 74.417222 204.968691 
L 74.741942 207.506903 
L 74.936774 207.979339 
L 75.456325 208.349694 
L 76.300595 210.114787 
L 77.014978 211.672428 
L 77.729361 213.676867 
L 78.70352 217.182871 
L 79.937454 222.601132 
L 83.249592 237.606373 
L 84.483527 242.124336 
L 85.587573 245.419557 
L 86.626675 247.865918 
L 87.730721 249.868267 
L 88.834768 251.357895 
L 89.87387 252.405009 
L 90.977916 253.229656 
L 92.146906 253.83361 
L 93.835448 254.302968 
L 97.212531 254.385826 
L 97.861969 254.300276 
L 99.095904 254.079964 
L 101.433884 253.325801 
L 105.720181 250.93724 
L 106.239732 250.58068 
L 108.252993 249.199954 
L 118.449185 242.238117 
L 118.708961 242.087919 
L 119.488287 241.574949 
L 119.683119 241.461759 
L 120.462446 240.959555 
L 120.852109 240.675789 
L 121.176829 240.48079 
L 121.761324 240.066436 
L 122.605595 239.516242 
L 122.995258 239.223025 
L 124.099304 238.489428 
L 124.878631 237.95765 
L 126.307397 237.018591 
L 126.437285 236.945521 
L 126.891892 236.680054 
L 127.151667 236.482325 
L 129.944255 234.803402 
L 130.268975 234.594437 
L 131.69774 233.711466 
L 134.490328 232.005267 
L 134.750103 231.880648 
L 135.009879 231.697554 
L 135.269655 231.575631 
L 135.724262 231.269084 
L 136.568533 230.724588 
L 136.893252 230.496765 
L 137.282915 230.232896 
L 137.802467 229.864929 
L 138.062242 229.688854 
L 139.815728 228.41783 
L 140.075503 228.249111 
L 140.400223 227.991267 
L 140.53011 227.905258 
L 141.049662 227.548145 
L 141.764044 227.022192 
L 142.608315 226.442606 
L 144.426744 225.182653 
L 144.881352 224.903662 
L 145.790566 224.245335 
L 146.18023 223.982008 
L 146.504949 223.719626 
L 147.34922 223.129987 
L 147.803827 222.804852 
L 148.323378 222.484239 
L 148.583154 222.262214 
L 149.037761 221.973098 
L 149.297537 221.756716 
L 149.427424 221.690073 
L 151.635517 220.174507 
L 151.765405 220.099066 
L 152.02518 219.907339 
L 152.284956 219.760612 
L 152.999339 219.280206 
L 153.389002 219.034979 
L 153.583834 218.896807 
L 154.168329 218.488963 
L 158.714402 215.566579 
L 159.039121 215.372276 
L 159.558672 215.051652 
L 160.792607 214.270905 
L 160.987438 214.161086 
L 162.156428 213.454388 
L 162.611036 213.18449 
L 163.909914 212.440259 
L 164.429465 212.110178 
L 164.68924 211.969724 
L 165.143848 211.697139 
L 165.403623 211.581434 
L 166.18295 211.097402 
L 172.872172 207.31102 
L 173.326779 207.058111 
L 173.781386 206.822655 
L 174.430825 206.476839 
L 174.755545 206.276966 
L 175.01532 206.176609 
L 175.469927 205.902233 
L 175.794647 205.741645 
L 182.483868 202.195023 
L 182.743644 202.079976 
L 183.00342 201.905581 
L 183.263195 201.783791 
L 186.120727 200.31768 
L 186.380502 200.241155 
L 186.705222 200.024889 
L 187.419605 199.669799 
L 188.198931 199.269212 
L 188.523651 199.12432 
L 189.627697 198.543458 
L 189.887473 198.420839 
L 191.316239 197.723625 
L 196.122087 195.327265 
L 196.446806 195.138943 
L 197.096245 194.848992 
L 197.356021 194.685375 
L 197.745684 194.483136 
L 198.200292 194.217449 
L 198.460067 194.130688 
L 199.044562 193.778516 
L 199.239394 193.684361 
L 199.694001 193.476097 
L 200.278496 193.171943 
L 200.603216 193.019413 
L 201.057823 192.747137 
L 201.772206 192.390555 
L 203.980299 191.242029 
L 204.824569 190.771637 
L 205.279177 190.535917 
L 245.349562 169.517354 
L 245.739225 169.275133 
L 246.64844 168.758106 
L 246.973159 168.527117 
L 247.362822 168.33686 
L 247.752486 168.087444 
L 248.336981 167.76179 
L 248.596756 167.598327 
L 248.921476 167.412138 
L 249.960578 166.78034 
L 250.415186 166.566141 
L 250.804849 166.289422 
L 252.947998 164.960709 
L 253.142829 164.785087 
L 253.9871 164.240957 
L 255.091146 163.539907 
L 255.15609 163.43336 
L 255.221034 163.473275 
L 256.714744 162.496524 
L 256.909575 162.390872 
L 257.753846 161.828458 
L 257.883734 161.765121 
L 258.143509 161.613242 
L 260.416546 160.135978 
L 260.611378 160.068561 
L 261.065985 159.739359 
L 261.65048 159.433901 
L 262.234975 159.050801 
L 262.624638 158.889317 
L 263.014302 158.639348 
L 263.274077 158.527163 
L 263.468909 158.35855 
L 264.248236 157.888711 
L 264.832731 157.546256 
L 265.352282 157.227245 
L 265.417226 157.262705 
L 265.612058 157.110894 
L 266.521272 156.547264 
L 266.65116 156.52645 
L 267.170711 156.141835 
L 267.300599 156.131445 
L 267.495431 156.032249 
L 267.885094 155.769225 
L 267.950038 155.795412 
L 268.14487 155.653062 
L 268.534533 155.36394 
L 268.599477 155.39048 
L 268.794309 155.211731 
L 268.859253 155.234523 
L 268.98914 155.075173 
L 269.119028 155.031278 
L 269.248916 154.959916 
L 269.31386 154.973401 
L 269.508692 154.825005 
L 270.158131 154.391621 
L 270.288018 154.351242 
L 270.872513 153.941989 
L 271.002401 153.859771 
L 271.457008 153.573767 
L 271.781728 153.387025 
L 272.171391 153.160535 
L 272.496111 152.937714 
L 272.755886 152.775279 
L 272.950718 152.687115 
L 273.14555 152.530605 
L 275.48353 151.054192 
L 275.678362 151.001322 
L 275.873194 150.804731 
L 277.107128 150.052768 
L 278.081286 149.359335 
L 278.14623 149.448804 
L 278.341062 149.263278 
L 278.406006 149.308742 
L 278.600837 149.109432 
L 278.860613 148.978666 
L 279.185332 148.721402 
L 279.445108 148.608024 
L 279.769827 148.377266 
L 280.873874 147.718155 
L 281.198593 147.51743 
L 281.6532 147.25203 
L 281.97792 147.041534 
L 282.107808 146.976063 
L 282.432527 146.716897 
L 282.562415 146.660501 
L 282.887135 146.512016 
L 283.14691 146.32523 
L 285.095227 145.119379 
L 285.225115 145.058573 
L 285.679722 144.763792 
L 285.939498 144.625045 
L 286.264217 144.451447 
L 286.913656 144.035495 
L 287.108488 143.924869 
L 287.30332 143.72557 
L 287.368263 143.739697 
L 287.433207 143.601017 
L 287.498151 143.639075 
L 294.187373 139.358132 
L 294.447148 139.196438 
L 298.148951 136.734375 
L 298.343782 136.549292 
L 298.603558 136.392163 
L 299.837492 135.54663 
L 300.097267 135.283607 
L 300.227155 135.258017 
L 300.421987 135.145247 
L 301.396145 134.457573 
L 301.915697 134.094005 
L 303.084687 133.326467 
L 303.279518 133.176523 
L 303.604238 132.907995 
L 303.79907 132.81479 
L 304.058845 132.616232 
L 304.448509 132.398883 
L 304.513453 132.247867 
L 304.578396 132.31179 
L 305.097948 131.921682 
L 305.162891 131.947338 
L 305.292779 131.823016 
L 305.552555 131.67315 
L 305.81233 131.446847 
L 305.877274 131.476184 
L 306.072106 131.300794 
L 307.63076 130.218402 
L 308.280199 129.771688 
L 308.669862 129.540378 
L 308.864694 129.406528 
L 309.254357 129.123763 
L 309.319301 129.13727 
L 309.514133 128.918838 
L 309.579077 128.935982 
L 309.773908 128.778422 
L 310.293459 128.450768 
L 310.358403 128.304118 
L 310.423347 128.352356 
L 311.267618 127.716491 
L 311.332562 127.818715 
L 311.527393 127.565176 
L 311.657281 127.477111 
L 312.30672 127.051288 
L 312.501552 126.884476 
L 312.566496 126.927509 
L 312.826271 126.704268 
L 313.345823 126.334509 
L 313.410767 126.380559 
L 313.540654 126.22343 
L 314.060205 125.897555 
L 316.268298 124.380752 
L 316.46313 124.275653 
L 316.657961 124.006418 
L 316.722905 124.145363 
L 316.787849 123.906017 
L 316.852793 124.021683 
L 317.047625 123.81038 
L 317.372344 123.570503 
L 317.437288 123.66132 
L 317.567176 123.43337 
L 317.63212 123.480979 
L 317.826952 123.296083 
L 317.891895 123.32228 
L 318.021783 123.152705 
L 318.086727 123.217005 
L 318.281559 122.970739 
L 318.541334 122.851977 
L 318.606278 122.713927 
L 318.671222 122.745375 
L 324.321341 118.837805 
L 324.451229 118.724516 
L 324.581117 118.622147 
L 325.035724 118.363048 
L 325.230556 118.157614 
L 325.425388 118.079254 
L 325.815051 117.734798 
L 325.879995 117.790288 
L 326.074827 117.573789 
L 326.204714 117.523782 
L 327.113929 116.905481 
L 327.503592 116.587907 
L 327.698424 116.499146 
L 327.893256 116.296399 
L 328.412807 115.988729 
L 328.607639 115.786225 
L 328.737526 115.702438 
L 328.867414 115.669741 
L 329.062246 115.472454 
L 329.12719 115.499978 
L 329.322021 115.294688 
L 329.386965 115.296921 
L 329.581797 115.082147 
L 331.205395 113.91516 
L 331.530114 113.632119 
L 331.595058 113.703415 
L 331.724946 113.485281 
L 331.78989 113.517779 
L 334.452589 111.480909 
L 334.582477 111.449472 
L 334.907197 111.107934 
L 334.972141 111.177639 
L 335.231916 110.938193 
L 335.361804 110.795754 
L 335.62158 110.623935 
L 335.816411 110.480104 
L 336.076187 110.302957 
L 338.738887 108.326086 
L 338.803831 108.376469 
L 339.063606 108.114695 
L 339.45327 107.844365 
L 339.518213 107.826723 
L 339.583157 107.661205 
L 339.648101 107.736834 
L 339.972821 107.413911 
L 340.037765 107.391958 
L 340.167652 107.27375 
L 340.557316 106.975432 
L 340.817091 106.735919 
L 341.141811 106.568146 
L 341.726306 106.004715 
L 341.856194 106.002836 
L 343.220016 104.997301 
L 343.544735 104.740876 
L 343.739567 104.668386 
L 343.934399 104.418528 
L 346.272379 102.641575 
L 346.467211 102.482998 
L 346.79193 102.247752 
L 346.986762 102.103192 
L 347.181593 101.916738 
L 348.870135 100.626193 
L 349.12991 100.386813 
L 349.45463 100.057611 
L 349.519574 100.151059 
L 349.714405 99.861076 
L 349.779349 99.922734 
L 349.974181 99.744945 
L 350.753508 99.070071 
L 350.948339 98.987102 
L 351.143171 98.790832 
L 353.351264 97.029642 
L 353.481152 96.950762 
L 353.935759 96.594235 
L 354.260478 96.30927 
L 354.585198 96.08572 
L 354.909917 95.815942 
L 354.974861 95.8199 
L 355.169693 95.631655 
L 356.208795 94.7818 
L 356.403627 94.560902 
L 356.468571 94.602707 
L 356.728346 94.356121 
L 357.053066 94.1182 
L 357.247898 93.882933 
L 357.312841 93.921223 
L 357.572617 93.705167 
L 357.637561 93.70289 
L 357.832393 93.486038 
L 357.897337 93.479273 
L 358.092168 93.276149 
L 358.871495 92.644031 
L 359.066327 92.41334 
L 359.131271 92.468542 
L 359.326102 92.243731 
L 359.45599 92.205485 
L 359.78071 91.884596 
L 359.975541 91.754493 
L 360.170373 91.571797 
L 360.235317 91.594369 
L 360.430149 91.390384 
L 360.495092 91.414459 
L 360.884756 90.947085 
L 360.9497 91.018536 
L 361.014644 90.932936 
L 361.404307 90.623299 
L 363.222736 89.108187 
L 363.482512 88.986286 
L 363.677343 88.72816 
L 363.807231 88.648286 
L 363.937119 88.558551 
L 364.261839 88.302459 
L 364.326782 88.326733 
L 364.45667 88.180912 
L 364.521614 88.164199 
L 364.78139 87.877487 
L 365.560717 87.250873 
L 365.62566 87.283393 
L 365.755548 87.119666 
L 365.95038 86.976719 
L 366.404987 86.654569 
L 366.534875 86.585196 
L 366.859594 86.31113 
L 367.184314 86.121558 
L 367.379146 85.970697 
L 367.703865 85.708834 
L 367.898697 85.579926 
L 368.223416 85.319146 
L 368.353304 85.241659 
L 368.548136 85.137423 
L 368.807911 84.88867 
L 369.002743 84.787749 
L 369.197575 84.546314 
L 369.327463 84.493477 
L 369.976902 84.000503 
L 370.171733 83.838433 
L 370.626341 83.474168 
L 373.483872 81.158346 
L 373.678704 81.033307 
L 374.003423 80.705121 
L 374.133311 80.603538 
L 380.302981 75.424513 
L 380.562757 75.169592 
L 380.757589 74.968458 
L 380.822533 75.071656 
L 380.887476 74.86389 
L 380.95242 74.915533 
L 381.27714 74.585756 
L 381.536915 74.395764 
L 381.796691 74.130232 
L 381.991523 74.020756 
L 382.186354 73.785554 
L 382.251298 73.783543 
L 382.44613 73.531451 
L 382.511074 73.561451 
L 382.770849 73.257474 
L 391.213556 66.008572 
L 391.408388 65.833658 
L 391.733107 65.539054 
L 393.356705 64.242739 
L 394.395807 63.494645 
L 394.525695 63.425073 
L 395.43491 62.521917 
L 395.629741 62.40687 
L 396.214236 61.806498 
L 396.409068 61.615666 
L 396.668844 61.342418 
L 396.863675 60.957682 
L 396.928619 61.046974 
L 396.993563 60.978308 
L 397.578058 60.319572 
L 398.487273 59.348657 
L 398.487273 59.348657 
" clip-path="url(#pd1dd0bc74b)" style="fill: none; stroke: #ff0000; stroke-width: 1.5; stroke-linecap: square"/>
   </g>
   <g id="patch_3">
    <path d="M 57.6 307.584 
L 57.6 41.472 
" style="fill: none; stroke: #000000; stroke-width: 0.8; stroke-linejoin: miter; stroke-linecap: square"/>
   </g>
   <g id="patch_4">
    <path d="M 414.72 307.584 
L 414.72 41.472 
" style="fill: none; stroke: #000000; stroke-width: 0.8; stroke-linejoin: miter; stroke-linecap: square"/>
   </g>
   <g id="patch_5">
    <path d="M 57.6 307.584 
L 414.72 307.584 
" style="fill: none; stroke: #000000; stroke-width: 0.8; stroke-linejoin: miter; stroke-linecap: square"/>
   </g>
   <g id="patch_6">
    <path d="M 57.6 41.472 
L 414.72 41.472 
" style="fill: none; stroke: #000000; stroke-width: 0.8; stroke-linejoin: miter; stroke-linecap: square"/>
   </g>
   <g id="text_15">
    <!-- Script19_loss -->
    <g transform="translate(196.532813 35.472) scale(0.12 -0.12)">
     <defs>
      <path id="DejaVuSans-53" d="M 3425 4513 
L 3425 3897 
Q 3066 4069 2747 4153 
Q 2428 4238 2131 4238 
Q 1616 4238 1336 4038 
Q 1056 3838 1056 3469 
Q 1056 3159 1242 3001 
Q 1428 2844 1947 2747 
L 2328 2669 
Q 3034 2534 3370 2195 
Q 3706 1856 3706 1288 
Q 3706 609 3251 259 
Q 2797 -91 1919 -91 
Q 1588 -91 1214 -16 
Q 841 59 441 206 
L 441 856 
Q 825 641 1194 531 
Q 1563 422 1919 422 
Q 2459 422 2753 634 
Q 3047 847 3047 1241 
Q 3047 1584 2836 1778 
Q 2625 1972 2144 2069 
L 1759 2144 
Q 1053 2284 737 2584 
Q 422 2884 422 3419 
Q 422 4038 858 4394 
Q 1294 4750 2059 4750 
Q 2388 4750 2728 4690 
Q 3069 4631 3425 4513 
z
" transform="scale(0.015625)"/>
      <path id="DejaVuSans-72" d="M 2631 2963 
Q 2534 3019 2420 3045 
Q 2306 3072 2169 3072 
Q 1681 3072 1420 2755 
Q 1159 2438 1159 1844 
L 1159 0 
L 581 0 
L 581 3500 
L 1159 3500 
L 1159 2956 
Q 1341 3275 1631 3429 
Q 1922 3584 2338 3584 
Q 2397 3584 2469 3576 
Q 2541 3569 2628 3553 
L 2631 2963 
z
" transform="scale(0.015625)"/>
      <path id="DejaVuSans-69" d="M 603 3500 
L 1178 3500 
L 1178 0 
L 603 0 
L 603 3500 
z
M 603 4863 
L 1178 4863 
L 1178 4134 
L 603 4134 
L 603 4863 
z
" transform="scale(0.015625)"/>
      <path id="DejaVuSans-74" d="M 1172 4494 
L 1172 3500 
L 2356 3500 
L 2356 3053 
L 1172 3053 
L 1172 1153 
Q 1172 725 1289 603 
Q 1406 481 1766 481 
L 2356 481 
L 2356 0 
L 1766 0 
Q 1100 0 847 248 
Q 594 497 594 1153 
L 594 3053 
L 172 3053 
L 172 3500 
L 594 3500 
L 594 4494 
L 1172 4494 
z
" transform="scale(0.015625)"/>
      <path id="DejaVuSans-39" d="M 703 97 
L 703 672 
Q 941 559 1184 500 
Q 1428 441 1663 441 
Q 2288 441 2617 861 
Q 2947 1281 2994 2138 
Q 2813 1869 2534 1725 
Q 2256 1581 1919 1581 
Q 1219 1581 811 2004 
Q 403 2428 403 3163 
Q 403 3881 828 4315 
Q 1253 4750 1959 4750 
Q 2769 4750 3195 4129 
Q 3622 3509 3622 2328 
Q 3622 1225 3098 567 
Q 2575 -91 1691 -91 
Q 1453 -91 1209 -44 
Q 966 3 703 97 
z
M 1959 2075 
Q 2384 2075 2632 2365 
Q 2881 2656 2881 3163 
Q 2881 3666 2632 3958 
Q 2384 4250 1959 4250 
Q 1534 4250 1286 3958 
Q 1038 3666 1038 3163 
Q 1038 2656 1286 2365 
Q 1534 2075 1959 2075 
z
" transform="scale(0.015625)"/>
      <path id="DejaVuSans-5f" d="M 3263 -1063 
L 3263 -1509 
L -63 -1509 
L -63 -1063 
L 3263 -1063 
z
" transform="scale(0.015625)"/>
     </defs>
     <use xlink:href="#DejaVuSans-53"/>
     <use xlink:href="#DejaVuSans-63" x="63.476562"/>
     <use xlink:href="#DejaVuSans-72" x="118.457031"/>
     <use xlink:href="#DejaVuSans-69" x="159.570312"/>
     <use xlink:href="#DejaVuSans-70" x="187.353516"/>
     <use xlink:href="#DejaVuSans-74" x="250.830078"/>
     <use xlink:href="#DejaVuSans-31" x="290.039062"/>
     <use xlink:href="#DejaVuSans-39" x="353.662109"/>
     <use xlink:href="#DejaVuSans-5f" x="417.285156"/>
     <use xlink:href="#DejaVuSans-6c" x="467.285156"/>
     <use xlink:href="#DejaVuSans-6f" x="495.068359"/>
     <use xlink:href="#DejaVuSans-73" x="556.25"/>
     <use xlink:href="#DejaVuSans-73" x="608.349609"/>
    </g>
   </g>
   <g id="legend_1">
    <g id="patch_7">
     <path d="M 64.6 93.506375 
L 164.295312 93.506375 
Q 166.295312 93.506375 166.295312 91.506375 
L 166.295312 48.472 
Q 166.295312 46.472 164.295312 46.472 
L 64.6 46.472 
Q 62.6 46.472 62.6 48.472 
L 62.6 91.506375 
Q 62.6 93.506375 64.6 93.506375 
z
" style="fill: #ffffff; opacity: 0.8; stroke: #cccccc; stroke-linejoin: miter"/>
    </g>
    <g id="line2d_16">
     <path d="M 66.6 54.570438 
L 76.6 54.570438 
L 86.6 54.570438 
" style="fill: none; stroke: #0000ff; stroke-width: 1.5; stroke-linecap: square"/>
    </g>
    <g id="text_16">
     <!-- training set -->
     <g transform="translate(94.6 58.070438) scale(0.1 -0.1)">
      <defs>
       <path id="DejaVuSans-61" d="M 2194 1759 
Q 1497 1759 1228 1600 
Q 959 1441 959 1056 
Q 959 750 1161 570 
Q 1363 391 1709 391 
Q 2188 391 2477 730 
Q 2766 1069 2766 1631 
L 2766 1759 
L 2194 1759 
z
M 3341 1997 
L 3341 0 
L 2766 0 
L 2766 531 
Q 2569 213 2275 61 
Q 1981 -91 1556 -91 
Q 1019 -91 701 211 
Q 384 513 384 1019 
Q 384 1609 779 1909 
Q 1175 2209 1959 2209 
L 2766 2209 
L 2766 2266 
Q 2766 2663 2505 2880 
Q 2244 3097 1772 3097 
Q 1472 3097 1187 3025 
Q 903 2953 641 2809 
L 641 3341 
Q 956 3463 1253 3523 
Q 1550 3584 1831 3584 
Q 2591 3584 2966 3190 
Q 3341 2797 3341 1997 
z
" transform="scale(0.015625)"/>
       <path id="DejaVuSans-6e" d="M 3513 2113 
L 3513 0 
L 2938 0 
L 2938 2094 
Q 2938 2591 2744 2837 
Q 2550 3084 2163 3084 
Q 1697 3084 1428 2787 
Q 1159 2491 1159 1978 
L 1159 0 
L 581 0 
L 581 3500 
L 1159 3500 
L 1159 2956 
Q 1366 3272 1645 3428 
Q 1925 3584 2291 3584 
Q 2894 3584 3203 3211 
Q 3513 2838 3513 2113 
z
" transform="scale(0.015625)"/>
       <path id="DejaVuSans-67" d="M 2906 1791 
Q 2906 2416 2648 2759 
Q 2391 3103 1925 3103 
Q 1463 3103 1205 2759 
Q 947 2416 947 1791 
Q 947 1169 1205 825 
Q 1463 481 1925 481 
Q 2391 481 2648 825 
Q 2906 1169 2906 1791 
z
M 3481 434 
Q 3481 -459 3084 -895 
Q 2688 -1331 1869 -1331 
Q 1566 -1331 1297 -1286 
Q 1028 -1241 775 -1147 
L 775 -588 
Q 1028 -725 1275 -790 
Q 1522 -856 1778 -856 
Q 2344 -856 2625 -561 
Q 2906 -266 2906 331 
L 2906 616 
Q 2728 306 2450 153 
Q 2172 0 1784 0 
Q 1141 0 747 490 
Q 353 981 353 1791 
Q 353 2603 747 3093 
Q 1141 3584 1784 3584 
Q 2172 3584 2450 3431 
Q 2728 3278 2906 2969 
L 2906 3500 
L 3481 3500 
L 3481 434 
z
" transform="scale(0.015625)"/>
       <path id="DejaVuSans-20" transform="scale(0.015625)"/>
      </defs>
      <use xlink:href="#DejaVuSans-74"/>
      <use xlink:href="#DejaVuSans-72" x="39.208984"/>
      <use xlink:href="#DejaVuSans-61" x="80.322266"/>
      <use xlink:href="#DejaVuSans-69" x="141.601562"/>
      <use xlink:href="#DejaVuSans-6e" x="169.384766"/>
      <use xlink:href="#DejaVuSans-69" x="232.763672"/>
      <use xlink:href="#DejaVuSans-6e" x="260.546875"/>
      <use xlink:href="#DejaVuSans-67" x="323.925781"/>
      <use xlink:href="#DejaVuSans-20" x="387.402344"/>
      <use xlink:href="#DejaVuSans-73" x="419.189453"/>
      <use xlink:href="#DejaVuSans-65" x="471.289062"/>
      <use xlink:href="#DejaVuSans-74" x="532.8125"/>
     </g>
    </g>
    <g id="line2d_17">
     <path d="M 66.6 69.248563 
L 76.6 69.248563 
L 86.6 69.248563 
" style="fill: none; stroke: #008000; stroke-width: 1.5; stroke-linecap: square"/>
    </g>
    <g id="text_17">
     <!-- validation set -->
     <g transform="translate(94.6 72.748563) scale(0.1 -0.1)">
      <defs>
       <path id="DejaVuSans-76" d="M 191 3500 
L 800 3500 
L 1894 563 
L 2988 3500 
L 3597 3500 
L 2284 0 
L 1503 0 
L 191 3500 
z
" transform="scale(0.015625)"/>
       <path id="DejaVuSans-64" d="M 2906 2969 
L 2906 4863 
L 3481 4863 
L 3481 0 
L 2906 0 
L 2906 525 
Q 2725 213 2448 61 
Q 2172 -91 1784 -91 
Q 1150 -91 751 415 
Q 353 922 353 1747 
Q 353 2572 751 3078 
Q 1150 3584 1784 3584 
Q 2172 3584 2448 3432 
Q 2725 3281 2906 2969 
z
M 947 1747 
Q 947 1113 1208 752 
Q 1469 391 1925 391 
Q 2381 391 2643 752 
Q 2906 1113 2906 1747 
Q 2906 2381 2643 2742 
Q 2381 3103 1925 3103 
Q 1469 3103 1208 2742 
Q 947 2381 947 1747 
z
" transform="scale(0.015625)"/>
      </defs>
      <use xlink:href="#DejaVuSans-76"/>
      <use xlink:href="#DejaVuSans-61" x="59.179688"/>
      <use xlink:href="#DejaVuSans-6c" x="120.458984"/>
      <use xlink:href="#DejaVuSans-69" x="148.242188"/>
      <use xlink:href="#DejaVuSans-64" x="176.025391"/>
      <use xlink:href="#DejaVuSans-61" x="239.501953"/>
      <use xlink:href="#DejaVuSans-74" x="300.78125"/>
      <use xlink:href="#DejaVuSans-69" x="339.990234"/>
      <use xlink:href="#DejaVuSans-6f" x="367.773438"/>
      <use xlink:href="#DejaVuSans-6e" x="428.955078"/>
      <use xlink:href="#DejaVuSans-20" x="492.333984"/>
      <use xlink:href="#DejaVuSans-73" x="524.121094"/>
      <use xlink:href="#DejaVuSans-65" x="576.220703"/>
      <use xlink:href="#DejaVuSans-74" x="637.744141"/>
     </g>
    </g>
    <g id="line2d_18">
     <path d="M 66.6 83.926688 
L 76.6 83.926688 
L 86.6 83.926688 
" style="fill: none; stroke: #ff0000; stroke-width: 1.5; stroke-linecap: square"/>
    </g>
    <g id="text_18">
     <!-- test set -->
     <g transform="translate(94.6 87.426688) scale(0.1 -0.1)">
      <use xlink:href="#DejaVuSans-74"/>
      <use xlink:href="#DejaVuSans-65" x="39.208984"/>
      <use xlink:href="#DejaVuSans-73" x="100.732422"/>
      <use xlink:href="#DejaVuSans-74" x="152.832031"/>
      <use xlink:href="#DejaVuSans-20" x="192.041016"/>
      <use xlink:href="#DejaVuSans-73" x="223.828125"/>
      <use xlink:href="#DejaVuSans-65" x="275.927734"/>
      <use xlink:href="#DejaVuSans-74" x="337.451172"/>
     </g>
    </g>
   </g>
  </g>
 </g>
 <defs>
  <clipPath id="pd1dd0bc74b">
   <rect x="57.6" y="41.472" width="357.12" height="266.112"/>
  </clipPath>
 </defs>
</svg>
