<?xml version="1.0" encoding="utf-8" standalone="no"?>
<!DOCTYPE svg PUBLIC "-//W3C//DTD SVG 1.1//EN"
  "http://www.w3.org/Graphics/SVG/1.1/DTD/svg11.dtd">
<svg xmlns:xlink="http://www.w3.org/1999/xlink" width="460.8pt" height="345.6pt" viewBox="0 0 460.8 345.6" xmlns="http://www.w3.org/2000/svg" version="1.1">
 <metadata>
  <rdf:RDF xmlns:dc="http://purl.org/dc/elements/1.1/" xmlns:cc="http://creativecommons.org/ns#" xmlns:rdf="http://www.w3.org/1999/02/22-rdf-syntax-ns#">
   <cc:Work>
    <dc:type rdf:resource="http://purl.org/dc/dcmitype/StillImage"/>
    <dc:date>2023-06-14T04:00:40.412358</dc:date>
    <dc:format>image/svg+xml</dc:format>
    <dc:creator>
     <cc:Agent>
      <dc:title>Matplotlib v3.7.1, https://matplotlib.org/</dc:title>
     </cc:Agent>
    </dc:creator>
   </cc:Work>
  </rdf:RDF>
 </metadata>
 <defs>
  <style type="text/css">*{stroke-linejoin: round; stroke-linecap: butt}</style>
 </defs>
 <g id="figure_1">
  <g id="patch_1">
   <path d="M 0 345.6 
L 460.8 345.6 
L 460.8 0 
L 0 0 
z
" style="fill: #ffffff"/>
  </g>
  <g id="axes_1">
   <g id="patch_2">
    <path d="M 57.6 307.584 
L 414.72 307.584 
L 414.72 41.472 
L 57.6 41.472 
z
" style="fill: #ffffff"/>
   </g>
   <g id="matplotlib.axis_1">
    <g id="xtick_1">
     <g id="line2d_1">
      <defs>
       <path id="md17764f538" d="M 0 0 
L 0 3.5 
" style="stroke: #000000; stroke-width: 0.8"/>
      </defs>
      <g>
       <use xlink:href="#md17764f538" x="73.767783" y="307.584" style="stroke: #000000; stroke-width: 0.8"/>
      </g>
     </g>
     <g id="text_1">
      <!-- 0 -->
      <g transform="translate(70.586533 322.182437) scale(0.1 -0.1)">
       <defs>
        <path id="DejaVuSans-30" d="M 2034 4250 
Q 1547 4250 1301 3770 
Q 1056 3291 1056 2328 
Q 1056 1369 1301 889 
Q 1547 409 2034 409 
Q 2525 409 2770 889 
Q 3016 1369 3016 2328 
Q 3016 3291 2770 3770 
Q 2525 4250 2034 4250 
z
M 2034 4750 
Q 2819 4750 3233 4129 
Q 3647 3509 3647 2328 
Q 3647 1150 3233 529 
Q 2819 -91 2034 -91 
Q 1250 -91 836 529 
Q 422 1150 422 2328 
Q 422 3509 836 4129 
Q 1250 4750 2034 4750 
z
" transform="scale(0.015625)"/>
       </defs>
       <use xlink:href="#DejaVuSans-30"/>
      </g>
     </g>
    </g>
    <g id="xtick_2">
     <g id="line2d_2">
      <g>
       <use xlink:href="#md17764f538" x="138.711681" y="307.584" style="stroke: #000000; stroke-width: 0.8"/>
      </g>
     </g>
     <g id="text_2">
      <!-- 1000 -->
      <g transform="translate(125.986681 322.182437) scale(0.1 -0.1)">
       <defs>
        <path id="DejaVuSans-31" d="M 794 531 
L 1825 531 
L 1825 4091 
L 703 3866 
L 703 4441 
L 1819 4666 
L 2450 4666 
L 2450 531 
L 3481 531 
L 3481 0 
L 794 0 
L 794 531 
z
" transform="scale(0.015625)"/>
       </defs>
       <use xlink:href="#DejaVuSans-31"/>
       <use xlink:href="#DejaVuSans-30" x="63.623047"/>
       <use xlink:href="#DejaVuSans-30" x="127.246094"/>
       <use xlink:href="#DejaVuSans-30" x="190.869141"/>
      </g>
     </g>
    </g>
    <g id="xtick_3">
     <g id="line2d_3">
      <g>
       <use xlink:href="#md17764f538" x="203.655579" y="307.584" style="stroke: #000000; stroke-width: 0.8"/>
      </g>
     </g>
     <g id="text_3">
      <!-- 2000 -->
      <g transform="translate(190.930579 322.182437) scale(0.1 -0.1)">
       <defs>
        <path id="DejaVuSans-32" d="M 1228 531 
L 3431 531 
L 3431 0 
L 469 0 
L 469 531 
Q 828 903 1448 1529 
Q 2069 2156 2228 2338 
Q 2531 2678 2651 2914 
Q 2772 3150 2772 3378 
Q 2772 3750 2511 3984 
Q 2250 4219 1831 4219 
Q 1534 4219 1204 4116 
Q 875 4013 500 3803 
L 500 4441 
Q 881 4594 1212 4672 
Q 1544 4750 1819 4750 
Q 2544 4750 2975 4387 
Q 3406 4025 3406 3419 
Q 3406 3131 3298 2873 
Q 3191 2616 2906 2266 
Q 2828 2175 2409 1742 
Q 1991 1309 1228 531 
z
" transform="scale(0.015625)"/>
       </defs>
       <use xlink:href="#DejaVuSans-32"/>
       <use xlink:href="#DejaVuSans-30" x="63.623047"/>
       <use xlink:href="#DejaVuSans-30" x="127.246094"/>
       <use xlink:href="#DejaVuSans-30" x="190.869141"/>
      </g>
     </g>
    </g>
    <g id="xtick_4">
     <g id="line2d_4">
      <g>
       <use xlink:href="#md17764f538" x="268.599477" y="307.584" style="stroke: #000000; stroke-width: 0.8"/>
      </g>
     </g>
     <g id="text_4">
      <!-- 3000 -->
      <g transform="translate(255.874477 322.182437) scale(0.1 -0.1)">
       <defs>
        <path id="DejaVuSans-33" d="M 2597 2516 
Q 3050 2419 3304 2112 
Q 3559 1806 3559 1356 
Q 3559 666 3084 287 
Q 2609 -91 1734 -91 
Q 1441 -91 1130 -33 
Q 819 25 488 141 
L 488 750 
Q 750 597 1062 519 
Q 1375 441 1716 441 
Q 2309 441 2620 675 
Q 2931 909 2931 1356 
Q 2931 1769 2642 2001 
Q 2353 2234 1838 2234 
L 1294 2234 
L 1294 2753 
L 1863 2753 
Q 2328 2753 2575 2939 
Q 2822 3125 2822 3475 
Q 2822 3834 2567 4026 
Q 2313 4219 1838 4219 
Q 1578 4219 1281 4162 
Q 984 4106 628 3988 
L 628 4550 
Q 988 4650 1302 4700 
Q 1616 4750 1894 4750 
Q 2613 4750 3031 4423 
Q 3450 4097 3450 3541 
Q 3450 3153 3228 2886 
Q 3006 2619 2597 2516 
z
" transform="scale(0.015625)"/>
       </defs>
       <use xlink:href="#DejaVuSans-33"/>
       <use xlink:href="#DejaVuSans-30" x="63.623047"/>
       <use xlink:href="#DejaVuSans-30" x="127.246094"/>
       <use xlink:href="#DejaVuSans-30" x="190.869141"/>
      </g>
     </g>
    </g>
    <g id="xtick_5">
     <g id="line2d_5">
      <g>
       <use xlink:href="#md17764f538" x="333.543375" y="307.584" style="stroke: #000000; stroke-width: 0.8"/>
      </g>
     </g>
     <g id="text_5">
      <!-- 4000 -->
      <g transform="translate(320.818375 322.182437) scale(0.1 -0.1)">
       <defs>
        <path id="DejaVuSans-34" d="M 2419 4116 
L 825 1625 
L 2419 1625 
L 2419 4116 
z
M 2253 4666 
L 3047 4666 
L 3047 1625 
L 3713 1625 
L 3713 1100 
L 3047 1100 
L 3047 0 
L 2419 0 
L 2419 1100 
L 313 1100 
L 313 1709 
L 2253 4666 
z
" transform="scale(0.015625)"/>
       </defs>
       <use xlink:href="#DejaVuSans-34"/>
       <use xlink:href="#DejaVuSans-30" x="63.623047"/>
       <use xlink:href="#DejaVuSans-30" x="127.246094"/>
       <use xlink:href="#DejaVuSans-30" x="190.869141"/>
      </g>
     </g>
    </g>
    <g id="xtick_6">
     <g id="line2d_6">
      <g>
       <use xlink:href="#md17764f538" x="398.487273" y="307.584" style="stroke: #000000; stroke-width: 0.8"/>
      </g>
     </g>
     <g id="text_6">
      <!-- 5000 -->
      <g transform="translate(385.762273 322.182437) scale(0.1 -0.1)">
       <defs>
        <path id="DejaVuSans-35" d="M 691 4666 
L 3169 4666 
L 3169 4134 
L 1269 4134 
L 1269 2991 
Q 1406 3038 1543 3061 
Q 1681 3084 1819 3084 
Q 2600 3084 3056 2656 
Q 3513 2228 3513 1497 
Q 3513 744 3044 326 
Q 2575 -91 1722 -91 
Q 1428 -91 1123 -41 
Q 819 9 494 109 
L 494 744 
Q 775 591 1075 516 
Q 1375 441 1709 441 
Q 2250 441 2565 725 
Q 2881 1009 2881 1497 
Q 2881 1984 2565 2268 
Q 2250 2553 1709 2553 
Q 1456 2553 1204 2497 
Q 953 2441 691 2322 
L 691 4666 
z
" transform="scale(0.015625)"/>
       </defs>
       <use xlink:href="#DejaVuSans-35"/>
       <use xlink:href="#DejaVuSans-30" x="63.623047"/>
       <use xlink:href="#DejaVuSans-30" x="127.246094"/>
       <use xlink:href="#DejaVuSans-30" x="190.869141"/>
      </g>
     </g>
    </g>
    <g id="text_7">
     <!-- epoch -->
     <g transform="translate(220.931875 335.860562) scale(0.1 -0.1)">
      <defs>
       <path id="DejaVuSans-65" d="M 3597 1894 
L 3597 1613 
L 953 1613 
Q 991 1019 1311 708 
Q 1631 397 2203 397 
Q 2534 397 2845 478 
Q 3156 559 3463 722 
L 3463 178 
Q 3153 47 2828 -22 
Q 2503 -91 2169 -91 
Q 1331 -91 842 396 
Q 353 884 353 1716 
Q 353 2575 817 3079 
Q 1281 3584 2069 3584 
Q 2775 3584 3186 3129 
Q 3597 2675 3597 1894 
z
M 3022 2063 
Q 3016 2534 2758 2815 
Q 2500 3097 2075 3097 
Q 1594 3097 1305 2825 
Q 1016 2553 972 2059 
L 3022 2063 
z
" transform="scale(0.015625)"/>
       <path id="DejaVuSans-70" d="M 1159 525 
L 1159 -1331 
L 581 -1331 
L 581 3500 
L 1159 3500 
L 1159 2969 
Q 1341 3281 1617 3432 
Q 1894 3584 2278 3584 
Q 2916 3584 3314 3078 
Q 3713 2572 3713 1747 
Q 3713 922 3314 415 
Q 2916 -91 2278 -91 
Q 1894 -91 1617 61 
Q 1341 213 1159 525 
z
M 3116 1747 
Q 3116 2381 2855 2742 
Q 2594 3103 2138 3103 
Q 1681 3103 1420 2742 
Q 1159 2381 1159 1747 
Q 1159 1113 1420 752 
Q 1681 391 2138 391 
Q 2594 391 2855 752 
Q 3116 1113 3116 1747 
z
" transform="scale(0.015625)"/>
       <path id="DejaVuSans-6f" d="M 1959 3097 
Q 1497 3097 1228 2736 
Q 959 2375 959 1747 
Q 959 1119 1226 758 
Q 1494 397 1959 397 
Q 2419 397 2687 759 
Q 2956 1122 2956 1747 
Q 2956 2369 2687 2733 
Q 2419 3097 1959 3097 
z
M 1959 3584 
Q 2709 3584 3137 3096 
Q 3566 2609 3566 1747 
Q 3566 888 3137 398 
Q 2709 -91 1959 -91 
Q 1206 -91 779 398 
Q 353 888 353 1747 
Q 353 2609 779 3096 
Q 1206 3584 1959 3584 
z
" transform="scale(0.015625)"/>
       <path id="DejaVuSans-63" d="M 3122 3366 
L 3122 2828 
Q 2878 2963 2633 3030 
Q 2388 3097 2138 3097 
Q 1578 3097 1268 2742 
Q 959 2388 959 1747 
Q 959 1106 1268 751 
Q 1578 397 2138 397 
Q 2388 397 2633 464 
Q 2878 531 3122 666 
L 3122 134 
Q 2881 22 2623 -34 
Q 2366 -91 2075 -91 
Q 1284 -91 818 406 
Q 353 903 353 1747 
Q 353 2603 823 3093 
Q 1294 3584 2113 3584 
Q 2378 3584 2631 3529 
Q 2884 3475 3122 3366 
z
" transform="scale(0.015625)"/>
       <path id="DejaVuSans-68" d="M 3513 2113 
L 3513 0 
L 2938 0 
L 2938 2094 
Q 2938 2591 2744 2837 
Q 2550 3084 2163 3084 
Q 1697 3084 1428 2787 
Q 1159 2491 1159 1978 
L 1159 0 
L 581 0 
L 581 4863 
L 1159 4863 
L 1159 2956 
Q 1366 3272 1645 3428 
Q 1925 3584 2291 3584 
Q 2894 3584 3203 3211 
Q 3513 2838 3513 2113 
z
" transform="scale(0.015625)"/>
      </defs>
      <use xlink:href="#DejaVuSans-65"/>
      <use xlink:href="#DejaVuSans-70" x="61.523438"/>
      <use xlink:href="#DejaVuSans-6f" x="125"/>
      <use xlink:href="#DejaVuSans-63" x="186.181641"/>
      <use xlink:href="#DejaVuSans-68" x="241.162109"/>
     </g>
    </g>
   </g>
   <g id="matplotlib.axis_2">
    <g id="ytick_1">
     <g id="line2d_7">
      <defs>
       <path id="m54050d343b" d="M 0 0 
L -3.5 0 
" style="stroke: #000000; stroke-width: 0.8"/>
      </defs>
      <g>
       <use xlink:href="#m54050d343b" x="57.6" y="296.299989" style="stroke: #000000; stroke-width: 0.8"/>
      </g>
     </g>
     <g id="text_8">
      <!-- 0 -->
      <g transform="translate(44.2375 300.099208) scale(0.1 -0.1)">
       <use xlink:href="#DejaVuSans-30"/>
      </g>
     </g>
    </g>
    <g id="ytick_2">
     <g id="line2d_8">
      <g>
       <use xlink:href="#m54050d343b" x="57.6" y="257.7066" style="stroke: #000000; stroke-width: 0.8"/>
      </g>
     </g>
     <g id="text_9">
      <!-- 5 -->
      <g transform="translate(44.2375 261.505819) scale(0.1 -0.1)">
       <use xlink:href="#DejaVuSans-35"/>
      </g>
     </g>
    </g>
    <g id="ytick_3">
     <g id="line2d_9">
      <g>
       <use xlink:href="#m54050d343b" x="57.6" y="219.113211" style="stroke: #000000; stroke-width: 0.8"/>
      </g>
     </g>
     <g id="text_10">
      <!-- 10 -->
      <g transform="translate(37.875 222.91243) scale(0.1 -0.1)">
       <use xlink:href="#DejaVuSans-31"/>
       <use xlink:href="#DejaVuSans-30" x="63.623047"/>
      </g>
     </g>
    </g>
    <g id="ytick_4">
     <g id="line2d_10">
      <g>
       <use xlink:href="#m54050d343b" x="57.6" y="180.519822" style="stroke: #000000; stroke-width: 0.8"/>
      </g>
     </g>
     <g id="text_11">
      <!-- 15 -->
      <g transform="translate(37.875 184.319041) scale(0.1 -0.1)">
       <use xlink:href="#DejaVuSans-31"/>
       <use xlink:href="#DejaVuSans-35" x="63.623047"/>
      </g>
     </g>
    </g>
    <g id="ytick_5">
     <g id="line2d_11">
      <g>
       <use xlink:href="#m54050d343b" x="57.6" y="141.926433" style="stroke: #000000; stroke-width: 0.8"/>
      </g>
     </g>
     <g id="text_12">
      <!-- 20 -->
      <g transform="translate(37.875 145.725651) scale(0.1 -0.1)">
       <use xlink:href="#DejaVuSans-32"/>
       <use xlink:href="#DejaVuSans-30" x="63.623047"/>
      </g>
     </g>
    </g>
    <g id="ytick_6">
     <g id="line2d_12">
      <g>
       <use xlink:href="#m54050d343b" x="57.6" y="103.333044" style="stroke: #000000; stroke-width: 0.8"/>
      </g>
     </g>
     <g id="text_13">
      <!-- 25 -->
      <g transform="translate(37.875 107.132262) scale(0.1 -0.1)">
       <use xlink:href="#DejaVuSans-32"/>
       <use xlink:href="#DejaVuSans-35" x="63.623047"/>
      </g>
     </g>
    </g>
    <g id="ytick_7">
     <g id="line2d_13">
      <g>
       <use xlink:href="#m54050d343b" x="57.6" y="64.739654" style="stroke: #000000; stroke-width: 0.8"/>
      </g>
     </g>
     <g id="text_14">
      <!-- 30 -->
      <g transform="translate(37.875 68.538873) scale(0.1 -0.1)">
       <use xlink:href="#DejaVuSans-33"/>
       <use xlink:href="#DejaVuSans-30" x="63.623047"/>
      </g>
     </g>
    </g>
    <g id="text_15">
     <!-- loss -->
     <g transform="translate(31.795313 184.185812) rotate(-90) scale(0.1 -0.1)">
      <defs>
       <path id="DejaVuSans-6c" d="M 603 4863 
L 1178 4863 
L 1178 0 
L 603 0 
L 603 4863 
z
" transform="scale(0.015625)"/>
       <path id="DejaVuSans-73" d="M 2834 3397 
L 2834 2853 
Q 2591 2978 2328 3040 
Q 2066 3103 1784 3103 
Q 1356 3103 1142 2972 
Q 928 2841 928 2578 
Q 928 2378 1081 2264 
Q 1234 2150 1697 2047 
L 1894 2003 
Q 2506 1872 2764 1633 
Q 3022 1394 3022 966 
Q 3022 478 2636 193 
Q 2250 -91 1575 -91 
Q 1294 -91 989 -36 
Q 684 19 347 128 
L 347 722 
Q 666 556 975 473 
Q 1284 391 1588 391 
Q 1994 391 2212 530 
Q 2431 669 2431 922 
Q 2431 1156 2273 1281 
Q 2116 1406 1581 1522 
L 1381 1569 
Q 847 1681 609 1914 
Q 372 2147 372 2553 
Q 372 3047 722 3315 
Q 1072 3584 1716 3584 
Q 2034 3584 2315 3537 
Q 2597 3491 2834 3397 
z
" transform="scale(0.015625)"/>
      </defs>
      <use xlink:href="#DejaVuSans-6c"/>
      <use xlink:href="#DejaVuSans-6f" x="27.783203"/>
      <use xlink:href="#DejaVuSans-73" x="88.964844"/>
      <use xlink:href="#DejaVuSans-73" x="141.064453"/>
     </g>
    </g>
   </g>
   <g id="line2d_14">
    <path d="M 73.832727 282.377127 
L 74.222391 282.695796 
L 75.845988 283.620638 
L 76.755203 284.550461 
L 80.002398 288.235272 
L 81.0415 288.912504 
L 82.21049 289.409476 
L 83.834088 289.844273 
L 86.431843 290.279564 
L 91.302636 290.836157 
L 100.005118 291.595188 
L 107.993218 292.039633 
L 122.086043 292.534642 
L 139.101345 292.945181 
L 178.652178 293.596629 
L 235.543033 294.301845 
L 238.205733 294.327987 
L 242.556974 294.369873 
L 249.570915 294.438718 
L 251.779007 294.46085 
L 257.039463 294.50998 
L 262.689582 294.561227 
L 289.966019 294.779714 
L 293.083326 294.799992 
L 295.551195 294.821259 
L 300.746706 294.855542 
L 307.63076 294.910048 
L 398.487273 295.486144 
L 398.487273 295.486144 
" clip-path="url(#pc2edabd660)" style="fill: none; stroke: #0000ff; stroke-width: 1.5; stroke-linecap: square"/>
   </g>
   <g id="line2d_15">
    <path d="M 73.832727 282.305625 
L 74.54711 283.015572 
L 75.001717 283.170707 
L 75.651156 283.357646 
L 77.469586 284.842052 
L 79.54779 286.648215 
L 80.521949 287.130119 
L 81.496107 287.351111 
L 82.794985 287.401928 
L 84.613414 287.259718 
L 90.912972 286.325361 
L 97.926913 284.815797 
L 105.070742 282.485042 
L 105.785125 282.218683 
L 107.278835 281.647248 
L 107.603554 281.490627 
L 107.86333 281.410282 
L 109.097264 280.927186 
L 111.045581 280.148706 
L 111.500188 279.986587 
L 111.824908 279.839744 
L 112.474347 279.592805 
L 112.928954 279.386778 
L 113.123785 279.347074 
L 113.383561 279.239356 
L 113.773224 279.043902 
L 113.968056 279.001148 
L 114.227832 278.880642 
L 115.981317 278.175947 
L 116.435924 277.972256 
L 116.630756 277.915533 
L 117.604914 277.50684 
L 118.449185 277.186986 
L 118.644017 277.062659 
L 118.838848 277.03697 
L 119.03368 276.919222 
L 120.52739 276.325063 
L 120.852109 276.173592 
L 121.306717 276.003062 
L 121.631436 275.83633 
L 121.826268 275.790301 
L 122.086043 275.682606 
L 122.475707 275.487811 
L 122.670538 275.445404 
L 122.930314 275.328971 
L 123.384921 275.110742 
L 123.579753 275.050651 
L 124.35908 274.687013 
L 124.553912 274.642935 
L 124.813687 274.515392 
L 133.451226 270.747909 
L 133.646057 270.549369 
L 133.711001 270.637735 
L 133.905833 270.512812 
L 134.100664 270.370625 
L 134.230552 270.337067 
L 135.594374 269.738598 
L 135.984038 269.535277 
L 136.243813 269.428768 
L 137.412803 268.910053 
L 137.737523 268.748918 
L 137.932354 268.707825 
L 138.127186 268.559968 
L 138.257074 268.524316 
L 138.646737 268.398903 
L 138.906513 268.247522 
L 139.231232 268.112873 
L 139.491008 267.970551 
L 139.880671 267.793927 
L 140.270335 267.6383 
L 140.724942 267.407626 
L 141.114605 267.242367 
L 141.569213 267.016241 
L 142.088764 266.797285 
L 142.413483 266.622451 
L 143.51753 266.139911 
L 143.712361 265.998697 
L 143.842249 265.959573 
L 144.881352 265.500518 
L 145.076183 265.343279 
L 145.141127 265.391734 
L 145.206071 265.302749 
L 145.465847 265.236613 
L 145.660678 265.105273 
L 146.115286 264.907373 
L 146.569893 264.671413 
L 147.0245 264.494327 
L 147.219332 264.336744 
L 147.284276 264.397576 
L 147.479107 264.224023 
L 147.608995 264.192867 
L 148.51821 263.759195 
L 148.713042 263.691679 
L 153.19417 261.519491 
L 153.259114 261.549756 
L 153.453946 261.371164 
L 153.51889 261.436888 
L 153.713722 261.297991 
L 154.947656 260.679327 
L 155.467207 260.4452 
L 155.791926 260.274901 
L 157.285636 259.502507 
L 158.259795 259.00281 
L 158.584514 258.817354 
L 161.442046 257.307327 
L 161.636877 257.154039 
L 161.701821 257.189067 
L 161.896653 257.011506 
L 162.026541 256.960641 
L 162.416204 256.789734 
L 162.67598 256.622541 
L 163.130587 256.397704 
L 163.52025 256.147231 
L 163.715082 256.063874 
L 171.703181 251.754727 
L 171.898013 251.710542 
L 172.092845 251.54989 
L 172.222733 251.495569 
L 174.171049 250.436527 
L 174.365881 250.361127 
L 174.625657 250.20788 
L 175.34004 249.79476 
L 175.534871 249.730022 
L 175.794647 249.571899 
L 176.50903 249.15802 
L 176.703861 249.078186 
L 177.093525 248.83796 
L 177.158469 248.861096 
L 177.3533 248.685327 
L 177.483188 248.631591 
L 177.67802 248.541454 
L 178.457347 248.146789 
L 178.652178 247.981628 
L 178.84701 247.903125 
L 185.925895 244.143264 
L 186.120727 243.99178 
L 186.250614 243.947875 
L 186.964997 243.576393 
L 187.419605 243.321327 
L 187.809268 243.148952 
L 188.069044 243.011204 
L 188.458707 242.781206 
L 188.653539 242.723579 
L 188.913314 242.583096 
L 189.822529 242.17832 
L 190.147248 241.977749 
L 190.991519 241.517558 
L 191.381182 241.268278 
L 193.264555 240.221216 
L 193.849051 239.874743 
L 194.238714 239.682203 
L 194.433546 239.492629 
L 194.49849 239.562673 
L 194.693321 239.388292 
L 195.277816 239.102369 
L 195.472648 238.924469 
L 195.537592 239.002662 
L 195.732424 238.847785 
L 196.057143 238.630224 
L 196.316919 238.548114 
L 196.51175 238.382953 
L 196.771526 238.287417 
L 196.966358 238.13566 
L 197.226133 238.036999 
L 197.420965 237.865099 
L 197.485909 237.919564 
L 197.680741 237.750483 
L 198.265236 237.444405 
L 198.914675 237.077822 
L 199.109506 237.008554 
L 199.369282 236.842888 
L 200.213553 236.383003 
L 202.876252 234.858036 
L 202.941196 234.912034 
L 203.136028 234.757233 
L 205.993559 233.23301 
L 206.188391 233.026641 
L 206.253335 233.12369 
L 206.448167 232.972817 
L 206.642998 232.776886 
L 206.707942 232.869121 
L 206.772886 232.71894 
L 206.83783 232.761443 
L 207.422325 232.402692 
L 207.487269 232.446285 
L 207.747045 232.241462 
L 207.876932 232.172562 
L 208.00682 232.137427 
L 208.656259 231.747119 
L 208.916035 231.634325 
L 209.435586 231.328538 
L 209.630418 231.250002 
L 210.020081 231.002036 
L 210.214913 230.926526 
L 210.474688 230.762675 
L 210.799408 230.584801 
L 211.318959 230.283673 
L 211.578735 230.163952 
L 211.903454 229.980521 
L 213.981659 228.801065 
L 214.176491 228.564737 
L 214.241434 228.702382 
L 214.306378 228.52908 
L 214.371322 228.563302 
L 214.50121 228.387651 
L 214.566154 228.579526 
L 214.631098 228.317735 
L 214.696042 228.347651 
L 214.760986 228.357331 
L 214.82593 228.217904 
L 214.890873 228.400879 
L 214.955817 228.133789 
L 215.020761 228.168577 
L 215.085705 228.179612 
L 215.150649 228.023998 
L 215.215593 228.121856 
L 215.345481 228.045823 
L 215.410425 228.039964 
L 215.540312 227.915237 
L 215.735144 227.887089 
L 215.865032 227.742296 
L 215.929976 227.788295 
L 215.99492 227.588169 
L 216.059864 227.718924 
L 216.189751 227.610289 
L 216.254695 227.635751 
L 216.384583 227.478098 
L 216.644359 227.374623 
L 216.83919 227.224332 
L 216.969078 227.148497 
L 217.358742 227.015188 
L 217.423685 226.862541 
L 217.488629 226.902666 
L 217.943237 226.559874 
L 218.008181 226.625969 
L 218.073124 226.5345 
L 218.397844 226.396038 
L 218.592676 226.27812 
L 218.852451 226.114027 
L 219.50189 225.762453 
L 219.566834 225.802107 
L 219.82661 225.5706 
L 220.151329 225.425292 
L 220.411105 225.298637 
L 220.605936 225.203848 
L 220.865712 225.002956 
L 220.9956 224.95848 
L 221.255375 224.795322 
L 221.515151 224.684485 
L 221.774927 224.537131 
L 221.904814 224.469961 
L 222.16459 224.3631 
L 222.424366 224.1928 
L 222.554253 224.158196 
L 222.878973 223.975692 
L 223.073805 223.849169 
L 223.33358 223.688697 
L 223.528412 223.59898 
L 223.723244 223.47178 
L 224.307739 223.237469 
L 224.567514 223.029783 
L 224.892234 222.887323 
L 225.152009 222.705717 
L 225.216953 222.736067 
L 225.476729 222.516294 
L 225.736504 222.411936 
L 226.385943 222.052714 
L 228.529092 220.933458 
L 228.788868 220.762371 
L 228.853811 220.801532 
L 229.048643 220.625513 
L 230.022802 220.135661 
L 231.126848 219.595408 
L 231.32168 219.410099 
L 231.581455 219.377394 
L 231.776287 219.179542 
L 232.16595 219.020056 
L 232.425726 218.843368 
L 232.620558 218.777633 
L 232.815389 218.651861 
L 233.724604 218.203607 
L 233.919436 218.06881 
L 234.179211 217.97065 
L 234.374043 217.849 
L 234.82865 217.606297 
L 235.218313 217.456815 
L 235.413145 217.269924 
L 235.672921 217.242232 
L 235.867752 217.023636 
L 238.075845 215.923446 
L 238.205733 215.821413 
L 238.530452 215.680522 
L 238.790228 215.50387 
L 238.855172 215.55118 
L 239.050003 215.3613 
L 239.569555 215.072737 
L 239.764386 215.072149 
L 240.024162 214.858353 
L 240.283938 214.771955 
L 242.427086 213.704941 
L 242.621918 213.622062 
L 242.751806 213.493074 
L 242.946637 213.49024 
L 243.141469 213.297026 
L 243.336301 213.196524 
L 243.466189 213.176414 
L 243.725964 213.028765 
L 243.920796 212.999033 
L 244.180571 212.727254 
L 244.245515 212.855624 
L 244.375403 212.692193 
L 244.440347 212.717795 
L 244.505291 212.555887 
L 244.570235 212.641681 
L 244.83001 212.410881 
L 244.959898 212.423005 
L 245.15473 212.268878 
L 245.284618 212.282886 
L 245.479449 212.187089 
L 246.193832 211.781588 
L 246.583496 211.625746 
L 246.843271 211.467511 
L 246.973159 211.483617 
L 247.232935 211.239965 
L 247.362822 211.199722 
L 247.687542 211.11158 
L 247.752486 211.019286 
L 247.81743 211.088996 
L 248.077205 210.846109 
L 248.142149 210.956997 
L 248.272037 210.777062 
L 248.336981 210.841744 
L 248.401925 210.756826 
L 248.6617 210.655088 
L 249.505971 210.195512 
L 249.570915 210.281711 
L 249.635859 210.189064 
L 249.895634 210.05387 
L 250.15541 209.973627 
L 250.285298 209.855186 
L 250.480129 209.85116 
L 250.804849 209.623039 
L 250.869793 209.671335 
L 250.999681 209.536951 
L 251.194512 209.540087 
L 251.454288 209.320093 
L 251.908895 209.130795 
L 252.49339 208.902483 
L 252.623278 208.785699 
L 252.81811 208.742011 
L 253.337661 208.442826 
L 253.922156 208.1714 
L 254.116988 208.067918 
L 254.246876 208.007115 
L 254.311819 208.050266 
L 254.571595 207.844677 
L 254.636539 207.898538 
L 254.896315 207.65334 
L 255.15609 207.648114 
L 255.415866 207.427457 
L 255.675641 207.406699 
L 255.935417 207.137709 
L 256.065305 207.101522 
L 256.32508 207.051584 
L 256.454968 206.962103 
L 256.584856 206.907292 
L 257.039463 206.757449 
L 257.299239 206.520665 
L 257.364183 206.573385 
L 257.429127 206.469483 
L 257.49407 206.537838 
L 257.81879 206.309276 
L 257.883734 206.317322 
L 258.013622 206.199662 
L 258.208453 206.19431 
L 258.468229 205.952564 
L 258.598117 205.941751 
L 259.052724 205.766107 
L 259.182612 205.647549 
L 259.377443 205.612194 
L 259.637219 205.377264 
L 259.767107 205.36146 
L 259.961939 205.275438 
L 260.546434 204.968995 
L 260.611378 205.007766 
L 260.806209 204.840272 
L 260.936097 204.825726 
L 261.195873 204.650458 
L 261.260817 204.673447 
L 261.520592 204.445974 
L 261.585536 204.521838 
L 261.715424 204.417317 
L 261.910256 204.408852 
L 262.040143 204.237051 
L 262.105087 204.297964 
L 262.364863 204.092339 
L 262.429807 204.153805 
L 262.689582 203.947355 
L 262.81947 203.918566 
L 264.118348 203.234977 
L 264.183292 203.302699 
L 264.248236 203.239703 
L 264.508011 203.115484 
L 264.962619 202.84807 
L 265.092507 202.777712 
L 265.352282 202.739251 
L 265.612058 202.480795 
L 265.871833 202.506007 
L 266.131609 202.255449 
L 266.261497 202.215096 
L 266.521272 202.192909 
L 266.910936 201.904759 
L 267.040823 201.919827 
L 267.625319 201.578588 
L 268.014982 201.499523 
L 268.209814 201.330335 
L 268.404645 201.236422 
L 268.924196 200.946718 
L 268.98914 201.026145 
L 269.183972 200.850457 
L 269.248916 200.74788 
L 269.31386 200.834035 
L 269.573635 200.662801 
L 269.833411 200.597574 
L 270.028243 200.380797 
L 270.158131 200.369012 
L 270.223074 200.311926 
L 270.288018 200.421364 
L 270.417906 200.263748 
L 270.80757 200.082628 
L 271.197233 199.892248 
L 271.262177 199.957371 
L 271.457008 199.773027 
L 271.65184 199.682993 
L 271.716784 199.737017 
L 271.97656 199.479054 
L 272.041504 199.537891 
L 272.106447 199.463368 
L 272.366223 199.336823 
L 272.561055 199.26765 
L 272.690943 199.199155 
L 272.885774 199.013479 
L 273.14555 199.083939 
L 273.405325 198.819528 
L 273.470269 198.899176 
L 273.535213 198.745196 
L 273.600157 198.848708 
L 273.989821 198.661964 
L 274.184652 198.564937 
L 274.379484 198.449913 
L 274.509372 198.400004 
L 274.769147 198.313084 
L 274.963979 198.178303 
L 275.288698 198.033451 
L 275.743306 197.859743 
L 275.938137 197.692867 
L 276.262857 197.669621 
L 276.457689 197.476105 
L 276.717464 197.516966 
L 276.97724 197.28557 
L 277.042184 197.308529 
L 277.172072 197.242485 
L 277.237015 197.269979 
L 277.431847 197.080188 
L 277.82151 196.964766 
L 278.081286 196.849815 
L 278.211174 196.772921 
L 278.470949 196.649975 
L 278.600837 196.619883 
L 279.055445 196.430703 
L 279.250276 196.297231 
L 279.380164 196.362244 
L 279.574996 196.171077 
L 279.834771 196.175736 
L 279.964659 195.980446 
L 280.029603 196.036052 
L 280.094547 195.889014 
L 280.159491 196.02557 
L 280.224435 195.926202 
L 280.743986 195.698472 
L 280.938818 195.574187 
L 281.068705 195.618861 
L 281.328481 195.432404 
L 281.458369 195.414951 
L 281.588257 195.356776 
L 281.6532 195.237048 
L 281.718144 195.310733 
L 281.848032 195.237262 
L 281.912976 195.311616 
L 281.97792 195.110842 
L 282.042864 195.240044 
L 282.172752 195.075479 
L 282.237696 195.134294 
L 282.432527 194.927867 
L 282.692303 194.891525 
L 282.757247 194.90373 
L 282.952078 194.693026 
L 283.081966 194.756132 
L 283.276798 194.605127 
L 283.47163 194.483499 
L 283.601517 194.560268 
L 283.796349 194.334937 
L 283.926237 194.398743 
L 283.991181 194.250012 
L 284.056125 194.389284 
L 284.186012 194.167185 
L 284.250956 194.222533 
L 284.3159 194.056312 
L 284.380844 194.2089 
L 284.445788 194.138705 
L 284.510732 194.042282 
L 284.575676 194.163409 
L 284.64062 193.92354 
L 284.705564 194.002193 
L 284.770508 194.030784 
L 284.965339 193.84775 
L 286.069386 193.410625 
L 286.134329 193.484406 
L 286.199273 193.296322 
L 286.264217 193.397368 
L 286.394105 193.220922 
L 286.459049 193.316278 
L 286.718824 193.034753 
L 286.783768 193.144036 
L 286.913656 193.027561 
L 286.9786 193.138971 
L 287.043544 192.92918 
L 287.108488 193.029166 
L 287.238376 192.848907 
L 287.30332 192.973508 
L 287.368263 192.719403 
L 287.433207 192.872139 
L 287.563095 192.700375 
L 287.628039 192.845352 
L 287.692983 192.614058 
L 287.757927 192.65489 
L 287.822871 192.710813 
L 287.952759 192.587595 
L 288.017702 192.640536 
L 288.082646 192.44529 
L 288.14759 192.596009 
L 288.277478 192.34777 
L 288.342422 192.519586 
L 288.407366 192.346784 
L 288.47231 192.385194 
L 288.537254 192.423398 
L 288.602198 192.212812 
L 288.667141 192.263213 
L 288.926917 192.235013 
L 289.186693 191.968504 
L 289.251637 192.039811 
L 289.381524 191.944566 
L 289.511412 191.959575 
L 291.005122 191.306844 
L 291.070066 191.367271 
L 291.329841 191.037854 
L 291.394785 191.155492 
L 291.459729 191.061064 
L 291.524673 191.010574 
L 291.589617 191.150214 
L 291.719505 190.943411 
L 291.784449 190.965819 
L 291.914336 190.893761 
L 291.97928 190.927114 
L 292.109168 190.803087 
L 292.239056 190.734488 
L 292.498831 190.665537 
L 292.693663 190.572419 
L 292.823551 190.4376 
L 293.018383 190.464329 
L 293.47299 190.13026 
L 293.537934 190.20496 
L 293.602878 190.119255 
L 293.862653 189.999894 
L 294.122429 189.973372 
L 294.382204 189.722565 
L 294.64198 189.72188 
L 295.096587 189.388393 
L 295.226475 189.394591 
L 295.291419 189.267818 
L 295.356363 189.381841 
L 295.616139 189.160714 
L 295.940858 189.173713 
L 296.200634 188.871739 
L 296.265577 188.95832 
L 296.330521 188.889273 
L 296.395465 188.83667 
L 296.460409 188.948994 
L 296.525353 188.748919 
L 296.590297 188.801845 
L 296.915016 188.696176 
L 297.109848 188.566805 
L 297.30468 188.47817 
L 297.759287 188.268018 
L 297.889175 188.230248 
L 298.148951 188.073368 
L 298.213894 188.161584 
L 298.278838 187.96103 
L 298.343782 188.012352 
L 298.538614 188.001406 
L 298.798389 187.765895 
L 299.123109 187.70719 
L 299.382885 187.480056 
L 299.512772 187.543611 
L 299.707604 187.337648 
L 299.96738 187.297162 
L 300.292099 187.147363 
L 301.590977 186.568479 
L 301.720865 186.465327 
L 301.850753 186.44744 
L 302.240416 186.200291 
L 302.370304 186.208786 
L 302.824911 186.018567 
L 302.889855 186.058796 
L 302.954799 185.897021 
L 303.019743 185.99019 
L 303.149631 185.746177 
L 303.214575 185.887679 
L 303.344462 185.761179 
L 303.409406 185.783402 
L 303.604238 185.591476 
L 303.993901 185.500861 
L 304.318621 185.343959 
L 304.383565 185.401508 
L 304.448509 185.2485 
L 304.513453 185.360484 
L 304.773228 185.115485 
L 305.097948 185.045024 
L 305.292779 184.922808 
L 305.747387 184.761843 
L 306.072106 184.684926 
L 306.201994 184.566803 
L 307.63076 183.995191 
L 307.695704 184.045902 
L 307.955479 183.784192 
L 308.085367 183.826298 
L 308.539974 183.636712 
L 308.604918 183.69237 
L 308.669862 183.553363 
L 308.734806 183.601563 
L 309.96874 183.049937 
L 310.098628 182.989752 
L 311.527393 182.321327 
L 311.592337 182.428637 
L 311.657281 182.275379 
L 311.722225 182.327209 
L 312.826271 181.698975 
L 312.891215 181.896555 
L 313.021103 181.690576 
L 313.086047 181.80245 
L 313.150991 181.566571 
L 313.215935 181.658349 
L 313.280879 181.656509 
L 313.345823 181.512739 
L 313.410767 181.589773 
L 313.540654 181.44738 
L 313.605598 181.537443 
L 313.735486 181.343161 
L 313.80043 181.477958 
L 313.930318 181.320283 
L 313.995262 181.359069 
L 314.060205 181.191272 
L 314.125149 181.242094 
L 314.190093 181.290625 
L 314.255037 181.121246 
L 314.319981 181.14835 
L 315.359083 180.757328 
L 315.424027 180.592572 
L 315.488971 180.629812 
L 315.553915 180.68619 
L 315.618859 180.479917 
L 315.683803 180.604659 
L 316.008522 180.345261 
L 316.073466 180.424981 
L 316.13841 180.342927 
L 316.333242 180.25332 
L 316.787849 180.067121 
L 316.852793 180.073393 
L 317.112569 179.843896 
L 317.3074 179.778618 
L 317.567176 179.706354 
L 317.697064 179.586471 
L 317.762008 179.639662 
L 317.826952 179.494236 
L 317.891895 179.530055 
L 318.606278 179.203067 
L 318.866054 179.045886 
L 319.385605 178.846164 
L 319.645381 178.717308 
L 319.9701 178.632965 
L 320.229876 178.405278 
L 320.359764 178.420906 
L 320.554595 178.312786 
L 320.944259 178.10507 
L 321.13909 178.077054 
L 321.853473 177.701049 
L 322.048305 177.618766 
L 322.243137 177.531302 
L 322.373024 177.476859 
L 322.892576 177.231668 
L 323.217295 177.044394 
L 323.347183 177.007265 
L 323.542015 176.893256 
L 323.671902 176.873793 
L 323.931678 176.733365 
L 323.996622 176.761934 
L 324.12651 176.607211 
L 324.256397 176.574123 
L 324.905836 176.201665 
L 325.100668 176.184661 
L 325.425388 175.963121 
L 325.555275 175.906316 
L 329.12719 174.227152 
L 329.192134 174.106187 
L 329.257078 174.163471 
L 331.270338 173.178857 
L 331.335282 173.197591 
L 331.46517 173.068779 
L 331.595058 173.004436 
L 332.179553 172.684485 
L 332.244497 172.747172 
L 332.309441 172.658766 
L 332.504272 172.522791 
L 332.63416 172.52076 
L 332.699104 172.369297 
L 332.764048 172.420207 
L 332.95888 172.314516 
L 333.023824 172.30901 
L 333.153711 172.177276 
L 333.348543 172.1935 
L 333.738207 171.922081 
L 333.868094 171.891429 
L 334.12787 171.711539 
L 334.387646 171.666003 
L 334.582477 171.532443 
L 335.62158 171.017386 
L 335.751467 170.941538 
L 337.375065 170.163366 
L 337.569897 170.027642 
L 337.829672 169.82714 
L 337.95956 169.815274 
L 338.219336 169.67528 
L 338.349223 169.590819 
L 338.868774 169.415831 
L 338.998662 169.292959 
L 339.258438 169.17262 
L 339.518213 169.05602 
L 339.648101 168.988489 
L 340.427428 168.573927 
L 340.752148 168.418651 
L 340.882035 168.339991 
L 341.076867 168.27963 
L 341.271699 168.132201 
L 341.661362 167.989941 
L 341.921138 167.762659 
L 342.051025 167.795755 
L 342.115969 167.626022 
L 342.180913 167.684764 
L 342.310801 167.597712 
L 342.635521 167.444144 
L 342.830352 167.322774 
L 344.12923 166.667768 
L 344.389006 166.565243 
L 344.518894 166.489424 
L 344.713725 166.371455 
L 345.557996 165.961883 
L 345.687884 165.852511 
L 345.947659 165.719172 
L 346.012603 165.779136 
L 346.272379 165.545671 
L 346.726986 165.31998 
L 346.986762 165.191926 
L 347.11665 165.130961 
L 347.181593 165.030674 
L 347.246537 165.076106 
L 349.519574 163.946088 
L 349.714405 163.837468 
L 350.233957 163.501478 
L 350.363844 163.47617 
L 350.948339 163.156978 
L 351.078227 163.131803 
L 351.402947 162.934304 
L 351.532835 162.830483 
L 351.987442 162.614052 
L 352.052386 162.629481 
L 352.247217 162.48962 
L 352.506993 162.29037 
L 352.571937 162.353881 
L 352.636881 162.208558 
L 352.701825 162.25193 
L 352.766769 162.255287 
L 352.896656 162.1348 
L 352.9616 162.167483 
L 353.221376 161.9117 
L 353.351264 161.952745 
L 353.546095 161.836734 
L 353.805871 161.592714 
L 353.870815 161.687716 
L 353.935759 161.626472 
L 354.390366 161.358292 
L 354.45531 161.422657 
L 354.780029 161.139093 
L 356.338683 160.400848 
L 356.533515 160.268951 
L 357.11801 159.985343 
L 357.312841 159.869597 
L 357.897337 159.543544 
L 358.351944 159.344205 
L 358.481832 159.233303 
L 358.546776 159.262158 
L 358.676663 159.125845 
L 358.871495 159.070019 
L 359.326102 158.801927 
L 360.040485 158.438569 
L 360.105429 158.459489 
L 360.300261 158.314622 
L 360.560036 158.152678 
L 360.819812 158.05797 
L 361.079588 157.874075 
L 361.339363 157.814568 
L 361.469251 157.683599 
L 361.599139 157.643363 
L 361.858914 157.50122 
L 361.988802 157.443789 
L 362.248578 157.272422 
L 362.378466 157.234351 
L 362.638241 157.042403 
L 362.833073 156.987165 
L 363.6124 156.563401 
L 363.742287 156.543761 
L 364.261839 156.196361 
L 364.326782 156.269266 
L 364.391726 156.179622 
L 365.495773 155.581429 
L 365.755548 155.399095 
L 365.885436 155.38636 
L 366.145212 155.191615 
L 366.275099 155.161346 
L 366.340043 155.062589 
L 366.404987 155.138085 
L 366.859594 154.871274 
L 367.11937 154.719032 
L 367.249258 154.657331 
L 367.509033 154.505943 
L 367.898697 154.357337 
L 368.028585 154.230667 
L 368.093529 154.261465 
L 368.353304 154.063422 
L 369.392406 153.506643 
L 369.45735 153.548601 
L 369.522294 153.412156 
L 369.587238 153.44559 
L 369.652182 153.441645 
L 369.717126 153.279759 
L 369.78207 153.326031 
L 369.847014 153.369727 
L 369.976902 153.20818 
L 370.041845 153.24475 
L 370.171733 153.144933 
L 370.236677 153.127723 
L 370.366565 153.01844 
L 370.431509 153.049033 
L 370.561397 152.853639 
L 370.626341 152.9294 
L 370.691284 152.852889 
L 370.821172 152.754235 
L 370.886116 152.748714 
L 370.95106 152.6167 
L 371.016004 152.692858 
L 371.340723 152.464826 
L 371.470611 152.439047 
L 371.730387 152.261218 
L 371.860275 152.202064 
L 372.12005 152.047422 
L 372.314882 151.97967 
L 372.899377 151.689437 
L 372.964321 151.678969 
L 373.094209 151.524798 
L 373.159153 151.539108 
L 373.28904 151.438923 
L 373.418928 151.347513 
L 378.094889 148.96147 
L 378.354664 148.79455 
L 378.679384 148.691126 
L 378.939159 148.508762 
L 379.263879 148.362791 
L 379.718486 148.091476 
L 379.848374 148.072749 
L 380.10815 147.89648 
L 380.238037 147.86998 
L 380.562757 147.691444 
L 381.536915 147.182615 
L 381.601859 147.208335 
L 381.731747 147.105986 
L 381.991523 146.957026 
L 382.316242 146.77612 
L 382.640962 146.659947 
L 382.900737 146.501595 
L 383.290401 146.330876 
L 383.745008 146.056837 
L 383.874896 146.036623 
L 386.667483 144.627855 
L 386.927259 144.44131 
L 387.057147 144.441222 
L 387.187034 144.364298 
L 387.641642 144.172026 
L 387.966361 143.917008 
L 388.161193 143.811567 
L 388.875576 143.431911 
L 393.876256 140.669068 
L 393.9412 140.525335 
L 394.006144 140.575611 
L 394.915358 139.999884 
L 395.045246 139.963491 
L 395.305022 139.830432 
L 396.27918 139.240263 
L 396.344124 139.280734 
L 396.538956 139.147881 
L 396.668844 139.076552 
L 396.993563 138.903404 
L 397.123451 138.782122 
L 397.188395 138.822505 
L 397.253339 138.662327 
L 397.318283 138.700885 
L 397.383226 138.693229 
L 397.44817 138.532478 
L 397.513114 138.584197 
L 397.578058 138.579486 
L 397.707946 138.446058 
L 397.77289 138.508186 
L 397.967722 138.355723 
L 398.162553 138.229612 
L 398.422329 138.134757 
L 398.487273 137.960122 
L 398.487273 137.960122 
" clip-path="url(#pc2edabd660)" style="fill: none; stroke: #008000; stroke-width: 1.5; stroke-linecap: square"/>
   </g>
   <g id="line2d_16">
    <path d="M 73.832727 282.339705 
L 74.352278 282.725567 
L 76.365539 283.650269 
L 77.729361 284.67538 
L 78.768464 285.338592 
L 79.937454 285.736932 
L 80.781724 285.792428 
L 82.015658 285.624898 
L 85.782404 284.779204 
L 88.70488 284.137329 
L 90.068702 283.775729 
L 91.562411 283.32885 
L 98.966016 280.496343 
L 99.810286 280.094961 
L 101.239052 279.389092 
L 101.888491 279.052378 
L 105.850069 276.915072 
L 120.267614 267.964112 
L 120.917053 267.550503 
L 121.891212 266.902806 
L 122.215931 266.715522 
L 122.995258 266.205719 
L 123.774585 265.695202 
L 124.488968 265.207224 
L 124.878631 264.954731 
L 126.307397 263.984761 
L 126.502228 263.88482 
L 126.891892 263.605252 
L 128.970097 262.181239 
L 129.294816 261.995449 
L 129.619536 261.744803 
L 130.139087 261.417911 
L 130.593694 261.100854 
L 131.567852 260.446764 
L 133.516169 259.075273 
L 133.581113 259.113098 
L 133.775945 258.913847 
L 134.035721 258.791182 
L 134.295496 258.577552 
L 134.620216 258.366133 
L 136.438645 257.116862 
L 137.088084 256.691397 
L 137.737523 256.263342 
L 138.062242 256.082019 
L 138.322018 255.902769 
L 142.803147 252.846457 
L 143.127866 252.57608 
L 143.257754 252.490098 
L 143.51753 252.348353 
L 143.842249 252.105013 
L 145.465847 251.00529 
L 145.725622 250.808108 
L 147.0245 249.91592 
L 147.34922 249.648403 
L 147.479107 249.562049 
L 147.738883 249.416594 
L 148.063603 249.171429 
L 148.777985 248.688496 
L 150.336639 247.583068 
L 150.791246 247.273092 
L 151.375741 246.82444 
L 151.700461 246.610154 
L 152.609675 245.909112 
L 152.804507 245.803017 
L 153.19417 245.476088 
L 153.389002 245.386706 
L 153.583834 245.179837 
L 153.713722 245.114941 
L 155.402263 243.836873 
L 155.726982 243.617972 
L 157.02586 242.619059 
L 157.870131 241.98617 
L 159.753504 240.509344 
L 159.818448 240.534828 
L 160.01328 240.326837 
L 160.143168 240.247429 
L 161.506989 239.196535 
L 161.701821 239.09196 
L 161.896653 238.889971 
L 162.026541 238.806014 
L 162.870811 238.18509 
L 163.195531 237.915078 
L 166.053062 235.740666 
L 166.50767 235.369471 
L 166.767445 235.196883 
L 167.546772 234.589536 
L 167.936435 234.306392 
L 169.040482 233.426335 
L 169.105425 233.446467 
L 169.300257 233.242822 
L 169.560033 233.070514 
L 170.144528 232.618637 
L 178.327459 226.321131 
L 178.652178 226.035668 
L 178.84701 225.903271 
L 191.446126 216.185221 
L 196.706582 211.920204 
L 196.966358 211.704244 
L 197.226133 211.535175 
L 197.550853 211.222085 
L 197.680741 211.141297 
L 198.654899 210.400733 
L 199.629057 209.604136 
L 199.888833 209.426689 
L 200.278496 209.098391 
L 200.603216 208.857212 
L 204.305018 205.940087 
L 204.629738 205.657546 
L 205.66884 204.812918 
L 205.993559 204.596833 
L 206.188391 204.352098 
L 206.253335 204.406578 
L 206.513111 204.116086 
L 206.578055 204.146981 
L 206.772886 203.887377 
L 206.902774 203.843063 
L 207.097606 203.628119 
L 207.16255 203.663216 
L 207.422325 203.391444 
L 207.487269 203.403752 
L 207.747045 203.138561 
L 207.876932 203.043846 
L 208.136708 202.879134 
L 208.461428 202.592124 
L 208.851091 202.271901 
L 209.630418 201.64489 
L 210.149969 201.18987 
L 210.474688 200.935883 
L 211.578735 200.009201 
L 211.968398 199.679644 
L 212.682781 199.088194 
L 213.137388 198.616796 
L 213.267276 198.527705 
L 213.656939 198.263419 
L 214.046603 197.798403 
L 214.111547 197.838713 
L 214.306378 197.533904 
L 214.436266 197.511107 
L 214.631098 197.235198 
L 214.955817 196.975969 
L 215.605256 196.501546 
L 215.99492 196.078614 
L 216.059864 196.183325 
L 216.124808 196.08599 
L 216.449527 195.813938 
L 216.709303 195.546862 
L 216.774246 195.559803 
L 217.098966 195.189098 
L 217.228854 195.131703 
L 217.423685 194.886056 
L 217.553573 194.827344 
L 217.813349 194.61965 
L 218.592676 193.922863 
L 218.852451 193.659615 
L 220.151329 192.559674 
L 220.411105 192.345164 
L 220.605936 192.196691 
L 220.865712 191.90885 
L 220.9956 191.832176 
L 221.320319 191.559374 
L 221.645039 191.272755 
L 222.424366 190.59836 
L 222.554253 190.52374 
L 222.878973 190.237297 
L 223.008861 190.126373 
L 224.112907 189.121796 
L 224.437626 188.894956 
L 224.82729 188.542808 
L 225.022122 188.353223 
L 225.801448 187.71843 
L 226.320999 187.248689 
L 227.035382 186.727125 
L 227.230214 186.531702 
L 228.269316 185.604063 
L 228.529092 185.435384 
L 228.788868 185.163523 
L 228.853811 185.194433 
L 229.113587 184.875483 
L 229.308419 184.812067 
L 229.698082 184.426456 
L 229.892914 184.282657 
L 230.152689 184.061007 
L 230.347521 183.899857 
L 230.607297 183.666076 
L 230.802128 183.521651 
L 231.061904 183.273972 
L 231.126848 183.279905 
L 231.386624 182.993374 
L 232.16595 182.377573 
L 232.425726 182.128098 
L 232.555614 182.03091 
L 232.750445 181.857997 
L 233.529772 181.263765 
L 233.789548 180.990506 
L 233.854492 181.046399 
L 234.114267 180.698373 
L 234.309099 180.622369 
L 234.698762 180.260652 
L 234.893594 180.118612 
L 235.15337 179.891301 
L 235.218313 179.890234 
L 235.478089 179.621141 
L 239.699442 176.114333 
L 239.764386 176.145765 
L 240.089106 175.827655 
L 241.063264 175.006752 
L 241.128208 175.03228 
L 241.452928 174.722834 
L 242.427086 173.975594 
L 242.621918 173.847282 
L 242.81675 173.64179 
L 243.011581 173.45361 
L 243.141469 173.371608 
L 243.336301 173.204569 
L 243.466189 173.149994 
L 243.855852 172.766326 
L 243.920796 172.829955 
L 244.180571 172.470851 
L 244.245515 172.583933 
L 244.505291 172.201288 
L 244.570235 172.292551 
L 244.83001 171.984562 
L 244.959898 171.943001 
L 245.15473 171.737891 
L 245.284618 171.718841 
L 245.479449 171.560342 
L 246.908215 170.456559 
L 247.167991 170.243911 
L 247.427766 169.998668 
L 247.622598 169.921642 
L 248.856532 168.885772 
L 248.921476 168.903115 
L 249.116308 168.703615 
L 254.246876 164.656641 
L 254.311819 164.665224 
L 254.571595 164.393658 
L 254.636539 164.410338 
L 255.026202 164.013722 
L 255.740585 163.47907 
L 256.974519 162.481655 
L 257.039463 162.512057 
L 257.299239 162.192938 
L 257.364183 162.21377 
L 257.623958 161.976198 
L 257.883734 161.820628 
L 258.143509 161.537299 
L 258.208453 161.583777 
L 258.468229 161.260168 
L 258.663061 161.163753 
L 259.507331 160.485898 
L 260.351602 159.763391 
L 260.611378 159.630096 
L 260.806209 159.412089 
L 261.065985 159.269534 
L 261.32576 158.99367 
L 261.390704 159.053721 
L 261.715424 158.697356 
L 261.910256 158.61154 
L 262.170031 158.326459 
L 262.234975 158.339547 
L 262.559694 158.030322 
L 263.728685 157.113099 
L 264.053404 156.829107 
L 264.378124 156.594715 
L 264.897675 156.190149 
L 265.287338 155.879878 
L 265.417226 155.761232 
L 265.806889 155.443099 
L 265.871833 155.45024 
L 266.131609 155.136406 
L 266.196553 155.147271 
L 266.391384 155.001742 
L 266.586216 154.879062 
L 267.105767 154.455239 
L 267.235655 154.321841 
L 269.183972 152.7492 
L 269.378804 152.578555 
L 269.508692 152.511039 
L 269.898355 152.158736 
L 269.963299 152.170794 
L 270.158131 151.958647 
L 270.547794 151.616841 
L 270.612738 151.66909 
L 270.872513 151.389957 
L 270.937457 151.40808 
L 271.132289 151.206504 
L 271.521952 150.836947 
L 271.716784 150.808062 
L 271.97656 150.510821 
L 272.106447 150.433603 
L 272.366223 150.198857 
L 273.340382 149.457638 
L 273.535213 149.214103 
L 273.665101 149.217946 
L 273.859933 149.052659 
L 273.989821 148.996244 
L 274.31454 148.66679 
L 279.055445 145.023146 
L 279.250276 144.824352 
L 279.380164 144.853841 
L 279.63994 144.602209 
L 279.834771 144.53247 
L 280.094547 144.187072 
L 280.159491 144.291188 
L 280.224435 144.203311 
L 281.003761 143.599641 
L 281.198593 143.469924 
L 281.6532 143.050341 
L 281.783088 142.989627 
L 282.237696 142.734991 
L 282.497471 142.442976 
L 282.562415 142.467327 
L 282.627359 142.318603 
L 282.692303 142.379494 
L 282.757247 142.367981 
L 282.952078 142.101966 
L 283.081966 142.106368 
L 283.341742 141.812188 
L 283.406686 141.838409 
L 283.536573 141.736119 
L 283.601517 141.737635 
L 283.861293 141.506614 
L 284.056125 141.439525 
L 284.186012 141.220252 
L 284.250956 141.233885 
L 284.3159 141.05769 
L 284.380844 141.175468 
L 285.225115 140.500866 
L 285.290059 140.497039 
L 285.549834 140.247851 
L 285.80961 140.065133 
L 286.004442 139.879 
L 286.264217 139.828518 
L 286.394105 139.623923 
L 286.459049 139.655576 
L 286.718824 139.339049 
L 286.783768 139.388677 
L 286.913656 139.252188 
L 286.9786 139.322736 
L 287.173432 139.063213 
L 287.368263 138.815394 
L 287.433207 138.922734 
L 287.563095 138.750366 
L 287.628039 138.824861 
L 287.757927 138.629335 
L 287.822871 138.641996 
L 287.952759 138.507082 
L 288.017702 138.555194 
L 288.082646 138.328384 
L 288.14759 138.448649 
L 288.277478 138.177098 
L 288.342422 138.326543 
L 288.407366 138.140867 
L 288.47231 138.17433 
L 288.537254 138.16797 
L 288.602198 137.960225 
L 288.667141 137.997001 
L 290.420627 136.725503 
L 290.485571 136.798658 
L 290.550514 136.709044 
L 290.81029 136.408858 
L 291.070066 136.368092 
L 291.329841 136.010269 
L 291.394785 136.061325 
L 291.524673 135.888781 
L 291.589617 135.988244 
L 291.784449 135.778438 
L 291.914336 135.680138 
L 291.97928 135.68507 
L 292.109168 135.524848 
L 292.239056 135.414328 
L 294.187373 133.988144 
L 294.382204 133.793943 
L 294.64198 133.750645 
L 295.421307 133.080446 
L 295.551195 133.051576 
L 295.746026 132.844964 
L 295.875914 132.780746 
L 295.940858 132.798221 
L 296.200634 132.446331 
L 296.265577 132.488451 
L 296.525353 132.228589 
L 296.655241 132.185939 
L 296.850073 132.077378 
L 296.97996 132.031003 
L 297.369624 131.668203 
L 297.499512 131.586436 
L 298.148951 131.091505 
L 298.213894 131.135097 
L 298.278838 130.954912 
L 298.343782 130.986403 
L 298.733446 130.700071 
L 298.993221 130.543956 
L 300.162211 129.676141 
L 300.292099 129.538047 
L 300.681763 129.260356 
L 300.941538 129.019545 
L 301.201314 128.866788 
L 301.720865 128.447543 
L 301.850753 128.391908 
L 302.370304 128.007496 
L 303.084687 127.49852 
L 303.279518 127.293572 
L 303.409406 127.259755 
L 303.604238 127.019297 
L 303.864014 126.968918 
L 304.253677 126.57133 
L 304.383565 126.610889 
L 304.448509 126.458455 
L 304.513453 126.551249 
L 304.838172 126.210209 
L 304.903116 126.242465 
L 305.097948 126.06733 
L 305.357723 125.824296 
L 305.422667 125.847233 
L 305.682443 125.56065 
L 305.877274 125.550521 
L 306.591657 125.0381 
L 306.656601 124.891673 
L 306.721545 124.935015 
L 307.111208 124.631841 
L 307.30604 124.473209 
L 307.500872 124.354754 
L 308.150311 123.897409 
L 308.280199 123.824622 
L 308.864694 123.332768 
L 308.994581 123.322418 
L 309.189413 123.206392 
L 309.708964 122.833405 
L 309.903796 122.679882 
L 310.618179 122.156184 
L 310.813011 121.978899 
L 311.007842 121.88478 
L 311.527393 121.425167 
L 311.592337 121.505624 
L 311.657281 121.331725 
L 311.722225 121.391821 
L 312.696384 120.62366 
L 312.761328 120.63161 
L 312.826271 120.431918 
L 312.891215 120.590079 
L 313.021103 120.354715 
L 313.086047 120.442268 
L 313.150991 120.209495 
L 313.215935 120.266853 
L 313.280879 120.245123 
L 313.47571 120.043355 
L 313.735486 119.822331 
L 313.80043 119.889714 
L 313.930318 119.730685 
L 313.995262 119.722484 
L 314.060205 119.545936 
L 314.125149 119.594077 
L 314.190093 119.576514 
L 314.384925 119.366752 
L 314.709644 119.148377 
L 314.774588 119.150144 
L 314.904476 118.971534 
L 315.034364 118.900058 
L 315.553915 118.612533 
L 315.618859 118.403698 
L 315.683803 118.490397 
L 316.203354 118.024101 
L 316.46313 117.905823 
L 316.722905 117.647315 
L 316.982681 117.477598 
L 317.502232 117.06567 
L 317.762008 116.933612 
L 317.956839 116.716003 
L 318.995942 115.965936 
L 319.190773 115.861629 
L 319.580437 115.551064 
L 319.840212 115.303893 
L 319.9701 115.301007 
L 320.229876 115.007962 
L 320.29482 115.046961 
L 320.554595 114.828307 
L 322.373024 113.504059 
L 322.567856 113.315938 
L 332.63416 105.856725 
L 332.699104 105.683017 
L 332.764048 105.720647 
L 333.023824 105.542302 
L 333.218655 105.366578 
L 333.608319 105.082307 
L 334.322702 104.574494 
L 334.387646 104.572786 
L 334.647421 104.292829 
L 334.777309 104.266093 
L 335.037085 103.999827 
L 336.011243 103.341067 
L 336.271019 103.096811 
L 336.725626 102.684339 
L 336.79057 102.75237 
L 337.050345 102.463388 
L 337.375065 102.288827 
L 337.63484 102.006072 
L 337.764728 101.971578 
L 338.024504 101.711937 
L 338.154392 101.679401 
L 338.608999 101.287437 
L 339.258438 100.809716 
L 339.518213 100.614234 
L 339.648101 100.557922 
L 340.29754 99.980046 
L 340.427428 99.923012 
L 340.687204 99.74954 
L 341.011923 99.458717 
L 341.206755 99.349184 
L 341.46653 99.138082 
L 346.597098 95.16394 
L 346.79193 94.97074 
L 346.921818 94.953957 
L 347.311481 94.608103 
L 347.506313 94.462441 
L 349.12991 93.251098 
L 349.324742 93.117876 
L 349.584518 92.853789 
L 350.233957 92.348832 
L 350.298901 92.378792 
L 350.62362 92.057156 
L 351.208115 91.605272 
L 351.467891 91.451396 
L 351.727666 91.204416 
L 351.857554 91.145439 
L 352.11733 90.881219 
L 352.247217 90.800556 
L 352.506993 90.565693 
L 352.571937 90.613408 
L 352.636881 90.427702 
L 352.701825 90.475652 
L 352.9616 90.305346 
L 353.221376 90.003629 
L 353.351264 89.9916 
L 353.611039 89.718121 
L 353.740927 89.675603 
L 353.935759 89.515484 
L 354.390366 89.154216 
L 354.45531 89.201842 
L 354.780029 88.823202 
L 355.429468 88.350928 
L 356.143851 87.79618 
L 356.533515 87.517371 
L 357.767449 86.532411 
L 357.96228 86.42304 
L 376.27646 72.062054 
L 376.341404 72.089011 
L 376.601179 71.838512 
L 377.12073 71.441263 
L 379.78343 69.223053 
L 381.407028 67.869184 
L 381.666803 67.567143 
L 381.796691 67.532016 
L 382.056467 67.259361 
L 382.900737 66.651289 
L 383.485232 66.173038 
L 383.745008 65.893802 
L 384.004784 65.77835 
L 384.78411 64.925817 
L 385.173774 64.60393 
L 386.862315 63.304813 
L 387.122091 63.011738 
L 387.251978 62.965451 
L 387.44681 62.822793 
L 387.706586 62.545059 
L 388.680744 61.711841 
L 389.135351 61.29108 
L 389.265239 61.254436 
L 389.395127 61.112161 
L 389.460071 61.099014 
L 389.654903 60.888928 
L 395.43491 56.12379 
L 395.564797 56.011489 
L 396.993563 54.869355 
L 397.253339 54.583332 
L 397.383226 54.568595 
L 397.513114 54.452334 
L 397.77289 54.28905 
L 398.032665 53.976144 
L 398.292441 53.795929 
L 398.422329 53.749466 
L 398.487273 53.568 
L 398.487273 53.568 
" clip-path="url(#pc2edabd660)" style="fill: none; stroke: #ff0000; stroke-width: 1.5; stroke-linecap: square"/>
   </g>
   <g id="patch_3">
    <path d="M 57.6 307.584 
L 57.6 41.472 
" style="fill: none; stroke: #000000; stroke-width: 0.8; stroke-linejoin: miter; stroke-linecap: square"/>
   </g>
   <g id="patch_4">
    <path d="M 414.72 307.584 
L 414.72 41.472 
" style="fill: none; stroke: #000000; stroke-width: 0.8; stroke-linejoin: miter; stroke-linecap: square"/>
   </g>
   <g id="patch_5">
    <path d="M 57.6 307.584 
L 414.72 307.584 
" style="fill: none; stroke: #000000; stroke-width: 0.8; stroke-linejoin: miter; stroke-linecap: square"/>
   </g>
   <g id="patch_6">
    <path d="M 57.6 41.472 
L 414.72 41.472 
" style="fill: none; stroke: #000000; stroke-width: 0.8; stroke-linejoin: miter; stroke-linecap: square"/>
   </g>
   <g id="text_16">
    <!-- Script19_loss -->
    <g transform="translate(196.532813 35.472) scale(0.12 -0.12)">
     <defs>
      <path id="DejaVuSans-53" d="M 3425 4513 
L 3425 3897 
Q 3066 4069 2747 4153 
Q 2428 4238 2131 4238 
Q 1616 4238 1336 4038 
Q 1056 3838 1056 3469 
Q 1056 3159 1242 3001 
Q 1428 2844 1947 2747 
L 2328 2669 
Q 3034 2534 3370 2195 
Q 3706 1856 3706 1288 
Q 3706 609 3251 259 
Q 2797 -91 1919 -91 
Q 1588 -91 1214 -16 
Q 841 59 441 206 
L 441 856 
Q 825 641 1194 531 
Q 1563 422 1919 422 
Q 2459 422 2753 634 
Q 3047 847 3047 1241 
Q 3047 1584 2836 1778 
Q 2625 1972 2144 2069 
L 1759 2144 
Q 1053 2284 737 2584 
Q 422 2884 422 3419 
Q 422 4038 858 4394 
Q 1294 4750 2059 4750 
Q 2388 4750 2728 4690 
Q 3069 4631 3425 4513 
z
" transform="scale(0.015625)"/>
      <path id="DejaVuSans-72" d="M 2631 2963 
Q 2534 3019 2420 3045 
Q 2306 3072 2169 3072 
Q 1681 3072 1420 2755 
Q 1159 2438 1159 1844 
L 1159 0 
L 581 0 
L 581 3500 
L 1159 3500 
L 1159 2956 
Q 1341 3275 1631 3429 
Q 1922 3584 2338 3584 
Q 2397 3584 2469 3576 
Q 2541 3569 2628 3553 
L 2631 2963 
z
" transform="scale(0.015625)"/>
      <path id="DejaVuSans-69" d="M 603 3500 
L 1178 3500 
L 1178 0 
L 603 0 
L 603 3500 
z
M 603 4863 
L 1178 4863 
L 1178 4134 
L 603 4134 
L 603 4863 
z
" transform="scale(0.015625)"/>
      <path id="DejaVuSans-74" d="M 1172 4494 
L 1172 3500 
L 2356 3500 
L 2356 3053 
L 1172 3053 
L 1172 1153 
Q 1172 725 1289 603 
Q 1406 481 1766 481 
L 2356 481 
L 2356 0 
L 1766 0 
Q 1100 0 847 248 
Q 594 497 594 1153 
L 594 3053 
L 172 3053 
L 172 3500 
L 594 3500 
L 594 4494 
L 1172 4494 
z
" transform="scale(0.015625)"/>
      <path id="DejaVuSans-39" d="M 703 97 
L 703 672 
Q 941 559 1184 500 
Q 1428 441 1663 441 
Q 2288 441 2617 861 
Q 2947 1281 2994 2138 
Q 2813 1869 2534 1725 
Q 2256 1581 1919 1581 
Q 1219 1581 811 2004 
Q 403 2428 403 3163 
Q 403 3881 828 4315 
Q 1253 4750 1959 4750 
Q 2769 4750 3195 4129 
Q 3622 3509 3622 2328 
Q 3622 1225 3098 567 
Q 2575 -91 1691 -91 
Q 1453 -91 1209 -44 
Q 966 3 703 97 
z
M 1959 2075 
Q 2384 2075 2632 2365 
Q 2881 2656 2881 3163 
Q 2881 3666 2632 3958 
Q 2384 4250 1959 4250 
Q 1534 4250 1286 3958 
Q 1038 3666 1038 3163 
Q 1038 2656 1286 2365 
Q 1534 2075 1959 2075 
z
" transform="scale(0.015625)"/>
      <path id="DejaVuSans-5f" d="M 3263 -1063 
L 3263 -1509 
L -63 -1509 
L -63 -1063 
L 3263 -1063 
z
" transform="scale(0.015625)"/>
     </defs>
     <use xlink:href="#DejaVuSans-53"/>
     <use xlink:href="#DejaVuSans-63" x="63.476562"/>
     <use xlink:href="#DejaVuSans-72" x="118.457031"/>
     <use xlink:href="#DejaVuSans-69" x="159.570312"/>
     <use xlink:href="#DejaVuSans-70" x="187.353516"/>
     <use xlink:href="#DejaVuSans-74" x="250.830078"/>
     <use xlink:href="#DejaVuSans-31" x="290.039062"/>
     <use xlink:href="#DejaVuSans-39" x="353.662109"/>
     <use xlink:href="#DejaVuSans-5f" x="417.285156"/>
     <use xlink:href="#DejaVuSans-6c" x="467.285156"/>
     <use xlink:href="#DejaVuSans-6f" x="495.068359"/>
     <use xlink:href="#DejaVuSans-73" x="556.25"/>
     <use xlink:href="#DejaVuSans-73" x="608.349609"/>
    </g>
   </g>
   <g id="legend_1">
    <g id="patch_7">
     <path d="M 64.6 93.506375 
L 164.295312 93.506375 
Q 166.295312 93.506375 166.295312 91.506375 
L 166.295312 48.472 
Q 166.295312 46.472 164.295312 46.472 
L 64.6 46.472 
Q 62.6 46.472 62.6 48.472 
L 62.6 91.506375 
Q 62.6 93.506375 64.6 93.506375 
z
" style="fill: #ffffff; opacity: 0.8; stroke: #cccccc; stroke-linejoin: miter"/>
    </g>
    <g id="line2d_17">
     <path d="M 66.6 54.570438 
L 76.6 54.570438 
L 86.6 54.570438 
" style="fill: none; stroke: #0000ff; stroke-width: 1.5; stroke-linecap: square"/>
    </g>
    <g id="text_17">
     <!-- training set -->
     <g transform="translate(94.6 58.070438) scale(0.1 -0.1)">
      <defs>
       <path id="DejaVuSans-61" d="M 2194 1759 
Q 1497 1759 1228 1600 
Q 959 1441 959 1056 
Q 959 750 1161 570 
Q 1363 391 1709 391 
Q 2188 391 2477 730 
Q 2766 1069 2766 1631 
L 2766 1759 
L 2194 1759 
z
M 3341 1997 
L 3341 0 
L 2766 0 
L 2766 531 
Q 2569 213 2275 61 
Q 1981 -91 1556 -91 
Q 1019 -91 701 211 
Q 384 513 384 1019 
Q 384 1609 779 1909 
Q 1175 2209 1959 2209 
L 2766 2209 
L 2766 2266 
Q 2766 2663 2505 2880 
Q 2244 3097 1772 3097 
Q 1472 3097 1187 3025 
Q 903 2953 641 2809 
L 641 3341 
Q 956 3463 1253 3523 
Q 1550 3584 1831 3584 
Q 2591 3584 2966 3190 
Q 3341 2797 3341 1997 
z
" transform="scale(0.015625)"/>
       <path id="DejaVuSans-6e" d="M 3513 2113 
L 3513 0 
L 2938 0 
L 2938 2094 
Q 2938 2591 2744 2837 
Q 2550 3084 2163 3084 
Q 1697 3084 1428 2787 
Q 1159 2491 1159 1978 
L 1159 0 
L 581 0 
L 581 3500 
L 1159 3500 
L 1159 2956 
Q 1366 3272 1645 3428 
Q 1925 3584 2291 3584 
Q 2894 3584 3203 3211 
Q 3513 2838 3513 2113 
z
" transform="scale(0.015625)"/>
       <path id="DejaVuSans-67" d="M 2906 1791 
Q 2906 2416 2648 2759 
Q 2391 3103 1925 3103 
Q 1463 3103 1205 2759 
Q 947 2416 947 1791 
Q 947 1169 1205 825 
Q 1463 481 1925 481 
Q 2391 481 2648 825 
Q 2906 1169 2906 1791 
z
M 3481 434 
Q 3481 -459 3084 -895 
Q 2688 -1331 1869 -1331 
Q 1566 -1331 1297 -1286 
Q 1028 -1241 775 -1147 
L 775 -588 
Q 1028 -725 1275 -790 
Q 1522 -856 1778 -856 
Q 2344 -856 2625 -561 
Q 2906 -266 2906 331 
L 2906 616 
Q 2728 306 2450 153 
Q 2172 0 1784 0 
Q 1141 0 747 490 
Q 353 981 353 1791 
Q 353 2603 747 3093 
Q 1141 3584 1784 3584 
Q 2172 3584 2450 3431 
Q 2728 3278 2906 2969 
L 2906 3500 
L 3481 3500 
L 3481 434 
z
" transform="scale(0.015625)"/>
       <path id="DejaVuSans-20" transform="scale(0.015625)"/>
      </defs>
      <use xlink:href="#DejaVuSans-74"/>
      <use xlink:href="#DejaVuSans-72" x="39.208984"/>
      <use xlink:href="#DejaVuSans-61" x="80.322266"/>
      <use xlink:href="#DejaVuSans-69" x="141.601562"/>
      <use xlink:href="#DejaVuSans-6e" x="169.384766"/>
      <use xlink:href="#DejaVuSans-69" x="232.763672"/>
      <use xlink:href="#DejaVuSans-6e" x="260.546875"/>
      <use xlink:href="#DejaVuSans-67" x="323.925781"/>
      <use xlink:href="#DejaVuSans-20" x="387.402344"/>
      <use xlink:href="#DejaVuSans-73" x="419.189453"/>
      <use xlink:href="#DejaVuSans-65" x="471.289062"/>
      <use xlink:href="#DejaVuSans-74" x="532.8125"/>
     </g>
    </g>
    <g id="line2d_18">
     <path d="M 66.6 69.248563 
L 76.6 69.248563 
L 86.6 69.248563 
" style="fill: none; stroke: #008000; stroke-width: 1.5; stroke-linecap: square"/>
    </g>
    <g id="text_18">
     <!-- validation set -->
     <g transform="translate(94.6 72.748563) scale(0.1 -0.1)">
      <defs>
       <path id="DejaVuSans-76" d="M 191 3500 
L 800 3500 
L 1894 563 
L 2988 3500 
L 3597 3500 
L 2284 0 
L 1503 0 
L 191 3500 
z
" transform="scale(0.015625)"/>
       <path id="DejaVuSans-64" d="M 2906 2969 
L 2906 4863 
L 3481 4863 
L 3481 0 
L 2906 0 
L 2906 525 
Q 2725 213 2448 61 
Q 2172 -91 1784 -91 
Q 1150 -91 751 415 
Q 353 922 353 1747 
Q 353 2572 751 3078 
Q 1150 3584 1784 3584 
Q 2172 3584 2448 3432 
Q 2725 3281 2906 2969 
z
M 947 1747 
Q 947 1113 1208 752 
Q 1469 391 1925 391 
Q 2381 391 2643 752 
Q 2906 1113 2906 1747 
Q 2906 2381 2643 2742 
Q 2381 3103 1925 3103 
Q 1469 3103 1208 2742 
Q 947 2381 947 1747 
z
" transform="scale(0.015625)"/>
      </defs>
      <use xlink:href="#DejaVuSans-76"/>
      <use xlink:href="#DejaVuSans-61" x="59.179688"/>
      <use xlink:href="#DejaVuSans-6c" x="120.458984"/>
      <use xlink:href="#DejaVuSans-69" x="148.242188"/>
      <use xlink:href="#DejaVuSans-64" x="176.025391"/>
      <use xlink:href="#DejaVuSans-61" x="239.501953"/>
      <use xlink:href="#DejaVuSans-74" x="300.78125"/>
      <use xlink:href="#DejaVuSans-69" x="339.990234"/>
      <use xlink:href="#DejaVuSans-6f" x="367.773438"/>
      <use xlink:href="#DejaVuSans-6e" x="428.955078"/>
      <use xlink:href="#DejaVuSans-20" x="492.333984"/>
      <use xlink:href="#DejaVuSans-73" x="524.121094"/>
      <use xlink:href="#DejaVuSans-65" x="576.220703"/>
      <use xlink:href="#DejaVuSans-74" x="637.744141"/>
     </g>
    </g>
    <g id="line2d_19">
     <path d="M 66.6 83.926688 
L 76.6 83.926688 
L 86.6 83.926688 
" style="fill: none; stroke: #ff0000; stroke-width: 1.5; stroke-linecap: square"/>
    </g>
    <g id="text_19">
     <!-- test set -->
     <g transform="translate(94.6 87.426688) scale(0.1 -0.1)">
      <use xlink:href="#DejaVuSans-74"/>
      <use xlink:href="#DejaVuSans-65" x="39.208984"/>
      <use xlink:href="#DejaVuSans-73" x="100.732422"/>
      <use xlink:href="#DejaVuSans-74" x="152.832031"/>
      <use xlink:href="#DejaVuSans-20" x="192.041016"/>
      <use xlink:href="#DejaVuSans-73" x="223.828125"/>
      <use xlink:href="#DejaVuSans-65" x="275.927734"/>
      <use xlink:href="#DejaVuSans-74" x="337.451172"/>
     </g>
    </g>
   </g>
  </g>
 </g>
 <defs>
  <clipPath id="pc2edabd660">
   <rect x="57.6" y="41.472" width="357.12" height="266.112"/>
  </clipPath>
 </defs>
</svg>
