<?xml version="1.0" encoding="utf-8" standalone="no"?>
<!DOCTYPE svg PUBLIC "-//W3C//DTD SVG 1.1//EN"
  "http://www.w3.org/Graphics/SVG/1.1/DTD/svg11.dtd">
<svg xmlns:xlink="http://www.w3.org/1999/xlink" width="460.8pt" height="345.6pt" viewBox="0 0 460.8 345.6" xmlns="http://www.w3.org/2000/svg" version="1.1">
 <metadata>
  <rdf:RDF xmlns:dc="http://purl.org/dc/elements/1.1/" xmlns:cc="http://creativecommons.org/ns#" xmlns:rdf="http://www.w3.org/1999/02/22-rdf-syntax-ns#">
   <cc:Work>
    <dc:type rdf:resource="http://purl.org/dc/dcmitype/StillImage"/>
    <dc:date>2023-06-14T04:03:16.294791</dc:date>
    <dc:format>image/svg+xml</dc:format>
    <dc:creator>
     <cc:Agent>
      <dc:title>Matplotlib v3.7.1, https://matplotlib.org/</dc:title>
     </cc:Agent>
    </dc:creator>
   </cc:Work>
  </rdf:RDF>
 </metadata>
 <defs>
  <style type="text/css">*{stroke-linejoin: round; stroke-linecap: butt}</style>
 </defs>
 <g id="figure_1">
  <g id="patch_1">
   <path d="M 0 345.6 
L 460.8 345.6 
L 460.8 0 
L 0 0 
z
" style="fill: #ffffff"/>
  </g>
  <g id="axes_1">
   <g id="patch_2">
    <path d="M 57.6 307.584 
L 414.72 307.584 
L 414.72 41.472 
L 57.6 41.472 
z
" style="fill: #ffffff"/>
   </g>
   <g id="matplotlib.axis_1">
    <g id="xtick_1">
     <g id="line2d_1">
      <defs>
       <path id="m1720e3879c" d="M 0 0 
L 0 3.5 
" style="stroke: #000000; stroke-width: 0.8"/>
      </defs>
      <g>
       <use xlink:href="#m1720e3879c" x="73.767783" y="307.584" style="stroke: #000000; stroke-width: 0.8"/>
      </g>
     </g>
     <g id="text_1">
      <!-- 0 -->
      <g transform="translate(70.586533 322.182437) scale(0.1 -0.1)">
       <defs>
        <path id="DejaVuSans-30" d="M 2034 4250 
Q 1547 4250 1301 3770 
Q 1056 3291 1056 2328 
Q 1056 1369 1301 889 
Q 1547 409 2034 409 
Q 2525 409 2770 889 
Q 3016 1369 3016 2328 
Q 3016 3291 2770 3770 
Q 2525 4250 2034 4250 
z
M 2034 4750 
Q 2819 4750 3233 4129 
Q 3647 3509 3647 2328 
Q 3647 1150 3233 529 
Q 2819 -91 2034 -91 
Q 1250 -91 836 529 
Q 422 1150 422 2328 
Q 422 3509 836 4129 
Q 1250 4750 2034 4750 
z
" transform="scale(0.015625)"/>
       </defs>
       <use xlink:href="#DejaVuSans-30"/>
      </g>
     </g>
    </g>
    <g id="xtick_2">
     <g id="line2d_2">
      <g>
       <use xlink:href="#m1720e3879c" x="138.711681" y="307.584" style="stroke: #000000; stroke-width: 0.8"/>
      </g>
     </g>
     <g id="text_2">
      <!-- 1000 -->
      <g transform="translate(125.986681 322.182437) scale(0.1 -0.1)">
       <defs>
        <path id="DejaVuSans-31" d="M 794 531 
L 1825 531 
L 1825 4091 
L 703 3866 
L 703 4441 
L 1819 4666 
L 2450 4666 
L 2450 531 
L 3481 531 
L 3481 0 
L 794 0 
L 794 531 
z
" transform="scale(0.015625)"/>
       </defs>
       <use xlink:href="#DejaVuSans-31"/>
       <use xlink:href="#DejaVuSans-30" x="63.623047"/>
       <use xlink:href="#DejaVuSans-30" x="127.246094"/>
       <use xlink:href="#DejaVuSans-30" x="190.869141"/>
      </g>
     </g>
    </g>
    <g id="xtick_3">
     <g id="line2d_3">
      <g>
       <use xlink:href="#m1720e3879c" x="203.655579" y="307.584" style="stroke: #000000; stroke-width: 0.8"/>
      </g>
     </g>
     <g id="text_3">
      <!-- 2000 -->
      <g transform="translate(190.930579 322.182437) scale(0.1 -0.1)">
       <defs>
        <path id="DejaVuSans-32" d="M 1228 531 
L 3431 531 
L 3431 0 
L 469 0 
L 469 531 
Q 828 903 1448 1529 
Q 2069 2156 2228 2338 
Q 2531 2678 2651 2914 
Q 2772 3150 2772 3378 
Q 2772 3750 2511 3984 
Q 2250 4219 1831 4219 
Q 1534 4219 1204 4116 
Q 875 4013 500 3803 
L 500 4441 
Q 881 4594 1212 4672 
Q 1544 4750 1819 4750 
Q 2544 4750 2975 4387 
Q 3406 4025 3406 3419 
Q 3406 3131 3298 2873 
Q 3191 2616 2906 2266 
Q 2828 2175 2409 1742 
Q 1991 1309 1228 531 
z
" transform="scale(0.015625)"/>
       </defs>
       <use xlink:href="#DejaVuSans-32"/>
       <use xlink:href="#DejaVuSans-30" x="63.623047"/>
       <use xlink:href="#DejaVuSans-30" x="127.246094"/>
       <use xlink:href="#DejaVuSans-30" x="190.869141"/>
      </g>
     </g>
    </g>
    <g id="xtick_4">
     <g id="line2d_4">
      <g>
       <use xlink:href="#m1720e3879c" x="268.599477" y="307.584" style="stroke: #000000; stroke-width: 0.8"/>
      </g>
     </g>
     <g id="text_4">
      <!-- 3000 -->
      <g transform="translate(255.874477 322.182437) scale(0.1 -0.1)">
       <defs>
        <path id="DejaVuSans-33" d="M 2597 2516 
Q 3050 2419 3304 2112 
Q 3559 1806 3559 1356 
Q 3559 666 3084 287 
Q 2609 -91 1734 -91 
Q 1441 -91 1130 -33 
Q 819 25 488 141 
L 488 750 
Q 750 597 1062 519 
Q 1375 441 1716 441 
Q 2309 441 2620 675 
Q 2931 909 2931 1356 
Q 2931 1769 2642 2001 
Q 2353 2234 1838 2234 
L 1294 2234 
L 1294 2753 
L 1863 2753 
Q 2328 2753 2575 2939 
Q 2822 3125 2822 3475 
Q 2822 3834 2567 4026 
Q 2313 4219 1838 4219 
Q 1578 4219 1281 4162 
Q 984 4106 628 3988 
L 628 4550 
Q 988 4650 1302 4700 
Q 1616 4750 1894 4750 
Q 2613 4750 3031 4423 
Q 3450 4097 3450 3541 
Q 3450 3153 3228 2886 
Q 3006 2619 2597 2516 
z
" transform="scale(0.015625)"/>
       </defs>
       <use xlink:href="#DejaVuSans-33"/>
       <use xlink:href="#DejaVuSans-30" x="63.623047"/>
       <use xlink:href="#DejaVuSans-30" x="127.246094"/>
       <use xlink:href="#DejaVuSans-30" x="190.869141"/>
      </g>
     </g>
    </g>
    <g id="xtick_5">
     <g id="line2d_5">
      <g>
       <use xlink:href="#m1720e3879c" x="333.543375" y="307.584" style="stroke: #000000; stroke-width: 0.8"/>
      </g>
     </g>
     <g id="text_5">
      <!-- 4000 -->
      <g transform="translate(320.818375 322.182437) scale(0.1 -0.1)">
       <defs>
        <path id="DejaVuSans-34" d="M 2419 4116 
L 825 1625 
L 2419 1625 
L 2419 4116 
z
M 2253 4666 
L 3047 4666 
L 3047 1625 
L 3713 1625 
L 3713 1100 
L 3047 1100 
L 3047 0 
L 2419 0 
L 2419 1100 
L 313 1100 
L 313 1709 
L 2253 4666 
z
" transform="scale(0.015625)"/>
       </defs>
       <use xlink:href="#DejaVuSans-34"/>
       <use xlink:href="#DejaVuSans-30" x="63.623047"/>
       <use xlink:href="#DejaVuSans-30" x="127.246094"/>
       <use xlink:href="#DejaVuSans-30" x="190.869141"/>
      </g>
     </g>
    </g>
    <g id="xtick_6">
     <g id="line2d_6">
      <g>
       <use xlink:href="#m1720e3879c" x="398.487273" y="307.584" style="stroke: #000000; stroke-width: 0.8"/>
      </g>
     </g>
     <g id="text_6">
      <!-- 5000 -->
      <g transform="translate(385.762273 322.182437) scale(0.1 -0.1)">
       <defs>
        <path id="DejaVuSans-35" d="M 691 4666 
L 3169 4666 
L 3169 4134 
L 1269 4134 
L 1269 2991 
Q 1406 3038 1543 3061 
Q 1681 3084 1819 3084 
Q 2600 3084 3056 2656 
Q 3513 2228 3513 1497 
Q 3513 744 3044 326 
Q 2575 -91 1722 -91 
Q 1428 -91 1123 -41 
Q 819 9 494 109 
L 494 744 
Q 775 591 1075 516 
Q 1375 441 1709 441 
Q 2250 441 2565 725 
Q 2881 1009 2881 1497 
Q 2881 1984 2565 2268 
Q 2250 2553 1709 2553 
Q 1456 2553 1204 2497 
Q 953 2441 691 2322 
L 691 4666 
z
" transform="scale(0.015625)"/>
       </defs>
       <use xlink:href="#DejaVuSans-35"/>
       <use xlink:href="#DejaVuSans-30" x="63.623047"/>
       <use xlink:href="#DejaVuSans-30" x="127.246094"/>
       <use xlink:href="#DejaVuSans-30" x="190.869141"/>
      </g>
     </g>
    </g>
    <g id="text_7">
     <!-- epoch -->
     <g transform="translate(220.931875 335.860562) scale(0.1 -0.1)">
      <defs>
       <path id="DejaVuSans-65" d="M 3597 1894 
L 3597 1613 
L 953 1613 
Q 991 1019 1311 708 
Q 1631 397 2203 397 
Q 2534 397 2845 478 
Q 3156 559 3463 722 
L 3463 178 
Q 3153 47 2828 -22 
Q 2503 -91 2169 -91 
Q 1331 -91 842 396 
Q 353 884 353 1716 
Q 353 2575 817 3079 
Q 1281 3584 2069 3584 
Q 2775 3584 3186 3129 
Q 3597 2675 3597 1894 
z
M 3022 2063 
Q 3016 2534 2758 2815 
Q 2500 3097 2075 3097 
Q 1594 3097 1305 2825 
Q 1016 2553 972 2059 
L 3022 2063 
z
" transform="scale(0.015625)"/>
       <path id="DejaVuSans-70" d="M 1159 525 
L 1159 -1331 
L 581 -1331 
L 581 3500 
L 1159 3500 
L 1159 2969 
Q 1341 3281 1617 3432 
Q 1894 3584 2278 3584 
Q 2916 3584 3314 3078 
Q 3713 2572 3713 1747 
Q 3713 922 3314 415 
Q 2916 -91 2278 -91 
Q 1894 -91 1617 61 
Q 1341 213 1159 525 
z
M 3116 1747 
Q 3116 2381 2855 2742 
Q 2594 3103 2138 3103 
Q 1681 3103 1420 2742 
Q 1159 2381 1159 1747 
Q 1159 1113 1420 752 
Q 1681 391 2138 391 
Q 2594 391 2855 752 
Q 3116 1113 3116 1747 
z
" transform="scale(0.015625)"/>
       <path id="DejaVuSans-6f" d="M 1959 3097 
Q 1497 3097 1228 2736 
Q 959 2375 959 1747 
Q 959 1119 1226 758 
Q 1494 397 1959 397 
Q 2419 397 2687 759 
Q 2956 1122 2956 1747 
Q 2956 2369 2687 2733 
Q 2419 3097 1959 3097 
z
M 1959 3584 
Q 2709 3584 3137 3096 
Q 3566 2609 3566 1747 
Q 3566 888 3137 398 
Q 2709 -91 1959 -91 
Q 1206 -91 779 398 
Q 353 888 353 1747 
Q 353 2609 779 3096 
Q 1206 3584 1959 3584 
z
" transform="scale(0.015625)"/>
       <path id="DejaVuSans-63" d="M 3122 3366 
L 3122 2828 
Q 2878 2963 2633 3030 
Q 2388 3097 2138 3097 
Q 1578 3097 1268 2742 
Q 959 2388 959 1747 
Q 959 1106 1268 751 
Q 1578 397 2138 397 
Q 2388 397 2633 464 
Q 2878 531 3122 666 
L 3122 134 
Q 2881 22 2623 -34 
Q 2366 -91 2075 -91 
Q 1284 -91 818 406 
Q 353 903 353 1747 
Q 353 2603 823 3093 
Q 1294 3584 2113 3584 
Q 2378 3584 2631 3529 
Q 2884 3475 3122 3366 
z
" transform="scale(0.015625)"/>
       <path id="DejaVuSans-68" d="M 3513 2113 
L 3513 0 
L 2938 0 
L 2938 2094 
Q 2938 2591 2744 2837 
Q 2550 3084 2163 3084 
Q 1697 3084 1428 2787 
Q 1159 2491 1159 1978 
L 1159 0 
L 581 0 
L 581 4863 
L 1159 4863 
L 1159 2956 
Q 1366 3272 1645 3428 
Q 1925 3584 2291 3584 
Q 2894 3584 3203 3211 
Q 3513 2838 3513 2113 
z
" transform="scale(0.015625)"/>
      </defs>
      <use xlink:href="#DejaVuSans-65"/>
      <use xlink:href="#DejaVuSans-70" x="61.523438"/>
      <use xlink:href="#DejaVuSans-6f" x="125"/>
      <use xlink:href="#DejaVuSans-63" x="186.181641"/>
      <use xlink:href="#DejaVuSans-68" x="241.162109"/>
     </g>
    </g>
   </g>
   <g id="matplotlib.axis_2">
    <g id="ytick_1">
     <g id="line2d_7">
      <defs>
       <path id="m3bed2d97d6" d="M 0 0 
L -3.5 0 
" style="stroke: #000000; stroke-width: 0.8"/>
      </defs>
      <g>
       <use xlink:href="#m3bed2d97d6" x="57.6" y="304.387413" style="stroke: #000000; stroke-width: 0.8"/>
      </g>
     </g>
     <g id="text_8">
      <!-- 0.4 -->
      <g transform="translate(34.696875 308.186632) scale(0.1 -0.1)">
       <defs>
        <path id="DejaVuSans-2e" d="M 684 794 
L 1344 794 
L 1344 0 
L 684 0 
L 684 794 
z
" transform="scale(0.015625)"/>
       </defs>
       <use xlink:href="#DejaVuSans-30"/>
       <use xlink:href="#DejaVuSans-2e" x="63.623047"/>
       <use xlink:href="#DejaVuSans-34" x="95.410156"/>
      </g>
     </g>
    </g>
    <g id="ytick_2">
     <g id="line2d_8">
      <g>
       <use xlink:href="#m3bed2d97d6" x="57.6" y="269.077894" style="stroke: #000000; stroke-width: 0.8"/>
      </g>
     </g>
     <g id="text_9">
      <!-- 0.6 -->
      <g transform="translate(34.696875 272.877113) scale(0.1 -0.1)">
       <defs>
        <path id="DejaVuSans-36" d="M 2113 2584 
Q 1688 2584 1439 2293 
Q 1191 2003 1191 1497 
Q 1191 994 1439 701 
Q 1688 409 2113 409 
Q 2538 409 2786 701 
Q 3034 994 3034 1497 
Q 3034 2003 2786 2293 
Q 2538 2584 2113 2584 
z
M 3366 4563 
L 3366 3988 
Q 3128 4100 2886 4159 
Q 2644 4219 2406 4219 
Q 1781 4219 1451 3797 
Q 1122 3375 1075 2522 
Q 1259 2794 1537 2939 
Q 1816 3084 2150 3084 
Q 2853 3084 3261 2657 
Q 3669 2231 3669 1497 
Q 3669 778 3244 343 
Q 2819 -91 2113 -91 
Q 1303 -91 875 529 
Q 447 1150 447 2328 
Q 447 3434 972 4092 
Q 1497 4750 2381 4750 
Q 2619 4750 2861 4703 
Q 3103 4656 3366 4563 
z
" transform="scale(0.015625)"/>
       </defs>
       <use xlink:href="#DejaVuSans-30"/>
       <use xlink:href="#DejaVuSans-2e" x="63.623047"/>
       <use xlink:href="#DejaVuSans-36" x="95.410156"/>
      </g>
     </g>
    </g>
    <g id="ytick_3">
     <g id="line2d_9">
      <g>
       <use xlink:href="#m3bed2d97d6" x="57.6" y="233.768374" style="stroke: #000000; stroke-width: 0.8"/>
      </g>
     </g>
     <g id="text_10">
      <!-- 0.8 -->
      <g transform="translate(34.696875 237.567593) scale(0.1 -0.1)">
       <defs>
        <path id="DejaVuSans-38" d="M 2034 2216 
Q 1584 2216 1326 1975 
Q 1069 1734 1069 1313 
Q 1069 891 1326 650 
Q 1584 409 2034 409 
Q 2484 409 2743 651 
Q 3003 894 3003 1313 
Q 3003 1734 2745 1975 
Q 2488 2216 2034 2216 
z
M 1403 2484 
Q 997 2584 770 2862 
Q 544 3141 544 3541 
Q 544 4100 942 4425 
Q 1341 4750 2034 4750 
Q 2731 4750 3128 4425 
Q 3525 4100 3525 3541 
Q 3525 3141 3298 2862 
Q 3072 2584 2669 2484 
Q 3125 2378 3379 2068 
Q 3634 1759 3634 1313 
Q 3634 634 3220 271 
Q 2806 -91 2034 -91 
Q 1263 -91 848 271 
Q 434 634 434 1313 
Q 434 1759 690 2068 
Q 947 2378 1403 2484 
z
M 1172 3481 
Q 1172 3119 1398 2916 
Q 1625 2713 2034 2713 
Q 2441 2713 2670 2916 
Q 2900 3119 2900 3481 
Q 2900 3844 2670 4047 
Q 2441 4250 2034 4250 
Q 1625 4250 1398 4047 
Q 1172 3844 1172 3481 
z
" transform="scale(0.015625)"/>
       </defs>
       <use xlink:href="#DejaVuSans-30"/>
       <use xlink:href="#DejaVuSans-2e" x="63.623047"/>
       <use xlink:href="#DejaVuSans-38" x="95.410156"/>
      </g>
     </g>
    </g>
    <g id="ytick_4">
     <g id="line2d_10">
      <g>
       <use xlink:href="#m3bed2d97d6" x="57.6" y="198.458855" style="stroke: #000000; stroke-width: 0.8"/>
      </g>
     </g>
     <g id="text_11">
      <!-- 1.0 -->
      <g transform="translate(34.696875 202.258073) scale(0.1 -0.1)">
       <use xlink:href="#DejaVuSans-31"/>
       <use xlink:href="#DejaVuSans-2e" x="63.623047"/>
       <use xlink:href="#DejaVuSans-30" x="95.410156"/>
      </g>
     </g>
    </g>
    <g id="ytick_5">
     <g id="line2d_11">
      <g>
       <use xlink:href="#m3bed2d97d6" x="57.6" y="163.149335" style="stroke: #000000; stroke-width: 0.8"/>
      </g>
     </g>
     <g id="text_12">
      <!-- 1.2 -->
      <g transform="translate(34.696875 166.948554) scale(0.1 -0.1)">
       <use xlink:href="#DejaVuSans-31"/>
       <use xlink:href="#DejaVuSans-2e" x="63.623047"/>
       <use xlink:href="#DejaVuSans-32" x="95.410156"/>
      </g>
     </g>
    </g>
    <g id="ytick_6">
     <g id="line2d_12">
      <g>
       <use xlink:href="#m3bed2d97d6" x="57.6" y="127.839815" style="stroke: #000000; stroke-width: 0.8"/>
      </g>
     </g>
     <g id="text_13">
      <!-- 1.4 -->
      <g transform="translate(34.696875 131.639034) scale(0.1 -0.1)">
       <use xlink:href="#DejaVuSans-31"/>
       <use xlink:href="#DejaVuSans-2e" x="63.623047"/>
       <use xlink:href="#DejaVuSans-34" x="95.410156"/>
      </g>
     </g>
    </g>
    <g id="ytick_7">
     <g id="line2d_13">
      <g>
       <use xlink:href="#m3bed2d97d6" x="57.6" y="92.530296" style="stroke: #000000; stroke-width: 0.8"/>
      </g>
     </g>
     <g id="text_14">
      <!-- 1.6 -->
      <g transform="translate(34.696875 96.329514) scale(0.1 -0.1)">
       <use xlink:href="#DejaVuSans-31"/>
       <use xlink:href="#DejaVuSans-2e" x="63.623047"/>
       <use xlink:href="#DejaVuSans-36" x="95.410156"/>
      </g>
     </g>
    </g>
    <g id="ytick_8">
     <g id="line2d_14">
      <g>
       <use xlink:href="#m3bed2d97d6" x="57.6" y="57.220776" style="stroke: #000000; stroke-width: 0.8"/>
      </g>
     </g>
     <g id="text_15">
      <!-- 1.8 -->
      <g transform="translate(34.696875 61.019995) scale(0.1 -0.1)">
       <use xlink:href="#DejaVuSans-31"/>
       <use xlink:href="#DejaVuSans-2e" x="63.623047"/>
       <use xlink:href="#DejaVuSans-38" x="95.410156"/>
      </g>
     </g>
    </g>
    <g id="text_16">
     <!-- loss -->
     <g transform="translate(28.617188 184.185812) rotate(-90) scale(0.1 -0.1)">
      <defs>
       <path id="DejaVuSans-6c" d="M 603 4863 
L 1178 4863 
L 1178 0 
L 603 0 
L 603 4863 
z
" transform="scale(0.015625)"/>
       <path id="DejaVuSans-73" d="M 2834 3397 
L 2834 2853 
Q 2591 2978 2328 3040 
Q 2066 3103 1784 3103 
Q 1356 3103 1142 2972 
Q 928 2841 928 2578 
Q 928 2378 1081 2264 
Q 1234 2150 1697 2047 
L 1894 2003 
Q 2506 1872 2764 1633 
Q 3022 1394 3022 966 
Q 3022 478 2636 193 
Q 2250 -91 1575 -91 
Q 1294 -91 989 -36 
Q 684 19 347 128 
L 347 722 
Q 666 556 975 473 
Q 1284 391 1588 391 
Q 1994 391 2212 530 
Q 2431 669 2431 922 
Q 2431 1156 2273 1281 
Q 2116 1406 1581 1522 
L 1381 1569 
Q 847 1681 609 1914 
Q 372 2147 372 2553 
Q 372 3047 722 3315 
Q 1072 3584 1716 3584 
Q 2034 3584 2315 3537 
Q 2597 3491 2834 3397 
z
" transform="scale(0.015625)"/>
      </defs>
      <use xlink:href="#DejaVuSans-6c"/>
      <use xlink:href="#DejaVuSans-6f" x="27.783203"/>
      <use xlink:href="#DejaVuSans-73" x="88.964844"/>
      <use xlink:href="#DejaVuSans-73" x="141.064453"/>
     </g>
    </g>
   </g>
   <g id="line2d_15">
    <path d="M 73.832727 178.82241 
L 74.157447 181.140639 
L 74.352278 181.444061 
L 74.806886 181.491267 
L 76.560371 184.004784 
L 77.20981 185.59909 
L 77.989137 188.067336 
L 79.158127 192.582864 
L 81.820827 202.789103 
L 85.003078 213.642289 
L 91.627355 235.579295 
L 93.510728 240.773887 
L 95.19927 244.799135 
L 96.887811 248.278605 
L 100.264894 254.004063 
L 102.278155 256.805385 
L 104.356359 259.321301 
L 106.239732 261.332215 
L 108.512769 263.450622 
L 111.759964 266.001821 
L 114.35772 267.707398 
L 117.280195 269.337662 
L 120.137726 270.694673 
L 123.384921 272.000826 
L 129.164928 273.854936 
L 132.996618 274.806147 
L 133.516169 274.93053 
L 134.815047 275.23372 
L 142.608315 276.676631 
L 157.805187 278.673676 
L 168.650818 279.784016 
L 168.910594 279.787846 
L 169.170369 279.836926 
L 171.378462 280.091195 
L 180.795327 280.998429 
L 181.18499 280.998703 
L 181.314878 281.03988 
L 181.444766 281.016592 
L 181.639598 281.058137 
L 182.483868 281.162747 
L 183.328139 281.251488 
L 192.030621 282.046368 
L 192.874892 282.028479 
L 193.069724 282.032246 
L 193.264555 282.114115 
L 193.394443 282.11299 
L 193.589275 282.143917 
L 194.758265 282.279275 
L 196.251975 282.411529 
L 204.564794 282.978953 
L 204.694681 282.957065 
L 204.889513 283.119783 
L 205.084345 283.092265 
L 205.279177 283.1171 
L 206.188391 283.215985 
L 207.227493 283.306957 
L 213.721883 283.798047 
L 216.514471 283.929406 
L 216.774246 283.84881 
L 216.904134 284.02928 
L 217.098966 283.967068 
L 217.228854 284.035289 
L 217.358742 284.004541 
L 217.553573 284.033732 
L 220.411105 284.274225 
L 231.451567 284.94788 
L 231.711343 284.828475 
L 231.841231 285.047249 
L 231.906175 285.007293 
L 232.036062 284.951121 
L 232.16595 285.065475 
L 232.360782 285.049249 
L 232.620558 285.072957 
L 232.945277 285.118722 
L 233.724604 285.168864 
L 236.906855 285.373243 
L 246.778327 285.939625 
L 247.038103 285.775971 
L 247.232935 286.018969 
L 247.362822 285.911834 
L 247.557654 286.029777 
L 247.687542 286.001712 
L 247.882374 286.03408 
L 248.98642 286.136312 
L 250.934737 286.26724 
L 262.105087 286.920269 
L 262.429807 286.796234 
L 262.559694 287.004859 
L 262.624638 286.967539 
L 262.754526 286.897724 
L 262.949358 286.998029 
L 263.079246 286.979146 
L 263.274077 287.014203 
L 263.858572 287.069618 
L 276.782408 287.853128 
L 277.107128 287.67101 
L 277.237015 287.93657 
L 277.301959 287.897098 
L 277.431847 287.805279 
L 277.626679 287.918365 
L 277.756567 287.907479 
L 277.886454 287.96765 
L 278.081286 287.979041 
L 278.730725 288.025611 
L 279.445108 288.075348 
L 283.666461 288.344286 
L 291.654561 288.766655 
L 291.914336 288.75901 
L 292.174112 288.870444 
L 292.433888 288.884087 
L 292.823551 288.915236 
L 293.408046 288.96472 
L 294.9667 289.066615 
L 300.551875 289.364118 
L 300.876594 289.28087 
L 301.13637 289.433275 
L 301.331202 289.417291 
L 301.526033 289.470269 
L 301.785809 289.498644 
L 304.578396 289.678889 
L 311.592337 290.028001 
L 311.852113 289.832425 
L 312.046945 290.150053 
L 312.241776 290.03873 
L 312.436608 290.135273 
L 312.566496 290.117984 
L 312.761328 290.160923 
L 313.086047 290.187057 
L 325.425388 290.969562 
L 326.074827 291.001737 
L 326.269658 290.972288 
L 326.46449 291.025913 
L 326.724266 291.022009 
L 327.63348 291.121289 
L 331.919777 291.387796 
L 335.816411 291.552877 
L 336.141131 291.490007 
L 336.400906 291.637966 
L 336.595738 291.613116 
L 336.855514 291.66189 
L 337.310121 291.696853 
L 338.803831 291.811328 
L 346.207435 292.088053 
L 346.337323 292.041304 
L 346.726986 292.203512 
L 347.246537 292.305786 
L 347.636201 292.346752 
L 348.545415 292.405702 
L 352.831713 292.670767 
L 357.312841 292.841283 
L 357.572617 292.745544 
L 357.832393 292.962508 
L 358.027224 292.901133 
L 358.287 292.97321 
L 358.546776 293.02017 
L 360.495092 293.139312 
L 368.483192 293.465589 
L 368.678024 293.392896 
L 368.937799 293.63933 
L 369.132631 293.571746 
L 369.327463 293.671205 
L 369.522294 293.646539 
L 369.78207 293.678008 
L 371.730387 293.82562 
L 379.848374 294.326586 
L 380.367925 294.237366 
L 380.627701 294.089286 
L 380.887476 294.356977 
L 381.082308 294.309186 
L 381.27714 294.386752 
L 381.471971 294.395959 
L 381.666803 294.408776 
L 382.12141 294.449443 
L 382.705906 294.497454 
L 386.862315 294.760252 
L 393.356705 295.055718 
L 393.61648 294.841584 
L 393.876256 295.171635 
L 394.006144 295.044258 
L 394.071088 295.098131 
L 394.265919 295.18643 
L 394.395807 295.15524 
L 394.590639 295.229654 
L 394.785471 295.237283 
L 395.175134 295.28179 
L 396.798731 295.382007 
L 398.487273 295.488 
L 398.487273 295.488 
" clip-path="url(#pba2b6e52dc)" style="fill: none; stroke: #0000ff; stroke-width: 1.5; stroke-linecap: square"/>
   </g>
   <g id="line2d_16">
    <path d="M 73.832727 170.903262 
L 74.287335 181.048815 
L 74.54711 183.739981 
L 74.741942 184.22581 
L 74.87183 184.020147 
L 75.131605 182.869935 
L 75.521269 181.279543 
L 75.651156 181.204324 
L 75.781044 181.413502 
L 76.560371 183.327604 
L 77.014978 183.435528 
L 77.20981 183.75183 
L 77.534529 184.362189 
L 77.729361 184.412426 
L 77.924193 184.828886 
L 78.119025 185.195194 
L 78.248912 185.08226 
L 78.313856 185.150092 
L 79.028239 186.985481 
L 79.352959 187.421957 
L 79.612734 188.150258 
L 79.742622 188.331149 
L 80.002398 189.129996 
L 80.132285 189.294514 
L 80.651837 190.709654 
L 82.015658 193.846957 
L 82.665097 195.371895 
L 89.614094 212.834676 
L 89.679038 212.691405 
L 89.743982 213.397523 
L 89.808926 212.596487 
L 89.87387 214.097927 
L 89.938814 212.965194 
L 90.003758 213.638554 
L 90.068702 214.36215 
L 90.133646 213.504837 
L 90.19859 214.117721 
L 90.263533 214.763721 
L 90.328477 214.116921 
L 90.393421 214.4744 
L 90.458365 215.180045 
L 90.523309 214.743822 
L 90.588253 214.832047 
L 90.653197 215.563421 
L 90.718141 215.352791 
L 90.783085 215.231323 
L 90.912972 215.921625 
L 90.977916 215.686214 
L 91.107804 216.430331 
L 91.172748 216.177809 
L 91.302636 216.886032 
L 91.36758 216.676834 
L 91.692299 217.692351 
L 91.757243 217.628034 
L 91.822187 217.702958 
L 91.952075 218.064688 
L 92.017019 218.105349 
L 92.146906 218.478612 
L 92.21185 218.508456 
L 92.406682 218.906764 
L 92.666458 219.561751 
L 92.796345 219.68165 
L 93.056121 220.275951 
L 93.186009 220.431818 
L 93.445784 220.940734 
L 93.510728 220.978007 
L 93.835448 221.552703 
L 95.394101 223.88397 
L 96.433204 225.125301 
L 96.628035 225.442045 
L 96.692979 225.339867 
L 96.757923 225.661956 
L 96.822867 225.35684 
L 96.887811 225.970345 
L 96.952755 225.243928 
L 97.017699 226.337968 
L 97.082643 225.252767 
L 97.147587 226.282974 
L 97.212531 225.976501 
L 97.277474 225.725452 
L 97.342418 226.555416 
L 97.407362 225.858253 
L 97.472306 226.250837 
L 97.53725 226.578009 
L 97.602194 226.001304 
L 97.667138 226.63174 
L 97.732082 226.567097 
L 97.797026 226.267811 
L 97.861969 226.878159 
L 97.926913 226.591805 
L 97.991857 226.578725 
L 98.056801 227.030638 
L 98.121745 226.668939 
L 98.186689 226.885535 
L 98.251633 227.126524 
L 98.316577 226.805065 
L 98.446465 227.190904 
L 98.511408 227.000016 
L 98.576352 227.368554 
L 98.641296 227.246813 
L 98.70624 227.236858 
L 98.771184 227.522296 
L 98.836128 227.325357 
L 98.966016 227.620013 
L 99.03096 227.455369 
L 99.095904 227.702672 
L 99.160847 227.681878 
L 99.225791 227.642932 
L 99.290735 227.865411 
L 99.355679 227.748742 
L 99.615455 228.055078 
L 99.745343 228.042556 
L 99.940174 228.236896 
L 100.264894 228.423638 
L 102.53793 229.431936 
L 102.732762 229.658171 
L 102.797706 229.425496 
L 102.86265 229.788983 
L 102.927594 229.341038 
L 102.992537 229.980482 
L 103.057481 229.188843 
L 103.122425 230.160111 
L 103.187369 229.199492 
L 103.252313 230.027783 
L 103.317257 229.668073 
L 103.382201 229.574471 
L 103.447145 230.105012 
L 103.512089 229.426243 
L 103.577032 230.033487 
L 103.641976 229.820784 
L 103.70692 229.655046 
L 103.771864 230.144252 
L 103.836808 229.632337 
L 103.901752 229.990963 
L 103.966696 230.000086 
L 104.03164 229.719352 
L 104.096584 230.163436 
L 104.161528 229.828918 
L 104.226471 229.964066 
L 104.291415 230.125342 
L 104.356359 229.817554 
L 104.421303 230.161773 
L 104.486247 229.990342 
L 104.551191 229.977925 
L 104.616135 230.195773 
L 104.681079 229.929614 
L 104.746023 230.166582 
L 104.810967 230.102613 
L 104.87591 230.026036 
L 104.940854 230.236845 
L 105.005798 230.028835 
L 105.070742 230.190312 
L 105.20063 230.090132 
L 105.265574 230.267751 
L 105.330518 230.105043 
L 105.395462 230.230247 
L 105.850069 230.223775 
L 105.915013 230.312905 
L 105.979957 230.210632 
L 106.044901 230.322765 
L 106.109845 230.255891 
L 106.36962 230.352041 
L 106.434564 230.275496 
L 106.499508 230.351935 
L 106.759283 230.321882 
L 106.954115 230.399542 
L 107.148947 230.38683 
L 108.317937 230.54115 
L 108.382881 230.384525 
L 108.447825 230.587347 
L 108.512769 230.329384 
L 108.577713 230.664733 
L 108.642657 230.227879 
L 108.7076 230.781697 
L 108.772544 230.083934 
L 108.837488 230.889201 
L 108.902432 230.037506 
L 108.967376 230.809941 
L 109.03232 230.306886 
L 109.162208 230.671678 
L 109.227152 230.188207 
L 109.292096 230.769501 
L 109.357039 230.279716 
L 109.421983 230.53813 
L 109.486927 230.586368 
L 109.551871 230.274854 
L 109.616815 230.70531 
L 109.681759 230.310864 
L 109.746703 230.5355 
L 109.811647 230.547201 
L 109.876591 230.321419 
L 109.941534 230.649359 
L 110.006478 230.335961 
L 110.071422 230.52202 
L 110.136366 230.513349 
L 110.20131 230.351241 
L 110.266254 230.599753 
L 110.331198 230.34619 
L 110.396142 230.510581 
L 110.52603 230.373108 
L 110.590973 230.551758 
L 110.655917 230.344916 
L 110.720861 230.500279 
L 110.850749 230.391271 
L 110.915693 230.49969 
L 110.980637 230.340139 
L 111.045581 230.484778 
L 111.110525 230.377328 
L 111.240412 230.438288 
L 111.305356 230.340918 
L 111.3703 230.454093 
L 111.435244 230.33393 
L 111.500188 230.413085 
L 111.759964 230.311074 
L 111.824908 230.395375 
L 111.889851 230.306928 
L 112.019739 230.324112 
L 114.35772 229.953764 
L 114.422663 230.053302 
L 114.487607 229.89172 
L 114.552551 230.082882 
L 114.617495 229.790562 
L 114.682439 230.156543 
L 114.747383 229.619983 
L 114.812327 230.282073 
L 114.877271 229.400883 
L 114.942215 230.353872 
L 115.007159 229.427601 
L 115.072102 230.099835 
L 115.137046 229.874083 
L 115.20199 229.605125 
L 115.266934 230.164867 
L 115.331878 229.490255 
L 115.396822 229.963056 
L 115.52671 229.554151 
L 115.591654 230.035444 
L 115.656598 229.563611 
L 115.721541 229.774704 
L 115.786485 229.867043 
L 115.851429 229.500125 
L 115.916373 229.8879 
L 115.981317 229.63019 
L 116.046261 229.609165 
L 116.111205 229.82774 
L 116.176149 229.489729 
L 116.241093 229.725624 
L 116.37098 229.498242 
L 116.435924 229.737389 
L 116.500868 229.496242 
L 116.565812 229.579911 
L 116.630756 229.634821 
L 116.6957 229.434093 
L 116.760644 229.623256 
L 116.825588 229.487635 
L 116.890532 229.466809 
L 116.955475 229.57184 
L 117.020419 229.390128 
L 117.085363 229.510459 
L 117.215251 229.380962 
L 117.280195 229.488466 
L 117.345139 229.345384 
L 117.410083 229.410111 
L 122.670538 228.073904 
L 123.125146 227.915195 
L 123.19009 227.9678 
L 123.384921 227.783362 
L 123.449865 227.976934 
L 123.514809 227.672744 
L 123.579753 228.027813 
L 123.644697 227.507258 
L 123.709641 228.107925 
L 123.774585 227.326409 
L 123.839529 228.124415 
L 123.904473 227.36686 
L 123.969416 227.900526 
L 124.099304 227.504133 
L 124.164248 227.924435 
L 124.229192 227.355337 
L 124.294136 227.80504 
L 124.35908 227.590433 
L 124.424024 227.472417 
L 124.488968 227.780195 
L 124.553912 227.347887 
L 124.618855 227.663884 
L 124.683799 227.535871 
L 124.748743 227.391884 
L 124.813687 227.657538 
L 124.878631 227.326714 
L 124.943575 227.524053 
L 125.073463 227.311751 
L 125.138407 227.537712 
L 125.20335 227.292441 
L 125.268294 227.39825 
L 125.333238 227.408068 
L 125.398182 227.239478 
L 125.463126 227.420096 
L 125.52807 227.243645 
L 125.593014 227.288979 
L 125.657958 227.323715 
L 125.722902 227.171078 
L 125.787846 227.30852 
L 125.917733 227.192998 
L 125.982677 227.23166 
L 126.047621 227.102205 
L 126.112565 227.204258 
L 126.242453 227.105835 
L 126.307397 227.136615 
L 126.502228 227.026207 
L 126.956836 226.94498 
L 127.151667 226.855671 
L 127.411443 226.83011 
L 127.671219 226.731151 
L 127.995938 226.655964 
L 129.424704 226.290067 
L 130.85347 225.930094 
L 132.606955 225.454442 
L 132.671899 225.552801 
L 132.736843 225.386862 
L 132.801787 225.566502 
L 132.86673 225.289408 
L 132.931674 225.607405 
L 132.996618 225.147758 
L 133.061562 225.667618 
L 133.126506 224.995931 
L 133.19145 225.678919 
L 133.256394 225.017672 
L 133.321338 225.515402 
L 133.386282 225.286609 
L 133.451226 225.194733 
L 133.516169 225.491409 
L 133.581113 225.016419 
L 133.646057 225.44696 
L 133.711001 225.161985 
L 133.775945 225.195027 
L 133.840889 225.355693 
L 133.905833 225.013883 
L 133.970777 225.339488 
L 134.035721 225.103277 
L 134.165608 225.253399 
L 134.230552 224.989207 
L 134.295496 225.233615 
L 134.36044 225.05386 
L 134.490328 225.162206 
L 134.555272 224.952534 
L 134.620216 225.136014 
L 134.68516 224.999793 
L 135.139767 224.991206 
L 135.204711 224.859489 
L 135.269655 224.963962 
L 135.399542 224.873832 
L 135.464486 224.908968 
L 135.659318 224.807631 
L 136.113925 224.750849 
L 136.308757 224.674704 
L 136.568533 224.667243 
L 136.828308 224.590888 
L 137.217972 224.522025 
L 137.867411 224.388698 
L 138.386962 224.30646 
L 139.36112 224.128484 
L 140.789886 223.899207 
L 142.673259 223.706109 
L 142.738203 223.512327 
L 142.803147 223.73872 
L 142.868091 223.415473 
L 142.933035 223.79162 
L 142.997979 223.286387 
L 143.062922 223.836101 
L 143.127866 223.218039 
L 143.19281 223.791451 
L 143.257754 223.373212 
L 143.322698 223.585883 
L 143.387642 223.618536 
L 143.452586 223.341391 
L 143.51753 223.710171 
L 143.582474 223.319345 
L 143.647417 223.599342 
L 143.777305 223.386913 
L 143.842249 223.622472 
L 143.907193 223.320124 
L 143.972137 223.556913 
L 144.037081 223.448305 
L 144.102025 223.38765 
L 144.166969 223.550736 
L 144.231913 223.318503 
L 144.296856 223.505224 
L 144.3618 223.407581 
L 144.426744 223.372381 
L 144.491688 223.488524 
L 144.556632 223.310211 
L 144.621576 223.456355 
L 144.751464 223.351735 
L 144.816408 223.433625 
L 144.881352 223.296331 
L 144.946295 223.411095 
L 145.076183 223.330005 
L 145.141127 223.382831 
L 145.206071 223.278989 
L 145.271015 223.369971 
L 145.400903 223.307475 
L 145.595734 223.33092 
L 145.725622 223.284903 
L 146.245173 223.256049 
L 146.440005 223.212125 
L 148.648098 223.050565 
L 151.505629 222.926035 
L 153.843609 222.803936 
L 153.908553 223.003843 
L 153.973497 222.723971 
L 154.038441 223.07219 
L 154.103385 222.596642 
L 154.168329 223.135539 
L 154.233273 222.520697 
L 154.298217 223.116071 
L 154.363161 222.716542 
L 154.493048 222.999034 
L 154.557992 222.680027 
L 154.622936 223.080882 
L 154.68788 222.733516 
L 154.752824 222.943198 
L 154.817768 222.971874 
L 154.882712 222.740892 
L 154.947656 223.045598 
L 155.0126 222.795423 
L 155.077544 222.917753 
L 155.142487 222.97864 
L 155.207431 222.777197 
L 155.272375 223.013924 
L 155.337319 222.851048 
L 155.467207 222.986806 
L 155.532151 222.809398 
L 155.597095 222.987048 
L 155.662039 222.896329 
L 155.726982 222.880839 
L 155.791926 222.989184 
L 155.85687 222.845018 
L 155.921814 222.964255 
L 156.051702 222.882354 
L 156.116646 222.986111 
L 156.18159 222.877671 
L 156.246534 222.951743 
L 157.870131 222.988984 
L 158.389682 223.027961 
L 158.974177 223.046187 
L 159.623616 223.091268 
L 161.377102 223.227963 
L 163.974858 223.486619 
L 168.326099 224.034955 
L 168.391043 224.141227 
L 168.455986 224.015256 
L 168.52093 224.20385 
L 168.585874 223.956748 
L 168.650818 224.285204 
L 168.715762 223.847676 
L 168.780706 224.355392 
L 168.84565 223.803732 
L 168.910594 224.347269 
L 168.975538 224.042658 
L 169.105425 224.309038 
L 169.170369 224.001997 
L 169.235313 224.360928 
L 169.300257 224.114583 
L 169.430145 224.328064 
L 169.495089 224.11735 
L 169.560033 224.381711 
L 169.624977 224.211732 
L 169.754864 224.375744 
L 169.819808 224.200651 
L 169.884752 224.412522 
L 169.949696 224.303272 
L 171.768125 224.664128 
L 172.157789 224.71788 
L 172.417564 224.786469 
L 172.807228 224.844946 
L 173.196891 224.93817 
L 173.781386 225.041264 
L 174.625657 225.219388 
L 176.963637 225.721148 
L 180.665439 226.546861 
L 180.730383 226.663278 
L 180.795327 226.518754 
L 180.860271 226.727268 
L 180.925215 226.410861 
L 180.990159 226.766625 
L 181.055103 226.258582 
L 181.120047 226.793185 
L 181.18499 226.49573 
L 181.314878 226.823965 
L 181.379822 226.499307 
L 181.444766 226.878664 
L 181.50971 226.700287 
L 181.639598 226.911874 
L 181.704542 226.645399 
L 181.769486 226.921377 
L 181.834429 226.894859 
L 181.899373 226.752755 
L 181.964317 226.985904 
L 182.029261 226.848462 
L 182.159149 227.016968 
L 182.224093 226.847431 
L 182.353981 227.02144 
L 182.418925 226.915526 
L 182.483868 227.080664 
L 182.548812 227.012412 
L 182.938476 227.06992 
L 183.068363 227.153936 
L 183.328139 227.223346 
L 183.717802 227.335638 
L 183.912634 227.370311 
L 184.17241 227.415866 
L 184.562073 227.530525 
L 184.886793 227.604986 
L 185.536232 227.756518 
L 192.68006 229.666095 
L 192.745004 229.50927 
L 192.809948 229.736568 
L 192.874892 229.39621 
L 192.939836 229.775567 
L 193.00478 229.301829 
L 193.069724 229.862298 
L 193.134668 229.646428 
L 193.264555 229.9404 
L 193.329499 229.590203 
L 193.394443 229.998761 
L 193.459387 229.8724 
L 193.524331 229.887185 
L 193.589275 230.072348 
L 193.654219 229.826866 
L 193.784107 230.088175 
L 193.849051 229.976536 
L 193.913994 230.185261 
L 193.978938 230.061047 
L 194.108826 230.246116 
L 194.17377 230.105917 
L 194.238714 230.306044 
L 194.303658 230.269014 
L 194.368602 230.238297 
L 194.433546 230.391481 
L 194.49849 230.289449 
L 194.628377 230.446275 
L 194.693321 230.361122 
L 194.823209 230.479201 
L 195.018041 230.521662 
L 195.277816 230.702174 
L 195.407704 230.712413 
L 195.66748 230.832418 
L 195.927255 230.935323 
L 196.83647 231.306187 
L 197.550853 231.590226 
L 198.265236 231.892469 
L 199.304338 232.314286 
L 202.616477 233.905277 
L 204.369962 234.943913 
L 204.434906 234.732789 
L 204.49985 235.025446 
L 204.564794 234.617172 
L 204.629738 235.073726 
L 204.694681 234.615752 
L 204.759625 235.177199 
L 204.824569 235.038673 
L 204.954457 235.283924 
L 205.019401 234.948743 
L 205.084345 235.349188 
L 205.149289 235.252344 
L 205.214233 235.273927 
L 205.279177 235.451756 
L 205.34412 235.218439 
L 205.409064 235.508212 
L 205.474008 235.485051 
L 205.538952 235.412505 
L 205.603896 235.625134 
L 205.66884 235.476496 
L 205.798728 235.695039 
L 205.863672 235.579506 
L 205.928616 235.780265 
L 205.993559 235.718736 
L 206.642998 236.113604 
L 206.707942 236.073458 
L 206.902774 236.208069 
L 207.16255 236.339502 
L 207.552213 236.491045 
L 207.811989 236.620847 
L 208.071764 236.700475 
L 208.656259 236.847303 
L 209.565474 236.965014 
L 212.617837 236.5672 
L 214.566154 235.774467 
L 216.449527 234.947049 
L 216.644359 234.355338 
L 216.709303 234.709954 
L 216.774246 234.351518 
L 216.83919 234.766863 
L 216.904134 234.713406 
L 217.098966 234.38334 
L 217.16391 234.603061 
L 217.228854 234.582394 
L 217.293798 234.307658 
L 217.358742 234.521276 
L 217.423685 234.400082 
L 221.515151 232.52923 
L 222.814029 231.916745 
L 226.580775 230.097077 
L 230.737185 227.923561 
L 231.386624 227.585424 
L 231.581455 226.995427 
L 231.646399 227.291799 
L 231.711343 226.917999 
L 231.776287 227.347466 
L 231.841231 227.284633 
L 232.036062 226.911485 
L 232.101006 227.179076 
L 232.16595 227.127881 
L 232.230894 226.907423 
L 232.295838 227.049684 
L 232.360782 226.880684 
L 232.425726 226.955745 
L 232.49067 226.950789 
L 232.555614 226.722943 
L 232.620558 226.873592 
L 232.945277 226.650745 
L 233.010221 226.63295 
L 233.075165 226.477398 
L 233.140109 226.555458 
L 233.464828 226.330402 
L 233.854492 226.108376 
L 234.114267 225.911037 
L 234.244155 225.862 
L 236.192472 224.766676 
L 246.128888 218.755748 
L 246.713383 218.256639 
L 246.778327 218.360544 
L 246.973159 217.663475 
L 247.038103 218.067361 
L 247.103047 217.813734 
L 247.167991 218.12811 
L 247.232935 218.088281 
L 247.297878 217.754984 
L 247.362822 217.957669 
L 247.427766 217.742651 
L 247.557654 217.887943 
L 247.622598 217.597854 
L 247.687542 217.797055 
L 247.81743 217.650816 
L 247.882374 217.682449 
L 247.947317 217.461201 
L 248.012261 217.600242 
L 248.6617 217.114572 
L 248.726644 217.15155 
L 248.98642 216.90491 
L 249.116308 216.8693 
L 249.700803 216.497847 
L 249.960578 216.342527 
L 250.545073 215.96176 
L 251.129568 215.593369 
L 252.038783 215.001121 
L 253.792268 213.854666 
L 257.234295 211.556293 
L 261.975199 208.317307 
L 262.170031 207.8786 
L 262.234975 208.069152 
L 262.299919 207.538337 
L 262.364863 207.902719 
L 262.429807 207.515639 
L 262.494751 207.948158 
L 262.559694 207.868004 
L 262.754526 207.440473 
L 262.81947 207.734729 
L 262.884414 207.651197 
L 263.079246 207.339694 
L 263.14419 207.507463 
L 263.209133 207.453985 
L 263.403965 207.210986 
L 263.533853 207.238988 
L 263.598797 207.045543 
L 263.663741 207.150394 
L 263.923516 206.856685 
L 264.053404 206.85416 
L 264.248236 206.669533 
L 264.378124 206.639974 
L 264.572955 206.470637 
L 269.833411 202.725691 
L 276.717464 197.447378 
L 276.782408 197.551578 
L 276.97724 196.783773 
L 277.042184 197.175841 
L 277.107128 196.707187 
L 277.172072 197.238243 
L 277.237015 197.150418 
L 277.431847 196.667494 
L 277.496791 197.016501 
L 277.561735 196.933117 
L 277.756567 196.586024 
L 277.82151 196.764116 
L 277.886454 196.721477 
L 277.951398 196.466251 
L 278.016342 196.624202 
L 278.14623 196.46644 
L 278.211174 196.481677 
L 278.276118 196.256295 
L 278.341062 196.375879 
L 278.795669 195.923682 
L 278.860613 195.983348 
L 279.120388 195.704108 
L 279.250276 195.669508 
L 279.510052 195.455469 
L 279.769827 195.259929 
L 280.48421 194.700545 
L 280.743986 194.528114 
L 281.198593 194.170393 
L 289.31658 187.708752 
L 291.459729 185.981098 
L 291.654561 185.524587 
L 291.719505 185.733617 
L 291.784449 185.3112 
L 291.849392 185.611865 
L 291.914336 185.262983 
L 291.97928 185.54921 
L 292.044224 185.386566 
L 292.174112 185.392017 
L 292.368944 185.02512 
L 292.433888 185.178673 
L 292.498831 185.059573 
L 293.927597 183.865079 
L 294.057485 183.771361 
L 294.317261 183.597183 
L 294.577036 183.365129 
L 299.512772 179.159463 
L 300.616819 177.931738 
L 300.681763 178.13839 
L 300.746706 177.660411 
L 300.81165 177.988142 
L 300.876594 177.573723 
L 300.941538 177.94083 
L 301.006482 177.762969 
L 301.13637 177.792244 
L 301.331202 177.398661 
L 301.396145 177.564168 
L 301.461089 177.473206 
L 301.655921 177.147202 
L 301.720865 177.285117 
L 301.98064 176.914116 
L 302.045584 177.00312 
L 302.30536 176.675601 
L 302.370304 176.720029 
L 302.565136 176.520112 
L 302.889855 176.223656 
L 309.124469 170.674238 
L 311.46245 168.400858 
L 311.527393 168.498007 
L 311.722225 167.734391 
L 311.787169 168.084114 
L 311.852113 167.513659 
L 311.917057 168.070118 
L 311.982001 167.900066 
L 312.111889 167.961962 
L 312.176832 167.498043 
L 312.241776 167.814198 
L 312.30672 167.608619 
L 312.371664 167.688552 
L 312.436608 167.676809 
L 312.501552 167.323423 
L 312.566496 167.54687 
L 312.696384 167.368546 
L 312.761328 167.378775 
L 312.826271 167.097935 
L 312.891215 167.256644 
L 313.150991 166.862661 
L 313.215935 166.953075 
L 313.280879 166.872952 
L 313.47571 166.617305 
L 313.605598 166.592113 
L 313.80043 166.355997 
L 313.930318 166.299803 
L 314.125149 166.078925 
L 315.878635 164.482198 
L 316.528074 163.871692 
L 317.567176 162.886713 
L 319.515493 161.033392 
L 325.2955 155.388362 
L 325.490332 155.05417 
L 325.555275 155.137618 
L 325.750107 154.543087 
L 325.815051 154.798481 
L 325.879995 154.316546 
L 325.944939 154.684243 
L 326.009883 154.387472 
L 326.074827 154.625777 
L 326.13977 154.527028 
L 326.334602 154.084934 
L 326.399546 154.295121 
L 326.46449 154.096488 
L 326.529434 154.147209 
L 326.594378 154.100213 
L 326.789209 153.747691 
L 326.854153 153.84364 
L 327.243817 153.387508 
L 327.373705 153.320476 
L 327.568536 153.052243 
L 327.698424 152.978182 
L 328.088087 152.578705 
L 328.477751 152.192972 
L 329.257078 151.401428 
L 331.270338 149.35282 
L 335.686523 144.61132 
L 335.751467 144.692558 
L 335.946299 144.081316 
L 336.011243 144.331323 
L 336.076187 143.865004 
L 336.141131 144.219526 
L 336.206075 143.943527 
L 336.271019 144.152094 
L 336.725626 143.648545 
L 336.79057 143.595109 
L 336.985401 143.233305 
L 337.050345 143.324645 
L 337.310121 142.921254 
L 337.375065 142.985824 
L 337.63484 142.623831 
L 337.699784 142.643004 
L 337.894616 142.401773 
L 338.544055 141.685574 
L 338.738887 141.501694 
L 339.258438 140.963187 
L 339.777989 140.383787 
L 340.29754 139.840229 
L 341.271699 138.773718 
L 342.895296 136.996878 
L 346.012603 133.346535 
L 346.077547 133.44743 
L 346.272379 132.728179 
L 346.337323 133.045534 
L 346.402267 132.657128 
L 346.467211 133.010892 
L 346.532154 132.861822 
L 346.662042 132.817457 
L 346.726986 132.466134 
L 346.79193 132.642501 
L 346.856874 132.392073 
L 346.921818 132.525737 
L 347.701145 131.626163 
L 348.090808 131.197685 
L 348.415527 130.816203 
L 349.844293 129.186939 
L 350.363844 128.605351 
L 357.182954 120.252675 
L 357.377785 119.658922 
L 357.442729 119.781873 
L 357.507673 119.351291 
L 357.572617 119.599066 
L 357.637561 119.33479 
L 357.702505 119.56474 
L 357.767449 119.457658 
L 358.092168 118.923107 
L 358.157112 118.972061 
L 358.222056 118.884656 
L 358.416888 118.482128 
L 358.481832 118.538911 
L 358.936439 117.916261 
L 359.45599 117.226875 
L 359.78071 116.777961 
L 360.170373 116.218387 
L 360.560036 115.698443 
L 361.339363 114.603014 
L 368.418248 104.163531 
L 368.61308 103.45394 
L 368.678024 103.636599 
L 368.742968 103.406776 
L 368.807911 103.618942 
L 368.872855 103.524571 
L 369.197575 102.945256 
L 369.327463 102.866817 
L 369.522294 102.446968 
L 369.587238 102.474728 
L 371.145892 100.103083 
L 371.860275 99.015167 
L 380.173094 85.696808 
L 380.627701 84.470703 
L 380.692645 84.698738 
L 380.757589 84.617879 
L 380.822533 84.637094 
L 382.186354 82.367923 
L 382.770849 81.426657 
L 383.355345 80.443193 
L 384.394447 78.703879 
L 389.979622 69.022182 
L 393.356705 62.813263 
L 393.551536 62.035272 
L 393.61648 62.084457 
L 393.681424 61.934356 
L 393.746368 62.1348 
L 393.811312 62.087804 
L 394.200975 61.389136 
L 394.850414 60.231852 
L 398.487273 53.568 
L 398.487273 53.568 
" clip-path="url(#pba2b6e52dc)" style="fill: none; stroke: #008000; stroke-width: 1.5; stroke-linecap: square"/>
   </g>
   <g id="line2d_17">
    <path d="M 73.832727 169.99931 
L 74.287335 181.003481 
L 74.612054 184.373238 
L 74.741942 184.612806 
L 74.87183 184.390769 
L 75.131605 183.089446 
L 75.521269 181.217394 
L 75.651156 181.093938 
L 75.781044 181.293434 
L 76.170708 182.829842 
L 76.430483 183.427678 
L 76.690259 183.485134 
L 77.014978 183.498309 
L 77.20981 183.785841 
L 77.534529 184.444668 
L 77.729361 184.512037 
L 77.924193 184.945019 
L 78.119025 185.289144 
L 78.248912 185.125047 
L 78.313856 185.177894 
L 79.028239 186.972391 
L 79.352959 187.336825 
L 79.612734 188.087919 
L 79.677678 188.092507 
L 79.807566 188.486301 
L 80.002398 188.994628 
L 80.132285 189.134458 
L 80.457005 189.938356 
L 83.509368 197.204801 
L 88.769824 211.676067 
L 89.743982 214.773739 
L 89.808926 213.953003 
L 89.87387 215.529505 
L 89.938814 214.355879 
L 90.003758 215.072025 
L 90.068702 215.840882 
L 90.133646 214.954714 
L 90.263533 216.290911 
L 90.328477 215.626948 
L 90.393421 216.012366 
L 90.458365 216.760397 
L 90.523309 216.31342 
L 90.588253 216.416556 
L 90.653197 217.192769 
L 90.718141 216.983791 
L 90.783085 216.867511 
L 90.912972 217.608387 
L 90.977916 217.374649 
L 91.107804 218.172907 
L 91.172748 217.919512 
L 91.302636 218.680697 
L 91.36758 218.473793 
L 91.692299 219.586922 
L 91.757243 219.530245 
L 91.822187 219.619049 
L 91.952075 220.018546 
L 92.017019 220.072056 
L 92.146906 220.482118 
L 92.21185 220.524789 
L 92.406682 220.972556 
L 92.666458 221.69911 
L 92.796345 221.846664 
L 93.056121 222.510164 
L 93.186009 222.695233 
L 93.445784 223.270549 
L 93.510728 223.320797 
L 93.835448 223.976857 
L 95.459045 226.78122 
L 96.498148 228.35991 
L 96.563092 228.360552 
L 96.757923 228.835037 
L 96.822867 228.534845 
L 96.887811 229.185318 
L 96.952755 228.45185 
L 97.017699 229.593065 
L 97.082643 228.499835 
L 97.147587 229.565095 
L 97.212531 229.273059 
L 97.277474 229.036553 
L 97.342418 229.895519 
L 97.407362 229.202291 
L 97.472306 229.622288 
L 97.53725 229.974105 
L 97.602194 229.403229 
L 97.667138 230.059152 
L 97.732082 230.015345 
L 97.797026 229.73157 
L 97.861969 230.364542 
L 97.926913 230.094131 
L 97.991857 230.104738 
L 98.056801 230.581233 
L 98.121745 230.23394 
L 98.186689 230.472288 
L 98.251633 230.738563 
L 98.316577 230.435951 
L 98.446465 230.862946 
L 98.511408 230.694756 
L 98.576352 231.085645 
L 98.641296 230.982182 
L 98.70624 230.994105 
L 98.771184 231.303862 
L 98.836128 231.127022 
L 98.966016 231.464591 
L 99.03096 231.322908 
L 99.160847 231.59112 
L 99.225791 231.575209 
L 99.290735 231.820691 
L 99.355679 231.725163 
L 99.615455 232.120261 
L 99.745343 232.153809 
L 99.940174 232.415212 
L 100.394782 232.787434 
L 100.589613 233.023434 
L 100.979277 233.335306 
L 101.498828 233.80897 
L 102.408042 234.494894 
L 102.602874 234.737051 
L 102.667818 234.644553 
L 102.732762 234.876997 
L 102.797706 234.677154 
L 102.86265 235.056405 
L 102.927594 234.647931 
L 102.992537 235.293773 
L 103.057481 234.553918 
L 103.122425 235.51783 
L 103.187369 234.619435 
L 103.252313 235.44338 
L 103.317257 235.126246 
L 103.382201 235.06355 
L 103.447145 235.597932 
L 103.512089 234.973767 
L 103.577032 235.583915 
L 103.641976 235.408685 
L 103.70692 235.27641 
L 103.771864 235.769994 
L 103.836808 235.30939 
L 103.966696 235.715695 
L 104.03164 235.474991 
L 104.096584 235.925504 
L 104.161528 235.635583 
L 104.291415 235.972047 
L 104.356359 235.707708 
L 104.421303 236.062314 
L 104.486247 235.927724 
L 104.551191 235.943709 
L 104.616135 236.177826 
L 104.681079 235.954085 
L 104.746023 236.206154 
L 104.810967 236.173848 
L 104.87591 236.129757 
L 104.940854 236.356613 
L 105.005798 236.188707 
L 105.135686 236.382068 
L 105.20063 236.331641 
L 105.265574 236.526781 
L 105.330518 236.402525 
L 105.460406 236.564969 
L 105.525349 236.537188 
L 105.720181 236.736158 
L 105.850069 236.742967 
L 106.044901 236.92168 
L 106.174788 236.948598 
L 106.564452 237.140738 
L 107.278835 237.522925 
L 107.473666 237.584327 
L 107.668498 237.724694 
L 107.86333 237.763787 
L 108.058161 237.91292 
L 108.123105 237.871828 
L 108.317937 238.061779 
L 108.382881 237.94329 
L 108.447825 238.157602 
L 108.512769 237.945636 
L 108.577713 238.281985 
L 108.642657 237.905038 
L 108.7076 238.442167 
L 108.772544 237.82501 
L 108.837488 238.592815 
L 108.902432 237.835923 
L 108.967376 238.574084 
L 109.03232 238.140323 
L 109.162208 238.528887 
L 109.227152 238.111732 
L 109.292096 238.671033 
L 109.357039 238.250794 
L 109.421983 238.514944 
L 109.486927 238.585817 
L 109.551871 238.327897 
L 109.616815 238.747483 
L 109.681759 238.415617 
L 109.746703 238.647903 
L 109.811647 238.68567 
L 109.876591 238.507189 
L 109.941534 238.832204 
L 110.006478 238.575262 
L 110.071422 238.771654 
L 110.136366 238.791111 
L 110.20131 238.671359 
L 110.266254 238.923397 
L 110.331198 238.721722 
L 110.461086 238.892048 
L 110.52603 238.828626 
L 110.590973 239.016905 
L 110.655917 238.858196 
L 110.720861 239.025607 
L 110.785805 238.987472 
L 110.850749 238.982747 
L 111.045581 239.149179 
L 111.175469 239.13451 
L 111.3703 239.259714 
L 111.435244 239.180359 
L 111.630076 239.279129 
L 111.824908 239.401333 
L 111.954795 239.425357 
L 112.214571 239.464524 
L 112.409403 239.579204 
L 112.604234 239.617045 
L 114.227832 240.070073 
L 114.422663 240.199696 
L 114.487607 240.08892 
L 114.552551 240.278345 
L 114.617495 240.056298 
L 114.682439 240.393415 
L 114.747383 239.963527 
L 114.812327 240.550061 
L 114.877271 239.827243 
L 114.942215 240.661069 
L 115.007159 239.904566 
L 115.072102 240.505949 
L 115.137046 240.343662 
L 115.20199 240.140756 
L 115.266934 240.637855 
L 115.331878 240.095644 
L 115.396822 240.524659 
L 115.461766 240.46192 
L 115.52671 240.232202 
L 115.591654 240.662868 
L 115.656598 240.294298 
L 115.721541 240.500045 
L 115.786485 240.603382 
L 115.851429 240.320764 
L 115.916373 240.672781 
L 115.981317 240.485071 
L 116.046261 240.494131 
L 116.111205 240.702141 
L 116.176149 240.446188 
L 116.241093 240.67054 
L 116.306036 240.641244 
L 116.37098 240.533803 
L 116.435924 240.758586 
L 116.500868 240.58525 
L 116.630756 240.753177 
L 116.6957 240.612621 
L 116.760644 240.795785 
L 116.825588 240.710538 
L 117.215251 240.779569 
L 117.280195 240.893902 
L 117.345139 240.802857 
L 117.475027 240.895375 
L 117.539971 240.851505 
L 117.604914 240.950979 
L 117.669858 240.888725 
L 117.929634 241.008414 
L 118.059522 241.003595 
L 118.579073 241.12683 
L 118.838848 241.143793 
L 119.098624 241.204469 
L 122.086043 241.713964 
L 123.319977 241.944545 
L 123.384921 241.833737 
L 123.449865 241.99916 
L 123.514809 241.793929 
L 123.579753 242.078009 
L 123.644697 241.710776 
L 123.709641 242.175074 
L 123.774585 241.613216 
L 123.839529 242.227184 
L 123.904473 241.688951 
L 123.969416 242.114082 
L 124.03436 241.992225 
L 124.099304 241.862486 
L 124.164248 242.191848 
L 124.229192 241.791635 
L 124.294136 242.149429 
L 124.35908 242.013787 
L 124.424024 241.946618 
L 124.488968 242.192889 
L 124.553912 241.89475 
L 124.618855 242.150692 
L 124.683799 242.078662 
L 124.748743 241.992551 
L 124.813687 242.20698 
L 124.878631 241.985206 
L 124.943575 242.152291 
L 125.398182 242.086417 
L 125.463126 242.238033 
L 125.52807 242.130582 
L 125.657958 242.228415 
L 125.722902 242.137675 
L 125.787846 242.256933 
L 125.852789 242.184787 
L 126.307397 242.289617 
L 126.437285 242.30637 
L 126.69706 242.27619 
L 126.891892 242.323859 
L 127.411443 242.391628 
L 127.671219 242.395048 
L 128.125826 242.435972 
L 128.645377 242.496059 
L 129.294816 242.543076 
L 132.152348 242.751853 
L 132.606955 242.740151 
L 132.801787 242.848865 
L 132.86673 242.686705 
L 132.931674 242.897061 
L 132.996618 242.618505 
L 133.061562 242.952991 
L 133.126506 242.540129 
L 133.19145 242.981235 
L 133.256394 242.582295 
L 133.321338 242.917644 
L 133.386282 242.791062 
L 133.451226 242.744013 
L 133.516169 242.938374 
L 133.581113 242.650937 
L 133.646057 242.936343 
L 133.711001 242.774362 
L 133.840889 242.91898 
L 133.905833 242.714949 
L 133.970777 242.931945 
L 134.035721 242.799975 
L 134.165608 242.91595 
L 134.230552 242.762534 
L 134.295496 242.927388 
L 134.36044 242.829071 
L 134.815047 242.922705 
L 134.879991 242.830986 
L 134.944935 242.927209 
L 135.074823 242.881929 
L 135.269655 242.932197 
L 135.52943 242.883002 
L 135.724262 242.922306 
L 136.113925 242.951191 
L 136.438645 242.960178 
L 137.088084 242.981056 
L 137.932354 243.026158 
L 139.491008 243.078152 
L 142.283596 243.167819 
L 142.608315 243.132914 
L 142.673259 243.206354 
L 142.738203 243.110205 
L 142.803147 243.23221 
L 142.868091 243.066871 
L 142.933035 243.263958 
L 142.997979 243.00105 
L 143.062922 243.28835 
L 143.127866 242.970017 
L 143.19281 243.283289 
L 143.257754 243.078899 
L 143.387642 243.225685 
L 143.452586 243.079289 
L 143.51753 243.27466 
L 143.582474 243.079246 
L 143.647417 243.237134 
L 143.712361 243.196052 
L 143.777305 243.136755 
L 143.842249 243.262074 
L 143.907193 243.109469 
L 143.972137 243.241586 
L 144.037081 243.193064 
L 144.231913 243.137555 
L 144.296856 243.241533 
L 144.3618 243.197136 
L 144.751464 243.197894 
L 144.946295 243.242049 
L 145.206071 243.19259 
L 145.400903 243.221445 
L 145.790566 243.239165 
L 146.115286 243.239218 
L 146.764725 243.24289 
L 147.933715 243.270114 
L 149.102705 243.300631 
L 154.038441 243.53319 
L 154.103385 243.32596 
L 154.168329 243.545418 
L 154.233273 243.283383 
L 154.298217 243.552026 
L 154.363161 243.398432 
L 154.493048 243.534284 
L 154.557992 243.38592 
L 154.622936 243.559898 
L 154.68788 243.422203 
L 154.817768 243.536021 
L 154.882712 243.432947 
L 154.947656 243.563854 
L 155.0126 243.464001 
L 155.142487 243.550164 
L 155.207431 243.460918 
L 155.272375 243.566706 
L 155.337319 243.502968 
L 155.791926 243.574283 
L 155.921814 243.569652 
L 156.376421 243.552321 
L 156.636197 243.589815 
L 156.895973 243.591719 
L 157.610356 243.629066 
L 158.129907 243.644229 
L 167.741604 244.094427 
L 168.780706 244.146495 
L 168.84565 243.980125 
L 168.910594 244.167099 
L 168.975538 244.085493 
L 169.105425 244.175591 
L 169.170369 244.066088 
L 169.235313 244.189881 
L 169.300257 244.107002 
L 169.430145 244.19146 
L 169.495089 244.104392 
L 169.560033 244.203498 
L 169.624977 244.149452 
L 169.949696 244.184325 
L 170.664079 244.203772 
L 170.923855 244.237119 
L 171.313518 244.233878 
L 171.703181 244.264742 
L 174.885432 244.370531 
L 180.405664 244.511992 
L 180.925215 244.438099 
L 181.120047 244.374014 
L 181.314878 244.499733 
L 181.444766 244.461734 
L 181.639598 244.491472 
L 181.964317 244.509919 
L 182.483868 244.535564 
L 183.393083 244.55801 
L 186.055783 244.571668 
L 191.965677 244.4369 
L 192.809948 244.329722 
L 193.00478 244.154282 
L 193.199612 244.364154 
L 193.394443 244.298395 
L 193.589275 244.300973 
L 193.719163 244.318168 
L 194.108826 244.291124 
L 194.368602 244.266731 
L 195.66748 244.175938 
L 197.550853 244.002971 
L 201.382543 243.600611 
L 204.49985 243.150235 
L 204.694681 242.983697 
L 204.889513 243.175143 
L 205.084345 243.118824 
L 205.279177 243.109321 
L 205.409064 243.122349 
L 205.993559 243.062788 
L 208.33154 242.80932 
L 213.981659 242.10941 
L 216.449527 241.735757 
L 216.774246 241.470197 
L 216.904134 241.71026 
L 217.098966 241.560633 
L 217.228854 241.650878 
L 217.293798 241.543901 
L 217.358742 241.588834 
L 217.553573 241.578027 
L 217.813349 241.528022 
L 218.073124 241.524896 
L 218.527732 241.463347 
L 220.281217 241.219875 
L 229.763026 239.689286 
L 231.386624 239.369522 
L 231.711343 239.033047 
L 231.841231 239.323767 
L 232.036062 239.122314 
L 232.16595 239.27232 
L 232.295838 239.173172 
L 232.815389 239.125545 
L 233.464828 239.034667 
L 246.778327 236.418383 
L 246.973159 236.043909 
L 247.232935 236.388087 
L 247.362822 236.233998 
L 247.882374 236.230178 
L 248.012261 236.232819 
L 248.921476 236.047729 
L 249.246195 235.981571 
L 249.830691 235.854515 
L 250.545073 235.712307 
L 253.142829 235.167244 
L 260.871153 233.495688 
L 262.105087 233.172409 
L 262.299919 232.818687 
L 262.364863 232.877164 
L 262.429807 232.847078 
L 262.559694 233.127571 
L 262.754526 232.897621 
L 262.884414 233.061075 
L 263.079246 232.91612 
L 263.209133 232.988561 
L 263.403965 232.903187 
L 263.533853 232.904839 
L 263.728685 232.860632 
L 265.092507 232.569964 
L 266.001721 232.379392 
L 269.703523 231.566433 
L 276.782408 229.904705 
L 277.107128 229.515973 
L 277.237015 229.863234 
L 277.431847 229.607892 
L 277.561735 229.799064 
L 277.756567 229.64809 
L 277.886454 229.711239 
L 278.016342 229.634179 
L 278.211174 229.61268 
L 278.406006 229.590992 
L 278.795669 229.475312 
L 279.185332 229.42034 
L 284.835451 228.128245 
L 291.589617 226.469117 
L 291.849392 226.310587 
L 291.97928 226.386385 
L 292.174112 226.391036 
L 292.368944 226.288215 
L 292.563775 226.30764 
L 293.14827 226.14346 
L 293.667822 226.04972 
L 299.188053 224.73599 
L 300.551875 224.334094 
L 300.876594 224.11372 
L 301.071426 224.296116 
L 301.331202 224.154812 
L 301.526033 224.160032 
L 301.785809 224.109342 
L 304.318621 223.509949 
L 308.604918 222.402587 
L 311.46245 221.507727 
L 311.852113 221.043113 
L 311.917057 221.140399 
L 312.046945 221.364708 
L 312.241776 221.116132 
L 312.371664 221.259457 
L 312.566496 221.083721 
L 312.696384 221.141725 
L 312.891215 221.02434 
L 313.021103 221.026139 
L 313.215935 220.951089 
L 313.670542 220.820782 
L 314.125149 220.678636 
L 325.750107 216.787799 
L 325.815051 216.635573 
L 325.879995 216.689398 
L 325.944939 216.629048 
L 326.13977 216.840499 
L 326.854153 216.595732 
L 327.113929 216.537024 
L 327.503592 216.417546 
L 327.763368 216.378789 
L 328.153031 216.256364 
L 328.997302 216.029024 
L 329.97146 215.748153 
L 331.660002 215.274131 
L 335.816411 214.036367 
L 336.011243 213.723927 
L 336.206075 213.926412 
L 336.400906 213.932715 
L 336.595738 213.75778 
L 336.725626 213.836177 
L 337.115289 213.729694 
L 340.687204 212.747272 
L 342.895296 212.132978 
L 346.012603 211.259469 
L 346.207435 210.928593 
L 346.272379 211.019722 
L 346.337323 210.821405 
L 346.532154 211.188586 
L 346.597098 211.178305 
L 346.79193 210.930276 
L 346.921818 211.048924 
L 347.051706 211.049566 
L 347.11665 210.922447 
L 347.181593 210.995319 
L 347.311481 210.995961 
L 355.689244 209.112208 
L 357.247898 208.707881 
L 357.442729 208.287085 
L 357.507673 208.48838 
L 357.572617 208.238384 
L 357.637561 208.554802 
L 357.702505 208.49079 
L 357.832393 208.609353 
L 358.027224 208.334428 
L 358.092168 208.519444 
L 358.157112 208.469681 
L 360.235317 207.921324 
L 360.495092 207.871266 
L 361.209475 207.67238 
L 362.248578 207.371568 
L 365.560717 206.405288 
L 368.223416 205.637779 
L 368.418248 205.290591 
L 368.483192 205.472451 
L 368.548136 205.055864 
L 368.61308 205.345153 
L 368.678024 204.976773 
L 368.742968 205.401157 
L 368.807911 205.278153 
L 368.937799 205.447069 
L 369.132631 205.107659 
L 369.197575 205.352614 
L 369.262519 205.28472 
L 369.45735 205.065987 
L 369.522294 205.244027 
L 369.587238 205.140554 
L 369.717126 205.196115 
L 369.78207 205.045699 
L 369.847014 205.162284 
L 369.911958 205.045762 
L 369.976902 205.118361 
L 377.900057 202.674465 
L 380.238037 201.916268 
L 380.432869 201.391178 
L 380.497813 201.68213 
L 380.562757 201.150242 
L 380.757589 201.7632 
L 380.887476 201.559831 
L 380.95242 201.666945 
L 381.017364 201.298796 
L 381.082308 201.623348 
L 381.147252 201.481161 
L 381.27714 201.573479 
L 381.342084 201.30631 
L 381.407028 201.514298 
L 381.471971 201.345003 
L 381.536915 201.467365 
L 381.601859 201.457747 
L 381.666803 201.289788 
L 381.731747 201.428177 
L 381.796691 201.26689 
L 381.861635 201.380729 
L 382.770849 201.000794 
L 382.900737 200.997195 
L 383.809952 200.729404 
L 384.069727 200.625363 
L 384.589279 200.469748 
L 384.978942 200.323382 
L 385.498493 200.165284 
L 386.602539 199.796261 
L 390.823893 198.387003 
L 393.161873 197.64839 
L 393.226817 197.418777 
L 393.291761 197.60413 
L 393.356705 197.207558 
L 393.421649 197.501004 
L 393.486593 196.877197 
L 393.551536 197.337139 
L 393.61648 196.704598 
L 393.681424 197.383356 
L 393.746368 197.142589 
L 393.876256 197.443548 
L 393.9412 197.029129 
L 394.006144 197.337665 
L 394.071088 196.978618 
L 394.136032 197.337833 
L 394.200975 197.269181 
L 394.265919 197.072358 
L 394.330863 197.251144 
L 394.395807 196.931706 
L 394.460751 197.218481 
L 394.525695 197.134844 
L 394.590639 197.036621 
L 394.655583 197.165592 
L 394.720527 196.912639 
L 394.785471 197.126636 
L 394.850414 197.043609 
L 394.915358 196.97744 
L 394.980302 197.071895 
L 395.045246 196.8676 
L 395.11019 197.019637 
L 395.369966 196.788214 
L 395.43491 196.898917 
L 395.499853 196.826181 
L 395.889517 196.699442 
L 395.954461 196.730884 
L 396.149292 196.623234 
L 398.357385 195.921682 
L 398.487273 195.884978 
L 398.487273 195.884978 
" clip-path="url(#pba2b6e52dc)" style="fill: none; stroke: #ff0000; stroke-width: 1.5; stroke-linecap: square"/>
   </g>
   <g id="patch_3">
    <path d="M 57.6 307.584 
L 57.6 41.472 
" style="fill: none; stroke: #000000; stroke-width: 0.8; stroke-linejoin: miter; stroke-linecap: square"/>
   </g>
   <g id="patch_4">
    <path d="M 414.72 307.584 
L 414.72 41.472 
" style="fill: none; stroke: #000000; stroke-width: 0.8; stroke-linejoin: miter; stroke-linecap: square"/>
   </g>
   <g id="patch_5">
    <path d="M 57.6 307.584 
L 414.72 307.584 
" style="fill: none; stroke: #000000; stroke-width: 0.8; stroke-linejoin: miter; stroke-linecap: square"/>
   </g>
   <g id="patch_6">
    <path d="M 57.6 41.472 
L 414.72 41.472 
" style="fill: none; stroke: #000000; stroke-width: 0.8; stroke-linejoin: miter; stroke-linecap: square"/>
   </g>
   <g id="text_17">
    <!-- Script19_loss -->
    <g transform="translate(196.532813 35.472) scale(0.12 -0.12)">
     <defs>
      <path id="DejaVuSans-53" d="M 3425 4513 
L 3425 3897 
Q 3066 4069 2747 4153 
Q 2428 4238 2131 4238 
Q 1616 4238 1336 4038 
Q 1056 3838 1056 3469 
Q 1056 3159 1242 3001 
Q 1428 2844 1947 2747 
L 2328 2669 
Q 3034 2534 3370 2195 
Q 3706 1856 3706 1288 
Q 3706 609 3251 259 
Q 2797 -91 1919 -91 
Q 1588 -91 1214 -16 
Q 841 59 441 206 
L 441 856 
Q 825 641 1194 531 
Q 1563 422 1919 422 
Q 2459 422 2753 634 
Q 3047 847 3047 1241 
Q 3047 1584 2836 1778 
Q 2625 1972 2144 2069 
L 1759 2144 
Q 1053 2284 737 2584 
Q 422 2884 422 3419 
Q 422 4038 858 4394 
Q 1294 4750 2059 4750 
Q 2388 4750 2728 4690 
Q 3069 4631 3425 4513 
z
" transform="scale(0.015625)"/>
      <path id="DejaVuSans-72" d="M 2631 2963 
Q 2534 3019 2420 3045 
Q 2306 3072 2169 3072 
Q 1681 3072 1420 2755 
Q 1159 2438 1159 1844 
L 1159 0 
L 581 0 
L 581 3500 
L 1159 3500 
L 1159 2956 
Q 1341 3275 1631 3429 
Q 1922 3584 2338 3584 
Q 2397 3584 2469 3576 
Q 2541 3569 2628 3553 
L 2631 2963 
z
" transform="scale(0.015625)"/>
      <path id="DejaVuSans-69" d="M 603 3500 
L 1178 3500 
L 1178 0 
L 603 0 
L 603 3500 
z
M 603 4863 
L 1178 4863 
L 1178 4134 
L 603 4134 
L 603 4863 
z
" transform="scale(0.015625)"/>
      <path id="DejaVuSans-74" d="M 1172 4494 
L 1172 3500 
L 2356 3500 
L 2356 3053 
L 1172 3053 
L 1172 1153 
Q 1172 725 1289 603 
Q 1406 481 1766 481 
L 2356 481 
L 2356 0 
L 1766 0 
Q 1100 0 847 248 
Q 594 497 594 1153 
L 594 3053 
L 172 3053 
L 172 3500 
L 594 3500 
L 594 4494 
L 1172 4494 
z
" transform="scale(0.015625)"/>
      <path id="DejaVuSans-39" d="M 703 97 
L 703 672 
Q 941 559 1184 500 
Q 1428 441 1663 441 
Q 2288 441 2617 861 
Q 2947 1281 2994 2138 
Q 2813 1869 2534 1725 
Q 2256 1581 1919 1581 
Q 1219 1581 811 2004 
Q 403 2428 403 3163 
Q 403 3881 828 4315 
Q 1253 4750 1959 4750 
Q 2769 4750 3195 4129 
Q 3622 3509 3622 2328 
Q 3622 1225 3098 567 
Q 2575 -91 1691 -91 
Q 1453 -91 1209 -44 
Q 966 3 703 97 
z
M 1959 2075 
Q 2384 2075 2632 2365 
Q 2881 2656 2881 3163 
Q 2881 3666 2632 3958 
Q 2384 4250 1959 4250 
Q 1534 4250 1286 3958 
Q 1038 3666 1038 3163 
Q 1038 2656 1286 2365 
Q 1534 2075 1959 2075 
z
" transform="scale(0.015625)"/>
      <path id="DejaVuSans-5f" d="M 3263 -1063 
L 3263 -1509 
L -63 -1509 
L -63 -1063 
L 3263 -1063 
z
" transform="scale(0.015625)"/>
     </defs>
     <use xlink:href="#DejaVuSans-53"/>
     <use xlink:href="#DejaVuSans-63" x="63.476562"/>
     <use xlink:href="#DejaVuSans-72" x="118.457031"/>
     <use xlink:href="#DejaVuSans-69" x="159.570312"/>
     <use xlink:href="#DejaVuSans-70" x="187.353516"/>
     <use xlink:href="#DejaVuSans-74" x="250.830078"/>
     <use xlink:href="#DejaVuSans-31" x="290.039062"/>
     <use xlink:href="#DejaVuSans-39" x="353.662109"/>
     <use xlink:href="#DejaVuSans-5f" x="417.285156"/>
     <use xlink:href="#DejaVuSans-6c" x="467.285156"/>
     <use xlink:href="#DejaVuSans-6f" x="495.068359"/>
     <use xlink:href="#DejaVuSans-73" x="556.25"/>
     <use xlink:href="#DejaVuSans-73" x="608.349609"/>
    </g>
   </g>
   <g id="legend_1">
    <g id="patch_7">
     <path d="M 64.6 93.506375 
L 164.295312 93.506375 
Q 166.295312 93.506375 166.295312 91.506375 
L 166.295312 48.472 
Q 166.295312 46.472 164.295312 46.472 
L 64.6 46.472 
Q 62.6 46.472 62.6 48.472 
L 62.6 91.506375 
Q 62.6 93.506375 64.6 93.506375 
z
" style="fill: #ffffff; opacity: 0.8; stroke: #cccccc; stroke-linejoin: miter"/>
    </g>
    <g id="line2d_18">
     <path d="M 66.6 54.570438 
L 76.6 54.570438 
L 86.6 54.570438 
" style="fill: none; stroke: #0000ff; stroke-width: 1.5; stroke-linecap: square"/>
    </g>
    <g id="text_18">
     <!-- training set -->
     <g transform="translate(94.6 58.070438) scale(0.1 -0.1)">
      <defs>
       <path id="DejaVuSans-61" d="M 2194 1759 
Q 1497 1759 1228 1600 
Q 959 1441 959 1056 
Q 959 750 1161 570 
Q 1363 391 1709 391 
Q 2188 391 2477 730 
Q 2766 1069 2766 1631 
L 2766 1759 
L 2194 1759 
z
M 3341 1997 
L 3341 0 
L 2766 0 
L 2766 531 
Q 2569 213 2275 61 
Q 1981 -91 1556 -91 
Q 1019 -91 701 211 
Q 384 513 384 1019 
Q 384 1609 779 1909 
Q 1175 2209 1959 2209 
L 2766 2209 
L 2766 2266 
Q 2766 2663 2505 2880 
Q 2244 3097 1772 3097 
Q 1472 3097 1187 3025 
Q 903 2953 641 2809 
L 641 3341 
Q 956 3463 1253 3523 
Q 1550 3584 1831 3584 
Q 2591 3584 2966 3190 
Q 3341 2797 3341 1997 
z
" transform="scale(0.015625)"/>
       <path id="DejaVuSans-6e" d="M 3513 2113 
L 3513 0 
L 2938 0 
L 2938 2094 
Q 2938 2591 2744 2837 
Q 2550 3084 2163 3084 
Q 1697 3084 1428 2787 
Q 1159 2491 1159 1978 
L 1159 0 
L 581 0 
L 581 3500 
L 1159 3500 
L 1159 2956 
Q 1366 3272 1645 3428 
Q 1925 3584 2291 3584 
Q 2894 3584 3203 3211 
Q 3513 2838 3513 2113 
z
" transform="scale(0.015625)"/>
       <path id="DejaVuSans-67" d="M 2906 1791 
Q 2906 2416 2648 2759 
Q 2391 3103 1925 3103 
Q 1463 3103 1205 2759 
Q 947 2416 947 1791 
Q 947 1169 1205 825 
Q 1463 481 1925 481 
Q 2391 481 2648 825 
Q 2906 1169 2906 1791 
z
M 3481 434 
Q 3481 -459 3084 -895 
Q 2688 -1331 1869 -1331 
Q 1566 -1331 1297 -1286 
Q 1028 -1241 775 -1147 
L 775 -588 
Q 1028 -725 1275 -790 
Q 1522 -856 1778 -856 
Q 2344 -856 2625 -561 
Q 2906 -266 2906 331 
L 2906 616 
Q 2728 306 2450 153 
Q 2172 0 1784 0 
Q 1141 0 747 490 
Q 353 981 353 1791 
Q 353 2603 747 3093 
Q 1141 3584 1784 3584 
Q 2172 3584 2450 3431 
Q 2728 3278 2906 2969 
L 2906 3500 
L 3481 3500 
L 3481 434 
z
" transform="scale(0.015625)"/>
       <path id="DejaVuSans-20" transform="scale(0.015625)"/>
      </defs>
      <use xlink:href="#DejaVuSans-74"/>
      <use xlink:href="#DejaVuSans-72" x="39.208984"/>
      <use xlink:href="#DejaVuSans-61" x="80.322266"/>
      <use xlink:href="#DejaVuSans-69" x="141.601562"/>
      <use xlink:href="#DejaVuSans-6e" x="169.384766"/>
      <use xlink:href="#DejaVuSans-69" x="232.763672"/>
      <use xlink:href="#DejaVuSans-6e" x="260.546875"/>
      <use xlink:href="#DejaVuSans-67" x="323.925781"/>
      <use xlink:href="#DejaVuSans-20" x="387.402344"/>
      <use xlink:href="#DejaVuSans-73" x="419.189453"/>
      <use xlink:href="#DejaVuSans-65" x="471.289062"/>
      <use xlink:href="#DejaVuSans-74" x="532.8125"/>
     </g>
    </g>
    <g id="line2d_19">
     <path d="M 66.6 69.248563 
L 76.6 69.248563 
L 86.6 69.248563 
" style="fill: none; stroke: #008000; stroke-width: 1.5; stroke-linecap: square"/>
    </g>
    <g id="text_19">
     <!-- validation set -->
     <g transform="translate(94.6 72.748563) scale(0.1 -0.1)">
      <defs>
       <path id="DejaVuSans-76" d="M 191 3500 
L 800 3500 
L 1894 563 
L 2988 3500 
L 3597 3500 
L 2284 0 
L 1503 0 
L 191 3500 
z
" transform="scale(0.015625)"/>
       <path id="DejaVuSans-64" d="M 2906 2969 
L 2906 4863 
L 3481 4863 
L 3481 0 
L 2906 0 
L 2906 525 
Q 2725 213 2448 61 
Q 2172 -91 1784 -91 
Q 1150 -91 751 415 
Q 353 922 353 1747 
Q 353 2572 751 3078 
Q 1150 3584 1784 3584 
Q 2172 3584 2448 3432 
Q 2725 3281 2906 2969 
z
M 947 1747 
Q 947 1113 1208 752 
Q 1469 391 1925 391 
Q 2381 391 2643 752 
Q 2906 1113 2906 1747 
Q 2906 2381 2643 2742 
Q 2381 3103 1925 3103 
Q 1469 3103 1208 2742 
Q 947 2381 947 1747 
z
" transform="scale(0.015625)"/>
      </defs>
      <use xlink:href="#DejaVuSans-76"/>
      <use xlink:href="#DejaVuSans-61" x="59.179688"/>
      <use xlink:href="#DejaVuSans-6c" x="120.458984"/>
      <use xlink:href="#DejaVuSans-69" x="148.242188"/>
      <use xlink:href="#DejaVuSans-64" x="176.025391"/>
      <use xlink:href="#DejaVuSans-61" x="239.501953"/>
      <use xlink:href="#DejaVuSans-74" x="300.78125"/>
      <use xlink:href="#DejaVuSans-69" x="339.990234"/>
      <use xlink:href="#DejaVuSans-6f" x="367.773438"/>
      <use xlink:href="#DejaVuSans-6e" x="428.955078"/>
      <use xlink:href="#DejaVuSans-20" x="492.333984"/>
      <use xlink:href="#DejaVuSans-73" x="524.121094"/>
      <use xlink:href="#DejaVuSans-65" x="576.220703"/>
      <use xlink:href="#DejaVuSans-74" x="637.744141"/>
     </g>
    </g>
    <g id="line2d_20">
     <path d="M 66.6 83.926688 
L 76.6 83.926688 
L 86.6 83.926688 
" style="fill: none; stroke: #ff0000; stroke-width: 1.5; stroke-linecap: square"/>
    </g>
    <g id="text_20">
     <!-- test set -->
     <g transform="translate(94.6 87.426688) scale(0.1 -0.1)">
      <use xlink:href="#DejaVuSans-74"/>
      <use xlink:href="#DejaVuSans-65" x="39.208984"/>
      <use xlink:href="#DejaVuSans-73" x="100.732422"/>
      <use xlink:href="#DejaVuSans-74" x="152.832031"/>
      <use xlink:href="#DejaVuSans-20" x="192.041016"/>
      <use xlink:href="#DejaVuSans-73" x="223.828125"/>
      <use xlink:href="#DejaVuSans-65" x="275.927734"/>
      <use xlink:href="#DejaVuSans-74" x="337.451172"/>
     </g>
    </g>
   </g>
  </g>
 </g>
 <defs>
  <clipPath id="pba2b6e52dc">
   <rect x="57.6" y="41.472" width="357.12" height="266.112"/>
  </clipPath>
 </defs>
</svg>
