<?xml version="1.0" encoding="utf-8" standalone="no"?>
<!DOCTYPE svg PUBLIC "-//W3C//DTD SVG 1.1//EN"
  "http://www.w3.org/Graphics/SVG/1.1/DTD/svg11.dtd">
<svg xmlns:xlink="http://www.w3.org/1999/xlink" width="460.8pt" height="345.6pt" viewBox="0 0 460.8 345.6" xmlns="http://www.w3.org/2000/svg" version="1.1">
 <metadata>
  <rdf:RDF xmlns:dc="http://purl.org/dc/elements/1.1/" xmlns:cc="http://creativecommons.org/ns#" xmlns:rdf="http://www.w3.org/1999/02/22-rdf-syntax-ns#">
   <cc:Work>
    <dc:type rdf:resource="http://purl.org/dc/dcmitype/StillImage"/>
    <dc:date>2023-06-14T03:54:59.295195</dc:date>
    <dc:format>image/svg+xml</dc:format>
    <dc:creator>
     <cc:Agent>
      <dc:title>Matplotlib v3.7.1, https://matplotlib.org/</dc:title>
     </cc:Agent>
    </dc:creator>
   </cc:Work>
  </rdf:RDF>
 </metadata>
 <defs>
  <style type="text/css">*{stroke-linejoin: round; stroke-linecap: butt}</style>
 </defs>
 <g id="figure_1">
  <g id="patch_1">
   <path d="M 0 345.6 
L 460.8 345.6 
L 460.8 0 
L 0 0 
z
" style="fill: #ffffff"/>
  </g>
  <g id="axes_1">
   <g id="patch_2">
    <path d="M 57.6 307.584 
L 414.72 307.584 
L 414.72 41.472 
L 57.6 41.472 
z
" style="fill: #ffffff"/>
   </g>
   <g id="matplotlib.axis_1">
    <g id="xtick_1">
     <g id="line2d_1">
      <defs>
       <path id="m4153fde76f" d="M 0 0 
L 0 3.5 
" style="stroke: #000000; stroke-width: 0.8"/>
      </defs>
      <g>
       <use xlink:href="#m4153fde76f" x="73.767783" y="307.584" style="stroke: #000000; stroke-width: 0.8"/>
      </g>
     </g>
     <g id="text_1">
      <!-- 0 -->
      <g transform="translate(70.586533 322.182437) scale(0.1 -0.1)">
       <defs>
        <path id="DejaVuSans-30" d="M 2034 4250 
Q 1547 4250 1301 3770 
Q 1056 3291 1056 2328 
Q 1056 1369 1301 889 
Q 1547 409 2034 409 
Q 2525 409 2770 889 
Q 3016 1369 3016 2328 
Q 3016 3291 2770 3770 
Q 2525 4250 2034 4250 
z
M 2034 4750 
Q 2819 4750 3233 4129 
Q 3647 3509 3647 2328 
Q 3647 1150 3233 529 
Q 2819 -91 2034 -91 
Q 1250 -91 836 529 
Q 422 1150 422 2328 
Q 422 3509 836 4129 
Q 1250 4750 2034 4750 
z
" transform="scale(0.015625)"/>
       </defs>
       <use xlink:href="#DejaVuSans-30"/>
      </g>
     </g>
    </g>
    <g id="xtick_2">
     <g id="line2d_2">
      <g>
       <use xlink:href="#m4153fde76f" x="138.711681" y="307.584" style="stroke: #000000; stroke-width: 0.8"/>
      </g>
     </g>
     <g id="text_2">
      <!-- 1000 -->
      <g transform="translate(125.986681 322.182437) scale(0.1 -0.1)">
       <defs>
        <path id="DejaVuSans-31" d="M 794 531 
L 1825 531 
L 1825 4091 
L 703 3866 
L 703 4441 
L 1819 4666 
L 2450 4666 
L 2450 531 
L 3481 531 
L 3481 0 
L 794 0 
L 794 531 
z
" transform="scale(0.015625)"/>
       </defs>
       <use xlink:href="#DejaVuSans-31"/>
       <use xlink:href="#DejaVuSans-30" x="63.623047"/>
       <use xlink:href="#DejaVuSans-30" x="127.246094"/>
       <use xlink:href="#DejaVuSans-30" x="190.869141"/>
      </g>
     </g>
    </g>
    <g id="xtick_3">
     <g id="line2d_3">
      <g>
       <use xlink:href="#m4153fde76f" x="203.655579" y="307.584" style="stroke: #000000; stroke-width: 0.8"/>
      </g>
     </g>
     <g id="text_3">
      <!-- 2000 -->
      <g transform="translate(190.930579 322.182437) scale(0.1 -0.1)">
       <defs>
        <path id="DejaVuSans-32" d="M 1228 531 
L 3431 531 
L 3431 0 
L 469 0 
L 469 531 
Q 828 903 1448 1529 
Q 2069 2156 2228 2338 
Q 2531 2678 2651 2914 
Q 2772 3150 2772 3378 
Q 2772 3750 2511 3984 
Q 2250 4219 1831 4219 
Q 1534 4219 1204 4116 
Q 875 4013 500 3803 
L 500 4441 
Q 881 4594 1212 4672 
Q 1544 4750 1819 4750 
Q 2544 4750 2975 4387 
Q 3406 4025 3406 3419 
Q 3406 3131 3298 2873 
Q 3191 2616 2906 2266 
Q 2828 2175 2409 1742 
Q 1991 1309 1228 531 
z
" transform="scale(0.015625)"/>
       </defs>
       <use xlink:href="#DejaVuSans-32"/>
       <use xlink:href="#DejaVuSans-30" x="63.623047"/>
       <use xlink:href="#DejaVuSans-30" x="127.246094"/>
       <use xlink:href="#DejaVuSans-30" x="190.869141"/>
      </g>
     </g>
    </g>
    <g id="xtick_4">
     <g id="line2d_4">
      <g>
       <use xlink:href="#m4153fde76f" x="268.599477" y="307.584" style="stroke: #000000; stroke-width: 0.8"/>
      </g>
     </g>
     <g id="text_4">
      <!-- 3000 -->
      <g transform="translate(255.874477 322.182437) scale(0.1 -0.1)">
       <defs>
        <path id="DejaVuSans-33" d="M 2597 2516 
Q 3050 2419 3304 2112 
Q 3559 1806 3559 1356 
Q 3559 666 3084 287 
Q 2609 -91 1734 -91 
Q 1441 -91 1130 -33 
Q 819 25 488 141 
L 488 750 
Q 750 597 1062 519 
Q 1375 441 1716 441 
Q 2309 441 2620 675 
Q 2931 909 2931 1356 
Q 2931 1769 2642 2001 
Q 2353 2234 1838 2234 
L 1294 2234 
L 1294 2753 
L 1863 2753 
Q 2328 2753 2575 2939 
Q 2822 3125 2822 3475 
Q 2822 3834 2567 4026 
Q 2313 4219 1838 4219 
Q 1578 4219 1281 4162 
Q 984 4106 628 3988 
L 628 4550 
Q 988 4650 1302 4700 
Q 1616 4750 1894 4750 
Q 2613 4750 3031 4423 
Q 3450 4097 3450 3541 
Q 3450 3153 3228 2886 
Q 3006 2619 2597 2516 
z
" transform="scale(0.015625)"/>
       </defs>
       <use xlink:href="#DejaVuSans-33"/>
       <use xlink:href="#DejaVuSans-30" x="63.623047"/>
       <use xlink:href="#DejaVuSans-30" x="127.246094"/>
       <use xlink:href="#DejaVuSans-30" x="190.869141"/>
      </g>
     </g>
    </g>
    <g id="xtick_5">
     <g id="line2d_5">
      <g>
       <use xlink:href="#m4153fde76f" x="333.543375" y="307.584" style="stroke: #000000; stroke-width: 0.8"/>
      </g>
     </g>
     <g id="text_5">
      <!-- 4000 -->
      <g transform="translate(320.818375 322.182437) scale(0.1 -0.1)">
       <defs>
        <path id="DejaVuSans-34" d="M 2419 4116 
L 825 1625 
L 2419 1625 
L 2419 4116 
z
M 2253 4666 
L 3047 4666 
L 3047 1625 
L 3713 1625 
L 3713 1100 
L 3047 1100 
L 3047 0 
L 2419 0 
L 2419 1100 
L 313 1100 
L 313 1709 
L 2253 4666 
z
" transform="scale(0.015625)"/>
       </defs>
       <use xlink:href="#DejaVuSans-34"/>
       <use xlink:href="#DejaVuSans-30" x="63.623047"/>
       <use xlink:href="#DejaVuSans-30" x="127.246094"/>
       <use xlink:href="#DejaVuSans-30" x="190.869141"/>
      </g>
     </g>
    </g>
    <g id="xtick_6">
     <g id="line2d_6">
      <g>
       <use xlink:href="#m4153fde76f" x="398.487273" y="307.584" style="stroke: #000000; stroke-width: 0.8"/>
      </g>
     </g>
     <g id="text_6">
      <!-- 5000 -->
      <g transform="translate(385.762273 322.182437) scale(0.1 -0.1)">
       <defs>
        <path id="DejaVuSans-35" d="M 691 4666 
L 3169 4666 
L 3169 4134 
L 1269 4134 
L 1269 2991 
Q 1406 3038 1543 3061 
Q 1681 3084 1819 3084 
Q 2600 3084 3056 2656 
Q 3513 2228 3513 1497 
Q 3513 744 3044 326 
Q 2575 -91 1722 -91 
Q 1428 -91 1123 -41 
Q 819 9 494 109 
L 494 744 
Q 775 591 1075 516 
Q 1375 441 1709 441 
Q 2250 441 2565 725 
Q 2881 1009 2881 1497 
Q 2881 1984 2565 2268 
Q 2250 2553 1709 2553 
Q 1456 2553 1204 2497 
Q 953 2441 691 2322 
L 691 4666 
z
" transform="scale(0.015625)"/>
       </defs>
       <use xlink:href="#DejaVuSans-35"/>
       <use xlink:href="#DejaVuSans-30" x="63.623047"/>
       <use xlink:href="#DejaVuSans-30" x="127.246094"/>
       <use xlink:href="#DejaVuSans-30" x="190.869141"/>
      </g>
     </g>
    </g>
    <g id="text_7">
     <!-- epoch -->
     <g transform="translate(220.931875 335.860562) scale(0.1 -0.1)">
      <defs>
       <path id="DejaVuSans-65" d="M 3597 1894 
L 3597 1613 
L 953 1613 
Q 991 1019 1311 708 
Q 1631 397 2203 397 
Q 2534 397 2845 478 
Q 3156 559 3463 722 
L 3463 178 
Q 3153 47 2828 -22 
Q 2503 -91 2169 -91 
Q 1331 -91 842 396 
Q 353 884 353 1716 
Q 353 2575 817 3079 
Q 1281 3584 2069 3584 
Q 2775 3584 3186 3129 
Q 3597 2675 3597 1894 
z
M 3022 2063 
Q 3016 2534 2758 2815 
Q 2500 3097 2075 3097 
Q 1594 3097 1305 2825 
Q 1016 2553 972 2059 
L 3022 2063 
z
" transform="scale(0.015625)"/>
       <path id="DejaVuSans-70" d="M 1159 525 
L 1159 -1331 
L 581 -1331 
L 581 3500 
L 1159 3500 
L 1159 2969 
Q 1341 3281 1617 3432 
Q 1894 3584 2278 3584 
Q 2916 3584 3314 3078 
Q 3713 2572 3713 1747 
Q 3713 922 3314 415 
Q 2916 -91 2278 -91 
Q 1894 -91 1617 61 
Q 1341 213 1159 525 
z
M 3116 1747 
Q 3116 2381 2855 2742 
Q 2594 3103 2138 3103 
Q 1681 3103 1420 2742 
Q 1159 2381 1159 1747 
Q 1159 1113 1420 752 
Q 1681 391 2138 391 
Q 2594 391 2855 752 
Q 3116 1113 3116 1747 
z
" transform="scale(0.015625)"/>
       <path id="DejaVuSans-6f" d="M 1959 3097 
Q 1497 3097 1228 2736 
Q 959 2375 959 1747 
Q 959 1119 1226 758 
Q 1494 397 1959 397 
Q 2419 397 2687 759 
Q 2956 1122 2956 1747 
Q 2956 2369 2687 2733 
Q 2419 3097 1959 3097 
z
M 1959 3584 
Q 2709 3584 3137 3096 
Q 3566 2609 3566 1747 
Q 3566 888 3137 398 
Q 2709 -91 1959 -91 
Q 1206 -91 779 398 
Q 353 888 353 1747 
Q 353 2609 779 3096 
Q 1206 3584 1959 3584 
z
" transform="scale(0.015625)"/>
       <path id="DejaVuSans-63" d="M 3122 3366 
L 3122 2828 
Q 2878 2963 2633 3030 
Q 2388 3097 2138 3097 
Q 1578 3097 1268 2742 
Q 959 2388 959 1747 
Q 959 1106 1268 751 
Q 1578 397 2138 397 
Q 2388 397 2633 464 
Q 2878 531 3122 666 
L 3122 134 
Q 2881 22 2623 -34 
Q 2366 -91 2075 -91 
Q 1284 -91 818 406 
Q 353 903 353 1747 
Q 353 2603 823 3093 
Q 1294 3584 2113 3584 
Q 2378 3584 2631 3529 
Q 2884 3475 3122 3366 
z
" transform="scale(0.015625)"/>
       <path id="DejaVuSans-68" d="M 3513 2113 
L 3513 0 
L 2938 0 
L 2938 2094 
Q 2938 2591 2744 2837 
Q 2550 3084 2163 3084 
Q 1697 3084 1428 2787 
Q 1159 2491 1159 1978 
L 1159 0 
L 581 0 
L 581 4863 
L 1159 4863 
L 1159 2956 
Q 1366 3272 1645 3428 
Q 1925 3584 2291 3584 
Q 2894 3584 3203 3211 
Q 3513 2838 3513 2113 
z
" transform="scale(0.015625)"/>
      </defs>
      <use xlink:href="#DejaVuSans-65"/>
      <use xlink:href="#DejaVuSans-70" x="61.523438"/>
      <use xlink:href="#DejaVuSans-6f" x="125"/>
      <use xlink:href="#DejaVuSans-63" x="186.181641"/>
      <use xlink:href="#DejaVuSans-68" x="241.162109"/>
     </g>
    </g>
   </g>
   <g id="matplotlib.axis_2">
    <g id="ytick_1">
     <g id="line2d_7">
      <defs>
       <path id="mbc127de7e4" d="M 0 0 
L -3.5 0 
" style="stroke: #000000; stroke-width: 0.8"/>
      </defs>
      <g>
       <use xlink:href="#mbc127de7e4" x="57.6" y="295.514317" style="stroke: #000000; stroke-width: 0.8"/>
      </g>
     </g>
     <g id="text_8">
      <!-- 0.0 -->
      <g transform="translate(34.696875 299.313536) scale(0.1 -0.1)">
       <defs>
        <path id="DejaVuSans-2e" d="M 684 794 
L 1344 794 
L 1344 0 
L 684 0 
L 684 794 
z
" transform="scale(0.015625)"/>
       </defs>
       <use xlink:href="#DejaVuSans-30"/>
       <use xlink:href="#DejaVuSans-2e" x="63.623047"/>
       <use xlink:href="#DejaVuSans-30" x="95.410156"/>
      </g>
     </g>
    </g>
    <g id="ytick_2">
     <g id="line2d_8">
      <g>
       <use xlink:href="#mbc127de7e4" x="57.6" y="261.024357" style="stroke: #000000; stroke-width: 0.8"/>
      </g>
     </g>
     <g id="text_9">
      <!-- 2.5 -->
      <g transform="translate(34.696875 264.823575) scale(0.1 -0.1)">
       <use xlink:href="#DejaVuSans-32"/>
       <use xlink:href="#DejaVuSans-2e" x="63.623047"/>
       <use xlink:href="#DejaVuSans-35" x="95.410156"/>
      </g>
     </g>
    </g>
    <g id="ytick_3">
     <g id="line2d_9">
      <g>
       <use xlink:href="#mbc127de7e4" x="57.6" y="226.534396" style="stroke: #000000; stroke-width: 0.8"/>
      </g>
     </g>
     <g id="text_10">
      <!-- 5.0 -->
      <g transform="translate(34.696875 230.333614) scale(0.1 -0.1)">
       <use xlink:href="#DejaVuSans-35"/>
       <use xlink:href="#DejaVuSans-2e" x="63.623047"/>
       <use xlink:href="#DejaVuSans-30" x="95.410156"/>
      </g>
     </g>
    </g>
    <g id="ytick_4">
     <g id="line2d_10">
      <g>
       <use xlink:href="#mbc127de7e4" x="57.6" y="192.044435" style="stroke: #000000; stroke-width: 0.8"/>
      </g>
     </g>
     <g id="text_11">
      <!-- 7.5 -->
      <g transform="translate(34.696875 195.843654) scale(0.1 -0.1)">
       <defs>
        <path id="DejaVuSans-37" d="M 525 4666 
L 3525 4666 
L 3525 4397 
L 1831 0 
L 1172 0 
L 2766 4134 
L 525 4134 
L 525 4666 
z
" transform="scale(0.015625)"/>
       </defs>
       <use xlink:href="#DejaVuSans-37"/>
       <use xlink:href="#DejaVuSans-2e" x="63.623047"/>
       <use xlink:href="#DejaVuSans-35" x="95.410156"/>
      </g>
     </g>
    </g>
    <g id="ytick_5">
     <g id="line2d_11">
      <g>
       <use xlink:href="#mbc127de7e4" x="57.6" y="157.554474" style="stroke: #000000; stroke-width: 0.8"/>
      </g>
     </g>
     <g id="text_12">
      <!-- 10.0 -->
      <g transform="translate(28.334375 161.353693) scale(0.1 -0.1)">
       <use xlink:href="#DejaVuSans-31"/>
       <use xlink:href="#DejaVuSans-30" x="63.623047"/>
       <use xlink:href="#DejaVuSans-2e" x="127.246094"/>
       <use xlink:href="#DejaVuSans-30" x="159.033203"/>
      </g>
     </g>
    </g>
    <g id="ytick_6">
     <g id="line2d_12">
      <g>
       <use xlink:href="#mbc127de7e4" x="57.6" y="123.064513" style="stroke: #000000; stroke-width: 0.8"/>
      </g>
     </g>
     <g id="text_13">
      <!-- 12.5 -->
      <g transform="translate(28.334375 126.863732) scale(0.1 -0.1)">
       <use xlink:href="#DejaVuSans-31"/>
       <use xlink:href="#DejaVuSans-32" x="63.623047"/>
       <use xlink:href="#DejaVuSans-2e" x="127.246094"/>
       <use xlink:href="#DejaVuSans-35" x="159.033203"/>
      </g>
     </g>
    </g>
    <g id="ytick_7">
     <g id="line2d_13">
      <g>
       <use xlink:href="#mbc127de7e4" x="57.6" y="88.574552" style="stroke: #000000; stroke-width: 0.8"/>
      </g>
     </g>
     <g id="text_14">
      <!-- 15.0 -->
      <g transform="translate(28.334375 92.373771) scale(0.1 -0.1)">
       <use xlink:href="#DejaVuSans-31"/>
       <use xlink:href="#DejaVuSans-35" x="63.623047"/>
       <use xlink:href="#DejaVuSans-2e" x="127.246094"/>
       <use xlink:href="#DejaVuSans-30" x="159.033203"/>
      </g>
     </g>
    </g>
    <g id="ytick_8">
     <g id="line2d_14">
      <g>
       <use xlink:href="#mbc127de7e4" x="57.6" y="54.084592" style="stroke: #000000; stroke-width: 0.8"/>
      </g>
     </g>
     <g id="text_15">
      <!-- 17.5 -->
      <g transform="translate(28.334375 57.88381) scale(0.1 -0.1)">
       <use xlink:href="#DejaVuSans-31"/>
       <use xlink:href="#DejaVuSans-37" x="63.623047"/>
       <use xlink:href="#DejaVuSans-2e" x="127.246094"/>
       <use xlink:href="#DejaVuSans-35" x="159.033203"/>
      </g>
     </g>
    </g>
    <g id="text_16">
     <!-- loss -->
     <g transform="translate(22.254688 184.185812) rotate(-90) scale(0.1 -0.1)">
      <defs>
       <path id="DejaVuSans-6c" d="M 603 4863 
L 1178 4863 
L 1178 0 
L 603 0 
L 603 4863 
z
" transform="scale(0.015625)"/>
       <path id="DejaVuSans-73" d="M 2834 3397 
L 2834 2853 
Q 2591 2978 2328 3040 
Q 2066 3103 1784 3103 
Q 1356 3103 1142 2972 
Q 928 2841 928 2578 
Q 928 2378 1081 2264 
Q 1234 2150 1697 2047 
L 1894 2003 
Q 2506 1872 2764 1633 
Q 3022 1394 3022 966 
Q 3022 478 2636 193 
Q 2250 -91 1575 -91 
Q 1294 -91 989 -36 
Q 684 19 347 128 
L 347 722 
Q 666 556 975 473 
Q 1284 391 1588 391 
Q 1994 391 2212 530 
Q 2431 669 2431 922 
Q 2431 1156 2273 1281 
Q 2116 1406 1581 1522 
L 1381 1569 
Q 847 1681 609 1914 
Q 372 2147 372 2553 
Q 372 3047 722 3315 
Q 1072 3584 1716 3584 
Q 2034 3584 2315 3537 
Q 2597 3491 2834 3397 
z
" transform="scale(0.015625)"/>
      </defs>
      <use xlink:href="#DejaVuSans-6c"/>
      <use xlink:href="#DejaVuSans-6f" x="27.783203"/>
      <use xlink:href="#DejaVuSans-73" x="88.964844"/>
      <use xlink:href="#DejaVuSans-73" x="141.064453"/>
     </g>
    </g>
   </g>
   <g id="line2d_15">
    <path d="M 73.832727 268.619979 
L 74.157447 269.098018 
L 75.326437 270.478791 
L 75.975876 271.778956 
L 76.755203 273.918863 
L 79.677678 282.583569 
L 80.521949 284.138976 
L 81.366219 285.255733 
L 82.340378 286.163616 
L 83.509368 286.929071 
L 85.003078 287.630717 
L 87.016339 288.330754 
L 89.808926 289.055457 
L 93.70556 289.810189 
L 97.667138 290.395871 
L 105.265574 291.255595 
L 112.279515 291.853921 
L 124.683799 292.600908 
L 130.788526 292.87467 
L 152.739563 293.644047 
L 167.027221 294.132422 
L 173.456667 294.320194 
L 183.782746 294.565108 
L 200.862992 294.846589 
L 259.247556 295.278565 
L 331.854834 295.445673 
L 398.487273 295.488 
L 398.487273 295.488 
" clip-path="url(#p5e7a6904cd)" style="fill: none; stroke: #0000ff; stroke-width: 1.5; stroke-linecap: square"/>
   </g>
   <g id="line2d_16">
    <path d="M 73.832727 268.868034 
L 74.287335 269.045349 
L 75.196549 270.083298 
L 75.586213 270.542601 
L 76.235651 271.647435 
L 77.469586 274.692647 
L 79.288015 279.289715 
L 80.132285 280.729433 
L 81.106444 281.717774 
L 81.755883 282.124245 
L 83.509368 282.37358 
L 84.743302 282.152649 
L 85.392741 281.99267 
L 86.237012 281.685839 
L 87.016339 281.366309 
L 87.53589 281.136228 
L 90.588253 279.696472 
L 91.237692 279.351136 
L 91.757243 279.111701 
L 92.017019 278.931845 
L 95.718821 276.634911 
L 95.978596 276.460339 
L 96.692979 275.906527 
L 96.887811 275.774537 
L 98.121745 274.921491 
L 98.446465 274.729751 
L 100.394782 273.365458 
L 101.04422 272.914064 
L 101.628716 272.446253 
L 101.758603 272.352076 
L 102.213211 271.95753 
L 102.343098 271.936933 
L 103.057481 271.304143 
L 103.187369 271.290703 
L 103.577032 270.924419 
L 103.771864 270.811859 
L 104.226471 270.4715 
L 104.486247 270.265761 
L 105.525349 269.449744 
L 105.655237 269.371641 
L 105.785125 269.277892 
L 105.915013 269.160671 
L 107.928274 267.630151 
L 108.058161 267.603617 
L 108.382881 267.279797 
L 108.577713 267.210792 
L 109.227152 266.652769 
L 109.357039 266.622923 
L 109.681759 266.348566 
L 109.746703 266.369916 
L 109.941534 266.1303 
L 110.071422 266.115808 
L 110.396142 265.803194 
L 110.52603 265.800622 
L 110.785805 265.539648 
L 111.110525 265.362044 
L 112.669178 264.250643 
L 112.734122 264.27026 
L 112.993898 263.996811 
L 113.578393 263.646601 
L 113.968056 263.304887 
L 114.097944 263.304177 
L 114.682439 262.905908 
L 115.52671 262.375907 
L 115.656598 262.294778 
L 115.851429 262.112848 
L 115.981317 262.160453 
L 116.37098 261.775141 
L 116.500868 261.778542 
L 116.890532 261.465865 
L 117.150307 261.337622 
L 117.604914 261.060117 
L 117.86469 260.832381 
L 118.579073 260.398451 
L 118.708961 260.345824 
L 118.838848 260.275415 
L 119.03368 260.127985 
L 119.163568 260.112986 
L 119.3584 259.941773 
L 119.553231 259.779611 
L 119.683119 259.752689 
L 119.942895 259.559704 
L 120.137726 259.464546 
L 120.592334 259.124086 
L 120.722222 259.074537 
L 121.306717 258.70055 
L 121.436604 258.662026 
L 122.086043 258.316125 
L 122.280875 258.175567 
L 122.995258 257.683839 
L 123.644697 257.318578 
L 123.904473 257.146683 
L 124.164248 257.002513 
L 124.35908 256.831731 
L 124.618855 256.762466 
L 125.073463 256.381772 
L 125.20335 256.447402 
L 125.463126 256.215055 
L 125.52807 256.224166 
L 125.657958 256.086759 
L 125.787846 256.056942 
L 126.502228 255.569282 
L 126.632116 255.564062 
L 127.02178 255.313088 
L 127.151667 255.238778 
L 127.411443 255.078899 
L 127.606275 254.954866 
L 129.03504 254.180765 
L 129.229872 254.000789 
L 129.294816 253.897201 
L 129.35976 253.969557 
L 129.619536 253.65748 
L 129.684479 253.737875 
L 129.749423 253.778707 
L 130.009199 253.529667 
L 130.074143 253.59063 
L 130.268975 253.40094 
L 130.463806 253.281436 
L 134.36044 251.05896 
L 135.269655 250.506678 
L 135.399542 250.351226 
L 135.464486 250.406018 
L 136.048981 250.04121 
L 136.763364 249.558314 
L 136.828308 249.575799 
L 137.088084 249.360303 
L 137.542691 249.145595 
L 137.737523 249.042992 
L 137.997298 248.871821 
L 138.127186 248.76149 
L 138.776625 248.397801 
L 138.906513 248.298842 
L 139.166289 248.09545 
L 139.426064 247.940307 
L 139.620896 247.8437 
L 140.075503 247.595939 
L 140.465166 247.365996 
L 141.309437 246.831377 
L 141.569213 246.66514 
L 142.088764 246.349796 
L 142.34854 246.201442 
L 143.19281 245.665552 
L 143.907193 245.234869 
L 144.037081 245.115713 
L 144.296856 245.016323 
L 144.621576 244.77422 
L 145.206071 244.412603 
L 145.335959 244.398614 
L 145.790566 244.095089 
L 146.245173 243.827593 
L 146.375061 243.69455 
L 146.504949 243.676437 
L 146.829668 243.430324 
L 150.791246 240.994315 
L 151.18091 240.716735 
L 151.505629 240.560961 
L 151.765405 240.381333 
L 152.934395 239.62877 
L 153.648778 239.107764 
L 153.778666 239.077517 
L 154.168329 238.744648 
L 154.298217 238.689205 
L 154.557992 238.431738 
L 154.947656 238.058635 
L 155.337319 237.8331 
L 155.597095 237.672678 
L 156.246534 237.159915 
L 157.155748 236.398053 
L 157.480468 236.209837 
L 157.870131 235.823407 
L 158.000019 235.763464 
L 158.259795 235.559348 
L 158.454626 235.335043 
L 158.51957 235.418379 
L 158.584514 235.332089 
L 159.039121 234.907899 
L 159.169009 234.926601 
L 159.298897 234.591443 
L 159.363841 234.63661 
L 159.493729 234.662898 
L 159.623616 234.436429 
L 159.753504 234.454131 
L 159.883392 234.223313 
L 160.01328 234.272948 
L 160.208111 234.019711 
L 160.402943 233.869387 
L 161.831709 232.82083 
L 161.961597 232.61805 
L 162.026541 232.696221 
L 162.221372 232.443695 
L 162.416204 232.308639 
L 162.611036 232.21741 
L 162.67598 232.207752 
L 162.870811 232.001505 
L 163.260475 231.7434 
L 163.455306 231.55306 
L 163.585194 231.371179 
L 163.650138 231.267944 
L 163.780026 231.418866 
L 163.974858 231.0634 
L 164.039801 231.142335 
L 164.104745 231.073275 
L 164.299577 230.891578 
L 164.364521 230.913366 
L 164.559353 230.683153 
L 164.68924 230.634322 
L 164.819128 230.445146 
L 164.949016 230.415661 
L 165.143848 230.210519 
L 165.208792 230.212848 
L 165.533511 229.880163 
L 166.832389 228.873497 
L 166.962277 228.795464 
L 167.222052 228.591309 
L 167.871491 228.056995 
L 168.001379 227.913217 
L 168.391043 227.679768 
L 168.52093 227.406381 
L 168.650818 227.4939 
L 169.105425 226.987617 
L 169.300257 226.957251 
L 169.560033 226.716678 
L 169.819808 226.475229 
L 169.884752 226.459974 
L 170.01464 226.26339 
L 170.144528 226.31434 
L 170.404303 226.03523 
L 170.469247 226.008219 
L 170.599135 225.802972 
L 170.729023 225.758048 
L 171.443406 225.233858 
L 171.638237 224.99116 
L 171.768125 224.91585 
L 171.962957 224.778545 
L 173.651498 223.351721 
L 173.781386 223.259978 
L 174.495769 222.624212 
L 174.560713 222.515365 
L 174.625657 222.568558 
L 174.755545 222.498439 
L 175.01532 222.261542 
L 175.210152 222.111804 
L 175.34004 221.991715 
L 175.469927 221.84466 
L 175.599815 221.780599 
L 175.794647 221.594916 
L 175.859591 221.594055 
L 176.054423 221.392097 
L 176.18431 221.293578 
L 176.314198 221.073654 
L 176.379142 221.114184 
L 176.50903 220.979457 
L 178.392403 219.372582 
L 178.457347 219.375536 
L 178.717122 219.119865 
L 178.84701 218.974198 
L 178.976898 218.86347 
L 179.041842 218.8667 
L 179.236674 218.598675 
L 179.366561 218.544429 
L 179.756225 218.166932 
L 184.497129 213.879731 
L 184.562073 213.883336 
L 184.886793 213.472269 
L 185.796007 212.664582 
L 185.990839 212.489016 
L 186.380502 212.150687 
L 186.640278 211.885958 
L 190.536912 208.279855 
L 190.731743 208.05657 
L 193.264555 205.744183 
L 193.394443 205.574519 
L 193.589275 205.416893 
L 194.238714 204.804572 
L 194.693321 204.362343 
L 195.018041 204.082911 
L 195.602536 203.547893 
L 198.654899 200.663064 
L 198.849731 200.478065 
L 199.694001 199.678824 
L 199.823889 199.576963 
L 200.278496 199.140471 
L 200.408384 199.024329 
L 200.992879 198.465721 
L 201.447487 198.071764 
L 201.902094 197.636278 
L 202.226813 197.301916 
L 203.33086 196.312427 
L 203.915355 195.740096 
L 204.17513 195.4878 
L 206.967718 192.894455 
L 207.357381 192.531213 
L 207.747045 192.120146 
L 209.370642 190.620302 
L 209.565474 190.401713 
L 209.695362 190.357046 
L 210.149969 189.801898 
L 210.344801 189.74437 
L 210.734464 189.299009 
L 211.059183 189.013874 
L 211.513791 188.578743 
L 211.903454 188.302738 
L 212.487949 187.689233 
L 212.617837 187.62852 
L 212.877613 187.300585 
L 213.0075 187.241379 
L 213.462108 186.69652 
L 213.721883 186.559827 
L 214.176491 186.060076 
L 214.371322 185.971221 
L 214.631098 185.693795 
L 215.540312 184.813863 
L 215.735144 184.670861 
L 215.929976 184.4706 
L 216.579415 183.869094 
L 220.021441 180.62949 
L 220.151329 180.563061 
L 220.411105 180.291805 
L 220.540993 180.174946 
L 220.735824 179.999552 
L 221.580095 179.167656 
L 222.359422 178.429647 
L 222.814029 177.977458 
L 223.268636 177.591067 
L 223.398524 177.490851 
L 223.593356 177.23795 
L 223.723244 177.091751 
L 223.918075 176.913514 
L 224.047963 176.829889 
L 224.307739 176.56616 
L 225.736504 175.160058 
L 225.866392 175.104312 
L 226.126168 174.819006 
L 226.710663 174.257786 
L 227.230214 173.738024 
L 227.425046 173.603323 
L 227.814709 173.243417 
L 228.269316 172.724076 
L 228.529092 172.550971 
L 228.723924 172.366722 
L 228.853811 172.216352 
L 229.113587 171.942531 
L 230.282577 170.824907 
L 230.412465 170.782752 
L 230.867072 170.304421 
L 231.32168 169.866771 
L 231.646399 169.548032 
L 232.295838 168.991681 
L 233.269997 168.02415 
L 233.464828 167.870281 
L 233.984379 167.342611 
L 234.244155 167.127759 
L 234.568875 166.841373 
L 235.478089 165.994649 
L 235.99764 165.450744 
L 236.257416 165.244102 
L 236.582135 164.923851 
L 238.010901 163.625201 
L 238.270677 163.364879 
L 240.478769 161.287435 
L 240.608657 161.256806 
L 240.99832 160.795539 
L 242.232254 159.670823 
L 244.505291 157.623495 
L 244.765066 157.404894 
L 245.479449 156.749642 
L 245.869113 156.439205 
L 247.167991 155.225075 
L 247.297878 155.180342 
L 247.49271 154.953504 
L 247.622598 154.902272 
L 247.81743 154.620491 
L 247.947317 154.584283 
L 248.272037 154.287503 
L 248.921476 153.672275 
L 249.181252 153.430096 
L 251.259456 151.611592 
L 251.454288 151.48697 
L 256.584856 147.089916 
L 256.714744 146.947559 
L 256.909575 146.747561 
L 257.883734 145.93986 
L 258.857892 145.110109 
L 259.247556 144.775727 
L 260.48149 143.733071 
L 260.871153 143.37594 
L 263.014302 141.644917 
L 263.209133 141.464365 
L 263.403965 141.288036 
L 263.858572 140.933906 
L 273.14555 133.382175 
L 273.340382 133.261737 
L 273.794989 132.87503 
L 273.989821 132.708609 
L 274.444428 132.379358 
L 274.899035 131.946128 
L 275.158811 131.804271 
L 275.48353 131.505373 
L 276.003081 131.094063 
L 276.522633 130.740143 
L 280.48421 127.601583 
L 280.679042 127.401954 
L 280.873874 127.260636 
L 284.121069 124.808628 
L 284.250956 124.695058 
L 284.510732 124.527479 
L 286.004442 123.369779 
L 287.757927 122.040895 
L 288.017702 121.841266 
L 288.47231 121.538842 
L 293.14827 118.022088 
L 293.862653 117.492813 
L 294.122429 117.311946 
L 295.746026 116.10096 
L 296.200634 115.794208 
L 296.330521 115.707346 
L 296.525353 115.552963 
L 296.720185 115.400462 
L 297.239736 115.010913 
L 297.694343 114.722778 
L 306.656601 108.296236 
L 306.851433 108.188613 
L 307.176152 107.976826 
L 307.370984 107.808497 
L 307.890535 107.421817 
L 308.150311 107.247422 
L 309.64402 106.248513 
L 309.838852 106.061317 
L 309.96874 106.048134 
L 310.488291 105.607918 
L 311.007842 105.300915 
L 311.527393 104.94064 
L 311.852113 104.746826 
L 312.046945 104.590207 
L 312.501552 104.266916 
L 312.696384 104.192725 
L 312.956159 103.945875 
L 324.581117 96.253576 
L 324.775949 96.167951 
L 325.360444 95.724196 
L 325.685163 95.577313 
L 325.879995 95.383841 
L 326.074827 95.253733 
L 326.334602 95.098363 
L 343.869455 84.206641 
L 344.064286 84.118266 
L 344.324062 83.94899 
L 345.947659 82.916912 
L 346.142491 82.826563 
L 346.402267 82.697323 
L 347.571257 81.944092 
L 347.766088 81.933225 
L 348.155752 81.645878 
L 349.389686 80.889911 
L 349.649462 80.710622 
L 357.442729 76.166079 
L 357.637561 76.024406 
L 357.897337 75.882364 
L 359.001383 75.219323 
L 359.45599 74.973382 
L 359.715766 74.830446 
L 359.910597 74.75186 
L 360.235317 74.534113 
L 363.222736 72.833192 
L 363.417568 72.690572 
L 363.677343 72.565766 
L 365.106109 71.727146 
L 367.184314 70.579262 
L 367.44409 70.389961 
L 368.093529 70.030541 
L 369.522294 69.220262 
L 369.717126 69.124322 
L 369.976902 68.989016 
L 370.496453 68.658752 
L 370.95106 68.425113 
L 372.12005 67.732535 
L 372.314882 67.700511 
L 372.639601 67.494369 
L 373.224096 67.181156 
L 373.483872 67.018353 
L 373.678704 66.895784 
L 373.873535 66.763978 
L 374.003423 66.76903 
L 374.328143 66.529733 
L 374.652862 66.328749 
L 375.367245 65.943726 
L 375.562077 65.822104 
L 375.756908 65.72819 
L 376.016684 65.610357 
L 376.211516 65.501602 
L 376.471291 65.341062 
L 376.731067 65.161497 
L 379.913318 63.459129 
L 380.043206 63.421842 
L 380.562757 63.071054 
L 380.822533 62.969193 
L 381.796691 62.410842 
L 382.381186 62.088393 
L 382.576018 62.012136 
L 382.900737 61.818309 
L 385.303661 60.497648 
L 386.667483 59.758073 
L 386.927259 59.645214 
L 387.511754 59.292162 
L 387.836473 59.137253 
L 393.551536 56.090778 
L 393.811312 55.997864 
L 398.487273 53.568 
L 398.487273 53.568 
" clip-path="url(#p5e7a6904cd)" style="fill: none; stroke: #008000; stroke-width: 1.5; stroke-linecap: square"/>
   </g>
   <g id="line2d_17">
    <path d="M 73.832727 268.85989 
L 74.352278 269.131962 
L 75.066661 269.947274 
L 75.456325 270.318117 
L 76.170708 271.42625 
L 77.144866 273.684437 
L 79.482846 279.562459 
L 80.262173 280.795105 
L 80.976556 281.556745 
L 82.470266 282.250034 
L 82.989817 282.270914 
L 83.314536 282.27262 
L 83.899031 282.253103 
L 85.003078 282.036098 
L 85.522629 281.921735 
L 85.847348 281.826189 
L 86.496787 281.648549 
L 89.614094 280.518663 
L 89.808926 280.455299 
L 90.003758 280.355567 
L 90.328477 280.215454 
L 91.497467 279.745882 
L 91.692299 279.694299 
L 92.017019 279.519036 
L 95.134326 278.021024 
L 95.329157 277.901407 
L 96.692979 277.118898 
L 96.887811 277.010556 
L 97.732082 276.568181 
L 98.251633 276.290477 
L 98.576352 276.076916 
L 99.680399 275.469171 
L 100.005118 275.305987 
L 100.459725 275.025988 
L 105.785125 271.718681 
L 105.850069 271.716284 
L 106.044901 271.55264 
L 106.629396 271.16862 
L 106.889171 271.053302 
L 107.928274 270.331764 
L 108.058161 270.329189 
L 108.317937 270.063609 
L 108.642657 269.949182 
L 108.837488 269.80195 
L 109.616815 269.284603 
L 109.876591 269.187591 
L 110.006478 269.100294 
L 110.20131 268.996793 
L 110.785805 268.605102 
L 110.980637 268.523753 
L 111.175469 268.430058 
L 111.435244 268.230447 
L 111.630076 268.156169 
L 111.889851 267.97567 
L 112.019739 267.908422 
L 112.214571 267.801953 
L 112.409403 267.721581 
L 115.007159 266.247064 
L 115.396822 266.021884 
L 115.916373 265.752027 
L 116.046261 265.666931 
L 116.37098 265.386558 
L 116.500868 265.381878 
L 116.890532 265.103955 
L 117.280195 264.907826 
L 117.734802 264.620299 
L 117.799746 264.616486 
L 117.994578 264.458541 
L 118.838848 263.976694 
L 119.03368 263.810509 
L 119.163568 263.813295 
L 119.228512 263.661544 
L 119.293456 263.711846 
L 119.748063 263.35292 
L 119.813007 263.396666 
L 120.072783 263.167464 
L 120.20267 263.115139 
L 120.462446 262.957 
L 121.046941 262.593528 
L 121.306717 262.425508 
L 121.371661 262.467409 
L 121.631436 262.235039 
L 121.761324 262.250084 
L 122.021099 262.033176 
L 122.086043 262.034745 
L 122.280875 261.887142 
L 122.670538 261.600319 
L 122.735482 261.626014 
L 122.995258 261.398364 
L 123.319977 261.24956 
L 123.514809 261.08947 
L 123.644697 261.030925 
L 123.904473 260.858942 
L 124.164248 260.717811 
L 124.35908 260.533638 
L 124.618855 260.47163 
L 125.073463 260.076509 
L 125.20335 260.142451 
L 125.398182 259.946555 
L 125.982677 259.593974 
L 126.242453 259.457389 
L 127.346499 258.749737 
L 128.970097 257.742647 
L 129.03504 257.775164 
L 129.229872 257.560618 
L 129.294816 257.452597 
L 129.35976 257.542547 
L 129.619536 257.199107 
L 129.749423 257.327324 
L 129.944255 257.075504 
L 130.268975 256.927197 
L 130.463806 256.795118 
L 130.983357 256.47708 
L 131.567852 256.081019 
L 131.632796 256.136778 
L 131.69774 256.052018 
L 131.957516 255.855872 
L 132.087404 255.808274 
L 132.671899 255.363723 
L 132.931674 255.247741 
L 133.516169 254.889638 
L 133.646057 254.789504 
L 134.035721 254.518219 
L 134.165608 254.437571 
L 134.230552 254.341986 
L 134.295496 254.40307 
L 135.399542 253.614161 
L 135.52943 253.575529 
L 136.048981 253.242676 
L 137.217972 252.482521 
L 137.542691 252.28725 
L 137.607635 252.163628 
L 137.672579 252.202214 
L 138.581793 251.566859 
L 138.711681 251.45591 
L 138.841569 251.438901 
L 139.296176 251.079623 
L 140.075503 250.593372 
L 140.85483 250.008269 
L 140.984718 250.030159 
L 141.374381 249.687073 
L 141.569213 249.578536 
L 142.413483 249.013027 
L 142.868091 248.662906 
L 142.997979 248.666626 
L 143.582474 248.236212 
L 143.907193 248.01811 
L 143.972137 247.863938 
L 144.037081 247.894705 
L 144.231913 247.809258 
L 146.115286 246.538182 
L 146.245173 246.467865 
L 146.375061 246.306473 
L 146.504949 246.307082 
L 146.829668 246.024988 
L 147.219332 245.781876 
L 147.479107 245.574293 
L 147.998659 245.252394 
L 149.102705 244.456182 
L 149.232593 244.456679 
L 149.427424 244.303227 
L 149.817088 244.012786 
L 150.206751 243.763239 
L 150.921134 243.262778 
L 151.115966 243.155586 
L 151.375741 242.974932 
L 151.505629 242.908539 
L 151.700461 242.760248 
L 152.284956 242.364848 
L 152.609675 242.090836 
L 152.999339 241.823985 
L 158.259795 237.906956 
L 158.454626 237.672092 
L 158.51957 237.754283 
L 158.779346 237.392588 
L 158.84429 237.465286 
L 158.909233 237.398679 
L 159.104065 237.25871 
L 159.233953 237.173532 
L 159.298897 236.954339 
L 159.363841 236.998974 
L 159.493729 237.013025 
L 159.623616 236.778293 
L 159.753504 236.821968 
L 159.883392 236.586361 
L 160.01328 236.615168 
L 160.208111 236.37839 
L 160.402943 236.228428 
L 161.442046 235.408623 
L 161.506989 235.436739 
L 161.766765 235.165043 
L 161.831709 235.193719 
L 161.961597 234.978466 
L 162.026541 235.071366 
L 162.221372 234.799072 
L 162.740923 234.423752 
L 162.805867 234.312616 
L 162.870811 234.356145 
L 163.260475 234.078594 
L 163.390362 233.951861 
L 163.585194 233.745804 
L 163.650138 233.622353 
L 163.780026 233.75331 
L 163.974858 233.425757 
L 164.039801 233.508935 
L 164.104745 233.445492 
L 164.299577 233.233653 
L 164.364521 233.277689 
L 164.559353 233.048924 
L 164.68924 232.99577 
L 164.819128 232.797233 
L 164.949016 232.79124 
L 165.143848 232.578796 
L 165.208792 232.575323 
L 165.403623 232.398553 
L 165.793287 232.102918 
L 165.988118 231.97254 
L 166.377782 231.660815 
L 167.157109 230.969171 
L 167.286996 230.946449 
L 167.416884 230.819084 
L 167.481828 230.810841 
L 167.741604 230.497516 
L 167.806547 230.558499 
L 168.131267 230.255818 
L 168.391043 230.111211 
L 168.52093 229.840357 
L 168.650818 229.923528 
L 168.84565 229.63007 
L 168.910594 229.689586 
L 168.975538 229.638649 
L 169.105425 229.437756 
L 169.235313 229.411686 
L 169.365201 229.264967 
L 169.624977 229.058904 
L 169.884752 228.907758 
L 170.01464 228.700077 
L 170.144528 228.746448 
L 170.404303 228.493172 
L 170.469247 228.478804 
L 170.599135 228.235981 
L 170.729023 228.215141 
L 171.443406 227.684886 
L 171.638237 227.444056 
L 171.768125 227.389889 
L 171.962957 227.245926 
L 172.35262 226.899913 
L 172.742284 226.58132 
L 173.002059 226.429575 
L 173.261835 226.18641 
L 173.391723 226.110567 
L 173.651498 225.855909 
L 173.781386 225.758252 
L 174.495769 225.141563 
L 174.560713 225.035446 
L 174.625657 225.101033 
L 174.755545 225.008639 
L 174.950376 224.824357 
L 175.275096 224.613308 
L 175.794647 224.151607 
L 175.859591 224.15535 
L 176.054423 223.950991 
L 176.18431 223.865931 
L 176.314198 223.631956 
L 176.379142 223.684623 
L 176.573974 223.512176 
L 176.963637 223.224922 
L 178.132627 222.256595 
L 178.84701 221.665457 
L 178.911954 221.51289 
L 178.976898 221.557465 
L 179.041842 221.569405 
L 179.236674 221.314721 
L 179.431505 221.176436 
L 179.691281 220.91841 
L 179.821169 220.861822 
L 181.574654 219.421894 
L 182.029261 219.032621 
L 182.159149 218.965554 
L 183.00342 218.245505 
L 184.951737 216.668416 
L 185.081624 216.579989 
L 185.146568 216.614427 
L 185.3414 216.338712 
L 208.786147 197.113707 
L 209.045923 196.923472 
L 209.370642 196.663025 
L 209.565474 196.460356 
L 209.695362 196.433865 
L 210.149969 195.919635 
L 210.344801 195.873152 
L 210.734464 195.479143 
L 210.99424 195.312313 
L 211.513791 194.848553 
L 211.708622 194.676803 
L 213.397164 193.244125 
L 214.241434 192.627778 
L 214.371322 192.547429 
L 214.566154 192.332136 
L 214.760986 192.159505 
L 215.215593 191.767897 
L 215.345481 191.743853 
L 215.605256 191.484459 
L 215.735144 191.40311 
L 215.929976 191.223183 
L 217.293798 190.074337 
L 217.748405 189.673493 
L 217.878293 189.627398 
L 218.462788 189.129378 
L 218.917395 188.742118 
L 219.307059 188.411558 
L 220.021441 187.802816 
L 220.151329 187.763201 
L 220.411105 187.514299 
L 220.540993 187.42049 
L 220.735824 187.271923 
L 225.216953 183.570065 
L 225.346841 183.408551 
L 225.736504 183.065038 
L 225.866392 183.037974 
L 226.061224 182.830898 
L 247.49271 165.25276 
L 247.622598 165.218236 
L 247.81743 164.950941 
L 247.947317 164.925469 
L 248.272037 164.653411 
L 248.921476 164.091376 
L 249.116308 163.952584 
L 249.570915 163.558562 
L 250.480129 162.881312 
L 250.739905 162.6585 
L 251.259456 162.224034 
L 251.454288 162.122107 
L 252.623278 161.171931 
L 253.012941 160.929778 
L 253.337661 160.662983 
L 256.519912 158.138521 
L 256.6498 158.133587 
L 256.974519 157.803376 
L 257.429127 157.430207 
L 257.81879 157.178766 
L 258.792948 156.402603 
L 259.3125 156.018251 
L 262.170031 153.888692 
L 262.494751 153.62841 
L 262.689582 153.503169 
L 263.209133 153.100964 
L 263.403965 152.93645 
L 263.793629 152.655761 
L 264.637899 152.061663 
L 264.962619 151.799236 
L 265.092507 151.769817 
L 265.287338 151.568753 
L 265.48217 151.419265 
L 265.677002 151.304945 
L 266.97588 150.309167 
L 267.430487 150.031386 
L 268.014982 149.624851 
L 268.14487 149.512518 
L 268.339701 149.358438 
L 268.794309 149.052106 
L 269.443748 148.571578 
L 284.121069 138.175659 
L 284.250956 138.072035 
L 284.445788 137.941032 
L 284.64062 137.790478 
L 284.965339 137.575363 
L 285.48489 137.254349 
L 285.874554 136.949951 
L 286.329161 136.654027 
L 286.588937 136.503433 
L 288.602198 135.122777 
L 288.797029 134.938831 
L 288.926917 134.933094 
L 289.576356 134.414503 
L 305.617499 124.160534 
L 306.007162 123.916658 
L 306.656601 123.492572 
L 306.851433 123.400106 
L 307.176152 123.21987 
L 307.370984 123.056777 
L 307.825591 122.716566 
L 308.085367 122.61618 
L 317.697064 116.904832 
L 317.956839 116.747213 
L 318.281559 116.536137 
L 319.385605 115.904818 
L 324.12651 113.233656 
L 324.321341 113.070406 
L 324.516173 112.940363 
L 324.711005 112.925917 
L 325.360444 112.489858 
L 325.685163 112.362684 
L 325.879995 112.186448 
L 326.074827 112.076614 
L 326.334602 111.937112 
L 331.400226 109.162406 
L 331.595058 109.007523 
L 331.854834 108.900176 
L 332.049665 108.798052 
L 335.426748 106.919092 
L 335.62158 106.84748 
L 335.751467 106.814785 
L 336.011243 106.63197 
L 336.141131 106.641088 
L 336.46585 106.37749 
L 336.660682 106.272892 
L 337.050345 106.035042 
L 338.738887 105.162005 
L 338.933718 105.024305 
L 339.12855 104.982321 
L 339.777989 104.580379 
L 340.29754 104.348213 
L 340.557316 104.187462 
L 340.946979 103.997437 
L 341.986082 103.416561 
L 342.180913 103.302754 
L 342.375745 103.248877 
L 342.700464 103.036643 
L 343.28496 102.760296 
L 344.259118 102.232113 
L 344.45395 102.145199 
L 344.648781 101.990803 
L 344.843613 101.951938 
L 345.29822 101.703246 
L 345.882715 101.402954 
L 346.077547 101.234046 
L 346.337323 101.167038 
L 347.311481 100.634645 
L 350.169013 99.174574 
L 350.363844 99.031387 
L 352.506993 97.972272 
L 352.701825 97.858044 
L 353.221376 97.593025 
L 353.416208 97.502374 
L 353.611039 97.375055 
L 353.805871 97.293443 
L 354.13059 97.126245 
L 354.844973 96.789245 
L 355.039805 96.686793 
L 355.299581 96.563184 
L 355.494412 96.47844 
L 355.94902 96.244458 
L 362.11869 93.154303 
L 362.313522 93.054771 
L 363.092848 92.644027 
L 363.417568 92.512918 
L 363.677343 92.410269 
L 363.872175 92.259978 
L 364.002063 92.17676 
L 364.196895 92.177458 
L 364.521614 92.000813 
L 365.041165 91.730479 
L 365.62566 91.445159 
L 365.95038 91.288145 
L 366.599819 90.962946 
L 366.794651 90.87198 
L 367.11937 90.712716 
L 367.379146 90.595304 
L 367.768809 90.393872 
L 368.353304 90.09904 
L 368.678024 89.964366 
L 369.002743 89.806286 
L 369.78207 89.459181 
L 370.301621 89.157981 
L 370.626341 89.008321 
L 371.990162 88.358648 
L 372.184994 88.28372 
L 372.379826 88.184333 
L 372.639601 88.075986 
L 373.224096 87.81002 
L 373.418928 87.65936 
L 373.61376 87.6246 
L 373.873535 87.448942 
L 374.003423 87.470467 
L 374.328143 87.253813 
L 374.652862 87.077379 
L 375.302301 86.814531 
L 375.562077 86.653846 
L 375.756908 86.575931 
L 375.95174 86.453072 
L 376.146572 86.436718 
L 376.536235 86.2318 
L 377.640282 85.694144 
L 377.835113 85.634898 
L 378.094889 85.414429 
L 378.28972 85.400311 
L 378.549496 85.24956 
L 378.809272 85.113952 
L 379.913318 84.636857 
L 380.043206 84.613333 
L 380.367925 84.41944 
L 380.95242 84.167999 
L 381.926579 83.670432 
L 387.381866 81.158219 
L 387.706586 81.013217 
L 389.460071 80.227462 
L 398.487273 76.18988 
L 398.487273 76.18988 
" clip-path="url(#p5e7a6904cd)" style="fill: none; stroke: #ff0000; stroke-width: 1.5; stroke-linecap: square"/>
   </g>
   <g id="patch_3">
    <path d="M 57.6 307.584 
L 57.6 41.472 
" style="fill: none; stroke: #000000; stroke-width: 0.8; stroke-linejoin: miter; stroke-linecap: square"/>
   </g>
   <g id="patch_4">
    <path d="M 414.72 307.584 
L 414.72 41.472 
" style="fill: none; stroke: #000000; stroke-width: 0.8; stroke-linejoin: miter; stroke-linecap: square"/>
   </g>
   <g id="patch_5">
    <path d="M 57.6 307.584 
L 414.72 307.584 
" style="fill: none; stroke: #000000; stroke-width: 0.8; stroke-linejoin: miter; stroke-linecap: square"/>
   </g>
   <g id="patch_6">
    <path d="M 57.6 41.472 
L 414.72 41.472 
" style="fill: none; stroke: #000000; stroke-width: 0.8; stroke-linejoin: miter; stroke-linecap: square"/>
   </g>
   <g id="text_17">
    <!-- Script19_loss -->
    <g transform="translate(196.532813 35.472) scale(0.12 -0.12)">
     <defs>
      <path id="DejaVuSans-53" d="M 3425 4513 
L 3425 3897 
Q 3066 4069 2747 4153 
Q 2428 4238 2131 4238 
Q 1616 4238 1336 4038 
Q 1056 3838 1056 3469 
Q 1056 3159 1242 3001 
Q 1428 2844 1947 2747 
L 2328 2669 
Q 3034 2534 3370 2195 
Q 3706 1856 3706 1288 
Q 3706 609 3251 259 
Q 2797 -91 1919 -91 
Q 1588 -91 1214 -16 
Q 841 59 441 206 
L 441 856 
Q 825 641 1194 531 
Q 1563 422 1919 422 
Q 2459 422 2753 634 
Q 3047 847 3047 1241 
Q 3047 1584 2836 1778 
Q 2625 1972 2144 2069 
L 1759 2144 
Q 1053 2284 737 2584 
Q 422 2884 422 3419 
Q 422 4038 858 4394 
Q 1294 4750 2059 4750 
Q 2388 4750 2728 4690 
Q 3069 4631 3425 4513 
z
" transform="scale(0.015625)"/>
      <path id="DejaVuSans-72" d="M 2631 2963 
Q 2534 3019 2420 3045 
Q 2306 3072 2169 3072 
Q 1681 3072 1420 2755 
Q 1159 2438 1159 1844 
L 1159 0 
L 581 0 
L 581 3500 
L 1159 3500 
L 1159 2956 
Q 1341 3275 1631 3429 
Q 1922 3584 2338 3584 
Q 2397 3584 2469 3576 
Q 2541 3569 2628 3553 
L 2631 2963 
z
" transform="scale(0.015625)"/>
      <path id="DejaVuSans-69" d="M 603 3500 
L 1178 3500 
L 1178 0 
L 603 0 
L 603 3500 
z
M 603 4863 
L 1178 4863 
L 1178 4134 
L 603 4134 
L 603 4863 
z
" transform="scale(0.015625)"/>
      <path id="DejaVuSans-74" d="M 1172 4494 
L 1172 3500 
L 2356 3500 
L 2356 3053 
L 1172 3053 
L 1172 1153 
Q 1172 725 1289 603 
Q 1406 481 1766 481 
L 2356 481 
L 2356 0 
L 1766 0 
Q 1100 0 847 248 
Q 594 497 594 1153 
L 594 3053 
L 172 3053 
L 172 3500 
L 594 3500 
L 594 4494 
L 1172 4494 
z
" transform="scale(0.015625)"/>
      <path id="DejaVuSans-39" d="M 703 97 
L 703 672 
Q 941 559 1184 500 
Q 1428 441 1663 441 
Q 2288 441 2617 861 
Q 2947 1281 2994 2138 
Q 2813 1869 2534 1725 
Q 2256 1581 1919 1581 
Q 1219 1581 811 2004 
Q 403 2428 403 3163 
Q 403 3881 828 4315 
Q 1253 4750 1959 4750 
Q 2769 4750 3195 4129 
Q 3622 3509 3622 2328 
Q 3622 1225 3098 567 
Q 2575 -91 1691 -91 
Q 1453 -91 1209 -44 
Q 966 3 703 97 
z
M 1959 2075 
Q 2384 2075 2632 2365 
Q 2881 2656 2881 3163 
Q 2881 3666 2632 3958 
Q 2384 4250 1959 4250 
Q 1534 4250 1286 3958 
Q 1038 3666 1038 3163 
Q 1038 2656 1286 2365 
Q 1534 2075 1959 2075 
z
" transform="scale(0.015625)"/>
      <path id="DejaVuSans-5f" d="M 3263 -1063 
L 3263 -1509 
L -63 -1509 
L -63 -1063 
L 3263 -1063 
z
" transform="scale(0.015625)"/>
     </defs>
     <use xlink:href="#DejaVuSans-53"/>
     <use xlink:href="#DejaVuSans-63" x="63.476562"/>
     <use xlink:href="#DejaVuSans-72" x="118.457031"/>
     <use xlink:href="#DejaVuSans-69" x="159.570312"/>
     <use xlink:href="#DejaVuSans-70" x="187.353516"/>
     <use xlink:href="#DejaVuSans-74" x="250.830078"/>
     <use xlink:href="#DejaVuSans-31" x="290.039062"/>
     <use xlink:href="#DejaVuSans-39" x="353.662109"/>
     <use xlink:href="#DejaVuSans-5f" x="417.285156"/>
     <use xlink:href="#DejaVuSans-6c" x="467.285156"/>
     <use xlink:href="#DejaVuSans-6f" x="495.068359"/>
     <use xlink:href="#DejaVuSans-73" x="556.25"/>
     <use xlink:href="#DejaVuSans-73" x="608.349609"/>
    </g>
   </g>
   <g id="legend_1">
    <g id="patch_7">
     <path d="M 64.6 93.506375 
L 164.295312 93.506375 
Q 166.295312 93.506375 166.295312 91.506375 
L 166.295312 48.472 
Q 166.295312 46.472 164.295312 46.472 
L 64.6 46.472 
Q 62.6 46.472 62.6 48.472 
L 62.6 91.506375 
Q 62.6 93.506375 64.6 93.506375 
z
" style="fill: #ffffff; opacity: 0.8; stroke: #cccccc; stroke-linejoin: miter"/>
    </g>
    <g id="line2d_18">
     <path d="M 66.6 54.570438 
L 76.6 54.570438 
L 86.6 54.570438 
" style="fill: none; stroke: #0000ff; stroke-width: 1.5; stroke-linecap: square"/>
    </g>
    <g id="text_18">
     <!-- training set -->
     <g transform="translate(94.6 58.070438) scale(0.1 -0.1)">
      <defs>
       <path id="DejaVuSans-61" d="M 2194 1759 
Q 1497 1759 1228 1600 
Q 959 1441 959 1056 
Q 959 750 1161 570 
Q 1363 391 1709 391 
Q 2188 391 2477 730 
Q 2766 1069 2766 1631 
L 2766 1759 
L 2194 1759 
z
M 3341 1997 
L 3341 0 
L 2766 0 
L 2766 531 
Q 2569 213 2275 61 
Q 1981 -91 1556 -91 
Q 1019 -91 701 211 
Q 384 513 384 1019 
Q 384 1609 779 1909 
Q 1175 2209 1959 2209 
L 2766 2209 
L 2766 2266 
Q 2766 2663 2505 2880 
Q 2244 3097 1772 3097 
Q 1472 3097 1187 3025 
Q 903 2953 641 2809 
L 641 3341 
Q 956 3463 1253 3523 
Q 1550 3584 1831 3584 
Q 2591 3584 2966 3190 
Q 3341 2797 3341 1997 
z
" transform="scale(0.015625)"/>
       <path id="DejaVuSans-6e" d="M 3513 2113 
L 3513 0 
L 2938 0 
L 2938 2094 
Q 2938 2591 2744 2837 
Q 2550 3084 2163 3084 
Q 1697 3084 1428 2787 
Q 1159 2491 1159 1978 
L 1159 0 
L 581 0 
L 581 3500 
L 1159 3500 
L 1159 2956 
Q 1366 3272 1645 3428 
Q 1925 3584 2291 3584 
Q 2894 3584 3203 3211 
Q 3513 2838 3513 2113 
z
" transform="scale(0.015625)"/>
       <path id="DejaVuSans-67" d="M 2906 1791 
Q 2906 2416 2648 2759 
Q 2391 3103 1925 3103 
Q 1463 3103 1205 2759 
Q 947 2416 947 1791 
Q 947 1169 1205 825 
Q 1463 481 1925 481 
Q 2391 481 2648 825 
Q 2906 1169 2906 1791 
z
M 3481 434 
Q 3481 -459 3084 -895 
Q 2688 -1331 1869 -1331 
Q 1566 -1331 1297 -1286 
Q 1028 -1241 775 -1147 
L 775 -588 
Q 1028 -725 1275 -790 
Q 1522 -856 1778 -856 
Q 2344 -856 2625 -561 
Q 2906 -266 2906 331 
L 2906 616 
Q 2728 306 2450 153 
Q 2172 0 1784 0 
Q 1141 0 747 490 
Q 353 981 353 1791 
Q 353 2603 747 3093 
Q 1141 3584 1784 3584 
Q 2172 3584 2450 3431 
Q 2728 3278 2906 2969 
L 2906 3500 
L 3481 3500 
L 3481 434 
z
" transform="scale(0.015625)"/>
       <path id="DejaVuSans-20" transform="scale(0.015625)"/>
      </defs>
      <use xlink:href="#DejaVuSans-74"/>
      <use xlink:href="#DejaVuSans-72" x="39.208984"/>
      <use xlink:href="#DejaVuSans-61" x="80.322266"/>
      <use xlink:href="#DejaVuSans-69" x="141.601562"/>
      <use xlink:href="#DejaVuSans-6e" x="169.384766"/>
      <use xlink:href="#DejaVuSans-69" x="232.763672"/>
      <use xlink:href="#DejaVuSans-6e" x="260.546875"/>
      <use xlink:href="#DejaVuSans-67" x="323.925781"/>
      <use xlink:href="#DejaVuSans-20" x="387.402344"/>
      <use xlink:href="#DejaVuSans-73" x="419.189453"/>
      <use xlink:href="#DejaVuSans-65" x="471.289062"/>
      <use xlink:href="#DejaVuSans-74" x="532.8125"/>
     </g>
    </g>
    <g id="line2d_19">
     <path d="M 66.6 69.248563 
L 76.6 69.248563 
L 86.6 69.248563 
" style="fill: none; stroke: #008000; stroke-width: 1.5; stroke-linecap: square"/>
    </g>
    <g id="text_19">
     <!-- validation set -->
     <g transform="translate(94.6 72.748563) scale(0.1 -0.1)">
      <defs>
       <path id="DejaVuSans-76" d="M 191 3500 
L 800 3500 
L 1894 563 
L 2988 3500 
L 3597 3500 
L 2284 0 
L 1503 0 
L 191 3500 
z
" transform="scale(0.015625)"/>
       <path id="DejaVuSans-64" d="M 2906 2969 
L 2906 4863 
L 3481 4863 
L 3481 0 
L 2906 0 
L 2906 525 
Q 2725 213 2448 61 
Q 2172 -91 1784 -91 
Q 1150 -91 751 415 
Q 353 922 353 1747 
Q 353 2572 751 3078 
Q 1150 3584 1784 3584 
Q 2172 3584 2448 3432 
Q 2725 3281 2906 2969 
z
M 947 1747 
Q 947 1113 1208 752 
Q 1469 391 1925 391 
Q 2381 391 2643 752 
Q 2906 1113 2906 1747 
Q 2906 2381 2643 2742 
Q 2381 3103 1925 3103 
Q 1469 3103 1208 2742 
Q 947 2381 947 1747 
z
" transform="scale(0.015625)"/>
      </defs>
      <use xlink:href="#DejaVuSans-76"/>
      <use xlink:href="#DejaVuSans-61" x="59.179688"/>
      <use xlink:href="#DejaVuSans-6c" x="120.458984"/>
      <use xlink:href="#DejaVuSans-69" x="148.242188"/>
      <use xlink:href="#DejaVuSans-64" x="176.025391"/>
      <use xlink:href="#DejaVuSans-61" x="239.501953"/>
      <use xlink:href="#DejaVuSans-74" x="300.78125"/>
      <use xlink:href="#DejaVuSans-69" x="339.990234"/>
      <use xlink:href="#DejaVuSans-6f" x="367.773438"/>
      <use xlink:href="#DejaVuSans-6e" x="428.955078"/>
      <use xlink:href="#DejaVuSans-20" x="492.333984"/>
      <use xlink:href="#DejaVuSans-73" x="524.121094"/>
      <use xlink:href="#DejaVuSans-65" x="576.220703"/>
      <use xlink:href="#DejaVuSans-74" x="637.744141"/>
     </g>
    </g>
    <g id="line2d_20">
     <path d="M 66.6 83.926688 
L 76.6 83.926688 
L 86.6 83.926688 
" style="fill: none; stroke: #ff0000; stroke-width: 1.5; stroke-linecap: square"/>
    </g>
    <g id="text_20">
     <!-- test set -->
     <g transform="translate(94.6 87.426688) scale(0.1 -0.1)">
      <use xlink:href="#DejaVuSans-74"/>
      <use xlink:href="#DejaVuSans-65" x="39.208984"/>
      <use xlink:href="#DejaVuSans-73" x="100.732422"/>
      <use xlink:href="#DejaVuSans-74" x="152.832031"/>
      <use xlink:href="#DejaVuSans-20" x="192.041016"/>
      <use xlink:href="#DejaVuSans-73" x="223.828125"/>
      <use xlink:href="#DejaVuSans-65" x="275.927734"/>
      <use xlink:href="#DejaVuSans-74" x="337.451172"/>
     </g>
    </g>
   </g>
  </g>
 </g>
 <defs>
  <clipPath id="p5e7a6904cd">
   <rect x="57.6" y="41.472" width="357.12" height="266.112"/>
  </clipPath>
 </defs>
</svg>
