<?xml version="1.0" encoding="utf-8" standalone="no"?>
<!DOCTYPE svg PUBLIC "-//W3C//DTD SVG 1.1//EN"
  "http://www.w3.org/Graphics/SVG/1.1/DTD/svg11.dtd">
<svg xmlns:xlink="http://www.w3.org/1999/xlink" width="460.8pt" height="345.6pt" viewBox="0 0 460.8 345.6" xmlns="http://www.w3.org/2000/svg" version="1.1">
 <metadata>
  <rdf:RDF xmlns:dc="http://purl.org/dc/elements/1.1/" xmlns:cc="http://creativecommons.org/ns#" xmlns:rdf="http://www.w3.org/1999/02/22-rdf-syntax-ns#">
   <cc:Work>
    <dc:type rdf:resource="http://purl.org/dc/dcmitype/StillImage"/>
    <dc:date>2023-06-14T03:53:25.654739</dc:date>
    <dc:format>image/svg+xml</dc:format>
    <dc:creator>
     <cc:Agent>
      <dc:title>Matplotlib v3.7.1, https://matplotlib.org/</dc:title>
     </cc:Agent>
    </dc:creator>
   </cc:Work>
  </rdf:RDF>
 </metadata>
 <defs>
  <style type="text/css">*{stroke-linejoin: round; stroke-linecap: butt}</style>
 </defs>
 <g id="figure_1">
  <g id="patch_1">
   <path d="M 0 345.6 
L 460.8 345.6 
L 460.8 0 
L 0 0 
z
" style="fill: #ffffff"/>
  </g>
  <g id="axes_1">
   <g id="patch_2">
    <path d="M 57.6 307.584 
L 414.72 307.584 
L 414.72 41.472 
L 57.6 41.472 
z
" style="fill: #ffffff"/>
   </g>
   <g id="matplotlib.axis_1">
    <g id="xtick_1">
     <g id="line2d_1">
      <defs>
       <path id="m296ef6fd1c" d="M 0 0 
L 0 3.5 
" style="stroke: #000000; stroke-width: 0.8"/>
      </defs>
      <g>
       <use xlink:href="#m296ef6fd1c" x="73.767783" y="307.584" style="stroke: #000000; stroke-width: 0.8"/>
      </g>
     </g>
     <g id="text_1">
      <!-- 0 -->
      <g transform="translate(70.586533 322.182437) scale(0.1 -0.1)">
       <defs>
        <path id="DejaVuSans-30" d="M 2034 4250 
Q 1547 4250 1301 3770 
Q 1056 3291 1056 2328 
Q 1056 1369 1301 889 
Q 1547 409 2034 409 
Q 2525 409 2770 889 
Q 3016 1369 3016 2328 
Q 3016 3291 2770 3770 
Q 2525 4250 2034 4250 
z
M 2034 4750 
Q 2819 4750 3233 4129 
Q 3647 3509 3647 2328 
Q 3647 1150 3233 529 
Q 2819 -91 2034 -91 
Q 1250 -91 836 529 
Q 422 1150 422 2328 
Q 422 3509 836 4129 
Q 1250 4750 2034 4750 
z
" transform="scale(0.015625)"/>
       </defs>
       <use xlink:href="#DejaVuSans-30"/>
      </g>
     </g>
    </g>
    <g id="xtick_2">
     <g id="line2d_2">
      <g>
       <use xlink:href="#m296ef6fd1c" x="138.711681" y="307.584" style="stroke: #000000; stroke-width: 0.8"/>
      </g>
     </g>
     <g id="text_2">
      <!-- 1000 -->
      <g transform="translate(125.986681 322.182437) scale(0.1 -0.1)">
       <defs>
        <path id="DejaVuSans-31" d="M 794 531 
L 1825 531 
L 1825 4091 
L 703 3866 
L 703 4441 
L 1819 4666 
L 2450 4666 
L 2450 531 
L 3481 531 
L 3481 0 
L 794 0 
L 794 531 
z
" transform="scale(0.015625)"/>
       </defs>
       <use xlink:href="#DejaVuSans-31"/>
       <use xlink:href="#DejaVuSans-30" x="63.623047"/>
       <use xlink:href="#DejaVuSans-30" x="127.246094"/>
       <use xlink:href="#DejaVuSans-30" x="190.869141"/>
      </g>
     </g>
    </g>
    <g id="xtick_3">
     <g id="line2d_3">
      <g>
       <use xlink:href="#m296ef6fd1c" x="203.655579" y="307.584" style="stroke: #000000; stroke-width: 0.8"/>
      </g>
     </g>
     <g id="text_3">
      <!-- 2000 -->
      <g transform="translate(190.930579 322.182437) scale(0.1 -0.1)">
       <defs>
        <path id="DejaVuSans-32" d="M 1228 531 
L 3431 531 
L 3431 0 
L 469 0 
L 469 531 
Q 828 903 1448 1529 
Q 2069 2156 2228 2338 
Q 2531 2678 2651 2914 
Q 2772 3150 2772 3378 
Q 2772 3750 2511 3984 
Q 2250 4219 1831 4219 
Q 1534 4219 1204 4116 
Q 875 4013 500 3803 
L 500 4441 
Q 881 4594 1212 4672 
Q 1544 4750 1819 4750 
Q 2544 4750 2975 4387 
Q 3406 4025 3406 3419 
Q 3406 3131 3298 2873 
Q 3191 2616 2906 2266 
Q 2828 2175 2409 1742 
Q 1991 1309 1228 531 
z
" transform="scale(0.015625)"/>
       </defs>
       <use xlink:href="#DejaVuSans-32"/>
       <use xlink:href="#DejaVuSans-30" x="63.623047"/>
       <use xlink:href="#DejaVuSans-30" x="127.246094"/>
       <use xlink:href="#DejaVuSans-30" x="190.869141"/>
      </g>
     </g>
    </g>
    <g id="xtick_4">
     <g id="line2d_4">
      <g>
       <use xlink:href="#m296ef6fd1c" x="268.599477" y="307.584" style="stroke: #000000; stroke-width: 0.8"/>
      </g>
     </g>
     <g id="text_4">
      <!-- 3000 -->
      <g transform="translate(255.874477 322.182437) scale(0.1 -0.1)">
       <defs>
        <path id="DejaVuSans-33" d="M 2597 2516 
Q 3050 2419 3304 2112 
Q 3559 1806 3559 1356 
Q 3559 666 3084 287 
Q 2609 -91 1734 -91 
Q 1441 -91 1130 -33 
Q 819 25 488 141 
L 488 750 
Q 750 597 1062 519 
Q 1375 441 1716 441 
Q 2309 441 2620 675 
Q 2931 909 2931 1356 
Q 2931 1769 2642 2001 
Q 2353 2234 1838 2234 
L 1294 2234 
L 1294 2753 
L 1863 2753 
Q 2328 2753 2575 2939 
Q 2822 3125 2822 3475 
Q 2822 3834 2567 4026 
Q 2313 4219 1838 4219 
Q 1578 4219 1281 4162 
Q 984 4106 628 3988 
L 628 4550 
Q 988 4650 1302 4700 
Q 1616 4750 1894 4750 
Q 2613 4750 3031 4423 
Q 3450 4097 3450 3541 
Q 3450 3153 3228 2886 
Q 3006 2619 2597 2516 
z
" transform="scale(0.015625)"/>
       </defs>
       <use xlink:href="#DejaVuSans-33"/>
       <use xlink:href="#DejaVuSans-30" x="63.623047"/>
       <use xlink:href="#DejaVuSans-30" x="127.246094"/>
       <use xlink:href="#DejaVuSans-30" x="190.869141"/>
      </g>
     </g>
    </g>
    <g id="xtick_5">
     <g id="line2d_5">
      <g>
       <use xlink:href="#m296ef6fd1c" x="333.543375" y="307.584" style="stroke: #000000; stroke-width: 0.8"/>
      </g>
     </g>
     <g id="text_5">
      <!-- 4000 -->
      <g transform="translate(320.818375 322.182437) scale(0.1 -0.1)">
       <defs>
        <path id="DejaVuSans-34" d="M 2419 4116 
L 825 1625 
L 2419 1625 
L 2419 4116 
z
M 2253 4666 
L 3047 4666 
L 3047 1625 
L 3713 1625 
L 3713 1100 
L 3047 1100 
L 3047 0 
L 2419 0 
L 2419 1100 
L 313 1100 
L 313 1709 
L 2253 4666 
z
" transform="scale(0.015625)"/>
       </defs>
       <use xlink:href="#DejaVuSans-34"/>
       <use xlink:href="#DejaVuSans-30" x="63.623047"/>
       <use xlink:href="#DejaVuSans-30" x="127.246094"/>
       <use xlink:href="#DejaVuSans-30" x="190.869141"/>
      </g>
     </g>
    </g>
    <g id="xtick_6">
     <g id="line2d_6">
      <g>
       <use xlink:href="#m296ef6fd1c" x="398.487273" y="307.584" style="stroke: #000000; stroke-width: 0.8"/>
      </g>
     </g>
     <g id="text_6">
      <!-- 5000 -->
      <g transform="translate(385.762273 322.182437) scale(0.1 -0.1)">
       <defs>
        <path id="DejaVuSans-35" d="M 691 4666 
L 3169 4666 
L 3169 4134 
L 1269 4134 
L 1269 2991 
Q 1406 3038 1543 3061 
Q 1681 3084 1819 3084 
Q 2600 3084 3056 2656 
Q 3513 2228 3513 1497 
Q 3513 744 3044 326 
Q 2575 -91 1722 -91 
Q 1428 -91 1123 -41 
Q 819 9 494 109 
L 494 744 
Q 775 591 1075 516 
Q 1375 441 1709 441 
Q 2250 441 2565 725 
Q 2881 1009 2881 1497 
Q 2881 1984 2565 2268 
Q 2250 2553 1709 2553 
Q 1456 2553 1204 2497 
Q 953 2441 691 2322 
L 691 4666 
z
" transform="scale(0.015625)"/>
       </defs>
       <use xlink:href="#DejaVuSans-35"/>
       <use xlink:href="#DejaVuSans-30" x="63.623047"/>
       <use xlink:href="#DejaVuSans-30" x="127.246094"/>
       <use xlink:href="#DejaVuSans-30" x="190.869141"/>
      </g>
     </g>
    </g>
    <g id="text_7">
     <!-- epoch -->
     <g transform="translate(220.931875 335.860562) scale(0.1 -0.1)">
      <defs>
       <path id="DejaVuSans-65" d="M 3597 1894 
L 3597 1613 
L 953 1613 
Q 991 1019 1311 708 
Q 1631 397 2203 397 
Q 2534 397 2845 478 
Q 3156 559 3463 722 
L 3463 178 
Q 3153 47 2828 -22 
Q 2503 -91 2169 -91 
Q 1331 -91 842 396 
Q 353 884 353 1716 
Q 353 2575 817 3079 
Q 1281 3584 2069 3584 
Q 2775 3584 3186 3129 
Q 3597 2675 3597 1894 
z
M 3022 2063 
Q 3016 2534 2758 2815 
Q 2500 3097 2075 3097 
Q 1594 3097 1305 2825 
Q 1016 2553 972 2059 
L 3022 2063 
z
" transform="scale(0.015625)"/>
       <path id="DejaVuSans-70" d="M 1159 525 
L 1159 -1331 
L 581 -1331 
L 581 3500 
L 1159 3500 
L 1159 2969 
Q 1341 3281 1617 3432 
Q 1894 3584 2278 3584 
Q 2916 3584 3314 3078 
Q 3713 2572 3713 1747 
Q 3713 922 3314 415 
Q 2916 -91 2278 -91 
Q 1894 -91 1617 61 
Q 1341 213 1159 525 
z
M 3116 1747 
Q 3116 2381 2855 2742 
Q 2594 3103 2138 3103 
Q 1681 3103 1420 2742 
Q 1159 2381 1159 1747 
Q 1159 1113 1420 752 
Q 1681 391 2138 391 
Q 2594 391 2855 752 
Q 3116 1113 3116 1747 
z
" transform="scale(0.015625)"/>
       <path id="DejaVuSans-6f" d="M 1959 3097 
Q 1497 3097 1228 2736 
Q 959 2375 959 1747 
Q 959 1119 1226 758 
Q 1494 397 1959 397 
Q 2419 397 2687 759 
Q 2956 1122 2956 1747 
Q 2956 2369 2687 2733 
Q 2419 3097 1959 3097 
z
M 1959 3584 
Q 2709 3584 3137 3096 
Q 3566 2609 3566 1747 
Q 3566 888 3137 398 
Q 2709 -91 1959 -91 
Q 1206 -91 779 398 
Q 353 888 353 1747 
Q 353 2609 779 3096 
Q 1206 3584 1959 3584 
z
" transform="scale(0.015625)"/>
       <path id="DejaVuSans-63" d="M 3122 3366 
L 3122 2828 
Q 2878 2963 2633 3030 
Q 2388 3097 2138 3097 
Q 1578 3097 1268 2742 
Q 959 2388 959 1747 
Q 959 1106 1268 751 
Q 1578 397 2138 397 
Q 2388 397 2633 464 
Q 2878 531 3122 666 
L 3122 134 
Q 2881 22 2623 -34 
Q 2366 -91 2075 -91 
Q 1284 -91 818 406 
Q 353 903 353 1747 
Q 353 2603 823 3093 
Q 1294 3584 2113 3584 
Q 2378 3584 2631 3529 
Q 2884 3475 3122 3366 
z
" transform="scale(0.015625)"/>
       <path id="DejaVuSans-68" d="M 3513 2113 
L 3513 0 
L 2938 0 
L 2938 2094 
Q 2938 2591 2744 2837 
Q 2550 3084 2163 3084 
Q 1697 3084 1428 2787 
Q 1159 2491 1159 1978 
L 1159 0 
L 581 0 
L 581 4863 
L 1159 4863 
L 1159 2956 
Q 1366 3272 1645 3428 
Q 1925 3584 2291 3584 
Q 2894 3584 3203 3211 
Q 3513 2838 3513 2113 
z
" transform="scale(0.015625)"/>
      </defs>
      <use xlink:href="#DejaVuSans-65"/>
      <use xlink:href="#DejaVuSans-70" x="61.523438"/>
      <use xlink:href="#DejaVuSans-6f" x="125"/>
      <use xlink:href="#DejaVuSans-63" x="186.181641"/>
      <use xlink:href="#DejaVuSans-68" x="241.162109"/>
     </g>
    </g>
   </g>
   <g id="matplotlib.axis_2">
    <g id="ytick_1">
     <g id="line2d_7">
      <defs>
       <path id="m7792593707" d="M 0 0 
L -3.5 0 
" style="stroke: #000000; stroke-width: 0.8"/>
      </defs>
      <g>
       <use xlink:href="#m7792593707" x="57.6" y="295.506335" style="stroke: #000000; stroke-width: 0.8"/>
      </g>
     </g>
     <g id="text_8">
      <!-- 0.0 -->
      <g transform="translate(34.696875 299.305554) scale(0.1 -0.1)">
       <defs>
        <path id="DejaVuSans-2e" d="M 684 794 
L 1344 794 
L 1344 0 
L 684 0 
L 684 794 
z
" transform="scale(0.015625)"/>
       </defs>
       <use xlink:href="#DejaVuSans-30"/>
       <use xlink:href="#DejaVuSans-2e" x="63.623047"/>
       <use xlink:href="#DejaVuSans-30" x="95.410156"/>
      </g>
     </g>
    </g>
    <g id="ytick_2">
     <g id="line2d_8">
      <g>
       <use xlink:href="#m7792593707" x="57.6" y="264.400735" style="stroke: #000000; stroke-width: 0.8"/>
      </g>
     </g>
     <g id="text_9">
      <!-- 2.5 -->
      <g transform="translate(34.696875 268.199954) scale(0.1 -0.1)">
       <use xlink:href="#DejaVuSans-32"/>
       <use xlink:href="#DejaVuSans-2e" x="63.623047"/>
       <use xlink:href="#DejaVuSans-35" x="95.410156"/>
      </g>
     </g>
    </g>
    <g id="ytick_3">
     <g id="line2d_9">
      <g>
       <use xlink:href="#m7792593707" x="57.6" y="233.295135" style="stroke: #000000; stroke-width: 0.8"/>
      </g>
     </g>
     <g id="text_10">
      <!-- 5.0 -->
      <g transform="translate(34.696875 237.094353) scale(0.1 -0.1)">
       <use xlink:href="#DejaVuSans-35"/>
       <use xlink:href="#DejaVuSans-2e" x="63.623047"/>
       <use xlink:href="#DejaVuSans-30" x="95.410156"/>
      </g>
     </g>
    </g>
    <g id="ytick_4">
     <g id="line2d_10">
      <g>
       <use xlink:href="#m7792593707" x="57.6" y="202.189534" style="stroke: #000000; stroke-width: 0.8"/>
      </g>
     </g>
     <g id="text_11">
      <!-- 7.5 -->
      <g transform="translate(34.696875 205.988753) scale(0.1 -0.1)">
       <defs>
        <path id="DejaVuSans-37" d="M 525 4666 
L 3525 4666 
L 3525 4397 
L 1831 0 
L 1172 0 
L 2766 4134 
L 525 4134 
L 525 4666 
z
" transform="scale(0.015625)"/>
       </defs>
       <use xlink:href="#DejaVuSans-37"/>
       <use xlink:href="#DejaVuSans-2e" x="63.623047"/>
       <use xlink:href="#DejaVuSans-35" x="95.410156"/>
      </g>
     </g>
    </g>
    <g id="ytick_5">
     <g id="line2d_11">
      <g>
       <use xlink:href="#m7792593707" x="57.6" y="171.083934" style="stroke: #000000; stroke-width: 0.8"/>
      </g>
     </g>
     <g id="text_12">
      <!-- 10.0 -->
      <g transform="translate(28.334375 174.883153) scale(0.1 -0.1)">
       <use xlink:href="#DejaVuSans-31"/>
       <use xlink:href="#DejaVuSans-30" x="63.623047"/>
       <use xlink:href="#DejaVuSans-2e" x="127.246094"/>
       <use xlink:href="#DejaVuSans-30" x="159.033203"/>
      </g>
     </g>
    </g>
    <g id="ytick_6">
     <g id="line2d_12">
      <g>
       <use xlink:href="#m7792593707" x="57.6" y="139.978334" style="stroke: #000000; stroke-width: 0.8"/>
      </g>
     </g>
     <g id="text_13">
      <!-- 12.5 -->
      <g transform="translate(28.334375 143.777552) scale(0.1 -0.1)">
       <use xlink:href="#DejaVuSans-31"/>
       <use xlink:href="#DejaVuSans-32" x="63.623047"/>
       <use xlink:href="#DejaVuSans-2e" x="127.246094"/>
       <use xlink:href="#DejaVuSans-35" x="159.033203"/>
      </g>
     </g>
    </g>
    <g id="ytick_7">
     <g id="line2d_13">
      <g>
       <use xlink:href="#m7792593707" x="57.6" y="108.872733" style="stroke: #000000; stroke-width: 0.8"/>
      </g>
     </g>
     <g id="text_14">
      <!-- 15.0 -->
      <g transform="translate(28.334375 112.671952) scale(0.1 -0.1)">
       <use xlink:href="#DejaVuSans-31"/>
       <use xlink:href="#DejaVuSans-35" x="63.623047"/>
       <use xlink:href="#DejaVuSans-2e" x="127.246094"/>
       <use xlink:href="#DejaVuSans-30" x="159.033203"/>
      </g>
     </g>
    </g>
    <g id="ytick_8">
     <g id="line2d_14">
      <g>
       <use xlink:href="#m7792593707" x="57.6" y="77.767133" style="stroke: #000000; stroke-width: 0.8"/>
      </g>
     </g>
     <g id="text_15">
      <!-- 17.5 -->
      <g transform="translate(28.334375 81.566352) scale(0.1 -0.1)">
       <use xlink:href="#DejaVuSans-31"/>
       <use xlink:href="#DejaVuSans-37" x="63.623047"/>
       <use xlink:href="#DejaVuSans-2e" x="127.246094"/>
       <use xlink:href="#DejaVuSans-35" x="159.033203"/>
      </g>
     </g>
    </g>
    <g id="ytick_9">
     <g id="line2d_15">
      <g>
       <use xlink:href="#m7792593707" x="57.6" y="46.661532" style="stroke: #000000; stroke-width: 0.8"/>
      </g>
     </g>
     <g id="text_16">
      <!-- 20.0 -->
      <g transform="translate(28.334375 50.460751) scale(0.1 -0.1)">
       <use xlink:href="#DejaVuSans-32"/>
       <use xlink:href="#DejaVuSans-30" x="63.623047"/>
       <use xlink:href="#DejaVuSans-2e" x="127.246094"/>
       <use xlink:href="#DejaVuSans-30" x="159.033203"/>
      </g>
     </g>
    </g>
    <g id="text_17">
     <!-- loss -->
     <g transform="translate(22.254688 184.185812) rotate(-90) scale(0.1 -0.1)">
      <defs>
       <path id="DejaVuSans-6c" d="M 603 4863 
L 1178 4863 
L 1178 0 
L 603 0 
L 603 4863 
z
" transform="scale(0.015625)"/>
       <path id="DejaVuSans-73" d="M 2834 3397 
L 2834 2853 
Q 2591 2978 2328 3040 
Q 2066 3103 1784 3103 
Q 1356 3103 1142 2972 
Q 928 2841 928 2578 
Q 928 2378 1081 2264 
Q 1234 2150 1697 2047 
L 1894 2003 
Q 2506 1872 2764 1633 
Q 3022 1394 3022 966 
Q 3022 478 2636 193 
Q 2250 -91 1575 -91 
Q 1294 -91 989 -36 
Q 684 19 347 128 
L 347 722 
Q 666 556 975 473 
Q 1284 391 1588 391 
Q 1994 391 2212 530 
Q 2431 669 2431 922 
Q 2431 1156 2273 1281 
Q 2116 1406 1581 1522 
L 1381 1569 
Q 847 1681 609 1914 
Q 372 2147 372 2553 
Q 372 3047 722 3315 
Q 1072 3584 1716 3584 
Q 2034 3584 2315 3537 
Q 2597 3491 2834 3397 
z
" transform="scale(0.015625)"/>
      </defs>
      <use xlink:href="#DejaVuSans-6c"/>
      <use xlink:href="#DejaVuSans-6f" x="27.783203"/>
      <use xlink:href="#DejaVuSans-73" x="88.964844"/>
      <use xlink:href="#DejaVuSans-73" x="141.064453"/>
     </g>
    </g>
   </g>
   <g id="line2d_16">
    <path d="M 73.832727 270.98074 
L 74.222391 271.625182 
L 74.806886 272.126468 
L 75.326437 272.635732 
L 76.04082 273.711932 
L 76.820147 275.391481 
L 77.989137 278.547563 
L 79.417902 282.266936 
L 80.392061 284.193741 
L 81.301276 285.525687 
L 82.275434 286.563776 
L 83.37948 287.401816 
L 84.678358 288.098281 
L 86.3669 288.743553 
L 88.70488 289.387247 
L 91.822187 290.00114 
L 96.303316 290.627662 
L 102.343098 291.228754 
L 111.305356 291.876251 
L 121.566492 292.411632 
L 151.960236 293.837335 
L 188.263875 294.717632 
L 214.566154 295.034832 
L 352.896656 295.471669 
L 398.487273 295.488 
L 398.487273 295.488 
" clip-path="url(#p795b8874e3)" style="fill: none; stroke: #0000ff; stroke-width: 1.5; stroke-linecap: square"/>
   </g>
   <g id="line2d_17">
    <path d="M 73.832727 271.407978 
L 75.326437 272.510746 
L 76.170708 273.653918 
L 77.014978 275.154786 
L 79.482846 280.216942 
L 80.846668 281.994451 
L 81.950715 282.822256 
L 82.924873 283.2445 
L 85.262853 283.400182 
L 87.470946 282.885873 
L 89.679038 282.047019 
L 90.068702 281.850847 
L 90.19859 281.82926 
L 90.523309 281.634652 
L 90.848029 281.520518 
L 95.848709 278.968956 
L 96.628035 278.540268 
L 97.082643 278.299531 
L 97.732082 277.918666 
L 97.991857 277.782367 
L 104.486247 273.71841 
L 105.070742 273.302111 
L 105.20063 273.22913 
L 105.590293 272.948357 
L 105.850069 272.778182 
L 106.044901 272.639609 
L 106.889171 271.990447 
L 107.278835 271.678173 
L 107.408722 271.626894 
L 107.668498 271.395653 
L 109.421983 270.049577 
L 109.746703 269.792696 
L 112.279515 267.794183 
L 113.318617 266.942968 
L 119.748063 262.058942 
L 119.813007 262.048607 
L 120.007839 261.885707 
L 120.397502 261.557367 
L 120.787165 261.330744 
L 121.111885 261.023365 
L 121.241773 261.008379 
L 121.566492 260.705702 
L 121.631436 260.748932 
L 121.956156 260.447359 
L 122.930314 259.730822 
L 123.060202 259.676073 
L 123.384921 259.41236 
L 123.514809 259.423971 
L 123.644697 259.233379 
L 123.709641 259.274408 
L 124.099304 258.877353 
L 124.229192 258.824076 
L 124.618855 258.583985 
L 124.813687 258.468076 
L 126.567172 257.233759 
L 126.69706 257.161665 
L 127.02178 256.907451 
L 127.151667 256.857244 
L 127.476387 256.594555 
L 128.060882 256.202178 
L 129.03504 255.449871 
L 129.294816 255.199496 
L 129.814367 254.778184 
L 130.268975 254.413408 
L 133.386282 252.306674 
L 133.451226 252.319914 
L 133.581113 252.091223 
L 133.646057 252.10774 
L 133.840889 251.95702 
L 133.970777 251.780543 
L 134.035721 251.668019 
L 134.100664 251.741225 
L 134.165608 251.806523 
L 134.36044 251.621336 
L 142.413483 245.745233 
L 142.543371 245.49171 
L 142.738203 245.58745 
L 142.933035 245.28916 
L 143.19281 245.172638 
L 143.712361 244.751578 
L 143.972137 244.55368 
L 144.166969 244.443659 
L 144.296856 244.195883 
L 144.426744 244.251634 
L 145.141127 243.72574 
L 145.206071 243.720929 
L 145.465847 243.43352 
L 146.310117 242.760086 
L 146.440005 242.626364 
L 146.764725 242.42274 
L 146.959556 242.245583 
L 147.34922 241.896472 
L 147.544051 241.938246 
L 147.738883 241.66151 
L 149.492368 240.264218 
L 150.141807 239.81754 
L 150.271695 239.730415 
L 150.531471 239.43883 
L 150.596415 239.503653 
L 150.661358 239.52319 
L 150.986078 239.163827 
L 151.18091 239.029126 
L 151.635517 238.617897 
L 151.765405 238.569236 
L 151.830349 238.582703 
L 152.155068 238.233788 
L 152.284956 238.113207 
L 152.739563 237.773743 
L 153.324058 237.37412 
L 153.51889 237.088064 
L 153.648778 237.098405 
L 154.103385 236.659529 
L 154.428105 236.448524 
L 154.622936 236.318421 
L 155.337319 235.630244 
L 155.467207 235.599339 
L 155.85687 235.197491 
L 155.986758 235.229849 
L 156.246534 234.902037 
L 157.090804 234.157882 
L 157.220692 234.098274 
L 157.35058 234.155729 
L 157.610356 233.773322 
L 157.870131 233.616367 
L 158.064963 233.457863 
L 158.194851 233.353242 
L 158.389682 233.172127 
L 158.584514 233.00489 
L 158.779346 232.803989 
L 158.909233 232.827122 
L 159.169009 232.457222 
L 159.298897 232.482295 
L 159.753504 232.010354 
L 160.208111 231.572279 
L 160.402943 231.430642 
L 160.532831 231.39959 
L 160.922494 230.911601 
L 161.052382 230.934176 
L 161.312158 230.624501 
L 161.571933 230.415306 
L 167.157109 225.321821 
L 167.286996 225.299964 
L 167.416884 225.233521 
L 167.741604 224.884469 
L 167.871491 224.783183 
L 168.131267 224.483849 
L 168.261155 224.420717 
L 168.84565 223.852058 
L 168.975538 223.826036 
L 169.495089 223.238309 
L 169.884752 222.843336 
L 170.01464 222.761047 
L 170.144528 222.791245 
L 171.118686 221.780845 
L 171.248574 221.699309 
L 171.573294 221.310151 
L 171.768125 221.197864 
L 171.962957 220.996127 
L 173.716442 219.380764 
L 173.84633 219.281198 
L 174.885432 218.384674 
L 175.01532 218.263571 
L 175.210152 217.983146 
L 175.404984 217.914893 
L 175.664759 217.578568 
L 175.859591 217.476124 
L 176.249254 217.109529 
L 176.638918 216.774918 
L 176.768805 216.683836 
L 177.158469 216.242859 
L 178.327459 215.14149 
L 178.522291 214.909886 
L 178.782066 214.735019 
L 179.496449 213.980927 
L 179.691281 213.824161 
L 180.080944 213.39317 
L 180.275776 213.27746 
L 180.600495 212.890355 
L 180.795327 212.802803 
L 181.18499 212.414861 
L 181.379822 212.180493 
L 181.769486 211.782571 
L 181.964317 211.680828 
L 182.353981 211.224408 
L 182.483868 211.21396 
L 182.938476 210.663818 
L 183.068363 210.597482 
L 186.120727 207.606975 
L 186.315558 207.490767 
L 186.575334 207.113023 
L 186.900053 206.886848 
L 187.224773 206.578734 
L 187.419605 206.371592 
L 187.939156 205.77687 
L 188.328819 205.392879 
L 188.653539 205.119544 
L 189.17309 204.624008 
L 189.367922 204.46042 
L 190.017361 203.714343 
L 190.277136 203.553519 
L 190.6668 203.096648 
L 190.926575 202.942226 
L 191.251295 202.52793 
L 192.095565 201.675411 
L 192.225453 201.669169 
L 192.939836 200.79687 
L 193.264555 200.471811 
L 195.212872 198.572718 
L 197.615797 196.193041 
L 197.745684 196.124183 
L 198.070404 195.693471 
L 198.200292 195.642092 
L 198.460067 195.401393 
L 199.564114 194.208935 
L 202.681421 191.154951 
L 202.811308 191.053178 
L 203.00614 190.788961 
L 203.136028 190.675986 
L 203.655579 190.102581 
L 203.850411 189.898643 
L 204.17513 189.63477 
L 206.058503 187.711697 
L 206.318279 187.443362 
L 206.513111 187.2663 
L 211.448847 182.235134 
L 211.773566 181.982131 
L 211.903454 181.900885 
L 212.358061 181.39559 
L 212.877613 180.908023 
L 213.202332 180.528565 
L 213.397164 180.412671 
L 214.176491 179.600359 
L 214.306378 179.541113 
L 214.760986 179.013166 
L 214.890873 178.922891 
L 216.709303 177.069908 
L 216.83919 176.950063 
L 217.16391 176.583338 
L 217.943237 175.923407 
L 218.138068 175.677024 
L 218.267956 175.590653 
L 218.592676 175.209878 
L 218.852451 174.993243 
L 219.372002 174.45947 
L 219.631778 174.219602 
L 219.891554 173.955409 
L 220.086385 173.811892 
L 220.411105 173.438735 
L 221.450207 172.425024 
L 221.580095 172.337608 
L 221.904814 171.920144 
L 222.489309 171.41225 
L 223.008861 170.898186 
L 224.047963 169.902036 
L 224.307739 169.64526 
L 224.697402 169.266169 
L 226.710663 167.258919 
L 226.970438 166.964528 
L 227.360102 166.655707 
L 228.853811 165.217247 
L 229.113587 165.00429 
L 230.802128 163.295336 
L 231.061904 163.094767 
L 235.283257 158.95672 
L 235.478089 158.756745 
L 235.737865 158.518099 
L 235.867752 158.425818 
L 236.387304 157.890799 
L 239.114947 155.13078 
L 240.024162 153.998292 
L 240.348881 153.76978 
L 241.063264 152.897331 
L 241.387984 152.605894 
L 241.712703 152.219305 
L 241.907535 152.08375 
L 242.297198 151.589965 
L 242.556974 151.358414 
L 242.81675 151.01421 
L 243.401245 150.448862 
L 245.089786 148.749127 
L 246.388664 147.570042 
L 247.297878 146.699492 
L 247.687542 146.345166 
L 248.142149 145.860909 
L 248.272037 145.804796 
L 248.98642 145.070525 
L 249.116308 145.056251 
L 249.311139 144.715001 
L 249.441027 144.624073 
L 249.635859 144.503421 
L 249.700803 144.51588 
L 250.15541 143.917569 
L 250.674961 143.777647 
L 251.064625 143.241298 
L 251.64912 142.647413 
L 251.843951 142.594657 
L 251.973839 142.555109 
L 252.103727 142.450072 
L 252.168671 142.465332 
L 252.428446 141.989357 
L 252.49339 142.026355 
L 257.364183 137.855083 
L 257.49407 137.787317 
L 257.753846 137.49257 
L 257.883734 137.378313 
L 258.013622 137.237323 
L 258.078566 137.284822 
L 258.143509 137.277228 
L 258.403285 136.928194 
L 258.728005 136.604364 
L 258.857892 136.52332 
L 259.052724 136.278717 
L 259.182612 136.220361 
L 260.026882 135.512445 
L 260.15677 135.470701 
L 260.351602 135.215288 
L 260.741265 135.014329 
L 261.001041 134.687448 
L 261.195873 134.58501 
L 261.32576 134.393223 
L 261.520592 134.18525 
L 261.975199 133.908479 
L 262.170031 133.699284 
L 262.559694 133.407491 
L 262.81947 133.164325 
L 263.079246 132.992187 
L 264.118348 132.072928 
L 264.248236 132.038125 
L 264.508011 131.753286 
L 265.352282 131.086508 
L 265.741945 130.702577 
L 265.936777 130.680032 
L 266.196553 130.378996 
L 268.274757 128.681254 
L 268.469589 128.538983 
L 268.794309 128.30392 
L 268.98914 128.163868 
L 269.248916 127.860945 
L 269.378804 127.806931 
L 269.508692 127.809008 
L 269.833411 127.438568 
L 271.521952 126.102521 
L 271.716784 125.879574 
L 271.911616 125.865916 
L 272.106447 125.729768 
L 272.236335 125.672788 
L 272.366223 125.491857 
L 272.431167 125.531596 
L 272.496111 125.623177 
L 272.561055 125.570279 
L 272.755886 125.349028 
L 272.885774 125.371929 
L 273.080606 125.301909 
L 273.275438 125.339215 
L 273.405325 125.236671 
L 273.600157 125.272731 
L 273.859933 125.121596 
L 274.054764 125.039971 
L 274.31454 124.852383 
L 274.704203 124.754051 
L 275.028923 124.520033 
L 275.288698 124.337548 
L 275.48353 124.142177 
L 275.80825 123.898108 
L 276.197913 123.441214 
L 276.457689 123.317869 
L 276.65252 123.206603 
L 276.782408 123.155544 
L 277.042184 122.769358 
L 277.237015 122.692705 
L 277.431847 122.696431 
L 277.561735 122.650984 
L 277.886454 122.175935 
L 278.211174 122.087606 
L 278.406006 121.962125 
L 278.925557 121.566648 
L 279.185332 121.391995 
L 279.380164 121.173034 
L 279.574996 121.060498 
L 279.964659 120.809239 
L 280.159491 120.654259 
L 280.289379 120.530807 
L 280.48421 120.420894 
L 280.614098 120.349272 
L 280.873874 120.144313 
L 281.003761 120.085696 
L 281.393425 119.732746 
L 281.718144 119.596479 
L 281.848032 119.537078 
L 282.042864 119.320313 
L 282.172752 119.286021 
L 282.432527 119.082023 
L 282.757247 118.834157 
L 283.017022 118.641871 
L 286.004442 116.689002 
L 286.134329 116.609928 
L 286.329161 116.315027 
L 286.523993 116.262841 
L 286.783768 116.129492 
L 286.913656 116.02747 
L 287.173432 115.767311 
L 287.433207 115.638353 
L 288.017702 115.158202 
L 288.212534 115.133865 
L 288.47231 114.897473 
L 288.602198 114.870811 
L 288.861973 114.628878 
L 289.056805 114.567864 
L 289.31658 114.332754 
L 289.511412 114.227765 
L 289.706244 114.088567 
L 289.836132 114.098439 
L 290.095907 113.85869 
L 290.290739 113.713238 
L 290.615458 113.522887 
L 290.745346 113.44774 
L 291.13501 113.139133 
L 293.732765 111.47254 
L 293.862653 111.370802 
L 294.317261 110.887399 
L 294.577036 110.841668 
L 295.096587 110.394682 
L 295.486251 110.159014 
L 296.005802 109.89386 
L 296.460409 109.571572 
L 296.655241 109.457245 
L 296.785129 109.368453 
L 296.97996 109.158866 
L 297.109848 109.181779 
L 297.434568 108.870004 
L 297.629399 108.777047 
L 298.213894 108.41521 
L 298.408726 108.338818 
L 298.863333 107.920879 
L 299.123109 107.856518 
L 299.252997 107.821692 
L 299.512772 107.533518 
L 303.539294 104.819895 
L 303.669182 104.763781 
L 303.79907 104.846391 
L 304.448509 104.284686 
L 304.64334 104.248708 
L 305.162891 103.845032 
L 305.292779 103.830117 
L 306.396826 103.074785 
L 306.656601 102.954679 
L 307.176152 102.539184 
L 307.370984 102.508357 
L 307.955479 102.093467 
L 308.150311 102.000772 
L 308.410086 101.759658 
L 308.669862 101.714211 
L 309.319301 101.207718 
L 309.773908 101.02159 
L 310.098628 100.787133 
L 310.228516 100.673672 
L 310.423347 100.485266 
L 310.618179 100.47073 
L 310.877954 100.313282 
L 311.007842 100.277875 
L 311.267618 99.97437 
L 311.397506 99.983151 
L 312.111889 99.461279 
L 312.241776 99.473631 
L 312.891215 98.981412 
L 313.086047 99.009309 
L 313.280879 98.826955 
L 313.410767 98.764695 
L 313.670542 98.477375 
L 313.80043 98.499908 
L 314.449869 97.9876 
L 314.774588 97.883276 
L 314.96942 97.754603 
L 315.099308 97.70441 
L 315.359083 97.545159 
L 315.553915 97.400941 
L 315.878635 97.171527 
L 316.268298 97.087362 
L 316.982681 96.549045 
L 317.112569 96.539849 
L 317.697064 96.058143 
L 317.891895 95.946011 
L 318.476391 95.59687 
L 318.671222 95.53315 
L 318.930998 95.336581 
L 319.060886 95.322911 
L 319.320661 95.144686 
L 319.450549 95.180047 
L 319.710325 94.894103 
L 319.840212 94.843318 
L 320.099988 94.607021 
L 320.29482 94.593992 
L 320.554595 94.340182 
L 320.684483 94.300503 
L 320.944259 94.160153 
L 321.074146 94.17603 
L 321.46381 93.897918 
L 322.502912 93.190405 
L 322.697744 93.120634 
L 322.892576 92.997941 
L 323.087407 92.910751 
L 323.282239 92.791547 
L 323.412127 92.78858 
L 323.996622 92.311407 
L 324.191454 92.310031 
L 324.711005 91.873225 
L 324.97078 91.788195 
L 325.490332 91.542429 
L 325.750107 91.309669 
L 327.763368 90.1663 
L 328.023144 90.030863 
L 333.413487 86.944486 
L 333.608319 86.842795 
L 333.868094 86.617914 
L 334.257758 86.485159 
L 335.426748 85.763478 
L 335.686523 85.595814 
L 336.595738 85.123506 
L 336.855514 84.965025 
L 337.115289 84.787038 
L 337.440009 84.640329 
L 343.544735 81.19921 
L 343.869455 81.063346 
L 344.194174 80.819977 
L 344.518894 80.616526 
L 346.662042 79.499048 
L 348.610359 78.471323 
L 348.805191 78.357933 
L 349.12991 78.138107 
L 354.844973 75.101257 
L 355.039805 75.060605 
L 355.429468 74.762179 
L 356.013964 74.451555 
L 356.598459 74.123559 
L 357.507673 73.672633 
L 357.897337 73.473192 
L 358.351944 73.265825 
L 358.546776 73.149539 
L 358.936439 72.864142 
L 362.183634 71.312374 
L 362.833073 70.924812 
L 370.171733 67.192363 
L 370.431509 67.05339 
L 370.691284 66.964349 
L 370.95106 66.800838 
L 371.600499 66.493204 
L 371.860275 66.348915 
L 372.12005 66.244496 
L 372.379826 66.132174 
L 376.146572 64.245338 
L 376.406347 64.112369 
L 376.666123 64.018534 
L 376.860955 63.909748 
L 377.12073 63.768972 
L 378.679384 63.009415 
L 378.939159 62.899324 
L 379.588598 62.552723 
L 379.913318 62.413821 
L 381.471971 61.620993 
L 381.796691 61.505562 
L 382.251298 61.241974 
L 382.770849 60.98534 
L 385.498493 59.674994 
L 385.758269 59.589869 
L 386.27782 59.378419 
L 386.602539 59.1725 
L 386.797371 59.074132 
L 387.057147 58.968668 
L 387.251978 58.896002 
L 387.576698 58.73325 
L 388.420969 58.33712 
L 390.304342 57.42402 
L 390.564117 57.294208 
L 390.823893 57.18274 
L 391.2785 56.986669 
L 392.837154 56.198326 
L 393.291761 56.013479 
L 395.11019 55.136522 
L 395.759629 54.840019 
L 396.019405 54.729737 
L 396.27918 54.636709 
L 396.474012 54.53172 
L 396.733787 54.403118 
L 396.928619 54.322122 
L 397.188395 54.212315 
L 397.383226 54.07937 
L 397.578058 53.985132 
L 397.77289 53.954945 
L 398.097609 53.770313 
L 398.292441 53.690527 
L 398.487273 53.568 
L 398.487273 53.568 
" clip-path="url(#p795b8874e3)" style="fill: none; stroke: #008000; stroke-width: 1.5; stroke-linecap: square"/>
   </g>
   <g id="line2d_18">
    <path d="M 73.832727 271.364589 
L 74.287335 271.720692 
L 75.001717 272.207084 
L 75.456325 272.600152 
L 76.300595 273.73735 
L 77.079922 275.141831 
L 79.742622 280.540862 
L 80.651837 281.739785 
L 81.171388 282.232716 
L 82.080602 282.859335 
L 83.184649 283.323368 
L 86.107124 283.478358 
L 90.19859 282.63532 
L 90.393421 282.585242 
L 91.04286 282.37729 
L 91.887131 282.106254 
L 94.744662 281.134307 
L 95.19927 280.961441 
L 100.524669 278.806614 
L 101.563772 278.324914 
L 101.823547 278.224229 
L 102.278155 277.986834 
L 102.53793 277.88636 
L 102.86265 277.706644 
L 103.577032 277.367582 
L 103.836808 277.194329 
L 103.966696 277.165142 
L 104.551191 276.846533 
L 105.655237 276.277201 
L 105.915013 276.069963 
L 106.239732 275.931236 
L 107.928274 274.905192 
L 108.188049 274.69546 
L 108.317937 274.669689 
L 108.642657 274.455658 
L 109.03232 274.200928 
L 109.486927 273.88264 
L 109.616815 273.798128 
L 111.240412 272.793426 
L 111.565132 272.527618 
L 111.630076 272.569197 
L 111.889851 272.338242 
L 119.748063 267.332239 
L 119.813007 267.329807 
L 120.007839 267.192765 
L 120.397502 266.900171 
L 120.787165 266.709665 
L 121.046941 266.507756 
L 121.371661 266.299415 
L 121.501548 266.24558 
L 121.761324 266.031894 
L 121.891212 266.003594 
L 122.605595 265.539405 
L 122.86537 265.386318 
L 123.19009 265.174943 
L 123.319977 265.13596 
L 123.449865 265.0647 
L 123.514809 265.070354 
L 123.644697 264.903277 
L 123.709641 264.939545 
L 123.969416 264.766144 
L 124.488968 264.414398 
L 124.878631 264.193011 
L 125.20335 263.964158 
L 125.52807 263.8362 
L 125.852789 263.551381 
L 126.047621 263.472164 
L 126.567172 263.141968 
L 126.69706 263.08713 
L 127.02178 262.882429 
L 127.151667 262.884072 
L 127.411443 262.712516 
L 128.125826 262.298896 
L 128.320658 262.15532 
L 128.515489 261.976095 
L 129.294816 261.440296 
L 129.554592 261.25526 
L 129.749423 261.126343 
L 130.52875 260.603368 
L 130.593694 260.626711 
L 130.723582 260.428273 
L 130.85347 260.415063 
L 131.178189 260.186346 
L 131.308077 260.099295 
L 131.892572 259.696183 
L 132.02246 259.694759 
L 132.347179 259.426537 
L 132.412123 259.513098 
L 132.671899 259.279754 
L 133.19145 259.002152 
L 133.321338 258.844909 
L 133.451226 258.88959 
L 133.581113 258.710181 
L 133.711001 258.616583 
L 134.100664 258.374025 
L 134.165608 258.433921 
L 134.36044 258.281347 
L 136.503589 256.887279 
L 136.633477 256.913615 
L 136.828308 256.740507 
L 137.153028 256.560209 
L 137.412803 256.350249 
L 138.386962 255.662151 
L 138.51685 255.640327 
L 138.646737 255.62896 
L 138.841569 255.475496 
L 139.166289 255.218229 
L 140.270335 254.568829 
L 140.400223 254.412856 
L 141.374381 253.781916 
L 141.439325 253.79385 
L 141.569213 253.663341 
L 141.699101 253.572072 
L 142.153708 253.274135 
L 142.413483 253.157538 
L 142.543371 252.937329 
L 142.673259 253.016655 
L 142.803147 252.84582 
L 143.062922 252.682024 
L 143.387642 252.483122 
L 143.777305 252.191552 
L 144.166969 251.987978 
L 144.296856 251.809555 
L 144.426744 251.812468 
L 145.141127 251.36835 
L 145.206071 251.372545 
L 145.400903 251.167316 
L 147.414164 249.79962 
L 147.544051 249.788428 
L 147.738883 249.579099 
L 147.998659 249.468512 
L 150.076863 247.969399 
L 150.401583 247.743394 
L 150.596415 247.664486 
L 150.661358 247.677909 
L 150.921134 247.353271 
L 151.051022 247.350074 
L 151.700461 246.814805 
L 151.830349 246.846867 
L 152.155068 246.557747 
L 152.479788 246.367086 
L 152.674619 246.142199 
L 152.804507 246.090944 
L 153.19417 245.808332 
L 153.324058 245.788603 
L 153.51889 245.547503 
L 153.648778 245.536433 
L 154.103385 245.148769 
L 154.233273 245.073475 
L 154.493048 244.855772 
L 154.68788 244.764868 
L 154.882712 244.605521 
L 155.0126 244.553264 
L 155.337319 244.228656 
L 155.467207 244.207695 
L 155.85687 243.855677 
L 155.986758 243.872574 
L 156.246534 243.587153 
L 157.285636 242.907828 
L 157.35058 242.909779 
L 157.610356 242.583101 
L 158.194851 242.219941 
L 158.389682 242.058648 
L 159.753504 241.043335 
L 160.078224 240.822886 
L 160.922494 240.11974 
L 161.052382 240.148324 
L 161.247214 239.949109 
L 161.766765 239.54249 
L 161.896653 239.454766 
L 162.026541 239.374286 
L 162.091484 239.390613 
L 162.35126 239.101941 
L 162.67598 238.84005 
L 163.130587 238.467937 
L 163.260475 238.463493 
L 163.52025 238.201572 
L 163.909914 237.886327 
L 165.01396 237.073356 
L 165.143848 236.969773 
L 165.533511 236.616746 
L 165.663399 236.590802 
L 166.377782 235.975249 
L 166.50767 235.954324 
L 166.767445 235.720626 
L 168.391043 234.418302 
L 168.52093 234.314618 
L 168.84565 234.039348 
L 168.975538 234.003264 
L 169.300257 233.726719 
L 170.599135 232.733678 
L 170.729023 232.601119 
L 171.638237 231.835665 
L 171.768125 231.774396 
L 171.962957 231.599944 
L 174.495769 229.699463 
L 174.625657 229.545937 
L 174.820488 229.420367 
L 175.080264 229.182184 
L 175.275096 229.076939 
L 175.469927 228.893215 
L 175.664759 228.732177 
L 175.859591 228.643664 
L 176.573974 228.037895 
L 176.703861 228.067204 
L 177.093525 227.681943 
L 178.197571 226.829495 
L 178.327459 226.722151 
L 178.587235 226.50481 
L 178.911954 226.21914 
L 179.236674 225.982137 
L 180.016 225.359875 
L 182.418925 223.576408 
L 182.548812 223.467842 
L 182.938476 223.112703 
L 183.068363 223.070401 
L 183.652859 222.579339 
L 186.120727 220.683747 
L 186.380502 220.469402 
L 186.83511 220.158903 
L 187.029941 219.906724 
L 192.485229 215.676259 
L 192.939836 215.325475 
L 195.537592 213.363666 
L 195.732424 213.165915 
L 195.927255 213.057717 
L 197.031302 212.15666 
L 197.161189 212.130193 
L 197.550853 211.741361 
L 197.745684 211.658004 
L 198.070404 211.338142 
L 198.200292 211.306585 
L 198.395123 211.169084 
L 201.772206 208.475199 
L 202.161869 208.17908 
L 202.291757 208.116856 
L 202.486589 207.904641 
L 202.616477 207.87395 
L 203.00614 207.543338 
L 203.525691 207.1268 
L 204.045243 206.725099 
L 204.305018 206.545302 
L 204.889513 206.095438 
L 210.604576 201.606838 
L 210.929296 201.35756 
L 211.318959 201.152548 
L 211.643679 200.826392 
L 212.487949 200.197383 
L 214.176491 198.903122 
L 214.306378 198.840631 
L 214.696042 198.438575 
L 214.890873 198.374404 
L 215.280537 197.994353 
L 215.410425 197.97936 
L 215.605256 197.841545 
L 215.99492 197.471253 
L 216.124808 197.381156 
L 216.254695 197.317525 
L 216.449527 197.173408 
L 217.228854 196.477257 
L 217.358742 196.451135 
L 217.553573 196.227024 
L 217.683461 196.213782 
L 217.878293 196.082065 
L 220.346161 194.115491 
L 220.930656 193.633785 
L 221.125488 193.456166 
L 223.138748 191.967619 
L 223.528412 191.634901 
L 226.710663 189.1938 
L 226.970438 188.980345 
L 227.425046 188.679855 
L 227.749765 188.437495 
L 228.139429 188.162943 
L 228.399204 187.950331 
L 229.438307 187.177544 
L 229.892914 186.740691 
L 230.152689 186.590552 
L 231.711343 185.432066 
L 232.101006 185.144153 
L 232.425726 184.845786 
L 233.140109 184.307931 
L 233.399884 184.102462 
L 233.789548 183.847584 
L 233.984379 183.696093 
L 234.374043 183.329687 
L 234.503931 183.317169 
L 234.698762 183.127446 
L 234.82865 183.074346 
L 235.15337 182.767733 
L 235.672921 182.386982 
L 235.932696 182.207641 
L 236.647079 181.665254 
L 238.010901 180.540621 
L 238.530452 180.018357 
L 239.439667 178.996127 
L 239.634499 178.829139 
L 240.543713 178.021893 
L 240.933376 177.626725 
L 242.362142 176.401695 
L 242.49203 176.384941 
L 242.81675 175.978773 
L 243.206413 175.66485 
L 248.98642 171.291349 
L 249.116308 171.31705 
L 249.311139 171.024415 
L 249.441027 170.969595 
L 249.635859 170.853535 
L 249.700803 170.856845 
L 249.895634 170.69337 
L 250.025522 170.561754 
L 250.220354 170.417904 
L 250.350242 170.42888 
L 250.610017 170.289088 
L 250.674961 170.327629 
L 250.934737 170.008627 
L 251.064625 169.884736 
L 251.194512 169.819581 
L 251.259456 169.869251 
L 251.714064 169.353633 
L 251.973839 169.32239 
L 252.103727 169.238012 
L 252.233615 169.183334 
L 252.428446 168.903704 
L 252.558334 168.892146 
L 252.753166 168.744096 
L 252.883054 168.594135 
L 253.597437 168.101371 
L 253.792268 168.134832 
L 253.9871 167.899378 
L 254.116988 167.846326 
L 254.246876 167.653803 
L 254.311819 167.688677 
L 254.831371 167.388328 
L 255.15609 167.141009 
L 255.48081 166.957717 
L 256.584856 166.109214 
L 256.714744 166.170418 
L 257.104407 165.814016 
L 257.364183 165.692818 
L 257.49407 165.651109 
L 257.688902 165.410328 
L 257.81879 165.416688 
L 258.013622 165.191082 
L 258.143509 165.269053 
L 258.338341 164.981021 
L 258.468229 164.920648 
L 258.728005 164.715796 
L 258.857892 164.676366 
L 259.117668 164.468619 
L 259.572275 164.142332 
L 259.702163 164.014857 
L 259.832051 164.054762 
L 259.961939 163.84826 
L 260.026882 163.895403 
L 260.15677 163.867554 
L 260.351602 163.631602 
L 260.48149 163.609899 
L 260.611378 163.448002 
L 260.741265 163.500342 
L 261.001041 163.228816 
L 261.520592 162.880067 
L 261.65048 162.797694 
L 261.780368 162.680815 
L 261.910256 162.775291 
L 262.170031 162.470707 
L 262.299919 162.383244 
L 262.494751 162.302188 
L 262.624638 162.214357 
L 262.81947 162.07415 
L 263.14419 161.898038 
L 263.533853 161.646921 
L 263.598797 161.672931 
L 263.98846 161.279649 
L 264.118348 161.229575 
L 264.248236 161.223096 
L 264.508011 160.983133 
L 265.806889 160.211498 
L 265.936777 160.16172 
L 266.196553 159.908503 
L 266.391384 159.74288 
L 266.586216 159.667876 
L 267.040823 159.385908 
L 267.170711 159.24913 
L 267.300599 159.228614 
L 269.183972 158.036381 
L 269.378804 157.963869 
L 269.508692 157.959218 
L 269.898355 157.642269 
L 270.547794 157.22153 
L 270.80757 157.062243 
L 271.002401 156.99106 
L 271.392065 156.74387 
L 271.586896 156.558217 
L 271.716784 156.448814 
L 271.911616 156.470161 
L 272.106447 156.345926 
L 272.236335 156.328186 
L 272.366223 156.139875 
L 272.496111 156.321387 
L 272.561055 156.260705 
L 272.755886 156.098202 
L 272.950718 156.108099 
L 273.080606 156.06798 
L 273.275438 156.106129 
L 273.405325 156.02957 
L 273.600157 156.100315 
L 273.859933 155.966112 
L 274.054764 155.926504 
L 274.379484 155.789963 
L 274.769147 155.658644 
L 274.963979 155.538123 
L 275.418586 155.275259 
L 276.003081 154.857308 
L 276.327801 154.688374 
L 276.522633 154.535933 
L 276.65252 154.528565 
L 276.782408 154.501344 
L 276.97724 154.183969 
L 277.172072 154.203666 
L 277.366903 154.077651 
L 277.496791 154.154352 
L 278.211174 153.656544 
L 278.406006 153.582572 
L 278.795669 153.296048 
L 279.31522 153.070691 
L 279.510052 152.881111 
L 279.704884 152.827074 
L 281.6532 151.752716 
L 281.848032 151.72304 
L 282.042864 151.552979 
L 282.172752 151.534717 
L 282.432527 151.370387 
L 283.47163 150.799058 
L 283.796349 150.601753 
L 285.095227 149.92737 
L 285.290059 149.864066 
L 285.549834 149.667911 
L 286.134329 149.487254 
L 286.329161 149.249664 
L 286.523993 149.250471 
L 286.718824 149.091848 
L 286.848712 149.109113 
L 287.173432 148.837943 
L 287.368263 148.812016 
L 287.692983 148.615375 
L 287.887815 148.475406 
L 288.082646 148.38767 
L 288.212534 148.375495 
L 288.47231 148.185428 
L 288.602198 148.166917 
L 288.861973 147.977574 
L 289.056805 147.939592 
L 289.31658 147.748563 
L 289.511412 147.67299 
L 289.706244 147.5783 
L 289.836132 147.594307 
L 290.030963 147.369414 
L 290.225795 147.338812 
L 290.615458 147.155164 
L 291.005122 146.968942 
L 291.459729 146.664725 
L 291.719505 146.556924 
L 291.97928 146.392736 
L 292.109168 146.375044 
L 292.368944 146.211592 
L 292.498831 146.192856 
L 292.693663 145.997331 
L 292.888495 145.965602 
L 293.47299 145.637392 
L 293.862653 145.485735 
L 294.317261 145.136464 
L 294.901756 144.921004 
L 295.226475 144.719486 
L 295.356363 144.700228 
L 295.616139 144.491662 
L 296.13569 144.272049 
L 296.655241 144.049873 
L 296.785129 143.988242 
L 296.97996 143.787377 
L 297.109848 143.850503 
L 297.434568 143.559434 
L 297.629399 143.530873 
L 297.954119 143.374777 
L 299.058165 142.771079 
L 299.252997 142.781414 
L 299.512772 142.550149 
L 299.707604 142.424537 
L 299.837492 142.323843 
L 300.032324 142.336089 
L 300.616819 142.005388 
L 300.81165 141.953617 
L 301.071426 141.815415 
L 301.201314 141.789073 
L 301.461089 141.597701 
L 302.30536 141.189931 
L 302.500192 141.069434 
L 302.630079 141.039069 
L 302.824911 140.867287 
L 303.019743 140.902707 
L 303.279518 140.675025 
L 303.409406 140.710955 
L 303.669182 140.446536 
L 303.79907 140.531401 
L 304.448509 140.073272 
L 304.64334 140.076144 
L 304.838172 139.984421 
L 304.96806 139.924605 
L 305.227835 139.775962 
L 305.877274 139.356468 
L 306.396826 139.150537 
L 306.656601 139.055183 
L 307.111208 138.777463 
L 307.565816 138.599866 
L 307.760647 138.543136 
L 308.020423 138.402704 
L 308.150311 138.353686 
L 308.410086 138.152548 
L 308.669862 138.124592 
L 309.254357 137.719658 
L 309.449189 137.702595 
L 310.228516 137.323837 
L 310.423347 137.178896 
L 310.618179 137.180569 
L 310.877954 137.037775 
L 311.007842 137.039757 
L 311.267618 136.795024 
L 311.397506 136.812324 
L 312.046945 136.382543 
L 312.30672 136.375768 
L 312.501552 136.267385 
L 312.63144 136.247273 
L 312.891215 136.026722 
L 313.086047 136.070709 
L 313.280879 135.904184 
L 313.410767 135.872656 
L 313.670542 135.643978 
L 313.80043 135.686695 
L 314.125149 135.533863 
L 315.359083 134.91036 
L 315.553915 134.830349 
L 315.878635 134.653085 
L 316.333242 134.534818 
L 316.593018 134.376005 
L 318.736166 133.323351 
L 318.866054 133.229349 
L 319.060886 133.262253 
L 319.320661 133.101519 
L 319.450549 133.156849 
L 319.645381 132.890069 
L 319.840212 132.888017 
L 320.099988 132.670456 
L 320.29482 132.687448 
L 320.489651 132.478301 
L 320.684483 132.475299 
L 320.944259 132.34195 
L 321.074146 132.378794 
L 321.398866 132.175057 
L 321.528754 132.138724 
L 321.723585 132.002694 
L 321.853473 132.014062 
L 322.113249 131.820672 
L 322.308081 131.711245 
L 322.502912 131.606209 
L 322.697744 131.574218 
L 322.892576 131.466607 
L 323.087407 131.408642 
L 323.282239 131.315638 
L 323.412127 131.317536 
L 323.736846 131.129214 
L 323.866734 131.030276 
L 324.061566 130.958547 
L 324.191454 130.952306 
L 324.775949 130.56898 
L 325.425388 130.417014 
L 325.944939 130.102332 
L 326.204714 130.03644 
L 326.724266 129.785217 
L 326.854153 129.774775 
L 327.178873 129.580377 
L 327.63348 129.479612 
L 327.9582 129.243185 
L 328.80247 128.920529 
L 329.386965 128.616016 
L 330.29618 128.250216 
L 331.010563 127.94664 
L 331.46517 127.72304 
L 333.023824 127.023168 
L 333.543375 126.872093 
L 333.933038 126.646618 
L 334.257758 126.544868 
L 334.972141 126.222817 
L 337.180233 125.261138 
L 337.699784 125.050223 
L 338.219336 124.738092 
L 338.479111 124.698044 
L 338.803831 124.501878 
L 339.063606 124.416954 
L 339.713045 124.198243 
L 339.972821 124.043429 
L 340.362484 123.918423 
L 341.011923 123.572806 
L 341.336643 123.478188 
L 341.921138 123.229112 
L 342.180913 123.086769 
L 342.895296 122.786326 
L 343.155072 122.720127 
L 343.544735 122.531068 
L 343.869455 122.442632 
L 344.259118 122.254333 
L 348.545415 120.458734 
L 348.740247 120.466126 
L 349.064966 120.264205 
L 349.844293 119.888675 
L 350.039125 119.872265 
L 350.62362 119.573435 
L 350.948339 119.521486 
L 351.208115 119.355958 
L 358.871495 116.261227 
L 359.131271 116.194754 
L 359.585878 115.977159 
L 359.845653 115.898002 
L 360.170373 115.781301 
L 360.689924 115.615262 
L 360.884756 115.568297 
L 361.144531 115.472706 
L 361.404307 115.340912 
L 361.729027 115.223654 
L 363.222736 114.578923 
L 363.6124 114.423848 
L 364.651502 114.016079 
L 364.911278 113.883205 
L 366.404987 113.364371 
L 366.599819 113.265766 
L 366.794651 113.191462 
L 366.989482 113.132263 
L 367.184314 112.97987 
L 367.379146 113.027535 
L 367.638921 112.843567 
L 367.833753 112.819171 
L 368.093529 112.649465 
L 368.28836 112.622127 
L 368.548136 112.490309 
L 368.807911 112.371603 
L 370.496453 111.732129 
L 374.003423 110.433946 
L 374.198255 110.373715 
L 374.522974 110.263837 
L 375.627021 109.78759 
L 376.081628 109.62027 
L 376.796011 109.424269 
L 377.055786 109.261268 
L 377.250618 109.187985 
L 377.575338 109.084408 
L 378.744328 108.661023 
L 380.302981 108.081353 
L 380.757589 107.898761 
L 382.900737 107.080872 
L 383.095569 107.047648 
L 383.420288 106.920185 
L 383.61512 106.799972 
L 383.809952 106.727293 
L 384.004784 106.731886 
L 384.654222 106.386993 
L 385.368605 106.209824 
L 385.693325 106.038363 
L 385.9531 105.975853 
L 386.537596 105.710331 
L 386.797371 105.64113 
L 387.057147 105.555589 
L 387.251978 105.503569 
L 387.576698 105.381457 
L 388.485912 105.034156 
L 389.005464 104.836364 
L 389.265239 104.778257 
L 389.914678 104.48523 
L 390.499173 104.298509 
L 390.823893 104.181073 
L 391.343444 104.002433 
L 393.486593 103.188851 
L 393.811312 103.058517 
L 394.395807 102.828189 
L 395.045246 102.593387 
L 395.824573 102.323095 
L 396.019405 102.241482 
L 396.27918 102.162645 
L 396.474012 102.082895 
L 396.733787 101.980623 
L 396.928619 101.911908 
L 397.123451 101.812437 
L 397.318283 101.794733 
L 397.578058 101.641521 
L 397.77289 101.621064 
L 398.032665 101.463178 
L 398.292441 101.413816 
L 398.487273 101.299856 
L 398.487273 101.299856 
" clip-path="url(#p795b8874e3)" style="fill: none; stroke: #ff0000; stroke-width: 1.5; stroke-linecap: square"/>
   </g>
   <g id="patch_3">
    <path d="M 57.6 307.584 
L 57.6 41.472 
" style="fill: none; stroke: #000000; stroke-width: 0.8; stroke-linejoin: miter; stroke-linecap: square"/>
   </g>
   <g id="patch_4">
    <path d="M 414.72 307.584 
L 414.72 41.472 
" style="fill: none; stroke: #000000; stroke-width: 0.8; stroke-linejoin: miter; stroke-linecap: square"/>
   </g>
   <g id="patch_5">
    <path d="M 57.6 307.584 
L 414.72 307.584 
" style="fill: none; stroke: #000000; stroke-width: 0.8; stroke-linejoin: miter; stroke-linecap: square"/>
   </g>
   <g id="patch_6">
    <path d="M 57.6 41.472 
L 414.72 41.472 
" style="fill: none; stroke: #000000; stroke-width: 0.8; stroke-linejoin: miter; stroke-linecap: square"/>
   </g>
   <g id="text_18">
    <!-- Script19_loss -->
    <g transform="translate(196.532813 35.472) scale(0.12 -0.12)">
     <defs>
      <path id="DejaVuSans-53" d="M 3425 4513 
L 3425 3897 
Q 3066 4069 2747 4153 
Q 2428 4238 2131 4238 
Q 1616 4238 1336 4038 
Q 1056 3838 1056 3469 
Q 1056 3159 1242 3001 
Q 1428 2844 1947 2747 
L 2328 2669 
Q 3034 2534 3370 2195 
Q 3706 1856 3706 1288 
Q 3706 609 3251 259 
Q 2797 -91 1919 -91 
Q 1588 -91 1214 -16 
Q 841 59 441 206 
L 441 856 
Q 825 641 1194 531 
Q 1563 422 1919 422 
Q 2459 422 2753 634 
Q 3047 847 3047 1241 
Q 3047 1584 2836 1778 
Q 2625 1972 2144 2069 
L 1759 2144 
Q 1053 2284 737 2584 
Q 422 2884 422 3419 
Q 422 4038 858 4394 
Q 1294 4750 2059 4750 
Q 2388 4750 2728 4690 
Q 3069 4631 3425 4513 
z
" transform="scale(0.015625)"/>
      <path id="DejaVuSans-72" d="M 2631 2963 
Q 2534 3019 2420 3045 
Q 2306 3072 2169 3072 
Q 1681 3072 1420 2755 
Q 1159 2438 1159 1844 
L 1159 0 
L 581 0 
L 581 3500 
L 1159 3500 
L 1159 2956 
Q 1341 3275 1631 3429 
Q 1922 3584 2338 3584 
Q 2397 3584 2469 3576 
Q 2541 3569 2628 3553 
L 2631 2963 
z
" transform="scale(0.015625)"/>
      <path id="DejaVuSans-69" d="M 603 3500 
L 1178 3500 
L 1178 0 
L 603 0 
L 603 3500 
z
M 603 4863 
L 1178 4863 
L 1178 4134 
L 603 4134 
L 603 4863 
z
" transform="scale(0.015625)"/>
      <path id="DejaVuSans-74" d="M 1172 4494 
L 1172 3500 
L 2356 3500 
L 2356 3053 
L 1172 3053 
L 1172 1153 
Q 1172 725 1289 603 
Q 1406 481 1766 481 
L 2356 481 
L 2356 0 
L 1766 0 
Q 1100 0 847 248 
Q 594 497 594 1153 
L 594 3053 
L 172 3053 
L 172 3500 
L 594 3500 
L 594 4494 
L 1172 4494 
z
" transform="scale(0.015625)"/>
      <path id="DejaVuSans-39" d="M 703 97 
L 703 672 
Q 941 559 1184 500 
Q 1428 441 1663 441 
Q 2288 441 2617 861 
Q 2947 1281 2994 2138 
Q 2813 1869 2534 1725 
Q 2256 1581 1919 1581 
Q 1219 1581 811 2004 
Q 403 2428 403 3163 
Q 403 3881 828 4315 
Q 1253 4750 1959 4750 
Q 2769 4750 3195 4129 
Q 3622 3509 3622 2328 
Q 3622 1225 3098 567 
Q 2575 -91 1691 -91 
Q 1453 -91 1209 -44 
Q 966 3 703 97 
z
M 1959 2075 
Q 2384 2075 2632 2365 
Q 2881 2656 2881 3163 
Q 2881 3666 2632 3958 
Q 2384 4250 1959 4250 
Q 1534 4250 1286 3958 
Q 1038 3666 1038 3163 
Q 1038 2656 1286 2365 
Q 1534 2075 1959 2075 
z
" transform="scale(0.015625)"/>
      <path id="DejaVuSans-5f" d="M 3263 -1063 
L 3263 -1509 
L -63 -1509 
L -63 -1063 
L 3263 -1063 
z
" transform="scale(0.015625)"/>
     </defs>
     <use xlink:href="#DejaVuSans-53"/>
     <use xlink:href="#DejaVuSans-63" x="63.476562"/>
     <use xlink:href="#DejaVuSans-72" x="118.457031"/>
     <use xlink:href="#DejaVuSans-69" x="159.570312"/>
     <use xlink:href="#DejaVuSans-70" x="187.353516"/>
     <use xlink:href="#DejaVuSans-74" x="250.830078"/>
     <use xlink:href="#DejaVuSans-31" x="290.039062"/>
     <use xlink:href="#DejaVuSans-39" x="353.662109"/>
     <use xlink:href="#DejaVuSans-5f" x="417.285156"/>
     <use xlink:href="#DejaVuSans-6c" x="467.285156"/>
     <use xlink:href="#DejaVuSans-6f" x="495.068359"/>
     <use xlink:href="#DejaVuSans-73" x="556.25"/>
     <use xlink:href="#DejaVuSans-73" x="608.349609"/>
    </g>
   </g>
   <g id="legend_1">
    <g id="patch_7">
     <path d="M 64.6 93.506375 
L 164.295312 93.506375 
Q 166.295312 93.506375 166.295312 91.506375 
L 166.295312 48.472 
Q 166.295312 46.472 164.295312 46.472 
L 64.6 46.472 
Q 62.6 46.472 62.6 48.472 
L 62.6 91.506375 
Q 62.6 93.506375 64.6 93.506375 
z
" style="fill: #ffffff; opacity: 0.8; stroke: #cccccc; stroke-linejoin: miter"/>
    </g>
    <g id="line2d_19">
     <path d="M 66.6 54.570438 
L 76.6 54.570438 
L 86.6 54.570438 
" style="fill: none; stroke: #0000ff; stroke-width: 1.5; stroke-linecap: square"/>
    </g>
    <g id="text_19">
     <!-- training set -->
     <g transform="translate(94.6 58.070438) scale(0.1 -0.1)">
      <defs>
       <path id="DejaVuSans-61" d="M 2194 1759 
Q 1497 1759 1228 1600 
Q 959 1441 959 1056 
Q 959 750 1161 570 
Q 1363 391 1709 391 
Q 2188 391 2477 730 
Q 2766 1069 2766 1631 
L 2766 1759 
L 2194 1759 
z
M 3341 1997 
L 3341 0 
L 2766 0 
L 2766 531 
Q 2569 213 2275 61 
Q 1981 -91 1556 -91 
Q 1019 -91 701 211 
Q 384 513 384 1019 
Q 384 1609 779 1909 
Q 1175 2209 1959 2209 
L 2766 2209 
L 2766 2266 
Q 2766 2663 2505 2880 
Q 2244 3097 1772 3097 
Q 1472 3097 1187 3025 
Q 903 2953 641 2809 
L 641 3341 
Q 956 3463 1253 3523 
Q 1550 3584 1831 3584 
Q 2591 3584 2966 3190 
Q 3341 2797 3341 1997 
z
" transform="scale(0.015625)"/>
       <path id="DejaVuSans-6e" d="M 3513 2113 
L 3513 0 
L 2938 0 
L 2938 2094 
Q 2938 2591 2744 2837 
Q 2550 3084 2163 3084 
Q 1697 3084 1428 2787 
Q 1159 2491 1159 1978 
L 1159 0 
L 581 0 
L 581 3500 
L 1159 3500 
L 1159 2956 
Q 1366 3272 1645 3428 
Q 1925 3584 2291 3584 
Q 2894 3584 3203 3211 
Q 3513 2838 3513 2113 
z
" transform="scale(0.015625)"/>
       <path id="DejaVuSans-67" d="M 2906 1791 
Q 2906 2416 2648 2759 
Q 2391 3103 1925 3103 
Q 1463 3103 1205 2759 
Q 947 2416 947 1791 
Q 947 1169 1205 825 
Q 1463 481 1925 481 
Q 2391 481 2648 825 
Q 2906 1169 2906 1791 
z
M 3481 434 
Q 3481 -459 3084 -895 
Q 2688 -1331 1869 -1331 
Q 1566 -1331 1297 -1286 
Q 1028 -1241 775 -1147 
L 775 -588 
Q 1028 -725 1275 -790 
Q 1522 -856 1778 -856 
Q 2344 -856 2625 -561 
Q 2906 -266 2906 331 
L 2906 616 
Q 2728 306 2450 153 
Q 2172 0 1784 0 
Q 1141 0 747 490 
Q 353 981 353 1791 
Q 353 2603 747 3093 
Q 1141 3584 1784 3584 
Q 2172 3584 2450 3431 
Q 2728 3278 2906 2969 
L 2906 3500 
L 3481 3500 
L 3481 434 
z
" transform="scale(0.015625)"/>
       <path id="DejaVuSans-20" transform="scale(0.015625)"/>
      </defs>
      <use xlink:href="#DejaVuSans-74"/>
      <use xlink:href="#DejaVuSans-72" x="39.208984"/>
      <use xlink:href="#DejaVuSans-61" x="80.322266"/>
      <use xlink:href="#DejaVuSans-69" x="141.601562"/>
      <use xlink:href="#DejaVuSans-6e" x="169.384766"/>
      <use xlink:href="#DejaVuSans-69" x="232.763672"/>
      <use xlink:href="#DejaVuSans-6e" x="260.546875"/>
      <use xlink:href="#DejaVuSans-67" x="323.925781"/>
      <use xlink:href="#DejaVuSans-20" x="387.402344"/>
      <use xlink:href="#DejaVuSans-73" x="419.189453"/>
      <use xlink:href="#DejaVuSans-65" x="471.289062"/>
      <use xlink:href="#DejaVuSans-74" x="532.8125"/>
     </g>
    </g>
    <g id="line2d_20">
     <path d="M 66.6 69.248563 
L 76.6 69.248563 
L 86.6 69.248563 
" style="fill: none; stroke: #008000; stroke-width: 1.5; stroke-linecap: square"/>
    </g>
    <g id="text_20">
     <!-- validation set -->
     <g transform="translate(94.6 72.748563) scale(0.1 -0.1)">
      <defs>
       <path id="DejaVuSans-76" d="M 191 3500 
L 800 3500 
L 1894 563 
L 2988 3500 
L 3597 3500 
L 2284 0 
L 1503 0 
L 191 3500 
z
" transform="scale(0.015625)"/>
       <path id="DejaVuSans-64" d="M 2906 2969 
L 2906 4863 
L 3481 4863 
L 3481 0 
L 2906 0 
L 2906 525 
Q 2725 213 2448 61 
Q 2172 -91 1784 -91 
Q 1150 -91 751 415 
Q 353 922 353 1747 
Q 353 2572 751 3078 
Q 1150 3584 1784 3584 
Q 2172 3584 2448 3432 
Q 2725 3281 2906 2969 
z
M 947 1747 
Q 947 1113 1208 752 
Q 1469 391 1925 391 
Q 2381 391 2643 752 
Q 2906 1113 2906 1747 
Q 2906 2381 2643 2742 
Q 2381 3103 1925 3103 
Q 1469 3103 1208 2742 
Q 947 2381 947 1747 
z
" transform="scale(0.015625)"/>
      </defs>
      <use xlink:href="#DejaVuSans-76"/>
      <use xlink:href="#DejaVuSans-61" x="59.179688"/>
      <use xlink:href="#DejaVuSans-6c" x="120.458984"/>
      <use xlink:href="#DejaVuSans-69" x="148.242188"/>
      <use xlink:href="#DejaVuSans-64" x="176.025391"/>
      <use xlink:href="#DejaVuSans-61" x="239.501953"/>
      <use xlink:href="#DejaVuSans-74" x="300.78125"/>
      <use xlink:href="#DejaVuSans-69" x="339.990234"/>
      <use xlink:href="#DejaVuSans-6f" x="367.773438"/>
      <use xlink:href="#DejaVuSans-6e" x="428.955078"/>
      <use xlink:href="#DejaVuSans-20" x="492.333984"/>
      <use xlink:href="#DejaVuSans-73" x="524.121094"/>
      <use xlink:href="#DejaVuSans-65" x="576.220703"/>
      <use xlink:href="#DejaVuSans-74" x="637.744141"/>
     </g>
    </g>
    <g id="line2d_21">
     <path d="M 66.6 83.926688 
L 76.6 83.926688 
L 86.6 83.926688 
" style="fill: none; stroke: #ff0000; stroke-width: 1.5; stroke-linecap: square"/>
    </g>
    <g id="text_21">
     <!-- test set -->
     <g transform="translate(94.6 87.426688) scale(0.1 -0.1)">
      <use xlink:href="#DejaVuSans-74"/>
      <use xlink:href="#DejaVuSans-65" x="39.208984"/>
      <use xlink:href="#DejaVuSans-73" x="100.732422"/>
      <use xlink:href="#DejaVuSans-74" x="152.832031"/>
      <use xlink:href="#DejaVuSans-20" x="192.041016"/>
      <use xlink:href="#DejaVuSans-73" x="223.828125"/>
      <use xlink:href="#DejaVuSans-65" x="275.927734"/>
      <use xlink:href="#DejaVuSans-74" x="337.451172"/>
     </g>
    </g>
   </g>
  </g>
 </g>
 <defs>
  <clipPath id="p795b8874e3">
   <rect x="57.6" y="41.472" width="357.12" height="266.112"/>
  </clipPath>
 </defs>
</svg>
