<?xml version="1.0" encoding="utf-8" standalone="no"?>
<!DOCTYPE svg PUBLIC "-//W3C//DTD SVG 1.1//EN"
  "http://www.w3.org/Graphics/SVG/1.1/DTD/svg11.dtd">
<svg xmlns:xlink="http://www.w3.org/1999/xlink" width="460.8pt" height="345.6pt" viewBox="0 0 460.8 345.6" xmlns="http://www.w3.org/2000/svg" version="1.1">
 <metadata>
  <rdf:RDF xmlns:dc="http://purl.org/dc/elements/1.1/" xmlns:cc="http://creativecommons.org/ns#" xmlns:rdf="http://www.w3.org/1999/02/22-rdf-syntax-ns#">
   <cc:Work>
    <dc:type rdf:resource="http://purl.org/dc/dcmitype/StillImage"/>
    <dc:date>2023-06-14T04:11:45.156356</dc:date>
    <dc:format>image/svg+xml</dc:format>
    <dc:creator>
     <cc:Agent>
      <dc:title>Matplotlib v3.7.1, https://matplotlib.org/</dc:title>
     </cc:Agent>
    </dc:creator>
   </cc:Work>
  </rdf:RDF>
 </metadata>
 <defs>
  <style type="text/css">*{stroke-linejoin: round; stroke-linecap: butt}</style>
 </defs>
 <g id="figure_1">
  <g id="patch_1">
   <path d="M 0 345.6 
L 460.8 345.6 
L 460.8 0 
L 0 0 
z
" style="fill: #ffffff"/>
  </g>
  <g id="axes_1">
   <g id="patch_2">
    <path d="M 57.6 307.584 
L 414.72 307.584 
L 414.72 41.472 
L 57.6 41.472 
z
" style="fill: #ffffff"/>
   </g>
   <g id="matplotlib.axis_1">
    <g id="xtick_1">
     <g id="line2d_1">
      <defs>
       <path id="m397dc4b3f1" d="M 0 0 
L 0 3.5 
" style="stroke: #000000; stroke-width: 0.8"/>
      </defs>
      <g>
       <use xlink:href="#m397dc4b3f1" x="73.767783" y="307.584" style="stroke: #000000; stroke-width: 0.8"/>
      </g>
     </g>
     <g id="text_1">
      <!-- 0 -->
      <g transform="translate(70.586533 322.182437) scale(0.1 -0.1)">
       <defs>
        <path id="DejaVuSans-30" d="M 2034 4250 
Q 1547 4250 1301 3770 
Q 1056 3291 1056 2328 
Q 1056 1369 1301 889 
Q 1547 409 2034 409 
Q 2525 409 2770 889 
Q 3016 1369 3016 2328 
Q 3016 3291 2770 3770 
Q 2525 4250 2034 4250 
z
M 2034 4750 
Q 2819 4750 3233 4129 
Q 3647 3509 3647 2328 
Q 3647 1150 3233 529 
Q 2819 -91 2034 -91 
Q 1250 -91 836 529 
Q 422 1150 422 2328 
Q 422 3509 836 4129 
Q 1250 4750 2034 4750 
z
" transform="scale(0.015625)"/>
       </defs>
       <use xlink:href="#DejaVuSans-30"/>
      </g>
     </g>
    </g>
    <g id="xtick_2">
     <g id="line2d_2">
      <g>
       <use xlink:href="#m397dc4b3f1" x="138.711681" y="307.584" style="stroke: #000000; stroke-width: 0.8"/>
      </g>
     </g>
     <g id="text_2">
      <!-- 1000 -->
      <g transform="translate(125.986681 322.182437) scale(0.1 -0.1)">
       <defs>
        <path id="DejaVuSans-31" d="M 794 531 
L 1825 531 
L 1825 4091 
L 703 3866 
L 703 4441 
L 1819 4666 
L 2450 4666 
L 2450 531 
L 3481 531 
L 3481 0 
L 794 0 
L 794 531 
z
" transform="scale(0.015625)"/>
       </defs>
       <use xlink:href="#DejaVuSans-31"/>
       <use xlink:href="#DejaVuSans-30" x="63.623047"/>
       <use xlink:href="#DejaVuSans-30" x="127.246094"/>
       <use xlink:href="#DejaVuSans-30" x="190.869141"/>
      </g>
     </g>
    </g>
    <g id="xtick_3">
     <g id="line2d_3">
      <g>
       <use xlink:href="#m397dc4b3f1" x="203.655579" y="307.584" style="stroke: #000000; stroke-width: 0.8"/>
      </g>
     </g>
     <g id="text_3">
      <!-- 2000 -->
      <g transform="translate(190.930579 322.182437) scale(0.1 -0.1)">
       <defs>
        <path id="DejaVuSans-32" d="M 1228 531 
L 3431 531 
L 3431 0 
L 469 0 
L 469 531 
Q 828 903 1448 1529 
Q 2069 2156 2228 2338 
Q 2531 2678 2651 2914 
Q 2772 3150 2772 3378 
Q 2772 3750 2511 3984 
Q 2250 4219 1831 4219 
Q 1534 4219 1204 4116 
Q 875 4013 500 3803 
L 500 4441 
Q 881 4594 1212 4672 
Q 1544 4750 1819 4750 
Q 2544 4750 2975 4387 
Q 3406 4025 3406 3419 
Q 3406 3131 3298 2873 
Q 3191 2616 2906 2266 
Q 2828 2175 2409 1742 
Q 1991 1309 1228 531 
z
" transform="scale(0.015625)"/>
       </defs>
       <use xlink:href="#DejaVuSans-32"/>
       <use xlink:href="#DejaVuSans-30" x="63.623047"/>
       <use xlink:href="#DejaVuSans-30" x="127.246094"/>
       <use xlink:href="#DejaVuSans-30" x="190.869141"/>
      </g>
     </g>
    </g>
    <g id="xtick_4">
     <g id="line2d_4">
      <g>
       <use xlink:href="#m397dc4b3f1" x="268.599477" y="307.584" style="stroke: #000000; stroke-width: 0.8"/>
      </g>
     </g>
     <g id="text_4">
      <!-- 3000 -->
      <g transform="translate(255.874477 322.182437) scale(0.1 -0.1)">
       <defs>
        <path id="DejaVuSans-33" d="M 2597 2516 
Q 3050 2419 3304 2112 
Q 3559 1806 3559 1356 
Q 3559 666 3084 287 
Q 2609 -91 1734 -91 
Q 1441 -91 1130 -33 
Q 819 25 488 141 
L 488 750 
Q 750 597 1062 519 
Q 1375 441 1716 441 
Q 2309 441 2620 675 
Q 2931 909 2931 1356 
Q 2931 1769 2642 2001 
Q 2353 2234 1838 2234 
L 1294 2234 
L 1294 2753 
L 1863 2753 
Q 2328 2753 2575 2939 
Q 2822 3125 2822 3475 
Q 2822 3834 2567 4026 
Q 2313 4219 1838 4219 
Q 1578 4219 1281 4162 
Q 984 4106 628 3988 
L 628 4550 
Q 988 4650 1302 4700 
Q 1616 4750 1894 4750 
Q 2613 4750 3031 4423 
Q 3450 4097 3450 3541 
Q 3450 3153 3228 2886 
Q 3006 2619 2597 2516 
z
" transform="scale(0.015625)"/>
       </defs>
       <use xlink:href="#DejaVuSans-33"/>
       <use xlink:href="#DejaVuSans-30" x="63.623047"/>
       <use xlink:href="#DejaVuSans-30" x="127.246094"/>
       <use xlink:href="#DejaVuSans-30" x="190.869141"/>
      </g>
     </g>
    </g>
    <g id="xtick_5">
     <g id="line2d_5">
      <g>
       <use xlink:href="#m397dc4b3f1" x="333.543375" y="307.584" style="stroke: #000000; stroke-width: 0.8"/>
      </g>
     </g>
     <g id="text_5">
      <!-- 4000 -->
      <g transform="translate(320.818375 322.182437) scale(0.1 -0.1)">
       <defs>
        <path id="DejaVuSans-34" d="M 2419 4116 
L 825 1625 
L 2419 1625 
L 2419 4116 
z
M 2253 4666 
L 3047 4666 
L 3047 1625 
L 3713 1625 
L 3713 1100 
L 3047 1100 
L 3047 0 
L 2419 0 
L 2419 1100 
L 313 1100 
L 313 1709 
L 2253 4666 
z
" transform="scale(0.015625)"/>
       </defs>
       <use xlink:href="#DejaVuSans-34"/>
       <use xlink:href="#DejaVuSans-30" x="63.623047"/>
       <use xlink:href="#DejaVuSans-30" x="127.246094"/>
       <use xlink:href="#DejaVuSans-30" x="190.869141"/>
      </g>
     </g>
    </g>
    <g id="xtick_6">
     <g id="line2d_6">
      <g>
       <use xlink:href="#m397dc4b3f1" x="398.487273" y="307.584" style="stroke: #000000; stroke-width: 0.8"/>
      </g>
     </g>
     <g id="text_6">
      <!-- 5000 -->
      <g transform="translate(385.762273 322.182437) scale(0.1 -0.1)">
       <defs>
        <path id="DejaVuSans-35" d="M 691 4666 
L 3169 4666 
L 3169 4134 
L 1269 4134 
L 1269 2991 
Q 1406 3038 1543 3061 
Q 1681 3084 1819 3084 
Q 2600 3084 3056 2656 
Q 3513 2228 3513 1497 
Q 3513 744 3044 326 
Q 2575 -91 1722 -91 
Q 1428 -91 1123 -41 
Q 819 9 494 109 
L 494 744 
Q 775 591 1075 516 
Q 1375 441 1709 441 
Q 2250 441 2565 725 
Q 2881 1009 2881 1497 
Q 2881 1984 2565 2268 
Q 2250 2553 1709 2553 
Q 1456 2553 1204 2497 
Q 953 2441 691 2322 
L 691 4666 
z
" transform="scale(0.015625)"/>
       </defs>
       <use xlink:href="#DejaVuSans-35"/>
       <use xlink:href="#DejaVuSans-30" x="63.623047"/>
       <use xlink:href="#DejaVuSans-30" x="127.246094"/>
       <use xlink:href="#DejaVuSans-30" x="190.869141"/>
      </g>
     </g>
    </g>
    <g id="text_7">
     <!-- epoch -->
     <g transform="translate(220.931875 335.860562) scale(0.1 -0.1)">
      <defs>
       <path id="DejaVuSans-65" d="M 3597 1894 
L 3597 1613 
L 953 1613 
Q 991 1019 1311 708 
Q 1631 397 2203 397 
Q 2534 397 2845 478 
Q 3156 559 3463 722 
L 3463 178 
Q 3153 47 2828 -22 
Q 2503 -91 2169 -91 
Q 1331 -91 842 396 
Q 353 884 353 1716 
Q 353 2575 817 3079 
Q 1281 3584 2069 3584 
Q 2775 3584 3186 3129 
Q 3597 2675 3597 1894 
z
M 3022 2063 
Q 3016 2534 2758 2815 
Q 2500 3097 2075 3097 
Q 1594 3097 1305 2825 
Q 1016 2553 972 2059 
L 3022 2063 
z
" transform="scale(0.015625)"/>
       <path id="DejaVuSans-70" d="M 1159 525 
L 1159 -1331 
L 581 -1331 
L 581 3500 
L 1159 3500 
L 1159 2969 
Q 1341 3281 1617 3432 
Q 1894 3584 2278 3584 
Q 2916 3584 3314 3078 
Q 3713 2572 3713 1747 
Q 3713 922 3314 415 
Q 2916 -91 2278 -91 
Q 1894 -91 1617 61 
Q 1341 213 1159 525 
z
M 3116 1747 
Q 3116 2381 2855 2742 
Q 2594 3103 2138 3103 
Q 1681 3103 1420 2742 
Q 1159 2381 1159 1747 
Q 1159 1113 1420 752 
Q 1681 391 2138 391 
Q 2594 391 2855 752 
Q 3116 1113 3116 1747 
z
" transform="scale(0.015625)"/>
       <path id="DejaVuSans-6f" d="M 1959 3097 
Q 1497 3097 1228 2736 
Q 959 2375 959 1747 
Q 959 1119 1226 758 
Q 1494 397 1959 397 
Q 2419 397 2687 759 
Q 2956 1122 2956 1747 
Q 2956 2369 2687 2733 
Q 2419 3097 1959 3097 
z
M 1959 3584 
Q 2709 3584 3137 3096 
Q 3566 2609 3566 1747 
Q 3566 888 3137 398 
Q 2709 -91 1959 -91 
Q 1206 -91 779 398 
Q 353 888 353 1747 
Q 353 2609 779 3096 
Q 1206 3584 1959 3584 
z
" transform="scale(0.015625)"/>
       <path id="DejaVuSans-63" d="M 3122 3366 
L 3122 2828 
Q 2878 2963 2633 3030 
Q 2388 3097 2138 3097 
Q 1578 3097 1268 2742 
Q 959 2388 959 1747 
Q 959 1106 1268 751 
Q 1578 397 2138 397 
Q 2388 397 2633 464 
Q 2878 531 3122 666 
L 3122 134 
Q 2881 22 2623 -34 
Q 2366 -91 2075 -91 
Q 1284 -91 818 406 
Q 353 903 353 1747 
Q 353 2603 823 3093 
Q 1294 3584 2113 3584 
Q 2378 3584 2631 3529 
Q 2884 3475 3122 3366 
z
" transform="scale(0.015625)"/>
       <path id="DejaVuSans-68" d="M 3513 2113 
L 3513 0 
L 2938 0 
L 2938 2094 
Q 2938 2591 2744 2837 
Q 2550 3084 2163 3084 
Q 1697 3084 1428 2787 
Q 1159 2491 1159 1978 
L 1159 0 
L 581 0 
L 581 4863 
L 1159 4863 
L 1159 2956 
Q 1366 3272 1645 3428 
Q 1925 3584 2291 3584 
Q 2894 3584 3203 3211 
Q 3513 2838 3513 2113 
z
" transform="scale(0.015625)"/>
      </defs>
      <use xlink:href="#DejaVuSans-65"/>
      <use xlink:href="#DejaVuSans-70" x="61.523438"/>
      <use xlink:href="#DejaVuSans-6f" x="125"/>
      <use xlink:href="#DejaVuSans-63" x="186.181641"/>
      <use xlink:href="#DejaVuSans-68" x="241.162109"/>
     </g>
    </g>
   </g>
   <g id="matplotlib.axis_2">
    <g id="ytick_1">
     <g id="line2d_7">
      <defs>
       <path id="m7efe511ab8" d="M 0 0 
L -3.5 0 
" style="stroke: #000000; stroke-width: 0.8"/>
      </defs>
      <g>
       <use xlink:href="#m7efe511ab8" x="57.6" y="305.258128" style="stroke: #000000; stroke-width: 0.8"/>
      </g>
     </g>
     <g id="text_8">
      <!-- 0 -->
      <g transform="translate(44.2375 309.057347) scale(0.1 -0.1)">
       <use xlink:href="#DejaVuSans-30"/>
      </g>
     </g>
    </g>
    <g id="ytick_2">
     <g id="line2d_8">
      <g>
       <use xlink:href="#m7efe511ab8" x="57.6" y="258.287293" style="stroke: #000000; stroke-width: 0.8"/>
      </g>
     </g>
     <g id="text_9">
      <!-- 1 -->
      <g transform="translate(44.2375 262.086512) scale(0.1 -0.1)">
       <use xlink:href="#DejaVuSans-31"/>
      </g>
     </g>
    </g>
    <g id="ytick_3">
     <g id="line2d_9">
      <g>
       <use xlink:href="#m7efe511ab8" x="57.6" y="211.316459" style="stroke: #000000; stroke-width: 0.8"/>
      </g>
     </g>
     <g id="text_10">
      <!-- 2 -->
      <g transform="translate(44.2375 215.115677) scale(0.1 -0.1)">
       <use xlink:href="#DejaVuSans-32"/>
      </g>
     </g>
    </g>
    <g id="ytick_4">
     <g id="line2d_10">
      <g>
       <use xlink:href="#m7efe511ab8" x="57.6" y="164.345624" style="stroke: #000000; stroke-width: 0.8"/>
      </g>
     </g>
     <g id="text_11">
      <!-- 3 -->
      <g transform="translate(44.2375 168.144842) scale(0.1 -0.1)">
       <use xlink:href="#DejaVuSans-33"/>
      </g>
     </g>
    </g>
    <g id="ytick_5">
     <g id="line2d_11">
      <g>
       <use xlink:href="#m7efe511ab8" x="57.6" y="117.374789" style="stroke: #000000; stroke-width: 0.8"/>
      </g>
     </g>
     <g id="text_12">
      <!-- 4 -->
      <g transform="translate(44.2375 121.174007) scale(0.1 -0.1)">
       <use xlink:href="#DejaVuSans-34"/>
      </g>
     </g>
    </g>
    <g id="ytick_6">
     <g id="line2d_12">
      <g>
       <use xlink:href="#m7efe511ab8" x="57.6" y="70.403954" style="stroke: #000000; stroke-width: 0.8"/>
      </g>
     </g>
     <g id="text_13">
      <!-- 5 -->
      <g transform="translate(44.2375 74.203172) scale(0.1 -0.1)">
       <use xlink:href="#DejaVuSans-35"/>
      </g>
     </g>
    </g>
    <g id="text_14">
     <!-- loss -->
     <g transform="translate(38.157812 184.185812) rotate(-90) scale(0.1 -0.1)">
      <defs>
       <path id="DejaVuSans-6c" d="M 603 4863 
L 1178 4863 
L 1178 0 
L 603 0 
L 603 4863 
z
" transform="scale(0.015625)"/>
       <path id="DejaVuSans-73" d="M 2834 3397 
L 2834 2853 
Q 2591 2978 2328 3040 
Q 2066 3103 1784 3103 
Q 1356 3103 1142 2972 
Q 928 2841 928 2578 
Q 928 2378 1081 2264 
Q 1234 2150 1697 2047 
L 1894 2003 
Q 2506 1872 2764 1633 
Q 3022 1394 3022 966 
Q 3022 478 2636 193 
Q 2250 -91 1575 -91 
Q 1294 -91 989 -36 
Q 684 19 347 128 
L 347 722 
Q 666 556 975 473 
Q 1284 391 1588 391 
Q 1994 391 2212 530 
Q 2431 669 2431 922 
Q 2431 1156 2273 1281 
Q 2116 1406 1581 1522 
L 1381 1569 
Q 847 1681 609 1914 
Q 372 2147 372 2553 
Q 372 3047 722 3315 
Q 1072 3584 1716 3584 
Q 2034 3584 2315 3537 
Q 2597 3491 2834 3397 
z
" transform="scale(0.015625)"/>
      </defs>
      <use xlink:href="#DejaVuSans-6c"/>
      <use xlink:href="#DejaVuSans-6f" x="27.783203"/>
      <use xlink:href="#DejaVuSans-73" x="88.964844"/>
      <use xlink:href="#DejaVuSans-73" x="141.064453"/>
     </g>
    </g>
   </g>
   <g id="line2d_13">
    <path d="M 73.832727 196.635911 
L 74.352278 204.492306 
L 74.741942 207.767181 
L 75.066661 208.592605 
L 76.365539 210.871769 
L 77.014978 212.386625 
L 77.664417 214.472258 
L 78.3788 217.59347 
L 79.288015 222.616835 
L 83.37948 247.011448 
L 84.54847 251.939215 
L 85.717461 255.912263 
L 86.951395 259.311405 
L 88.250273 262.22835 
L 89.549151 264.619615 
L 90.912972 266.687837 
L 92.406682 268.567004 
L 94.095223 270.32513 
L 95.978596 271.957327 
L 98.121745 273.51358 
L 100.654557 275.047373 
L 103.577032 276.536223 
L 107.019059 278.006377 
L 110.331198 279.188531 
L 114.422663 280.444873 
L 118.449185 281.471768 
L 123.319977 282.522503 
L 129.164928 283.546436 
L 138.451906 284.800078 
L 147.738883 285.759023 
L 173.326779 287.633236 
L 189.043202 288.521446 
L 193.849051 288.778622 
L 232.815389 290.547464 
L 278.600837 291.99976 
L 284.380844 292.159707 
L 321.009203 293.244833 
L 325.620219 293.413502 
L 337.375065 293.768878 
L 348.220696 294.075102 
L 393.226817 295.299297 
L 398.487273 295.487262 
L 398.487273 295.487262 
" clip-path="url(#pa5f0208f09)" style="fill: none; stroke: #0000ff; stroke-width: 1.5; stroke-linecap: square"/>
   </g>
   <g id="line2d_14">
    <path d="M 73.832727 196.593905 
L 74.352278 204.353599 
L 74.741942 207.530575 
L 75.001717 208.181377 
L 76.235651 210.165768 
L 76.950034 211.639827 
L 77.664417 213.66539 
L 78.313856 216.19578 
L 79.223071 220.680514 
L 81.171388 232.135422 
L 82.730041 240.699351 
L 83.899031 245.973299 
L 84.938134 249.676066 
L 85.977236 252.583819 
L 86.951395 254.694414 
L 87.925553 256.314801 
L 88.964655 257.595745 
L 89.87387 258.374123 
L 91.302636 259.1002 
L 93.640616 259.593781 
L 96.303316 259.435344 
L 97.472306 259.213559 
L 98.511408 258.961759 
L 100.329838 258.291871 
L 102.148267 257.319338 
L 102.732762 256.960542 
L 104.291415 256.040842 
L 106.954115 254.393336 
L 110.331198 252.428314 
L 110.655917 252.226535 
L 114.292776 250.137481 
L 114.942215 249.757156 
L 124.813687 244.113707 
L 125.657958 243.668322 
L 125.982677 243.486405 
L 126.437285 243.236707 
L 127.995938 242.356583 
L 128.255714 242.244853 
L 128.840209 241.903947 
L 129.099984 241.777368 
L 134.555272 238.645965 
L 135.009879 238.358181 
L 135.464486 238.103253 
L 136.308757 237.603913 
L 137.347859 236.989143 
L 138.51685 236.286294 
L 138.906513 236.07503 
L 143.322698 233.435453 
L 143.712361 233.177692 
L 144.426744 232.752118 
L 145.530791 232.077356 
L 146.699781 231.374721 
L 149.622256 229.674122 
L 150.466527 229.204554 
L 150.921134 228.933282 
L 151.895293 228.380418 
L 153.389002 227.512058 
L 155.272375 226.452665 
L 155.532151 226.28212 
L 155.85687 226.10462 
L 156.311478 225.847184 
L 157.805187 224.979647 
L 158.129907 224.799465 
L 163.130587 221.95116 
L 163.455306 221.762132 
L 164.429465 221.18869 
L 164.754184 221.025485 
L 166.312838 220.112079 
L 166.50767 220.025356 
L 167.222052 219.597301 
L 167.67666 219.346624 
L 167.936435 219.192014 
L 168.326099 218.982195 
L 169.495089 218.296156 
L 169.884752 218.087339 
L 170.534191 217.691632 
L 170.988798 217.449673 
L 181.379822 211.670864 
L 181.834429 211.449544 
L 182.094205 211.29022 
L 185.211512 209.509881 
L 185.471288 209.363335 
L 185.925895 209.088081 
L 186.380502 208.857298 
L 186.964997 208.515827 
L 187.224773 208.384757 
L 187.614436 208.147109 
L 188.84837 207.437928 
L 189.432865 207.099021 
L 189.627697 207.001256 
L 190.407024 206.58416 
L 191.121407 206.102895 
L 191.316239 205.978578 
L 191.705902 205.734961 
L 192.809948 205.004603 
L 193.264555 204.706403 
L 196.446806 202.698506 
L 197.031302 202.325802 
L 198.135348 201.567111 
L 198.914675 201.074143 
L 199.239394 200.824244 
L 205.084345 196.922005 
L 205.34412 196.738122 
L 209.17581 194.229441 
L 209.825249 193.735488 
L 210.214913 193.471007 
L 210.864352 192.99775 
L 211.124127 192.827507 
L 211.578735 192.518803 
L 215.800088 189.617203 
L 216.384583 189.218058 
L 217.358742 188.539293 
L 217.618517 188.361188 
L 218.203012 187.978987 
L 219.436946 187.09813 
L 219.696722 186.951662 
L 220.086385 186.648322 
L 220.346161 186.504396 
L 220.930656 186.064577 
L 221.125488 185.946397 
L 224.50257 183.611285 
L 232.360782 178.281826 
L 232.685501 178.049598 
L 232.945277 177.909849 
L 233.269997 177.647967 
L 233.65966 177.400318 
L 234.633818 176.728171 
L 235.932696 175.856776 
L 236.841911 175.194753 
L 237.101687 175.044757 
L 242.49203 171.266298 
L 242.686862 171.152866 
L 242.946637 170.920997 
L 251.714064 164.832813 
L 251.973839 164.682884 
L 252.298559 164.413678 
L 252.688222 164.175448 
L 252.883054 163.99012 
L 253.142829 163.856799 
L 253.532493 163.539372 
L 253.792268 163.360831 
L 255.675641 162.066091 
L 255.935417 161.924483 
L 256.195192 161.734743 
L 257.104407 161.080682 
L 257.299239 160.976388 
L 257.623958 160.730083 
L 258.143509 160.36449 
L 258.598117 160.035964 
L 258.728005 159.97445 
L 258.98778 159.760397 
L 259.637219 159.341856 
L 260.546434 158.70279 
L 261.130929 158.318305 
L 261.390704 158.122316 
L 262.040143 157.663941 
L 263.079246 156.97008 
L 263.274077 156.760036 
L 263.339021 156.788627 
L 263.598797 156.575381 
L 268.664421 153.013292 
L 268.794309 152.944498 
L 269.378804 152.550303 
L 270.028243 152.095445 
L 270.223074 151.993973 
L 270.612738 151.710186 
L 271.327121 151.211955 
L 271.911616 150.77002 
L 272.366223 150.492236 
L 276.392745 147.615128 
L 276.522633 147.557623 
L 277.042184 147.119484 
L 277.172072 147.093895 
L 278.860613 145.895184 
L 279.055445 145.775078 
L 280.48421 144.728893 
L 280.614098 144.678398 
L 280.938818 144.404086 
L 281.003761 144.407098 
L 281.198593 144.215096 
L 281.263537 144.206204 
L 281.458369 143.964906 
L 281.588257 143.884712 
L 282.107808 143.562704 
L 282.627359 143.166403 
L 282.952078 142.956158 
L 283.341742 142.658396 
L 283.601517 142.497291 
L 284.770508 141.612838 
L 284.835451 141.622525 
L 285.095227 141.378393 
L 285.290059 141.268366 
L 285.549834 141.05456 
L 285.874554 140.834292 
L 286.9786 139.977501 
L 287.108488 139.910823 
L 287.498151 139.625525 
L 287.952759 139.27907 
L 288.732085 138.730165 
L 292.304 136.357738 
L 296.460409 133.650683 
L 296.655241 133.471414 
L 296.850073 133.360871 
L 297.369624 132.924021 
L 297.564455 132.859561 
L 297.824231 132.638128 
L 298.668502 132.066176 
L 299.058165 131.834016 
L 299.382885 131.585482 
L 299.447828 131.598887 
L 299.64266 131.402697 
L 300.227155 131.032422 
L 300.357043 130.998042 
L 300.551875 130.822928 
L 302.954799 129.306319 
L 303.019743 129.328224 
L 303.279518 129.135169 
L 303.604238 128.845256 
L 303.669182 128.887957 
L 303.928957 128.671564 
L 304.123789 128.607776 
L 304.188733 128.472977 
L 304.253677 128.514379 
L 305.292779 127.79737 
L 305.422667 127.721779 
L 308.345142 125.714262 
L 308.669862 125.447498 
L 309.059525 125.263738 
L 309.254357 125.079161 
L 309.708964 124.652187 
L 310.033684 124.44837 
L 315.553915 119.999052 
L 315.618859 120.032189 
L 315.748747 119.851251 
L 315.813691 119.884187 
L 316.13841 119.519299 
L 316.46313 119.294764 
L 321.398866 115.216975 
L 321.723585 114.884305 
L 322.567856 114.075489 
L 322.827632 113.803696 
L 323.152351 113.575041 
L 323.477071 113.250636 
L 323.542015 113.295364 
L 323.866734 112.927598 
L 323.996622 112.906567 
L 324.191454 112.729828 
L 324.386285 112.667295 
L 324.581117 112.437475 
L 324.646061 112.454206 
L 324.905836 112.216636 
L 325.035724 112.124762 
L 325.230556 112.068432 
L 325.425388 111.909186 
L 326.399546 111.269807 
L 326.724266 111.05497 
L 327.048985 110.8344 
L 327.568536 110.512146 
L 327.763368 110.34103 
L 328.088087 110.10776 
L 328.153031 110.124513 
L 328.347863 109.931918 
L 328.542695 109.850794 
L 328.737526 109.699097 
L 329.062246 109.397045 
L 329.257078 109.284408 
L 329.516853 109.045651 
L 329.581797 109.094522 
L 329.646741 109.004821 
L 332.504272 106.885441 
L 332.699104 106.735781 
L 333.153711 106.39301 
L 334.777309 105.266419 
L 334.842253 105.079759 
L 334.907197 105.163234 
L 335.29686 104.755623 
L 335.361804 104.808884 
L 335.426748 104.723371 
L 335.751467 104.498456 
L 335.881355 104.407209 
L 336.076187 104.350185 
L 336.271019 104.147936 
L 337.764728 103.044369 
L 337.95956 102.831616 
L 338.154392 102.742765 
L 338.414167 102.47142 
L 338.544055 102.37594 
L 338.803831 102.247177 
L 338.868774 102.105088 
L 338.933718 102.139154 
L 339.063606 102.015431 
L 339.12855 101.898673 
L 339.193494 101.953054 
L 340.232596 101.057828 
L 340.29754 101.130351 
L 340.492372 100.967656 
L 340.882035 100.62072 
L 341.401586 100.216424 
L 341.596418 100.100047 
L 341.856194 99.854168 
L 342.180913 99.657988 
L 342.765408 99.220701 
L 342.830352 99.268519 
L 343.025184 99.012091 
L 343.155072 98.937261 
L 343.479791 98.709748 
L 343.804511 98.51386 
L 344.12923 98.230017 
L 344.259118 98.167416 
L 344.389006 98.051465 
L 344.45395 98.046963 
L 344.648781 97.857548 
L 345.233276 97.414011 
L 345.29822 97.430182 
L 345.493052 97.202714 
L 345.947659 96.823301 
L 346.272379 96.515113 
L 346.337323 96.598588 
L 346.532154 96.324376 
L 346.726986 96.261193 
L 347.11665 95.870425 
L 347.181593 95.933048 
L 347.376425 95.687662 
L 349.324742 94.107545 
L 349.389686 94.135833 
L 349.584518 93.950225 
L 350.039125 93.51072 
L 350.753508 92.984806 
L 351.013283 92.6957 
L 351.143171 92.680671 
L 351.402947 92.381576 
L 351.532835 92.366435 
L 351.727666 92.156795 
L 351.79261 92.148575 
L 351.987442 91.943414 
L 352.247217 91.79259 
L 352.442049 91.56716 
L 352.506993 91.58902 
L 352.701825 91.364508 
L 353.026544 91.086309 
L 353.28632 90.94796 
L 353.481152 90.733258 
L 353.546095 90.751199 
L 353.611039 90.57464 
L 353.675983 90.598784 
L 354.13059 90.251803 
L 354.195534 90.081739 
L 354.260478 90.11771 
L 354.585198 89.864529 
L 354.844973 89.618269 
L 355.494412 89.160331 
L 355.559356 88.967108 
L 355.6243 89.055085 
L 355.884076 88.773057 
L 357.377785 87.534568 
L 357.507673 87.46321 
L 357.702505 87.295072 
L 358.481832 86.617303 
L 358.546776 86.651616 
L 358.741607 86.392321 
L 358.806551 86.430061 
L 359.066327 86.154595 
L 359.391046 85.879756 
L 359.715766 85.622319 
L 359.910597 85.452928 
L 360.235317 85.153407 
L 360.300261 85.179567 
L 360.560036 84.881905 
L 360.689924 84.807859 
L 362.573297 83.288842 
L 362.962961 82.904637 
L 363.092848 82.847344 
L 363.547456 82.40869 
L 363.6124 82.409317 
L 363.807231 82.194459 
L 363.937119 82.14776 
L 364.261839 81.779792 
L 364.911278 81.280665 
L 365.171053 80.977897 
L 365.365885 80.851911 
L 365.560717 80.667961 
L 371.340723 75.942191 
L 371.405667 75.746124 
L 371.470611 75.774972 
L 372.704545 74.743144 
L 372.769489 74.754298 
L 372.964321 74.50983 
L 373.029265 74.491755 
L 373.224096 74.232393 
L 373.418928 74.168963 
L 373.678704 73.884941 
L 373.743648 73.916992 
L 374.003423 73.635568 
L 374.198255 73.481003 
L 374.393087 73.310626 
L 374.652862 73.14484 
L 375.691965 72.170664 
L 375.756908 72.264352 
L 375.95174 72.028866 
L 376.016684 72.037802 
L 376.27646 71.715727 
L 376.406347 71.637963 
L 376.601179 71.563648 
L 376.860955 71.280679 
L 378.029945 70.328721 
L 378.354664 70.018494 
L 378.419608 70.078093 
L 378.61444 69.786546 
L 378.679384 69.781103 
L 378.874216 69.551104 
L 379.069047 69.481873 
L 379.263879 69.292772 
L 379.458711 69.132272 
L 379.978262 68.663157 
L 380.10815 68.557845 
L 380.627701 68.194805 
L 380.822533 67.970808 
L 380.95242 67.943259 
L 381.082308 67.801147 
L 381.471971 67.45831 
L 381.926579 67.085034 
L 382.056467 66.96803 
L 382.770849 66.386928 
L 382.965681 66.210056 
L 384.069727 65.390556 
L 384.134671 65.138943 
L 384.199615 65.245241 
L 384.394447 65.063015 
L 384.459391 65.050854 
L 384.589279 64.854361 
L 384.654222 64.862581 
L 384.913998 64.576409 
L 385.043886 64.501288 
L 385.433549 64.148573 
L 385.498493 64.182281 
L 385.693325 63.916826 
L 385.758269 63.923008 
L 386.018044 63.661317 
L 386.147932 63.599791 
L 386.732427 63.091906 
L 386.797371 63.067986 
L 386.862315 62.919872 
L 386.927259 63.060662 
L 387.122091 62.770078 
L 387.251978 62.649176 
L 387.44681 62.433713 
L 387.511754 62.485451 
L 387.706586 62.270592 
L 388.291081 61.844302 
L 388.485912 61.657485 
L 389.200295 60.961283 
L 389.265239 61.025227 
L 389.330183 60.945246 
L 390.174454 60.229894 
L 390.304342 60.130584 
L 391.538276 59.11775 
L 391.733107 58.94941 
L 393.291761 57.693205 
L 393.356705 57.709936 
L 393.551536 57.491068 
L 393.61648 57.550489 
L 393.811312 57.378006 
L 394.136032 57.13309 
L 394.265919 57.092304 
L 394.850414 56.56041 
L 394.915358 56.647581 
L 395.11019 56.445847 
L 395.305022 56.182005 
L 395.369966 56.296031 
L 395.499853 56.054452 
L 395.564797 56.103704 
L 395.759629 55.822369 
L 395.824573 55.97409 
L 395.954461 55.71569 
L 396.084349 55.613625 
L 396.344124 55.35713 
L 396.668844 55.121016 
L 396.733787 55.10751 
L 396.798731 54.946316 
L 396.863675 55.001615 
L 398.487273 53.568 
L 398.487273 53.568 
" clip-path="url(#pa5f0208f09)" style="fill: none; stroke: #008000; stroke-width: 1.5; stroke-linecap: square"/>
   </g>
   <g id="line2d_15">
    <path d="M 73.832727 196.640794 
L 74.352278 204.376746 
L 74.741942 207.536118 
L 75.001717 208.176226 
L 76.04082 209.831687 
L 77.014978 211.757347 
L 77.664417 213.612767 
L 78.3788 216.387597 
L 79.288015 220.822621 
L 83.37948 242.359746 
L 84.353639 245.848551 
L 85.262853 248.347159 
L 86.237012 250.367173 
L 87.081282 251.671437 
L 88.185329 252.861099 
L 89.159487 253.535486 
L 90.068702 253.897054 
L 92.21185 254.1366 
L 94.354999 253.836217 
L 95.004438 253.674664 
L 101.04422 251.421078 
L 101.953435 250.925899 
L 103.122425 250.209976 
L 103.641976 249.862726 
L 104.940854 248.998291 
L 105.720181 248.474673 
L 107.278835 247.418505 
L 108.058161 246.892316 
L 110.461086 245.349228 
L 111.500188 244.715134 
L 112.084683 244.330312 
L 112.344459 244.180361 
L 112.734122 243.90606 
L 112.928954 243.809001 
L 121.956156 237.946992 
L 122.670538 237.454069 
L 122.86537 237.350245 
L 129.294816 233.019947 
L 129.879311 232.587038 
L 130.593694 232.070598 
L 133.19145 230.087719 
L 133.711001 229.716442 
L 133.970777 229.490626 
L 134.230552 229.313669 
L 134.68516 228.963166 
L 134.944935 228.742926 
L 137.217972 227.044842 
L 147.154388 219.815273 
L 147.479107 219.605029 
L 147.803827 219.362447 
L 149.102705 218.537449 
L 149.36248 218.359277 
L 150.076863 217.876713 
L 150.206751 217.828061 
L 153.064283 216.019686 
L 153.259114 215.908734 
L 154.038441 215.413157 
L 154.298217 215.260676 
L 154.882712 214.907938 
L 156.895973 213.701321 
L 156.960917 213.703863 
L 157.155748 213.519124 
L 157.285636 213.500125 
L 157.480468 213.330391 
L 157.610356 213.271133 
L 158.129907 212.987442 
L 158.649458 212.668094 
L 159.104065 212.438945 
L 159.493729 212.19992 
L 159.68856 212.121378 
L 159.948336 211.9509 
L 169.040482 207.128641 
L 169.235313 207.048078 
L 169.495089 206.897489 
L 170.01464 206.656481 
L 170.274416 206.537058 
L 170.858911 206.221601 
L 170.923855 206.252476 
L 171.118686 206.112134 
L 171.768125 205.791884 
L 172.157789 205.635046 
L 172.482508 205.44946 
L 172.742284 205.361103 
L 173.131947 205.151966 
L 173.521611 204.983482 
L 175.080264 204.242866 
L 175.599815 204.044077 
L 175.924535 203.847148 
L 176.18431 203.760783 
L 176.573974 203.55448 
L 177.288357 203.234723 
L 177.613076 203.069889 
L 180.405664 201.782955 
L 180.665439 201.659175 
L 181.120047 201.441215 
L 181.50971 201.263413 
L 181.704542 201.204339 
L 181.899373 201.052014 
L 182.029261 201.040491 
L 183.458027 200.333113 
L 183.522971 200.387919 
L 183.717802 200.229928 
L 183.912634 200.164258 
L 185.276456 199.579293 
L 185.536232 199.434382 
L 185.731063 199.415344 
L 185.925895 199.209343 
L 185.990839 199.283692 
L 186.185671 199.147179 
L 187.159829 198.738113 
L 187.484549 198.617155 
L 187.809268 198.449678 
L 188.523651 198.102552 
L 191.965677 196.410649 
L 192.225453 196.273801 
L 192.809948 195.967639 
L 193.069724 195.844576 
L 193.524331 195.559154 
L 193.719163 195.488009 
L 194.433546 195.089234 
L 194.758265 194.937513 
L 201.51243 191.374932 
L 201.772206 191.25898 
L 202.226813 190.962147 
L 202.486589 190.853363 
L 202.941196 190.588278 
L 203.071084 190.533247 
L 203.590635 190.249304 
L 203.850411 190.127092 
L 204.49985 189.771286 
L 205.538952 189.188852 
L 205.66884 189.129443 
L 205.928616 189.012517 
L 207.811989 188.058924 
L 208.071764 187.945302 
L 208.461428 187.728102 
L 209.435586 187.157528 
L 209.50053 187.191863 
L 209.695362 187.014901 
L 209.955137 186.908065 
L 210.149969 186.734709 
L 210.409744 186.660114 
L 210.604576 186.487251 
L 210.99424 186.298362 
L 212.812669 185.277599 
L 213.202332 185.087064 
L 213.462108 184.920337 
L 216.319639 183.340119 
L 216.579415 183.200113 
L 217.228854 182.868194 
L 217.488629 182.67851 
L 217.683461 182.60162 
L 218.008181 182.36788 
L 218.073124 182.425643 
L 218.267956 182.220494 
L 218.397844 182.173537 
L 218.592676 181.996665 
L 218.65762 182.059389 
L 218.852451 181.906235 
L 218.982339 181.857465 
L 219.177171 181.708309 
L 219.631778 181.473226 
L 220.735824 180.857106 
L 221.190432 180.573498 
L 221.320319 180.508624 
L 223.593356 179.274581 
L 223.788187 179.111505 
L 224.957178 178.476594 
L 225.281897 178.26552 
L 225.346841 178.276148 
L 225.541673 178.10707 
L 225.736504 178.029888 
L 226.710663 177.449985 
L 226.905495 177.367237 
L 227.230214 177.142994 
L 227.425046 177.069273 
L 233.075165 173.792348 
L 233.140109 173.833828 
L 233.33494 173.682915 
L 233.789548 173.41933 
L 234.179211 173.224652 
L 234.438987 173.072931 
L 234.763706 172.864624 
L 235.348201 172.59002 
L 235.543033 172.394838 
L 235.672921 172.352742 
L 235.932696 172.245906 
L 236.127528 172.104074 
L 237.101687 171.580109 
L 237.361462 171.403673 
L 237.426406 171.431199 
L 237.621238 171.260911 
L 237.881013 171.170179 
L 238.140789 170.982231 
L 238.335621 170.888789 
L 238.920116 170.548852 
L 239.050003 170.483698 
L 239.439667 170.254258 
L 239.634499 170.187369 
L 239.959218 169.944222 
L 240.089106 169.875641 
L 245.479449 166.935798 
L 245.544393 166.943099 
L 245.739225 166.795847 
L 246.453608 166.471678 
L 246.64844 166.30914 
L 247.038103 166.135246 
L 247.362822 165.938429 
L 248.272037 165.474264 
L 248.531813 165.330685 
L 248.98642 165.094146 
L 249.960578 164.625144 
L 250.15541 164.479471 
L 250.415186 164.367349 
L 250.804849 164.153991 
L 257.104407 160.827288 
L 257.299239 160.739613 
L 257.948678 160.413428 
L 258.338341 160.165309 
L 258.663061 160.034038 
L 259.052724 159.796524 
L 259.3125 159.704818 
L 259.637219 159.510632 
L 260.351602 159.096974 
L 260.611378 159.014171 
L 260.806209 158.85936 
L 260.936097 158.81041 
L 261.260817 158.631611 
L 263.403965 157.47858 
L 263.923516 157.194132 
L 264.053404 157.155306 
L 264.508011 156.871979 
L 264.702843 156.798762 
L 267.105767 155.485051 
L 267.430487 155.331203 
L 267.560375 155.255343 
L 267.82015 155.150512 
L 268.14487 154.945082 
L 268.404645 154.855033 
L 268.599477 154.716998 
L 269.119028 154.443055 
L 269.378804 154.329903 
L 269.703523 154.142414 
L 270.093187 153.950726 
L 270.872513 153.550024 
L 271.197233 153.387217 
L 274.249596 151.737579 
L 274.444428 151.673768 
L 275.743306 150.986861 
L 276.003081 150.813908 
L 276.197913 150.752158 
L 276.457689 150.616296 
L 280.80893 148.308038 
L 281.133649 148.117066 
L 281.393425 147.998752 
L 281.6532 147.782684 
L 281.848032 147.735895 
L 282.237696 147.502928 
L 282.497471 147.414985 
L 282.692303 147.283221 
L 283.406686 146.910314 
L 285.549834 145.725893 
L 285.744666 145.638442 
L 288.082646 144.346356 
L 288.732085 143.991447 
L 288.991861 143.86078 
L 290.420627 143.08939 
L 290.550514 143.021413 
L 290.81029 142.899023 
L 291.199953 142.704445 
L 291.719505 142.475364 
L 291.97928 142.343029 
L 298.408726 139.039026 
L 298.668502 138.930599 
L 299.902436 138.305252 
L 301.266258 137.700364 
L 301.526033 137.592599 
L 301.98064 137.330291 
L 302.695023 137.029796 
L 302.954799 136.860662 
L 303.084687 136.799506 
L 303.928957 136.367515 
L 304.188733 136.190698 
L 304.513453 136.056235 
L 305.033004 135.702199 
L 305.162891 135.685255 
L 305.487611 135.487643 
L 305.617499 135.429051 
L 310.618179 132.429172 
L 311.072786 132.07537 
L 311.267618 131.985053 
L 311.527393 131.783789 
L 311.917057 131.570588 
L 312.30672 131.24045 
L 312.436608 131.217448 
L 314.125149 130.12069 
L 314.449869 129.923503 
L 315.099308 129.424869 
L 315.164252 129.488903 
L 315.29414 129.342816 
L 318.281559 127.424643 
L 318.541334 127.214824 
L 318.671222 127.16247 
L 319.190773 126.770436 
L 319.255717 126.810841 
L 319.450549 126.632367 
L 319.775269 126.422783 
L 320.099988 126.222225 
L 320.29482 126.045554 
L 320.554595 125.921528 
L 320.814371 125.665111 
L 321.074146 125.486245 
L 324.451229 122.560199 
L 324.581117 122.499636 
L 325.815051 121.762111 
L 326.009883 121.619775 
L 326.529434 121.241628 
L 326.854153 121.108184 
L 327.113929 120.917257 
L 328.412807 120.121767 
L 328.672583 119.925779 
L 328.80247 119.844957 
L 328.997302 119.747853 
L 329.322021 119.491907 
L 329.451909 119.455421 
L 329.711685 119.287597 
L 330.036404 119.073444 
L 333.997982 116.698162 
L 334.322702 116.594686 
L 334.647421 116.36332 
L 334.777309 116.337474 
L 334.972141 116.202865 
L 335.29686 115.969932 
L 335.62158 115.859803 
L 335.816411 115.742329 
L 337.245177 114.930735 
L 337.440009 114.847574 
L 337.63484 114.74842 
L 338.024504 114.496001 
L 338.803831 114.118156 
L 338.998662 113.986101 
L 339.193494 113.889993 
L 339.583157 113.605703 
L 339.713045 113.564671 
L 340.037765 113.329094 
L 340.102709 113.396219 
L 340.232596 113.25357 
L 340.29754 113.290324 
L 340.427428 113.171215 
L 340.557316 113.149489 
L 340.882035 112.92547 
L 341.726306 112.43855 
L 341.79125 112.455012 
L 341.856194 112.32719 
L 341.921138 112.386207 
L 342.245857 112.219637 
L 344.259118 111.176924 
L 344.973501 110.788911 
L 345.557996 110.467642 
L 345.752828 110.336662 
L 346.142491 110.188212 
L 346.402267 109.979983 
L 346.597098 109.872968 
L 347.506313 109.353638 
L 347.895976 109.143394 
L 348.090808 109.051228 
L 351.727666 106.987886 
L 351.79261 106.990104 
L 351.987442 106.835763 
L 352.247217 106.697392 
L 352.636881 106.482511 
L 354.065647 105.650983 
L 354.13059 105.692083 
L 354.390366 105.441746 
L 354.520254 105.427054 
L 355.104749 105.078012 
L 355.234637 105.034763 
L 355.754188 104.726238 
L 356.013964 104.630175 
L 356.273739 104.434466 
L 356.533515 104.358449 
L 356.988122 104.019397 
L 357.182954 103.948666 
L 357.442729 103.81997 
L 357.832393 103.565132 
L 357.96228 103.522331 
L 358.481832 103.197366 
L 358.546776 103.231052 
L 358.741607 103.059376 
L 358.871495 102.967994 
L 359.78071 102.441049 
L 359.910597 102.396031 
L 360.62498 102.012497 
L 360.819812 101.849667 
L 360.9497 101.817774 
L 361.339363 101.590372 
L 361.729027 101.354796 
L 361.858914 101.328681 
L 362.313522 101.041008 
L 362.508353 100.962281 
L 362.962961 100.669882 
L 363.092848 100.615009 
L 363.28768 100.487164 
L 364.911278 99.528957 
L 365.430829 99.159354 
L 365.560717 99.113417 
L 365.820492 98.955896 
L 366.924538 98.32337 
L 367.249258 98.092273 
L 367.379146 98.037265 
L 368.61308 97.284196 
L 368.678024 97.322854 
L 368.937799 97.104501 
L 369.392406 96.849036 
L 369.45735 96.726656 
L 369.522294 96.797903 
L 371.860275 95.370245 
L 371.990162 95.329683 
L 372.249938 95.163293 
L 378.939159 91.17834 
L 379.133991 91.013159 
L 379.263879 90.962115 
L 379.653542 90.700916 
L 379.78343 90.621898 
L 379.913318 90.591975 
L 380.10815 90.426525 
L 380.302981 90.342647 
L 380.692645 90.070742 
L 380.887476 90.04765 
L 381.536915 89.609579 
L 381.601859 89.648237 
L 381.666803 89.510201 
L 381.731747 89.559185 
L 382.251298 89.189649 
L 382.316242 89.224343 
L 382.511074 89.063037 
L 389.914678 84.60841 
L 390.044566 84.519783 
L 391.148612 83.864591 
L 391.343444 83.725391 
L 391.473332 83.645813 
L 391.862995 83.454762 
L 392.187715 83.197349 
L 392.44749 83.07965 
L 393.681424 82.384478 
L 393.9412 82.281159 
L 394.395807 82.059245 
L 394.525695 82.008806 
L 394.720527 81.849852 
L 394.785471 81.861028 
L 394.980302 81.705567 
L 395.240078 81.561373 
L 395.43491 81.412206 
L 395.824573 81.291551 
L 395.954461 81.144265 
L 396.019405 81.166618 
L 396.214236 80.962107 
L 396.27918 81.004595 
L 396.409068 80.856951 
L 396.474012 80.881924 
L 396.6039 80.781538 
L 396.928619 80.614969 
L 397.253339 80.393212 
L 397.513114 80.246441 
L 397.707946 80.114274 
L 397.77289 80.174366 
L 398.032665 79.92132 
L 398.487273 79.69907 
L 398.487273 79.69907 
" clip-path="url(#pa5f0208f09)" style="fill: none; stroke: #ff0000; stroke-width: 1.5; stroke-linecap: square"/>
   </g>
   <g id="patch_3">
    <path d="M 57.6 307.584 
L 57.6 41.472 
" style="fill: none; stroke: #000000; stroke-width: 0.8; stroke-linejoin: miter; stroke-linecap: square"/>
   </g>
   <g id="patch_4">
    <path d="M 414.72 307.584 
L 414.72 41.472 
" style="fill: none; stroke: #000000; stroke-width: 0.8; stroke-linejoin: miter; stroke-linecap: square"/>
   </g>
   <g id="patch_5">
    <path d="M 57.6 307.584 
L 414.72 307.584 
" style="fill: none; stroke: #000000; stroke-width: 0.8; stroke-linejoin: miter; stroke-linecap: square"/>
   </g>
   <g id="patch_6">
    <path d="M 57.6 41.472 
L 414.72 41.472 
" style="fill: none; stroke: #000000; stroke-width: 0.8; stroke-linejoin: miter; stroke-linecap: square"/>
   </g>
   <g id="text_15">
    <!-- Script19_loss -->
    <g transform="translate(196.532813 35.472) scale(0.12 -0.12)">
     <defs>
      <path id="DejaVuSans-53" d="M 3425 4513 
L 3425 3897 
Q 3066 4069 2747 4153 
Q 2428 4238 2131 4238 
Q 1616 4238 1336 4038 
Q 1056 3838 1056 3469 
Q 1056 3159 1242 3001 
Q 1428 2844 1947 2747 
L 2328 2669 
Q 3034 2534 3370 2195 
Q 3706 1856 3706 1288 
Q 3706 609 3251 259 
Q 2797 -91 1919 -91 
Q 1588 -91 1214 -16 
Q 841 59 441 206 
L 441 856 
Q 825 641 1194 531 
Q 1563 422 1919 422 
Q 2459 422 2753 634 
Q 3047 847 3047 1241 
Q 3047 1584 2836 1778 
Q 2625 1972 2144 2069 
L 1759 2144 
Q 1053 2284 737 2584 
Q 422 2884 422 3419 
Q 422 4038 858 4394 
Q 1294 4750 2059 4750 
Q 2388 4750 2728 4690 
Q 3069 4631 3425 4513 
z
" transform="scale(0.015625)"/>
      <path id="DejaVuSans-72" d="M 2631 2963 
Q 2534 3019 2420 3045 
Q 2306 3072 2169 3072 
Q 1681 3072 1420 2755 
Q 1159 2438 1159 1844 
L 1159 0 
L 581 0 
L 581 3500 
L 1159 3500 
L 1159 2956 
Q 1341 3275 1631 3429 
Q 1922 3584 2338 3584 
Q 2397 3584 2469 3576 
Q 2541 3569 2628 3553 
L 2631 2963 
z
" transform="scale(0.015625)"/>
      <path id="DejaVuSans-69" d="M 603 3500 
L 1178 3500 
L 1178 0 
L 603 0 
L 603 3500 
z
M 603 4863 
L 1178 4863 
L 1178 4134 
L 603 4134 
L 603 4863 
z
" transform="scale(0.015625)"/>
      <path id="DejaVuSans-74" d="M 1172 4494 
L 1172 3500 
L 2356 3500 
L 2356 3053 
L 1172 3053 
L 1172 1153 
Q 1172 725 1289 603 
Q 1406 481 1766 481 
L 2356 481 
L 2356 0 
L 1766 0 
Q 1100 0 847 248 
Q 594 497 594 1153 
L 594 3053 
L 172 3053 
L 172 3500 
L 594 3500 
L 594 4494 
L 1172 4494 
z
" transform="scale(0.015625)"/>
      <path id="DejaVuSans-39" d="M 703 97 
L 703 672 
Q 941 559 1184 500 
Q 1428 441 1663 441 
Q 2288 441 2617 861 
Q 2947 1281 2994 2138 
Q 2813 1869 2534 1725 
Q 2256 1581 1919 1581 
Q 1219 1581 811 2004 
Q 403 2428 403 3163 
Q 403 3881 828 4315 
Q 1253 4750 1959 4750 
Q 2769 4750 3195 4129 
Q 3622 3509 3622 2328 
Q 3622 1225 3098 567 
Q 2575 -91 1691 -91 
Q 1453 -91 1209 -44 
Q 966 3 703 97 
z
M 1959 2075 
Q 2384 2075 2632 2365 
Q 2881 2656 2881 3163 
Q 2881 3666 2632 3958 
Q 2384 4250 1959 4250 
Q 1534 4250 1286 3958 
Q 1038 3666 1038 3163 
Q 1038 2656 1286 2365 
Q 1534 2075 1959 2075 
z
" transform="scale(0.015625)"/>
      <path id="DejaVuSans-5f" d="M 3263 -1063 
L 3263 -1509 
L -63 -1509 
L -63 -1063 
L 3263 -1063 
z
" transform="scale(0.015625)"/>
     </defs>
     <use xlink:href="#DejaVuSans-53"/>
     <use xlink:href="#DejaVuSans-63" x="63.476562"/>
     <use xlink:href="#DejaVuSans-72" x="118.457031"/>
     <use xlink:href="#DejaVuSans-69" x="159.570312"/>
     <use xlink:href="#DejaVuSans-70" x="187.353516"/>
     <use xlink:href="#DejaVuSans-74" x="250.830078"/>
     <use xlink:href="#DejaVuSans-31" x="290.039062"/>
     <use xlink:href="#DejaVuSans-39" x="353.662109"/>
     <use xlink:href="#DejaVuSans-5f" x="417.285156"/>
     <use xlink:href="#DejaVuSans-6c" x="467.285156"/>
     <use xlink:href="#DejaVuSans-6f" x="495.068359"/>
     <use xlink:href="#DejaVuSans-73" x="556.25"/>
     <use xlink:href="#DejaVuSans-73" x="608.349609"/>
    </g>
   </g>
   <g id="legend_1">
    <g id="patch_7">
     <path d="M 64.6 93.506375 
L 164.295312 93.506375 
Q 166.295312 93.506375 166.295312 91.506375 
L 166.295312 48.472 
Q 166.295312 46.472 164.295312 46.472 
L 64.6 46.472 
Q 62.6 46.472 62.6 48.472 
L 62.6 91.506375 
Q 62.6 93.506375 64.6 93.506375 
z
" style="fill: #ffffff; opacity: 0.8; stroke: #cccccc; stroke-linejoin: miter"/>
    </g>
    <g id="line2d_16">
     <path d="M 66.6 54.570438 
L 76.6 54.570438 
L 86.6 54.570438 
" style="fill: none; stroke: #0000ff; stroke-width: 1.5; stroke-linecap: square"/>
    </g>
    <g id="text_16">
     <!-- training set -->
     <g transform="translate(94.6 58.070438) scale(0.1 -0.1)">
      <defs>
       <path id="DejaVuSans-61" d="M 2194 1759 
Q 1497 1759 1228 1600 
Q 959 1441 959 1056 
Q 959 750 1161 570 
Q 1363 391 1709 391 
Q 2188 391 2477 730 
Q 2766 1069 2766 1631 
L 2766 1759 
L 2194 1759 
z
M 3341 1997 
L 3341 0 
L 2766 0 
L 2766 531 
Q 2569 213 2275 61 
Q 1981 -91 1556 -91 
Q 1019 -91 701 211 
Q 384 513 384 1019 
Q 384 1609 779 1909 
Q 1175 2209 1959 2209 
L 2766 2209 
L 2766 2266 
Q 2766 2663 2505 2880 
Q 2244 3097 1772 3097 
Q 1472 3097 1187 3025 
Q 903 2953 641 2809 
L 641 3341 
Q 956 3463 1253 3523 
Q 1550 3584 1831 3584 
Q 2591 3584 2966 3190 
Q 3341 2797 3341 1997 
z
" transform="scale(0.015625)"/>
       <path id="DejaVuSans-6e" d="M 3513 2113 
L 3513 0 
L 2938 0 
L 2938 2094 
Q 2938 2591 2744 2837 
Q 2550 3084 2163 3084 
Q 1697 3084 1428 2787 
Q 1159 2491 1159 1978 
L 1159 0 
L 581 0 
L 581 3500 
L 1159 3500 
L 1159 2956 
Q 1366 3272 1645 3428 
Q 1925 3584 2291 3584 
Q 2894 3584 3203 3211 
Q 3513 2838 3513 2113 
z
" transform="scale(0.015625)"/>
       <path id="DejaVuSans-67" d="M 2906 1791 
Q 2906 2416 2648 2759 
Q 2391 3103 1925 3103 
Q 1463 3103 1205 2759 
Q 947 2416 947 1791 
Q 947 1169 1205 825 
Q 1463 481 1925 481 
Q 2391 481 2648 825 
Q 2906 1169 2906 1791 
z
M 3481 434 
Q 3481 -459 3084 -895 
Q 2688 -1331 1869 -1331 
Q 1566 -1331 1297 -1286 
Q 1028 -1241 775 -1147 
L 775 -588 
Q 1028 -725 1275 -790 
Q 1522 -856 1778 -856 
Q 2344 -856 2625 -561 
Q 2906 -266 2906 331 
L 2906 616 
Q 2728 306 2450 153 
Q 2172 0 1784 0 
Q 1141 0 747 490 
Q 353 981 353 1791 
Q 353 2603 747 3093 
Q 1141 3584 1784 3584 
Q 2172 3584 2450 3431 
Q 2728 3278 2906 2969 
L 2906 3500 
L 3481 3500 
L 3481 434 
z
" transform="scale(0.015625)"/>
       <path id="DejaVuSans-20" transform="scale(0.015625)"/>
      </defs>
      <use xlink:href="#DejaVuSans-74"/>
      <use xlink:href="#DejaVuSans-72" x="39.208984"/>
      <use xlink:href="#DejaVuSans-61" x="80.322266"/>
      <use xlink:href="#DejaVuSans-69" x="141.601562"/>
      <use xlink:href="#DejaVuSans-6e" x="169.384766"/>
      <use xlink:href="#DejaVuSans-69" x="232.763672"/>
      <use xlink:href="#DejaVuSans-6e" x="260.546875"/>
      <use xlink:href="#DejaVuSans-67" x="323.925781"/>
      <use xlink:href="#DejaVuSans-20" x="387.402344"/>
      <use xlink:href="#DejaVuSans-73" x="419.189453"/>
      <use xlink:href="#DejaVuSans-65" x="471.289062"/>
      <use xlink:href="#DejaVuSans-74" x="532.8125"/>
     </g>
    </g>
    <g id="line2d_17">
     <path d="M 66.6 69.248563 
L 76.6 69.248563 
L 86.6 69.248563 
" style="fill: none; stroke: #008000; stroke-width: 1.5; stroke-linecap: square"/>
    </g>
    <g id="text_17">
     <!-- validation set -->
     <g transform="translate(94.6 72.748563) scale(0.1 -0.1)">
      <defs>
       <path id="DejaVuSans-76" d="M 191 3500 
L 800 3500 
L 1894 563 
L 2988 3500 
L 3597 3500 
L 2284 0 
L 1503 0 
L 191 3500 
z
" transform="scale(0.015625)"/>
       <path id="DejaVuSans-64" d="M 2906 2969 
L 2906 4863 
L 3481 4863 
L 3481 0 
L 2906 0 
L 2906 525 
Q 2725 213 2448 61 
Q 2172 -91 1784 -91 
Q 1150 -91 751 415 
Q 353 922 353 1747 
Q 353 2572 751 3078 
Q 1150 3584 1784 3584 
Q 2172 3584 2448 3432 
Q 2725 3281 2906 2969 
z
M 947 1747 
Q 947 1113 1208 752 
Q 1469 391 1925 391 
Q 2381 391 2643 752 
Q 2906 1113 2906 1747 
Q 2906 2381 2643 2742 
Q 2381 3103 1925 3103 
Q 1469 3103 1208 2742 
Q 947 2381 947 1747 
z
" transform="scale(0.015625)"/>
      </defs>
      <use xlink:href="#DejaVuSans-76"/>
      <use xlink:href="#DejaVuSans-61" x="59.179688"/>
      <use xlink:href="#DejaVuSans-6c" x="120.458984"/>
      <use xlink:href="#DejaVuSans-69" x="148.242188"/>
      <use xlink:href="#DejaVuSans-64" x="176.025391"/>
      <use xlink:href="#DejaVuSans-61" x="239.501953"/>
      <use xlink:href="#DejaVuSans-74" x="300.78125"/>
      <use xlink:href="#DejaVuSans-69" x="339.990234"/>
      <use xlink:href="#DejaVuSans-6f" x="367.773438"/>
      <use xlink:href="#DejaVuSans-6e" x="428.955078"/>
      <use xlink:href="#DejaVuSans-20" x="492.333984"/>
      <use xlink:href="#DejaVuSans-73" x="524.121094"/>
      <use xlink:href="#DejaVuSans-65" x="576.220703"/>
      <use xlink:href="#DejaVuSans-74" x="637.744141"/>
     </g>
    </g>
    <g id="line2d_18">
     <path d="M 66.6 83.926688 
L 76.6 83.926688 
L 86.6 83.926688 
" style="fill: none; stroke: #ff0000; stroke-width: 1.5; stroke-linecap: square"/>
    </g>
    <g id="text_18">
     <!-- test set -->
     <g transform="translate(94.6 87.426688) scale(0.1 -0.1)">
      <use xlink:href="#DejaVuSans-74"/>
      <use xlink:href="#DejaVuSans-65" x="39.208984"/>
      <use xlink:href="#DejaVuSans-73" x="100.732422"/>
      <use xlink:href="#DejaVuSans-74" x="152.832031"/>
      <use xlink:href="#DejaVuSans-20" x="192.041016"/>
      <use xlink:href="#DejaVuSans-73" x="223.828125"/>
      <use xlink:href="#DejaVuSans-65" x="275.927734"/>
      <use xlink:href="#DejaVuSans-74" x="337.451172"/>
     </g>
    </g>
   </g>
  </g>
 </g>
 <defs>
  <clipPath id="pa5f0208f09">
   <rect x="57.6" y="41.472" width="357.12" height="266.112"/>
  </clipPath>
 </defs>
</svg>
