<?xml version="1.0" encoding="utf-8" standalone="no"?>
<!DOCTYPE svg PUBLIC "-//W3C//DTD SVG 1.1//EN"
  "http://www.w3.org/Graphics/SVG/1.1/DTD/svg11.dtd">
<svg xmlns:xlink="http://www.w3.org/1999/xlink" width="460.8pt" height="345.6pt" viewBox="0 0 460.8 345.6" xmlns="http://www.w3.org/2000/svg" version="1.1">
 <metadata>
  <rdf:RDF xmlns:dc="http://purl.org/dc/elements/1.1/" xmlns:cc="http://creativecommons.org/ns#" xmlns:rdf="http://www.w3.org/1999/02/22-rdf-syntax-ns#">
   <cc:Work>
    <dc:type rdf:resource="http://purl.org/dc/dcmitype/StillImage"/>
    <dc:date>2023-06-14T04:12:17.293451</dc:date>
    <dc:format>image/svg+xml</dc:format>
    <dc:creator>
     <cc:Agent>
      <dc:title>Matplotlib v3.7.1, https://matplotlib.org/</dc:title>
     </cc:Agent>
    </dc:creator>
   </cc:Work>
  </rdf:RDF>
 </metadata>
 <defs>
  <style type="text/css">*{stroke-linejoin: round; stroke-linecap: butt}</style>
 </defs>
 <g id="figure_1">
  <g id="patch_1">
   <path d="M 0 345.6 
L 460.8 345.6 
L 460.8 0 
L 0 0 
z
" style="fill: #ffffff"/>
  </g>
  <g id="axes_1">
   <g id="patch_2">
    <path d="M 57.6 307.584 
L 414.72 307.584 
L 414.72 41.472 
L 57.6 41.472 
z
" style="fill: #ffffff"/>
   </g>
   <g id="matplotlib.axis_1">
    <g id="xtick_1">
     <g id="line2d_1">
      <defs>
       <path id="meacd02d898" d="M 0 0 
L 0 3.5 
" style="stroke: #000000; stroke-width: 0.8"/>
      </defs>
      <g>
       <use xlink:href="#meacd02d898" x="73.767783" y="307.584" style="stroke: #000000; stroke-width: 0.8"/>
      </g>
     </g>
     <g id="text_1">
      <!-- 0 -->
      <g transform="translate(70.586533 322.182437) scale(0.1 -0.1)">
       <defs>
        <path id="DejaVuSans-30" d="M 2034 4250 
Q 1547 4250 1301 3770 
Q 1056 3291 1056 2328 
Q 1056 1369 1301 889 
Q 1547 409 2034 409 
Q 2525 409 2770 889 
Q 3016 1369 3016 2328 
Q 3016 3291 2770 3770 
Q 2525 4250 2034 4250 
z
M 2034 4750 
Q 2819 4750 3233 4129 
Q 3647 3509 3647 2328 
Q 3647 1150 3233 529 
Q 2819 -91 2034 -91 
Q 1250 -91 836 529 
Q 422 1150 422 2328 
Q 422 3509 836 4129 
Q 1250 4750 2034 4750 
z
" transform="scale(0.015625)"/>
       </defs>
       <use xlink:href="#DejaVuSans-30"/>
      </g>
     </g>
    </g>
    <g id="xtick_2">
     <g id="line2d_2">
      <g>
       <use xlink:href="#meacd02d898" x="138.711681" y="307.584" style="stroke: #000000; stroke-width: 0.8"/>
      </g>
     </g>
     <g id="text_2">
      <!-- 1000 -->
      <g transform="translate(125.986681 322.182437) scale(0.1 -0.1)">
       <defs>
        <path id="DejaVuSans-31" d="M 794 531 
L 1825 531 
L 1825 4091 
L 703 3866 
L 703 4441 
L 1819 4666 
L 2450 4666 
L 2450 531 
L 3481 531 
L 3481 0 
L 794 0 
L 794 531 
z
" transform="scale(0.015625)"/>
       </defs>
       <use xlink:href="#DejaVuSans-31"/>
       <use xlink:href="#DejaVuSans-30" x="63.623047"/>
       <use xlink:href="#DejaVuSans-30" x="127.246094"/>
       <use xlink:href="#DejaVuSans-30" x="190.869141"/>
      </g>
     </g>
    </g>
    <g id="xtick_3">
     <g id="line2d_3">
      <g>
       <use xlink:href="#meacd02d898" x="203.655579" y="307.584" style="stroke: #000000; stroke-width: 0.8"/>
      </g>
     </g>
     <g id="text_3">
      <!-- 2000 -->
      <g transform="translate(190.930579 322.182437) scale(0.1 -0.1)">
       <defs>
        <path id="DejaVuSans-32" d="M 1228 531 
L 3431 531 
L 3431 0 
L 469 0 
L 469 531 
Q 828 903 1448 1529 
Q 2069 2156 2228 2338 
Q 2531 2678 2651 2914 
Q 2772 3150 2772 3378 
Q 2772 3750 2511 3984 
Q 2250 4219 1831 4219 
Q 1534 4219 1204 4116 
Q 875 4013 500 3803 
L 500 4441 
Q 881 4594 1212 4672 
Q 1544 4750 1819 4750 
Q 2544 4750 2975 4387 
Q 3406 4025 3406 3419 
Q 3406 3131 3298 2873 
Q 3191 2616 2906 2266 
Q 2828 2175 2409 1742 
Q 1991 1309 1228 531 
z
" transform="scale(0.015625)"/>
       </defs>
       <use xlink:href="#DejaVuSans-32"/>
       <use xlink:href="#DejaVuSans-30" x="63.623047"/>
       <use xlink:href="#DejaVuSans-30" x="127.246094"/>
       <use xlink:href="#DejaVuSans-30" x="190.869141"/>
      </g>
     </g>
    </g>
    <g id="xtick_4">
     <g id="line2d_4">
      <g>
       <use xlink:href="#meacd02d898" x="268.599477" y="307.584" style="stroke: #000000; stroke-width: 0.8"/>
      </g>
     </g>
     <g id="text_4">
      <!-- 3000 -->
      <g transform="translate(255.874477 322.182437) scale(0.1 -0.1)">
       <defs>
        <path id="DejaVuSans-33" d="M 2597 2516 
Q 3050 2419 3304 2112 
Q 3559 1806 3559 1356 
Q 3559 666 3084 287 
Q 2609 -91 1734 -91 
Q 1441 -91 1130 -33 
Q 819 25 488 141 
L 488 750 
Q 750 597 1062 519 
Q 1375 441 1716 441 
Q 2309 441 2620 675 
Q 2931 909 2931 1356 
Q 2931 1769 2642 2001 
Q 2353 2234 1838 2234 
L 1294 2234 
L 1294 2753 
L 1863 2753 
Q 2328 2753 2575 2939 
Q 2822 3125 2822 3475 
Q 2822 3834 2567 4026 
Q 2313 4219 1838 4219 
Q 1578 4219 1281 4162 
Q 984 4106 628 3988 
L 628 4550 
Q 988 4650 1302 4700 
Q 1616 4750 1894 4750 
Q 2613 4750 3031 4423 
Q 3450 4097 3450 3541 
Q 3450 3153 3228 2886 
Q 3006 2619 2597 2516 
z
" transform="scale(0.015625)"/>
       </defs>
       <use xlink:href="#DejaVuSans-33"/>
       <use xlink:href="#DejaVuSans-30" x="63.623047"/>
       <use xlink:href="#DejaVuSans-30" x="127.246094"/>
       <use xlink:href="#DejaVuSans-30" x="190.869141"/>
      </g>
     </g>
    </g>
    <g id="xtick_5">
     <g id="line2d_5">
      <g>
       <use xlink:href="#meacd02d898" x="333.543375" y="307.584" style="stroke: #000000; stroke-width: 0.8"/>
      </g>
     </g>
     <g id="text_5">
      <!-- 4000 -->
      <g transform="translate(320.818375 322.182437) scale(0.1 -0.1)">
       <defs>
        <path id="DejaVuSans-34" d="M 2419 4116 
L 825 1625 
L 2419 1625 
L 2419 4116 
z
M 2253 4666 
L 3047 4666 
L 3047 1625 
L 3713 1625 
L 3713 1100 
L 3047 1100 
L 3047 0 
L 2419 0 
L 2419 1100 
L 313 1100 
L 313 1709 
L 2253 4666 
z
" transform="scale(0.015625)"/>
       </defs>
       <use xlink:href="#DejaVuSans-34"/>
       <use xlink:href="#DejaVuSans-30" x="63.623047"/>
       <use xlink:href="#DejaVuSans-30" x="127.246094"/>
       <use xlink:href="#DejaVuSans-30" x="190.869141"/>
      </g>
     </g>
    </g>
    <g id="xtick_6">
     <g id="line2d_6">
      <g>
       <use xlink:href="#meacd02d898" x="398.487273" y="307.584" style="stroke: #000000; stroke-width: 0.8"/>
      </g>
     </g>
     <g id="text_6">
      <!-- 5000 -->
      <g transform="translate(385.762273 322.182437) scale(0.1 -0.1)">
       <defs>
        <path id="DejaVuSans-35" d="M 691 4666 
L 3169 4666 
L 3169 4134 
L 1269 4134 
L 1269 2991 
Q 1406 3038 1543 3061 
Q 1681 3084 1819 3084 
Q 2600 3084 3056 2656 
Q 3513 2228 3513 1497 
Q 3513 744 3044 326 
Q 2575 -91 1722 -91 
Q 1428 -91 1123 -41 
Q 819 9 494 109 
L 494 744 
Q 775 591 1075 516 
Q 1375 441 1709 441 
Q 2250 441 2565 725 
Q 2881 1009 2881 1497 
Q 2881 1984 2565 2268 
Q 2250 2553 1709 2553 
Q 1456 2553 1204 2497 
Q 953 2441 691 2322 
L 691 4666 
z
" transform="scale(0.015625)"/>
       </defs>
       <use xlink:href="#DejaVuSans-35"/>
       <use xlink:href="#DejaVuSans-30" x="63.623047"/>
       <use xlink:href="#DejaVuSans-30" x="127.246094"/>
       <use xlink:href="#DejaVuSans-30" x="190.869141"/>
      </g>
     </g>
    </g>
    <g id="text_7">
     <!-- epoch -->
     <g transform="translate(220.931875 335.860562) scale(0.1 -0.1)">
      <defs>
       <path id="DejaVuSans-65" d="M 3597 1894 
L 3597 1613 
L 953 1613 
Q 991 1019 1311 708 
Q 1631 397 2203 397 
Q 2534 397 2845 478 
Q 3156 559 3463 722 
L 3463 178 
Q 3153 47 2828 -22 
Q 2503 -91 2169 -91 
Q 1331 -91 842 396 
Q 353 884 353 1716 
Q 353 2575 817 3079 
Q 1281 3584 2069 3584 
Q 2775 3584 3186 3129 
Q 3597 2675 3597 1894 
z
M 3022 2063 
Q 3016 2534 2758 2815 
Q 2500 3097 2075 3097 
Q 1594 3097 1305 2825 
Q 1016 2553 972 2059 
L 3022 2063 
z
" transform="scale(0.015625)"/>
       <path id="DejaVuSans-70" d="M 1159 525 
L 1159 -1331 
L 581 -1331 
L 581 3500 
L 1159 3500 
L 1159 2969 
Q 1341 3281 1617 3432 
Q 1894 3584 2278 3584 
Q 2916 3584 3314 3078 
Q 3713 2572 3713 1747 
Q 3713 922 3314 415 
Q 2916 -91 2278 -91 
Q 1894 -91 1617 61 
Q 1341 213 1159 525 
z
M 3116 1747 
Q 3116 2381 2855 2742 
Q 2594 3103 2138 3103 
Q 1681 3103 1420 2742 
Q 1159 2381 1159 1747 
Q 1159 1113 1420 752 
Q 1681 391 2138 391 
Q 2594 391 2855 752 
Q 3116 1113 3116 1747 
z
" transform="scale(0.015625)"/>
       <path id="DejaVuSans-6f" d="M 1959 3097 
Q 1497 3097 1228 2736 
Q 959 2375 959 1747 
Q 959 1119 1226 758 
Q 1494 397 1959 397 
Q 2419 397 2687 759 
Q 2956 1122 2956 1747 
Q 2956 2369 2687 2733 
Q 2419 3097 1959 3097 
z
M 1959 3584 
Q 2709 3584 3137 3096 
Q 3566 2609 3566 1747 
Q 3566 888 3137 398 
Q 2709 -91 1959 -91 
Q 1206 -91 779 398 
Q 353 888 353 1747 
Q 353 2609 779 3096 
Q 1206 3584 1959 3584 
z
" transform="scale(0.015625)"/>
       <path id="DejaVuSans-63" d="M 3122 3366 
L 3122 2828 
Q 2878 2963 2633 3030 
Q 2388 3097 2138 3097 
Q 1578 3097 1268 2742 
Q 959 2388 959 1747 
Q 959 1106 1268 751 
Q 1578 397 2138 397 
Q 2388 397 2633 464 
Q 2878 531 3122 666 
L 3122 134 
Q 2881 22 2623 -34 
Q 2366 -91 2075 -91 
Q 1284 -91 818 406 
Q 353 903 353 1747 
Q 353 2603 823 3093 
Q 1294 3584 2113 3584 
Q 2378 3584 2631 3529 
Q 2884 3475 3122 3366 
z
" transform="scale(0.015625)"/>
       <path id="DejaVuSans-68" d="M 3513 2113 
L 3513 0 
L 2938 0 
L 2938 2094 
Q 2938 2591 2744 2837 
Q 2550 3084 2163 3084 
Q 1697 3084 1428 2787 
Q 1159 2491 1159 1978 
L 1159 0 
L 581 0 
L 581 4863 
L 1159 4863 
L 1159 2956 
Q 1366 3272 1645 3428 
Q 1925 3584 2291 3584 
Q 2894 3584 3203 3211 
Q 3513 2838 3513 2113 
z
" transform="scale(0.015625)"/>
      </defs>
      <use xlink:href="#DejaVuSans-65"/>
      <use xlink:href="#DejaVuSans-70" x="61.523438"/>
      <use xlink:href="#DejaVuSans-6f" x="125"/>
      <use xlink:href="#DejaVuSans-63" x="186.181641"/>
      <use xlink:href="#DejaVuSans-68" x="241.162109"/>
     </g>
    </g>
   </g>
   <g id="matplotlib.axis_2">
    <g id="ytick_1">
     <g id="line2d_7">
      <defs>
       <path id="m998b4e0872" d="M 0 0 
L -3.5 0 
" style="stroke: #000000; stroke-width: 0.8"/>
      </defs>
      <g>
       <use xlink:href="#m998b4e0872" x="57.6" y="254.852679" style="stroke: #000000; stroke-width: 0.8"/>
      </g>
     </g>
     <g id="text_8">
      <!-- 1 -->
      <g transform="translate(44.2375 258.651898) scale(0.1 -0.1)">
       <use xlink:href="#DejaVuSans-31"/>
      </g>
     </g>
    </g>
    <g id="ytick_2">
     <g id="line2d_8">
      <g>
       <use xlink:href="#m998b4e0872" x="57.6" y="201.085972" style="stroke: #000000; stroke-width: 0.8"/>
      </g>
     </g>
     <g id="text_9">
      <!-- 2 -->
      <g transform="translate(44.2375 204.885191) scale(0.1 -0.1)">
       <use xlink:href="#DejaVuSans-32"/>
      </g>
     </g>
    </g>
    <g id="ytick_3">
     <g id="line2d_9">
      <g>
       <use xlink:href="#m998b4e0872" x="57.6" y="147.319265" style="stroke: #000000; stroke-width: 0.8"/>
      </g>
     </g>
     <g id="text_10">
      <!-- 3 -->
      <g transform="translate(44.2375 151.118484) scale(0.1 -0.1)">
       <use xlink:href="#DejaVuSans-33"/>
      </g>
     </g>
    </g>
    <g id="ytick_4">
     <g id="line2d_10">
      <g>
       <use xlink:href="#m998b4e0872" x="57.6" y="93.552558" style="stroke: #000000; stroke-width: 0.8"/>
      </g>
     </g>
     <g id="text_11">
      <!-- 4 -->
      <g transform="translate(44.2375 97.351777) scale(0.1 -0.1)">
       <use xlink:href="#DejaVuSans-34"/>
      </g>
     </g>
    </g>
    <g id="text_12">
     <!-- loss -->
     <g transform="translate(38.157812 184.185812) rotate(-90) scale(0.1 -0.1)">
      <defs>
       <path id="DejaVuSans-6c" d="M 603 4863 
L 1178 4863 
L 1178 0 
L 603 0 
L 603 4863 
z
" transform="scale(0.015625)"/>
       <path id="DejaVuSans-73" d="M 2834 3397 
L 2834 2853 
Q 2591 2978 2328 3040 
Q 2066 3103 1784 3103 
Q 1356 3103 1142 2972 
Q 928 2841 928 2578 
Q 928 2378 1081 2264 
Q 1234 2150 1697 2047 
L 1894 2003 
Q 2506 1872 2764 1633 
Q 3022 1394 3022 966 
Q 3022 478 2636 193 
Q 2250 -91 1575 -91 
Q 1294 -91 989 -36 
Q 684 19 347 128 
L 347 722 
Q 666 556 975 473 
Q 1284 391 1588 391 
Q 1994 391 2212 530 
Q 2431 669 2431 922 
Q 2431 1156 2273 1281 
Q 2116 1406 1581 1522 
L 1381 1569 
Q 847 1681 609 1914 
Q 372 2147 372 2553 
Q 372 3047 722 3315 
Q 1072 3584 1716 3584 
Q 2034 3584 2315 3537 
Q 2597 3491 2834 3397 
z
" transform="scale(0.015625)"/>
      </defs>
      <use xlink:href="#DejaVuSans-6c"/>
      <use xlink:href="#DejaVuSans-6f" x="27.783203"/>
      <use xlink:href="#DejaVuSans-73" x="88.964844"/>
      <use xlink:href="#DejaVuSans-73" x="141.064453"/>
     </g>
    </g>
   </g>
   <g id="line2d_11">
    <path d="M 73.832727 183.389727 
L 74.352278 189.833688 
L 75.131605 196.690087 
L 75.456325 197.812735 
L 75.975876 198.820909 
L 76.495427 199.702894 
L 77.729361 202.48808 
L 78.573632 205.258596 
L 79.482846 209.098054 
L 80.651837 215.055797 
L 84.743302 236.670575 
L 86.172068 242.728185 
L 87.53589 247.576535 
L 88.964655 251.840616 
L 90.458365 255.592761 
L 92.017019 258.903769 
L 93.575672 261.710302 
L 95.134326 264.06207 
L 96.757923 266.116299 
L 98.511408 267.973792 
L 100.589613 269.836793 
L 102.602874 271.334406 
L 105.005798 272.841114 
L 108.512769 274.646815 
L 112.214571 276.215186 
L 115.072102 277.255276 
L 120.917053 279.036278 
L 128.19077 280.859189 
L 137.542691 282.791806 
L 144.296856 283.886686 
L 153.259114 285.068212 
L 161.052382 285.898787 
L 184.107466 287.801235 
L 187.744324 288.036073 
L 196.251975 288.529601 
L 202.161869 288.847773 
L 204.564794 288.975727 
L 216.449527 289.68449 
L 233.269997 290.50052 
L 239.699442 290.797724 
L 244.83001 291.028969 
L 246.583496 291.109618 
L 262.170031 291.742512 
L 265.677002 291.881335 
L 315.099308 293.570727 
L 318.995942 293.680143 
L 380.627701 295.026022 
L 383.225457 295.075943 
L 398.487273 295.488 
L 398.487273 295.488 
" clip-path="url(#pbdc5950cce)" style="fill: none; stroke: #0000ff; stroke-width: 1.5; stroke-linecap: square"/>
   </g>
   <g id="line2d_12">
    <path d="M 73.832727 183.298045 
L 74.352278 189.684295 
L 75.066661 196.087607 
L 75.391381 197.35861 
L 75.910932 198.378949 
L 76.560371 199.465243 
L 77.924193 202.522422 
L 78.768464 205.24161 
L 79.742622 209.216937 
L 81.171388 216.093904 
L 84.028919 229.841826 
L 85.587573 236.245459 
L 86.886451 240.724437 
L 88.250273 244.641059 
L 89.549151 247.68258 
L 90.783085 250.009834 
L 91.952075 251.768855 
L 93.121065 253.162509 
L 94.290055 254.22776 
L 95.394101 254.946309 
L 96.887811 255.563146 
L 98.446465 255.904451 
L 100.784445 256.197595 
L 105.20063 255.617501 
L 106.174788 255.348604 
L 107.019059 255.115526 
L 107.343779 255.014044 
L 108.188049 254.7244 
L 108.447825 254.655107 
L 109.486927 254.283093 
L 110.785805 253.768321 
L 111.630076 253.343712 
L 112.344459 252.96966 
L 113.123785 252.509183 
L 113.578393 252.259438 
L 121.761324 246.887323 
L 123.060202 245.965042 
L 123.319977 245.799562 
L 124.878631 244.764583 
L 129.749423 241.597051 
L 135.334599 237.622602 
L 135.984038 237.196006 
L 137.153028 236.4096 
L 137.737523 236.028645 
L 140.53011 234.043331 
L 141.244493 233.531911 
L 143.51753 231.930641 
L 144.556632 231.194825 
L 145.920454 230.229709 
L 154.68788 224.407039 
L 155.337319 223.975444 
L 159.623616 221.028071 
L 160.208111 220.607987 
L 165.663399 216.662375 
L 166.50767 216.053037 
L 168.455986 214.648884 
L 169.040482 214.241113 
L 171.053742 212.817981 
L 171.313518 212.649527 
L 172.742284 211.619047 
L 188.913314 200.22828 
L 189.302978 199.930623 
L 190.34208 199.204812 
L 190.601856 199.007028 
L 191.576014 198.283358 
L 193.654219 196.793844 
L 193.913994 196.616467 
L 194.49849 196.173687 
L 195.082985 195.7638 
L 198.135348 193.578792 
L 198.589955 193.274213 
L 198.849731 193.044535 
L 198.979618 192.978479 
L 200.278496 192.056743 
L 201.122767 191.49231 
L 201.382543 191.265158 
L 201.51243 191.197832 
L 202.356701 190.599365 
L 202.486589 190.51062 
L 207.097606 187.276942 
L 207.227493 187.198041 
L 208.33154 186.411327 
L 216.644359 181.044519 
L 216.904134 180.863733 
L 217.293798 180.549027 
L 217.618517 180.38779 
L 217.878293 180.179007 
L 218.073124 180.041588 
L 219.82661 178.900891 
L 220.086385 178.673854 
L 220.540993 178.423755 
L 220.800768 178.208576 
L 221.190432 177.969605 
L 221.645039 177.644425 
L 221.774927 177.594201 
L 222.16459 177.309286 
L 222.749085 176.935831 
L 223.593356 176.389742 
L 224.50257 175.790147 
L 224.892234 175.51891 
L 225.022122 175.456687 
L 225.346841 175.219164 
L 225.606617 175.058363 
L 226.256056 174.640259 
L 226.775607 174.319489 
L 227.230214 174.004937 
L 227.749765 173.671772 
L 228.33426 173.292266 
L 228.853811 172.962767 
L 229.178531 172.751036 
L 229.438307 172.615949 
L 229.633138 172.460455 
L 229.892914 172.268657 
L 229.957858 172.282361 
L 230.152689 172.147992 
L 230.412465 171.925557 
L 230.607297 171.810302 
L 231.191792 171.433411 
L 231.386624 171.299363 
L 231.971119 170.90614 
L 232.360782 170.637762 
L 232.555614 170.523391 
L 232.815389 170.358719 
L 233.269997 170.013798 
L 233.724604 169.718359 
L 233.919436 169.601732 
L 235.023482 168.875421 
L 235.283257 168.648308 
L 235.413145 168.575342 
L 235.932696 168.222961 
L 237.231574 167.364897 
L 237.49135 167.18388 
L 240.738545 165.042251 
L 240.868433 164.963696 
L 241.842591 164.320004 
L 241.972479 164.276932 
L 242.167311 164.134013 
L 247.622598 160.679375 
L 247.81743 160.573939 
L 249.116308 159.763484 
L 249.570915 159.502015 
L 249.830691 159.324972 
L 250.090466 159.212396 
L 250.610017 158.851862 
L 250.804849 158.752989 
L 252.038783 158.02482 
L 252.883054 157.515663 
L 253.142829 157.332403 
L 253.727324 156.988033 
L 254.311819 156.602451 
L 254.441707 156.514359 
L 261.001041 152.478328 
L 261.130929 152.418079 
L 261.780368 152.04147 
L 262.040143 151.887117 
L 262.494751 151.595242 
L 263.079246 151.228362 
L 278.341062 142.165214 
L 278.535893 142.073084 
L 278.925557 141.791079 
L 279.445108 141.411906 
L 280.549154 140.640499 
L 280.743986 140.532217 
L 281.328481 140.137815 
L 281.6532 139.992602 
L 281.848032 139.804227 
L 282.107808 139.71575 
L 282.432527 139.488482 
L 282.627359 139.417363 
L 283.081966 139.141947 
L 283.666461 138.853033 
L 283.861293 138.710716 
L 284.705564 138.222698 
L 284.835451 138.150104 
L 285.095227 138.048231 
L 285.419947 137.824181 
L 285.614778 137.768239 
L 285.679722 137.623577 
L 285.744666 137.699555 
L 286.199273 137.41273 
L 287.628039 136.694021 
L 287.887815 136.546231 
L 288.537254 136.166341 
L 288.732085 136.0783 
L 288.926917 136.007231 
L 291.394785 134.62723 
L 291.589617 134.547162 
L 292.304 134.145697 
L 292.498831 134.063861 
L 293.083326 133.761666 
L 293.732765 133.337678 
L 293.797709 133.398197 
L 293.992541 133.240139 
L 294.382204 133.068275 
L 295.161531 132.617982 
L 295.226475 132.629353 
L 295.421307 132.469077 
L 295.616139 132.392009 
L 295.81097 132.264076 
L 296.070746 132.162844 
L 296.265577 132.007363 
L 296.525353 131.90676 
L 297.044904 131.641112 
L 297.629399 131.30255 
L 297.824231 131.197588 
L 298.213894 131.003521 
L 298.798389 130.651897 
L 298.928277 130.612068 
L 299.707604 130.203963 
L 300.032324 130.01364 
L 300.227155 129.933124 
L 302.565136 128.615101 
L 302.695023 128.544623 
L 302.889855 128.471593 
L 303.344462 128.191831 
L 303.47435 128.132595 
L 303.79907 127.9575 
L 311.592337 123.694433 
L 311.787169 123.539541 
L 312.176832 123.307274 
L 312.371664 123.096068 
L 312.436608 123.141268 
L 312.63144 122.923243 
L 312.696384 122.96925 
L 312.956159 122.73688 
L 313.021103 122.762403 
L 313.215935 122.519547 
L 313.280879 122.564927 
L 313.540654 122.325981 
L 313.735486 122.251015 
L 314.060205 121.964383 
L 314.319981 121.817567 
L 316.13841 120.578971 
L 316.333242 120.405864 
L 317.956839 119.239208 
L 318.151671 119.072626 
L 318.281559 118.975778 
L 320.879315 117.064955 
L 321.13909 116.831163 
L 326.399546 112.778621 
L 326.594378 112.556442 
L 326.789209 112.446455 
L 327.048985 112.206138 
L 327.828312 111.593288 
L 328.282919 111.145431 
L 328.347863 111.197784 
L 328.542695 110.919202 
L 328.607639 110.969158 
L 328.867414 110.718085 
L 329.062246 110.58396 
L 329.386965 110.239322 
L 329.516853 110.17956 
L 329.906517 109.912822 
L 330.101348 109.68267 
L 330.29618 109.569555 
L 330.685843 109.226173 
L 330.750787 109.256606 
L 331.075507 108.944053 
L 331.595058 108.58234 
L 332.049665 108.149699 
L 332.309441 108.016459 
L 332.504272 107.762053 
L 332.569216 107.808163 
L 332.764048 107.590561 
L 333.673263 106.920821 
L 333.868094 106.687156 
L 333.997982 106.620087 
L 334.257758 106.447621 
L 334.452589 106.238761 
L 334.647421 106.117211 
L 335.29686 105.638602 
L 335.491692 105.386427 
L 335.62158 105.349572 
L 335.816411 105.160223 
L 335.881355 105.164107 
L 336.141131 104.914522 
L 336.595738 104.529862 
L 336.79057 104.409659 
L 336.985401 104.204273 
L 337.245177 104.01777 
L 338.024504 103.323763 
L 338.089448 103.342081 
L 338.284279 103.088214 
L 338.349223 103.15627 
L 338.544055 102.960858 
L 338.868774 102.692018 
L 343.739567 98.659025 
L 343.804511 98.646078 
L 343.999342 98.433578 
L 344.194174 98.279801 
L 345.687884 97.12749 
L 345.882715 96.889993 
L 346.142491 96.696593 
L 346.532154 96.411281 
L 346.726986 96.183436 
L 346.79193 96.212587 
L 347.051706 95.933953 
L 347.246537 95.838054 
L 347.441369 95.613863 
L 347.571257 95.548256 
L 348.025864 95.133946 
L 348.090808 95.171801 
L 348.350584 94.910986 
L 353.091488 91.06606 
L 353.156432 91.102979 
L 353.351264 90.820346 
L 353.416208 90.884364 
L 353.675983 90.622164 
L 353.740927 90.641829 
L 353.935759 90.402139 
L 354.065647 90.366528 
L 354.260478 90.113892 
L 354.325422 90.181858 
L 354.650142 89.812287 
L 354.780029 89.741218 
L 355.234637 89.373083 
L 355.494412 89.197412 
L 355.754188 88.984873 
L 356.728346 88.236424 
L 357.053066 87.963918 
L 357.96228 87.235953 
L 358.027224 87.249772 
L 358.222056 87.049924 
L 358.546776 86.84259 
L 359.001383 86.42764 
L 359.066327 86.446996 
L 359.326102 86.176644 
L 359.391046 86.185515 
L 359.585878 85.91829 
L 359.650822 85.934365 
L 359.845653 85.751567 
L 360.430149 85.310517 
L 360.884756 84.906616 
L 360.9497 84.959225 
L 361.144531 84.755198 
L 361.79397 84.23485 
L 363.547456 82.873731 
L 363.742287 82.65627 
L 363.807231 82.666679 
L 364.002063 82.457242 
L 364.131951 82.385097 
L 364.45667 82.056444 
L 364.521614 82.144818 
L 364.716446 81.912641 
L 365.885436 81.048513 
L 366.080268 80.794287 
L 366.145212 80.82695 
L 366.404987 80.456379 
L 366.469931 80.593926 
L 366.534875 80.380131 
L 366.599819 80.463429 
L 366.859594 80.198281 
L 366.924538 80.220484 
L 367.11937 79.938081 
L 367.249258 79.882909 
L 367.768809 79.563921 
L 367.963641 79.343435 
L 368.223416 79.162866 
L 369.002743 78.460335 
L 369.067687 78.527404 
L 369.132631 78.336016 
L 369.197575 78.374012 
L 376.925899 71.910399 
L 376.990843 71.927038 
L 377.250618 71.590002 
L 377.315562 71.644739 
L 377.380506 71.555852 
L 377.900057 71.057963 
L 377.965001 71.082037 
L 378.224777 70.860525 
L 378.28972 70.87201 
L 378.549496 70.617759 
L 381.27714 68.309086 
L 381.342084 68.363079 
L 381.536915 68.160796 
L 381.861635 67.869061 
L 382.316242 67.379171 
L 382.44613 67.319332 
L 382.640962 67.223754 
L 383.030625 66.777064 
L 383.095569 66.841415 
L 383.160513 66.757168 
L 383.809952 66.216233 
L 384.004784 66.042433 
L 384.654222 65.469758 
L 384.719166 65.486295 
L 384.913998 65.149899 
L 384.978942 65.275807 
L 385.173774 65.061576 
L 385.368605 64.789916 
L 385.433549 64.918721 
L 385.628381 64.633755 
L 386.407708 64.087513 
L 386.537596 63.898356 
L 386.862315 63.689766 
L 387.057147 63.455383 
L 387.187034 63.392468 
L 387.706586 63.014154 
L 387.901417 62.810409 
L 388.291081 62.573412 
L 388.6158 62.214044 
L 388.745688 62.145437 
L 391.343444 60.347806 
L 391.408388 60.119346 
L 391.473332 60.235486 
L 391.668163 60.069967 
L 394.720527 57.434487 
L 394.915358 57.246279 
L 395.43491 56.675757 
L 395.499853 56.665886 
L 395.694685 56.346514 
L 395.759629 56.438401 
L 395.824573 56.158203 
L 395.889517 56.307237 
L 396.084349 55.993403 
L 396.149292 56.006683 
L 396.344124 55.733152 
L 397.058507 54.926607 
L 397.123451 55.02621 
L 397.188395 54.806134 
L 397.253339 54.832054 
L 397.707946 54.403875 
L 397.902778 54.128292 
L 398.097609 53.996205 
L 398.357385 53.68596 
L 398.422329 53.719418 
L 398.487273 53.568 
L 398.487273 53.568 
" clip-path="url(#pbdc5950cce)" style="fill: none; stroke: #008000; stroke-width: 1.5; stroke-linecap: square"/>
   </g>
   <g id="line2d_13">
    <path d="M 73.832727 183.396162 
L 74.352278 189.736827 
L 75.066661 196.084185 
L 75.391381 197.322229 
L 75.910932 198.306022 
L 76.495427 199.280995 
L 78.054081 202.77054 
L 78.898351 205.522641 
L 79.937454 209.715102 
L 81.755883 218.164343 
L 83.899031 227.692025 
L 85.327797 233.100655 
L 86.561731 236.956797 
L 87.795665 240.066016 
L 88.964655 242.426138 
L 90.068702 244.209091 
L 91.237692 245.688594 
L 92.53657 246.948373 
L 93.835448 247.862764 
L 95.134326 248.461141 
L 96.498148 248.81931 
L 98.576352 249.000384 
L 101.239052 249.085881 
L 102.343098 249.001583 
L 102.732762 248.93984 
L 102.992537 248.925836 
L 104.226471 248.714643 
L 104.551191 248.681339 
L 104.810967 248.581633 
L 105.20063 248.518404 
L 105.785125 248.343597 
L 106.044901 248.308711 
L 106.759283 248.097736 
L 107.019059 248.043576 
L 107.278835 247.934416 
L 107.53861 247.879608 
L 108.577713 247.509697 
L 108.902432 247.410606 
L 109.292096 247.255984 
L 109.681759 247.123423 
L 113.058842 245.67523 
L 115.396822 244.279871 
L 115.656598 244.049489 
L 115.786485 243.986278 
L 116.241093 243.655542 
L 118.514129 242.027211 
L 119.098624 241.582373 
L 119.423344 241.371994 
L 119.877951 241.031118 
L 120.852109 240.30616 
L 133.970777 230.216115 
L 134.425384 229.805055 
L 134.879991 229.452213 
L 135.52943 228.887293 
L 135.85415 228.609243 
L 136.763364 227.861633 
L 138.19213 226.685402 
L 138.646737 226.322618 
L 139.880671 225.292254 
L 141.179549 224.21412 
L 141.699101 223.779595 
L 150.466527 216.874926 
L 150.921134 216.547677 
L 151.700461 215.926648 
L 153.064283 214.90902 
L 154.557992 213.774771 
L 155.077544 213.389093 
L 158.454626 210.881347 
L 158.714402 210.692729 
L 159.948336 209.772556 
L 160.208111 209.595603 
L 161.117326 208.91805 
L 161.506989 208.650479 
L 165.403623 205.743249 
L 166.312838 205.118292 
L 166.572613 204.89396 
L 166.832389 204.700111 
L 167.286996 204.382104 
L 168.715762 203.339011 
L 168.975538 203.180235 
L 169.300257 202.920445 
L 169.560033 202.768553 
L 169.884752 202.543304 
L 170.274416 202.250013 
L 172.287676 200.840245 
L 172.612396 200.571162 
L 172.872172 200.40472 
L 175.664759 198.523483 
L 175.924535 198.35958 
L 177.807908 197.105512 
L 178.262515 196.815136 
L 179.886112 195.811384 
L 180.665439 195.292497 
L 181.120047 195.039105 
L 183.782746 193.309529 
L 183.912634 193.237281 
L 184.756905 192.721227 
L 189.692641 189.629302 
L 189.822529 189.561015 
L 191.056463 188.820501 
L 191.381182 188.618307 
L 191.770846 188.395103 
L 196.251975 185.623088 
L 196.381863 185.55857 
L 197.420965 184.971781 
L 197.745684 184.747436 
L 198.00546 184.602453 
L 198.460067 184.302438 
L 198.719843 184.215 
L 198.979618 183.999256 
L 199.758945 183.50811 
L 199.888833 183.443989 
L 200.408384 183.174868 
L 200.862992 182.865199 
L 200.992879 182.796682 
L 205.603896 180.054843 
L 205.863672 179.853175 
L 206.188391 179.662505 
L 206.448167 179.506536 
L 206.772886 179.323968 
L 207.032662 179.137914 
L 208.786147 178.068388 
L 211.189071 176.829728 
L 211.773566 176.425904 
L 212.747725 175.876047 
L 213.202332 175.599016 
L 213.851771 175.254262 
L 214.371322 174.947953 
L 216.124808 173.990644 
L 218.982339 172.354737 
L 219.242115 172.259056 
L 219.50189 172.065951 
L 220.021441 171.782344 
L 220.476049 171.501249 
L 220.800768 171.340332 
L 221.645039 170.845199 
L 221.904814 170.726675 
L 222.424366 170.426172 
L 222.684141 170.287432 
L 223.008861 170.101698 
L 223.268636 169.934231 
L 224.892234 169.024596 
L 225.022122 168.968026 
L 225.346841 168.763409 
L 225.606617 168.617234 
L 226.450887 168.148983 
L 226.775607 167.973555 
L 227.48999 167.563604 
L 228.983699 166.710693 
L 229.048643 166.732716 
L 229.308419 166.510896 
L 229.568194 166.407844 
L 231.191792 165.449728 
L 231.386624 165.366033 
L 232.036062 164.94293 
L 232.295838 164.804254 
L 235.023482 163.190152 
L 235.348201 162.975075 
L 235.802809 162.716003 
L 236.127528 162.513245 
L 237.751125 161.542836 
L 249.181252 154.962673 
L 249.441027 154.816075 
L 250.285298 154.367616 
L 250.610017 154.154795 
L 250.739905 154.111185 
L 251.194512 153.841037 
L 251.519232 153.674929 
L 259.637219 149.263059 
L 259.767107 149.228576 
L 260.286658 148.919305 
L 260.416546 148.887155 
L 261.195873 148.467564 
L 262.105087 147.99671 
L 263.598797 147.231429 
L 263.923516 147.049656 
L 264.443068 146.798584 
L 265.222394 146.365533 
L 265.352282 146.304591 
L 266.586216 145.700176 
L 266.781048 145.571935 
L 267.170711 145.398251 
L 272.366223 142.85317 
L 272.496111 142.765899 
L 274.31454 141.920653 
L 274.639259 141.773094 
L 286.718824 136.124589 
L 286.848712 136.107963 
L 287.108488 135.978914 
L 287.563095 135.806781 
L 288.991861 135.174062 
L 289.31658 135.041642 
L 289.511412 134.926989 
L 289.6413 134.914182 
L 289.966019 134.711168 
L 290.095907 134.703541 
L 290.485571 134.526165 
L 292.498831 133.636233 
L 293.278158 133.309541 
L 293.537934 133.152201 
L 293.797709 133.098707 
L 293.992541 132.970094 
L 296.200634 132.013183 
L 296.525353 131.853343 
L 297.109848 131.609334 
L 299.123109 130.757474 
L 299.317941 130.622798 
L 299.837492 130.457574 
L 300.032324 130.313488 
L 300.292099 130.221243 
L 300.81165 129.955377 
L 300.941538 129.910844 
L 302.695023 129.125092 
L 303.149631 128.937473 
L 304.64334 128.29246 
L 304.838172 128.164655 
L 305.552555 127.843206 
L 305.682443 127.818889 
L 306.072106 127.630168 
L 306.266938 127.572393 
L 306.461769 127.438857 
L 306.656601 127.411591 
L 307.111208 127.177209 
L 307.30604 127.106218 
L 308.604918 126.505712 
L 308.79975 126.429119 
L 309.124469 126.234693 
L 309.319301 126.204659 
L 309.514133 126.095159 
L 309.773908 126.017809 
L 309.96874 125.876249 
L 310.163572 125.843727 
L 310.488291 125.651981 
L 310.683123 125.595834 
L 311.13773 125.385718 
L 311.657281 125.121339 
L 311.917057 125.031183 
L 312.956159 124.492222 
L 313.021103 124.520808 
L 313.215935 124.348419 
L 313.280879 124.385696 
L 313.47571 124.263621 
L 313.80043 124.073977 
L 314.125149 123.932263 
L 314.514813 123.721699 
L 314.709644 123.646618 
L 314.904476 123.522633 
L 315.553915 123.185865 
L 315.683803 123.115861 
L 316.008522 122.976326 
L 316.268298 122.84647 
L 317.3074 122.272308 
L 317.762008 122.023825 
L 318.411447 121.684224 
L 319.840212 120.925815 
L 320.035044 120.76077 
L 320.229876 120.681331 
L 321.268978 120.053419 
L 321.398866 120.004771 
L 321.788529 119.802231 
L 322.373024 119.499139 
L 322.567856 119.410996 
L 323.736846 118.750267 
L 324.12651 118.563712 
L 324.451229 118.346905 
L 325.035724 118.042223 
L 325.230556 117.865206 
L 325.360444 117.861142 
L 326.13977 117.399979 
L 326.399546 117.304555 
L 326.659322 117.120808 
L 328.412807 116.089405 
L 328.477751 116.109749 
L 328.672583 115.958882 
L 329.12719 115.693722 
L 329.322021 115.637215 
L 329.516853 115.477324 
L 329.841573 115.282771 
L 330.036404 115.239366 
L 330.231236 115.084487 
L 331.075507 114.58188 
L 331.335282 114.478303 
L 331.724946 114.244664 
L 332.244497 113.950314 
L 332.569216 113.772374 
L 332.828992 113.626635 
L 333.023824 113.554144 
L 333.283599 113.364538 
L 333.543375 113.238938 
L 333.868094 113.035193 
L 334.062926 112.957728 
L 334.322702 112.779787 
L 334.517533 112.706168 
L 334.842253 112.514165 
L 335.426748 112.216496 
L 335.686523 112.012905 
L 335.816411 111.977601 
L 336.141131 111.797559 
L 336.595738 111.533411 
L 337.180233 111.225986 
L 345.428108 106.596616 
L 345.752828 106.371078 
L 345.882715 106.312111 
L 346.077547 106.218302 
L 346.467211 105.975382 
L 346.532154 105.99106 
L 346.726986 105.788879 
L 346.79193 105.846846 
L 346.986762 105.706145 
L 347.831032 105.164441 
L 347.96092 105.150788 
L 348.350584 104.90219 
L 348.935079 104.562961 
L 349.194854 104.436527 
L 349.389686 104.294173 
L 351.727666 102.863574 
L 351.922498 102.706773 
L 352.247217 102.560239 
L 352.701825 102.264466 
L 356.598459 99.847819 
L 356.79329 99.686723 
L 356.988122 99.600656 
L 359.391046 98.189594 
L 359.585878 97.988733 
L 359.975541 97.798154 
L 360.300261 97.57186 
L 360.560036 97.446003 
L 360.754868 97.272498 
L 360.819812 97.292099 
L 361.014644 97.113197 
L 361.144531 97.059819 
L 361.534195 96.746202 
L 361.664083 96.735216 
L 361.858914 96.627781 
L 362.11869 96.423472 
L 362.183634 96.463339 
L 362.378466 96.300679 
L 362.962961 95.920237 
L 363.157792 95.824889 
L 363.742287 95.415066 
L 363.937119 95.342473 
L 364.196895 95.151675 
L 364.261839 95.169339 
L 364.45667 94.97658 
L 364.521614 95.016435 
L 364.716446 94.840994 
L 365.820492 94.155563 
L 365.95038 94.085161 
L 366.210155 93.910515 
L 366.404987 93.698143 
L 366.469931 93.793363 
L 366.534875 93.641894 
L 366.599819 93.681248 
L 367.379146 93.194652 
L 368.223416 92.674765 
L 368.548136 92.434281 
L 368.807911 92.305989 
L 369.327463 91.891346 
L 369.652182 91.72593 
L 369.976902 91.478806 
L 370.236677 91.338899 
L 371.016004 90.814116 
L 371.080948 90.881467 
L 371.145892 90.713179 
L 371.210836 90.744663 
L 371.990162 90.263643 
L 372.249938 90.004366 
L 372.314882 90.062718 
L 372.379826 89.977216 
L 373.678704 89.129112 
L 373.743648 89.159134 
L 373.938479 88.943006 
L 374.328143 88.766078 
L 374.522974 88.609097 
L 375.432189 88.053138 
L 375.497133 88.052087 
L 375.691965 87.873006 
L 375.95174 87.6206 
L 376.016684 87.701513 
L 380.627701 84.762223 
L 380.822533 84.562709 
L 380.95242 84.538942 
L 381.27714 84.274205 
L 381.342084 84.294177 
L 381.536915 84.140605 
L 381.796691 83.968831 
L 382.835793 83.291758 
L 383.030625 83.095243 
L 383.160513 83.088269 
L 383.420288 82.886832 
L 384.199615 82.36874 
L 384.329503 82.272239 
L 384.913998 81.869133 
L 384.978942 81.920998 
L 385.173774 81.763094 
L 385.9531 81.220031 
L 386.018044 81.287869 
L 386.147932 81.153859 
L 386.27782 81.04077 
L 386.732427 80.784878 
L 387.44681 80.351391 
L 387.576698 80.248275 
L 388.031305 79.914469 
L 388.096249 79.987486 
L 388.161193 79.907188 
L 388.420969 79.714929 
L 388.680744 79.582406 
L 388.810632 79.479264 
L 388.875576 79.510671 
L 389.070408 79.356177 
L 389.395127 79.209527 
L 389.654903 79.02055 
L 390.10951 78.836469 
L 390.304342 78.632801 
L 390.434229 78.590832 
L 392.317602 77.524703 
L 392.512434 77.344801 
L 392.642322 77.346955 
L 392.837154 77.193973 
L 393.096929 76.916647 
L 393.161873 77.007098 
L 393.486593 76.675984 
L 393.811312 76.522977 
L 394.071088 76.234037 
L 394.200975 76.242318 
L 394.460751 75.993065 
L 394.590639 75.943815 
L 394.785471 75.764811 
L 395.564797 75.182137 
L 396.668844 74.323419 
L 396.733787 74.322086 
L 396.928619 74.090011 
L 396.993563 74.056245 
L 397.188395 73.82876 
L 397.318283 73.813864 
L 397.643002 73.510311 
L 397.707946 73.543409 
L 397.902778 73.302874 
L 398.487273 72.840391 
L 398.487273 72.840391 
" clip-path="url(#pbdc5950cce)" style="fill: none; stroke: #ff0000; stroke-width: 1.5; stroke-linecap: square"/>
   </g>
   <g id="patch_3">
    <path d="M 57.6 307.584 
L 57.6 41.472 
" style="fill: none; stroke: #000000; stroke-width: 0.8; stroke-linejoin: miter; stroke-linecap: square"/>
   </g>
   <g id="patch_4">
    <path d="M 414.72 307.584 
L 414.72 41.472 
" style="fill: none; stroke: #000000; stroke-width: 0.8; stroke-linejoin: miter; stroke-linecap: square"/>
   </g>
   <g id="patch_5">
    <path d="M 57.6 307.584 
L 414.72 307.584 
" style="fill: none; stroke: #000000; stroke-width: 0.8; stroke-linejoin: miter; stroke-linecap: square"/>
   </g>
   <g id="patch_6">
    <path d="M 57.6 41.472 
L 414.72 41.472 
" style="fill: none; stroke: #000000; stroke-width: 0.8; stroke-linejoin: miter; stroke-linecap: square"/>
   </g>
   <g id="text_13">
    <!-- Script19_loss -->
    <g transform="translate(196.532813 35.472) scale(0.12 -0.12)">
     <defs>
      <path id="DejaVuSans-53" d="M 3425 4513 
L 3425 3897 
Q 3066 4069 2747 4153 
Q 2428 4238 2131 4238 
Q 1616 4238 1336 4038 
Q 1056 3838 1056 3469 
Q 1056 3159 1242 3001 
Q 1428 2844 1947 2747 
L 2328 2669 
Q 3034 2534 3370 2195 
Q 3706 1856 3706 1288 
Q 3706 609 3251 259 
Q 2797 -91 1919 -91 
Q 1588 -91 1214 -16 
Q 841 59 441 206 
L 441 856 
Q 825 641 1194 531 
Q 1563 422 1919 422 
Q 2459 422 2753 634 
Q 3047 847 3047 1241 
Q 3047 1584 2836 1778 
Q 2625 1972 2144 2069 
L 1759 2144 
Q 1053 2284 737 2584 
Q 422 2884 422 3419 
Q 422 4038 858 4394 
Q 1294 4750 2059 4750 
Q 2388 4750 2728 4690 
Q 3069 4631 3425 4513 
z
" transform="scale(0.015625)"/>
      <path id="DejaVuSans-72" d="M 2631 2963 
Q 2534 3019 2420 3045 
Q 2306 3072 2169 3072 
Q 1681 3072 1420 2755 
Q 1159 2438 1159 1844 
L 1159 0 
L 581 0 
L 581 3500 
L 1159 3500 
L 1159 2956 
Q 1341 3275 1631 3429 
Q 1922 3584 2338 3584 
Q 2397 3584 2469 3576 
Q 2541 3569 2628 3553 
L 2631 2963 
z
" transform="scale(0.015625)"/>
      <path id="DejaVuSans-69" d="M 603 3500 
L 1178 3500 
L 1178 0 
L 603 0 
L 603 3500 
z
M 603 4863 
L 1178 4863 
L 1178 4134 
L 603 4134 
L 603 4863 
z
" transform="scale(0.015625)"/>
      <path id="DejaVuSans-74" d="M 1172 4494 
L 1172 3500 
L 2356 3500 
L 2356 3053 
L 1172 3053 
L 1172 1153 
Q 1172 725 1289 603 
Q 1406 481 1766 481 
L 2356 481 
L 2356 0 
L 1766 0 
Q 1100 0 847 248 
Q 594 497 594 1153 
L 594 3053 
L 172 3053 
L 172 3500 
L 594 3500 
L 594 4494 
L 1172 4494 
z
" transform="scale(0.015625)"/>
      <path id="DejaVuSans-39" d="M 703 97 
L 703 672 
Q 941 559 1184 500 
Q 1428 441 1663 441 
Q 2288 441 2617 861 
Q 2947 1281 2994 2138 
Q 2813 1869 2534 1725 
Q 2256 1581 1919 1581 
Q 1219 1581 811 2004 
Q 403 2428 403 3163 
Q 403 3881 828 4315 
Q 1253 4750 1959 4750 
Q 2769 4750 3195 4129 
Q 3622 3509 3622 2328 
Q 3622 1225 3098 567 
Q 2575 -91 1691 -91 
Q 1453 -91 1209 -44 
Q 966 3 703 97 
z
M 1959 2075 
Q 2384 2075 2632 2365 
Q 2881 2656 2881 3163 
Q 2881 3666 2632 3958 
Q 2384 4250 1959 4250 
Q 1534 4250 1286 3958 
Q 1038 3666 1038 3163 
Q 1038 2656 1286 2365 
Q 1534 2075 1959 2075 
z
" transform="scale(0.015625)"/>
      <path id="DejaVuSans-5f" d="M 3263 -1063 
L 3263 -1509 
L -63 -1509 
L -63 -1063 
L 3263 -1063 
z
" transform="scale(0.015625)"/>
     </defs>
     <use xlink:href="#DejaVuSans-53"/>
     <use xlink:href="#DejaVuSans-63" x="63.476562"/>
     <use xlink:href="#DejaVuSans-72" x="118.457031"/>
     <use xlink:href="#DejaVuSans-69" x="159.570312"/>
     <use xlink:href="#DejaVuSans-70" x="187.353516"/>
     <use xlink:href="#DejaVuSans-74" x="250.830078"/>
     <use xlink:href="#DejaVuSans-31" x="290.039062"/>
     <use xlink:href="#DejaVuSans-39" x="353.662109"/>
     <use xlink:href="#DejaVuSans-5f" x="417.285156"/>
     <use xlink:href="#DejaVuSans-6c" x="467.285156"/>
     <use xlink:href="#DejaVuSans-6f" x="495.068359"/>
     <use xlink:href="#DejaVuSans-73" x="556.25"/>
     <use xlink:href="#DejaVuSans-73" x="608.349609"/>
    </g>
   </g>
   <g id="legend_1">
    <g id="patch_7">
     <path d="M 64.6 93.506375 
L 164.295312 93.506375 
Q 166.295312 93.506375 166.295312 91.506375 
L 166.295312 48.472 
Q 166.295312 46.472 164.295312 46.472 
L 64.6 46.472 
Q 62.6 46.472 62.6 48.472 
L 62.6 91.506375 
Q 62.6 93.506375 64.6 93.506375 
z
" style="fill: #ffffff; opacity: 0.8; stroke: #cccccc; stroke-linejoin: miter"/>
    </g>
    <g id="line2d_14">
     <path d="M 66.6 54.570438 
L 76.6 54.570438 
L 86.6 54.570438 
" style="fill: none; stroke: #0000ff; stroke-width: 1.5; stroke-linecap: square"/>
    </g>
    <g id="text_14">
     <!-- training set -->
     <g transform="translate(94.6 58.070438) scale(0.1 -0.1)">
      <defs>
       <path id="DejaVuSans-61" d="M 2194 1759 
Q 1497 1759 1228 1600 
Q 959 1441 959 1056 
Q 959 750 1161 570 
Q 1363 391 1709 391 
Q 2188 391 2477 730 
Q 2766 1069 2766 1631 
L 2766 1759 
L 2194 1759 
z
M 3341 1997 
L 3341 0 
L 2766 0 
L 2766 531 
Q 2569 213 2275 61 
Q 1981 -91 1556 -91 
Q 1019 -91 701 211 
Q 384 513 384 1019 
Q 384 1609 779 1909 
Q 1175 2209 1959 2209 
L 2766 2209 
L 2766 2266 
Q 2766 2663 2505 2880 
Q 2244 3097 1772 3097 
Q 1472 3097 1187 3025 
Q 903 2953 641 2809 
L 641 3341 
Q 956 3463 1253 3523 
Q 1550 3584 1831 3584 
Q 2591 3584 2966 3190 
Q 3341 2797 3341 1997 
z
" transform="scale(0.015625)"/>
       <path id="DejaVuSans-6e" d="M 3513 2113 
L 3513 0 
L 2938 0 
L 2938 2094 
Q 2938 2591 2744 2837 
Q 2550 3084 2163 3084 
Q 1697 3084 1428 2787 
Q 1159 2491 1159 1978 
L 1159 0 
L 581 0 
L 581 3500 
L 1159 3500 
L 1159 2956 
Q 1366 3272 1645 3428 
Q 1925 3584 2291 3584 
Q 2894 3584 3203 3211 
Q 3513 2838 3513 2113 
z
" transform="scale(0.015625)"/>
       <path id="DejaVuSans-67" d="M 2906 1791 
Q 2906 2416 2648 2759 
Q 2391 3103 1925 3103 
Q 1463 3103 1205 2759 
Q 947 2416 947 1791 
Q 947 1169 1205 825 
Q 1463 481 1925 481 
Q 2391 481 2648 825 
Q 2906 1169 2906 1791 
z
M 3481 434 
Q 3481 -459 3084 -895 
Q 2688 -1331 1869 -1331 
Q 1566 -1331 1297 -1286 
Q 1028 -1241 775 -1147 
L 775 -588 
Q 1028 -725 1275 -790 
Q 1522 -856 1778 -856 
Q 2344 -856 2625 -561 
Q 2906 -266 2906 331 
L 2906 616 
Q 2728 306 2450 153 
Q 2172 0 1784 0 
Q 1141 0 747 490 
Q 353 981 353 1791 
Q 353 2603 747 3093 
Q 1141 3584 1784 3584 
Q 2172 3584 2450 3431 
Q 2728 3278 2906 2969 
L 2906 3500 
L 3481 3500 
L 3481 434 
z
" transform="scale(0.015625)"/>
       <path id="DejaVuSans-20" transform="scale(0.015625)"/>
      </defs>
      <use xlink:href="#DejaVuSans-74"/>
      <use xlink:href="#DejaVuSans-72" x="39.208984"/>
      <use xlink:href="#DejaVuSans-61" x="80.322266"/>
      <use xlink:href="#DejaVuSans-69" x="141.601562"/>
      <use xlink:href="#DejaVuSans-6e" x="169.384766"/>
      <use xlink:href="#DejaVuSans-69" x="232.763672"/>
      <use xlink:href="#DejaVuSans-6e" x="260.546875"/>
      <use xlink:href="#DejaVuSans-67" x="323.925781"/>
      <use xlink:href="#DejaVuSans-20" x="387.402344"/>
      <use xlink:href="#DejaVuSans-73" x="419.189453"/>
      <use xlink:href="#DejaVuSans-65" x="471.289062"/>
      <use xlink:href="#DejaVuSans-74" x="532.8125"/>
     </g>
    </g>
    <g id="line2d_15">
     <path d="M 66.6 69.248563 
L 76.6 69.248563 
L 86.6 69.248563 
" style="fill: none; stroke: #008000; stroke-width: 1.5; stroke-linecap: square"/>
    </g>
    <g id="text_15">
     <!-- validation set -->
     <g transform="translate(94.6 72.748563) scale(0.1 -0.1)">
      <defs>
       <path id="DejaVuSans-76" d="M 191 3500 
L 800 3500 
L 1894 563 
L 2988 3500 
L 3597 3500 
L 2284 0 
L 1503 0 
L 191 3500 
z
" transform="scale(0.015625)"/>
       <path id="DejaVuSans-64" d="M 2906 2969 
L 2906 4863 
L 3481 4863 
L 3481 0 
L 2906 0 
L 2906 525 
Q 2725 213 2448 61 
Q 2172 -91 1784 -91 
Q 1150 -91 751 415 
Q 353 922 353 1747 
Q 353 2572 751 3078 
Q 1150 3584 1784 3584 
Q 2172 3584 2448 3432 
Q 2725 3281 2906 2969 
z
M 947 1747 
Q 947 1113 1208 752 
Q 1469 391 1925 391 
Q 2381 391 2643 752 
Q 2906 1113 2906 1747 
Q 2906 2381 2643 2742 
Q 2381 3103 1925 3103 
Q 1469 3103 1208 2742 
Q 947 2381 947 1747 
z
" transform="scale(0.015625)"/>
      </defs>
      <use xlink:href="#DejaVuSans-76"/>
      <use xlink:href="#DejaVuSans-61" x="59.179688"/>
      <use xlink:href="#DejaVuSans-6c" x="120.458984"/>
      <use xlink:href="#DejaVuSans-69" x="148.242188"/>
      <use xlink:href="#DejaVuSans-64" x="176.025391"/>
      <use xlink:href="#DejaVuSans-61" x="239.501953"/>
      <use xlink:href="#DejaVuSans-74" x="300.78125"/>
      <use xlink:href="#DejaVuSans-69" x="339.990234"/>
      <use xlink:href="#DejaVuSans-6f" x="367.773438"/>
      <use xlink:href="#DejaVuSans-6e" x="428.955078"/>
      <use xlink:href="#DejaVuSans-20" x="492.333984"/>
      <use xlink:href="#DejaVuSans-73" x="524.121094"/>
      <use xlink:href="#DejaVuSans-65" x="576.220703"/>
      <use xlink:href="#DejaVuSans-74" x="637.744141"/>
     </g>
    </g>
    <g id="line2d_16">
     <path d="M 66.6 83.926688 
L 76.6 83.926688 
L 86.6 83.926688 
" style="fill: none; stroke: #ff0000; stroke-width: 1.5; stroke-linecap: square"/>
    </g>
    <g id="text_16">
     <!-- test set -->
     <g transform="translate(94.6 87.426688) scale(0.1 -0.1)">
      <use xlink:href="#DejaVuSans-74"/>
      <use xlink:href="#DejaVuSans-65" x="39.208984"/>
      <use xlink:href="#DejaVuSans-73" x="100.732422"/>
      <use xlink:href="#DejaVuSans-74" x="152.832031"/>
      <use xlink:href="#DejaVuSans-20" x="192.041016"/>
      <use xlink:href="#DejaVuSans-73" x="223.828125"/>
      <use xlink:href="#DejaVuSans-65" x="275.927734"/>
      <use xlink:href="#DejaVuSans-74" x="337.451172"/>
     </g>
    </g>
   </g>
  </g>
 </g>
 <defs>
  <clipPath id="pbdc5950cce">
   <rect x="57.6" y="41.472" width="357.12" height="266.112"/>
  </clipPath>
 </defs>
</svg>
