<?xml version="1.0" encoding="utf-8" standalone="no"?>
<!DOCTYPE svg PUBLIC "-//W3C//DTD SVG 1.1//EN"
  "http://www.w3.org/Graphics/SVG/1.1/DTD/svg11.dtd">
<svg xmlns:xlink="http://www.w3.org/1999/xlink" width="460.8pt" height="345.6pt" viewBox="0 0 460.8 345.6" xmlns="http://www.w3.org/2000/svg" version="1.1">
 <metadata>
  <rdf:RDF xmlns:dc="http://purl.org/dc/elements/1.1/" xmlns:cc="http://creativecommons.org/ns#" xmlns:rdf="http://www.w3.org/1999/02/22-rdf-syntax-ns#">
   <cc:Work>
    <dc:type rdf:resource="http://purl.org/dc/dcmitype/StillImage"/>
    <dc:date>2023-06-14T03:58:06.295264</dc:date>
    <dc:format>image/svg+xml</dc:format>
    <dc:creator>
     <cc:Agent>
      <dc:title>Matplotlib v3.7.1, https://matplotlib.org/</dc:title>
     </cc:Agent>
    </dc:creator>
   </cc:Work>
  </rdf:RDF>
 </metadata>
 <defs>
  <style type="text/css">*{stroke-linejoin: round; stroke-linecap: butt}</style>
 </defs>
 <g id="figure_1">
  <g id="patch_1">
   <path d="M 0 345.6 
L 460.8 345.6 
L 460.8 0 
L 0 0 
z
" style="fill: #ffffff"/>
  </g>
  <g id="axes_1">
   <g id="patch_2">
    <path d="M 57.6 307.584 
L 414.72 307.584 
L 414.72 41.472 
L 57.6 41.472 
z
" style="fill: #ffffff"/>
   </g>
   <g id="matplotlib.axis_1">
    <g id="xtick_1">
     <g id="line2d_1">
      <defs>
       <path id="m57b8806771" d="M 0 0 
L 0 3.5 
" style="stroke: #000000; stroke-width: 0.8"/>
      </defs>
      <g>
       <use xlink:href="#m57b8806771" x="73.767783" y="307.584" style="stroke: #000000; stroke-width: 0.8"/>
      </g>
     </g>
     <g id="text_1">
      <!-- 0 -->
      <g transform="translate(70.586533 322.182437) scale(0.1 -0.1)">
       <defs>
        <path id="DejaVuSans-30" d="M 2034 4250 
Q 1547 4250 1301 3770 
Q 1056 3291 1056 2328 
Q 1056 1369 1301 889 
Q 1547 409 2034 409 
Q 2525 409 2770 889 
Q 3016 1369 3016 2328 
Q 3016 3291 2770 3770 
Q 2525 4250 2034 4250 
z
M 2034 4750 
Q 2819 4750 3233 4129 
Q 3647 3509 3647 2328 
Q 3647 1150 3233 529 
Q 2819 -91 2034 -91 
Q 1250 -91 836 529 
Q 422 1150 422 2328 
Q 422 3509 836 4129 
Q 1250 4750 2034 4750 
z
" transform="scale(0.015625)"/>
       </defs>
       <use xlink:href="#DejaVuSans-30"/>
      </g>
     </g>
    </g>
    <g id="xtick_2">
     <g id="line2d_2">
      <g>
       <use xlink:href="#m57b8806771" x="138.711681" y="307.584" style="stroke: #000000; stroke-width: 0.8"/>
      </g>
     </g>
     <g id="text_2">
      <!-- 1000 -->
      <g transform="translate(125.986681 322.182437) scale(0.1 -0.1)">
       <defs>
        <path id="DejaVuSans-31" d="M 794 531 
L 1825 531 
L 1825 4091 
L 703 3866 
L 703 4441 
L 1819 4666 
L 2450 4666 
L 2450 531 
L 3481 531 
L 3481 0 
L 794 0 
L 794 531 
z
" transform="scale(0.015625)"/>
       </defs>
       <use xlink:href="#DejaVuSans-31"/>
       <use xlink:href="#DejaVuSans-30" x="63.623047"/>
       <use xlink:href="#DejaVuSans-30" x="127.246094"/>
       <use xlink:href="#DejaVuSans-30" x="190.869141"/>
      </g>
     </g>
    </g>
    <g id="xtick_3">
     <g id="line2d_3">
      <g>
       <use xlink:href="#m57b8806771" x="203.655579" y="307.584" style="stroke: #000000; stroke-width: 0.8"/>
      </g>
     </g>
     <g id="text_3">
      <!-- 2000 -->
      <g transform="translate(190.930579 322.182437) scale(0.1 -0.1)">
       <defs>
        <path id="DejaVuSans-32" d="M 1228 531 
L 3431 531 
L 3431 0 
L 469 0 
L 469 531 
Q 828 903 1448 1529 
Q 2069 2156 2228 2338 
Q 2531 2678 2651 2914 
Q 2772 3150 2772 3378 
Q 2772 3750 2511 3984 
Q 2250 4219 1831 4219 
Q 1534 4219 1204 4116 
Q 875 4013 500 3803 
L 500 4441 
Q 881 4594 1212 4672 
Q 1544 4750 1819 4750 
Q 2544 4750 2975 4387 
Q 3406 4025 3406 3419 
Q 3406 3131 3298 2873 
Q 3191 2616 2906 2266 
Q 2828 2175 2409 1742 
Q 1991 1309 1228 531 
z
" transform="scale(0.015625)"/>
       </defs>
       <use xlink:href="#DejaVuSans-32"/>
       <use xlink:href="#DejaVuSans-30" x="63.623047"/>
       <use xlink:href="#DejaVuSans-30" x="127.246094"/>
       <use xlink:href="#DejaVuSans-30" x="190.869141"/>
      </g>
     </g>
    </g>
    <g id="xtick_4">
     <g id="line2d_4">
      <g>
       <use xlink:href="#m57b8806771" x="268.599477" y="307.584" style="stroke: #000000; stroke-width: 0.8"/>
      </g>
     </g>
     <g id="text_4">
      <!-- 3000 -->
      <g transform="translate(255.874477 322.182437) scale(0.1 -0.1)">
       <defs>
        <path id="DejaVuSans-33" d="M 2597 2516 
Q 3050 2419 3304 2112 
Q 3559 1806 3559 1356 
Q 3559 666 3084 287 
Q 2609 -91 1734 -91 
Q 1441 -91 1130 -33 
Q 819 25 488 141 
L 488 750 
Q 750 597 1062 519 
Q 1375 441 1716 441 
Q 2309 441 2620 675 
Q 2931 909 2931 1356 
Q 2931 1769 2642 2001 
Q 2353 2234 1838 2234 
L 1294 2234 
L 1294 2753 
L 1863 2753 
Q 2328 2753 2575 2939 
Q 2822 3125 2822 3475 
Q 2822 3834 2567 4026 
Q 2313 4219 1838 4219 
Q 1578 4219 1281 4162 
Q 984 4106 628 3988 
L 628 4550 
Q 988 4650 1302 4700 
Q 1616 4750 1894 4750 
Q 2613 4750 3031 4423 
Q 3450 4097 3450 3541 
Q 3450 3153 3228 2886 
Q 3006 2619 2597 2516 
z
" transform="scale(0.015625)"/>
       </defs>
       <use xlink:href="#DejaVuSans-33"/>
       <use xlink:href="#DejaVuSans-30" x="63.623047"/>
       <use xlink:href="#DejaVuSans-30" x="127.246094"/>
       <use xlink:href="#DejaVuSans-30" x="190.869141"/>
      </g>
     </g>
    </g>
    <g id="xtick_5">
     <g id="line2d_5">
      <g>
       <use xlink:href="#m57b8806771" x="333.543375" y="307.584" style="stroke: #000000; stroke-width: 0.8"/>
      </g>
     </g>
     <g id="text_5">
      <!-- 4000 -->
      <g transform="translate(320.818375 322.182437) scale(0.1 -0.1)">
       <defs>
        <path id="DejaVuSans-34" d="M 2419 4116 
L 825 1625 
L 2419 1625 
L 2419 4116 
z
M 2253 4666 
L 3047 4666 
L 3047 1625 
L 3713 1625 
L 3713 1100 
L 3047 1100 
L 3047 0 
L 2419 0 
L 2419 1100 
L 313 1100 
L 313 1709 
L 2253 4666 
z
" transform="scale(0.015625)"/>
       </defs>
       <use xlink:href="#DejaVuSans-34"/>
       <use xlink:href="#DejaVuSans-30" x="63.623047"/>
       <use xlink:href="#DejaVuSans-30" x="127.246094"/>
       <use xlink:href="#DejaVuSans-30" x="190.869141"/>
      </g>
     </g>
    </g>
    <g id="xtick_6">
     <g id="line2d_6">
      <g>
       <use xlink:href="#m57b8806771" x="398.487273" y="307.584" style="stroke: #000000; stroke-width: 0.8"/>
      </g>
     </g>
     <g id="text_6">
      <!-- 5000 -->
      <g transform="translate(385.762273 322.182437) scale(0.1 -0.1)">
       <defs>
        <path id="DejaVuSans-35" d="M 691 4666 
L 3169 4666 
L 3169 4134 
L 1269 4134 
L 1269 2991 
Q 1406 3038 1543 3061 
Q 1681 3084 1819 3084 
Q 2600 3084 3056 2656 
Q 3513 2228 3513 1497 
Q 3513 744 3044 326 
Q 2575 -91 1722 -91 
Q 1428 -91 1123 -41 
Q 819 9 494 109 
L 494 744 
Q 775 591 1075 516 
Q 1375 441 1709 441 
Q 2250 441 2565 725 
Q 2881 1009 2881 1497 
Q 2881 1984 2565 2268 
Q 2250 2553 1709 2553 
Q 1456 2553 1204 2497 
Q 953 2441 691 2322 
L 691 4666 
z
" transform="scale(0.015625)"/>
       </defs>
       <use xlink:href="#DejaVuSans-35"/>
       <use xlink:href="#DejaVuSans-30" x="63.623047"/>
       <use xlink:href="#DejaVuSans-30" x="127.246094"/>
       <use xlink:href="#DejaVuSans-30" x="190.869141"/>
      </g>
     </g>
    </g>
    <g id="text_7">
     <!-- epoch -->
     <g transform="translate(220.931875 335.860562) scale(0.1 -0.1)">
      <defs>
       <path id="DejaVuSans-65" d="M 3597 1894 
L 3597 1613 
L 953 1613 
Q 991 1019 1311 708 
Q 1631 397 2203 397 
Q 2534 397 2845 478 
Q 3156 559 3463 722 
L 3463 178 
Q 3153 47 2828 -22 
Q 2503 -91 2169 -91 
Q 1331 -91 842 396 
Q 353 884 353 1716 
Q 353 2575 817 3079 
Q 1281 3584 2069 3584 
Q 2775 3584 3186 3129 
Q 3597 2675 3597 1894 
z
M 3022 2063 
Q 3016 2534 2758 2815 
Q 2500 3097 2075 3097 
Q 1594 3097 1305 2825 
Q 1016 2553 972 2059 
L 3022 2063 
z
" transform="scale(0.015625)"/>
       <path id="DejaVuSans-70" d="M 1159 525 
L 1159 -1331 
L 581 -1331 
L 581 3500 
L 1159 3500 
L 1159 2969 
Q 1341 3281 1617 3432 
Q 1894 3584 2278 3584 
Q 2916 3584 3314 3078 
Q 3713 2572 3713 1747 
Q 3713 922 3314 415 
Q 2916 -91 2278 -91 
Q 1894 -91 1617 61 
Q 1341 213 1159 525 
z
M 3116 1747 
Q 3116 2381 2855 2742 
Q 2594 3103 2138 3103 
Q 1681 3103 1420 2742 
Q 1159 2381 1159 1747 
Q 1159 1113 1420 752 
Q 1681 391 2138 391 
Q 2594 391 2855 752 
Q 3116 1113 3116 1747 
z
" transform="scale(0.015625)"/>
       <path id="DejaVuSans-6f" d="M 1959 3097 
Q 1497 3097 1228 2736 
Q 959 2375 959 1747 
Q 959 1119 1226 758 
Q 1494 397 1959 397 
Q 2419 397 2687 759 
Q 2956 1122 2956 1747 
Q 2956 2369 2687 2733 
Q 2419 3097 1959 3097 
z
M 1959 3584 
Q 2709 3584 3137 3096 
Q 3566 2609 3566 1747 
Q 3566 888 3137 398 
Q 2709 -91 1959 -91 
Q 1206 -91 779 398 
Q 353 888 353 1747 
Q 353 2609 779 3096 
Q 1206 3584 1959 3584 
z
" transform="scale(0.015625)"/>
       <path id="DejaVuSans-63" d="M 3122 3366 
L 3122 2828 
Q 2878 2963 2633 3030 
Q 2388 3097 2138 3097 
Q 1578 3097 1268 2742 
Q 959 2388 959 1747 
Q 959 1106 1268 751 
Q 1578 397 2138 397 
Q 2388 397 2633 464 
Q 2878 531 3122 666 
L 3122 134 
Q 2881 22 2623 -34 
Q 2366 -91 2075 -91 
Q 1284 -91 818 406 
Q 353 903 353 1747 
Q 353 2603 823 3093 
Q 1294 3584 2113 3584 
Q 2378 3584 2631 3529 
Q 2884 3475 3122 3366 
z
" transform="scale(0.015625)"/>
       <path id="DejaVuSans-68" d="M 3513 2113 
L 3513 0 
L 2938 0 
L 2938 2094 
Q 2938 2591 2744 2837 
Q 2550 3084 2163 3084 
Q 1697 3084 1428 2787 
Q 1159 2491 1159 1978 
L 1159 0 
L 581 0 
L 581 4863 
L 1159 4863 
L 1159 2956 
Q 1366 3272 1645 3428 
Q 1925 3584 2291 3584 
Q 2894 3584 3203 3211 
Q 3513 2838 3513 2113 
z
" transform="scale(0.015625)"/>
      </defs>
      <use xlink:href="#DejaVuSans-65"/>
      <use xlink:href="#DejaVuSans-70" x="61.523438"/>
      <use xlink:href="#DejaVuSans-6f" x="125"/>
      <use xlink:href="#DejaVuSans-63" x="186.181641"/>
      <use xlink:href="#DejaVuSans-68" x="241.162109"/>
     </g>
    </g>
   </g>
   <g id="matplotlib.axis_2">
    <g id="ytick_1">
     <g id="line2d_7">
      <defs>
       <path id="md8dafaf140" d="M 0 0 
L -3.5 0 
" style="stroke: #000000; stroke-width: 0.8"/>
      </defs>
      <g>
       <use xlink:href="#md8dafaf140" x="57.6" y="295.85059" style="stroke: #000000; stroke-width: 0.8"/>
      </g>
     </g>
     <g id="text_8">
      <!-- 0 -->
      <g transform="translate(44.2375 299.649808) scale(0.1 -0.1)">
       <use xlink:href="#DejaVuSans-30"/>
      </g>
     </g>
    </g>
    <g id="ytick_2">
     <g id="line2d_8">
      <g>
       <use xlink:href="#md8dafaf140" x="57.6" y="239.064706" style="stroke: #000000; stroke-width: 0.8"/>
      </g>
     </g>
     <g id="text_9">
      <!-- 10 -->
      <g transform="translate(37.875 242.863924) scale(0.1 -0.1)">
       <use xlink:href="#DejaVuSans-31"/>
       <use xlink:href="#DejaVuSans-30" x="63.623047"/>
      </g>
     </g>
    </g>
    <g id="ytick_3">
     <g id="line2d_9">
      <g>
       <use xlink:href="#md8dafaf140" x="57.6" y="182.278822" style="stroke: #000000; stroke-width: 0.8"/>
      </g>
     </g>
     <g id="text_10">
      <!-- 20 -->
      <g transform="translate(37.875 186.07804) scale(0.1 -0.1)">
       <use xlink:href="#DejaVuSans-32"/>
       <use xlink:href="#DejaVuSans-30" x="63.623047"/>
      </g>
     </g>
    </g>
    <g id="ytick_4">
     <g id="line2d_10">
      <g>
       <use xlink:href="#md8dafaf140" x="57.6" y="125.492938" style="stroke: #000000; stroke-width: 0.8"/>
      </g>
     </g>
     <g id="text_11">
      <!-- 30 -->
      <g transform="translate(37.875 129.292156) scale(0.1 -0.1)">
       <use xlink:href="#DejaVuSans-33"/>
       <use xlink:href="#DejaVuSans-30" x="63.623047"/>
      </g>
     </g>
    </g>
    <g id="ytick_5">
     <g id="line2d_11">
      <g>
       <use xlink:href="#md8dafaf140" x="57.6" y="68.707054" style="stroke: #000000; stroke-width: 0.8"/>
      </g>
     </g>
     <g id="text_12">
      <!-- 40 -->
      <g transform="translate(37.875 72.506273) scale(0.1 -0.1)">
       <use xlink:href="#DejaVuSans-34"/>
       <use xlink:href="#DejaVuSans-30" x="63.623047"/>
      </g>
     </g>
    </g>
    <g id="text_13">
     <!-- loss -->
     <g transform="translate(31.795313 184.185812) rotate(-90) scale(0.1 -0.1)">
      <defs>
       <path id="DejaVuSans-6c" d="M 603 4863 
L 1178 4863 
L 1178 0 
L 603 0 
L 603 4863 
z
" transform="scale(0.015625)"/>
       <path id="DejaVuSans-73" d="M 2834 3397 
L 2834 2853 
Q 2591 2978 2328 3040 
Q 2066 3103 1784 3103 
Q 1356 3103 1142 2972 
Q 928 2841 928 2578 
Q 928 2378 1081 2264 
Q 1234 2150 1697 2047 
L 1894 2003 
Q 2506 1872 2764 1633 
Q 3022 1394 3022 966 
Q 3022 478 2636 193 
Q 2250 -91 1575 -91 
Q 1294 -91 989 -36 
Q 684 19 347 128 
L 347 722 
Q 666 556 975 473 
Q 1284 391 1588 391 
Q 1994 391 2212 530 
Q 2431 669 2431 922 
Q 2431 1156 2273 1281 
Q 2116 1406 1581 1522 
L 1381 1569 
Q 847 1681 609 1914 
Q 372 2147 372 2553 
Q 372 3047 722 3315 
Q 1072 3584 1716 3584 
Q 2034 3584 2315 3537 
Q 2597 3491 2834 3397 
z
" transform="scale(0.015625)"/>
      </defs>
      <use xlink:href="#DejaVuSans-6c"/>
      <use xlink:href="#DejaVuSans-6f" x="27.783203"/>
      <use xlink:href="#DejaVuSans-73" x="88.964844"/>
      <use xlink:href="#DejaVuSans-73" x="141.064453"/>
     </g>
    </g>
   </g>
   <g id="line2d_12">
    <path d="M 73.832727 285.686682 
L 74.417222 285.870377 
L 75.391381 286.215266 
L 76.365539 286.789864 
L 77.599473 287.812269 
L 79.482846 289.353785 
L 80.651837 290.01289 
L 82.015658 290.516452 
L 83.834088 290.928395 
L 86.691619 291.320618 
L 91.952075 291.792623 
L 101.239052 292.380317 
L 107.798386 292.699826 
L 126.307397 293.300278 
L 149.882032 293.75709 
L 225.931336 294.5932 
L 268.274757 294.895934 
L 337.569897 295.274696 
L 398.487273 295.488 
L 398.487273 295.488 
" clip-path="url(#p18ec299ab4)" style="fill: none; stroke: #0000ff; stroke-width: 1.5; stroke-linecap: square"/>
   </g>
   <g id="line2d_13">
    <path d="M 73.832727 285.685581 
L 74.417222 286.05609 
L 75.196549 286.246438 
L 75.910932 286.504657 
L 77.339698 287.298667 
L 79.223071 288.460255 
L 80.327117 288.915377 
L 81.366219 289.150631 
L 82.730041 289.243201 
L 85.003078 289.155853 
L 91.302636 288.414392 
L 92.731402 288.184413 
L 93.380841 288.080234 
L 94.03028 287.955518 
L 94.614775 287.861857 
L 96.173428 287.573401 
L 96.952755 287.431571 
L 97.472306 287.317117 
L 98.121745 287.20293 
L 98.901072 287.035301 
L 99.420623 286.943809 
L 100.135006 286.78857 
L 100.914333 286.68363 
L 102.278155 286.347784 
L 103.447145 286.075936 
L 104.226471 285.893279 
L 105.265574 285.640602 
L 106.109845 285.433606 
L 106.499508 285.360987 
L 107.084003 285.229915 
L 107.343779 285.176425 
L 107.733442 285.060543 
L 108.188049 284.949126 
L 115.656598 282.916469 
L 116.176149 282.782389 
L 119.228512 281.919024 
L 119.488287 281.844168 
L 120.787165 281.458854 
L 124.229192 280.475705 
L 125.787846 279.983132 
L 127.281555 279.492453 
L 129.619536 278.699602 
L 130.074143 278.557414 
L 130.658638 278.348793 
L 141.699101 274.455936 
L 142.153708 274.280609 
L 142.803147 274.055738 
L 143.257754 273.878045 
L 143.712361 273.710218 
L 145.790566 272.948921 
L 146.440005 272.705022 
L 147.414164 272.346024 
L 147.998659 272.109152 
L 148.453266 271.959708 
L 148.907873 271.780183 
L 150.206751 271.291654 
L 150.791246 271.040726 
L 151.375741 270.83072 
L 152.739563 270.305027 
L 153.324058 270.094499 
L 153.778666 269.894322 
L 154.038441 269.811313 
L 154.493048 269.62647 
L 156.701141 268.751305 
L 157.415524 268.450327 
L 160.208111 267.34475 
L 161.571933 266.780092 
L 162.67598 266.34182 
L 165.403623 265.226552 
L 166.442726 264.797323 
L 166.962277 264.598259 
L 168.066323 264.143534 
L 170.33936 263.231378 
L 170.988798 262.960171 
L 171.443406 262.786774 
L 173.391723 262.009996 
L 175.469927 261.179669 
L 176.119366 260.9328 
L 177.548132 260.341135 
L 178.262515 260.079584 
L 178.717122 259.886396 
L 181.055103 258.972713 
L 181.444766 258.792344 
L 181.704542 258.701046 
L 182.159149 258.526203 
L 183.84769 257.841118 
L 184.691961 257.518474 
L 186.120727 256.941223 
L 186.770166 256.693108 
L 187.484549 256.395852 
L 187.939156 256.225984 
L 189.432865 255.652477 
L 189.627697 255.503103 
L 190.277136 255.29046 
L 190.34208 255.18401 
L 190.407024 255.233386 
L 190.861631 254.998379 
L 190.991519 254.984878 
L 191.251295 254.863208 
L 191.51107 254.782135 
L 191.900734 254.60505 
L 192.550173 254.361784 
L 193.069724 254.215679 
L 195.212872 253.337276 
L 195.472648 253.200574 
L 195.732424 253.092884 
L 196.122087 252.905585 
L 196.51175 252.75665 
L 198.914675 251.673635 
L 200.66816 250.813926 
L 200.862992 250.730413 
L 201.122767 250.626486 
L 201.707262 250.340195 
L 202.616477 249.924201 
L 203.33086 249.572642 
L 204.369962 249.0829 
L 206.83783 247.918378 
L 207.032662 247.777623 
L 236.971799 232.356377 
L 237.881013 231.874715 
L 249.700803 225.279749 
L 250.480129 224.829113 
L 252.168671 223.84346 
L 255.415866 221.903371 
L 256.32508 221.356002 
L 259.442387 219.473008 
L 259.832051 219.233907 
L 260.026882 219.124303 
L 260.351602 218.945347 
L 261.260817 218.386378 
L 261.455648 218.283364 
L 263.014302 217.333145 
L 263.533853 217.012064 
L 263.98846 216.773711 
L 264.31318 216.538162 
L 265.222394 215.995906 
L 267.625319 214.531987 
L 268.209814 214.162935 
L 268.339701 214.104832 
L 268.729365 213.868683 
L 268.98914 213.715683 
L 270.223074 212.947648 
L 270.417906 212.869318 
L 270.742626 212.628604 
L 271.392065 212.213802 
L 271.65184 212.087837 
L 271.911616 211.925593 
L 272.561055 211.467223 
L 272.625999 211.513092 
L 272.885774 211.275096 
L 273.015662 211.198494 
L 273.470269 210.963612 
L 274.184652 210.496371 
L 275.093867 209.923874 
L 275.613418 209.603151 
L 284.64062 203.999015 
L 285.225115 203.607689 
L 285.419947 203.509441 
L 285.80961 203.298777 
L 286.069386 203.100266 
L 286.199273 203.019932 
L 287.173432 202.450782 
L 287.498151 202.225832 
L 288.667141 201.491996 
L 289.056805 201.272938 
L 290.940178 200.075403 
L 291.070066 200.011879 
L 293.667822 198.399288 
L 294.317261 198.003608 
L 294.901756 197.630987 
L 295.551195 197.195687 
L 295.81097 197.07673 
L 296.070746 196.864409 
L 296.330521 196.75442 
L 296.785129 196.44463 
L 297.369624 196.082667 
L 297.954119 195.705216 
L 298.343782 195.46963 
L 299.188053 194.923431 
L 299.382885 194.801766 
L 299.902436 194.532311 
L 300.162211 194.333897 
L 300.551875 194.094011 
L 300.941538 193.841821 
L 301.071426 193.750396 
L 301.396145 193.574229 
L 302.954799 192.593358 
L 303.539294 192.246917 
L 303.734126 192.109059 
L 306.721545 190.432142 
L 306.851433 190.408899 
L 309.189413 189.063758 
L 309.579077 188.83323 
L 310.228516 188.407527 
L 311.787169 187.463688 
L 312.046945 187.270343 
L 312.241776 187.158794 
L 312.956159 186.688434 
L 313.150991 186.596955 
L 313.735486 186.245162 
L 314.190093 185.92973 
L 314.579757 185.704801 
L 316.13841 184.717779 
L 316.333242 184.626408 
L 316.593018 184.421138 
L 316.787849 184.324373 
L 317.762008 183.708412 
L 318.021783 183.55447 
L 318.346503 183.345832 
L 318.671222 183.140356 
L 318.995942 182.954928 
L 319.450549 182.662024 
L 321.528754 181.347991 
L 321.788529 181.154624 
L 322.178193 180.908488 
L 323.282239 180.159911 
L 323.347183 180.181097 
L 323.606958 179.989636 
L 325.944939 178.496999 
L 326.334602 178.211796 
L 326.529434 178.124844 
L 326.724266 177.95615 
L 326.919097 177.87834 
L 327.308761 177.571042 
L 327.438648 177.538776 
L 327.698424 177.359641 
L 328.023144 177.133272 
L 328.282919 176.999119 
L 328.477751 176.808601 
L 328.607639 176.765732 
L 328.932358 176.562465 
L 329.322021 176.304405 
L 329.646741 176.119205 
L 329.97146 175.884388 
L 330.880675 175.322126 
L 331.075507 175.160202 
L 331.270338 175.06543 
L 339.258438 169.936983 
L 339.45327 169.759419 
L 339.518213 169.805895 
L 339.713045 169.643289 
L 340.557316 169.072265 
L 340.752148 168.997379 
L 340.946979 168.854832 
L 342.115969 168.075787 
L 342.310801 167.987633 
L 343.090128 167.449016 
L 343.28496 167.361285 
L 343.739567 167.049946 
L 343.934399 166.92944 
L 344.648781 166.449169 
L 344.908557 166.289639 
L 347.701145 164.505235 
L 348.090808 164.233939 
L 349.12991 163.545463 
L 349.324742 163.463927 
L 349.519574 163.288475 
L 349.714405 163.1947 
L 350.883396 162.430006 
L 351.208115 162.202023 
L 351.532835 162.013249 
L 352.506993 161.332561 
L 352.571937 161.353086 
L 352.766769 161.177991 
L 353.026544 161.051333 
L 353.740927 160.553744 
L 354.000703 160.407124 
L 354.325422 160.151901 
L 354.45531 160.099619 
L 358.416888 157.509883 
L 358.806551 157.252473 
L 359.066327 157.102907 
L 359.391046 156.863432 
L 359.715766 156.654577 
L 362.313522 154.948059 
L 362.833073 154.575677 
L 363.092848 154.462785 
L 363.482512 154.161671 
L 363.677343 154.063899 
L 364.131951 153.732924 
L 364.326782 153.640816 
L 364.716446 153.326326 
L 364.911278 153.237652 
L 366.015324 152.494805 
L 366.664763 152.068787 
L 367.379146 151.584011 
L 368.353304 150.939661 
L 368.742968 150.68172 
L 369.78207 149.953278 
L 370.496453 149.501504 
L 370.821172 149.234237 
L 370.95106 149.18058 
L 372.44477 148.179531 
L 373.743648 147.311564 
L 376.731067 145.292201 
L 377.12073 145.003738 
L 377.315562 144.90289 
L 377.770169 144.584479 
L 378.419608 144.179539 
L 378.61444 143.993223 
L 378.744328 143.924186 
L 379.653542 143.338194 
L 379.978262 143.091755 
L 380.432869 142.788648 
L 381.017364 142.401817 
L 398.487273 130.419689 
L 398.487273 130.419689 
" clip-path="url(#p18ec299ab4)" style="fill: none; stroke: #008000; stroke-width: 1.5; stroke-linecap: square"/>
   </g>
   <g id="line2d_14">
    <path d="M 73.832727 285.660363 
L 74.417222 285.899872 
L 76.625315 286.579013 
L 79.093183 287.681598 
L 80.327117 287.923735 
L 81.496107 287.938032 
L 84.743302 287.54497 
L 90.133646 286.710211 
L 93.380841 286.038125 
L 102.148267 283.372032 
L 117.280195 277.792916 
L 117.799746 277.572982 
L 118.319297 277.375306 
L 121.891212 275.834365 
L 122.215931 275.689703 
L 123.644697 275.081454 
L 124.099304 274.902639 
L 128.450545 272.858682 
L 129.03504 272.558508 
L 130.463806 271.856897 
L 131.567852 271.317403 
L 133.256394 270.464 
L 133.386282 270.403498 
L 133.970777 270.085019 
L 134.230552 269.98093 
L 134.879991 269.649814 
L 152.804507 260.087176 
L 153.389002 259.75078 
L 155.337319 258.676078 
L 156.116646 258.225219 
L 156.701141 257.914769 
L 157.480468 257.460436 
L 157.935075 257.205663 
L 158.584514 256.853897 
L 170.923855 249.758984 
L 171.313518 249.528045 
L 173.067003 248.541699 
L 173.716442 248.156818 
L 179.821169 244.587674 
L 180.405664 244.238616 
L 181.769486 243.388108 
L 182.224093 243.116503 
L 189.432865 238.332316 
L 189.627697 238.108015 
L 189.887473 238.001432 
L 190.212192 237.730396 
L 190.471968 237.568645 
L 190.731743 237.384047 
L 190.991519 237.212152 
L 191.381182 236.933524 
L 191.640958 236.789059 
L 192.030621 236.525399 
L 192.615116 236.128354 
L 193.459387 235.707742 
L 199.758945 231.729915 
L 199.953777 231.564871 
L 209.370642 225.094712 
L 209.760306 224.801965 
L 212.098286 223.151432 
L 214.176491 221.660636 
L 214.631098 221.34366 
L 234.568875 206.485807 
L 234.763706 206.285964 
L 237.036743 204.551236 
L 237.881013 203.906215 
L 238.98506 203.049511 
L 239.894274 202.347215 
L 240.543713 201.7978 
L 240.608657 201.807407 
L 240.868433 201.546292 
L 241.128208 201.367374 
L 241.582815 201.013025 
L 243.141469 199.775069 
L 244.180571 198.954812 
L 245.414505 197.945542 
L 246.258776 197.266977 
L 246.778327 196.792762 
L 246.843271 196.813438 
L 247.103047 196.527975 
L 247.49271 196.238753 
L 250.025522 194.156073 
L 251.454288 192.972499 
L 252.428446 192.143935 
L 253.467549 191.236835 
L 253.727324 191.058447 
L 253.9871 190.830205 
L 254.506651 190.390442 
L 256.195192 188.953498 
L 257.559014 187.81522 
L 257.81879 187.562456 
L 258.078566 187.341156 
L 258.533173 186.949397 
L 259.3125 186.289104 
L 259.767107 185.940777 
L 260.15677 185.57041 
L 260.676321 185.154292 
L 261.260817 184.640228 
L 261.65048 184.31482 
L 262.429807 183.639385 
L 262.624638 183.529082 
L 262.884414 183.225249 
L 263.014302 183.12321 
L 272.496111 174.894961 
L 273.015662 174.426821 
L 273.730045 173.805011 
L 276.003081 171.817394 
L 276.587576 171.304306 
L 276.97724 170.916879 
L 277.237015 170.736174 
L 277.626679 170.310752 
L 277.756567 170.221656 
L 278.600837 169.505778 
L 279.055445 169.09279 
L 279.31522 168.857431 
L 279.834771 168.398065 
L 280.80893 167.532513 
L 283.406686 165.198595 
L 284.3159 164.401332 
L 305.162891 145.752131 
L 305.357723 145.610028 
L 306.591657 144.638331 
L 306.786489 144.574233 
L 309.64402 142.295955 
L 314.839532 137.477146 
L 315.878635 136.515024 
L 318.736166 133.800676 
L 319.060886 133.516827 
L 320.424707 132.210202 
L 320.684483 131.969395 
L 325.944939 126.929243 
L 326.724266 126.157108 
L 327.243817 125.661458 
L 327.763368 125.151814 
L 328.153031 124.80222 
L 328.477751 124.452042 
L 328.737526 124.219131 
L 329.386965 123.612354 
L 330.491012 122.517541 
L 330.750787 122.289168 
L 334.322702 118.837703 
L 334.842253 118.341359 
L 336.206075 117.02477 
L 337.894616 115.370262 
L 338.738887 114.564909 
L 340.102709 113.215728 
L 342.310801 111.063296 
L 343.999342 109.390766 
L 344.324062 109.096833 
L 344.778669 108.615522 
L 351.857554 101.599018 
L 352.506993 100.938736 
L 354.260478 99.206461 
L 354.909917 98.549666 
L 355.494412 97.956125 
L 356.79329 96.664111 
L 358.546776 94.892996 
L 359.585878 93.877997 
L 360.235317 93.212516 
L 362.508353 90.902492 
L 363.157792 90.26203 
L 364.911278 88.470077 
L 365.885436 87.481635 
L 372.704545 80.495155 
L 373.418928 79.746491 
L 374.328143 78.841254 
L 376.016684 77.078392 
L 376.341404 76.741113 
L 377.12073 75.94475 
L 384.394447 68.38288 
L 385.368605 67.358068 
L 385.9531 66.743536 
L 386.862315 65.80403 
L 390.888837 61.585033 
L 391.408388 61.050846 
L 396.409068 55.784661 
L 398.357385 53.704709 
L 398.487273 53.568 
L 398.487273 53.568 
" clip-path="url(#p18ec299ab4)" style="fill: none; stroke: #ff0000; stroke-width: 1.5; stroke-linecap: square"/>
   </g>
   <g id="patch_3">
    <path d="M 57.6 307.584 
L 57.6 41.472 
" style="fill: none; stroke: #000000; stroke-width: 0.8; stroke-linejoin: miter; stroke-linecap: square"/>
   </g>
   <g id="patch_4">
    <path d="M 414.72 307.584 
L 414.72 41.472 
" style="fill: none; stroke: #000000; stroke-width: 0.8; stroke-linejoin: miter; stroke-linecap: square"/>
   </g>
   <g id="patch_5">
    <path d="M 57.6 307.584 
L 414.72 307.584 
" style="fill: none; stroke: #000000; stroke-width: 0.8; stroke-linejoin: miter; stroke-linecap: square"/>
   </g>
   <g id="patch_6">
    <path d="M 57.6 41.472 
L 414.72 41.472 
" style="fill: none; stroke: #000000; stroke-width: 0.8; stroke-linejoin: miter; stroke-linecap: square"/>
   </g>
   <g id="text_14">
    <!-- Script19_loss -->
    <g transform="translate(196.532813 35.472) scale(0.12 -0.12)">
     <defs>
      <path id="DejaVuSans-53" d="M 3425 4513 
L 3425 3897 
Q 3066 4069 2747 4153 
Q 2428 4238 2131 4238 
Q 1616 4238 1336 4038 
Q 1056 3838 1056 3469 
Q 1056 3159 1242 3001 
Q 1428 2844 1947 2747 
L 2328 2669 
Q 3034 2534 3370 2195 
Q 3706 1856 3706 1288 
Q 3706 609 3251 259 
Q 2797 -91 1919 -91 
Q 1588 -91 1214 -16 
Q 841 59 441 206 
L 441 856 
Q 825 641 1194 531 
Q 1563 422 1919 422 
Q 2459 422 2753 634 
Q 3047 847 3047 1241 
Q 3047 1584 2836 1778 
Q 2625 1972 2144 2069 
L 1759 2144 
Q 1053 2284 737 2584 
Q 422 2884 422 3419 
Q 422 4038 858 4394 
Q 1294 4750 2059 4750 
Q 2388 4750 2728 4690 
Q 3069 4631 3425 4513 
z
" transform="scale(0.015625)"/>
      <path id="DejaVuSans-72" d="M 2631 2963 
Q 2534 3019 2420 3045 
Q 2306 3072 2169 3072 
Q 1681 3072 1420 2755 
Q 1159 2438 1159 1844 
L 1159 0 
L 581 0 
L 581 3500 
L 1159 3500 
L 1159 2956 
Q 1341 3275 1631 3429 
Q 1922 3584 2338 3584 
Q 2397 3584 2469 3576 
Q 2541 3569 2628 3553 
L 2631 2963 
z
" transform="scale(0.015625)"/>
      <path id="DejaVuSans-69" d="M 603 3500 
L 1178 3500 
L 1178 0 
L 603 0 
L 603 3500 
z
M 603 4863 
L 1178 4863 
L 1178 4134 
L 603 4134 
L 603 4863 
z
" transform="scale(0.015625)"/>
      <path id="DejaVuSans-74" d="M 1172 4494 
L 1172 3500 
L 2356 3500 
L 2356 3053 
L 1172 3053 
L 1172 1153 
Q 1172 725 1289 603 
Q 1406 481 1766 481 
L 2356 481 
L 2356 0 
L 1766 0 
Q 1100 0 847 248 
Q 594 497 594 1153 
L 594 3053 
L 172 3053 
L 172 3500 
L 594 3500 
L 594 4494 
L 1172 4494 
z
" transform="scale(0.015625)"/>
      <path id="DejaVuSans-39" d="M 703 97 
L 703 672 
Q 941 559 1184 500 
Q 1428 441 1663 441 
Q 2288 441 2617 861 
Q 2947 1281 2994 2138 
Q 2813 1869 2534 1725 
Q 2256 1581 1919 1581 
Q 1219 1581 811 2004 
Q 403 2428 403 3163 
Q 403 3881 828 4315 
Q 1253 4750 1959 4750 
Q 2769 4750 3195 4129 
Q 3622 3509 3622 2328 
Q 3622 1225 3098 567 
Q 2575 -91 1691 -91 
Q 1453 -91 1209 -44 
Q 966 3 703 97 
z
M 1959 2075 
Q 2384 2075 2632 2365 
Q 2881 2656 2881 3163 
Q 2881 3666 2632 3958 
Q 2384 4250 1959 4250 
Q 1534 4250 1286 3958 
Q 1038 3666 1038 3163 
Q 1038 2656 1286 2365 
Q 1534 2075 1959 2075 
z
" transform="scale(0.015625)"/>
      <path id="DejaVuSans-5f" d="M 3263 -1063 
L 3263 -1509 
L -63 -1509 
L -63 -1063 
L 3263 -1063 
z
" transform="scale(0.015625)"/>
     </defs>
     <use xlink:href="#DejaVuSans-53"/>
     <use xlink:href="#DejaVuSans-63" x="63.476562"/>
     <use xlink:href="#DejaVuSans-72" x="118.457031"/>
     <use xlink:href="#DejaVuSans-69" x="159.570312"/>
     <use xlink:href="#DejaVuSans-70" x="187.353516"/>
     <use xlink:href="#DejaVuSans-74" x="250.830078"/>
     <use xlink:href="#DejaVuSans-31" x="290.039062"/>
     <use xlink:href="#DejaVuSans-39" x="353.662109"/>
     <use xlink:href="#DejaVuSans-5f" x="417.285156"/>
     <use xlink:href="#DejaVuSans-6c" x="467.285156"/>
     <use xlink:href="#DejaVuSans-6f" x="495.068359"/>
     <use xlink:href="#DejaVuSans-73" x="556.25"/>
     <use xlink:href="#DejaVuSans-73" x="608.349609"/>
    </g>
   </g>
   <g id="legend_1">
    <g id="patch_7">
     <path d="M 64.6 93.506375 
L 164.295312 93.506375 
Q 166.295312 93.506375 166.295312 91.506375 
L 166.295312 48.472 
Q 166.295312 46.472 164.295312 46.472 
L 64.6 46.472 
Q 62.6 46.472 62.6 48.472 
L 62.6 91.506375 
Q 62.6 93.506375 64.6 93.506375 
z
" style="fill: #ffffff; opacity: 0.8; stroke: #cccccc; stroke-linejoin: miter"/>
    </g>
    <g id="line2d_15">
     <path d="M 66.6 54.570438 
L 76.6 54.570438 
L 86.6 54.570438 
" style="fill: none; stroke: #0000ff; stroke-width: 1.5; stroke-linecap: square"/>
    </g>
    <g id="text_15">
     <!-- training set -->
     <g transform="translate(94.6 58.070438) scale(0.1 -0.1)">
      <defs>
       <path id="DejaVuSans-61" d="M 2194 1759 
Q 1497 1759 1228 1600 
Q 959 1441 959 1056 
Q 959 750 1161 570 
Q 1363 391 1709 391 
Q 2188 391 2477 730 
Q 2766 1069 2766 1631 
L 2766 1759 
L 2194 1759 
z
M 3341 1997 
L 3341 0 
L 2766 0 
L 2766 531 
Q 2569 213 2275 61 
Q 1981 -91 1556 -91 
Q 1019 -91 701 211 
Q 384 513 384 1019 
Q 384 1609 779 1909 
Q 1175 2209 1959 2209 
L 2766 2209 
L 2766 2266 
Q 2766 2663 2505 2880 
Q 2244 3097 1772 3097 
Q 1472 3097 1187 3025 
Q 903 2953 641 2809 
L 641 3341 
Q 956 3463 1253 3523 
Q 1550 3584 1831 3584 
Q 2591 3584 2966 3190 
Q 3341 2797 3341 1997 
z
" transform="scale(0.015625)"/>
       <path id="DejaVuSans-6e" d="M 3513 2113 
L 3513 0 
L 2938 0 
L 2938 2094 
Q 2938 2591 2744 2837 
Q 2550 3084 2163 3084 
Q 1697 3084 1428 2787 
Q 1159 2491 1159 1978 
L 1159 0 
L 581 0 
L 581 3500 
L 1159 3500 
L 1159 2956 
Q 1366 3272 1645 3428 
Q 1925 3584 2291 3584 
Q 2894 3584 3203 3211 
Q 3513 2838 3513 2113 
z
" transform="scale(0.015625)"/>
       <path id="DejaVuSans-67" d="M 2906 1791 
Q 2906 2416 2648 2759 
Q 2391 3103 1925 3103 
Q 1463 3103 1205 2759 
Q 947 2416 947 1791 
Q 947 1169 1205 825 
Q 1463 481 1925 481 
Q 2391 481 2648 825 
Q 2906 1169 2906 1791 
z
M 3481 434 
Q 3481 -459 3084 -895 
Q 2688 -1331 1869 -1331 
Q 1566 -1331 1297 -1286 
Q 1028 -1241 775 -1147 
L 775 -588 
Q 1028 -725 1275 -790 
Q 1522 -856 1778 -856 
Q 2344 -856 2625 -561 
Q 2906 -266 2906 331 
L 2906 616 
Q 2728 306 2450 153 
Q 2172 0 1784 0 
Q 1141 0 747 490 
Q 353 981 353 1791 
Q 353 2603 747 3093 
Q 1141 3584 1784 3584 
Q 2172 3584 2450 3431 
Q 2728 3278 2906 2969 
L 2906 3500 
L 3481 3500 
L 3481 434 
z
" transform="scale(0.015625)"/>
       <path id="DejaVuSans-20" transform="scale(0.015625)"/>
      </defs>
      <use xlink:href="#DejaVuSans-74"/>
      <use xlink:href="#DejaVuSans-72" x="39.208984"/>
      <use xlink:href="#DejaVuSans-61" x="80.322266"/>
      <use xlink:href="#DejaVuSans-69" x="141.601562"/>
      <use xlink:href="#DejaVuSans-6e" x="169.384766"/>
      <use xlink:href="#DejaVuSans-69" x="232.763672"/>
      <use xlink:href="#DejaVuSans-6e" x="260.546875"/>
      <use xlink:href="#DejaVuSans-67" x="323.925781"/>
      <use xlink:href="#DejaVuSans-20" x="387.402344"/>
      <use xlink:href="#DejaVuSans-73" x="419.189453"/>
      <use xlink:href="#DejaVuSans-65" x="471.289062"/>
      <use xlink:href="#DejaVuSans-74" x="532.8125"/>
     </g>
    </g>
    <g id="line2d_16">
     <path d="M 66.6 69.248563 
L 76.6 69.248563 
L 86.6 69.248563 
" style="fill: none; stroke: #008000; stroke-width: 1.5; stroke-linecap: square"/>
    </g>
    <g id="text_16">
     <!-- validation set -->
     <g transform="translate(94.6 72.748563) scale(0.1 -0.1)">
      <defs>
       <path id="DejaVuSans-76" d="M 191 3500 
L 800 3500 
L 1894 563 
L 2988 3500 
L 3597 3500 
L 2284 0 
L 1503 0 
L 191 3500 
z
" transform="scale(0.015625)"/>
       <path id="DejaVuSans-64" d="M 2906 2969 
L 2906 4863 
L 3481 4863 
L 3481 0 
L 2906 0 
L 2906 525 
Q 2725 213 2448 61 
Q 2172 -91 1784 -91 
Q 1150 -91 751 415 
Q 353 922 353 1747 
Q 353 2572 751 3078 
Q 1150 3584 1784 3584 
Q 2172 3584 2448 3432 
Q 2725 3281 2906 2969 
z
M 947 1747 
Q 947 1113 1208 752 
Q 1469 391 1925 391 
Q 2381 391 2643 752 
Q 2906 1113 2906 1747 
Q 2906 2381 2643 2742 
Q 2381 3103 1925 3103 
Q 1469 3103 1208 2742 
Q 947 2381 947 1747 
z
" transform="scale(0.015625)"/>
      </defs>
      <use xlink:href="#DejaVuSans-76"/>
      <use xlink:href="#DejaVuSans-61" x="59.179688"/>
      <use xlink:href="#DejaVuSans-6c" x="120.458984"/>
      <use xlink:href="#DejaVuSans-69" x="148.242188"/>
      <use xlink:href="#DejaVuSans-64" x="176.025391"/>
      <use xlink:href="#DejaVuSans-61" x="239.501953"/>
      <use xlink:href="#DejaVuSans-74" x="300.78125"/>
      <use xlink:href="#DejaVuSans-69" x="339.990234"/>
      <use xlink:href="#DejaVuSans-6f" x="367.773438"/>
      <use xlink:href="#DejaVuSans-6e" x="428.955078"/>
      <use xlink:href="#DejaVuSans-20" x="492.333984"/>
      <use xlink:href="#DejaVuSans-73" x="524.121094"/>
      <use xlink:href="#DejaVuSans-65" x="576.220703"/>
      <use xlink:href="#DejaVuSans-74" x="637.744141"/>
     </g>
    </g>
    <g id="line2d_17">
     <path d="M 66.6 83.926688 
L 76.6 83.926688 
L 86.6 83.926688 
" style="fill: none; stroke: #ff0000; stroke-width: 1.5; stroke-linecap: square"/>
    </g>
    <g id="text_17">
     <!-- test set -->
     <g transform="translate(94.6 87.426688) scale(0.1 -0.1)">
      <use xlink:href="#DejaVuSans-74"/>
      <use xlink:href="#DejaVuSans-65" x="39.208984"/>
      <use xlink:href="#DejaVuSans-73" x="100.732422"/>
      <use xlink:href="#DejaVuSans-74" x="152.832031"/>
      <use xlink:href="#DejaVuSans-20" x="192.041016"/>
      <use xlink:href="#DejaVuSans-73" x="223.828125"/>
      <use xlink:href="#DejaVuSans-65" x="275.927734"/>
      <use xlink:href="#DejaVuSans-74" x="337.451172"/>
     </g>
    </g>
   </g>
  </g>
 </g>
 <defs>
  <clipPath id="p18ec299ab4">
   <rect x="57.6" y="41.472" width="357.12" height="266.112"/>
  </clipPath>
 </defs>
</svg>
