<?xml version="1.0" encoding="utf-8" standalone="no"?>
<!DOCTYPE svg PUBLIC "-//W3C//DTD SVG 1.1//EN"
  "http://www.w3.org/Graphics/SVG/1.1/DTD/svg11.dtd">
<svg xmlns:xlink="http://www.w3.org/1999/xlink" width="460.8pt" height="345.6pt" viewBox="0 0 460.8 345.6" xmlns="http://www.w3.org/2000/svg" version="1.1">
 <metadata>
  <rdf:RDF xmlns:dc="http://purl.org/dc/elements/1.1/" xmlns:cc="http://creativecommons.org/ns#" xmlns:rdf="http://www.w3.org/1999/02/22-rdf-syntax-ns#">
   <cc:Work>
    <dc:type rdf:resource="http://purl.org/dc/dcmitype/StillImage"/>
    <dc:date>2023-06-14T03:57:35.714186</dc:date>
    <dc:format>image/svg+xml</dc:format>
    <dc:creator>
     <cc:Agent>
      <dc:title>Matplotlib v3.7.1, https://matplotlib.org/</dc:title>
     </cc:Agent>
    </dc:creator>
   </cc:Work>
  </rdf:RDF>
 </metadata>
 <defs>
  <style type="text/css">*{stroke-linejoin: round; stroke-linecap: butt}</style>
 </defs>
 <g id="figure_1">
  <g id="patch_1">
   <path d="M 0 345.6 
L 460.8 345.6 
L 460.8 0 
L 0 0 
z
" style="fill: #ffffff"/>
  </g>
  <g id="axes_1">
   <g id="patch_2">
    <path d="M 57.6 307.584 
L 414.72 307.584 
L 414.72 41.472 
L 57.6 41.472 
z
" style="fill: #ffffff"/>
   </g>
   <g id="matplotlib.axis_1">
    <g id="xtick_1">
     <g id="line2d_1">
      <defs>
       <path id="m7855a2ab02" d="M 0 0 
L 0 3.5 
" style="stroke: #000000; stroke-width: 0.8"/>
      </defs>
      <g>
       <use xlink:href="#m7855a2ab02" x="73.767783" y="307.584" style="stroke: #000000; stroke-width: 0.8"/>
      </g>
     </g>
     <g id="text_1">
      <!-- 0 -->
      <g transform="translate(70.586533 322.182437) scale(0.1 -0.1)">
       <defs>
        <path id="DejaVuSans-30" d="M 2034 4250 
Q 1547 4250 1301 3770 
Q 1056 3291 1056 2328 
Q 1056 1369 1301 889 
Q 1547 409 2034 409 
Q 2525 409 2770 889 
Q 3016 1369 3016 2328 
Q 3016 3291 2770 3770 
Q 2525 4250 2034 4250 
z
M 2034 4750 
Q 2819 4750 3233 4129 
Q 3647 3509 3647 2328 
Q 3647 1150 3233 529 
Q 2819 -91 2034 -91 
Q 1250 -91 836 529 
Q 422 1150 422 2328 
Q 422 3509 836 4129 
Q 1250 4750 2034 4750 
z
" transform="scale(0.015625)"/>
       </defs>
       <use xlink:href="#DejaVuSans-30"/>
      </g>
     </g>
    </g>
    <g id="xtick_2">
     <g id="line2d_2">
      <g>
       <use xlink:href="#m7855a2ab02" x="138.711681" y="307.584" style="stroke: #000000; stroke-width: 0.8"/>
      </g>
     </g>
     <g id="text_2">
      <!-- 1000 -->
      <g transform="translate(125.986681 322.182437) scale(0.1 -0.1)">
       <defs>
        <path id="DejaVuSans-31" d="M 794 531 
L 1825 531 
L 1825 4091 
L 703 3866 
L 703 4441 
L 1819 4666 
L 2450 4666 
L 2450 531 
L 3481 531 
L 3481 0 
L 794 0 
L 794 531 
z
" transform="scale(0.015625)"/>
       </defs>
       <use xlink:href="#DejaVuSans-31"/>
       <use xlink:href="#DejaVuSans-30" x="63.623047"/>
       <use xlink:href="#DejaVuSans-30" x="127.246094"/>
       <use xlink:href="#DejaVuSans-30" x="190.869141"/>
      </g>
     </g>
    </g>
    <g id="xtick_3">
     <g id="line2d_3">
      <g>
       <use xlink:href="#m7855a2ab02" x="203.655579" y="307.584" style="stroke: #000000; stroke-width: 0.8"/>
      </g>
     </g>
     <g id="text_3">
      <!-- 2000 -->
      <g transform="translate(190.930579 322.182437) scale(0.1 -0.1)">
       <defs>
        <path id="DejaVuSans-32" d="M 1228 531 
L 3431 531 
L 3431 0 
L 469 0 
L 469 531 
Q 828 903 1448 1529 
Q 2069 2156 2228 2338 
Q 2531 2678 2651 2914 
Q 2772 3150 2772 3378 
Q 2772 3750 2511 3984 
Q 2250 4219 1831 4219 
Q 1534 4219 1204 4116 
Q 875 4013 500 3803 
L 500 4441 
Q 881 4594 1212 4672 
Q 1544 4750 1819 4750 
Q 2544 4750 2975 4387 
Q 3406 4025 3406 3419 
Q 3406 3131 3298 2873 
Q 3191 2616 2906 2266 
Q 2828 2175 2409 1742 
Q 1991 1309 1228 531 
z
" transform="scale(0.015625)"/>
       </defs>
       <use xlink:href="#DejaVuSans-32"/>
       <use xlink:href="#DejaVuSans-30" x="63.623047"/>
       <use xlink:href="#DejaVuSans-30" x="127.246094"/>
       <use xlink:href="#DejaVuSans-30" x="190.869141"/>
      </g>
     </g>
    </g>
    <g id="xtick_4">
     <g id="line2d_4">
      <g>
       <use xlink:href="#m7855a2ab02" x="268.599477" y="307.584" style="stroke: #000000; stroke-width: 0.8"/>
      </g>
     </g>
     <g id="text_4">
      <!-- 3000 -->
      <g transform="translate(255.874477 322.182437) scale(0.1 -0.1)">
       <defs>
        <path id="DejaVuSans-33" d="M 2597 2516 
Q 3050 2419 3304 2112 
Q 3559 1806 3559 1356 
Q 3559 666 3084 287 
Q 2609 -91 1734 -91 
Q 1441 -91 1130 -33 
Q 819 25 488 141 
L 488 750 
Q 750 597 1062 519 
Q 1375 441 1716 441 
Q 2309 441 2620 675 
Q 2931 909 2931 1356 
Q 2931 1769 2642 2001 
Q 2353 2234 1838 2234 
L 1294 2234 
L 1294 2753 
L 1863 2753 
Q 2328 2753 2575 2939 
Q 2822 3125 2822 3475 
Q 2822 3834 2567 4026 
Q 2313 4219 1838 4219 
Q 1578 4219 1281 4162 
Q 984 4106 628 3988 
L 628 4550 
Q 988 4650 1302 4700 
Q 1616 4750 1894 4750 
Q 2613 4750 3031 4423 
Q 3450 4097 3450 3541 
Q 3450 3153 3228 2886 
Q 3006 2619 2597 2516 
z
" transform="scale(0.015625)"/>
       </defs>
       <use xlink:href="#DejaVuSans-33"/>
       <use xlink:href="#DejaVuSans-30" x="63.623047"/>
       <use xlink:href="#DejaVuSans-30" x="127.246094"/>
       <use xlink:href="#DejaVuSans-30" x="190.869141"/>
      </g>
     </g>
    </g>
    <g id="xtick_5">
     <g id="line2d_5">
      <g>
       <use xlink:href="#m7855a2ab02" x="333.543375" y="307.584" style="stroke: #000000; stroke-width: 0.8"/>
      </g>
     </g>
     <g id="text_5">
      <!-- 4000 -->
      <g transform="translate(320.818375 322.182437) scale(0.1 -0.1)">
       <defs>
        <path id="DejaVuSans-34" d="M 2419 4116 
L 825 1625 
L 2419 1625 
L 2419 4116 
z
M 2253 4666 
L 3047 4666 
L 3047 1625 
L 3713 1625 
L 3713 1100 
L 3047 1100 
L 3047 0 
L 2419 0 
L 2419 1100 
L 313 1100 
L 313 1709 
L 2253 4666 
z
" transform="scale(0.015625)"/>
       </defs>
       <use xlink:href="#DejaVuSans-34"/>
       <use xlink:href="#DejaVuSans-30" x="63.623047"/>
       <use xlink:href="#DejaVuSans-30" x="127.246094"/>
       <use xlink:href="#DejaVuSans-30" x="190.869141"/>
      </g>
     </g>
    </g>
    <g id="xtick_6">
     <g id="line2d_6">
      <g>
       <use xlink:href="#m7855a2ab02" x="398.487273" y="307.584" style="stroke: #000000; stroke-width: 0.8"/>
      </g>
     </g>
     <g id="text_6">
      <!-- 5000 -->
      <g transform="translate(385.762273 322.182437) scale(0.1 -0.1)">
       <defs>
        <path id="DejaVuSans-35" d="M 691 4666 
L 3169 4666 
L 3169 4134 
L 1269 4134 
L 1269 2991 
Q 1406 3038 1543 3061 
Q 1681 3084 1819 3084 
Q 2600 3084 3056 2656 
Q 3513 2228 3513 1497 
Q 3513 744 3044 326 
Q 2575 -91 1722 -91 
Q 1428 -91 1123 -41 
Q 819 9 494 109 
L 494 744 
Q 775 591 1075 516 
Q 1375 441 1709 441 
Q 2250 441 2565 725 
Q 2881 1009 2881 1497 
Q 2881 1984 2565 2268 
Q 2250 2553 1709 2553 
Q 1456 2553 1204 2497 
Q 953 2441 691 2322 
L 691 4666 
z
" transform="scale(0.015625)"/>
       </defs>
       <use xlink:href="#DejaVuSans-35"/>
       <use xlink:href="#DejaVuSans-30" x="63.623047"/>
       <use xlink:href="#DejaVuSans-30" x="127.246094"/>
       <use xlink:href="#DejaVuSans-30" x="190.869141"/>
      </g>
     </g>
    </g>
    <g id="text_7">
     <!-- epoch -->
     <g transform="translate(220.931875 335.860562) scale(0.1 -0.1)">
      <defs>
       <path id="DejaVuSans-65" d="M 3597 1894 
L 3597 1613 
L 953 1613 
Q 991 1019 1311 708 
Q 1631 397 2203 397 
Q 2534 397 2845 478 
Q 3156 559 3463 722 
L 3463 178 
Q 3153 47 2828 -22 
Q 2503 -91 2169 -91 
Q 1331 -91 842 396 
Q 353 884 353 1716 
Q 353 2575 817 3079 
Q 1281 3584 2069 3584 
Q 2775 3584 3186 3129 
Q 3597 2675 3597 1894 
z
M 3022 2063 
Q 3016 2534 2758 2815 
Q 2500 3097 2075 3097 
Q 1594 3097 1305 2825 
Q 1016 2553 972 2059 
L 3022 2063 
z
" transform="scale(0.015625)"/>
       <path id="DejaVuSans-70" d="M 1159 525 
L 1159 -1331 
L 581 -1331 
L 581 3500 
L 1159 3500 
L 1159 2969 
Q 1341 3281 1617 3432 
Q 1894 3584 2278 3584 
Q 2916 3584 3314 3078 
Q 3713 2572 3713 1747 
Q 3713 922 3314 415 
Q 2916 -91 2278 -91 
Q 1894 -91 1617 61 
Q 1341 213 1159 525 
z
M 3116 1747 
Q 3116 2381 2855 2742 
Q 2594 3103 2138 3103 
Q 1681 3103 1420 2742 
Q 1159 2381 1159 1747 
Q 1159 1113 1420 752 
Q 1681 391 2138 391 
Q 2594 391 2855 752 
Q 3116 1113 3116 1747 
z
" transform="scale(0.015625)"/>
       <path id="DejaVuSans-6f" d="M 1959 3097 
Q 1497 3097 1228 2736 
Q 959 2375 959 1747 
Q 959 1119 1226 758 
Q 1494 397 1959 397 
Q 2419 397 2687 759 
Q 2956 1122 2956 1747 
Q 2956 2369 2687 2733 
Q 2419 3097 1959 3097 
z
M 1959 3584 
Q 2709 3584 3137 3096 
Q 3566 2609 3566 1747 
Q 3566 888 3137 398 
Q 2709 -91 1959 -91 
Q 1206 -91 779 398 
Q 353 888 353 1747 
Q 353 2609 779 3096 
Q 1206 3584 1959 3584 
z
" transform="scale(0.015625)"/>
       <path id="DejaVuSans-63" d="M 3122 3366 
L 3122 2828 
Q 2878 2963 2633 3030 
Q 2388 3097 2138 3097 
Q 1578 3097 1268 2742 
Q 959 2388 959 1747 
Q 959 1106 1268 751 
Q 1578 397 2138 397 
Q 2388 397 2633 464 
Q 2878 531 3122 666 
L 3122 134 
Q 2881 22 2623 -34 
Q 2366 -91 2075 -91 
Q 1284 -91 818 406 
Q 353 903 353 1747 
Q 353 2603 823 3093 
Q 1294 3584 2113 3584 
Q 2378 3584 2631 3529 
Q 2884 3475 3122 3366 
z
" transform="scale(0.015625)"/>
       <path id="DejaVuSans-68" d="M 3513 2113 
L 3513 0 
L 2938 0 
L 2938 2094 
Q 2938 2591 2744 2837 
Q 2550 3084 2163 3084 
Q 1697 3084 1428 2787 
Q 1159 2491 1159 1978 
L 1159 0 
L 581 0 
L 581 4863 
L 1159 4863 
L 1159 2956 
Q 1366 3272 1645 3428 
Q 1925 3584 2291 3584 
Q 2894 3584 3203 3211 
Q 3513 2838 3513 2113 
z
" transform="scale(0.015625)"/>
      </defs>
      <use xlink:href="#DejaVuSans-65"/>
      <use xlink:href="#DejaVuSans-70" x="61.523438"/>
      <use xlink:href="#DejaVuSans-6f" x="125"/>
      <use xlink:href="#DejaVuSans-63" x="186.181641"/>
      <use xlink:href="#DejaVuSans-68" x="241.162109"/>
     </g>
    </g>
   </g>
   <g id="matplotlib.axis_2">
    <g id="ytick_1">
     <g id="line2d_7">
      <defs>
       <path id="maa9cd0db1c" d="M 0 0 
L -3.5 0 
" style="stroke: #000000; stroke-width: 0.8"/>
      </defs>
      <g>
       <use xlink:href="#maa9cd0db1c" x="57.6" y="295.938773" style="stroke: #000000; stroke-width: 0.8"/>
      </g>
     </g>
     <g id="text_8">
      <!-- 0 -->
      <g transform="translate(44.2375 299.737992) scale(0.1 -0.1)">
       <use xlink:href="#DejaVuSans-30"/>
      </g>
     </g>
    </g>
    <g id="ytick_2">
     <g id="line2d_8">
      <g>
       <use xlink:href="#maa9cd0db1c" x="57.6" y="257.165108" style="stroke: #000000; stroke-width: 0.8"/>
      </g>
     </g>
     <g id="text_9">
      <!-- 5 -->
      <g transform="translate(44.2375 260.964327) scale(0.1 -0.1)">
       <use xlink:href="#DejaVuSans-35"/>
      </g>
     </g>
    </g>
    <g id="ytick_3">
     <g id="line2d_9">
      <g>
       <use xlink:href="#maa9cd0db1c" x="57.6" y="218.391443" style="stroke: #000000; stroke-width: 0.8"/>
      </g>
     </g>
     <g id="text_10">
      <!-- 10 -->
      <g transform="translate(37.875 222.190661) scale(0.1 -0.1)">
       <use xlink:href="#DejaVuSans-31"/>
       <use xlink:href="#DejaVuSans-30" x="63.623047"/>
      </g>
     </g>
    </g>
    <g id="ytick_4">
     <g id="line2d_10">
      <g>
       <use xlink:href="#maa9cd0db1c" x="57.6" y="179.617777" style="stroke: #000000; stroke-width: 0.8"/>
      </g>
     </g>
     <g id="text_11">
      <!-- 15 -->
      <g transform="translate(37.875 183.416996) scale(0.1 -0.1)">
       <use xlink:href="#DejaVuSans-31"/>
       <use xlink:href="#DejaVuSans-35" x="63.623047"/>
      </g>
     </g>
    </g>
    <g id="ytick_5">
     <g id="line2d_11">
      <g>
       <use xlink:href="#maa9cd0db1c" x="57.6" y="140.844112" style="stroke: #000000; stroke-width: 0.8"/>
      </g>
     </g>
     <g id="text_12">
      <!-- 20 -->
      <g transform="translate(37.875 144.643331) scale(0.1 -0.1)">
       <use xlink:href="#DejaVuSans-32"/>
       <use xlink:href="#DejaVuSans-30" x="63.623047"/>
      </g>
     </g>
    </g>
    <g id="ytick_6">
     <g id="line2d_12">
      <g>
       <use xlink:href="#maa9cd0db1c" x="57.6" y="102.070447" style="stroke: #000000; stroke-width: 0.8"/>
      </g>
     </g>
     <g id="text_13">
      <!-- 25 -->
      <g transform="translate(37.875 105.869666) scale(0.1 -0.1)">
       <use xlink:href="#DejaVuSans-32"/>
       <use xlink:href="#DejaVuSans-35" x="63.623047"/>
      </g>
     </g>
    </g>
    <g id="ytick_7">
     <g id="line2d_13">
      <g>
       <use xlink:href="#maa9cd0db1c" x="57.6" y="63.296782" style="stroke: #000000; stroke-width: 0.8"/>
      </g>
     </g>
     <g id="text_14">
      <!-- 30 -->
      <g transform="translate(37.875 67.096) scale(0.1 -0.1)">
       <use xlink:href="#DejaVuSans-33"/>
       <use xlink:href="#DejaVuSans-30" x="63.623047"/>
      </g>
     </g>
    </g>
    <g id="text_15">
     <!-- loss -->
     <g transform="translate(31.795313 184.185812) rotate(-90) scale(0.1 -0.1)">
      <defs>
       <path id="DejaVuSans-6c" d="M 603 4863 
L 1178 4863 
L 1178 0 
L 603 0 
L 603 4863 
z
" transform="scale(0.015625)"/>
       <path id="DejaVuSans-73" d="M 2834 3397 
L 2834 2853 
Q 2591 2978 2328 3040 
Q 2066 3103 1784 3103 
Q 1356 3103 1142 2972 
Q 928 2841 928 2578 
Q 928 2378 1081 2264 
Q 1234 2150 1697 2047 
L 1894 2003 
Q 2506 1872 2764 1633 
Q 3022 1394 3022 966 
Q 3022 478 2636 193 
Q 2250 -91 1575 -91 
Q 1294 -91 989 -36 
Q 684 19 347 128 
L 347 722 
Q 666 556 975 473 
Q 1284 391 1588 391 
Q 1994 391 2212 530 
Q 2431 669 2431 922 
Q 2431 1156 2273 1281 
Q 2116 1406 1581 1522 
L 1381 1569 
Q 847 1681 609 1914 
Q 372 2147 372 2553 
Q 372 3047 722 3315 
Q 1072 3584 1716 3584 
Q 2034 3584 2315 3537 
Q 2597 3491 2834 3397 
z
" transform="scale(0.015625)"/>
      </defs>
      <use xlink:href="#DejaVuSans-6c"/>
      <use xlink:href="#DejaVuSans-6f" x="27.783203"/>
      <use xlink:href="#DejaVuSans-73" x="88.964844"/>
      <use xlink:href="#DejaVuSans-73" x="141.064453"/>
     </g>
    </g>
   </g>
   <g id="line2d_14">
    <path d="M 73.832727 281.895754 
L 74.287335 282.232101 
L 76.300595 283.269817 
L 77.274754 284.222539 
L 80.197229 287.313363 
L 81.366219 288.113396 
L 82.600153 288.684106 
L 84.158807 289.150499 
L 86.496787 289.597793 
L 90.393421 290.095449 
L 97.472306 290.73883 
L 106.044901 291.32219 
L 118.968736 291.903927 
L 144.166969 292.639425 
L 164.299577 293.102929 
L 167.286996 293.159891 
L 225.801448 293.912125 
L 235.543033 293.997893 
L 321.788529 294.847421 
L 340.232596 295.06891 
L 386.27782 295.42514 
L 398.487273 295.488 
L 398.487273 295.488 
" clip-path="url(#pf597afd206)" style="fill: none; stroke: #0000ff; stroke-width: 1.5; stroke-linecap: square"/>
   </g>
   <g id="line2d_15">
    <path d="M 73.832727 281.893728 
L 74.676998 282.582879 
L 75.391381 282.811071 
L 76.365539 283.191791 
L 77.664417 284.172763 
L 79.158127 285.460519 
L 80.457005 286.322037 
L 81.496107 286.729663 
L 82.665097 286.945836 
L 84.54847 286.969181 
L 87.21117 286.73843 
L 96.04354 285.334411 
L 96.692979 285.191383 
L 98.186689 284.852161 
L 98.446465 284.802899 
L 99.095904 284.638963 
L 100.19995 284.383993 
L 100.589613 284.267636 
L 100.849389 284.228622 
L 101.109164 284.143214 
L 101.36894 284.076084 
L 110.785805 281.242055 
L 111.045581 281.157111 
L 111.565132 280.979422 
L 113.643337 280.319695 
L 114.097944 280.149123 
L 114.487607 280.040266 
L 114.877271 279.89815 
L 115.137046 279.866464 
L 115.266934 279.792779 
L 115.851429 279.600384 
L 116.176149 279.494968 
L 116.565812 279.383712 
L 117.410083 279.106749 
L 123.839529 276.92479 
L 124.099304 276.851702 
L 124.35908 276.718563 
L 124.683799 276.636003 
L 125.138407 276.437388 
L 128.645377 275.186406 
L 129.03504 275.030513 
L 130.009199 274.711752 
L 130.268975 274.553801 
L 130.398862 274.526442 
L 140.335279 270.857826 
L 141.309437 270.506555 
L 141.439325 270.45146 
L 141.764044 270.338 
L 142.153708 270.181416 
L 142.413483 270.090736 
L 142.803147 269.917264 
L 143.387642 269.680989 
L 143.647417 269.559372 
L 144.166969 269.362988 
L 145.465847 268.772309 
L 145.595734 268.789034 
L 145.85551 268.641436 
L 146.245173 268.499537 
L 146.440005 268.383228 
L 147.803827 267.844519 
L 148.128546 267.68118 
L 148.258434 267.651049 
L 148.583154 267.52671 
L 149.102705 267.307135 
L 149.427424 267.16635 
L 149.882032 266.919385 
L 150.011919 266.93895 
L 150.336639 266.782578 
L 150.921134 266.577253 
L 151.18091 266.413909 
L 151.765405 266.218853 
L 151.895293 266.132753 
L 152.155068 266.054374 
L 152.414844 265.913114 
L 152.544731 265.870023 
L 152.804507 265.742439 
L 153.19417 265.587534 
L 154.363161 265.105802 
L 154.622936 265.023759 
L 154.947656 264.866331 
L 155.272375 264.77885 
L 155.532151 264.64684 
L 157.285636 263.964503 
L 157.610356 263.810995 
L 157.870131 263.730968 
L 158.259795 263.542971 
L 158.389682 263.497736 
L 158.714402 263.408994 
L 160.143168 262.803341 
L 160.662719 262.606587 
L 160.792607 262.53758 
L 161.052382 262.434265 
L 161.247214 262.373774 
L 161.442046 262.293477 
L 162.67598 261.732374 
L 162.805867 261.724797 
L 163.065643 261.597003 
L 171.50835 258.055684 
L 171.833069 257.898988 
L 172.027901 257.823739 
L 172.807228 257.501115 
L 173.261835 257.272823 
L 175.924535 256.092259 
L 176.054423 256.02655 
L 176.314198 255.941114 
L 178.262515 255.029923 
L 178.392403 254.983801 
L 179.106786 254.623167 
L 179.236674 254.585809 
L 180.600495 253.941595 
L 180.730383 253.92622 
L 180.990159 253.774069 
L 181.379822 253.626599 
L 181.639598 253.458389 
L 182.613756 253.071457 
L 182.873532 252.89425 
L 185.925895 251.461562 
L 186.055783 251.40164 
L 186.380502 251.252628 
L 186.640278 251.065552 
L 186.83511 251.000712 
L 187.289717 250.772302 
L 187.939156 250.489739 
L 195.277816 246.917866 
L 195.537592 246.745137 
L 196.251975 246.424431 
L 196.706582 246.183719 
L 222.034702 233.545859 
L 222.294478 233.39082 
L 222.554253 233.331715 
L 222.814029 233.112291 
L 223.008861 233.034971 
L 224.437626 232.303609 
L 225.087065 231.961981 
L 225.152009 232.007464 
L 225.411785 231.784164 
L 226.385943 231.350692 
L 226.645719 231.197458 
L 227.879653 230.568464 
L 228.074485 230.466739 
L 228.399204 230.301857 
L 230.022802 229.480477 
L 230.412465 229.286944 
L 230.737185 229.114637 
L 230.99696 229.012749 
L 231.32168 228.801304 
L 232.750445 228.106506 
L 232.945277 228.00041 
L 233.205053 227.823709 
L 248.726644 219.933609 
L 248.921476 219.802332 
L 249.311139 219.594008 
L 249.830691 219.346733 
L 250.025522 219.215515 
L 250.350242 219.081279 
L 250.804849 218.809798 
L 251.064625 218.723101 
L 251.3244 218.525774 
L 251.584176 218.423406 
L 252.81811 217.795285 
L 253.207773 217.556033 
L 253.66238 217.353057 
L 253.922156 217.16709 
L 254.052044 217.121112 
L 254.246876 217.024956 
L 256.454968 215.928782 
L 256.6498 215.79706 
L 256.974519 215.643382 
L 257.234295 215.476377 
L 257.948678 215.153135 
L 258.143509 215.020046 
L 258.922836 214.59306 
L 258.98778 214.617776 
L 259.182612 214.50177 
L 259.637219 214.216038 
L 260.416546 213.805773 
L 261.260817 213.368811 
L 261.455648 213.244699 
L 266.716104 210.407967 
L 266.910936 210.255272 
L 267.300599 210.051312 
L 267.885094 209.72841 
L 268.534533 209.366142 
L 268.794309 209.249604 
L 269.054084 209.052108 
L 269.183972 209.009657 
L 269.378804 208.849656 
L 269.443748 208.92336 
L 269.703523 208.692021 
L 270.223074 208.440715 
L 271.262177 207.847153 
L 271.327121 207.884256 
L 271.586896 207.659692 
L 271.716784 207.634525 
L 271.97656 207.463098 
L 272.171391 207.36845 
L 283.991181 200.979413 
L 284.056125 201.078357 
L 284.186012 200.901827 
L 284.250956 200.957086 
L 284.3159 200.797994 
L 284.380844 200.856611 
L 285.030283 200.468532 
L 285.095227 200.503861 
L 285.290059 200.357452 
L 286.394105 199.714377 
L 286.459049 199.802975 
L 286.588937 199.640371 
L 286.653881 199.671166 
L 286.783768 199.549465 
L 286.848712 199.571053 
L 287.043544 199.421205 
L 288.212534 198.785556 
L 288.277478 198.836363 
L 288.537254 198.616162 
L 288.861973 198.496459 
L 289.056805 198.356033 
L 289.511412 198.132711 
L 289.706244 198.101576 
L 289.966019 197.877434 
L 291.199953 197.189254 
L 291.329841 197.169197 
L 292.239056 196.721563 
L 292.304 196.607022 
L 292.368944 196.649701 
L 293.018383 196.306484 
L 293.083326 196.323915 
L 293.213214 196.231915 
L 293.47299 196.130686 
L 293.732765 195.993344 
L 293.797709 196.005199 
L 293.992541 195.880962 
L 294.252317 195.769031 
L 294.317261 195.810025 
L 294.512092 195.652871 
L 294.64198 195.666382 
L 294.836812 195.500627 
L 295.291419 195.333193 
L 295.486251 195.17334 
L 296.265577 194.751294 
L 296.525353 194.550403 
L 296.720185 194.467063 
L 296.97996 194.228152 
L 297.044904 194.2511 
L 297.30468 194.007589 
L 297.369624 194.020043 
L 297.629399 193.771354 
L 297.694343 193.800825 
L 297.954119 193.554001 
L 298.019063 193.576513 
L 298.278838 193.338763 
L 298.343782 193.361067 
L 298.603558 193.131038 
L 298.668502 193.15886 
L 298.928277 192.914764 
L 298.993221 192.951816 
L 299.252997 192.704429 
L 299.317941 192.741924 
L 299.577716 192.507362 
L 299.64266 192.533867 
L 299.902436 192.308201 
L 299.96738 192.345534 
L 300.162211 192.198667 
L 300.357043 192.024628 
L 300.616819 191.948211 
L 300.876594 191.700736 
L 300.941538 191.743792 
L 301.201314 191.517009 
L 301.331202 191.506641 
L 301.526033 191.32094 
L 302.954799 190.528935 
L 303.214575 190.378259 
L 303.604238 190.184209 
L 303.864014 190.000705 
L 304.058845 189.938346 
L 304.253677 189.753022 
L 304.383565 189.767348 
L 304.578396 189.606658 
L 305.033004 189.354982 
L 305.487611 189.148789 
L 305.747387 188.953533 
L 305.877274 188.900315 
L 307.241096 188.134187 
L 307.30604 188.190045 
L 307.370984 187.981389 
L 307.435928 188.107363 
L 307.565816 187.908314 
L 307.63076 188.032795 
L 307.695704 187.801582 
L 307.760647 187.866219 
L 307.825591 187.838929 
L 308.020423 187.639295 
L 308.150311 187.611096 
L 309.449189 186.783548 
L 309.514133 186.917555 
L 309.579077 186.70864 
L 309.64402 186.737881 
L 309.708964 186.757413 
L 309.773908 186.59966 
L 309.838852 186.695816 
L 309.96874 186.495612 
L 310.033684 186.603424 
L 310.163572 186.41566 
L 310.228516 186.472435 
L 310.293459 186.290336 
L 310.358403 186.354603 
L 311.007842 185.881728 
L 311.072786 185.971265 
L 311.202674 185.827955 
L 311.46245 185.67174 
L 311.722225 185.521663 
L 311.787169 185.532172 
L 311.917057 185.413726 
L 312.63144 184.991777 
L 312.826271 184.843379 
L 313.086047 184.697266 
L 313.345823 184.565656 
L 313.605598 184.390649 
L 313.80043 184.224746 
L 314.449869 183.891372 
L 314.774588 183.649961 
L 314.839532 183.670661 
L 315.099308 183.425789 
L 315.229196 183.399232 
L 315.618859 183.092149 
L 315.683803 183.16728 
L 315.813691 182.995224 
L 315.878635 183.06591 
L 315.943579 182.873302 
L 316.008522 182.9665 
L 316.268298 182.714742 
L 316.528074 182.606354 
L 317.047625 182.200489 
L 317.112569 182.257997 
L 317.437288 181.979823 
L 317.502232 182.012489 
L 317.762008 181.800889 
L 318.086727 181.605663 
L 318.411447 181.380611 
L 318.541334 181.303032 
L 319.12583 180.927363 
L 319.255717 180.851804 
L 320.684483 179.951129 
L 320.749427 179.965802 
L 321.009203 179.726336 
L 321.268978 179.622015 
L 323.606958 178.315572 
L 323.671902 178.313805 
L 323.866734 178.17227 
L 324.12651 178.029981 
L 324.191454 178.05494 
L 324.256397 177.924099 
L 324.321341 177.960174 
L 324.516173 177.900988 
L 324.711005 177.721589 
L 324.97078 177.459337 
L 325.100668 177.446573 
L 325.2955 177.296141 
L 325.555275 177.036293 
L 325.685163 177.031405 
L 325.879995 176.847013 
L 326.13977 176.668715 
L 326.204714 176.696847 
L 326.269658 176.520798 
L 326.334602 176.574533 
L 327.178873 175.996613 
L 327.373705 175.815815 
L 328.867414 174.895853 
L 329.12719 174.657519 
L 329.257078 174.617258 
L 329.516853 174.421203 
L 329.776629 174.273478 
L 330.231236 173.920884 
L 330.29618 174.003846 
L 330.426068 173.808169 
L 330.491012 173.857393 
L 330.685843 173.688199 
L 330.945619 173.45712 
L 331.075507 173.406002 
L 331.660002 173.040443 
L 331.919777 172.848649 
L 332.114609 172.747966 
L 332.374385 172.500964 
L 332.504272 172.50183 
L 332.893936 172.219182 
L 333.283599 171.980152 
L 333.543375 171.791678 
L 333.673263 171.679976 
L 336.660682 169.69979 
L 336.725626 169.762873 
L 336.855514 169.582438 
L 336.920458 169.634458 
L 337.050345 169.483412 
L 337.310121 169.348178 
L 337.375065 169.208108 
L 337.440009 169.244656 
L 337.699784 169.039106 
L 337.95956 168.851142 
L 338.024504 168.892675 
L 338.154392 168.747472 
L 338.414167 168.615729 
L 338.673943 168.379887 
L 338.933718 168.230439 
L 361.534195 153.264734 
L 361.858914 153.011926 
L 361.988802 152.905017 
L 362.768129 152.33444 
L 363.222736 152.040307 
L 363.482512 151.809834 
L 363.807231 151.625346 
L 364.131951 151.336448 
L 364.261839 151.28928 
L 364.521614 151.069752 
L 364.651502 151.007334 
L 365.300941 150.499072 
L 365.560717 150.364533 
L 366.404987 149.760396 
L 367.509033 149.010286 
L 367.963641 148.659666 
L 368.093529 148.587885 
L 368.61308 148.253121 
L 368.937799 147.970066 
L 369.067687 147.902619 
L 370.95106 146.611159 
L 371.210836 146.481561 
L 371.730387 146.070653 
L 371.990162 145.919311 
L 372.314882 145.654301 
L 372.899377 145.270682 
L 373.808592 144.613845 
L 374.263199 144.349426 
L 374.717806 144.014337 
L 384.589279 137.171438 
L 384.849054 136.985944 
L 385.043886 136.886031 
L 385.693325 136.403002 
L 388.161193 134.726903 
L 388.875576 134.244037 
L 389.589959 133.765135 
L 389.849734 133.545784 
L 389.979622 133.486369 
L 390.564117 133.139535 
L 390.823893 132.895913 
L 390.953781 132.82428 
L 392.44749 131.815536 
L 393.096929 131.376125 
L 395.629741 129.635064 
L 396.409068 129.125692 
L 396.668844 128.936442 
L 396.993563 128.734722 
L 398.487273 127.670378 
L 398.487273 127.670378 
" clip-path="url(#pf597afd206)" style="fill: none; stroke: #008000; stroke-width: 1.5; stroke-linecap: square"/>
   </g>
   <g id="line2d_16">
    <path d="M 73.832727 281.939006 
L 74.287335 282.247843 
L 75.196549 282.560312 
L 76.690259 283.202032 
L 79.158127 284.714072 
L 80.197229 285.058499 
L 81.301276 285.164024 
L 82.53521 285.057757 
L 85.392741 284.49315 
L 88.574992 283.851579 
L 90.003758 283.558343 
L 95.264214 282.32434 
L 97.926913 281.380583 
L 98.641296 281.091826 
L 99.290735 280.840435 
L 106.564452 277.677307 
L 115.137046 273.491582 
L 115.396822 273.33102 
L 116.046261 272.975395 
L 116.435924 272.780341 
L 117.150307 272.443106 
L 118.18941 271.929181 
L 118.708961 271.683096 
L 119.098624 271.468251 
L 119.748063 271.15146 
L 125.593014 267.977499 
L 125.852789 267.859265 
L 127.995938 266.692564 
L 129.099984 266.075523 
L 129.814367 265.700914 
L 131.437965 264.783017 
L 131.69774 264.68354 
L 131.957516 264.478811 
L 132.282235 264.321494 
L 134.555272 263.043139 
L 134.68516 263.014889 
L 135.009879 262.836199 
L 136.048981 262.250347 
L 136.69842 261.872274 
L 137.282915 261.565583 
L 137.737523 261.28654 
L 137.932354 261.195021 
L 138.451906 260.902596 
L 139.750784 260.163025 
L 139.880671 260.116267 
L 140.400223 259.799888 
L 140.659998 259.692831 
L 141.309437 259.310795 
L 141.569213 259.182498 
L 142.933035 258.394763 
L 143.452586 258.058158 
L 143.712361 257.935489 
L 154.68788 251.562248 
L 154.882712 251.468946 
L 155.402263 251.172591 
L 155.662039 251.035815 
L 155.921814 250.88765 
L 157.02586 250.290068 
L 157.610356 249.92793 
L 157.870131 249.812224 
L 158.259795 249.572662 
L 158.51957 249.43596 
L 159.104065 249.100929 
L 159.818448 248.733643 
L 160.143168 248.527401 
L 160.662719 248.25145 
L 160.922494 248.06447 
L 161.247214 247.92985 
L 161.571933 247.7287 
L 175.924535 239.344633 
L 176.119366 239.248765 
L 177.223413 238.553552 
L 179.756225 236.863531 
L 179.886112 236.810583 
L 180.145888 236.623429 
L 181.574654 235.663712 
L 181.834429 235.461172 
L 182.353981 235.065447 
L 182.483868 234.995915 
L 183.198251 234.516798 
L 183.717802 234.094271 
L 184.107466 233.814774 
L 184.562073 233.452173 
L 184.691961 233.389999 
L 185.146568 233.035555 
L 192.355341 227.368635 
L 192.615116 227.221118 
L 192.939836 226.941997 
L 193.654219 226.428846 
L 194.043882 226.136325 
L 194.953097 225.479458 
L 195.732424 224.912593 
L 196.122087 224.622868 
L 196.966358 223.984075 
L 198.589955 222.737824 
L 198.654899 222.74448 
L 198.979618 222.422842 
L 199.239394 222.253427 
L 199.694001 221.926864 
L 200.018721 221.638994 
L 200.34344 221.410903 
L 201.707262 220.355707 
L 202.226813 219.954139 
L 202.486589 219.725345 
L 202.616477 219.693833 
L 202.941196 219.415504 
L 203.525691 218.955393 
L 204.045243 218.52874 
L 208.33154 215.32582 
L 208.591315 215.14003 
L 208.980979 214.854402 
L 209.630418 214.371158 
L 211.448847 213.029269 
L 211.83851 212.7778 
L 212.228174 212.446223 
L 212.358061 212.399521 
L 212.747725 212.078194 
L 212.942557 211.947368 
L 214.241434 211.009368 
L 214.50121 210.856533 
L 214.760986 210.590222 
L 215.929976 209.77671 
L 216.83919 209.089366 
L 216.969078 209.043839 
L 217.423685 208.682843 
L 231.191792 198.303976 
L 231.386624 198.112781 
L 232.750445 197.084201 
L 233.010221 196.846924 
L 233.33494 196.661771 
L 233.529772 196.469503 
L 234.503931 195.699159 
L 234.82865 195.468368 
L 238.140789 192.888954 
L 238.465508 192.65877 
L 238.725284 192.423105 
L 239.050003 192.192159 
L 239.699442 191.65921 
L 240.024162 191.431525 
L 240.283938 191.176639 
L 240.413825 191.099527 
L 241.387984 190.335565 
L 241.907535 189.917868 
L 242.751806 189.235005 
L 243.011581 189.081261 
L 243.531132 188.633101 
L 243.66102 188.548208 
L 244.894954 187.579688 
L 245.349562 187.163403 
L 245.479449 187.091637 
L 247.622598 185.371801 
L 247.752486 185.343794 
L 248.077205 185.02871 
L 248.142149 185.033021 
L 248.336981 184.863783 
L 248.791588 184.431635 
L 248.856532 184.48591 
L 249.116308 184.225441 
L 249.441027 184.02682 
L 249.635859 183.829191 
L 250.220354 183.343344 
L 250.674961 183.023585 
L 250.999681 182.73738 
L 251.259456 182.570501 
L 251.519232 182.336685 
L 256.195192 178.608929 
L 256.260136 178.649907 
L 256.519912 178.340606 
L 256.6498 178.267102 
L 257.688902 177.473381 
L 257.948678 177.293856 
L 258.208453 177.05788 
L 258.663061 176.735822 
L 259.052724 176.38265 
L 259.247556 176.253022 
L 259.767107 175.838815 
L 260.15677 175.541605 
L 260.416546 175.322913 
L 261.520592 174.444802 
L 262.040143 173.998647 
L 262.105087 174.00909 
L 262.364863 173.704092 
L 262.494751 173.612359 
L 263.274077 173.036124 
L 263.663741 172.70704 
L 263.98846 172.457952 
L 264.443068 172.074393 
L 264.832731 171.76288 
L 276.587576 162.267811 
L 276.65252 162.314683 
L 276.912296 161.99295 
L 277.366903 161.685046 
L 277.626679 161.467012 
L 277.886454 161.287583 
L 278.14623 161.013669 
L 278.276118 160.958439 
L 278.730725 160.551436 
L 278.860613 160.469257 
L 279.31522 160.064369 
L 279.380164 160.083774 
L 279.63994 159.798856 
L 279.704884 159.825494 
L 279.964659 159.564345 
L 280.289379 159.324361 
L 281.718144 158.136365 
L 281.783088 158.130389 
L 281.97792 157.92336 
L 288.926917 152.286917 
L 288.991861 152.34895 
L 289.186693 152.189814 
L 289.446468 151.939625 
L 291.13501 150.763135 
L 291.329841 150.617681 
L 291.849392 150.276335 
L 292.109168 150.051586 
L 292.239056 150.010053 
L 292.498831 149.781295 
L 292.628719 149.720549 
L 293.797709 149.101088 
L 293.992541 148.947173 
L 294.382204 148.675877 
L 294.447148 148.766797 
L 294.64198 148.620189 
L 294.836812 148.401341 
L 295.096587 148.263386 
L 295.940858 147.500009 
L 296.200634 147.215933 
L 296.590297 146.888032 
L 296.850073 146.59625 
L 297.044904 146.454567 
L 297.30468 146.125483 
L 297.369624 146.120498 
L 297.629399 145.786592 
L 297.694343 145.795777 
L 297.954119 145.459549 
L 298.019063 145.466338 
L 298.278838 145.138141 
L 298.343782 145.140226 
L 298.603558 144.813937 
L 298.668502 144.823122 
L 298.928277 144.486095 
L 298.993221 144.503889 
L 299.252997 144.161581 
L 299.317941 144.181416 
L 299.577716 143.854772 
L 299.64266 143.865051 
L 299.902436 143.546454 
L 299.96738 143.563315 
L 300.227155 143.227235 
L 300.292099 143.25303 
L 300.551875 142.92257 
L 300.616819 142.950303 
L 300.876594 142.622609 
L 300.941538 142.646851 
L 301.201314 142.348236 
L 301.331202 142.287756 
L 301.526033 142.043853 
L 302.240416 141.45279 
L 302.630079 141.068876 
L 302.824911 140.923569 
L 303.604238 140.305306 
L 303.864014 140.060782 
L 304.058845 139.958473 
L 304.253677 139.730159 
L 304.383565 139.706183 
L 304.578396 139.499346 
L 306.916377 137.795765 
L 306.981321 137.790559 
L 307.176152 137.56686 
L 308.669862 136.448159 
L 308.864694 136.240006 
L 309.449189 135.738015 
L 309.514133 135.875201 
L 309.579077 135.637673 
L 309.64402 135.665701 
L 309.708964 135.641459 
L 309.773908 135.465165 
L 309.838852 135.566631 
L 309.96874 135.356688 
L 310.033684 135.439266 
L 310.163572 135.231527 
L 310.228516 135.248285 
L 310.423347 135.050101 
L 310.683123 134.84674 
L 310.748067 134.838279 
L 310.942898 134.644976 
L 311.202674 134.461376 
L 311.592337 134.187491 
L 311.917057 133.91019 
L 315.29414 131.163727 
L 315.359083 131.192761 
L 315.618859 130.878142 
L 315.683803 130.922929 
L 315.813691 130.727644 
L 315.878635 130.775434 
L 316.073466 130.542772 
L 316.46313 130.215092 
L 316.657961 130.081929 
L 317.047625 129.703472 
L 317.112569 129.74431 
L 317.437288 129.384342 
L 317.567176 129.289473 
L 317.891895 129.01936 
L 318.281559 128.715139 
L 318.995942 128.110543 
L 319.580437 127.660942 
L 319.840212 127.325763 
L 319.905156 127.410619 
L 320.099988 127.200839 
L 320.359764 126.95624 
L 320.619539 126.77755 
L 321.009203 126.363684 
L 321.593698 125.9585 
L 321.853473 125.706003 
L 322.178193 125.453506 
L 323.282239 124.571949 
L 323.606958 124.437544 
L 323.671902 124.445471 
L 323.931678 124.179323 
L 323.996622 124.217128 
L 324.12651 124.058776 
L 324.191454 124.071955 
L 324.321341 123.987765 
L 324.711005 123.699518 
L 324.97078 123.443826 
L 325.100668 123.398359 
L 325.425388 123.074407 
L 325.879995 122.670302 
L 326.13977 122.422879 
L 326.204714 122.431044 
L 326.399546 122.243035 
L 326.659322 121.928579 
L 326.984041 121.688107 
L 327.243817 121.37198 
L 327.308761 121.435049 
L 327.568536 121.150086 
L 327.828312 120.919272 
L 328.80247 120.036443 
L 328.997302 119.876109 
L 329.581797 119.350615 
L 333.868094 115.485688 
L 334.12787 115.247405 
L 334.322702 115.079971 
L 334.842253 114.60243 
L 340.167652 109.863311 
L 340.427428 109.575804 
L 340.946979 109.163639 
L 341.076867 108.987049 
L 341.531474 108.563997 
L 341.79125 108.323067 
L 342.115969 108.042675 
L 342.375745 107.789276 
L 342.505633 107.698341 
L 343.155072 107.10892 
L 343.934399 106.437069 
L 344.259118 106.068034 
L 344.648781 105.733418 
L 345.168333 105.229489 
L 345.29822 105.142859 
L 345.557996 104.876799 
L 345.62294 104.896204 
L 345.947659 104.529832 
L 346.012603 104.561529 
L 346.272379 104.246348 
L 348.870135 101.89226 
L 348.935079 101.909802 
L 349.194854 101.526997 
L 349.324742 101.457819 
L 349.584518 101.181036 
L 350.298901 100.551561 
L 350.62362 100.249145 
L 350.818452 100.057454 
L 351.013283 99.885937 
L 351.922498 99.039479 
L 351.987442 99.030886 
L 352.247217 98.717997 
L 352.377105 98.633778 
L 352.636881 98.362289 
L 352.9616 98.119318 
L 353.221376 97.827802 
L 353.351264 97.749558 
L 353.611039 97.450011 
L 355.689244 95.569249 
L 355.94902 95.276447 
L 356.403627 94.939553 
L 356.663402 94.634814 
L 357.247898 94.090003 
L 358.546776 92.854069 
L 358.871495 92.543311 
L 360.9497 90.508072 
L 361.858914 89.638495 
L 362.443409 89.067283 
L 369.522294 82.230197 
L 369.78207 82.015254 
L 370.106789 81.6607 
L 370.496453 81.260766 
L 392.967041 59.16788 
L 393.356705 58.812157 
L 394.915358 57.271883 
L 395.305022 56.81675 
L 395.694685 56.436134 
L 398.162553 53.910071 
L 398.357385 53.744663 
L 398.487273 53.568 
L 398.487273 53.568 
" clip-path="url(#pf597afd206)" style="fill: none; stroke: #ff0000; stroke-width: 1.5; stroke-linecap: square"/>
   </g>
   <g id="patch_3">
    <path d="M 57.6 307.584 
L 57.6 41.472 
" style="fill: none; stroke: #000000; stroke-width: 0.8; stroke-linejoin: miter; stroke-linecap: square"/>
   </g>
   <g id="patch_4">
    <path d="M 414.72 307.584 
L 414.72 41.472 
" style="fill: none; stroke: #000000; stroke-width: 0.8; stroke-linejoin: miter; stroke-linecap: square"/>
   </g>
   <g id="patch_5">
    <path d="M 57.6 307.584 
L 414.72 307.584 
" style="fill: none; stroke: #000000; stroke-width: 0.8; stroke-linejoin: miter; stroke-linecap: square"/>
   </g>
   <g id="patch_6">
    <path d="M 57.6 41.472 
L 414.72 41.472 
" style="fill: none; stroke: #000000; stroke-width: 0.8; stroke-linejoin: miter; stroke-linecap: square"/>
   </g>
   <g id="text_16">
    <!-- Script19_loss -->
    <g transform="translate(196.532813 35.472) scale(0.12 -0.12)">
     <defs>
      <path id="DejaVuSans-53" d="M 3425 4513 
L 3425 3897 
Q 3066 4069 2747 4153 
Q 2428 4238 2131 4238 
Q 1616 4238 1336 4038 
Q 1056 3838 1056 3469 
Q 1056 3159 1242 3001 
Q 1428 2844 1947 2747 
L 2328 2669 
Q 3034 2534 3370 2195 
Q 3706 1856 3706 1288 
Q 3706 609 3251 259 
Q 2797 -91 1919 -91 
Q 1588 -91 1214 -16 
Q 841 59 441 206 
L 441 856 
Q 825 641 1194 531 
Q 1563 422 1919 422 
Q 2459 422 2753 634 
Q 3047 847 3047 1241 
Q 3047 1584 2836 1778 
Q 2625 1972 2144 2069 
L 1759 2144 
Q 1053 2284 737 2584 
Q 422 2884 422 3419 
Q 422 4038 858 4394 
Q 1294 4750 2059 4750 
Q 2388 4750 2728 4690 
Q 3069 4631 3425 4513 
z
" transform="scale(0.015625)"/>
      <path id="DejaVuSans-72" d="M 2631 2963 
Q 2534 3019 2420 3045 
Q 2306 3072 2169 3072 
Q 1681 3072 1420 2755 
Q 1159 2438 1159 1844 
L 1159 0 
L 581 0 
L 581 3500 
L 1159 3500 
L 1159 2956 
Q 1341 3275 1631 3429 
Q 1922 3584 2338 3584 
Q 2397 3584 2469 3576 
Q 2541 3569 2628 3553 
L 2631 2963 
z
" transform="scale(0.015625)"/>
      <path id="DejaVuSans-69" d="M 603 3500 
L 1178 3500 
L 1178 0 
L 603 0 
L 603 3500 
z
M 603 4863 
L 1178 4863 
L 1178 4134 
L 603 4134 
L 603 4863 
z
" transform="scale(0.015625)"/>
      <path id="DejaVuSans-74" d="M 1172 4494 
L 1172 3500 
L 2356 3500 
L 2356 3053 
L 1172 3053 
L 1172 1153 
Q 1172 725 1289 603 
Q 1406 481 1766 481 
L 2356 481 
L 2356 0 
L 1766 0 
Q 1100 0 847 248 
Q 594 497 594 1153 
L 594 3053 
L 172 3053 
L 172 3500 
L 594 3500 
L 594 4494 
L 1172 4494 
z
" transform="scale(0.015625)"/>
      <path id="DejaVuSans-39" d="M 703 97 
L 703 672 
Q 941 559 1184 500 
Q 1428 441 1663 441 
Q 2288 441 2617 861 
Q 2947 1281 2994 2138 
Q 2813 1869 2534 1725 
Q 2256 1581 1919 1581 
Q 1219 1581 811 2004 
Q 403 2428 403 3163 
Q 403 3881 828 4315 
Q 1253 4750 1959 4750 
Q 2769 4750 3195 4129 
Q 3622 3509 3622 2328 
Q 3622 1225 3098 567 
Q 2575 -91 1691 -91 
Q 1453 -91 1209 -44 
Q 966 3 703 97 
z
M 1959 2075 
Q 2384 2075 2632 2365 
Q 2881 2656 2881 3163 
Q 2881 3666 2632 3958 
Q 2384 4250 1959 4250 
Q 1534 4250 1286 3958 
Q 1038 3666 1038 3163 
Q 1038 2656 1286 2365 
Q 1534 2075 1959 2075 
z
" transform="scale(0.015625)"/>
      <path id="DejaVuSans-5f" d="M 3263 -1063 
L 3263 -1509 
L -63 -1509 
L -63 -1063 
L 3263 -1063 
z
" transform="scale(0.015625)"/>
     </defs>
     <use xlink:href="#DejaVuSans-53"/>
     <use xlink:href="#DejaVuSans-63" x="63.476562"/>
     <use xlink:href="#DejaVuSans-72" x="118.457031"/>
     <use xlink:href="#DejaVuSans-69" x="159.570312"/>
     <use xlink:href="#DejaVuSans-70" x="187.353516"/>
     <use xlink:href="#DejaVuSans-74" x="250.830078"/>
     <use xlink:href="#DejaVuSans-31" x="290.039062"/>
     <use xlink:href="#DejaVuSans-39" x="353.662109"/>
     <use xlink:href="#DejaVuSans-5f" x="417.285156"/>
     <use xlink:href="#DejaVuSans-6c" x="467.285156"/>
     <use xlink:href="#DejaVuSans-6f" x="495.068359"/>
     <use xlink:href="#DejaVuSans-73" x="556.25"/>
     <use xlink:href="#DejaVuSans-73" x="608.349609"/>
    </g>
   </g>
   <g id="legend_1">
    <g id="patch_7">
     <path d="M 64.6 93.506375 
L 164.295312 93.506375 
Q 166.295312 93.506375 166.295312 91.506375 
L 166.295312 48.472 
Q 166.295312 46.472 164.295312 46.472 
L 64.6 46.472 
Q 62.6 46.472 62.6 48.472 
L 62.6 91.506375 
Q 62.6 93.506375 64.6 93.506375 
z
" style="fill: #ffffff; opacity: 0.8; stroke: #cccccc; stroke-linejoin: miter"/>
    </g>
    <g id="line2d_17">
     <path d="M 66.6 54.570438 
L 76.6 54.570438 
L 86.6 54.570438 
" style="fill: none; stroke: #0000ff; stroke-width: 1.5; stroke-linecap: square"/>
    </g>
    <g id="text_17">
     <!-- training set -->
     <g transform="translate(94.6 58.070438) scale(0.1 -0.1)">
      <defs>
       <path id="DejaVuSans-61" d="M 2194 1759 
Q 1497 1759 1228 1600 
Q 959 1441 959 1056 
Q 959 750 1161 570 
Q 1363 391 1709 391 
Q 2188 391 2477 730 
Q 2766 1069 2766 1631 
L 2766 1759 
L 2194 1759 
z
M 3341 1997 
L 3341 0 
L 2766 0 
L 2766 531 
Q 2569 213 2275 61 
Q 1981 -91 1556 -91 
Q 1019 -91 701 211 
Q 384 513 384 1019 
Q 384 1609 779 1909 
Q 1175 2209 1959 2209 
L 2766 2209 
L 2766 2266 
Q 2766 2663 2505 2880 
Q 2244 3097 1772 3097 
Q 1472 3097 1187 3025 
Q 903 2953 641 2809 
L 641 3341 
Q 956 3463 1253 3523 
Q 1550 3584 1831 3584 
Q 2591 3584 2966 3190 
Q 3341 2797 3341 1997 
z
" transform="scale(0.015625)"/>
       <path id="DejaVuSans-6e" d="M 3513 2113 
L 3513 0 
L 2938 0 
L 2938 2094 
Q 2938 2591 2744 2837 
Q 2550 3084 2163 3084 
Q 1697 3084 1428 2787 
Q 1159 2491 1159 1978 
L 1159 0 
L 581 0 
L 581 3500 
L 1159 3500 
L 1159 2956 
Q 1366 3272 1645 3428 
Q 1925 3584 2291 3584 
Q 2894 3584 3203 3211 
Q 3513 2838 3513 2113 
z
" transform="scale(0.015625)"/>
       <path id="DejaVuSans-67" d="M 2906 1791 
Q 2906 2416 2648 2759 
Q 2391 3103 1925 3103 
Q 1463 3103 1205 2759 
Q 947 2416 947 1791 
Q 947 1169 1205 825 
Q 1463 481 1925 481 
Q 2391 481 2648 825 
Q 2906 1169 2906 1791 
z
M 3481 434 
Q 3481 -459 3084 -895 
Q 2688 -1331 1869 -1331 
Q 1566 -1331 1297 -1286 
Q 1028 -1241 775 -1147 
L 775 -588 
Q 1028 -725 1275 -790 
Q 1522 -856 1778 -856 
Q 2344 -856 2625 -561 
Q 2906 -266 2906 331 
L 2906 616 
Q 2728 306 2450 153 
Q 2172 0 1784 0 
Q 1141 0 747 490 
Q 353 981 353 1791 
Q 353 2603 747 3093 
Q 1141 3584 1784 3584 
Q 2172 3584 2450 3431 
Q 2728 3278 2906 2969 
L 2906 3500 
L 3481 3500 
L 3481 434 
z
" transform="scale(0.015625)"/>
       <path id="DejaVuSans-20" transform="scale(0.015625)"/>
      </defs>
      <use xlink:href="#DejaVuSans-74"/>
      <use xlink:href="#DejaVuSans-72" x="39.208984"/>
      <use xlink:href="#DejaVuSans-61" x="80.322266"/>
      <use xlink:href="#DejaVuSans-69" x="141.601562"/>
      <use xlink:href="#DejaVuSans-6e" x="169.384766"/>
      <use xlink:href="#DejaVuSans-69" x="232.763672"/>
      <use xlink:href="#DejaVuSans-6e" x="260.546875"/>
      <use xlink:href="#DejaVuSans-67" x="323.925781"/>
      <use xlink:href="#DejaVuSans-20" x="387.402344"/>
      <use xlink:href="#DejaVuSans-73" x="419.189453"/>
      <use xlink:href="#DejaVuSans-65" x="471.289062"/>
      <use xlink:href="#DejaVuSans-74" x="532.8125"/>
     </g>
    </g>
    <g id="line2d_18">
     <path d="M 66.6 69.248563 
L 76.6 69.248563 
L 86.6 69.248563 
" style="fill: none; stroke: #008000; stroke-width: 1.5; stroke-linecap: square"/>
    </g>
    <g id="text_18">
     <!-- validation set -->
     <g transform="translate(94.6 72.748563) scale(0.1 -0.1)">
      <defs>
       <path id="DejaVuSans-76" d="M 191 3500 
L 800 3500 
L 1894 563 
L 2988 3500 
L 3597 3500 
L 2284 0 
L 1503 0 
L 191 3500 
z
" transform="scale(0.015625)"/>
       <path id="DejaVuSans-64" d="M 2906 2969 
L 2906 4863 
L 3481 4863 
L 3481 0 
L 2906 0 
L 2906 525 
Q 2725 213 2448 61 
Q 2172 -91 1784 -91 
Q 1150 -91 751 415 
Q 353 922 353 1747 
Q 353 2572 751 3078 
Q 1150 3584 1784 3584 
Q 2172 3584 2448 3432 
Q 2725 3281 2906 2969 
z
M 947 1747 
Q 947 1113 1208 752 
Q 1469 391 1925 391 
Q 2381 391 2643 752 
Q 2906 1113 2906 1747 
Q 2906 2381 2643 2742 
Q 2381 3103 1925 3103 
Q 1469 3103 1208 2742 
Q 947 2381 947 1747 
z
" transform="scale(0.015625)"/>
      </defs>
      <use xlink:href="#DejaVuSans-76"/>
      <use xlink:href="#DejaVuSans-61" x="59.179688"/>
      <use xlink:href="#DejaVuSans-6c" x="120.458984"/>
      <use xlink:href="#DejaVuSans-69" x="148.242188"/>
      <use xlink:href="#DejaVuSans-64" x="176.025391"/>
      <use xlink:href="#DejaVuSans-61" x="239.501953"/>
      <use xlink:href="#DejaVuSans-74" x="300.78125"/>
      <use xlink:href="#DejaVuSans-69" x="339.990234"/>
      <use xlink:href="#DejaVuSans-6f" x="367.773438"/>
      <use xlink:href="#DejaVuSans-6e" x="428.955078"/>
      <use xlink:href="#DejaVuSans-20" x="492.333984"/>
      <use xlink:href="#DejaVuSans-73" x="524.121094"/>
      <use xlink:href="#DejaVuSans-65" x="576.220703"/>
      <use xlink:href="#DejaVuSans-74" x="637.744141"/>
     </g>
    </g>
    <g id="line2d_19">
     <path d="M 66.6 83.926688 
L 76.6 83.926688 
L 86.6 83.926688 
" style="fill: none; stroke: #ff0000; stroke-width: 1.5; stroke-linecap: square"/>
    </g>
    <g id="text_19">
     <!-- test set -->
     <g transform="translate(94.6 87.426688) scale(0.1 -0.1)">
      <use xlink:href="#DejaVuSans-74"/>
      <use xlink:href="#DejaVuSans-65" x="39.208984"/>
      <use xlink:href="#DejaVuSans-73" x="100.732422"/>
      <use xlink:href="#DejaVuSans-74" x="152.832031"/>
      <use xlink:href="#DejaVuSans-20" x="192.041016"/>
      <use xlink:href="#DejaVuSans-73" x="223.828125"/>
      <use xlink:href="#DejaVuSans-65" x="275.927734"/>
      <use xlink:href="#DejaVuSans-74" x="337.451172"/>
     </g>
    </g>
   </g>
  </g>
 </g>
 <defs>
  <clipPath id="pf597afd206">
   <rect x="57.6" y="41.472" width="357.12" height="266.112"/>
  </clipPath>
 </defs>
</svg>
