<?xml version="1.0" encoding="utf-8" standalone="no"?>
<!DOCTYPE svg PUBLIC "-//W3C//DTD SVG 1.1//EN"
  "http://www.w3.org/Graphics/SVG/1.1/DTD/svg11.dtd">
<svg xmlns:xlink="http://www.w3.org/1999/xlink" width="460.8pt" height="345.6pt" viewBox="0 0 460.8 345.6" xmlns="http://www.w3.org/2000/svg" version="1.1">
 <metadata>
  <rdf:RDF xmlns:dc="http://purl.org/dc/elements/1.1/" xmlns:cc="http://creativecommons.org/ns#" xmlns:rdf="http://www.w3.org/1999/02/22-rdf-syntax-ns#">
   <cc:Work>
    <dc:type rdf:resource="http://purl.org/dc/dcmitype/StillImage"/>
    <dc:date>2023-06-14T03:59:08.575469</dc:date>
    <dc:format>image/svg+xml</dc:format>
    <dc:creator>
     <cc:Agent>
      <dc:title>Matplotlib v3.7.1, https://matplotlib.org/</dc:title>
     </cc:Agent>
    </dc:creator>
   </cc:Work>
  </rdf:RDF>
 </metadata>
 <defs>
  <style type="text/css">*{stroke-linejoin: round; stroke-linecap: butt}</style>
 </defs>
 <g id="figure_1">
  <g id="patch_1">
   <path d="M 0 345.6 
L 460.8 345.6 
L 460.8 0 
L 0 0 
z
" style="fill: #ffffff"/>
  </g>
  <g id="axes_1">
   <g id="patch_2">
    <path d="M 57.6 307.584 
L 414.72 307.584 
L 414.72 41.472 
L 57.6 41.472 
z
" style="fill: #ffffff"/>
   </g>
   <g id="matplotlib.axis_1">
    <g id="xtick_1">
     <g id="line2d_1">
      <defs>
       <path id="mb133489210" d="M 0 0 
L 0 3.5 
" style="stroke: #000000; stroke-width: 0.8"/>
      </defs>
      <g>
       <use xlink:href="#mb133489210" x="73.767783" y="307.584" style="stroke: #000000; stroke-width: 0.8"/>
      </g>
     </g>
     <g id="text_1">
      <!-- 0 -->
      <g transform="translate(70.586533 322.182437) scale(0.1 -0.1)">
       <defs>
        <path id="DejaVuSans-30" d="M 2034 4250 
Q 1547 4250 1301 3770 
Q 1056 3291 1056 2328 
Q 1056 1369 1301 889 
Q 1547 409 2034 409 
Q 2525 409 2770 889 
Q 3016 1369 3016 2328 
Q 3016 3291 2770 3770 
Q 2525 4250 2034 4250 
z
M 2034 4750 
Q 2819 4750 3233 4129 
Q 3647 3509 3647 2328 
Q 3647 1150 3233 529 
Q 2819 -91 2034 -91 
Q 1250 -91 836 529 
Q 422 1150 422 2328 
Q 422 3509 836 4129 
Q 1250 4750 2034 4750 
z
" transform="scale(0.015625)"/>
       </defs>
       <use xlink:href="#DejaVuSans-30"/>
      </g>
     </g>
    </g>
    <g id="xtick_2">
     <g id="line2d_2">
      <g>
       <use xlink:href="#mb133489210" x="138.711681" y="307.584" style="stroke: #000000; stroke-width: 0.8"/>
      </g>
     </g>
     <g id="text_2">
      <!-- 1000 -->
      <g transform="translate(125.986681 322.182437) scale(0.1 -0.1)">
       <defs>
        <path id="DejaVuSans-31" d="M 794 531 
L 1825 531 
L 1825 4091 
L 703 3866 
L 703 4441 
L 1819 4666 
L 2450 4666 
L 2450 531 
L 3481 531 
L 3481 0 
L 794 0 
L 794 531 
z
" transform="scale(0.015625)"/>
       </defs>
       <use xlink:href="#DejaVuSans-31"/>
       <use xlink:href="#DejaVuSans-30" x="63.623047"/>
       <use xlink:href="#DejaVuSans-30" x="127.246094"/>
       <use xlink:href="#DejaVuSans-30" x="190.869141"/>
      </g>
     </g>
    </g>
    <g id="xtick_3">
     <g id="line2d_3">
      <g>
       <use xlink:href="#mb133489210" x="203.655579" y="307.584" style="stroke: #000000; stroke-width: 0.8"/>
      </g>
     </g>
     <g id="text_3">
      <!-- 2000 -->
      <g transform="translate(190.930579 322.182437) scale(0.1 -0.1)">
       <defs>
        <path id="DejaVuSans-32" d="M 1228 531 
L 3431 531 
L 3431 0 
L 469 0 
L 469 531 
Q 828 903 1448 1529 
Q 2069 2156 2228 2338 
Q 2531 2678 2651 2914 
Q 2772 3150 2772 3378 
Q 2772 3750 2511 3984 
Q 2250 4219 1831 4219 
Q 1534 4219 1204 4116 
Q 875 4013 500 3803 
L 500 4441 
Q 881 4594 1212 4672 
Q 1544 4750 1819 4750 
Q 2544 4750 2975 4387 
Q 3406 4025 3406 3419 
Q 3406 3131 3298 2873 
Q 3191 2616 2906 2266 
Q 2828 2175 2409 1742 
Q 1991 1309 1228 531 
z
" transform="scale(0.015625)"/>
       </defs>
       <use xlink:href="#DejaVuSans-32"/>
       <use xlink:href="#DejaVuSans-30" x="63.623047"/>
       <use xlink:href="#DejaVuSans-30" x="127.246094"/>
       <use xlink:href="#DejaVuSans-30" x="190.869141"/>
      </g>
     </g>
    </g>
    <g id="xtick_4">
     <g id="line2d_4">
      <g>
       <use xlink:href="#mb133489210" x="268.599477" y="307.584" style="stroke: #000000; stroke-width: 0.8"/>
      </g>
     </g>
     <g id="text_4">
      <!-- 3000 -->
      <g transform="translate(255.874477 322.182437) scale(0.1 -0.1)">
       <defs>
        <path id="DejaVuSans-33" d="M 2597 2516 
Q 3050 2419 3304 2112 
Q 3559 1806 3559 1356 
Q 3559 666 3084 287 
Q 2609 -91 1734 -91 
Q 1441 -91 1130 -33 
Q 819 25 488 141 
L 488 750 
Q 750 597 1062 519 
Q 1375 441 1716 441 
Q 2309 441 2620 675 
Q 2931 909 2931 1356 
Q 2931 1769 2642 2001 
Q 2353 2234 1838 2234 
L 1294 2234 
L 1294 2753 
L 1863 2753 
Q 2328 2753 2575 2939 
Q 2822 3125 2822 3475 
Q 2822 3834 2567 4026 
Q 2313 4219 1838 4219 
Q 1578 4219 1281 4162 
Q 984 4106 628 3988 
L 628 4550 
Q 988 4650 1302 4700 
Q 1616 4750 1894 4750 
Q 2613 4750 3031 4423 
Q 3450 4097 3450 3541 
Q 3450 3153 3228 2886 
Q 3006 2619 2597 2516 
z
" transform="scale(0.015625)"/>
       </defs>
       <use xlink:href="#DejaVuSans-33"/>
       <use xlink:href="#DejaVuSans-30" x="63.623047"/>
       <use xlink:href="#DejaVuSans-30" x="127.246094"/>
       <use xlink:href="#DejaVuSans-30" x="190.869141"/>
      </g>
     </g>
    </g>
    <g id="xtick_5">
     <g id="line2d_5">
      <g>
       <use xlink:href="#mb133489210" x="333.543375" y="307.584" style="stroke: #000000; stroke-width: 0.8"/>
      </g>
     </g>
     <g id="text_5">
      <!-- 4000 -->
      <g transform="translate(320.818375 322.182437) scale(0.1 -0.1)">
       <defs>
        <path id="DejaVuSans-34" d="M 2419 4116 
L 825 1625 
L 2419 1625 
L 2419 4116 
z
M 2253 4666 
L 3047 4666 
L 3047 1625 
L 3713 1625 
L 3713 1100 
L 3047 1100 
L 3047 0 
L 2419 0 
L 2419 1100 
L 313 1100 
L 313 1709 
L 2253 4666 
z
" transform="scale(0.015625)"/>
       </defs>
       <use xlink:href="#DejaVuSans-34"/>
       <use xlink:href="#DejaVuSans-30" x="63.623047"/>
       <use xlink:href="#DejaVuSans-30" x="127.246094"/>
       <use xlink:href="#DejaVuSans-30" x="190.869141"/>
      </g>
     </g>
    </g>
    <g id="xtick_6">
     <g id="line2d_6">
      <g>
       <use xlink:href="#mb133489210" x="398.487273" y="307.584" style="stroke: #000000; stroke-width: 0.8"/>
      </g>
     </g>
     <g id="text_6">
      <!-- 5000 -->
      <g transform="translate(385.762273 322.182437) scale(0.1 -0.1)">
       <defs>
        <path id="DejaVuSans-35" d="M 691 4666 
L 3169 4666 
L 3169 4134 
L 1269 4134 
L 1269 2991 
Q 1406 3038 1543 3061 
Q 1681 3084 1819 3084 
Q 2600 3084 3056 2656 
Q 3513 2228 3513 1497 
Q 3513 744 3044 326 
Q 2575 -91 1722 -91 
Q 1428 -91 1123 -41 
Q 819 9 494 109 
L 494 744 
Q 775 591 1075 516 
Q 1375 441 1709 441 
Q 2250 441 2565 725 
Q 2881 1009 2881 1497 
Q 2881 1984 2565 2268 
Q 2250 2553 1709 2553 
Q 1456 2553 1204 2497 
Q 953 2441 691 2322 
L 691 4666 
z
" transform="scale(0.015625)"/>
       </defs>
       <use xlink:href="#DejaVuSans-35"/>
       <use xlink:href="#DejaVuSans-30" x="63.623047"/>
       <use xlink:href="#DejaVuSans-30" x="127.246094"/>
       <use xlink:href="#DejaVuSans-30" x="190.869141"/>
      </g>
     </g>
    </g>
    <g id="text_7">
     <!-- epoch -->
     <g transform="translate(220.931875 335.860562) scale(0.1 -0.1)">
      <defs>
       <path id="DejaVuSans-65" d="M 3597 1894 
L 3597 1613 
L 953 1613 
Q 991 1019 1311 708 
Q 1631 397 2203 397 
Q 2534 397 2845 478 
Q 3156 559 3463 722 
L 3463 178 
Q 3153 47 2828 -22 
Q 2503 -91 2169 -91 
Q 1331 -91 842 396 
Q 353 884 353 1716 
Q 353 2575 817 3079 
Q 1281 3584 2069 3584 
Q 2775 3584 3186 3129 
Q 3597 2675 3597 1894 
z
M 3022 2063 
Q 3016 2534 2758 2815 
Q 2500 3097 2075 3097 
Q 1594 3097 1305 2825 
Q 1016 2553 972 2059 
L 3022 2063 
z
" transform="scale(0.015625)"/>
       <path id="DejaVuSans-70" d="M 1159 525 
L 1159 -1331 
L 581 -1331 
L 581 3500 
L 1159 3500 
L 1159 2969 
Q 1341 3281 1617 3432 
Q 1894 3584 2278 3584 
Q 2916 3584 3314 3078 
Q 3713 2572 3713 1747 
Q 3713 922 3314 415 
Q 2916 -91 2278 -91 
Q 1894 -91 1617 61 
Q 1341 213 1159 525 
z
M 3116 1747 
Q 3116 2381 2855 2742 
Q 2594 3103 2138 3103 
Q 1681 3103 1420 2742 
Q 1159 2381 1159 1747 
Q 1159 1113 1420 752 
Q 1681 391 2138 391 
Q 2594 391 2855 752 
Q 3116 1113 3116 1747 
z
" transform="scale(0.015625)"/>
       <path id="DejaVuSans-6f" d="M 1959 3097 
Q 1497 3097 1228 2736 
Q 959 2375 959 1747 
Q 959 1119 1226 758 
Q 1494 397 1959 397 
Q 2419 397 2687 759 
Q 2956 1122 2956 1747 
Q 2956 2369 2687 2733 
Q 2419 3097 1959 3097 
z
M 1959 3584 
Q 2709 3584 3137 3096 
Q 3566 2609 3566 1747 
Q 3566 888 3137 398 
Q 2709 -91 1959 -91 
Q 1206 -91 779 398 
Q 353 888 353 1747 
Q 353 2609 779 3096 
Q 1206 3584 1959 3584 
z
" transform="scale(0.015625)"/>
       <path id="DejaVuSans-63" d="M 3122 3366 
L 3122 2828 
Q 2878 2963 2633 3030 
Q 2388 3097 2138 3097 
Q 1578 3097 1268 2742 
Q 959 2388 959 1747 
Q 959 1106 1268 751 
Q 1578 397 2138 397 
Q 2388 397 2633 464 
Q 2878 531 3122 666 
L 3122 134 
Q 2881 22 2623 -34 
Q 2366 -91 2075 -91 
Q 1284 -91 818 406 
Q 353 903 353 1747 
Q 353 2603 823 3093 
Q 1294 3584 2113 3584 
Q 2378 3584 2631 3529 
Q 2884 3475 3122 3366 
z
" transform="scale(0.015625)"/>
       <path id="DejaVuSans-68" d="M 3513 2113 
L 3513 0 
L 2938 0 
L 2938 2094 
Q 2938 2591 2744 2837 
Q 2550 3084 2163 3084 
Q 1697 3084 1428 2787 
Q 1159 2491 1159 1978 
L 1159 0 
L 581 0 
L 581 4863 
L 1159 4863 
L 1159 2956 
Q 1366 3272 1645 3428 
Q 1925 3584 2291 3584 
Q 2894 3584 3203 3211 
Q 3513 2838 3513 2113 
z
" transform="scale(0.015625)"/>
      </defs>
      <use xlink:href="#DejaVuSans-65"/>
      <use xlink:href="#DejaVuSans-70" x="61.523438"/>
      <use xlink:href="#DejaVuSans-6f" x="125"/>
      <use xlink:href="#DejaVuSans-63" x="186.181641"/>
      <use xlink:href="#DejaVuSans-68" x="241.162109"/>
     </g>
    </g>
   </g>
   <g id="matplotlib.axis_2">
    <g id="ytick_1">
     <g id="line2d_7">
      <defs>
       <path id="me080b226fc" d="M 0 0 
L -3.5 0 
" style="stroke: #000000; stroke-width: 0.8"/>
      </defs>
      <g>
       <use xlink:href="#me080b226fc" x="57.6" y="295.948713" style="stroke: #000000; stroke-width: 0.8"/>
      </g>
     </g>
     <g id="text_8">
      <!-- 0 -->
      <g transform="translate(44.2375 299.747931) scale(0.1 -0.1)">
       <use xlink:href="#DejaVuSans-30"/>
      </g>
     </g>
    </g>
    <g id="ytick_2">
     <g id="line2d_8">
      <g>
       <use xlink:href="#me080b226fc" x="57.6" y="258.824585" style="stroke: #000000; stroke-width: 0.8"/>
      </g>
     </g>
     <g id="text_9">
      <!-- 5 -->
      <g transform="translate(44.2375 262.623804) scale(0.1 -0.1)">
       <use xlink:href="#DejaVuSans-35"/>
      </g>
     </g>
    </g>
    <g id="ytick_3">
     <g id="line2d_9">
      <g>
       <use xlink:href="#me080b226fc" x="57.6" y="221.700458" style="stroke: #000000; stroke-width: 0.8"/>
      </g>
     </g>
     <g id="text_10">
      <!-- 10 -->
      <g transform="translate(37.875 225.499676) scale(0.1 -0.1)">
       <use xlink:href="#DejaVuSans-31"/>
       <use xlink:href="#DejaVuSans-30" x="63.623047"/>
      </g>
     </g>
    </g>
    <g id="ytick_4">
     <g id="line2d_10">
      <g>
       <use xlink:href="#me080b226fc" x="57.6" y="184.57633" style="stroke: #000000; stroke-width: 0.8"/>
      </g>
     </g>
     <g id="text_11">
      <!-- 15 -->
      <g transform="translate(37.875 188.375549) scale(0.1 -0.1)">
       <use xlink:href="#DejaVuSans-31"/>
       <use xlink:href="#DejaVuSans-35" x="63.623047"/>
      </g>
     </g>
    </g>
    <g id="ytick_5">
     <g id="line2d_11">
      <g>
       <use xlink:href="#me080b226fc" x="57.6" y="147.452203" style="stroke: #000000; stroke-width: 0.8"/>
      </g>
     </g>
     <g id="text_12">
      <!-- 20 -->
      <g transform="translate(37.875 151.251421) scale(0.1 -0.1)">
       <use xlink:href="#DejaVuSans-32"/>
       <use xlink:href="#DejaVuSans-30" x="63.623047"/>
      </g>
     </g>
    </g>
    <g id="ytick_6">
     <g id="line2d_12">
      <g>
       <use xlink:href="#me080b226fc" x="57.6" y="110.328075" style="stroke: #000000; stroke-width: 0.8"/>
      </g>
     </g>
     <g id="text_13">
      <!-- 25 -->
      <g transform="translate(37.875 114.127294) scale(0.1 -0.1)">
       <use xlink:href="#DejaVuSans-32"/>
       <use xlink:href="#DejaVuSans-35" x="63.623047"/>
      </g>
     </g>
    </g>
    <g id="ytick_7">
     <g id="line2d_13">
      <g>
       <use xlink:href="#me080b226fc" x="57.6" y="73.203948" style="stroke: #000000; stroke-width: 0.8"/>
      </g>
     </g>
     <g id="text_14">
      <!-- 30 -->
      <g transform="translate(37.875 77.003167) scale(0.1 -0.1)">
       <use xlink:href="#DejaVuSans-33"/>
       <use xlink:href="#DejaVuSans-30" x="63.623047"/>
      </g>
     </g>
    </g>
    <g id="text_15">
     <!-- loss -->
     <g transform="translate(31.795313 184.185812) rotate(-90) scale(0.1 -0.1)">
      <defs>
       <path id="DejaVuSans-6c" d="M 603 4863 
L 1178 4863 
L 1178 0 
L 603 0 
L 603 4863 
z
" transform="scale(0.015625)"/>
       <path id="DejaVuSans-73" d="M 2834 3397 
L 2834 2853 
Q 2591 2978 2328 3040 
Q 2066 3103 1784 3103 
Q 1356 3103 1142 2972 
Q 928 2841 928 2578 
Q 928 2378 1081 2264 
Q 1234 2150 1697 2047 
L 1894 2003 
Q 2506 1872 2764 1633 
Q 3022 1394 3022 966 
Q 3022 478 2636 193 
Q 2250 -91 1575 -91 
Q 1294 -91 989 -36 
Q 684 19 347 128 
L 347 722 
Q 666 556 975 473 
Q 1284 391 1588 391 
Q 1994 391 2212 530 
Q 2431 669 2431 922 
Q 2431 1156 2273 1281 
Q 2116 1406 1581 1522 
L 1381 1569 
Q 847 1681 609 1914 
Q 372 2147 372 2553 
Q 372 3047 722 3315 
Q 1072 3584 1716 3584 
Q 2034 3584 2315 3537 
Q 2597 3491 2834 3397 
z
" transform="scale(0.015625)"/>
      </defs>
      <use xlink:href="#DejaVuSans-6c"/>
      <use xlink:href="#DejaVuSans-6f" x="27.783203"/>
      <use xlink:href="#DejaVuSans-73" x="88.964844"/>
      <use xlink:href="#DejaVuSans-73" x="141.064453"/>
     </g>
    </g>
   </g>
   <g id="line2d_14">
    <path d="M 73.832727 282.641251 
L 74.222391 282.869993 
L 75.391381 283.346398 
L 76.170708 283.9102 
L 77.144866 284.903831 
L 79.482846 287.406151 
L 80.651837 288.257285 
L 81.885771 288.880125 
L 83.37948 289.376506 
L 85.457685 289.811857 
L 88.769824 290.25021 
L 95.718821 290.890063 
L 103.771864 291.466924 
L 115.721541 292.070968 
L 141.634157 292.873174 
L 150.336639 293.077161 
L 165.208792 293.376524 
L 180.990159 293.634861 
L 193.134668 293.8334 
L 239.699442 294.386402 
L 398.487273 295.488 
L 398.487273 295.488 
" clip-path="url(#p0021f710cd)" style="fill: none; stroke: #0000ff; stroke-width: 1.5; stroke-linecap: square"/>
   </g>
   <g id="line2d_15">
    <path d="M 73.832727 282.596719 
L 74.612054 283.246123 
L 75.066661 283.309888 
L 75.586213 283.393008 
L 76.235651 283.797021 
L 80.521949 286.888651 
L 81.561051 287.212237 
L 82.600153 287.352874 
L 83.963975 287.354244 
L 87.081282 287.06904 
L 90.328477 286.653638 
L 95.978596 285.695265 
L 96.173428 285.652449 
L 96.498148 285.54938 
L 97.472306 285.31649 
L 98.641296 285.00394 
L 98.966016 284.912975 
L 99.225791 284.857339 
L 100.005118 284.626341 
L 100.394782 284.538279 
L 100.719501 284.430673 
L 101.109164 284.329512 
L 101.498828 284.186147 
L 101.758603 284.135555 
L 102.083323 284.041177 
L 103.252313 283.647449 
L 103.447145 283.599917 
L 104.161528 283.345456 
L 104.421303 283.292655 
L 104.616135 283.190293 
L 104.87591 283.130506 
L 105.135686 283.0211 
L 106.629396 282.479353 
L 106.889171 282.419726 
L 107.213891 282.282219 
L 110.915693 280.935368 
L 111.305356 280.764393 
L 111.565132 280.690237 
L 112.084683 280.4432 
L 112.214571 280.400591 
L 112.344459 280.392469 
L 112.53929 280.30752 
L 113.643337 279.896587 
L 115.20199 279.312625 
L 115.461766 279.180354 
L 115.656598 279.123458 
L 117.475027 278.448217 
L 120.137726 277.444195 
L 120.397502 277.358099 
L 120.787165 277.242366 
L 121.371661 277.040589 
L 123.060202 276.369063 
L 123.969416 276.001185 
L 124.35908 275.813222 
L 125.008519 275.565498 
L 125.268294 275.435438 
L 148.777985 265.130358 
L 148.972817 265.022778 
L 149.167649 264.956756 
L 149.557312 264.756814 
L 149.752144 264.69812 
L 150.076863 264.525985 
L 150.85619 264.200346 
L 152.3499 263.51813 
L 154.038441 262.760551 
L 163.390362 258.537375 
L 163.715082 258.323331 
L 163.84497 258.292667 
L 164.039801 258.207704 
L 165.01396 257.751381 
L 165.403623 257.532663 
L 166.247894 257.206618 
L 166.50767 257.014826 
L 166.637557 257.007593 
L 166.897333 256.812154 
L 166.962277 256.870071 
L 167.157109 256.654144 
L 167.286996 256.665679 
L 167.481828 256.560078 
L 167.67666 256.422653 
L 167.806547 256.438645 
L 167.871491 256.312761 
L 167.936435 256.365592 
L 168.261155 256.126673 
L 168.326099 256.220579 
L 168.455986 256.09055 
L 168.52093 256.077443 
L 168.585874 255.940322 
L 168.650818 256.031775 
L 168.84565 255.93283 
L 169.170369 255.756103 
L 170.209472 255.297964 
L 171.50835 254.63779 
L 171.638237 254.670302 
L 171.962957 254.5085 
L 173.781386 253.695613 
L 174.820488 253.179737 
L 175.01532 253.109098 
L 178.587235 251.478283 
L 178.717122 251.365386 
L 182.873532 249.45015 
L 183.00342 249.394458 
L 183.133307 249.405115 
L 183.263195 249.294661 
L 183.522971 249.192558 
L 183.717802 249.088852 
L 184.17241 248.83911 
L 184.302298 248.854242 
L 185.081624 248.460255 
L 185.211512 248.377703 
L 185.925895 248.057722 
L 186.185671 247.944141 
L 186.640278 247.73681 
L 187.809268 247.186507 
L 188.133988 247.058506 
L 188.523651 246.862461 
L 188.783427 246.738858 
L 189.238034 246.52156 
L 189.887473 246.224065 
L 190.277136 246.001403 
L 190.536912 246.001842 
L 190.6668 245.877265 
L 190.861631 245.896773 
L 190.991519 245.904516 
L 191.251295 245.80572 
L 191.381182 245.831286 
L 191.770846 245.676955 
L 191.83579 245.70845 
L 192.095565 245.5065 
L 192.225453 245.50301 
L 192.550173 245.310258 
L 193.00478 244.984039 
L 193.394443 244.842846 
L 193.459387 244.697749 
L 193.524331 244.752778 
L 193.719163 244.65367 
L 193.849051 244.545425 
L 194.043882 244.498755 
L 194.303658 244.313307 
L 194.49849 244.316986 
L 194.563433 244.32184 
L 194.628377 244.16024 
L 194.693321 244.195875 
L 196.122087 243.467824 
L 196.381863 243.356534 
L 196.641638 243.200617 
L 196.83647 243.127142 
L 197.161189 242.958391 
L 198.460067 242.285259 
L 198.589955 242.269377 
L 198.784787 242.099163 
L 199.17445 241.902513 
L 199.369282 241.839388 
L 200.018721 241.490432 
L 200.148609 241.463762 
L 200.408384 241.277882 
L 200.603216 241.176289 
L 200.862992 241.051216 
L 200.927935 241.108242 
L 201.057823 240.964384 
L 201.122767 240.978684 
L 201.187711 240.816588 
L 201.252655 240.938262 
L 201.382543 240.761322 
L 201.447487 240.871157 
L 201.51243 240.669374 
L 201.577374 240.715502 
L 201.642318 240.746067 
L 201.707262 240.567933 
L 201.772206 240.634044 
L 201.83715 240.655336 
L 202.031982 240.513896 
L 202.161869 240.438863 
L 202.226813 240.4779 
L 202.486589 240.198744 
L 202.616477 240.216404 
L 203.525691 239.744032 
L 203.720523 239.664772 
L 208.33154 237.40012 
L 208.461428 237.313061 
L 209.045923 237.013866 
L 209.50053 236.791148 
L 209.630418 236.69396 
L 209.890193 236.599278 
L 210.409744 236.34897 
L 210.604576 236.194607 
L 211.254015 235.87543 
L 211.448847 235.77646 
L 211.903454 235.536022 
L 211.968398 235.551714 
L 212.16323 235.395701 
L 212.617837 235.154562 
L 213.072444 234.899658 
L 213.137388 234.945004 
L 213.397164 234.703476 
L 213.527052 234.687345 
L 214.566154 234.132028 
L 214.890873 233.933424 
L 215.150649 233.869173 
L 215.410425 233.658389 
L 215.605256 233.600815 
L 215.800088 233.47389 
L 216.059864 233.282572 
L 216.189751 233.240045 
L 216.644359 233.000527 
L 216.709303 233.045689 
L 216.969078 232.807071 
L 217.16391 232.786954 
L 217.423685 232.582565 
L 217.618517 232.473385 
L 218.008181 232.29038 
L 218.267956 232.149393 
L 218.397844 232.078379 
L 218.65762 231.941683 
L 218.852451 231.830124 
L 219.307059 231.547817 
L 219.631778 231.397335 
L 219.82661 231.283481 
L 220.021441 231.18476 
L 220.216273 231.076663 
L 220.67088 230.837677 
L 220.800768 230.772668 
L 221.515151 230.37284 
L 221.645039 230.306874 
L 221.774927 230.24042 
L 222.554253 229.832024 
L 222.619197 229.704937 
L 222.684141 229.763566 
L 222.878973 229.658833 
L 223.073805 229.542551 
L 223.33358 229.392621 
L 223.593356 229.219253 
L 224.112907 228.971083 
L 224.242795 228.88452 
L 224.307739 228.899035 
L 224.372683 228.742322 
L 224.437626 228.820686 
L 224.762346 228.56513 
L 224.82729 228.591612 
L 224.957178 228.440238 
L 225.087065 228.42306 
L 225.931336 227.961437 
L 226.191112 227.740967 
L 226.385943 227.710944 
L 226.710663 227.519045 
L 227.360102 227.140247 
L 227.48999 227.076314 
L 227.619877 226.987683 
L 227.879653 226.829723 
L 228.009541 226.778656 
L 228.269316 226.622466 
L 228.464148 226.512918 
L 228.65898 226.408029 
L 229.243475 226.115002 
L 229.438307 225.945769 
L 230.217633 225.497097 
L 230.477409 225.347174 
L 230.542353 225.396209 
L 230.672241 225.225518 
L 230.737185 225.294195 
L 230.99696 225.020378 
L 231.256736 224.983642 
L 231.581455 224.720333 
L 231.646399 224.782064 
L 231.776287 224.618695 
L 231.841231 224.686657 
L 231.971119 224.506003 
L 232.036062 224.576797 
L 232.230894 224.393268 
L 232.360782 224.321135 
L 232.49067 224.242403 
L 233.33494 223.786183 
L 233.594716 223.615194 
L 235.478089 222.541084 
L 235.543033 222.569506 
L 235.607977 222.42888 
L 235.672921 222.480528 
L 235.737865 222.472952 
L 235.802809 222.26602 
L 235.867752 222.334209 
L 235.932696 222.329607 
L 235.99764 222.194801 
L 236.062584 222.262636 
L 236.712023 221.834562 
L 236.971799 221.67343 
L 237.036743 221.755249 
L 237.16663 221.540189 
L 237.231574 221.620635 
L 237.296518 221.533788 
L 237.361462 221.415339 
L 237.426406 221.491331 
L 238.595396 220.724757 
L 238.66034 220.798377 
L 238.725284 220.71529 
L 239.244835 220.457029 
L 239.504611 220.2189 
L 239.634499 220.242663 
L 239.894274 220.037665 
L 241.387984 219.197959 
L 241.647759 219.010168 
L 241.777647 218.986801 
L 242.102367 218.814354 
L 243.076525 218.323331 
L 243.206413 218.139908 
L 243.271357 218.20387 
L 243.401245 218.031316 
L 243.466189 218.084869 
L 243.725964 217.829717 
L 244.180571 217.58576 
L 244.440347 217.451188 
L 244.700123 217.281212 
L 244.83001 217.235915 
L 245.15473 217.035385 
L 245.869113 216.638425 
L 245.934057 216.659675 
L 246.063944 216.456687 
L 246.128888 216.512308 
L 246.258776 216.383464 
L 246.32372 216.438001 
L 246.453608 216.266517 
L 246.583496 216.207965 
L 246.64844 216.113244 
L 246.713383 216.167023 
L 246.778327 216.152677 
L 246.843271 216.008879 
L 246.908215 216.049481 
L 246.973159 216.052441 
L 247.038103 215.868586 
L 247.103047 215.901321 
L 247.167991 215.933326 
L 247.427766 215.667851 
L 247.622598 215.594316 
L 248.077205 215.320421 
L 248.142149 215.371934 
L 248.272037 215.135624 
L 248.336981 215.230763 
L 248.6617 214.961081 
L 248.791588 214.933537 
L 248.98642 214.816476 
L 249.505971 214.473726 
L 249.570915 214.540145 
L 249.700803 214.330034 
L 249.765747 214.372548 
L 250.090466 214.120455 
L 250.220354 214.098957 
L 250.480129 213.888188 
L 250.545073 213.971594 
L 250.674961 213.793574 
L 250.739905 213.857103 
L 250.869793 213.634297 
L 250.934737 213.713121 
L 250.999681 213.644408 
L 251.259456 213.431678 
L 251.389344 213.442023 
L 251.584176 213.263252 
L 253.792268 211.997045 
L 253.857212 212.040359 
L 253.9871 211.819181 
L 254.052044 211.877902 
L 254.181932 211.776639 
L 254.246876 211.82367 
L 254.376763 211.659387 
L 254.441707 211.71905 
L 254.571595 211.577688 
L 254.636539 211.60684 
L 254.766427 211.400149 
L 254.831371 211.495337 
L 255.091146 211.228877 
L 255.15609 211.135877 
L 255.221034 211.202841 
L 256.390024 210.511678 
L 256.519912 210.502161 
L 256.714744 210.321691 
L 257.169351 210.043965 
L 257.299239 210.009035 
L 257.49407 209.861329 
L 257.753846 209.740416 
L 257.883734 209.685603 
L 257.948678 209.545975 
L 258.013622 209.586924 
L 259.247556 208.909342 
L 259.442387 208.762839 
L 259.572275 208.728794 
L 259.832051 208.493199 
L 259.961939 208.522535 
L 260.026882 208.389443 
L 260.091826 208.435462 
L 260.15677 208.462688 
L 260.221714 208.238465 
L 260.286658 208.283839 
L 260.351602 208.292775 
L 260.48149 208.19804 
L 260.546434 208.240002 
L 260.676321 208.040371 
L 260.741265 208.108269 
L 261.001041 207.835663 
L 261.260817 207.732212 
L 261.845312 207.40783 
L 262.105087 207.245452 
L 262.429807 207.04706 
L 262.494751 207.085056 
L 262.624638 206.895791 
L 262.689582 206.945804 
L 263.079246 206.695028 
L 263.663741 206.378265 
L 263.98846 206.176616 
L 264.118348 206.096383 
L 264.183292 206.137544 
L 264.31318 205.954546 
L 264.378124 205.977431 
L 264.508011 205.844205 
L 264.572955 205.878802 
L 264.702843 205.647909 
L 264.767787 205.788599 
L 264.832731 205.706001 
L 265.027563 205.513373 
L 265.092507 205.459431 
L 265.15745 205.600956 
L 265.222394 205.479009 
L 265.287338 205.379764 
L 265.352282 205.478854 
L 265.677002 205.117453 
L 265.741945 205.195322 
L 265.806889 205.137556 
L 265.871833 204.971127 
L 265.936777 205.06395 
L 266.001721 205.045908 
L 266.066665 204.904659 
L 266.131609 204.982457 
L 266.910936 204.444063 
L 267.040823 204.447334 
L 267.170711 204.324488 
L 267.300599 204.275942 
L 267.560375 204.021923 
L 267.690262 204.085113 
L 267.885094 203.895041 
L 268.079926 203.812754 
L 268.404645 203.556342 
L 268.534533 203.527601 
L 268.664421 203.494321 
L 268.794309 203.320974 
L 268.859253 203.392045 
L 268.924196 203.309885 
L 269.183972 203.155239 
L 269.31386 203.120621 
L 269.573635 202.866666 
L 269.703523 202.896866 
L 269.768467 202.755404 
L 269.833411 202.788054 
L 269.898355 202.820251 
L 270.028243 202.655776 
L 270.093187 202.711014 
L 270.352962 202.420939 
L 270.612738 202.320865 
L 270.742626 202.250503 
L 271.002401 202.140615 
L 271.262177 201.917306 
L 272.496111 201.231219 
L 272.755886 201.052406 
L 272.82083 201.092328 
L 273.015662 200.96483 
L 273.794989 200.43572 
L 273.859933 200.529619 
L 273.989821 200.31555 
L 274.054764 200.39191 
L 274.119708 200.318368 
L 274.379484 200.078001 
L 274.509372 200.111317 
L 274.639259 199.989519 
L 274.704203 200.014734 
L 274.834091 199.839263 
L 275.028923 199.783069 
L 275.548474 199.445014 
L 277.756567 198.16905 
L 277.886454 198.022851 
L 278.016342 198.049666 
L 278.211174 197.885142 
L 278.470949 197.714026 
L 278.600837 197.673134 
L 278.730725 197.568196 
L 278.990501 197.466253 
L 279.055445 197.349312 
L 279.120388 197.437639 
L 279.510052 197.119219 
L 279.574996 197.14852 
L 279.704884 197.024867 
L 279.769827 197.04441 
L 279.899715 196.942743 
L 280.029603 196.870511 
L 280.354323 196.63076 
L 281.328481 196.104744 
L 281.393425 195.981317 
L 281.458369 196.016035 
L 281.523313 195.994226 
L 281.588257 195.845761 
L 281.6532 195.87783 
L 281.718144 195.892636 
L 281.848032 195.772701 
L 281.97792 195.678886 
L 282.237696 195.477046 
L 282.302639 195.601379 
L 282.367583 195.492787 
L 282.432527 195.343664 
L 282.497471 195.421787 
L 282.887135 195.149011 
L 282.952078 195.212066 
L 283.081966 195.014496 
L 283.14691 195.09851 
L 283.276798 194.854801 
L 283.341742 194.934857 
L 283.536573 194.79455 
L 283.861293 194.56615 
L 283.991181 194.569124 
L 284.186012 194.43577 
L 284.510732 194.213756 
L 284.770508 194.095017 
L 285.030283 193.889247 
L 285.419947 193.72216 
L 286.394105 193.097642 
L 286.588937 192.997115 
L 287.368263 192.568786 
L 287.433207 192.591863 
L 287.563095 192.36279 
L 287.628039 192.442308 
L 287.692983 192.358145 
L 287.952759 192.227588 
L 288.277478 192.057548 
L 288.47231 191.918444 
L 288.732085 191.712228 
L 288.797029 191.759981 
L 288.991861 191.551089 
L 289.121749 191.477108 
L 289.446468 191.315898 
L 290.290739 190.788324 
L 290.355683 190.811606 
L 290.550514 190.63663 
L 290.81029 190.47256 
L 291.13501 190.31135 
L 291.199953 190.322077 
L 291.329841 190.090936 
L 291.394785 190.130823 
L 293.732765 188.684422 
L 293.992541 188.496942 
L 295.226475 187.77116 
L 295.291419 187.838506 
L 295.486251 187.630952 
L 297.174792 186.595028 
L 297.239736 186.587834 
L 297.369624 186.415946 
L 297.564455 186.394859 
L 297.889175 186.155745 
L 298.213894 185.933491 
L 298.343782 185.887678 
L 298.668502 185.680478 
L 298.798389 185.527212 
L 298.928277 185.535235 
L 299.317941 185.226127 
L 299.447828 185.219797 
L 299.577716 185.087101 
L 299.64266 185.105929 
L 299.902436 184.848157 
L 300.032324 184.821024 
L 300.227155 184.719909 
L 300.681763 184.42424 
L 300.746706 184.305034 
L 300.81165 184.357737 
L 301.201314 184.125952 
L 301.396145 183.926739 
L 301.526033 183.874199 
L 305.292779 181.463631 
L 305.422667 181.43021 
L 305.877274 181.085244 
L 306.007162 181.069992 
L 306.13705 180.97098 
L 306.396826 180.819131 
L 306.656601 180.565615 
L 306.786489 180.529516 
L 307.176152 180.308169 
L 307.30604 180.222695 
L 307.500872 180.029083 
L 307.565816 180.102406 
L 307.825591 179.921426 
L 308.150311 179.664929 
L 309.254357 179.041048 
L 309.64402 178.771288 
L 309.708964 178.861732 
L 309.838852 178.646268 
L 309.903796 178.699552 
L 310.033684 178.589034 
L 310.423347 178.262924 
L 310.553235 178.347512 
L 310.813011 178.075919 
L 310.942898 178.082525 
L 311.007842 177.935257 
L 311.072786 177.989688 
L 311.13773 178.009819 
L 311.397506 177.768312 
L 311.46245 177.730896 
L 311.527393 177.823932 
L 311.657281 177.574402 
L 311.722225 177.716713 
L 311.852113 177.504528 
L 311.917057 177.585887 
L 312.046945 177.473514 
L 312.111889 177.497752 
L 312.241776 177.353146 
L 312.30672 177.44097 
L 312.436608 177.175976 
L 312.501552 177.262752 
L 312.566496 177.183645 
L 312.826271 177.073983 
L 312.891215 177.154734 
L 312.956159 177.089349 
L 313.086047 176.971821 
L 313.150991 176.973732 
L 313.345823 176.793482 
L 313.995262 176.485521 
L 314.190093 176.295159 
L 314.319981 176.315269 
L 314.579757 176.163115 
L 314.774588 176.013298 
L 314.839532 176.067113 
L 314.96942 175.815827 
L 315.034364 175.895529 
L 315.359083 175.651877 
L 315.488971 175.656833 
L 315.553915 175.47181 
L 315.618859 175.530751 
L 315.683803 175.506705 
L 315.748747 175.331949 
L 315.813691 175.376275 
L 315.878635 175.418279 
L 316.008522 175.24831 
L 316.073466 175.30034 
L 316.203354 175.112045 
L 316.268298 175.185743 
L 316.46313 175.047298 
L 316.722905 174.84664 
L 316.852793 174.800091 
L 317.177513 174.614501 
L 317.242456 174.46889 
L 317.3074 174.500769 
L 317.63212 174.242529 
L 317.697064 174.371727 
L 317.826952 174.091565 
L 317.891895 174.184041 
L 318.736166 173.578288 
L 318.866054 173.572708 
L 318.995942 173.40686 
L 319.060886 173.476677 
L 319.12583 173.45729 
L 319.255717 173.243462 
L 319.385605 173.285919 
L 319.840212 172.910194 
L 319.905156 172.94278 
L 320.099988 172.772358 
L 320.359764 172.67814 
L 320.749427 172.367474 
L 320.814371 172.418088 
L 321.009203 172.250979 
L 321.13909 172.188045 
L 321.333922 172.026091 
L 321.528754 171.957662 
L 323.606958 170.67948 
L 323.80179 170.572219 
L 324.061566 170.2971 
L 324.12651 170.403638 
L 324.191454 170.32429 
L 324.256397 170.151998 
L 324.321341 170.238541 
L 324.451229 170.115121 
L 324.97078 169.805305 
L 325.230556 169.693824 
L 325.555275 169.397674 
L 325.750107 169.359763 
L 325.815051 169.332417 
L 325.944939 169.146402 
L 326.074827 169.169982 
L 326.204714 169.026197 
L 326.269658 169.071586 
L 326.46449 168.81346 
L 326.789209 168.620096 
L 326.919097 168.61943 
L 328.217975 167.728756 
L 328.477751 167.640288 
L 328.737526 167.392897 
L 328.80247 167.425823 
L 328.932358 167.252667 
L 328.997302 167.304697 
L 329.776629 166.734744 
L 329.841573 166.763195 
L 330.101348 166.558757 
L 330.815731 166.073859 
L 331.010563 165.973835 
L 331.335282 165.706419 
L 331.46517 165.677274 
L 331.724946 165.497363 
L 331.78989 165.514442 
L 331.919777 165.321644 
L 331.984721 165.416698 
L 332.114609 165.212982 
L 332.179553 165.298518 
L 332.309441 165.090752 
L 332.374385 165.145331 
L 332.504272 164.922907 
L 332.569216 165.033198 
L 332.893936 164.672386 
L 333.023824 164.701446 
L 333.088768 164.566272 
L 333.153711 164.609479 
L 336.920458 162.116505 
L 336.985401 162.155266 
L 337.180233 161.931808 
L 338.024504 161.516048 
L 338.219336 161.344492 
L 338.544055 161.112042 
L 338.868774 160.900664 
L 339.323382 160.538435 
L 339.388326 160.61352 
L 339.45327 160.535234 
L 339.713045 160.296 
L 339.842933 160.26636 
L 340.102709 160.048397 
L 340.29754 159.974005 
L 341.271699 159.346541 
L 341.531474 159.111782 
L 341.596418 159.157397 
L 341.79125 159.039416 
L 342.440689 158.521465 
L 342.570577 158.545639 
L 342.765408 158.386532 
L 343.220016 158.010807 
L 343.609679 157.804924 
L 343.999342 157.488253 
L 344.12923 157.488706 
L 344.324062 157.319559 
L 345.493052 156.484625 
L 345.62294 156.432496 
L 346.142491 156.138045 
L 346.337323 155.904901 
L 346.402267 155.917052 
L 346.597098 155.74881 
L 346.79193 155.620392 
L 347.181593 155.362747 
L 347.311481 155.279136 
L 347.441369 155.169029 
L 347.571257 155.111872 
L 352.052386 152.013824 
L 352.312161 151.813761 
L 353.611039 150.885219 
L 353.675983 150.918003 
L 353.870815 150.780988 
L 354.195534 150.504891 
L 354.260478 150.545295 
L 354.520254 150.283161 
L 354.715086 150.165222 
L 354.780029 150.18206 
L 355.039805 149.944044 
L 355.559356 149.543366 
L 355.819132 149.338743 
L 356.208795 149.130623 
L 356.663402 148.836668 
L 356.728346 148.851382 
L 356.923178 148.634665 
L 357.96228 147.888143 
L 358.092168 147.803031 
L 358.481832 147.540968 
L 358.611719 147.404449 
L 359.196215 147.046738 
L 359.45599 146.81559 
L 359.975541 146.528801 
L 360.040485 146.392594 
L 360.105429 146.446252 
L 360.170373 146.438138 
L 360.300261 146.178284 
L 360.365205 146.286919 
L 360.560036 146.089221 
L 360.62498 146.090368 
L 360.819812 145.877956 
L 361.274419 145.523658 
L 361.404307 145.498833 
L 361.858914 145.13455 
L 361.923858 145.177121 
L 362.248578 144.896874 
L 363.28768 144.162008 
L 363.417568 144.099144 
L 363.677343 143.878589 
L 364.586558 143.263531 
L 364.651502 143.297236 
L 364.846334 143.109706 
L 365.235997 142.819915 
L 365.495773 142.634056 
L 366.015324 142.279815 
L 369.522294 139.88052 
L 369.717126 139.723282 
L 372.12005 137.984732 
L 372.184994 138.085804 
L 372.249938 137.992903 
L 373.418928 137.161298 
L 373.483872 137.186704 
L 373.743648 136.951265 
L 374.652862 136.252101 
L 374.78275 136.247838 
L 382.835793 130.667295 
L 382.900737 130.692786 
L 383.095569 130.451795 
L 383.680064 130.043739 
L 383.874896 129.880313 
L 384.004784 129.829033 
L 385.758269 128.664543 
L 385.823213 128.531139 
L 385.888157 128.59076 
L 386.537596 128.091531 
L 386.927259 127.842143 
L 387.057147 127.739399 
L 387.251978 127.65576 
L 387.381866 127.485579 
L 387.511754 127.43961 
L 387.901417 127.13652 
L 387.966361 127.183466 
L 388.161193 126.966353 
L 388.356025 126.909154 
L 388.485912 126.759861 
L 388.550856 126.812471 
L 388.680744 126.541444 
L 388.745688 126.654002 
L 388.810632 126.601122 
L 388.875576 126.447807 
L 388.94052 126.500177 
L 390.758949 125.259269 
L 390.953781 125.091807 
L 391.018724 125.109622 
L 391.2785 124.83725 
L 391.408388 124.793009 
L 391.733107 124.576816 
L 392.512434 124.024338 
L 392.577378 124.07998 
L 392.837154 123.843351 
L 392.967041 123.759585 
L 393.356705 123.483134 
L 394.136032 122.958045 
L 394.330863 122.837415 
L 394.785471 122.466789 
L 394.850414 122.514004 
L 395.11019 122.309565 
L 395.759629 121.838433 
L 395.889517 121.816694 
L 396.27918 121.478186 
L 396.409068 121.451931 
L 396.6039 121.267871 
L 397.123451 120.955916 
L 397.318283 120.814624 
L 397.383226 120.809866 
L 397.44817 120.655262 
L 397.513114 120.737542 
L 398.032665 120.325025 
L 398.162553 120.237222 
L 398.357385 120.100873 
L 398.422329 119.964482 
L 398.487273 120.005636 
" clip-path="url(#p0021f710cd)" style="fill: none; stroke: #008000; stroke-width: 1.5; stroke-linecap: square"/>
   </g>
   <g id="line2d_16">
    <path d="M 73.832727 282.590848 
L 74.54711 283.012394 
L 75.131605 283.149902 
L 75.7161 283.31805 
L 77.014978 284.119901 
L 79.028239 285.482354 
L 80.002398 285.859028 
L 80.71678 285.983655 
L 81.755883 285.97758 
L 83.444424 285.719115 
L 89.743982 284.578642 
L 93.186009 284.057772 
L 93.445784 284.003539 
L 93.900392 283.890989 
L 95.134326 283.592572 
L 95.523989 283.50491 
L 96.108484 283.342345 
L 96.628035 283.188313 
L 102.797706 280.937667 
L 103.512089 280.627263 
L 103.966696 280.445993 
L 105.005798 279.941289 
L 105.395462 279.787632 
L 105.850069 279.548171 
L 106.824227 279.056674 
L 107.603554 278.650366 
L 108.188049 278.326051 
L 108.7076 278.079552 
L 109.097264 277.832453 
L 110.461086 277.093917 
L 110.850749 276.87158 
L 112.019739 276.213778 
L 112.409403 275.972203 
L 112.604234 275.876815 
L 113.383561 275.44854 
L 114.162888 274.978983 
L 114.617495 274.726656 
L 115.396822 274.272644 
L 117.734802 272.920708 
L 118.18941 272.679845 
L 118.449185 272.532374 
L 123.319977 269.688251 
L 124.553912 268.930952 
L 125.138407 268.569221 
L 126.112565 267.947147 
L 126.567172 267.673819 
L 127.86605 266.836319 
L 129.03504 266.111072 
L 131.957516 264.242116 
L 148.842929 253.399265 
L 149.037761 253.310634 
L 149.297537 253.142456 
L 150.206751 252.550028 
L 150.921134 252.123392 
L 151.505629 251.705823 
L 151.700461 251.627509 
L 152.479788 251.123779 
L 155.337319 249.348897 
L 156.051702 248.898897 
L 156.701141 248.487244 
L 156.895973 248.352279 
L 157.090804 248.2956 
L 157.35058 248.064346 
L 157.675299 247.877737 
L 158.259795 247.519212 
L 158.649458 247.250341 
L 161.636877 245.4029 
L 162.091484 245.133707 
L 162.546092 244.850111 
L 162.740923 244.762762 
L 163.260475 244.395881 
L 172.417564 238.604399 
L 172.482508 238.60482 
L 172.67734 238.387823 
L 173.196891 238.064253 
L 173.391723 238.028296 
L 173.716442 237.754026 
L 173.84633 237.735141 
L 174.171049 237.492791 
L 174.300937 237.433694 
L 174.495769 237.2613 
L 174.755545 237.133979 
L 175.080264 236.935053 
L 176.898693 235.74039 
L 177.028581 235.719247 
L 177.288357 235.533799 
L 177.483188 235.449112 
L 177.742964 235.278548 
L 178.262515 234.982221 
L 178.522291 234.762374 
L 178.652178 234.736005 
L 178.84701 234.580014 
L 180.405664 233.575295 
L 180.600495 233.481878 
L 180.860271 233.327203 
L 182.743644 232.117069 
L 183.00342 231.947107 
L 183.328139 231.766743 
L 183.717802 231.497408 
L 184.432185 231.053799 
L 184.627017 230.936363 
L 185.731063 230.197694 
L 186.120727 229.950331 
L 186.445446 229.777268 
L 186.640278 229.626176 
L 187.159829 229.347304 
L 187.419605 229.13087 
L 187.549492 229.073756 
L 188.198931 228.649647 
L 188.328819 228.563586 
L 188.523651 228.428703 
L 188.718483 228.2977 
L 190.796687 227.026876 
L 191.121407 226.911953 
L 193.719163 225.329118 
L 193.849051 225.225921 
L 194.043882 225.164948 
L 194.433546 224.872232 
L 194.563433 224.872678 
L 194.823209 224.563195 
L 194.953097 224.555434 
L 195.212872 224.31899 
L 195.407704 224.278636 
L 196.057143 223.765911 
L 196.446806 223.502849 
L 197.096245 223.044101 
L 197.291077 223.014312 
L 197.550853 222.716187 
L 197.680741 222.740863 
L 197.940516 222.457161 
L 198.135348 222.420723 
L 198.395123 222.161365 
L 198.654899 221.980562 
L 208.33154 215.389629 
L 208.526371 215.263314 
L 208.786147 215.023669 
L 208.916035 214.986693 
L 209.370642 214.630539 
L 209.565474 214.56007 
L 209.825249 214.309698 
L 209.955137 214.267539 
L 210.214913 214.056869 
L 210.799408 213.648062 
L 216.644359 209.387243 
L 216.709303 209.419674 
L 216.969078 209.131645 
L 217.098966 209.07548 
L 217.228854 208.959842 
L 217.423685 208.811003 
L 217.553573 208.780852 
L 217.813349 208.521041 
L 218.008181 208.401396 
L 218.267956 208.21068 
L 218.397844 208.112022 
L 218.722563 207.889768 
L 219.50189 207.273379 
L 219.566834 207.288985 
L 219.82661 207.01162 
L 220.021441 206.869762 
L 220.281217 206.676525 
L 220.346161 206.706392 
L 220.67088 206.388575 
L 220.800768 206.303215 
L 221.904814 205.459261 
L 222.034702 205.34305 
L 222.229534 205.19341 
L 223.853131 203.977802 
L 224.307739 203.652663 
L 224.50257 203.464461 
L 224.697402 203.323884 
L 224.957178 203.069143 
L 225.087065 203.007235 
L 226.126168 202.172585 
L 226.320999 202.01289 
L 226.450887 201.914218 
L 226.710663 201.745722 
L 227.48999 201.126288 
L 227.814709 200.832999 
L 229.113587 199.804609 
L 229.243475 199.737036 
L 229.438307 199.499197 
L 229.763026 199.241638 
L 230.932016 198.340987 
L 231.061904 198.182659 
L 231.126848 198.184266 
L 231.386624 197.888187 
L 231.516511 197.811558 
L 231.971119 197.422988 
L 232.036062 197.470813 
L 232.295838 197.135385 
L 232.49067 197.046428 
L 235.088426 194.868262 
L 235.15337 194.853257 
L 235.413145 194.499023 
L 235.543033 194.532034 
L 235.607977 194.380079 
L 235.672921 194.410356 
L 235.737865 194.372913 
L 235.802809 194.163758 
L 235.867752 194.194432 
L 236.127528 194.039411 
L 236.387304 193.703233 
L 236.517191 193.683605 
L 236.776967 193.387285 
L 236.841911 193.451905 
L 236.971799 193.265947 
L 237.036743 193.297166 
L 237.296518 193.012997 
L 237.556294 192.723227 
L 237.621238 192.782409 
L 238.010901 192.389661 
L 238.075845 192.37846 
L 238.205733 192.240248 
L 238.270677 192.246777 
L 238.595396 191.853307 
L 238.66034 191.918118 
L 238.98506 191.548993 
L 239.244835 191.414548 
L 239.569555 191.125677 
L 240.608657 190.235974 
L 240.803489 190.069474 
L 241.907535 189.154457 
L 242.102367 188.995789 
L 242.881693 188.309405 
L 243.206413 187.991984 
L 243.271357 188.021624 
L 243.401245 187.834874 
L 243.466189 187.855939 
L 243.790908 187.465932 
L 243.855852 187.535041 
L 244.180571 187.162737 
L 244.635179 186.811058 
L 244.894954 186.540435 
L 245.024842 186.475737 
L 245.479449 186.094737 
L 246.258776 185.388626 
L 246.32372 185.408601 
L 246.518552 185.213502 
L 246.843271 184.864189 
L 246.973159 184.853065 
L 247.103047 184.677841 
L 247.167991 184.686615 
L 247.427766 184.358098 
L 247.752486 184.16872 
L 247.947317 183.9565 
L 248.142149 183.864101 
L 248.401925 183.57106 
L 250.674961 181.655013 
L 250.739905 181.668658 
L 250.869793 181.438756 
L 250.934737 181.489611 
L 251.3244 181.136269 
L 251.519232 180.942628 
L 252.103727 180.407478 
L 252.233615 180.389365 
L 252.49339 180.087578 
L 252.688222 179.971311 
L 253.207773 179.523849 
L 253.272717 179.558227 
L 253.532493 179.270524 
L 253.792268 179.053206 
L 253.857212 179.072926 
L 254.052044 178.844462 
L 254.376763 178.548821 
L 254.441707 178.584374 
L 254.636539 178.404995 
L 254.896315 178.152435 
L 255.350922 177.736285 
L 255.415866 177.828081 
L 255.545754 177.572611 
L 255.675641 177.537221 
L 256.390024 176.920569 
L 256.519912 176.85687 
L 256.714744 176.6282 
L 257.429127 176.142935 
L 257.623958 175.911164 
L 258.338341 175.341621 
L 258.598117 175.164515 
L 261.845312 172.491743 
L 262.494751 171.992811 
L 262.624638 171.770458 
L 262.689582 171.808284 
L 263.209133 171.312085 
L 263.339021 171.271724 
L 263.663741 171.008684 
L 263.793629 170.910798 
L 264.118348 170.61673 
L 264.183292 170.638808 
L 264.31318 170.438717 
L 264.378124 170.429781 
L 264.572955 170.254147 
L 265.092507 169.761021 
L 265.15745 169.852704 
L 265.48217 169.452706 
L 265.612058 169.438403 
L 265.871833 169.089784 
L 266.001721 169.100023 
L 266.066665 168.963362 
L 266.131609 169.01763 
L 267.170711 168.110472 
L 267.235655 168.137761 
L 267.560375 167.752704 
L 267.690262 167.759997 
L 267.950038 167.426418 
L 268.079926 167.403433 
L 268.599477 166.98426 
L 268.664421 166.957565 
L 268.859253 166.772599 
L 269.183972 166.46781 
L 269.31386 166.40251 
L 269.573635 166.134372 
L 269.898355 165.957719 
L 270.028243 165.799603 
L 270.093187 165.825193 
L 270.352962 165.488144 
L 272.496111 163.794982 
L 272.755886 163.571439 
L 272.82083 163.598898 
L 273.080606 163.357285 
L 273.730045 162.81169 
L 273.989821 162.571776 
L 274.054764 162.62933 
L 274.444428 162.243918 
L 274.574316 162.114933 
L 275.093867 161.704583 
L 275.288698 161.547756 
L 277.756567 159.506668 
L 277.951398 159.361142 
L 278.14623 159.200406 
L 278.665781 158.71507 
L 278.990501 158.505434 
L 279.250276 158.230653 
L 279.380164 158.176343 
L 279.63994 157.910726 
L 279.964659 157.741805 
L 280.289379 157.403552 
L 280.743986 157.053474 
L 281.003761 156.770664 
L 281.133649 156.753514 
L 281.393425 156.451204 
L 281.523313 156.398508 
L 281.6532 156.272936 
L 281.718144 156.271633 
L 281.97792 155.985821 
L 282.237696 155.726321 
L 282.302639 155.811108 
L 282.627359 155.422609 
L 283.14691 155.096563 
L 283.276798 154.875145 
L 283.341742 154.907688 
L 283.601517 154.633942 
L 285.225115 153.285349 
L 285.419947 153.16394 
L 285.679722 152.888721 
L 285.874554 152.752273 
L 288.14759 150.856626 
L 288.277478 150.770381 
L 288.537254 150.495559 
L 289.056805 150.105884 
L 289.31658 149.825624 
L 289.446468 149.77171 
L 290.290739 149.026633 
L 290.355683 149.025203 
L 290.550514 148.794126 
L 291.070066 148.33496 
L 291.199953 148.321251 
L 291.459729 148.032989 
L 291.914336 147.60978 
L 292.044224 147.550315 
L 292.433888 147.204967 
L 293.47299 146.299919 
L 293.992541 145.837171 
L 295.226475 144.807811 
L 295.291419 144.832013 
L 295.551195 144.513771 
L 297.174792 143.160788 
L 297.629399 142.758311 
L 298.798389 141.700996 
L 298.928277 141.645412 
L 299.188053 141.414561 
L 299.382885 141.268525 
L 300.097267 140.585817 
L 300.421987 140.281948 
L 300.81165 139.986351 
L 301.006482 139.8681 
L 301.331202 139.45132 
L 301.590977 139.288815 
L 312.826271 129.654787 
L 312.956159 129.617358 
L 313.280879 129.29491 
L 313.80043 128.979089 
L 314.060205 128.737036 
L 314.774588 128.239308 
L 314.839532 128.247451 
L 315.099308 127.999295 
L 315.424027 127.770852 
L 315.683803 127.554574 
L 315.813691 127.41671 
L 315.878635 127.424995 
L 316.13841 127.146093 
L 316.787849 126.619107 
L 316.917737 126.55756 
L 317.047625 126.40603 
L 317.112569 126.453868 
L 317.567176 125.9313 
L 318.281559 125.405688 
L 318.476391 125.260247 
L 319.840212 124.042848 
L 319.905156 124.036475 
L 320.099988 123.833806 
L 320.29482 123.731629 
L 321.333922 122.789095 
L 321.528754 122.669117 
L 322.892576 121.475567 
L 322.95752 121.497418 
L 323.217295 121.205403 
L 325.490332 119.253124 
L 325.750107 119.061629 
L 326.269658 118.621171 
L 326.46449 118.361218 
L 326.854153 118.082572 
L 327.243817 117.7236 
L 327.568536 117.445223 
L 327.9582 117.094777 
L 328.347863 116.700854 
L 328.477751 116.662688 
L 328.932358 116.20246 
L 329.062246 116.133011 
L 329.711685 115.507473 
L 330.426068 114.918048 
L 330.620899 114.721327 
L 330.750787 114.602949 
L 335.426748 110.500891 
L 335.62158 110.260779 
L 335.751467 110.23424 
L 336.206075 109.762966 
L 336.725626 109.386603 
L 337.245177 108.843926 
L 337.375065 108.762623 
L 338.868774 107.466528 
L 339.713045 106.679008 
L 339.842933 106.619444 
L 340.557316 105.967338 
L 340.817091 105.746968 
L 341.076867 105.50973 
L 341.986082 104.740055 
L 342.180913 104.530971 
L 349.779349 97.616477 
L 350.104069 97.303248 
L 350.233957 97.23319 
L 350.493732 96.984779 
L 351.013283 96.491526 
L 351.532835 96.014063 
L 352.247217 95.345545 
L 354.000703 93.744929 
L 354.390366 93.390164 
L 354.780029 93.070987 
L 355.039805 92.804831 
L 363.482512 84.963382 
L 363.6124 84.90944 
L 364.002063 84.511297 
L 364.261839 84.302624 
L 365.041165 83.555238 
L 365.430829 83.237492 
L 365.820492 82.878534 
L 367.379146 81.425526 
L 367.509033 81.294927 
L 367.833753 81.036985 
L 368.223416 80.657323 
L 368.418248 80.480457 
L 368.678024 80.247001 
L 369.522294 79.494631 
L 369.717126 79.293634 
L 370.626341 78.47755 
L 370.821172 78.270151 
L 371.600499 77.583505 
L 371.860275 77.295088 
L 372.055106 77.170365 
L 372.249938 76.990795 
L 373.28904 76.014414 
L 373.678704 75.644396 
L 373.808592 75.583586 
L 374.393087 74.944269 
L 374.587918 74.819362 
L 374.977582 74.4658 
L 375.237357 74.223451 
L 375.562077 73.924808 
L 375.691965 73.850218 
L 377.250618 72.424104 
L 377.44545 72.257208 
L 378.809272 71.055868 
L 379.004103 70.82768 
L 379.069047 70.819707 
L 379.263879 70.595626 
L 379.328823 70.598827 
L 379.653542 70.216177 
L 379.78343 70.139335 
L 380.497813 69.465874 
L 380.692645 69.308636 
L 381.27714 68.80057 
L 381.601859 68.468279 
L 381.731747 68.399694 
L 382.251298 67.901173 
L 382.640962 67.59324 
L 382.835793 67.387102 
L 382.900737 67.392299 
L 383.290401 66.934521 
L 384.199615 66.171756 
L 384.589279 65.834311 
L 384.719166 65.708753 
L 388.6158 62.234186 
L 388.875576 61.983878 
L 389.070408 61.850743 
L 390.953781 60.184261 
L 391.213556 59.975433 
L 391.668163 59.540979 
L 392.122771 59.165169 
L 392.317602 58.99377 
L 396.409068 55.418315 
L 396.668844 55.16179 
L 398.487273 53.568 
L 398.487273 53.568 
" clip-path="url(#p0021f710cd)" style="fill: none; stroke: #ff0000; stroke-width: 1.5; stroke-linecap: square"/>
   </g>
   <g id="patch_3">
    <path d="M 57.6 307.584 
L 57.6 41.472 
" style="fill: none; stroke: #000000; stroke-width: 0.8; stroke-linejoin: miter; stroke-linecap: square"/>
   </g>
   <g id="patch_4">
    <path d="M 414.72 307.584 
L 414.72 41.472 
" style="fill: none; stroke: #000000; stroke-width: 0.8; stroke-linejoin: miter; stroke-linecap: square"/>
   </g>
   <g id="patch_5">
    <path d="M 57.6 307.584 
L 414.72 307.584 
" style="fill: none; stroke: #000000; stroke-width: 0.8; stroke-linejoin: miter; stroke-linecap: square"/>
   </g>
   <g id="patch_6">
    <path d="M 57.6 41.472 
L 414.72 41.472 
" style="fill: none; stroke: #000000; stroke-width: 0.8; stroke-linejoin: miter; stroke-linecap: square"/>
   </g>
   <g id="text_16">
    <!-- Script19_loss -->
    <g transform="translate(196.532813 35.472) scale(0.12 -0.12)">
     <defs>
      <path id="DejaVuSans-53" d="M 3425 4513 
L 3425 3897 
Q 3066 4069 2747 4153 
Q 2428 4238 2131 4238 
Q 1616 4238 1336 4038 
Q 1056 3838 1056 3469 
Q 1056 3159 1242 3001 
Q 1428 2844 1947 2747 
L 2328 2669 
Q 3034 2534 3370 2195 
Q 3706 1856 3706 1288 
Q 3706 609 3251 259 
Q 2797 -91 1919 -91 
Q 1588 -91 1214 -16 
Q 841 59 441 206 
L 441 856 
Q 825 641 1194 531 
Q 1563 422 1919 422 
Q 2459 422 2753 634 
Q 3047 847 3047 1241 
Q 3047 1584 2836 1778 
Q 2625 1972 2144 2069 
L 1759 2144 
Q 1053 2284 737 2584 
Q 422 2884 422 3419 
Q 422 4038 858 4394 
Q 1294 4750 2059 4750 
Q 2388 4750 2728 4690 
Q 3069 4631 3425 4513 
z
" transform="scale(0.015625)"/>
      <path id="DejaVuSans-72" d="M 2631 2963 
Q 2534 3019 2420 3045 
Q 2306 3072 2169 3072 
Q 1681 3072 1420 2755 
Q 1159 2438 1159 1844 
L 1159 0 
L 581 0 
L 581 3500 
L 1159 3500 
L 1159 2956 
Q 1341 3275 1631 3429 
Q 1922 3584 2338 3584 
Q 2397 3584 2469 3576 
Q 2541 3569 2628 3553 
L 2631 2963 
z
" transform="scale(0.015625)"/>
      <path id="DejaVuSans-69" d="M 603 3500 
L 1178 3500 
L 1178 0 
L 603 0 
L 603 3500 
z
M 603 4863 
L 1178 4863 
L 1178 4134 
L 603 4134 
L 603 4863 
z
" transform="scale(0.015625)"/>
      <path id="DejaVuSans-74" d="M 1172 4494 
L 1172 3500 
L 2356 3500 
L 2356 3053 
L 1172 3053 
L 1172 1153 
Q 1172 725 1289 603 
Q 1406 481 1766 481 
L 2356 481 
L 2356 0 
L 1766 0 
Q 1100 0 847 248 
Q 594 497 594 1153 
L 594 3053 
L 172 3053 
L 172 3500 
L 594 3500 
L 594 4494 
L 1172 4494 
z
" transform="scale(0.015625)"/>
      <path id="DejaVuSans-39" d="M 703 97 
L 703 672 
Q 941 559 1184 500 
Q 1428 441 1663 441 
Q 2288 441 2617 861 
Q 2947 1281 2994 2138 
Q 2813 1869 2534 1725 
Q 2256 1581 1919 1581 
Q 1219 1581 811 2004 
Q 403 2428 403 3163 
Q 403 3881 828 4315 
Q 1253 4750 1959 4750 
Q 2769 4750 3195 4129 
Q 3622 3509 3622 2328 
Q 3622 1225 3098 567 
Q 2575 -91 1691 -91 
Q 1453 -91 1209 -44 
Q 966 3 703 97 
z
M 1959 2075 
Q 2384 2075 2632 2365 
Q 2881 2656 2881 3163 
Q 2881 3666 2632 3958 
Q 2384 4250 1959 4250 
Q 1534 4250 1286 3958 
Q 1038 3666 1038 3163 
Q 1038 2656 1286 2365 
Q 1534 2075 1959 2075 
z
" transform="scale(0.015625)"/>
      <path id="DejaVuSans-5f" d="M 3263 -1063 
L 3263 -1509 
L -63 -1509 
L -63 -1063 
L 3263 -1063 
z
" transform="scale(0.015625)"/>
     </defs>
     <use xlink:href="#DejaVuSans-53"/>
     <use xlink:href="#DejaVuSans-63" x="63.476562"/>
     <use xlink:href="#DejaVuSans-72" x="118.457031"/>
     <use xlink:href="#DejaVuSans-69" x="159.570312"/>
     <use xlink:href="#DejaVuSans-70" x="187.353516"/>
     <use xlink:href="#DejaVuSans-74" x="250.830078"/>
     <use xlink:href="#DejaVuSans-31" x="290.039062"/>
     <use xlink:href="#DejaVuSans-39" x="353.662109"/>
     <use xlink:href="#DejaVuSans-5f" x="417.285156"/>
     <use xlink:href="#DejaVuSans-6c" x="467.285156"/>
     <use xlink:href="#DejaVuSans-6f" x="495.068359"/>
     <use xlink:href="#DejaVuSans-73" x="556.25"/>
     <use xlink:href="#DejaVuSans-73" x="608.349609"/>
    </g>
   </g>
   <g id="legend_1">
    <g id="patch_7">
     <path d="M 64.6 93.506375 
L 164.295312 93.506375 
Q 166.295312 93.506375 166.295312 91.506375 
L 166.295312 48.472 
Q 166.295312 46.472 164.295312 46.472 
L 64.6 46.472 
Q 62.6 46.472 62.6 48.472 
L 62.6 91.506375 
Q 62.6 93.506375 64.6 93.506375 
z
" style="fill: #ffffff; opacity: 0.8; stroke: #cccccc; stroke-linejoin: miter"/>
    </g>
    <g id="line2d_17">
     <path d="M 66.6 54.570438 
L 76.6 54.570438 
L 86.6 54.570438 
" style="fill: none; stroke: #0000ff; stroke-width: 1.5; stroke-linecap: square"/>
    </g>
    <g id="text_17">
     <!-- training set -->
     <g transform="translate(94.6 58.070438) scale(0.1 -0.1)">
      <defs>
       <path id="DejaVuSans-61" d="M 2194 1759 
Q 1497 1759 1228 1600 
Q 959 1441 959 1056 
Q 959 750 1161 570 
Q 1363 391 1709 391 
Q 2188 391 2477 730 
Q 2766 1069 2766 1631 
L 2766 1759 
L 2194 1759 
z
M 3341 1997 
L 3341 0 
L 2766 0 
L 2766 531 
Q 2569 213 2275 61 
Q 1981 -91 1556 -91 
Q 1019 -91 701 211 
Q 384 513 384 1019 
Q 384 1609 779 1909 
Q 1175 2209 1959 2209 
L 2766 2209 
L 2766 2266 
Q 2766 2663 2505 2880 
Q 2244 3097 1772 3097 
Q 1472 3097 1187 3025 
Q 903 2953 641 2809 
L 641 3341 
Q 956 3463 1253 3523 
Q 1550 3584 1831 3584 
Q 2591 3584 2966 3190 
Q 3341 2797 3341 1997 
z
" transform="scale(0.015625)"/>
       <path id="DejaVuSans-6e" d="M 3513 2113 
L 3513 0 
L 2938 0 
L 2938 2094 
Q 2938 2591 2744 2837 
Q 2550 3084 2163 3084 
Q 1697 3084 1428 2787 
Q 1159 2491 1159 1978 
L 1159 0 
L 581 0 
L 581 3500 
L 1159 3500 
L 1159 2956 
Q 1366 3272 1645 3428 
Q 1925 3584 2291 3584 
Q 2894 3584 3203 3211 
Q 3513 2838 3513 2113 
z
" transform="scale(0.015625)"/>
       <path id="DejaVuSans-67" d="M 2906 1791 
Q 2906 2416 2648 2759 
Q 2391 3103 1925 3103 
Q 1463 3103 1205 2759 
Q 947 2416 947 1791 
Q 947 1169 1205 825 
Q 1463 481 1925 481 
Q 2391 481 2648 825 
Q 2906 1169 2906 1791 
z
M 3481 434 
Q 3481 -459 3084 -895 
Q 2688 -1331 1869 -1331 
Q 1566 -1331 1297 -1286 
Q 1028 -1241 775 -1147 
L 775 -588 
Q 1028 -725 1275 -790 
Q 1522 -856 1778 -856 
Q 2344 -856 2625 -561 
Q 2906 -266 2906 331 
L 2906 616 
Q 2728 306 2450 153 
Q 2172 0 1784 0 
Q 1141 0 747 490 
Q 353 981 353 1791 
Q 353 2603 747 3093 
Q 1141 3584 1784 3584 
Q 2172 3584 2450 3431 
Q 2728 3278 2906 2969 
L 2906 3500 
L 3481 3500 
L 3481 434 
z
" transform="scale(0.015625)"/>
       <path id="DejaVuSans-20" transform="scale(0.015625)"/>
      </defs>
      <use xlink:href="#DejaVuSans-74"/>
      <use xlink:href="#DejaVuSans-72" x="39.208984"/>
      <use xlink:href="#DejaVuSans-61" x="80.322266"/>
      <use xlink:href="#DejaVuSans-69" x="141.601562"/>
      <use xlink:href="#DejaVuSans-6e" x="169.384766"/>
      <use xlink:href="#DejaVuSans-69" x="232.763672"/>
      <use xlink:href="#DejaVuSans-6e" x="260.546875"/>
      <use xlink:href="#DejaVuSans-67" x="323.925781"/>
      <use xlink:href="#DejaVuSans-20" x="387.402344"/>
      <use xlink:href="#DejaVuSans-73" x="419.189453"/>
      <use xlink:href="#DejaVuSans-65" x="471.289062"/>
      <use xlink:href="#DejaVuSans-74" x="532.8125"/>
     </g>
    </g>
    <g id="line2d_18">
     <path d="M 66.6 69.248563 
L 76.6 69.248563 
L 86.6 69.248563 
" style="fill: none; stroke: #008000; stroke-width: 1.5; stroke-linecap: square"/>
    </g>
    <g id="text_18">
     <!-- validation set -->
     <g transform="translate(94.6 72.748563) scale(0.1 -0.1)">
      <defs>
       <path id="DejaVuSans-76" d="M 191 3500 
L 800 3500 
L 1894 563 
L 2988 3500 
L 3597 3500 
L 2284 0 
L 1503 0 
L 191 3500 
z
" transform="scale(0.015625)"/>
       <path id="DejaVuSans-64" d="M 2906 2969 
L 2906 4863 
L 3481 4863 
L 3481 0 
L 2906 0 
L 2906 525 
Q 2725 213 2448 61 
Q 2172 -91 1784 -91 
Q 1150 -91 751 415 
Q 353 922 353 1747 
Q 353 2572 751 3078 
Q 1150 3584 1784 3584 
Q 2172 3584 2448 3432 
Q 2725 3281 2906 2969 
z
M 947 1747 
Q 947 1113 1208 752 
Q 1469 391 1925 391 
Q 2381 391 2643 752 
Q 2906 1113 2906 1747 
Q 2906 2381 2643 2742 
Q 2381 3103 1925 3103 
Q 1469 3103 1208 2742 
Q 947 2381 947 1747 
z
" transform="scale(0.015625)"/>
      </defs>
      <use xlink:href="#DejaVuSans-76"/>
      <use xlink:href="#DejaVuSans-61" x="59.179688"/>
      <use xlink:href="#DejaVuSans-6c" x="120.458984"/>
      <use xlink:href="#DejaVuSans-69" x="148.242188"/>
      <use xlink:href="#DejaVuSans-64" x="176.025391"/>
      <use xlink:href="#DejaVuSans-61" x="239.501953"/>
      <use xlink:href="#DejaVuSans-74" x="300.78125"/>
      <use xlink:href="#DejaVuSans-69" x="339.990234"/>
      <use xlink:href="#DejaVuSans-6f" x="367.773438"/>
      <use xlink:href="#DejaVuSans-6e" x="428.955078"/>
      <use xlink:href="#DejaVuSans-20" x="492.333984"/>
      <use xlink:href="#DejaVuSans-73" x="524.121094"/>
      <use xlink:href="#DejaVuSans-65" x="576.220703"/>
      <use xlink:href="#DejaVuSans-74" x="637.744141"/>
     </g>
    </g>
    <g id="line2d_19">
     <path d="M 66.6 83.926688 
L 76.6 83.926688 
L 86.6 83.926688 
" style="fill: none; stroke: #ff0000; stroke-width: 1.5; stroke-linecap: square"/>
    </g>
    <g id="text_19">
     <!-- test set -->
     <g transform="translate(94.6 87.426688) scale(0.1 -0.1)">
      <use xlink:href="#DejaVuSans-74"/>
      <use xlink:href="#DejaVuSans-65" x="39.208984"/>
      <use xlink:href="#DejaVuSans-73" x="100.732422"/>
      <use xlink:href="#DejaVuSans-74" x="152.832031"/>
      <use xlink:href="#DejaVuSans-20" x="192.041016"/>
      <use xlink:href="#DejaVuSans-73" x="223.828125"/>
      <use xlink:href="#DejaVuSans-65" x="275.927734"/>
      <use xlink:href="#DejaVuSans-74" x="337.451172"/>
     </g>
    </g>
   </g>
  </g>
 </g>
 <defs>
  <clipPath id="p0021f710cd">
   <rect x="57.6" y="41.472" width="357.12" height="266.112"/>
  </clipPath>
 </defs>
</svg>
