<?xml version="1.0" encoding="utf-8" standalone="no"?>
<!DOCTYPE svg PUBLIC "-//W3C//DTD SVG 1.1//EN"
  "http://www.w3.org/Graphics/SVG/1.1/DTD/svg11.dtd">
<svg xmlns:xlink="http://www.w3.org/1999/xlink" width="460.8pt" height="345.6pt" viewBox="0 0 460.8 345.6" xmlns="http://www.w3.org/2000/svg" version="1.1">
 <metadata>
  <rdf:RDF xmlns:dc="http://purl.org/dc/elements/1.1/" xmlns:cc="http://creativecommons.org/ns#" xmlns:rdf="http://www.w3.org/1999/02/22-rdf-syntax-ns#">
   <cc:Work>
    <dc:type rdf:resource="http://purl.org/dc/dcmitype/StillImage"/>
    <dc:date>2023-06-14T03:59:39.073583</dc:date>
    <dc:format>image/svg+xml</dc:format>
    <dc:creator>
     <cc:Agent>
      <dc:title>Matplotlib v3.7.1, https://matplotlib.org/</dc:title>
     </cc:Agent>
    </dc:creator>
   </cc:Work>
  </rdf:RDF>
 </metadata>
 <defs>
  <style type="text/css">*{stroke-linejoin: round; stroke-linecap: butt}</style>
 </defs>
 <g id="figure_1">
  <g id="patch_1">
   <path d="M 0 345.6 
L 460.8 345.6 
L 460.8 0 
L 0 0 
z
" style="fill: #ffffff"/>
  </g>
  <g id="axes_1">
   <g id="patch_2">
    <path d="M 57.6 307.584 
L 414.72 307.584 
L 414.72 41.472 
L 57.6 41.472 
z
" style="fill: #ffffff"/>
   </g>
   <g id="matplotlib.axis_1">
    <g id="xtick_1">
     <g id="line2d_1">
      <defs>
       <path id="m0181d41f5f" d="M 0 0 
L 0 3.5 
" style="stroke: #000000; stroke-width: 0.8"/>
      </defs>
      <g>
       <use xlink:href="#m0181d41f5f" x="73.767783" y="307.584" style="stroke: #000000; stroke-width: 0.8"/>
      </g>
     </g>
     <g id="text_1">
      <!-- 0 -->
      <g transform="translate(70.586533 322.182437) scale(0.1 -0.1)">
       <defs>
        <path id="DejaVuSans-30" d="M 2034 4250 
Q 1547 4250 1301 3770 
Q 1056 3291 1056 2328 
Q 1056 1369 1301 889 
Q 1547 409 2034 409 
Q 2525 409 2770 889 
Q 3016 1369 3016 2328 
Q 3016 3291 2770 3770 
Q 2525 4250 2034 4250 
z
M 2034 4750 
Q 2819 4750 3233 4129 
Q 3647 3509 3647 2328 
Q 3647 1150 3233 529 
Q 2819 -91 2034 -91 
Q 1250 -91 836 529 
Q 422 1150 422 2328 
Q 422 3509 836 4129 
Q 1250 4750 2034 4750 
z
" transform="scale(0.015625)"/>
       </defs>
       <use xlink:href="#DejaVuSans-30"/>
      </g>
     </g>
    </g>
    <g id="xtick_2">
     <g id="line2d_2">
      <g>
       <use xlink:href="#m0181d41f5f" x="138.711681" y="307.584" style="stroke: #000000; stroke-width: 0.8"/>
      </g>
     </g>
     <g id="text_2">
      <!-- 1000 -->
      <g transform="translate(125.986681 322.182437) scale(0.1 -0.1)">
       <defs>
        <path id="DejaVuSans-31" d="M 794 531 
L 1825 531 
L 1825 4091 
L 703 3866 
L 703 4441 
L 1819 4666 
L 2450 4666 
L 2450 531 
L 3481 531 
L 3481 0 
L 794 0 
L 794 531 
z
" transform="scale(0.015625)"/>
       </defs>
       <use xlink:href="#DejaVuSans-31"/>
       <use xlink:href="#DejaVuSans-30" x="63.623047"/>
       <use xlink:href="#DejaVuSans-30" x="127.246094"/>
       <use xlink:href="#DejaVuSans-30" x="190.869141"/>
      </g>
     </g>
    </g>
    <g id="xtick_3">
     <g id="line2d_3">
      <g>
       <use xlink:href="#m0181d41f5f" x="203.655579" y="307.584" style="stroke: #000000; stroke-width: 0.8"/>
      </g>
     </g>
     <g id="text_3">
      <!-- 2000 -->
      <g transform="translate(190.930579 322.182437) scale(0.1 -0.1)">
       <defs>
        <path id="DejaVuSans-32" d="M 1228 531 
L 3431 531 
L 3431 0 
L 469 0 
L 469 531 
Q 828 903 1448 1529 
Q 2069 2156 2228 2338 
Q 2531 2678 2651 2914 
Q 2772 3150 2772 3378 
Q 2772 3750 2511 3984 
Q 2250 4219 1831 4219 
Q 1534 4219 1204 4116 
Q 875 4013 500 3803 
L 500 4441 
Q 881 4594 1212 4672 
Q 1544 4750 1819 4750 
Q 2544 4750 2975 4387 
Q 3406 4025 3406 3419 
Q 3406 3131 3298 2873 
Q 3191 2616 2906 2266 
Q 2828 2175 2409 1742 
Q 1991 1309 1228 531 
z
" transform="scale(0.015625)"/>
       </defs>
       <use xlink:href="#DejaVuSans-32"/>
       <use xlink:href="#DejaVuSans-30" x="63.623047"/>
       <use xlink:href="#DejaVuSans-30" x="127.246094"/>
       <use xlink:href="#DejaVuSans-30" x="190.869141"/>
      </g>
     </g>
    </g>
    <g id="xtick_4">
     <g id="line2d_4">
      <g>
       <use xlink:href="#m0181d41f5f" x="268.599477" y="307.584" style="stroke: #000000; stroke-width: 0.8"/>
      </g>
     </g>
     <g id="text_4">
      <!-- 3000 -->
      <g transform="translate(255.874477 322.182437) scale(0.1 -0.1)">
       <defs>
        <path id="DejaVuSans-33" d="M 2597 2516 
Q 3050 2419 3304 2112 
Q 3559 1806 3559 1356 
Q 3559 666 3084 287 
Q 2609 -91 1734 -91 
Q 1441 -91 1130 -33 
Q 819 25 488 141 
L 488 750 
Q 750 597 1062 519 
Q 1375 441 1716 441 
Q 2309 441 2620 675 
Q 2931 909 2931 1356 
Q 2931 1769 2642 2001 
Q 2353 2234 1838 2234 
L 1294 2234 
L 1294 2753 
L 1863 2753 
Q 2328 2753 2575 2939 
Q 2822 3125 2822 3475 
Q 2822 3834 2567 4026 
Q 2313 4219 1838 4219 
Q 1578 4219 1281 4162 
Q 984 4106 628 3988 
L 628 4550 
Q 988 4650 1302 4700 
Q 1616 4750 1894 4750 
Q 2613 4750 3031 4423 
Q 3450 4097 3450 3541 
Q 3450 3153 3228 2886 
Q 3006 2619 2597 2516 
z
" transform="scale(0.015625)"/>
       </defs>
       <use xlink:href="#DejaVuSans-33"/>
       <use xlink:href="#DejaVuSans-30" x="63.623047"/>
       <use xlink:href="#DejaVuSans-30" x="127.246094"/>
       <use xlink:href="#DejaVuSans-30" x="190.869141"/>
      </g>
     </g>
    </g>
    <g id="xtick_5">
     <g id="line2d_5">
      <g>
       <use xlink:href="#m0181d41f5f" x="333.543375" y="307.584" style="stroke: #000000; stroke-width: 0.8"/>
      </g>
     </g>
     <g id="text_5">
      <!-- 4000 -->
      <g transform="translate(320.818375 322.182437) scale(0.1 -0.1)">
       <defs>
        <path id="DejaVuSans-34" d="M 2419 4116 
L 825 1625 
L 2419 1625 
L 2419 4116 
z
M 2253 4666 
L 3047 4666 
L 3047 1625 
L 3713 1625 
L 3713 1100 
L 3047 1100 
L 3047 0 
L 2419 0 
L 2419 1100 
L 313 1100 
L 313 1709 
L 2253 4666 
z
" transform="scale(0.015625)"/>
       </defs>
       <use xlink:href="#DejaVuSans-34"/>
       <use xlink:href="#DejaVuSans-30" x="63.623047"/>
       <use xlink:href="#DejaVuSans-30" x="127.246094"/>
       <use xlink:href="#DejaVuSans-30" x="190.869141"/>
      </g>
     </g>
    </g>
    <g id="xtick_6">
     <g id="line2d_6">
      <g>
       <use xlink:href="#m0181d41f5f" x="398.487273" y="307.584" style="stroke: #000000; stroke-width: 0.8"/>
      </g>
     </g>
     <g id="text_6">
      <!-- 5000 -->
      <g transform="translate(385.762273 322.182437) scale(0.1 -0.1)">
       <defs>
        <path id="DejaVuSans-35" d="M 691 4666 
L 3169 4666 
L 3169 4134 
L 1269 4134 
L 1269 2991 
Q 1406 3038 1543 3061 
Q 1681 3084 1819 3084 
Q 2600 3084 3056 2656 
Q 3513 2228 3513 1497 
Q 3513 744 3044 326 
Q 2575 -91 1722 -91 
Q 1428 -91 1123 -41 
Q 819 9 494 109 
L 494 744 
Q 775 591 1075 516 
Q 1375 441 1709 441 
Q 2250 441 2565 725 
Q 2881 1009 2881 1497 
Q 2881 1984 2565 2268 
Q 2250 2553 1709 2553 
Q 1456 2553 1204 2497 
Q 953 2441 691 2322 
L 691 4666 
z
" transform="scale(0.015625)"/>
       </defs>
       <use xlink:href="#DejaVuSans-35"/>
       <use xlink:href="#DejaVuSans-30" x="63.623047"/>
       <use xlink:href="#DejaVuSans-30" x="127.246094"/>
       <use xlink:href="#DejaVuSans-30" x="190.869141"/>
      </g>
     </g>
    </g>
    <g id="text_7">
     <!-- epoch -->
     <g transform="translate(220.931875 335.860562) scale(0.1 -0.1)">
      <defs>
       <path id="DejaVuSans-65" d="M 3597 1894 
L 3597 1613 
L 953 1613 
Q 991 1019 1311 708 
Q 1631 397 2203 397 
Q 2534 397 2845 478 
Q 3156 559 3463 722 
L 3463 178 
Q 3153 47 2828 -22 
Q 2503 -91 2169 -91 
Q 1331 -91 842 396 
Q 353 884 353 1716 
Q 353 2575 817 3079 
Q 1281 3584 2069 3584 
Q 2775 3584 3186 3129 
Q 3597 2675 3597 1894 
z
M 3022 2063 
Q 3016 2534 2758 2815 
Q 2500 3097 2075 3097 
Q 1594 3097 1305 2825 
Q 1016 2553 972 2059 
L 3022 2063 
z
" transform="scale(0.015625)"/>
       <path id="DejaVuSans-70" d="M 1159 525 
L 1159 -1331 
L 581 -1331 
L 581 3500 
L 1159 3500 
L 1159 2969 
Q 1341 3281 1617 3432 
Q 1894 3584 2278 3584 
Q 2916 3584 3314 3078 
Q 3713 2572 3713 1747 
Q 3713 922 3314 415 
Q 2916 -91 2278 -91 
Q 1894 -91 1617 61 
Q 1341 213 1159 525 
z
M 3116 1747 
Q 3116 2381 2855 2742 
Q 2594 3103 2138 3103 
Q 1681 3103 1420 2742 
Q 1159 2381 1159 1747 
Q 1159 1113 1420 752 
Q 1681 391 2138 391 
Q 2594 391 2855 752 
Q 3116 1113 3116 1747 
z
" transform="scale(0.015625)"/>
       <path id="DejaVuSans-6f" d="M 1959 3097 
Q 1497 3097 1228 2736 
Q 959 2375 959 1747 
Q 959 1119 1226 758 
Q 1494 397 1959 397 
Q 2419 397 2687 759 
Q 2956 1122 2956 1747 
Q 2956 2369 2687 2733 
Q 2419 3097 1959 3097 
z
M 1959 3584 
Q 2709 3584 3137 3096 
Q 3566 2609 3566 1747 
Q 3566 888 3137 398 
Q 2709 -91 1959 -91 
Q 1206 -91 779 398 
Q 353 888 353 1747 
Q 353 2609 779 3096 
Q 1206 3584 1959 3584 
z
" transform="scale(0.015625)"/>
       <path id="DejaVuSans-63" d="M 3122 3366 
L 3122 2828 
Q 2878 2963 2633 3030 
Q 2388 3097 2138 3097 
Q 1578 3097 1268 2742 
Q 959 2388 959 1747 
Q 959 1106 1268 751 
Q 1578 397 2138 397 
Q 2388 397 2633 464 
Q 2878 531 3122 666 
L 3122 134 
Q 2881 22 2623 -34 
Q 2366 -91 2075 -91 
Q 1284 -91 818 406 
Q 353 903 353 1747 
Q 353 2603 823 3093 
Q 1294 3584 2113 3584 
Q 2378 3584 2631 3529 
Q 2884 3475 3122 3366 
z
" transform="scale(0.015625)"/>
       <path id="DejaVuSans-68" d="M 3513 2113 
L 3513 0 
L 2938 0 
L 2938 2094 
Q 2938 2591 2744 2837 
Q 2550 3084 2163 3084 
Q 1697 3084 1428 2787 
Q 1159 2491 1159 1978 
L 1159 0 
L 581 0 
L 581 4863 
L 1159 4863 
L 1159 2956 
Q 1366 3272 1645 3428 
Q 1925 3584 2291 3584 
Q 2894 3584 3203 3211 
Q 3513 2838 3513 2113 
z
" transform="scale(0.015625)"/>
      </defs>
      <use xlink:href="#DejaVuSans-65"/>
      <use xlink:href="#DejaVuSans-70" x="61.523438"/>
      <use xlink:href="#DejaVuSans-6f" x="125"/>
      <use xlink:href="#DejaVuSans-63" x="186.181641"/>
      <use xlink:href="#DejaVuSans-68" x="241.162109"/>
     </g>
    </g>
   </g>
   <g id="matplotlib.axis_2">
    <g id="ytick_1">
     <g id="line2d_7">
      <defs>
       <path id="m73265d5bf6" d="M 0 0 
L -3.5 0 
" style="stroke: #000000; stroke-width: 0.8"/>
      </defs>
      <g>
       <use xlink:href="#m73265d5bf6" x="57.6" y="295.806603" style="stroke: #000000; stroke-width: 0.8"/>
      </g>
     </g>
     <g id="text_8">
      <!-- 0 -->
      <g transform="translate(44.2375 299.605822) scale(0.1 -0.1)">
       <use xlink:href="#DejaVuSans-30"/>
      </g>
     </g>
    </g>
    <g id="ytick_2">
     <g id="line2d_8">
      <g>
       <use xlink:href="#m73265d5bf6" x="57.6" y="259.560649" style="stroke: #000000; stroke-width: 0.8"/>
      </g>
     </g>
     <g id="text_9">
      <!-- 5 -->
      <g transform="translate(44.2375 263.359868) scale(0.1 -0.1)">
       <use xlink:href="#DejaVuSans-35"/>
      </g>
     </g>
    </g>
    <g id="ytick_3">
     <g id="line2d_9">
      <g>
       <use xlink:href="#m73265d5bf6" x="57.6" y="223.314695" style="stroke: #000000; stroke-width: 0.8"/>
      </g>
     </g>
     <g id="text_10">
      <!-- 10 -->
      <g transform="translate(37.875 227.113914) scale(0.1 -0.1)">
       <use xlink:href="#DejaVuSans-31"/>
       <use xlink:href="#DejaVuSans-30" x="63.623047"/>
      </g>
     </g>
    </g>
    <g id="ytick_4">
     <g id="line2d_10">
      <g>
       <use xlink:href="#m73265d5bf6" x="57.6" y="187.068741" style="stroke: #000000; stroke-width: 0.8"/>
      </g>
     </g>
     <g id="text_11">
      <!-- 15 -->
      <g transform="translate(37.875 190.86796) scale(0.1 -0.1)">
       <use xlink:href="#DejaVuSans-31"/>
       <use xlink:href="#DejaVuSans-35" x="63.623047"/>
      </g>
     </g>
    </g>
    <g id="ytick_5">
     <g id="line2d_11">
      <g>
       <use xlink:href="#m73265d5bf6" x="57.6" y="150.822787" style="stroke: #000000; stroke-width: 0.8"/>
      </g>
     </g>
     <g id="text_12">
      <!-- 20 -->
      <g transform="translate(37.875 154.622006) scale(0.1 -0.1)">
       <use xlink:href="#DejaVuSans-32"/>
       <use xlink:href="#DejaVuSans-30" x="63.623047"/>
      </g>
     </g>
    </g>
    <g id="ytick_6">
     <g id="line2d_12">
      <g>
       <use xlink:href="#m73265d5bf6" x="57.6" y="114.576833" style="stroke: #000000; stroke-width: 0.8"/>
      </g>
     </g>
     <g id="text_13">
      <!-- 25 -->
      <g transform="translate(37.875 118.376052) scale(0.1 -0.1)">
       <use xlink:href="#DejaVuSans-32"/>
       <use xlink:href="#DejaVuSans-35" x="63.623047"/>
      </g>
     </g>
    </g>
    <g id="ytick_7">
     <g id="line2d_13">
      <g>
       <use xlink:href="#m73265d5bf6" x="57.6" y="78.330879" style="stroke: #000000; stroke-width: 0.8"/>
      </g>
     </g>
     <g id="text_14">
      <!-- 30 -->
      <g transform="translate(37.875 82.130098) scale(0.1 -0.1)">
       <use xlink:href="#DejaVuSans-33"/>
       <use xlink:href="#DejaVuSans-30" x="63.623047"/>
      </g>
     </g>
    </g>
    <g id="ytick_8">
     <g id="line2d_14">
      <g>
       <use xlink:href="#m73265d5bf6" x="57.6" y="42.084925" style="stroke: #000000; stroke-width: 0.8"/>
      </g>
     </g>
     <g id="text_15">
      <!-- 35 -->
      <g transform="translate(37.875 45.884144) scale(0.1 -0.1)">
       <use xlink:href="#DejaVuSans-33"/>
       <use xlink:href="#DejaVuSans-35" x="63.623047"/>
      </g>
     </g>
    </g>
    <g id="text_16">
     <!-- loss -->
     <g transform="translate(31.795313 184.185812) rotate(-90) scale(0.1 -0.1)">
      <defs>
       <path id="DejaVuSans-6c" d="M 603 4863 
L 1178 4863 
L 1178 0 
L 603 0 
L 603 4863 
z
" transform="scale(0.015625)"/>
       <path id="DejaVuSans-73" d="M 2834 3397 
L 2834 2853 
Q 2591 2978 2328 3040 
Q 2066 3103 1784 3103 
Q 1356 3103 1142 2972 
Q 928 2841 928 2578 
Q 928 2378 1081 2264 
Q 1234 2150 1697 2047 
L 1894 2003 
Q 2506 1872 2764 1633 
Q 3022 1394 3022 966 
Q 3022 478 2636 193 
Q 2250 -91 1575 -91 
Q 1294 -91 989 -36 
Q 684 19 347 128 
L 347 722 
Q 666 556 975 473 
Q 1284 391 1588 391 
Q 1994 391 2212 530 
Q 2431 669 2431 922 
Q 2431 1156 2273 1281 
Q 2116 1406 1581 1522 
L 1381 1569 
Q 847 1681 609 1914 
Q 372 2147 372 2553 
Q 372 3047 722 3315 
Q 1072 3584 1716 3584 
Q 2034 3584 2315 3537 
Q 2597 3491 2834 3397 
z
" transform="scale(0.015625)"/>
      </defs>
      <use xlink:href="#DejaVuSans-6c"/>
      <use xlink:href="#DejaVuSans-6f" x="27.783203"/>
      <use xlink:href="#DejaVuSans-73" x="88.964844"/>
      <use xlink:href="#DejaVuSans-73" x="141.064453"/>
     </g>
    </g>
   </g>
   <g id="line2d_15">
    <path d="M 73.832727 282.646583 
L 74.287335 283.015971 
L 76.430483 284.283694 
L 77.664417 285.548278 
L 79.612734 287.549034 
L 80.71678 288.353646 
L 81.950715 288.971087 
L 83.444424 289.448811 
L 85.522629 289.855878 
L 89.094543 290.298994 
L 98.836128 291.214858 
L 107.733442 291.851849 
L 117.669858 292.340459 
L 130.074143 292.774951 
L 133.840889 292.883388 
L 140.075503 293.053378 
L 146.050342 293.19235 
L 184.042522 293.838148 
L 203.265916 294.084879 
L 209.50053 294.157453 
L 224.112907 294.380797 
L 229.113587 294.438646 
L 316.852793 295.037971 
L 327.63348 295.109607 
L 364.846334 295.346559 
L 398.487273 295.488 
L 398.487273 295.488 
" clip-path="url(#p393d6be3fe)" style="fill: none; stroke: #0000ff; stroke-width: 1.5; stroke-linecap: square"/>
   </g>
   <g id="line2d_16">
    <path d="M 73.832727 282.422048 
L 74.352278 283.094645 
L 74.87183 283.378197 
L 76.820147 284.343481 
L 79.937454 286.750889 
L 81.0415 287.208026 
L 82.145546 287.428417 
L 83.509368 287.492063 
L 85.652517 287.374523 
L 88.510048 287.038904 
L 97.53725 285.445703 
L 98.251633 285.290152 
L 98.771184 285.19231 
L 103.252313 284.021053 
L 103.447145 283.988696 
L 106.824227 282.963366 
L 107.343779 282.801117 
L 107.603554 282.699171 
L 107.993218 282.584634 
L 108.382881 282.45583 
L 111.69502 281.469942 
L 112.019739 281.366934 
L 112.279515 281.280332 
L 120.137726 278.52177 
L 120.917053 278.194656 
L 121.046941 278.215197 
L 121.241773 278.103871 
L 121.566492 277.989845 
L 121.891212 277.836541 
L 122.215931 277.722944 
L 124.488968 276.792791 
L 124.748743 276.691804 
L 127.801106 275.488898 
L 127.995938 275.432746 
L 129.03504 274.964857 
L 129.294816 274.868251 
L 131.69774 273.874228 
L 131.827628 273.801439 
L 132.152348 273.623326 
L 132.347179 273.608421 
L 132.606955 273.479584 
L 133.256394 273.222298 
L 133.516169 273.10981 
L 134.36044 272.715876 
L 134.555272 272.704714 
L 134.879991 272.566687 
L 135.659318 272.238634 
L 143.322698 269.171303 
L 143.777305 268.956434 
L 144.3618 268.718363 
L 144.491688 268.657707 
L 144.68652 268.61501 
L 145.271015 268.322687 
L 145.595734 268.244907 
L 145.85551 268.147725 
L 146.569893 267.798032 
L 146.699781 267.728907 
L 147.0245 267.593825 
L 147.34922 267.484104 
L 147.608995 267.32771 
L 148.388322 267.035036 
L 148.713042 266.847214 
L 149.167649 266.697374 
L 149.622256 266.470926 
L 149.752144 266.448506 
L 149.882032 266.380848 
L 149.946976 266.415263 
L 150.076863 266.236141 
L 150.141807 266.284321 
L 150.271695 266.228132 
L 150.661358 266.02061 
L 150.85619 265.981035 
L 151.051022 265.909979 
L 151.830349 265.548203 
L 151.960236 265.493165 
L 152.02518 265.531849 
L 152.155068 265.379019 
L 152.220012 265.427457 
L 152.804507 265.157169 
L 152.934395 265.09164 
L 153.064283 265.015801 
L 153.389002 264.871602 
L 153.453946 264.927596 
L 153.51889 264.849009 
L 153.648778 264.7673 
L 153.778666 264.717758 
L 153.908553 264.682791 
L 154.038441 264.579543 
L 154.168329 264.593432 
L 174.171049 255.864826 
L 174.365881 255.687829 
L 174.495769 255.633286 
L 174.950376 255.440583 
L 175.275096 255.320163 
L 175.404984 255.289429 
L 175.599815 255.212415 
L 176.054423 254.959769 
L 176.379142 254.875896 
L 176.768805 254.629946 
L 176.963637 254.605027 
L 177.288357 254.45268 
L 177.483188 254.364715 
L 177.937796 254.189623 
L 178.262515 253.999502 
L 178.587235 253.881654 
L 179.301617 253.535961 
L 179.431505 253.503499 
L 179.821169 253.311287 
L 179.951056 253.250059 
L 195.212872 246.509405 
L 195.34276 246.465553 
L 195.472648 246.41249 
L 195.797367 246.210239 
L 195.927255 246.232421 
L 196.187031 246.030986 
L 196.381863 246.006101 
L 196.446806 245.931385 
L 196.51175 245.994418 
L 196.576694 246.00447 
L 196.706582 245.794618 
L 196.83647 245.825497 
L 197.096245 245.68089 
L 197.420965 245.513593 
L 197.485909 245.567562 
L 197.615797 245.37461 
L 197.680741 245.423381 
L 198.200292 245.197103 
L 198.395123 245.107675 
L 198.914675 244.856208 
L 199.49917 244.608979 
L 199.823889 244.439788 
L 200.083665 244.368701 
L 200.213553 244.246791 
L 200.34344 244.18763 
L 200.66816 244.029819 
L 200.798048 243.966976 
L 200.927935 243.972127 
L 201.187711 243.880217 
L 201.317599 243.721755 
L 201.382543 243.782417 
L 204.629738 242.238479 
L 204.759625 242.242395 
L 205.019401 242.104529 
L 205.084345 242.109029 
L 205.214233 241.961277 
L 205.34412 241.951678 
L 205.474008 241.886139 
L 206.383223 241.468585 
L 206.772886 241.264703 
L 206.902774 241.249715 
L 207.097606 241.158231 
L 207.487269 240.923916 
L 207.876932 240.796008 
L 208.136708 240.59494 
L 208.266596 240.624332 
L 208.461428 240.510642 
L 208.721203 240.391825 
L 209.045923 240.13975 
L 209.17581 240.181914 
L 209.305698 240.119725 
L 209.435586 240.031051 
L 209.760306 239.888777 
L 211.124127 239.251762 
L 211.383903 239.088742 
L 211.773566 238.971495 
L 212.16323 238.785065 
L 212.812669 238.443828 
L 213.137388 238.29665 
L 213.33222 238.225404 
L 213.656939 238.071993 
L 214.631098 237.899173 
L 214.696042 237.796264 
L 214.760986 237.846956 
L 215.150649 237.68303 
L 215.410425 237.484879 
L 217.034022 236.692386 
L 217.293798 236.530239 
L 217.423685 236.519081 
L 217.683461 236.355718 
L 218.138068 236.131324 
L 219.242115 235.540501 
L 219.307059 235.593782 
L 219.436946 235.375631 
L 219.50189 235.456441 
L 219.566834 235.381749 
L 219.696722 235.32506 
L 219.956497 235.182638 
L 220.216273 235.031656 
L 220.476049 234.858214 
L 220.605936 234.884906 
L 220.735824 234.747953 
L 220.865712 234.691118 
L 221.255375 234.513161 
L 222.878973 233.6164 
L 223.918075 233.091123 
L 224.242795 232.948977 
L 224.632458 232.701147 
L 224.697402 232.751545 
L 224.82729 232.576678 
L 224.957178 232.55945 
L 225.281897 232.343124 
L 225.411785 232.333203 
L 225.476729 232.214107 
L 225.541673 232.250056 
L 225.736504 232.185624 
L 226.061224 231.941679 
L 226.256056 231.851998 
L 226.580775 231.680644 
L 226.710663 231.635652 
L 226.970438 231.43871 
L 227.100326 231.448251 
L 227.360102 231.24 
L 227.554934 231.172145 
L 227.814709 231.034721 
L 228.074485 230.882952 
L 228.204373 230.858423 
L 228.594036 230.651893 
L 228.853811 230.54448 
L 228.983699 230.459086 
L 229.048643 230.46226 
L 229.178531 230.296754 
L 229.243475 230.350305 
L 229.373363 230.170191 
L 229.438307 230.264689 
L 229.568194 230.039777 
L 229.633138 230.113612 
L 230.477409 229.686552 
L 230.672241 229.567324 
L 231.126848 229.279251 
L 231.191792 229.314171 
L 231.32168 229.143272 
L 231.386624 229.200494 
L 231.516511 229.060353 
L 231.581455 229.146528 
L 231.711343 228.939964 
L 231.776287 229.035168 
L 231.906175 228.791423 
L 231.971119 228.847594 
L 232.295838 228.677145 
L 232.360782 228.584243 
L 232.425726 228.648641 
L 232.750445 228.436857 
L 232.815389 228.291711 
L 232.880333 228.396774 
L 232.945277 228.388388 
L 233.140109 228.224811 
L 233.269997 228.136472 
L 233.464828 228.085969 
L 234.049323 227.7795 
L 234.179211 227.658862 
L 234.309099 227.607647 
L 234.698762 227.387457 
L 234.82865 227.328638 
L 236.127528 226.669884 
L 236.257416 226.575516 
L 236.387304 226.47342 
L 237.16663 226.079067 
L 237.816069 225.721591 
L 238.075845 225.639882 
L 238.66034 225.309063 
L 238.790228 225.256397 
L 239.050003 225.054804 
L 239.179891 225.053158 
L 239.374723 224.943948 
L 239.439667 224.982407 
L 239.569555 224.779721 
L 239.634499 224.865433 
L 239.699442 224.784035 
L 239.764386 224.654934 
L 239.82933 224.711562 
L 240.089106 224.577373 
L 240.673601 224.2155 
L 240.803489 224.178092 
L 243.206413 222.964284 
L 243.466189 222.769721 
L 243.790908 222.585902 
L 243.855852 222.657732 
L 243.98574 222.48487 
L 244.050684 222.538504 
L 244.635179 222.150042 
L 244.765066 222.158801 
L 245.024842 221.990073 
L 245.284618 221.914683 
L 245.414505 221.755648 
L 245.479449 221.830859 
L 245.609337 221.601445 
L 245.674281 221.662089 
L 245.999001 221.481823 
L 246.063944 221.379333 
L 246.128888 221.428563 
L 246.583496 221.203007 
L 246.843271 221.017356 
L 247.362822 220.756072 
L 247.622598 220.550531 
L 248.921476 219.945528 
L 249.051364 219.888361 
L 249.116308 219.817368 
L 249.181252 219.936147 
L 249.311139 219.684811 
L 249.376083 219.775356 
L 249.700803 219.470656 
L 249.960578 219.343318 
L 250.025522 219.231875 
L 250.090466 219.274447 
L 251.389344 218.672805 
L 251.519232 218.49314 
L 251.584176 218.555831 
L 251.779007 218.417612 
L 251.973839 218.32312 
L 252.428446 218.07885 
L 252.81811 217.919697 
L 252.947998 217.840698 
L 253.402605 217.524522 
L 253.532493 217.51427 
L 254.896315 216.800126 
L 255.285978 216.59175 
L 256.000361 216.267921 
L 256.130249 216.115094 
L 256.260136 216.067696 
L 256.32508 215.97644 
L 256.390024 216.026776 
L 257.559014 215.50436 
L 257.688902 215.330123 
L 257.753846 215.410345 
L 257.883734 215.23449 
L 257.948678 215.261452 
L 258.143509 215.100544 
L 259.507331 214.406995 
L 259.767107 214.253705 
L 259.961939 214.170412 
L 260.286658 213.972165 
L 261.195873 213.490089 
L 261.390704 213.43371 
L 262.040143 213.126929 
L 262.170031 213.003083 
L 263.663741 212.255679 
L 263.728685 212.280775 
L 263.793629 212.142286 
L 263.858572 212.194883 
L 264.767787 211.626577 
L 264.897675 211.6035 
L 265.287338 211.396334 
L 265.48217 211.32832 
L 265.871833 211.075208 
L 265.936777 210.973049 
L 266.001721 211.031177 
L 266.586216 210.687651 
L 266.781048 210.60129 
L 267.82015 210.038839 
L 268.079926 209.906441 
L 268.14487 209.943974 
L 268.339701 209.758467 
L 269.31386 209.245903 
L 269.378804 209.151481 
L 269.443748 209.202114 
L 269.573635 209.11719 
L 269.703523 209.100958 
L 269.833411 209.02032 
L 270.158131 208.920208 
L 270.547794 208.680936 
L 270.612738 208.705126 
L 270.742626 208.627033 
L 270.80757 208.648568 
L 271.002401 208.492229 
L 271.327121 208.252909 
L 271.457008 208.180802 
L 271.65184 208.114863 
L 271.716784 208.132658 
L 271.846672 207.97233 
L 272.041504 207.972302 
L 272.236335 207.751814 
L 273.080606 207.263924 
L 273.14555 207.386436 
L 273.275438 207.186522 
L 273.340382 207.232406 
L 273.600157 206.959286 
L 273.665101 207.065199 
L 273.730045 206.932642 
L 273.794989 206.967389 
L 273.859933 206.947707 
L 273.924877 206.79349 
L 273.989821 206.920475 
L 274.119708 206.65252 
L 274.184652 206.776034 
L 274.249596 206.66085 
L 274.574316 206.52597 
L 274.639259 206.395432 
L 274.704203 206.531584 
L 274.834091 206.314096 
L 274.899035 206.459913 
L 275.028923 206.232436 
L 275.093867 206.257538 
L 275.158811 206.135344 
L 275.223755 206.187603 
L 275.678362 205.863663 
L 275.873194 205.802984 
L 275.938137 205.8221 
L 276.068025 205.640693 
L 276.197913 205.671001 
L 276.782408 205.300576 
L 276.847352 205.353975 
L 276.97724 205.186084 
L 277.042184 205.245096 
L 277.237015 205.089684 
L 278.081286 204.627187 
L 278.341062 204.447605 
L 278.600837 204.320779 
L 278.990501 204.136842 
L 279.120388 204.067847 
L 279.510052 203.929676 
L 279.574996 203.91885 
L 279.769827 203.726271 
L 280.029603 203.575159 
L 280.48421 203.289001 
L 280.614098 203.229103 
L 280.873874 203.087918 
L 281.133649 202.976364 
L 281.912976 202.578521 
L 284.835451 201.063968 
L 284.965339 200.903322 
L 293.537934 196.178326 
L 293.797709 195.986494 
L 294.382204 195.61806 
L 294.64198 195.46497 
L 294.901756 195.382639 
L 295.161531 195.177167 
L 295.421307 195.08748 
L 295.681082 194.875785 
L 295.875914 194.817347 
L 296.13569 194.635518 
L 297.174792 194.063091 
L 297.239736 194.100417 
L 297.434568 193.899846 
L 297.954119 193.59973 
L 298.148951 193.4825 
L 298.213894 193.506088 
L 298.343782 193.357223 
L 298.408726 193.480744 
L 298.538614 193.290841 
L 298.603558 193.288469 
L 298.798389 193.110146 
L 305.877274 188.965873 
L 306.072106 188.742073 
L 306.201994 188.753847 
L 306.396826 188.504724 
L 306.526713 188.53779 
L 306.721545 188.332263 
L 307.046265 188.126867 
L 308.020423 187.54082 
L 308.085367 187.57753 
L 308.280199 187.386486 
L 308.47503 187.225446 
L 309.059525 186.892582 
L 309.384245 186.60697 
L 309.514133 186.614415 
L 309.708964 186.441422 
L 309.773908 186.484375 
L 310.033684 186.201563 
L 310.228516 186.144293 
L 310.813011 185.721312 
L 310.942898 185.675912 
L 311.13773 185.511319 
L 311.267618 185.460381 
L 311.657281 185.204365 
L 311.852113 185.104004 
L 312.111889 184.863425 
L 312.241776 184.809273 
L 312.501552 184.656018 
L 312.761328 184.430033 
L 312.891215 184.373807 
L 313.345823 184.086764 
L 313.670542 183.850921 
L 314.125149 183.537393 
L 314.319981 183.434495 
L 315.683803 182.487619 
L 315.748747 182.518052 
L 315.878635 182.36967 
L 316.073466 182.277453 
L 316.268298 182.082309 
L 316.787849 181.716689 
L 316.982681 181.650452 
L 317.242456 181.373496 
L 317.3074 181.400734 
L 317.567176 181.147456 
L 317.63212 181.196659 
L 317.826952 180.984397 
L 318.151671 180.722084 
L 318.216615 180.786523 
L 318.346503 180.606547 
L 318.541334 180.554296 
L 318.736166 180.33284 
L 320.619539 178.969635 
L 320.684483 178.994896 
L 320.879315 178.738562 
L 320.944259 178.790233 
L 321.204034 178.485685 
L 321.268978 178.612864 
L 321.46381 178.349492 
L 321.528754 178.287645 
L 321.593698 178.395742 
L 321.658642 178.155323 
L 321.723585 178.240662 
L 321.983361 177.932754 
L 322.048305 177.971884 
L 322.178193 177.862597 
L 322.243137 177.876452 
L 322.308081 177.655266 
L 322.373024 177.695584 
L 322.827632 177.348022 
L 322.892576 177.386654 
L 323.087407 177.161706 
L 323.671902 176.781513 
L 323.866734 176.566618 
L 325.555275 175.394498 
L 325.750107 175.175344 
L 325.879995 175.183751 
L 326.074827 174.908723 
L 326.13977 174.976156 
L 326.204714 174.883987 
L 326.399546 174.698736 
L 326.46449 174.783342 
L 326.594378 174.525819 
L 326.659322 174.59086 
L 326.854153 174.381192 
L 327.113929 174.227369 
L 327.308761 174.12118 
L 327.438648 174.020438 
L 327.698424 173.797565 
L 328.088087 173.577471 
L 328.282919 173.410541 
L 329.386965 172.669746 
L 332.95888 170.280998 
L 333.218655 170.21792 
L 333.413487 170.011031 
L 333.80315 169.842939 
L 334.257758 169.544559 
L 334.387646 169.469687 
L 334.582477 169.350168 
L 334.647421 169.403484 
L 334.777309 169.254944 
L 334.972141 169.162719 
L 335.166972 169.000172 
L 335.231916 169.054428 
L 335.361804 168.874418 
L 335.491692 168.846682 
L 335.881355 168.633957 
L 335.946299 168.48998 
L 336.011243 168.57518 
L 336.271019 168.279592 
L 336.335962 168.413739 
L 336.530794 168.137038 
L 336.660682 168.147989 
L 336.725626 168.007136 
L 336.79057 168.135158 
L 336.855514 167.921881 
L 336.920458 167.985539 
L 337.310121 167.704594 
L 337.504953 167.505295 
L 337.569897 167.635142 
L 337.699784 167.4621 
L 337.894616 167.415947 
L 337.95956 167.210799 
L 338.024504 167.276919 
L 338.544055 166.955931 
L 338.738887 166.733418 
L 338.803831 166.803975 
L 338.933718 166.620273 
L 338.998662 166.683614 
L 339.063606 166.514457 
L 339.12855 166.577991 
L 339.388326 166.366041 
L 339.518213 166.277979 
L 340.62226 165.545162 
L 340.687204 165.459021 
L 340.752148 165.528998 
L 342.115969 164.554988 
L 342.180913 164.596205 
L 342.375745 164.408162 
L 342.440689 164.459431 
L 342.635521 164.261363 
L 342.895296 164.028217 
L 343.025184 163.936352 
L 343.090128 163.980404 
L 343.155072 163.816101 
L 343.220016 163.845068 
L 343.609679 163.692283 
L 343.804511 163.390155 
L 345.103389 162.570769 
L 345.29822 162.375991 
L 345.428108 162.366783 
L 345.62294 162.179776 
L 346.077547 161.851806 
L 346.856874 161.350698 
L 346.986762 161.240181 
L 347.11665 161.184099 
L 347.246537 161.039803 
L 347.571257 160.817539 
L 348.025864 160.589895 
L 348.155752 160.413674 
L 348.28564 160.34819 
L 348.675303 160.096876 
L 348.805191 159.991073 
L 349.000023 159.894065 
L 349.194854 159.684894 
L 349.649462 159.443949 
L 349.779349 159.255546 
L 349.844293 159.336239 
L 350.104069 159.058419 
L 350.169013 159.108554 
L 350.363844 158.873334 
L 350.493732 158.879515 
L 350.62362 158.690752 
L 350.753508 158.673897 
L 351.467891 158.144845 
L 351.597778 158.080744 
L 352.636881 157.28673 
L 352.831713 157.20135 
L 353.351264 156.814934 
L 354.260478 156.169295 
L 354.325422 156.186896 
L 354.520254 155.963014 
L 355.169693 155.546981 
L 355.299581 155.408811 
L 355.559356 155.239945 
L 355.884076 154.971609 
L 356.403627 154.580907 
L 356.468571 154.468012 
L 356.533515 154.539386 
L 356.988122 154.129699 
L 357.053066 154.160962 
L 357.312841 153.894631 
L 357.377785 153.957363 
L 357.637561 153.634481 
L 357.832393 153.567615 
L 359.196215 152.551876 
L 360.040485 151.900844 
L 360.105429 151.971581 
L 360.300261 151.750271 
L 360.754868 151.400399 
L 361.014644 151.223085 
L 361.144531 151.115347 
L 361.664083 150.718354 
L 361.79397 150.627858 
L 362.053746 150.420761 
L 362.313522 150.270091 
L 362.573297 150.045462 
L 363.157792 149.573127 
L 363.222736 149.611496 
L 363.417568 149.387019 
L 363.6124 149.22703 
L 363.807231 149.074106 
L 363.937119 149.042623 
L 364.261839 148.727346 
L 364.976221 148.210212 
L 365.171053 148.067755 
L 367.703865 146.045429 
L 367.898697 145.897179 
L 368.28836 145.618999 
L 368.548136 145.388079 
L 372.184994 142.465218 
L 372.379826 142.332578 
L 372.964321 141.838355 
L 373.159153 141.695442 
L 373.224096 141.68792 
L 373.483872 141.399246 
L 373.873535 141.178861 
L 374.068367 140.956348 
L 374.717806 140.443749 
L 375.042526 140.126647 
L 375.172413 140.051277 
L 375.432189 139.827851 
L 375.627021 139.704904 
L 376.081628 139.348146 
L 377.185674 138.445371 
L 377.510394 138.164412 
L 378.419608 137.379537 
L 378.549496 137.319488 
L 379.393767 136.621929 
L 382.381186 134.203537 
L 382.576018 134.020982 
L 382.965681 133.716061 
L 383.485232 133.310371 
L 383.745008 133.091093 
L 384.004784 132.882033 
L 385.368605 131.748517 
L 385.758269 131.417795 
L 385.888157 131.303282 
L 386.147932 131.105519 
L 386.407708 130.884733 
L 386.602539 130.742304 
L 387.706586 129.837137 
L 388.291081 129.370982 
L 388.550856 129.131808 
L 388.94052 128.768026 
L 389.135351 128.660703 
L 390.174454 127.795965 
L 392.707266 125.656375 
L 393.096929 125.346462 
L 395.175134 123.63304 
L 395.629741 123.234927 
L 396.993563 122.114021 
L 397.383226 121.774713 
L 398.487273 120.866932 
L 398.487273 120.866932 
" clip-path="url(#p393d6be3fe)" style="fill: none; stroke: #008000; stroke-width: 1.5; stroke-linecap: square"/>
   </g>
   <g id="line2d_17">
    <path d="M 73.832727 282.427485 
L 74.352278 282.950293 
L 75.196549 283.370605 
L 76.820147 284.16913 
L 78.573632 285.327094 
L 79.54779 285.741952 
L 80.71678 285.933404 
L 81.950715 285.887117 
L 83.769144 285.584827 
L 88.055441 284.682663 
L 93.315897 283.32472 
L 96.173428 282.267132 
L 97.147587 281.895067 
L 97.797026 281.643559 
L 98.186689 281.494771 
L 98.901072 281.214674 
L 100.135006 280.711531 
L 101.498828 280.144118 
L 101.693659 280.07187 
L 102.408042 279.77328 
L 102.992537 279.520223 
L 105.590293 278.315266 
L 105.915013 278.131008 
L 106.174788 278.029796 
L 108.058161 277.115194 
L 108.382881 276.967894 
L 113.058842 274.895638 
L 113.188729 274.821733 
L 113.318617 274.753987 
L 113.643337 274.571827 
L 113.773224 274.553942 
L 114.097944 274.338015 
L 114.292776 274.29561 
L 114.552551 274.152736 
L 114.877271 273.989114 
L 115.52671 273.712483 
L 116.176149 273.445511 
L 116.306036 273.382435 
L 116.6957 273.140175 
L 116.825588 273.128556 
L 117.150307 272.907515 
L 120.137726 271.304165 
L 120.592334 271.043579 
L 123.579753 269.38101 
L 123.904473 269.175278 
L 124.099304 269.103593 
L 124.424024 268.896427 
L 125.20335 268.492543 
L 125.52807 268.295034 
L 126.69706 267.657647 
L 127.541331 267.202227 
L 131.827628 264.70276 
L 132.087404 264.541848 
L 133.19145 263.903298 
L 133.581113 263.675347 
L 143.127866 257.991623 
L 143.322698 257.901628 
L 143.712361 257.619369 
L 145.400903 256.60029 
L 145.725622 256.318055 
L 146.245173 256.04366 
L 147.544051 255.199815 
L 147.933715 254.906135 
L 148.323378 254.697607 
L 150.596415 253.150091 
L 151.245854 252.727149 
L 151.765405 252.425377 
L 152.155068 252.115831 
L 152.284956 252.091385 
L 152.479788 251.974577 
L 152.934395 251.620709 
L 153.064283 251.530283 
L 153.389002 251.304388 
L 153.51889 251.232517 
L 153.843609 250.967161 
L 153.973497 250.94995 
L 154.168329 250.817152 
L 155.402263 249.958204 
L 155.532151 249.871887 
L 155.85687 249.625792 
L 156.051702 249.520501 
L 156.311478 249.323802 
L 156.960917 248.930155 
L 157.870131 248.308014 
L 158.51957 247.891221 
L 158.779346 247.707301 
L 163.974858 244.172396 
L 164.364521 243.926339 
L 164.884072 243.547425 
L 165.143848 243.400242 
L 165.338679 243.266562 
L 166.312838 242.572947 
L 166.767445 242.224206 
L 166.897333 242.223356 
L 167.222052 241.917114 
L 167.481828 241.716108 
L 168.391043 241.116398 
L 169.105425 240.56329 
L 169.365201 240.416924 
L 169.819808 240.066351 
L 170.404303 239.657995 
L 170.534191 239.558816 
L 170.729023 239.458099 
L 171.313518 238.974353 
L 171.50835 238.856681 
L 172.482508 238.157245 
L 173.067003 237.72993 
L 173.391723 237.485307 
L 173.521611 237.415088 
L 173.84633 237.109863 
L 173.976218 237.0713 
L 174.560713 236.61573 
L 174.690601 236.578108 
L 175.01532 236.241834 
L 175.275096 236.134615 
L 175.404984 236.059861 
L 175.599815 235.887282 
L 176.314198 235.356419 
L 176.573974 235.180695 
L 182.873532 230.693436 
L 183.393083 230.339713 
L 183.652859 230.121147 
L 183.912634 230.000343 
L 184.497129 229.597556 
L 184.821849 229.345454 
L 185.471288 228.911121 
L 185.601176 228.83683 
L 186.185671 228.444891 
L 186.51039 228.240338 
L 186.964997 227.905766 
L 187.094885 227.848398 
L 187.549492 227.529782 
L 188.0041 227.254914 
L 188.198931 227.126131 
L 188.328819 227.015352 
L 189.238034 226.411946 
L 196.51175 221.438504 
L 196.576694 221.430879 
L 196.771526 221.219247 
L 198.719843 219.854597 
L 198.849731 219.813199 
L 199.434226 219.416635 
L 201.382543 218.051908 
L 202.486589 217.272917 
L 203.33086 216.705814 
L 203.655579 216.52142 
L 203.850411 216.394774 
L 204.110186 216.161241 
L 205.34412 215.337997 
L 205.603896 215.098767 
L 206.642998 214.45852 
L 207.032662 214.19799 
L 207.357381 213.986206 
L 207.747045 213.712782 
L 207.876932 213.658844 
L 208.136708 213.378659 
L 208.266596 213.361956 
L 208.526371 213.143141 
L 210.020081 212.169297 
L 211.124127 211.385597 
L 211.383903 211.177464 
L 211.643679 211.064278 
L 214.046603 209.498704 
L 214.371322 209.349535 
L 215.605256 208.555714 
L 215.735144 208.50674 
L 215.99492 208.246984 
L 219.372002 205.978736 
L 219.631778 205.800025 
L 219.761666 205.786745 
L 220.021441 205.541956 
L 221.060544 204.878052 
L 221.450207 204.59974 
L 222.16459 204.096019 
L 222.424366 203.88617 
L 222.684141 203.754187 
L 223.138748 203.372279 
L 223.528412 203.100784 
L 223.853131 202.926616 
L 225.152009 202.010864 
L 225.216953 202.006453 
L 225.476729 201.71697 
L 225.606617 201.734903 
L 225.866392 201.451849 
L 225.99628 201.415609 
L 226.320999 201.156386 
L 227.035382 200.693605 
L 227.295158 200.486812 
L 227.619877 200.300947 
L 228.399204 199.769004 
L 228.594036 199.630219 
L 228.723924 199.531171 
L 229.50325 198.977203 
L 229.698082 198.883851 
L 230.022802 198.632067 
L 230.347521 198.443456 
L 230.607297 198.214976 
L 230.737185 198.169777 
L 230.99696 197.959624 
L 231.646399 197.507656 
L 231.971119 197.315153 
L 232.620558 196.775351 
L 232.685501 196.857578 
L 232.750445 196.767898 
L 232.815389 196.620961 
L 232.880333 196.713891 
L 232.945277 196.701751 
L 233.140109 196.496293 
L 233.269997 196.39963 
L 233.399884 196.33732 
L 233.529772 196.289832 
L 233.724604 196.134364 
L 234.179211 195.797752 
L 234.309099 195.727595 
L 235.932696 194.650811 
L 236.582135 194.232614 
L 236.647079 194.112716 
L 236.712023 194.15264 
L 236.971799 193.977006 
L 237.231574 193.764164 
L 237.426406 193.6667 
L 238.205733 193.182031 
L 238.270677 193.182833 
L 238.530452 192.932784 
L 238.790228 192.800158 
L 239.114947 192.56596 
L 240.99832 191.268639 
L 241.32304 191.085933 
L 241.452928 191.013419 
L 243.206413 189.862018 
L 243.466189 189.637679 
L 243.790908 189.398767 
L 243.855852 189.453735 
L 244.050684 189.323322 
L 244.505291 188.971756 
L 247.622598 186.828847 
L 248.012261 186.542012 
L 248.142149 186.507127 
L 248.207093 186.383246 
L 248.272037 186.420233 
L 248.531813 186.240333 
L 249.116308 185.835459 
L 249.181252 185.94796 
L 249.311139 185.688709 
L 249.376083 185.793985 
L 249.635859 185.416149 
L 249.895634 185.325003 
L 250.415186 184.989601 
L 250.674961 184.817645 
L 253.9871 182.660253 
L 254.961258 181.963538 
L 255.221034 181.768788 
L 255.350922 181.741688 
L 255.675641 181.495344 
L 256.000361 181.344328 
L 256.195192 181.185888 
L 256.584856 180.882066 
L 256.909575 180.72115 
L 257.234295 180.489276 
L 258.792948 179.46524 
L 258.857892 179.50054 
L 259.117668 179.240902 
L 259.3125 179.1936 
L 259.767107 178.814665 
L 259.961939 178.696502 
L 260.286658 178.455889 
L 261.130929 177.959039 
L 261.32576 177.803765 
L 262.559694 176.974327 
L 262.81947 176.796791 
L 263.014302 176.717633 
L 263.339021 176.456156 
L 263.403965 176.453003 
L 263.598797 176.29849 
L 265.871833 174.793228 
L 266.066665 174.680361 
L 273.535213 169.727998 
L 273.730045 169.530912 
L 273.859933 169.534023 
L 274.054764 169.320648 
L 274.249596 169.155073 
L 274.379484 169.175316 
L 274.444428 168.979017 
L 274.509372 169.115999 
L 274.639259 168.834252 
L 274.704203 168.985115 
L 274.834091 168.733275 
L 274.899035 168.880004 
L 275.028923 168.620449 
L 275.093867 168.6456 
L 275.158811 168.493464 
L 275.223755 168.560012 
L 275.48353 168.365166 
L 275.743306 168.096084 
L 275.80825 168.159051 
L 276.068025 167.855181 
L 276.197913 167.851945 
L 276.782408 167.398663 
L 276.847352 167.445163 
L 276.97724 167.268733 
L 277.042184 167.30536 
L 277.237015 167.101748 
L 278.665781 166.026415 
L 278.730725 166.100817 
L 278.860613 165.872233 
L 278.925557 165.92772 
L 279.250276 165.656246 
L 279.574996 165.497446 
L 279.769827 165.261271 
L 280.094547 165.025733 
L 280.873874 164.41054 
L 281.133649 164.271844 
L 281.848032 163.716383 
L 282.042864 163.658476 
L 282.367583 163.342992 
L 282.497471 163.250339 
L 284.575676 161.702546 
L 284.64062 161.737639 
L 284.770508 161.546664 
L 284.835451 161.623015 
L 284.900395 161.40718 
L 284.965339 161.442023 
L 285.419947 161.092138 
L 286.004442 160.650498 
L 286.264217 160.555799 
L 286.523993 160.295787 
L 287.30332 159.748331 
L 287.628039 159.501123 
L 287.757927 159.428035 
L 289.251637 158.283721 
L 289.31658 158.304972 
L 289.576356 158.05316 
L 289.706244 158.036236 
L 289.901075 157.819115 
L 291.394785 156.79848 
L 291.654561 156.549129 
L 291.849392 156.382821 
L 292.109168 156.151389 
L 292.174112 156.210817 
L 292.304 156.036309 
L 292.368944 156.058667 
L 292.628719 155.760355 
L 292.693663 155.786944 
L 292.953439 155.55749 
L 293.537934 155.105729 
L 293.797709 154.889727 
L 294.057485 154.706482 
L 294.252317 154.463491 
L 294.577036 154.313319 
L 294.771868 154.069622 
L 294.901756 154.084873 
L 295.161531 153.810966 
L 295.421307 153.672933 
L 295.681082 153.421605 
L 295.875914 153.324887 
L 296.200634 153.031691 
L 296.330521 152.974849 
L 296.915016 152.582128 
L 297.174792 152.31136 
L 297.239736 152.332155 
L 297.434568 152.115255 
L 298.603558 151.251347 
L 298.798389 151.035387 
L 305.877274 145.556253 
L 306.072106 145.297209 
L 306.201994 145.285484 
L 306.396826 144.995344 
L 306.526713 145.020827 
L 306.721545 144.77785 
L 307.30604 144.366905 
L 308.020423 143.767447 
L 308.085367 143.794368 
L 308.280199 143.600075 
L 309.96874 142.239994 
L 310.163572 142.046793 
L 310.423347 141.888892 
L 310.813011 141.512888 
L 310.942898 141.439274 
L 311.202674 141.24057 
L 311.787169 140.697608 
L 311.852113 140.711338 
L 312.111889 140.426037 
L 312.241776 140.325157 
L 312.501552 140.128513 
L 312.761328 139.864022 
L 312.826271 139.873313 
L 313.086047 139.591718 
L 313.215935 139.479943 
L 313.540654 139.254401 
L 313.735486 139.018876 
L 313.865374 138.962049 
L 315.229196 137.743595 
L 315.29414 137.771235 
L 315.488971 137.536913 
L 316.073466 137.109073 
L 316.268298 136.874862 
L 319.710325 133.889518 
L 319.775269 133.951973 
L 319.9701 133.680471 
L 320.424707 133.351589 
L 320.749427 133.024738 
L 320.814371 133.060716 
L 321.009203 132.830182 
L 322.243137 131.897431 
L 322.308081 131.667658 
L 322.373024 131.735133 
L 322.827632 131.301333 
L 322.892576 131.346048 
L 323.087407 131.098605 
L 327.308761 127.744018 
L 327.438648 127.632589 
L 327.698424 127.365276 
L 328.088087 127.1283 
L 328.282919 126.935375 
L 333.153711 123.268498 
L 333.218655 123.304378 
L 333.413487 123.052829 
L 333.608319 122.951465 
L 334.12787 122.517858 
L 334.192814 122.545221 
L 334.452589 122.289344 
L 334.517533 122.31007 
L 334.777309 122.079261 
L 334.972141 121.957627 
L 335.166972 121.75436 
L 335.231916 121.80762 
L 335.361804 121.597966 
L 335.556636 121.534805 
L 335.751467 121.34672 
L 335.946299 121.113187 
L 336.011243 121.204208 
L 336.271019 120.851778 
L 336.335962 120.974892 
L 336.530794 120.684461 
L 336.660682 120.672197 
L 336.855514 120.381918 
L 336.985401 120.415448 
L 337.180233 120.174738 
L 337.245177 120.225192 
L 337.504953 119.837532 
L 337.569897 119.98505 
L 337.63484 119.758015 
L 337.699784 119.79142 
L 337.894616 119.718512 
L 337.95956 119.496427 
L 338.024504 119.548595 
L 344.778669 113.564329 
L 345.038445 113.337225 
L 345.233276 113.193634 
L 345.428108 112.973416 
L 345.62294 112.750294 
L 345.817772 112.587525 
L 346.597098 111.87231 
L 346.921818 111.481788 
L 347.181593 111.311733 
L 347.441369 110.978716 
L 347.701145 110.847943 
L 347.96092 110.471427 
L 348.025864 110.505842 
L 348.220696 110.316761 
L 348.610359 109.867862 
L 349.000023 109.558572 
L 349.259798 109.203363 
L 349.649462 108.898898 
L 349.909237 108.575989 
L 350.169013 108.419802 
L 350.363844 108.135552 
L 350.558676 107.954021 
L 352.052386 106.454055 
L 352.636881 105.846121 
L 352.831713 105.726161 
L 354.260478 104.237727 
L 354.325422 104.244654 
L 354.585198 103.908401 
L 355.169693 103.35023 
L 355.364525 103.104695 
L 357.247898 101.184936 
L 357.507673 100.874913 
L 357.767449 100.632295 
L 358.287 100.100795 
L 359.066327 99.266048 
L 359.715766 98.567908 
L 359.975541 98.328982 
L 360.235317 98.029067 
L 360.560036 97.683965 
L 360.884756 97.361249 
L 361.079588 97.204413 
L 361.339363 96.810558 
L 361.404307 96.824689 
L 361.664083 96.52198 
L 361.858914 96.290396 
L 364.521614 93.398355 
L 365.041165 92.795855 
L 365.300941 92.597635 
L 367.249258 90.35516 
L 367.379146 90.262272 
L 368.028585 89.495165 
L 368.678024 88.790859 
L 369.002743 88.421782 
L 370.691284 86.491722 
L 371.535555 85.502294 
L 371.665443 85.38503 
L 374.198255 82.472567 
L 374.393087 82.233309 
L 374.522974 82.164313 
L 374.78275 81.748903 
L 374.977582 81.568492 
L 375.562077 80.896568 
L 375.821852 80.602957 
L 378.094889 77.956645 
L 378.419608 77.553761 
L 378.61444 77.339516 
L 379.004103 76.88499 
L 380.238037 75.436017 
L 380.757589 74.842878 
L 381.27714 74.303137 
L 381.471971 74.036558 
L 381.991523 73.342622 
L 382.056467 73.379857 
L 382.316242 72.989045 
L 382.44613 72.815035 
L 382.705906 72.595646 
L 383.095569 72.044305 
L 383.225457 71.939568 
L 384.459391 70.519106 
L 385.10883 69.72223 
L 385.303661 69.516211 
L 385.758269 68.925768 
L 385.823213 68.913145 
L 386.212876 68.351779 
L 386.342764 68.269082 
L 388.226137 66.008341 
L 388.550856 65.622783 
L 389.070408 64.991233 
L 389.78479 64.19556 
L 390.044566 63.827464 
L 391.018724 62.625479 
L 391.2785 62.29997 
L 391.473332 62.124979 
L 392.642322 60.656469 
L 393.096929 60.134095 
L 394.330863 58.579776 
L 394.395807 58.573914 
L 394.785471 58.056877 
L 394.980302 57.880724 
L 395.369966 57.340044 
L 398.032665 54.143911 
L 398.292441 53.756431 
L 398.487273 53.568 
L 398.487273 53.568 
" clip-path="url(#p393d6be3fe)" style="fill: none; stroke: #ff0000; stroke-width: 1.5; stroke-linecap: square"/>
   </g>
   <g id="patch_3">
    <path d="M 57.6 307.584 
L 57.6 41.472 
" style="fill: none; stroke: #000000; stroke-width: 0.8; stroke-linejoin: miter; stroke-linecap: square"/>
   </g>
   <g id="patch_4">
    <path d="M 414.72 307.584 
L 414.72 41.472 
" style="fill: none; stroke: #000000; stroke-width: 0.8; stroke-linejoin: miter; stroke-linecap: square"/>
   </g>
   <g id="patch_5">
    <path d="M 57.6 307.584 
L 414.72 307.584 
" style="fill: none; stroke: #000000; stroke-width: 0.8; stroke-linejoin: miter; stroke-linecap: square"/>
   </g>
   <g id="patch_6">
    <path d="M 57.6 41.472 
L 414.72 41.472 
" style="fill: none; stroke: #000000; stroke-width: 0.8; stroke-linejoin: miter; stroke-linecap: square"/>
   </g>
   <g id="text_17">
    <!-- Script19_loss -->
    <g transform="translate(196.532813 35.472) scale(0.12 -0.12)">
     <defs>
      <path id="DejaVuSans-53" d="M 3425 4513 
L 3425 3897 
Q 3066 4069 2747 4153 
Q 2428 4238 2131 4238 
Q 1616 4238 1336 4038 
Q 1056 3838 1056 3469 
Q 1056 3159 1242 3001 
Q 1428 2844 1947 2747 
L 2328 2669 
Q 3034 2534 3370 2195 
Q 3706 1856 3706 1288 
Q 3706 609 3251 259 
Q 2797 -91 1919 -91 
Q 1588 -91 1214 -16 
Q 841 59 441 206 
L 441 856 
Q 825 641 1194 531 
Q 1563 422 1919 422 
Q 2459 422 2753 634 
Q 3047 847 3047 1241 
Q 3047 1584 2836 1778 
Q 2625 1972 2144 2069 
L 1759 2144 
Q 1053 2284 737 2584 
Q 422 2884 422 3419 
Q 422 4038 858 4394 
Q 1294 4750 2059 4750 
Q 2388 4750 2728 4690 
Q 3069 4631 3425 4513 
z
" transform="scale(0.015625)"/>
      <path id="DejaVuSans-72" d="M 2631 2963 
Q 2534 3019 2420 3045 
Q 2306 3072 2169 3072 
Q 1681 3072 1420 2755 
Q 1159 2438 1159 1844 
L 1159 0 
L 581 0 
L 581 3500 
L 1159 3500 
L 1159 2956 
Q 1341 3275 1631 3429 
Q 1922 3584 2338 3584 
Q 2397 3584 2469 3576 
Q 2541 3569 2628 3553 
L 2631 2963 
z
" transform="scale(0.015625)"/>
      <path id="DejaVuSans-69" d="M 603 3500 
L 1178 3500 
L 1178 0 
L 603 0 
L 603 3500 
z
M 603 4863 
L 1178 4863 
L 1178 4134 
L 603 4134 
L 603 4863 
z
" transform="scale(0.015625)"/>
      <path id="DejaVuSans-74" d="M 1172 4494 
L 1172 3500 
L 2356 3500 
L 2356 3053 
L 1172 3053 
L 1172 1153 
Q 1172 725 1289 603 
Q 1406 481 1766 481 
L 2356 481 
L 2356 0 
L 1766 0 
Q 1100 0 847 248 
Q 594 497 594 1153 
L 594 3053 
L 172 3053 
L 172 3500 
L 594 3500 
L 594 4494 
L 1172 4494 
z
" transform="scale(0.015625)"/>
      <path id="DejaVuSans-39" d="M 703 97 
L 703 672 
Q 941 559 1184 500 
Q 1428 441 1663 441 
Q 2288 441 2617 861 
Q 2947 1281 2994 2138 
Q 2813 1869 2534 1725 
Q 2256 1581 1919 1581 
Q 1219 1581 811 2004 
Q 403 2428 403 3163 
Q 403 3881 828 4315 
Q 1253 4750 1959 4750 
Q 2769 4750 3195 4129 
Q 3622 3509 3622 2328 
Q 3622 1225 3098 567 
Q 2575 -91 1691 -91 
Q 1453 -91 1209 -44 
Q 966 3 703 97 
z
M 1959 2075 
Q 2384 2075 2632 2365 
Q 2881 2656 2881 3163 
Q 2881 3666 2632 3958 
Q 2384 4250 1959 4250 
Q 1534 4250 1286 3958 
Q 1038 3666 1038 3163 
Q 1038 2656 1286 2365 
Q 1534 2075 1959 2075 
z
" transform="scale(0.015625)"/>
      <path id="DejaVuSans-5f" d="M 3263 -1063 
L 3263 -1509 
L -63 -1509 
L -63 -1063 
L 3263 -1063 
z
" transform="scale(0.015625)"/>
     </defs>
     <use xlink:href="#DejaVuSans-53"/>
     <use xlink:href="#DejaVuSans-63" x="63.476562"/>
     <use xlink:href="#DejaVuSans-72" x="118.457031"/>
     <use xlink:href="#DejaVuSans-69" x="159.570312"/>
     <use xlink:href="#DejaVuSans-70" x="187.353516"/>
     <use xlink:href="#DejaVuSans-74" x="250.830078"/>
     <use xlink:href="#DejaVuSans-31" x="290.039062"/>
     <use xlink:href="#DejaVuSans-39" x="353.662109"/>
     <use xlink:href="#DejaVuSans-5f" x="417.285156"/>
     <use xlink:href="#DejaVuSans-6c" x="467.285156"/>
     <use xlink:href="#DejaVuSans-6f" x="495.068359"/>
     <use xlink:href="#DejaVuSans-73" x="556.25"/>
     <use xlink:href="#DejaVuSans-73" x="608.349609"/>
    </g>
   </g>
   <g id="legend_1">
    <g id="patch_7">
     <path d="M 64.6 93.506375 
L 164.295312 93.506375 
Q 166.295312 93.506375 166.295312 91.506375 
L 166.295312 48.472 
Q 166.295312 46.472 164.295312 46.472 
L 64.6 46.472 
Q 62.6 46.472 62.6 48.472 
L 62.6 91.506375 
Q 62.6 93.506375 64.6 93.506375 
z
" style="fill: #ffffff; opacity: 0.8; stroke: #cccccc; stroke-linejoin: miter"/>
    </g>
    <g id="line2d_18">
     <path d="M 66.6 54.570438 
L 76.6 54.570438 
L 86.6 54.570438 
" style="fill: none; stroke: #0000ff; stroke-width: 1.5; stroke-linecap: square"/>
    </g>
    <g id="text_18">
     <!-- training set -->
     <g transform="translate(94.6 58.070438) scale(0.1 -0.1)">
      <defs>
       <path id="DejaVuSans-61" d="M 2194 1759 
Q 1497 1759 1228 1600 
Q 959 1441 959 1056 
Q 959 750 1161 570 
Q 1363 391 1709 391 
Q 2188 391 2477 730 
Q 2766 1069 2766 1631 
L 2766 1759 
L 2194 1759 
z
M 3341 1997 
L 3341 0 
L 2766 0 
L 2766 531 
Q 2569 213 2275 61 
Q 1981 -91 1556 -91 
Q 1019 -91 701 211 
Q 384 513 384 1019 
Q 384 1609 779 1909 
Q 1175 2209 1959 2209 
L 2766 2209 
L 2766 2266 
Q 2766 2663 2505 2880 
Q 2244 3097 1772 3097 
Q 1472 3097 1187 3025 
Q 903 2953 641 2809 
L 641 3341 
Q 956 3463 1253 3523 
Q 1550 3584 1831 3584 
Q 2591 3584 2966 3190 
Q 3341 2797 3341 1997 
z
" transform="scale(0.015625)"/>
       <path id="DejaVuSans-6e" d="M 3513 2113 
L 3513 0 
L 2938 0 
L 2938 2094 
Q 2938 2591 2744 2837 
Q 2550 3084 2163 3084 
Q 1697 3084 1428 2787 
Q 1159 2491 1159 1978 
L 1159 0 
L 581 0 
L 581 3500 
L 1159 3500 
L 1159 2956 
Q 1366 3272 1645 3428 
Q 1925 3584 2291 3584 
Q 2894 3584 3203 3211 
Q 3513 2838 3513 2113 
z
" transform="scale(0.015625)"/>
       <path id="DejaVuSans-67" d="M 2906 1791 
Q 2906 2416 2648 2759 
Q 2391 3103 1925 3103 
Q 1463 3103 1205 2759 
Q 947 2416 947 1791 
Q 947 1169 1205 825 
Q 1463 481 1925 481 
Q 2391 481 2648 825 
Q 2906 1169 2906 1791 
z
M 3481 434 
Q 3481 -459 3084 -895 
Q 2688 -1331 1869 -1331 
Q 1566 -1331 1297 -1286 
Q 1028 -1241 775 -1147 
L 775 -588 
Q 1028 -725 1275 -790 
Q 1522 -856 1778 -856 
Q 2344 -856 2625 -561 
Q 2906 -266 2906 331 
L 2906 616 
Q 2728 306 2450 153 
Q 2172 0 1784 0 
Q 1141 0 747 490 
Q 353 981 353 1791 
Q 353 2603 747 3093 
Q 1141 3584 1784 3584 
Q 2172 3584 2450 3431 
Q 2728 3278 2906 2969 
L 2906 3500 
L 3481 3500 
L 3481 434 
z
" transform="scale(0.015625)"/>
       <path id="DejaVuSans-20" transform="scale(0.015625)"/>
      </defs>
      <use xlink:href="#DejaVuSans-74"/>
      <use xlink:href="#DejaVuSans-72" x="39.208984"/>
      <use xlink:href="#DejaVuSans-61" x="80.322266"/>
      <use xlink:href="#DejaVuSans-69" x="141.601562"/>
      <use xlink:href="#DejaVuSans-6e" x="169.384766"/>
      <use xlink:href="#DejaVuSans-69" x="232.763672"/>
      <use xlink:href="#DejaVuSans-6e" x="260.546875"/>
      <use xlink:href="#DejaVuSans-67" x="323.925781"/>
      <use xlink:href="#DejaVuSans-20" x="387.402344"/>
      <use xlink:href="#DejaVuSans-73" x="419.189453"/>
      <use xlink:href="#DejaVuSans-65" x="471.289062"/>
      <use xlink:href="#DejaVuSans-74" x="532.8125"/>
     </g>
    </g>
    <g id="line2d_19">
     <path d="M 66.6 69.248563 
L 76.6 69.248563 
L 86.6 69.248563 
" style="fill: none; stroke: #008000; stroke-width: 1.5; stroke-linecap: square"/>
    </g>
    <g id="text_19">
     <!-- validation set -->
     <g transform="translate(94.6 72.748563) scale(0.1 -0.1)">
      <defs>
       <path id="DejaVuSans-76" d="M 191 3500 
L 800 3500 
L 1894 563 
L 2988 3500 
L 3597 3500 
L 2284 0 
L 1503 0 
L 191 3500 
z
" transform="scale(0.015625)"/>
       <path id="DejaVuSans-64" d="M 2906 2969 
L 2906 4863 
L 3481 4863 
L 3481 0 
L 2906 0 
L 2906 525 
Q 2725 213 2448 61 
Q 2172 -91 1784 -91 
Q 1150 -91 751 415 
Q 353 922 353 1747 
Q 353 2572 751 3078 
Q 1150 3584 1784 3584 
Q 2172 3584 2448 3432 
Q 2725 3281 2906 2969 
z
M 947 1747 
Q 947 1113 1208 752 
Q 1469 391 1925 391 
Q 2381 391 2643 752 
Q 2906 1113 2906 1747 
Q 2906 2381 2643 2742 
Q 2381 3103 1925 3103 
Q 1469 3103 1208 2742 
Q 947 2381 947 1747 
z
" transform="scale(0.015625)"/>
      </defs>
      <use xlink:href="#DejaVuSans-76"/>
      <use xlink:href="#DejaVuSans-61" x="59.179688"/>
      <use xlink:href="#DejaVuSans-6c" x="120.458984"/>
      <use xlink:href="#DejaVuSans-69" x="148.242188"/>
      <use xlink:href="#DejaVuSans-64" x="176.025391"/>
      <use xlink:href="#DejaVuSans-61" x="239.501953"/>
      <use xlink:href="#DejaVuSans-74" x="300.78125"/>
      <use xlink:href="#DejaVuSans-69" x="339.990234"/>
      <use xlink:href="#DejaVuSans-6f" x="367.773438"/>
      <use xlink:href="#DejaVuSans-6e" x="428.955078"/>
      <use xlink:href="#DejaVuSans-20" x="492.333984"/>
      <use xlink:href="#DejaVuSans-73" x="524.121094"/>
      <use xlink:href="#DejaVuSans-65" x="576.220703"/>
      <use xlink:href="#DejaVuSans-74" x="637.744141"/>
     </g>
    </g>
    <g id="line2d_20">
     <path d="M 66.6 83.926688 
L 76.6 83.926688 
L 86.6 83.926688 
" style="fill: none; stroke: #ff0000; stroke-width: 1.5; stroke-linecap: square"/>
    </g>
    <g id="text_20">
     <!-- test set -->
     <g transform="translate(94.6 87.426688) scale(0.1 -0.1)">
      <use xlink:href="#DejaVuSans-74"/>
      <use xlink:href="#DejaVuSans-65" x="39.208984"/>
      <use xlink:href="#DejaVuSans-73" x="100.732422"/>
      <use xlink:href="#DejaVuSans-74" x="152.832031"/>
      <use xlink:href="#DejaVuSans-20" x="192.041016"/>
      <use xlink:href="#DejaVuSans-73" x="223.828125"/>
      <use xlink:href="#DejaVuSans-65" x="275.927734"/>
      <use xlink:href="#DejaVuSans-74" x="337.451172"/>
     </g>
    </g>
   </g>
  </g>
 </g>
 <defs>
  <clipPath id="p393d6be3fe">
   <rect x="57.6" y="41.472" width="357.12" height="266.112"/>
  </clipPath>
 </defs>
</svg>
