<?xml version="1.0" encoding="utf-8" standalone="no"?>
<!DOCTYPE svg PUBLIC "-//W3C//DTD SVG 1.1//EN"
  "http://www.w3.org/Graphics/SVG/1.1/DTD/svg11.dtd">
<svg xmlns:xlink="http://www.w3.org/1999/xlink" width="460.8pt" height="345.6pt" viewBox="0 0 460.8 345.6" xmlns="http://www.w3.org/2000/svg" version="1.1">
 <metadata>
  <rdf:RDF xmlns:dc="http://purl.org/dc/elements/1.1/" xmlns:cc="http://creativecommons.org/ns#" xmlns:rdf="http://www.w3.org/1999/02/22-rdf-syntax-ns#">
   <cc:Work>
    <dc:type rdf:resource="http://purl.org/dc/dcmitype/StillImage"/>
    <dc:date>2023-04-09T04:00:29.336057</dc:date>
    <dc:format>image/svg+xml</dc:format>
    <dc:creator>
     <cc:Agent>
      <dc:title>Matplotlib v3.7.1, https://matplotlib.org/</dc:title>
     </cc:Agent>
    </dc:creator>
   </cc:Work>
  </rdf:RDF>
 </metadata>
 <defs>
  <style type="text/css">*{stroke-linejoin: round; stroke-linecap: butt}</style>
 </defs>
 <g id="figure_1">
  <g id="patch_1">
   <path d="M 0 345.6 
L 460.8 345.6 
L 460.8 0 
L 0 0 
z
" style="fill: #ffffff"/>
  </g>
  <g id="axes_1">
   <g id="patch_2">
    <path d="M 57.6 307.584 
L 414.72 307.584 
L 414.72 41.472 
L 57.6 41.472 
z
" style="fill: #ffffff"/>
   </g>
   <g id="matplotlib.axis_1">
    <g id="xtick_1">
     <g id="line2d_1">
      <defs>
       <path id="m8e3b606ade" d="M 0 0 
L 0 3.5 
" style="stroke: #000000; stroke-width: 0.8"/>
      </defs>
      <g>
       <use xlink:href="#m8e3b606ade" x="73.507748" y="307.584" style="stroke: #000000; stroke-width: 0.8"/>
      </g>
     </g>
     <g id="text_1">
      <!-- 0 -->
      <g transform="translate(70.326498 322.182437) scale(0.1 -0.1)">
       <defs>
        <path id="DejaVuSans-30" d="M 2034 4250 
Q 1547 4250 1301 3770 
Q 1056 3291 1056 2328 
Q 1056 1369 1301 889 
Q 1547 409 2034 409 
Q 2525 409 2770 889 
Q 3016 1369 3016 2328 
Q 3016 3291 2770 3770 
Q 2525 4250 2034 4250 
z
M 2034 4750 
Q 2819 4750 3233 4129 
Q 3647 3509 3647 2328 
Q 3647 1150 3233 529 
Q 2819 -91 2034 -91 
Q 1250 -91 836 529 
Q 422 1150 422 2328 
Q 422 3509 836 4129 
Q 1250 4750 2034 4750 
z
" transform="scale(0.015625)"/>
       </defs>
       <use xlink:href="#DejaVuSans-30"/>
      </g>
     </g>
    </g>
    <g id="xtick_2">
     <g id="line2d_2">
      <g>
       <use xlink:href="#m8e3b606ade" x="138.503653" y="307.584" style="stroke: #000000; stroke-width: 0.8"/>
      </g>
     </g>
     <g id="text_2">
      <!-- 200 -->
      <g transform="translate(128.959903 322.182437) scale(0.1 -0.1)">
       <defs>
        <path id="DejaVuSans-32" d="M 1228 531 
L 3431 531 
L 3431 0 
L 469 0 
L 469 531 
Q 828 903 1448 1529 
Q 2069 2156 2228 2338 
Q 2531 2678 2651 2914 
Q 2772 3150 2772 3378 
Q 2772 3750 2511 3984 
Q 2250 4219 1831 4219 
Q 1534 4219 1204 4116 
Q 875 4013 500 3803 
L 500 4441 
Q 881 4594 1212 4672 
Q 1544 4750 1819 4750 
Q 2544 4750 2975 4387 
Q 3406 4025 3406 3419 
Q 3406 3131 3298 2873 
Q 3191 2616 2906 2266 
Q 2828 2175 2409 1742 
Q 1991 1309 1228 531 
z
" transform="scale(0.015625)"/>
       </defs>
       <use xlink:href="#DejaVuSans-32"/>
       <use xlink:href="#DejaVuSans-30" x="63.623047"/>
       <use xlink:href="#DejaVuSans-30" x="127.246094"/>
      </g>
     </g>
    </g>
    <g id="xtick_3">
     <g id="line2d_3">
      <g>
       <use xlink:href="#m8e3b606ade" x="203.499558" y="307.584" style="stroke: #000000; stroke-width: 0.8"/>
      </g>
     </g>
     <g id="text_3">
      <!-- 400 -->
      <g transform="translate(193.955808 322.182437) scale(0.1 -0.1)">
       <defs>
        <path id="DejaVuSans-34" d="M 2419 4116 
L 825 1625 
L 2419 1625 
L 2419 4116 
z
M 2253 4666 
L 3047 4666 
L 3047 1625 
L 3713 1625 
L 3713 1100 
L 3047 1100 
L 3047 0 
L 2419 0 
L 2419 1100 
L 313 1100 
L 313 1709 
L 2253 4666 
z
" transform="scale(0.015625)"/>
       </defs>
       <use xlink:href="#DejaVuSans-34"/>
       <use xlink:href="#DejaVuSans-30" x="63.623047"/>
       <use xlink:href="#DejaVuSans-30" x="127.246094"/>
      </g>
     </g>
    </g>
    <g id="xtick_4">
     <g id="line2d_4">
      <g>
       <use xlink:href="#m8e3b606ade" x="268.495463" y="307.584" style="stroke: #000000; stroke-width: 0.8"/>
      </g>
     </g>
     <g id="text_4">
      <!-- 600 -->
      <g transform="translate(258.951713 322.182437) scale(0.1 -0.1)">
       <defs>
        <path id="DejaVuSans-36" d="M 2113 2584 
Q 1688 2584 1439 2293 
Q 1191 2003 1191 1497 
Q 1191 994 1439 701 
Q 1688 409 2113 409 
Q 2538 409 2786 701 
Q 3034 994 3034 1497 
Q 3034 2003 2786 2293 
Q 2538 2584 2113 2584 
z
M 3366 4563 
L 3366 3988 
Q 3128 4100 2886 4159 
Q 2644 4219 2406 4219 
Q 1781 4219 1451 3797 
Q 1122 3375 1075 2522 
Q 1259 2794 1537 2939 
Q 1816 3084 2150 3084 
Q 2853 3084 3261 2657 
Q 3669 2231 3669 1497 
Q 3669 778 3244 343 
Q 2819 -91 2113 -91 
Q 1303 -91 875 529 
Q 447 1150 447 2328 
Q 447 3434 972 4092 
Q 1497 4750 2381 4750 
Q 2619 4750 2861 4703 
Q 3103 4656 3366 4563 
z
" transform="scale(0.015625)"/>
       </defs>
       <use xlink:href="#DejaVuSans-36"/>
       <use xlink:href="#DejaVuSans-30" x="63.623047"/>
       <use xlink:href="#DejaVuSans-30" x="127.246094"/>
      </g>
     </g>
    </g>
    <g id="xtick_5">
     <g id="line2d_5">
      <g>
       <use xlink:href="#m8e3b606ade" x="333.491368" y="307.584" style="stroke: #000000; stroke-width: 0.8"/>
      </g>
     </g>
     <g id="text_5">
      <!-- 800 -->
      <g transform="translate(323.947618 322.182437) scale(0.1 -0.1)">
       <defs>
        <path id="DejaVuSans-38" d="M 2034 2216 
Q 1584 2216 1326 1975 
Q 1069 1734 1069 1313 
Q 1069 891 1326 650 
Q 1584 409 2034 409 
Q 2484 409 2743 651 
Q 3003 894 3003 1313 
Q 3003 1734 2745 1975 
Q 2488 2216 2034 2216 
z
M 1403 2484 
Q 997 2584 770 2862 
Q 544 3141 544 3541 
Q 544 4100 942 4425 
Q 1341 4750 2034 4750 
Q 2731 4750 3128 4425 
Q 3525 4100 3525 3541 
Q 3525 3141 3298 2862 
Q 3072 2584 2669 2484 
Q 3125 2378 3379 2068 
Q 3634 1759 3634 1313 
Q 3634 634 3220 271 
Q 2806 -91 2034 -91 
Q 1263 -91 848 271 
Q 434 634 434 1313 
Q 434 1759 690 2068 
Q 947 2378 1403 2484 
z
M 1172 3481 
Q 1172 3119 1398 2916 
Q 1625 2713 2034 2713 
Q 2441 2713 2670 2916 
Q 2900 3119 2900 3481 
Q 2900 3844 2670 4047 
Q 2441 4250 2034 4250 
Q 1625 4250 1398 4047 
Q 1172 3844 1172 3481 
z
" transform="scale(0.015625)"/>
       </defs>
       <use xlink:href="#DejaVuSans-38"/>
       <use xlink:href="#DejaVuSans-30" x="63.623047"/>
       <use xlink:href="#DejaVuSans-30" x="127.246094"/>
      </g>
     </g>
    </g>
    <g id="xtick_6">
     <g id="line2d_6">
      <g>
       <use xlink:href="#m8e3b606ade" x="398.487273" y="307.584" style="stroke: #000000; stroke-width: 0.8"/>
      </g>
     </g>
     <g id="text_6">
      <!-- 1000 -->
      <g transform="translate(385.762273 322.182437) scale(0.1 -0.1)">
       <defs>
        <path id="DejaVuSans-31" d="M 794 531 
L 1825 531 
L 1825 4091 
L 703 3866 
L 703 4441 
L 1819 4666 
L 2450 4666 
L 2450 531 
L 3481 531 
L 3481 0 
L 794 0 
L 794 531 
z
" transform="scale(0.015625)"/>
       </defs>
       <use xlink:href="#DejaVuSans-31"/>
       <use xlink:href="#DejaVuSans-30" x="63.623047"/>
       <use xlink:href="#DejaVuSans-30" x="127.246094"/>
       <use xlink:href="#DejaVuSans-30" x="190.869141"/>
      </g>
     </g>
    </g>
    <g id="text_7">
     <!-- epoch -->
     <g transform="translate(220.931875 335.860562) scale(0.1 -0.1)">
      <defs>
       <path id="DejaVuSans-65" d="M 3597 1894 
L 3597 1613 
L 953 1613 
Q 991 1019 1311 708 
Q 1631 397 2203 397 
Q 2534 397 2845 478 
Q 3156 559 3463 722 
L 3463 178 
Q 3153 47 2828 -22 
Q 2503 -91 2169 -91 
Q 1331 -91 842 396 
Q 353 884 353 1716 
Q 353 2575 817 3079 
Q 1281 3584 2069 3584 
Q 2775 3584 3186 3129 
Q 3597 2675 3597 1894 
z
M 3022 2063 
Q 3016 2534 2758 2815 
Q 2500 3097 2075 3097 
Q 1594 3097 1305 2825 
Q 1016 2553 972 2059 
L 3022 2063 
z
" transform="scale(0.015625)"/>
       <path id="DejaVuSans-70" d="M 1159 525 
L 1159 -1331 
L 581 -1331 
L 581 3500 
L 1159 3500 
L 1159 2969 
Q 1341 3281 1617 3432 
Q 1894 3584 2278 3584 
Q 2916 3584 3314 3078 
Q 3713 2572 3713 1747 
Q 3713 922 3314 415 
Q 2916 -91 2278 -91 
Q 1894 -91 1617 61 
Q 1341 213 1159 525 
z
M 3116 1747 
Q 3116 2381 2855 2742 
Q 2594 3103 2138 3103 
Q 1681 3103 1420 2742 
Q 1159 2381 1159 1747 
Q 1159 1113 1420 752 
Q 1681 391 2138 391 
Q 2594 391 2855 752 
Q 3116 1113 3116 1747 
z
" transform="scale(0.015625)"/>
       <path id="DejaVuSans-6f" d="M 1959 3097 
Q 1497 3097 1228 2736 
Q 959 2375 959 1747 
Q 959 1119 1226 758 
Q 1494 397 1959 397 
Q 2419 397 2687 759 
Q 2956 1122 2956 1747 
Q 2956 2369 2687 2733 
Q 2419 3097 1959 3097 
z
M 1959 3584 
Q 2709 3584 3137 3096 
Q 3566 2609 3566 1747 
Q 3566 888 3137 398 
Q 2709 -91 1959 -91 
Q 1206 -91 779 398 
Q 353 888 353 1747 
Q 353 2609 779 3096 
Q 1206 3584 1959 3584 
z
" transform="scale(0.015625)"/>
       <path id="DejaVuSans-63" d="M 3122 3366 
L 3122 2828 
Q 2878 2963 2633 3030 
Q 2388 3097 2138 3097 
Q 1578 3097 1268 2742 
Q 959 2388 959 1747 
Q 959 1106 1268 751 
Q 1578 397 2138 397 
Q 2388 397 2633 464 
Q 2878 531 3122 666 
L 3122 134 
Q 2881 22 2623 -34 
Q 2366 -91 2075 -91 
Q 1284 -91 818 406 
Q 353 903 353 1747 
Q 353 2603 823 3093 
Q 1294 3584 2113 3584 
Q 2378 3584 2631 3529 
Q 2884 3475 3122 3366 
z
" transform="scale(0.015625)"/>
       <path id="DejaVuSans-68" d="M 3513 2113 
L 3513 0 
L 2938 0 
L 2938 2094 
Q 2938 2591 2744 2837 
Q 2550 3084 2163 3084 
Q 1697 3084 1428 2787 
Q 1159 2491 1159 1978 
L 1159 0 
L 581 0 
L 581 4863 
L 1159 4863 
L 1159 2956 
Q 1366 3272 1645 3428 
Q 1925 3584 2291 3584 
Q 2894 3584 3203 3211 
Q 3513 2838 3513 2113 
z
" transform="scale(0.015625)"/>
      </defs>
      <use xlink:href="#DejaVuSans-65"/>
      <use xlink:href="#DejaVuSans-70" x="61.523438"/>
      <use xlink:href="#DejaVuSans-6f" x="125"/>
      <use xlink:href="#DejaVuSans-63" x="186.181641"/>
      <use xlink:href="#DejaVuSans-68" x="241.162109"/>
     </g>
    </g>
   </g>
   <g id="matplotlib.axis_2">
    <g id="ytick_1">
     <g id="line2d_7">
      <defs>
       <path id="mf9b36fd520" d="M 0 0 
L -3.5 0 
" style="stroke: #000000; stroke-width: 0.8"/>
      </defs>
      <g>
       <use xlink:href="#mf9b36fd520" x="57.6" y="295.488014" style="stroke: #000000; stroke-width: 0.8"/>
      </g>
     </g>
     <g id="text_8">
      <!-- 0 -->
      <g transform="translate(44.2375 299.287233) scale(0.1 -0.1)">
       <use xlink:href="#DejaVuSans-30"/>
      </g>
     </g>
    </g>
    <g id="ytick_2">
     <g id="line2d_8">
      <g>
       <use xlink:href="#mf9b36fd520" x="57.6" y="244.12498" style="stroke: #000000; stroke-width: 0.8"/>
      </g>
     </g>
     <g id="text_9">
      <!-- 1 -->
      <g transform="translate(44.2375 247.924199) scale(0.1 -0.1)">
       <use xlink:href="#DejaVuSans-31"/>
      </g>
     </g>
    </g>
    <g id="ytick_3">
     <g id="line2d_9">
      <g>
       <use xlink:href="#mf9b36fd520" x="57.6" y="192.761946" style="stroke: #000000; stroke-width: 0.8"/>
      </g>
     </g>
     <g id="text_10">
      <!-- 2 -->
      <g transform="translate(44.2375 196.561165) scale(0.1 -0.1)">
       <use xlink:href="#DejaVuSans-32"/>
      </g>
     </g>
    </g>
    <g id="ytick_4">
     <g id="line2d_10">
      <g>
       <use xlink:href="#mf9b36fd520" x="57.6" y="141.398912" style="stroke: #000000; stroke-width: 0.8"/>
      </g>
     </g>
     <g id="text_11">
      <!-- 3 -->
      <g transform="translate(44.2375 145.198131) scale(0.1 -0.1)">
       <defs>
        <path id="DejaVuSans-33" d="M 2597 2516 
Q 3050 2419 3304 2112 
Q 3559 1806 3559 1356 
Q 3559 666 3084 287 
Q 2609 -91 1734 -91 
Q 1441 -91 1130 -33 
Q 819 25 488 141 
L 488 750 
Q 750 597 1062 519 
Q 1375 441 1716 441 
Q 2309 441 2620 675 
Q 2931 909 2931 1356 
Q 2931 1769 2642 2001 
Q 2353 2234 1838 2234 
L 1294 2234 
L 1294 2753 
L 1863 2753 
Q 2328 2753 2575 2939 
Q 2822 3125 2822 3475 
Q 2822 3834 2567 4026 
Q 2313 4219 1838 4219 
Q 1578 4219 1281 4162 
Q 984 4106 628 3988 
L 628 4550 
Q 988 4650 1302 4700 
Q 1616 4750 1894 4750 
Q 2613 4750 3031 4423 
Q 3450 4097 3450 3541 
Q 3450 3153 3228 2886 
Q 3006 2619 2597 2516 
z
" transform="scale(0.015625)"/>
       </defs>
       <use xlink:href="#DejaVuSans-33"/>
      </g>
     </g>
    </g>
    <g id="ytick_5">
     <g id="line2d_11">
      <g>
       <use xlink:href="#mf9b36fd520" x="57.6" y="90.035878" style="stroke: #000000; stroke-width: 0.8"/>
      </g>
     </g>
     <g id="text_12">
      <!-- 4 -->
      <g transform="translate(44.2375 93.835097) scale(0.1 -0.1)">
       <use xlink:href="#DejaVuSans-34"/>
      </g>
     </g>
    </g>
    <g id="text_13">
     <!-- loss -->
     <g transform="translate(38.157812 184.185812) rotate(-90) scale(0.1 -0.1)">
      <defs>
       <path id="DejaVuSans-6c" d="M 603 4863 
L 1178 4863 
L 1178 0 
L 603 0 
L 603 4863 
z
" transform="scale(0.015625)"/>
       <path id="DejaVuSans-73" d="M 2834 3397 
L 2834 2853 
Q 2591 2978 2328 3040 
Q 2066 3103 1784 3103 
Q 1356 3103 1142 2972 
Q 928 2841 928 2578 
Q 928 2378 1081 2264 
Q 1234 2150 1697 2047 
L 1894 2003 
Q 2506 1872 2764 1633 
Q 3022 1394 3022 966 
Q 3022 478 2636 193 
Q 2250 -91 1575 -91 
Q 1294 -91 989 -36 
Q 684 19 347 128 
L 347 722 
Q 666 556 975 473 
Q 1284 391 1588 391 
Q 1994 391 2212 530 
Q 2431 669 2431 922 
Q 2431 1156 2273 1281 
Q 2116 1406 1581 1522 
L 1381 1569 
Q 847 1681 609 1914 
Q 372 2147 372 2553 
Q 372 3047 722 3315 
Q 1072 3584 1716 3584 
Q 2034 3584 2315 3537 
Q 2597 3491 2834 3397 
z
" transform="scale(0.015625)"/>
      </defs>
      <use xlink:href="#DejaVuSans-6c"/>
      <use xlink:href="#DejaVuSans-6f" x="27.783203"/>
      <use xlink:href="#DejaVuSans-73" x="88.964844"/>
      <use xlink:href="#DejaVuSans-73" x="141.064453"/>
     </g>
    </g>
   </g>
   <g id="line2d_12">
    <path d="M 73.832727 202.904749 
L 74.807666 278.153101 
L 75.132645 287.235113 
L 75.457625 290.141675 
L 75.782604 291.060066 
L 76.107584 293.360702 
L 76.432563 292.979828 
L 76.757543 293.543192 
L 77.082523 294.658477 
L 78.382441 295.270201 
L 79.357379 295.338457 
L 79.682359 294.688968 
L 80.007338 295.259398 
L 80.982277 295.474347 
L 81.957215 295.307719 
L 82.282195 295.208637 
L 82.607174 295.462397 
L 86.181949 295.467914 
L 86.506929 295.329927 
L 86.831908 295.4729 
L 93.331499 295.478188 
L 94.956396 295.48658 
L 103.405864 295.480325 
L 103.730844 295.255148 
L 104.055823 295.485801 
L 108.930516 295.486958 
L 109.255495 295.352635 
L 109.580475 295.47865 
L 109.905455 295.182725 
L 110.230434 295.486051 
L 112.180311 295.436877 
L 112.505291 295.224963 
L 112.83027 295.486365 
L 117.379984 295.486071 
L 117.704963 295.239361 
L 118.029943 295.483048 
L 127.129369 295.481325 
L 135.253857 295.487074 
L 243.472039 295.487831 
L 290.91905 295.487282 
L 291.244029 294.982482 
L 291.569009 295.486771 
L 291.893989 295.482738 
L 292.218968 293.488128 
L 292.543948 295.482122 
L 294.168845 295.487097 
L 294.493825 294.969123 
L 294.818804 295.053676 
L 295.143784 295.486108 
L 295.468763 294.861307 
L 295.793743 295.427057 
L 296.443702 295.442179 
L 296.768681 295.346872 
L 297.093661 293.937451 
L 297.41864 295.487491 
L 297.74362 295.416925 
L 298.393579 295.483109 
L 300.343456 295.485594 
L 302.943292 295.485091 
L 303.268272 295.193277 
L 303.593251 295.487635 
L 307.168026 295.395991 
L 307.493006 295.334063 
L 307.817985 295.485343 
L 310.092842 295.386182 
L 310.417821 295.26776 
L 310.742801 295.484825 
L 324.391941 295.487613 
L 395.562457 295.487802 
L 395.887437 295.363478 
L 396.212416 295.487992 
L 398.487273 295.487934 
L 398.487273 295.487934 
" clip-path="url(#pcd9390a6c4)" style="fill: none; stroke: #0000ff; stroke-width: 1.5; stroke-linecap: square"/>
   </g>
   <g id="line2d_13">
    <path d="M 73.832727 203.098932 
L 74.807666 247.794201 
L 75.132645 249.354173 
L 75.457625 247.902023 
L 76.432563 231.911181 
L 76.757543 227.926775 
L 77.407502 216.631523 
L 77.732482 215.062878 
L 78.057461 210.23236 
L 78.70742 197.682778 
L 79.0324 195.126299 
L 79.357379 194.95106 
L 79.682359 186.500323 
L 80.007338 185.158172 
L 80.332318 178.302831 
L 80.657297 176.214904 
L 80.982277 178.756639 
L 81.307256 179.39181 
L 81.632236 176.921383 
L 81.957215 168.736736 
L 82.282195 170.866054 
L 82.607174 169.007457 
L 82.932154 172.965871 
L 83.257133 168.26489 
L 83.582113 166.587079 
L 84.232072 161.849054 
L 84.557052 168.780271 
L 84.882031 161.407846 
L 85.207011 161.946764 
L 85.53199 159.909486 
L 85.85697 159.726337 
L 86.181949 151.830388 
L 86.506929 157.334382 
L 86.831908 153.548659 
L 87.156888 155.994043 
L 87.481867 156.647289 
L 87.806847 162.766933 
L 88.131826 162.612488 
L 88.781785 148.215777 
L 89.106765 152.93329 
L 89.431744 154.602737 
L 89.756724 150.714823 
L 90.081704 150.067443 
L 90.406683 154.912387 
L 90.731663 153.561627 
L 91.056642 150.456593 
L 91.381622 151.573897 
L 91.706601 158.391423 
L 92.031581 150.202185 
L 92.35656 148.637722 
L 92.68154 149.924227 
L 93.006519 147.769732 
L 93.331499 149.461847 
L 93.656478 154.703129 
L 93.981458 156.137945 
L 94.306437 154.758995 
L 94.631417 148.991665 
L 94.956396 151.900753 
L 95.281376 147.823431 
L 95.606355 155.362742 
L 95.931335 157.724475 
L 96.256314 154.397349 
L 96.581294 155.097104 
L 96.906274 146.700224 
L 97.231253 157.006718 
L 97.556233 149.216782 
L 97.881212 144.640353 
L 98.206192 148.522525 
L 98.531171 149.831746 
L 98.856151 153.70548 
L 99.18113 152.294287 
L 99.50611 138.664427 
L 99.831089 152.241225 
L 100.156069 150.118019 
L 100.481048 144.329932 
L 100.806028 147.745216 
L 101.131007 144.643293 
L 101.455987 146.697432 
L 101.780966 147.423945 
L 102.105946 145.062788 
L 102.430925 153.308958 
L 102.755905 142.657571 
L 103.080885 149.364014 
L 103.405864 146.597689 
L 103.730844 152.003826 
L 104.055823 153.051524 
L 104.380803 146.695718 
L 104.705782 150.778906 
L 105.030762 146.8761 
L 105.355741 156.603375 
L 105.680721 143.89606 
L 106.0057 148.64011 
L 106.33068 146.625181 
L 106.655659 142.970539 
L 106.980639 146.708172 
L 107.305618 154.842573 
L 107.630598 146.488676 
L 107.955577 145.90538 
L 108.280557 146.08559 
L 108.605536 132.079414 
L 108.930516 141.848961 
L 109.255495 143.983336 
L 109.580475 138.643866 
L 109.905455 139.169815 
L 110.230434 143.862175 
L 110.555414 141.157068 
L 110.880393 140.432931 
L 111.205373 144.201142 
L 111.530352 150.282395 
L 111.855332 147.72779 
L 112.180311 149.756679 
L 112.505291 144.803199 
L 112.83027 147.377496 
L 113.15525 136.389849 
L 113.480229 143.44279 
L 113.805209 140.011574 
L 114.130188 143.266486 
L 114.455168 135.92726 
L 114.780147 145.109151 
L 115.105127 138.326697 
L 115.430106 124.628567 
L 115.755086 128.980111 
L 116.080066 129.863934 
L 116.405045 121.074181 
L 116.730025 127.083306 
L 117.055004 123.479117 
L 117.379984 128.301259 
L 117.704963 122.043322 
L 118.354922 133.082696 
L 118.679902 135.174847 
L 119.004881 136.044784 
L 119.329861 135.44809 
L 119.65484 134.200551 
L 119.97982 142.099562 
L 120.304799 141.967269 
L 120.629779 137.999021 
L 120.954758 138.970342 
L 121.279738 142.67 
L 121.604717 141.693304 
L 121.929697 137.801507 
L 122.254676 139.354643 
L 122.579656 139.953749 
L 122.904636 147.768361 
L 123.229615 141.835895 
L 123.554595 141.724359 
L 123.879574 136.909773 
L 124.204554 143.525082 
L 124.529533 143.666229 
L 124.854513 142.90593 
L 125.179492 141.691687 
L 125.504472 154.64572 
L 125.829451 141.243022 
L 126.154431 150.750752 
L 126.47941 144.267552 
L 126.80439 147.388175 
L 127.129369 149.383154 
L 127.454349 144.493831 
L 127.779328 145.751498 
L 128.104308 140.624175 
L 128.429287 142.205403 
L 128.754267 147.275978 
L 129.079247 142.1411 
L 129.404226 144.312482 
L 130.054185 145.422989 
L 130.379165 142.236091 
L 130.704144 149.379358 
L 131.029124 147.783607 
L 131.354103 145.36618 
L 131.679083 150.864615 
L 132.004062 147.514528 
L 132.329042 137.133395 
L 132.654021 141.764281 
L 132.979001 137.942825 
L 133.30398 147.403911 
L 133.62896 134.784338 
L 133.953939 146.256543 
L 134.278919 144.831083 
L 134.603898 147.273957 
L 134.928878 138.894123 
L 135.253857 145.247505 
L 135.578837 136.323317 
L 135.903817 144.360045 
L 136.228796 133.320291 
L 136.553776 138.725644 
L 136.878755 146.001718 
L 137.203735 138.747981 
L 137.528714 144.013523 
L 137.853694 134.385146 
L 138.828632 140.599181 
L 139.153612 129.399215 
L 139.478591 137.953491 
L 139.803571 142.737169 
L 140.12855 143.349256 
L 140.45353 133.637889 
L 140.778509 137.087094 
L 141.103489 135.37999 
L 141.428468 135.155952 
L 141.753448 138.192948 
L 142.078428 136.714586 
L 142.403407 141.952819 
L 142.728387 137.682355 
L 143.053366 137.97333 
L 143.378346 140.231217 
L 143.703325 132.418197 
L 144.028305 140.300614 
L 144.353284 122.080023 
L 144.678264 140.791724 
L 145.003243 130.697611 
L 145.328223 139.22371 
L 145.978182 132.324797 
L 146.303161 138.883702 
L 146.628141 130.746447 
L 146.95312 128.83632 
L 147.2781 135.300539 
L 147.603079 135.291587 
L 147.928059 142.584463 
L 148.253038 128.268857 
L 148.578018 138.165064 
L 148.902998 138.384339 
L 149.227977 145.403028 
L 149.552957 134.946461 
L 149.877936 137.710986 
L 150.202916 130.55464 
L 150.527895 135.8898 
L 150.852875 129.97678 
L 151.177854 136.833738 
L 151.502834 137.886065 
L 151.827813 139.566154 
L 152.152793 139.912566 
L 152.477772 133.868932 
L 152.802752 131.597721 
L 153.127731 132.235451 
L 153.452711 138.569313 
L 153.77769 136.686285 
L 154.10267 141.824115 
L 154.427649 139.834547 
L 154.752629 140.304031 
L 155.077609 137.672484 
L 155.402588 137.193841 
L 155.727568 138.226048 
L 156.052547 138.589751 
L 156.377527 139.939066 
L 156.702506 137.787902 
L 157.352465 143.633067 
L 157.677445 131.821527 
L 158.002424 143.536667 
L 158.327404 141.660571 
L 158.652383 136.300013 
L 158.977363 127.851933 
L 159.302342 135.497 
L 159.627322 132.218344 
L 159.952301 137.769411 
L 160.277281 139.874285 
L 160.60226 137.058695 
L 160.92724 137.159479 
L 161.252219 134.80349 
L 161.902179 136.895519 
L 162.227158 136.011646 
L 162.552138 132.924687 
L 162.877117 135.791502 
L 163.202097 132.148652 
L 163.527076 140.157864 
L 163.852056 140.287303 
L 164.177035 131.804849 
L 164.502015 138.341699 
L 164.826994 131.243876 
L 165.151974 137.422117 
L 165.476953 132.294868 
L 165.801933 141.739116 
L 166.126912 135.602278 
L 166.451892 136.132146 
L 166.776871 138.960937 
L 167.101851 138.816056 
L 167.42683 139.292923 
L 167.75181 131.933161 
L 168.07679 139.241087 
L 168.401769 139.599059 
L 168.726749 134.944661 
L 169.051728 139.139764 
L 169.376708 128.874037 
L 169.701687 132.807482 
L 170.026667 132.824785 
L 170.351646 138.339151 
L 170.676626 138.558892 
L 171.326585 133.982807 
L 171.651564 135.598445 
L 171.976544 132.933627 
L 172.301523 142.828229 
L 172.626503 138.954998 
L 172.951482 132.514878 
L 173.276462 138.01619 
L 173.601441 138.518725 
L 173.926421 139.415272 
L 174.2514 145.463278 
L 174.57638 141.981683 
L 174.90136 132.880773 
L 175.226339 145.776847 
L 175.876298 133.214242 
L 176.201278 137.542017 
L 176.526257 137.408206 
L 176.851237 138.987143 
L 177.176216 139.005316 
L 177.501196 139.279269 
L 177.826175 135.035072 
L 178.476134 140.676869 
L 178.801114 135.071222 
L 179.126093 140.6465 
L 179.451073 132.450881 
L 179.776052 138.755194 
L 180.101032 134.063642 
L 180.426011 134.075251 
L 180.750991 131.739823 
L 181.075971 141.321751 
L 181.40095 135.19253 
L 181.72593 138.420317 
L 182.050909 135.491489 
L 182.375889 141.978401 
L 182.700868 135.330272 
L 183.025848 135.660018 
L 183.350827 135.537412 
L 183.675807 133.296877 
L 184.000786 135.990228 
L 184.325766 132.310188 
L 184.650745 133.126598 
L 184.975725 130.013824 
L 185.300704 133.775912 
L 185.625684 130.593043 
L 185.950663 138.46635 
L 186.275643 140.473992 
L 186.600622 127.981017 
L 186.925602 135.93691 
L 187.250581 131.579561 
L 187.575561 131.394047 
L 187.900541 142.54181 
L 188.22552 139.670097 
L 188.5505 132.822777 
L 188.875479 135.691502 
L 189.200459 132.473034 
L 189.525438 141.421139 
L 189.850418 134.842359 
L 190.175397 136.675337 
L 190.500377 131.899436 
L 190.825356 133.34515 
L 191.150336 128.805778 
L 191.475315 137.092347 
L 191.800295 128.548027 
L 192.125274 134.746412 
L 192.450254 137.741833 
L 192.775233 127.798737 
L 193.100213 130.023572 
L 193.425192 131.081814 
L 193.750172 128.459036 
L 194.075152 138.64356 
L 194.400131 138.38173 
L 194.725111 128.443863 
L 195.05009 130.669604 
L 195.37507 131.451101 
L 195.700049 133.688697 
L 196.350008 141.175327 
L 196.674988 133.844012 
L 196.999967 133.823267 
L 197.324947 135.306478 
L 197.649926 134.049975 
L 197.974906 135.325362 
L 198.624865 131.723083 
L 198.949844 129.209648 
L 199.274824 142.386201 
L 199.599803 129.540251 
L 199.924783 127.753292 
L 200.249762 137.117415 
L 200.899722 131.053513 
L 201.224701 136.925889 
L 201.87466 133.146228 
L 202.524619 125.301932 
L 203.174578 137.3139 
L 203.499558 137.44258 
L 203.824537 138.352548 
L 204.149517 135.237044 
L 204.474496 139.098703 
L 204.799476 136.614132 
L 205.124455 130.587018 
L 205.449435 129.143937 
L 205.774414 136.709136 
L 206.099394 130.768772 
L 206.424373 133.081349 
L 206.749353 137.696229 
L 207.074333 134.602682 
L 207.399312 130.434348 
L 207.724292 137.843413 
L 208.049271 140.471077 
L 208.374251 132.740754 
L 208.69923 142.607864 
L 209.02421 133.01647 
L 209.349189 127.60192 
L 209.674169 136.636322 
L 209.999148 133.836995 
L 210.324128 139.239886 
L 210.649107 133.091905 
L 210.974087 134.368638 
L 211.299066 138.220182 
L 211.624046 133.298395 
L 211.949025 138.060973 
L 212.274005 136.689016 
L 212.598984 136.053931 
L 212.923964 133.076438 
L 213.248943 135.336187 
L 213.573923 139.68549 
L 213.898903 131.101346 
L 214.223882 133.356331 
L 214.548862 131.12503 
L 214.873841 139.939617 
L 215.198821 134.617561 
L 215.5238 133.953514 
L 215.84878 142.43374 
L 216.173759 132.665588 
L 216.498739 126.930906 
L 216.823718 125.376044 
L 217.148698 131.513359 
L 217.473677 134.680211 
L 217.798657 135.801176 
L 218.123636 129.950782 
L 218.773595 135.68015 
L 219.098575 133.734815 
L 219.423554 135.022006 
L 219.748534 132.804114 
L 220.073514 133.390301 
L 220.398493 138.417464 
L 220.723473 129.919102 
L 221.048452 135.062197 
L 221.373432 128.127245 
L 221.698411 130.848848 
L 222.023391 131.860922 
L 222.34837 138.659541 
L 222.67335 126.546875 
L 222.998329 133.447832 
L 223.323309 131.053158 
L 223.648288 132.441023 
L 223.973268 132.054506 
L 224.298247 124.713541 
L 224.623227 136.959773 
L 224.948206 126.486356 
L 225.273186 130.506085 
L 225.598165 129.060334 
L 225.923145 130.094476 
L 226.248124 133.801812 
L 226.898084 126.034825 
L 227.223063 127.425824 
L 227.548043 134.079317 
L 227.873022 130.936932 
L 228.198002 129.339602 
L 228.522981 130.859232 
L 228.847961 129.665122 
L 229.17294 133.297171 
L 229.49792 135.508352 
L 229.822899 136.487596 
L 230.147879 138.283053 
L 230.472858 136.443425 
L 230.797838 135.501739 
L 231.122817 127.482462 
L 231.447797 128.694794 
L 231.772776 137.356589 
L 232.097756 136.526917 
L 232.422735 133.925973 
L 232.747715 138.095838 
L 233.072695 129.081152 
L 233.397674 131.836761 
L 233.722654 137.042653 
L 234.047633 139.246279 
L 234.372613 127.766383 
L 234.697592 135.707483 
L 235.022572 137.454422 
L 235.347551 134.807923 
L 235.672531 135.145702 
L 235.99751 132.707286 
L 236.32249 132.924944 
L 236.647469 130.823352 
L 236.972449 132.509221 
L 237.297428 131.749571 
L 237.622408 131.420915 
L 237.947387 133.82808 
L 238.272367 133.600416 
L 238.597346 131.737667 
L 238.922326 139.111047 
L 239.247305 134.186456 
L 239.572285 133.488476 
L 239.897265 129.17389 
L 240.222244 130.949889 
L 240.547224 130.964731 
L 240.872203 133.585488 
L 241.197183 137.607214 
L 241.522162 135.208621 
L 241.847142 136.946045 
L 242.172121 135.197282 
L 242.497101 123.967802 
L 242.82208 135.431044 
L 243.14706 138.72197 
L 243.472039 129.590545 
L 243.797019 131.605877 
L 244.121998 129.172127 
L 244.446978 134.463593 
L 244.771957 128.154896 
L 245.096937 138.808194 
L 245.421916 130.539039 
L 245.746896 135.596363 
L 246.071876 126.745099 
L 246.396855 135.652278 
L 246.721835 124.536588 
L 247.046814 129.028641 
L 247.371794 136.673268 
L 247.696773 131.662821 
L 248.021753 137.922607 
L 248.346732 130.683614 
L 248.671712 134.468528 
L 248.996691 140.354876 
L 249.321671 136.633554 
L 249.64665 130.174503 
L 249.97163 126.789429 
L 250.296609 133.588158 
L 250.621589 128.546569 
L 250.946568 126.709819 
L 251.271548 126.10192 
L 251.596527 136.016349 
L 251.921507 133.243681 
L 252.246486 126.03022 
L 252.571466 133.822802 
L 252.896446 133.231716 
L 253.221425 128.158619 
L 253.546405 133.367475 
L 253.871384 129.633479 
L 254.196364 132.149656 
L 254.521343 128.749692 
L 254.846323 136.293963 
L 255.171302 138.834951 
L 255.496282 133.161143 
L 255.821261 137.111573 
L 256.146241 127.924686 
L 256.47122 133.882145 
L 256.7962 128.383013 
L 257.771138 138.834045 
L 258.096118 133.29084 
L 258.421097 134.26652 
L 258.746077 126.108949 
L 259.071057 134.918222 
L 259.396036 139.677935 
L 259.721016 132.145529 
L 260.045995 137.435857 
L 260.370975 132.48757 
L 260.695954 124.469051 
L 261.020934 141.197075 
L 261.345913 130.825617 
L 261.670893 128.666763 
L 261.995872 129.13583 
L 262.320852 131.271356 
L 262.645831 131.611351 
L 262.970811 123.550168 
L 263.29579 138.55812 
L 263.62077 131.139614 
L 263.945749 128.985389 
L 264.270729 135.319128 
L 264.595708 131.438733 
L 264.920688 129.812244 
L 265.245667 130.43283 
L 265.570647 129.438267 
L 265.895627 124.873864 
L 266.545586 141.03167 
L 266.870565 129.605325 
L 267.195545 131.399203 
L 267.520524 128.628139 
L 267.845504 128.180356 
L 268.170483 129.159085 
L 268.495463 128.524661 
L 268.820442 131.357457 
L 269.470401 129.294218 
L 269.795381 127.064142 
L 270.12036 129.576511 
L 270.44534 130.001088 
L 270.770319 127.4722 
L 271.095299 126.769052 
L 271.420278 132.676059 
L 271.745258 132.014707 
L 272.070238 132.279451 
L 272.395217 130.185842 
L 272.720197 130.447843 
L 273.045176 134.509858 
L 273.370156 129.220657 
L 273.695135 126.930869 
L 274.020115 136.101568 
L 274.345094 138.466839 
L 274.670074 128.749361 
L 274.995053 135.174468 
L 275.320033 133.176622 
L 275.645012 132.10671 
L 275.969992 125.382657 
L 276.294971 122.356364 
L 276.619951 131.903906 
L 276.94493 130.695296 
L 277.26991 132.730222 
L 277.594889 128.785107 
L 277.919869 141.475045 
L 278.244848 128.328078 
L 278.569828 129.385683 
L 278.894808 128.574747 
L 279.219787 128.660138 
L 279.544767 134.634913 
L 279.869746 127.639111 
L 280.194726 136.781644 
L 280.519705 128.66631 
L 280.844685 128.21751 
L 281.169664 128.001872 
L 281.494644 130.880087 
L 281.819623 124.861716 
L 282.144603 135.793633 
L 282.469582 121.279717 
L 282.794562 131.511069 
L 283.119541 131.667009 
L 283.444521 133.919128 
L 283.7695 122.896972 
L 284.09448 126.336257 
L 284.419459 126.943617 
L 284.744439 130.860224 
L 285.069419 126.623069 
L 285.394398 125.365721 
L 286.044357 129.046765 
L 286.369337 134.175986 
L 286.694316 133.518871 
L 287.344275 128.295026 
L 287.669255 130.775519 
L 287.994234 137.634841 
L 288.319214 128.919249 
L 288.644193 137.956883 
L 289.294152 130.380895 
L 289.619132 130.406954 
L 289.944111 135.536579 
L 290.269091 131.500268 
L 290.59407 131.848934 
L 290.91905 128.319151 
L 291.244029 127.890789 
L 291.569009 127.782388 
L 291.893989 123.840077 
L 292.218968 108.557584 
L 292.543948 122.997866 
L 292.868927 119.559865 
L 293.193907 122.555678 
L 293.518886 131.210432 
L 293.843866 123.481652 
L 294.168845 126.899422 
L 294.493825 134.22999 
L 294.818804 138.300516 
L 295.793743 109.971888 
L 296.118722 109.106054 
L 296.768681 97.741551 
L 297.093661 100.117856 
L 297.74362 123.027207 
L 298.0686 116.662314 
L 298.393579 121.608299 
L 298.718559 131.713715 
L 299.043538 126.636674 
L 299.368518 130.174907 
L 299.693497 126.806292 
L 300.018477 116.065142 
L 300.343456 118.020151 
L 300.668436 123.38055 
L 301.318395 105.732246 
L 301.643374 102.858648 
L 301.968354 103.300737 
L 302.293333 104.467343 
L 302.618313 103.819645 
L 302.943292 88.877367 
L 303.268272 94.832218 
L 303.593251 90.580135 
L 303.918231 111.384134 
L 304.24321 107.261417 
L 304.56819 97.823549 
L 304.89317 100.154202 
L 305.218149 95.145065 
L 305.868108 103.992532 
L 306.843047 87.830171 
L 307.168026 86.113663 
L 307.493006 89.594512 
L 307.817985 90.245173 
L 308.142965 84.738987 
L 308.467944 75.254022 
L 308.792924 73.399601 
L 309.117903 63.672632 
L 309.767862 79.390663 
L 310.092842 67.347039 
L 310.417821 62.515884 
L 310.742801 83.878247 
L 311.067781 88.555178 
L 311.39276 89.373571 
L 311.71774 103.246867 
L 312.042719 108.496061 
L 312.692678 100.788956 
L 313.017658 111.586032 
L 313.342637 97.190583 
L 313.667617 110.56432 
L 313.992596 107.821997 
L 314.317576 110.829297 
L 314.642555 106.238186 
L 314.967535 111.40118 
L 315.292514 107.211735 
L 315.617494 105.734475 
L 315.942473 92.737275 
L 316.267453 94.835072 
L 316.917412 107.386974 
L 317.242391 92.334789 
L 317.567371 99.31161 
L 317.892351 102.833384 
L 318.21733 93.311657 
L 318.54231 87.16152 
L 318.867289 93.275519 
L 319.192269 96.018797 
L 319.517248 100.684939 
L 319.842228 95.478533 
L 320.167207 106.342301 
L 320.492187 96.589224 
L 320.817166 97.624676 
L 321.142146 90.662673 
L 321.467125 97.025668 
L 321.792105 101.114648 
L 322.442064 93.172433 
L 322.767043 93.821356 
L 323.092023 102.540511 
L 323.417002 93.674577 
L 323.741982 90.3228 
L 324.066962 95.344636 
L 324.391941 96.7723 
L 324.716921 91.066873 
L 325.0419 98.160483 
L 325.36688 87.232645 
L 325.691859 89.835952 
L 326.016839 106.086937 
L 326.341818 90.159746 
L 326.666798 99.810508 
L 327.316757 91.499656 
L 327.641736 91.925984 
L 327.966716 95.68806 
L 328.291695 93.741721 
L 328.616675 101.086886 
L 328.941654 99.2338 
L 329.266634 94.327969 
L 329.591613 87.054638 
L 329.916593 100.321579 
L 330.241572 104.585895 
L 330.566552 96.828092 
L 330.891532 97.696376 
L 331.216511 91.682205 
L 331.541491 98.425815 
L 331.86647 93.270082 
L 332.19145 104.951264 
L 332.516429 93.013886 
L 332.841409 100.90877 
L 333.166388 99.977248 
L 333.491368 89.049618 
L 333.816347 94.690472 
L 334.141327 105.210155 
L 334.466306 90.326192 
L 334.791286 99.244552 
L 335.116265 96.952817 
L 335.441245 99.945054 
L 335.766224 93.931937 
L 336.091204 94.192076 
L 336.416183 97.166606 
L 336.741163 96.244061 
L 337.066143 96.368344 
L 337.391122 101.017783 
L 337.716102 84.404944 
L 338.041081 95.037839 
L 338.366061 92.128568 
L 338.69104 92.034985 
L 339.01602 104.118996 
L 339.340999 92.892406 
L 339.665979 93.046852 
L 339.990958 90.223951 
L 340.315938 91.096067 
L 340.965897 102.813497 
L 341.615856 91.027894 
L 341.940835 104.136642 
L 342.265815 91.940508 
L 342.590794 91.701627 
L 342.915774 86.494535 
L 343.240753 87.547315 
L 343.565733 85.815769 
L 343.890713 97.192996 
L 344.215692 93.69733 
L 344.540672 98.845127 
L 344.865651 98.489947 
L 345.51561 94.435549 
L 345.84059 85.300878 
L 346.165569 89.791916 
L 346.490549 98.46712 
L 346.815528 98.526991 
L 347.140508 99.521566 
L 347.465487 88.537984 
L 347.790467 94.639382 
L 348.115446 86.693188 
L 348.440426 98.424186 
L 348.765405 84.975872 
L 349.090385 92.757077 
L 349.415364 104.504178 
L 349.740344 87.563382 
L 350.065324 96.995126 
L 350.390303 87.201124 
L 350.715283 96.507054 
L 351.040262 90.505472 
L 351.365242 102.057558 
L 351.690221 96.479182 
L 352.015201 87.799532 
L 352.34018 89.884495 
L 352.66516 94.14417 
L 352.990139 81.779177 
L 353.315119 87.164484 
L 353.640098 98.542543 
L 353.965078 88.588731 
L 354.290057 93.753514 
L 354.615037 87.146605 
L 354.940016 94.266776 
L 355.264996 89.269652 
L 355.589975 91.264987 
L 355.914955 81.346824 
L 356.239934 90.334593 
L 356.564914 103.571163 
L 356.889894 85.750156 
L 357.214873 96.097343 
L 357.864832 84.132472 
L 358.189812 101.558047 
L 358.514791 100.63909 
L 358.839771 103.627482 
L 359.16475 92.840668 
L 359.48973 88.41724 
L 359.814709 96.702082 
L 360.139689 93.231067 
L 360.464668 100.368407 
L 360.789648 86.895393 
L 361.114627 99.454912 
L 361.439607 96.853331 
L 361.764586 106.209604 
L 362.089566 81.926251 
L 362.414545 103.094406 
L 362.739525 91.023498 
L 363.064505 87.547683 
L 363.389484 79.812755 
L 363.714464 93.874626 
L 364.039443 99.610949 
L 364.364423 97.027909 
L 364.689402 95.81325 
L 365.014382 97.042469 
L 365.339361 100.251287 
L 365.664341 84.957577 
L 366.3143 96.875043 
L 366.639279 98.996523 
L 366.964259 85.83235 
L 367.289238 84.262034 
L 367.614218 102.890916 
L 367.939197 92.804065 
L 368.589156 84.855593 
L 368.914136 101.078069 
L 369.239115 103.208832 
L 369.564095 97.420047 
L 369.889075 97.932966 
L 370.214054 88.388168 
L 370.539034 87.587849 
L 370.864013 89.464191 
L 371.188993 99.547246 
L 371.513972 103.274739 
L 371.838952 92.806893 
L 372.163931 92.126621 
L 372.488911 91.11342 
L 372.81389 92.229315 
L 373.13887 86.834653 
L 373.463849 95.207972 
L 373.788829 85.891302 
L 374.113808 106.511759 
L 374.438788 98.56581 
L 374.763767 96.590473 
L 375.088747 92.743104 
L 375.413726 99.496315 
L 375.738706 94.710629 
L 376.063686 92.817033 
L 376.388665 82.728529 
L 376.713645 96.514107 
L 377.363604 91.180344 
L 377.688583 90.923951 
L 378.013563 94.351616 
L 378.338542 101.465187 
L 378.988501 86.274158 
L 379.313481 85.79407 
L 379.63846 98.643437 
L 379.96344 93.909759 
L 380.288419 103.76062 
L 380.938378 83.018781 
L 381.263358 88.330833 
L 381.588337 90.371661 
L 381.913317 88.846801 
L 382.238296 81.99713 
L 382.563276 91.543594 
L 382.888256 97.224688 
L 383.213235 99.99514 
L 383.538215 97.674431 
L 383.863194 97.591379 
L 384.188174 85.863455 
L 384.513153 92.613396 
L 384.838133 95.244709 
L 385.163112 88.002128 
L 385.488092 103.902782 
L 385.813071 94.708939 
L 386.138051 89.08567 
L 386.46303 88.870754 
L 386.78801 94.291158 
L 387.112989 89.784617 
L 387.437969 88.238572 
L 387.762948 96.653992 
L 388.087928 91.658044 
L 388.737887 93.15235 
L 389.062867 97.923072 
L 389.387846 85.040065 
L 389.712826 92.964988 
L 390.037805 78.267836 
L 390.362785 101.110729 
L 390.687764 97.267769 
L 391.012744 87.384739 
L 391.337723 98.666251 
L 391.662703 101.15201 
L 391.987682 92.120253 
L 392.312662 96.993559 
L 392.637641 91.838243 
L 392.962621 93.036663 
L 393.2876 91.701823 
L 393.61258 99.44427 
L 393.937559 90.551272 
L 394.262539 98.524039 
L 394.587518 85.950401 
L 395.237477 93.101113 
L 395.562457 95.056098 
L 396.537396 84.914055 
L 396.862375 82.858751 
L 397.187355 77.208517 
L 397.512334 75.266684 
L 397.837314 72.295927 
L 398.162293 80.975773 
L 398.487273 68.0658 
L 398.487273 68.0658 
" clip-path="url(#pcd9390a6c4)" style="fill: none; stroke: #008000; stroke-width: 1.5; stroke-linecap: square"/>
   </g>
   <g id="line2d_14">
    <path d="M 73.832727 203.331543 
L 74.807666 244.261191 
L 75.132645 246.999601 
L 75.457625 244.238968 
L 75.782604 237.980715 
L 76.107584 234.92325 
L 76.432563 228.514884 
L 76.757543 225.988304 
L 77.082523 217.644259 
L 77.407502 214.424634 
L 77.732482 209.039848 
L 78.057461 199.507699 
L 78.382441 199.886636 
L 78.70742 197.929723 
L 79.0324 188.689106 
L 79.357379 190.544593 
L 79.682359 182.07894 
L 80.007338 177.814366 
L 80.332318 176.991025 
L 80.982277 173.966067 
L 81.307256 170.563898 
L 81.632236 164.003291 
L 81.957215 164.357198 
L 82.282195 164.23916 
L 82.607174 160.003498 
L 82.932154 163.929865 
L 83.257133 158.720642 
L 83.582113 160.424476 
L 83.907093 158.302751 
L 84.232072 157.480683 
L 84.557052 156.029764 
L 84.882031 149.228746 
L 85.207011 157.347497 
L 85.53199 153.940356 
L 85.85697 149.209385 
L 86.181949 152.689793 
L 86.506929 152.697214 
L 86.831908 151.840393 
L 87.156888 146.614246 
L 87.481867 150.636033 
L 87.806847 150.485861 
L 88.131826 152.038213 
L 88.456806 155.010477 
L 88.781785 146.708539 
L 89.106765 148.454756 
L 89.431744 147.608038 
L 89.756724 142.534205 
L 90.081704 143.913743 
L 90.406683 148.064589 
L 90.731663 144.208955 
L 91.381622 151.272954 
L 91.706601 147.425953 
L 92.031581 141.76553 
L 92.35656 149.269757 
L 92.68154 142.204301 
L 93.006519 143.652109 
L 93.331499 144.409016 
L 93.656478 145.810511 
L 93.981458 144.786557 
L 94.306437 143.34846 
L 94.956396 146.456176 
L 95.281376 146.464381 
L 95.606355 144.868838 
L 95.931335 145.089999 
L 96.256314 145.46596 
L 96.581294 145.237574 
L 96.906274 143.950113 
L 97.231253 147.796282 
L 97.556233 141.573367 
L 97.881212 142.080666 
L 98.206192 140.482245 
L 98.531171 137.621591 
L 98.856151 145.588603 
L 99.18113 144.671556 
L 99.50611 142.382552 
L 99.831089 144.029761 
L 100.156069 146.367748 
L 100.481048 144.067062 
L 100.806028 144.154608 
L 101.131007 142.633691 
L 101.455987 141.812995 
L 101.780966 143.601301 
L 102.105946 138.663643 
L 102.430925 144.706518 
L 102.755905 140.429159 
L 103.080885 139.040829 
L 103.405864 142.069963 
L 103.730844 139.261917 
L 104.055823 142.501815 
L 104.380803 142.119694 
L 105.030762 136.804164 
L 105.355741 135.0958 
L 105.680721 141.60866 
L 106.0057 137.461488 
L 106.33068 142.419976 
L 106.655659 137.735563 
L 106.980639 141.040377 
L 107.305618 141.751839 
L 107.630598 142.167894 
L 107.955577 139.461611 
L 108.280557 140.957031 
L 108.605536 138.442152 
L 108.930516 142.443941 
L 109.255495 144.498975 
L 109.905455 138.514856 
L 110.230434 141.896916 
L 110.555414 140.136164 
L 110.880393 134.640412 
L 111.205373 138.140841 
L 111.530352 135.292469 
L 111.855332 141.803774 
L 112.180311 142.088295 
L 112.505291 145.390905 
L 112.83027 140.490536 
L 113.15525 138.219668 
L 113.480229 138.833273 
L 113.805209 136.795445 
L 114.130188 145.852392 
L 114.455168 138.397772 
L 114.780147 137.968603 
L 115.105127 135.618345 
L 115.430106 137.453687 
L 115.755086 136.39498 
L 116.405045 132.718307 
L 116.730025 132.47923 
L 117.379984 127.254908 
L 117.704963 131.281312 
L 118.029943 137.616655 
L 118.354922 130.969507 
L 118.679902 140.06368 
L 119.004881 132.369005 
L 119.329861 133.639578 
L 119.65484 136.979562 
L 119.97982 138.058855 
L 120.304799 140.494246 
L 120.629779 141.226968 
L 120.954758 135.209074 
L 121.279738 144.528487 
L 121.604717 135.430566 
L 121.929697 136.504421 
L 122.254676 140.6525 
L 122.579656 135.250172 
L 122.904636 144.079614 
L 123.229615 139.921248 
L 123.554595 138.102083 
L 123.879574 137.722448 
L 124.204554 139.023869 
L 124.529533 144.567062 
L 124.854513 142.206089 
L 125.179492 137.351213 
L 125.504472 138.964929 
L 125.829451 137.783089 
L 126.154431 138.83936 
L 126.47941 141.751594 
L 126.80439 135.836199 
L 127.129369 144.392545 
L 127.454349 138.122068 
L 127.779328 139.460374 
L 128.104308 138.146034 
L 128.429287 134.698604 
L 128.754267 141.729331 
L 129.079247 141.072094 
L 129.729206 134.337852 
L 130.054185 136.764916 
L 130.379165 140.266485 
L 130.704144 137.549413 
L 131.029124 136.926758 
L 131.354103 143.239912 
L 131.679083 139.861623 
L 132.004062 142.112665 
L 132.329042 143.434353 
L 132.654021 139.036286 
L 132.979001 139.501079 
L 133.30398 137.494368 
L 133.62896 132.49826 
L 133.953939 141.632907 
L 134.278919 140.165052 
L 134.603898 142.607693 
L 134.928878 139.38369 
L 135.253857 141.304974 
L 135.578837 137.319766 
L 135.903817 136.171749 
L 136.228796 131.479475 
L 136.553776 134.08408 
L 136.878755 135.678717 
L 137.203735 141.396953 
L 137.528714 132.710151 
L 137.853694 132.611878 
L 138.178673 136.240192 
L 138.503653 141.283495 
L 138.828632 136.846364 
L 139.153612 136.819141 
L 139.803571 131.067425 
L 140.12855 145.601608 
L 140.45353 136.272631 
L 140.778509 136.129097 
L 141.103489 136.870194 
L 141.428468 134.822643 
L 141.753448 136.859442 
L 142.078428 133.23904 
L 142.403407 139.868432 
L 142.728387 134.375937 
L 143.053366 141.496708 
L 143.378346 137.662957 
L 143.703325 135.374247 
L 144.028305 135.209662 
L 144.678264 127.618612 
L 145.328223 133.305988 
L 145.653202 130.260187 
L 145.978182 130.232316 
L 146.303161 134.054715 
L 146.628141 133.293607 
L 146.95312 136.084509 
L 147.2781 131.020584 
L 147.603079 135.952511 
L 147.928059 132.663739 
L 148.253038 131.642774 
L 148.578018 135.774713 
L 148.902998 133.463776 
L 149.227977 135.154017 
L 149.552957 132.989505 
L 149.877936 135.124639 
L 150.202916 134.25796 
L 150.527895 132.850146 
L 150.852875 137.087816 
L 151.177854 135.068491 
L 151.502834 131.9572 
L 151.827813 139.209602 
L 152.152793 137.807483 
L 152.477772 135.47797 
L 152.802752 137.480371 
L 153.452711 133.789934 
L 153.77769 129.602925 
L 154.10267 143.055403 
L 154.427649 136.008842 
L 154.752629 137.425693 
L 155.077609 133.564695 
L 155.402588 140.897479 
L 155.727568 134.505107 
L 156.052547 137.035208 
L 156.702506 135.295531 
L 157.027486 138.21799 
L 157.352465 136.916716 
L 157.677445 130.899962 
L 158.002424 135.401421 
L 158.327404 136.128607 
L 158.652383 133.98604 
L 158.977363 135.067353 
L 159.302342 138.528216 
L 159.627322 138.740915 
L 159.952301 133.018785 
L 160.277281 135.50823 
L 160.60226 134.163176 
L 160.92724 140.654766 
L 161.252219 132.029316 
L 161.577199 136.445715 
L 161.902179 131.835096 
L 162.227158 133.616238 
L 162.552138 132.419397 
L 162.877117 138.40561 
L 163.202097 134.690363 
L 163.527076 140.561391 
L 163.852056 133.941697 
L 164.177035 131.598787 
L 164.502015 135.494759 
L 164.826994 130.67912 
L 165.151974 136.049915 
L 165.476953 135.582489 
L 165.801933 132.172789 
L 166.126912 132.390092 
L 166.451892 135.973525 
L 166.776871 133.10131 
L 167.101851 132.617156 
L 167.75181 138.02404 
L 168.07679 139.481718 
L 168.401769 139.106957 
L 168.726749 131.505253 
L 169.051728 134.114842 
L 169.376708 139.841968 
L 169.701687 135.843535 
L 170.026667 129.60295 
L 170.351646 133.307433 
L 170.676626 139.979698 
L 171.001605 140.549512 
L 171.326585 137.518468 
L 171.976544 133.84673 
L 172.301523 139.727959 
L 172.626503 134.220855 
L 172.951482 134.026243 
L 173.276462 132.696767 
L 173.601441 138.615615 
L 173.926421 137.646413 
L 174.2514 138.653173 
L 174.57638 134.205829 
L 174.90136 135.947857 
L 175.226339 134.489836 
L 175.551319 131.613212 
L 175.876298 134.935709 
L 176.201278 133.024087 
L 176.526257 130.066396 
L 176.851237 140.351361 
L 177.176216 133.656355 
L 177.501196 133.433284 
L 177.826175 136.726329 
L 178.151155 132.672177 
L 178.476134 133.566397 
L 178.801114 128.894439 
L 179.126093 133.458927 
L 179.451073 131.239627 
L 179.776052 136.580713 
L 180.101032 135.349866 
L 180.426011 131.474858 
L 180.750991 135.102609 
L 181.075971 134.862711 
L 181.40095 136.983799 
L 181.72593 133.330112 
L 182.050909 134.697759 
L 182.375889 133.144881 
L 182.700868 130.478507 
L 183.025848 134.090142 
L 183.350827 130.256036 
L 183.675807 131.127528 
L 184.000786 138.281706 
L 184.325766 128.460848 
L 184.650745 137.029771 
L 184.975725 132.236578 
L 185.300704 133.977823 
L 185.625684 133.859956 
L 185.950663 133.267217 
L 186.275643 133.050036 
L 186.600622 135.479476 
L 186.925602 132.255179 
L 187.250581 138.341147 
L 187.575561 129.421796 
L 187.900541 130.738524 
L 188.22552 134.110813 
L 188.5505 132.497036 
L 188.875479 129.268833 
L 189.200459 128.81909 
L 189.525438 130.352607 
L 189.850418 138.497491 
L 190.175397 137.457275 
L 190.500377 133.36892 
L 190.825356 133.971847 
L 191.150336 129.021012 
L 191.475315 134.838122 
L 191.800295 134.37203 
L 192.125274 135.881926 
L 192.450254 133.728606 
L 192.775233 133.814793 
L 193.100213 131.8596 
L 193.425192 126.210468 
L 193.750172 131.413616 
L 194.075152 133.475104 
L 194.400131 131.778373 
L 194.725111 128.754725 
L 195.05009 128.451235 
L 195.37507 125.695503 
L 195.700049 131.698566 
L 196.025029 134.407715 
L 196.350008 138.434265 
L 196.674988 133.975324 
L 196.999967 131.8319 
L 197.324947 131.936614 
L 197.649926 129.06342 
L 197.974906 130.072298 
L 198.299885 129.912355 
L 198.624865 134.222385 
L 198.949844 130.814829 
L 199.274824 133.841403 
L 199.599803 130.281177 
L 199.924783 132.953453 
L 200.249762 130.586675 
L 200.574742 133.793546 
L 200.899722 133.669018 
L 201.224701 131.004016 
L 201.549681 129.380429 
L 201.87466 128.890104 
L 202.19964 130.954714 
L 202.524619 133.88566 
L 202.849599 134.275361 
L 203.174578 132.453416 
L 203.499558 135.32219 
L 203.824537 135.714769 
L 204.149517 133.506025 
L 204.474496 127.120375 
L 204.799476 134.261964 
L 205.449435 126.302802 
L 205.774414 136.361206 
L 206.424373 133.299167 
L 206.749353 136.925693 
L 207.074333 134.420365 
L 207.399312 135.362307 
L 207.724292 130.432242 
L 208.049271 129.334201 
L 208.374251 128.816138 
L 208.69923 129.674674 
L 209.02421 134.682537 
L 209.349189 136.050919 
L 209.674169 130.16887 
L 209.999148 133.038133 
L 210.324128 129.108448 
L 210.974087 136.103687 
L 211.299066 134.903943 
L 211.624046 133.175483 
L 211.949025 126.489895 
L 212.598984 135.01963 
L 212.923964 131.812294 
L 213.248943 138.001667 
L 213.898903 129.134666 
L 214.223882 135.111646 
L 214.548862 131.626095 
L 214.873841 133.43937 
L 215.198821 125.2119 
L 215.5238 127.31484 
L 215.84878 134.024088 
L 216.173759 127.672751 
L 216.498739 132.879218 
L 216.823718 130.187838 
L 217.473677 134.819447 
L 217.798657 131.290545 
L 218.123636 133.494207 
L 218.448616 134.010127 
L 218.773595 133.117181 
L 219.098575 136.596817 
L 219.423554 125.975518 
L 219.748534 132.021613 
L 220.073514 134.998531 
L 220.398493 131.0837 
L 220.723473 136.45763 
L 221.048452 132.185904 
L 221.373432 130.636149 
L 221.698411 125.884506 
L 222.34837 134.858842 
L 222.67335 129.946766 
L 222.998329 130.0457 
L 223.648288 131.905424 
L 223.973268 130.133859 
L 224.298247 124.783367 
L 224.623227 135.895286 
L 225.273186 131.901554 
L 225.598165 137.625448 
L 225.923145 129.073425 
L 226.248124 128.160468 
L 226.573104 129.099251 
L 226.898084 136.311267 
L 227.223063 128.972935 
L 227.548043 131.397403 
L 227.873022 127.659317 
L 228.198002 125.589833 
L 228.522981 136.221529 
L 228.847961 126.594034 
L 229.17294 132.510837 
L 229.49792 135.000563 
L 229.822899 131.886369 
L 230.147879 137.442653 
L 230.472858 132.800391 
L 230.797838 131.937031 
L 231.122817 128.201247 
L 231.447797 129.983222 
L 231.772776 130.37956 
L 232.097756 135.25725 
L 232.422735 130.251382 
L 232.747715 135.104421 
L 233.397674 130.332475 
L 233.722654 134.416605 
L 234.697592 126.647132 
L 235.022572 135.299743 
L 235.347551 139.454422 
L 235.672531 129.308595 
L 235.99751 129.152154 
L 236.32249 130.130099 
L 236.647469 130.269861 
L 236.972449 131.501432 
L 237.297428 133.217156 
L 237.622408 127.904615 
L 237.947387 126.555398 
L 238.272367 135.554666 
L 238.597346 132.505277 
L 238.922326 132.162943 
L 239.247305 130.692284 
L 239.572285 131.329267 
L 239.897265 133.711915 
L 240.222244 130.591818 
L 240.547224 130.999031 
L 240.872203 133.371038 
L 241.197183 129.847402 
L 241.522162 135.970353 
L 241.847142 132.840754 
L 242.172121 134.382745 
L 242.497101 127.437458 
L 242.82208 134.695298 
L 243.14706 134.020928 
L 243.472039 130.810947 
L 243.797019 132.477822 
L 244.121998 136.172704 
L 244.446978 125.477918 
L 244.771957 132.863972 
L 245.096937 127.377845 
L 245.421916 134.346963 
L 245.746896 128.055251 
L 246.071876 129.542332 
L 246.396855 128.542075 
L 246.721835 124.329975 
L 247.046814 131.213506 
L 247.371794 132.859441 
L 247.696773 127.136184 
L 248.021753 132.698065 
L 248.346732 127.106708 
L 248.671712 132.925789 
L 248.996691 132.106441 
L 249.321671 130.829352 
L 249.64665 136.1669 
L 249.97163 131.770229 
L 250.296609 131.696582 
L 250.621589 134.50109 
L 250.946568 129.340312 
L 251.271548 132.528336 
L 251.596527 131.062159 
L 251.921507 132.315552 
L 252.246486 126.933613 
L 252.571466 132.801187 
L 252.896446 131.783981 
L 253.221425 132.891366 
L 253.546405 133.49515 
L 253.871384 129.662661 
L 254.196364 122.352592 
L 254.521343 130.052582 
L 254.846323 130.461987 
L 255.171302 136.992776 
L 255.496282 134.502988 
L 255.821261 133.386982 
L 256.146241 129.460113 
L 256.47122 132.391305 
L 256.7962 127.136025 
L 257.121179 128.470853 
L 257.446159 132.232133 
L 257.771138 131.497329 
L 258.096118 133.491881 
L 258.421097 133.012147 
L 258.746077 135.149498 
L 259.071057 130.463065 
L 259.396036 132.614352 
L 259.721016 128.535609 
L 260.045995 134.934632 
L 260.370975 132.88817 
L 260.695954 129.19957 
L 261.020934 132.072936 
L 261.345913 129.341916 
L 261.670893 129.247745 
L 261.995872 127.680221 
L 262.320852 131.117241 
L 262.645831 129.240936 
L 263.29579 127.471367 
L 263.62077 130.346374 
L 263.945749 126.290715 
L 264.270729 132.092505 
L 264.595708 131.259183 
L 264.920688 131.89913 
L 265.245667 130.421233 
L 265.570647 130.068392 
L 265.895627 130.30104 
L 266.220606 129.882168 
L 266.545586 132.254555 
L 266.870565 128.207431 
L 267.195545 128.629082 
L 267.845504 134.279023 
L 268.170483 124.454099 
L 268.495463 131.611229 
L 268.820442 125.747181 
L 269.145422 126.614521 
L 269.470401 129.743594 
L 269.795381 126.945699 
L 270.12036 133.172532 
L 270.44534 130.989859 
L 270.770319 122.589906 
L 271.095299 129.5463 
L 271.420278 125.658888 
L 271.745258 126.654051 
L 272.070238 135.72012 
L 272.395217 133.916262 
L 272.720197 126.568501 
L 273.370156 136.975974 
L 273.695135 127.818489 
L 274.020115 134.239444 
L 274.345094 128.690434 
L 274.670074 129.902166 
L 274.995053 134.905694 
L 275.320033 129.599998 
L 275.645012 133.209894 
L 275.969992 130.802803 
L 276.294971 131.153538 
L 276.619951 127.944157 
L 276.94493 131.447023 
L 277.26991 131.552742 
L 277.919869 128.241156 
L 278.244848 129.141157 
L 278.569828 137.000454 
L 278.894808 124.527599 
L 279.219787 124.590604 
L 279.544767 137.419607 
L 279.869746 130.50006 
L 280.194726 128.944071 
L 280.519705 126.732657 
L 280.844685 130.230503 
L 281.169664 127.614926 
L 281.494644 131.130957 
L 281.819623 130.662085 
L 282.144603 133.5584 
L 282.469582 130.773217 
L 282.794562 130.285267 
L 283.444521 125.375554 
L 284.09448 127.177135 
L 284.419459 131.224466 
L 284.744439 126.892246 
L 285.069419 130.517008 
L 285.394398 126.884813 
L 285.719378 132.226622 
L 286.044357 130.059244 
L 286.369337 134.833823 
L 286.694316 128.608974 
L 287.344275 130.704762 
L 287.669255 131.004983 
L 287.994234 132.585512 
L 288.319214 132.00573 
L 288.644193 128.507517 
L 288.969173 137.018137 
L 289.294152 127.621146 
L 289.619132 129.869702 
L 289.944111 133.625594 
L 290.269091 135.272655 
L 290.59407 130.004983 
L 290.91905 132.260029 
L 291.569009 120.858715 
L 291.893989 118.031283 
L 292.218968 109.208711 
L 292.543948 118.281663 
L 292.868927 120.391717 
L 293.193907 130.932928 
L 293.518886 123.100878 
L 293.843866 122.420557 
L 294.168845 132.572728 
L 294.493825 129.927258 
L 294.818804 133.208437 
L 295.143784 124.056573 
L 295.468763 119.567666 
L 295.793743 109.446453 
L 296.118722 106.398301 
L 296.443702 91.42269 
L 296.768681 90.615832 
L 297.093661 90.682487 
L 297.41864 104.971176 
L 297.74362 112.746503 
L 298.0686 113.174411 
L 298.393579 114.005112 
L 298.718559 111.783057 
L 299.043538 108.531255 
L 299.368518 111.51928 
L 300.018477 104.547027 
L 300.343456 110.911687 
L 300.668436 99.453822 
L 300.993415 99.749572 
L 301.318395 96.950894 
L 301.968354 87.981996 
L 302.293333 88.305851 
L 302.618313 83.750596 
L 302.943292 82.060221 
L 303.268272 78.313979 
L 303.593251 78.23345 
L 303.918231 87.762108 
L 304.24321 89.161031 
L 304.56819 82.444865 
L 304.89317 81.798256 
L 305.218149 84.379203 
L 305.543129 89.368599 
L 305.868108 87.915109 
L 306.193088 77.067395 
L 306.518067 75.720689 
L 306.843047 67.063057 
L 307.168026 74.470701 
L 307.493006 77.514738 
L 307.817985 72.587698 
L 308.142965 73.053164 
L 308.467944 64.785025 
L 308.792924 67.498497 
L 309.117903 57.543142 
L 309.442883 60.950417 
L 309.767862 66.814833 
L 310.092842 53.568 
L 310.742801 67.943439 
L 311.067781 82.364801 
L 311.39276 85.224047 
L 311.71774 83.507735 
L 312.042719 86.340604 
L 312.367699 90.459427 
L 313.017658 83.923876 
L 313.342637 79.182777 
L 313.667617 82.691252 
L 313.992596 78.751843 
L 314.317576 79.412436 
L 314.642555 80.50891 
L 314.967535 74.173566 
L 315.292514 78.691888 
L 315.617494 71.538224 
L 315.942473 77.670824 
L 316.267453 77.007145 
L 316.592432 79.339794 
L 316.917412 83.998894 
L 317.242391 68.911233 
L 317.567371 74.266537 
L 317.892351 72.147384 
L 318.21733 78.302982 
L 318.54231 76.501243 
L 319.192269 84.621304 
L 319.517248 79.401856 
L 319.842228 67.273613 
L 320.167207 82.883537 
L 320.492187 76.040919 
L 320.817166 72.418239 
L 321.142146 73.28733 
L 321.467125 73.187208 
L 321.792105 69.394775 
L 322.117084 73.161491 
L 322.442064 79.457893 
L 322.767043 72.958087 
L 323.092023 79.614616 
L 323.417002 67.390047 
L 323.741982 76.761836 
L 324.066962 67.05157 
L 324.391941 77.89294 
L 324.716921 68.53837 
L 325.0419 72.932909 
L 325.36688 63.236605 
L 325.691859 73.754609 
L 326.016839 74.607806 
L 326.666798 74.350911 
L 326.991777 79.456522 
L 327.316757 62.928424 
L 327.641736 70.707609 
L 328.291695 75.441825 
L 328.616675 65.261954 
L 328.941654 78.626935 
L 329.266634 74.544519 
L 329.591613 64.601998 
L 329.916593 78.526372 
L 330.241572 66.405624 
L 330.566552 77.002345 
L 330.891532 70.097763 
L 331.541491 80.672417 
L 331.86647 73.504475 
L 332.19145 72.660561 
L 332.516429 72.132395 
L 332.841409 69.544958 
L 333.166388 75.497985 
L 333.491368 70.624141 
L 333.816347 73.156299 
L 334.141327 72.685297 
L 334.466306 71.333129 
L 334.791286 70.89142 
L 335.116265 73.564871 
L 335.441245 74.774644 
L 335.766224 72.165189 
L 336.091204 72.025782 
L 336.416183 72.245376 
L 336.741163 75.491666 
L 337.066143 60.050246 
L 337.391122 79.982483 
L 337.716102 74.762766 
L 338.041081 71.847653 
L 338.366061 74.160733 
L 338.69104 65.983017 
L 339.01602 69.924238 
L 339.340999 62.197319 
L 339.665979 75.678024 
L 339.990958 64.016669 
L 340.315938 70.825071 
L 340.640917 72.580644 
L 340.965897 66.654803 
L 341.290876 73.971362 
L 341.615856 69.845252 
L 341.940835 78.760024 
L 342.265815 67.828769 
L 342.590794 64.767097 
L 342.915774 71.633791 
L 343.240753 66.766094 
L 343.565733 72.545449 
L 343.890713 75.734772 
L 344.215692 68.609788 
L 344.540672 81.966417 
L 344.865651 76.353704 
L 345.190631 75.942119 
L 345.84059 65.187965 
L 346.165569 71.73935 
L 346.490549 74.167762 
L 346.815528 75.753826 
L 347.140508 72.285542 
L 347.465487 70.950763 
L 347.790467 65.18696 
L 348.115446 67.728524 
L 348.440426 76.729555 
L 348.765405 68.534965 
L 349.090385 75.259043 
L 349.415364 73.121007 
L 349.740344 64.742189 
L 350.065324 67.217992 
L 350.390303 73.230093 
L 350.715283 66.846231 
L 351.040262 70.736068 
L 351.365242 81.970066 
L 351.690221 72.694286 
L 352.015201 74.889878 
L 352.66516 68.000211 
L 352.990139 73.332395 
L 353.315119 61.371848 
L 353.640098 71.396637 
L 353.965078 69.102808 
L 354.290057 73.51939 
L 354.615037 72.429334 
L 354.940016 62.770428 
L 355.264996 73.1394 
L 355.589975 76.329996 
L 355.914955 68.500358 
L 356.239934 65.822572 
L 356.564914 70.727863 
L 356.889894 72.599527 
L 357.214873 70.186937 
L 357.539853 69.081255 
L 357.864832 60.084657 
L 358.189812 65.916473 
L 358.514791 63.930335 
L 358.839771 68.348754 
L 359.16475 69.499085 
L 359.48973 68.605085 
L 359.814709 70.191346 
L 360.139689 69.048999 
L 360.464668 70.940697 
L 360.789648 65.248998 
L 361.114627 70.003078 
L 361.439607 70.418605 
L 361.764586 74.943442 
L 362.089566 68.940476 
L 362.414545 76.360782 
L 362.739525 65.113216 
L 363.064505 74.607463 
L 363.389484 61.171015 
L 363.714464 71.679517 
L 364.039443 75.915178 
L 364.364423 76.387919 
L 364.689402 67.767564 
L 365.014382 77.391201 
L 365.339361 69.059923 
L 365.664341 71.258429 
L 365.98932 66.915935 
L 366.3143 74.134453 
L 366.639279 69.829651 
L 367.289238 70.370944 
L 367.614218 78.058113 
L 367.939197 77.588581 
L 368.264177 74.107536 
L 368.589156 64.952329 
L 368.914136 65.022743 
L 369.564095 76.241899 
L 369.889075 71.979542 
L 370.214054 77.191348 
L 370.539034 70.324532 
L 370.864013 66.864428 
L 371.188993 72.712973 
L 371.513972 69.119805 
L 371.838952 63.300504 
L 372.488911 67.659849 
L 372.81389 75.979494 
L 373.13887 74.144372 
L 373.463849 69.449514 
L 373.788829 69.394285 
L 374.113808 71.897127 
L 374.438788 69.742044 
L 374.763767 79.964629 
L 375.088747 68.163694 
L 375.413726 69.149048 
L 375.738706 78.67227 
L 376.063686 66.489704 
L 376.388665 64.268518 
L 376.713645 81.675406 
L 377.038624 63.244344 
L 377.363604 73.782138 
L 377.688583 63.145716 
L 378.013563 72.780693 
L 378.338542 77.963648 
L 378.663522 81.265829 
L 378.988501 65.505917 
L 379.63846 75.095683 
L 379.96344 72.520663 
L 380.288419 74.990907 
L 380.613399 66.860902 
L 380.938378 64.222939 
L 381.263358 78.715865 
L 381.588337 66.056052 
L 381.913317 66.382087 
L 382.238296 73.977313 
L 382.563276 60.980714 
L 382.888256 73.416059 
L 383.213235 79.518437 
L 383.538215 72.457524 
L 383.863194 76.183217 
L 384.188174 72.398106 
L 384.513153 66.802293 
L 384.838133 66.001778 
L 385.163112 76.002663 
L 385.488092 70.108637 
L 385.813071 68.896293 
L 386.138051 76.440821 
L 386.78801 72.291102 
L 387.112989 72.453948 
L 387.437969 75.790172 
L 387.762948 75.060635 
L 388.087928 75.544838 
L 388.412907 71.791053 
L 388.737887 76.771975 
L 389.062867 84.673619 
L 389.387846 68.350346 
L 389.712826 64.446206 
L 390.037805 71.183729 
L 390.362785 69.386545 
L 390.687764 72.488114 
L 391.012744 63.6573 
L 391.662703 75.927645 
L 391.987682 65.449121 
L 392.312662 77.400361 
L 392.637641 75.425759 
L 392.962621 62.937241 
L 393.2876 72.558258 
L 393.61258 69.822377 
L 393.937559 70.962985 
L 394.262539 73.451646 
L 394.587518 66.768984 
L 394.912498 70.280741 
L 395.237477 70.162029 
L 395.562457 77.584711 
L 395.887437 66.174641 
L 396.212416 77.357697 
L 396.537396 70.334035 
L 396.862375 67.751252 
L 397.187355 61.137584 
L 397.512334 58.605572 
L 397.837314 57.353086 
L 398.162293 54.69788 
L 398.487273 53.852448 
L 398.487273 53.852448 
" clip-path="url(#pcd9390a6c4)" style="fill: none; stroke: #ff0000; stroke-width: 1.5; stroke-linecap: square"/>
   </g>
   <g id="patch_3">
    <path d="M 57.6 307.584 
L 57.6 41.472 
" style="fill: none; stroke: #000000; stroke-width: 0.8; stroke-linejoin: miter; stroke-linecap: square"/>
   </g>
   <g id="patch_4">
    <path d="M 414.72 307.584 
L 414.72 41.472 
" style="fill: none; stroke: #000000; stroke-width: 0.8; stroke-linejoin: miter; stroke-linecap: square"/>
   </g>
   <g id="patch_5">
    <path d="M 57.6 307.584 
L 414.72 307.584 
" style="fill: none; stroke: #000000; stroke-width: 0.8; stroke-linejoin: miter; stroke-linecap: square"/>
   </g>
   <g id="patch_6">
    <path d="M 57.6 41.472 
L 414.72 41.472 
" style="fill: none; stroke: #000000; stroke-width: 0.8; stroke-linejoin: miter; stroke-linecap: square"/>
   </g>
   <g id="text_14">
    <!-- spectrumGCN+CiteSeer+WithGraph_CiteSeer_WithOutGraph_Training and Validation loss -->
    <g transform="translate(-32.556563 35.472) scale(0.12 -0.12)">
     <defs>
      <path id="DejaVuSans-74" d="M 1172 4494 
L 1172 3500 
L 2356 3500 
L 2356 3053 
L 1172 3053 
L 1172 1153 
Q 1172 725 1289 603 
Q 1406 481 1766 481 
L 2356 481 
L 2356 0 
L 1766 0 
Q 1100 0 847 248 
Q 594 497 594 1153 
L 594 3053 
L 172 3053 
L 172 3500 
L 594 3500 
L 594 4494 
L 1172 4494 
z
" transform="scale(0.015625)"/>
      <path id="DejaVuSans-72" d="M 2631 2963 
Q 2534 3019 2420 3045 
Q 2306 3072 2169 3072 
Q 1681 3072 1420 2755 
Q 1159 2438 1159 1844 
L 1159 0 
L 581 0 
L 581 3500 
L 1159 3500 
L 1159 2956 
Q 1341 3275 1631 3429 
Q 1922 3584 2338 3584 
Q 2397 3584 2469 3576 
Q 2541 3569 2628 3553 
L 2631 2963 
z
" transform="scale(0.015625)"/>
      <path id="DejaVuSans-75" d="M 544 1381 
L 544 3500 
L 1119 3500 
L 1119 1403 
Q 1119 906 1312 657 
Q 1506 409 1894 409 
Q 2359 409 2629 706 
Q 2900 1003 2900 1516 
L 2900 3500 
L 3475 3500 
L 3475 0 
L 2900 0 
L 2900 538 
Q 2691 219 2414 64 
Q 2138 -91 1772 -91 
Q 1169 -91 856 284 
Q 544 659 544 1381 
z
M 1991 3584 
L 1991 3584 
z
" transform="scale(0.015625)"/>
      <path id="DejaVuSans-6d" d="M 3328 2828 
Q 3544 3216 3844 3400 
Q 4144 3584 4550 3584 
Q 5097 3584 5394 3201 
Q 5691 2819 5691 2113 
L 5691 0 
L 5113 0 
L 5113 2094 
Q 5113 2597 4934 2840 
Q 4756 3084 4391 3084 
Q 3944 3084 3684 2787 
Q 3425 2491 3425 1978 
L 3425 0 
L 2847 0 
L 2847 2094 
Q 2847 2600 2669 2842 
Q 2491 3084 2119 3084 
Q 1678 3084 1418 2786 
Q 1159 2488 1159 1978 
L 1159 0 
L 581 0 
L 581 3500 
L 1159 3500 
L 1159 2956 
Q 1356 3278 1631 3431 
Q 1906 3584 2284 3584 
Q 2666 3584 2933 3390 
Q 3200 3197 3328 2828 
z
" transform="scale(0.015625)"/>
      <path id="DejaVuSans-47" d="M 3809 666 
L 3809 1919 
L 2778 1919 
L 2778 2438 
L 4434 2438 
L 4434 434 
Q 4069 175 3628 42 
Q 3188 -91 2688 -91 
Q 1594 -91 976 548 
Q 359 1188 359 2328 
Q 359 3472 976 4111 
Q 1594 4750 2688 4750 
Q 3144 4750 3555 4637 
Q 3966 4525 4313 4306 
L 4313 3634 
Q 3963 3931 3569 4081 
Q 3175 4231 2741 4231 
Q 1884 4231 1454 3753 
Q 1025 3275 1025 2328 
Q 1025 1384 1454 906 
Q 1884 428 2741 428 
Q 3075 428 3337 486 
Q 3600 544 3809 666 
z
" transform="scale(0.015625)"/>
      <path id="DejaVuSans-43" d="M 4122 4306 
L 4122 3641 
Q 3803 3938 3442 4084 
Q 3081 4231 2675 4231 
Q 1875 4231 1450 3742 
Q 1025 3253 1025 2328 
Q 1025 1406 1450 917 
Q 1875 428 2675 428 
Q 3081 428 3442 575 
Q 3803 722 4122 1019 
L 4122 359 
Q 3791 134 3420 21 
Q 3050 -91 2638 -91 
Q 1578 -91 968 557 
Q 359 1206 359 2328 
Q 359 3453 968 4101 
Q 1578 4750 2638 4750 
Q 3056 4750 3426 4639 
Q 3797 4528 4122 4306 
z
" transform="scale(0.015625)"/>
      <path id="DejaVuSans-4e" d="M 628 4666 
L 1478 4666 
L 3547 763 
L 3547 4666 
L 4159 4666 
L 4159 0 
L 3309 0 
L 1241 3903 
L 1241 0 
L 628 0 
L 628 4666 
z
" transform="scale(0.015625)"/>
      <path id="DejaVuSans-2b" d="M 2944 4013 
L 2944 2272 
L 4684 2272 
L 4684 1741 
L 2944 1741 
L 2944 0 
L 2419 0 
L 2419 1741 
L 678 1741 
L 678 2272 
L 2419 2272 
L 2419 4013 
L 2944 4013 
z
" transform="scale(0.015625)"/>
      <path id="DejaVuSans-69" d="M 603 3500 
L 1178 3500 
L 1178 0 
L 603 0 
L 603 3500 
z
M 603 4863 
L 1178 4863 
L 1178 4134 
L 603 4134 
L 603 4863 
z
" transform="scale(0.015625)"/>
      <path id="DejaVuSans-53" d="M 3425 4513 
L 3425 3897 
Q 3066 4069 2747 4153 
Q 2428 4238 2131 4238 
Q 1616 4238 1336 4038 
Q 1056 3838 1056 3469 
Q 1056 3159 1242 3001 
Q 1428 2844 1947 2747 
L 2328 2669 
Q 3034 2534 3370 2195 
Q 3706 1856 3706 1288 
Q 3706 609 3251 259 
Q 2797 -91 1919 -91 
Q 1588 -91 1214 -16 
Q 841 59 441 206 
L 441 856 
Q 825 641 1194 531 
Q 1563 422 1919 422 
Q 2459 422 2753 634 
Q 3047 847 3047 1241 
Q 3047 1584 2836 1778 
Q 2625 1972 2144 2069 
L 1759 2144 
Q 1053 2284 737 2584 
Q 422 2884 422 3419 
Q 422 4038 858 4394 
Q 1294 4750 2059 4750 
Q 2388 4750 2728 4690 
Q 3069 4631 3425 4513 
z
" transform="scale(0.015625)"/>
      <path id="DejaVuSans-57" d="M 213 4666 
L 850 4666 
L 1831 722 
L 2809 4666 
L 3519 4666 
L 4500 722 
L 5478 4666 
L 6119 4666 
L 4947 0 
L 4153 0 
L 3169 4050 
L 2175 0 
L 1381 0 
L 213 4666 
z
" transform="scale(0.015625)"/>
      <path id="DejaVuSans-61" d="M 2194 1759 
Q 1497 1759 1228 1600 
Q 959 1441 959 1056 
Q 959 750 1161 570 
Q 1363 391 1709 391 
Q 2188 391 2477 730 
Q 2766 1069 2766 1631 
L 2766 1759 
L 2194 1759 
z
M 3341 1997 
L 3341 0 
L 2766 0 
L 2766 531 
Q 2569 213 2275 61 
Q 1981 -91 1556 -91 
Q 1019 -91 701 211 
Q 384 513 384 1019 
Q 384 1609 779 1909 
Q 1175 2209 1959 2209 
L 2766 2209 
L 2766 2266 
Q 2766 2663 2505 2880 
Q 2244 3097 1772 3097 
Q 1472 3097 1187 3025 
Q 903 2953 641 2809 
L 641 3341 
Q 956 3463 1253 3523 
Q 1550 3584 1831 3584 
Q 2591 3584 2966 3190 
Q 3341 2797 3341 1997 
z
" transform="scale(0.015625)"/>
      <path id="DejaVuSans-5f" d="M 3263 -1063 
L 3263 -1509 
L -63 -1509 
L -63 -1063 
L 3263 -1063 
z
" transform="scale(0.015625)"/>
      <path id="DejaVuSans-4f" d="M 2522 4238 
Q 1834 4238 1429 3725 
Q 1025 3213 1025 2328 
Q 1025 1447 1429 934 
Q 1834 422 2522 422 
Q 3209 422 3611 934 
Q 4013 1447 4013 2328 
Q 4013 3213 3611 3725 
Q 3209 4238 2522 4238 
z
M 2522 4750 
Q 3503 4750 4090 4092 
Q 4678 3434 4678 2328 
Q 4678 1225 4090 567 
Q 3503 -91 2522 -91 
Q 1538 -91 948 565 
Q 359 1222 359 2328 
Q 359 3434 948 4092 
Q 1538 4750 2522 4750 
z
" transform="scale(0.015625)"/>
      <path id="DejaVuSans-54" d="M -19 4666 
L 3928 4666 
L 3928 4134 
L 2272 4134 
L 2272 0 
L 1638 0 
L 1638 4134 
L -19 4134 
L -19 4666 
z
" transform="scale(0.015625)"/>
      <path id="DejaVuSans-6e" d="M 3513 2113 
L 3513 0 
L 2938 0 
L 2938 2094 
Q 2938 2591 2744 2837 
Q 2550 3084 2163 3084 
Q 1697 3084 1428 2787 
Q 1159 2491 1159 1978 
L 1159 0 
L 581 0 
L 581 3500 
L 1159 3500 
L 1159 2956 
Q 1366 3272 1645 3428 
Q 1925 3584 2291 3584 
Q 2894 3584 3203 3211 
Q 3513 2838 3513 2113 
z
" transform="scale(0.015625)"/>
      <path id="DejaVuSans-67" d="M 2906 1791 
Q 2906 2416 2648 2759 
Q 2391 3103 1925 3103 
Q 1463 3103 1205 2759 
Q 947 2416 947 1791 
Q 947 1169 1205 825 
Q 1463 481 1925 481 
Q 2391 481 2648 825 
Q 2906 1169 2906 1791 
z
M 3481 434 
Q 3481 -459 3084 -895 
Q 2688 -1331 1869 -1331 
Q 1566 -1331 1297 -1286 
Q 1028 -1241 775 -1147 
L 775 -588 
Q 1028 -725 1275 -790 
Q 1522 -856 1778 -856 
Q 2344 -856 2625 -561 
Q 2906 -266 2906 331 
L 2906 616 
Q 2728 306 2450 153 
Q 2172 0 1784 0 
Q 1141 0 747 490 
Q 353 981 353 1791 
Q 353 2603 747 3093 
Q 1141 3584 1784 3584 
Q 2172 3584 2450 3431 
Q 2728 3278 2906 2969 
L 2906 3500 
L 3481 3500 
L 3481 434 
z
" transform="scale(0.015625)"/>
      <path id="DejaVuSans-20" transform="scale(0.015625)"/>
      <path id="DejaVuSans-64" d="M 2906 2969 
L 2906 4863 
L 3481 4863 
L 3481 0 
L 2906 0 
L 2906 525 
Q 2725 213 2448 61 
Q 2172 -91 1784 -91 
Q 1150 -91 751 415 
Q 353 922 353 1747 
Q 353 2572 751 3078 
Q 1150 3584 1784 3584 
Q 2172 3584 2448 3432 
Q 2725 3281 2906 2969 
z
M 947 1747 
Q 947 1113 1208 752 
Q 1469 391 1925 391 
Q 2381 391 2643 752 
Q 2906 1113 2906 1747 
Q 2906 2381 2643 2742 
Q 2381 3103 1925 3103 
Q 1469 3103 1208 2742 
Q 947 2381 947 1747 
z
" transform="scale(0.015625)"/>
      <path id="DejaVuSans-56" d="M 1831 0 
L 50 4666 
L 709 4666 
L 2188 738 
L 3669 4666 
L 4325 4666 
L 2547 0 
L 1831 0 
z
" transform="scale(0.015625)"/>
     </defs>
     <use xlink:href="#DejaVuSans-73"/>
     <use xlink:href="#DejaVuSans-70" x="52.099609"/>
     <use xlink:href="#DejaVuSans-65" x="115.576172"/>
     <use xlink:href="#DejaVuSans-63" x="177.099609"/>
     <use xlink:href="#DejaVuSans-74" x="232.080078"/>
     <use xlink:href="#DejaVuSans-72" x="271.289062"/>
     <use xlink:href="#DejaVuSans-75" x="312.402344"/>
     <use xlink:href="#DejaVuSans-6d" x="375.78125"/>
     <use xlink:href="#DejaVuSans-47" x="473.193359"/>
     <use xlink:href="#DejaVuSans-43" x="550.683594"/>
     <use xlink:href="#DejaVuSans-4e" x="620.507812"/>
     <use xlink:href="#DejaVuSans-2b" x="695.3125"/>
     <use xlink:href="#DejaVuSans-43" x="779.101562"/>
     <use xlink:href="#DejaVuSans-69" x="848.925781"/>
     <use xlink:href="#DejaVuSans-74" x="876.708984"/>
     <use xlink:href="#DejaVuSans-65" x="915.917969"/>
     <use xlink:href="#DejaVuSans-53" x="977.441406"/>
     <use xlink:href="#DejaVuSans-65" x="1040.917969"/>
     <use xlink:href="#DejaVuSans-65" x="1102.441406"/>
     <use xlink:href="#DejaVuSans-72" x="1163.964844"/>
     <use xlink:href="#DejaVuSans-2b" x="1205.078125"/>
     <use xlink:href="#DejaVuSans-57" x="1288.867188"/>
     <use xlink:href="#DejaVuSans-69" x="1385.494141"/>
     <use xlink:href="#DejaVuSans-74" x="1413.277344"/>
     <use xlink:href="#DejaVuSans-68" x="1452.486328"/>
     <use xlink:href="#DejaVuSans-47" x="1515.865234"/>
     <use xlink:href="#DejaVuSans-72" x="1593.355469"/>
     <use xlink:href="#DejaVuSans-61" x="1634.46875"/>
     <use xlink:href="#DejaVuSans-70" x="1695.748047"/>
     <use xlink:href="#DejaVuSans-68" x="1759.224609"/>
     <use xlink:href="#DejaVuSans-5f" x="1822.603516"/>
     <use xlink:href="#DejaVuSans-43" x="1872.603516"/>
     <use xlink:href="#DejaVuSans-69" x="1942.427734"/>
     <use xlink:href="#DejaVuSans-74" x="1970.210938"/>
     <use xlink:href="#DejaVuSans-65" x="2009.419922"/>
     <use xlink:href="#DejaVuSans-53" x="2070.943359"/>
     <use xlink:href="#DejaVuSans-65" x="2134.419922"/>
     <use xlink:href="#DejaVuSans-65" x="2195.943359"/>
     <use xlink:href="#DejaVuSans-72" x="2257.466797"/>
     <use xlink:href="#DejaVuSans-5f" x="2298.580078"/>
     <use xlink:href="#DejaVuSans-57" x="2348.580078"/>
     <use xlink:href="#DejaVuSans-69" x="2445.207031"/>
     <use xlink:href="#DejaVuSans-74" x="2472.990234"/>
     <use xlink:href="#DejaVuSans-68" x="2512.199219"/>
     <use xlink:href="#DejaVuSans-4f" x="2575.578125"/>
     <use xlink:href="#DejaVuSans-75" x="2654.289062"/>
     <use xlink:href="#DejaVuSans-74" x="2717.667969"/>
     <use xlink:href="#DejaVuSans-47" x="2756.876953"/>
     <use xlink:href="#DejaVuSans-72" x="2834.367188"/>
     <use xlink:href="#DejaVuSans-61" x="2875.480469"/>
     <use xlink:href="#DejaVuSans-70" x="2936.759766"/>
     <use xlink:href="#DejaVuSans-68" x="3000.236328"/>
     <use xlink:href="#DejaVuSans-5f" x="3063.615234"/>
     <use xlink:href="#DejaVuSans-54" x="3113.615234"/>
     <use xlink:href="#DejaVuSans-72" x="3159.949219"/>
     <use xlink:href="#DejaVuSans-61" x="3201.0625"/>
     <use xlink:href="#DejaVuSans-69" x="3262.341797"/>
     <use xlink:href="#DejaVuSans-6e" x="3290.125"/>
     <use xlink:href="#DejaVuSans-69" x="3353.503906"/>
     <use xlink:href="#DejaVuSans-6e" x="3381.287109"/>
     <use xlink:href="#DejaVuSans-67" x="3444.666016"/>
     <use xlink:href="#DejaVuSans-20" x="3508.142578"/>
     <use xlink:href="#DejaVuSans-61" x="3539.929688"/>
     <use xlink:href="#DejaVuSans-6e" x="3601.208984"/>
     <use xlink:href="#DejaVuSans-64" x="3664.587891"/>
     <use xlink:href="#DejaVuSans-20" x="3728.064453"/>
     <use xlink:href="#DejaVuSans-56" x="3759.851562"/>
     <use xlink:href="#DejaVuSans-61" x="3820.509766"/>
     <use xlink:href="#DejaVuSans-6c" x="3881.789062"/>
     <use xlink:href="#DejaVuSans-69" x="3909.572266"/>
     <use xlink:href="#DejaVuSans-64" x="3937.355469"/>
     <use xlink:href="#DejaVuSans-61" x="4000.832031"/>
     <use xlink:href="#DejaVuSans-74" x="4062.111328"/>
     <use xlink:href="#DejaVuSans-69" x="4101.320312"/>
     <use xlink:href="#DejaVuSans-6f" x="4129.103516"/>
     <use xlink:href="#DejaVuSans-6e" x="4190.285156"/>
     <use xlink:href="#DejaVuSans-20" x="4253.664062"/>
     <use xlink:href="#DejaVuSans-6c" x="4285.451172"/>
     <use xlink:href="#DejaVuSans-6f" x="4313.234375"/>
     <use xlink:href="#DejaVuSans-73" x="4374.416016"/>
     <use xlink:href="#DejaVuSans-73" x="4426.515625"/>
    </g>
   </g>
   <g id="legend_1">
    <g id="patch_7">
     <path d="M 64.6 93.506375 
L 164.295312 93.506375 
Q 166.295312 93.506375 166.295312 91.506375 
L 166.295312 48.472 
Q 166.295312 46.472 164.295312 46.472 
L 64.6 46.472 
Q 62.6 46.472 62.6 48.472 
L 62.6 91.506375 
Q 62.6 93.506375 64.6 93.506375 
z
" style="fill: #ffffff; opacity: 0.8; stroke: #cccccc; stroke-linejoin: miter"/>
    </g>
    <g id="line2d_15">
     <path d="M 66.6 54.570438 
L 76.6 54.570438 
L 86.6 54.570438 
" style="fill: none; stroke: #0000ff; stroke-width: 1.5; stroke-linecap: square"/>
    </g>
    <g id="text_15">
     <!-- training set -->
     <g transform="translate(94.6 58.070438) scale(0.1 -0.1)">
      <use xlink:href="#DejaVuSans-74"/>
      <use xlink:href="#DejaVuSans-72" x="39.208984"/>
      <use xlink:href="#DejaVuSans-61" x="80.322266"/>
      <use xlink:href="#DejaVuSans-69" x="141.601562"/>
      <use xlink:href="#DejaVuSans-6e" x="169.384766"/>
      <use xlink:href="#DejaVuSans-69" x="232.763672"/>
      <use xlink:href="#DejaVuSans-6e" x="260.546875"/>
      <use xlink:href="#DejaVuSans-67" x="323.925781"/>
      <use xlink:href="#DejaVuSans-20" x="387.402344"/>
      <use xlink:href="#DejaVuSans-73" x="419.189453"/>
      <use xlink:href="#DejaVuSans-65" x="471.289062"/>
      <use xlink:href="#DejaVuSans-74" x="532.8125"/>
     </g>
    </g>
    <g id="line2d_16">
     <path d="M 66.6 69.248563 
L 76.6 69.248563 
L 86.6 69.248563 
" style="fill: none; stroke: #008000; stroke-width: 1.5; stroke-linecap: square"/>
    </g>
    <g id="text_16">
     <!-- validation set -->
     <g transform="translate(94.6 72.748563) scale(0.1 -0.1)">
      <defs>
       <path id="DejaVuSans-76" d="M 191 3500 
L 800 3500 
L 1894 563 
L 2988 3500 
L 3597 3500 
L 2284 0 
L 1503 0 
L 191 3500 
z
" transform="scale(0.015625)"/>
      </defs>
      <use xlink:href="#DejaVuSans-76"/>
      <use xlink:href="#DejaVuSans-61" x="59.179688"/>
      <use xlink:href="#DejaVuSans-6c" x="120.458984"/>
      <use xlink:href="#DejaVuSans-69" x="148.242188"/>
      <use xlink:href="#DejaVuSans-64" x="176.025391"/>
      <use xlink:href="#DejaVuSans-61" x="239.501953"/>
      <use xlink:href="#DejaVuSans-74" x="300.78125"/>
      <use xlink:href="#DejaVuSans-69" x="339.990234"/>
      <use xlink:href="#DejaVuSans-6f" x="367.773438"/>
      <use xlink:href="#DejaVuSans-6e" x="428.955078"/>
      <use xlink:href="#DejaVuSans-20" x="492.333984"/>
      <use xlink:href="#DejaVuSans-73" x="524.121094"/>
      <use xlink:href="#DejaVuSans-65" x="576.220703"/>
      <use xlink:href="#DejaVuSans-74" x="637.744141"/>
     </g>
    </g>
    <g id="line2d_17">
     <path d="M 66.6 83.926688 
L 76.6 83.926688 
L 86.6 83.926688 
" style="fill: none; stroke: #ff0000; stroke-width: 1.5; stroke-linecap: square"/>
    </g>
    <g id="text_17">
     <!-- test set -->
     <g transform="translate(94.6 87.426688) scale(0.1 -0.1)">
      <use xlink:href="#DejaVuSans-74"/>
      <use xlink:href="#DejaVuSans-65" x="39.208984"/>
      <use xlink:href="#DejaVuSans-73" x="100.732422"/>
      <use xlink:href="#DejaVuSans-74" x="152.832031"/>
      <use xlink:href="#DejaVuSans-20" x="192.041016"/>
      <use xlink:href="#DejaVuSans-73" x="223.828125"/>
      <use xlink:href="#DejaVuSans-65" x="275.927734"/>
      <use xlink:href="#DejaVuSans-74" x="337.451172"/>
     </g>
    </g>
   </g>
  </g>
 </g>
 <defs>
  <clipPath id="pcd9390a6c4">
   <rect x="57.6" y="41.472" width="357.12" height="266.112"/>
  </clipPath>
 </defs>
</svg>
