<?xml version="1.0" encoding="utf-8" standalone="no"?>
<!DOCTYPE svg PUBLIC "-//W3C//DTD SVG 1.1//EN"
  "http://www.w3.org/Graphics/SVG/1.1/DTD/svg11.dtd">
<svg xmlns:xlink="http://www.w3.org/1999/xlink" width="460.8pt" height="345.6pt" viewBox="0 0 460.8 345.6" xmlns="http://www.w3.org/2000/svg" version="1.1">
 <metadata>
  <rdf:RDF xmlns:dc="http://purl.org/dc/elements/1.1/" xmlns:cc="http://creativecommons.org/ns#" xmlns:rdf="http://www.w3.org/1999/02/22-rdf-syntax-ns#">
   <cc:Work>
    <dc:type rdf:resource="http://purl.org/dc/dcmitype/StillImage"/>
    <dc:date>2023-04-09T04:00:29.483904</dc:date>
    <dc:format>image/svg+xml</dc:format>
    <dc:creator>
     <cc:Agent>
      <dc:title>Matplotlib v3.7.1, https://matplotlib.org/</dc:title>
     </cc:Agent>
    </dc:creator>
   </cc:Work>
  </rdf:RDF>
 </metadata>
 <defs>
  <style type="text/css">*{stroke-linejoin: round; stroke-linecap: butt}</style>
 </defs>
 <g id="figure_1">
  <g id="patch_1">
   <path d="M 0 345.6 
L 460.8 345.6 
L 460.8 0 
L 0 0 
z
" style="fill: #ffffff"/>
  </g>
  <g id="axes_1">
   <g id="patch_2">
    <path d="M 57.6 307.584 
L 414.72 307.584 
L 414.72 41.472 
L 57.6 41.472 
z
" style="fill: #ffffff"/>
   </g>
   <g id="matplotlib.axis_1">
    <g id="xtick_1">
     <g id="line2d_1">
      <defs>
       <path id="mb2eea879e5" d="M 0 0 
L 0 3.5 
" style="stroke: #000000; stroke-width: 0.8"/>
      </defs>
      <g>
       <use xlink:href="#mb2eea879e5" x="73.507748" y="307.584" style="stroke: #000000; stroke-width: 0.8"/>
      </g>
     </g>
     <g id="text_1">
      <!-- 0 -->
      <g transform="translate(70.326498 322.182437) scale(0.1 -0.1)">
       <defs>
        <path id="DejaVuSans-30" d="M 2034 4250 
Q 1547 4250 1301 3770 
Q 1056 3291 1056 2328 
Q 1056 1369 1301 889 
Q 1547 409 2034 409 
Q 2525 409 2770 889 
Q 3016 1369 3016 2328 
Q 3016 3291 2770 3770 
Q 2525 4250 2034 4250 
z
M 2034 4750 
Q 2819 4750 3233 4129 
Q 3647 3509 3647 2328 
Q 3647 1150 3233 529 
Q 2819 -91 2034 -91 
Q 1250 -91 836 529 
Q 422 1150 422 2328 
Q 422 3509 836 4129 
Q 1250 4750 2034 4750 
z
" transform="scale(0.015625)"/>
       </defs>
       <use xlink:href="#DejaVuSans-30"/>
      </g>
     </g>
    </g>
    <g id="xtick_2">
     <g id="line2d_2">
      <g>
       <use xlink:href="#mb2eea879e5" x="138.503653" y="307.584" style="stroke: #000000; stroke-width: 0.8"/>
      </g>
     </g>
     <g id="text_2">
      <!-- 200 -->
      <g transform="translate(128.959903 322.182437) scale(0.1 -0.1)">
       <defs>
        <path id="DejaVuSans-32" d="M 1228 531 
L 3431 531 
L 3431 0 
L 469 0 
L 469 531 
Q 828 903 1448 1529 
Q 2069 2156 2228 2338 
Q 2531 2678 2651 2914 
Q 2772 3150 2772 3378 
Q 2772 3750 2511 3984 
Q 2250 4219 1831 4219 
Q 1534 4219 1204 4116 
Q 875 4013 500 3803 
L 500 4441 
Q 881 4594 1212 4672 
Q 1544 4750 1819 4750 
Q 2544 4750 2975 4387 
Q 3406 4025 3406 3419 
Q 3406 3131 3298 2873 
Q 3191 2616 2906 2266 
Q 2828 2175 2409 1742 
Q 1991 1309 1228 531 
z
" transform="scale(0.015625)"/>
       </defs>
       <use xlink:href="#DejaVuSans-32"/>
       <use xlink:href="#DejaVuSans-30" x="63.623047"/>
       <use xlink:href="#DejaVuSans-30" x="127.246094"/>
      </g>
     </g>
    </g>
    <g id="xtick_3">
     <g id="line2d_3">
      <g>
       <use xlink:href="#mb2eea879e5" x="203.499558" y="307.584" style="stroke: #000000; stroke-width: 0.8"/>
      </g>
     </g>
     <g id="text_3">
      <!-- 400 -->
      <g transform="translate(193.955808 322.182437) scale(0.1 -0.1)">
       <defs>
        <path id="DejaVuSans-34" d="M 2419 4116 
L 825 1625 
L 2419 1625 
L 2419 4116 
z
M 2253 4666 
L 3047 4666 
L 3047 1625 
L 3713 1625 
L 3713 1100 
L 3047 1100 
L 3047 0 
L 2419 0 
L 2419 1100 
L 313 1100 
L 313 1709 
L 2253 4666 
z
" transform="scale(0.015625)"/>
       </defs>
       <use xlink:href="#DejaVuSans-34"/>
       <use xlink:href="#DejaVuSans-30" x="63.623047"/>
       <use xlink:href="#DejaVuSans-30" x="127.246094"/>
      </g>
     </g>
    </g>
    <g id="xtick_4">
     <g id="line2d_4">
      <g>
       <use xlink:href="#mb2eea879e5" x="268.495463" y="307.584" style="stroke: #000000; stroke-width: 0.8"/>
      </g>
     </g>
     <g id="text_4">
      <!-- 600 -->
      <g transform="translate(258.951713 322.182437) scale(0.1 -0.1)">
       <defs>
        <path id="DejaVuSans-36" d="M 2113 2584 
Q 1688 2584 1439 2293 
Q 1191 2003 1191 1497 
Q 1191 994 1439 701 
Q 1688 409 2113 409 
Q 2538 409 2786 701 
Q 3034 994 3034 1497 
Q 3034 2003 2786 2293 
Q 2538 2584 2113 2584 
z
M 3366 4563 
L 3366 3988 
Q 3128 4100 2886 4159 
Q 2644 4219 2406 4219 
Q 1781 4219 1451 3797 
Q 1122 3375 1075 2522 
Q 1259 2794 1537 2939 
Q 1816 3084 2150 3084 
Q 2853 3084 3261 2657 
Q 3669 2231 3669 1497 
Q 3669 778 3244 343 
Q 2819 -91 2113 -91 
Q 1303 -91 875 529 
Q 447 1150 447 2328 
Q 447 3434 972 4092 
Q 1497 4750 2381 4750 
Q 2619 4750 2861 4703 
Q 3103 4656 3366 4563 
z
" transform="scale(0.015625)"/>
       </defs>
       <use xlink:href="#DejaVuSans-36"/>
       <use xlink:href="#DejaVuSans-30" x="63.623047"/>
       <use xlink:href="#DejaVuSans-30" x="127.246094"/>
      </g>
     </g>
    </g>
    <g id="xtick_5">
     <g id="line2d_5">
      <g>
       <use xlink:href="#mb2eea879e5" x="333.491368" y="307.584" style="stroke: #000000; stroke-width: 0.8"/>
      </g>
     </g>
     <g id="text_5">
      <!-- 800 -->
      <g transform="translate(323.947618 322.182437) scale(0.1 -0.1)">
       <defs>
        <path id="DejaVuSans-38" d="M 2034 2216 
Q 1584 2216 1326 1975 
Q 1069 1734 1069 1313 
Q 1069 891 1326 650 
Q 1584 409 2034 409 
Q 2484 409 2743 651 
Q 3003 894 3003 1313 
Q 3003 1734 2745 1975 
Q 2488 2216 2034 2216 
z
M 1403 2484 
Q 997 2584 770 2862 
Q 544 3141 544 3541 
Q 544 4100 942 4425 
Q 1341 4750 2034 4750 
Q 2731 4750 3128 4425 
Q 3525 4100 3525 3541 
Q 3525 3141 3298 2862 
Q 3072 2584 2669 2484 
Q 3125 2378 3379 2068 
Q 3634 1759 3634 1313 
Q 3634 634 3220 271 
Q 2806 -91 2034 -91 
Q 1263 -91 848 271 
Q 434 634 434 1313 
Q 434 1759 690 2068 
Q 947 2378 1403 2484 
z
M 1172 3481 
Q 1172 3119 1398 2916 
Q 1625 2713 2034 2713 
Q 2441 2713 2670 2916 
Q 2900 3119 2900 3481 
Q 2900 3844 2670 4047 
Q 2441 4250 2034 4250 
Q 1625 4250 1398 4047 
Q 1172 3844 1172 3481 
z
" transform="scale(0.015625)"/>
       </defs>
       <use xlink:href="#DejaVuSans-38"/>
       <use xlink:href="#DejaVuSans-30" x="63.623047"/>
       <use xlink:href="#DejaVuSans-30" x="127.246094"/>
      </g>
     </g>
    </g>
    <g id="xtick_6">
     <g id="line2d_6">
      <g>
       <use xlink:href="#mb2eea879e5" x="398.487273" y="307.584" style="stroke: #000000; stroke-width: 0.8"/>
      </g>
     </g>
     <g id="text_6">
      <!-- 1000 -->
      <g transform="translate(385.762273 322.182437) scale(0.1 -0.1)">
       <defs>
        <path id="DejaVuSans-31" d="M 794 531 
L 1825 531 
L 1825 4091 
L 703 3866 
L 703 4441 
L 1819 4666 
L 2450 4666 
L 2450 531 
L 3481 531 
L 3481 0 
L 794 0 
L 794 531 
z
" transform="scale(0.015625)"/>
       </defs>
       <use xlink:href="#DejaVuSans-31"/>
       <use xlink:href="#DejaVuSans-30" x="63.623047"/>
       <use xlink:href="#DejaVuSans-30" x="127.246094"/>
       <use xlink:href="#DejaVuSans-30" x="190.869141"/>
      </g>
     </g>
    </g>
    <g id="text_7">
     <!-- epoch -->
     <g transform="translate(220.931875 335.860562) scale(0.1 -0.1)">
      <defs>
       <path id="DejaVuSans-65" d="M 3597 1894 
L 3597 1613 
L 953 1613 
Q 991 1019 1311 708 
Q 1631 397 2203 397 
Q 2534 397 2845 478 
Q 3156 559 3463 722 
L 3463 178 
Q 3153 47 2828 -22 
Q 2503 -91 2169 -91 
Q 1331 -91 842 396 
Q 353 884 353 1716 
Q 353 2575 817 3079 
Q 1281 3584 2069 3584 
Q 2775 3584 3186 3129 
Q 3597 2675 3597 1894 
z
M 3022 2063 
Q 3016 2534 2758 2815 
Q 2500 3097 2075 3097 
Q 1594 3097 1305 2825 
Q 1016 2553 972 2059 
L 3022 2063 
z
" transform="scale(0.015625)"/>
       <path id="DejaVuSans-70" d="M 1159 525 
L 1159 -1331 
L 581 -1331 
L 581 3500 
L 1159 3500 
L 1159 2969 
Q 1341 3281 1617 3432 
Q 1894 3584 2278 3584 
Q 2916 3584 3314 3078 
Q 3713 2572 3713 1747 
Q 3713 922 3314 415 
Q 2916 -91 2278 -91 
Q 1894 -91 1617 61 
Q 1341 213 1159 525 
z
M 3116 1747 
Q 3116 2381 2855 2742 
Q 2594 3103 2138 3103 
Q 1681 3103 1420 2742 
Q 1159 2381 1159 1747 
Q 1159 1113 1420 752 
Q 1681 391 2138 391 
Q 2594 391 2855 752 
Q 3116 1113 3116 1747 
z
" transform="scale(0.015625)"/>
       <path id="DejaVuSans-6f" d="M 1959 3097 
Q 1497 3097 1228 2736 
Q 959 2375 959 1747 
Q 959 1119 1226 758 
Q 1494 397 1959 397 
Q 2419 397 2687 759 
Q 2956 1122 2956 1747 
Q 2956 2369 2687 2733 
Q 2419 3097 1959 3097 
z
M 1959 3584 
Q 2709 3584 3137 3096 
Q 3566 2609 3566 1747 
Q 3566 888 3137 398 
Q 2709 -91 1959 -91 
Q 1206 -91 779 398 
Q 353 888 353 1747 
Q 353 2609 779 3096 
Q 1206 3584 1959 3584 
z
" transform="scale(0.015625)"/>
       <path id="DejaVuSans-63" d="M 3122 3366 
L 3122 2828 
Q 2878 2963 2633 3030 
Q 2388 3097 2138 3097 
Q 1578 3097 1268 2742 
Q 959 2388 959 1747 
Q 959 1106 1268 751 
Q 1578 397 2138 397 
Q 2388 397 2633 464 
Q 2878 531 3122 666 
L 3122 134 
Q 2881 22 2623 -34 
Q 2366 -91 2075 -91 
Q 1284 -91 818 406 
Q 353 903 353 1747 
Q 353 2603 823 3093 
Q 1294 3584 2113 3584 
Q 2378 3584 2631 3529 
Q 2884 3475 3122 3366 
z
" transform="scale(0.015625)"/>
       <path id="DejaVuSans-68" d="M 3513 2113 
L 3513 0 
L 2938 0 
L 2938 2094 
Q 2938 2591 2744 2837 
Q 2550 3084 2163 3084 
Q 1697 3084 1428 2787 
Q 1159 2491 1159 1978 
L 1159 0 
L 581 0 
L 581 4863 
L 1159 4863 
L 1159 2956 
Q 1366 3272 1645 3428 
Q 1925 3584 2291 3584 
Q 2894 3584 3203 3211 
Q 3513 2838 3513 2113 
z
" transform="scale(0.015625)"/>
      </defs>
      <use xlink:href="#DejaVuSans-65"/>
      <use xlink:href="#DejaVuSans-70" x="61.523438"/>
      <use xlink:href="#DejaVuSans-6f" x="125"/>
      <use xlink:href="#DejaVuSans-63" x="186.181641"/>
      <use xlink:href="#DejaVuSans-68" x="241.162109"/>
     </g>
    </g>
   </g>
   <g id="matplotlib.axis_2">
    <g id="ytick_1">
     <g id="line2d_7">
      <defs>
       <path id="mc0b3d43895" d="M 0 0 
L -3.5 0 
" style="stroke: #000000; stroke-width: 0.8"/>
      </defs>
      <g>
       <use xlink:href="#mc0b3d43895" x="57.6" y="285.246131" style="stroke: #000000; stroke-width: 0.8"/>
      </g>
     </g>
     <g id="text_8">
      <!-- 0.2 -->
      <g transform="translate(34.696875 289.04535) scale(0.1 -0.1)">
       <defs>
        <path id="DejaVuSans-2e" d="M 684 794 
L 1344 794 
L 1344 0 
L 684 0 
L 684 794 
z
" transform="scale(0.015625)"/>
       </defs>
       <use xlink:href="#DejaVuSans-30"/>
       <use xlink:href="#DejaVuSans-2e" x="63.623047"/>
       <use xlink:href="#DejaVuSans-32" x="95.410156"/>
      </g>
     </g>
    </g>
    <g id="ytick_2">
     <g id="line2d_8">
      <g>
       <use xlink:href="#mc0b3d43895" x="57.6" y="227.326599" style="stroke: #000000; stroke-width: 0.8"/>
      </g>
     </g>
     <g id="text_9">
      <!-- 0.4 -->
      <g transform="translate(34.696875 231.125817) scale(0.1 -0.1)">
       <use xlink:href="#DejaVuSans-30"/>
       <use xlink:href="#DejaVuSans-2e" x="63.623047"/>
       <use xlink:href="#DejaVuSans-34" x="95.410156"/>
      </g>
     </g>
    </g>
    <g id="ytick_3">
     <g id="line2d_9">
      <g>
       <use xlink:href="#mc0b3d43895" x="57.6" y="169.407066" style="stroke: #000000; stroke-width: 0.8"/>
      </g>
     </g>
     <g id="text_10">
      <!-- 0.6 -->
      <g transform="translate(34.696875 173.206284) scale(0.1 -0.1)">
       <use xlink:href="#DejaVuSans-30"/>
       <use xlink:href="#DejaVuSans-2e" x="63.623047"/>
       <use xlink:href="#DejaVuSans-36" x="95.410156"/>
      </g>
     </g>
    </g>
    <g id="ytick_4">
     <g id="line2d_10">
      <g>
       <use xlink:href="#mc0b3d43895" x="57.6" y="111.487533" style="stroke: #000000; stroke-width: 0.8"/>
      </g>
     </g>
     <g id="text_11">
      <!-- 0.8 -->
      <g transform="translate(34.696875 115.286752) scale(0.1 -0.1)">
       <use xlink:href="#DejaVuSans-30"/>
       <use xlink:href="#DejaVuSans-2e" x="63.623047"/>
       <use xlink:href="#DejaVuSans-38" x="95.410156"/>
      </g>
     </g>
    </g>
    <g id="ytick_5">
     <g id="line2d_11">
      <g>
       <use xlink:href="#mc0b3d43895" x="57.6" y="53.568" style="stroke: #000000; stroke-width: 0.8"/>
      </g>
     </g>
     <g id="text_12">
      <!-- 1.0 -->
      <g transform="translate(34.696875 57.367219) scale(0.1 -0.1)">
       <use xlink:href="#DejaVuSans-31"/>
       <use xlink:href="#DejaVuSans-2e" x="63.623047"/>
       <use xlink:href="#DejaVuSans-30" x="95.410156"/>
      </g>
     </g>
    </g>
    <g id="text_13">
     <!-- accuracy -->
     <g transform="translate(28.617187 197.087375) rotate(-90) scale(0.1 -0.1)">
      <defs>
       <path id="DejaVuSans-61" d="M 2194 1759 
Q 1497 1759 1228 1600 
Q 959 1441 959 1056 
Q 959 750 1161 570 
Q 1363 391 1709 391 
Q 2188 391 2477 730 
Q 2766 1069 2766 1631 
L 2766 1759 
L 2194 1759 
z
M 3341 1997 
L 3341 0 
L 2766 0 
L 2766 531 
Q 2569 213 2275 61 
Q 1981 -91 1556 -91 
Q 1019 -91 701 211 
Q 384 513 384 1019 
Q 384 1609 779 1909 
Q 1175 2209 1959 2209 
L 2766 2209 
L 2766 2266 
Q 2766 2663 2505 2880 
Q 2244 3097 1772 3097 
Q 1472 3097 1187 3025 
Q 903 2953 641 2809 
L 641 3341 
Q 956 3463 1253 3523 
Q 1550 3584 1831 3584 
Q 2591 3584 2966 3190 
Q 3341 2797 3341 1997 
z
" transform="scale(0.015625)"/>
       <path id="DejaVuSans-75" d="M 544 1381 
L 544 3500 
L 1119 3500 
L 1119 1403 
Q 1119 906 1312 657 
Q 1506 409 1894 409 
Q 2359 409 2629 706 
Q 2900 1003 2900 1516 
L 2900 3500 
L 3475 3500 
L 3475 0 
L 2900 0 
L 2900 538 
Q 2691 219 2414 64 
Q 2138 -91 1772 -91 
Q 1169 -91 856 284 
Q 544 659 544 1381 
z
M 1991 3584 
L 1991 3584 
z
" transform="scale(0.015625)"/>
       <path id="DejaVuSans-72" d="M 2631 2963 
Q 2534 3019 2420 3045 
Q 2306 3072 2169 3072 
Q 1681 3072 1420 2755 
Q 1159 2438 1159 1844 
L 1159 0 
L 581 0 
L 581 3500 
L 1159 3500 
L 1159 2956 
Q 1341 3275 1631 3429 
Q 1922 3584 2338 3584 
Q 2397 3584 2469 3576 
Q 2541 3569 2628 3553 
L 2631 2963 
z
" transform="scale(0.015625)"/>
       <path id="DejaVuSans-79" d="M 2059 -325 
Q 1816 -950 1584 -1140 
Q 1353 -1331 966 -1331 
L 506 -1331 
L 506 -850 
L 844 -850 
Q 1081 -850 1212 -737 
Q 1344 -625 1503 -206 
L 1606 56 
L 191 3500 
L 800 3500 
L 1894 763 
L 2988 3500 
L 3597 3500 
L 2059 -325 
z
" transform="scale(0.015625)"/>
      </defs>
      <use xlink:href="#DejaVuSans-61"/>
      <use xlink:href="#DejaVuSans-63" x="61.279297"/>
      <use xlink:href="#DejaVuSans-63" x="116.259766"/>
      <use xlink:href="#DejaVuSans-75" x="171.240234"/>
      <use xlink:href="#DejaVuSans-72" x="234.619141"/>
      <use xlink:href="#DejaVuSans-61" x="275.732422"/>
      <use xlink:href="#DejaVuSans-63" x="337.011719"/>
      <use xlink:href="#DejaVuSans-79" x="391.992188"/>
     </g>
    </g>
   </g>
   <g id="line2d_12">
    <path d="M 73.832727 278.00619 
L 74.157707 78.907796 
L 74.482686 78.907796 
L 74.807666 71.667854 
L 75.132645 60.807942 
L 75.782604 60.807942 
L 76.107584 57.187971 
L 76.757543 57.187971 
L 77.082523 53.568 
L 79.357379 53.568 
L 79.682359 57.187971 
L 80.007338 53.568 
L 290.91905 53.568 
L 291.244029 57.187971 
L 291.569009 53.568 
L 291.893989 53.568 
L 292.218968 57.187971 
L 292.543948 53.568 
L 294.168845 53.568 
L 294.493825 57.187971 
L 294.818804 53.568 
L 295.143784 53.568 
L 295.468763 57.187971 
L 295.793743 53.568 
L 296.768681 53.568 
L 297.093661 57.187971 
L 297.41864 53.568 
L 398.487273 53.568 
L 398.487273 53.568 
" clip-path="url(#pe239c9404f)" style="fill: none; stroke: #0000ff; stroke-width: 1.5; stroke-linecap: square"/>
   </g>
   <g id="line2d_13">
    <path d="M 73.832727 295.488 
L 74.157707 150.689168 
L 74.482686 143.62581 
L 74.807666 132.147854 
L 75.132645 134.796613 
L 75.457625 132.147854 
L 76.107584 144.50873 
L 76.432563 139.211212 
L 76.757543 138.328292 
L 77.082523 140.977051 
L 77.407502 139.211212 
L 77.732482 136.562453 
L 78.057461 142.742891 
L 78.382441 138.328292 
L 78.70742 144.50873 
L 79.0324 143.62581 
L 79.357379 139.211212 
L 79.682359 143.62581 
L 80.332318 143.62581 
L 80.657297 146.274569 
L 80.982277 147.157489 
L 81.307256 138.328292 
L 81.632236 140.094131 
L 81.957215 142.742891 
L 82.282195 138.328292 
L 82.607174 139.211212 
L 82.932154 142.742891 
L 83.257133 139.211212 
L 83.582113 142.742891 
L 83.907093 142.742891 
L 84.232072 141.859971 
L 84.557052 136.562453 
L 84.882031 143.62581 
L 85.207011 144.50873 
L 85.53199 140.977051 
L 85.85697 140.094131 
L 86.181949 140.977051 
L 86.506929 142.742891 
L 86.831908 142.742891 
L 87.156888 140.977051 
L 87.481867 143.62581 
L 87.806847 135.679533 
L 88.131826 140.094131 
L 88.456806 137.445372 
L 88.781785 142.742891 
L 89.106765 145.39165 
L 89.431744 138.328292 
L 90.081704 143.62581 
L 90.406683 140.977051 
L 91.056642 139.211212 
L 91.381622 141.859971 
L 91.706601 148.040409 
L 92.031581 146.274569 
L 92.35656 140.094131 
L 93.006519 143.62581 
L 93.331499 147.157489 
L 93.656478 140.977051 
L 93.981458 141.859971 
L 94.306437 140.977051 
L 94.631417 142.742891 
L 94.956396 138.328292 
L 95.281376 145.39165 
L 95.606355 141.859971 
L 96.256314 138.328292 
L 96.906274 142.742891 
L 97.231253 140.094131 
L 97.556233 142.742891 
L 97.881212 140.094131 
L 98.206192 143.62581 
L 98.531171 140.094131 
L 98.856151 141.859971 
L 99.18113 141.859971 
L 99.50611 138.328292 
L 99.831089 144.50873 
L 100.156069 142.742891 
L 100.481048 146.274569 
L 100.806028 142.742891 
L 101.131007 145.39165 
L 101.455987 139.211212 
L 101.780966 139.211212 
L 102.105946 144.50873 
L 102.430925 139.211212 
L 102.755905 145.39165 
L 103.080885 141.859971 
L 103.405864 145.39165 
L 103.730844 147.157489 
L 104.055823 147.157489 
L 104.380803 145.39165 
L 104.705782 145.39165 
L 105.030762 144.50873 
L 105.355741 142.742891 
L 105.680721 143.62581 
L 106.0057 140.977051 
L 106.33068 145.39165 
L 106.655659 145.39165 
L 107.305618 139.211212 
L 107.630598 138.328292 
L 107.955577 143.62581 
L 108.280557 144.50873 
L 108.605536 144.50873 
L 108.930516 149.806248 
L 109.255495 142.742891 
L 109.580475 142.742891 
L 109.905455 146.274569 
L 110.230434 144.50873 
L 110.555414 148.040409 
L 110.880393 148.040409 
L 111.205373 144.50873 
L 111.530352 142.742891 
L 111.855332 146.274569 
L 112.180311 146.274569 
L 112.505291 141.859971 
L 112.83027 144.50873 
L 113.15525 144.50873 
L 113.805209 146.274569 
L 114.130188 145.39165 
L 114.455168 145.39165 
L 114.780147 142.742891 
L 115.105127 144.50873 
L 115.430106 151.572088 
L 115.755086 144.50873 
L 116.080066 149.806248 
L 116.405045 148.923328 
L 116.730025 147.157489 
L 117.055004 148.923328 
L 117.379984 144.50873 
L 117.704963 144.50873 
L 118.029943 148.040409 
L 118.354922 143.62581 
L 118.679902 147.157489 
L 119.004881 144.50873 
L 119.329861 145.39165 
L 119.65484 148.923328 
L 119.97982 144.50873 
L 120.304799 142.742891 
L 120.629779 144.50873 
L 120.954758 145.39165 
L 121.279738 144.50873 
L 121.604717 140.977051 
L 121.929697 142.742891 
L 122.254676 142.742891 
L 122.579656 143.62581 
L 122.904636 143.62581 
L 123.229615 146.274569 
L 123.554595 140.094131 
L 123.879574 145.39165 
L 124.204554 141.859971 
L 124.529533 146.274569 
L 124.854513 146.274569 
L 125.179492 148.040409 
L 125.829451 141.859971 
L 126.154431 140.977051 
L 126.47941 142.742891 
L 126.80439 140.977051 
L 127.129369 141.859971 
L 127.454349 143.62581 
L 127.779328 140.977051 
L 128.104308 140.977051 
L 128.429287 141.859971 
L 128.754267 140.094131 
L 129.079247 139.211212 
L 129.404226 137.445372 
L 130.054185 145.39165 
L 130.379165 140.094131 
L 130.704144 140.977051 
L 131.029124 143.62581 
L 131.354103 143.62581 
L 131.679083 141.859971 
L 132.004062 140.977051 
L 132.329042 140.977051 
L 132.979001 147.157489 
L 133.30398 143.62581 
L 133.62896 143.62581 
L 133.953939 138.328292 
L 134.278919 140.977051 
L 134.603898 140.977051 
L 134.928878 147.157489 
L 135.253857 143.62581 
L 135.578837 142.742891 
L 135.903817 142.742891 
L 136.553776 144.50873 
L 136.878755 147.157489 
L 137.203735 145.39165 
L 137.528714 148.040409 
L 137.853694 143.62581 
L 138.178673 145.39165 
L 138.503653 141.859971 
L 139.153612 148.923328 
L 139.803571 144.50873 
L 140.12855 142.742891 
L 140.45353 143.62581 
L 140.778509 142.742891 
L 141.103489 146.274569 
L 141.753448 149.806248 
L 142.728387 140.094131 
L 143.053366 145.39165 
L 143.378346 139.211212 
L 143.703325 151.572088 
L 144.028305 145.39165 
L 144.678264 147.157489 
L 145.328223 147.157489 
L 145.653202 148.923328 
L 145.978182 143.62581 
L 146.303161 141.859971 
L 146.628141 148.040409 
L 146.95312 146.274569 
L 147.2781 148.040409 
L 147.603079 143.62581 
L 147.928059 143.62581 
L 148.253038 147.157489 
L 148.902998 145.39165 
L 149.227977 143.62581 
L 149.552957 145.39165 
L 149.877936 141.859971 
L 150.202916 146.274569 
L 150.527895 146.274569 
L 150.852875 143.62581 
L 151.177854 145.39165 
L 151.502834 148.040409 
L 151.827813 142.742891 
L 152.152793 141.859971 
L 152.802752 145.39165 
L 153.127731 144.50873 
L 153.452711 147.157489 
L 154.10267 141.859971 
L 154.427649 143.62581 
L 154.752629 143.62581 
L 155.077609 140.094131 
L 155.402588 148.040409 
L 155.727568 144.50873 
L 156.052547 147.157489 
L 156.377527 143.62581 
L 157.027486 141.859971 
L 158.327404 145.39165 
L 158.977363 145.39165 
L 159.302342 146.274569 
L 159.952301 144.50873 
L 160.277281 144.50873 
L 160.60226 142.742891 
L 160.92724 141.859971 
L 161.252219 147.157489 
L 161.577199 143.62581 
L 161.902179 145.39165 
L 162.227158 145.39165 
L 162.877117 140.094131 
L 163.202097 145.39165 
L 163.527076 146.274569 
L 163.852056 145.39165 
L 164.177035 137.445372 
L 164.502015 144.50873 
L 164.826994 141.859971 
L 165.151974 143.62581 
L 165.476953 142.742891 
L 165.801933 143.62581 
L 166.126912 145.39165 
L 166.451892 149.806248 
L 166.776871 144.50873 
L 167.101851 143.62581 
L 167.42683 146.274569 
L 167.75181 144.50873 
L 168.401769 144.50873 
L 168.726749 142.742891 
L 169.051728 144.50873 
L 169.376708 140.977051 
L 169.701687 145.39165 
L 170.351646 139.211212 
L 170.676626 148.923328 
L 171.001605 147.157489 
L 171.326585 142.742891 
L 171.651564 140.977051 
L 171.976544 144.50873 
L 172.301523 141.859971 
L 172.626503 142.742891 
L 172.951482 144.50873 
L 173.276462 140.094131 
L 173.601441 140.094131 
L 173.926421 143.62581 
L 174.2514 136.562453 
L 174.90136 147.157489 
L 175.226339 139.211212 
L 175.551319 147.157489 
L 175.876298 148.040409 
L 176.201278 145.39165 
L 176.526257 146.274569 
L 176.851237 141.859971 
L 177.176216 146.274569 
L 177.501196 142.742891 
L 177.826175 142.742891 
L 178.151155 143.62581 
L 178.476134 142.742891 
L 178.801114 148.040409 
L 179.126093 141.859971 
L 179.451073 142.742891 
L 179.776052 146.274569 
L 180.101032 152.455007 
L 180.426011 144.50873 
L 180.750991 147.157489 
L 181.075971 143.62581 
L 181.40095 148.923328 
L 181.72593 141.859971 
L 182.050909 146.274569 
L 182.375889 145.39165 
L 182.700868 142.742891 
L 183.025848 141.859971 
L 183.350827 142.742891 
L 183.675807 145.39165 
L 184.000786 142.742891 
L 184.325766 147.157489 
L 184.650745 143.62581 
L 184.975725 143.62581 
L 185.300704 144.50873 
L 185.625684 146.274569 
L 186.275643 140.094131 
L 186.600622 148.040409 
L 186.925602 141.859971 
L 187.250581 146.274569 
L 187.575561 148.923328 
L 187.900541 143.62581 
L 188.5505 147.157489 
L 188.875479 151.572088 
L 189.200459 143.62581 
L 189.525438 146.274569 
L 189.850418 151.572088 
L 190.175397 145.39165 
L 190.500377 145.39165 
L 191.150336 147.157489 
L 191.475315 145.39165 
L 191.800295 142.742891 
L 192.125274 142.742891 
L 192.450254 144.50873 
L 192.775233 148.923328 
L 193.100213 145.39165 
L 193.425192 147.157489 
L 193.750172 146.274569 
L 194.075152 146.274569 
L 194.400131 144.50873 
L 194.725111 140.094131 
L 195.05009 143.62581 
L 195.37507 142.742891 
L 195.700049 142.742891 
L 196.025029 146.274569 
L 196.350008 144.50873 
L 196.674988 146.274569 
L 196.999967 140.977051 
L 197.324947 143.62581 
L 197.649926 141.859971 
L 198.299885 145.39165 
L 198.624865 146.274569 
L 198.949844 142.742891 
L 199.274824 146.274569 
L 199.924783 144.50873 
L 200.249762 146.274569 
L 201.549681 142.742891 
L 201.87466 140.094131 
L 202.19964 148.040409 
L 202.524619 148.923328 
L 202.849599 143.62581 
L 203.499558 148.040409 
L 203.824537 144.50873 
L 204.149517 143.62581 
L 204.474496 143.62581 
L 204.799476 145.39165 
L 205.124455 145.39165 
L 205.449435 148.040409 
L 205.774414 143.62581 
L 206.099394 142.742891 
L 206.749353 142.742891 
L 207.074333 144.50873 
L 207.399312 143.62581 
L 207.724292 140.094131 
L 208.049271 146.274569 
L 208.374251 139.211212 
L 208.69923 145.39165 
L 209.02421 145.39165 
L 209.349189 143.62581 
L 209.674169 145.39165 
L 209.999148 140.094131 
L 210.649107 147.157489 
L 210.974087 140.977051 
L 211.624046 147.157489 
L 211.949025 144.50873 
L 212.274005 145.39165 
L 212.598984 142.742891 
L 212.923964 141.859971 
L 213.248943 144.50873 
L 213.573923 140.094131 
L 213.898903 145.39165 
L 214.223882 148.040409 
L 214.548862 139.211212 
L 214.873841 141.859971 
L 215.198821 142.742891 
L 215.5238 141.859971 
L 215.84878 144.50873 
L 216.173759 149.806248 
L 216.498739 148.040409 
L 216.823718 148.040409 
L 217.148698 145.39165 
L 217.473677 146.274569 
L 218.123636 141.859971 
L 218.448616 141.859971 
L 219.098575 145.39165 
L 219.423554 143.62581 
L 219.748534 147.157489 
L 220.073514 143.62581 
L 220.398493 143.62581 
L 220.723473 145.39165 
L 221.048452 135.679533 
L 221.373432 145.39165 
L 221.698411 144.50873 
L 222.023391 140.977051 
L 222.34837 145.39165 
L 222.67335 144.50873 
L 222.998329 141.859971 
L 223.323309 143.62581 
L 223.648288 142.742891 
L 223.973268 148.923328 
L 224.298247 147.157489 
L 224.623227 139.211212 
L 224.948206 147.157489 
L 225.273186 140.094131 
L 225.598165 140.977051 
L 225.923145 142.742891 
L 226.248124 146.274569 
L 226.573104 145.39165 
L 227.223063 151.572088 
L 227.548043 147.157489 
L 227.873022 144.50873 
L 228.198002 145.39165 
L 228.522981 140.977051 
L 228.847961 146.274569 
L 229.17294 145.39165 
L 229.49792 141.859971 
L 230.147879 148.923328 
L 230.797838 148.923328 
L 231.122817 140.977051 
L 231.447797 150.689168 
L 231.772776 141.859971 
L 232.097756 144.50873 
L 232.422735 141.859971 
L 233.072695 147.157489 
L 233.397674 146.274569 
L 233.722654 143.62581 
L 234.047633 145.39165 
L 234.372613 144.50873 
L 234.697592 146.274569 
L 235.022572 144.50873 
L 235.347551 148.040409 
L 235.672531 143.62581 
L 235.99751 145.39165 
L 236.32249 143.62581 
L 236.647469 146.274569 
L 236.972449 145.39165 
L 237.297428 146.274569 
L 237.622408 141.859971 
L 237.947387 148.040409 
L 238.272367 148.040409 
L 238.597346 149.806248 
L 238.922326 142.742891 
L 239.247305 146.274569 
L 239.897265 146.274569 
L 240.222244 147.157489 
L 240.547224 145.39165 
L 240.872203 144.50873 
L 241.522162 140.977051 
L 241.847142 148.040409 
L 242.172121 142.742891 
L 242.497101 146.274569 
L 243.14706 144.50873 
L 243.472039 141.859971 
L 244.121998 148.040409 
L 244.446978 147.157489 
L 244.771957 147.157489 
L 245.096937 145.39165 
L 245.421916 142.742891 
L 245.746896 148.040409 
L 246.396855 148.040409 
L 246.721835 153.337927 
L 247.046814 145.39165 
L 247.371794 142.742891 
L 247.696773 148.923328 
L 248.021753 145.39165 
L 248.346732 144.50873 
L 248.671712 144.50873 
L 248.996691 149.806248 
L 249.321671 140.977051 
L 249.64665 148.923328 
L 249.97163 145.39165 
L 250.296609 143.62581 
L 250.621589 146.274569 
L 250.946568 143.62581 
L 251.271548 144.50873 
L 251.596527 144.50873 
L 251.921507 143.62581 
L 252.246486 148.040409 
L 252.571466 143.62581 
L 252.896446 140.977051 
L 253.221425 149.806248 
L 253.546405 141.859971 
L 253.871384 145.39165 
L 254.196364 143.62581 
L 254.521343 145.39165 
L 254.846323 149.806248 
L 255.171302 140.977051 
L 255.496282 148.040409 
L 256.47122 142.742891 
L 256.7962 146.274569 
L 257.121179 144.50873 
L 257.446159 140.977051 
L 258.096118 148.040409 
L 258.421097 143.62581 
L 258.746077 145.39165 
L 259.396036 139.211212 
L 259.721016 148.040409 
L 260.045995 145.39165 
L 260.370975 145.39165 
L 260.695954 147.157489 
L 261.020934 140.094131 
L 261.345913 142.742891 
L 261.670893 148.040409 
L 261.995872 146.274569 
L 262.320852 146.274569 
L 262.645831 144.50873 
L 262.970811 148.923328 
L 263.29579 143.62581 
L 263.62077 145.39165 
L 263.945749 148.923328 
L 264.270729 143.62581 
L 264.595708 145.39165 
L 264.920688 146.274569 
L 265.245667 145.39165 
L 265.895627 141.859971 
L 266.220606 147.157489 
L 266.545586 146.274569 
L 266.870565 143.62581 
L 267.195545 143.62581 
L 267.520524 144.50873 
L 267.845504 148.923328 
L 268.170483 146.274569 
L 268.495463 146.274569 
L 268.820442 141.859971 
L 269.145422 145.39165 
L 269.470401 146.274569 
L 269.795381 141.859971 
L 270.12036 142.742891 
L 270.44534 150.689168 
L 270.770319 144.50873 
L 271.095299 151.572088 
L 271.745258 143.62581 
L 272.070238 144.50873 
L 272.395217 143.62581 
L 272.720197 141.859971 
L 273.045176 147.157489 
L 273.370156 147.157489 
L 273.695135 143.62581 
L 274.020115 148.923328 
L 274.345094 145.39165 
L 274.670074 143.62581 
L 274.995053 140.977051 
L 275.320033 147.157489 
L 275.645012 147.157489 
L 275.969992 149.806248 
L 276.294971 142.742891 
L 276.619951 142.742891 
L 276.94493 149.806248 
L 277.26991 145.39165 
L 277.594889 143.62581 
L 277.919869 140.977051 
L 278.569828 150.689168 
L 278.894808 139.211212 
L 279.219787 143.62581 
L 279.544767 142.742891 
L 279.869746 144.50873 
L 280.194726 142.742891 
L 280.519705 143.62581 
L 280.844685 149.806248 
L 281.169664 145.39165 
L 281.494644 142.742891 
L 281.819623 148.040409 
L 282.144603 143.62581 
L 282.469582 145.39165 
L 282.794562 143.62581 
L 283.119541 144.50873 
L 283.444521 148.040409 
L 283.7695 144.50873 
L 284.09448 147.157489 
L 284.419459 146.274569 
L 284.744439 143.62581 
L 285.069419 146.274569 
L 285.394398 154.220847 
L 285.719378 144.50873 
L 286.044357 148.923328 
L 286.369337 144.50873 
L 286.694316 146.274569 
L 287.344275 144.50873 
L 287.669255 140.977051 
L 288.319214 145.39165 
L 288.644193 145.39165 
L 288.969173 142.742891 
L 289.294152 144.50873 
L 289.619132 143.62581 
L 289.944111 141.859971 
L 290.269091 146.274569 
L 290.59407 148.923328 
L 291.244029 141.859971 
L 291.569009 147.157489 
L 291.893989 147.157489 
L 292.218968 158.635445 
L 292.868927 143.62581 
L 293.193907 145.39165 
L 293.518886 146.274569 
L 293.843866 145.39165 
L 294.168845 141.859971 
L 294.493825 147.157489 
L 294.818804 140.094131 
L 295.468763 150.689168 
L 296.118722 146.274569 
L 296.443702 151.572088 
L 296.768681 153.337927 
L 297.41864 145.39165 
L 297.74362 140.094131 
L 298.0686 145.39165 
L 298.393579 139.211212 
L 299.043538 147.157489 
L 299.368518 147.157489 
L 300.018477 153.337927 
L 300.343456 152.455007 
L 300.668436 148.923328 
L 300.993415 155.986686 
L 301.318395 149.806248 
L 301.643374 160.401285 
L 301.968354 163.932964 
L 302.618313 155.103766 
L 303.268272 156.869606 
L 303.593251 162.167124 
L 303.918231 157.752526 
L 304.24321 149.806248 
L 304.56819 155.103766 
L 304.89317 155.986686 
L 305.218149 163.932964 
L 305.543129 153.337927 
L 305.868108 156.869606 
L 306.193088 155.986686 
L 306.518067 156.869606 
L 307.168026 163.932964 
L 307.493006 159.518365 
L 307.817985 160.401285 
L 308.142965 164.815883 
L 308.467944 163.050044 
L 309.117903 173.64508 
L 309.442883 172.762161 
L 309.767862 163.050044 
L 310.092842 164.815883 
L 310.417821 170.996321 
L 310.742801 160.401285 
L 311.067781 158.635445 
L 311.39276 158.635445 
L 311.71774 152.455007 
L 312.042719 153.337927 
L 312.367699 150.689168 
L 312.692678 155.103766 
L 313.017658 145.39165 
L 313.342637 149.806248 
L 313.667617 140.977051 
L 313.992596 143.62581 
L 314.317576 153.337927 
L 314.642555 142.742891 
L 315.292514 154.220847 
L 315.617494 149.806248 
L 316.267453 151.572088 
L 316.592432 150.689168 
L 316.917412 152.455007 
L 317.242391 156.869606 
L 317.567371 153.337927 
L 317.892351 153.337927 
L 318.21733 150.689168 
L 318.54231 152.455007 
L 318.867289 150.689168 
L 319.517248 150.689168 
L 319.842228 154.220847 
L 320.167207 154.220847 
L 320.492187 153.337927 
L 320.817166 151.572088 
L 321.467125 155.103766 
L 321.792105 155.986686 
L 322.117084 148.923328 
L 322.442064 148.923328 
L 322.767043 151.572088 
L 323.092023 151.572088 
L 323.417002 155.103766 
L 323.741982 151.572088 
L 324.066962 149.806248 
L 324.391941 150.689168 
L 324.716921 155.103766 
L 325.0419 147.157489 
L 325.36688 155.103766 
L 325.691859 156.869606 
L 326.016839 152.455007 
L 326.341818 157.752526 
L 326.666798 152.455007 
L 326.991777 153.337927 
L 327.641736 149.806248 
L 327.966716 154.220847 
L 328.291695 151.572088 
L 328.616675 154.220847 
L 328.941654 151.572088 
L 329.266634 156.869606 
L 329.591613 152.455007 
L 329.916593 153.337927 
L 330.241572 157.752526 
L 330.566552 156.869606 
L 330.891532 151.572088 
L 331.216511 151.572088 
L 331.541491 148.040409 
L 331.86647 155.986686 
L 332.19145 152.455007 
L 332.516429 155.986686 
L 332.841409 147.157489 
L 333.491368 155.986686 
L 333.816347 155.986686 
L 334.141327 151.572088 
L 334.466306 155.103766 
L 334.791286 149.806248 
L 335.116265 148.923328 
L 335.441245 154.220847 
L 335.766224 154.220847 
L 336.091204 152.455007 
L 336.416183 151.572088 
L 336.741163 152.455007 
L 337.391122 157.752526 
L 337.716102 154.220847 
L 338.366061 152.455007 
L 338.69104 157.752526 
L 339.01602 155.986686 
L 339.665979 154.220847 
L 339.990958 155.103766 
L 340.315938 156.869606 
L 340.640917 154.220847 
L 340.965897 155.103766 
L 341.290876 152.455007 
L 341.615856 159.518365 
L 341.940835 154.220847 
L 342.265815 155.986686 
L 342.590794 155.986686 
L 342.915774 162.167124 
L 343.240753 150.689168 
L 343.565733 157.752526 
L 344.215692 153.337927 
L 344.540672 153.337927 
L 344.865651 155.103766 
L 345.190631 154.220847 
L 345.51561 149.806248 
L 345.84059 161.284204 
L 346.490549 154.220847 
L 346.815528 152.455007 
L 347.140508 157.752526 
L 347.465487 155.986686 
L 347.790467 153.337927 
L 348.115446 157.752526 
L 348.440426 155.986686 
L 348.765405 156.869606 
L 349.090385 156.869606 
L 349.415364 155.986686 
L 349.740344 151.572088 
L 350.065324 155.986686 
L 350.715283 151.572088 
L 351.365242 153.337927 
L 351.690221 156.869606 
L 352.015201 158.635445 
L 352.34018 158.635445 
L 352.66516 154.220847 
L 352.990139 155.986686 
L 353.315119 153.337927 
L 353.640098 152.455007 
L 353.965078 155.103766 
L 354.290057 160.401285 
L 354.615037 152.455007 
L 354.940016 149.806248 
L 355.264996 155.103766 
L 355.589975 157.752526 
L 355.914955 158.635445 
L 356.239934 152.455007 
L 356.564914 155.986686 
L 356.889894 155.986686 
L 357.214873 156.869606 
L 357.539853 155.103766 
L 357.864832 158.635445 
L 358.189812 155.103766 
L 358.514791 154.220847 
L 358.839771 155.103766 
L 359.16475 155.103766 
L 359.48973 156.869606 
L 359.814709 151.572088 
L 360.139689 150.689168 
L 360.464668 153.337927 
L 360.789648 154.220847 
L 361.114627 158.635445 
L 361.439607 155.986686 
L 361.764586 155.103766 
L 362.089566 153.337927 
L 362.414545 157.752526 
L 362.739525 154.220847 
L 363.064505 154.220847 
L 363.389484 153.337927 
L 363.714464 149.806248 
L 364.039443 158.635445 
L 364.364423 152.455007 
L 364.689402 153.337927 
L 365.014382 150.689168 
L 365.339361 154.220847 
L 365.664341 159.518365 
L 365.98932 154.220847 
L 366.639279 152.455007 
L 366.964259 158.635445 
L 367.289238 155.103766 
L 367.614218 149.806248 
L 367.939197 153.337927 
L 368.914136 158.635445 
L 369.239115 155.986686 
L 369.564095 157.752526 
L 369.889075 152.455007 
L 370.214054 156.869606 
L 370.539034 155.103766 
L 370.864013 152.455007 
L 371.188993 152.455007 
L 371.513972 158.635445 
L 371.838952 155.103766 
L 372.163931 154.220847 
L 372.488911 155.103766 
L 372.81389 152.455007 
L 373.13887 154.220847 
L 373.463849 153.337927 
L 373.788829 151.572088 
L 374.113808 154.220847 
L 374.438788 154.220847 
L 374.763767 155.103766 
L 375.088747 150.689168 
L 375.413726 160.401285 
L 375.738706 153.337927 
L 376.063686 151.572088 
L 376.388665 151.572088 
L 376.713645 153.337927 
L 377.038624 156.869606 
L 377.363604 151.572088 
L 377.688583 150.689168 
L 378.013563 157.752526 
L 378.338542 151.572088 
L 378.663522 153.337927 
L 378.988501 152.455007 
L 379.313481 155.986686 
L 379.63846 153.337927 
L 379.96344 155.103766 
L 380.288419 157.752526 
L 380.613399 151.572088 
L 380.938378 156.869606 
L 381.263358 151.572088 
L 381.588337 154.220847 
L 381.913317 154.220847 
L 382.238296 152.455007 
L 382.563276 148.923328 
L 382.888256 154.220847 
L 383.213235 151.572088 
L 383.538215 157.752526 
L 383.863194 151.572088 
L 384.188174 155.986686 
L 384.513153 151.572088 
L 384.838133 155.986686 
L 385.163112 155.103766 
L 385.488092 152.455007 
L 385.813071 154.220847 
L 386.138051 155.103766 
L 386.46303 157.752526 
L 386.78801 150.689168 
L 387.112989 152.455007 
L 387.437969 156.869606 
L 387.762948 155.986686 
L 388.087928 151.572088 
L 388.412907 155.103766 
L 388.737887 152.455007 
L 389.062867 155.103766 
L 389.387846 152.455007 
L 389.712826 155.986686 
L 390.037805 156.869606 
L 390.362785 156.869606 
L 390.687764 155.986686 
L 391.012744 157.752526 
L 391.337723 147.157489 
L 391.662703 154.220847 
L 391.987682 152.455007 
L 392.637641 154.220847 
L 392.962621 156.869606 
L 393.61258 152.455007 
L 393.937559 156.869606 
L 394.262539 151.572088 
L 394.587518 154.220847 
L 394.912498 158.635445 
L 395.237477 154.220847 
L 395.562457 152.455007 
L 395.887437 158.635445 
L 396.212416 154.220847 
L 396.862375 155.986686 
L 397.187355 162.167124 
L 397.512334 159.518365 
L 397.837314 154.220847 
L 398.162293 159.518365 
L 398.487273 159.518365 
L 398.487273 159.518365 
" clip-path="url(#pe239c9404f)" style="fill: none; stroke: #008000; stroke-width: 1.5; stroke-linecap: square"/>
   </g>
   <g id="line2d_14">
    <path d="M 73.832727 294.244189 
L 74.157707 176.308488 
L 74.807666 141.364577 
L 75.132645 141.801376 
L 75.457625 147.042963 
L 76.107584 149.663756 
L 76.432563 149.663756 
L 76.757543 146.606164 
L 77.082523 146.169365 
L 77.407502 149.226957 
L 78.057461 148.353359 
L 78.382441 149.226957 
L 78.70742 148.790158 
L 79.0324 148.790158 
L 79.357379 145.732566 
L 80.007338 150.537354 
L 80.332318 143.548571 
L 80.657297 150.100555 
L 80.982277 152.284549 
L 81.307256 148.790158 
L 81.632236 149.663756 
L 82.282195 145.732566 
L 82.607174 150.537354 
L 82.932154 149.663756 
L 83.257133 147.042963 
L 83.582113 151.410951 
L 83.907093 148.790158 
L 84.232072 143.548571 
L 84.557052 150.100555 
L 84.882031 150.537354 
L 85.207011 147.91656 
L 85.53199 148.790158 
L 86.181949 148.790158 
L 86.506929 147.91656 
L 87.156888 152.721348 
L 87.481867 144.858968 
L 87.806847 147.479761 
L 88.131826 147.91656 
L 88.781785 150.537354 
L 89.106765 150.974153 
L 89.431744 149.663756 
L 90.081704 149.663756 
L 90.406683 149.226957 
L 90.731663 149.663756 
L 91.056642 146.169365 
L 91.381622 150.537354 
L 91.706601 147.479761 
L 92.031581 150.537354 
L 92.35656 146.169365 
L 92.68154 151.410951 
L 93.006519 150.974153 
L 93.331499 147.91656 
L 93.656478 151.84775 
L 93.981458 149.226957 
L 94.306437 149.663756 
L 94.631417 147.479761 
L 94.956396 148.353359 
L 95.281376 147.042963 
L 95.606355 150.974153 
L 95.931335 148.790158 
L 96.256314 144.858968 
L 96.906274 149.226957 
L 97.231253 151.410951 
L 97.881212 145.732566 
L 98.206192 149.226957 
L 98.531171 150.974153 
L 98.856151 145.732566 
L 99.18113 146.606164 
L 99.50611 150.537354 
L 99.831089 147.479761 
L 100.156069 147.042963 
L 100.481048 150.100555 
L 100.806028 146.169365 
L 101.131007 147.479761 
L 101.455987 150.974153 
L 101.780966 145.295767 
L 102.105946 149.226957 
L 102.430925 144.858968 
L 102.755905 150.100555 
L 103.080885 148.790158 
L 103.405864 148.790158 
L 104.055823 149.663756 
L 104.380803 152.284549 
L 104.705782 150.537354 
L 105.030762 153.158147 
L 105.355741 153.158147 
L 105.680721 151.84775 
L 106.0057 149.226957 
L 106.33068 149.663756 
L 106.655659 151.410951 
L 106.980639 150.100555 
L 107.305618 150.537354 
L 107.630598 146.606164 
L 107.955577 151.84775 
L 108.280557 147.479761 
L 108.930516 149.226957 
L 109.255495 150.974153 
L 109.580475 148.353359 
L 109.905455 147.042963 
L 110.230434 147.91656 
L 110.555414 147.479761 
L 110.880393 149.663756 
L 111.205373 147.91656 
L 111.530352 151.84775 
L 111.855332 153.158147 
L 112.180311 148.790158 
L 112.505291 147.042963 
L 112.83027 148.790158 
L 113.15525 151.410951 
L 113.480229 147.91656 
L 113.805209 150.537354 
L 114.455168 148.353359 
L 115.105127 151.410951 
L 115.430106 150.974153 
L 115.755086 154.031745 
L 116.080066 148.353359 
L 116.730025 158.399734 
L 117.055004 152.721348 
L 117.379984 151.84775 
L 117.704963 152.721348 
L 118.029943 152.721348 
L 118.354922 151.84775 
L 118.679902 151.410951 
L 119.004881 153.594946 
L 119.329861 151.410951 
L 119.65484 150.974153 
L 119.97982 148.353359 
L 120.304799 148.790158 
L 120.629779 147.91656 
L 120.954758 148.353359 
L 121.279738 147.479761 
L 121.604717 148.790158 
L 121.929697 147.479761 
L 122.254676 150.974153 
L 122.579656 147.91656 
L 122.904636 146.606164 
L 123.229615 147.042963 
L 123.554595 147.91656 
L 123.879574 147.042963 
L 124.204554 150.974153 
L 124.529533 149.226957 
L 124.854513 146.606164 
L 125.179492 149.226957 
L 125.504472 149.663756 
L 125.829451 146.606164 
L 126.154431 147.479761 
L 126.47941 150.974153 
L 126.80439 151.410951 
L 127.129369 148.790158 
L 127.454349 151.410951 
L 127.779328 151.84775 
L 128.104308 149.663756 
L 128.429287 150.537354 
L 128.754267 147.042963 
L 129.079247 150.974153 
L 129.404226 147.91656 
L 129.729206 146.606164 
L 130.054185 148.353359 
L 130.704144 143.548571 
L 131.029124 147.91656 
L 131.354103 145.732566 
L 131.679083 147.479761 
L 132.004062 146.606164 
L 132.329042 144.422169 
L 132.654021 147.042963 
L 133.30398 147.042963 
L 133.62896 147.91656 
L 133.953939 147.91656 
L 134.278919 149.226957 
L 134.603898 146.606164 
L 134.928878 147.479761 
L 135.253857 146.169365 
L 135.578837 150.974153 
L 136.228796 153.594946 
L 136.553776 151.410951 
L 136.878755 147.479761 
L 137.203735 147.042963 
L 137.528714 151.84775 
L 137.853694 148.790158 
L 138.178673 148.790158 
L 138.503653 147.479761 
L 138.828632 151.84775 
L 139.153612 149.226957 
L 139.478591 147.91656 
L 139.803571 151.410951 
L 140.12855 144.858968 
L 140.778509 153.594946 
L 141.103489 148.353359 
L 141.428468 154.468544 
L 141.753448 153.594946 
L 142.078428 154.468544 
L 142.403407 150.100555 
L 142.728387 152.284549 
L 143.053366 147.91656 
L 143.378346 150.537354 
L 143.703325 151.84775 
L 144.028305 149.226957 
L 144.353284 150.100555 
L 144.678264 149.226957 
L 145.003243 153.158147 
L 145.328223 151.410951 
L 145.653202 151.410951 
L 145.978182 154.468544 
L 146.303161 150.974153 
L 146.628141 150.100555 
L 146.95312 148.790158 
L 147.2781 151.410951 
L 147.603079 150.100555 
L 147.928059 152.284549 
L 148.253038 147.479761 
L 148.578018 150.537354 
L 148.902998 148.790158 
L 149.227977 150.100555 
L 149.552957 147.91656 
L 149.877936 151.84775 
L 150.202916 146.606164 
L 150.527895 147.042963 
L 150.852875 147.91656 
L 151.177854 149.663756 
L 151.502834 148.353359 
L 151.827813 143.548571 
L 152.152793 150.974153 
L 152.477772 148.790158 
L 152.802752 151.84775 
L 153.127731 148.790158 
L 153.452711 148.790158 
L 153.77769 150.100555 
L 154.10267 148.353359 
L 154.427649 147.91656 
L 154.752629 147.91656 
L 155.077609 147.479761 
L 155.402588 149.226957 
L 155.727568 147.479761 
L 156.377527 152.284549 
L 156.702506 148.353359 
L 157.027486 148.790158 
L 157.352465 147.91656 
L 157.677445 150.100555 
L 158.327404 147.042963 
L 158.652383 153.158147 
L 158.977363 144.422169 
L 159.302342 147.91656 
L 159.627322 148.353359 
L 159.952301 150.100555 
L 160.277281 148.790158 
L 160.60226 145.732566 
L 160.92724 150.537354 
L 161.252219 150.974153 
L 161.577199 150.100555 
L 161.902179 151.410951 
L 162.227158 149.663756 
L 162.552138 146.169365 
L 162.877117 147.479761 
L 163.202097 147.042963 
L 163.527076 152.721348 
L 163.852056 150.100555 
L 164.502015 149.226957 
L 164.826994 148.353359 
L 165.151974 150.100555 
L 165.476953 147.042963 
L 165.801933 151.410951 
L 166.126912 148.790158 
L 166.451892 151.84775 
L 166.776871 149.226957 
L 167.101851 152.284549 
L 167.42683 150.974153 
L 168.07679 144.422169 
L 168.401769 147.479761 
L 168.726749 147.479761 
L 169.051728 147.042963 
L 169.376708 144.422169 
L 169.701687 150.537354 
L 170.026667 149.663756 
L 170.351646 150.537354 
L 170.676626 146.606164 
L 171.001605 146.169365 
L 171.326585 149.663756 
L 171.651564 144.858968 
L 171.976544 150.537354 
L 172.301523 147.91656 
L 172.626503 148.790158 
L 172.951482 146.606164 
L 173.276462 146.169365 
L 173.601441 147.042963 
L 173.926421 149.226957 
L 174.2514 147.479761 
L 174.90136 153.594946 
L 175.551319 148.790158 
L 175.876298 150.974153 
L 176.201278 147.91656 
L 176.526257 151.84775 
L 176.851237 148.790158 
L 177.176216 148.353359 
L 177.501196 145.295767 
L 177.826175 147.479761 
L 178.151155 146.606164 
L 178.476134 150.100555 
L 178.801114 149.226957 
L 179.126093 149.663756 
L 179.451073 151.410951 
L 179.776052 148.353359 
L 180.101032 148.353359 
L 180.426011 144.858968 
L 180.750991 149.663756 
L 181.075971 147.91656 
L 181.40095 150.537354 
L 181.72593 146.169365 
L 182.050909 149.226957 
L 182.375889 150.100555 
L 182.700868 149.663756 
L 183.025848 148.790158 
L 183.350827 149.663756 
L 183.675807 150.974153 
L 184.000786 146.169365 
L 184.325766 149.226957 
L 184.650745 148.790158 
L 184.975725 153.158147 
L 185.300704 148.790158 
L 185.625684 155.77894 
L 185.950663 148.353359 
L 186.275643 151.410951 
L 186.600622 151.410951 
L 186.925602 149.226957 
L 187.250581 149.226957 
L 187.575561 152.284549 
L 187.900541 150.974153 
L 188.22552 150.974153 
L 188.5505 150.100555 
L 188.875479 150.100555 
L 189.200459 150.537354 
L 189.525438 145.295767 
L 189.850418 147.042963 
L 190.175397 145.732566 
L 190.500377 147.91656 
L 190.825356 146.606164 
L 191.475315 150.537354 
L 191.800295 149.226957 
L 192.125274 149.226957 
L 192.450254 150.100555 
L 192.775233 150.100555 
L 193.100213 149.663756 
L 193.425192 150.100555 
L 193.750172 150.100555 
L 194.075152 149.663756 
L 194.400131 147.91656 
L 194.725111 148.353359 
L 195.05009 149.663756 
L 195.37507 153.158147 
L 195.700049 149.226957 
L 196.025029 149.226957 
L 196.350008 148.353359 
L 196.999967 147.479761 
L 197.324947 146.169365 
L 197.649926 151.410951 
L 197.974906 150.974153 
L 198.949844 147.479761 
L 199.274824 150.100555 
L 199.599803 148.790158 
L 199.924783 152.284549 
L 200.249762 150.100555 
L 200.574742 151.410951 
L 200.899722 148.790158 
L 201.224701 151.84775 
L 201.549681 146.169365 
L 201.87466 151.84775 
L 202.524619 149.663756 
L 202.849599 151.410951 
L 203.499558 148.790158 
L 203.824537 150.537354 
L 204.149517 150.537354 
L 204.474496 147.91656 
L 204.799476 149.226957 
L 205.449435 153.158147 
L 205.774414 147.042963 
L 206.099394 146.606164 
L 206.424373 150.100555 
L 206.749353 148.353359 
L 207.399312 149.226957 
L 207.724292 146.169365 
L 208.049271 150.537354 
L 208.374251 148.790158 
L 208.69923 152.284549 
L 209.02421 151.84775 
L 209.349189 147.479761 
L 209.674169 150.974153 
L 209.999148 150.974153 
L 210.324128 150.100555 
L 210.649107 149.663756 
L 210.974087 148.353359 
L 211.299066 150.100555 
L 211.624046 148.790158 
L 212.274005 152.284549 
L 212.598984 148.353359 
L 213.248943 146.606164 
L 213.573923 144.858968 
L 213.898903 147.042963 
L 214.223882 152.721348 
L 214.548862 150.537354 
L 214.873841 146.169365 
L 215.198821 150.100555 
L 215.5238 146.169365 
L 216.173759 154.905343 
L 216.498739 147.91656 
L 216.823718 152.721348 
L 217.148698 149.226957 
L 217.473677 152.721348 
L 217.798657 149.663756 
L 218.448616 148.790158 
L 218.773595 147.91656 
L 219.098575 152.284549 
L 219.423554 148.790158 
L 219.748534 147.042963 
L 220.073514 150.537354 
L 220.398493 150.100555 
L 220.723473 146.606164 
L 221.048452 147.91656 
L 221.373432 152.721348 
L 221.698411 150.100555 
L 222.023391 149.226957 
L 222.34837 148.790158 
L 222.67335 150.537354 
L 222.998329 150.537354 
L 223.323309 148.790158 
L 223.648288 149.663756 
L 223.973268 155.342141 
L 224.298247 150.100555 
L 224.948206 150.100555 
L 225.273186 151.84775 
L 225.598165 145.732566 
L 225.923145 148.353359 
L 226.248124 152.284549 
L 226.573104 151.84775 
L 226.898084 150.100555 
L 227.223063 151.410951 
L 227.548043 148.353359 
L 227.873022 151.410951 
L 228.198002 150.537354 
L 228.522981 147.91656 
L 229.49792 149.226957 
L 229.822899 150.537354 
L 230.147879 145.732566 
L 230.472858 149.226957 
L 230.797838 149.663756 
L 231.122817 152.721348 
L 231.447797 148.790158 
L 231.772776 147.042963 
L 232.097756 146.606164 
L 232.422735 153.158147 
L 232.747715 149.663756 
L 233.072695 149.663756 
L 233.397674 152.284549 
L 233.722654 147.91656 
L 234.047633 150.537354 
L 234.372613 150.100555 
L 234.697592 154.031745 
L 235.022572 148.353359 
L 235.347551 146.606164 
L 235.672531 149.663756 
L 235.99751 146.606164 
L 236.32249 147.479761 
L 236.647469 147.91656 
L 237.297428 149.663756 
L 237.622408 147.479761 
L 237.947387 150.974153 
L 238.272367 147.91656 
L 238.597346 150.100555 
L 238.922326 149.226957 
L 239.247305 149.226957 
L 239.572285 145.732566 
L 240.222244 149.226957 
L 240.547224 150.100555 
L 240.872203 153.594946 
L 241.197183 149.663756 
L 241.522162 151.410951 
L 241.847142 149.226957 
L 242.172121 149.663756 
L 242.497101 150.537354 
L 242.82208 148.353359 
L 243.14706 149.663756 
L 243.472039 148.790158 
L 243.797019 147.042963 
L 244.121998 147.479761 
L 244.446978 148.353359 
L 244.771957 146.606164 
L 245.096937 150.100555 
L 245.421916 150.537354 
L 245.746896 151.410951 
L 246.071876 150.974153 
L 246.396855 149.663756 
L 246.721835 151.84775 
L 247.046814 147.91656 
L 247.371794 152.721348 
L 247.696773 147.479761 
L 248.021753 149.226957 
L 248.346732 154.468544 
L 248.671712 151.410951 
L 248.996691 152.284549 
L 249.321671 147.479761 
L 249.64665 150.100555 
L 249.97163 148.790158 
L 250.296609 151.84775 
L 250.621589 147.042963 
L 250.946568 146.169365 
L 251.271548 146.169365 
L 251.596527 151.410951 
L 251.921507 149.663756 
L 252.246486 148.790158 
L 252.571466 148.353359 
L 252.896446 148.353359 
L 253.221425 146.169365 
L 253.546405 148.790158 
L 253.871384 148.790158 
L 254.196364 152.284549 
L 254.521343 149.226957 
L 254.846323 148.790158 
L 255.171302 151.410951 
L 255.496282 146.606164 
L 255.821261 146.606164 
L 256.146241 148.790158 
L 256.47122 150.100555 
L 256.7962 147.042963 
L 257.121179 148.353359 
L 257.446159 143.98537 
L 257.771138 145.295767 
L 258.096118 150.100555 
L 258.421097 146.169365 
L 258.746077 144.422169 
L 259.071057 149.226957 
L 259.396036 150.974153 
L 259.721016 150.100555 
L 260.045995 146.606164 
L 260.370975 148.790158 
L 260.695954 148.790158 
L 261.020934 150.100555 
L 261.345913 148.790158 
L 261.670893 149.226957 
L 261.995872 150.537354 
L 262.320852 145.295767 
L 262.645831 150.537354 
L 262.970811 147.91656 
L 263.29579 149.663756 
L 263.62077 149.663756 
L 263.945749 147.042963 
L 264.270729 149.226957 
L 264.595708 149.226957 
L 264.920688 150.537354 
L 265.245667 149.226957 
L 265.570647 151.410951 
L 266.220606 146.169365 
L 266.545586 150.537354 
L 266.870565 151.410951 
L 267.195545 150.974153 
L 267.845504 146.169365 
L 268.170483 151.84775 
L 268.495463 150.537354 
L 268.820442 150.537354 
L 269.145422 147.479761 
L 269.470401 151.410951 
L 269.795381 148.790158 
L 270.12036 151.84775 
L 270.770319 148.790158 
L 271.095299 150.100555 
L 271.420278 148.790158 
L 271.745258 150.974153 
L 272.070238 146.606164 
L 272.395217 150.537354 
L 272.720197 151.410951 
L 273.045176 149.663756 
L 273.370156 145.295767 
L 273.695135 151.410951 
L 274.020115 147.479761 
L 274.345094 152.721348 
L 274.670074 147.479761 
L 274.995053 146.169365 
L 275.320033 151.410951 
L 275.645012 148.353359 
L 275.969992 149.663756 
L 276.294971 147.042963 
L 276.619951 149.663756 
L 276.94493 149.663756 
L 277.26991 148.353359 
L 277.594889 150.974153 
L 277.919869 149.226957 
L 278.244848 149.226957 
L 278.569828 148.790158 
L 278.894808 147.91656 
L 279.219787 149.226957 
L 279.544767 147.91656 
L 279.869746 148.353359 
L 280.194726 150.100555 
L 280.519705 148.790158 
L 280.844685 151.410951 
L 281.169664 150.537354 
L 281.494644 149.226957 
L 281.819623 150.100555 
L 282.144603 150.537354 
L 282.469582 149.226957 
L 282.794562 147.042963 
L 283.119541 148.790158 
L 283.444521 149.226957 
L 284.09448 150.974153 
L 284.744439 147.042963 
L 285.719378 151.410951 
L 286.044357 148.790158 
L 286.369337 152.721348 
L 286.694316 149.226957 
L 287.019296 147.479761 
L 287.344275 146.606164 
L 287.669255 147.479761 
L 287.994234 150.537354 
L 288.319214 145.732566 
L 288.644193 147.042963 
L 288.969173 147.479761 
L 289.294152 150.537354 
L 289.619132 147.91656 
L 289.944111 150.974153 
L 290.269091 148.353359 
L 290.59407 148.790158 
L 290.91905 147.91656 
L 291.244029 146.169365 
L 291.569009 152.721348 
L 291.893989 152.721348 
L 292.218968 157.962935 
L 292.543948 155.77894 
L 293.193907 148.790158 
L 293.518886 149.226957 
L 293.843866 149.226957 
L 294.168845 146.169365 
L 294.493825 151.410951 
L 294.818804 148.790158 
L 295.143784 153.158147 
L 295.468763 155.342141 
L 295.793743 154.468544 
L 296.118722 154.905343 
L 296.443702 158.836533 
L 296.768681 158.399734 
L 297.093661 158.399734 
L 297.41864 152.284549 
L 297.74362 150.974153 
L 298.0686 148.353359 
L 298.393579 153.158147 
L 298.718559 150.537354 
L 299.043538 150.100555 
L 299.368518 150.974153 
L 299.693497 152.284549 
L 300.018477 154.468544 
L 300.343456 155.77894 
L 300.668436 159.273331 
L 300.993415 160.583728 
L 301.318395 164.514918 
L 301.643374 161.894125 
L 301.968354 161.457326 
L 302.293333 165.825315 
L 302.618313 164.514918 
L 303.268272 166.698913 
L 303.593251 162.330924 
L 303.918231 163.64132 
L 304.24321 160.583728 
L 304.56819 166.698913 
L 304.89317 162.330924 
L 305.218149 161.457326 
L 305.543129 159.273331 
L 305.868108 161.020527 
L 306.193088 164.078119 
L 306.518067 159.71013 
L 306.843047 165.388516 
L 307.168026 161.020527 
L 307.493006 159.71013 
L 307.817985 168.882907 
L 308.467944 163.64132 
L 308.792924 169.319706 
L 309.117903 170.630103 
L 309.442883 173.687695 
L 309.767862 171.066901 
L 310.092842 175.871689 
L 310.417821 173.250896 
L 310.742801 169.319706 
L 311.067781 158.836533 
L 311.39276 161.457326 
L 311.71774 161.894125 
L 312.042719 160.583728 
L 312.367699 154.905343 
L 312.692678 156.215739 
L 313.017658 155.77894 
L 313.342637 156.215739 
L 313.992596 160.146929 
L 314.317576 157.962935 
L 314.642555 157.089337 
L 314.967535 159.273331 
L 315.292514 157.962935 
L 315.617494 160.583728 
L 315.942473 156.652538 
L 316.267453 155.342141 
L 316.592432 155.342141 
L 316.917412 160.146929 
L 317.242391 159.273331 
L 317.567371 161.020527 
L 317.892351 157.526136 
L 318.21733 157.962935 
L 318.54231 155.342141 
L 318.867289 155.342141 
L 319.192269 160.583728 
L 319.517248 158.836533 
L 319.842228 161.894125 
L 320.167207 157.962935 
L 320.492187 158.399734 
L 320.817166 155.342141 
L 321.142146 157.962935 
L 321.467125 156.652538 
L 321.792105 162.767723 
L 322.117084 161.020527 
L 322.442064 161.894125 
L 322.767043 158.836533 
L 323.417002 161.020527 
L 323.741982 160.583728 
L 324.066962 164.514918 
L 324.391941 158.399734 
L 324.716921 160.583728 
L 325.0419 159.71013 
L 325.36688 162.330924 
L 325.691859 161.457326 
L 326.016839 159.273331 
L 326.341818 162.330924 
L 326.666798 159.273331 
L 326.991777 158.836533 
L 327.316757 160.583728 
L 327.641736 159.273331 
L 327.966716 157.089337 
L 328.291695 162.330924 
L 328.616675 160.146929 
L 328.941654 158.836533 
L 329.266634 160.583728 
L 329.591613 159.71013 
L 329.916593 161.020527 
L 330.241572 157.526136 
L 330.891532 159.71013 
L 331.216511 160.146929 
L 331.541491 157.526136 
L 331.86647 157.526136 
L 332.19145 157.962935 
L 332.516429 157.089337 
L 332.841409 161.457326 
L 333.166388 157.526136 
L 333.491368 162.767723 
L 333.816347 161.457326 
L 334.141327 163.204521 
L 334.466306 162.330924 
L 334.791286 160.583728 
L 335.441245 164.951717 
L 335.766224 159.273331 
L 336.091204 157.526136 
L 336.416183 156.652538 
L 337.066143 160.583728 
L 337.391122 155.77894 
L 337.716102 158.399734 
L 338.041081 162.330924 
L 338.366061 158.836533 
L 338.69104 161.020527 
L 339.01602 162.330924 
L 339.340999 162.330924 
L 339.665979 153.594946 
L 339.990958 161.020527 
L 340.315938 158.836533 
L 340.640917 161.457326 
L 340.965897 160.583728 
L 341.290876 157.962935 
L 341.615856 159.71013 
L 341.940835 157.526136 
L 342.590794 167.135711 
L 342.915774 161.894125 
L 343.240753 161.894125 
L 343.565733 160.146929 
L 343.890713 161.894125 
L 344.215692 158.399734 
L 344.540672 158.836533 
L 344.865651 161.020527 
L 345.190631 158.836533 
L 345.51561 159.71013 
L 345.84059 158.399734 
L 346.165569 161.020527 
L 346.490549 160.146929 
L 346.815528 161.457326 
L 347.140508 163.64132 
L 347.465487 160.583728 
L 347.790467 159.273331 
L 348.115446 161.457326 
L 348.440426 161.020527 
L 348.765405 162.330924 
L 349.090385 157.089337 
L 349.415364 161.894125 
L 349.740344 162.330924 
L 350.065324 161.020527 
L 350.390303 160.583728 
L 350.715283 157.089337 
L 351.040262 161.457326 
L 351.365242 157.526136 
L 351.690221 161.457326 
L 352.015201 160.146929 
L 352.34018 162.330924 
L 352.66516 160.146929 
L 352.990139 161.457326 
L 353.315119 160.146929 
L 353.640098 160.146929 
L 353.965078 162.767723 
L 354.290057 156.215739 
L 354.940016 161.020527 
L 355.264996 158.399734 
L 356.239934 165.825315 
L 356.564914 164.078119 
L 356.889894 160.146929 
L 357.214873 160.146929 
L 357.539853 161.020527 
L 357.864832 161.020527 
L 358.189812 160.583728 
L 358.514791 159.273331 
L 358.839771 160.583728 
L 359.16475 160.146929 
L 359.48973 161.457326 
L 359.814709 158.836533 
L 360.139689 158.399734 
L 360.464668 155.77894 
L 361.114627 164.078119 
L 361.439607 159.71013 
L 361.764586 160.146929 
L 362.089566 164.514918 
L 362.414545 157.962935 
L 362.739525 160.583728 
L 363.064505 161.020527 
L 363.389484 161.894125 
L 363.714464 158.399734 
L 364.039443 156.652538 
L 364.364423 155.77894 
L 364.689402 158.399734 
L 365.014382 157.089337 
L 365.339361 160.146929 
L 365.664341 161.020527 
L 365.98932 162.767723 
L 366.3143 160.583728 
L 366.639279 159.71013 
L 366.964259 159.71013 
L 367.289238 161.020527 
L 367.614218 160.146929 
L 367.939197 158.399734 
L 368.264177 161.457326 
L 368.589156 158.399734 
L 368.914136 160.146929 
L 369.239115 162.767723 
L 369.564095 156.215739 
L 369.889075 158.399734 
L 370.214054 157.962935 
L 370.539034 160.146929 
L 370.864013 161.020527 
L 371.188993 162.767723 
L 371.513972 157.089337 
L 371.838952 162.767723 
L 372.163931 157.962935 
L 372.488911 157.089337 
L 372.81389 160.146929 
L 373.13887 161.894125 
L 373.463849 162.330924 
L 373.788829 159.273331 
L 374.113808 163.204521 
L 374.438788 158.836533 
L 374.763767 164.514918 
L 375.088747 158.836533 
L 375.413726 161.020527 
L 375.738706 153.594946 
L 376.063686 159.71013 
L 376.388665 158.836533 
L 376.713645 158.836533 
L 377.038624 157.962935 
L 377.363604 162.767723 
L 377.688583 158.836533 
L 378.013563 159.71013 
L 378.338542 159.273331 
L 378.663522 159.273331 
L 378.988501 161.020527 
L 379.313481 159.273331 
L 379.63846 159.273331 
L 379.96344 155.342141 
L 380.288419 160.146929 
L 380.613399 161.020527 
L 380.938378 157.962935 
L 381.263358 157.089337 
L 381.588337 160.146929 
L 381.913317 160.146929 
L 382.238296 158.399734 
L 382.563276 158.836533 
L 382.888256 159.71013 
L 383.213235 159.71013 
L 383.863194 156.652538 
L 384.188174 156.652538 
L 384.838133 164.078119 
L 385.163112 157.962935 
L 385.488092 157.962935 
L 385.813071 160.583728 
L 386.138051 159.71013 
L 386.46303 157.089337 
L 386.78801 157.089337 
L 387.112989 159.71013 
L 387.437969 158.836533 
L 387.762948 161.894125 
L 388.087928 157.962935 
L 388.412907 161.894125 
L 388.737887 160.583728 
L 389.062867 156.215739 
L 389.387846 157.089337 
L 389.712826 161.457326 
L 390.037805 157.962935 
L 390.362785 158.836533 
L 390.687764 157.526136 
L 391.012744 157.962935 
L 391.337723 159.273331 
L 391.662703 159.273331 
L 391.987682 157.526136 
L 392.312662 159.71013 
L 392.637641 158.836533 
L 392.962621 158.836533 
L 393.2876 161.457326 
L 393.61258 157.962935 
L 393.937559 159.273331 
L 394.262539 155.342141 
L 394.587518 161.894125 
L 394.912498 163.204521 
L 395.237477 157.526136 
L 395.562457 157.526136 
L 395.887437 162.767723 
L 396.537396 159.71013 
L 397.187355 165.825315 
L 397.512334 163.64132 
L 398.162293 166.698913 
L 398.487273 166.262114 
L 398.487273 166.262114 
" clip-path="url(#pe239c9404f)" style="fill: none; stroke: #ff0000; stroke-width: 1.5; stroke-linecap: square"/>
   </g>
   <g id="patch_3">
    <path d="M 57.6 307.584 
L 57.6 41.472 
" style="fill: none; stroke: #000000; stroke-width: 0.8; stroke-linejoin: miter; stroke-linecap: square"/>
   </g>
   <g id="patch_4">
    <path d="M 414.72 307.584 
L 414.72 41.472 
" style="fill: none; stroke: #000000; stroke-width: 0.8; stroke-linejoin: miter; stroke-linecap: square"/>
   </g>
   <g id="patch_5">
    <path d="M 57.6 307.584 
L 414.72 307.584 
" style="fill: none; stroke: #000000; stroke-width: 0.8; stroke-linejoin: miter; stroke-linecap: square"/>
   </g>
   <g id="patch_6">
    <path d="M 57.6 41.472 
L 414.72 41.472 
" style="fill: none; stroke: #000000; stroke-width: 0.8; stroke-linejoin: miter; stroke-linecap: square"/>
   </g>
   <g id="text_14">
    <!-- spectrumGCN+CiteSeer+WithGraph_CiteSeer_WithOutGraph_Training and Validation accuracy -->
    <g transform="translate(-48.038438 35.472) scale(0.12 -0.12)">
     <defs>
      <path id="DejaVuSans-73" d="M 2834 3397 
L 2834 2853 
Q 2591 2978 2328 3040 
Q 2066 3103 1784 3103 
Q 1356 3103 1142 2972 
Q 928 2841 928 2578 
Q 928 2378 1081 2264 
Q 1234 2150 1697 2047 
L 1894 2003 
Q 2506 1872 2764 1633 
Q 3022 1394 3022 966 
Q 3022 478 2636 193 
Q 2250 -91 1575 -91 
Q 1294 -91 989 -36 
Q 684 19 347 128 
L 347 722 
Q 666 556 975 473 
Q 1284 391 1588 391 
Q 1994 391 2212 530 
Q 2431 669 2431 922 
Q 2431 1156 2273 1281 
Q 2116 1406 1581 1522 
L 1381 1569 
Q 847 1681 609 1914 
Q 372 2147 372 2553 
Q 372 3047 722 3315 
Q 1072 3584 1716 3584 
Q 2034 3584 2315 3537 
Q 2597 3491 2834 3397 
z
" transform="scale(0.015625)"/>
      <path id="DejaVuSans-74" d="M 1172 4494 
L 1172 3500 
L 2356 3500 
L 2356 3053 
L 1172 3053 
L 1172 1153 
Q 1172 725 1289 603 
Q 1406 481 1766 481 
L 2356 481 
L 2356 0 
L 1766 0 
Q 1100 0 847 248 
Q 594 497 594 1153 
L 594 3053 
L 172 3053 
L 172 3500 
L 594 3500 
L 594 4494 
L 1172 4494 
z
" transform="scale(0.015625)"/>
      <path id="DejaVuSans-6d" d="M 3328 2828 
Q 3544 3216 3844 3400 
Q 4144 3584 4550 3584 
Q 5097 3584 5394 3201 
Q 5691 2819 5691 2113 
L 5691 0 
L 5113 0 
L 5113 2094 
Q 5113 2597 4934 2840 
Q 4756 3084 4391 3084 
Q 3944 3084 3684 2787 
Q 3425 2491 3425 1978 
L 3425 0 
L 2847 0 
L 2847 2094 
Q 2847 2600 2669 2842 
Q 2491 3084 2119 3084 
Q 1678 3084 1418 2786 
Q 1159 2488 1159 1978 
L 1159 0 
L 581 0 
L 581 3500 
L 1159 3500 
L 1159 2956 
Q 1356 3278 1631 3431 
Q 1906 3584 2284 3584 
Q 2666 3584 2933 3390 
Q 3200 3197 3328 2828 
z
" transform="scale(0.015625)"/>
      <path id="DejaVuSans-47" d="M 3809 666 
L 3809 1919 
L 2778 1919 
L 2778 2438 
L 4434 2438 
L 4434 434 
Q 4069 175 3628 42 
Q 3188 -91 2688 -91 
Q 1594 -91 976 548 
Q 359 1188 359 2328 
Q 359 3472 976 4111 
Q 1594 4750 2688 4750 
Q 3144 4750 3555 4637 
Q 3966 4525 4313 4306 
L 4313 3634 
Q 3963 3931 3569 4081 
Q 3175 4231 2741 4231 
Q 1884 4231 1454 3753 
Q 1025 3275 1025 2328 
Q 1025 1384 1454 906 
Q 1884 428 2741 428 
Q 3075 428 3337 486 
Q 3600 544 3809 666 
z
" transform="scale(0.015625)"/>
      <path id="DejaVuSans-43" d="M 4122 4306 
L 4122 3641 
Q 3803 3938 3442 4084 
Q 3081 4231 2675 4231 
Q 1875 4231 1450 3742 
Q 1025 3253 1025 2328 
Q 1025 1406 1450 917 
Q 1875 428 2675 428 
Q 3081 428 3442 575 
Q 3803 722 4122 1019 
L 4122 359 
Q 3791 134 3420 21 
Q 3050 -91 2638 -91 
Q 1578 -91 968 557 
Q 359 1206 359 2328 
Q 359 3453 968 4101 
Q 1578 4750 2638 4750 
Q 3056 4750 3426 4639 
Q 3797 4528 4122 4306 
z
" transform="scale(0.015625)"/>
      <path id="DejaVuSans-4e" d="M 628 4666 
L 1478 4666 
L 3547 763 
L 3547 4666 
L 4159 4666 
L 4159 0 
L 3309 0 
L 1241 3903 
L 1241 0 
L 628 0 
L 628 4666 
z
" transform="scale(0.015625)"/>
      <path id="DejaVuSans-2b" d="M 2944 4013 
L 2944 2272 
L 4684 2272 
L 4684 1741 
L 2944 1741 
L 2944 0 
L 2419 0 
L 2419 1741 
L 678 1741 
L 678 2272 
L 2419 2272 
L 2419 4013 
L 2944 4013 
z
" transform="scale(0.015625)"/>
      <path id="DejaVuSans-69" d="M 603 3500 
L 1178 3500 
L 1178 0 
L 603 0 
L 603 3500 
z
M 603 4863 
L 1178 4863 
L 1178 4134 
L 603 4134 
L 603 4863 
z
" transform="scale(0.015625)"/>
      <path id="DejaVuSans-53" d="M 3425 4513 
L 3425 3897 
Q 3066 4069 2747 4153 
Q 2428 4238 2131 4238 
Q 1616 4238 1336 4038 
Q 1056 3838 1056 3469 
Q 1056 3159 1242 3001 
Q 1428 2844 1947 2747 
L 2328 2669 
Q 3034 2534 3370 2195 
Q 3706 1856 3706 1288 
Q 3706 609 3251 259 
Q 2797 -91 1919 -91 
Q 1588 -91 1214 -16 
Q 841 59 441 206 
L 441 856 
Q 825 641 1194 531 
Q 1563 422 1919 422 
Q 2459 422 2753 634 
Q 3047 847 3047 1241 
Q 3047 1584 2836 1778 
Q 2625 1972 2144 2069 
L 1759 2144 
Q 1053 2284 737 2584 
Q 422 2884 422 3419 
Q 422 4038 858 4394 
Q 1294 4750 2059 4750 
Q 2388 4750 2728 4690 
Q 3069 4631 3425 4513 
z
" transform="scale(0.015625)"/>
      <path id="DejaVuSans-57" d="M 213 4666 
L 850 4666 
L 1831 722 
L 2809 4666 
L 3519 4666 
L 4500 722 
L 5478 4666 
L 6119 4666 
L 4947 0 
L 4153 0 
L 3169 4050 
L 2175 0 
L 1381 0 
L 213 4666 
z
" transform="scale(0.015625)"/>
      <path id="DejaVuSans-5f" d="M 3263 -1063 
L 3263 -1509 
L -63 -1509 
L -63 -1063 
L 3263 -1063 
z
" transform="scale(0.015625)"/>
      <path id="DejaVuSans-4f" d="M 2522 4238 
Q 1834 4238 1429 3725 
Q 1025 3213 1025 2328 
Q 1025 1447 1429 934 
Q 1834 422 2522 422 
Q 3209 422 3611 934 
Q 4013 1447 4013 2328 
Q 4013 3213 3611 3725 
Q 3209 4238 2522 4238 
z
M 2522 4750 
Q 3503 4750 4090 4092 
Q 4678 3434 4678 2328 
Q 4678 1225 4090 567 
Q 3503 -91 2522 -91 
Q 1538 -91 948 565 
Q 359 1222 359 2328 
Q 359 3434 948 4092 
Q 1538 4750 2522 4750 
z
" transform="scale(0.015625)"/>
      <path id="DejaVuSans-54" d="M -19 4666 
L 3928 4666 
L 3928 4134 
L 2272 4134 
L 2272 0 
L 1638 0 
L 1638 4134 
L -19 4134 
L -19 4666 
z
" transform="scale(0.015625)"/>
      <path id="DejaVuSans-6e" d="M 3513 2113 
L 3513 0 
L 2938 0 
L 2938 2094 
Q 2938 2591 2744 2837 
Q 2550 3084 2163 3084 
Q 1697 3084 1428 2787 
Q 1159 2491 1159 1978 
L 1159 0 
L 581 0 
L 581 3500 
L 1159 3500 
L 1159 2956 
Q 1366 3272 1645 3428 
Q 1925 3584 2291 3584 
Q 2894 3584 3203 3211 
Q 3513 2838 3513 2113 
z
" transform="scale(0.015625)"/>
      <path id="DejaVuSans-67" d="M 2906 1791 
Q 2906 2416 2648 2759 
Q 2391 3103 1925 3103 
Q 1463 3103 1205 2759 
Q 947 2416 947 1791 
Q 947 1169 1205 825 
Q 1463 481 1925 481 
Q 2391 481 2648 825 
Q 2906 1169 2906 1791 
z
M 3481 434 
Q 3481 -459 3084 -895 
Q 2688 -1331 1869 -1331 
Q 1566 -1331 1297 -1286 
Q 1028 -1241 775 -1147 
L 775 -588 
Q 1028 -725 1275 -790 
Q 1522 -856 1778 -856 
Q 2344 -856 2625 -561 
Q 2906 -266 2906 331 
L 2906 616 
Q 2728 306 2450 153 
Q 2172 0 1784 0 
Q 1141 0 747 490 
Q 353 981 353 1791 
Q 353 2603 747 3093 
Q 1141 3584 1784 3584 
Q 2172 3584 2450 3431 
Q 2728 3278 2906 2969 
L 2906 3500 
L 3481 3500 
L 3481 434 
z
" transform="scale(0.015625)"/>
      <path id="DejaVuSans-20" transform="scale(0.015625)"/>
      <path id="DejaVuSans-64" d="M 2906 2969 
L 2906 4863 
L 3481 4863 
L 3481 0 
L 2906 0 
L 2906 525 
Q 2725 213 2448 61 
Q 2172 -91 1784 -91 
Q 1150 -91 751 415 
Q 353 922 353 1747 
Q 353 2572 751 3078 
Q 1150 3584 1784 3584 
Q 2172 3584 2448 3432 
Q 2725 3281 2906 2969 
z
M 947 1747 
Q 947 1113 1208 752 
Q 1469 391 1925 391 
Q 2381 391 2643 752 
Q 2906 1113 2906 1747 
Q 2906 2381 2643 2742 
Q 2381 3103 1925 3103 
Q 1469 3103 1208 2742 
Q 947 2381 947 1747 
z
" transform="scale(0.015625)"/>
      <path id="DejaVuSans-56" d="M 1831 0 
L 50 4666 
L 709 4666 
L 2188 738 
L 3669 4666 
L 4325 4666 
L 2547 0 
L 1831 0 
z
" transform="scale(0.015625)"/>
      <path id="DejaVuSans-6c" d="M 603 4863 
L 1178 4863 
L 1178 0 
L 603 0 
L 603 4863 
z
" transform="scale(0.015625)"/>
     </defs>
     <use xlink:href="#DejaVuSans-73"/>
     <use xlink:href="#DejaVuSans-70" x="52.099609"/>
     <use xlink:href="#DejaVuSans-65" x="115.576172"/>
     <use xlink:href="#DejaVuSans-63" x="177.099609"/>
     <use xlink:href="#DejaVuSans-74" x="232.080078"/>
     <use xlink:href="#DejaVuSans-72" x="271.289062"/>
     <use xlink:href="#DejaVuSans-75" x="312.402344"/>
     <use xlink:href="#DejaVuSans-6d" x="375.78125"/>
     <use xlink:href="#DejaVuSans-47" x="473.193359"/>
     <use xlink:href="#DejaVuSans-43" x="550.683594"/>
     <use xlink:href="#DejaVuSans-4e" x="620.507812"/>
     <use xlink:href="#DejaVuSans-2b" x="695.3125"/>
     <use xlink:href="#DejaVuSans-43" x="779.101562"/>
     <use xlink:href="#DejaVuSans-69" x="848.925781"/>
     <use xlink:href="#DejaVuSans-74" x="876.708984"/>
     <use xlink:href="#DejaVuSans-65" x="915.917969"/>
     <use xlink:href="#DejaVuSans-53" x="977.441406"/>
     <use xlink:href="#DejaVuSans-65" x="1040.917969"/>
     <use xlink:href="#DejaVuSans-65" x="1102.441406"/>
     <use xlink:href="#DejaVuSans-72" x="1163.964844"/>
     <use xlink:href="#DejaVuSans-2b" x="1205.078125"/>
     <use xlink:href="#DejaVuSans-57" x="1288.867188"/>
     <use xlink:href="#DejaVuSans-69" x="1385.494141"/>
     <use xlink:href="#DejaVuSans-74" x="1413.277344"/>
     <use xlink:href="#DejaVuSans-68" x="1452.486328"/>
     <use xlink:href="#DejaVuSans-47" x="1515.865234"/>
     <use xlink:href="#DejaVuSans-72" x="1593.355469"/>
     <use xlink:href="#DejaVuSans-61" x="1634.46875"/>
     <use xlink:href="#DejaVuSans-70" x="1695.748047"/>
     <use xlink:href="#DejaVuSans-68" x="1759.224609"/>
     <use xlink:href="#DejaVuSans-5f" x="1822.603516"/>
     <use xlink:href="#DejaVuSans-43" x="1872.603516"/>
     <use xlink:href="#DejaVuSans-69" x="1942.427734"/>
     <use xlink:href="#DejaVuSans-74" x="1970.210938"/>
     <use xlink:href="#DejaVuSans-65" x="2009.419922"/>
     <use xlink:href="#DejaVuSans-53" x="2070.943359"/>
     <use xlink:href="#DejaVuSans-65" x="2134.419922"/>
     <use xlink:href="#DejaVuSans-65" x="2195.943359"/>
     <use xlink:href="#DejaVuSans-72" x="2257.466797"/>
     <use xlink:href="#DejaVuSans-5f" x="2298.580078"/>
     <use xlink:href="#DejaVuSans-57" x="2348.580078"/>
     <use xlink:href="#DejaVuSans-69" x="2445.207031"/>
     <use xlink:href="#DejaVuSans-74" x="2472.990234"/>
     <use xlink:href="#DejaVuSans-68" x="2512.199219"/>
     <use xlink:href="#DejaVuSans-4f" x="2575.578125"/>
     <use xlink:href="#DejaVuSans-75" x="2654.289062"/>
     <use xlink:href="#DejaVuSans-74" x="2717.667969"/>
     <use xlink:href="#DejaVuSans-47" x="2756.876953"/>
     <use xlink:href="#DejaVuSans-72" x="2834.367188"/>
     <use xlink:href="#DejaVuSans-61" x="2875.480469"/>
     <use xlink:href="#DejaVuSans-70" x="2936.759766"/>
     <use xlink:href="#DejaVuSans-68" x="3000.236328"/>
     <use xlink:href="#DejaVuSans-5f" x="3063.615234"/>
     <use xlink:href="#DejaVuSans-54" x="3113.615234"/>
     <use xlink:href="#DejaVuSans-72" x="3159.949219"/>
     <use xlink:href="#DejaVuSans-61" x="3201.0625"/>
     <use xlink:href="#DejaVuSans-69" x="3262.341797"/>
     <use xlink:href="#DejaVuSans-6e" x="3290.125"/>
     <use xlink:href="#DejaVuSans-69" x="3353.503906"/>
     <use xlink:href="#DejaVuSans-6e" x="3381.287109"/>
     <use xlink:href="#DejaVuSans-67" x="3444.666016"/>
     <use xlink:href="#DejaVuSans-20" x="3508.142578"/>
     <use xlink:href="#DejaVuSans-61" x="3539.929688"/>
     <use xlink:href="#DejaVuSans-6e" x="3601.208984"/>
     <use xlink:href="#DejaVuSans-64" x="3664.587891"/>
     <use xlink:href="#DejaVuSans-20" x="3728.064453"/>
     <use xlink:href="#DejaVuSans-56" x="3759.851562"/>
     <use xlink:href="#DejaVuSans-61" x="3820.509766"/>
     <use xlink:href="#DejaVuSans-6c" x="3881.789062"/>
     <use xlink:href="#DejaVuSans-69" x="3909.572266"/>
     <use xlink:href="#DejaVuSans-64" x="3937.355469"/>
     <use xlink:href="#DejaVuSans-61" x="4000.832031"/>
     <use xlink:href="#DejaVuSans-74" x="4062.111328"/>
     <use xlink:href="#DejaVuSans-69" x="4101.320312"/>
     <use xlink:href="#DejaVuSans-6f" x="4129.103516"/>
     <use xlink:href="#DejaVuSans-6e" x="4190.285156"/>
     <use xlink:href="#DejaVuSans-20" x="4253.664062"/>
     <use xlink:href="#DejaVuSans-61" x="4285.451172"/>
     <use xlink:href="#DejaVuSans-63" x="4346.730469"/>
     <use xlink:href="#DejaVuSans-63" x="4401.710938"/>
     <use xlink:href="#DejaVuSans-75" x="4456.691406"/>
     <use xlink:href="#DejaVuSans-72" x="4520.070312"/>
     <use xlink:href="#DejaVuSans-61" x="4561.183594"/>
     <use xlink:href="#DejaVuSans-63" x="4622.462891"/>
     <use xlink:href="#DejaVuSans-79" x="4677.443359"/>
    </g>
   </g>
   <g id="legend_1">
    <g id="patch_7">
     <path d="M 308.024688 302.584 
L 407.72 302.584 
Q 409.72 302.584 409.72 300.584 
L 409.72 257.549625 
Q 409.72 255.549625 407.72 255.549625 
L 308.024688 255.549625 
Q 306.024688 255.549625 306.024688 257.549625 
L 306.024688 300.584 
Q 306.024688 302.584 308.024688 302.584 
z
" style="fill: #ffffff; opacity: 0.8; stroke: #cccccc; stroke-linejoin: miter"/>
    </g>
    <g id="line2d_15">
     <path d="M 310.024688 263.648062 
L 320.024688 263.648062 
L 330.024688 263.648062 
" style="fill: none; stroke: #0000ff; stroke-width: 1.5; stroke-linecap: square"/>
    </g>
    <g id="text_15">
     <!-- training set -->
     <g transform="translate(338.024688 267.148062) scale(0.1 -0.1)">
      <use xlink:href="#DejaVuSans-74"/>
      <use xlink:href="#DejaVuSans-72" x="39.208984"/>
      <use xlink:href="#DejaVuSans-61" x="80.322266"/>
      <use xlink:href="#DejaVuSans-69" x="141.601562"/>
      <use xlink:href="#DejaVuSans-6e" x="169.384766"/>
      <use xlink:href="#DejaVuSans-69" x="232.763672"/>
      <use xlink:href="#DejaVuSans-6e" x="260.546875"/>
      <use xlink:href="#DejaVuSans-67" x="323.925781"/>
      <use xlink:href="#DejaVuSans-20" x="387.402344"/>
      <use xlink:href="#DejaVuSans-73" x="419.189453"/>
      <use xlink:href="#DejaVuSans-65" x="471.289062"/>
      <use xlink:href="#DejaVuSans-74" x="532.8125"/>
     </g>
    </g>
    <g id="line2d_16">
     <path d="M 310.024688 278.326188 
L 320.024688 278.326188 
L 330.024688 278.326188 
" style="fill: none; stroke: #008000; stroke-width: 1.5; stroke-linecap: square"/>
    </g>
    <g id="text_16">
     <!-- validation set -->
     <g transform="translate(338.024688 281.826188) scale(0.1 -0.1)">
      <defs>
       <path id="DejaVuSans-76" d="M 191 3500 
L 800 3500 
L 1894 563 
L 2988 3500 
L 3597 3500 
L 2284 0 
L 1503 0 
L 191 3500 
z
" transform="scale(0.015625)"/>
      </defs>
      <use xlink:href="#DejaVuSans-76"/>
      <use xlink:href="#DejaVuSans-61" x="59.179688"/>
      <use xlink:href="#DejaVuSans-6c" x="120.458984"/>
      <use xlink:href="#DejaVuSans-69" x="148.242188"/>
      <use xlink:href="#DejaVuSans-64" x="176.025391"/>
      <use xlink:href="#DejaVuSans-61" x="239.501953"/>
      <use xlink:href="#DejaVuSans-74" x="300.78125"/>
      <use xlink:href="#DejaVuSans-69" x="339.990234"/>
      <use xlink:href="#DejaVuSans-6f" x="367.773438"/>
      <use xlink:href="#DejaVuSans-6e" x="428.955078"/>
      <use xlink:href="#DejaVuSans-20" x="492.333984"/>
      <use xlink:href="#DejaVuSans-73" x="524.121094"/>
      <use xlink:href="#DejaVuSans-65" x="576.220703"/>
      <use xlink:href="#DejaVuSans-74" x="637.744141"/>
     </g>
    </g>
    <g id="line2d_17">
     <path d="M 310.024688 293.004312 
L 320.024688 293.004312 
L 330.024688 293.004312 
" style="fill: none; stroke: #ff0000; stroke-width: 1.5; stroke-linecap: square"/>
    </g>
    <g id="text_17">
     <!-- test set -->
     <g transform="translate(338.024688 296.504312) scale(0.1 -0.1)">
      <use xlink:href="#DejaVuSans-74"/>
      <use xlink:href="#DejaVuSans-65" x="39.208984"/>
      <use xlink:href="#DejaVuSans-73" x="100.732422"/>
      <use xlink:href="#DejaVuSans-74" x="152.832031"/>
      <use xlink:href="#DejaVuSans-20" x="192.041016"/>
      <use xlink:href="#DejaVuSans-73" x="223.828125"/>
      <use xlink:href="#DejaVuSans-65" x="275.927734"/>
      <use xlink:href="#DejaVuSans-74" x="337.451172"/>
     </g>
    </g>
   </g>
  </g>
 </g>
 <defs>
  <clipPath id="pe239c9404f">
   <rect x="57.6" y="41.472" width="357.12" height="266.112"/>
  </clipPath>
 </defs>
</svg>
