<?xml version="1.0" encoding="utf-8" standalone="no"?>
<!DOCTYPE svg PUBLIC "-//W3C//DTD SVG 1.1//EN"
  "http://www.w3.org/Graphics/SVG/1.1/DTD/svg11.dtd">
<svg xmlns:xlink="http://www.w3.org/1999/xlink" width="460.8pt" height="345.6pt" viewBox="0 0 460.8 345.6" xmlns="http://www.w3.org/2000/svg" version="1.1">
 <metadata>
  <rdf:RDF xmlns:dc="http://purl.org/dc/elements/1.1/" xmlns:cc="http://creativecommons.org/ns#" xmlns:rdf="http://www.w3.org/1999/02/22-rdf-syntax-ns#">
   <cc:Work>
    <dc:type rdf:resource="http://purl.org/dc/dcmitype/StillImage"/>
    <dc:date>2023-04-09T04:01:38.976357</dc:date>
    <dc:format>image/svg+xml</dc:format>
    <dc:creator>
     <cc:Agent>
      <dc:title>Matplotlib v3.7.1, https://matplotlib.org/</dc:title>
     </cc:Agent>
    </dc:creator>
   </cc:Work>
  </rdf:RDF>
 </metadata>
 <defs>
  <style type="text/css">*{stroke-linejoin: round; stroke-linecap: butt}</style>
 </defs>
 <g id="figure_1">
  <g id="patch_1">
   <path d="M 0 345.6 
L 460.8 345.6 
L 460.8 0 
L 0 0 
z
" style="fill: #ffffff"/>
  </g>
  <g id="axes_1">
   <g id="patch_2">
    <path d="M 57.6 307.584 
L 414.72 307.584 
L 414.72 41.472 
L 57.6 41.472 
z
" style="fill: #ffffff"/>
   </g>
   <g id="matplotlib.axis_1">
    <g id="xtick_1">
     <g id="line2d_1">
      <defs>
       <path id="m226499bc15" d="M 0 0 
L 0 3.5 
" style="stroke: #000000; stroke-width: 0.8"/>
      </defs>
      <g>
       <use xlink:href="#m226499bc15" x="73.507748" y="307.584" style="stroke: #000000; stroke-width: 0.8"/>
      </g>
     </g>
     <g id="text_1">
      <!-- 0 -->
      <g transform="translate(70.326498 322.182437) scale(0.1 -0.1)">
       <defs>
        <path id="DejaVuSans-30" d="M 2034 4250 
Q 1547 4250 1301 3770 
Q 1056 3291 1056 2328 
Q 1056 1369 1301 889 
Q 1547 409 2034 409 
Q 2525 409 2770 889 
Q 3016 1369 3016 2328 
Q 3016 3291 2770 3770 
Q 2525 4250 2034 4250 
z
M 2034 4750 
Q 2819 4750 3233 4129 
Q 3647 3509 3647 2328 
Q 3647 1150 3233 529 
Q 2819 -91 2034 -91 
Q 1250 -91 836 529 
Q 422 1150 422 2328 
Q 422 3509 836 4129 
Q 1250 4750 2034 4750 
z
" transform="scale(0.015625)"/>
       </defs>
       <use xlink:href="#DejaVuSans-30"/>
      </g>
     </g>
    </g>
    <g id="xtick_2">
     <g id="line2d_2">
      <g>
       <use xlink:href="#m226499bc15" x="138.503653" y="307.584" style="stroke: #000000; stroke-width: 0.8"/>
      </g>
     </g>
     <g id="text_2">
      <!-- 200 -->
      <g transform="translate(128.959903 322.182437) scale(0.1 -0.1)">
       <defs>
        <path id="DejaVuSans-32" d="M 1228 531 
L 3431 531 
L 3431 0 
L 469 0 
L 469 531 
Q 828 903 1448 1529 
Q 2069 2156 2228 2338 
Q 2531 2678 2651 2914 
Q 2772 3150 2772 3378 
Q 2772 3750 2511 3984 
Q 2250 4219 1831 4219 
Q 1534 4219 1204 4116 
Q 875 4013 500 3803 
L 500 4441 
Q 881 4594 1212 4672 
Q 1544 4750 1819 4750 
Q 2544 4750 2975 4387 
Q 3406 4025 3406 3419 
Q 3406 3131 3298 2873 
Q 3191 2616 2906 2266 
Q 2828 2175 2409 1742 
Q 1991 1309 1228 531 
z
" transform="scale(0.015625)"/>
       </defs>
       <use xlink:href="#DejaVuSans-32"/>
       <use xlink:href="#DejaVuSans-30" x="63.623047"/>
       <use xlink:href="#DejaVuSans-30" x="127.246094"/>
      </g>
     </g>
    </g>
    <g id="xtick_3">
     <g id="line2d_3">
      <g>
       <use xlink:href="#m226499bc15" x="203.499558" y="307.584" style="stroke: #000000; stroke-width: 0.8"/>
      </g>
     </g>
     <g id="text_3">
      <!-- 400 -->
      <g transform="translate(193.955808 322.182437) scale(0.1 -0.1)">
       <defs>
        <path id="DejaVuSans-34" d="M 2419 4116 
L 825 1625 
L 2419 1625 
L 2419 4116 
z
M 2253 4666 
L 3047 4666 
L 3047 1625 
L 3713 1625 
L 3713 1100 
L 3047 1100 
L 3047 0 
L 2419 0 
L 2419 1100 
L 313 1100 
L 313 1709 
L 2253 4666 
z
" transform="scale(0.015625)"/>
       </defs>
       <use xlink:href="#DejaVuSans-34"/>
       <use xlink:href="#DejaVuSans-30" x="63.623047"/>
       <use xlink:href="#DejaVuSans-30" x="127.246094"/>
      </g>
     </g>
    </g>
    <g id="xtick_4">
     <g id="line2d_4">
      <g>
       <use xlink:href="#m226499bc15" x="268.495463" y="307.584" style="stroke: #000000; stroke-width: 0.8"/>
      </g>
     </g>
     <g id="text_4">
      <!-- 600 -->
      <g transform="translate(258.951713 322.182437) scale(0.1 -0.1)">
       <defs>
        <path id="DejaVuSans-36" d="M 2113 2584 
Q 1688 2584 1439 2293 
Q 1191 2003 1191 1497 
Q 1191 994 1439 701 
Q 1688 409 2113 409 
Q 2538 409 2786 701 
Q 3034 994 3034 1497 
Q 3034 2003 2786 2293 
Q 2538 2584 2113 2584 
z
M 3366 4563 
L 3366 3988 
Q 3128 4100 2886 4159 
Q 2644 4219 2406 4219 
Q 1781 4219 1451 3797 
Q 1122 3375 1075 2522 
Q 1259 2794 1537 2939 
Q 1816 3084 2150 3084 
Q 2853 3084 3261 2657 
Q 3669 2231 3669 1497 
Q 3669 778 3244 343 
Q 2819 -91 2113 -91 
Q 1303 -91 875 529 
Q 447 1150 447 2328 
Q 447 3434 972 4092 
Q 1497 4750 2381 4750 
Q 2619 4750 2861 4703 
Q 3103 4656 3366 4563 
z
" transform="scale(0.015625)"/>
       </defs>
       <use xlink:href="#DejaVuSans-36"/>
       <use xlink:href="#DejaVuSans-30" x="63.623047"/>
       <use xlink:href="#DejaVuSans-30" x="127.246094"/>
      </g>
     </g>
    </g>
    <g id="xtick_5">
     <g id="line2d_5">
      <g>
       <use xlink:href="#m226499bc15" x="333.491368" y="307.584" style="stroke: #000000; stroke-width: 0.8"/>
      </g>
     </g>
     <g id="text_5">
      <!-- 800 -->
      <g transform="translate(323.947618 322.182437) scale(0.1 -0.1)">
       <defs>
        <path id="DejaVuSans-38" d="M 2034 2216 
Q 1584 2216 1326 1975 
Q 1069 1734 1069 1313 
Q 1069 891 1326 650 
Q 1584 409 2034 409 
Q 2484 409 2743 651 
Q 3003 894 3003 1313 
Q 3003 1734 2745 1975 
Q 2488 2216 2034 2216 
z
M 1403 2484 
Q 997 2584 770 2862 
Q 544 3141 544 3541 
Q 544 4100 942 4425 
Q 1341 4750 2034 4750 
Q 2731 4750 3128 4425 
Q 3525 4100 3525 3541 
Q 3525 3141 3298 2862 
Q 3072 2584 2669 2484 
Q 3125 2378 3379 2068 
Q 3634 1759 3634 1313 
Q 3634 634 3220 271 
Q 2806 -91 2034 -91 
Q 1263 -91 848 271 
Q 434 634 434 1313 
Q 434 1759 690 2068 
Q 947 2378 1403 2484 
z
M 1172 3481 
Q 1172 3119 1398 2916 
Q 1625 2713 2034 2713 
Q 2441 2713 2670 2916 
Q 2900 3119 2900 3481 
Q 2900 3844 2670 4047 
Q 2441 4250 2034 4250 
Q 1625 4250 1398 4047 
Q 1172 3844 1172 3481 
z
" transform="scale(0.015625)"/>
       </defs>
       <use xlink:href="#DejaVuSans-38"/>
       <use xlink:href="#DejaVuSans-30" x="63.623047"/>
       <use xlink:href="#DejaVuSans-30" x="127.246094"/>
      </g>
     </g>
    </g>
    <g id="xtick_6">
     <g id="line2d_6">
      <g>
       <use xlink:href="#m226499bc15" x="398.487273" y="307.584" style="stroke: #000000; stroke-width: 0.8"/>
      </g>
     </g>
     <g id="text_6">
      <!-- 1000 -->
      <g transform="translate(385.762273 322.182437) scale(0.1 -0.1)">
       <defs>
        <path id="DejaVuSans-31" d="M 794 531 
L 1825 531 
L 1825 4091 
L 703 3866 
L 703 4441 
L 1819 4666 
L 2450 4666 
L 2450 531 
L 3481 531 
L 3481 0 
L 794 0 
L 794 531 
z
" transform="scale(0.015625)"/>
       </defs>
       <use xlink:href="#DejaVuSans-31"/>
       <use xlink:href="#DejaVuSans-30" x="63.623047"/>
       <use xlink:href="#DejaVuSans-30" x="127.246094"/>
       <use xlink:href="#DejaVuSans-30" x="190.869141"/>
      </g>
     </g>
    </g>
    <g id="text_7">
     <!-- epoch -->
     <g transform="translate(220.931875 335.860562) scale(0.1 -0.1)">
      <defs>
       <path id="DejaVuSans-65" d="M 3597 1894 
L 3597 1613 
L 953 1613 
Q 991 1019 1311 708 
Q 1631 397 2203 397 
Q 2534 397 2845 478 
Q 3156 559 3463 722 
L 3463 178 
Q 3153 47 2828 -22 
Q 2503 -91 2169 -91 
Q 1331 -91 842 396 
Q 353 884 353 1716 
Q 353 2575 817 3079 
Q 1281 3584 2069 3584 
Q 2775 3584 3186 3129 
Q 3597 2675 3597 1894 
z
M 3022 2063 
Q 3016 2534 2758 2815 
Q 2500 3097 2075 3097 
Q 1594 3097 1305 2825 
Q 1016 2553 972 2059 
L 3022 2063 
z
" transform="scale(0.015625)"/>
       <path id="DejaVuSans-70" d="M 1159 525 
L 1159 -1331 
L 581 -1331 
L 581 3500 
L 1159 3500 
L 1159 2969 
Q 1341 3281 1617 3432 
Q 1894 3584 2278 3584 
Q 2916 3584 3314 3078 
Q 3713 2572 3713 1747 
Q 3713 922 3314 415 
Q 2916 -91 2278 -91 
Q 1894 -91 1617 61 
Q 1341 213 1159 525 
z
M 3116 1747 
Q 3116 2381 2855 2742 
Q 2594 3103 2138 3103 
Q 1681 3103 1420 2742 
Q 1159 2381 1159 1747 
Q 1159 1113 1420 752 
Q 1681 391 2138 391 
Q 2594 391 2855 752 
Q 3116 1113 3116 1747 
z
" transform="scale(0.015625)"/>
       <path id="DejaVuSans-6f" d="M 1959 3097 
Q 1497 3097 1228 2736 
Q 959 2375 959 1747 
Q 959 1119 1226 758 
Q 1494 397 1959 397 
Q 2419 397 2687 759 
Q 2956 1122 2956 1747 
Q 2956 2369 2687 2733 
Q 2419 3097 1959 3097 
z
M 1959 3584 
Q 2709 3584 3137 3096 
Q 3566 2609 3566 1747 
Q 3566 888 3137 398 
Q 2709 -91 1959 -91 
Q 1206 -91 779 398 
Q 353 888 353 1747 
Q 353 2609 779 3096 
Q 1206 3584 1959 3584 
z
" transform="scale(0.015625)"/>
       <path id="DejaVuSans-63" d="M 3122 3366 
L 3122 2828 
Q 2878 2963 2633 3030 
Q 2388 3097 2138 3097 
Q 1578 3097 1268 2742 
Q 959 2388 959 1747 
Q 959 1106 1268 751 
Q 1578 397 2138 397 
Q 2388 397 2633 464 
Q 2878 531 3122 666 
L 3122 134 
Q 2881 22 2623 -34 
Q 2366 -91 2075 -91 
Q 1284 -91 818 406 
Q 353 903 353 1747 
Q 353 2603 823 3093 
Q 1294 3584 2113 3584 
Q 2378 3584 2631 3529 
Q 2884 3475 3122 3366 
z
" transform="scale(0.015625)"/>
       <path id="DejaVuSans-68" d="M 3513 2113 
L 3513 0 
L 2938 0 
L 2938 2094 
Q 2938 2591 2744 2837 
Q 2550 3084 2163 3084 
Q 1697 3084 1428 2787 
Q 1159 2491 1159 1978 
L 1159 0 
L 581 0 
L 581 4863 
L 1159 4863 
L 1159 2956 
Q 1366 3272 1645 3428 
Q 1925 3584 2291 3584 
Q 2894 3584 3203 3211 
Q 3513 2838 3513 2113 
z
" transform="scale(0.015625)"/>
      </defs>
      <use xlink:href="#DejaVuSans-65"/>
      <use xlink:href="#DejaVuSans-70" x="61.523438"/>
      <use xlink:href="#DejaVuSans-6f" x="125"/>
      <use xlink:href="#DejaVuSans-63" x="186.181641"/>
      <use xlink:href="#DejaVuSans-68" x="241.162109"/>
     </g>
    </g>
   </g>
   <g id="matplotlib.axis_2">
    <g id="ytick_1">
     <g id="line2d_7">
      <defs>
       <path id="m50f34233b8" d="M 0 0 
L -3.5 0 
" style="stroke: #000000; stroke-width: 0.8"/>
      </defs>
      <g>
       <use xlink:href="#m50f34233b8" x="57.6" y="307.584" style="stroke: #000000; stroke-width: 0.8"/>
      </g>
     </g>
     <g id="text_8">
      <!-- 0.3 -->
      <g transform="translate(34.696875 311.383219) scale(0.1 -0.1)">
       <defs>
        <path id="DejaVuSans-2e" d="M 684 794 
L 1344 794 
L 1344 0 
L 684 0 
L 684 794 
z
" transform="scale(0.015625)"/>
        <path id="DejaVuSans-33" d="M 2597 2516 
Q 3050 2419 3304 2112 
Q 3559 1806 3559 1356 
Q 3559 666 3084 287 
Q 2609 -91 1734 -91 
Q 1441 -91 1130 -33 
Q 819 25 488 141 
L 488 750 
Q 750 597 1062 519 
Q 1375 441 1716 441 
Q 2309 441 2620 675 
Q 2931 909 2931 1356 
Q 2931 1769 2642 2001 
Q 2353 2234 1838 2234 
L 1294 2234 
L 1294 2753 
L 1863 2753 
Q 2328 2753 2575 2939 
Q 2822 3125 2822 3475 
Q 2822 3834 2567 4026 
Q 2313 4219 1838 4219 
Q 1578 4219 1281 4162 
Q 984 4106 628 3988 
L 628 4550 
Q 988 4650 1302 4700 
Q 1616 4750 1894 4750 
Q 2613 4750 3031 4423 
Q 3450 4097 3450 3541 
Q 3450 3153 3228 2886 
Q 3006 2619 2597 2516 
z
" transform="scale(0.015625)"/>
       </defs>
       <use xlink:href="#DejaVuSans-30"/>
       <use xlink:href="#DejaVuSans-2e" x="63.623047"/>
       <use xlink:href="#DejaVuSans-33" x="95.410156"/>
      </g>
     </g>
    </g>
    <g id="ytick_2">
     <g id="line2d_8">
      <g>
       <use xlink:href="#m50f34233b8" x="57.6" y="271.296" style="stroke: #000000; stroke-width: 0.8"/>
      </g>
     </g>
     <g id="text_9">
      <!-- 0.4 -->
      <g transform="translate(34.696875 275.095219) scale(0.1 -0.1)">
       <use xlink:href="#DejaVuSans-30"/>
       <use xlink:href="#DejaVuSans-2e" x="63.623047"/>
       <use xlink:href="#DejaVuSans-34" x="95.410156"/>
      </g>
     </g>
    </g>
    <g id="ytick_3">
     <g id="line2d_9">
      <g>
       <use xlink:href="#m50f34233b8" x="57.6" y="235.008" style="stroke: #000000; stroke-width: 0.8"/>
      </g>
     </g>
     <g id="text_10">
      <!-- 0.5 -->
      <g transform="translate(34.696875 238.807219) scale(0.1 -0.1)">
       <defs>
        <path id="DejaVuSans-35" d="M 691 4666 
L 3169 4666 
L 3169 4134 
L 1269 4134 
L 1269 2991 
Q 1406 3038 1543 3061 
Q 1681 3084 1819 3084 
Q 2600 3084 3056 2656 
Q 3513 2228 3513 1497 
Q 3513 744 3044 326 
Q 2575 -91 1722 -91 
Q 1428 -91 1123 -41 
Q 819 9 494 109 
L 494 744 
Q 775 591 1075 516 
Q 1375 441 1709 441 
Q 2250 441 2565 725 
Q 2881 1009 2881 1497 
Q 2881 1984 2565 2268 
Q 2250 2553 1709 2553 
Q 1456 2553 1204 2497 
Q 953 2441 691 2322 
L 691 4666 
z
" transform="scale(0.015625)"/>
       </defs>
       <use xlink:href="#DejaVuSans-30"/>
       <use xlink:href="#DejaVuSans-2e" x="63.623047"/>
       <use xlink:href="#DejaVuSans-35" x="95.410156"/>
      </g>
     </g>
    </g>
    <g id="ytick_4">
     <g id="line2d_10">
      <g>
       <use xlink:href="#m50f34233b8" x="57.6" y="198.72" style="stroke: #000000; stroke-width: 0.8"/>
      </g>
     </g>
     <g id="text_11">
      <!-- 0.6 -->
      <g transform="translate(34.696875 202.519219) scale(0.1 -0.1)">
       <use xlink:href="#DejaVuSans-30"/>
       <use xlink:href="#DejaVuSans-2e" x="63.623047"/>
       <use xlink:href="#DejaVuSans-36" x="95.410156"/>
      </g>
     </g>
    </g>
    <g id="ytick_5">
     <g id="line2d_11">
      <g>
       <use xlink:href="#m50f34233b8" x="57.6" y="162.432" style="stroke: #000000; stroke-width: 0.8"/>
      </g>
     </g>
     <g id="text_12">
      <!-- 0.7 -->
      <g transform="translate(34.696875 166.231219) scale(0.1 -0.1)">
       <defs>
        <path id="DejaVuSans-37" d="M 525 4666 
L 3525 4666 
L 3525 4397 
L 1831 0 
L 1172 0 
L 2766 4134 
L 525 4134 
L 525 4666 
z
" transform="scale(0.015625)"/>
       </defs>
       <use xlink:href="#DejaVuSans-30"/>
       <use xlink:href="#DejaVuSans-2e" x="63.623047"/>
       <use xlink:href="#DejaVuSans-37" x="95.410156"/>
      </g>
     </g>
    </g>
    <g id="ytick_6">
     <g id="line2d_12">
      <g>
       <use xlink:href="#m50f34233b8" x="57.6" y="126.144" style="stroke: #000000; stroke-width: 0.8"/>
      </g>
     </g>
     <g id="text_13">
      <!-- 0.8 -->
      <g transform="translate(34.696875 129.943219) scale(0.1 -0.1)">
       <use xlink:href="#DejaVuSans-30"/>
       <use xlink:href="#DejaVuSans-2e" x="63.623047"/>
       <use xlink:href="#DejaVuSans-38" x="95.410156"/>
      </g>
     </g>
    </g>
    <g id="ytick_7">
     <g id="line2d_13">
      <g>
       <use xlink:href="#m50f34233b8" x="57.6" y="89.856" style="stroke: #000000; stroke-width: 0.8"/>
      </g>
     </g>
     <g id="text_14">
      <!-- 0.9 -->
      <g transform="translate(34.696875 93.655219) scale(0.1 -0.1)">
       <defs>
        <path id="DejaVuSans-39" d="M 703 97 
L 703 672 
Q 941 559 1184 500 
Q 1428 441 1663 441 
Q 2288 441 2617 861 
Q 2947 1281 2994 2138 
Q 2813 1869 2534 1725 
Q 2256 1581 1919 1581 
Q 1219 1581 811 2004 
Q 403 2428 403 3163 
Q 403 3881 828 4315 
Q 1253 4750 1959 4750 
Q 2769 4750 3195 4129 
Q 3622 3509 3622 2328 
Q 3622 1225 3098 567 
Q 2575 -91 1691 -91 
Q 1453 -91 1209 -44 
Q 966 3 703 97 
z
M 1959 2075 
Q 2384 2075 2632 2365 
Q 2881 2656 2881 3163 
Q 2881 3666 2632 3958 
Q 2384 4250 1959 4250 
Q 1534 4250 1286 3958 
Q 1038 3666 1038 3163 
Q 1038 2656 1286 2365 
Q 1534 2075 1959 2075 
z
" transform="scale(0.015625)"/>
       </defs>
       <use xlink:href="#DejaVuSans-30"/>
       <use xlink:href="#DejaVuSans-2e" x="63.623047"/>
       <use xlink:href="#DejaVuSans-39" x="95.410156"/>
      </g>
     </g>
    </g>
    <g id="ytick_8">
     <g id="line2d_14">
      <g>
       <use xlink:href="#m50f34233b8" x="57.6" y="53.568" style="stroke: #000000; stroke-width: 0.8"/>
      </g>
     </g>
     <g id="text_15">
      <!-- 1.0 -->
      <g transform="translate(34.696875 57.367219) scale(0.1 -0.1)">
       <use xlink:href="#DejaVuSans-31"/>
       <use xlink:href="#DejaVuSans-2e" x="63.623047"/>
       <use xlink:href="#DejaVuSans-30" x="95.410156"/>
      </g>
     </g>
    </g>
    <g id="text_16">
     <!-- accuracy -->
     <g transform="translate(28.617187 197.087375) rotate(-90) scale(0.1 -0.1)">
      <defs>
       <path id="DejaVuSans-61" d="M 2194 1759 
Q 1497 1759 1228 1600 
Q 959 1441 959 1056 
Q 959 750 1161 570 
Q 1363 391 1709 391 
Q 2188 391 2477 730 
Q 2766 1069 2766 1631 
L 2766 1759 
L 2194 1759 
z
M 3341 1997 
L 3341 0 
L 2766 0 
L 2766 531 
Q 2569 213 2275 61 
Q 1981 -91 1556 -91 
Q 1019 -91 701 211 
Q 384 513 384 1019 
Q 384 1609 779 1909 
Q 1175 2209 1959 2209 
L 2766 2209 
L 2766 2266 
Q 2766 2663 2505 2880 
Q 2244 3097 1772 3097 
Q 1472 3097 1187 3025 
Q 903 2953 641 2809 
L 641 3341 
Q 956 3463 1253 3523 
Q 1550 3584 1831 3584 
Q 2591 3584 2966 3190 
Q 3341 2797 3341 1997 
z
" transform="scale(0.015625)"/>
       <path id="DejaVuSans-75" d="M 544 1381 
L 544 3500 
L 1119 3500 
L 1119 1403 
Q 1119 906 1312 657 
Q 1506 409 1894 409 
Q 2359 409 2629 706 
Q 2900 1003 2900 1516 
L 2900 3500 
L 3475 3500 
L 3475 0 
L 2900 0 
L 2900 538 
Q 2691 219 2414 64 
Q 2138 -91 1772 -91 
Q 1169 -91 856 284 
Q 544 659 544 1381 
z
M 1991 3584 
L 1991 3584 
z
" transform="scale(0.015625)"/>
       <path id="DejaVuSans-72" d="M 2631 2963 
Q 2534 3019 2420 3045 
Q 2306 3072 2169 3072 
Q 1681 3072 1420 2755 
Q 1159 2438 1159 1844 
L 1159 0 
L 581 0 
L 581 3500 
L 1159 3500 
L 1159 2956 
Q 1341 3275 1631 3429 
Q 1922 3584 2338 3584 
Q 2397 3584 2469 3576 
Q 2541 3569 2628 3553 
L 2631 2963 
z
" transform="scale(0.015625)"/>
       <path id="DejaVuSans-79" d="M 2059 -325 
Q 1816 -950 1584 -1140 
Q 1353 -1331 966 -1331 
L 506 -1331 
L 506 -850 
L 844 -850 
Q 1081 -850 1212 -737 
Q 1344 -625 1503 -206 
L 1606 56 
L 191 3500 
L 800 3500 
L 1894 763 
L 2988 3500 
L 3597 3500 
L 2059 -325 
z
" transform="scale(0.015625)"/>
      </defs>
      <use xlink:href="#DejaVuSans-61"/>
      <use xlink:href="#DejaVuSans-63" x="61.279297"/>
      <use xlink:href="#DejaVuSans-63" x="116.259766"/>
      <use xlink:href="#DejaVuSans-75" x="171.240234"/>
      <use xlink:href="#DejaVuSans-72" x="234.619141"/>
      <use xlink:href="#DejaVuSans-61" x="275.732422"/>
      <use xlink:href="#DejaVuSans-63" x="337.011719"/>
      <use xlink:href="#DejaVuSans-79" x="391.992188"/>
     </g>
    </g>
   </g>
   <g id="line2d_15">
    <path d="M 73.832727 295.488 
L 74.157707 89.856 
L 74.482686 83.808 
L 74.807666 71.712 
L 75.132645 77.76 
L 75.457625 77.76 
L 75.782604 71.712 
L 76.432563 83.808 
L 76.757543 71.712 
L 77.082523 71.712 
L 77.407502 65.664 
L 77.732482 77.76 
L 78.057461 77.76 
L 78.382441 71.712 
L 79.357379 71.712 
L 79.682359 77.76 
L 80.007338 65.664 
L 80.332318 71.712 
L 80.657297 53.568 
L 398.487273 53.568 
L 398.487273 53.568 
" clip-path="url(#pd82870338c)" style="fill: none; stroke: #0000ff; stroke-width: 1.5; stroke-linecap: square"/>
   </g>
   <g id="line2d_16">
    <path d="M 73.832727 272.02176 
L 74.157707 183.47904 
L 74.807666 150.81984 
L 75.132645 148.64256 
L 75.457625 151.5456 
L 75.782604 150.81984 
L 76.107584 145.73952 
L 76.432563 145.01376 
L 76.757543 143.56224 
L 77.082523 138.48192 
L 77.407502 139.93344 
L 77.732482 140.6592 
L 78.057461 137.75616 
L 78.382441 133.4016 
L 78.70742 131.22432 
L 79.0324 144.288 
L 79.682359 131.22432 
L 80.007338 135.57888 
L 80.332318 136.30464 
L 80.657297 136.30464 
L 80.982277 137.0304 
L 81.307256 140.6592 
L 81.632236 129.7728 
L 82.282195 139.93344 
L 82.607174 134.12736 
L 82.932154 139.20768 
L 83.257133 139.93344 
L 83.582113 134.85312 
L 83.907093 134.85312 
L 84.232072 139.93344 
L 84.557052 135.57888 
L 84.882031 137.75616 
L 85.207011 136.30464 
L 85.53199 132.67584 
L 85.85697 139.20768 
L 86.181949 133.4016 
L 86.506929 132.67584 
L 86.831908 134.85312 
L 87.156888 134.12736 
L 87.481867 131.95008 
L 88.131826 138.48192 
L 88.456806 130.49856 
L 88.781785 139.93344 
L 89.106765 133.4016 
L 89.431744 136.30464 
L 89.756724 137.75616 
L 90.081704 136.30464 
L 90.731663 137.75616 
L 91.056642 137.75616 
L 91.381622 140.6592 
L 91.706601 139.20768 
L 92.031581 138.48192 
L 92.35656 137.0304 
L 92.68154 136.30464 
L 93.006519 141.38496 
L 93.331499 134.85312 
L 93.656478 140.6592 
L 93.981458 138.48192 
L 94.306437 141.38496 
L 94.631417 139.93344 
L 94.956396 135.57888 
L 95.281376 137.75616 
L 95.606355 135.57888 
L 95.931335 139.93344 
L 96.256314 137.75616 
L 96.581294 139.20768 
L 96.906274 136.30464 
L 97.231253 139.93344 
L 97.556233 141.38496 
L 97.881212 146.46528 
L 98.206192 133.4016 
L 98.856151 139.93344 
L 99.18113 132.67584 
L 99.50611 142.11072 
L 99.831089 137.0304 
L 100.156069 134.12736 
L 100.481048 140.6592 
L 100.806028 136.30464 
L 101.131007 140.6592 
L 101.455987 134.85312 
L 101.780966 139.20768 
L 102.105946 138.48192 
L 102.430925 141.38496 
L 102.755905 138.48192 
L 103.080885 138.48192 
L 103.405864 142.11072 
L 103.730844 137.75616 
L 104.055823 138.48192 
L 104.380803 137.0304 
L 105.030762 139.93344 
L 105.355741 137.0304 
L 105.680721 140.6592 
L 106.0057 142.11072 
L 106.33068 137.75616 
L 106.655659 140.6592 
L 106.980639 141.38496 
L 107.305618 140.6592 
L 107.630598 137.75616 
L 107.955577 136.30464 
L 108.280557 137.75616 
L 108.605536 137.75616 
L 108.930516 137.0304 
L 109.255495 139.93344 
L 109.580475 139.20768 
L 109.905455 137.75616 
L 110.230434 139.93344 
L 110.555414 136.30464 
L 110.880393 134.85312 
L 111.205373 140.6592 
L 111.530352 139.93344 
L 111.855332 137.75616 
L 112.180311 139.20768 
L 112.505291 138.48192 
L 112.83027 136.30464 
L 113.15525 136.30464 
L 113.480229 137.75616 
L 113.805209 136.30464 
L 114.130188 144.288 
L 114.455168 139.20768 
L 114.780147 137.0304 
L 115.105127 141.38496 
L 115.430106 136.30464 
L 115.755086 137.75616 
L 116.080066 140.6592 
L 116.405045 138.48192 
L 116.730025 137.75616 
L 117.055004 139.93344 
L 117.379984 139.93344 
L 117.704963 139.20768 
L 118.354922 143.56224 
L 118.679902 141.38496 
L 119.004881 141.38496 
L 119.329861 134.85312 
L 119.65484 138.48192 
L 119.97982 138.48192 
L 120.304799 137.75616 
L 120.629779 135.57888 
L 121.279738 139.20768 
L 121.929697 139.20768 
L 122.254676 140.6592 
L 122.579656 139.20768 
L 122.904636 135.57888 
L 123.229615 137.0304 
L 123.879574 145.01376 
L 124.204554 137.0304 
L 124.529533 140.6592 
L 124.854513 134.85312 
L 125.504472 138.48192 
L 125.829451 135.57888 
L 126.154431 139.20768 
L 126.47941 139.93344 
L 126.80439 138.48192 
L 127.129369 142.11072 
L 127.454349 140.6592 
L 127.779328 135.57888 
L 128.104308 139.20768 
L 128.429287 140.6592 
L 128.754267 137.75616 
L 129.079247 145.01376 
L 129.404226 142.11072 
L 129.729206 145.01376 
L 130.054185 139.20768 
L 130.379165 137.75616 
L 130.704144 137.75616 
L 131.029124 140.6592 
L 131.354103 134.12736 
L 131.679083 143.56224 
L 132.004062 138.48192 
L 132.329042 140.6592 
L 132.654021 139.20768 
L 132.979001 138.48192 
L 133.30398 139.93344 
L 133.62896 139.93344 
L 133.953939 138.48192 
L 134.278919 141.38496 
L 134.603898 140.6592 
L 134.928878 134.85312 
L 135.253857 142.83648 
L 135.578837 138.48192 
L 135.903817 138.48192 
L 136.228796 135.57888 
L 136.553776 140.6592 
L 136.878755 141.38496 
L 137.203735 140.6592 
L 137.528714 144.288 
L 137.853694 135.57888 
L 138.178673 145.01376 
L 138.503653 139.93344 
L 138.828632 145.01376 
L 139.153612 139.93344 
L 139.478591 141.38496 
L 139.803571 138.48192 
L 140.45353 141.38496 
L 140.778509 143.56224 
L 141.103489 142.11072 
L 141.428468 138.48192 
L 141.753448 138.48192 
L 142.078428 145.73952 
L 142.403407 141.38496 
L 142.728387 142.11072 
L 143.053366 139.20768 
L 143.378346 142.11072 
L 143.703325 139.20768 
L 144.028305 142.11072 
L 144.678264 137.0304 
L 145.003243 140.6592 
L 145.328223 141.38496 
L 145.653202 139.93344 
L 145.978182 139.93344 
L 146.303161 139.20768 
L 146.628141 139.20768 
L 146.95312 136.30464 
L 147.603079 147.19104 
L 147.928059 137.75616 
L 148.578018 139.20768 
L 148.902998 143.56224 
L 149.227977 137.75616 
L 150.202916 144.288 
L 150.527895 139.20768 
L 150.852875 141.38496 
L 151.177854 141.38496 
L 151.502834 146.46528 
L 151.827813 137.0304 
L 152.152793 139.93344 
L 152.477772 138.48192 
L 152.802752 137.75616 
L 153.127731 141.38496 
L 153.452711 141.38496 
L 153.77769 140.6592 
L 154.10267 144.288 
L 154.427649 139.93344 
L 154.752629 142.83648 
L 155.077609 140.6592 
L 155.402588 142.11072 
L 155.727568 139.20768 
L 156.052547 139.20768 
L 156.377527 137.75616 
L 156.702506 144.288 
L 157.027486 136.30464 
L 157.352465 141.38496 
L 157.677445 139.20768 
L 158.002424 138.48192 
L 158.327404 139.93344 
L 158.977363 141.38496 
L 159.302342 141.38496 
L 159.627322 139.93344 
L 159.952301 142.83648 
L 160.277281 140.6592 
L 160.60226 140.6592 
L 160.92724 139.93344 
L 161.252219 141.38496 
L 161.902179 142.83648 
L 162.227158 141.38496 
L 162.552138 141.38496 
L 162.877117 139.20768 
L 163.202097 141.38496 
L 163.527076 142.11072 
L 163.852056 137.75616 
L 164.177035 143.56224 
L 164.502015 146.46528 
L 164.826994 139.20768 
L 165.151974 142.83648 
L 165.801933 136.30464 
L 166.126912 143.56224 
L 166.451892 134.85312 
L 166.776871 143.56224 
L 167.101851 143.56224 
L 167.42683 142.83648 
L 167.75181 139.93344 
L 168.07679 142.83648 
L 168.401769 134.85312 
L 168.726749 145.73952 
L 169.051728 143.56224 
L 169.376708 138.48192 
L 170.026667 143.56224 
L 170.351646 138.48192 
L 170.676626 137.75616 
L 171.001605 137.75616 
L 171.651564 142.11072 
L 171.976544 137.75616 
L 172.301523 140.6592 
L 172.626503 141.38496 
L 172.951482 134.85312 
L 173.276462 139.20768 
L 173.601441 137.0304 
L 174.2514 143.56224 
L 174.57638 141.38496 
L 174.90136 141.38496 
L 175.226339 137.0304 
L 175.551319 141.38496 
L 175.876298 142.11072 
L 176.201278 138.48192 
L 176.526257 145.01376 
L 176.851237 139.93344 
L 177.176216 139.93344 
L 177.501196 139.20768 
L 178.151155 140.6592 
L 178.476134 139.93344 
L 178.801114 144.288 
L 179.451073 139.93344 
L 180.101032 141.38496 
L 180.426011 141.38496 
L 180.750991 139.20768 
L 181.075971 139.93344 
L 181.40095 139.20768 
L 181.72593 140.6592 
L 182.050909 141.38496 
L 182.375889 144.288 
L 182.700868 138.48192 
L 183.025848 142.11072 
L 183.675807 140.6592 
L 184.000786 143.56224 
L 184.325766 139.20768 
L 184.650745 144.288 
L 184.975725 140.6592 
L 185.300704 139.93344 
L 185.625684 142.83648 
L 185.950663 137.0304 
L 186.275643 141.38496 
L 186.600622 142.11072 
L 186.925602 140.6592 
L 187.250581 140.6592 
L 187.575561 141.38496 
L 187.900541 140.6592 
L 188.22552 138.48192 
L 188.5505 142.11072 
L 188.875479 137.75616 
L 189.200459 137.0304 
L 189.525438 145.73952 
L 189.850418 144.288 
L 190.175397 139.93344 
L 190.500377 138.48192 
L 190.825356 136.30464 
L 191.150336 140.6592 
L 191.475315 137.75616 
L 191.800295 139.93344 
L 192.125274 139.20768 
L 192.450254 135.57888 
L 192.775233 142.11072 
L 193.100213 139.20768 
L 193.425192 140.6592 
L 193.750172 138.48192 
L 194.075152 140.6592 
L 194.400131 141.38496 
L 194.725111 137.75616 
L 195.05009 136.30464 
L 195.37507 142.11072 
L 195.700049 141.38496 
L 196.025029 141.38496 
L 196.350008 147.9168 
L 196.999967 141.38496 
L 197.324947 140.6592 
L 197.649926 142.11072 
L 197.974906 140.6592 
L 198.299885 142.11072 
L 198.624865 146.46528 
L 198.949844 136.30464 
L 199.599803 147.19104 
L 199.924783 135.57888 
L 200.249762 142.11072 
L 200.574742 141.38496 
L 200.899722 145.01376 
L 201.224701 138.48192 
L 201.549681 140.6592 
L 201.87466 137.75616 
L 202.19964 142.83648 
L 202.524619 144.288 
L 202.849599 141.38496 
L 203.499558 141.38496 
L 203.824537 142.11072 
L 204.149517 140.6592 
L 204.474496 142.11072 
L 204.799476 141.38496 
L 205.124455 142.83648 
L 205.449435 143.56224 
L 205.774414 142.83648 
L 206.099394 137.0304 
L 206.424373 144.288 
L 206.749353 142.83648 
L 207.074333 139.20768 
L 207.399312 139.20768 
L 207.724292 143.56224 
L 208.049271 140.6592 
L 208.374251 139.20768 
L 208.69923 138.48192 
L 209.02421 143.56224 
L 209.349189 142.83648 
L 209.674169 142.83648 
L 209.999148 145.73952 
L 210.324128 145.73952 
L 210.649107 141.38496 
L 210.974087 142.11072 
L 211.299066 141.38496 
L 211.624046 144.288 
L 211.949025 142.83648 
L 212.274005 145.01376 
L 212.598984 133.4016 
L 213.248943 145.73952 
L 213.573923 135.57888 
L 213.898903 140.6592 
L 214.223882 142.83648 
L 214.548862 139.93344 
L 214.873841 142.83648 
L 215.198821 142.11072 
L 215.5238 146.46528 
L 215.84878 137.75616 
L 216.173759 145.01376 
L 216.498739 141.38496 
L 216.823718 145.73952 
L 217.148698 145.01376 
L 217.473677 137.75616 
L 217.798657 139.20768 
L 218.123636 145.01376 
L 218.448616 140.6592 
L 218.773595 139.93344 
L 219.098575 137.0304 
L 219.423554 141.38496 
L 219.748534 142.83648 
L 220.073514 140.6592 
L 220.398493 139.93344 
L 220.723473 142.83648 
L 221.048452 137.0304 
L 221.373432 137.75616 
L 221.698411 139.93344 
L 222.023391 136.30464 
L 222.34837 142.83648 
L 222.67335 141.38496 
L 222.998329 139.20768 
L 223.323309 139.20768 
L 223.648288 140.6592 
L 223.973268 139.93344 
L 224.298247 141.38496 
L 224.623227 140.6592 
L 224.948206 143.56224 
L 225.273186 140.6592 
L 225.598165 139.93344 
L 225.923145 138.48192 
L 226.248124 144.288 
L 226.573104 141.38496 
L 226.898084 142.83648 
L 227.223063 142.11072 
L 227.548043 145.73952 
L 227.873022 141.38496 
L 228.198002 139.93344 
L 228.847961 144.288 
L 229.17294 142.11072 
L 229.49792 137.0304 
L 229.822899 142.11072 
L 230.147879 142.11072 
L 230.472858 145.73952 
L 230.797838 143.56224 
L 231.122817 145.01376 
L 231.447797 147.19104 
L 231.772776 144.288 
L 232.097756 139.93344 
L 232.422735 142.83648 
L 232.747715 141.38496 
L 233.072695 141.38496 
L 233.397674 140.6592 
L 234.047633 140.6592 
L 234.372613 137.75616 
L 234.697592 144.288 
L 235.022572 143.56224 
L 235.347551 137.0304 
L 235.672531 140.6592 
L 236.32249 143.56224 
L 236.647469 140.6592 
L 237.297428 143.56224 
L 237.622408 140.6592 
L 237.947387 142.11072 
L 238.272367 145.01376 
L 238.597346 142.11072 
L 239.247305 140.6592 
L 239.572285 142.83648 
L 239.897265 139.93344 
L 240.222244 139.93344 
L 240.547224 145.01376 
L 240.872203 144.288 
L 241.197183 139.93344 
L 241.522162 139.20768 
L 241.847142 139.93344 
L 242.172121 141.38496 
L 242.82208 141.38496 
L 243.14706 145.73952 
L 243.797019 136.30464 
L 244.121998 140.6592 
L 244.446978 140.6592 
L 244.771957 142.11072 
L 245.096937 138.48192 
L 245.421916 142.83648 
L 245.746896 143.56224 
L 246.071876 143.56224 
L 246.396855 142.83648 
L 246.721835 139.93344 
L 247.046814 142.83648 
L 247.371794 142.83648 
L 247.696773 138.48192 
L 248.021753 139.93344 
L 248.346732 139.93344 
L 248.671712 142.83648 
L 248.996691 140.6592 
L 249.321671 142.11072 
L 249.64665 145.73952 
L 249.97163 142.11072 
L 250.296609 142.11072 
L 250.621589 139.20768 
L 250.946568 137.75616 
L 251.271548 142.11072 
L 251.596527 139.93344 
L 251.921507 143.56224 
L 252.246486 142.83648 
L 252.571466 141.38496 
L 252.896446 140.6592 
L 253.221425 142.11072 
L 253.546405 142.11072 
L 253.871384 143.56224 
L 254.196364 138.48192 
L 254.521343 140.6592 
L 254.846323 147.19104 
L 255.171302 140.6592 
L 255.496282 141.38496 
L 255.821261 141.38496 
L 256.146241 142.11072 
L 256.47122 139.93344 
L 256.7962 145.73952 
L 257.121179 139.93344 
L 257.446159 142.83648 
L 257.771138 141.38496 
L 258.096118 142.83648 
L 258.421097 145.01376 
L 258.746077 144.288 
L 259.071057 141.38496 
L 259.396036 140.6592 
L 259.721016 145.73952 
L 260.045995 138.48192 
L 260.370975 140.6592 
L 260.695954 140.6592 
L 261.020934 138.48192 
L 261.345913 141.38496 
L 261.670893 139.20768 
L 261.995872 142.83648 
L 262.320852 139.93344 
L 262.645831 140.6592 
L 262.970811 142.83648 
L 263.29579 139.20768 
L 263.62077 141.38496 
L 263.945749 139.93344 
L 264.270729 146.46528 
L 264.595708 139.20768 
L 264.920688 139.93344 
L 265.245667 144.288 
L 265.570647 142.83648 
L 265.895627 145.01376 
L 266.220606 142.83648 
L 266.545586 142.11072 
L 266.870565 144.288 
L 267.195545 147.9168 
L 267.520524 142.11072 
L 267.845504 146.46528 
L 268.170483 146.46528 
L 268.495463 145.01376 
L 268.820442 145.73952 
L 269.145422 142.11072 
L 269.470401 141.38496 
L 269.795381 147.19104 
L 270.12036 145.01376 
L 270.44534 138.48192 
L 270.770319 139.93344 
L 271.095299 145.73952 
L 271.420278 140.6592 
L 271.745258 139.93344 
L 272.070238 142.83648 
L 272.395217 139.93344 
L 272.720197 139.93344 
L 273.045176 145.73952 
L 273.695135 137.75616 
L 274.020115 137.75616 
L 274.345094 142.11072 
L 274.670074 139.20768 
L 274.995053 142.83648 
L 275.645012 137.0304 
L 275.969992 143.56224 
L 276.294971 147.19104 
L 276.619951 141.38496 
L 276.94493 144.288 
L 277.26991 140.6592 
L 277.919869 144.288 
L 278.244848 142.11072 
L 278.569828 143.56224 
L 278.894808 141.38496 
L 279.219787 145.01376 
L 279.544767 137.75616 
L 279.869746 140.6592 
L 280.194726 140.6592 
L 280.519705 144.288 
L 280.844685 143.56224 
L 281.169664 138.48192 
L 281.494644 140.6592 
L 281.819623 141.38496 
L 282.144603 147.19104 
L 282.469582 138.48192 
L 282.794562 144.288 
L 283.119541 141.38496 
L 284.744439 141.38496 
L 285.069419 139.20768 
L 285.394398 142.83648 
L 285.719378 139.20768 
L 286.044357 145.01376 
L 286.369337 139.93344 
L 287.019296 138.48192 
L 287.344275 141.38496 
L 287.669255 139.93344 
L 287.994234 143.56224 
L 288.319214 137.75616 
L 288.644193 149.36832 
L 288.969173 145.01376 
L 289.294152 143.56224 
L 289.619132 145.01376 
L 289.944111 144.288 
L 290.269091 144.288 
L 291.244029 139.93344 
L 291.569009 141.38496 
L 291.893989 147.9168 
L 292.218968 142.83648 
L 292.543948 146.46528 
L 292.868927 143.56224 
L 293.193907 144.288 
L 293.518886 142.11072 
L 293.843866 145.01376 
L 294.168845 144.288 
L 294.818804 145.73952 
L 295.143784 138.48192 
L 295.793743 142.11072 
L 296.118722 142.11072 
L 296.443702 139.93344 
L 296.768681 140.6592 
L 297.093661 145.01376 
L 297.41864 139.93344 
L 297.74362 139.93344 
L 298.0686 146.46528 
L 298.393579 140.6592 
L 298.718559 145.01376 
L 299.043538 146.46528 
L 299.368518 142.83648 
L 299.693497 142.83648 
L 300.018477 143.56224 
L 300.343456 137.0304 
L 300.668436 145.73952 
L 300.993415 142.11072 
L 301.318395 141.38496 
L 301.643374 145.01376 
L 301.968354 137.0304 
L 302.293333 142.83648 
L 302.618313 141.38496 
L 302.943292 140.6592 
L 303.268272 142.11072 
L 303.593251 138.48192 
L 303.918231 138.48192 
L 304.24321 139.20768 
L 304.56819 142.83648 
L 304.89317 144.288 
L 305.218149 139.20768 
L 305.543129 144.288 
L 305.868108 144.288 
L 306.193088 139.93344 
L 306.518067 142.83648 
L 306.843047 141.38496 
L 307.168026 143.56224 
L 307.817985 143.56224 
L 308.142965 142.83648 
L 308.467944 143.56224 
L 308.792924 139.20768 
L 309.117903 139.93344 
L 309.442883 142.11072 
L 309.767862 142.11072 
L 310.417821 139.20768 
L 310.742801 140.6592 
L 311.067781 141.38496 
L 311.39276 146.46528 
L 311.71774 148.64256 
L 312.042719 143.56224 
L 312.367699 142.83648 
L 312.692678 142.83648 
L 313.017658 143.56224 
L 313.342637 139.93344 
L 313.667617 145.01376 
L 313.992596 147.9168 
L 314.317576 138.48192 
L 314.642555 142.11072 
L 314.967535 144.288 
L 315.292514 138.48192 
L 315.617494 138.48192 
L 315.942473 144.288 
L 316.267453 144.288 
L 316.592432 143.56224 
L 316.917412 142.11072 
L 317.242391 144.288 
L 317.567371 142.83648 
L 317.892351 146.46528 
L 318.21733 147.9168 
L 318.54231 141.38496 
L 318.867289 145.01376 
L 319.192269 142.83648 
L 319.517248 145.73952 
L 319.842228 140.6592 
L 320.167207 139.93344 
L 320.492187 142.83648 
L 320.817166 139.93344 
L 321.142146 144.288 
L 321.467125 142.83648 
L 321.792105 144.288 
L 322.117084 142.11072 
L 322.442064 143.56224 
L 322.767043 142.11072 
L 323.092023 139.20768 
L 323.417002 146.46528 
L 323.741982 140.6592 
L 324.066962 138.48192 
L 324.391941 141.38496 
L 324.716921 140.6592 
L 325.0419 144.288 
L 325.36688 142.83648 
L 326.016839 142.83648 
L 326.341818 147.9168 
L 326.666798 143.56224 
L 326.991777 143.56224 
L 327.641736 138.48192 
L 327.966716 142.11072 
L 328.291695 138.48192 
L 328.616675 142.83648 
L 328.941654 142.11072 
L 329.266634 143.56224 
L 329.591613 146.46528 
L 329.916593 143.56224 
L 330.241572 145.01376 
L 330.566552 138.48192 
L 330.891532 142.83648 
L 331.216511 145.01376 
L 331.541491 143.56224 
L 331.86647 144.288 
L 332.19145 143.56224 
L 332.516429 141.38496 
L 332.841409 144.288 
L 333.166388 139.20768 
L 333.491368 140.6592 
L 333.816347 139.93344 
L 334.141327 144.288 
L 334.466306 139.93344 
L 335.116265 145.01376 
L 335.441245 142.11072 
L 335.766224 142.83648 
L 336.091204 141.38496 
L 336.416183 145.01376 
L 336.741163 143.56224 
L 337.066143 145.01376 
L 337.391122 144.288 
L 337.716102 139.93344 
L 338.041081 143.56224 
L 338.366061 145.01376 
L 338.69104 141.38496 
L 339.01602 143.56224 
L 339.340999 140.6592 
L 339.665979 147.19104 
L 339.990958 147.19104 
L 340.315938 140.6592 
L 340.640917 144.288 
L 340.965897 144.288 
L 341.290876 141.38496 
L 341.615856 141.38496 
L 341.940835 142.11072 
L 342.265815 142.11072 
L 342.590794 145.73952 
L 342.915774 144.288 
L 343.240753 135.57888 
L 343.565733 142.11072 
L 343.890713 139.20768 
L 344.540672 145.73952 
L 345.190631 144.288 
L 345.51561 145.01376 
L 345.84059 137.0304 
L 346.165569 140.6592 
L 346.815528 144.288 
L 347.140508 139.20768 
L 347.790467 144.288 
L 348.115446 137.0304 
L 348.440426 142.11072 
L 348.765405 137.0304 
L 349.090385 142.83648 
L 349.415364 142.83648 
L 349.740344 145.73952 
L 350.065324 144.288 
L 350.390303 142.11072 
L 350.715283 143.56224 
L 351.040262 144.288 
L 351.365242 145.73952 
L 352.015201 139.93344 
L 352.34018 138.48192 
L 352.990139 145.73952 
L 353.315119 140.6592 
L 353.965078 145.01376 
L 354.290057 142.83648 
L 354.615037 142.11072 
L 354.940016 138.48192 
L 355.264996 137.75616 
L 355.589975 144.288 
L 355.914955 141.38496 
L 356.239934 143.56224 
L 356.564914 136.30464 
L 356.889894 145.01376 
L 357.539853 137.0304 
L 357.864832 142.83648 
L 358.189812 143.56224 
L 358.514791 141.38496 
L 358.839771 142.83648 
L 359.16475 139.93344 
L 359.48973 143.56224 
L 359.814709 139.93344 
L 360.139689 147.19104 
L 360.464668 145.01376 
L 360.789648 147.9168 
L 361.114627 142.11072 
L 361.439607 144.288 
L 361.764586 141.38496 
L 362.089566 142.83648 
L 362.414545 147.19104 
L 362.739525 140.6592 
L 363.064505 142.83648 
L 363.389484 139.20768 
L 363.714464 142.83648 
L 364.039443 150.09408 
L 364.364423 142.83648 
L 364.689402 142.83648 
L 365.014382 146.46528 
L 365.664341 142.83648 
L 365.98932 142.83648 
L 366.3143 143.56224 
L 366.639279 143.56224 
L 366.964259 142.83648 
L 367.289238 139.20768 
L 367.614218 142.11072 
L 367.939197 142.83648 
L 368.264177 147.19104 
L 368.589156 145.01376 
L 368.914136 145.01376 
L 369.239115 142.83648 
L 369.889075 141.38496 
L 370.214054 139.20768 
L 370.539034 138.48192 
L 370.864013 144.288 
L 371.188993 142.83648 
L 371.513972 142.83648 
L 371.838952 148.64256 
L 372.163931 141.38496 
L 372.488911 141.38496 
L 372.81389 145.01376 
L 373.13887 142.11072 
L 373.463849 137.0304 
L 373.788829 143.56224 
L 374.113808 145.73952 
L 374.438788 139.93344 
L 375.088747 144.288 
L 375.413726 142.83648 
L 375.738706 144.288 
L 376.063686 143.56224 
L 376.388665 137.75616 
L 376.713645 139.93344 
L 377.038624 150.09408 
L 377.363604 139.93344 
L 377.688583 138.48192 
L 378.013563 144.288 
L 378.338542 142.83648 
L 378.663522 145.73952 
L 378.988501 141.38496 
L 379.313481 141.38496 
L 379.63846 145.01376 
L 379.96344 145.01376 
L 380.288419 140.6592 
L 380.613399 140.6592 
L 380.938378 145.73952 
L 381.263358 142.83648 
L 381.588337 144.288 
L 381.913317 142.11072 
L 382.238296 145.01376 
L 382.563276 141.38496 
L 382.888256 142.11072 
L 383.213235 142.11072 
L 383.538215 143.56224 
L 383.863194 140.6592 
L 384.188174 144.288 
L 384.513153 144.288 
L 384.838133 142.11072 
L 385.163112 143.56224 
L 385.488092 144.288 
L 385.813071 142.83648 
L 386.138051 146.46528 
L 386.46303 138.48192 
L 386.78801 145.73952 
L 387.112989 145.01376 
L 387.762948 136.30464 
L 388.087928 142.11072 
L 388.412907 141.38496 
L 388.737887 145.73952 
L 389.062867 139.93344 
L 389.387846 145.73952 
L 389.712826 146.46528 
L 390.037805 141.38496 
L 390.362785 142.11072 
L 390.687764 137.75616 
L 391.012744 140.6592 
L 391.337723 138.48192 
L 391.662703 137.75616 
L 391.987682 143.56224 
L 392.312662 140.6592 
L 392.637641 145.73952 
L 392.962621 142.83648 
L 393.2876 144.288 
L 393.61258 145.01376 
L 393.937559 141.38496 
L 394.262539 141.38496 
L 394.587518 143.56224 
L 394.912498 139.93344 
L 395.237477 141.38496 
L 395.562457 145.73952 
L 395.887437 142.11072 
L 396.212416 142.11072 
L 396.537396 142.83648 
L 396.862375 145.01376 
L 397.187355 143.56224 
L 397.512334 144.288 
L 397.837314 142.83648 
L 398.162293 145.01376 
L 398.487273 140.6592 
L 398.487273 140.6592 
" clip-path="url(#pd82870338c)" style="fill: none; stroke: #008000; stroke-width: 1.5; stroke-linecap: square"/>
   </g>
   <g id="line2d_17">
    <path d="M 73.832727 259.32096 
L 74.157707 182.02752 
L 74.482686 160.6176 
L 74.807666 155.1744 
L 75.132645 153.72288 
L 75.457625 153.72288 
L 75.782604 154.81152 
L 76.107584 155.1744 
L 76.432563 153.72288 
L 76.757543 149.36832 
L 77.082523 153.72288 
L 77.407502 153.36 
L 77.732482 147.19104 
L 78.057461 148.27968 
L 78.70742 149.00544 
L 79.0324 146.46528 
L 79.357379 141.38496 
L 79.682359 138.8448 
L 80.007338 139.20768 
L 80.332318 141.38496 
L 80.657297 144.65088 
L 80.982277 141.38496 
L 81.632236 144.65088 
L 81.957215 141.38496 
L 82.282195 142.83648 
L 82.607174 145.37664 
L 82.932154 144.65088 
L 83.257133 144.65088 
L 83.582113 145.37664 
L 83.907093 139.93344 
L 84.232072 140.29632 
L 84.557052 142.11072 
L 84.882031 137.0304 
L 85.207011 134.85312 
L 85.53199 138.8448 
L 85.85697 137.0304 
L 86.181949 140.6592 
L 86.506929 140.29632 
L 86.831908 142.11072 
L 87.156888 142.11072 
L 87.481867 138.8448 
L 87.806847 139.93344 
L 88.131826 139.57056 
L 88.456806 140.29632 
L 88.781785 139.57056 
L 89.106765 145.37664 
L 89.431744 141.02208 
L 89.756724 140.29632 
L 90.406683 142.4736 
L 91.056642 139.93344 
L 91.381622 141.38496 
L 91.706601 139.93344 
L 92.031581 139.93344 
L 92.35656 143.92512 
L 92.68154 143.19936 
L 93.006519 142.11072 
L 93.331499 139.20768 
L 93.656478 142.11072 
L 93.981458 139.93344 
L 94.306437 142.83648 
L 94.631417 140.29632 
L 95.281376 143.19936 
L 95.606355 140.29632 
L 95.931335 145.37664 
L 96.581294 143.56224 
L 96.906274 140.29632 
L 97.231253 144.288 
L 97.556233 140.29632 
L 97.881212 143.19936 
L 98.206192 144.288 
L 98.531171 142.4736 
L 98.856151 142.83648 
L 99.18113 142.11072 
L 99.50611 141.74784 
L 99.831089 142.83648 
L 100.156069 140.6592 
L 100.481048 142.83648 
L 100.806028 142.83648 
L 101.131007 143.56224 
L 101.455987 141.74784 
L 101.780966 142.11072 
L 102.105946 142.83648 
L 102.430925 143.19936 
L 102.755905 145.01376 
L 103.080885 143.19936 
L 103.405864 142.4736 
L 103.730844 137.75616 
L 104.055823 142.11072 
L 104.380803 140.29632 
L 104.705782 145.01376 
L 105.355741 140.29632 
L 105.680721 143.56224 
L 106.33068 142.11072 
L 106.655659 142.83648 
L 106.980639 145.73952 
L 107.305618 140.29632 
L 107.630598 143.92512 
L 107.955577 140.6592 
L 108.280557 142.83648 
L 108.605536 142.4736 
L 108.930516 141.38496 
L 109.580475 144.65088 
L 109.905455 143.92512 
L 110.230434 141.02208 
L 110.555414 145.37664 
L 110.880393 144.65088 
L 111.205373 140.29632 
L 111.530352 141.74784 
L 112.180311 143.19936 
L 112.505291 143.19936 
L 112.83027 142.83648 
L 113.15525 144.65088 
L 113.480229 141.38496 
L 113.805209 141.02208 
L 114.130188 139.93344 
L 114.455168 140.6592 
L 114.780147 139.20768 
L 115.105127 139.57056 
L 115.430106 141.02208 
L 115.755086 140.29632 
L 116.080066 142.4736 
L 116.405045 141.02208 
L 117.055004 142.4736 
L 117.379984 141.38496 
L 117.704963 142.83648 
L 118.029943 145.73952 
L 118.354922 141.38496 
L 118.679902 141.02208 
L 119.004881 141.38496 
L 119.65484 142.83648 
L 119.97982 142.11072 
L 120.304799 146.1024 
L 120.629779 141.74784 
L 120.954758 142.4736 
L 121.279738 142.11072 
L 121.604717 143.56224 
L 121.929697 142.4736 
L 122.254676 139.20768 
L 122.904636 144.65088 
L 123.229615 142.4736 
L 123.554595 143.56224 
L 123.879574 139.57056 
L 124.529533 142.11072 
L 124.854513 141.02208 
L 125.504472 145.01376 
L 125.829451 140.29632 
L 126.154431 141.02208 
L 126.47941 140.6592 
L 126.80439 145.01376 
L 127.129369 140.29632 
L 127.454349 141.74784 
L 127.779328 145.37664 
L 128.104308 141.74784 
L 128.429287 143.92512 
L 128.754267 141.02208 
L 129.079247 136.66752 
L 129.404226 147.55392 
L 129.729206 140.29632 
L 130.054185 140.6592 
L 130.704144 142.4736 
L 131.029124 142.83648 
L 131.354103 143.56224 
L 131.679083 141.38496 
L 132.004062 144.288 
L 132.329042 143.19936 
L 132.654021 143.92512 
L 132.979001 142.83648 
L 133.30398 143.19936 
L 133.62896 146.1024 
L 133.953939 143.19936 
L 134.278919 143.56224 
L 134.603898 141.74784 
L 134.928878 142.11072 
L 135.253857 144.288 
L 135.578837 144.65088 
L 135.903817 144.288 
L 136.228796 141.38496 
L 136.553776 143.56224 
L 136.878755 144.288 
L 137.203735 141.38496 
L 137.528714 144.288 
L 137.853694 141.02208 
L 138.178673 140.6592 
L 138.503653 139.93344 
L 138.828632 142.11072 
L 139.153612 140.29632 
L 139.478591 143.92512 
L 139.803571 141.38496 
L 140.12855 143.56224 
L 140.45353 140.6592 
L 141.103489 138.8448 
L 141.428468 142.83648 
L 141.753448 139.93344 
L 142.078428 138.8448 
L 142.403407 143.19936 
L 142.728387 142.83648 
L 143.053366 141.02208 
L 143.378346 144.65088 
L 143.703325 140.6592 
L 144.028305 140.29632 
L 144.353284 140.29632 
L 144.678264 145.37664 
L 145.328223 138.8448 
L 145.653202 142.11072 
L 145.978182 141.02208 
L 146.303161 142.4736 
L 146.628141 141.38496 
L 146.95312 142.11072 
L 147.2781 143.19936 
L 147.603079 139.57056 
L 147.928059 141.38496 
L 148.253038 142.11072 
L 148.578018 141.74784 
L 148.902998 143.19936 
L 149.227977 145.37664 
L 149.552957 143.56224 
L 149.877936 143.19936 
L 150.202916 144.65088 
L 150.527895 143.92512 
L 150.852875 143.56224 
L 151.177854 140.6592 
L 151.502834 143.19936 
L 151.827813 140.6592 
L 152.152793 142.4736 
L 152.477772 139.93344 
L 152.802752 140.29632 
L 153.127731 141.74784 
L 153.452711 144.65088 
L 153.77769 145.01376 
L 154.427649 142.4736 
L 154.752629 143.92512 
L 155.077609 142.4736 
L 155.402588 143.56224 
L 155.727568 141.38496 
L 156.052547 142.83648 
L 156.702506 144.288 
L 157.027486 142.4736 
L 157.352465 143.19936 
L 157.677445 145.37664 
L 158.002424 145.37664 
L 158.327404 138.48192 
L 158.652383 142.83648 
L 158.977363 139.57056 
L 159.302342 139.93344 
L 159.952301 143.92512 
L 160.277281 143.56224 
L 160.60226 142.11072 
L 160.92724 139.57056 
L 161.252219 141.74784 
L 161.902179 143.56224 
L 162.227158 142.4736 
L 162.552138 140.6592 
L 162.877117 144.288 
L 163.527076 139.57056 
L 163.852056 143.56224 
L 164.177035 142.4736 
L 164.502015 142.83648 
L 164.826994 142.83648 
L 165.151974 141.38496 
L 165.476953 143.92512 
L 165.801933 138.48192 
L 166.126912 143.92512 
L 166.451892 144.65088 
L 167.101851 142.4736 
L 167.42683 142.4736 
L 167.75181 142.11072 
L 168.07679 138.48192 
L 168.401769 145.01376 
L 168.726749 140.6592 
L 169.051728 143.92512 
L 169.376708 143.92512 
L 169.701687 143.56224 
L 170.026667 144.65088 
L 170.351646 141.74784 
L 170.676626 143.19936 
L 171.326585 141.38496 
L 171.651564 141.02208 
L 171.976544 141.74784 
L 172.301523 143.92512 
L 172.626503 141.02208 
L 172.951482 141.38496 
L 173.276462 143.56224 
L 173.601441 143.19936 
L 173.926421 143.56224 
L 174.2514 146.1024 
L 174.57638 141.74784 
L 174.90136 142.11072 
L 175.226339 145.01376 
L 175.551319 141.38496 
L 175.876298 144.288 
L 176.201278 141.74784 
L 176.526257 143.92512 
L 176.851237 143.19936 
L 177.176216 144.65088 
L 177.501196 143.92512 
L 177.826175 143.56224 
L 178.151155 142.11072 
L 178.476134 143.92512 
L 178.801114 143.92512 
L 179.126093 141.38496 
L 179.451073 144.288 
L 179.776052 141.74784 
L 180.101032 141.74784 
L 180.426011 142.83648 
L 180.750991 143.19936 
L 181.075971 140.6592 
L 181.40095 142.83648 
L 181.72593 147.55392 
L 182.050909 142.11072 
L 182.375889 146.82816 
L 182.700868 142.11072 
L 183.350827 145.01376 
L 183.675807 141.74784 
L 184.000786 145.37664 
L 184.325766 142.83648 
L 184.650745 143.56224 
L 184.975725 141.38496 
L 185.625684 143.92512 
L 185.950663 141.38496 
L 186.275643 144.288 
L 186.600622 145.01376 
L 186.925602 141.74784 
L 187.250581 141.38496 
L 187.575561 142.11072 
L 187.900541 142.11072 
L 188.22552 143.92512 
L 188.5505 141.02208 
L 188.875479 143.56224 
L 189.200459 143.19936 
L 189.525438 147.9168 
L 189.850418 142.4736 
L 190.175397 141.02208 
L 190.500377 144.65088 
L 190.825356 142.11072 
L 191.150336 142.11072 
L 191.475315 141.74784 
L 191.800295 143.19936 
L 192.125274 143.19936 
L 192.450254 141.38496 
L 192.775233 145.73952 
L 193.100213 143.92512 
L 193.425192 143.56224 
L 193.750172 142.11072 
L 194.075152 143.92512 
L 194.400131 140.6592 
L 194.725111 143.56224 
L 195.05009 143.92512 
L 195.700049 140.29632 
L 196.025029 143.19936 
L 196.350008 141.38496 
L 196.674988 143.56224 
L 197.324947 142.11072 
L 197.649926 141.02208 
L 198.299885 142.4736 
L 198.624865 142.4736 
L 198.949844 141.74784 
L 199.274824 145.01376 
L 199.599803 143.92512 
L 199.924783 139.93344 
L 200.249762 142.83648 
L 200.574742 143.92512 
L 201.224701 142.11072 
L 201.549681 146.1024 
L 201.87466 144.65088 
L 202.19964 141.74784 
L 202.524619 146.46528 
L 202.849599 141.38496 
L 203.174578 144.288 
L 203.499558 145.01376 
L 203.824537 141.74784 
L 204.149517 139.93344 
L 204.474496 143.19936 
L 204.799476 143.19936 
L 205.124455 142.83648 
L 205.449435 141.74784 
L 205.774414 146.1024 
L 206.099394 142.83648 
L 206.424373 142.11072 
L 206.749353 143.19936 
L 207.074333 142.83648 
L 207.399312 144.288 
L 207.724292 142.11072 
L 208.049271 142.83648 
L 208.374251 139.93344 
L 208.69923 142.11072 
L 209.02421 142.11072 
L 209.349189 145.37664 
L 209.999148 140.29632 
L 210.324128 145.01376 
L 210.649107 144.65088 
L 210.974087 142.83648 
L 211.299066 146.82816 
L 211.624046 140.6592 
L 211.949025 143.19936 
L 212.274005 142.83648 
L 212.598984 141.38496 
L 212.923964 141.38496 
L 213.248943 141.74784 
L 213.573923 141.74784 
L 213.898903 141.38496 
L 214.223882 143.56224 
L 214.548862 143.92512 
L 214.873841 139.93344 
L 215.198821 142.11072 
L 215.5238 141.38496 
L 215.84878 145.73952 
L 216.173759 141.74784 
L 216.498739 142.83648 
L 216.823718 142.83648 
L 217.148698 141.02208 
L 217.473677 141.74784 
L 217.798657 145.37664 
L 218.123636 141.38496 
L 218.448616 141.38496 
L 218.773595 142.4736 
L 219.098575 141.02208 
L 219.748534 144.65088 
L 220.073514 141.02208 
L 220.398493 145.01376 
L 220.723473 142.11072 
L 221.048452 142.83648 
L 221.373432 142.4736 
L 221.698411 145.37664 
L 222.023391 139.57056 
L 222.34837 143.19936 
L 222.67335 143.92512 
L 222.998329 141.74784 
L 223.323309 145.37664 
L 223.648288 140.6592 
L 223.973268 141.38496 
L 224.298247 143.92512 
L 224.623227 142.4736 
L 224.948206 141.74784 
L 225.273186 140.6592 
L 225.598165 143.19936 
L 225.923145 142.11072 
L 226.248124 143.56224 
L 226.898084 141.02208 
L 227.223063 144.65088 
L 227.548043 142.11072 
L 227.873022 143.19936 
L 228.198002 142.83648 
L 228.522981 141.38496 
L 229.17294 144.65088 
L 229.49792 141.74784 
L 229.822899 143.56224 
L 230.147879 143.19936 
L 230.472858 144.288 
L 231.122817 140.29632 
L 231.447797 141.38496 
L 231.772776 143.56224 
L 232.097756 142.83648 
L 232.422735 145.73952 
L 232.747715 145.73952 
L 233.072695 144.65088 
L 233.397674 141.74784 
L 233.722654 142.83648 
L 234.047633 143.19936 
L 234.697592 147.55392 
L 235.022572 142.11072 
L 235.347551 140.6592 
L 235.672531 143.56224 
L 235.99751 142.83648 
L 236.32249 142.4736 
L 236.647469 143.19936 
L 236.972449 142.4736 
L 237.297428 139.93344 
L 237.947387 147.19104 
L 238.272367 142.11072 
L 238.597346 141.02208 
L 238.922326 144.288 
L 239.572285 141.02208 
L 239.897265 141.38496 
L 240.222244 143.92512 
L 240.547224 143.19936 
L 240.872203 140.6592 
L 241.197183 141.02208 
L 241.522162 141.74784 
L 241.847142 144.288 
L 242.172121 143.19936 
L 242.497101 143.56224 
L 242.82208 146.1024 
L 243.14706 142.83648 
L 243.797019 139.93344 
L 244.121998 142.11072 
L 244.446978 140.6592 
L 244.771957 146.46528 
L 245.096937 141.74784 
L 245.421916 141.74784 
L 245.746896 144.65088 
L 246.071876 140.6592 
L 246.396855 145.37664 
L 246.721835 141.38496 
L 247.046814 140.29632 
L 247.371794 142.83648 
L 247.696773 143.19936 
L 248.021753 143.19936 
L 248.346732 142.4736 
L 248.671712 143.19936 
L 248.996691 142.83648 
L 249.321671 145.73952 
L 249.64665 141.02208 
L 249.97163 141.02208 
L 250.296609 142.11072 
L 250.621589 142.11072 
L 250.946568 143.92512 
L 251.271548 142.83648 
L 251.596527 140.29632 
L 251.921507 142.4736 
L 252.246486 146.46528 
L 252.571466 145.73952 
L 252.896446 143.92512 
L 253.221425 143.19936 
L 253.546405 141.74784 
L 253.871384 142.4736 
L 254.196364 142.4736 
L 254.521343 144.65088 
L 254.846323 142.4736 
L 255.171302 145.37664 
L 255.496282 141.02208 
L 255.821261 139.20768 
L 256.146241 142.83648 
L 256.47122 144.288 
L 256.7962 137.39328 
L 257.121179 141.38496 
L 257.446159 143.56224 
L 257.771138 138.8448 
L 258.096118 143.56224 
L 258.421097 143.92512 
L 259.071057 141.38496 
L 259.396036 142.11072 
L 259.721016 143.56224 
L 260.045995 140.29632 
L 260.370975 143.92512 
L 260.695954 143.56224 
L 261.020934 142.11072 
L 261.345913 143.19936 
L 261.670893 140.6592 
L 261.995872 141.02208 
L 262.320852 143.56224 
L 262.645831 140.29632 
L 263.29579 144.288 
L 263.62077 144.288 
L 263.945749 145.01376 
L 264.270729 140.29632 
L 264.595708 144.65088 
L 264.920688 146.46528 
L 265.245667 145.37664 
L 265.570647 145.01376 
L 265.895627 146.1024 
L 266.220606 145.73952 
L 266.545586 145.01376 
L 266.870565 145.73952 
L 267.195545 144.288 
L 267.520524 145.37664 
L 267.845504 142.4736 
L 268.170483 140.6592 
L 268.495463 142.4736 
L 268.820442 143.56224 
L 269.145422 142.4736 
L 269.470401 145.01376 
L 269.795381 136.66752 
L 270.12036 142.4736 
L 270.44534 143.56224 
L 270.770319 145.37664 
L 271.095299 139.93344 
L 271.420278 141.38496 
L 271.745258 141.38496 
L 272.395217 145.01376 
L 272.720197 140.29632 
L 273.370156 148.64256 
L 273.695135 145.73952 
L 274.670074 142.4736 
L 275.320033 144.65088 
L 275.645012 140.6592 
L 275.969992 140.29632 
L 276.294971 142.11072 
L 276.619951 146.46528 
L 276.94493 143.19936 
L 277.26991 146.46528 
L 277.594889 142.11072 
L 277.919869 143.92512 
L 278.244848 141.74784 
L 278.569828 143.92512 
L 278.894808 144.288 
L 279.219787 143.56224 
L 279.869746 141.74784 
L 280.194726 143.92512 
L 280.519705 143.56224 
L 280.844685 146.1024 
L 281.169664 141.38496 
L 281.819623 145.01376 
L 282.144603 144.288 
L 282.469582 144.65088 
L 282.794562 140.29632 
L 283.119541 142.83648 
L 283.444521 141.02208 
L 283.7695 141.38496 
L 284.09448 145.73952 
L 284.419459 143.92512 
L 284.744439 143.19936 
L 285.069419 141.02208 
L 285.394398 143.19936 
L 285.719378 140.29632 
L 286.694316 145.37664 
L 287.019296 144.65088 
L 287.344275 145.01376 
L 287.669255 139.93344 
L 287.994234 140.29632 
L 288.319214 143.92512 
L 288.644193 140.6592 
L 288.969173 143.92512 
L 289.294152 145.73952 
L 289.619132 142.11072 
L 289.944111 141.38496 
L 290.269091 143.56224 
L 290.59407 142.4736 
L 290.91905 143.56224 
L 291.244029 143.92512 
L 291.569009 144.65088 
L 291.893989 145.01376 
L 292.218968 144.65088 
L 292.543948 142.4736 
L 292.868927 141.38496 
L 293.193907 147.9168 
L 294.168845 143.92512 
L 294.493825 143.56224 
L 294.818804 141.02208 
L 295.468763 145.01376 
L 295.793743 145.73952 
L 296.443702 141.38496 
L 296.768681 142.83648 
L 297.093661 142.83648 
L 297.41864 145.01376 
L 297.74362 142.11072 
L 298.718559 145.01376 
L 299.043538 139.57056 
L 299.368518 144.65088 
L 299.693497 141.02208 
L 300.018477 145.01376 
L 300.343456 145.01376 
L 300.668436 141.38496 
L 300.993415 146.46528 
L 301.318395 144.288 
L 301.643374 140.6592 
L 301.968354 147.55392 
L 302.293333 143.19936 
L 302.618313 142.4736 
L 302.943292 143.19936 
L 303.268272 141.38496 
L 303.593251 146.1024 
L 303.918231 142.11072 
L 304.24321 145.01376 
L 304.56819 142.4736 
L 304.89317 144.288 
L 305.218149 142.4736 
L 305.543129 143.56224 
L 305.868108 141.74784 
L 306.193088 146.1024 
L 306.518067 141.74784 
L 306.843047 144.65088 
L 307.168026 143.19936 
L 307.493006 140.29632 
L 307.817985 143.19936 
L 308.142965 141.38496 
L 308.467944 142.83648 
L 308.792924 141.38496 
L 309.117903 146.1024 
L 309.442883 145.37664 
L 309.767862 142.4736 
L 310.092842 146.1024 
L 310.417821 142.4736 
L 310.742801 145.73952 
L 311.067781 141.02208 
L 311.39276 143.56224 
L 311.71774 144.65088 
L 312.042719 144.65088 
L 312.367699 141.02208 
L 312.692678 141.74784 
L 313.017658 144.288 
L 313.342637 142.83648 
L 313.667617 142.4736 
L 313.992596 140.29632 
L 314.317576 143.19936 
L 314.642555 143.92512 
L 314.967535 145.01376 
L 315.292514 143.92512 
L 315.617494 141.02208 
L 315.942473 139.93344 
L 316.592432 144.288 
L 316.917412 143.92512 
L 317.242391 143.92512 
L 317.567371 145.73952 
L 318.21733 141.74784 
L 318.54231 146.1024 
L 318.867289 144.65088 
L 319.192269 145.01376 
L 319.517248 143.92512 
L 319.842228 144.288 
L 320.167207 141.38496 
L 320.492187 142.4736 
L 320.817166 144.65088 
L 321.142146 142.4736 
L 321.467125 143.19936 
L 322.117084 147.19104 
L 322.442064 138.48192 
L 322.767043 143.56224 
L 323.092023 143.56224 
L 323.417002 144.65088 
L 323.741982 141.74784 
L 324.066962 145.37664 
L 324.391941 142.4736 
L 324.716921 142.11072 
L 325.0419 145.01376 
L 325.36688 145.01376 
L 325.691859 141.74784 
L 326.016839 143.19936 
L 326.341818 146.46528 
L 326.666798 144.288 
L 326.991777 143.92512 
L 327.641736 140.6592 
L 328.291695 143.92512 
L 328.616675 143.19936 
L 328.941654 142.11072 
L 329.266634 144.65088 
L 329.916593 144.65088 
L 330.241572 142.4736 
L 330.566552 145.73952 
L 331.216511 143.19936 
L 331.541491 146.1024 
L 331.86647 143.56224 
L 332.19145 144.65088 
L 332.841409 141.38496 
L 333.166388 141.38496 
L 333.816347 145.73952 
L 334.141327 144.288 
L 334.466306 145.01376 
L 334.791286 146.82816 
L 335.116265 142.11072 
L 335.441245 143.19936 
L 335.766224 143.56224 
L 336.091204 139.57056 
L 336.416183 145.37664 
L 336.741163 142.4736 
L 337.066143 141.02208 
L 337.391122 144.288 
L 337.716102 143.92512 
L 338.041081 142.83648 
L 338.366061 144.288 
L 338.69104 142.83648 
L 339.01602 143.56224 
L 339.340999 143.92512 
L 339.665979 142.11072 
L 339.990958 144.288 
L 340.315938 147.9168 
L 340.640917 143.92512 
L 340.965897 145.73952 
L 341.290876 143.92512 
L 341.615856 142.83648 
L 341.940835 143.92512 
L 342.590794 142.11072 
L 342.915774 142.4736 
L 343.240753 143.92512 
L 343.565733 143.92512 
L 343.890713 144.288 
L 344.215692 142.4736 
L 344.540672 143.92512 
L 344.865651 141.74784 
L 345.190631 144.288 
L 345.51561 141.74784 
L 345.84059 143.56224 
L 346.165569 144.65088 
L 346.815528 140.6592 
L 347.140508 144.288 
L 347.465487 142.4736 
L 347.790467 147.55392 
L 348.115446 143.19936 
L 348.440426 141.74784 
L 348.765405 146.46528 
L 349.090385 143.92512 
L 349.415364 142.4736 
L 349.740344 143.56224 
L 350.065324 143.19936 
L 350.390303 145.37664 
L 350.715283 145.37664 
L 351.040262 144.65088 
L 351.365242 145.01376 
L 351.690221 143.56224 
L 352.015201 140.29632 
L 352.34018 144.65088 
L 352.66516 142.11072 
L 352.990139 145.01376 
L 353.640098 141.74784 
L 353.965078 148.27968 
L 354.290057 143.56224 
L 354.615037 141.74784 
L 354.940016 145.01376 
L 355.264996 143.19936 
L 355.589975 144.288 
L 355.914955 141.02208 
L 356.239934 142.83648 
L 356.564914 142.4736 
L 356.889894 144.65088 
L 357.214873 141.02208 
L 357.539853 144.288 
L 357.864832 145.73952 
L 358.189812 144.288 
L 358.514791 143.56224 
L 358.839771 143.92512 
L 359.16475 142.83648 
L 359.48973 144.65088 
L 359.814709 145.01376 
L 360.139689 143.92512 
L 360.464668 141.74784 
L 360.789648 148.64256 
L 361.114627 142.11072 
L 361.439607 141.02208 
L 361.764586 144.65088 
L 362.089566 146.46528 
L 362.414545 141.38496 
L 362.739525 140.6592 
L 363.064505 141.74784 
L 363.389484 144.288 
L 363.714464 141.74784 
L 364.039443 146.46528 
L 364.689402 142.4736 
L 365.014382 142.4736 
L 365.664341 145.73952 
L 365.98932 141.38496 
L 366.3143 146.82816 
L 366.964259 141.38496 
L 367.289238 141.74784 
L 367.614218 143.92512 
L 367.939197 138.8448 
L 368.264177 146.1024 
L 368.589156 141.74784 
L 368.914136 144.288 
L 369.239115 144.65088 
L 369.564095 144.65088 
L 369.889075 141.38496 
L 370.214054 142.83648 
L 370.539034 143.19936 
L 370.864013 140.29632 
L 371.188993 146.46528 
L 371.513972 142.11072 
L 371.838952 141.38496 
L 372.163931 142.11072 
L 372.488911 141.38496 
L 372.81389 143.92512 
L 373.13887 139.57056 
L 373.463849 141.38496 
L 373.788829 143.92512 
L 374.113808 141.38496 
L 374.438788 140.29632 
L 375.088747 142.83648 
L 375.413726 143.19936 
L 375.738706 146.1024 
L 376.063686 145.01376 
L 376.388665 143.19936 
L 377.038624 140.6592 
L 377.688583 144.288 
L 378.013563 149.7312 
L 378.338542 142.4736 
L 378.663522 144.65088 
L 378.988501 143.92512 
L 379.313481 140.29632 
L 379.96344 144.288 
L 380.288419 143.56224 
L 380.613399 145.73952 
L 380.938378 143.92512 
L 381.263358 143.56224 
L 381.588337 141.74784 
L 381.913317 143.92512 
L 382.238296 143.92512 
L 382.563276 144.65088 
L 382.888256 139.20768 
L 383.213235 144.65088 
L 383.538215 142.4736 
L 383.863194 143.56224 
L 384.188174 146.82816 
L 384.513153 147.55392 
L 384.838133 142.11072 
L 385.163112 143.19936 
L 385.488092 145.01376 
L 385.813071 140.6592 
L 386.138051 144.288 
L 386.46303 142.4736 
L 386.78801 142.4736 
L 387.112989 141.02208 
L 387.437969 140.6592 
L 387.762948 139.57056 
L 388.087928 146.82816 
L 388.412907 143.56224 
L 388.737887 143.92512 
L 389.062867 141.74784 
L 389.387846 143.19936 
L 389.712826 143.56224 
L 390.037805 142.4736 
L 390.362785 143.92512 
L 390.687764 142.83648 
L 391.012744 143.19936 
L 391.337723 145.73952 
L 391.662703 143.56224 
L 391.987682 146.46528 
L 392.312662 143.19936 
L 392.637641 145.73952 
L 392.962621 142.11072 
L 393.61258 142.11072 
L 393.937559 138.11904 
L 394.262539 145.73952 
L 394.912498 143.19936 
L 395.237477 140.6592 
L 395.562457 146.82816 
L 395.887437 144.65088 
L 396.537396 145.37664 
L 396.862375 143.19936 
L 397.187355 145.01376 
L 397.512334 142.4736 
L 397.837314 145.37664 
L 398.162293 143.56224 
L 398.487273 139.93344 
L 398.487273 139.93344 
" clip-path="url(#pd82870338c)" style="fill: none; stroke: #ff0000; stroke-width: 1.5; stroke-linecap: square"/>
   </g>
   <g id="patch_3">
    <path d="M 57.6 307.584 
L 57.6 41.472 
" style="fill: none; stroke: #000000; stroke-width: 0.8; stroke-linejoin: miter; stroke-linecap: square"/>
   </g>
   <g id="patch_4">
    <path d="M 414.72 307.584 
L 414.72 41.472 
" style="fill: none; stroke: #000000; stroke-width: 0.8; stroke-linejoin: miter; stroke-linecap: square"/>
   </g>
   <g id="patch_5">
    <path d="M 57.6 307.584 
L 414.72 307.584 
" style="fill: none; stroke: #000000; stroke-width: 0.8; stroke-linejoin: miter; stroke-linecap: square"/>
   </g>
   <g id="patch_6">
    <path d="M 57.6 41.472 
L 414.72 41.472 
" style="fill: none; stroke: #000000; stroke-width: 0.8; stroke-linejoin: miter; stroke-linecap: square"/>
   </g>
   <g id="text_17">
    <!-- spectrumGCN+PubMed+WithGraph_PubMed_WithOutGraph_Training and Validation accuracy -->
    <g transform="translate(-44.522813 35.472) scale(0.12 -0.12)">
     <defs>
      <path id="DejaVuSans-73" d="M 2834 3397 
L 2834 2853 
Q 2591 2978 2328 3040 
Q 2066 3103 1784 3103 
Q 1356 3103 1142 2972 
Q 928 2841 928 2578 
Q 928 2378 1081 2264 
Q 1234 2150 1697 2047 
L 1894 2003 
Q 2506 1872 2764 1633 
Q 3022 1394 3022 966 
Q 3022 478 2636 193 
Q 2250 -91 1575 -91 
Q 1294 -91 989 -36 
Q 684 19 347 128 
L 347 722 
Q 666 556 975 473 
Q 1284 391 1588 391 
Q 1994 391 2212 530 
Q 2431 669 2431 922 
Q 2431 1156 2273 1281 
Q 2116 1406 1581 1522 
L 1381 1569 
Q 847 1681 609 1914 
Q 372 2147 372 2553 
Q 372 3047 722 3315 
Q 1072 3584 1716 3584 
Q 2034 3584 2315 3537 
Q 2597 3491 2834 3397 
z
" transform="scale(0.015625)"/>
      <path id="DejaVuSans-74" d="M 1172 4494 
L 1172 3500 
L 2356 3500 
L 2356 3053 
L 1172 3053 
L 1172 1153 
Q 1172 725 1289 603 
Q 1406 481 1766 481 
L 2356 481 
L 2356 0 
L 1766 0 
Q 1100 0 847 248 
Q 594 497 594 1153 
L 594 3053 
L 172 3053 
L 172 3500 
L 594 3500 
L 594 4494 
L 1172 4494 
z
" transform="scale(0.015625)"/>
      <path id="DejaVuSans-6d" d="M 3328 2828 
Q 3544 3216 3844 3400 
Q 4144 3584 4550 3584 
Q 5097 3584 5394 3201 
Q 5691 2819 5691 2113 
L 5691 0 
L 5113 0 
L 5113 2094 
Q 5113 2597 4934 2840 
Q 4756 3084 4391 3084 
Q 3944 3084 3684 2787 
Q 3425 2491 3425 1978 
L 3425 0 
L 2847 0 
L 2847 2094 
Q 2847 2600 2669 2842 
Q 2491 3084 2119 3084 
Q 1678 3084 1418 2786 
Q 1159 2488 1159 1978 
L 1159 0 
L 581 0 
L 581 3500 
L 1159 3500 
L 1159 2956 
Q 1356 3278 1631 3431 
Q 1906 3584 2284 3584 
Q 2666 3584 2933 3390 
Q 3200 3197 3328 2828 
z
" transform="scale(0.015625)"/>
      <path id="DejaVuSans-47" d="M 3809 666 
L 3809 1919 
L 2778 1919 
L 2778 2438 
L 4434 2438 
L 4434 434 
Q 4069 175 3628 42 
Q 3188 -91 2688 -91 
Q 1594 -91 976 548 
Q 359 1188 359 2328 
Q 359 3472 976 4111 
Q 1594 4750 2688 4750 
Q 3144 4750 3555 4637 
Q 3966 4525 4313 4306 
L 4313 3634 
Q 3963 3931 3569 4081 
Q 3175 4231 2741 4231 
Q 1884 4231 1454 3753 
Q 1025 3275 1025 2328 
Q 1025 1384 1454 906 
Q 1884 428 2741 428 
Q 3075 428 3337 486 
Q 3600 544 3809 666 
z
" transform="scale(0.015625)"/>
      <path id="DejaVuSans-43" d="M 4122 4306 
L 4122 3641 
Q 3803 3938 3442 4084 
Q 3081 4231 2675 4231 
Q 1875 4231 1450 3742 
Q 1025 3253 1025 2328 
Q 1025 1406 1450 917 
Q 1875 428 2675 428 
Q 3081 428 3442 575 
Q 3803 722 4122 1019 
L 4122 359 
Q 3791 134 3420 21 
Q 3050 -91 2638 -91 
Q 1578 -91 968 557 
Q 359 1206 359 2328 
Q 359 3453 968 4101 
Q 1578 4750 2638 4750 
Q 3056 4750 3426 4639 
Q 3797 4528 4122 4306 
z
" transform="scale(0.015625)"/>
      <path id="DejaVuSans-4e" d="M 628 4666 
L 1478 4666 
L 3547 763 
L 3547 4666 
L 4159 4666 
L 4159 0 
L 3309 0 
L 1241 3903 
L 1241 0 
L 628 0 
L 628 4666 
z
" transform="scale(0.015625)"/>
      <path id="DejaVuSans-2b" d="M 2944 4013 
L 2944 2272 
L 4684 2272 
L 4684 1741 
L 2944 1741 
L 2944 0 
L 2419 0 
L 2419 1741 
L 678 1741 
L 678 2272 
L 2419 2272 
L 2419 4013 
L 2944 4013 
z
" transform="scale(0.015625)"/>
      <path id="DejaVuSans-50" d="M 1259 4147 
L 1259 2394 
L 2053 2394 
Q 2494 2394 2734 2622 
Q 2975 2850 2975 3272 
Q 2975 3691 2734 3919 
Q 2494 4147 2053 4147 
L 1259 4147 
z
M 628 4666 
L 2053 4666 
Q 2838 4666 3239 4311 
Q 3641 3956 3641 3272 
Q 3641 2581 3239 2228 
Q 2838 1875 2053 1875 
L 1259 1875 
L 1259 0 
L 628 0 
L 628 4666 
z
" transform="scale(0.015625)"/>
      <path id="DejaVuSans-62" d="M 3116 1747 
Q 3116 2381 2855 2742 
Q 2594 3103 2138 3103 
Q 1681 3103 1420 2742 
Q 1159 2381 1159 1747 
Q 1159 1113 1420 752 
Q 1681 391 2138 391 
Q 2594 391 2855 752 
Q 3116 1113 3116 1747 
z
M 1159 2969 
Q 1341 3281 1617 3432 
Q 1894 3584 2278 3584 
Q 2916 3584 3314 3078 
Q 3713 2572 3713 1747 
Q 3713 922 3314 415 
Q 2916 -91 2278 -91 
Q 1894 -91 1617 61 
Q 1341 213 1159 525 
L 1159 0 
L 581 0 
L 581 4863 
L 1159 4863 
L 1159 2969 
z
" transform="scale(0.015625)"/>
      <path id="DejaVuSans-4d" d="M 628 4666 
L 1569 4666 
L 2759 1491 
L 3956 4666 
L 4897 4666 
L 4897 0 
L 4281 0 
L 4281 4097 
L 3078 897 
L 2444 897 
L 1241 4097 
L 1241 0 
L 628 0 
L 628 4666 
z
" transform="scale(0.015625)"/>
      <path id="DejaVuSans-64" d="M 2906 2969 
L 2906 4863 
L 3481 4863 
L 3481 0 
L 2906 0 
L 2906 525 
Q 2725 213 2448 61 
Q 2172 -91 1784 -91 
Q 1150 -91 751 415 
Q 353 922 353 1747 
Q 353 2572 751 3078 
Q 1150 3584 1784 3584 
Q 2172 3584 2448 3432 
Q 2725 3281 2906 2969 
z
M 947 1747 
Q 947 1113 1208 752 
Q 1469 391 1925 391 
Q 2381 391 2643 752 
Q 2906 1113 2906 1747 
Q 2906 2381 2643 2742 
Q 2381 3103 1925 3103 
Q 1469 3103 1208 2742 
Q 947 2381 947 1747 
z
" transform="scale(0.015625)"/>
      <path id="DejaVuSans-57" d="M 213 4666 
L 850 4666 
L 1831 722 
L 2809 4666 
L 3519 4666 
L 4500 722 
L 5478 4666 
L 6119 4666 
L 4947 0 
L 4153 0 
L 3169 4050 
L 2175 0 
L 1381 0 
L 213 4666 
z
" transform="scale(0.015625)"/>
      <path id="DejaVuSans-69" d="M 603 3500 
L 1178 3500 
L 1178 0 
L 603 0 
L 603 3500 
z
M 603 4863 
L 1178 4863 
L 1178 4134 
L 603 4134 
L 603 4863 
z
" transform="scale(0.015625)"/>
      <path id="DejaVuSans-5f" d="M 3263 -1063 
L 3263 -1509 
L -63 -1509 
L -63 -1063 
L 3263 -1063 
z
" transform="scale(0.015625)"/>
      <path id="DejaVuSans-4f" d="M 2522 4238 
Q 1834 4238 1429 3725 
Q 1025 3213 1025 2328 
Q 1025 1447 1429 934 
Q 1834 422 2522 422 
Q 3209 422 3611 934 
Q 4013 1447 4013 2328 
Q 4013 3213 3611 3725 
Q 3209 4238 2522 4238 
z
M 2522 4750 
Q 3503 4750 4090 4092 
Q 4678 3434 4678 2328 
Q 4678 1225 4090 567 
Q 3503 -91 2522 -91 
Q 1538 -91 948 565 
Q 359 1222 359 2328 
Q 359 3434 948 4092 
Q 1538 4750 2522 4750 
z
" transform="scale(0.015625)"/>
      <path id="DejaVuSans-54" d="M -19 4666 
L 3928 4666 
L 3928 4134 
L 2272 4134 
L 2272 0 
L 1638 0 
L 1638 4134 
L -19 4134 
L -19 4666 
z
" transform="scale(0.015625)"/>
      <path id="DejaVuSans-6e" d="M 3513 2113 
L 3513 0 
L 2938 0 
L 2938 2094 
Q 2938 2591 2744 2837 
Q 2550 3084 2163 3084 
Q 1697 3084 1428 2787 
Q 1159 2491 1159 1978 
L 1159 0 
L 581 0 
L 581 3500 
L 1159 3500 
L 1159 2956 
Q 1366 3272 1645 3428 
Q 1925 3584 2291 3584 
Q 2894 3584 3203 3211 
Q 3513 2838 3513 2113 
z
" transform="scale(0.015625)"/>
      <path id="DejaVuSans-67" d="M 2906 1791 
Q 2906 2416 2648 2759 
Q 2391 3103 1925 3103 
Q 1463 3103 1205 2759 
Q 947 2416 947 1791 
Q 947 1169 1205 825 
Q 1463 481 1925 481 
Q 2391 481 2648 825 
Q 2906 1169 2906 1791 
z
M 3481 434 
Q 3481 -459 3084 -895 
Q 2688 -1331 1869 -1331 
Q 1566 -1331 1297 -1286 
Q 1028 -1241 775 -1147 
L 775 -588 
Q 1028 -725 1275 -790 
Q 1522 -856 1778 -856 
Q 2344 -856 2625 -561 
Q 2906 -266 2906 331 
L 2906 616 
Q 2728 306 2450 153 
Q 2172 0 1784 0 
Q 1141 0 747 490 
Q 353 981 353 1791 
Q 353 2603 747 3093 
Q 1141 3584 1784 3584 
Q 2172 3584 2450 3431 
Q 2728 3278 2906 2969 
L 2906 3500 
L 3481 3500 
L 3481 434 
z
" transform="scale(0.015625)"/>
      <path id="DejaVuSans-20" transform="scale(0.015625)"/>
      <path id="DejaVuSans-56" d="M 1831 0 
L 50 4666 
L 709 4666 
L 2188 738 
L 3669 4666 
L 4325 4666 
L 2547 0 
L 1831 0 
z
" transform="scale(0.015625)"/>
      <path id="DejaVuSans-6c" d="M 603 4863 
L 1178 4863 
L 1178 0 
L 603 0 
L 603 4863 
z
" transform="scale(0.015625)"/>
     </defs>
     <use xlink:href="#DejaVuSans-73"/>
     <use xlink:href="#DejaVuSans-70" x="52.099609"/>
     <use xlink:href="#DejaVuSans-65" x="115.576172"/>
     <use xlink:href="#DejaVuSans-63" x="177.099609"/>
     <use xlink:href="#DejaVuSans-74" x="232.080078"/>
     <use xlink:href="#DejaVuSans-72" x="271.289062"/>
     <use xlink:href="#DejaVuSans-75" x="312.402344"/>
     <use xlink:href="#DejaVuSans-6d" x="375.78125"/>
     <use xlink:href="#DejaVuSans-47" x="473.193359"/>
     <use xlink:href="#DejaVuSans-43" x="550.683594"/>
     <use xlink:href="#DejaVuSans-4e" x="620.507812"/>
     <use xlink:href="#DejaVuSans-2b" x="695.3125"/>
     <use xlink:href="#DejaVuSans-50" x="779.101562"/>
     <use xlink:href="#DejaVuSans-75" x="837.654297"/>
     <use xlink:href="#DejaVuSans-62" x="901.033203"/>
     <use xlink:href="#DejaVuSans-4d" x="964.509766"/>
     <use xlink:href="#DejaVuSans-65" x="1050.789062"/>
     <use xlink:href="#DejaVuSans-64" x="1112.3125"/>
     <use xlink:href="#DejaVuSans-2b" x="1175.789062"/>
     <use xlink:href="#DejaVuSans-57" x="1259.578125"/>
     <use xlink:href="#DejaVuSans-69" x="1356.205078"/>
     <use xlink:href="#DejaVuSans-74" x="1383.988281"/>
     <use xlink:href="#DejaVuSans-68" x="1423.197266"/>
     <use xlink:href="#DejaVuSans-47" x="1486.576172"/>
     <use xlink:href="#DejaVuSans-72" x="1564.066406"/>
     <use xlink:href="#DejaVuSans-61" x="1605.179688"/>
     <use xlink:href="#DejaVuSans-70" x="1666.458984"/>
     <use xlink:href="#DejaVuSans-68" x="1729.935547"/>
     <use xlink:href="#DejaVuSans-5f" x="1793.314453"/>
     <use xlink:href="#DejaVuSans-50" x="1843.314453"/>
     <use xlink:href="#DejaVuSans-75" x="1901.867188"/>
     <use xlink:href="#DejaVuSans-62" x="1965.246094"/>
     <use xlink:href="#DejaVuSans-4d" x="2028.722656"/>
     <use xlink:href="#DejaVuSans-65" x="2115.001953"/>
     <use xlink:href="#DejaVuSans-64" x="2176.525391"/>
     <use xlink:href="#DejaVuSans-5f" x="2240.001953"/>
     <use xlink:href="#DejaVuSans-57" x="2290.001953"/>
     <use xlink:href="#DejaVuSans-69" x="2386.628906"/>
     <use xlink:href="#DejaVuSans-74" x="2414.412109"/>
     <use xlink:href="#DejaVuSans-68" x="2453.621094"/>
     <use xlink:href="#DejaVuSans-4f" x="2517"/>
     <use xlink:href="#DejaVuSans-75" x="2595.710938"/>
     <use xlink:href="#DejaVuSans-74" x="2659.089844"/>
     <use xlink:href="#DejaVuSans-47" x="2698.298828"/>
     <use xlink:href="#DejaVuSans-72" x="2775.789062"/>
     <use xlink:href="#DejaVuSans-61" x="2816.902344"/>
     <use xlink:href="#DejaVuSans-70" x="2878.181641"/>
     <use xlink:href="#DejaVuSans-68" x="2941.658203"/>
     <use xlink:href="#DejaVuSans-5f" x="3005.037109"/>
     <use xlink:href="#DejaVuSans-54" x="3055.037109"/>
     <use xlink:href="#DejaVuSans-72" x="3101.371094"/>
     <use xlink:href="#DejaVuSans-61" x="3142.484375"/>
     <use xlink:href="#DejaVuSans-69" x="3203.763672"/>
     <use xlink:href="#DejaVuSans-6e" x="3231.546875"/>
     <use xlink:href="#DejaVuSans-69" x="3294.925781"/>
     <use xlink:href="#DejaVuSans-6e" x="3322.708984"/>
     <use xlink:href="#DejaVuSans-67" x="3386.087891"/>
     <use xlink:href="#DejaVuSans-20" x="3449.564453"/>
     <use xlink:href="#DejaVuSans-61" x="3481.351562"/>
     <use xlink:href="#DejaVuSans-6e" x="3542.630859"/>
     <use xlink:href="#DejaVuSans-64" x="3606.009766"/>
     <use xlink:href="#DejaVuSans-20" x="3669.486328"/>
     <use xlink:href="#DejaVuSans-56" x="3701.273438"/>
     <use xlink:href="#DejaVuSans-61" x="3761.931641"/>
     <use xlink:href="#DejaVuSans-6c" x="3823.210938"/>
     <use xlink:href="#DejaVuSans-69" x="3850.994141"/>
     <use xlink:href="#DejaVuSans-64" x="3878.777344"/>
     <use xlink:href="#DejaVuSans-61" x="3942.253906"/>
     <use xlink:href="#DejaVuSans-74" x="4003.533203"/>
     <use xlink:href="#DejaVuSans-69" x="4042.742188"/>
     <use xlink:href="#DejaVuSans-6f" x="4070.525391"/>
     <use xlink:href="#DejaVuSans-6e" x="4131.707031"/>
     <use xlink:href="#DejaVuSans-20" x="4195.085938"/>
     <use xlink:href="#DejaVuSans-61" x="4226.873047"/>
     <use xlink:href="#DejaVuSans-63" x="4288.152344"/>
     <use xlink:href="#DejaVuSans-63" x="4343.132812"/>
     <use xlink:href="#DejaVuSans-75" x="4398.113281"/>
     <use xlink:href="#DejaVuSans-72" x="4461.492188"/>
     <use xlink:href="#DejaVuSans-61" x="4502.605469"/>
     <use xlink:href="#DejaVuSans-63" x="4563.884766"/>
     <use xlink:href="#DejaVuSans-79" x="4618.865234"/>
    </g>
   </g>
   <g id="legend_1">
    <g id="patch_7">
     <path d="M 308.024688 302.584 
L 407.72 302.584 
Q 409.72 302.584 409.72 300.584 
L 409.72 257.549625 
Q 409.72 255.549625 407.72 255.549625 
L 308.024688 255.549625 
Q 306.024688 255.549625 306.024688 257.549625 
L 306.024688 300.584 
Q 306.024688 302.584 308.024688 302.584 
z
" style="fill: #ffffff; opacity: 0.8; stroke: #cccccc; stroke-linejoin: miter"/>
    </g>
    <g id="line2d_18">
     <path d="M 310.024688 263.648062 
L 320.024688 263.648062 
L 330.024688 263.648062 
" style="fill: none; stroke: #0000ff; stroke-width: 1.5; stroke-linecap: square"/>
    </g>
    <g id="text_18">
     <!-- training set -->
     <g transform="translate(338.024688 267.148062) scale(0.1 -0.1)">
      <use xlink:href="#DejaVuSans-74"/>
      <use xlink:href="#DejaVuSans-72" x="39.208984"/>
      <use xlink:href="#DejaVuSans-61" x="80.322266"/>
      <use xlink:href="#DejaVuSans-69" x="141.601562"/>
      <use xlink:href="#DejaVuSans-6e" x="169.384766"/>
      <use xlink:href="#DejaVuSans-69" x="232.763672"/>
      <use xlink:href="#DejaVuSans-6e" x="260.546875"/>
      <use xlink:href="#DejaVuSans-67" x="323.925781"/>
      <use xlink:href="#DejaVuSans-20" x="387.402344"/>
      <use xlink:href="#DejaVuSans-73" x="419.189453"/>
      <use xlink:href="#DejaVuSans-65" x="471.289062"/>
      <use xlink:href="#DejaVuSans-74" x="532.8125"/>
     </g>
    </g>
    <g id="line2d_19">
     <path d="M 310.024688 278.326188 
L 320.024688 278.326188 
L 330.024688 278.326188 
" style="fill: none; stroke: #008000; stroke-width: 1.5; stroke-linecap: square"/>
    </g>
    <g id="text_19">
     <!-- validation set -->
     <g transform="translate(338.024688 281.826188) scale(0.1 -0.1)">
      <defs>
       <path id="DejaVuSans-76" d="M 191 3500 
L 800 3500 
L 1894 563 
L 2988 3500 
L 3597 3500 
L 2284 0 
L 1503 0 
L 191 3500 
z
" transform="scale(0.015625)"/>
      </defs>
      <use xlink:href="#DejaVuSans-76"/>
      <use xlink:href="#DejaVuSans-61" x="59.179688"/>
      <use xlink:href="#DejaVuSans-6c" x="120.458984"/>
      <use xlink:href="#DejaVuSans-69" x="148.242188"/>
      <use xlink:href="#DejaVuSans-64" x="176.025391"/>
      <use xlink:href="#DejaVuSans-61" x="239.501953"/>
      <use xlink:href="#DejaVuSans-74" x="300.78125"/>
      <use xlink:href="#DejaVuSans-69" x="339.990234"/>
      <use xlink:href="#DejaVuSans-6f" x="367.773438"/>
      <use xlink:href="#DejaVuSans-6e" x="428.955078"/>
      <use xlink:href="#DejaVuSans-20" x="492.333984"/>
      <use xlink:href="#DejaVuSans-73" x="524.121094"/>
      <use xlink:href="#DejaVuSans-65" x="576.220703"/>
      <use xlink:href="#DejaVuSans-74" x="637.744141"/>
     </g>
    </g>
    <g id="line2d_20">
     <path d="M 310.024688 293.004312 
L 320.024688 293.004312 
L 330.024688 293.004312 
" style="fill: none; stroke: #ff0000; stroke-width: 1.5; stroke-linecap: square"/>
    </g>
    <g id="text_20">
     <!-- test set -->
     <g transform="translate(338.024688 296.504312) scale(0.1 -0.1)">
      <use xlink:href="#DejaVuSans-74"/>
      <use xlink:href="#DejaVuSans-65" x="39.208984"/>
      <use xlink:href="#DejaVuSans-73" x="100.732422"/>
      <use xlink:href="#DejaVuSans-74" x="152.832031"/>
      <use xlink:href="#DejaVuSans-20" x="192.041016"/>
      <use xlink:href="#DejaVuSans-73" x="223.828125"/>
      <use xlink:href="#DejaVuSans-65" x="275.927734"/>
      <use xlink:href="#DejaVuSans-74" x="337.451172"/>
     </g>
    </g>
   </g>
  </g>
 </g>
 <defs>
  <clipPath id="pd82870338c">
   <rect x="57.6" y="41.472" width="357.12" height="266.112"/>
  </clipPath>
 </defs>
</svg>
