<?xml version="1.0" encoding="utf-8" standalone="no"?>
<!DOCTYPE svg PUBLIC "-//W3C//DTD SVG 1.1//EN"
  "http://www.w3.org/Graphics/SVG/1.1/DTD/svg11.dtd">
<svg xmlns:xlink="http://www.w3.org/1999/xlink" width="460.8pt" height="345.6pt" viewBox="0 0 460.8 345.6" xmlns="http://www.w3.org/2000/svg" version="1.1">
 <metadata>
  <rdf:RDF xmlns:dc="http://purl.org/dc/elements/1.1/" xmlns:cc="http://creativecommons.org/ns#" xmlns:rdf="http://www.w3.org/1999/02/22-rdf-syntax-ns#">
   <cc:Work>
    <dc:type rdf:resource="http://purl.org/dc/dcmitype/StillImage"/>
    <dc:date>2023-04-09T04:00:11.742985</dc:date>
    <dc:format>image/svg+xml</dc:format>
    <dc:creator>
     <cc:Agent>
      <dc:title>Matplotlib v3.7.1, https://matplotlib.org/</dc:title>
     </cc:Agent>
    </dc:creator>
   </cc:Work>
  </rdf:RDF>
 </metadata>
 <defs>
  <style type="text/css">*{stroke-linejoin: round; stroke-linecap: butt}</style>
 </defs>
 <g id="figure_1">
  <g id="patch_1">
   <path d="M 0 345.6 
L 460.8 345.6 
L 460.8 0 
L 0 0 
z
" style="fill: #ffffff"/>
  </g>
  <g id="axes_1">
   <g id="patch_2">
    <path d="M 57.6 307.584 
L 414.72 307.584 
L 414.72 41.472 
L 57.6 41.472 
z
" style="fill: #ffffff"/>
   </g>
   <g id="matplotlib.axis_1">
    <g id="xtick_1">
     <g id="line2d_1">
      <defs>
       <path id="mafe9afe3c0" d="M 0 0 
L 0 3.5 
" style="stroke: #000000; stroke-width: 0.8"/>
      </defs>
      <g>
       <use xlink:href="#mafe9afe3c0" x="73.507748" y="307.584" style="stroke: #000000; stroke-width: 0.8"/>
      </g>
     </g>
     <g id="text_1">
      <!-- 0 -->
      <g transform="translate(70.326498 322.182437) scale(0.1 -0.1)">
       <defs>
        <path id="DejaVuSans-30" d="M 2034 4250 
Q 1547 4250 1301 3770 
Q 1056 3291 1056 2328 
Q 1056 1369 1301 889 
Q 1547 409 2034 409 
Q 2525 409 2770 889 
Q 3016 1369 3016 2328 
Q 3016 3291 2770 3770 
Q 2525 4250 2034 4250 
z
M 2034 4750 
Q 2819 4750 3233 4129 
Q 3647 3509 3647 2328 
Q 3647 1150 3233 529 
Q 2819 -91 2034 -91 
Q 1250 -91 836 529 
Q 422 1150 422 2328 
Q 422 3509 836 4129 
Q 1250 4750 2034 4750 
z
" transform="scale(0.015625)"/>
       </defs>
       <use xlink:href="#DejaVuSans-30"/>
      </g>
     </g>
    </g>
    <g id="xtick_2">
     <g id="line2d_2">
      <g>
       <use xlink:href="#mafe9afe3c0" x="138.503653" y="307.584" style="stroke: #000000; stroke-width: 0.8"/>
      </g>
     </g>
     <g id="text_2">
      <!-- 200 -->
      <g transform="translate(128.959903 322.182437) scale(0.1 -0.1)">
       <defs>
        <path id="DejaVuSans-32" d="M 1228 531 
L 3431 531 
L 3431 0 
L 469 0 
L 469 531 
Q 828 903 1448 1529 
Q 2069 2156 2228 2338 
Q 2531 2678 2651 2914 
Q 2772 3150 2772 3378 
Q 2772 3750 2511 3984 
Q 2250 4219 1831 4219 
Q 1534 4219 1204 4116 
Q 875 4013 500 3803 
L 500 4441 
Q 881 4594 1212 4672 
Q 1544 4750 1819 4750 
Q 2544 4750 2975 4387 
Q 3406 4025 3406 3419 
Q 3406 3131 3298 2873 
Q 3191 2616 2906 2266 
Q 2828 2175 2409 1742 
Q 1991 1309 1228 531 
z
" transform="scale(0.015625)"/>
       </defs>
       <use xlink:href="#DejaVuSans-32"/>
       <use xlink:href="#DejaVuSans-30" x="63.623047"/>
       <use xlink:href="#DejaVuSans-30" x="127.246094"/>
      </g>
     </g>
    </g>
    <g id="xtick_3">
     <g id="line2d_3">
      <g>
       <use xlink:href="#mafe9afe3c0" x="203.499558" y="307.584" style="stroke: #000000; stroke-width: 0.8"/>
      </g>
     </g>
     <g id="text_3">
      <!-- 400 -->
      <g transform="translate(193.955808 322.182437) scale(0.1 -0.1)">
       <defs>
        <path id="DejaVuSans-34" d="M 2419 4116 
L 825 1625 
L 2419 1625 
L 2419 4116 
z
M 2253 4666 
L 3047 4666 
L 3047 1625 
L 3713 1625 
L 3713 1100 
L 3047 1100 
L 3047 0 
L 2419 0 
L 2419 1100 
L 313 1100 
L 313 1709 
L 2253 4666 
z
" transform="scale(0.015625)"/>
       </defs>
       <use xlink:href="#DejaVuSans-34"/>
       <use xlink:href="#DejaVuSans-30" x="63.623047"/>
       <use xlink:href="#DejaVuSans-30" x="127.246094"/>
      </g>
     </g>
    </g>
    <g id="xtick_4">
     <g id="line2d_4">
      <g>
       <use xlink:href="#mafe9afe3c0" x="268.495463" y="307.584" style="stroke: #000000; stroke-width: 0.8"/>
      </g>
     </g>
     <g id="text_4">
      <!-- 600 -->
      <g transform="translate(258.951713 322.182437) scale(0.1 -0.1)">
       <defs>
        <path id="DejaVuSans-36" d="M 2113 2584 
Q 1688 2584 1439 2293 
Q 1191 2003 1191 1497 
Q 1191 994 1439 701 
Q 1688 409 2113 409 
Q 2538 409 2786 701 
Q 3034 994 3034 1497 
Q 3034 2003 2786 2293 
Q 2538 2584 2113 2584 
z
M 3366 4563 
L 3366 3988 
Q 3128 4100 2886 4159 
Q 2644 4219 2406 4219 
Q 1781 4219 1451 3797 
Q 1122 3375 1075 2522 
Q 1259 2794 1537 2939 
Q 1816 3084 2150 3084 
Q 2853 3084 3261 2657 
Q 3669 2231 3669 1497 
Q 3669 778 3244 343 
Q 2819 -91 2113 -91 
Q 1303 -91 875 529 
Q 447 1150 447 2328 
Q 447 3434 972 4092 
Q 1497 4750 2381 4750 
Q 2619 4750 2861 4703 
Q 3103 4656 3366 4563 
z
" transform="scale(0.015625)"/>
       </defs>
       <use xlink:href="#DejaVuSans-36"/>
       <use xlink:href="#DejaVuSans-30" x="63.623047"/>
       <use xlink:href="#DejaVuSans-30" x="127.246094"/>
      </g>
     </g>
    </g>
    <g id="xtick_5">
     <g id="line2d_5">
      <g>
       <use xlink:href="#mafe9afe3c0" x="333.491368" y="307.584" style="stroke: #000000; stroke-width: 0.8"/>
      </g>
     </g>
     <g id="text_5">
      <!-- 800 -->
      <g transform="translate(323.947618 322.182437) scale(0.1 -0.1)">
       <defs>
        <path id="DejaVuSans-38" d="M 2034 2216 
Q 1584 2216 1326 1975 
Q 1069 1734 1069 1313 
Q 1069 891 1326 650 
Q 1584 409 2034 409 
Q 2484 409 2743 651 
Q 3003 894 3003 1313 
Q 3003 1734 2745 1975 
Q 2488 2216 2034 2216 
z
M 1403 2484 
Q 997 2584 770 2862 
Q 544 3141 544 3541 
Q 544 4100 942 4425 
Q 1341 4750 2034 4750 
Q 2731 4750 3128 4425 
Q 3525 4100 3525 3541 
Q 3525 3141 3298 2862 
Q 3072 2584 2669 2484 
Q 3125 2378 3379 2068 
Q 3634 1759 3634 1313 
Q 3634 634 3220 271 
Q 2806 -91 2034 -91 
Q 1263 -91 848 271 
Q 434 634 434 1313 
Q 434 1759 690 2068 
Q 947 2378 1403 2484 
z
M 1172 3481 
Q 1172 3119 1398 2916 
Q 1625 2713 2034 2713 
Q 2441 2713 2670 2916 
Q 2900 3119 2900 3481 
Q 2900 3844 2670 4047 
Q 2441 4250 2034 4250 
Q 1625 4250 1398 4047 
Q 1172 3844 1172 3481 
z
" transform="scale(0.015625)"/>
       </defs>
       <use xlink:href="#DejaVuSans-38"/>
       <use xlink:href="#DejaVuSans-30" x="63.623047"/>
       <use xlink:href="#DejaVuSans-30" x="127.246094"/>
      </g>
     </g>
    </g>
    <g id="xtick_6">
     <g id="line2d_6">
      <g>
       <use xlink:href="#mafe9afe3c0" x="398.487273" y="307.584" style="stroke: #000000; stroke-width: 0.8"/>
      </g>
     </g>
     <g id="text_6">
      <!-- 1000 -->
      <g transform="translate(385.762273 322.182437) scale(0.1 -0.1)">
       <defs>
        <path id="DejaVuSans-31" d="M 794 531 
L 1825 531 
L 1825 4091 
L 703 3866 
L 703 4441 
L 1819 4666 
L 2450 4666 
L 2450 531 
L 3481 531 
L 3481 0 
L 794 0 
L 794 531 
z
" transform="scale(0.015625)"/>
       </defs>
       <use xlink:href="#DejaVuSans-31"/>
       <use xlink:href="#DejaVuSans-30" x="63.623047"/>
       <use xlink:href="#DejaVuSans-30" x="127.246094"/>
       <use xlink:href="#DejaVuSans-30" x="190.869141"/>
      </g>
     </g>
    </g>
    <g id="text_7">
     <!-- epoch -->
     <g transform="translate(220.931875 335.860562) scale(0.1 -0.1)">
      <defs>
       <path id="DejaVuSans-65" d="M 3597 1894 
L 3597 1613 
L 953 1613 
Q 991 1019 1311 708 
Q 1631 397 2203 397 
Q 2534 397 2845 478 
Q 3156 559 3463 722 
L 3463 178 
Q 3153 47 2828 -22 
Q 2503 -91 2169 -91 
Q 1331 -91 842 396 
Q 353 884 353 1716 
Q 353 2575 817 3079 
Q 1281 3584 2069 3584 
Q 2775 3584 3186 3129 
Q 3597 2675 3597 1894 
z
M 3022 2063 
Q 3016 2534 2758 2815 
Q 2500 3097 2075 3097 
Q 1594 3097 1305 2825 
Q 1016 2553 972 2059 
L 3022 2063 
z
" transform="scale(0.015625)"/>
       <path id="DejaVuSans-70" d="M 1159 525 
L 1159 -1331 
L 581 -1331 
L 581 3500 
L 1159 3500 
L 1159 2969 
Q 1341 3281 1617 3432 
Q 1894 3584 2278 3584 
Q 2916 3584 3314 3078 
Q 3713 2572 3713 1747 
Q 3713 922 3314 415 
Q 2916 -91 2278 -91 
Q 1894 -91 1617 61 
Q 1341 213 1159 525 
z
M 3116 1747 
Q 3116 2381 2855 2742 
Q 2594 3103 2138 3103 
Q 1681 3103 1420 2742 
Q 1159 2381 1159 1747 
Q 1159 1113 1420 752 
Q 1681 391 2138 391 
Q 2594 391 2855 752 
Q 3116 1113 3116 1747 
z
" transform="scale(0.015625)"/>
       <path id="DejaVuSans-6f" d="M 1959 3097 
Q 1497 3097 1228 2736 
Q 959 2375 959 1747 
Q 959 1119 1226 758 
Q 1494 397 1959 397 
Q 2419 397 2687 759 
Q 2956 1122 2956 1747 
Q 2956 2369 2687 2733 
Q 2419 3097 1959 3097 
z
M 1959 3584 
Q 2709 3584 3137 3096 
Q 3566 2609 3566 1747 
Q 3566 888 3137 398 
Q 2709 -91 1959 -91 
Q 1206 -91 779 398 
Q 353 888 353 1747 
Q 353 2609 779 3096 
Q 1206 3584 1959 3584 
z
" transform="scale(0.015625)"/>
       <path id="DejaVuSans-63" d="M 3122 3366 
L 3122 2828 
Q 2878 2963 2633 3030 
Q 2388 3097 2138 3097 
Q 1578 3097 1268 2742 
Q 959 2388 959 1747 
Q 959 1106 1268 751 
Q 1578 397 2138 397 
Q 2388 397 2633 464 
Q 2878 531 3122 666 
L 3122 134 
Q 2881 22 2623 -34 
Q 2366 -91 2075 -91 
Q 1284 -91 818 406 
Q 353 903 353 1747 
Q 353 2603 823 3093 
Q 1294 3584 2113 3584 
Q 2378 3584 2631 3529 
Q 2884 3475 3122 3366 
z
" transform="scale(0.015625)"/>
       <path id="DejaVuSans-68" d="M 3513 2113 
L 3513 0 
L 2938 0 
L 2938 2094 
Q 2938 2591 2744 2837 
Q 2550 3084 2163 3084 
Q 1697 3084 1428 2787 
Q 1159 2491 1159 1978 
L 1159 0 
L 581 0 
L 581 4863 
L 1159 4863 
L 1159 2956 
Q 1366 3272 1645 3428 
Q 1925 3584 2291 3584 
Q 2894 3584 3203 3211 
Q 3513 2838 3513 2113 
z
" transform="scale(0.015625)"/>
      </defs>
      <use xlink:href="#DejaVuSans-65"/>
      <use xlink:href="#DejaVuSans-70" x="61.523438"/>
      <use xlink:href="#DejaVuSans-6f" x="125"/>
      <use xlink:href="#DejaVuSans-63" x="186.181641"/>
      <use xlink:href="#DejaVuSans-68" x="241.162109"/>
     </g>
    </g>
   </g>
   <g id="matplotlib.axis_2">
    <g id="ytick_1">
     <g id="line2d_7">
      <defs>
       <path id="m2572fc67c0" d="M 0 0 
L -3.5 0 
" style="stroke: #000000; stroke-width: 0.8"/>
      </defs>
      <g>
       <use xlink:href="#m2572fc67c0" x="57.6" y="282.804816" style="stroke: #000000; stroke-width: 0.8"/>
      </g>
     </g>
     <g id="text_8">
      <!-- 0.2 -->
      <g transform="translate(34.696875 286.604034) scale(0.1 -0.1)">
       <defs>
        <path id="DejaVuSans-2e" d="M 684 794 
L 1344 794 
L 1344 0 
L 684 0 
L 684 794 
z
" transform="scale(0.015625)"/>
       </defs>
       <use xlink:href="#DejaVuSans-30"/>
       <use xlink:href="#DejaVuSans-2e" x="63.623047"/>
       <use xlink:href="#DejaVuSans-32" x="95.410156"/>
      </g>
     </g>
    </g>
    <g id="ytick_2">
     <g id="line2d_8">
      <g>
       <use xlink:href="#m2572fc67c0" x="57.6" y="225.495612" style="stroke: #000000; stroke-width: 0.8"/>
      </g>
     </g>
     <g id="text_9">
      <!-- 0.4 -->
      <g transform="translate(34.696875 229.29483) scale(0.1 -0.1)">
       <use xlink:href="#DejaVuSans-30"/>
       <use xlink:href="#DejaVuSans-2e" x="63.623047"/>
       <use xlink:href="#DejaVuSans-34" x="95.410156"/>
      </g>
     </g>
    </g>
    <g id="ytick_3">
     <g id="line2d_9">
      <g>
       <use xlink:href="#m2572fc67c0" x="57.6" y="168.186408" style="stroke: #000000; stroke-width: 0.8"/>
      </g>
     </g>
     <g id="text_10">
      <!-- 0.6 -->
      <g transform="translate(34.696875 171.985627) scale(0.1 -0.1)">
       <use xlink:href="#DejaVuSans-30"/>
       <use xlink:href="#DejaVuSans-2e" x="63.623047"/>
       <use xlink:href="#DejaVuSans-36" x="95.410156"/>
      </g>
     </g>
    </g>
    <g id="ytick_4">
     <g id="line2d_10">
      <g>
       <use xlink:href="#m2572fc67c0" x="57.6" y="110.877204" style="stroke: #000000; stroke-width: 0.8"/>
      </g>
     </g>
     <g id="text_11">
      <!-- 0.8 -->
      <g transform="translate(34.696875 114.676423) scale(0.1 -0.1)">
       <use xlink:href="#DejaVuSans-30"/>
       <use xlink:href="#DejaVuSans-2e" x="63.623047"/>
       <use xlink:href="#DejaVuSans-38" x="95.410156"/>
      </g>
     </g>
    </g>
    <g id="ytick_5">
     <g id="line2d_11">
      <g>
       <use xlink:href="#m2572fc67c0" x="57.6" y="53.568" style="stroke: #000000; stroke-width: 0.8"/>
      </g>
     </g>
     <g id="text_12">
      <!-- 1.0 -->
      <g transform="translate(34.696875 57.367219) scale(0.1 -0.1)">
       <use xlink:href="#DejaVuSans-31"/>
       <use xlink:href="#DejaVuSans-2e" x="63.623047"/>
       <use xlink:href="#DejaVuSans-30" x="95.410156"/>
      </g>
     </g>
    </g>
    <g id="text_13">
     <!-- accuracy -->
     <g transform="translate(28.617187 197.087375) rotate(-90) scale(0.1 -0.1)">
      <defs>
       <path id="DejaVuSans-61" d="M 2194 1759 
Q 1497 1759 1228 1600 
Q 959 1441 959 1056 
Q 959 750 1161 570 
Q 1363 391 1709 391 
Q 2188 391 2477 730 
Q 2766 1069 2766 1631 
L 2766 1759 
L 2194 1759 
z
M 3341 1997 
L 3341 0 
L 2766 0 
L 2766 531 
Q 2569 213 2275 61 
Q 1981 -91 1556 -91 
Q 1019 -91 701 211 
Q 384 513 384 1019 
Q 384 1609 779 1909 
Q 1175 2209 1959 2209 
L 2766 2209 
L 2766 2266 
Q 2766 2663 2505 2880 
Q 2244 3097 1772 3097 
Q 1472 3097 1187 3025 
Q 903 2953 641 2809 
L 641 3341 
Q 956 3463 1253 3523 
Q 1550 3584 1831 3584 
Q 2591 3584 2966 3190 
Q 3341 2797 3341 1997 
z
" transform="scale(0.015625)"/>
       <path id="DejaVuSans-75" d="M 544 1381 
L 544 3500 
L 1119 3500 
L 1119 1403 
Q 1119 906 1312 657 
Q 1506 409 1894 409 
Q 2359 409 2629 706 
Q 2900 1003 2900 1516 
L 2900 3500 
L 3475 3500 
L 3475 0 
L 2900 0 
L 2900 538 
Q 2691 219 2414 64 
Q 2138 -91 1772 -91 
Q 1169 -91 856 284 
Q 544 659 544 1381 
z
M 1991 3584 
L 1991 3584 
z
" transform="scale(0.015625)"/>
       <path id="DejaVuSans-72" d="M 2631 2963 
Q 2534 3019 2420 3045 
Q 2306 3072 2169 3072 
Q 1681 3072 1420 2755 
Q 1159 2438 1159 1844 
L 1159 0 
L 581 0 
L 581 3500 
L 1159 3500 
L 1159 2956 
Q 1341 3275 1631 3429 
Q 1922 3584 2338 3584 
Q 2397 3584 2469 3576 
Q 2541 3569 2628 3553 
L 2631 2963 
z
" transform="scale(0.015625)"/>
       <path id="DejaVuSans-79" d="M 2059 -325 
Q 1816 -950 1584 -1140 
Q 1353 -1331 966 -1331 
L 506 -1331 
L 506 -850 
L 844 -850 
Q 1081 -850 1212 -737 
Q 1344 -625 1503 -206 
L 1606 56 
L 191 3500 
L 800 3500 
L 1894 763 
L 2988 3500 
L 3597 3500 
L 2059 -325 
z
" transform="scale(0.015625)"/>
      </defs>
      <use xlink:href="#DejaVuSans-61"/>
      <use xlink:href="#DejaVuSans-63" x="61.279297"/>
      <use xlink:href="#DejaVuSans-63" x="116.259766"/>
      <use xlink:href="#DejaVuSans-75" x="171.240234"/>
      <use xlink:href="#DejaVuSans-72" x="234.619141"/>
      <use xlink:href="#DejaVuSans-61" x="275.732422"/>
      <use xlink:href="#DejaVuSans-63" x="337.011719"/>
      <use xlink:href="#DejaVuSans-79" x="391.992188"/>
     </g>
    </g>
   </g>
   <g id="line2d_12">
    <path d="M 73.832727 295.488 
L 74.157707 79.404117 
L 74.482686 67.660427 
L 74.807666 60.614214 
L 75.132645 62.962951 
L 75.457625 58.265476 
L 75.782604 55.916738 
L 76.757543 55.916738 
L 77.082523 53.568 
L 398.487273 53.568 
L 398.487273 53.568 
" clip-path="url(#pa96544c17d)" style="fill: none; stroke: #0000ff; stroke-width: 1.5; stroke-linecap: square"/>
   </g>
   <g id="line2d_13">
    <path d="M 73.832727 292.044208 
L 74.157707 155.326172 
L 74.482686 124.112009 
L 74.807666 121.614876 
L 75.132645 120.990593 
L 75.782604 114.123477 
L 76.107584 113.499194 
L 76.432563 114.74776 
L 76.757543 113.499194 
L 77.082523 112.87491 
L 77.407502 115.996327 
L 78.057461 119.117743 
L 78.382441 119.117743 
L 78.70742 114.123477 
L 79.0324 119.117743 
L 79.357379 121.614876 
L 80.007338 118.49346 
L 80.332318 119.742026 
L 80.657297 120.36631 
L 80.982277 121.614876 
L 81.307256 118.49346 
L 81.632236 125.360576 
L 81.957215 125.984859 
L 82.282195 118.49346 
L 82.932154 121.614876 
L 83.257133 118.49346 
L 83.582113 120.36631 
L 83.907093 117.869176 
L 84.557052 120.990593 
L 84.882031 115.372043 
L 85.85697 124.736292 
L 86.181949 120.990593 
L 86.506929 119.742026 
L 86.831908 117.869176 
L 87.156888 122.239159 
L 87.481867 122.863443 
L 87.806847 122.863443 
L 88.131826 120.990593 
L 88.456806 124.112009 
L 88.781785 125.360576 
L 89.106765 123.487726 
L 89.431744 118.49346 
L 89.756724 125.984859 
L 90.406683 119.742026 
L 90.731663 124.736292 
L 91.381622 119.742026 
L 91.706601 119.117743 
L 92.031581 117.869176 
L 92.35656 120.36631 
L 92.68154 118.49346 
L 93.331499 121.614876 
L 93.656478 119.742026 
L 93.981458 120.990593 
L 94.306437 118.49346 
L 94.631417 122.239159 
L 94.956396 115.996327 
L 95.281376 118.49346 
L 95.606355 117.244893 
L 95.931335 118.49346 
L 96.256314 121.614876 
L 96.581294 123.487726 
L 96.906274 120.36631 
L 97.231253 123.487726 
L 97.556233 120.36631 
L 97.881212 118.49346 
L 98.206192 114.123477 
L 98.531171 120.990593 
L 98.856151 124.736292 
L 99.18113 121.614876 
L 99.50611 115.996327 
L 99.831089 121.614876 
L 100.156069 120.36631 
L 100.481048 115.372043 
L 100.806028 122.863443 
L 101.131007 123.487726 
L 101.455987 124.736292 
L 101.780966 119.117743 
L 102.105946 118.49346 
L 102.430925 122.239159 
L 102.755905 121.614876 
L 103.080885 118.49346 
L 103.405864 121.614876 
L 103.730844 123.487726 
L 104.055823 122.863443 
L 104.380803 121.614876 
L 104.705782 120.990593 
L 105.030762 119.742026 
L 105.355741 121.614876 
L 105.680721 120.36631 
L 106.0057 122.239159 
L 106.33068 122.863443 
L 106.655659 119.742026 
L 106.980639 120.990593 
L 107.630598 122.239159 
L 107.955577 121.614876 
L 108.280557 122.863443 
L 108.605536 122.863443 
L 108.930516 119.117743 
L 109.255495 122.863443 
L 109.580475 124.112009 
L 109.905455 120.36631 
L 110.230434 125.984859 
L 110.880393 120.36631 
L 111.205373 121.614876 
L 111.530352 123.487726 
L 111.855332 122.239159 
L 112.180311 120.36631 
L 112.505291 126.609142 
L 113.15525 120.36631 
L 113.480229 123.487726 
L 113.805209 124.112009 
L 114.130188 126.609142 
L 114.455168 122.239159 
L 114.780147 122.863443 
L 115.105127 119.117743 
L 115.430106 122.863443 
L 115.755086 118.49346 
L 116.080066 112.250627 
L 116.405045 122.863443 
L 117.055004 121.614876 
L 117.379984 125.360576 
L 117.704963 123.487726 
L 118.029943 117.869176 
L 118.354922 120.990593 
L 118.679902 118.49346 
L 119.004881 124.736292 
L 119.329861 123.487726 
L 119.65484 119.117743 
L 119.97982 120.36631 
L 120.304799 116.62061 
L 120.629779 120.36631 
L 120.954758 116.62061 
L 121.279738 119.742026 
L 121.604717 119.742026 
L 121.929697 122.239159 
L 122.254676 119.742026 
L 122.579656 122.239159 
L 122.904636 119.742026 
L 123.229615 120.990593 
L 123.554595 125.360576 
L 123.879574 119.117743 
L 124.204554 121.614876 
L 124.529533 125.984859 
L 124.854513 121.614876 
L 125.179492 124.736292 
L 125.504472 120.36631 
L 125.829451 121.614876 
L 126.154431 119.117743 
L 126.47941 119.742026 
L 126.80439 120.990593 
L 127.454349 116.62061 
L 127.779328 125.360576 
L 128.754267 119.117743 
L 129.404226 120.36631 
L 129.729206 120.36631 
L 130.054185 121.614876 
L 130.379165 123.487726 
L 130.704144 120.36631 
L 131.029124 125.360576 
L 131.679083 120.990593 
L 132.004062 120.36631 
L 132.329042 121.614876 
L 132.654021 124.112009 
L 132.979001 119.742026 
L 133.30398 123.487726 
L 133.62896 119.117743 
L 133.953939 116.62061 
L 134.278919 122.863443 
L 134.603898 125.360576 
L 134.928878 121.614876 
L 135.253857 122.239159 
L 135.578837 118.49346 
L 135.903817 125.360576 
L 136.228796 120.36631 
L 136.553776 122.863443 
L 136.878755 120.990593 
L 137.203735 120.36631 
L 137.528714 118.49346 
L 137.853694 122.239159 
L 138.503653 119.117743 
L 138.828632 120.36631 
L 139.153612 122.863443 
L 139.803571 122.863443 
L 140.12855 119.742026 
L 140.45353 119.117743 
L 140.778509 119.117743 
L 141.103489 122.239159 
L 141.428468 119.117743 
L 141.753448 122.239159 
L 142.078428 119.742026 
L 142.403407 125.984859 
L 142.728387 122.863443 
L 143.378346 120.36631 
L 144.028305 123.487726 
L 144.353284 124.736292 
L 144.678264 124.736292 
L 145.003243 122.239159 
L 145.328223 120.990593 
L 145.653202 122.863443 
L 145.978182 120.990593 
L 146.303161 122.239159 
L 146.628141 119.742026 
L 146.95312 122.239159 
L 147.2781 120.990593 
L 147.603079 120.36631 
L 147.928059 119.117743 
L 148.253038 119.742026 
L 148.578018 122.239159 
L 148.902998 121.614876 
L 149.227977 121.614876 
L 149.552957 120.36631 
L 149.877936 121.614876 
L 150.202916 120.36631 
L 150.527895 124.112009 
L 151.177854 119.117743 
L 151.502834 120.36631 
L 151.827813 127.233425 
L 152.152793 119.742026 
L 152.477772 123.487726 
L 152.802752 120.990593 
L 153.127731 124.112009 
L 153.452711 122.863443 
L 153.77769 119.117743 
L 154.10267 125.360576 
L 154.427649 120.36631 
L 154.752629 119.742026 
L 155.402588 117.244893 
L 155.727568 123.487726 
L 156.052547 122.239159 
L 156.702506 118.49346 
L 157.027486 122.863443 
L 157.352465 120.36631 
L 158.002424 124.112009 
L 158.327404 124.112009 
L 158.652383 119.117743 
L 158.977363 119.117743 
L 159.302342 124.736292 
L 159.627322 118.49346 
L 159.952301 121.614876 
L 160.277281 120.36631 
L 160.60226 121.614876 
L 160.92724 120.36631 
L 161.252219 120.990593 
L 161.577199 122.239159 
L 161.902179 121.614876 
L 162.227158 120.36631 
L 162.552138 122.239159 
L 162.877117 119.117743 
L 163.202097 119.742026 
L 163.527076 121.614876 
L 163.852056 119.742026 
L 164.177035 121.614876 
L 164.502015 118.49346 
L 165.151974 122.239159 
L 165.476953 121.614876 
L 165.801933 122.863443 
L 166.126912 123.487726 
L 166.451892 118.49346 
L 166.776871 117.869176 
L 167.101851 124.112009 
L 167.42683 118.49346 
L 167.75181 121.614876 
L 168.07679 120.990593 
L 168.401769 123.487726 
L 168.726749 120.990593 
L 169.051728 120.36631 
L 169.376708 121.614876 
L 169.701687 126.609142 
L 170.026667 119.117743 
L 170.351646 121.614876 
L 170.676626 121.614876 
L 171.001605 120.36631 
L 171.326585 120.36631 
L 171.651564 122.239159 
L 171.976544 120.36631 
L 172.301523 121.614876 
L 172.626503 116.62061 
L 172.951482 121.614876 
L 173.276462 117.869176 
L 173.601441 120.990593 
L 173.926421 125.360576 
L 174.2514 120.36631 
L 174.57638 119.742026 
L 174.90136 121.614876 
L 175.226339 120.990593 
L 175.551319 122.863443 
L 175.876298 120.36631 
L 176.201278 119.742026 
L 176.851237 119.742026 
L 177.176216 125.984859 
L 177.501196 120.36631 
L 177.826175 124.736292 
L 178.476134 117.869176 
L 178.801114 122.863443 
L 179.126093 120.36631 
L 179.451073 120.36631 
L 179.776052 119.742026 
L 180.101032 124.112009 
L 180.426011 123.487726 
L 180.750991 119.742026 
L 181.075971 119.742026 
L 181.40095 119.117743 
L 181.72593 125.360576 
L 182.050909 122.863443 
L 182.375889 118.49346 
L 183.025848 124.112009 
L 183.350827 120.990593 
L 183.675807 120.36631 
L 184.000786 124.736292 
L 184.325766 120.990593 
L 184.650745 125.984859 
L 185.300704 118.49346 
L 185.625684 124.736292 
L 185.950663 122.863443 
L 186.275643 122.863443 
L 186.600622 119.117743 
L 186.925602 122.863443 
L 187.250581 117.869176 
L 187.575561 123.487726 
L 187.900541 120.36631 
L 188.22552 122.239159 
L 188.5505 121.614876 
L 188.875479 124.736292 
L 189.200459 125.360576 
L 189.525438 120.36631 
L 189.850418 121.614876 
L 190.175397 123.487726 
L 190.500377 120.36631 
L 190.825356 121.614876 
L 191.150336 118.49346 
L 191.475315 122.239159 
L 191.800295 122.239159 
L 192.125274 120.990593 
L 192.450254 122.239159 
L 193.100213 118.49346 
L 193.425192 123.487726 
L 193.750172 120.990593 
L 194.075152 125.360576 
L 194.400131 122.239159 
L 194.725111 117.869176 
L 195.05009 124.112009 
L 195.37507 123.487726 
L 195.700049 124.112009 
L 196.025029 119.117743 
L 196.350008 122.863443 
L 196.674988 120.36631 
L 196.999967 120.36631 
L 197.324947 120.990593 
L 197.649926 123.487726 
L 197.974906 120.36631 
L 198.299885 122.239159 
L 198.624865 119.117743 
L 198.949844 124.112009 
L 199.274824 124.736292 
L 199.924783 120.990593 
L 200.249762 125.984859 
L 200.574742 124.112009 
L 200.899722 120.36631 
L 201.224701 122.239159 
L 201.549681 125.360576 
L 201.87466 125.360576 
L 202.19964 120.990593 
L 202.524619 121.614876 
L 202.849599 119.117743 
L 203.174578 125.984859 
L 203.824537 122.863443 
L 204.149517 119.117743 
L 204.474496 124.736292 
L 204.799476 117.869176 
L 205.124455 119.117743 
L 205.449435 119.742026 
L 205.774414 124.736292 
L 206.099394 122.239159 
L 206.424373 122.239159 
L 206.749353 120.990593 
L 207.074333 120.990593 
L 207.399312 125.984859 
L 207.724292 122.239159 
L 208.049271 122.863443 
L 208.374251 117.869176 
L 208.69923 119.742026 
L 209.02421 122.863443 
L 209.349189 118.49346 
L 209.674169 124.736292 
L 209.999148 125.360576 
L 210.649107 121.614876 
L 210.974087 124.736292 
L 211.624046 119.742026 
L 211.949025 121.614876 
L 212.274005 118.49346 
L 212.598984 118.49346 
L 212.923964 122.239159 
L 213.248943 119.117743 
L 213.573923 124.112009 
L 213.898903 123.487726 
L 214.223882 117.869176 
L 214.548862 122.239159 
L 214.873841 120.36631 
L 215.198821 122.239159 
L 215.5238 125.360576 
L 215.84878 118.49346 
L 216.173759 122.239159 
L 216.498739 120.990593 
L 216.823718 124.112009 
L 217.148698 123.487726 
L 217.473677 119.742026 
L 217.798657 123.487726 
L 218.123636 121.614876 
L 218.448616 122.239159 
L 218.773595 120.36631 
L 219.098575 125.984859 
L 219.423554 124.736292 
L 219.748534 122.863443 
L 220.073514 117.244893 
L 220.398493 126.609142 
L 220.723473 120.990593 
L 221.048452 124.736292 
L 221.373432 124.736292 
L 221.698411 116.62061 
L 222.023391 123.487726 
L 222.34837 116.62061 
L 222.67335 126.609142 
L 222.998329 121.614876 
L 223.323309 124.736292 
L 223.648288 120.36631 
L 223.973268 120.990593 
L 224.298247 120.36631 
L 224.623227 122.239159 
L 224.948206 119.742026 
L 225.273186 120.36631 
L 225.923145 122.863443 
L 226.248124 119.742026 
L 226.573104 120.990593 
L 226.898084 119.742026 
L 227.223063 123.487726 
L 227.548043 125.360576 
L 227.873022 121.614876 
L 228.198002 121.614876 
L 228.522981 125.984859 
L 228.847961 116.62061 
L 229.49792 122.239159 
L 229.822899 123.487726 
L 230.147879 120.990593 
L 230.472858 123.487726 
L 230.797838 122.863443 
L 231.122817 124.112009 
L 231.447797 127.233425 
L 231.772776 119.742026 
L 232.097756 122.863443 
L 232.422735 120.36631 
L 232.747715 121.614876 
L 233.072695 124.736292 
L 233.397674 120.990593 
L 233.722654 121.614876 
L 234.047633 122.863443 
L 234.372613 121.614876 
L 234.697592 120.990593 
L 235.022572 121.614876 
L 235.347551 117.244893 
L 235.672531 118.49346 
L 235.99751 118.49346 
L 236.32249 123.487726 
L 236.972449 120.990593 
L 237.297428 122.863443 
L 237.622408 121.614876 
L 237.947387 125.984859 
L 238.272367 120.36631 
L 238.597346 120.990593 
L 238.922326 124.112009 
L 239.247305 121.614876 
L 239.572285 120.990593 
L 239.897265 119.742026 
L 240.222244 125.360576 
L 240.547224 120.990593 
L 241.197183 116.62061 
L 241.522162 123.487726 
L 242.172121 116.62061 
L 242.82208 122.863443 
L 243.14706 122.863443 
L 243.472039 115.372043 
L 243.797019 119.742026 
L 244.121998 119.742026 
L 244.771957 124.112009 
L 245.096937 116.62061 
L 245.421916 120.990593 
L 245.746896 120.990593 
L 246.071876 118.49346 
L 246.396855 121.614876 
L 247.046814 121.614876 
L 247.371794 122.239159 
L 247.696773 125.360576 
L 248.021753 120.990593 
L 248.346732 125.360576 
L 248.671712 117.244893 
L 248.996691 120.36631 
L 249.321671 125.360576 
L 249.64665 115.996327 
L 249.97163 120.36631 
L 250.296609 120.36631 
L 250.946568 125.984859 
L 251.271548 122.239159 
L 251.921507 120.990593 
L 252.571466 123.487726 
L 252.896446 122.863443 
L 253.221425 121.614876 
L 253.546405 122.863443 
L 253.871384 124.736292 
L 254.196364 122.239159 
L 254.521343 122.239159 
L 254.846323 119.117743 
L 255.171302 119.742026 
L 255.496282 122.863443 
L 256.146241 116.62061 
L 256.47122 119.742026 
L 256.7962 120.990593 
L 257.121179 115.372043 
L 257.446159 122.239159 
L 257.771138 121.614876 
L 258.096118 119.117743 
L 258.421097 122.239159 
L 259.071057 118.49346 
L 259.396036 121.614876 
L 259.721016 121.614876 
L 260.045995 122.863443 
L 260.370975 122.863443 
L 260.695954 118.49346 
L 261.020934 117.244893 
L 261.345913 120.36631 
L 261.670893 122.239159 
L 261.995872 121.614876 
L 262.320852 117.244893 
L 262.645831 118.49346 
L 262.970811 122.239159 
L 263.29579 120.990593 
L 263.62077 121.614876 
L 263.945749 120.36631 
L 264.270729 124.112009 
L 264.595708 119.742026 
L 264.920688 123.487726 
L 265.245667 125.360576 
L 265.570647 124.112009 
L 265.895627 119.742026 
L 266.220606 121.614876 
L 266.545586 121.614876 
L 266.870565 119.117743 
L 267.195545 121.614876 
L 267.520524 120.990593 
L 267.845504 119.742026 
L 268.170483 120.990593 
L 268.495463 117.869176 
L 268.820442 122.863443 
L 269.470401 117.869176 
L 269.795381 122.863443 
L 270.12036 123.487726 
L 270.44534 116.62061 
L 270.770319 117.869176 
L 271.095299 123.487726 
L 271.420278 121.614876 
L 271.745258 117.244893 
L 272.070238 120.990593 
L 272.395217 117.244893 
L 273.045176 123.487726 
L 273.370156 119.742026 
L 273.695135 121.614876 
L 274.020115 121.614876 
L 274.345094 120.990593 
L 274.670074 125.360576 
L 274.995053 120.990593 
L 275.320033 120.990593 
L 275.645012 121.614876 
L 275.969992 119.117743 
L 276.294971 119.742026 
L 276.619951 124.736292 
L 276.94493 123.487726 
L 277.26991 120.990593 
L 277.919869 123.487726 
L 278.244848 121.614876 
L 278.569828 120.990593 
L 278.894808 119.742026 
L 279.219787 122.863443 
L 279.544767 124.736292 
L 279.869746 121.614876 
L 280.194726 119.742026 
L 280.519705 121.614876 
L 280.844685 117.869176 
L 281.169664 119.117743 
L 281.494644 118.49346 
L 281.819623 122.239159 
L 282.144603 119.117743 
L 282.469582 120.36631 
L 282.794562 120.990593 
L 283.119541 119.117743 
L 283.444521 122.239159 
L 283.7695 121.614876 
L 284.09448 120.36631 
L 284.419459 120.990593 
L 285.069419 123.487726 
L 285.394398 122.863443 
L 285.719378 121.614876 
L 286.044357 123.487726 
L 286.369337 120.990593 
L 286.694316 122.863443 
L 287.019296 117.244893 
L 287.344275 120.990593 
L 287.669255 117.869176 
L 287.994234 122.863443 
L 288.319214 120.36631 
L 288.644193 123.487726 
L 288.969173 122.863443 
L 289.294152 119.742026 
L 289.619132 123.487726 
L 289.944111 122.239159 
L 290.269091 123.487726 
L 290.59407 122.239159 
L 290.91905 114.74776 
L 291.244029 116.62061 
L 291.569009 120.36631 
L 291.893989 114.74776 
L 292.218968 122.863443 
L 292.543948 116.62061 
L 292.868927 121.614876 
L 293.193907 123.487726 
L 293.518886 120.990593 
L 293.843866 120.36631 
L 294.168845 121.614876 
L 294.493825 117.869176 
L 294.818804 120.990593 
L 295.143784 121.614876 
L 295.468763 122.863443 
L 295.793743 121.614876 
L 296.118722 122.239159 
L 296.443702 121.614876 
L 296.768681 122.863443 
L 297.093661 120.36631 
L 297.41864 123.487726 
L 297.74362 122.863443 
L 298.0686 125.360576 
L 298.393579 120.990593 
L 298.718559 119.742026 
L 299.043538 122.863443 
L 299.368518 120.36631 
L 299.693497 122.863443 
L 300.018477 123.487726 
L 300.343456 118.49346 
L 300.668436 125.360576 
L 300.993415 117.244893 
L 301.318395 122.863443 
L 301.643374 121.614876 
L 301.968354 120.990593 
L 302.293333 122.863443 
L 302.618313 123.487726 
L 302.943292 119.742026 
L 303.593251 119.742026 
L 303.918231 122.863443 
L 304.24321 117.244893 
L 304.56819 124.736292 
L 304.89317 120.36631 
L 305.218149 124.736292 
L 305.543129 123.487726 
L 305.868108 115.372043 
L 306.193088 120.36631 
L 306.518067 122.239159 
L 306.843047 120.990593 
L 307.168026 122.863443 
L 307.817985 120.36631 
L 308.142965 120.990593 
L 308.467944 117.869176 
L 309.117903 121.614876 
L 309.442883 120.990593 
L 309.767862 118.49346 
L 310.092842 119.117743 
L 310.417821 127.857709 
L 310.742801 122.863443 
L 311.067781 120.36631 
L 311.39276 122.239159 
L 311.71774 121.614876 
L 312.042719 118.49346 
L 312.692678 122.863443 
L 313.017658 119.117743 
L 313.342637 125.360576 
L 313.667617 115.996327 
L 313.992596 120.36631 
L 314.317576 119.742026 
L 314.642555 124.736292 
L 314.967535 119.117743 
L 315.292514 117.244893 
L 315.617494 121.614876 
L 315.942473 120.36631 
L 316.267453 117.869176 
L 316.592432 118.49346 
L 316.917412 124.736292 
L 317.242391 120.990593 
L 317.567371 122.239159 
L 317.892351 117.869176 
L 318.21733 122.239159 
L 318.54231 123.487726 
L 318.867289 119.117743 
L 319.192269 121.614876 
L 319.517248 120.36631 
L 319.842228 120.36631 
L 320.167207 122.863443 
L 320.492187 119.742026 
L 320.817166 122.863443 
L 321.142146 122.863443 
L 321.467125 119.117743 
L 321.792105 120.36631 
L 322.117084 123.487726 
L 322.442064 119.117743 
L 322.767043 124.112009 
L 323.417002 120.36631 
L 324.066962 124.736292 
L 324.391941 120.990593 
L 324.716921 122.863443 
L 325.0419 122.863443 
L 325.36688 120.36631 
L 325.691859 123.487726 
L 326.016839 115.996327 
L 326.341818 120.990593 
L 326.666798 121.614876 
L 326.991777 125.984859 
L 327.316757 118.49346 
L 327.641736 117.244893 
L 327.966716 120.36631 
L 328.291695 121.614876 
L 328.616675 120.36631 
L 328.941654 122.239159 
L 329.266634 119.117743 
L 329.591613 122.239159 
L 329.916593 116.62061 
L 330.566552 120.990593 
L 330.891532 121.614876 
L 331.216511 123.487726 
L 331.541491 122.239159 
L 331.86647 120.36631 
L 332.516429 123.487726 
L 332.841409 119.117743 
L 333.491368 122.239159 
L 333.816347 122.863443 
L 334.141327 120.36631 
L 334.466306 124.112009 
L 334.791286 119.742026 
L 335.116265 119.117743 
L 335.441245 123.487726 
L 335.766224 120.990593 
L 336.091204 119.742026 
L 336.416183 124.736292 
L 336.741163 122.239159 
L 337.066143 121.614876 
L 337.716102 119.117743 
L 338.041081 121.614876 
L 338.366061 116.62061 
L 338.69104 122.863443 
L 339.01602 120.990593 
L 339.340999 116.62061 
L 339.665979 122.239159 
L 339.990958 122.239159 
L 340.640917 119.117743 
L 341.290876 121.614876 
L 341.940835 121.614876 
L 342.265815 122.863443 
L 342.590794 119.117743 
L 342.915774 123.487726 
L 343.240753 122.863443 
L 343.565733 120.990593 
L 343.890713 123.487726 
L 344.215692 123.487726 
L 344.540672 122.239159 
L 344.865651 118.49346 
L 345.190631 121.614876 
L 345.51561 120.990593 
L 345.84059 120.990593 
L 346.165569 125.360576 
L 346.490549 125.360576 
L 346.815528 120.36631 
L 347.140508 123.487726 
L 347.465487 120.990593 
L 347.790467 122.863443 
L 348.115446 122.239159 
L 348.440426 120.990593 
L 348.765405 127.233425 
L 349.090385 120.990593 
L 349.415364 120.36631 
L 349.740344 117.244893 
L 350.065324 125.360576 
L 350.390303 122.239159 
L 350.715283 120.36631 
L 351.040262 117.244893 
L 351.365242 118.49346 
L 351.690221 120.36631 
L 352.015201 117.244893 
L 352.34018 118.49346 
L 352.66516 122.863443 
L 352.990139 124.112009 
L 353.315119 120.990593 
L 353.640098 121.614876 
L 353.965078 121.614876 
L 354.290057 117.244893 
L 354.615037 123.487726 
L 354.940016 124.112009 
L 355.264996 125.984859 
L 355.589975 121.614876 
L 355.914955 122.239159 
L 356.239934 126.609142 
L 356.564914 120.36631 
L 356.889894 117.244893 
L 357.214873 124.736292 
L 357.539853 124.736292 
L 357.864832 117.244893 
L 358.189812 122.239159 
L 358.514791 124.112009 
L 358.839771 120.990593 
L 359.16475 123.487726 
L 359.48973 115.996327 
L 359.814709 119.742026 
L 360.139689 125.360576 
L 360.464668 123.487726 
L 360.789648 124.112009 
L 361.439607 120.36631 
L 361.764586 125.984859 
L 362.089566 120.990593 
L 362.414545 122.863443 
L 362.739525 122.239159 
L 363.064505 122.239159 
L 363.714464 119.117743 
L 364.039443 122.239159 
L 364.364423 123.487726 
L 364.689402 116.62061 
L 365.014382 122.239159 
L 365.339361 121.614876 
L 365.664341 118.49346 
L 365.98932 122.239159 
L 366.3143 120.990593 
L 366.639279 118.49346 
L 366.964259 122.863443 
L 367.289238 120.990593 
L 367.614218 122.239159 
L 367.939197 124.112009 
L 368.264177 118.49346 
L 368.589156 117.869176 
L 368.914136 117.869176 
L 369.239115 125.360576 
L 369.564095 122.863443 
L 369.889075 117.869176 
L 370.214054 125.360576 
L 370.539034 122.239159 
L 370.864013 123.487726 
L 371.188993 117.869176 
L 371.513972 120.36631 
L 372.163931 115.996327 
L 372.81389 120.36631 
L 373.13887 117.869176 
L 373.463849 121.614876 
L 373.788829 118.49346 
L 374.113808 122.239159 
L 374.438788 120.36631 
L 374.763767 120.990593 
L 375.088747 124.736292 
L 375.413726 120.990593 
L 375.738706 119.742026 
L 376.388665 123.487726 
L 376.713645 122.239159 
L 377.038624 122.239159 
L 377.363604 119.742026 
L 377.688583 119.117743 
L 378.013563 119.742026 
L 378.338542 122.863443 
L 378.663522 120.990593 
L 378.988501 123.487726 
L 379.313481 116.62061 
L 379.63846 122.863443 
L 379.96344 124.736292 
L 380.288419 119.742026 
L 380.938378 120.990593 
L 381.263358 120.36631 
L 381.588337 116.62061 
L 381.913317 119.742026 
L 382.238296 120.990593 
L 382.563276 119.742026 
L 382.888256 121.614876 
L 383.213235 120.36631 
L 383.538215 118.49346 
L 383.863194 119.742026 
L 384.188174 118.49346 
L 384.513153 120.36631 
L 384.838133 120.990593 
L 385.163112 122.863443 
L 385.488092 118.49346 
L 385.813071 121.614876 
L 386.138051 118.49346 
L 386.78801 120.990593 
L 387.112989 122.863443 
L 387.437969 119.742026 
L 387.762948 120.36631 
L 388.087928 119.742026 
L 388.412907 120.36631 
L 388.737887 124.112009 
L 389.062867 114.74776 
L 389.387846 122.863443 
L 389.712826 125.360576 
L 390.362785 119.742026 
L 390.687764 119.742026 
L 391.012744 122.863443 
L 391.337723 122.863443 
L 391.662703 120.36631 
L 391.987682 123.487726 
L 392.312662 120.36631 
L 392.637641 122.239159 
L 392.962621 120.36631 
L 393.2876 120.990593 
L 393.61258 122.239159 
L 393.937559 121.614876 
L 394.262539 119.117743 
L 394.587518 120.990593 
L 394.912498 120.36631 
L 395.562457 120.36631 
L 395.887437 120.990593 
L 396.212416 117.869176 
L 396.537396 123.487726 
L 396.862375 118.49346 
L 397.187355 118.49346 
L 397.512334 122.863443 
L 398.162293 119.742026 
L 398.487273 122.863443 
L 398.487273 122.863443 
" clip-path="url(#pa96544c17d)" style="fill: none; stroke: #008000; stroke-width: 1.5; stroke-linecap: square"/>
   </g>
   <g id="line2d_14">
    <path d="M 73.832727 293.139262 
L 74.157707 147.83068 
L 74.482686 126.848621 
L 74.807666 120.898485 
L 75.132645 120.272155 
L 75.782604 114.008854 
L 76.107584 113.695689 
L 76.432563 108.998214 
L 76.757543 112.129864 
L 77.082523 110.564039 
L 77.407502 113.382524 
L 77.732482 111.816699 
L 78.057461 117.766835 
L 78.382441 113.695689 
L 78.70742 113.382524 
L 79.0324 118.393165 
L 79.357379 115.261515 
L 79.682359 110.250874 
L 80.007338 114.94835 
L 80.332318 116.20101 
L 80.657297 115.57468 
L 80.982277 116.20101 
L 81.307256 117.140505 
L 81.632236 115.261515 
L 81.957215 116.514175 
L 82.282195 116.20101 
L 82.607174 118.393165 
L 82.932154 119.019495 
L 83.257133 113.382524 
L 83.907093 114.94835 
L 84.232072 113.069359 
L 84.557052 115.57468 
L 84.882031 115.261515 
L 85.207011 115.261515 
L 85.53199 113.382524 
L 85.85697 114.94835 
L 86.181949 117.140505 
L 86.506929 115.261515 
L 86.831908 120.272155 
L 87.156888 114.635184 
L 87.481867 120.898485 
L 87.806847 116.20101 
L 88.131826 120.272155 
L 88.456806 116.82734 
L 88.781785 121.524816 
L 89.106765 116.82734 
L 89.756724 116.82734 
L 90.081704 116.20101 
L 90.406683 112.443029 
L 90.731663 116.82734 
L 91.056642 117.766835 
L 91.381622 119.33266 
L 91.706601 119.019495 
L 92.031581 116.82734 
L 92.35656 115.887845 
L 92.68154 114.008854 
L 93.006519 118.70633 
L 93.331499 113.695689 
L 93.656478 114.94835 
L 93.981458 114.635184 
L 94.306437 111.816699 
L 94.631417 113.069359 
L 94.956396 115.887845 
L 95.281376 115.261515 
L 95.606355 115.261515 
L 95.931335 113.069359 
L 96.581294 116.514175 
L 96.906274 114.322019 
L 97.556233 116.20101 
L 97.881212 115.887845 
L 98.206192 115.887845 
L 98.531171 116.20101 
L 98.856151 116.20101 
L 99.18113 115.57468 
L 99.50611 118.08 
L 99.831089 118.393165 
L 100.156069 111.816699 
L 100.481048 114.322019 
L 100.806028 115.261515 
L 101.131007 114.008854 
L 101.455987 115.261515 
L 101.780966 115.261515 
L 102.105946 116.514175 
L 102.430925 116.82734 
L 102.755905 114.94835 
L 103.080885 116.20101 
L 103.405864 114.008854 
L 103.730844 116.20101 
L 104.055823 114.322019 
L 104.380803 116.82734 
L 104.705782 117.766835 
L 105.030762 117.140505 
L 105.355741 114.008854 
L 105.680721 117.140505 
L 106.0057 116.514175 
L 106.33068 120.272155 
L 106.655659 113.695689 
L 106.980639 115.57468 
L 107.305618 115.261515 
L 107.630598 114.322019 
L 107.955577 117.45367 
L 108.280557 115.887845 
L 108.605536 117.45367 
L 108.930516 116.20101 
L 109.255495 116.514175 
L 109.580475 114.008854 
L 109.905455 116.82734 
L 110.230434 115.57468 
L 110.880393 119.019495 
L 111.205373 119.33266 
L 111.530352 120.898485 
L 111.855332 118.08 
L 112.180311 118.08 
L 112.83027 118.70633 
L 113.15525 118.70633 
L 113.480229 118.08 
L 113.805209 117.140505 
L 114.130188 117.45367 
L 114.455168 118.70633 
L 114.780147 117.140505 
L 115.105127 117.140505 
L 115.430106 114.94835 
L 115.755086 116.82734 
L 116.080066 117.45367 
L 116.405045 117.45367 
L 116.730025 119.95899 
L 117.055004 116.514175 
L 117.379984 115.887845 
L 117.704963 119.33266 
L 118.029943 116.514175 
L 118.354922 116.82734 
L 118.679902 116.514175 
L 119.004881 114.635184 
L 119.65484 119.019495 
L 119.97982 117.45367 
L 120.304799 118.70633 
L 120.629779 117.140505 
L 120.954758 118.393165 
L 121.279738 120.898485 
L 121.604717 116.82734 
L 121.929697 120.272155 
L 122.254676 116.20101 
L 122.579656 114.635184 
L 122.904636 119.019495 
L 123.229615 114.322019 
L 123.554595 115.261515 
L 123.879574 121.524816 
L 124.204554 117.45367 
L 124.529533 116.514175 
L 124.854513 117.45367 
L 125.179492 119.33266 
L 125.504472 118.70633 
L 125.829451 119.95899 
L 126.154431 114.322019 
L 126.80439 118.70633 
L 127.129369 119.019495 
L 127.454349 116.514175 
L 127.779328 118.393165 
L 128.104308 116.20101 
L 128.429287 116.514175 
L 128.754267 117.766835 
L 129.079247 118.393165 
L 129.404226 116.82734 
L 129.729206 117.45367 
L 130.054185 118.70633 
L 130.379165 118.08 
L 130.704144 118.08 
L 131.029124 114.94835 
L 131.354103 117.45367 
L 131.679083 117.45367 
L 132.004062 119.95899 
L 132.329042 117.766835 
L 132.654021 116.82734 
L 132.979001 118.08 
L 133.62896 115.57468 
L 133.953939 116.514175 
L 134.278919 115.887845 
L 134.603898 117.140505 
L 134.928878 117.140505 
L 135.253857 119.95899 
L 135.578837 114.635184 
L 135.903817 117.140505 
L 136.228796 114.635184 
L 136.553776 116.82734 
L 136.878755 116.20101 
L 137.203735 114.008854 
L 137.528714 116.20101 
L 137.853694 116.514175 
L 138.178673 117.766835 
L 138.503653 117.45367 
L 138.828632 114.635184 
L 139.153612 117.45367 
L 139.478591 115.261515 
L 139.803571 118.393165 
L 140.12855 117.45367 
L 140.45353 118.70633 
L 140.778509 116.514175 
L 141.103489 116.20101 
L 141.428468 118.08 
L 141.753448 118.70633 
L 142.078428 117.766835 
L 142.403407 118.70633 
L 142.728387 119.019495 
L 143.053366 120.272155 
L 143.378346 120.272155 
L 143.703325 118.08 
L 144.028305 119.645825 
L 144.678264 114.635184 
L 145.003243 118.70633 
L 145.328223 118.70633 
L 145.653202 119.95899 
L 145.978182 115.261515 
L 146.303161 117.140505 
L 146.628141 117.45367 
L 146.95312 112.756194 
L 147.2781 118.70633 
L 147.603079 117.140505 
L 147.928059 113.069359 
L 148.253038 119.95899 
L 148.578018 119.019495 
L 148.902998 116.82734 
L 149.227977 119.645825 
L 149.552957 116.514175 
L 149.877936 116.20101 
L 150.202916 119.33266 
L 150.527895 117.766835 
L 150.852875 116.82734 
L 151.177854 117.140505 
L 151.502834 119.95899 
L 152.152793 117.140505 
L 152.477772 116.82734 
L 152.802752 116.20101 
L 153.127731 118.70633 
L 153.77769 118.70633 
L 154.10267 118.08 
L 154.427649 117.140505 
L 154.752629 118.393165 
L 155.077609 117.140505 
L 155.727568 119.33266 
L 156.052547 119.33266 
L 156.377527 114.94835 
L 157.027486 116.20101 
L 157.352465 117.140505 
L 157.677445 119.33266 
L 158.002424 116.514175 
L 158.652383 117.140505 
L 158.977363 114.94835 
L 159.302342 118.70633 
L 159.627322 119.645825 
L 159.952301 115.887845 
L 160.277281 117.45367 
L 160.60226 119.95899 
L 161.252219 116.514175 
L 161.577199 117.140505 
L 161.902179 117.45367 
L 162.552138 119.95899 
L 162.877117 120.272155 
L 163.202097 116.82734 
L 163.527076 117.45367 
L 163.852056 118.393165 
L 164.177035 118.08 
L 164.502015 118.393165 
L 164.826994 114.322019 
L 165.151974 119.33266 
L 165.476953 117.766835 
L 165.801933 115.57468 
L 166.126912 117.45367 
L 166.451892 117.140505 
L 166.776871 116.514175 
L 167.101851 120.58532 
L 167.42683 116.20101 
L 168.07679 119.645825 
L 168.401769 115.887845 
L 168.726749 118.393165 
L 169.051728 115.57468 
L 169.376708 118.08 
L 169.701687 117.766835 
L 170.026667 115.887845 
L 170.351646 119.019495 
L 170.676626 120.272155 
L 171.001605 113.382524 
L 171.326585 117.45367 
L 171.651564 119.019495 
L 171.976544 117.766835 
L 172.301523 119.33266 
L 172.626503 119.645825 
L 172.951482 115.261515 
L 173.276462 115.261515 
L 173.601441 117.766835 
L 173.926421 119.33266 
L 174.2514 116.514175 
L 174.57638 119.019495 
L 174.90136 116.514175 
L 175.226339 118.393165 
L 175.551319 117.766835 
L 175.876298 119.95899 
L 176.201278 118.70633 
L 176.851237 118.70633 
L 177.176216 117.766835 
L 177.501196 120.898485 
L 177.826175 121.21165 
L 178.151155 117.140505 
L 178.476134 114.635184 
L 178.801114 118.70633 
L 179.126093 116.20101 
L 179.451073 119.019495 
L 179.776052 117.140505 
L 180.101032 116.514175 
L 180.426011 117.45367 
L 180.750991 114.635184 
L 181.40095 117.45367 
L 181.72593 114.635184 
L 182.050909 114.94835 
L 182.375889 118.393165 
L 182.700868 116.20101 
L 183.025848 118.393165 
L 183.350827 115.887845 
L 184.000786 119.33266 
L 184.325766 119.95899 
L 184.650745 118.70633 
L 184.975725 116.20101 
L 185.300704 117.766835 
L 185.625684 118.08 
L 185.950663 117.766835 
L 186.275643 116.82734 
L 186.600622 121.21165 
L 186.925602 117.45367 
L 187.250581 121.524816 
L 187.575561 118.08 
L 187.900541 117.766835 
L 188.22552 119.33266 
L 188.5505 116.20101 
L 188.875479 116.514175 
L 189.200459 117.140505 
L 189.525438 120.272155 
L 189.850418 118.70633 
L 190.175397 120.58532 
L 191.150336 118.08 
L 191.475315 118.70633 
L 191.800295 118.70633 
L 192.125274 117.45367 
L 192.450254 117.766835 
L 193.100213 119.33266 
L 193.425192 115.261515 
L 193.750172 114.008854 
L 194.075152 119.33266 
L 194.400131 119.019495 
L 194.725111 116.20101 
L 195.05009 118.08 
L 195.37507 118.70633 
L 195.700049 120.58532 
L 196.025029 119.33266 
L 196.350008 119.645825 
L 196.674988 115.887845 
L 196.999967 119.33266 
L 197.324947 119.019495 
L 197.649926 118.393165 
L 197.974906 118.08 
L 198.299885 118.70633 
L 198.624865 115.887845 
L 198.949844 119.95899 
L 199.274824 120.898485 
L 199.599803 118.70633 
L 199.924783 115.57468 
L 200.249762 119.019495 
L 200.574742 118.08 
L 200.899722 115.261515 
L 201.224701 118.393165 
L 201.549681 119.33266 
L 202.19964 118.70633 
L 202.524619 119.019495 
L 202.849599 116.82734 
L 203.174578 121.524816 
L 203.499558 116.514175 
L 203.824537 117.45367 
L 204.149517 114.008854 
L 204.474496 119.019495 
L 204.799476 118.70633 
L 205.124455 117.766835 
L 205.449435 120.898485 
L 205.774414 121.21165 
L 206.099394 117.45367 
L 206.424373 121.21165 
L 206.749353 122.151146 
L 207.074333 118.08 
L 207.399312 116.82734 
L 207.724292 114.322019 
L 208.049271 119.645825 
L 208.69923 115.887845 
L 209.02421 115.887845 
L 209.349189 116.20101 
L 209.674169 120.58532 
L 209.999148 117.766835 
L 210.324128 120.58532 
L 210.649107 115.887845 
L 210.974087 119.33266 
L 211.299066 117.140505 
L 211.624046 115.887845 
L 211.949025 116.514175 
L 212.274005 120.58532 
L 212.923964 117.45367 
L 213.248943 116.20101 
L 213.573923 119.95899 
L 213.898903 118.08 
L 214.223882 120.898485 
L 214.873841 116.82734 
L 215.198821 118.08 
L 215.5238 118.70633 
L 215.84878 121.524816 
L 216.173759 116.82734 
L 216.498739 116.82734 
L 216.823718 118.70633 
L 217.148698 114.635184 
L 217.798657 119.95899 
L 218.123636 116.20101 
L 218.448616 121.21165 
L 218.773595 120.272155 
L 219.098575 120.58532 
L 219.423554 117.45367 
L 219.748534 117.45367 
L 220.073514 117.140505 
L 220.398493 119.645825 
L 220.723473 119.95899 
L 221.048452 119.019495 
L 221.373432 119.33266 
L 222.023391 118.08 
L 222.34837 117.766835 
L 222.67335 121.524816 
L 222.998329 119.33266 
L 223.323309 118.70633 
L 223.648288 119.019495 
L 223.973268 118.70633 
L 224.298247 120.898485 
L 224.623227 116.82734 
L 224.948206 118.08 
L 225.273186 117.766835 
L 225.598165 115.57468 
L 225.923145 118.393165 
L 226.248124 118.08 
L 226.573104 116.20101 
L 226.898084 119.33266 
L 227.223063 120.58532 
L 227.548043 118.08 
L 227.873022 118.08 
L 228.198002 119.33266 
L 228.522981 121.524816 
L 228.847961 118.70633 
L 229.17294 119.95899 
L 229.49792 114.94835 
L 229.822899 119.019495 
L 230.147879 116.20101 
L 230.472858 116.20101 
L 230.797838 120.272155 
L 231.122817 117.766835 
L 231.447797 117.766835 
L 231.772776 116.82734 
L 232.097756 118.70633 
L 232.422735 119.645825 
L 232.747715 117.766835 
L 233.072695 119.645825 
L 233.397674 118.70633 
L 233.722654 115.887845 
L 234.047633 116.514175 
L 234.372613 116.514175 
L 234.697592 116.82734 
L 235.347551 119.019495 
L 235.672531 116.514175 
L 235.99751 119.019495 
L 236.647469 115.887845 
L 236.972449 119.645825 
L 237.297428 116.82734 
L 237.622408 117.45367 
L 237.947387 119.33266 
L 238.597346 118.08 
L 238.922326 119.95899 
L 239.572285 116.514175 
L 239.897265 118.08 
L 240.222244 116.514175 
L 240.872203 120.272155 
L 241.197183 117.766835 
L 241.522162 117.766835 
L 241.847142 119.95899 
L 242.497101 115.261515 
L 243.14706 120.272155 
L 243.472039 117.766835 
L 243.797019 117.766835 
L 244.121998 117.140505 
L 244.446978 118.08 
L 244.771957 118.08 
L 245.096937 118.70633 
L 245.421916 117.140505 
L 245.746896 118.70633 
L 246.071876 117.45367 
L 246.396855 117.766835 
L 246.721835 118.393165 
L 247.046814 115.57468 
L 247.696773 117.766835 
L 248.021753 118.70633 
L 248.346732 120.898485 
L 248.671712 116.514175 
L 248.996691 117.140505 
L 249.321671 119.645825 
L 249.64665 119.33266 
L 249.97163 117.766835 
L 250.296609 115.261515 
L 250.621589 116.82734 
L 250.946568 119.33266 
L 251.271548 117.45367 
L 251.596527 117.766835 
L 251.921507 118.393165 
L 252.246486 114.322019 
L 253.221425 120.898485 
L 253.546405 116.82734 
L 253.871384 118.70633 
L 254.196364 118.70633 
L 254.521343 117.45367 
L 254.846323 119.019495 
L 255.171302 117.45367 
L 255.496282 117.45367 
L 255.821261 118.70633 
L 256.146241 119.019495 
L 256.47122 114.008854 
L 256.7962 118.393165 
L 257.121179 118.70633 
L 257.446159 120.58532 
L 257.771138 118.08 
L 258.096118 118.70633 
L 258.421097 119.95899 
L 258.746077 119.33266 
L 259.071057 115.887845 
L 259.396036 116.82734 
L 259.721016 116.82734 
L 260.045995 118.70633 
L 260.370975 116.514175 
L 260.695954 119.019495 
L 261.020934 116.82734 
L 261.345913 116.20101 
L 261.670893 119.645825 
L 261.995872 116.514175 
L 262.320852 116.20101 
L 262.645831 119.645825 
L 262.970811 118.393165 
L 263.29579 123.403806 
L 263.945749 113.695689 
L 264.270729 119.019495 
L 264.595708 117.140505 
L 264.920688 116.514175 
L 265.245667 119.33266 
L 266.220606 116.20101 
L 267.195545 121.837981 
L 267.520524 117.45367 
L 267.845504 117.140505 
L 268.170483 115.57468 
L 268.820442 117.45367 
L 269.145422 119.33266 
L 269.470401 118.70633 
L 269.795381 120.272155 
L 270.12036 115.887845 
L 270.44534 116.82734 
L 270.770319 113.695689 
L 271.095299 117.45367 
L 271.420278 117.766835 
L 271.745258 116.20101 
L 272.070238 117.45367 
L 272.395217 117.766835 
L 272.720197 116.514175 
L 273.045176 118.08 
L 273.370156 118.08 
L 273.695135 116.82734 
L 274.345094 119.645825 
L 274.670074 117.45367 
L 275.320033 118.70633 
L 275.645012 115.887845 
L 275.969992 116.20101 
L 276.294971 117.766835 
L 276.619951 119.95899 
L 276.94493 119.645825 
L 277.26991 120.272155 
L 277.594889 118.393165 
L 277.919869 117.766835 
L 278.244848 116.20101 
L 278.569828 116.20101 
L 278.894808 119.645825 
L 279.219787 116.20101 
L 279.544767 114.635184 
L 279.869746 117.140505 
L 280.194726 116.20101 
L 280.519705 118.393165 
L 280.844685 117.766835 
L 281.169664 118.70633 
L 281.494644 117.140505 
L 281.819623 118.70633 
L 282.144603 118.70633 
L 282.469582 116.82734 
L 282.794562 117.140505 
L 283.119541 117.140505 
L 283.444521 119.019495 
L 283.7695 117.140505 
L 284.419459 117.766835 
L 284.744439 116.82734 
L 285.069419 118.70633 
L 285.394398 118.70633 
L 285.719378 117.140505 
L 286.044357 119.95899 
L 286.369337 117.140505 
L 286.694316 116.82734 
L 287.019296 117.766835 
L 287.344275 116.82734 
L 287.669255 120.272155 
L 287.994234 117.140505 
L 288.319214 117.45367 
L 288.644193 119.33266 
L 288.969173 116.82734 
L 289.294152 115.57468 
L 289.619132 120.272155 
L 289.944111 116.514175 
L 290.269091 115.57468 
L 290.59407 118.08 
L 290.91905 118.70633 
L 291.244029 118.08 
L 291.569009 120.272155 
L 291.893989 116.82734 
L 292.218968 119.33266 
L 292.543948 119.019495 
L 292.868927 117.140505 
L 293.193907 121.21165 
L 293.518886 119.019495 
L 293.843866 118.393165 
L 294.168845 117.45367 
L 294.493825 118.393165 
L 294.818804 115.261515 
L 295.143784 116.82734 
L 295.468763 117.140505 
L 295.793743 119.33266 
L 296.118722 117.140505 
L 296.443702 120.58532 
L 296.768681 117.45367 
L 297.093661 118.70633 
L 297.41864 116.20101 
L 297.74362 115.261515 
L 298.0686 119.33266 
L 298.393579 119.019495 
L 298.718559 120.272155 
L 299.043538 115.57468 
L 299.368518 119.645825 
L 299.693497 115.261515 
L 300.018477 119.019495 
L 300.343456 115.261515 
L 300.668436 116.20101 
L 300.993415 116.20101 
L 301.643374 118.393165 
L 301.968354 117.45367 
L 302.293333 118.393165 
L 302.618313 120.898485 
L 302.943292 114.94835 
L 303.268272 119.019495 
L 303.593251 118.70633 
L 303.918231 120.58532 
L 304.24321 117.45367 
L 304.56819 119.645825 
L 304.89317 117.45367 
L 305.218149 116.514175 
L 305.543129 120.272155 
L 305.868108 117.45367 
L 306.193088 119.95899 
L 306.518067 118.70633 
L 306.843047 120.58532 
L 307.168026 116.82734 
L 307.493006 118.70633 
L 308.142965 119.33266 
L 308.467944 117.45367 
L 308.792924 116.82734 
L 309.117903 116.82734 
L 309.442883 118.08 
L 309.767862 116.82734 
L 310.092842 116.20101 
L 310.417821 119.645825 
L 310.742801 121.837981 
L 311.067781 118.08 
L 311.39276 119.019495 
L 312.367699 115.261515 
L 312.692678 116.82734 
L 313.017658 120.898485 
L 313.992596 116.20101 
L 314.317576 121.21165 
L 314.642555 120.898485 
L 314.967535 117.45367 
L 315.292514 115.887845 
L 315.617494 115.887845 
L 315.942473 117.140505 
L 316.267453 119.019495 
L 316.592432 118.393165 
L 316.917412 116.20101 
L 317.242391 116.20101 
L 317.567371 115.57468 
L 317.892351 115.57468 
L 318.21733 119.33266 
L 318.54231 119.33266 
L 318.867289 118.393165 
L 319.192269 118.393165 
L 319.842228 116.514175 
L 320.167207 117.45367 
L 320.492187 116.514175 
L 320.817166 117.45367 
L 321.142146 115.261515 
L 321.467125 120.58532 
L 321.792105 119.33266 
L 322.117084 119.33266 
L 322.442064 115.57468 
L 322.767043 119.019495 
L 323.092023 118.393165 
L 323.417002 116.514175 
L 323.741982 119.019495 
L 324.066962 119.645825 
L 324.391941 117.45367 
L 324.716921 117.766835 
L 325.0419 116.20101 
L 325.36688 118.70633 
L 325.691859 117.45367 
L 326.016839 118.70633 
L 326.341818 116.82734 
L 326.666798 115.887845 
L 326.991777 119.645825 
L 327.316757 119.33266 
L 327.966716 114.94835 
L 328.291695 116.514175 
L 328.616675 115.261515 
L 328.941654 116.514175 
L 329.266634 119.645825 
L 329.591613 114.94835 
L 329.916593 119.019495 
L 330.241572 119.33266 
L 330.566552 120.58532 
L 330.891532 119.33266 
L 331.216511 120.272155 
L 331.541491 118.393165 
L 331.86647 118.393165 
L 332.19145 118.70633 
L 332.516429 118.393165 
L 332.841409 118.70633 
L 333.166388 120.58532 
L 333.491368 119.645825 
L 333.816347 119.645825 
L 334.141327 120.272155 
L 334.466306 118.393165 
L 334.791286 118.08 
L 335.116265 118.393165 
L 335.441245 117.45367 
L 335.766224 119.019495 
L 336.091204 119.33266 
L 336.416183 118.08 
L 336.741163 116.20101 
L 337.066143 115.57468 
L 337.391122 119.33266 
L 337.716102 119.33266 
L 338.041081 117.766835 
L 338.366061 119.645825 
L 338.69104 116.20101 
L 339.01602 117.766835 
L 339.340999 118.08 
L 339.665979 117.140505 
L 339.990958 115.57468 
L 340.315938 117.45367 
L 340.640917 116.514175 
L 340.965897 118.70633 
L 341.290876 117.766835 
L 341.615856 119.019495 
L 341.940835 116.82734 
L 342.265815 118.08 
L 342.590794 120.272155 
L 342.915774 121.21165 
L 343.240753 116.20101 
L 343.565733 117.766835 
L 343.890713 118.70633 
L 344.215692 116.20101 
L 344.865651 119.645825 
L 345.190631 120.58532 
L 345.51561 116.514175 
L 345.84059 119.33266 
L 346.165569 117.45367 
L 346.815528 118.70633 
L 347.140508 118.08 
L 347.465487 119.019495 
L 347.790467 119.019495 
L 348.115446 115.887845 
L 348.440426 117.766835 
L 348.765405 117.766835 
L 349.090385 119.645825 
L 349.415364 116.82734 
L 349.740344 118.70633 
L 350.065324 119.645825 
L 350.390303 115.261515 
L 350.715283 119.645825 
L 351.040262 117.140505 
L 351.365242 116.514175 
L 351.690221 116.514175 
L 352.015201 118.08 
L 352.34018 118.393165 
L 352.66516 118.08 
L 352.990139 119.95899 
L 353.315119 117.140505 
L 353.640098 115.887845 
L 354.290057 117.766835 
L 354.615037 121.21165 
L 354.940016 118.70633 
L 355.264996 119.645825 
L 355.589975 117.45367 
L 355.914955 119.645825 
L 356.239934 115.261515 
L 356.564914 115.261515 
L 357.214873 117.140505 
L 357.539853 119.019495 
L 357.864832 119.019495 
L 358.189812 120.272155 
L 358.839771 117.45367 
L 359.16475 119.33266 
L 359.48973 117.140505 
L 359.814709 117.766835 
L 360.139689 117.140505 
L 360.464668 119.33266 
L 360.789648 118.08 
L 361.439607 118.08 
L 361.764586 119.95899 
L 362.089566 117.45367 
L 362.414545 119.33266 
L 362.739525 119.019495 
L 363.064505 120.272155 
L 363.389484 118.08 
L 363.714464 119.33266 
L 364.039443 119.33266 
L 364.364423 117.45367 
L 364.689402 117.45367 
L 365.014382 117.766835 
L 365.339361 118.70633 
L 365.664341 116.514175 
L 365.98932 118.08 
L 366.3143 118.393165 
L 366.639279 117.766835 
L 366.964259 120.58532 
L 367.289238 116.20101 
L 367.614218 115.887845 
L 368.264177 118.70633 
L 368.589156 117.140505 
L 368.914136 117.140505 
L 369.239115 118.393165 
L 369.564095 118.70633 
L 369.889075 118.08 
L 370.214054 114.635184 
L 370.539034 119.645825 
L 370.864013 119.95899 
L 371.188993 119.645825 
L 371.513972 120.58532 
L 371.838952 119.33266 
L 372.163931 115.887845 
L 372.488911 120.898485 
L 372.81389 117.45367 
L 373.13887 118.70633 
L 373.463849 120.58532 
L 373.788829 120.898485 
L 374.113808 117.140505 
L 374.438788 117.766835 
L 374.763767 114.635184 
L 375.088747 119.95899 
L 375.413726 119.645825 
L 375.738706 118.08 
L 376.063686 118.08 
L 376.713645 117.45367 
L 377.038624 118.393165 
L 377.363604 116.20101 
L 378.013563 118.393165 
L 378.338542 115.261515 
L 378.663522 119.645825 
L 379.313481 116.82734 
L 379.63846 119.019495 
L 379.96344 117.140505 
L 380.288419 116.514175 
L 380.613399 118.70633 
L 380.938378 116.514175 
L 381.263358 116.20101 
L 381.588337 117.45367 
L 381.913317 115.887845 
L 382.238296 121.837981 
L 382.563276 117.140505 
L 382.888256 116.514175 
L 383.213235 119.645825 
L 383.538215 117.45367 
L 383.863194 117.45367 
L 384.188174 119.33266 
L 384.513153 115.57468 
L 384.838133 119.645825 
L 385.163112 115.887845 
L 385.488092 118.70633 
L 386.138051 115.261515 
L 386.46303 119.33266 
L 386.78801 118.70633 
L 387.112989 117.140505 
L 387.437969 118.08 
L 387.762948 116.20101 
L 388.412907 118.08 
L 389.062867 116.514175 
L 389.387846 117.140505 
L 389.712826 118.08 
L 390.037805 116.82734 
L 390.362785 118.70633 
L 390.687764 119.019495 
L 391.012744 116.514175 
L 391.337723 119.95899 
L 391.662703 117.45367 
L 391.987682 119.95899 
L 392.312662 118.70633 
L 392.637641 116.514175 
L 392.962621 119.95899 
L 393.2876 116.514175 
L 393.61258 118.70633 
L 393.937559 119.33266 
L 394.262539 118.70633 
L 394.587518 119.019495 
L 394.912498 118.70633 
L 395.562457 119.33266 
L 395.887437 116.20101 
L 396.212416 120.58532 
L 396.537396 117.45367 
L 396.862375 122.464311 
L 397.512334 116.20101 
L 397.837314 121.21165 
L 398.162293 119.019495 
L 398.487273 119.33266 
L 398.487273 119.33266 
" clip-path="url(#pa96544c17d)" style="fill: none; stroke: #ff0000; stroke-width: 1.5; stroke-linecap: square"/>
   </g>
   <g id="patch_3">
    <path d="M 57.6 307.584 
L 57.6 41.472 
" style="fill: none; stroke: #000000; stroke-width: 0.8; stroke-linejoin: miter; stroke-linecap: square"/>
   </g>
   <g id="patch_4">
    <path d="M 414.72 307.584 
L 414.72 41.472 
" style="fill: none; stroke: #000000; stroke-width: 0.8; stroke-linejoin: miter; stroke-linecap: square"/>
   </g>
   <g id="patch_5">
    <path d="M 57.6 307.584 
L 414.72 307.584 
" style="fill: none; stroke: #000000; stroke-width: 0.8; stroke-linejoin: miter; stroke-linecap: square"/>
   </g>
   <g id="patch_6">
    <path d="M 57.6 41.472 
L 414.72 41.472 
" style="fill: none; stroke: #000000; stroke-width: 0.8; stroke-linejoin: miter; stroke-linecap: square"/>
   </g>
   <g id="text_14">
    <!-- spectrumGCN+Cora+WithGraph_Cora_WithOutGraph_Training and Validation accuracy -->
    <g transform="translate(-24.927187 35.472) scale(0.12 -0.12)">
     <defs>
      <path id="DejaVuSans-73" d="M 2834 3397 
L 2834 2853 
Q 2591 2978 2328 3040 
Q 2066 3103 1784 3103 
Q 1356 3103 1142 2972 
Q 928 2841 928 2578 
Q 928 2378 1081 2264 
Q 1234 2150 1697 2047 
L 1894 2003 
Q 2506 1872 2764 1633 
Q 3022 1394 3022 966 
Q 3022 478 2636 193 
Q 2250 -91 1575 -91 
Q 1294 -91 989 -36 
Q 684 19 347 128 
L 347 722 
Q 666 556 975 473 
Q 1284 391 1588 391 
Q 1994 391 2212 530 
Q 2431 669 2431 922 
Q 2431 1156 2273 1281 
Q 2116 1406 1581 1522 
L 1381 1569 
Q 847 1681 609 1914 
Q 372 2147 372 2553 
Q 372 3047 722 3315 
Q 1072 3584 1716 3584 
Q 2034 3584 2315 3537 
Q 2597 3491 2834 3397 
z
" transform="scale(0.015625)"/>
      <path id="DejaVuSans-74" d="M 1172 4494 
L 1172 3500 
L 2356 3500 
L 2356 3053 
L 1172 3053 
L 1172 1153 
Q 1172 725 1289 603 
Q 1406 481 1766 481 
L 2356 481 
L 2356 0 
L 1766 0 
Q 1100 0 847 248 
Q 594 497 594 1153 
L 594 3053 
L 172 3053 
L 172 3500 
L 594 3500 
L 594 4494 
L 1172 4494 
z
" transform="scale(0.015625)"/>
      <path id="DejaVuSans-6d" d="M 3328 2828 
Q 3544 3216 3844 3400 
Q 4144 3584 4550 3584 
Q 5097 3584 5394 3201 
Q 5691 2819 5691 2113 
L 5691 0 
L 5113 0 
L 5113 2094 
Q 5113 2597 4934 2840 
Q 4756 3084 4391 3084 
Q 3944 3084 3684 2787 
Q 3425 2491 3425 1978 
L 3425 0 
L 2847 0 
L 2847 2094 
Q 2847 2600 2669 2842 
Q 2491 3084 2119 3084 
Q 1678 3084 1418 2786 
Q 1159 2488 1159 1978 
L 1159 0 
L 581 0 
L 581 3500 
L 1159 3500 
L 1159 2956 
Q 1356 3278 1631 3431 
Q 1906 3584 2284 3584 
Q 2666 3584 2933 3390 
Q 3200 3197 3328 2828 
z
" transform="scale(0.015625)"/>
      <path id="DejaVuSans-47" d="M 3809 666 
L 3809 1919 
L 2778 1919 
L 2778 2438 
L 4434 2438 
L 4434 434 
Q 4069 175 3628 42 
Q 3188 -91 2688 -91 
Q 1594 -91 976 548 
Q 359 1188 359 2328 
Q 359 3472 976 4111 
Q 1594 4750 2688 4750 
Q 3144 4750 3555 4637 
Q 3966 4525 4313 4306 
L 4313 3634 
Q 3963 3931 3569 4081 
Q 3175 4231 2741 4231 
Q 1884 4231 1454 3753 
Q 1025 3275 1025 2328 
Q 1025 1384 1454 906 
Q 1884 428 2741 428 
Q 3075 428 3337 486 
Q 3600 544 3809 666 
z
" transform="scale(0.015625)"/>
      <path id="DejaVuSans-43" d="M 4122 4306 
L 4122 3641 
Q 3803 3938 3442 4084 
Q 3081 4231 2675 4231 
Q 1875 4231 1450 3742 
Q 1025 3253 1025 2328 
Q 1025 1406 1450 917 
Q 1875 428 2675 428 
Q 3081 428 3442 575 
Q 3803 722 4122 1019 
L 4122 359 
Q 3791 134 3420 21 
Q 3050 -91 2638 -91 
Q 1578 -91 968 557 
Q 359 1206 359 2328 
Q 359 3453 968 4101 
Q 1578 4750 2638 4750 
Q 3056 4750 3426 4639 
Q 3797 4528 4122 4306 
z
" transform="scale(0.015625)"/>
      <path id="DejaVuSans-4e" d="M 628 4666 
L 1478 4666 
L 3547 763 
L 3547 4666 
L 4159 4666 
L 4159 0 
L 3309 0 
L 1241 3903 
L 1241 0 
L 628 0 
L 628 4666 
z
" transform="scale(0.015625)"/>
      <path id="DejaVuSans-2b" d="M 2944 4013 
L 2944 2272 
L 4684 2272 
L 4684 1741 
L 2944 1741 
L 2944 0 
L 2419 0 
L 2419 1741 
L 678 1741 
L 678 2272 
L 2419 2272 
L 2419 4013 
L 2944 4013 
z
" transform="scale(0.015625)"/>
      <path id="DejaVuSans-57" d="M 213 4666 
L 850 4666 
L 1831 722 
L 2809 4666 
L 3519 4666 
L 4500 722 
L 5478 4666 
L 6119 4666 
L 4947 0 
L 4153 0 
L 3169 4050 
L 2175 0 
L 1381 0 
L 213 4666 
z
" transform="scale(0.015625)"/>
      <path id="DejaVuSans-69" d="M 603 3500 
L 1178 3500 
L 1178 0 
L 603 0 
L 603 3500 
z
M 603 4863 
L 1178 4863 
L 1178 4134 
L 603 4134 
L 603 4863 
z
" transform="scale(0.015625)"/>
      <path id="DejaVuSans-5f" d="M 3263 -1063 
L 3263 -1509 
L -63 -1509 
L -63 -1063 
L 3263 -1063 
z
" transform="scale(0.015625)"/>
      <path id="DejaVuSans-4f" d="M 2522 4238 
Q 1834 4238 1429 3725 
Q 1025 3213 1025 2328 
Q 1025 1447 1429 934 
Q 1834 422 2522 422 
Q 3209 422 3611 934 
Q 4013 1447 4013 2328 
Q 4013 3213 3611 3725 
Q 3209 4238 2522 4238 
z
M 2522 4750 
Q 3503 4750 4090 4092 
Q 4678 3434 4678 2328 
Q 4678 1225 4090 567 
Q 3503 -91 2522 -91 
Q 1538 -91 948 565 
Q 359 1222 359 2328 
Q 359 3434 948 4092 
Q 1538 4750 2522 4750 
z
" transform="scale(0.015625)"/>
      <path id="DejaVuSans-54" d="M -19 4666 
L 3928 4666 
L 3928 4134 
L 2272 4134 
L 2272 0 
L 1638 0 
L 1638 4134 
L -19 4134 
L -19 4666 
z
" transform="scale(0.015625)"/>
      <path id="DejaVuSans-6e" d="M 3513 2113 
L 3513 0 
L 2938 0 
L 2938 2094 
Q 2938 2591 2744 2837 
Q 2550 3084 2163 3084 
Q 1697 3084 1428 2787 
Q 1159 2491 1159 1978 
L 1159 0 
L 581 0 
L 581 3500 
L 1159 3500 
L 1159 2956 
Q 1366 3272 1645 3428 
Q 1925 3584 2291 3584 
Q 2894 3584 3203 3211 
Q 3513 2838 3513 2113 
z
" transform="scale(0.015625)"/>
      <path id="DejaVuSans-67" d="M 2906 1791 
Q 2906 2416 2648 2759 
Q 2391 3103 1925 3103 
Q 1463 3103 1205 2759 
Q 947 2416 947 1791 
Q 947 1169 1205 825 
Q 1463 481 1925 481 
Q 2391 481 2648 825 
Q 2906 1169 2906 1791 
z
M 3481 434 
Q 3481 -459 3084 -895 
Q 2688 -1331 1869 -1331 
Q 1566 -1331 1297 -1286 
Q 1028 -1241 775 -1147 
L 775 -588 
Q 1028 -725 1275 -790 
Q 1522 -856 1778 -856 
Q 2344 -856 2625 -561 
Q 2906 -266 2906 331 
L 2906 616 
Q 2728 306 2450 153 
Q 2172 0 1784 0 
Q 1141 0 747 490 
Q 353 981 353 1791 
Q 353 2603 747 3093 
Q 1141 3584 1784 3584 
Q 2172 3584 2450 3431 
Q 2728 3278 2906 2969 
L 2906 3500 
L 3481 3500 
L 3481 434 
z
" transform="scale(0.015625)"/>
      <path id="DejaVuSans-20" transform="scale(0.015625)"/>
      <path id="DejaVuSans-64" d="M 2906 2969 
L 2906 4863 
L 3481 4863 
L 3481 0 
L 2906 0 
L 2906 525 
Q 2725 213 2448 61 
Q 2172 -91 1784 -91 
Q 1150 -91 751 415 
Q 353 922 353 1747 
Q 353 2572 751 3078 
Q 1150 3584 1784 3584 
Q 2172 3584 2448 3432 
Q 2725 3281 2906 2969 
z
M 947 1747 
Q 947 1113 1208 752 
Q 1469 391 1925 391 
Q 2381 391 2643 752 
Q 2906 1113 2906 1747 
Q 2906 2381 2643 2742 
Q 2381 3103 1925 3103 
Q 1469 3103 1208 2742 
Q 947 2381 947 1747 
z
" transform="scale(0.015625)"/>
      <path id="DejaVuSans-56" d="M 1831 0 
L 50 4666 
L 709 4666 
L 2188 738 
L 3669 4666 
L 4325 4666 
L 2547 0 
L 1831 0 
z
" transform="scale(0.015625)"/>
      <path id="DejaVuSans-6c" d="M 603 4863 
L 1178 4863 
L 1178 0 
L 603 0 
L 603 4863 
z
" transform="scale(0.015625)"/>
     </defs>
     <use xlink:href="#DejaVuSans-73"/>
     <use xlink:href="#DejaVuSans-70" x="52.099609"/>
     <use xlink:href="#DejaVuSans-65" x="115.576172"/>
     <use xlink:href="#DejaVuSans-63" x="177.099609"/>
     <use xlink:href="#DejaVuSans-74" x="232.080078"/>
     <use xlink:href="#DejaVuSans-72" x="271.289062"/>
     <use xlink:href="#DejaVuSans-75" x="312.402344"/>
     <use xlink:href="#DejaVuSans-6d" x="375.78125"/>
     <use xlink:href="#DejaVuSans-47" x="473.193359"/>
     <use xlink:href="#DejaVuSans-43" x="550.683594"/>
     <use xlink:href="#DejaVuSans-4e" x="620.507812"/>
     <use xlink:href="#DejaVuSans-2b" x="695.3125"/>
     <use xlink:href="#DejaVuSans-43" x="779.101562"/>
     <use xlink:href="#DejaVuSans-6f" x="848.925781"/>
     <use xlink:href="#DejaVuSans-72" x="910.107422"/>
     <use xlink:href="#DejaVuSans-61" x="951.220703"/>
     <use xlink:href="#DejaVuSans-2b" x="1012.5"/>
     <use xlink:href="#DejaVuSans-57" x="1096.289062"/>
     <use xlink:href="#DejaVuSans-69" x="1192.916016"/>
     <use xlink:href="#DejaVuSans-74" x="1220.699219"/>
     <use xlink:href="#DejaVuSans-68" x="1259.908203"/>
     <use xlink:href="#DejaVuSans-47" x="1323.287109"/>
     <use xlink:href="#DejaVuSans-72" x="1400.777344"/>
     <use xlink:href="#DejaVuSans-61" x="1441.890625"/>
     <use xlink:href="#DejaVuSans-70" x="1503.169922"/>
     <use xlink:href="#DejaVuSans-68" x="1566.646484"/>
     <use xlink:href="#DejaVuSans-5f" x="1630.025391"/>
     <use xlink:href="#DejaVuSans-43" x="1680.025391"/>
     <use xlink:href="#DejaVuSans-6f" x="1749.849609"/>
     <use xlink:href="#DejaVuSans-72" x="1811.03125"/>
     <use xlink:href="#DejaVuSans-61" x="1852.144531"/>
     <use xlink:href="#DejaVuSans-5f" x="1913.423828"/>
     <use xlink:href="#DejaVuSans-57" x="1963.423828"/>
     <use xlink:href="#DejaVuSans-69" x="2060.050781"/>
     <use xlink:href="#DejaVuSans-74" x="2087.833984"/>
     <use xlink:href="#DejaVuSans-68" x="2127.042969"/>
     <use xlink:href="#DejaVuSans-4f" x="2190.421875"/>
     <use xlink:href="#DejaVuSans-75" x="2269.132812"/>
     <use xlink:href="#DejaVuSans-74" x="2332.511719"/>
     <use xlink:href="#DejaVuSans-47" x="2371.720703"/>
     <use xlink:href="#DejaVuSans-72" x="2449.210938"/>
     <use xlink:href="#DejaVuSans-61" x="2490.324219"/>
     <use xlink:href="#DejaVuSans-70" x="2551.603516"/>
     <use xlink:href="#DejaVuSans-68" x="2615.080078"/>
     <use xlink:href="#DejaVuSans-5f" x="2678.458984"/>
     <use xlink:href="#DejaVuSans-54" x="2728.458984"/>
     <use xlink:href="#DejaVuSans-72" x="2774.792969"/>
     <use xlink:href="#DejaVuSans-61" x="2815.90625"/>
     <use xlink:href="#DejaVuSans-69" x="2877.185547"/>
     <use xlink:href="#DejaVuSans-6e" x="2904.96875"/>
     <use xlink:href="#DejaVuSans-69" x="2968.347656"/>
     <use xlink:href="#DejaVuSans-6e" x="2996.130859"/>
     <use xlink:href="#DejaVuSans-67" x="3059.509766"/>
     <use xlink:href="#DejaVuSans-20" x="3122.986328"/>
     <use xlink:href="#DejaVuSans-61" x="3154.773438"/>
     <use xlink:href="#DejaVuSans-6e" x="3216.052734"/>
     <use xlink:href="#DejaVuSans-64" x="3279.431641"/>
     <use xlink:href="#DejaVuSans-20" x="3342.908203"/>
     <use xlink:href="#DejaVuSans-56" x="3374.695312"/>
     <use xlink:href="#DejaVuSans-61" x="3435.353516"/>
     <use xlink:href="#DejaVuSans-6c" x="3496.632812"/>
     <use xlink:href="#DejaVuSans-69" x="3524.416016"/>
     <use xlink:href="#DejaVuSans-64" x="3552.199219"/>
     <use xlink:href="#DejaVuSans-61" x="3615.675781"/>
     <use xlink:href="#DejaVuSans-74" x="3676.955078"/>
     <use xlink:href="#DejaVuSans-69" x="3716.164062"/>
     <use xlink:href="#DejaVuSans-6f" x="3743.947266"/>
     <use xlink:href="#DejaVuSans-6e" x="3805.128906"/>
     <use xlink:href="#DejaVuSans-20" x="3868.507812"/>
     <use xlink:href="#DejaVuSans-61" x="3900.294922"/>
     <use xlink:href="#DejaVuSans-63" x="3961.574219"/>
     <use xlink:href="#DejaVuSans-63" x="4016.554688"/>
     <use xlink:href="#DejaVuSans-75" x="4071.535156"/>
     <use xlink:href="#DejaVuSans-72" x="4134.914062"/>
     <use xlink:href="#DejaVuSans-61" x="4176.027344"/>
     <use xlink:href="#DejaVuSans-63" x="4237.306641"/>
     <use xlink:href="#DejaVuSans-79" x="4292.287109"/>
    </g>
   </g>
   <g id="legend_1">
    <g id="patch_7">
     <path d="M 308.024688 302.584 
L 407.72 302.584 
Q 409.72 302.584 409.72 300.584 
L 409.72 257.549625 
Q 409.72 255.549625 407.72 255.549625 
L 308.024688 255.549625 
Q 306.024688 255.549625 306.024688 257.549625 
L 306.024688 300.584 
Q 306.024688 302.584 308.024688 302.584 
z
" style="fill: #ffffff; opacity: 0.8; stroke: #cccccc; stroke-linejoin: miter"/>
    </g>
    <g id="line2d_15">
     <path d="M 310.024688 263.648062 
L 320.024688 263.648062 
L 330.024688 263.648062 
" style="fill: none; stroke: #0000ff; stroke-width: 1.5; stroke-linecap: square"/>
    </g>
    <g id="text_15">
     <!-- training set -->
     <g transform="translate(338.024688 267.148062) scale(0.1 -0.1)">
      <use xlink:href="#DejaVuSans-74"/>
      <use xlink:href="#DejaVuSans-72" x="39.208984"/>
      <use xlink:href="#DejaVuSans-61" x="80.322266"/>
      <use xlink:href="#DejaVuSans-69" x="141.601562"/>
      <use xlink:href="#DejaVuSans-6e" x="169.384766"/>
      <use xlink:href="#DejaVuSans-69" x="232.763672"/>
      <use xlink:href="#DejaVuSans-6e" x="260.546875"/>
      <use xlink:href="#DejaVuSans-67" x="323.925781"/>
      <use xlink:href="#DejaVuSans-20" x="387.402344"/>
      <use xlink:href="#DejaVuSans-73" x="419.189453"/>
      <use xlink:href="#DejaVuSans-65" x="471.289062"/>
      <use xlink:href="#DejaVuSans-74" x="532.8125"/>
     </g>
    </g>
    <g id="line2d_16">
     <path d="M 310.024688 278.326188 
L 320.024688 278.326188 
L 330.024688 278.326188 
" style="fill: none; stroke: #008000; stroke-width: 1.5; stroke-linecap: square"/>
    </g>
    <g id="text_16">
     <!-- validation set -->
     <g transform="translate(338.024688 281.826188) scale(0.1 -0.1)">
      <defs>
       <path id="DejaVuSans-76" d="M 191 3500 
L 800 3500 
L 1894 563 
L 2988 3500 
L 3597 3500 
L 2284 0 
L 1503 0 
L 191 3500 
z
" transform="scale(0.015625)"/>
      </defs>
      <use xlink:href="#DejaVuSans-76"/>
      <use xlink:href="#DejaVuSans-61" x="59.179688"/>
      <use xlink:href="#DejaVuSans-6c" x="120.458984"/>
      <use xlink:href="#DejaVuSans-69" x="148.242188"/>
      <use xlink:href="#DejaVuSans-64" x="176.025391"/>
      <use xlink:href="#DejaVuSans-61" x="239.501953"/>
      <use xlink:href="#DejaVuSans-74" x="300.78125"/>
      <use xlink:href="#DejaVuSans-69" x="339.990234"/>
      <use xlink:href="#DejaVuSans-6f" x="367.773438"/>
      <use xlink:href="#DejaVuSans-6e" x="428.955078"/>
      <use xlink:href="#DejaVuSans-20" x="492.333984"/>
      <use xlink:href="#DejaVuSans-73" x="524.121094"/>
      <use xlink:href="#DejaVuSans-65" x="576.220703"/>
      <use xlink:href="#DejaVuSans-74" x="637.744141"/>
     </g>
    </g>
    <g id="line2d_17">
     <path d="M 310.024688 293.004312 
L 320.024688 293.004312 
L 330.024688 293.004312 
" style="fill: none; stroke: #ff0000; stroke-width: 1.5; stroke-linecap: square"/>
    </g>
    <g id="text_17">
     <!-- test set -->
     <g transform="translate(338.024688 296.504312) scale(0.1 -0.1)">
      <use xlink:href="#DejaVuSans-74"/>
      <use xlink:href="#DejaVuSans-65" x="39.208984"/>
      <use xlink:href="#DejaVuSans-73" x="100.732422"/>
      <use xlink:href="#DejaVuSans-74" x="152.832031"/>
      <use xlink:href="#DejaVuSans-20" x="192.041016"/>
      <use xlink:href="#DejaVuSans-73" x="223.828125"/>
      <use xlink:href="#DejaVuSans-65" x="275.927734"/>
      <use xlink:href="#DejaVuSans-74" x="337.451172"/>
     </g>
    </g>
   </g>
  </g>
 </g>
 <defs>
  <clipPath id="pa96544c17d">
   <rect x="57.6" y="41.472" width="357.12" height="266.112"/>
  </clipPath>
 </defs>
</svg>
