<?xml version="1.0" encoding="utf-8" standalone="no"?>
<!DOCTYPE svg PUBLIC "-//W3C//DTD SVG 1.1//EN"
  "http://www.w3.org/Graphics/SVG/1.1/DTD/svg11.dtd">
<svg xmlns:xlink="http://www.w3.org/1999/xlink" width="460.8pt" height="345.6pt" viewBox="0 0 460.8 345.6" xmlns="http://www.w3.org/2000/svg" version="1.1">
 <metadata>
  <rdf:RDF xmlns:dc="http://purl.org/dc/elements/1.1/" xmlns:cc="http://creativecommons.org/ns#" xmlns:rdf="http://www.w3.org/1999/02/22-rdf-syntax-ns#">
   <cc:Work>
    <dc:type rdf:resource="http://purl.org/dc/dcmitype/StillImage"/>
    <dc:date>2023-04-09T04:00:11.569530</dc:date>
    <dc:format>image/svg+xml</dc:format>
    <dc:creator>
     <cc:Agent>
      <dc:title>Matplotlib v3.7.1, https://matplotlib.org/</dc:title>
     </cc:Agent>
    </dc:creator>
   </cc:Work>
  </rdf:RDF>
 </metadata>
 <defs>
  <style type="text/css">*{stroke-linejoin: round; stroke-linecap: butt}</style>
 </defs>
 <g id="figure_1">
  <g id="patch_1">
   <path d="M 0 345.6 
L 460.8 345.6 
L 460.8 0 
L 0 0 
z
" style="fill: #ffffff"/>
  </g>
  <g id="axes_1">
   <g id="patch_2">
    <path d="M 57.6 307.584 
L 414.72 307.584 
L 414.72 41.472 
L 57.6 41.472 
z
" style="fill: #ffffff"/>
   </g>
   <g id="matplotlib.axis_1">
    <g id="xtick_1">
     <g id="line2d_1">
      <defs>
       <path id="m7de0f251a0" d="M 0 0 
L 0 3.5 
" style="stroke: #000000; stroke-width: 0.8"/>
      </defs>
      <g>
       <use xlink:href="#m7de0f251a0" x="73.507748" y="307.584" style="stroke: #000000; stroke-width: 0.8"/>
      </g>
     </g>
     <g id="text_1">
      <!-- 0 -->
      <g transform="translate(70.326498 322.182437) scale(0.1 -0.1)">
       <defs>
        <path id="DejaVuSans-30" d="M 2034 4250 
Q 1547 4250 1301 3770 
Q 1056 3291 1056 2328 
Q 1056 1369 1301 889 
Q 1547 409 2034 409 
Q 2525 409 2770 889 
Q 3016 1369 3016 2328 
Q 3016 3291 2770 3770 
Q 2525 4250 2034 4250 
z
M 2034 4750 
Q 2819 4750 3233 4129 
Q 3647 3509 3647 2328 
Q 3647 1150 3233 529 
Q 2819 -91 2034 -91 
Q 1250 -91 836 529 
Q 422 1150 422 2328 
Q 422 3509 836 4129 
Q 1250 4750 2034 4750 
z
" transform="scale(0.015625)"/>
       </defs>
       <use xlink:href="#DejaVuSans-30"/>
      </g>
     </g>
    </g>
    <g id="xtick_2">
     <g id="line2d_2">
      <g>
       <use xlink:href="#m7de0f251a0" x="138.503653" y="307.584" style="stroke: #000000; stroke-width: 0.8"/>
      </g>
     </g>
     <g id="text_2">
      <!-- 200 -->
      <g transform="translate(128.959903 322.182437) scale(0.1 -0.1)">
       <defs>
        <path id="DejaVuSans-32" d="M 1228 531 
L 3431 531 
L 3431 0 
L 469 0 
L 469 531 
Q 828 903 1448 1529 
Q 2069 2156 2228 2338 
Q 2531 2678 2651 2914 
Q 2772 3150 2772 3378 
Q 2772 3750 2511 3984 
Q 2250 4219 1831 4219 
Q 1534 4219 1204 4116 
Q 875 4013 500 3803 
L 500 4441 
Q 881 4594 1212 4672 
Q 1544 4750 1819 4750 
Q 2544 4750 2975 4387 
Q 3406 4025 3406 3419 
Q 3406 3131 3298 2873 
Q 3191 2616 2906 2266 
Q 2828 2175 2409 1742 
Q 1991 1309 1228 531 
z
" transform="scale(0.015625)"/>
       </defs>
       <use xlink:href="#DejaVuSans-32"/>
       <use xlink:href="#DejaVuSans-30" x="63.623047"/>
       <use xlink:href="#DejaVuSans-30" x="127.246094"/>
      </g>
     </g>
    </g>
    <g id="xtick_3">
     <g id="line2d_3">
      <g>
       <use xlink:href="#m7de0f251a0" x="203.499558" y="307.584" style="stroke: #000000; stroke-width: 0.8"/>
      </g>
     </g>
     <g id="text_3">
      <!-- 400 -->
      <g transform="translate(193.955808 322.182437) scale(0.1 -0.1)">
       <defs>
        <path id="DejaVuSans-34" d="M 2419 4116 
L 825 1625 
L 2419 1625 
L 2419 4116 
z
M 2253 4666 
L 3047 4666 
L 3047 1625 
L 3713 1625 
L 3713 1100 
L 3047 1100 
L 3047 0 
L 2419 0 
L 2419 1100 
L 313 1100 
L 313 1709 
L 2253 4666 
z
" transform="scale(0.015625)"/>
       </defs>
       <use xlink:href="#DejaVuSans-34"/>
       <use xlink:href="#DejaVuSans-30" x="63.623047"/>
       <use xlink:href="#DejaVuSans-30" x="127.246094"/>
      </g>
     </g>
    </g>
    <g id="xtick_4">
     <g id="line2d_4">
      <g>
       <use xlink:href="#m7de0f251a0" x="268.495463" y="307.584" style="stroke: #000000; stroke-width: 0.8"/>
      </g>
     </g>
     <g id="text_4">
      <!-- 600 -->
      <g transform="translate(258.951713 322.182437) scale(0.1 -0.1)">
       <defs>
        <path id="DejaVuSans-36" d="M 2113 2584 
Q 1688 2584 1439 2293 
Q 1191 2003 1191 1497 
Q 1191 994 1439 701 
Q 1688 409 2113 409 
Q 2538 409 2786 701 
Q 3034 994 3034 1497 
Q 3034 2003 2786 2293 
Q 2538 2584 2113 2584 
z
M 3366 4563 
L 3366 3988 
Q 3128 4100 2886 4159 
Q 2644 4219 2406 4219 
Q 1781 4219 1451 3797 
Q 1122 3375 1075 2522 
Q 1259 2794 1537 2939 
Q 1816 3084 2150 3084 
Q 2853 3084 3261 2657 
Q 3669 2231 3669 1497 
Q 3669 778 3244 343 
Q 2819 -91 2113 -91 
Q 1303 -91 875 529 
Q 447 1150 447 2328 
Q 447 3434 972 4092 
Q 1497 4750 2381 4750 
Q 2619 4750 2861 4703 
Q 3103 4656 3366 4563 
z
" transform="scale(0.015625)"/>
       </defs>
       <use xlink:href="#DejaVuSans-36"/>
       <use xlink:href="#DejaVuSans-30" x="63.623047"/>
       <use xlink:href="#DejaVuSans-30" x="127.246094"/>
      </g>
     </g>
    </g>
    <g id="xtick_5">
     <g id="line2d_5">
      <g>
       <use xlink:href="#m7de0f251a0" x="333.491368" y="307.584" style="stroke: #000000; stroke-width: 0.8"/>
      </g>
     </g>
     <g id="text_5">
      <!-- 800 -->
      <g transform="translate(323.947618 322.182437) scale(0.1 -0.1)">
       <defs>
        <path id="DejaVuSans-38" d="M 2034 2216 
Q 1584 2216 1326 1975 
Q 1069 1734 1069 1313 
Q 1069 891 1326 650 
Q 1584 409 2034 409 
Q 2484 409 2743 651 
Q 3003 894 3003 1313 
Q 3003 1734 2745 1975 
Q 2488 2216 2034 2216 
z
M 1403 2484 
Q 997 2584 770 2862 
Q 544 3141 544 3541 
Q 544 4100 942 4425 
Q 1341 4750 2034 4750 
Q 2731 4750 3128 4425 
Q 3525 4100 3525 3541 
Q 3525 3141 3298 2862 
Q 3072 2584 2669 2484 
Q 3125 2378 3379 2068 
Q 3634 1759 3634 1313 
Q 3634 634 3220 271 
Q 2806 -91 2034 -91 
Q 1263 -91 848 271 
Q 434 634 434 1313 
Q 434 1759 690 2068 
Q 947 2378 1403 2484 
z
M 1172 3481 
Q 1172 3119 1398 2916 
Q 1625 2713 2034 2713 
Q 2441 2713 2670 2916 
Q 2900 3119 2900 3481 
Q 2900 3844 2670 4047 
Q 2441 4250 2034 4250 
Q 1625 4250 1398 4047 
Q 1172 3844 1172 3481 
z
" transform="scale(0.015625)"/>
       </defs>
       <use xlink:href="#DejaVuSans-38"/>
       <use xlink:href="#DejaVuSans-30" x="63.623047"/>
       <use xlink:href="#DejaVuSans-30" x="127.246094"/>
      </g>
     </g>
    </g>
    <g id="xtick_6">
     <g id="line2d_6">
      <g>
       <use xlink:href="#m7de0f251a0" x="398.487273" y="307.584" style="stroke: #000000; stroke-width: 0.8"/>
      </g>
     </g>
     <g id="text_6">
      <!-- 1000 -->
      <g transform="translate(385.762273 322.182437) scale(0.1 -0.1)">
       <defs>
        <path id="DejaVuSans-31" d="M 794 531 
L 1825 531 
L 1825 4091 
L 703 3866 
L 703 4441 
L 1819 4666 
L 2450 4666 
L 2450 531 
L 3481 531 
L 3481 0 
L 794 0 
L 794 531 
z
" transform="scale(0.015625)"/>
       </defs>
       <use xlink:href="#DejaVuSans-31"/>
       <use xlink:href="#DejaVuSans-30" x="63.623047"/>
       <use xlink:href="#DejaVuSans-30" x="127.246094"/>
       <use xlink:href="#DejaVuSans-30" x="190.869141"/>
      </g>
     </g>
    </g>
    <g id="text_7">
     <!-- epoch -->
     <g transform="translate(220.931875 335.860562) scale(0.1 -0.1)">
      <defs>
       <path id="DejaVuSans-65" d="M 3597 1894 
L 3597 1613 
L 953 1613 
Q 991 1019 1311 708 
Q 1631 397 2203 397 
Q 2534 397 2845 478 
Q 3156 559 3463 722 
L 3463 178 
Q 3153 47 2828 -22 
Q 2503 -91 2169 -91 
Q 1331 -91 842 396 
Q 353 884 353 1716 
Q 353 2575 817 3079 
Q 1281 3584 2069 3584 
Q 2775 3584 3186 3129 
Q 3597 2675 3597 1894 
z
M 3022 2063 
Q 3016 2534 2758 2815 
Q 2500 3097 2075 3097 
Q 1594 3097 1305 2825 
Q 1016 2553 972 2059 
L 3022 2063 
z
" transform="scale(0.015625)"/>
       <path id="DejaVuSans-70" d="M 1159 525 
L 1159 -1331 
L 581 -1331 
L 581 3500 
L 1159 3500 
L 1159 2969 
Q 1341 3281 1617 3432 
Q 1894 3584 2278 3584 
Q 2916 3584 3314 3078 
Q 3713 2572 3713 1747 
Q 3713 922 3314 415 
Q 2916 -91 2278 -91 
Q 1894 -91 1617 61 
Q 1341 213 1159 525 
z
M 3116 1747 
Q 3116 2381 2855 2742 
Q 2594 3103 2138 3103 
Q 1681 3103 1420 2742 
Q 1159 2381 1159 1747 
Q 1159 1113 1420 752 
Q 1681 391 2138 391 
Q 2594 391 2855 752 
Q 3116 1113 3116 1747 
z
" transform="scale(0.015625)"/>
       <path id="DejaVuSans-6f" d="M 1959 3097 
Q 1497 3097 1228 2736 
Q 959 2375 959 1747 
Q 959 1119 1226 758 
Q 1494 397 1959 397 
Q 2419 397 2687 759 
Q 2956 1122 2956 1747 
Q 2956 2369 2687 2733 
Q 2419 3097 1959 3097 
z
M 1959 3584 
Q 2709 3584 3137 3096 
Q 3566 2609 3566 1747 
Q 3566 888 3137 398 
Q 2709 -91 1959 -91 
Q 1206 -91 779 398 
Q 353 888 353 1747 
Q 353 2609 779 3096 
Q 1206 3584 1959 3584 
z
" transform="scale(0.015625)"/>
       <path id="DejaVuSans-63" d="M 3122 3366 
L 3122 2828 
Q 2878 2963 2633 3030 
Q 2388 3097 2138 3097 
Q 1578 3097 1268 2742 
Q 959 2388 959 1747 
Q 959 1106 1268 751 
Q 1578 397 2138 397 
Q 2388 397 2633 464 
Q 2878 531 3122 666 
L 3122 134 
Q 2881 22 2623 -34 
Q 2366 -91 2075 -91 
Q 1284 -91 818 406 
Q 353 903 353 1747 
Q 353 2603 823 3093 
Q 1294 3584 2113 3584 
Q 2378 3584 2631 3529 
Q 2884 3475 3122 3366 
z
" transform="scale(0.015625)"/>
       <path id="DejaVuSans-68" d="M 3513 2113 
L 3513 0 
L 2938 0 
L 2938 2094 
Q 2938 2591 2744 2837 
Q 2550 3084 2163 3084 
Q 1697 3084 1428 2787 
Q 1159 2491 1159 1978 
L 1159 0 
L 581 0 
L 581 4863 
L 1159 4863 
L 1159 2956 
Q 1366 3272 1645 3428 
Q 1925 3584 2291 3584 
Q 2894 3584 3203 3211 
Q 3513 2838 3513 2113 
z
" transform="scale(0.015625)"/>
      </defs>
      <use xlink:href="#DejaVuSans-65"/>
      <use xlink:href="#DejaVuSans-70" x="61.523438"/>
      <use xlink:href="#DejaVuSans-6f" x="125"/>
      <use xlink:href="#DejaVuSans-63" x="186.181641"/>
      <use xlink:href="#DejaVuSans-68" x="241.162109"/>
     </g>
    </g>
   </g>
   <g id="matplotlib.axis_2">
    <g id="ytick_1">
     <g id="line2d_7">
      <defs>
       <path id="m7be5ec1986" d="M 0 0 
L -3.5 0 
" style="stroke: #000000; stroke-width: 0.8"/>
      </defs>
      <g>
       <use xlink:href="#m7be5ec1986" x="57.6" y="295.488283" style="stroke: #000000; stroke-width: 0.8"/>
      </g>
     </g>
     <g id="text_8">
      <!-- 0.00 -->
      <g transform="translate(28.334375 299.287502) scale(0.1 -0.1)">
       <defs>
        <path id="DejaVuSans-2e" d="M 684 794 
L 1344 794 
L 1344 0 
L 684 0 
L 684 794 
z
" transform="scale(0.015625)"/>
       </defs>
       <use xlink:href="#DejaVuSans-30"/>
       <use xlink:href="#DejaVuSans-2e" x="63.623047"/>
       <use xlink:href="#DejaVuSans-30" x="95.410156"/>
       <use xlink:href="#DejaVuSans-30" x="159.033203"/>
      </g>
     </g>
    </g>
    <g id="ytick_2">
     <g id="line2d_8">
      <g>
       <use xlink:href="#m7be5ec1986" x="57.6" y="264.566316" style="stroke: #000000; stroke-width: 0.8"/>
      </g>
     </g>
     <g id="text_9">
      <!-- 0.25 -->
      <g transform="translate(28.334375 268.365535) scale(0.1 -0.1)">
       <defs>
        <path id="DejaVuSans-35" d="M 691 4666 
L 3169 4666 
L 3169 4134 
L 1269 4134 
L 1269 2991 
Q 1406 3038 1543 3061 
Q 1681 3084 1819 3084 
Q 2600 3084 3056 2656 
Q 3513 2228 3513 1497 
Q 3513 744 3044 326 
Q 2575 -91 1722 -91 
Q 1428 -91 1123 -41 
Q 819 9 494 109 
L 494 744 
Q 775 591 1075 516 
Q 1375 441 1709 441 
Q 2250 441 2565 725 
Q 2881 1009 2881 1497 
Q 2881 1984 2565 2268 
Q 2250 2553 1709 2553 
Q 1456 2553 1204 2497 
Q 953 2441 691 2322 
L 691 4666 
z
" transform="scale(0.015625)"/>
       </defs>
       <use xlink:href="#DejaVuSans-30"/>
       <use xlink:href="#DejaVuSans-2e" x="63.623047"/>
       <use xlink:href="#DejaVuSans-32" x="95.410156"/>
       <use xlink:href="#DejaVuSans-35" x="159.033203"/>
      </g>
     </g>
    </g>
    <g id="ytick_3">
     <g id="line2d_9">
      <g>
       <use xlink:href="#m7be5ec1986" x="57.6" y="233.644349" style="stroke: #000000; stroke-width: 0.8"/>
      </g>
     </g>
     <g id="text_10">
      <!-- 0.50 -->
      <g transform="translate(28.334375 237.443568) scale(0.1 -0.1)">
       <use xlink:href="#DejaVuSans-30"/>
       <use xlink:href="#DejaVuSans-2e" x="63.623047"/>
       <use xlink:href="#DejaVuSans-35" x="95.410156"/>
       <use xlink:href="#DejaVuSans-30" x="159.033203"/>
      </g>
     </g>
    </g>
    <g id="ytick_4">
     <g id="line2d_10">
      <g>
       <use xlink:href="#m7be5ec1986" x="57.6" y="202.722382" style="stroke: #000000; stroke-width: 0.8"/>
      </g>
     </g>
     <g id="text_11">
      <!-- 0.75 -->
      <g transform="translate(28.334375 206.521601) scale(0.1 -0.1)">
       <defs>
        <path id="DejaVuSans-37" d="M 525 4666 
L 3525 4666 
L 3525 4397 
L 1831 0 
L 1172 0 
L 2766 4134 
L 525 4134 
L 525 4666 
z
" transform="scale(0.015625)"/>
       </defs>
       <use xlink:href="#DejaVuSans-30"/>
       <use xlink:href="#DejaVuSans-2e" x="63.623047"/>
       <use xlink:href="#DejaVuSans-37" x="95.410156"/>
       <use xlink:href="#DejaVuSans-35" x="159.033203"/>
      </g>
     </g>
    </g>
    <g id="ytick_5">
     <g id="line2d_11">
      <g>
       <use xlink:href="#m7be5ec1986" x="57.6" y="171.800416" style="stroke: #000000; stroke-width: 0.8"/>
      </g>
     </g>
     <g id="text_12">
      <!-- 1.00 -->
      <g transform="translate(28.334375 175.599634) scale(0.1 -0.1)">
       <use xlink:href="#DejaVuSans-31"/>
       <use xlink:href="#DejaVuSans-2e" x="63.623047"/>
       <use xlink:href="#DejaVuSans-30" x="95.410156"/>
       <use xlink:href="#DejaVuSans-30" x="159.033203"/>
      </g>
     </g>
    </g>
    <g id="ytick_6">
     <g id="line2d_12">
      <g>
       <use xlink:href="#m7be5ec1986" x="57.6" y="140.878449" style="stroke: #000000; stroke-width: 0.8"/>
      </g>
     </g>
     <g id="text_13">
      <!-- 1.25 -->
      <g transform="translate(28.334375 144.677668) scale(0.1 -0.1)">
       <use xlink:href="#DejaVuSans-31"/>
       <use xlink:href="#DejaVuSans-2e" x="63.623047"/>
       <use xlink:href="#DejaVuSans-32" x="95.410156"/>
       <use xlink:href="#DejaVuSans-35" x="159.033203"/>
      </g>
     </g>
    </g>
    <g id="ytick_7">
     <g id="line2d_13">
      <g>
       <use xlink:href="#m7be5ec1986" x="57.6" y="109.956482" style="stroke: #000000; stroke-width: 0.8"/>
      </g>
     </g>
     <g id="text_14">
      <!-- 1.50 -->
      <g transform="translate(28.334375 113.755701) scale(0.1 -0.1)">
       <use xlink:href="#DejaVuSans-31"/>
       <use xlink:href="#DejaVuSans-2e" x="63.623047"/>
       <use xlink:href="#DejaVuSans-35" x="95.410156"/>
       <use xlink:href="#DejaVuSans-30" x="159.033203"/>
      </g>
     </g>
    </g>
    <g id="ytick_8">
     <g id="line2d_14">
      <g>
       <use xlink:href="#m7be5ec1986" x="57.6" y="79.034515" style="stroke: #000000; stroke-width: 0.8"/>
      </g>
     </g>
     <g id="text_15">
      <!-- 1.75 -->
      <g transform="translate(28.334375 82.833734) scale(0.1 -0.1)">
       <use xlink:href="#DejaVuSans-31"/>
       <use xlink:href="#DejaVuSans-2e" x="63.623047"/>
       <use xlink:href="#DejaVuSans-37" x="95.410156"/>
       <use xlink:href="#DejaVuSans-35" x="159.033203"/>
      </g>
     </g>
    </g>
    <g id="ytick_9">
     <g id="line2d_15">
      <g>
       <use xlink:href="#m7be5ec1986" x="57.6" y="48.112548" style="stroke: #000000; stroke-width: 0.8"/>
      </g>
     </g>
     <g id="text_16">
      <!-- 2.00 -->
      <g transform="translate(28.334375 51.911767) scale(0.1 -0.1)">
       <use xlink:href="#DejaVuSans-32"/>
       <use xlink:href="#DejaVuSans-2e" x="63.623047"/>
       <use xlink:href="#DejaVuSans-30" x="95.410156"/>
       <use xlink:href="#DejaVuSans-30" x="159.033203"/>
      </g>
     </g>
    </g>
    <g id="text_17">
     <!-- loss -->
     <g transform="translate(22.254688 184.185812) rotate(-90) scale(0.1 -0.1)">
      <defs>
       <path id="DejaVuSans-6c" d="M 603 4863 
L 1178 4863 
L 1178 0 
L 603 0 
L 603 4863 
z
" transform="scale(0.015625)"/>
       <path id="DejaVuSans-73" d="M 2834 3397 
L 2834 2853 
Q 2591 2978 2328 3040 
Q 2066 3103 1784 3103 
Q 1356 3103 1142 2972 
Q 928 2841 928 2578 
Q 928 2378 1081 2264 
Q 1234 2150 1697 2047 
L 1894 2003 
Q 2506 1872 2764 1633 
Q 3022 1394 3022 966 
Q 3022 478 2636 193 
Q 2250 -91 1575 -91 
Q 1294 -91 989 -36 
Q 684 19 347 128 
L 347 722 
Q 666 556 975 473 
Q 1284 391 1588 391 
Q 1994 391 2212 530 
Q 2431 669 2431 922 
Q 2431 1156 2273 1281 
Q 2116 1406 1581 1522 
L 1381 1569 
Q 847 1681 609 1914 
Q 372 2147 372 2553 
Q 372 3047 722 3315 
Q 1072 3584 1716 3584 
Q 2034 3584 2315 3537 
Q 2597 3491 2834 3397 
z
" transform="scale(0.015625)"/>
      </defs>
      <use xlink:href="#DejaVuSans-6c"/>
      <use xlink:href="#DejaVuSans-6f" x="27.783203"/>
      <use xlink:href="#DejaVuSans-73" x="88.964844"/>
      <use xlink:href="#DejaVuSans-73" x="141.064453"/>
     </g>
    </g>
   </g>
   <g id="line2d_16">
    <path d="M 73.832727 54.202496 
L 75.457625 257.031141 
L 75.782604 275.266276 
L 76.432563 287.487029 
L 76.757543 289.835539 
L 77.082523 290.85246 
L 77.407502 293.40122 
L 77.732482 293.820306 
L 78.057461 294.434172 
L 78.70742 294.713503 
L 79.357379 295.111684 
L 80.007338 295.302663 
L 80.657297 295.307307 
L 80.982277 295.357968 
L 81.307256 295.274634 
L 81.957215 295.383759 
L 82.282195 295.430448 
L 82.607174 295.234203 
L 82.932154 295.439972 
L 86.181949 295.466323 
L 86.506929 295.291667 
L 86.831908 295.469528 
L 93.006519 295.477089 
L 93.331499 295.383292 
L 93.981458 295.478141 
L 108.930516 295.483029 
L 109.255495 295.311664 
L 109.580475 295.480624 
L 152.802752 295.484576 
L 171.651564 295.483595 
L 172.301523 295.484629 
L 180.426011 295.486603 
L 226.573104 295.486969 
L 373.788829 295.487904 
L 398.487273 295.487576 
L 398.487273 295.487576 
" clip-path="url(#pcf8296e844)" style="fill: none; stroke: #0000ff; stroke-width: 1.5; stroke-linecap: square"/>
   </g>
   <g id="line2d_17">
    <path d="M 73.832727 53.568 
L 74.482686 111.462392 
L 75.132645 169.952811 
L 75.782604 200.472357 
L 76.107584 205.664121 
L 76.432563 206.567856 
L 76.757543 205.499046 
L 77.082523 198.991763 
L 77.407502 197.644558 
L 78.057461 184.408888 
L 78.382441 178.839209 
L 78.70742 175.343371 
L 79.0324 168.184105 
L 79.357379 167.882413 
L 79.682359 162.47472 
L 80.007338 161.177005 
L 80.332318 156.973604 
L 80.657297 145.008658 
L 80.982277 143.380219 
L 81.307256 139.409032 
L 81.632236 133.719876 
L 81.957215 121.614944 
L 82.282195 133.665041 
L 82.607174 126.547576 
L 82.932154 128.362566 
L 83.257133 137.74497 
L 83.582113 116.795595 
L 83.907093 119.465308 
L 84.232072 123.51591 
L 84.557052 117.927077 
L 84.882031 122.841264 
L 85.207011 125.862757 
L 85.85697 115.239818 
L 86.181949 115.572931 
L 86.506929 109.905259 
L 86.831908 113.777995 
L 87.156888 104.029022 
L 87.481867 107.502544 
L 87.806847 101.488561 
L 88.131826 109.023656 
L 88.456806 93.857125 
L 88.781785 94.767849 
L 89.106765 103.27704 
L 89.431744 96.487425 
L 89.756724 100.56762 
L 90.081704 112.6204 
L 90.406683 99.103526 
L 90.731663 111.957565 
L 91.056642 99.646648 
L 91.381622 103.490662 
L 91.706601 102.643679 
L 92.031581 113.698889 
L 92.35656 110.198945 
L 92.68154 108.709799 
L 93.006519 101.2856 
L 93.331499 96.451934 
L 93.656478 108.629146 
L 93.981458 110.059769 
L 94.306437 105.224157 
L 94.631417 104.571746 
L 94.956396 115.895768 
L 95.281376 106.070594 
L 95.606355 119.060034 
L 95.931335 101.086163 
L 96.256314 104.206091 
L 96.581294 101.405504 
L 96.906274 106.64614 
L 97.231253 99.539292 
L 97.556233 100.495724 
L 98.206192 112.868893 
L 98.531171 94.696484 
L 98.856151 90.819089 
L 99.18113 104.358139 
L 99.50611 108.359169 
L 99.831089 100.566234 
L 100.156069 98.057062 
L 100.481048 113.183472 
L 100.806028 105.704762 
L 101.131007 101.657389 
L 101.455987 94.469695 
L 101.780966 97.40819 
L 102.105946 103.105529 
L 102.430925 104.274728 
L 102.755905 97.346483 
L 103.080885 106.02142 
L 103.405864 110.242368 
L 103.730844 103.398286 
L 104.055823 106.986493 
L 104.380803 94.180728 
L 104.705782 92.74947 
L 105.030762 99.437597 
L 105.355741 93.031066 
L 105.680721 103.812259 
L 106.0057 96.159177 
L 106.33068 100.961496 
L 106.655659 85.117709 
L 106.980639 97.13003 
L 107.305618 93.999205 
L 107.630598 95.102967 
L 107.955577 109.461324 
L 108.280557 96.070222 
L 108.605536 96.100375 
L 108.930516 100.997001 
L 109.255495 100.336393 
L 109.580475 108.207446 
L 110.230434 90.09462 
L 110.555414 95.940277 
L 111.205373 101.855986 
L 111.530352 85.789539 
L 112.180311 99.575225 
L 112.505291 93.864468 
L 113.15525 104.143175 
L 113.480229 92.68797 
L 113.805209 87.843791 
L 114.130188 90.247332 
L 114.455168 102.871648 
L 114.780147 93.143435 
L 115.105127 104.863206 
L 115.430106 97.487974 
L 115.755086 86.640502 
L 116.080066 109.043915 
L 116.405045 104.273622 
L 116.730025 101.488237 
L 117.055004 89.984802 
L 117.379984 92.785226 
L 117.704963 94.073165 
L 118.029943 98.137539 
L 118.354922 90.028063 
L 118.679902 102.575854 
L 119.004881 97.943026 
L 119.329861 95.925193 
L 119.97982 94.422807 
L 120.304799 99.960239 
L 120.629779 101.828295 
L 120.954758 100.674003 
L 121.279738 93.134913 
L 121.604717 95.970902 
L 121.929697 94.128413 
L 122.254676 88.860073 
L 122.579656 92.724508 
L 122.904636 103.157888 
L 123.229615 93.475885 
L 123.554595 79.398533 
L 123.879574 101.438724 
L 124.204554 88.643531 
L 124.529533 95.947753 
L 124.854513 98.060807 
L 125.179492 93.461892 
L 125.504472 104.835677 
L 125.829451 89.657144 
L 126.154431 92.987038 
L 126.47941 77.939556 
L 126.80439 81.910197 
L 127.129369 90.114364 
L 127.454349 106.71547 
L 127.779328 90.185935 
L 128.104308 91.764241 
L 128.429287 88.878002 
L 128.754267 96.342469 
L 129.079247 89.545246 
L 129.404226 98.735423 
L 129.729206 88.235073 
L 130.054185 88.392532 
L 130.379165 92.683886 
L 130.704144 94.189766 
L 131.029124 94.437272 
L 131.679083 83.770733 
L 132.004062 90.366484 
L 132.329042 102.334762 
L 132.654021 88.109668 
L 132.979001 99.22253 
L 133.30398 92.483829 
L 133.62896 93.558057 
L 133.953939 95.061888 
L 134.278919 94.068358 
L 134.603898 85.989006 
L 134.928878 83.172878 
L 135.578837 108.728849 
L 135.903817 97.896433 
L 136.228796 102.325562 
L 136.553776 103.081436 
L 136.878755 87.489446 
L 137.203735 93.072159 
L 137.528714 101.369704 
L 137.853694 97.282889 
L 138.178673 96.361593 
L 138.503653 90.860064 
L 138.828632 92.729786 
L 139.153612 98.820589 
L 139.478591 92.37345 
L 139.803571 106.244847 
L 140.12855 84.831706 
L 140.45353 99.767142 
L 140.778509 100.299619 
L 141.103489 88.577254 
L 141.428468 94.969336 
L 141.753448 92.357717 
L 142.078428 99.224963 
L 142.403407 99.604552 
L 142.728387 86.47598 
L 143.053366 88.567434 
L 143.378346 101.193195 
L 143.703325 93.335264 
L 144.028305 96.028038 
L 144.353284 77.567856 
L 144.678264 92.362185 
L 145.003243 89.94213 
L 145.328223 89.344187 
L 145.653202 96.360045 
L 145.978182 91.003309 
L 146.303161 93.503118 
L 146.628141 88.633829 
L 146.95312 92.457407 
L 147.2781 92.931126 
L 147.603079 100.053249 
L 147.928059 93.324663 
L 148.253038 93.749503 
L 148.578018 92.688059 
L 148.902998 101.968547 
L 149.227977 84.843502 
L 149.552957 92.023307 
L 149.877936 88.492663 
L 150.202916 92.321445 
L 150.527895 108.20261 
L 150.852875 90.464964 
L 151.177854 91.814506 
L 151.502834 94.949843 
L 151.827813 74.776809 
L 152.152793 97.521518 
L 152.477772 90.695026 
L 152.802752 97.17279 
L 153.452711 84.292741 
L 154.10267 95.681713 
L 154.427649 92.120725 
L 154.752629 90.40746 
L 155.077609 89.650524 
L 155.402588 95.643436 
L 155.727568 95.654612 
L 156.052547 96.123598 
L 156.377527 98.156766 
L 156.702506 96.832422 
L 157.027486 94.638125 
L 157.352465 91.562725 
L 157.677445 84.157915 
L 158.002424 90.657752 
L 158.327404 83.012868 
L 158.652383 80.983003 
L 158.977363 87.911529 
L 159.302342 87.188166 
L 159.627322 104.615479 
L 159.952301 92.602008 
L 160.277281 85.519489 
L 160.92724 92.447247 
L 161.252219 89.526653 
L 161.902179 79.903482 
L 162.227158 82.418375 
L 162.552138 83.439286 
L 162.877117 92.925655 
L 163.202097 96.43977 
L 163.527076 95.732863 
L 164.177035 88.194023 
L 164.502015 93.670943 
L 164.826994 93.812552 
L 165.151974 93.043422 
L 165.476953 91.544707 
L 165.801933 88.541247 
L 166.451892 77.599454 
L 167.101851 99.208272 
L 167.75181 87.113985 
L 168.401769 97.4365 
L 168.726749 83.274705 
L 169.051728 93.326757 
L 169.376708 83.580909 
L 169.701687 88.247488 
L 170.351646 93.559045 
L 170.676626 87.734547 
L 171.001605 90.683098 
L 171.976544 85.83625 
L 172.301523 93.23326 
L 172.626503 89.384027 
L 172.951482 94.463591 
L 173.276462 86.179891 
L 173.926421 90.476996 
L 174.2514 94.370198 
L 174.57638 96.410782 
L 174.90136 84.666196 
L 175.226339 90.962865 
L 175.551319 80.075597 
L 175.876298 100.700175 
L 176.201278 85.958691 
L 176.526257 94.6791 
L 176.851237 87.412375 
L 177.176216 85.619193 
L 177.501196 84.83461 
L 178.151155 92.930359 
L 178.476134 89.112812 
L 179.126093 97.843307 
L 179.451073 81.328119 
L 179.776052 84.074121 
L 180.101032 90.283088 
L 180.426011 93.735378 
L 181.075971 88.215772 
L 181.40095 82.865833 
L 181.72593 86.855938 
L 182.050909 86.17392 
L 182.375889 99.448184 
L 182.700868 84.455405 
L 183.025848 85.228767 
L 183.350827 83.322183 
L 183.675807 83.790196 
L 184.000786 83.965953 
L 184.325766 93.250349 
L 184.650745 93.768509 
L 184.975725 83.128894 
L 185.300704 88.564986 
L 185.625684 80.861684 
L 186.275643 81.278606 
L 186.600622 78.755869 
L 186.925602 84.924082 
L 187.250581 96.350033 
L 187.575561 88.592456 
L 187.900541 93.234012 
L 188.22552 83.686083 
L 188.5505 80.88271 
L 188.875479 98.090267 
L 189.200459 82.842905 
L 189.525438 80.301384 
L 189.850418 84.618276 
L 190.175397 86.901278 
L 190.500377 86.708328 
L 190.825356 91.256418 
L 191.150336 83.693972 
L 191.475315 83.251099 
L 191.800295 81.148572 
L 192.125274 76.986382 
L 192.450254 77.009413 
L 193.100213 86.703241 
L 193.425192 81.185744 
L 193.750172 80.27676 
L 194.075152 71.517572 
L 194.400131 90.47847 
L 194.725111 90.888197 
L 195.05009 83.471046 
L 195.37507 79.856933 
L 195.700049 84.024755 
L 196.025029 86.698036 
L 196.350008 86.358155 
L 196.674988 83.019606 
L 196.999967 95.048544 
L 197.649926 81.160294 
L 197.974906 90.633909 
L 198.299885 77.801442 
L 198.624865 94.309774 
L 198.949844 83.449991 
L 199.274824 79.783887 
L 199.599803 92.831628 
L 199.924783 90.576862 
L 200.249762 80.029137 
L 200.574742 86.916273 
L 200.899722 96.623091 
L 201.224701 80.254245 
L 201.549681 88.244332 
L 201.87466 73.864994 
L 202.19964 83.399711 
L 202.524619 83.356715 
L 202.849599 78.235424 
L 203.174578 78.225117 
L 203.499558 76.845776 
L 203.824537 87.158485 
L 204.149517 93.552115 
L 204.474496 84.579158 
L 204.799476 85.055398 
L 205.124455 80.401161 
L 205.449435 88.055423 
L 205.774414 80.644833 
L 206.099394 95.330582 
L 206.424373 78.384419 
L 206.749353 79.227775 
L 207.074333 83.767622 
L 207.399312 79.863184 
L 207.724292 85.6387 
L 208.049271 83.324542 
L 208.374251 84.792912 
L 208.69923 85.15724 
L 209.02421 96.889588 
L 209.349189 82.421766 
L 209.674169 79.91976 
L 209.999148 76.029787 
L 210.324128 80.53668 
L 210.649107 81.026677 
L 210.974087 81.213213 
L 211.299066 78.857372 
L 211.624046 82.723709 
L 211.949025 71.402769 
L 212.274005 87.736774 
L 212.598984 81.816406 
L 212.923964 82.122728 
L 213.248943 97.216228 
L 213.573923 83.614984 
L 213.898903 88.439508 
L 214.223882 78.738588 
L 214.548862 80.160984 
L 214.873841 84.141829 
L 215.198821 78.183965 
L 215.5238 80.356632 
L 215.84878 90.691325 
L 216.173759 83.826232 
L 216.498739 84.582136 
L 216.823718 89.065216 
L 217.148698 83.139098 
L 217.473677 80.56151 
L 217.798657 74.967694 
L 218.123636 82.544472 
L 218.448616 85.383528 
L 218.773595 82.511267 
L 219.098575 78.428344 
L 219.423554 86.491521 
L 220.073514 76.849978 
L 220.398493 66.104968 
L 220.723473 82.703332 
L 221.048452 79.739491 
L 221.373432 87.394725 
L 221.698411 86.72207 
L 222.023391 74.086342 
L 222.34837 90.108186 
L 222.67335 76.719075 
L 222.998329 88.050866 
L 223.323309 81.606573 
L 223.648288 85.62661 
L 223.973268 82.852416 
L 224.298247 95.140463 
L 224.623227 71.307031 
L 224.948206 84.820559 
L 225.273186 78.759894 
L 225.598165 92.263882 
L 225.923145 81.125187 
L 226.248124 88.103889 
L 226.573104 75.367276 
L 226.898084 76.543008 
L 227.223063 73.063234 
L 227.548043 89.800949 
L 227.873022 81.986693 
L 228.522981 81.187675 
L 228.847961 81.434384 
L 229.17294 80.021573 
L 229.49792 84.640481 
L 229.822899 78.667917 
L 230.147879 83.33221 
L 230.797838 76.941101 
L 231.122817 80.966239 
L 231.447797 81.665744 
L 231.772776 92.829195 
L 232.097756 78.268319 
L 232.422735 79.292887 
L 232.747715 85.097318 
L 233.072695 78.753466 
L 233.397674 77.713548 
L 233.722654 86.795588 
L 234.047633 85.508637 
L 234.372613 87.340804 
L 234.697592 86.240684 
L 235.022572 80.887605 
L 235.347551 97.257823 
L 235.672531 86.267121 
L 235.99751 85.504022 
L 236.32249 78.151438 
L 236.647469 88.823874 
L 236.972449 81.04676 
L 237.297428 76.627377 
L 237.622408 76.261634 
L 238.272367 82.931094 
L 238.922326 92.427784 
L 239.247305 79.526356 
L 239.572285 91.364998 
L 239.897265 93.557969 
L 240.222244 78.472283 
L 240.547224 80.650067 
L 240.872203 79.919524 
L 241.197183 85.984302 
L 241.522162 78.28184 
L 241.847142 86.7423 
L 242.172121 101.10048 
L 242.497101 89.437639 
L 243.14706 77.67679 
L 243.472039 92.051145 
L 243.797019 87.936654 
L 244.121998 89.466052 
L 244.771957 77.038667 
L 245.096937 87.071594 
L 245.421916 76.228134 
L 245.746896 83.091679 
L 246.071876 87.110801 
L 246.396855 76.19164 
L 246.721835 79.536854 
L 247.046814 87.375218 
L 247.371794 82.91539 
L 247.696773 74.630821 
L 248.021753 88.165286 
L 248.346732 81.776757 
L 248.671712 92.576205 
L 248.996691 81.274581 
L 249.321671 75.101134 
L 249.64665 83.597468 
L 249.97163 87.097162 
L 250.296609 81.736932 
L 250.621589 86.966818 
L 250.946568 72.237808 
L 251.271548 82.595548 
L 251.596527 75.623791 
L 251.921507 83.336441 
L 252.571466 90.531021 
L 252.896446 81.119658 
L 253.221425 83.616385 
L 253.546405 80.768836 
L 253.871384 83.105686 
L 254.196364 76.62313 
L 254.521343 76.865578 
L 254.846323 87.375351 
L 255.171302 90.456088 
L 255.496282 79.936156 
L 255.821261 95.148263 
L 256.146241 101.221372 
L 256.47122 89.995315 
L 256.7962 88.651877 
L 257.121179 98.205099 
L 257.446159 82.515366 
L 258.096118 93.969554 
L 258.421097 81.023787 
L 258.746077 84.681014 
L 259.071057 90.335004 
L 259.396036 76.828392 
L 259.721016 84.702306 
L 260.045995 80.933933 
L 260.370975 84.094439 
L 260.695954 82.477103 
L 261.020934 92.818048 
L 261.345913 80.613559 
L 261.670893 79.191679 
L 261.995872 72.9869 
L 262.320852 79.71037 
L 262.645831 79.042816 
L 262.970811 69.74779 
L 263.62077 91.359734 
L 264.270729 81.7997 
L 264.595708 86.698479 
L 265.245667 79.433066 
L 265.570647 92.028158 
L 265.895627 84.261202 
L 266.220606 89.772905 
L 266.545586 87.122921 
L 266.870565 85.947396 
L 267.195545 88.552202 
L 267.520524 87.954362 
L 268.170483 76.313093 
L 268.495463 81.105886 
L 268.820442 73.644766 
L 269.145422 82.328211 
L 269.470401 83.000497 
L 269.795381 87.489741 
L 270.12036 74.42236 
L 270.44534 90.81931 
L 270.770319 86.973453 
L 271.095299 81.391285 
L 271.420278 96.347438 
L 272.070238 84.322629 
L 272.395217 90.355057 
L 272.720197 89.450054 
L 273.045176 83.630068 
L 273.370156 84.129782 
L 273.695135 74.304844 
L 274.020115 89.435295 
L 274.345094 76.437185 
L 274.670074 81.619799 
L 274.995053 93.776899 
L 275.320033 87.53769 
L 275.645012 77.753949 
L 275.969992 88.688267 
L 276.294971 83.272302 
L 276.619951 74.387267 
L 276.94493 78.497984 
L 277.26991 77.615275 
L 277.594889 84.231698 
L 277.919869 82.954965 
L 278.244848 83.988955 
L 278.569828 78.863063 
L 279.219787 81.450854 
L 279.544767 78.987096 
L 279.869746 87.433858 
L 280.194726 84.103773 
L 280.519705 89.435855 
L 280.844685 85.527348 
L 281.169664 88.378731 
L 281.494644 84.135975 
L 281.819623 76.564196 
L 282.144603 78.060035 
L 282.469582 89.525591 
L 282.794562 82.170634 
L 283.119541 70.220595 
L 283.444521 67.874337 
L 284.09448 90.577938 
L 284.419459 81.964369 
L 284.744439 79.122998 
L 285.069419 72.562148 
L 285.394398 81.120823 
L 285.719378 67.515406 
L 286.044357 84.834802 
L 286.369337 90.222767 
L 286.694316 80.504315 
L 287.019296 82.029777 
L 287.344275 80.979494 
L 287.669255 88.871205 
L 287.994234 73.506343 
L 288.319214 79.692455 
L 288.644193 82.239093 
L 288.969173 73.453601 
L 289.294152 83.99677 
L 289.619132 68.042059 
L 289.944111 87.898642 
L 290.269091 79.146944 
L 290.59407 86.637494 
L 290.91905 81.467575 
L 291.244029 85.908986 
L 291.569009 78.925493 
L 291.893989 88.196692 
L 292.218968 86.713887 
L 292.543948 79.318263 
L 292.868927 86.084478 
L 293.193907 77.651149 
L 293.518886 85.74411 
L 294.168845 80.197168 
L 294.493825 83.950722 
L 294.818804 80.426817 
L 295.143784 82.583118 
L 295.468763 81.325775 
L 295.793743 77.681641 
L 296.118722 87.025148 
L 296.443702 72.698272 
L 296.768681 78.768166 
L 297.093661 78.149624 
L 297.41864 88.737883 
L 297.74362 67.122975 
L 298.0686 83.910631 
L 298.393579 85.022635 
L 298.718559 73.218717 
L 299.368518 89.825219 
L 299.693497 82.210842 
L 300.018477 78.023852 
L 300.343456 83.833369 
L 300.668436 81.045565 
L 300.993415 76.426421 
L 301.318395 69.660855 
L 301.968354 84.629098 
L 302.618313 67.117991 
L 302.943292 83.836996 
L 303.268272 86.391228 
L 303.593251 85.876076 
L 303.918231 90.690839 
L 304.24321 84.610785 
L 304.56819 82.119056 
L 304.89317 69.518583 
L 305.218149 79.079207 
L 305.868108 80.665416 
L 306.193088 73.185895 
L 306.518067 69.778916 
L 307.168026 81.54118 
L 307.493006 80.788977 
L 307.817985 91.128492 
L 308.142965 70.561817 
L 308.467944 83.706136 
L 308.792924 87.001822 
L 309.117903 84.853985 
L 309.442883 76.745998 
L 309.767862 85.354481 
L 310.092842 86.583013 
L 310.417821 77.01478 
L 310.742801 82.287604 
L 311.067781 79.766975 
L 311.39276 71.480208 
L 311.71774 70.898189 
L 312.042719 83.55403 
L 312.367699 78.854644 
L 312.692678 78.245789 
L 313.017658 84.269194 
L 313.342637 75.677727 
L 313.667617 93.424057 
L 313.992596 78.681393 
L 314.317576 80.793475 
L 314.642555 73.680448 
L 314.967535 81.567677 
L 315.292514 84.286224 
L 315.617494 76.183486 
L 315.942473 72.292423 
L 316.267453 87.017997 
L 316.592432 79.013946 
L 316.917412 84.434586 
L 317.242391 83.97828 
L 317.567371 75.447562 
L 317.892351 93.065627 
L 318.21733 74.354401 
L 318.54231 78.923222 
L 318.867289 80.950624 
L 319.192269 77.478606 
L 319.517248 75.301839 
L 319.842228 77.921228 
L 320.167207 71.281995 
L 320.492187 84.536914 
L 320.817166 81.043177 
L 321.142146 69.873813 
L 321.467125 89.485058 
L 321.792105 76.306502 
L 322.117084 72.489781 
L 322.442064 78.935401 
L 322.767043 74.104271 
L 323.092023 75.96236 
L 323.417002 82.277356 
L 323.741982 79.810443 
L 324.066962 67.917923 
L 324.391941 80.728155 
L 324.716921 81.939274 
L 325.0419 74.281311 
L 325.36688 70.130917 
L 325.691859 83.783546 
L 326.016839 77.586699 
L 326.341818 76.091568 
L 326.666798 78.670468 
L 326.991777 70.748161 
L 327.316757 77.15891 
L 327.641736 77.955451 
L 327.966716 83.589845 
L 328.291695 72.084492 
L 328.616675 79.273911 
L 328.941654 77.275836 
L 329.266634 77.654894 
L 329.591613 71.18465 
L 330.241572 82.323905 
L 330.891532 71.543729 
L 331.216511 79.216863 
L 331.541491 73.787141 
L 331.86647 78.452466 
L 332.19145 76.579516 
L 332.516429 81.632716 
L 332.841409 77.570406 
L 333.166388 87.323287 
L 333.491368 74.64617 
L 333.816347 77.79199 
L 334.141327 76.130715 
L 334.466306 72.868441 
L 335.116265 78.748615 
L 335.441245 79.480264 
L 336.091204 72.009191 
L 336.416183 78.051409 
L 336.741163 87.258307 
L 337.066143 86.536065 
L 337.391122 86.97944 
L 337.716102 72.839939 
L 338.041081 77.548717 
L 338.366061 79.944664 
L 338.69104 79.574247 
L 339.01602 74.227169 
L 339.340999 81.663326 
L 339.990958 78.588266 
L 340.640917 71.478483 
L 340.965897 75.897291 
L 341.290876 78.696802 
L 341.615856 79.561949 
L 341.940835 88.159167 
L 342.265815 76.600881 
L 342.590794 82.456018 
L 342.915774 75.723097 
L 343.565733 85.939773 
L 343.890713 75.250616 
L 344.215692 73.754718 
L 344.540672 77.868457 
L 344.865651 84.019654 
L 345.190631 69.99211 
L 345.51561 74.890741 
L 345.84059 69.485893 
L 346.165569 69.338652 
L 346.815528 75.774924 
L 347.140508 74.253621 
L 347.465487 79.839563 
L 347.790467 76.602694 
L 348.115446 76.517086 
L 348.440426 69.457613 
L 348.765405 73.503025 
L 349.090385 75.838371 
L 349.415364 82.697684 
L 349.740344 73.499221 
L 350.065324 72.795366 
L 350.390303 83.732662 
L 350.715283 74.309828 
L 351.040262 85.33431 
L 351.365242 78.887938 
L 351.690221 75.55281 
L 352.015201 77.427058 
L 352.34018 67.711496 
L 352.66516 84.257118 
L 352.990139 77.231558 
L 353.315119 78.589298 
L 353.640098 73.273066 
L 353.965078 71.624412 
L 354.615037 81.4427 
L 354.940016 77.02926 
L 355.264996 66.704534 
L 355.589975 82.824371 
L 355.914955 78.694 
L 356.239934 68.399339 
L 356.564914 79.421049 
L 356.889894 82.871864 
L 357.214873 70.81901 
L 357.539853 72.21895 
L 357.864832 66.376065 
L 358.189812 72.534988 
L 358.514791 65.192829 
L 358.839771 74.403884 
L 359.16475 68.592701 
L 359.48973 80.343214 
L 359.814709 81.305854 
L 360.139689 70.857184 
L 360.464668 70.361009 
L 360.789648 78.392883 
L 361.114627 73.872912 
L 361.439607 86.683351 
L 361.764586 64.112555 
L 362.414545 79.613527 
L 362.739525 79.499314 
L 363.064505 72.803608 
L 363.389484 75.606038 
L 363.714464 82.825226 
L 364.039443 74.678166 
L 364.364423 76.844331 
L 364.689402 75.062547 
L 365.014382 75.280386 
L 365.339361 72.994847 
L 365.664341 72.851116 
L 365.98932 74.340541 
L 366.3143 68.127785 
L 366.639279 76.731843 
L 366.964259 66.580265 
L 367.289238 82.159811 
L 367.614218 80.81456 
L 367.939197 83.179218 
L 368.264177 69.024368 
L 368.589156 80.692901 
L 368.914136 81.473605 
L 369.564095 73.480421 
L 369.889075 76.163891 
L 370.214054 64.571205 
L 370.539034 70.573068 
L 370.864013 65.689535 
L 371.188993 83.37494 
L 371.513972 75.231418 
L 371.838952 73.918635 
L 372.163931 76.693522 
L 372.488911 71.774838 
L 372.81389 81.977418 
L 373.13887 73.28585 
L 373.463849 73.713668 
L 373.788829 82.086692 
L 374.113808 82.711943 
L 374.438788 78.1649 
L 374.763767 84.834389 
L 375.088747 65.256187 
L 375.413726 79.017854 
L 375.738706 81.878231 
L 376.063686 75.069551 
L 376.388665 61.670133 
L 376.713645 83.028438 
L 377.038624 83.64499 
L 377.363604 79.679848 
L 377.688583 78.935652 
L 378.013563 74.217039 
L 378.338542 79.699444 
L 378.663522 71.476832 
L 378.988501 71.586312 
L 379.313481 86.216561 
L 379.63846 80.770605 
L 379.96344 65.803512 
L 380.288419 78.356228 
L 380.613399 79.838133 
L 380.938378 78.533076 
L 381.263358 98.049203 
L 381.588337 79.416669 
L 382.238296 74.392841 
L 382.563276 92.599959 
L 382.888256 66.747397 
L 383.213235 65.808216 
L 383.538215 68.456858 
L 383.863194 83.297928 
L 384.188174 77.995704 
L 384.513153 75.975438 
L 384.838133 66.355231 
L 385.163112 74.793205 
L 385.488092 78.505164 
L 385.813071 65.45471 
L 386.138051 76.835086 
L 386.46303 78.789458 
L 386.78801 70.619071 
L 387.437969 74.434406 
L 387.762948 79.308532 
L 388.087928 74.175297 
L 388.412907 75.554107 
L 388.737887 75.066793 
L 389.062867 82.254266 
L 389.712826 70.950636 
L 390.037805 70.373055 
L 390.362785 74.8931 
L 390.687764 68.132562 
L 391.012744 79.860943 
L 391.337723 69.570691 
L 391.662703 81.179035 
L 391.987682 75.241327 
L 392.312662 82.563021 
L 392.637641 82.382368 
L 392.962621 80.604005 
L 393.2876 69.941447 
L 393.61258 81.636756 
L 393.937559 68.873235 
L 394.262539 76.60122 
L 394.587518 80.693594 
L 394.912498 77.324331 
L 395.237477 75.674837 
L 395.562457 70.670427 
L 395.887437 76.410762 
L 396.212416 77.817912 
L 396.537396 61.342195 
L 397.187355 87.137341 
L 397.512334 64.350314 
L 397.837314 84.972503 
L 398.487273 78.792053 
L 398.487273 78.792053 
" clip-path="url(#pcf8296e844)" style="fill: none; stroke: #008000; stroke-width: 1.5; stroke-linecap: square"/>
   </g>
   <g id="line2d_18">
    <path d="M 73.832727 53.697827 
L 74.482686 111.579819 
L 75.132645 173.678866 
L 75.782604 204.686419 
L 76.107584 211.791889 
L 76.432563 215.051376 
L 76.757543 216.390435 
L 77.407502 209.67677 
L 77.732482 209.328212 
L 78.057461 198.875199 
L 78.382441 198.080936 
L 79.0324 184.679204 
L 79.357379 184.389698 
L 79.682359 184.368274 
L 80.332318 168.829969 
L 80.657297 169.204618 
L 80.982277 162.604297 
L 81.307256 161.800045 
L 81.632236 158.41763 
L 81.957215 151.969032 
L 82.282195 154.263535 
L 82.932154 149.954059 
L 83.257133 151.103957 
L 83.907093 139.163414 
L 84.232072 149.814751 
L 84.557052 142.270235 
L 84.882031 145.185875 
L 85.207011 142.056524 
L 85.53199 144.293095 
L 85.85697 140.452783 
L 86.181949 142.670879 
L 86.506929 139.690111 
L 86.831908 130.647042 
L 87.156888 131.288719 
L 87.481867 131.265304 
L 87.806847 131.077648 
L 88.456806 121.06411 
L 88.781785 120.246735 
L 89.106765 128.374052 
L 89.431744 117.454685 
L 89.756724 120.782249 
L 90.081704 129.092696 
L 90.406683 129.132978 
L 90.731663 128.982626 
L 91.056642 129.618626 
L 91.381622 129.869346 
L 91.706601 125.559428 
L 92.031581 131.725753 
L 92.35656 127.143087 
L 92.68154 133.028274 
L 93.006519 122.286287 
L 93.331499 133.081974 
L 93.656478 130.597633 
L 93.981458 133.920995 
L 94.306437 131.518265 
L 94.631417 130.15529 
L 94.956396 133.092251 
L 95.281376 132.580181 
L 95.606355 131.209657 
L 95.931335 134.110627 
L 96.256314 135.021631 
L 96.581294 133.814877 
L 96.906274 140.414638 
L 97.231253 124.58856 
L 97.556233 130.341531 
L 97.881212 129.127567 
L 98.206192 130.445555 
L 98.531171 123.889571 
L 98.856151 124.882305 
L 99.18113 123.563742 
L 99.50611 128.718445 
L 99.831089 128.531997 
L 100.156069 132.91589 
L 100.481048 131.270878 
L 100.806028 127.113332 
L 101.131007 135.008213 
L 101.455987 128.716454 
L 101.780966 124.650429 
L 102.105946 131.648033 
L 102.430925 124.9753 
L 102.755905 123.367106 
L 103.080885 128.939542 
L 103.405864 128.759892 
L 103.730844 121.57702 
L 104.055823 127.758046 
L 104.380803 121.211188 
L 104.705782 127.808738 
L 105.030762 124.911352 
L 105.680721 128.377104 
L 106.0057 126.725766 
L 106.33068 119.735107 
L 106.655659 123.953253 
L 106.980639 130.694181 
L 107.305618 123.288502 
L 107.630598 132.462238 
L 107.955577 128.438619 
L 108.280557 119.423226 
L 108.605536 125.268617 
L 108.930516 125.323659 
L 109.580475 133.209856 
L 109.905455 128.548939 
L 110.230434 129.382681 
L 110.555414 127.560761 
L 110.880393 114.951249 
L 111.205373 126.353565 
L 111.530352 116.3557 
L 111.855332 118.963131 
L 112.180311 115.861457 
L 112.505291 123.296862 
L 112.83027 119.918576 
L 113.15525 122.960284 
L 113.480229 115.567859 
L 113.805209 119.775375 
L 114.130188 117.922609 
L 114.455168 120.574555 
L 115.105127 129.849514 
L 115.430106 126.250263 
L 115.755086 126.302828 
L 116.080066 123.55892 
L 116.405045 126.645555 
L 116.730025 126.217147 
L 117.379984 121.318825 
L 117.704963 113.844346 
L 118.029943 124.016774 
L 118.354922 123.214969 
L 118.679902 121.435869 
L 119.004881 127.01898 
L 119.329861 122.365687 
L 119.65484 119.798819 
L 119.97982 126.235179 
L 120.304799 122.109158 
L 120.954758 121.71972 
L 121.279738 120.007826 
L 121.604717 124.168689 
L 121.929697 124.017423 
L 122.254676 124.955144 
L 122.579656 122.824529 
L 122.904636 127.790764 
L 123.229615 126.174048 
L 123.554595 122.794848 
L 123.879574 121.09298 
L 124.204554 123.716305 
L 124.529533 123.016402 
L 125.179492 123.817646 
L 125.504472 114.547951 
L 125.829451 115.042194 
L 126.154431 127.099089 
L 126.47941 118.096583 
L 126.80439 121.729274 
L 127.129369 114.315868 
L 127.454349 119.172639 
L 127.779328 121.515756 
L 128.104308 117.916137 
L 128.429287 119.882186 
L 128.754267 119.874356 
L 129.079247 118.162565 
L 129.404226 117.743594 
L 129.729206 121.791866 
L 130.054185 121.17269 
L 130.379165 118.357683 
L 130.704144 121.142979 
L 131.029124 122.361308 
L 131.354103 121.792043 
L 131.679083 117.833758 
L 132.004062 115.812121 
L 132.329042 121.376418 
L 132.654021 118.069556 
L 132.979001 117.008376 
L 133.30398 125.73029 
L 133.62896 127.288559 
L 133.953939 120.476694 
L 134.278919 124.42715 
L 134.603898 119.209162 
L 134.928878 121.710386 
L 135.253857 117.541974 
L 135.578837 119.065371 
L 135.903817 119.284832 
L 136.228796 116.79328 
L 136.878755 124.275868 
L 137.203735 121.140296 
L 137.853694 124.39073 
L 138.178673 117.440044 
L 138.503653 127.024598 
L 138.828632 116.49694 
L 139.153612 118.44941 
L 139.478591 123.120633 
L 139.803571 124.293297 
L 140.12855 123.3995 
L 140.45353 126.570313 
L 141.428468 118.68565 
L 141.753448 119.076563 
L 142.078428 116.570089 
L 142.403407 109.956379 
L 143.378346 118.16059 
L 143.703325 113.486182 
L 144.028305 123.369008 
L 144.353284 123.556885 
L 144.678264 122.826062 
L 145.003243 117.702662 
L 145.328223 115.575409 
L 145.653202 121.470711 
L 145.978182 117.897337 
L 146.303161 126.481461 
L 146.628141 117.691515 
L 146.95312 124.169117 
L 147.2781 116.615621 
L 147.603079 125.386723 
L 147.928059 122.567587 
L 148.578018 114.682113 
L 148.902998 119.149062 
L 149.227977 114.315072 
L 149.552957 113.252714 
L 149.877936 121.617745 
L 150.202916 115.926407 
L 150.527895 121.178381 
L 150.852875 115.689474 
L 151.177854 118.800438 
L 151.502834 116.584996 
L 151.827813 116.844208 
L 152.152793 122.849698 
L 152.477772 119.772529 
L 152.802752 118.974632 
L 153.127731 119.115946 
L 153.452711 112.812671 
L 153.77769 117.098142 
L 154.10267 123.445371 
L 154.427649 117.023578 
L 154.752629 121.512836 
L 155.727568 112.368044 
L 156.052547 116.75658 
L 156.377527 114.312138 
L 156.702506 118.03178 
L 157.352465 122.015411 
L 157.677445 109.974102 
L 158.002424 110.587129 
L 158.327404 116.522803 
L 158.652383 115.387531 
L 158.977363 116.472376 
L 159.302342 120.138582 
L 159.627322 117.490751 
L 159.952301 119.451934 
L 160.277281 113.703991 
L 160.60226 113.574901 
L 160.92724 119.206228 
L 161.252219 116.286046 
L 161.577199 124.067614 
L 161.902179 107.298344 
L 162.227158 121.116999 
L 162.552138 114.439769 
L 162.877117 114.919931 
L 163.527076 122.659638 
L 163.852056 121.434881 
L 164.177035 111.905427 
L 164.502015 112.672906 
L 164.826994 120.056469 
L 165.151974 115.540434 
L 165.476953 113.954888 
L 165.801933 120.630157 
L 166.126912 111.545877 
L 166.451892 116.788827 
L 167.101851 120.286103 
L 167.42683 119.31612 
L 167.75181 120.787734 
L 168.07679 109.736151 
L 168.401769 115.796314 
L 168.726749 117.425579 
L 169.051728 121.589317 
L 169.376708 116.463042 
L 169.701687 115.069384 
L 170.026667 119.705721 
L 170.351646 117.818806 
L 170.676626 121.076879 
L 171.001605 121.696172 
L 171.651564 114.527293 
L 171.976544 122.617807 
L 172.626503 112.713277 
L 172.951482 129.110994 
L 173.276462 127.935027 
L 173.601441 114.390506 
L 173.926421 115.844648 
L 174.2514 113.237998 
L 174.57638 113.775031 
L 174.90136 115.41245 
L 175.226339 113.122458 
L 175.876298 125.425605 
L 176.201278 111.179662 
L 176.851237 116.811092 
L 177.501196 110.291291 
L 177.826175 118.201978 
L 178.151155 112.640939 
L 178.476134 124.31248 
L 178.801114 120.474099 
L 179.126093 121.137022 
L 179.451073 115.068927 
L 179.776052 124.288298 
L 180.101032 114.430184 
L 180.426011 116.200807 
L 180.750991 114.102674 
L 181.075971 119.932377 
L 181.40095 117.029697 
L 181.72593 120.17944 
L 182.050909 119.171622 
L 182.375889 118.616733 
L 182.700868 109.873543 
L 183.025848 111.6462 
L 183.350827 109.311665 
L 183.675807 116.639301 
L 184.325766 114.176191 
L 184.650745 115.500446 
L 184.975725 114.936991 
L 185.300704 113.087985 
L 185.625684 121.915515 
L 185.950663 111.400789 
L 186.275643 118.19058 
L 186.600622 108.879452 
L 186.925602 118.133504 
L 187.250581 113.507252 
L 187.575561 118.736667 
L 187.900541 115.367478 
L 188.22552 109.706573 
L 188.5505 123.284122 
L 188.875479 118.958634 
L 189.200459 116.815456 
L 189.525438 111.809822 
L 189.850418 108.849063 
L 190.175397 112.077852 
L 190.500377 113.144384 
L 190.825356 120.753482 
L 191.475315 115.649884 
L 191.800295 111.938913 
L 192.125274 118.041172 
L 192.450254 107.198109 
L 192.775233 107.060408 
L 193.100213 117.380283 
L 193.425192 105.91368 
L 193.750172 122.016856 
L 194.075152 109.600102 
L 194.725111 119.024366 
L 195.05009 117.79579 
L 195.37507 119.071136 
L 195.700049 114.278815 
L 196.025029 117.833006 
L 196.350008 105.375924 
L 196.674988 114.276898 
L 196.999967 113.222855 
L 197.324947 115.037196 
L 197.649926 109.058837 
L 197.974906 112.123974 
L 198.299885 112.289425 
L 198.624865 115.887466 
L 198.949844 108.346459 
L 199.274824 108.512161 
L 199.599803 112.947689 
L 199.924783 113.982814 
L 200.249762 101.947256 
L 200.899722 115.9069 
L 201.224701 105.115901 
L 201.87466 112.499685 
L 202.19964 106.439433 
L 202.849599 113.589321 
L 203.174578 106.779388 
L 203.499558 107.161852 
L 203.824537 108.442772 
L 204.149517 114.045243 
L 204.474496 106.162173 
L 204.799476 114.62831 
L 205.124455 111.785155 
L 205.449435 112.990773 
L 205.774414 107.238377 
L 206.099394 108.966844 
L 206.424373 108.214022 
L 206.749353 105.457183 
L 207.074333 112.082482 
L 207.399312 112.096106 
L 207.724292 115.87716 
L 208.049271 109.328828 
L 208.374251 113.022976 
L 208.69923 114.812648 
L 209.02421 121.423233 
L 209.349189 109.454792 
L 209.674169 102.671709 
L 209.999148 110.519569 
L 210.324128 108.222087 
L 210.649107 113.434413 
L 210.974087 109.305502 
L 211.299066 110.186972 
L 211.624046 111.908937 
L 211.949025 103.027234 
L 212.274005 117.017091 
L 212.598984 109.60078 
L 212.923964 113.560245 
L 213.248943 109.433899 
L 213.573923 107.559016 
L 213.898903 111.83107 
L 214.223882 101.388961 
L 214.548862 116.010172 
L 214.873841 116.616269 
L 215.198821 105.828043 
L 215.5238 113.644275 
L 215.84878 111.417229 
L 216.173759 114.824459 
L 216.498739 112.440588 
L 216.823718 114.887581 
L 217.148698 116.41061 
L 217.473677 113.511174 
L 217.798657 112.108153 
L 218.123636 114.185894 
L 218.448616 113.434015 
L 218.773595 114.438058 
L 219.098575 108.758958 
L 219.423554 110.031135 
L 219.748534 109.709788 
L 220.073514 115.213735 
L 220.398493 102.520708 
L 220.723473 102.348445 
L 221.048452 113.280861 
L 221.373432 107.855533 
L 221.698411 108.297993 
L 222.023391 103.156531 
L 222.34837 109.693023 
L 222.67335 101.525954 
L 222.998329 110.769492 
L 223.323309 111.67333 
L 223.648288 109.083726 
L 223.973268 108.400543 
L 224.298247 116.056795 
L 224.623227 105.050582 
L 224.948206 112.219992 
L 225.273186 113.735958 
L 225.598165 118.690103 
L 225.923145 112.204878 
L 226.248124 117.72733 
L 226.573104 110.225485 
L 226.898084 99.948488 
L 227.223063 109.619476 
L 227.548043 113.793153 
L 227.873022 110.024957 
L 228.198002 98.03894 
L 228.522981 106.808804 
L 229.17294 107.750801 
L 229.49792 115.907563 
L 229.822899 106.42603 
L 230.147879 113.90191 
L 230.472858 107.793944 
L 230.797838 114.662385 
L 231.122817 111.391676 
L 231.447797 112.483244 
L 231.772776 115.65189 
L 232.097756 115.458896 
L 232.422735 109.146553 
L 232.747715 111.31375 
L 233.397674 104.552843 
L 233.722654 116.23845 
L 234.047633 115.647997 
L 234.372613 112.156869 
L 234.697592 112.790716 
L 235.022572 112.505981 
L 235.347551 110.58278 
L 235.672531 113.580165 
L 235.99751 103.18577 
L 236.32249 111.69011 
L 236.647469 113.632228 
L 236.972449 105.22482 
L 237.297428 115.212511 
L 237.622408 103.223059 
L 237.947387 107.776605 
L 238.272367 119.485773 
L 238.597346 107.283304 
L 238.922326 112.510655 
L 239.247305 110.911941 
L 239.572285 112.154599 
L 239.897265 121.546543 
L 240.222244 118.47281 
L 240.547224 106.666738 
L 240.872203 111.224176 
L 241.197183 101.400933 
L 241.522162 116.01604 
L 241.847142 104.517058 
L 242.172121 120.308191 
L 242.497101 116.851404 
L 242.82208 118.11982 
L 243.14706 107.158387 
L 243.472039 111.533565 
L 243.797019 111.172496 
L 244.121998 115.436027 
L 244.446978 114.951042 
L 244.771957 115.559912 
L 245.096937 105.557934 
L 245.421916 104.562693 
L 245.746896 107.094896 
L 246.071876 105.432603 
L 246.396855 110.116595 
L 246.721835 111.801049 
L 247.046814 107.272895 
L 247.371794 115.202116 
L 247.696773 102.65232 
L 248.021753 111.653101 
L 248.346732 104.901409 
L 248.671712 116.097343 
L 248.996691 107.64865 
L 249.321671 102.515607 
L 249.64665 113.704832 
L 249.97163 114.57051 
L 250.296609 111.233347 
L 250.621589 118.232795 
L 250.946568 116.411509 
L 251.271548 104.820018 
L 251.596527 110.88658 
L 252.246486 113.820342 
L 252.571466 120.914598 
L 252.896446 110.267272 
L 253.221425 108.239073 
L 253.546405 116.567848 
L 253.871384 110.539828 
L 254.196364 110.329893 
L 254.846323 111.040398 
L 255.171302 113.824338 
L 255.496282 110.428918 
L 255.821261 110.182578 
L 256.146241 107.630735 
L 256.47122 116.112854 
L 256.7962 112.864455 
L 257.121179 113.751882 
L 257.446159 110.235571 
L 257.771138 122.024626 
L 258.421097 108.20227 
L 258.746077 112.915678 
L 259.071057 123.948432 
L 259.396036 117.861316 
L 259.721016 114.742861 
L 260.045995 117.517616 
L 260.370975 113.343777 
L 260.695954 104.936413 
L 261.345913 118.871891 
L 261.670893 106.866692 
L 262.320852 112.207931 
L 262.645831 108.29385 
L 262.970811 109.279669 
L 263.29579 100.157568 
L 263.62077 125.050071 
L 263.945749 117.850552 
L 264.270729 113.180228 
L 264.595708 123.473533 
L 265.245667 106.994145 
L 265.570647 109.510542 
L 265.895627 114.384314 
L 266.220606 117.462146 
L 266.545586 108.490899 
L 266.870565 118.335094 
L 267.195545 105.845898 
L 267.520524 116.194452 
L 267.845504 110.800707 
L 268.170483 113.29217 
L 268.495463 109.262934 
L 268.820442 119.940088 
L 269.145422 105.703671 
L 269.470401 108.163079 
L 269.795381 108.114642 
L 270.12036 114.738866 
L 270.44534 113.932564 
L 270.770319 116.015554 
L 271.095299 112.007181 
L 271.420278 110.989558 
L 271.745258 108.015691 
L 272.395217 119.392705 
L 272.720197 120.785685 
L 273.045176 112.505568 
L 273.370156 111.696155 
L 273.695135 107.818553 
L 274.020115 111.971838 
L 274.345094 103.583052 
L 274.995053 116.756064 
L 275.320033 106.91532 
L 275.969992 116.30203 
L 276.94493 104.158834 
L 277.26991 106.352926 
L 277.594889 110.882865 
L 277.919869 112.663661 
L 278.244848 108.785292 
L 278.569828 112.758543 
L 278.894808 110.230085 
L 279.219787 106.683503 
L 279.544767 112.955297 
L 279.869746 108.562883 
L 280.194726 117.321481 
L 280.519705 110.787053 
L 280.844685 118.318373 
L 281.169664 108.301886 
L 281.819623 115.083126 
L 282.144603 99.663959 
L 282.469582 113.354791 
L 282.794562 110.594458 
L 283.119541 103.057476 
L 283.444521 109.411841 
L 283.7695 105.889174 
L 284.09448 109.566366 
L 284.419459 101.471944 
L 284.744439 115.045365 
L 285.069419 108.452902 
L 285.394398 116.059759 
L 285.719378 107.106766 
L 286.044357 109.819164 
L 286.369337 114.356933 
L 286.694316 110.464291 
L 287.019296 114.278667 
L 287.344275 111.004376 
L 287.669255 115.268526 
L 287.994234 109.748345 
L 288.319214 112.530958 
L 288.644193 106.080576 
L 288.969173 111.344139 
L 289.294152 110.770937 
L 289.619132 106.867222 
L 289.944111 115.331678 
L 290.269091 117.752544 
L 290.59407 115.388888 
L 290.91905 108.921725 
L 291.569009 105.733573 
L 291.893989 111.623803 
L 292.218968 103.862259 
L 292.543948 113.098749 
L 292.868927 111.674141 
L 293.193907 111.184896 
L 293.518886 109.989982 
L 293.843866 111.541719 
L 294.168845 107.997525 
L 294.493825 113.563253 
L 294.818804 115.132241 
L 295.468763 107.184382 
L 295.793743 110.432722 
L 296.118722 109.4656 
L 296.443702 104.100843 
L 296.768681 107.381858 
L 297.093661 105.177593 
L 297.41864 111.728608 
L 297.74362 111.378952 
L 298.0686 110.237959 
L 298.393579 110.659806 
L 298.718559 104.318977 
L 299.043538 115.249948 
L 299.368518 108.575475 
L 300.018477 104.636343 
L 300.343456 110.23473 
L 300.668436 118.080467 
L 300.993415 107.670044 
L 301.318395 109.861364 
L 301.643374 109.797047 
L 301.968354 105.957899 
L 302.293333 109.737478 
L 302.618313 111.051913 
L 302.943292 117.707513 
L 303.268272 113.437377 
L 303.593251 113.243911 
L 303.918231 112.479735 
L 304.24321 117.587402 
L 304.56819 110.90684 
L 304.89317 114.112126 
L 305.218149 106.982379 
L 305.543129 110.057793 
L 305.868108 103.619103 
L 306.193088 101.04849 
L 306.518067 104.186466 
L 306.843047 110.240864 
L 307.168026 106.729654 
L 307.493006 117.106001 
L 307.817985 110.508481 
L 308.142965 99.702162 
L 308.792924 112.264713 
L 309.117903 104.480403 
L 309.442883 110.85196 
L 309.767862 113.944448 
L 310.092842 114.539296 
L 310.417821 105.902872 
L 310.742801 101.581763 
L 311.067781 113.510068 
L 311.39276 105.439032 
L 311.71774 106.624981 
L 312.042719 106.801564 
L 312.367699 110.174203 
L 312.692678 102.80136 
L 313.017658 102.857921 
L 313.342637 104.879056 
L 313.992596 115.605444 
L 314.317576 107.24429 
L 314.642555 106.864229 
L 314.967535 104.214805 
L 315.292514 106.892908 
L 315.617494 101.162201 
L 315.942473 100.710983 
L 316.267453 107.482624 
L 316.592432 108.758486 
L 316.917412 108.267531 
L 317.242391 114.985324 
L 317.567371 110.568713 
L 317.892351 112.623953 
L 318.21733 104.393777 
L 318.54231 102.950488 
L 318.867289 110.19517 
L 319.192269 107.631103 
L 319.517248 114.063424 
L 319.842228 116.131919 
L 320.167207 108.398494 
L 320.492187 107.665621 
L 320.817166 114.508921 
L 321.142146 102.124296 
L 321.467125 108.764782 
L 321.792105 96.089553 
L 322.117084 106.834666 
L 322.767043 116.352309 
L 323.092023 107.833121 
L 323.417002 113.621848 
L 324.066962 97.411095 
L 324.391941 109.59699 
L 324.716921 106.628107 
L 325.0419 114.102084 
L 325.36688 108.413282 
L 325.691859 105.801753 
L 326.016839 108.063139 
L 326.341818 106.887202 
L 326.666798 117.08151 
L 326.991777 107.97644 
L 327.316757 109.108586 
L 327.641736 107.453356 
L 327.966716 112.695347 
L 328.291695 113.600291 
L 328.616675 115.720305 
L 328.941654 111.775025 
L 329.266634 113.541209 
L 329.916593 100.513801 
L 330.241572 108.547415 
L 330.566552 106.249993 
L 330.891532 99.895289 
L 331.216511 103.948427 
L 331.541491 99.171469 
L 331.86647 104.778674 
L 332.19145 107.938517 
L 332.516429 109.672144 
L 332.841409 112.861241 
L 333.166388 103.716168 
L 333.491368 108.445131 
L 333.816347 103.996775 
L 334.141327 112.654623 
L 334.466306 116.530794 
L 334.791286 107.504299 
L 335.116265 105.427472 
L 335.766224 110.800191 
L 336.091204 104.32486 
L 336.741163 110.673047 
L 337.066143 111.612626 
L 337.716102 97.310816 
L 338.041081 109.820963 
L 338.366061 110.086973 
L 338.69104 107.919393 
L 339.01602 110.469186 
L 339.340999 110.737452 
L 339.665979 117.1569 
L 340.315938 100.691977 
L 340.640917 103.215569 
L 340.965897 104.287409 
L 341.290876 104.563106 
L 341.615856 107.380295 
L 341.940835 107.423099 
L 342.265815 107.233187 
L 342.590794 109.559391 
L 342.915774 104.032059 
L 343.240753 110.450018 
L 343.565733 108.99918 
L 343.890713 105.464526 
L 344.215692 113.634543 
L 344.540672 107.243671 
L 344.865651 104.268063 
L 345.190631 99.444409 
L 345.51561 107.24889 
L 345.84059 102.474572 
L 346.165569 110.45773 
L 346.490549 108.629824 
L 346.815528 99.63183 
L 347.140508 113.303229 
L 347.465487 108.388895 
L 347.790467 109.376542 
L 348.115446 107.622271 
L 348.440426 111.244671 
L 348.765405 102.146339 
L 349.090385 103.058243 
L 349.415364 113.029301 
L 349.740344 100.517723 
L 350.065324 96.789574 
L 350.390303 107.910192 
L 350.715283 104.081926 
L 351.040262 111.911325 
L 351.365242 114.480906 
L 351.690221 111.950502 
L 352.015201 105.888083 
L 352.34018 106.726661 
L 352.66516 104.982328 
L 352.990139 110.826658 
L 353.315119 108.082293 
L 353.640098 110.689546 
L 353.965078 103.384441 
L 354.290057 115.039555 
L 354.615037 102.886555 
L 354.940016 108.97578 
L 355.264996 110.894778 
L 355.589975 110.492144 
L 355.914955 104.0632 
L 356.239934 111.337416 
L 356.564914 110.853493 
L 356.889894 112.035874 
L 357.214873 101.341984 
L 357.539853 107.474824 
L 357.864832 105.300564 
L 358.189812 105.108042 
L 358.514791 101.113544 
L 358.839771 114.505427 
L 359.16475 105.999229 
L 359.48973 109.619417 
L 359.814709 105.043298 
L 360.139689 109.185435 
L 360.464668 103.678819 
L 360.789648 103.512115 
L 361.114627 100.631774 
L 361.439607 107.862566 
L 361.764586 100.755217 
L 362.089566 103.522451 
L 362.414545 113.148011 
L 362.739525 112.219844 
L 363.064505 96.959006 
L 363.389484 101.502068 
L 363.714464 110.924121 
L 364.364423 103.945198 
L 364.689402 109.111947 
L 365.014382 105.480966 
L 365.339361 106.688988 
L 365.664341 104.665877 
L 365.98932 104.232912 
L 366.639279 105.838438 
L 366.964259 109.122431 
L 367.289238 111.097489 
L 367.614218 116.207707 
L 367.939197 97.34178 
L 368.589156 109.347038 
L 368.914136 106.985696 
L 369.239115 108.781562 
L 369.564095 100.075897 
L 369.889075 113.168801 
L 370.214054 102.312866 
L 370.539034 100.582335 
L 370.864013 97.123941 
L 371.188993 102.21418 
L 371.513972 104.292392 
L 371.838952 103.906095 
L 372.163931 104.570537 
L 372.488911 95.853268 
L 372.81389 112.453106 
L 373.13887 104.709167 
L 373.463849 100.261327 
L 373.788829 104.059337 
L 374.113808 105.392262 
L 374.438788 102.393019 
L 374.763767 112.038292 
L 375.088747 103.834612 
L 375.413726 112.426462 
L 375.738706 104.010753 
L 376.063686 102.933546 
L 376.388665 103.083486 
L 376.713645 109.889556 
L 377.038624 110.115666 
L 377.363604 110.559571 
L 377.688583 105.330437 
L 378.013563 109.406842 
L 378.338542 110.06145 
L 378.663522 106.260181 
L 378.988501 104.910094 
L 379.313481 107.385559 
L 379.63846 108.642047 
L 379.96344 104.82624 
L 380.288419 110.131458 
L 380.613399 103.494259 
L 381.263358 109.747549 
L 381.588337 110.374097 
L 381.913317 112.982398 
L 382.238296 100.100255 
L 382.563276 103.351737 
L 382.888256 104.823468 
L 383.213235 108.888461 
L 383.538215 104.938035 
L 383.863194 107.720132 
L 384.188174 104.571908 
L 384.513153 109.646105 
L 384.838133 98.183822 
L 385.163112 109.050978 
L 385.488092 107.56257 
L 385.813071 98.74834 
L 386.138051 102.840905 
L 386.46303 102.531059 
L 386.78801 102.789077 
L 387.112989 105.553451 
L 387.437969 101.803214 
L 387.762948 107.427641 
L 388.087928 101.077802 
L 388.412907 97.624539 
L 388.737887 112.305968 
L 389.062867 112.280342 
L 389.387846 112.134679 
L 389.712826 101.864361 
L 390.037805 104.009293 
L 390.362785 103.443611 
L 390.687764 100.708977 
L 391.012744 108.2179 
L 391.337723 110.172566 
L 391.662703 108.069406 
L 391.987682 99.318091 
L 392.312662 108.096565 
L 392.637641 108.809459 
L 392.962621 105.315633 
L 393.2876 110.458187 
L 393.61258 103.33742 
L 394.262539 109.98143 
L 394.587518 102.092226 
L 394.912498 106.596081 
L 395.562457 93.997259 
L 395.887437 105.86315 
L 396.212416 103.487949 
L 396.537396 109.237971 
L 396.862375 111.15865 
L 397.187355 107.597176 
L 397.512334 102.329926 
L 397.837314 103.473971 
L 398.162293 106.860941 
L 398.487273 106.831157 
L 398.487273 106.831157 
" clip-path="url(#pcf8296e844)" style="fill: none; stroke: #ff0000; stroke-width: 1.5; stroke-linecap: square"/>
   </g>
   <g id="patch_3">
    <path d="M 57.6 307.584 
L 57.6 41.472 
" style="fill: none; stroke: #000000; stroke-width: 0.8; stroke-linejoin: miter; stroke-linecap: square"/>
   </g>
   <g id="patch_4">
    <path d="M 414.72 307.584 
L 414.72 41.472 
" style="fill: none; stroke: #000000; stroke-width: 0.8; stroke-linejoin: miter; stroke-linecap: square"/>
   </g>
   <g id="patch_5">
    <path d="M 57.6 307.584 
L 414.72 307.584 
" style="fill: none; stroke: #000000; stroke-width: 0.8; stroke-linejoin: miter; stroke-linecap: square"/>
   </g>
   <g id="patch_6">
    <path d="M 57.6 41.472 
L 414.72 41.472 
" style="fill: none; stroke: #000000; stroke-width: 0.8; stroke-linejoin: miter; stroke-linecap: square"/>
   </g>
   <g id="text_18">
    <!-- spectrumGCN+Cora+WithGraph_Cora_WithOutGraph_Training and Validation loss -->
    <g transform="translate(-9.445312 35.472) scale(0.12 -0.12)">
     <defs>
      <path id="DejaVuSans-74" d="M 1172 4494 
L 1172 3500 
L 2356 3500 
L 2356 3053 
L 1172 3053 
L 1172 1153 
Q 1172 725 1289 603 
Q 1406 481 1766 481 
L 2356 481 
L 2356 0 
L 1766 0 
Q 1100 0 847 248 
Q 594 497 594 1153 
L 594 3053 
L 172 3053 
L 172 3500 
L 594 3500 
L 594 4494 
L 1172 4494 
z
" transform="scale(0.015625)"/>
      <path id="DejaVuSans-72" d="M 2631 2963 
Q 2534 3019 2420 3045 
Q 2306 3072 2169 3072 
Q 1681 3072 1420 2755 
Q 1159 2438 1159 1844 
L 1159 0 
L 581 0 
L 581 3500 
L 1159 3500 
L 1159 2956 
Q 1341 3275 1631 3429 
Q 1922 3584 2338 3584 
Q 2397 3584 2469 3576 
Q 2541 3569 2628 3553 
L 2631 2963 
z
" transform="scale(0.015625)"/>
      <path id="DejaVuSans-75" d="M 544 1381 
L 544 3500 
L 1119 3500 
L 1119 1403 
Q 1119 906 1312 657 
Q 1506 409 1894 409 
Q 2359 409 2629 706 
Q 2900 1003 2900 1516 
L 2900 3500 
L 3475 3500 
L 3475 0 
L 2900 0 
L 2900 538 
Q 2691 219 2414 64 
Q 2138 -91 1772 -91 
Q 1169 -91 856 284 
Q 544 659 544 1381 
z
M 1991 3584 
L 1991 3584 
z
" transform="scale(0.015625)"/>
      <path id="DejaVuSans-6d" d="M 3328 2828 
Q 3544 3216 3844 3400 
Q 4144 3584 4550 3584 
Q 5097 3584 5394 3201 
Q 5691 2819 5691 2113 
L 5691 0 
L 5113 0 
L 5113 2094 
Q 5113 2597 4934 2840 
Q 4756 3084 4391 3084 
Q 3944 3084 3684 2787 
Q 3425 2491 3425 1978 
L 3425 0 
L 2847 0 
L 2847 2094 
Q 2847 2600 2669 2842 
Q 2491 3084 2119 3084 
Q 1678 3084 1418 2786 
Q 1159 2488 1159 1978 
L 1159 0 
L 581 0 
L 581 3500 
L 1159 3500 
L 1159 2956 
Q 1356 3278 1631 3431 
Q 1906 3584 2284 3584 
Q 2666 3584 2933 3390 
Q 3200 3197 3328 2828 
z
" transform="scale(0.015625)"/>
      <path id="DejaVuSans-47" d="M 3809 666 
L 3809 1919 
L 2778 1919 
L 2778 2438 
L 4434 2438 
L 4434 434 
Q 4069 175 3628 42 
Q 3188 -91 2688 -91 
Q 1594 -91 976 548 
Q 359 1188 359 2328 
Q 359 3472 976 4111 
Q 1594 4750 2688 4750 
Q 3144 4750 3555 4637 
Q 3966 4525 4313 4306 
L 4313 3634 
Q 3963 3931 3569 4081 
Q 3175 4231 2741 4231 
Q 1884 4231 1454 3753 
Q 1025 3275 1025 2328 
Q 1025 1384 1454 906 
Q 1884 428 2741 428 
Q 3075 428 3337 486 
Q 3600 544 3809 666 
z
" transform="scale(0.015625)"/>
      <path id="DejaVuSans-43" d="M 4122 4306 
L 4122 3641 
Q 3803 3938 3442 4084 
Q 3081 4231 2675 4231 
Q 1875 4231 1450 3742 
Q 1025 3253 1025 2328 
Q 1025 1406 1450 917 
Q 1875 428 2675 428 
Q 3081 428 3442 575 
Q 3803 722 4122 1019 
L 4122 359 
Q 3791 134 3420 21 
Q 3050 -91 2638 -91 
Q 1578 -91 968 557 
Q 359 1206 359 2328 
Q 359 3453 968 4101 
Q 1578 4750 2638 4750 
Q 3056 4750 3426 4639 
Q 3797 4528 4122 4306 
z
" transform="scale(0.015625)"/>
      <path id="DejaVuSans-4e" d="M 628 4666 
L 1478 4666 
L 3547 763 
L 3547 4666 
L 4159 4666 
L 4159 0 
L 3309 0 
L 1241 3903 
L 1241 0 
L 628 0 
L 628 4666 
z
" transform="scale(0.015625)"/>
      <path id="DejaVuSans-2b" d="M 2944 4013 
L 2944 2272 
L 4684 2272 
L 4684 1741 
L 2944 1741 
L 2944 0 
L 2419 0 
L 2419 1741 
L 678 1741 
L 678 2272 
L 2419 2272 
L 2419 4013 
L 2944 4013 
z
" transform="scale(0.015625)"/>
      <path id="DejaVuSans-61" d="M 2194 1759 
Q 1497 1759 1228 1600 
Q 959 1441 959 1056 
Q 959 750 1161 570 
Q 1363 391 1709 391 
Q 2188 391 2477 730 
Q 2766 1069 2766 1631 
L 2766 1759 
L 2194 1759 
z
M 3341 1997 
L 3341 0 
L 2766 0 
L 2766 531 
Q 2569 213 2275 61 
Q 1981 -91 1556 -91 
Q 1019 -91 701 211 
Q 384 513 384 1019 
Q 384 1609 779 1909 
Q 1175 2209 1959 2209 
L 2766 2209 
L 2766 2266 
Q 2766 2663 2505 2880 
Q 2244 3097 1772 3097 
Q 1472 3097 1187 3025 
Q 903 2953 641 2809 
L 641 3341 
Q 956 3463 1253 3523 
Q 1550 3584 1831 3584 
Q 2591 3584 2966 3190 
Q 3341 2797 3341 1997 
z
" transform="scale(0.015625)"/>
      <path id="DejaVuSans-57" d="M 213 4666 
L 850 4666 
L 1831 722 
L 2809 4666 
L 3519 4666 
L 4500 722 
L 5478 4666 
L 6119 4666 
L 4947 0 
L 4153 0 
L 3169 4050 
L 2175 0 
L 1381 0 
L 213 4666 
z
" transform="scale(0.015625)"/>
      <path id="DejaVuSans-69" d="M 603 3500 
L 1178 3500 
L 1178 0 
L 603 0 
L 603 3500 
z
M 603 4863 
L 1178 4863 
L 1178 4134 
L 603 4134 
L 603 4863 
z
" transform="scale(0.015625)"/>
      <path id="DejaVuSans-5f" d="M 3263 -1063 
L 3263 -1509 
L -63 -1509 
L -63 -1063 
L 3263 -1063 
z
" transform="scale(0.015625)"/>
      <path id="DejaVuSans-4f" d="M 2522 4238 
Q 1834 4238 1429 3725 
Q 1025 3213 1025 2328 
Q 1025 1447 1429 934 
Q 1834 422 2522 422 
Q 3209 422 3611 934 
Q 4013 1447 4013 2328 
Q 4013 3213 3611 3725 
Q 3209 4238 2522 4238 
z
M 2522 4750 
Q 3503 4750 4090 4092 
Q 4678 3434 4678 2328 
Q 4678 1225 4090 567 
Q 3503 -91 2522 -91 
Q 1538 -91 948 565 
Q 359 1222 359 2328 
Q 359 3434 948 4092 
Q 1538 4750 2522 4750 
z
" transform="scale(0.015625)"/>
      <path id="DejaVuSans-54" d="M -19 4666 
L 3928 4666 
L 3928 4134 
L 2272 4134 
L 2272 0 
L 1638 0 
L 1638 4134 
L -19 4134 
L -19 4666 
z
" transform="scale(0.015625)"/>
      <path id="DejaVuSans-6e" d="M 3513 2113 
L 3513 0 
L 2938 0 
L 2938 2094 
Q 2938 2591 2744 2837 
Q 2550 3084 2163 3084 
Q 1697 3084 1428 2787 
Q 1159 2491 1159 1978 
L 1159 0 
L 581 0 
L 581 3500 
L 1159 3500 
L 1159 2956 
Q 1366 3272 1645 3428 
Q 1925 3584 2291 3584 
Q 2894 3584 3203 3211 
Q 3513 2838 3513 2113 
z
" transform="scale(0.015625)"/>
      <path id="DejaVuSans-67" d="M 2906 1791 
Q 2906 2416 2648 2759 
Q 2391 3103 1925 3103 
Q 1463 3103 1205 2759 
Q 947 2416 947 1791 
Q 947 1169 1205 825 
Q 1463 481 1925 481 
Q 2391 481 2648 825 
Q 2906 1169 2906 1791 
z
M 3481 434 
Q 3481 -459 3084 -895 
Q 2688 -1331 1869 -1331 
Q 1566 -1331 1297 -1286 
Q 1028 -1241 775 -1147 
L 775 -588 
Q 1028 -725 1275 -790 
Q 1522 -856 1778 -856 
Q 2344 -856 2625 -561 
Q 2906 -266 2906 331 
L 2906 616 
Q 2728 306 2450 153 
Q 2172 0 1784 0 
Q 1141 0 747 490 
Q 353 981 353 1791 
Q 353 2603 747 3093 
Q 1141 3584 1784 3584 
Q 2172 3584 2450 3431 
Q 2728 3278 2906 2969 
L 2906 3500 
L 3481 3500 
L 3481 434 
z
" transform="scale(0.015625)"/>
      <path id="DejaVuSans-20" transform="scale(0.015625)"/>
      <path id="DejaVuSans-64" d="M 2906 2969 
L 2906 4863 
L 3481 4863 
L 3481 0 
L 2906 0 
L 2906 525 
Q 2725 213 2448 61 
Q 2172 -91 1784 -91 
Q 1150 -91 751 415 
Q 353 922 353 1747 
Q 353 2572 751 3078 
Q 1150 3584 1784 3584 
Q 2172 3584 2448 3432 
Q 2725 3281 2906 2969 
z
M 947 1747 
Q 947 1113 1208 752 
Q 1469 391 1925 391 
Q 2381 391 2643 752 
Q 2906 1113 2906 1747 
Q 2906 2381 2643 2742 
Q 2381 3103 1925 3103 
Q 1469 3103 1208 2742 
Q 947 2381 947 1747 
z
" transform="scale(0.015625)"/>
      <path id="DejaVuSans-56" d="M 1831 0 
L 50 4666 
L 709 4666 
L 2188 738 
L 3669 4666 
L 4325 4666 
L 2547 0 
L 1831 0 
z
" transform="scale(0.015625)"/>
     </defs>
     <use xlink:href="#DejaVuSans-73"/>
     <use xlink:href="#DejaVuSans-70" x="52.099609"/>
     <use xlink:href="#DejaVuSans-65" x="115.576172"/>
     <use xlink:href="#DejaVuSans-63" x="177.099609"/>
     <use xlink:href="#DejaVuSans-74" x="232.080078"/>
     <use xlink:href="#DejaVuSans-72" x="271.289062"/>
     <use xlink:href="#DejaVuSans-75" x="312.402344"/>
     <use xlink:href="#DejaVuSans-6d" x="375.78125"/>
     <use xlink:href="#DejaVuSans-47" x="473.193359"/>
     <use xlink:href="#DejaVuSans-43" x="550.683594"/>
     <use xlink:href="#DejaVuSans-4e" x="620.507812"/>
     <use xlink:href="#DejaVuSans-2b" x="695.3125"/>
     <use xlink:href="#DejaVuSans-43" x="779.101562"/>
     <use xlink:href="#DejaVuSans-6f" x="848.925781"/>
     <use xlink:href="#DejaVuSans-72" x="910.107422"/>
     <use xlink:href="#DejaVuSans-61" x="951.220703"/>
     <use xlink:href="#DejaVuSans-2b" x="1012.5"/>
     <use xlink:href="#DejaVuSans-57" x="1096.289062"/>
     <use xlink:href="#DejaVuSans-69" x="1192.916016"/>
     <use xlink:href="#DejaVuSans-74" x="1220.699219"/>
     <use xlink:href="#DejaVuSans-68" x="1259.908203"/>
     <use xlink:href="#DejaVuSans-47" x="1323.287109"/>
     <use xlink:href="#DejaVuSans-72" x="1400.777344"/>
     <use xlink:href="#DejaVuSans-61" x="1441.890625"/>
     <use xlink:href="#DejaVuSans-70" x="1503.169922"/>
     <use xlink:href="#DejaVuSans-68" x="1566.646484"/>
     <use xlink:href="#DejaVuSans-5f" x="1630.025391"/>
     <use xlink:href="#DejaVuSans-43" x="1680.025391"/>
     <use xlink:href="#DejaVuSans-6f" x="1749.849609"/>
     <use xlink:href="#DejaVuSans-72" x="1811.03125"/>
     <use xlink:href="#DejaVuSans-61" x="1852.144531"/>
     <use xlink:href="#DejaVuSans-5f" x="1913.423828"/>
     <use xlink:href="#DejaVuSans-57" x="1963.423828"/>
     <use xlink:href="#DejaVuSans-69" x="2060.050781"/>
     <use xlink:href="#DejaVuSans-74" x="2087.833984"/>
     <use xlink:href="#DejaVuSans-68" x="2127.042969"/>
     <use xlink:href="#DejaVuSans-4f" x="2190.421875"/>
     <use xlink:href="#DejaVuSans-75" x="2269.132812"/>
     <use xlink:href="#DejaVuSans-74" x="2332.511719"/>
     <use xlink:href="#DejaVuSans-47" x="2371.720703"/>
     <use xlink:href="#DejaVuSans-72" x="2449.210938"/>
     <use xlink:href="#DejaVuSans-61" x="2490.324219"/>
     <use xlink:href="#DejaVuSans-70" x="2551.603516"/>
     <use xlink:href="#DejaVuSans-68" x="2615.080078"/>
     <use xlink:href="#DejaVuSans-5f" x="2678.458984"/>
     <use xlink:href="#DejaVuSans-54" x="2728.458984"/>
     <use xlink:href="#DejaVuSans-72" x="2774.792969"/>
     <use xlink:href="#DejaVuSans-61" x="2815.90625"/>
     <use xlink:href="#DejaVuSans-69" x="2877.185547"/>
     <use xlink:href="#DejaVuSans-6e" x="2904.96875"/>
     <use xlink:href="#DejaVuSans-69" x="2968.347656"/>
     <use xlink:href="#DejaVuSans-6e" x="2996.130859"/>
     <use xlink:href="#DejaVuSans-67" x="3059.509766"/>
     <use xlink:href="#DejaVuSans-20" x="3122.986328"/>
     <use xlink:href="#DejaVuSans-61" x="3154.773438"/>
     <use xlink:href="#DejaVuSans-6e" x="3216.052734"/>
     <use xlink:href="#DejaVuSans-64" x="3279.431641"/>
     <use xlink:href="#DejaVuSans-20" x="3342.908203"/>
     <use xlink:href="#DejaVuSans-56" x="3374.695312"/>
     <use xlink:href="#DejaVuSans-61" x="3435.353516"/>
     <use xlink:href="#DejaVuSans-6c" x="3496.632812"/>
     <use xlink:href="#DejaVuSans-69" x="3524.416016"/>
     <use xlink:href="#DejaVuSans-64" x="3552.199219"/>
     <use xlink:href="#DejaVuSans-61" x="3615.675781"/>
     <use xlink:href="#DejaVuSans-74" x="3676.955078"/>
     <use xlink:href="#DejaVuSans-69" x="3716.164062"/>
     <use xlink:href="#DejaVuSans-6f" x="3743.947266"/>
     <use xlink:href="#DejaVuSans-6e" x="3805.128906"/>
     <use xlink:href="#DejaVuSans-20" x="3868.507812"/>
     <use xlink:href="#DejaVuSans-6c" x="3900.294922"/>
     <use xlink:href="#DejaVuSans-6f" x="3928.078125"/>
     <use xlink:href="#DejaVuSans-73" x="3989.259766"/>
     <use xlink:href="#DejaVuSans-73" x="4041.359375"/>
    </g>
   </g>
   <g id="legend_1">
    <g id="patch_7">
     <path d="M 308.024688 198.045187 
L 407.72 198.045187 
Q 409.72 198.045187 409.72 196.045187 
L 409.72 153.010812 
Q 409.72 151.010812 407.72 151.010812 
L 308.024688 151.010812 
Q 306.024688 151.010812 306.024688 153.010812 
L 306.024688 196.045187 
Q 306.024688 198.045187 308.024688 198.045187 
z
" style="fill: #ffffff; opacity: 0.8; stroke: #cccccc; stroke-linejoin: miter"/>
    </g>
    <g id="line2d_19">
     <path d="M 310.024688 159.10925 
L 320.024688 159.10925 
L 330.024688 159.10925 
" style="fill: none; stroke: #0000ff; stroke-width: 1.5; stroke-linecap: square"/>
    </g>
    <g id="text_19">
     <!-- training set -->
     <g transform="translate(338.024688 162.60925) scale(0.1 -0.1)">
      <use xlink:href="#DejaVuSans-74"/>
      <use xlink:href="#DejaVuSans-72" x="39.208984"/>
      <use xlink:href="#DejaVuSans-61" x="80.322266"/>
      <use xlink:href="#DejaVuSans-69" x="141.601562"/>
      <use xlink:href="#DejaVuSans-6e" x="169.384766"/>
      <use xlink:href="#DejaVuSans-69" x="232.763672"/>
      <use xlink:href="#DejaVuSans-6e" x="260.546875"/>
      <use xlink:href="#DejaVuSans-67" x="323.925781"/>
      <use xlink:href="#DejaVuSans-20" x="387.402344"/>
      <use xlink:href="#DejaVuSans-73" x="419.189453"/>
      <use xlink:href="#DejaVuSans-65" x="471.289062"/>
      <use xlink:href="#DejaVuSans-74" x="532.8125"/>
     </g>
    </g>
    <g id="line2d_20">
     <path d="M 310.024688 173.787375 
L 320.024688 173.787375 
L 330.024688 173.787375 
" style="fill: none; stroke: #008000; stroke-width: 1.5; stroke-linecap: square"/>
    </g>
    <g id="text_20">
     <!-- validation set -->
     <g transform="translate(338.024688 177.287375) scale(0.1 -0.1)">
      <defs>
       <path id="DejaVuSans-76" d="M 191 3500 
L 800 3500 
L 1894 563 
L 2988 3500 
L 3597 3500 
L 2284 0 
L 1503 0 
L 191 3500 
z
" transform="scale(0.015625)"/>
      </defs>
      <use xlink:href="#DejaVuSans-76"/>
      <use xlink:href="#DejaVuSans-61" x="59.179688"/>
      <use xlink:href="#DejaVuSans-6c" x="120.458984"/>
      <use xlink:href="#DejaVuSans-69" x="148.242188"/>
      <use xlink:href="#DejaVuSans-64" x="176.025391"/>
      <use xlink:href="#DejaVuSans-61" x="239.501953"/>
      <use xlink:href="#DejaVuSans-74" x="300.78125"/>
      <use xlink:href="#DejaVuSans-69" x="339.990234"/>
      <use xlink:href="#DejaVuSans-6f" x="367.773438"/>
      <use xlink:href="#DejaVuSans-6e" x="428.955078"/>
      <use xlink:href="#DejaVuSans-20" x="492.333984"/>
      <use xlink:href="#DejaVuSans-73" x="524.121094"/>
      <use xlink:href="#DejaVuSans-65" x="576.220703"/>
      <use xlink:href="#DejaVuSans-74" x="637.744141"/>
     </g>
    </g>
    <g id="line2d_21">
     <path d="M 310.024688 188.4655 
L 320.024688 188.4655 
L 330.024688 188.4655 
" style="fill: none; stroke: #ff0000; stroke-width: 1.5; stroke-linecap: square"/>
    </g>
    <g id="text_21">
     <!-- test set -->
     <g transform="translate(338.024688 191.9655) scale(0.1 -0.1)">
      <use xlink:href="#DejaVuSans-74"/>
      <use xlink:href="#DejaVuSans-65" x="39.208984"/>
      <use xlink:href="#DejaVuSans-73" x="100.732422"/>
      <use xlink:href="#DejaVuSans-74" x="152.832031"/>
      <use xlink:href="#DejaVuSans-20" x="192.041016"/>
      <use xlink:href="#DejaVuSans-73" x="223.828125"/>
      <use xlink:href="#DejaVuSans-65" x="275.927734"/>
      <use xlink:href="#DejaVuSans-74" x="337.451172"/>
     </g>
    </g>
   </g>
  </g>
 </g>
 <defs>
  <clipPath id="pcf8296e844">
   <rect x="57.6" y="41.472" width="357.12" height="266.112"/>
  </clipPath>
 </defs>
</svg>
