<?xml version="1.0" encoding="utf-8" standalone="no"?>
<!DOCTYPE svg PUBLIC "-//W3C//DTD SVG 1.1//EN"
  "http://www.w3.org/Graphics/SVG/1.1/DTD/svg11.dtd">
<svg xmlns:xlink="http://www.w3.org/1999/xlink" width="460.8pt" height="345.6pt" viewBox="0 0 460.8 345.6" xmlns="http://www.w3.org/2000/svg" version="1.1">
 <metadata>
  <rdf:RDF xmlns:dc="http://purl.org/dc/elements/1.1/" xmlns:cc="http://creativecommons.org/ns#" xmlns:rdf="http://www.w3.org/1999/02/22-rdf-syntax-ns#">
   <cc:Work>
    <dc:type rdf:resource="http://purl.org/dc/dcmitype/StillImage"/>
    <dc:date>2023-04-09T04:01:38.820823</dc:date>
    <dc:format>image/svg+xml</dc:format>
    <dc:creator>
     <cc:Agent>
      <dc:title>Matplotlib v3.7.1, https://matplotlib.org/</dc:title>
     </cc:Agent>
    </dc:creator>
   </cc:Work>
  </rdf:RDF>
 </metadata>
 <defs>
  <style type="text/css">*{stroke-linejoin: round; stroke-linecap: butt}</style>
 </defs>
 <g id="figure_1">
  <g id="patch_1">
   <path d="M 0 345.6 
L 460.8 345.6 
L 460.8 0 
L 0 0 
z
" style="fill: #ffffff"/>
  </g>
  <g id="axes_1">
   <g id="patch_2">
    <path d="M 57.6 307.584 
L 414.72 307.584 
L 414.72 41.472 
L 57.6 41.472 
z
" style="fill: #ffffff"/>
   </g>
   <g id="matplotlib.axis_1">
    <g id="xtick_1">
     <g id="line2d_1">
      <defs>
       <path id="md2e7d93528" d="M 0 0 
L 0 3.5 
" style="stroke: #000000; stroke-width: 0.8"/>
      </defs>
      <g>
       <use xlink:href="#md2e7d93528" x="73.507748" y="307.584" style="stroke: #000000; stroke-width: 0.8"/>
      </g>
     </g>
     <g id="text_1">
      <!-- 0 -->
      <g transform="translate(70.326498 322.182437) scale(0.1 -0.1)">
       <defs>
        <path id="DejaVuSans-30" d="M 2034 4250 
Q 1547 4250 1301 3770 
Q 1056 3291 1056 2328 
Q 1056 1369 1301 889 
Q 1547 409 2034 409 
Q 2525 409 2770 889 
Q 3016 1369 3016 2328 
Q 3016 3291 2770 3770 
Q 2525 4250 2034 4250 
z
M 2034 4750 
Q 2819 4750 3233 4129 
Q 3647 3509 3647 2328 
Q 3647 1150 3233 529 
Q 2819 -91 2034 -91 
Q 1250 -91 836 529 
Q 422 1150 422 2328 
Q 422 3509 836 4129 
Q 1250 4750 2034 4750 
z
" transform="scale(0.015625)"/>
       </defs>
       <use xlink:href="#DejaVuSans-30"/>
      </g>
     </g>
    </g>
    <g id="xtick_2">
     <g id="line2d_2">
      <g>
       <use xlink:href="#md2e7d93528" x="138.503653" y="307.584" style="stroke: #000000; stroke-width: 0.8"/>
      </g>
     </g>
     <g id="text_2">
      <!-- 200 -->
      <g transform="translate(128.959903 322.182437) scale(0.1 -0.1)">
       <defs>
        <path id="DejaVuSans-32" d="M 1228 531 
L 3431 531 
L 3431 0 
L 469 0 
L 469 531 
Q 828 903 1448 1529 
Q 2069 2156 2228 2338 
Q 2531 2678 2651 2914 
Q 2772 3150 2772 3378 
Q 2772 3750 2511 3984 
Q 2250 4219 1831 4219 
Q 1534 4219 1204 4116 
Q 875 4013 500 3803 
L 500 4441 
Q 881 4594 1212 4672 
Q 1544 4750 1819 4750 
Q 2544 4750 2975 4387 
Q 3406 4025 3406 3419 
Q 3406 3131 3298 2873 
Q 3191 2616 2906 2266 
Q 2828 2175 2409 1742 
Q 1991 1309 1228 531 
z
" transform="scale(0.015625)"/>
       </defs>
       <use xlink:href="#DejaVuSans-32"/>
       <use xlink:href="#DejaVuSans-30" x="63.623047"/>
       <use xlink:href="#DejaVuSans-30" x="127.246094"/>
      </g>
     </g>
    </g>
    <g id="xtick_3">
     <g id="line2d_3">
      <g>
       <use xlink:href="#md2e7d93528" x="203.499558" y="307.584" style="stroke: #000000; stroke-width: 0.8"/>
      </g>
     </g>
     <g id="text_3">
      <!-- 400 -->
      <g transform="translate(193.955808 322.182437) scale(0.1 -0.1)">
       <defs>
        <path id="DejaVuSans-34" d="M 2419 4116 
L 825 1625 
L 2419 1625 
L 2419 4116 
z
M 2253 4666 
L 3047 4666 
L 3047 1625 
L 3713 1625 
L 3713 1100 
L 3047 1100 
L 3047 0 
L 2419 0 
L 2419 1100 
L 313 1100 
L 313 1709 
L 2253 4666 
z
" transform="scale(0.015625)"/>
       </defs>
       <use xlink:href="#DejaVuSans-34"/>
       <use xlink:href="#DejaVuSans-30" x="63.623047"/>
       <use xlink:href="#DejaVuSans-30" x="127.246094"/>
      </g>
     </g>
    </g>
    <g id="xtick_4">
     <g id="line2d_4">
      <g>
       <use xlink:href="#md2e7d93528" x="268.495463" y="307.584" style="stroke: #000000; stroke-width: 0.8"/>
      </g>
     </g>
     <g id="text_4">
      <!-- 600 -->
      <g transform="translate(258.951713 322.182437) scale(0.1 -0.1)">
       <defs>
        <path id="DejaVuSans-36" d="M 2113 2584 
Q 1688 2584 1439 2293 
Q 1191 2003 1191 1497 
Q 1191 994 1439 701 
Q 1688 409 2113 409 
Q 2538 409 2786 701 
Q 3034 994 3034 1497 
Q 3034 2003 2786 2293 
Q 2538 2584 2113 2584 
z
M 3366 4563 
L 3366 3988 
Q 3128 4100 2886 4159 
Q 2644 4219 2406 4219 
Q 1781 4219 1451 3797 
Q 1122 3375 1075 2522 
Q 1259 2794 1537 2939 
Q 1816 3084 2150 3084 
Q 2853 3084 3261 2657 
Q 3669 2231 3669 1497 
Q 3669 778 3244 343 
Q 2819 -91 2113 -91 
Q 1303 -91 875 529 
Q 447 1150 447 2328 
Q 447 3434 972 4092 
Q 1497 4750 2381 4750 
Q 2619 4750 2861 4703 
Q 3103 4656 3366 4563 
z
" transform="scale(0.015625)"/>
       </defs>
       <use xlink:href="#DejaVuSans-36"/>
       <use xlink:href="#DejaVuSans-30" x="63.623047"/>
       <use xlink:href="#DejaVuSans-30" x="127.246094"/>
      </g>
     </g>
    </g>
    <g id="xtick_5">
     <g id="line2d_5">
      <g>
       <use xlink:href="#md2e7d93528" x="333.491368" y="307.584" style="stroke: #000000; stroke-width: 0.8"/>
      </g>
     </g>
     <g id="text_5">
      <!-- 800 -->
      <g transform="translate(323.947618 322.182437) scale(0.1 -0.1)">
       <defs>
        <path id="DejaVuSans-38" d="M 2034 2216 
Q 1584 2216 1326 1975 
Q 1069 1734 1069 1313 
Q 1069 891 1326 650 
Q 1584 409 2034 409 
Q 2484 409 2743 651 
Q 3003 894 3003 1313 
Q 3003 1734 2745 1975 
Q 2488 2216 2034 2216 
z
M 1403 2484 
Q 997 2584 770 2862 
Q 544 3141 544 3541 
Q 544 4100 942 4425 
Q 1341 4750 2034 4750 
Q 2731 4750 3128 4425 
Q 3525 4100 3525 3541 
Q 3525 3141 3298 2862 
Q 3072 2584 2669 2484 
Q 3125 2378 3379 2068 
Q 3634 1759 3634 1313 
Q 3634 634 3220 271 
Q 2806 -91 2034 -91 
Q 1263 -91 848 271 
Q 434 634 434 1313 
Q 434 1759 690 2068 
Q 947 2378 1403 2484 
z
M 1172 3481 
Q 1172 3119 1398 2916 
Q 1625 2713 2034 2713 
Q 2441 2713 2670 2916 
Q 2900 3119 2900 3481 
Q 2900 3844 2670 4047 
Q 2441 4250 2034 4250 
Q 1625 4250 1398 4047 
Q 1172 3844 1172 3481 
z
" transform="scale(0.015625)"/>
       </defs>
       <use xlink:href="#DejaVuSans-38"/>
       <use xlink:href="#DejaVuSans-30" x="63.623047"/>
       <use xlink:href="#DejaVuSans-30" x="127.246094"/>
      </g>
     </g>
    </g>
    <g id="xtick_6">
     <g id="line2d_6">
      <g>
       <use xlink:href="#md2e7d93528" x="398.487273" y="307.584" style="stroke: #000000; stroke-width: 0.8"/>
      </g>
     </g>
     <g id="text_6">
      <!-- 1000 -->
      <g transform="translate(385.762273 322.182437) scale(0.1 -0.1)">
       <defs>
        <path id="DejaVuSans-31" d="M 794 531 
L 1825 531 
L 1825 4091 
L 703 3866 
L 703 4441 
L 1819 4666 
L 2450 4666 
L 2450 531 
L 3481 531 
L 3481 0 
L 794 0 
L 794 531 
z
" transform="scale(0.015625)"/>
       </defs>
       <use xlink:href="#DejaVuSans-31"/>
       <use xlink:href="#DejaVuSans-30" x="63.623047"/>
       <use xlink:href="#DejaVuSans-30" x="127.246094"/>
       <use xlink:href="#DejaVuSans-30" x="190.869141"/>
      </g>
     </g>
    </g>
    <g id="text_7">
     <!-- epoch -->
     <g transform="translate(220.931875 335.860562) scale(0.1 -0.1)">
      <defs>
       <path id="DejaVuSans-65" d="M 3597 1894 
L 3597 1613 
L 953 1613 
Q 991 1019 1311 708 
Q 1631 397 2203 397 
Q 2534 397 2845 478 
Q 3156 559 3463 722 
L 3463 178 
Q 3153 47 2828 -22 
Q 2503 -91 2169 -91 
Q 1331 -91 842 396 
Q 353 884 353 1716 
Q 353 2575 817 3079 
Q 1281 3584 2069 3584 
Q 2775 3584 3186 3129 
Q 3597 2675 3597 1894 
z
M 3022 2063 
Q 3016 2534 2758 2815 
Q 2500 3097 2075 3097 
Q 1594 3097 1305 2825 
Q 1016 2553 972 2059 
L 3022 2063 
z
" transform="scale(0.015625)"/>
       <path id="DejaVuSans-70" d="M 1159 525 
L 1159 -1331 
L 581 -1331 
L 581 3500 
L 1159 3500 
L 1159 2969 
Q 1341 3281 1617 3432 
Q 1894 3584 2278 3584 
Q 2916 3584 3314 3078 
Q 3713 2572 3713 1747 
Q 3713 922 3314 415 
Q 2916 -91 2278 -91 
Q 1894 -91 1617 61 
Q 1341 213 1159 525 
z
M 3116 1747 
Q 3116 2381 2855 2742 
Q 2594 3103 2138 3103 
Q 1681 3103 1420 2742 
Q 1159 2381 1159 1747 
Q 1159 1113 1420 752 
Q 1681 391 2138 391 
Q 2594 391 2855 752 
Q 3116 1113 3116 1747 
z
" transform="scale(0.015625)"/>
       <path id="DejaVuSans-6f" d="M 1959 3097 
Q 1497 3097 1228 2736 
Q 959 2375 959 1747 
Q 959 1119 1226 758 
Q 1494 397 1959 397 
Q 2419 397 2687 759 
Q 2956 1122 2956 1747 
Q 2956 2369 2687 2733 
Q 2419 3097 1959 3097 
z
M 1959 3584 
Q 2709 3584 3137 3096 
Q 3566 2609 3566 1747 
Q 3566 888 3137 398 
Q 2709 -91 1959 -91 
Q 1206 -91 779 398 
Q 353 888 353 1747 
Q 353 2609 779 3096 
Q 1206 3584 1959 3584 
z
" transform="scale(0.015625)"/>
       <path id="DejaVuSans-63" d="M 3122 3366 
L 3122 2828 
Q 2878 2963 2633 3030 
Q 2388 3097 2138 3097 
Q 1578 3097 1268 2742 
Q 959 2388 959 1747 
Q 959 1106 1268 751 
Q 1578 397 2138 397 
Q 2388 397 2633 464 
Q 2878 531 3122 666 
L 3122 134 
Q 2881 22 2623 -34 
Q 2366 -91 2075 -91 
Q 1284 -91 818 406 
Q 353 903 353 1747 
Q 353 2603 823 3093 
Q 1294 3584 2113 3584 
Q 2378 3584 2631 3529 
Q 2884 3475 3122 3366 
z
" transform="scale(0.015625)"/>
       <path id="DejaVuSans-68" d="M 3513 2113 
L 3513 0 
L 2938 0 
L 2938 2094 
Q 2938 2591 2744 2837 
Q 2550 3084 2163 3084 
Q 1697 3084 1428 2787 
Q 1159 2491 1159 1978 
L 1159 0 
L 581 0 
L 581 4863 
L 1159 4863 
L 1159 2956 
Q 1366 3272 1645 3428 
Q 1925 3584 2291 3584 
Q 2894 3584 3203 3211 
Q 3513 2838 3513 2113 
z
" transform="scale(0.015625)"/>
      </defs>
      <use xlink:href="#DejaVuSans-65"/>
      <use xlink:href="#DejaVuSans-70" x="61.523438"/>
      <use xlink:href="#DejaVuSans-6f" x="125"/>
      <use xlink:href="#DejaVuSans-63" x="186.181641"/>
      <use xlink:href="#DejaVuSans-68" x="241.162109"/>
     </g>
    </g>
   </g>
   <g id="matplotlib.axis_2">
    <g id="ytick_1">
     <g id="line2d_7">
      <defs>
       <path id="m14f764f7fb" d="M 0 0 
L -3.5 0 
" style="stroke: #000000; stroke-width: 0.8"/>
      </defs>
      <g>
       <use xlink:href="#m14f764f7fb" x="57.6" y="295.49219" style="stroke: #000000; stroke-width: 0.8"/>
      </g>
     </g>
     <g id="text_8">
      <!-- 0.0 -->
      <g transform="translate(34.696875 299.291409) scale(0.1 -0.1)">
       <defs>
        <path id="DejaVuSans-2e" d="M 684 794 
L 1344 794 
L 1344 0 
L 684 0 
L 684 794 
z
" transform="scale(0.015625)"/>
       </defs>
       <use xlink:href="#DejaVuSans-30"/>
       <use xlink:href="#DejaVuSans-2e" x="63.623047"/>
       <use xlink:href="#DejaVuSans-30" x="95.410156"/>
      </g>
     </g>
    </g>
    <g id="ytick_2">
     <g id="line2d_8">
      <g>
       <use xlink:href="#m14f764f7fb" x="57.6" y="262.635261" style="stroke: #000000; stroke-width: 0.8"/>
      </g>
     </g>
     <g id="text_9">
      <!-- 0.2 -->
      <g transform="translate(34.696875 266.43448) scale(0.1 -0.1)">
       <use xlink:href="#DejaVuSans-30"/>
       <use xlink:href="#DejaVuSans-2e" x="63.623047"/>
       <use xlink:href="#DejaVuSans-32" x="95.410156"/>
      </g>
     </g>
    </g>
    <g id="ytick_3">
     <g id="line2d_9">
      <g>
       <use xlink:href="#m14f764f7fb" x="57.6" y="229.778333" style="stroke: #000000; stroke-width: 0.8"/>
      </g>
     </g>
     <g id="text_10">
      <!-- 0.4 -->
      <g transform="translate(34.696875 233.577552) scale(0.1 -0.1)">
       <use xlink:href="#DejaVuSans-30"/>
       <use xlink:href="#DejaVuSans-2e" x="63.623047"/>
       <use xlink:href="#DejaVuSans-34" x="95.410156"/>
      </g>
     </g>
    </g>
    <g id="ytick_4">
     <g id="line2d_10">
      <g>
       <use xlink:href="#m14f764f7fb" x="57.6" y="196.921405" style="stroke: #000000; stroke-width: 0.8"/>
      </g>
     </g>
     <g id="text_11">
      <!-- 0.6 -->
      <g transform="translate(34.696875 200.720623) scale(0.1 -0.1)">
       <use xlink:href="#DejaVuSans-30"/>
       <use xlink:href="#DejaVuSans-2e" x="63.623047"/>
       <use xlink:href="#DejaVuSans-36" x="95.410156"/>
      </g>
     </g>
    </g>
    <g id="ytick_5">
     <g id="line2d_11">
      <g>
       <use xlink:href="#m14f764f7fb" x="57.6" y="164.064476" style="stroke: #000000; stroke-width: 0.8"/>
      </g>
     </g>
     <g id="text_12">
      <!-- 0.8 -->
      <g transform="translate(34.696875 167.863695) scale(0.1 -0.1)">
       <use xlink:href="#DejaVuSans-30"/>
       <use xlink:href="#DejaVuSans-2e" x="63.623047"/>
       <use xlink:href="#DejaVuSans-38" x="95.410156"/>
      </g>
     </g>
    </g>
    <g id="ytick_6">
     <g id="line2d_12">
      <g>
       <use xlink:href="#m14f764f7fb" x="57.6" y="131.207548" style="stroke: #000000; stroke-width: 0.8"/>
      </g>
     </g>
     <g id="text_13">
      <!-- 1.0 -->
      <g transform="translate(34.696875 135.006767) scale(0.1 -0.1)">
       <use xlink:href="#DejaVuSans-31"/>
       <use xlink:href="#DejaVuSans-2e" x="63.623047"/>
       <use xlink:href="#DejaVuSans-30" x="95.410156"/>
      </g>
     </g>
    </g>
    <g id="ytick_7">
     <g id="line2d_13">
      <g>
       <use xlink:href="#m14f764f7fb" x="57.6" y="98.35062" style="stroke: #000000; stroke-width: 0.8"/>
      </g>
     </g>
     <g id="text_14">
      <!-- 1.2 -->
      <g transform="translate(34.696875 102.149838) scale(0.1 -0.1)">
       <use xlink:href="#DejaVuSans-31"/>
       <use xlink:href="#DejaVuSans-2e" x="63.623047"/>
       <use xlink:href="#DejaVuSans-32" x="95.410156"/>
      </g>
     </g>
    </g>
    <g id="ytick_8">
     <g id="line2d_14">
      <g>
       <use xlink:href="#m14f764f7fb" x="57.6" y="65.493691" style="stroke: #000000; stroke-width: 0.8"/>
      </g>
     </g>
     <g id="text_15">
      <!-- 1.4 -->
      <g transform="translate(34.696875 69.29291) scale(0.1 -0.1)">
       <use xlink:href="#DejaVuSans-31"/>
       <use xlink:href="#DejaVuSans-2e" x="63.623047"/>
       <use xlink:href="#DejaVuSans-34" x="95.410156"/>
      </g>
     </g>
    </g>
    <g id="text_16">
     <!-- loss -->
     <g transform="translate(28.617188 184.185812) rotate(-90) scale(0.1 -0.1)">
      <defs>
       <path id="DejaVuSans-6c" d="M 603 4863 
L 1178 4863 
L 1178 0 
L 603 0 
L 603 4863 
z
" transform="scale(0.015625)"/>
       <path id="DejaVuSans-73" d="M 2834 3397 
L 2834 2853 
Q 2591 2978 2328 3040 
Q 2066 3103 1784 3103 
Q 1356 3103 1142 2972 
Q 928 2841 928 2578 
Q 928 2378 1081 2264 
Q 1234 2150 1697 2047 
L 1894 2003 
Q 2506 1872 2764 1633 
Q 3022 1394 3022 966 
Q 3022 478 2636 193 
Q 2250 -91 1575 -91 
Q 1294 -91 989 -36 
Q 684 19 347 128 
L 347 722 
Q 666 556 975 473 
Q 1284 391 1588 391 
Q 1994 391 2212 530 
Q 2431 669 2431 922 
Q 2431 1156 2273 1281 
Q 2116 1406 1581 1522 
L 1381 1569 
Q 847 1681 609 1914 
Q 372 2147 372 2553 
Q 372 3047 722 3315 
Q 1072 3584 1716 3584 
Q 2034 3584 2315 3537 
Q 2597 3491 2834 3397 
z
" transform="scale(0.015625)"/>
      </defs>
      <use xlink:href="#DejaVuSans-6c"/>
      <use xlink:href="#DejaVuSans-6f" x="27.783203"/>
      <use xlink:href="#DejaVuSans-73" x="88.964844"/>
      <use xlink:href="#DejaVuSans-73" x="141.064453"/>
     </g>
    </g>
   </g>
   <g id="line2d_15">
    <path d="M 73.832727 115.319566 
L 74.482686 130.883644 
L 77.407502 229.585785 
L 77.732482 237.570188 
L 78.382441 247.687438 
L 78.70742 259.526128 
L 79.0324 261.642653 
L 79.357379 267.99675 
L 79.682359 268.266067 
L 80.007338 274.759406 
L 80.332318 275.282763 
L 80.657297 280.018548 
L 80.982277 282.016196 
L 81.307256 282.003927 
L 81.632236 283.658353 
L 81.957215 286.133042 
L 82.282195 286.707045 
L 82.932154 289.353662 
L 83.257133 289.520301 
L 83.907093 290.990425 
L 84.232072 290.6598 
L 84.557052 291.829098 
L 85.207011 292.781608 
L 85.53199 292.947408 
L 86.181949 292.977077 
L 87.156888 293.912928 
L 87.481867 293.716804 
L 87.806847 293.832493 
L 88.456806 294.338947 
L 88.781785 294.10644 
L 89.106765 294.315204 
L 89.431744 294.306564 
L 89.756724 294.646638 
L 90.081704 294.364116 
L 91.056642 294.671678 
L 92.031581 294.811053 
L 92.35656 294.736032 
L 93.006519 294.956187 
L 94.956396 294.943811 
L 95.281376 295.030406 
L 96.256314 295.017913 
L 96.906274 295.055008 
L 98.206192 295.083683 
L 100.481048 295.150907 
L 100.806028 295.093855 
L 101.131007 295.191825 
L 101.780966 295.064678 
L 102.105946 295.213148 
L 103.080885 295.190061 
L 103.730844 295.194099 
L 105.030762 295.265593 
L 106.980639 295.219305 
L 120.304799 295.35636 
L 120.629779 295.262914 
L 121.604717 295.360737 
L 122.579656 295.290283 
L 123.554595 295.364713 
L 125.504472 295.341262 
L 139.153612 295.397547 
L 139.478591 295.318754 
L 140.45353 295.412865 
L 152.477772 295.412871 
L 153.77769 295.418816 
L 176.201278 295.444457 
L 178.801114 295.459706 
L 180.750991 295.435587 
L 183.350827 295.45655 
L 187.250581 295.451885 
L 191.475315 295.464853 
L 194.075152 295.457066 
L 260.045995 295.480261 
L 261.995872 295.477894 
L 273.370156 295.479525 
L 276.94493 295.474584 
L 281.494644 295.47455 
L 311.71774 295.482861 
L 315.292514 295.480262 
L 327.966716 295.486073 
L 337.716102 295.485488 
L 353.640098 295.484138 
L 372.163931 295.485565 
L 398.487273 295.479988 
L 398.487273 295.479988 
" clip-path="url(#p0b17866405)" style="fill: none; stroke: #0000ff; stroke-width: 1.5; stroke-linecap: square"/>
   </g>
   <g id="line2d_16">
    <path d="M 73.832727 115.465332 
L 74.482686 126.163721 
L 75.457625 147.817151 
L 76.432563 169.136317 
L 77.082523 181.204341 
L 77.407502 186.991566 
L 78.382441 197.782423 
L 78.70742 198.779467 
L 79.0324 199.185223 
L 79.357379 202.325637 
L 79.682359 203.710714 
L 80.007338 202.742037 
L 80.332318 205.374543 
L 80.657297 201.933648 
L 80.982277 201.804892 
L 81.307256 202.91479 
L 81.632236 205.285014 
L 82.282195 197.396182 
L 82.607174 195.045817 
L 83.257133 194.545968 
L 83.582113 193.642624 
L 83.907093 190.243581 
L 84.232072 189.074773 
L 84.557052 182.003329 
L 84.882031 185.066787 
L 85.207011 181.710231 
L 85.53199 183.223086 
L 85.85697 180.987895 
L 86.181949 180.036414 
L 86.506929 177.687978 
L 86.831908 178.37468 
L 87.806847 170.939028 
L 88.131826 167.6137 
L 88.456806 175.862461 
L 88.781785 169.645821 
L 89.431744 168.734947 
L 90.081704 158.728196 
L 90.406683 160.228878 
L 90.731663 159.606931 
L 91.056642 156.277892 
L 91.381622 162.024226 
L 92.031581 157.884104 
L 92.35656 153.64851 
L 92.68154 156.1489 
L 93.006519 152.138505 
L 93.331499 157.518897 
L 93.656478 153.175305 
L 93.981458 153.996483 
L 94.306437 151.936102 
L 94.631417 155.196939 
L 94.956396 154.916669 
L 95.281376 155.20396 
L 95.606355 156.715629 
L 95.931335 148.894314 
L 96.256314 155.793593 
L 96.581294 154.663581 
L 96.906274 149.321094 
L 97.231253 151.287412 
L 97.556233 146.981001 
L 97.881212 145.011207 
L 98.206192 149.060369 
L 98.531171 144.968024 
L 98.856151 143.545414 
L 99.18113 153.018886 
L 99.50611 145.857746 
L 100.156069 154.957022 
L 100.481048 146.189631 
L 100.806028 148.900062 
L 101.131007 139.690664 
L 101.455987 147.650606 
L 101.780966 145.072222 
L 102.105946 147.285213 
L 102.430925 143.368156 
L 102.755905 144.963754 
L 103.080885 144.139805 
L 103.405864 142.165213 
L 103.730844 144.143869 
L 104.055823 144.053008 
L 104.380803 148.620047 
L 104.705782 148.486883 
L 105.030762 145.859871 
L 105.355741 146.196397 
L 105.680721 149.275571 
L 106.33068 142.826368 
L 106.655659 145.411147 
L 106.980639 143.376117 
L 107.305618 145.032759 
L 107.630598 139.858746 
L 107.955577 143.274906 
L 108.280557 144.554482 
L 108.605536 139.382741 
L 108.930516 130.4542 
L 109.255495 141.338914 
L 109.580475 142.314612 
L 110.230434 137.774638 
L 110.555414 142.23978 
L 110.880393 137.780054 
L 111.205373 139.799543 
L 111.530352 136.497823 
L 111.855332 139.188964 
L 112.180311 137.126615 
L 112.505291 141.905967 
L 113.15525 133.768287 
L 113.480229 134.942471 
L 113.805209 134.998423 
L 114.130188 137.212639 
L 114.455168 140.890826 
L 115.105127 134.456194 
L 115.430106 135.653233 
L 115.755086 138.445771 
L 116.080066 135.001253 
L 116.405045 136.36514 
L 116.730025 128.227138 
L 117.055004 131.371243 
L 117.379984 129.732834 
L 117.704963 136.039983 
L 118.029943 136.357581 
L 118.354922 129.367274 
L 118.679902 131.893242 
L 119.004881 130.257026 
L 119.329861 134.975735 
L 119.65484 133.293849 
L 119.97982 134.455401 
L 120.304799 126.282715 
L 120.954758 135.674864 
L 121.279738 128.432263 
L 121.929697 131.002188 
L 122.579656 126.949618 
L 122.904636 134.348069 
L 123.229615 129.244207 
L 123.554595 128.846744 
L 123.879574 133.286475 
L 124.204554 131.082033 
L 124.529533 128.006129 
L 125.179492 134.075878 
L 125.504472 130.317737 
L 125.829451 130.245432 
L 126.154431 129.8682 
L 126.47941 123.739073 
L 126.80439 128.522096 
L 127.129369 125.626682 
L 127.454349 128.911059 
L 127.779328 129.671594 
L 128.104308 128.716725 
L 128.429287 124.123962 
L 128.754267 128.797725 
L 129.079247 125.835371 
L 129.404226 130.172246 
L 129.729206 123.458881 
L 130.054185 125.891931 
L 130.379165 130.246098 
L 130.704144 126.824298 
L 131.029124 127.890328 
L 131.354103 124.661981 
L 131.679083 125.09867 
L 132.004062 125.183627 
L 132.654021 128.340648 
L 132.979001 116.306417 
L 133.30398 122.912441 
L 133.62896 125.475922 
L 133.953939 123.615222 
L 134.278919 123.899566 
L 134.603898 122.749735 
L 134.928878 129.722043 
L 135.253857 127.760229 
L 135.903817 118.796633 
L 136.228796 125.891559 
L 136.553776 115.743957 
L 136.878755 124.785322 
L 137.528714 117.713683 
L 137.853694 122.454091 
L 138.178673 124.730898 
L 138.503653 120.189172 
L 138.828632 122.10694 
L 139.153612 126.857904 
L 139.478591 122.548644 
L 139.803571 121.978957 
L 140.12855 117.066521 
L 140.45353 116.951679 
L 140.778509 118.359356 
L 141.103489 124.497277 
L 141.428468 121.960587 
L 141.753448 122.714894 
L 142.078428 120.368426 
L 142.403407 119.303435 
L 142.728387 122.833516 
L 143.053366 113.983567 
L 143.378346 121.59961 
L 143.703325 121.896449 
L 144.028305 111.947373 
L 144.353284 121.801093 
L 144.678264 114.063843 
L 145.003243 121.469297 
L 145.328223 117.183889 
L 145.653202 117.446064 
L 145.978182 118.175538 
L 146.303161 117.146993 
L 146.628141 119.370746 
L 146.95312 113.790721 
L 147.2781 114.430676 
L 147.603079 111.281959 
L 147.928059 118.607704 
L 148.253038 115.04948 
L 148.578018 120.190974 
L 148.902998 118.423867 
L 149.227977 120.724507 
L 149.552957 118.640449 
L 149.877936 114.657814 
L 150.202916 115.600287 
L 150.527895 116.166664 
L 150.852875 112.80577 
L 151.177854 119.070715 
L 151.502834 113.120294 
L 151.827813 117.305606 
L 152.152793 112.940921 
L 152.477772 122.265357 
L 152.802752 111.511545 
L 153.127731 115.361496 
L 153.452711 110.719166 
L 153.77769 116.640896 
L 154.10267 118.98378 
L 154.427649 120.194146 
L 154.752629 111.031966 
L 155.077609 116.588587 
L 155.402588 119.307567 
L 155.727568 119.162898 
L 156.052547 111.558371 
L 156.377527 117.864168 
L 156.702506 113.475082 
L 157.027486 121.028631 
L 157.677445 108.577706 
L 158.002424 115.398765 
L 158.327404 109.356768 
L 158.652383 111.056348 
L 158.977363 120.151433 
L 159.302342 116.256771 
L 159.627322 122.313006 
L 159.952301 115.341422 
L 160.60226 108.952353 
L 160.92724 114.954614 
L 161.577199 105.985514 
L 161.902179 113.706 
L 162.227158 112.061432 
L 162.552138 113.932805 
L 162.877117 109.437063 
L 163.202097 116.67419 
L 163.527076 112.849992 
L 163.852056 115.015462 
L 164.177035 107.253184 
L 164.502015 109.409234 
L 164.826994 107.414558 
L 165.151974 106.46292 
L 165.476953 119.152655 
L 165.801933 109.739816 
L 166.126912 110.552778 
L 166.451892 113.5807 
L 166.776871 105.753911 
L 167.101851 106.446547 
L 167.42683 109.425332 
L 167.75181 113.953114 
L 168.07679 106.395119 
L 168.726749 115.454874 
L 169.051728 108.943814 
L 169.376708 108.152493 
L 169.701687 108.387621 
L 170.026667 104.321675 
L 170.351646 119.11382 
L 170.676626 114.765273 
L 171.001605 108.832869 
L 171.326585 109.361233 
L 171.651564 104.144261 
L 171.976544 104.057405 
L 172.301523 109.806422 
L 172.626503 105.115875 
L 172.951482 116.955596 
L 173.276462 109.673582 
L 173.601441 111.908067 
L 173.926421 105.758533 
L 174.2514 109.96572 
L 174.57638 106.745893 
L 174.90136 105.414731 
L 175.226339 105.643162 
L 175.551319 108.369623 
L 175.876298 107.083584 
L 176.201278 100.270261 
L 176.851237 113.280591 
L 177.176216 105.625536 
L 177.501196 109.124596 
L 177.826175 115.549544 
L 178.476134 103.267239 
L 178.801114 107.660614 
L 179.126093 102.044437 
L 179.451073 104.067706 
L 179.776052 110.217789 
L 180.101032 112.900441 
L 180.426011 102.926395 
L 180.750991 111.084843 
L 181.075971 101.512921 
L 181.40095 107.724479 
L 181.72593 96.567877 
L 182.375889 107.980269 
L 182.700868 108.546547 
L 183.025848 105.174804 
L 183.675807 110.127428 
L 184.325766 101.54782 
L 184.975725 117.83487 
L 185.300704 114.303613 
L 185.950663 100.260606 
L 186.275643 108.873957 
L 186.600622 109.631202 
L 186.925602 104.648321 
L 187.250581 106.046088 
L 187.575561 103.883967 
L 187.900541 104.241243 
L 188.22552 102.697161 
L 188.5505 108.339522 
L 188.875479 100.265267 
L 189.200459 106.925323 
L 189.525438 95.453356 
L 189.850418 107.095726 
L 190.175397 107.420688 
L 190.500377 99.819137 
L 190.825356 107.295603 
L 191.150336 103.935709 
L 191.475315 108.501366 
L 191.800295 111.114317 
L 192.125274 103.710881 
L 192.450254 107.175297 
L 192.775233 96.595823 
L 193.100213 107.225452 
L 193.425192 103.593865 
L 193.750172 103.669402 
L 194.075152 100.777865 
L 194.400131 96.801556 
L 194.725111 100.053678 
L 195.05009 101.733146 
L 195.37507 98.679529 
L 195.700049 105.188278 
L 196.025029 101.351684 
L 196.350008 99.710601 
L 196.674988 110.689966 
L 196.999967 103.940154 
L 197.324947 94.024136 
L 197.649926 96.027821 
L 197.974906 93.442523 
L 198.624865 100.62029 
L 198.949844 93.804656 
L 199.274824 103.198851 
L 199.599803 103.255077 
L 199.924783 103.956272 
L 200.249762 104.037292 
L 200.574742 105.531865 
L 200.899722 92.406849 
L 201.224701 102.535806 
L 201.549681 98.977386 
L 201.87466 108.48944 
L 202.19964 104.512641 
L 202.524619 99.146222 
L 202.849599 103.324464 
L 203.174578 99.457494 
L 203.499558 89.973388 
L 203.824537 93.604955 
L 204.149517 102.985872 
L 204.474496 96.198146 
L 205.124455 101.78289 
L 205.449435 100.968851 
L 205.774414 93.39039 
L 206.099394 99.101198 
L 206.424373 96.691532 
L 206.749353 102.689425 
L 207.074333 102.25346 
L 207.399312 97.356221 
L 207.724292 97.494878 
L 208.049271 94.671102 
L 208.374251 101.544491 
L 208.69923 103.368098 
L 209.02421 94.83185 
L 209.349189 97.80897 
L 209.674169 92.47745 
L 209.999148 96.907233 
L 210.324128 102.865037 
L 210.649107 95.583161 
L 210.974087 102.289378 
L 211.299066 102.841673 
L 211.624046 87.088842 
L 211.949025 98.207098 
L 212.274005 96.603285 
L 212.598984 105.364517 
L 212.923964 95.4381 
L 213.248943 91.805005 
L 213.573923 99.361786 
L 213.898903 99.010425 
L 214.223882 87.868668 
L 214.548862 96.861738 
L 215.198821 93.276351 
L 215.5238 81.371317 
L 215.84878 88.063375 
L 216.173759 97.580324 
L 216.498739 96.336117 
L 216.823718 97.619982 
L 217.148698 93.559598 
L 217.473677 98.368316 
L 217.798657 98.87026 
L 218.123636 98.111743 
L 218.448616 99.980982 
L 218.773595 100.407057 
L 219.098575 99.608293 
L 219.423554 90.302638 
L 219.748534 86.501374 
L 220.073514 99.954954 
L 220.398493 96.339407 
L 220.723473 96.830834 
L 221.048452 94.668693 
L 221.373432 98.955139 
L 221.698411 93.891003 
L 222.023391 103.249241 
L 222.34837 100.119677 
L 222.67335 93.612025 
L 222.998329 97.269169 
L 223.648288 86.301125 
L 223.973268 97.068137 
L 224.298247 97.134332 
L 224.623227 92.052139 
L 224.948206 99.214473 
L 225.273186 88.104051 
L 225.598165 91.632076 
L 225.923145 98.213405 
L 226.248124 88.491173 
L 226.573104 91.967359 
L 226.898084 93.706343 
L 227.223063 96.865283 
L 227.548043 86.031058 
L 227.873022 94.156115 
L 228.198002 97.363311 
L 228.522981 97.411077 
L 228.847961 93.972943 
L 229.17294 101.176267 
L 229.49792 102.380347 
L 229.822899 100.928174 
L 230.147879 93.119305 
L 230.472858 89.56439 
L 230.797838 92.3074 
L 231.122817 89.778427 
L 231.772776 90.792166 
L 232.422735 100.003738 
L 232.747715 95.342392 
L 233.072695 98.149814 
L 233.397674 88.88278 
L 233.722654 97.179258 
L 234.047633 98.931873 
L 234.372613 93.785111 
L 234.697592 91.968181 
L 235.022572 93.854302 
L 235.347551 99.233274 
L 235.99751 87.072157 
L 236.32249 93.155496 
L 236.647469 85.820076 
L 236.972449 97.306144 
L 237.297428 97.547148 
L 237.622408 85.241029 
L 237.947387 94.631346 
L 238.272367 81.574934 
L 238.597346 91.61541 
L 238.922326 88.836248 
L 239.247305 91.932225 
L 239.897265 93.575637 
L 240.222244 90.995627 
L 240.547224 91.037929 
L 240.872203 94.402583 
L 241.197183 95.935932 
L 241.522162 91.326092 
L 241.847142 97.424159 
L 242.172121 84.85424 
L 242.82208 90.917858 
L 243.14706 97.730594 
L 243.472039 96.576043 
L 243.797019 97.231803 
L 244.121998 89.39953 
L 244.446978 86.87653 
L 244.771957 78.610485 
L 245.096937 82.987919 
L 245.421916 81.33677 
L 245.746896 86.344543 
L 246.071876 82.700931 
L 246.396855 93.421411 
L 246.721835 88.729964 
L 247.046814 90.636452 
L 247.371794 85.666712 
L 247.696773 93.099525 
L 248.021753 91.942252 
L 248.671712 84.49855 
L 249.321671 98.12692 
L 249.64665 87.141642 
L 249.97163 94.240327 
L 250.296609 98.014252 
L 250.621589 99.025759 
L 250.946568 99.029931 
L 251.271548 85.49631 
L 251.596527 93.052777 
L 251.921507 84.223313 
L 252.246486 88.380052 
L 252.571466 86.122262 
L 252.896446 91.254609 
L 253.221425 89.604597 
L 253.546405 84.982066 
L 253.871384 90.212394 
L 254.196364 90.881764 
L 254.521343 87.428453 
L 254.846323 76.533751 
L 255.171302 85.942067 
L 255.496282 86.048781 
L 255.821261 84.65401 
L 256.146241 90.985522 
L 256.47122 95.076692 
L 256.7962 86.276018 
L 257.121179 86.610517 
L 257.446159 95.188988 
L 257.771138 84.655949 
L 258.096118 84.850891 
L 258.421097 85.269426 
L 258.746077 84.440424 
L 259.071057 93.154028 
L 259.396036 85.275536 
L 259.721016 85.040662 
L 260.045995 87.731167 
L 260.370975 88.275355 
L 260.695954 78.947139 
L 261.020934 86.424055 
L 261.345913 85.128498 
L 261.670893 84.554444 
L 261.995872 81.999795 
L 262.320852 89.303959 
L 262.645831 90.723465 
L 262.970811 88.241219 
L 263.29579 93.245408 
L 263.62077 87.05034 
L 263.945749 86.269183 
L 264.270729 91.055261 
L 264.595708 84.680508 
L 264.920688 85.997392 
L 265.570647 94.036181 
L 266.220606 82.325873 
L 266.545586 83.194787 
L 266.870565 86.052542 
L 267.195545 79.38185 
L 267.520524 88.726556 
L 267.845504 75.591886 
L 268.170483 88.971242 
L 268.495463 87.392085 
L 268.820442 81.228176 
L 269.145422 79.046803 
L 269.470401 83.231606 
L 269.795381 80.367311 
L 270.12036 89.994206 
L 270.44534 81.716529 
L 271.095299 77.461692 
L 271.420278 85.911065 
L 271.745258 82.818456 
L 272.070238 93.88924 
L 272.395217 82.195599 
L 272.720197 88.351929 
L 273.045176 78.781338 
L 273.370156 78.138975 
L 273.695135 92.646619 
L 274.020115 86.501099 
L 274.345094 86.505212 
L 274.670074 83.081923 
L 274.995053 93.322178 
L 275.320033 86.267107 
L 275.645012 90.041424 
L 276.294971 74.232836 
L 276.619951 79.891217 
L 276.94493 81.837031 
L 277.26991 85.961866 
L 277.594889 86.057066 
L 277.919869 86.745021 
L 278.244848 86.368259 
L 278.569828 81.614632 
L 278.894808 91.756593 
L 279.219787 75.84276 
L 279.544767 81.389961 
L 279.869746 84.192625 
L 280.194726 80.942148 
L 280.519705 76.385498 
L 280.844685 90.247705 
L 281.169664 85.514131 
L 281.494644 82.538813 
L 281.819623 78.092129 
L 282.144603 77.359796 
L 282.469582 84.280793 
L 283.119541 92.151549 
L 283.444521 84.087164 
L 283.7695 81.192983 
L 284.09448 80.750672 
L 284.419459 81.744985 
L 284.744439 88.258649 
L 285.069419 88.682433 
L 285.394398 84.359698 
L 285.719378 88.747746 
L 286.044357 83.486887 
L 286.369337 82.241132 
L 286.694316 76.929334 
L 287.019296 85.152528 
L 287.344275 81.459289 
L 287.669255 76.313272 
L 287.994234 74.20579 
L 288.319214 85.493078 
L 288.644193 79.781565 
L 288.969173 86.210665 
L 289.294152 78.989343 
L 289.619132 78.616145 
L 289.944111 84.429301 
L 290.269091 79.500139 
L 290.59407 79.929407 
L 290.91905 87.819159 
L 291.244029 85.529564 
L 291.569009 75.779757 
L 291.893989 77.395047 
L 292.218968 87.410749 
L 292.543948 82.297496 
L 292.868927 86.338903 
L 293.193907 85.100433 
L 293.518886 76.136778 
L 293.843866 76.364093 
L 294.168845 78.303522 
L 294.493825 77.174705 
L 294.818804 80.862988 
L 295.143784 81.098038 
L 295.468763 85.635142 
L 295.793743 79.891021 
L 296.118722 80.321229 
L 296.443702 84.222804 
L 296.768681 85.740094 
L 297.093661 78.946101 
L 297.41864 81.108026 
L 297.74362 69.104484 
L 298.393579 82.717813 
L 298.718559 77.497493 
L 299.043538 69.517085 
L 299.368518 80.558002 
L 299.693497 80.104059 
L 300.018477 78.853643 
L 300.343456 84.987178 
L 301.318395 60.992195 
L 301.643374 76.760968 
L 301.968354 82.400881 
L 302.293333 72.172279 
L 302.618313 79.776747 
L 302.943292 75.215966 
L 303.268272 65.181777 
L 303.593251 78.079811 
L 303.918231 80.830224 
L 304.24321 81.690658 
L 304.56819 84.570836 
L 304.89317 77.888747 
L 305.218149 76.852133 
L 305.543129 68.876151 
L 305.868108 79.099073 
L 306.193088 77.208762 
L 306.518067 73.928712 
L 307.168026 85.87078 
L 307.493006 74.268891 
L 307.817985 78.260613 
L 308.142965 68.066028 
L 308.467944 86.458034 
L 308.792924 92.891696 
L 309.117903 69.999171 
L 309.442883 70.361186 
L 309.767862 80.852001 
L 310.092842 81.995878 
L 310.417821 83.625759 
L 311.067781 73.074173 
L 311.39276 74.859552 
L 311.71774 72.032428 
L 312.042719 74.000645 
L 312.367699 69.672035 
L 312.692678 78.172053 
L 313.017658 70.641201 
L 313.342637 78.112634 
L 313.667617 73.381274 
L 313.992596 71.198334 
L 314.642555 87.668047 
L 314.967535 68.701929 
L 315.292514 78.148297 
L 315.617494 71.860439 
L 315.942473 75.141683 
L 316.267453 73.64429 
L 316.592432 77.61206 
L 316.917412 76.869856 
L 317.242391 72.381419 
L 317.567371 76.911532 
L 317.892351 68.152904 
L 318.21733 67.278193 
L 318.54231 89.786574 
L 318.867289 77.082189 
L 319.192269 77.642671 
L 319.517248 70.797856 
L 319.842228 75.803748 
L 320.167207 76.980076 
L 320.492187 76.208907 
L 320.817166 74.319144 
L 321.142146 77.107531 
L 321.467125 81.085563 
L 321.792105 70.178798 
L 322.117084 72.777883 
L 322.442064 83.719783 
L 322.767043 75.516898 
L 323.092023 79.095862 
L 323.417002 80.006001 
L 323.741982 83.063945 
L 324.066962 80.941129 
L 324.391941 73.899454 
L 324.716921 80.361788 
L 325.0419 81.976921 
L 325.36688 74.581221 
L 326.016839 80.195165 
L 326.341818 67.858749 
L 326.666798 68.473028 
L 326.991777 73.749477 
L 327.316757 75.399353 
L 327.641736 86.167756 
L 327.966716 73.793091 
L 328.291695 71.584203 
L 328.616675 74.758262 
L 328.941654 81.454863 
L 329.266634 80.836177 
L 329.591613 71.269934 
L 329.916593 73.740155 
L 330.241572 78.588923 
L 330.566552 75.990367 
L 330.891532 82.548625 
L 331.216511 67.089068 
L 331.541491 77.672419 
L 332.19145 70.429926 
L 332.516429 73.076699 
L 332.841409 68.181086 
L 333.166388 80.589455 
L 333.491368 82.356973 
L 333.816347 77.571247 
L 334.141327 66.836803 
L 334.466306 88.321338 
L 335.116265 67.277331 
L 335.441245 76.85789 
L 335.766224 74.064784 
L 336.091204 69.80607 
L 336.416183 70.89421 
L 336.741163 72.945955 
L 337.066143 78.552731 
L 337.716102 66.149729 
L 338.041081 69.248134 
L 338.366061 75.452837 
L 338.69104 70.22388 
L 339.01602 73.422029 
L 339.340999 64.817921 
L 339.665979 71.582519 
L 339.990958 63.847854 
L 340.315938 77.917105 
L 340.640917 79.78842 
L 340.965897 80.40971 
L 341.290876 72.610575 
L 341.615856 76.139892 
L 341.940835 68.481352 
L 342.265815 75.313652 
L 342.590794 69.329722 
L 342.915774 78.251878 
L 343.240753 70.54232 
L 343.565733 83.216761 
L 343.890713 74.143689 
L 344.215692 82.294656 
L 344.540672 78.77748 
L 344.865651 77.790081 
L 345.51561 65.141296 
L 345.84059 79.473603 
L 346.165569 65.110549 
L 346.490549 80.306169 
L 346.815528 61.315022 
L 347.140508 71.913688 
L 347.465487 70.44859 
L 347.790467 81.639073 
L 348.115446 72.469607 
L 348.440426 70.876839 
L 348.765405 64.558821 
L 349.090385 75.672808 
L 349.415364 74.329387 
L 349.740344 70.362537 
L 350.065324 70.70485 
L 350.390303 65.315949 
L 350.715283 67.955612 
L 351.040262 71.976103 
L 351.365242 73.688707 
L 351.690221 60.164996 
L 352.015201 75.947301 
L 352.34018 73.272111 
L 352.990139 72.243742 
L 353.640098 59.68524 
L 353.965078 68.764011 
L 354.290057 70.307956 
L 354.615037 80.19538 
L 354.940016 68.911755 
L 355.264996 71.957185 
L 355.589975 62.233308 
L 356.239934 72.181601 
L 356.564914 80.378004 
L 356.889894 59.976752 
L 357.539853 73.201843 
L 357.864832 60.793102 
L 358.514791 68.263673 
L 358.839771 65.788673 
L 359.16475 73.097459 
L 359.48973 70.610121 
L 359.814709 73.193167 
L 360.139689 72.176372 
L 360.464668 63.576377 
L 360.789648 67.043632 
L 361.114627 77.56122 
L 361.439607 66.848475 
L 361.764586 78.877889 
L 362.089566 61.579801 
L 362.414545 69.601317 
L 362.739525 66.120666 
L 363.064505 60.606072 
L 363.714464 68.539556 
L 364.039443 64.496915 
L 364.364423 69.914645 
L 365.014382 57.170778 
L 365.339361 76.277589 
L 365.664341 64.753998 
L 365.98932 66.289678 
L 366.3143 74.138421 
L 366.964259 60.833915 
L 367.289238 77.893329 
L 367.614218 58.48402 
L 367.939197 65.335415 
L 368.264177 60.562301 
L 368.589156 66.53595 
L 368.914136 59.923913 
L 369.239115 72.962974 
L 369.564095 55.837443 
L 369.889075 72.396969 
L 370.214054 68.272349 
L 370.539034 66.14356 
L 370.864013 69.638762 
L 371.188993 77.031936 
L 371.513972 73.029443 
L 371.838952 61.090195 
L 372.163931 79.263601 
L 372.488911 71.114161 
L 373.13887 64.829084 
L 373.463849 69.597028 
L 374.113808 63.720654 
L 374.438788 70.338997 
L 374.763767 70.057199 
L 375.413726 63.749991 
L 375.738706 66.43797 
L 376.063686 62.127749 
L 376.388665 73.711484 
L 376.713645 63.077644 
L 377.038624 59.004452 
L 377.363604 66.526471 
L 377.688583 71.091013 
L 378.013563 64.256519 
L 378.338542 63.618268 
L 378.663522 57.150078 
L 378.988501 70.03029 
L 379.313481 71.684318 
L 379.63846 70.106786 
L 379.96344 62.965211 
L 380.288419 76.833136 
L 380.613399 74.539369 
L 381.263358 58.249655 
L 381.588337 72.911722 
L 381.913317 66.189602 
L 382.238296 62.131862 
L 382.563276 68.15639 
L 382.888256 70.247793 
L 383.213235 67.009301 
L 383.538215 70.97572 
L 383.863194 71.279315 
L 384.188174 61.898927 
L 384.513153 65.581648 
L 384.838133 54.445257 
L 385.163112 72.711825 
L 385.488092 69.952031 
L 385.813071 63.874528 
L 386.46303 71.519849 
L 386.78801 66.872368 
L 387.112989 60.232248 
L 387.437969 70.648075 
L 387.762948 74.967461 
L 388.087928 74.580986 
L 388.412907 62.65061 
L 388.737887 65.221317 
L 389.062867 59.680736 
L 389.387846 61.901962 
L 389.712826 65.625615 
L 390.037805 72.653053 
L 390.362785 70.045527 
L 390.687764 61.263986 
L 391.012744 63.335784 
L 391.337723 71.198021 
L 391.987682 63.636344 
L 392.312662 67.216953 
L 392.637641 66.249099 
L 392.962621 63.473364 
L 393.2876 72.021088 
L 393.61258 66.415076 
L 393.937559 65.572463 
L 394.262539 70.850714 
L 394.587518 53.568 
L 394.912498 72.172161 
L 395.237477 59.785609 
L 395.562457 67.040342 
L 395.887437 60.956102 
L 396.212416 67.268714 
L 396.537396 64.95834 
L 396.862375 61.617207 
L 397.187355 66.967508 
L 397.512334 74.414284 
L 397.837314 65.255316 
L 398.162293 59.782476 
L 398.487273 71.654138 
L 398.487273 71.654138 
" clip-path="url(#p0b17866405)" style="fill: none; stroke: #008000; stroke-width: 1.5; stroke-linecap: square"/>
   </g>
   <g id="line2d_17">
    <path d="M 73.832727 115.762719 
L 74.482686 126.177273 
L 76.757543 175.157633 
L 77.732482 189.11683 
L 78.382441 194.06818 
L 78.70742 196.505128 
L 79.0324 197.325532 
L 79.682359 200.572278 
L 80.007338 199.262738 
L 80.332318 199.939041 
L 80.657297 199.568516 
L 80.982277 196.162442 
L 81.307256 198.348535 
L 81.632236 194.107231 
L 81.957215 194.363893 
L 82.282195 191.139257 
L 82.932154 187.510314 
L 83.257133 188.487872 
L 83.582113 185.783854 
L 83.907093 187.189553 
L 84.557052 183.413611 
L 84.882031 183.996243 
L 85.207011 182.964662 
L 85.53199 179.950537 
L 85.85697 180.268556 
L 86.181949 176.432314 
L 86.506929 176.587352 
L 87.156888 168.110023 
L 87.481867 170.607104 
L 87.806847 171.250711 
L 88.456806 164.868898 
L 88.781785 165.773024 
L 89.431744 161.841338 
L 89.756724 163.966103 
L 90.406683 157.103427 
L 90.731663 155.770366 
L 91.056642 159.411461 
L 91.706601 157.714456 
L 92.031581 159.093217 
L 92.68154 152.748515 
L 93.006519 156.136621 
L 93.331499 154.479382 
L 93.656478 148.953126 
L 93.981458 154.496498 
L 94.306437 152.036197 
L 94.631417 152.475442 
L 94.956396 151.394773 
L 95.281376 148.815752 
L 95.606355 152.267614 
L 96.256314 147.710799 
L 96.581294 150.723376 
L 97.231253 144.478917 
L 97.556233 150.262715 
L 97.881212 144.735519 
L 98.206192 145.029146 
L 98.531171 144.503896 
L 98.856151 148.812149 
L 99.18113 148.227833 
L 99.50611 148.192454 
L 100.156069 144.407258 
L 100.481048 139.921572 
L 100.806028 145.213473 
L 101.131007 143.949936 
L 101.455987 144.687087 
L 101.780966 144.775393 
L 102.105946 142.698943 
L 102.430925 144.681202 
L 102.755905 143.527553 
L 103.080885 144.975113 
L 103.405864 139.994112 
L 103.730844 145.063849 
L 104.055823 141.434387 
L 104.380803 141.083506 
L 104.705782 138.238952 
L 105.030762 143.706455 
L 105.680721 142.583014 
L 106.0057 143.017334 
L 106.33068 142.467584 
L 106.655659 143.283004 
L 106.980639 137.964655 
L 107.305618 142.021592 
L 107.630598 139.043493 
L 107.955577 139.689127 
L 108.280557 143.085144 
L 108.605536 140.567099 
L 108.930516 141.501111 
L 109.255495 138.905247 
L 109.580475 137.374424 
L 109.905455 137.354566 
L 110.230434 138.509939 
L 110.555414 137.816167 
L 110.880393 135.740363 
L 111.205373 139.214963 
L 111.530352 141.455969 
L 111.855332 135.176131 
L 112.180311 136.21582 
L 112.505291 135.874564 
L 112.83027 134.713061 
L 113.15525 136.468564 
L 113.480229 136.672779 
L 113.805209 138.859156 
L 114.130188 133.992919 
L 114.455168 139.800375 
L 114.780147 134.855409 
L 115.105127 136.199878 
L 115.430106 136.584738 
L 115.755086 135.524251 
L 116.080066 129.695937 
L 116.405045 131.98941 
L 116.730025 136.046867 
L 117.055004 136.068262 
L 117.379984 133.912486 
L 117.704963 129.989662 
L 118.029943 135.664122 
L 118.354922 132.748408 
L 118.679902 134.461521 
L 119.004881 129.857468 
L 119.329861 128.322963 
L 119.65484 130.158224 
L 119.97982 133.080586 
L 120.304799 131.225487 
L 120.629779 133.620857 
L 120.954758 133.211811 
L 121.279738 131.042472 
L 121.604717 126.976859 
L 121.929697 130.949271 
L 122.254676 130.487435 
L 122.579656 131.340545 
L 122.904636 130.545267 
L 123.229615 131.807933 
L 123.554595 131.482942 
L 123.879574 131.805465 
L 124.204554 131.138807 
L 124.529533 126.423565 
L 124.854513 129.767302 
L 125.179492 126.015605 
L 125.504472 129.182419 
L 125.829451 131.196679 
L 126.154431 131.688949 
L 126.47941 133.480223 
L 126.80439 128.122264 
L 127.129369 129.784439 
L 127.454349 127.301507 
L 127.779328 127.015832 
L 128.104308 127.974109 
L 128.429287 125.918487 
L 128.754267 125.851215 
L 129.079247 128.731099 
L 129.404226 122.080991 
L 129.729206 127.178342 
L 130.054185 126.141121 
L 130.379165 130.867644 
L 130.704144 124.21027 
L 131.029124 129.775156 
L 131.354103 126.475424 
L 131.679083 121.673345 
L 132.004062 123.68265 
L 132.979001 126.333516 
L 133.30398 125.5401 
L 133.62896 123.430131 
L 133.953939 125.196357 
L 134.278919 124.229188 
L 134.603898 123.930646 
L 134.928878 124.931852 
L 135.253857 124.123179 
L 135.578837 122.454992 
L 135.903817 124.28326 
L 136.228796 124.849343 
L 136.553776 125.649105 
L 136.878755 123.009246 
L 137.203735 126.509031 
L 137.528714 124.560201 
L 137.853694 119.088654 
L 138.178673 123.931625 
L 138.503653 126.140749 
L 138.828632 118.050336 
L 139.153612 119.969103 
L 139.478591 118.61352 
L 139.803571 125.675525 
L 140.12855 117.495612 
L 140.45353 121.173418 
L 140.778509 119.532257 
L 141.103489 125.578054 
L 141.428468 120.833807 
L 141.753448 125.729127 
L 142.078428 124.802948 
L 142.728387 116.935541 
L 143.053366 120.251489 
L 143.378346 121.785426 
L 143.703325 124.835203 
L 144.028305 120.591746 
L 144.353284 122.822843 
L 144.678264 124.123727 
L 145.003243 116.121189 
L 145.328223 119.079978 
L 145.653202 120.651125 
L 145.978182 116.40377 
L 146.303161 117.242701 
L 146.628141 119.270357 
L 146.95312 122.181654 
L 147.2781 117.578884 
L 147.603079 121.872008 
L 147.928059 115.436602 
L 148.253038 114.281287 
L 148.578018 113.774878 
L 148.902998 117.260464 
L 149.227977 115.520129 
L 149.552957 117.634445 
L 149.877936 116.274514 
L 150.202916 113.835511 
L 150.527895 116.953441 
L 150.852875 117.132442 
L 151.177854 116.862747 
L 151.502834 119.457876 
L 151.827813 116.717138 
L 152.152793 115.059899 
L 152.477772 119.326466 
L 152.802752 116.579402 
L 153.127731 115.39757 
L 153.452711 115.296829 
L 153.77769 117.850616 
L 154.10267 114.350126 
L 154.427649 118.069646 
L 154.752629 114.100368 
L 155.077609 119.615627 
L 155.402588 119.974019 
L 155.727568 115.465645 
L 156.052547 116.710753 
L 156.377527 110.888726 
L 157.027486 116.591505 
L 157.352465 107.533513 
L 157.677445 116.850095 
L 158.002424 114.578909 
L 158.327404 119.031566 
L 158.652383 116.050509 
L 158.977363 117.47356 
L 159.302342 117.379223 
L 159.952301 111.18958 
L 160.277281 119.87083 
L 160.60226 115.926815 
L 161.252219 111.823875 
L 161.577199 117.713781 
L 161.902179 110.736126 
L 162.227158 112.837575 
L 162.552138 117.743647 
L 163.202097 113.041663 
L 163.527076 118.394823 
L 163.852056 111.080828 
L 164.177035 114.321415 
L 164.502015 113.80208 
L 164.826994 117.092686 
L 165.476953 103.837944 
L 165.801933 107.085014 
L 166.126912 111.858186 
L 166.451892 108.116281 
L 166.776871 113.663737 
L 167.42683 110.807569 
L 167.75181 111.359395 
L 168.07679 113.880006 
L 168.401769 108.542591 
L 168.726749 117.871532 
L 169.051728 110.825567 
L 169.376708 111.027794 
L 169.701687 109.881704 
L 170.026667 107.857612 
L 170.351646 108.092134 
L 170.676626 107.126278 
L 171.001605 104.606019 
L 171.326585 115.334529 
L 171.651564 109.061985 
L 171.976544 109.531205 
L 172.301523 104.625916 
L 172.626503 109.969422 
L 172.951482 108.149222 
L 173.276462 114.240121 
L 173.601441 103.011018 
L 173.926421 110.304371 
L 174.2514 112.291037 
L 174.57638 107.40128 
L 174.90136 109.905029 
L 175.226339 108.613721 
L 175.551319 109.902972 
L 175.876298 107.47476 
L 176.201278 109.682924 
L 176.526257 103.808156 
L 176.851237 106.342241 
L 177.176216 106.164828 
L 177.501196 109.008305 
L 177.826175 103.0373 
L 178.151155 103.614194 
L 178.476134 103.574399 
L 178.801114 107.625284 
L 179.126093 105.603308 
L 179.776052 110.003303 
L 180.101032 105.89903 
L 180.426011 108.273308 
L 180.750991 111.471848 
L 181.40095 104.976808 
L 181.72593 109.416656 
L 182.050909 104.418402 
L 182.375889 107.688287 
L 182.700868 104.078262 
L 183.025848 108.284549 
L 183.350827 105.659045 
L 183.675807 111.069724 
L 184.000786 105.732074 
L 184.325766 104.474804 
L 184.650745 102.090225 
L 184.975725 103.853807 
L 185.300704 101.84223 
L 185.950663 105.011903 
L 186.275643 105.273019 
L 186.600622 106.087979 
L 186.925602 104.194456 
L 187.250581 104.326375 
L 187.900541 106.885998 
L 188.22552 104.9536 
L 188.5505 107.414479 
L 188.875479 100.901246 
L 189.200459 112.031918 
L 189.850418 100.213192 
L 190.175397 101.92607 
L 190.500377 102.082059 
L 190.825356 104.765533 
L 191.150336 105.210409 
L 191.475315 101.470442 
L 191.800295 108.702379 
L 192.125274 99.400543 
L 192.450254 99.901665 
L 192.775233 101.05463 
L 193.100213 99.391515 
L 193.750172 102.873302 
L 194.075152 98.148777 
L 194.400131 103.830326 
L 195.05009 101.703671 
L 195.700049 104.952719 
L 196.025029 99.728991 
L 196.350008 103.055298 
L 196.674988 99.029187 
L 196.999967 107.259 
L 197.324947 103.203395 
L 197.649926 104.950447 
L 197.974906 98.25177 
L 198.299885 101.887391 
L 198.624865 102.145394 
L 198.949844 101.434956 
L 199.599803 98.570171 
L 199.924783 103.67138 
L 200.249762 98.459539 
L 200.574742 99.892833 
L 200.899722 105.317339 
L 201.549681 95.813432 
L 201.87466 101.377594 
L 202.19964 101.914594 
L 202.524619 96.10704 
L 202.849599 95.443564 
L 203.174578 101.109485 
L 203.824537 99.355676 
L 204.149517 99.402443 
L 204.474496 105.172807 
L 204.799476 99.507454 
L 205.124455 100.19116 
L 205.449435 99.07047 
L 205.774414 101.291305 
L 206.099394 100.107496 
L 206.424373 100.337376 
L 207.074333 94.668184 
L 207.399312 97.397681 
L 207.724292 103.492536 
L 208.049271 93.308998 
L 208.374251 104.728675 
L 208.69923 96.290681 
L 209.02421 93.396951 
L 209.349189 101.559727 
L 209.674169 97.206519 
L 209.999148 98.766621 
L 210.324128 91.795272 
L 210.649107 102.751958 
L 210.974087 96.47256 
L 211.299066 95.628459 
L 211.624046 95.422296 
L 211.949025 97.630401 
L 212.274005 91.77418 
L 212.923964 104.201467 
L 213.248943 103.979538 
L 213.573923 97.488846 
L 213.898903 101.0155 
L 214.223882 94.447274 
L 214.548862 94.646485 
L 214.873841 97.058678 
L 215.198821 95.591269 
L 215.5238 97.30495 
L 215.84878 90.258495 
L 216.173759 100.019053 
L 216.498739 98.46232 
L 216.823718 99.199589 
L 217.148698 94.861735 
L 217.473677 100.211821 
L 217.798657 99.583343 
L 218.123636 94.865143 
L 218.448616 99.120684 
L 218.773595 99.103724 
L 219.098575 92.440025 
L 219.423554 98.142725 
L 219.748534 94.450917 
L 220.073514 101.949513 
L 220.398493 90.675797 
L 220.723473 98.942938 
L 221.048452 93.591951 
L 221.373432 93.000937 
L 221.698411 92.104233 
L 222.023391 103.011253 
L 222.34837 103.68738 
L 222.67335 95.076222 
L 222.998329 95.943041 
L 223.323309 89.224486 
L 223.648288 98.04545 
L 224.298247 89.3661 
L 224.623227 96.925818 
L 224.948206 99.840229 
L 225.273186 91.535134 
L 225.598165 90.818605 
L 225.923145 91.714076 
L 226.248124 94.002574 
L 226.573104 94.758409 
L 226.898084 98.312697 
L 227.223063 94.921663 
L 227.548043 98.412165 
L 227.873022 93.909706 
L 228.198002 94.567678 
L 228.522981 97.794948 
L 228.847961 98.289254 
L 229.17294 95.911373 
L 229.49792 98.264931 
L 229.822899 99.740428 
L 230.147879 95.930801 
L 230.472858 95.648925 
L 230.797838 94.451308 
L 231.122817 96.981359 
L 231.447797 94.22278 
L 231.772776 89.727586 
L 232.097756 91.345304 
L 232.422735 91.668718 
L 232.747715 89.135338 
L 233.072695 92.961612 
L 233.397674 93.264072 
L 233.722654 95.479619 
L 234.372613 88.290199 
L 234.697592 90.910651 
L 235.022572 94.904547 
L 235.347551 100.81202 
L 235.672531 91.05438 
L 235.99751 90.864961 
L 236.32249 93.443463 
L 236.647469 89.296948 
L 236.972449 97.404438 
L 237.297428 90.24886 
L 237.622408 86.993115 
L 237.947387 90.173108 
L 238.272367 90.8556 
L 238.597346 96.58327 
L 238.922326 85.660386 
L 239.247305 91.086635 
L 239.572285 87.82384 
L 240.222244 95.905596 
L 240.547224 91.038908 
L 240.872203 95.997329 
L 241.197183 86.92173 
L 241.522162 95.268618 
L 241.847142 92.613953 
L 242.172121 91.705654 
L 242.497101 92.683731 
L 242.82208 86.467454 
L 243.14706 97.691112 
L 243.472039 86.268223 
L 243.797019 93.243097 
L 244.121998 89.8607 
L 244.446978 93.520038 
L 244.771957 87.465781 
L 245.096937 87.415194 
L 245.746896 91.441854 
L 246.396855 87.484033 
L 246.721835 98.009767 
L 247.371794 86.745922 
L 248.021753 96.67749 
L 248.346732 88.791674 
L 248.671712 87.748949 
L 248.996691 90.928159 
L 249.321671 88.107341 
L 249.64665 95.270341 
L 249.97163 89.520365 
L 250.296609 89.17484 
L 250.621589 92.76763 
L 250.946568 91.128839 
L 251.271548 88.49321 
L 251.596527 90.280645 
L 251.921507 85.643701 
L 252.246486 84.075903 
L 252.571466 81.90395 
L 252.896446 87.34097 
L 253.221425 87.207836 
L 253.546405 90.753546 
L 254.196364 85.119567 
L 254.521343 87.30421 
L 254.846323 86.253084 
L 255.171302 86.821204 
L 255.496282 86.218851 
L 255.821261 90.693814 
L 256.146241 91.598548 
L 256.47122 85.639745 
L 257.121179 95.87477 
L 257.446159 91.214795 
L 257.771138 96.788709 
L 258.096118 81.79185 
L 258.421097 86.488193 
L 258.746077 86.200129 
L 259.071057 95.631123 
L 259.396036 93.748684 
L 259.721016 86.05356 
L 260.045995 92.280903 
L 260.370975 87.925913 
L 260.695954 81.127611 
L 261.020934 88.924866 
L 261.345913 89.576787 
L 261.670893 92.272168 
L 261.995872 91.419626 
L 262.320852 84.719441 
L 262.645831 90.662675 
L 262.970811 87.91381 
L 263.29579 82.960109 
L 263.945749 84.742747 
L 264.270729 86.980992 
L 264.595708 85.003687 
L 265.245667 86.463576 
L 265.570647 82.899888 
L 265.895627 85.220837 
L 266.220606 84.21548 
L 266.545586 86.278838 
L 266.870565 81.072207 
L 267.195545 82.988565 
L 267.520524 82.521422 
L 267.845504 83.076831 
L 268.170483 88.35093 
L 268.495463 84.846778 
L 268.820442 87.3537 
L 269.145422 87.870861 
L 269.470401 81.486316 
L 269.795381 87.00181 
L 270.12036 85.095714 
L 270.44534 91.08642 
L 270.770319 81.910158 
L 271.095299 83.972674 
L 271.420278 87.638181 
L 271.745258 87.440282 
L 272.070238 84.706751 
L 272.395217 85.332703 
L 272.720197 87.820314 
L 273.045176 80.001594 
L 273.370156 75.856116 
L 273.695135 88.88703 
L 274.020115 84.450158 
L 274.345094 84.718462 
L 274.670074 84.53155 
L 274.995053 91.606186 
L 275.320033 80.533698 
L 275.645012 88.568433 
L 275.969992 84.210251 
L 276.294971 90.991299 
L 276.619951 88.412346 
L 276.94493 86.999597 
L 277.26991 86.826315 
L 277.594889 83.727087 
L 277.919869 84.138122 
L 278.244848 87.559609 
L 278.569828 83.438553 
L 278.894808 83.552102 
L 279.219787 81.569725 
L 279.544767 88.087483 
L 279.869746 85.281979 
L 280.194726 87.073528 
L 280.519705 80.647992 
L 280.844685 81.569843 
L 281.169664 78.640371 
L 281.494644 82.866594 
L 281.819623 79.818736 
L 282.144603 78.872797 
L 282.469582 86.621954 
L 282.794562 80.913124 
L 283.119541 82.090588 
L 283.444521 90.680673 
L 283.7695 84.032524 
L 284.09448 89.699678 
L 284.419459 83.119271 
L 284.744439 78.848317 
L 285.069419 92.887368 
L 285.394398 78.597266 
L 285.719378 89.045094 
L 286.044357 81.616159 
L 286.369337 87.707999 
L 286.694316 81.875063 
L 287.019296 89.235473 
L 287.344275 87.641647 
L 287.669255 83.707915 
L 287.994234 88.233856 
L 288.319214 82.134496 
L 288.644193 86.728864 
L 288.969173 84.422524 
L 289.294152 80.491338 
L 289.619132 87.273248 
L 289.944111 82.157409 
L 290.269091 86.127216 
L 290.59407 82.192093 
L 290.91905 86.146722 
L 291.244029 83.43914 
L 291.569009 77.900066 
L 291.893989 84.372291 
L 292.218968 79.218322 
L 292.543948 79.611162 
L 292.868927 78.269993 
L 293.193907 81.195 
L 293.518886 80.923973 
L 294.168845 76.903385 
L 294.493825 87.600853 
L 294.818804 82.343989 
L 295.143784 78.994826 
L 295.468763 77.27715 
L 295.793743 74.709047 
L 296.118722 79.29521 
L 296.443702 81.16768 
L 296.768681 87.44318 
L 297.093661 81.730159 
L 297.41864 85.377061 
L 297.74362 77.676669 
L 298.0686 75.298886 
L 298.393579 84.103732 
L 298.718559 76.237774 
L 299.043538 77.850518 
L 299.368518 77.7694 
L 299.693497 85.900431 
L 300.018477 78.375729 
L 300.343456 78.742973 
L 300.668436 75.074548 
L 300.993415 81.127356 
L 301.318395 83.957183 
L 301.968354 75.169688 
L 302.293333 80.206583 
L 302.618313 87.196556 
L 302.943292 73.630307 
L 303.268272 72.560028 
L 303.918231 79.78652 
L 304.24321 80.184159 
L 304.56819 75.953039 
L 304.89317 76.543132 
L 305.218149 70.328774 
L 305.543129 80.670964 
L 306.193088 79.099348 
L 306.518067 81.43287 
L 306.843047 81.800016 
L 307.168026 79.224589 
L 307.493006 83.199977 
L 307.817985 78.862985 
L 308.142965 79.188397 
L 308.467944 78.927261 
L 308.792924 80.807937 
L 309.117903 74.51861 
L 309.442883 76.508723 
L 309.767862 79.356528 
L 310.092842 77.161348 
L 310.417821 82.556674 
L 310.742801 80.132495 
L 311.067781 72.405997 
L 311.39276 79.287493 
L 311.71774 74.214094 
L 312.042719 77.309053 
L 312.367699 77.890646 
L 312.692678 84.450138 
L 313.017658 73.00085 
L 313.667617 74.231642 
L 313.992596 76.603667 
L 314.317576 72.0865 
L 314.642555 81.314836 
L 314.967535 75.661429 
L 315.292514 75.910659 
L 315.617494 76.508468 
L 315.942473 82.559788 
L 316.267453 72.653836 
L 316.592432 81.645673 
L 316.917412 82.392048 
L 317.242391 82.216084 
L 317.567371 72.246738 
L 317.892351 74.914035 
L 318.21733 73.391203 
L 318.54231 79.951439 
L 318.867289 78.3017 
L 319.192269 74.313014 
L 319.517248 77.152359 
L 319.842228 78.884273 
L 320.167207 75.041314 
L 320.492187 74.633765 
L 320.817166 70.243778 
L 321.142146 78.343826 
L 321.792105 72.999009 
L 322.117084 76.799999 
L 322.442064 71.494722 
L 322.767043 77.326287 
L 323.092023 77.80759 
L 323.417002 77.166519 
L 324.066962 83.18711 
L 324.391941 74.801641 
L 325.0419 78.767042 
L 325.36688 73.583794 
L 325.691859 75.072942 
L 326.016839 68.122098 
L 326.341818 75.5215 
L 326.666798 75.235394 
L 326.991777 79.355372 
L 327.316757 80.465389 
L 327.641736 72.956961 
L 327.966716 72.399182 
L 328.291695 82.976345 
L 328.616675 75.596135 
L 328.941654 74.37729 
L 329.266634 74.293978 
L 329.591613 76.967053 
L 330.241572 65.012079 
L 330.566552 81.725616 
L 330.891532 80.571516 
L 331.216511 74.377603 
L 331.541491 80.353582 
L 331.86647 78.982958 
L 332.19145 72.438997 
L 332.516429 77.501233 
L 332.841409 76.080356 
L 333.166388 80.637985 
L 333.491368 71.685003 
L 333.816347 75.496138 
L 334.141327 68.764227 
L 334.466306 73.72249 
L 334.791286 71.445018 
L 335.116265 75.491556 
L 335.441245 76.437906 
L 335.766224 76.084998 
L 336.091204 73.951567 
L 336.416183 73.75171 
L 336.741163 72.476266 
L 337.066143 80.521517 
L 337.391122 77.451783 
L 337.716102 77.831404 
L 338.041081 69.109713 
L 338.366061 73.946221 
L 338.69104 72.94147 
L 339.01602 74.208121 
L 339.340999 74.218579 
L 339.665979 75.787317 
L 339.990958 76.262 
L 340.315938 72.308899 
L 340.640917 70.444673 
L 340.965897 63.956292 
L 341.290876 67.985948 
L 341.615856 69.999817 
L 341.940835 69.097512 
L 342.265815 71.735707 
L 342.590794 70.4538 
L 342.915774 77.570052 
L 343.240753 74.639445 
L 343.565733 75.550543 
L 343.890713 68.404914 
L 344.215692 74.215622 
L 344.540672 71.691094 
L 344.865651 68.262106 
L 345.190631 73.362727 
L 345.51561 68.551444 
L 345.84059 74.299599 
L 346.165569 68.945851 
L 346.490549 79.882639 
L 346.815528 79.471762 
L 347.140508 70.053948 
L 347.465487 75.742234 
L 347.790467 72.552429 
L 348.115446 66.083083 
L 348.440426 73.343868 
L 348.765405 63.120847 
L 349.090385 79.450062 
L 349.740344 67.822694 
L 350.065324 73.420814 
L 350.390303 70.80189 
L 350.715283 77.682113 
L 351.040262 71.009855 
L 351.365242 67.129098 
L 352.015201 78.215079 
L 352.34018 69.847549 
L 352.66516 76.420946 
L 352.990139 66.059896 
L 353.315119 79.194605 
L 353.640098 65.505074 
L 354.290057 72.251243 
L 354.615037 71.818274 
L 354.940016 69.722621 
L 355.264996 73.060777 
L 355.589975 80.674333 
L 355.914955 66.245163 
L 356.239934 69.51352 
L 356.564914 70.517429 
L 356.889894 71.896219 
L 357.214873 72.053226 
L 357.539853 79.032095 
L 357.864832 63.654851 
L 358.514791 73.96653 
L 358.839771 72.948285 
L 359.16475 65.236006 
L 359.814709 75.599798 
L 360.139689 68.049401 
L 360.464668 70.017658 
L 360.789648 67.148741 
L 361.114627 67.258863 
L 361.439607 69.635413 
L 361.764586 70.398102 
L 362.089566 58.384689 
L 362.414545 74.321729 
L 362.739525 75.615622 
L 363.389484 71.660816 
L 363.714464 66.685495 
L 364.364423 70.647664 
L 365.014382 65.413615 
L 365.339361 68.899299 
L 365.664341 67.89259 
L 366.3143 69.583319 
L 366.639279 63.442205 
L 366.964259 70.704028 
L 367.289238 70.402783 
L 367.614218 69.593522 
L 367.939197 80.286095 
L 368.264177 65.7375 
L 368.589156 75.006434 
L 368.914136 59.40356 
L 369.889075 74.455509 
L 370.539034 68.888175 
L 370.864013 74.668625 
L 371.188993 67.639288 
L 371.513972 69.832744 
L 371.838952 68.358088 
L 372.163931 76.240497 
L 372.81389 71.167078 
L 373.13887 71.805387 
L 373.463849 65.964168 
L 373.788829 67.966501 
L 374.113808 78.653512 
L 374.763767 68.497665 
L 375.088747 68.895206 
L 375.413726 64.595933 
L 375.738706 61.949748 
L 376.063686 71.005038 
L 376.388665 76.107285 
L 376.713645 71.383719 
L 377.038624 61.596291 
L 377.363604 67.599571 
L 377.688583 79.979053 
L 378.013563 65.5632 
L 378.338542 70.775197 
L 378.663522 68.885277 
L 378.988501 65.878487 
L 379.313481 69.241534 
L 379.63846 64.013302 
L 379.96344 71.264529 
L 380.288419 72.098211 
L 380.938378 66.275225 
L 381.263358 67.710378 
L 381.588337 72.862291 
L 381.913317 61.552325 
L 382.238296 64.030066 
L 382.563276 79.746764 
L 382.888256 66.113733 
L 383.213235 73.95425 
L 383.538215 65.925019 
L 383.863194 65.765799 
L 384.188174 64.420243 
L 384.513153 67.892747 
L 384.838133 68.729817 
L 385.163112 72.021461 
L 385.488092 62.287537 
L 385.813071 67.57182 
L 386.138051 64.589196 
L 386.46303 62.676833 
L 386.78801 68.518895 
L 387.112989 76.594306 
L 387.437969 66.049712 
L 387.762948 66.582599 
L 388.087928 62.73776 
L 388.412907 62.331151 
L 388.737887 58.538817 
L 389.062867 74.132154 
L 389.387846 74.993136 
L 389.712826 68.70424 
L 390.037805 65.756966 
L 390.362785 69.379251 
L 390.687764 68.596155 
L 391.012744 66.255562 
L 391.337723 67.269693 
L 391.662703 57.021272 
L 391.987682 64.163924 
L 392.312662 68.709861 
L 392.637641 70.230245 
L 392.962621 65.345932 
L 393.2876 69.082236 
L 393.61258 64.973185 
L 393.937559 71.218114 
L 394.262539 70.679058 
L 394.587518 62.268736 
L 394.912498 68.83708 
L 395.237477 69.103798 
L 395.562457 63.022006 
L 395.887437 75.165066 
L 396.212416 60.179547 
L 396.537396 64.65355 
L 396.862375 57.875479 
L 397.187355 67.029767 
L 397.512334 66.21704 
L 397.837314 64.49106 
L 398.162293 67.311525 
L 398.487273 63.95214 
L 398.487273 63.95214 
" clip-path="url(#p0b17866405)" style="fill: none; stroke: #ff0000; stroke-width: 1.5; stroke-linecap: square"/>
   </g>
   <g id="patch_3">
    <path d="M 57.6 307.584 
L 57.6 41.472 
" style="fill: none; stroke: #000000; stroke-width: 0.8; stroke-linejoin: miter; stroke-linecap: square"/>
   </g>
   <g id="patch_4">
    <path d="M 414.72 307.584 
L 414.72 41.472 
" style="fill: none; stroke: #000000; stroke-width: 0.8; stroke-linejoin: miter; stroke-linecap: square"/>
   </g>
   <g id="patch_5">
    <path d="M 57.6 307.584 
L 414.72 307.584 
" style="fill: none; stroke: #000000; stroke-width: 0.8; stroke-linejoin: miter; stroke-linecap: square"/>
   </g>
   <g id="patch_6">
    <path d="M 57.6 41.472 
L 414.72 41.472 
" style="fill: none; stroke: #000000; stroke-width: 0.8; stroke-linejoin: miter; stroke-linecap: square"/>
   </g>
   <g id="text_17">
    <!-- spectrumGCN+PubMed+WithGraph_PubMed_WithOutGraph_Training and Validation loss -->
    <g transform="translate(-29.040938 35.472) scale(0.12 -0.12)">
     <defs>
      <path id="DejaVuSans-74" d="M 1172 4494 
L 1172 3500 
L 2356 3500 
L 2356 3053 
L 1172 3053 
L 1172 1153 
Q 1172 725 1289 603 
Q 1406 481 1766 481 
L 2356 481 
L 2356 0 
L 1766 0 
Q 1100 0 847 248 
Q 594 497 594 1153 
L 594 3053 
L 172 3053 
L 172 3500 
L 594 3500 
L 594 4494 
L 1172 4494 
z
" transform="scale(0.015625)"/>
      <path id="DejaVuSans-72" d="M 2631 2963 
Q 2534 3019 2420 3045 
Q 2306 3072 2169 3072 
Q 1681 3072 1420 2755 
Q 1159 2438 1159 1844 
L 1159 0 
L 581 0 
L 581 3500 
L 1159 3500 
L 1159 2956 
Q 1341 3275 1631 3429 
Q 1922 3584 2338 3584 
Q 2397 3584 2469 3576 
Q 2541 3569 2628 3553 
L 2631 2963 
z
" transform="scale(0.015625)"/>
      <path id="DejaVuSans-75" d="M 544 1381 
L 544 3500 
L 1119 3500 
L 1119 1403 
Q 1119 906 1312 657 
Q 1506 409 1894 409 
Q 2359 409 2629 706 
Q 2900 1003 2900 1516 
L 2900 3500 
L 3475 3500 
L 3475 0 
L 2900 0 
L 2900 538 
Q 2691 219 2414 64 
Q 2138 -91 1772 -91 
Q 1169 -91 856 284 
Q 544 659 544 1381 
z
M 1991 3584 
L 1991 3584 
z
" transform="scale(0.015625)"/>
      <path id="DejaVuSans-6d" d="M 3328 2828 
Q 3544 3216 3844 3400 
Q 4144 3584 4550 3584 
Q 5097 3584 5394 3201 
Q 5691 2819 5691 2113 
L 5691 0 
L 5113 0 
L 5113 2094 
Q 5113 2597 4934 2840 
Q 4756 3084 4391 3084 
Q 3944 3084 3684 2787 
Q 3425 2491 3425 1978 
L 3425 0 
L 2847 0 
L 2847 2094 
Q 2847 2600 2669 2842 
Q 2491 3084 2119 3084 
Q 1678 3084 1418 2786 
Q 1159 2488 1159 1978 
L 1159 0 
L 581 0 
L 581 3500 
L 1159 3500 
L 1159 2956 
Q 1356 3278 1631 3431 
Q 1906 3584 2284 3584 
Q 2666 3584 2933 3390 
Q 3200 3197 3328 2828 
z
" transform="scale(0.015625)"/>
      <path id="DejaVuSans-47" d="M 3809 666 
L 3809 1919 
L 2778 1919 
L 2778 2438 
L 4434 2438 
L 4434 434 
Q 4069 175 3628 42 
Q 3188 -91 2688 -91 
Q 1594 -91 976 548 
Q 359 1188 359 2328 
Q 359 3472 976 4111 
Q 1594 4750 2688 4750 
Q 3144 4750 3555 4637 
Q 3966 4525 4313 4306 
L 4313 3634 
Q 3963 3931 3569 4081 
Q 3175 4231 2741 4231 
Q 1884 4231 1454 3753 
Q 1025 3275 1025 2328 
Q 1025 1384 1454 906 
Q 1884 428 2741 428 
Q 3075 428 3337 486 
Q 3600 544 3809 666 
z
" transform="scale(0.015625)"/>
      <path id="DejaVuSans-43" d="M 4122 4306 
L 4122 3641 
Q 3803 3938 3442 4084 
Q 3081 4231 2675 4231 
Q 1875 4231 1450 3742 
Q 1025 3253 1025 2328 
Q 1025 1406 1450 917 
Q 1875 428 2675 428 
Q 3081 428 3442 575 
Q 3803 722 4122 1019 
L 4122 359 
Q 3791 134 3420 21 
Q 3050 -91 2638 -91 
Q 1578 -91 968 557 
Q 359 1206 359 2328 
Q 359 3453 968 4101 
Q 1578 4750 2638 4750 
Q 3056 4750 3426 4639 
Q 3797 4528 4122 4306 
z
" transform="scale(0.015625)"/>
      <path id="DejaVuSans-4e" d="M 628 4666 
L 1478 4666 
L 3547 763 
L 3547 4666 
L 4159 4666 
L 4159 0 
L 3309 0 
L 1241 3903 
L 1241 0 
L 628 0 
L 628 4666 
z
" transform="scale(0.015625)"/>
      <path id="DejaVuSans-2b" d="M 2944 4013 
L 2944 2272 
L 4684 2272 
L 4684 1741 
L 2944 1741 
L 2944 0 
L 2419 0 
L 2419 1741 
L 678 1741 
L 678 2272 
L 2419 2272 
L 2419 4013 
L 2944 4013 
z
" transform="scale(0.015625)"/>
      <path id="DejaVuSans-50" d="M 1259 4147 
L 1259 2394 
L 2053 2394 
Q 2494 2394 2734 2622 
Q 2975 2850 2975 3272 
Q 2975 3691 2734 3919 
Q 2494 4147 2053 4147 
L 1259 4147 
z
M 628 4666 
L 2053 4666 
Q 2838 4666 3239 4311 
Q 3641 3956 3641 3272 
Q 3641 2581 3239 2228 
Q 2838 1875 2053 1875 
L 1259 1875 
L 1259 0 
L 628 0 
L 628 4666 
z
" transform="scale(0.015625)"/>
      <path id="DejaVuSans-62" d="M 3116 1747 
Q 3116 2381 2855 2742 
Q 2594 3103 2138 3103 
Q 1681 3103 1420 2742 
Q 1159 2381 1159 1747 
Q 1159 1113 1420 752 
Q 1681 391 2138 391 
Q 2594 391 2855 752 
Q 3116 1113 3116 1747 
z
M 1159 2969 
Q 1341 3281 1617 3432 
Q 1894 3584 2278 3584 
Q 2916 3584 3314 3078 
Q 3713 2572 3713 1747 
Q 3713 922 3314 415 
Q 2916 -91 2278 -91 
Q 1894 -91 1617 61 
Q 1341 213 1159 525 
L 1159 0 
L 581 0 
L 581 4863 
L 1159 4863 
L 1159 2969 
z
" transform="scale(0.015625)"/>
      <path id="DejaVuSans-4d" d="M 628 4666 
L 1569 4666 
L 2759 1491 
L 3956 4666 
L 4897 4666 
L 4897 0 
L 4281 0 
L 4281 4097 
L 3078 897 
L 2444 897 
L 1241 4097 
L 1241 0 
L 628 0 
L 628 4666 
z
" transform="scale(0.015625)"/>
      <path id="DejaVuSans-64" d="M 2906 2969 
L 2906 4863 
L 3481 4863 
L 3481 0 
L 2906 0 
L 2906 525 
Q 2725 213 2448 61 
Q 2172 -91 1784 -91 
Q 1150 -91 751 415 
Q 353 922 353 1747 
Q 353 2572 751 3078 
Q 1150 3584 1784 3584 
Q 2172 3584 2448 3432 
Q 2725 3281 2906 2969 
z
M 947 1747 
Q 947 1113 1208 752 
Q 1469 391 1925 391 
Q 2381 391 2643 752 
Q 2906 1113 2906 1747 
Q 2906 2381 2643 2742 
Q 2381 3103 1925 3103 
Q 1469 3103 1208 2742 
Q 947 2381 947 1747 
z
" transform="scale(0.015625)"/>
      <path id="DejaVuSans-57" d="M 213 4666 
L 850 4666 
L 1831 722 
L 2809 4666 
L 3519 4666 
L 4500 722 
L 5478 4666 
L 6119 4666 
L 4947 0 
L 4153 0 
L 3169 4050 
L 2175 0 
L 1381 0 
L 213 4666 
z
" transform="scale(0.015625)"/>
      <path id="DejaVuSans-69" d="M 603 3500 
L 1178 3500 
L 1178 0 
L 603 0 
L 603 3500 
z
M 603 4863 
L 1178 4863 
L 1178 4134 
L 603 4134 
L 603 4863 
z
" transform="scale(0.015625)"/>
      <path id="DejaVuSans-61" d="M 2194 1759 
Q 1497 1759 1228 1600 
Q 959 1441 959 1056 
Q 959 750 1161 570 
Q 1363 391 1709 391 
Q 2188 391 2477 730 
Q 2766 1069 2766 1631 
L 2766 1759 
L 2194 1759 
z
M 3341 1997 
L 3341 0 
L 2766 0 
L 2766 531 
Q 2569 213 2275 61 
Q 1981 -91 1556 -91 
Q 1019 -91 701 211 
Q 384 513 384 1019 
Q 384 1609 779 1909 
Q 1175 2209 1959 2209 
L 2766 2209 
L 2766 2266 
Q 2766 2663 2505 2880 
Q 2244 3097 1772 3097 
Q 1472 3097 1187 3025 
Q 903 2953 641 2809 
L 641 3341 
Q 956 3463 1253 3523 
Q 1550 3584 1831 3584 
Q 2591 3584 2966 3190 
Q 3341 2797 3341 1997 
z
" transform="scale(0.015625)"/>
      <path id="DejaVuSans-5f" d="M 3263 -1063 
L 3263 -1509 
L -63 -1509 
L -63 -1063 
L 3263 -1063 
z
" transform="scale(0.015625)"/>
      <path id="DejaVuSans-4f" d="M 2522 4238 
Q 1834 4238 1429 3725 
Q 1025 3213 1025 2328 
Q 1025 1447 1429 934 
Q 1834 422 2522 422 
Q 3209 422 3611 934 
Q 4013 1447 4013 2328 
Q 4013 3213 3611 3725 
Q 3209 4238 2522 4238 
z
M 2522 4750 
Q 3503 4750 4090 4092 
Q 4678 3434 4678 2328 
Q 4678 1225 4090 567 
Q 3503 -91 2522 -91 
Q 1538 -91 948 565 
Q 359 1222 359 2328 
Q 359 3434 948 4092 
Q 1538 4750 2522 4750 
z
" transform="scale(0.015625)"/>
      <path id="DejaVuSans-54" d="M -19 4666 
L 3928 4666 
L 3928 4134 
L 2272 4134 
L 2272 0 
L 1638 0 
L 1638 4134 
L -19 4134 
L -19 4666 
z
" transform="scale(0.015625)"/>
      <path id="DejaVuSans-6e" d="M 3513 2113 
L 3513 0 
L 2938 0 
L 2938 2094 
Q 2938 2591 2744 2837 
Q 2550 3084 2163 3084 
Q 1697 3084 1428 2787 
Q 1159 2491 1159 1978 
L 1159 0 
L 581 0 
L 581 3500 
L 1159 3500 
L 1159 2956 
Q 1366 3272 1645 3428 
Q 1925 3584 2291 3584 
Q 2894 3584 3203 3211 
Q 3513 2838 3513 2113 
z
" transform="scale(0.015625)"/>
      <path id="DejaVuSans-67" d="M 2906 1791 
Q 2906 2416 2648 2759 
Q 2391 3103 1925 3103 
Q 1463 3103 1205 2759 
Q 947 2416 947 1791 
Q 947 1169 1205 825 
Q 1463 481 1925 481 
Q 2391 481 2648 825 
Q 2906 1169 2906 1791 
z
M 3481 434 
Q 3481 -459 3084 -895 
Q 2688 -1331 1869 -1331 
Q 1566 -1331 1297 -1286 
Q 1028 -1241 775 -1147 
L 775 -588 
Q 1028 -725 1275 -790 
Q 1522 -856 1778 -856 
Q 2344 -856 2625 -561 
Q 2906 -266 2906 331 
L 2906 616 
Q 2728 306 2450 153 
Q 2172 0 1784 0 
Q 1141 0 747 490 
Q 353 981 353 1791 
Q 353 2603 747 3093 
Q 1141 3584 1784 3584 
Q 2172 3584 2450 3431 
Q 2728 3278 2906 2969 
L 2906 3500 
L 3481 3500 
L 3481 434 
z
" transform="scale(0.015625)"/>
      <path id="DejaVuSans-20" transform="scale(0.015625)"/>
      <path id="DejaVuSans-56" d="M 1831 0 
L 50 4666 
L 709 4666 
L 2188 738 
L 3669 4666 
L 4325 4666 
L 2547 0 
L 1831 0 
z
" transform="scale(0.015625)"/>
     </defs>
     <use xlink:href="#DejaVuSans-73"/>
     <use xlink:href="#DejaVuSans-70" x="52.099609"/>
     <use xlink:href="#DejaVuSans-65" x="115.576172"/>
     <use xlink:href="#DejaVuSans-63" x="177.099609"/>
     <use xlink:href="#DejaVuSans-74" x="232.080078"/>
     <use xlink:href="#DejaVuSans-72" x="271.289062"/>
     <use xlink:href="#DejaVuSans-75" x="312.402344"/>
     <use xlink:href="#DejaVuSans-6d" x="375.78125"/>
     <use xlink:href="#DejaVuSans-47" x="473.193359"/>
     <use xlink:href="#DejaVuSans-43" x="550.683594"/>
     <use xlink:href="#DejaVuSans-4e" x="620.507812"/>
     <use xlink:href="#DejaVuSans-2b" x="695.3125"/>
     <use xlink:href="#DejaVuSans-50" x="779.101562"/>
     <use xlink:href="#DejaVuSans-75" x="837.654297"/>
     <use xlink:href="#DejaVuSans-62" x="901.033203"/>
     <use xlink:href="#DejaVuSans-4d" x="964.509766"/>
     <use xlink:href="#DejaVuSans-65" x="1050.789062"/>
     <use xlink:href="#DejaVuSans-64" x="1112.3125"/>
     <use xlink:href="#DejaVuSans-2b" x="1175.789062"/>
     <use xlink:href="#DejaVuSans-57" x="1259.578125"/>
     <use xlink:href="#DejaVuSans-69" x="1356.205078"/>
     <use xlink:href="#DejaVuSans-74" x="1383.988281"/>
     <use xlink:href="#DejaVuSans-68" x="1423.197266"/>
     <use xlink:href="#DejaVuSans-47" x="1486.576172"/>
     <use xlink:href="#DejaVuSans-72" x="1564.066406"/>
     <use xlink:href="#DejaVuSans-61" x="1605.179688"/>
     <use xlink:href="#DejaVuSans-70" x="1666.458984"/>
     <use xlink:href="#DejaVuSans-68" x="1729.935547"/>
     <use xlink:href="#DejaVuSans-5f" x="1793.314453"/>
     <use xlink:href="#DejaVuSans-50" x="1843.314453"/>
     <use xlink:href="#DejaVuSans-75" x="1901.867188"/>
     <use xlink:href="#DejaVuSans-62" x="1965.246094"/>
     <use xlink:href="#DejaVuSans-4d" x="2028.722656"/>
     <use xlink:href="#DejaVuSans-65" x="2115.001953"/>
     <use xlink:href="#DejaVuSans-64" x="2176.525391"/>
     <use xlink:href="#DejaVuSans-5f" x="2240.001953"/>
     <use xlink:href="#DejaVuSans-57" x="2290.001953"/>
     <use xlink:href="#DejaVuSans-69" x="2386.628906"/>
     <use xlink:href="#DejaVuSans-74" x="2414.412109"/>
     <use xlink:href="#DejaVuSans-68" x="2453.621094"/>
     <use xlink:href="#DejaVuSans-4f" x="2517"/>
     <use xlink:href="#DejaVuSans-75" x="2595.710938"/>
     <use xlink:href="#DejaVuSans-74" x="2659.089844"/>
     <use xlink:href="#DejaVuSans-47" x="2698.298828"/>
     <use xlink:href="#DejaVuSans-72" x="2775.789062"/>
     <use xlink:href="#DejaVuSans-61" x="2816.902344"/>
     <use xlink:href="#DejaVuSans-70" x="2878.181641"/>
     <use xlink:href="#DejaVuSans-68" x="2941.658203"/>
     <use xlink:href="#DejaVuSans-5f" x="3005.037109"/>
     <use xlink:href="#DejaVuSans-54" x="3055.037109"/>
     <use xlink:href="#DejaVuSans-72" x="3101.371094"/>
     <use xlink:href="#DejaVuSans-61" x="3142.484375"/>
     <use xlink:href="#DejaVuSans-69" x="3203.763672"/>
     <use xlink:href="#DejaVuSans-6e" x="3231.546875"/>
     <use xlink:href="#DejaVuSans-69" x="3294.925781"/>
     <use xlink:href="#DejaVuSans-6e" x="3322.708984"/>
     <use xlink:href="#DejaVuSans-67" x="3386.087891"/>
     <use xlink:href="#DejaVuSans-20" x="3449.564453"/>
     <use xlink:href="#DejaVuSans-61" x="3481.351562"/>
     <use xlink:href="#DejaVuSans-6e" x="3542.630859"/>
     <use xlink:href="#DejaVuSans-64" x="3606.009766"/>
     <use xlink:href="#DejaVuSans-20" x="3669.486328"/>
     <use xlink:href="#DejaVuSans-56" x="3701.273438"/>
     <use xlink:href="#DejaVuSans-61" x="3761.931641"/>
     <use xlink:href="#DejaVuSans-6c" x="3823.210938"/>
     <use xlink:href="#DejaVuSans-69" x="3850.994141"/>
     <use xlink:href="#DejaVuSans-64" x="3878.777344"/>
     <use xlink:href="#DejaVuSans-61" x="3942.253906"/>
     <use xlink:href="#DejaVuSans-74" x="4003.533203"/>
     <use xlink:href="#DejaVuSans-69" x="4042.742188"/>
     <use xlink:href="#DejaVuSans-6f" x="4070.525391"/>
     <use xlink:href="#DejaVuSans-6e" x="4131.707031"/>
     <use xlink:href="#DejaVuSans-20" x="4195.085938"/>
     <use xlink:href="#DejaVuSans-6c" x="4226.873047"/>
     <use xlink:href="#DejaVuSans-6f" x="4254.65625"/>
     <use xlink:href="#DejaVuSans-73" x="4315.837891"/>
     <use xlink:href="#DejaVuSans-73" x="4367.9375"/>
    </g>
   </g>
   <g id="legend_1">
    <g id="patch_7">
     <path d="M 64.6 93.506375 
L 164.295312 93.506375 
Q 166.295312 93.506375 166.295312 91.506375 
L 166.295312 48.472 
Q 166.295312 46.472 164.295312 46.472 
L 64.6 46.472 
Q 62.6 46.472 62.6 48.472 
L 62.6 91.506375 
Q 62.6 93.506375 64.6 93.506375 
z
" style="fill: #ffffff; opacity: 0.8; stroke: #cccccc; stroke-linejoin: miter"/>
    </g>
    <g id="line2d_18">
     <path d="M 66.6 54.570438 
L 76.6 54.570438 
L 86.6 54.570438 
" style="fill: none; stroke: #0000ff; stroke-width: 1.5; stroke-linecap: square"/>
    </g>
    <g id="text_18">
     <!-- training set -->
     <g transform="translate(94.6 58.070438) scale(0.1 -0.1)">
      <use xlink:href="#DejaVuSans-74"/>
      <use xlink:href="#DejaVuSans-72" x="39.208984"/>
      <use xlink:href="#DejaVuSans-61" x="80.322266"/>
      <use xlink:href="#DejaVuSans-69" x="141.601562"/>
      <use xlink:href="#DejaVuSans-6e" x="169.384766"/>
      <use xlink:href="#DejaVuSans-69" x="232.763672"/>
      <use xlink:href="#DejaVuSans-6e" x="260.546875"/>
      <use xlink:href="#DejaVuSans-67" x="323.925781"/>
      <use xlink:href="#DejaVuSans-20" x="387.402344"/>
      <use xlink:href="#DejaVuSans-73" x="419.189453"/>
      <use xlink:href="#DejaVuSans-65" x="471.289062"/>
      <use xlink:href="#DejaVuSans-74" x="532.8125"/>
     </g>
    </g>
    <g id="line2d_19">
     <path d="M 66.6 69.248563 
L 76.6 69.248563 
L 86.6 69.248563 
" style="fill: none; stroke: #008000; stroke-width: 1.5; stroke-linecap: square"/>
    </g>
    <g id="text_19">
     <!-- validation set -->
     <g transform="translate(94.6 72.748563) scale(0.1 -0.1)">
      <defs>
       <path id="DejaVuSans-76" d="M 191 3500 
L 800 3500 
L 1894 563 
L 2988 3500 
L 3597 3500 
L 2284 0 
L 1503 0 
L 191 3500 
z
" transform="scale(0.015625)"/>
      </defs>
      <use xlink:href="#DejaVuSans-76"/>
      <use xlink:href="#DejaVuSans-61" x="59.179688"/>
      <use xlink:href="#DejaVuSans-6c" x="120.458984"/>
      <use xlink:href="#DejaVuSans-69" x="148.242188"/>
      <use xlink:href="#DejaVuSans-64" x="176.025391"/>
      <use xlink:href="#DejaVuSans-61" x="239.501953"/>
      <use xlink:href="#DejaVuSans-74" x="300.78125"/>
      <use xlink:href="#DejaVuSans-69" x="339.990234"/>
      <use xlink:href="#DejaVuSans-6f" x="367.773438"/>
      <use xlink:href="#DejaVuSans-6e" x="428.955078"/>
      <use xlink:href="#DejaVuSans-20" x="492.333984"/>
      <use xlink:href="#DejaVuSans-73" x="524.121094"/>
      <use xlink:href="#DejaVuSans-65" x="576.220703"/>
      <use xlink:href="#DejaVuSans-74" x="637.744141"/>
     </g>
    </g>
    <g id="line2d_20">
     <path d="M 66.6 83.926688 
L 76.6 83.926688 
L 86.6 83.926688 
" style="fill: none; stroke: #ff0000; stroke-width: 1.5; stroke-linecap: square"/>
    </g>
    <g id="text_20">
     <!-- test set -->
     <g transform="translate(94.6 87.426688) scale(0.1 -0.1)">
      <use xlink:href="#DejaVuSans-74"/>
      <use xlink:href="#DejaVuSans-65" x="39.208984"/>
      <use xlink:href="#DejaVuSans-73" x="100.732422"/>
      <use xlink:href="#DejaVuSans-74" x="152.832031"/>
      <use xlink:href="#DejaVuSans-20" x="192.041016"/>
      <use xlink:href="#DejaVuSans-73" x="223.828125"/>
      <use xlink:href="#DejaVuSans-65" x="275.927734"/>
      <use xlink:href="#DejaVuSans-74" x="337.451172"/>
     </g>
    </g>
   </g>
  </g>
 </g>
 <defs>
  <clipPath id="p0b17866405">
   <rect x="57.6" y="41.472" width="357.12" height="266.112"/>
  </clipPath>
 </defs>
</svg>
