<?xml version="1.0" encoding="utf-8" standalone="no"?>
<!DOCTYPE svg PUBLIC "-//W3C//DTD SVG 1.1//EN"
  "http://www.w3.org/Graphics/SVG/1.1/DTD/svg11.dtd">
<svg xmlns:xlink="http://www.w3.org/1999/xlink" width="460.8pt" height="345.6pt" viewBox="0 0 460.8 345.6" xmlns="http://www.w3.org/2000/svg" version="1.1">
 <metadata>
  <rdf:RDF xmlns:dc="http://purl.org/dc/elements/1.1/" xmlns:cc="http://creativecommons.org/ns#" xmlns:rdf="http://www.w3.org/1999/02/22-rdf-syntax-ns#">
   <cc:Work>
    <dc:type rdf:resource="http://purl.org/dc/dcmitype/StillImage"/>
    <dc:date>2023-04-09T03:59:52.772430</dc:date>
    <dc:format>image/svg+xml</dc:format>
    <dc:creator>
     <cc:Agent>
      <dc:title>Matplotlib v3.7.1, https://matplotlib.org/</dc:title>
     </cc:Agent>
    </dc:creator>
   </cc:Work>
  </rdf:RDF>
 </metadata>
 <defs>
  <style type="text/css">*{stroke-linejoin: round; stroke-linecap: butt}</style>
 </defs>
 <g id="figure_1">
  <g id="patch_1">
   <path d="M 0 345.6 
L 460.8 345.6 
L 460.8 0 
L 0 0 
z
" style="fill: #ffffff"/>
  </g>
  <g id="axes_1">
   <g id="patch_2">
    <path d="M 57.6 307.584 
L 414.72 307.584 
L 414.72 41.472 
L 57.6 41.472 
z
" style="fill: #ffffff"/>
   </g>
   <g id="matplotlib.axis_1">
    <g id="xtick_1">
     <g id="line2d_1">
      <defs>
       <path id="mb732c9d1a5" d="M 0 0 
L 0 3.5 
" style="stroke: #000000; stroke-width: 0.8"/>
      </defs>
      <g>
       <use xlink:href="#mb732c9d1a5" x="73.507748" y="307.584" style="stroke: #000000; stroke-width: 0.8"/>
      </g>
     </g>
     <g id="text_1">
      <!-- 0 -->
      <g transform="translate(70.326498 322.182437) scale(0.1 -0.1)">
       <defs>
        <path id="DejaVuSans-30" d="M 2034 4250 
Q 1547 4250 1301 3770 
Q 1056 3291 1056 2328 
Q 1056 1369 1301 889 
Q 1547 409 2034 409 
Q 2525 409 2770 889 
Q 3016 1369 3016 2328 
Q 3016 3291 2770 3770 
Q 2525 4250 2034 4250 
z
M 2034 4750 
Q 2819 4750 3233 4129 
Q 3647 3509 3647 2328 
Q 3647 1150 3233 529 
Q 2819 -91 2034 -91 
Q 1250 -91 836 529 
Q 422 1150 422 2328 
Q 422 3509 836 4129 
Q 1250 4750 2034 4750 
z
" transform="scale(0.015625)"/>
       </defs>
       <use xlink:href="#DejaVuSans-30"/>
      </g>
     </g>
    </g>
    <g id="xtick_2">
     <g id="line2d_2">
      <g>
       <use xlink:href="#mb732c9d1a5" x="138.503653" y="307.584" style="stroke: #000000; stroke-width: 0.8"/>
      </g>
     </g>
     <g id="text_2">
      <!-- 200 -->
      <g transform="translate(128.959903 322.182437) scale(0.1 -0.1)">
       <defs>
        <path id="DejaVuSans-32" d="M 1228 531 
L 3431 531 
L 3431 0 
L 469 0 
L 469 531 
Q 828 903 1448 1529 
Q 2069 2156 2228 2338 
Q 2531 2678 2651 2914 
Q 2772 3150 2772 3378 
Q 2772 3750 2511 3984 
Q 2250 4219 1831 4219 
Q 1534 4219 1204 4116 
Q 875 4013 500 3803 
L 500 4441 
Q 881 4594 1212 4672 
Q 1544 4750 1819 4750 
Q 2544 4750 2975 4387 
Q 3406 4025 3406 3419 
Q 3406 3131 3298 2873 
Q 3191 2616 2906 2266 
Q 2828 2175 2409 1742 
Q 1991 1309 1228 531 
z
" transform="scale(0.015625)"/>
       </defs>
       <use xlink:href="#DejaVuSans-32"/>
       <use xlink:href="#DejaVuSans-30" x="63.623047"/>
       <use xlink:href="#DejaVuSans-30" x="127.246094"/>
      </g>
     </g>
    </g>
    <g id="xtick_3">
     <g id="line2d_3">
      <g>
       <use xlink:href="#mb732c9d1a5" x="203.499558" y="307.584" style="stroke: #000000; stroke-width: 0.8"/>
      </g>
     </g>
     <g id="text_3">
      <!-- 400 -->
      <g transform="translate(193.955808 322.182437) scale(0.1 -0.1)">
       <defs>
        <path id="DejaVuSans-34" d="M 2419 4116 
L 825 1625 
L 2419 1625 
L 2419 4116 
z
M 2253 4666 
L 3047 4666 
L 3047 1625 
L 3713 1625 
L 3713 1100 
L 3047 1100 
L 3047 0 
L 2419 0 
L 2419 1100 
L 313 1100 
L 313 1709 
L 2253 4666 
z
" transform="scale(0.015625)"/>
       </defs>
       <use xlink:href="#DejaVuSans-34"/>
       <use xlink:href="#DejaVuSans-30" x="63.623047"/>
       <use xlink:href="#DejaVuSans-30" x="127.246094"/>
      </g>
     </g>
    </g>
    <g id="xtick_4">
     <g id="line2d_4">
      <g>
       <use xlink:href="#mb732c9d1a5" x="268.495463" y="307.584" style="stroke: #000000; stroke-width: 0.8"/>
      </g>
     </g>
     <g id="text_4">
      <!-- 600 -->
      <g transform="translate(258.951713 322.182437) scale(0.1 -0.1)">
       <defs>
        <path id="DejaVuSans-36" d="M 2113 2584 
Q 1688 2584 1439 2293 
Q 1191 2003 1191 1497 
Q 1191 994 1439 701 
Q 1688 409 2113 409 
Q 2538 409 2786 701 
Q 3034 994 3034 1497 
Q 3034 2003 2786 2293 
Q 2538 2584 2113 2584 
z
M 3366 4563 
L 3366 3988 
Q 3128 4100 2886 4159 
Q 2644 4219 2406 4219 
Q 1781 4219 1451 3797 
Q 1122 3375 1075 2522 
Q 1259 2794 1537 2939 
Q 1816 3084 2150 3084 
Q 2853 3084 3261 2657 
Q 3669 2231 3669 1497 
Q 3669 778 3244 343 
Q 2819 -91 2113 -91 
Q 1303 -91 875 529 
Q 447 1150 447 2328 
Q 447 3434 972 4092 
Q 1497 4750 2381 4750 
Q 2619 4750 2861 4703 
Q 3103 4656 3366 4563 
z
" transform="scale(0.015625)"/>
       </defs>
       <use xlink:href="#DejaVuSans-36"/>
       <use xlink:href="#DejaVuSans-30" x="63.623047"/>
       <use xlink:href="#DejaVuSans-30" x="127.246094"/>
      </g>
     </g>
    </g>
    <g id="xtick_5">
     <g id="line2d_5">
      <g>
       <use xlink:href="#mb732c9d1a5" x="333.491368" y="307.584" style="stroke: #000000; stroke-width: 0.8"/>
      </g>
     </g>
     <g id="text_5">
      <!-- 800 -->
      <g transform="translate(323.947618 322.182437) scale(0.1 -0.1)">
       <defs>
        <path id="DejaVuSans-38" d="M 2034 2216 
Q 1584 2216 1326 1975 
Q 1069 1734 1069 1313 
Q 1069 891 1326 650 
Q 1584 409 2034 409 
Q 2484 409 2743 651 
Q 3003 894 3003 1313 
Q 3003 1734 2745 1975 
Q 2488 2216 2034 2216 
z
M 1403 2484 
Q 997 2584 770 2862 
Q 544 3141 544 3541 
Q 544 4100 942 4425 
Q 1341 4750 2034 4750 
Q 2731 4750 3128 4425 
Q 3525 4100 3525 3541 
Q 3525 3141 3298 2862 
Q 3072 2584 2669 2484 
Q 3125 2378 3379 2068 
Q 3634 1759 3634 1313 
Q 3634 634 3220 271 
Q 2806 -91 2034 -91 
Q 1263 -91 848 271 
Q 434 634 434 1313 
Q 434 1759 690 2068 
Q 947 2378 1403 2484 
z
M 1172 3481 
Q 1172 3119 1398 2916 
Q 1625 2713 2034 2713 
Q 2441 2713 2670 2916 
Q 2900 3119 2900 3481 
Q 2900 3844 2670 4047 
Q 2441 4250 2034 4250 
Q 1625 4250 1398 4047 
Q 1172 3844 1172 3481 
z
" transform="scale(0.015625)"/>
       </defs>
       <use xlink:href="#DejaVuSans-38"/>
       <use xlink:href="#DejaVuSans-30" x="63.623047"/>
       <use xlink:href="#DejaVuSans-30" x="127.246094"/>
      </g>
     </g>
    </g>
    <g id="xtick_6">
     <g id="line2d_6">
      <g>
       <use xlink:href="#mb732c9d1a5" x="398.487273" y="307.584" style="stroke: #000000; stroke-width: 0.8"/>
      </g>
     </g>
     <g id="text_6">
      <!-- 1000 -->
      <g transform="translate(385.762273 322.182437) scale(0.1 -0.1)">
       <defs>
        <path id="DejaVuSans-31" d="M 794 531 
L 1825 531 
L 1825 4091 
L 703 3866 
L 703 4441 
L 1819 4666 
L 2450 4666 
L 2450 531 
L 3481 531 
L 3481 0 
L 794 0 
L 794 531 
z
" transform="scale(0.015625)"/>
       </defs>
       <use xlink:href="#DejaVuSans-31"/>
       <use xlink:href="#DejaVuSans-30" x="63.623047"/>
       <use xlink:href="#DejaVuSans-30" x="127.246094"/>
       <use xlink:href="#DejaVuSans-30" x="190.869141"/>
      </g>
     </g>
    </g>
    <g id="text_7">
     <!-- epoch -->
     <g transform="translate(220.931875 335.860562) scale(0.1 -0.1)">
      <defs>
       <path id="DejaVuSans-65" d="M 3597 1894 
L 3597 1613 
L 953 1613 
Q 991 1019 1311 708 
Q 1631 397 2203 397 
Q 2534 397 2845 478 
Q 3156 559 3463 722 
L 3463 178 
Q 3153 47 2828 -22 
Q 2503 -91 2169 -91 
Q 1331 -91 842 396 
Q 353 884 353 1716 
Q 353 2575 817 3079 
Q 1281 3584 2069 3584 
Q 2775 3584 3186 3129 
Q 3597 2675 3597 1894 
z
M 3022 2063 
Q 3016 2534 2758 2815 
Q 2500 3097 2075 3097 
Q 1594 3097 1305 2825 
Q 1016 2553 972 2059 
L 3022 2063 
z
" transform="scale(0.015625)"/>
       <path id="DejaVuSans-70" d="M 1159 525 
L 1159 -1331 
L 581 -1331 
L 581 3500 
L 1159 3500 
L 1159 2969 
Q 1341 3281 1617 3432 
Q 1894 3584 2278 3584 
Q 2916 3584 3314 3078 
Q 3713 2572 3713 1747 
Q 3713 922 3314 415 
Q 2916 -91 2278 -91 
Q 1894 -91 1617 61 
Q 1341 213 1159 525 
z
M 3116 1747 
Q 3116 2381 2855 2742 
Q 2594 3103 2138 3103 
Q 1681 3103 1420 2742 
Q 1159 2381 1159 1747 
Q 1159 1113 1420 752 
Q 1681 391 2138 391 
Q 2594 391 2855 752 
Q 3116 1113 3116 1747 
z
" transform="scale(0.015625)"/>
       <path id="DejaVuSans-6f" d="M 1959 3097 
Q 1497 3097 1228 2736 
Q 959 2375 959 1747 
Q 959 1119 1226 758 
Q 1494 397 1959 397 
Q 2419 397 2687 759 
Q 2956 1122 2956 1747 
Q 2956 2369 2687 2733 
Q 2419 3097 1959 3097 
z
M 1959 3584 
Q 2709 3584 3137 3096 
Q 3566 2609 3566 1747 
Q 3566 888 3137 398 
Q 2709 -91 1959 -91 
Q 1206 -91 779 398 
Q 353 888 353 1747 
Q 353 2609 779 3096 
Q 1206 3584 1959 3584 
z
" transform="scale(0.015625)"/>
       <path id="DejaVuSans-63" d="M 3122 3366 
L 3122 2828 
Q 2878 2963 2633 3030 
Q 2388 3097 2138 3097 
Q 1578 3097 1268 2742 
Q 959 2388 959 1747 
Q 959 1106 1268 751 
Q 1578 397 2138 397 
Q 2388 397 2633 464 
Q 2878 531 3122 666 
L 3122 134 
Q 2881 22 2623 -34 
Q 2366 -91 2075 -91 
Q 1284 -91 818 406 
Q 353 903 353 1747 
Q 353 2603 823 3093 
Q 1294 3584 2113 3584 
Q 2378 3584 2631 3529 
Q 2884 3475 3122 3366 
z
" transform="scale(0.015625)"/>
       <path id="DejaVuSans-68" d="M 3513 2113 
L 3513 0 
L 2938 0 
L 2938 2094 
Q 2938 2591 2744 2837 
Q 2550 3084 2163 3084 
Q 1697 3084 1428 2787 
Q 1159 2491 1159 1978 
L 1159 0 
L 581 0 
L 581 4863 
L 1159 4863 
L 1159 2956 
Q 1366 3272 1645 3428 
Q 1925 3584 2291 3584 
Q 2894 3584 3203 3211 
Q 3513 2838 3513 2113 
z
" transform="scale(0.015625)"/>
      </defs>
      <use xlink:href="#DejaVuSans-65"/>
      <use xlink:href="#DejaVuSans-70" x="61.523438"/>
      <use xlink:href="#DejaVuSans-6f" x="125"/>
      <use xlink:href="#DejaVuSans-63" x="186.181641"/>
      <use xlink:href="#DejaVuSans-68" x="241.162109"/>
     </g>
    </g>
   </g>
   <g id="matplotlib.axis_2">
    <g id="ytick_1">
     <g id="line2d_7">
      <defs>
       <path id="m5230238b11" d="M 0 0 
L -3.5 0 
" style="stroke: #000000; stroke-width: 0.8"/>
      </defs>
      <g>
       <use xlink:href="#m5230238b11" x="57.6" y="300.73999" style="stroke: #000000; stroke-width: 0.8"/>
      </g>
     </g>
     <g id="text_8">
      <!-- 0.0 -->
      <g transform="translate(34.696875 304.539208) scale(0.1 -0.1)">
       <defs>
        <path id="DejaVuSans-2e" d="M 684 794 
L 1344 794 
L 1344 0 
L 684 0 
L 684 794 
z
" transform="scale(0.015625)"/>
       </defs>
       <use xlink:href="#DejaVuSans-30"/>
       <use xlink:href="#DejaVuSans-2e" x="63.623047"/>
       <use xlink:href="#DejaVuSans-30" x="95.410156"/>
      </g>
     </g>
    </g>
    <g id="ytick_2">
     <g id="line2d_8">
      <g>
       <use xlink:href="#m5230238b11" x="57.6" y="247.59473" style="stroke: #000000; stroke-width: 0.8"/>
      </g>
     </g>
     <g id="text_9">
      <!-- 0.5 -->
      <g transform="translate(34.696875 251.393949) scale(0.1 -0.1)">
       <defs>
        <path id="DejaVuSans-35" d="M 691 4666 
L 3169 4666 
L 3169 4134 
L 1269 4134 
L 1269 2991 
Q 1406 3038 1543 3061 
Q 1681 3084 1819 3084 
Q 2600 3084 3056 2656 
Q 3513 2228 3513 1497 
Q 3513 744 3044 326 
Q 2575 -91 1722 -91 
Q 1428 -91 1123 -41 
Q 819 9 494 109 
L 494 744 
Q 775 591 1075 516 
Q 1375 441 1709 441 
Q 2250 441 2565 725 
Q 2881 1009 2881 1497 
Q 2881 1984 2565 2268 
Q 2250 2553 1709 2553 
Q 1456 2553 1204 2497 
Q 953 2441 691 2322 
L 691 4666 
z
" transform="scale(0.015625)"/>
       </defs>
       <use xlink:href="#DejaVuSans-30"/>
       <use xlink:href="#DejaVuSans-2e" x="63.623047"/>
       <use xlink:href="#DejaVuSans-35" x="95.410156"/>
      </g>
     </g>
    </g>
    <g id="ytick_3">
     <g id="line2d_9">
      <g>
       <use xlink:href="#m5230238b11" x="57.6" y="194.44947" style="stroke: #000000; stroke-width: 0.8"/>
      </g>
     </g>
     <g id="text_10">
      <!-- 1.0 -->
      <g transform="translate(34.696875 198.248689) scale(0.1 -0.1)">
       <use xlink:href="#DejaVuSans-31"/>
       <use xlink:href="#DejaVuSans-2e" x="63.623047"/>
       <use xlink:href="#DejaVuSans-30" x="95.410156"/>
      </g>
     </g>
    </g>
    <g id="ytick_4">
     <g id="line2d_10">
      <g>
       <use xlink:href="#m5230238b11" x="57.6" y="141.304211" style="stroke: #000000; stroke-width: 0.8"/>
      </g>
     </g>
     <g id="text_11">
      <!-- 1.5 -->
      <g transform="translate(34.696875 145.103429) scale(0.1 -0.1)">
       <use xlink:href="#DejaVuSans-31"/>
       <use xlink:href="#DejaVuSans-2e" x="63.623047"/>
       <use xlink:href="#DejaVuSans-35" x="95.410156"/>
      </g>
     </g>
    </g>
    <g id="ytick_5">
     <g id="line2d_11">
      <g>
       <use xlink:href="#m5230238b11" x="57.6" y="88.158951" style="stroke: #000000; stroke-width: 0.8"/>
      </g>
     </g>
     <g id="text_12">
      <!-- 2.0 -->
      <g transform="translate(34.696875 91.95817) scale(0.1 -0.1)">
       <use xlink:href="#DejaVuSans-32"/>
       <use xlink:href="#DejaVuSans-2e" x="63.623047"/>
       <use xlink:href="#DejaVuSans-30" x="95.410156"/>
      </g>
     </g>
    </g>
    <g id="text_13">
     <!-- loss -->
     <g transform="translate(28.617188 184.185812) rotate(-90) scale(0.1 -0.1)">
      <defs>
       <path id="DejaVuSans-6c" d="M 603 4863 
L 1178 4863 
L 1178 0 
L 603 0 
L 603 4863 
z
" transform="scale(0.015625)"/>
       <path id="DejaVuSans-73" d="M 2834 3397 
L 2834 2853 
Q 2591 2978 2328 3040 
Q 2066 3103 1784 3103 
Q 1356 3103 1142 2972 
Q 928 2841 928 2578 
Q 928 2378 1081 2264 
Q 1234 2150 1697 2047 
L 1894 2003 
Q 2506 1872 2764 1633 
Q 3022 1394 3022 966 
Q 3022 478 2636 193 
Q 2250 -91 1575 -91 
Q 1294 -91 989 -36 
Q 684 19 347 128 
L 347 722 
Q 666 556 975 473 
Q 1284 391 1588 391 
Q 1994 391 2212 530 
Q 2431 669 2431 922 
Q 2431 1156 2273 1281 
Q 2116 1406 1581 1522 
L 1381 1569 
Q 847 1681 609 1914 
Q 372 2147 372 2553 
Q 372 3047 722 3315 
Q 1072 3584 1716 3584 
Q 2034 3584 2315 3537 
Q 2597 3491 2834 3397 
z
" transform="scale(0.015625)"/>
      </defs>
      <use xlink:href="#DejaVuSans-6c"/>
      <use xlink:href="#DejaVuSans-6f" x="27.783203"/>
      <use xlink:href="#DejaVuSans-73" x="88.964844"/>
      <use xlink:href="#DejaVuSans-73" x="141.064453"/>
     </g>
    </g>
   </g>
   <g id="line2d_12">
    <path d="M 73.832727 53.730567 
L 74.157707 85.270917 
L 74.807666 107.468516 
L 76.432563 161.276929 
L 76.757543 171.049677 
L 78.057461 195.243474 
L 79.682359 210.555619 
L 80.007338 215.30103 
L 80.332318 218.089382 
L 80.982277 221.468138 
L 81.307256 223.39051 
L 81.957215 225.179098 
L 82.282195 227.360778 
L 82.607174 227.27404 
L 82.932154 231.032464 
L 83.257133 230.934081 
L 83.582113 233.984973 
L 83.907093 233.851689 
L 84.232072 231.473643 
L 84.557052 236.760522 
L 84.882031 234.696319 
L 85.207011 236.966157 
L 85.53199 236.279595 
L 85.85697 239.55789 
L 86.181949 238.881858 
L 86.506929 240.425867 
L 87.156888 239.850193 
L 87.481867 244.406999 
L 88.131826 242.222506 
L 88.456806 243.698827 
L 88.781785 246.415343 
L 89.106765 245.136237 
L 89.431744 244.595814 
L 89.756724 244.694792 
L 90.081704 245.501638 
L 90.406683 247.975726 
L 90.731663 247.253575 
L 91.056642 246.239345 
L 91.381622 248.145511 
L 91.706601 248.848644 
L 92.031581 247.558466 
L 92.35656 247.733412 
L 92.68154 246.32144 
L 93.006519 249.316108 
L 93.331499 248.457752 
L 94.306437 249.551149 
L 94.631417 250.943583 
L 94.956396 248.561193 
L 95.281376 252.38485 
L 95.606355 252.058291 
L 95.931335 251.436439 
L 96.256314 253.307225 
L 96.581294 251.825218 
L 96.906274 249.772574 
L 97.231253 253.339653 
L 97.556233 254.128298 
L 97.881212 254.2622 
L 98.206192 253.659636 
L 98.531171 253.348757 
L 98.856151 253.210747 
L 99.18113 253.973457 
L 99.50611 253.333688 
L 99.831089 255.471132 
L 100.156069 253.54041 
L 100.481048 254.22146 
L 100.806028 254.506566 
L 101.455987 255.76685 
L 101.780966 255.865162 
L 102.105946 255.590437 
L 102.430925 257.475823 
L 102.755905 256.323105 
L 103.080885 258.246753 
L 103.405864 256.51808 
L 103.730844 257.628291 
L 104.055823 257.495555 
L 104.380803 256.997357 
L 104.705782 257.895075 
L 105.030762 257.267372 
L 105.355741 258.829171 
L 105.680721 257.560768 
L 106.0057 256.901148 
L 106.33068 258.237181 
L 106.655659 257.983973 
L 106.980639 258.749288 
L 107.305618 258.989165 
L 107.630598 260.578814 
L 107.955577 259.325195 
L 108.280557 260.759734 
L 108.605536 259.376851 
L 108.930516 260.282171 
L 109.580475 261.405249 
L 109.905455 260.16553 
L 110.555414 258.845168 
L 110.880393 262.3281 
L 111.205373 259.589695 
L 111.855332 261.832367 
L 112.180311 261.497575 
L 112.83027 259.932368 
L 113.15525 260.222349 
L 113.480229 262.543006 
L 113.805209 263.106902 
L 114.130188 261.809375 
L 114.455168 262.923131 
L 114.780147 262.008909 
L 115.430106 263.399668 
L 115.755086 264.398815 
L 116.080066 263.450234 
L 116.405045 263.327786 
L 116.730025 263.866768 
L 117.055004 263.349805 
L 117.379984 263.180431 
L 117.704963 262.32013 
L 118.029943 264.115173 
L 118.354922 263.856381 
L 118.679902 262.7704 
L 119.004881 264.818067 
L 119.329861 263.381282 
L 119.65484 263.59496 
L 119.97982 264.78564 
L 120.629779 264.341198 
L 120.954758 265.516553 
L 121.279738 265.888701 
L 121.929697 266.37628 
L 122.254676 267.355266 
L 122.579656 265.469525 
L 122.904636 265.281091 
L 123.229615 265.368925 
L 123.554595 266.720648 
L 123.879574 265.119829 
L 124.204554 267.05599 
L 124.529533 263.592346 
L 124.854513 266.753332 
L 125.829451 266.04421 
L 126.154431 266.451063 
L 126.47941 268.311599 
L 126.80439 267.803759 
L 127.129369 266.766795 
L 127.454349 267.328901 
L 127.779328 267.484948 
L 128.104308 267.331017 
L 128.429287 267.837574 
L 128.754267 268.119538 
L 129.079247 269.328159 
L 129.404226 269.292697 
L 129.729206 266.863948 
L 130.054185 267.06728 
L 130.379165 266.876153 
L 131.029124 268.645855 
L 131.354103 267.432035 
L 131.679083 269.237395 
L 132.004062 268.335927 
L 132.654021 268.491901 
L 132.979001 269.89598 
L 133.30398 269.183215 
L 133.62896 269.453404 
L 133.953939 268.871208 
L 134.278919 271.363669 
L 134.603898 270.188641 
L 134.928878 270.10354 
L 135.253857 270.483016 
L 135.578837 269.298573 
L 135.903817 271.05452 
L 136.228796 270.505795 
L 136.553776 270.923656 
L 136.878755 270.535875 
L 137.203735 270.830836 
L 137.528714 271.322533 
L 137.853694 271.325207 
L 138.178673 272.114162 
L 138.503653 270.50352 
L 138.828632 270.471539 
L 139.153612 270.861224 
L 139.478591 270.995043 
L 139.803571 272.118115 
L 140.12855 271.754469 
L 140.45353 272.818783 
L 140.778509 271.800448 
L 141.103489 271.390949 
L 141.428468 271.891672 
L 141.753448 273.390886 
L 142.078428 272.233084 
L 142.403407 273.330646 
L 142.728387 272.909002 
L 143.053366 273.077451 
L 143.378346 272.211705 
L 143.703325 270.976167 
L 144.678264 274.33629 
L 145.003243 274.009735 
L 145.328223 271.595114 
L 145.653202 272.697064 
L 145.978182 273.184206 
L 146.303161 272.331621 
L 146.95312 271.908631 
L 147.603079 274.171791 
L 147.928059 274.825186 
L 148.253038 273.974538 
L 148.578018 273.507144 
L 148.902998 272.633903 
L 149.227977 275.135125 
L 149.552957 274.507503 
L 149.877936 275.395938 
L 150.527895 272.968621 
L 150.852875 272.723875 
L 151.177854 275.777696 
L 151.502834 272.365402 
L 151.827813 274.802325 
L 152.477772 273.387442 
L 152.802752 274.531684 
L 153.127731 274.736831 
L 153.452711 275.827467 
L 153.77769 273.621286 
L 154.10267 274.92173 
L 154.427649 273.750598 
L 154.752629 275.01288 
L 155.077609 275.210621 
L 155.402588 274.702471 
L 155.727568 275.499758 
L 156.052547 275.237342 
L 156.377527 276.18262 
L 156.702506 276.284425 
L 157.027486 275.242086 
L 157.352465 276.791234 
L 157.677445 277.452855 
L 158.002424 274.402975 
L 158.652383 277.100123 
L 158.977363 277.0854 
L 159.627322 275.332579 
L 160.277281 277.205933 
L 160.60226 275.995027 
L 161.252219 276.173022 
L 161.577199 276.660102 
L 161.902179 276.442251 
L 162.227158 278.44273 
L 162.552138 278.111149 
L 162.877117 276.324197 
L 163.202097 278.010789 
L 163.527076 277.755799 
L 163.852056 277.288177 
L 164.177035 276.472775 
L 164.502015 277.115237 
L 164.826994 278.052323 
L 165.151974 277.215504 
L 165.476953 277.43457 
L 165.801933 278.439896 
L 166.126912 277.722835 
L 166.451892 278.70981 
L 167.101851 277.86469 
L 167.42683 278.55779 
L 167.75181 278.373005 
L 168.07679 278.727237 
L 168.401769 278.321584 
L 169.051728 279.031604 
L 169.376708 278.206213 
L 169.701687 278.550875 
L 170.026667 277.992192 
L 170.351646 278.539457 
L 170.676626 279.883435 
L 171.001605 279.431049 
L 171.326585 280.001969 
L 171.651564 280.101219 
L 171.976544 279.61023 
L 172.301523 276.906292 
L 172.626503 279.651187 
L 172.951482 279.122066 
L 173.276462 279.084049 
L 173.601441 280.293125 
L 173.926421 280.67854 
L 174.2514 279.188423 
L 174.90136 279.95082 
L 175.226339 280.453503 
L 175.551319 280.014331 
L 175.876298 279.891147 
L 176.201278 280.24333 
L 176.526257 280.087905 
L 176.851237 279.45943 
L 177.176216 279.77263 
L 177.501196 281.677858 
L 177.826175 281.073012 
L 178.151155 279.826894 
L 178.476134 279.505387 
L 178.801114 281.372965 
L 179.126093 280.916612 
L 179.451073 280.997155 
L 179.776052 280.962434 
L 180.101032 280.232513 
L 180.426011 280.966175 
L 180.750991 281.081459 
L 181.075971 280.197669 
L 181.40095 281.385559 
L 181.72593 281.641769 
L 182.050909 280.171588 
L 182.375889 281.981228 
L 182.700868 279.991373 
L 183.025848 279.842616 
L 183.350827 282.459439 
L 183.675807 280.657493 
L 184.000786 279.932617 
L 184.325766 281.567128 
L 184.650745 281.938233 
L 185.300704 282.048046 
L 185.625684 283.011988 
L 185.950663 280.782578 
L 186.600622 281.9473 
L 186.925602 283.052972 
L 187.250581 281.578545 
L 187.575561 282.23268 
L 187.900541 283.407256 
L 188.22552 281.864099 
L 188.5505 281.832327 
L 188.875479 280.899726 
L 189.200459 282.736076 
L 189.525438 282.376271 
L 189.850418 281.042868 
L 190.175397 281.910992 
L 190.500377 281.317637 
L 190.825356 283.267104 
L 191.150336 282.492451 
L 191.475315 283.012124 
L 191.800295 284.124303 
L 192.125274 282.276574 
L 192.450254 281.872324 
L 192.775233 281.939878 
L 193.100213 283.100682 
L 193.425192 281.524361 
L 193.750172 281.758716 
L 194.075152 282.699874 
L 194.400131 281.964833 
L 194.725111 283.447522 
L 195.05009 282.266633 
L 195.37507 283.402097 
L 195.700049 283.557356 
L 196.025029 280.746395 
L 196.350008 283.374197 
L 196.674988 282.00335 
L 196.999967 283.099833 
L 197.324947 283.460513 
L 197.649926 281.692637 
L 198.299885 284.049153 
L 198.624865 281.641023 
L 198.949844 284.136814 
L 199.274824 283.741477 
L 199.599803 280.72396 
L 199.924783 284.127037 
L 200.249762 283.587761 
L 200.574742 284.207902 
L 201.224701 281.850185 
L 201.549681 283.689237 
L 201.87466 283.883048 
L 202.19964 281.8571 
L 202.849599 283.888444 
L 203.174578 283.53024 
L 203.499558 284.339552 
L 203.824537 284.290513 
L 204.149517 285.328761 
L 204.474496 284.965643 
L 204.799476 284.201781 
L 205.124455 284.458438 
L 205.449435 285.438031 
L 205.774414 285.135417 
L 206.099394 285.909156 
L 206.424373 284.216583 
L 206.749353 283.737113 
L 207.074333 285.249027 
L 207.399312 283.71704 
L 207.724292 284.942336 
L 208.049271 285.668035 
L 208.374251 284.751259 
L 208.69923 283.337812 
L 209.02421 284.174738 
L 209.349189 283.804834 
L 209.674169 283.901543 
L 209.999148 285.300353 
L 210.324128 284.460498 
L 210.649107 285.528073 
L 210.974087 285.089677 
L 211.299066 284.86118 
L 211.624046 286.226676 
L 211.949025 285.237202 
L 212.274005 284.985488 
L 212.598984 285.775232 
L 213.248943 284.703401 
L 213.573923 286.065565 
L 213.898903 284.412308 
L 214.223882 286.508885 
L 214.548862 286.408955 
L 214.873841 285.874763 
L 215.198821 284.371649 
L 215.84878 286.588774 
L 216.173759 286.06631 
L 216.498739 285.05433 
L 216.823718 286.133469 
L 217.473677 285.222377 
L 217.798657 286.187138 
L 218.123636 286.012581 
L 218.448616 285.671211 
L 218.773595 287.169039 
L 219.098575 286.482769 
L 219.423554 284.833857 
L 219.748534 286.632829 
L 220.073514 285.869384 
L 220.398493 286.15644 
L 220.723473 285.950531 
L 221.048452 288.216175 
L 221.373432 285.944745 
L 221.698411 285.577662 
L 222.023391 286.509322 
L 222.34837 287.095086 
L 222.67335 286.056386 
L 222.998329 285.903779 
L 223.323309 286.47862 
L 223.648288 285.570932 
L 223.973268 287.547421 
L 224.298247 286.673219 
L 224.623227 287.125101 
L 224.948206 287.969276 
L 225.598165 285.836785 
L 225.923145 285.522506 
L 226.248124 286.970126 
L 226.573104 286.788645 
L 227.223063 287.983803 
L 227.548043 286.980738 
L 227.873022 287.193505 
L 228.198002 288.249758 
L 228.847961 286.733226 
L 229.17294 286.564963 
L 229.49792 286.872418 
L 229.822899 288.607806 
L 230.147879 286.034998 
L 230.472858 286.244807 
L 230.797838 287.274045 
L 231.122817 287.126522 
L 231.447797 287.195526 
L 231.772776 287.722218 
L 232.097756 286.08075 
L 232.747715 287.379476 
L 233.072695 286.921909 
L 233.397674 287.367651 
L 233.722654 286.80417 
L 234.047633 288.447722 
L 234.372613 287.436827 
L 235.022572 288.195357 
L 235.347551 286.073303 
L 235.672531 286.784133 
L 235.99751 288.790798 
L 236.32249 287.82367 
L 236.647469 288.137865 
L 236.972449 287.371737 
L 237.297428 288.079746 
L 237.622408 286.225819 
L 237.947387 288.820595 
L 238.272367 287.267149 
L 238.597346 286.809658 
L 238.922326 288.007716 
L 239.247305 286.92065 
L 239.572285 286.667018 
L 239.897265 287.580548 
L 240.222244 286.142972 
L 240.547224 287.384616 
L 240.872203 286.982431 
L 241.197183 288.748772 
L 241.522162 288.977536 
L 241.847142 289.039616 
L 242.172121 287.967715 
L 242.497101 289.762338 
L 242.82208 289.428528 
L 243.14706 287.72643 
L 243.472039 288.282025 
L 243.797019 288.230351 
L 244.121998 287.630577 
L 244.446978 288.208388 
L 244.771957 287.675702 
L 245.096937 288.846795 
L 245.421916 288.504007 
L 245.746896 289.17757 
L 246.396855 286.718956 
L 246.721835 289.291593 
L 247.046814 288.307746 
L 247.371794 288.646441 
L 247.696773 289.742848 
L 248.346732 287.927436 
L 248.671712 290.164928 
L 248.996691 287.488811 
L 249.321671 288.592863 
L 249.64665 288.866083 
L 249.97163 288.765138 
L 250.296609 289.870992 
L 250.621589 288.453637 
L 250.946568 288.355031 
L 251.271548 289.058245 
L 251.596527 287.04803 
L 251.921507 289.801281 
L 252.246486 289.228415 
L 252.571466 287.907676 
L 252.896446 288.438166 
L 253.221425 289.420672 
L 253.546405 288.059375 
L 253.871384 287.740692 
L 254.196364 288.502329 
L 254.846323 285.97143 
L 255.821261 290.378475 
L 256.146241 287.969578 
L 256.47122 288.501684 
L 256.7962 287.683952 
L 257.121179 286.505867 
L 257.446159 291.148766 
L 257.771138 289.66506 
L 258.096118 287.220106 
L 258.421097 287.792968 
L 258.746077 288.676788 
L 259.071057 289.076233 
L 259.396036 289.137381 
L 260.045995 287.76055 
L 260.370975 288.916949 
L 260.695954 287.753545 
L 261.020934 289.468282 
L 261.345913 288.517642 
L 261.670893 290.004359 
L 262.320852 288.93109 
L 262.645831 289.31586 
L 262.970811 288.128142 
L 263.29579 288.632507 
L 263.62077 290.757948 
L 263.945749 289.147251 
L 264.270729 288.799572 
L 264.595708 289.702661 
L 264.920688 288.64268 
L 265.245667 288.468489 
L 265.570647 289.327822 
L 265.895627 289.103171 
L 266.220606 289.379231 
L 266.545586 287.669011 
L 266.870565 289.914404 
L 267.195545 288.832018 
L 267.520524 289.168547 
L 267.845504 290.957293 
L 268.170483 287.700562 
L 268.495463 289.892171 
L 268.820442 288.633405 
L 269.145422 288.652818 
L 269.470401 289.845719 
L 269.795381 289.175788 
L 270.12036 288.046652 
L 270.44534 289.338091 
L 270.770319 288.093256 
L 271.095299 289.811764 
L 271.420278 290.46811 
L 271.745258 289.887016 
L 272.070238 288.498894 
L 272.395217 290.778319 
L 272.720197 289.657661 
L 273.370156 289.433826 
L 273.695135 289.791568 
L 274.020115 289.33572 
L 274.345094 290.050227 
L 274.670074 289.881831 
L 274.995053 289.516424 
L 275.320033 290.236136 
L 275.645012 289.613868 
L 275.969992 289.959267 
L 276.294971 290.719335 
L 276.619951 290.185761 
L 276.94493 288.831551 
L 277.26991 290.589446 
L 277.594889 290.185581 
L 277.919869 289.427043 
L 278.244848 291.311585 
L 278.569828 289.670629 
L 278.894808 290.018525 
L 279.219787 288.870487 
L 279.544767 288.778459 
L 279.869746 290.17353 
L 280.194726 289.426657 
L 280.844685 290.214525 
L 281.169664 290.776375 
L 281.494644 290.602513 
L 281.819623 290.634565 
L 282.144603 288.717711 
L 282.794562 290.477587 
L 283.119541 290.876664 
L 283.444521 289.036663 
L 283.7695 290.34554 
L 284.09448 289.692073 
L 284.419459 290.901637 
L 284.744439 288.681141 
L 285.394398 290.518522 
L 285.719378 290.330444 
L 286.044357 290.50523 
L 286.694316 291.316662 
L 287.019296 290.497673 
L 287.344275 290.895615 
L 287.669255 290.1203 
L 287.994234 291.313664 
L 288.319214 290.020038 
L 288.644193 291.364312 
L 288.969173 290.677005 
L 289.294152 289.516872 
L 289.944111 291.743813 
L 290.269091 290.631115 
L 290.59407 291.447603 
L 290.91905 291.58053 
L 291.244029 290.652578 
L 291.569009 290.281715 
L 291.893989 291.471238 
L 292.218968 290.764984 
L 292.543948 291.207627 
L 292.868927 291.120798 
L 293.193907 290.233816 
L 293.518886 291.504036 
L 293.843866 290.039593 
L 294.168845 291.375032 
L 294.493825 291.187 
L 294.818804 290.335615 
L 295.143784 291.236919 
L 295.468763 291.452218 
L 295.793743 291.911952 
L 296.118722 291.256768 
L 296.443702 290.930513 
L 296.768681 291.467554 
L 297.41864 291.7262 
L 297.74362 290.027423 
L 298.0686 289.986086 
L 298.718559 292.106084 
L 299.043538 289.955395 
L 299.368518 291.520351 
L 299.693497 290.519053 
L 300.018477 291.953725 
L 300.343456 290.040207 
L 300.668436 292.323062 
L 300.993415 290.19411 
L 301.318395 291.376084 
L 301.643374 291.499607 
L 301.968354 291.322512 
L 302.293333 291.381727 
L 302.618313 291.840692 
L 302.943292 291.752646 
L 303.268272 292.062212 
L 303.593251 292.022299 
L 303.918231 292.81478 
L 304.24321 292.543912 
L 304.56819 291.504739 
L 304.89317 291.074899 
L 305.218149 292.45416 
L 305.543129 292.103391 
L 305.868108 290.914605 
L 306.193088 292.339791 
L 306.518067 291.833166 
L 306.843047 292.361457 
L 307.168026 291.272655 
L 307.493006 290.733899 
L 307.817985 291.895615 
L 308.142965 291.017352 
L 308.792924 292.816917 
L 309.117903 292.043194 
L 309.442883 290.851025 
L 309.767862 291.764542 
L 310.092842 292.088471 
L 310.742801 290.973802 
L 311.067781 292.146034 
L 311.39276 292.651692 
L 311.71774 292.341165 
L 312.042719 291.6891 
L 312.367699 291.598317 
L 312.692678 291.897075 
L 313.017658 291.374191 
L 313.342637 291.330647 
L 313.667617 291.965696 
L 313.992596 291.764802 
L 314.317576 292.26404 
L 314.642555 292.15668 
L 314.967535 291.362797 
L 315.292514 291.548049 
L 315.617494 292.525768 
L 315.942473 292.588173 
L 316.267453 291.898003 
L 316.592432 290.80743 
L 316.917412 292.517209 
L 317.242391 291.928959 
L 317.567371 292.400357 
L 317.892351 292.619013 
L 318.21733 292.230373 
L 318.54231 292.808132 
L 318.867289 292.137715 
L 319.192269 293.078799 
L 319.517248 292.924716 
L 319.842228 292.234259 
L 320.492187 292.575685 
L 320.817166 292.947618 
L 321.142146 291.578873 
L 321.467125 293.533634 
L 321.792105 292.739948 
L 322.117084 292.657299 
L 322.442064 293.445471 
L 322.767043 293.214518 
L 323.092023 292.741861 
L 323.417002 292.82266 
L 323.741982 291.402908 
L 324.066962 292.868754 
L 324.391941 292.111334 
L 324.716921 292.571072 
L 325.0419 293.412007 
L 325.36688 292.41531 
L 325.691859 292.170275 
L 326.341818 293.477621 
L 326.666798 292.249772 
L 326.991777 293.354114 
L 327.316757 293.170031 
L 327.641736 292.697837 
L 327.966716 292.755116 
L 328.291695 292.611108 
L 328.616675 292.660724 
L 328.941654 292.54002 
L 329.266634 292.056304 
L 329.591613 292.451628 
L 329.916593 292.422061 
L 330.241572 293.688904 
L 330.566552 291.747701 
L 330.891532 292.724366 
L 331.216511 293.227531 
L 331.541491 293.206004 
L 331.86647 291.381094 
L 332.19145 292.988469 
L 332.516429 293.126663 
L 332.841409 293.101489 
L 333.166388 293.384019 
L 333.816347 293.42914 
L 334.141327 293.61629 
L 334.466306 291.566761 
L 334.791286 294.325428 
L 335.116265 293.685098 
L 335.441245 292.68651 
L 335.766224 292.823512 
L 336.091204 294.096789 
L 336.416183 293.29043 
L 336.741163 292.961918 
L 337.066143 293.181426 
L 337.391122 293.539044 
L 337.716102 292.584991 
L 338.041081 292.426662 
L 338.366061 293.3928 
L 338.69104 292.440618 
L 339.340999 294.4099 
L 339.665979 293.246694 
L 339.990958 294.179642 
L 340.315938 294.182859 
L 340.640917 291.42265 
L 340.965897 293.574145 
L 341.290876 292.518195 
L 341.615856 292.767465 
L 341.940835 293.342003 
L 342.265815 292.774925 
L 342.590794 293.449133 
L 342.915774 293.638796 
L 343.240753 294.457505 
L 343.565733 293.040895 
L 343.890713 292.991126 
L 344.215692 294.340517 
L 344.540672 293.240999 
L 344.865651 293.150453 
L 345.190631 292.816847 
L 345.51561 293.540338 
L 345.84059 293.774043 
L 346.165569 292.845439 
L 346.490549 292.515453 
L 346.815528 293.162206 
L 347.140508 292.732994 
L 347.465487 292.104724 
L 347.790467 292.373148 
L 348.115446 293.502077 
L 348.440426 293.519816 
L 348.765405 293.885078 
L 349.090385 292.524412 
L 349.740344 294.605676 
L 350.065324 293.451086 
L 350.390303 293.502276 
L 350.715283 293.996724 
L 351.040262 294.224959 
L 351.365242 294.258506 
L 351.690221 293.467487 
L 352.015201 291.823475 
L 352.34018 293.931881 
L 352.66516 292.816007 
L 352.990139 293.278498 
L 353.315119 294.404752 
L 353.640098 293.161577 
L 353.965078 293.884995 
L 354.290057 293.9998 
L 354.615037 292.52844 
L 354.940016 293.498437 
L 355.589975 293.335075 
L 355.914955 294.02623 
L 356.239934 293.732876 
L 356.889894 292.893223 
L 357.214873 293.662147 
L 357.539853 293.462791 
L 357.864832 294.614389 
L 358.189812 293.788825 
L 358.514791 292.388972 
L 358.839771 294.774196 
L 359.16475 293.647553 
L 359.48973 294.247711 
L 359.814709 292.327415 
L 360.139689 291.970646 
L 360.464668 294.450473 
L 360.789648 294.07406 
L 361.114627 292.639438 
L 361.439607 292.989422 
L 361.764586 293.825631 
L 362.089566 294.307484 
L 362.414545 292.872163 
L 362.739525 293.408545 
L 363.064505 292.971027 
L 363.389484 294.088872 
L 363.714464 293.375883 
L 364.039443 294.017329 
L 364.364423 292.545989 
L 365.014382 293.251454 
L 365.339361 294.477774 
L 365.98932 293.815138 
L 366.3143 292.987176 
L 366.639279 293.844904 
L 366.964259 293.335634 
L 367.289238 293.71439 
L 367.614218 293.214611 
L 367.939197 293.544723 
L 368.264177 293.453371 
L 368.589156 294.134893 
L 368.914136 292.489728 
L 369.239115 294.746916 
L 369.564095 294.50096 
L 369.889075 293.894575 
L 370.214054 295.277453 
L 370.539034 293.695165 
L 370.864013 294.416483 
L 371.188993 293.697038 
L 371.513972 293.828822 
L 371.838952 293.371797 
L 372.163931 294.383995 
L 372.488911 293.596433 
L 373.463849 294.924644 
L 373.788829 294.716187 
L 374.113808 294.679887 
L 374.438788 293.738998 
L 374.763767 295.072011 
L 375.088747 294.258784 
L 375.413726 294.77813 
L 376.063686 293.652157 
L 376.388665 294.187194 
L 377.038624 293.950365 
L 377.363604 294.59548 
L 377.688583 294.819116 
L 378.013563 294.364273 
L 378.338542 294.23092 
L 378.663522 293.521836 
L 378.988501 294.638955 
L 379.313481 294.793663 
L 379.63846 294.464827 
L 379.96344 293.962314 
L 380.288419 293.119037 
L 380.613399 294.189989 
L 380.938378 294.479066 
L 381.263358 294.207492 
L 381.588337 295.038842 
L 381.913317 293.296719 
L 382.238296 294.45489 
L 382.563276 293.028563 
L 382.888256 295.488 
L 383.213235 294.530605 
L 383.538215 294.000075 
L 383.863194 294.67485 
L 384.188174 293.658826 
L 384.513153 293.919189 
L 384.838133 294.624914 
L 385.163112 293.851869 
L 385.488092 294.199638 
L 385.813071 293.445234 
L 386.138051 293.682185 
L 386.46303 294.978267 
L 386.78801 293.907873 
L 387.112989 294.31089 
L 387.437969 293.828972 
L 387.762948 295.476361 
L 388.087928 293.451289 
L 388.412907 295.322161 
L 388.737887 294.220315 
L 389.062867 294.849284 
L 389.387846 294.658318 
L 389.712826 295.186155 
L 390.037805 294.574602 
L 390.362785 294.39824 
L 390.687764 294.582505 
L 391.012744 295.112431 
L 391.337723 294.246317 
L 391.987682 294.81442 
L 392.312662 293.805112 
L 392.637641 295.125237 
L 392.962621 295.247177 
L 393.61258 294.433225 
L 394.262539 294.1547 
L 394.587518 293.973092 
L 394.912498 294.544948 
L 395.237477 294.354794 
L 395.562457 295.20427 
L 395.887437 293.80794 
L 396.212416 294.601618 
L 396.537396 293.810454 
L 396.862375 294.006091 
L 397.187355 294.784466 
L 397.512334 294.128848 
L 397.837314 293.892864 
L 398.162293 294.04058 
L 398.487273 293.976442 
L 398.487273 293.976442 
" clip-path="url(#pd84bbc060c)" style="fill: none; stroke: #0000ff; stroke-width: 1.5; stroke-linecap: square"/>
   </g>
   <g id="line2d_13">
    <path d="M 73.832727 53.568 
L 74.157707 84.727415 
L 74.482686 98.588009 
L 75.132645 116.876991 
L 75.782604 137.830861 
L 76.432563 159.271468 
L 77.407502 181.302332 
L 78.382441 195.74795 
L 78.70742 197.391058 
L 79.0324 202.257203 
L 79.357379 203.738466 
L 80.007338 209.733473 
L 80.657297 212.441663 
L 80.982277 215.324553 
L 81.307256 215.535953 
L 81.632236 217.898794 
L 81.957215 216.278824 
L 82.282195 220.260267 
L 82.607174 218.815363 
L 83.582113 221.654038 
L 83.907093 222.39274 
L 84.232072 222.738001 
L 84.557052 223.470039 
L 84.882031 222.42137 
L 85.207011 223.954685 
L 85.53199 223.520164 
L 85.85697 222.866787 
L 86.181949 226.977549 
L 86.506929 226.359954 
L 86.831908 227.002859 
L 87.156888 226.266456 
L 87.481867 225.884013 
L 87.806847 227.272532 
L 88.131826 227.133634 
L 88.456806 228.246873 
L 88.781785 228.292216 
L 89.106765 229.450506 
L 89.431744 227.396915 
L 89.756724 227.33384 
L 90.081704 229.193973 
L 90.406683 227.81796 
L 91.056642 230.385441 
L 91.381622 231.196766 
L 91.706601 229.246278 
L 92.031581 230.099398 
L 92.35656 228.247482 
L 92.68154 228.941697 
L 93.006519 230.334163 
L 93.331499 230.359669 
L 93.981458 229.854699 
L 94.306437 230.22793 
L 94.631417 230.809787 
L 95.606355 230.764913 
L 95.931335 231.246373 
L 96.256314 229.702966 
L 96.581294 231.794487 
L 96.906274 229.323069 
L 97.556233 232.189291 
L 97.881212 230.936939 
L 98.206192 228.564791 
L 98.531171 230.418265 
L 98.856151 230.581364 
L 99.18113 229.956547 
L 99.50611 231.567724 
L 99.831089 231.290467 
L 100.156069 231.647233 
L 100.481048 233.59724 
L 100.806028 231.342772 
L 101.131007 232.004436 
L 101.455987 230.766136 
L 101.780966 232.098979 
L 102.105946 232.230756 
L 102.755905 230.517402 
L 103.080885 233.149276 
L 103.405864 233.17923 
L 103.730844 231.140166 
L 104.055823 231.35104 
L 104.380803 232.2498 
L 104.705782 231.052864 
L 105.355741 229.761879 
L 105.680721 230.660753 
L 106.0057 230.348119 
L 106.33068 231.876448 
L 106.655659 231.195126 
L 106.980639 231.140419 
L 107.305618 231.400342 
L 107.630598 230.176265 
L 107.955577 229.857467 
L 108.280557 232.795393 
L 108.605536 230.995243 
L 108.930516 230.649945 
L 109.255495 229.959087 
L 109.580475 229.870645 
L 109.905455 230.07901 
L 110.230434 230.488499 
L 110.555414 228.92857 
L 110.880393 230.29909 
L 111.205373 230.56773 
L 111.530352 230.51782 
L 111.855332 230.338521 
L 112.180311 230.7806 
L 112.505291 229.059402 
L 112.83027 230.585564 
L 113.15525 230.309334 
L 113.480229 230.555591 
L 113.805209 232.10833 
L 114.130188 231.100018 
L 114.455168 229.343438 
L 115.105127 230.401318 
L 115.430106 230.088089 
L 115.755086 229.6174 
L 116.080066 230.697232 
L 116.405045 230.635563 
L 116.730025 230.702028 
L 117.055004 231.900447 
L 117.379984 230.695446 
L 117.704963 230.05683 
L 118.029943 230.370978 
L 118.354922 230.006381 
L 118.679902 228.205662 
L 119.004881 228.914283 
L 119.329861 230.144994 
L 119.97982 227.807513 
L 120.304799 228.881675 
L 120.954758 228.877734 
L 121.279738 229.37227 
L 121.604717 227.823237 
L 122.254676 229.386246 
L 122.579656 228.282428 
L 122.904636 227.810427 
L 123.229615 231.042474 
L 123.879574 228.411486 
L 124.204554 228.702332 
L 124.529533 228.080252 
L 124.854513 228.880421 
L 125.179492 230.678232 
L 125.504472 227.80432 
L 125.829451 229.101621 
L 126.154431 228.15131 
L 126.47941 228.120774 
L 126.80439 227.660671 
L 127.129369 228.353422 
L 127.454349 230.006559 
L 127.779328 229.889518 
L 128.104308 228.319129 
L 128.429287 228.23412 
L 128.754267 227.769836 
L 129.079247 227.866001 
L 129.404226 227.324413 
L 129.729206 228.833532 
L 130.054185 227.213929 
L 130.379165 227.119956 
L 130.704144 227.269263 
L 131.029124 226.851709 
L 131.354103 229.264841 
L 131.679083 224.955401 
L 132.004062 227.311457 
L 132.329042 225.87624 
L 132.654021 225.978512 
L 132.979001 226.216008 
L 133.62896 227.551176 
L 133.953939 227.046447 
L 134.278919 229.290309 
L 134.928878 226.082178 
L 135.253857 226.839481 
L 135.578837 226.269301 
L 135.903817 228.572735 
L 136.228796 228.3972 
L 136.553776 225.073651 
L 136.878755 227.210629 
L 137.203735 225.709796 
L 137.528714 225.241172 
L 137.853694 226.360081 
L 138.178673 226.503033 
L 138.503653 225.71074 
L 138.828632 226.603145 
L 139.153612 225.676072 
L 139.478591 225.639872 
L 139.803571 226.185274 
L 140.12855 225.321365 
L 140.45353 225.705019 
L 140.778509 224.134579 
L 141.103489 226.831125 
L 141.753448 225.271107 
L 142.078428 226.503078 
L 142.403407 226.867142 
L 142.728387 225.888397 
L 143.053366 223.363236 
L 143.378346 223.085771 
L 144.353284 224.221703 
L 144.678264 222.383789 
L 145.003243 224.186212 
L 145.328223 221.380881 
L 145.653202 223.283043 
L 145.978182 222.727294 
L 146.303161 221.200721 
L 146.628141 221.421833 
L 146.95312 221.920854 
L 147.2781 224.424728 
L 147.603079 223.954235 
L 147.928059 223.159065 
L 148.253038 223.265893 
L 148.578018 226.403941 
L 149.227977 223.106475 
L 149.552957 223.969674 
L 149.877936 221.463247 
L 150.202916 222.911167 
L 150.527895 221.664631 
L 150.852875 222.276777 
L 151.177854 221.542396 
L 151.502834 222.826215 
L 151.827813 221.890526 
L 152.152793 222.17453 
L 152.477772 221.001516 
L 152.802752 222.303361 
L 153.127731 222.240627 
L 153.452711 219.836872 
L 153.77769 219.222154 
L 154.10267 222.301846 
L 154.427649 223.374507 
L 154.752629 223.304146 
L 155.077609 220.691233 
L 155.402588 220.231701 
L 155.727568 221.037597 
L 156.052547 219.601252 
L 156.377527 220.401217 
L 156.702506 222.725172 
L 157.027486 220.517149 
L 157.352465 219.771636 
L 157.677445 219.801761 
L 158.002424 217.392412 
L 158.327404 220.449113 
L 158.652383 217.443437 
L 158.977363 220.991152 
L 159.302342 220.038775 
L 159.627322 217.288302 
L 159.952301 217.55098 
L 160.277281 219.756533 
L 160.60226 218.455126 
L 160.92724 215.441277 
L 161.252219 217.542922 
L 161.577199 218.311521 
L 161.902179 220.312585 
L 162.227158 218.178389 
L 162.552138 221.164051 
L 162.877117 217.852153 
L 163.527076 218.091201 
L 163.852056 216.14089 
L 164.177035 218.787893 
L 164.502015 217.388921 
L 164.826994 217.953729 
L 165.151974 214.87669 
L 165.476953 215.647931 
L 165.801933 213.822307 
L 166.126912 214.074007 
L 166.451892 213.600441 
L 166.776871 217.678354 
L 167.101851 216.769476 
L 167.42683 217.599674 
L 167.75181 214.609799 
L 168.07679 219.299262 
L 168.401769 215.548256 
L 168.726749 216.528103 
L 169.051728 215.441429 
L 169.376708 217.323533 
L 169.701687 214.499746 
L 170.026667 215.100058 
L 170.351646 214.7314 
L 170.676626 216.210307 
L 171.001605 214.003855 
L 171.326585 217.610261 
L 171.651564 216.605129 
L 171.976544 213.765859 
L 172.301523 213.710253 
L 172.626503 217.021391 
L 172.951482 211.559756 
L 173.276462 215.98889 
L 173.601441 215.604952 
L 173.926421 213.34655 
L 174.2514 214.682143 
L 174.57638 215.476723 
L 174.90136 214.619802 
L 175.226339 214.23855 
L 175.551319 216.871875 
L 175.876298 214.096656 
L 176.201278 217.739338 
L 176.526257 215.752535 
L 176.851237 216.653487 
L 177.176216 212.498372 
L 177.501196 215.281333 
L 177.826175 211.858065 
L 178.151155 215.001238 
L 178.476134 214.248091 
L 178.801114 212.189996 
L 179.126093 214.419635 
L 179.776052 210.762026 
L 180.101032 214.059157 
L 180.426011 212.256201 
L 180.750991 208.331396 
L 181.075971 210.061286 
L 181.40095 208.647476 
L 181.72593 212.35732 
L 182.050909 211.418343 
L 183.025848 211.847155 
L 183.350827 210.981928 
L 183.675807 210.514698 
L 184.000786 209.296653 
L 184.325766 213.364656 
L 184.650745 208.605707 
L 184.975725 210.156925 
L 185.300704 212.753758 
L 185.625684 209.873511 
L 185.950663 209.602989 
L 186.275643 211.130272 
L 186.600622 210.177635 
L 186.925602 211.064225 
L 187.250581 207.519627 
L 187.575561 206.687636 
L 187.900541 207.77746 
L 188.22552 209.295303 
L 188.5505 207.934609 
L 188.875479 209.114535 
L 189.200459 211.541041 
L 189.850418 204.341026 
L 190.175397 205.339917 
L 190.825356 209.210681 
L 191.150336 207.930865 
L 191.475315 209.517739 
L 191.800295 209.149893 
L 192.125274 204.038498 
L 192.775233 211.124659 
L 193.100213 208.847079 
L 193.425192 210.006573 
L 193.750172 209.111576 
L 194.075152 206.095257 
L 194.400131 205.400421 
L 194.725111 209.168006 
L 195.37507 205.938582 
L 195.700049 205.619493 
L 196.025029 204.303812 
L 196.350008 206.607303 
L 196.674988 205.436089 
L 196.999967 204.68279 
L 197.324947 204.924068 
L 197.649926 206.326999 
L 197.974906 206.79995 
L 198.299885 205.410221 
L 198.624865 205.354983 
L 198.949844 207.494539 
L 199.274824 205.843019 
L 199.599803 205.418787 
L 199.924783 206.607557 
L 200.249762 203.033759 
L 200.574742 205.716209 
L 200.899722 203.948269 
L 201.224701 203.8903 
L 201.549681 204.016989 
L 201.87466 204.366178 
L 202.19964 205.030262 
L 202.524619 204.626595 
L 202.849599 207.653539 
L 203.174578 205.19929 
L 203.499558 204.253788 
L 203.824537 205.985901 
L 204.149517 202.640907 
L 204.799476 204.025472 
L 205.124455 205.995759 
L 205.449435 203.85932 
L 205.774414 204.304046 
L 206.099394 205.747804 
L 206.424373 205.082345 
L 206.749353 202.324434 
L 207.074333 204.239653 
L 207.399312 204.568784 
L 207.724292 199.620811 
L 208.049271 205.988499 
L 208.374251 203.160169 
L 208.69923 202.077568 
L 209.02421 196.734583 
L 209.349189 201.152897 
L 209.674169 201.729324 
L 209.999148 204.285686 
L 210.324128 204.4049 
L 210.649107 202.903079 
L 210.974087 199.625702 
L 211.299066 204.093014 
L 211.949025 202.494008 
L 212.274005 203.993801 
L 212.598984 202.181418 
L 212.923964 199.700282 
L 213.248943 204.700694 
L 213.573923 197.55548 
L 213.898903 196.061654 
L 214.223882 201.236334 
L 214.548862 202.026961 
L 215.198821 198.323528 
L 215.5238 202.407681 
L 215.84878 199.007353 
L 216.173759 201.626373 
L 216.498739 202.12523 
L 216.823718 197.644974 
L 217.148698 197.419231 
L 217.473677 203.905898 
L 217.798657 201.852471 
L 218.123636 196.763086 
L 218.448616 199.676708 
L 218.773595 200.481571 
L 219.098575 199.373622 
L 219.423554 199.000226 
L 219.748534 195.092926 
L 220.073514 201.529695 
L 220.398493 197.407783 
L 220.723473 197.632728 
L 221.048452 194.17905 
L 221.373432 197.128468 
L 221.698411 193.726638 
L 222.023391 198.768901 
L 222.34837 198.18681 
L 222.67335 195.823994 
L 223.323309 199.148126 
L 223.648288 198.611897 
L 223.973268 196.714898 
L 224.298247 195.845098 
L 224.623227 196.475344 
L 224.948206 195.100814 
L 225.273186 195.400612 
L 225.598165 198.983349 
L 225.923145 195.376841 
L 226.248124 193.322515 
L 226.573104 193.34441 
L 226.898084 194.26179 
L 227.223063 194.338297 
L 227.548043 195.718706 
L 227.873022 194.933439 
L 228.198002 198.986447 
L 228.847961 192.780977 
L 229.17294 191.081795 
L 229.49792 194.020462 
L 229.822899 191.99512 
L 230.147879 196.339019 
L 230.472858 192.985826 
L 230.797838 194.352919 
L 231.122817 191.740057 
L 231.447797 191.996603 
L 231.772776 200.059715 
L 232.097756 194.045271 
L 232.422735 195.685325 
L 232.747715 196.202186 
L 233.072695 192.568779 
L 233.397674 196.476073 
L 233.722654 189.47416 
L 234.047633 188.440145 
L 234.372613 191.63309 
L 234.697592 196.621559 
L 235.022572 194.349219 
L 235.347551 193.172556 
L 235.672531 189.230703 
L 235.99751 193.279751 
L 236.647469 187.876344 
L 236.972449 187.389114 
L 237.297428 188.621883 
L 237.622408 191.148203 
L 237.947387 188.982849 
L 238.272367 192.953338 
L 238.597346 194.645177 
L 239.247305 187.438568 
L 239.572285 189.382917 
L 239.897265 190.376804 
L 240.222244 189.351177 
L 240.547224 190.802606 
L 240.872203 190.484037 
L 241.197183 192.481363 
L 241.522162 189.65278 
L 241.847142 191.445473 
L 242.172121 189.670976 
L 242.497101 190.467603 
L 242.82208 186.812541 
L 243.14706 191.176434 
L 243.472039 185.924595 
L 243.797019 186.052089 
L 244.121998 190.318847 
L 244.446978 189.637373 
L 244.771957 190.09408 
L 245.096937 192.079242 
L 245.421916 186.592436 
L 245.746896 192.709539 
L 246.071876 185.473641 
L 246.396855 192.717053 
L 246.721835 188.298777 
L 247.046814 188.391629 
L 247.371794 189.078805 
L 247.696773 185.602972 
L 248.021753 187.932818 
L 248.346732 186.56489 
L 248.671712 187.837977 
L 248.996691 187.696077 
L 249.321671 186.560252 
L 249.64665 188.925729 
L 249.97163 188.028698 
L 250.296609 186.352717 
L 250.621589 191.042338 
L 250.946568 187.643734 
L 251.271548 189.726981 
L 251.596527 186.810982 
L 251.921507 186.974854 
L 252.246486 185.547055 
L 252.571466 188.313716 
L 252.896446 184.261398 
L 253.221425 188.553004 
L 253.546405 182.542653 
L 253.871384 186.845079 
L 254.521343 184.046793 
L 254.846323 188.280873 
L 256.146241 183.265523 
L 256.47122 178.605703 
L 256.7962 186.764176 
L 257.121179 180.651799 
L 257.446159 189.782428 
L 257.771138 184.370342 
L 258.096118 186.363246 
L 258.421097 186.529981 
L 259.071057 184.674201 
L 259.396036 187.162091 
L 259.721016 183.848558 
L 260.045995 183.302674 
L 260.370975 187.62175 
L 260.695954 188.734095 
L 261.020934 185.284237 
L 261.345913 185.86043 
L 261.670893 184.943253 
L 261.995872 182.563129 
L 262.320852 184.745221 
L 262.645831 186.032715 
L 262.970811 183.043682 
L 263.29579 182.904265 
L 263.62077 183.689805 
L 264.270729 178.127886 
L 264.595708 185.690591 
L 264.920688 182.241353 
L 265.245667 180.616511 
L 265.570647 186.533213 
L 265.895627 177.171848 
L 266.220606 180.824566 
L 266.545586 181.80663 
L 266.870565 185.949189 
L 267.195545 178.725886 
L 267.520524 181.259188 
L 267.845504 187.097279 
L 268.170483 180.869192 
L 268.495463 182.606286 
L 268.820442 179.814461 
L 269.145422 181.917741 
L 269.470401 176.074175 
L 269.795381 176.681893 
L 270.12036 181.688221 
L 270.44534 183.916613 
L 270.770319 184.957888 
L 271.095299 184.379579 
L 271.420278 182.748782 
L 271.745258 176.056727 
L 272.070238 176.069842 
L 272.395217 180.721261 
L 272.720197 181.51178 
L 273.045176 181.023738 
L 273.370156 184.799515 
L 273.695135 184.514004 
L 274.020115 175.928663 
L 274.345094 181.531306 
L 274.670074 179.027907 
L 274.995053 182.968595 
L 275.969992 175.488783 
L 276.294971 179.63916 
L 276.619951 176.131536 
L 276.94493 182.425574 
L 277.26991 181.183125 
L 277.594889 183.56112 
L 277.919869 180.207168 
L 278.244848 181.215118 
L 278.569828 178.929506 
L 278.894808 181.594838 
L 279.219787 175.431296 
L 279.544767 174.849287 
L 279.869746 177.080213 
L 280.194726 176.961132 
L 280.519705 176.432734 
L 280.844685 181.447425 
L 281.169664 181.193451 
L 281.494644 183.767528 
L 281.819623 177.263205 
L 282.144603 173.852525 
L 282.469582 175.224217 
L 283.119541 176.324766 
L 283.444521 178.575242 
L 283.7695 177.202651 
L 284.09448 181.356639 
L 284.419459 178.68501 
L 284.744439 178.790317 
L 285.069419 182.387334 
L 285.394398 176.221828 
L 285.719378 178.117864 
L 286.044357 178.896891 
L 286.369337 177.376368 
L 286.694316 176.583935 
L 287.019296 177.721787 
L 287.344275 182.996154 
L 287.669255 175.786003 
L 287.994234 178.052432 
L 288.319214 172.448699 
L 288.644193 175.941144 
L 288.969173 177.227498 
L 289.294152 174.650216 
L 289.619132 177.076715 
L 289.944111 177.049321 
L 290.269091 171.92822 
L 290.59407 173.628695 
L 290.91905 171.568787 
L 291.244029 172.68297 
L 291.569009 172.720793 
L 291.893989 171.773649 
L 292.218968 172.398776 
L 292.543948 170.480529 
L 292.868927 175.285037 
L 293.193907 175.404979 
L 293.518886 178.066851 
L 293.843866 176.136579 
L 294.168845 177.517064 
L 294.493825 176.243533 
L 294.818804 173.376951 
L 295.143784 177.105491 
L 295.468763 177.771342 
L 295.793743 168.307648 
L 296.118722 170.697656 
L 296.443702 170.684466 
L 296.768681 169.922354 
L 297.093661 172.167838 
L 297.41864 169.143403 
L 297.74362 174.479198 
L 298.0686 172.322612 
L 298.393579 167.029163 
L 298.718559 171.123395 
L 299.043538 171.753794 
L 299.368518 169.77949 
L 299.693497 180.086972 
L 300.018477 170.825618 
L 300.343456 171.359389 
L 300.668436 170.425563 
L 300.993415 171.379042 
L 301.318395 171.430637 
L 301.643374 174.045869 
L 301.968354 173.854121 
L 302.293333 175.949925 
L 302.618313 174.784197 
L 302.943292 169.743708 
L 303.268272 169.276218 
L 303.593251 166.884348 
L 303.918231 170.841077 
L 304.24321 171.652554 
L 304.56819 172.04801 
L 304.89317 176.619236 
L 305.218149 164.930128 
L 305.543129 164.692157 
L 305.868108 173.301724 
L 306.193088 167.937597 
L 306.518067 168.154737 
L 306.843047 173.160457 
L 307.168026 174.249843 
L 307.493006 165.979107 
L 307.817985 161.740833 
L 308.142965 167.83618 
L 308.467944 170.242964 
L 308.792924 167.536604 
L 309.117903 171.574793 
L 309.442883 166.043513 
L 310.092842 171.562743 
L 310.417821 165.91612 
L 310.742801 165.695243 
L 311.067781 165.701869 
L 311.71774 171.003099 
L 312.042719 167.735776 
L 312.367699 175.369804 
L 312.692678 164.540209 
L 313.342637 164.743132 
L 313.667617 160.792473 
L 313.992596 165.197951 
L 314.317576 176.397053 
L 314.642555 170.781549 
L 314.967535 168.382888 
L 315.292514 168.224705 
L 315.617494 164.556554 
L 315.942473 168.844967 
L 316.267453 168.340808 
L 316.592432 166.758464 
L 316.917412 167.195708 
L 317.242391 165.719723 
L 317.567371 166.276732 
L 317.892351 168.403098 
L 318.21733 162.788925 
L 318.54231 164.683871 
L 318.867289 159.050146 
L 319.192269 161.214347 
L 319.517248 169.588402 
L 319.842228 161.016518 
L 320.167207 168.76751 
L 320.492187 169.155212 
L 320.817166 160.74853 
L 321.142146 166.153736 
L 321.467125 167.13186 
L 321.792105 164.007667 
L 322.117084 167.037969 
L 322.442064 165.353637 
L 322.767043 160.72125 
L 323.092023 166.506631 
L 323.417002 164.344432 
L 323.741982 166.842953 
L 324.066962 170.772198 
L 324.391941 165.047206 
L 324.716921 169.444423 
L 325.0419 168.50454 
L 325.36688 161.751197 
L 325.691859 161.605115 
L 326.016839 171.390914 
L 326.341818 159.858114 
L 326.666798 162.973602 
L 326.991777 161.287547 
L 327.316757 161.953766 
L 327.641736 162.138646 
L 328.291695 171.05548 
L 328.616675 162.051077 
L 328.941654 160.404175 
L 329.266634 161.453167 
L 329.591613 155.463925 
L 329.916593 160.776938 
L 330.241572 157.860838 
L 330.566552 160.325046 
L 330.891532 165.638959 
L 331.216511 165.249116 
L 331.541491 162.811719 
L 331.86647 168.685036 
L 332.19145 159.663427 
L 332.516429 158.503464 
L 332.841409 160.976542 
L 333.166388 158.227861 
L 333.491368 157.874915 
L 333.816347 160.411499 
L 334.141327 159.051135 
L 334.466306 156.098074 
L 334.791286 159.948393 
L 335.116265 156.192282 
L 335.766224 160.21391 
L 336.091204 156.341012 
L 336.416183 158.56531 
L 336.741163 164.770336 
L 337.066143 160.237149 
L 337.391122 160.734732 
L 337.716102 164.867053 
L 338.041081 164.065446 
L 338.366061 157.053973 
L 338.69104 154.394609 
L 339.01602 161.62867 
L 339.340999 156.783388 
L 339.665979 162.120438 
L 339.990958 162.094754 
L 340.640917 155.776552 
L 340.965897 153.964537 
L 341.290876 161.660297 
L 341.615856 157.101514 
L 341.940835 160.343976 
L 342.265815 156.119285 
L 342.590794 155.579039 
L 342.915774 161.747029 
L 343.240753 150.364605 
L 343.890713 159.115414 
L 344.215692 156.173161 
L 344.540672 157.874992 
L 344.865651 149.858989 
L 345.51561 156.267268 
L 345.84059 157.247925 
L 346.165569 163.016036 
L 346.490549 156.855371 
L 346.815528 160.581871 
L 347.140508 156.789369 
L 347.790467 159.316626 
L 348.115446 156.745743 
L 348.440426 151.719686 
L 348.765405 153.511124 
L 349.090385 160.679867 
L 349.415364 160.838645 
L 349.740344 154.514361 
L 350.390303 161.231618 
L 350.715283 154.617413 
L 351.040262 155.602442 
L 351.365242 153.635894 
L 351.690221 160.322398 
L 352.015201 156.372131 
L 352.34018 157.76231 
L 352.66516 160.024355 
L 352.990139 156.680476 
L 353.315119 159.3712 
L 353.640098 156.059694 
L 353.965078 164.109072 
L 354.290057 160.434661 
L 354.615037 155.3406 
L 354.940016 156.73126 
L 355.264996 154.661279 
L 355.589975 150.877355 
L 355.914955 156.751027 
L 356.239934 151.289309 
L 356.564914 154.314568 
L 356.889894 152.984487 
L 357.214873 152.805752 
L 357.539853 160.470786 
L 357.864832 153.280731 
L 358.189812 154.344496 
L 358.514791 153.170887 
L 358.839771 150.096136 
L 359.16475 155.977638 
L 359.48973 157.041239 
L 359.814709 159.317361 
L 360.789648 152.662914 
L 361.114627 151.040011 
L 361.439607 151.102148 
L 361.764586 149.367323 
L 362.089566 149.609387 
L 362.739525 156.727282 
L 363.064505 156.718577 
L 363.389484 146.058162 
L 363.714464 144.600815 
L 364.039443 149.526393 
L 364.364423 149.552824 
L 364.689402 154.873896 
L 365.014382 151.255605 
L 365.339361 145.314752 
L 365.664341 154.348488 
L 366.3143 147.947089 
L 366.639279 156.297297 
L 366.964259 156.372739 
L 367.289238 158.861149 
L 367.614218 154.655438 
L 367.939197 153.057116 
L 368.264177 153.967717 
L 368.589156 152.952873 
L 368.914136 144.907082 
L 369.239115 150.125824 
L 369.564095 150.739535 
L 369.889075 153.580066 
L 370.214054 148.505885 
L 370.539034 150.448245 
L 370.864013 150.624395 
L 371.188993 155.585654 
L 371.513972 148.032541 
L 371.838952 145.492321 
L 372.163931 151.569423 
L 372.488911 148.698862 
L 372.81389 143.817087 
L 373.13887 151.017279 
L 373.788829 154.907081 
L 374.113808 149.014099 
L 374.438788 145.925967 
L 374.763767 152.650028 
L 375.088747 153.011235 
L 375.413726 148.886681 
L 375.738706 146.714726 
L 376.063686 148.946019 
L 376.388665 156.157183 
L 376.713645 152.00782 
L 377.038624 151.980831 
L 377.363604 146.343965 
L 377.688583 151.633233 
L 378.013563 147.565951 
L 378.338542 150.330217 
L 378.663522 142.845578 
L 378.988501 149.111766 
L 379.313481 150.027334 
L 379.63846 148.499676 
L 379.96344 149.865489 
L 380.288419 146.997995 
L 380.613399 149.481779 
L 380.938378 153.559222 
L 381.263358 146.797314 
L 381.588337 145.883609 
L 381.913317 150.534762 
L 382.238296 151.624351 
L 382.888256 140.598459 
L 383.213235 149.698653 
L 383.538215 144.306865 
L 384.188174 153.892224 
L 384.513153 154.06902 
L 384.838133 155.706014 
L 385.163112 151.469108 
L 385.488092 143.457046 
L 385.813071 139.782344 
L 386.138051 150.288872 
L 386.46303 151.449316 
L 386.78801 144.765409 
L 387.112989 148.856068 
L 387.437969 147.08702 
L 387.762948 147.795052 
L 388.087928 150.411297 
L 388.412907 151.71662 
L 388.737887 145.116948 
L 389.062867 144.00312 
L 389.387846 147.016481 
L 389.712826 148.188481 
L 390.037805 143.197015 
L 390.362785 141.403119 
L 390.687764 145.846331 
L 391.012744 148.498105 
L 391.337723 148.153662 
L 391.662703 139.519197 
L 391.987682 143.02307 
L 392.312662 147.976917 
L 392.637641 141.967566 
L 392.962621 147.837968 
L 393.2876 140.525842 
L 393.61258 146.370029 
L 394.262539 149.267731 
L 394.587518 142.605554 
L 394.912498 151.492181 
L 395.237477 152.259868 
L 395.562457 144.32411 
L 395.887437 142.909375 
L 396.212416 153.014225 
L 396.862375 136.674281 
L 397.512334 149.245912 
L 397.837314 144.748734 
L 398.162293 143.529992 
L 398.487273 144.789078 
L 398.487273 144.789078 
" clip-path="url(#pd84bbc060c)" style="fill: none; stroke: #008000; stroke-width: 1.5; stroke-linecap: square"/>
   </g>
   <g id="line2d_14">
    <path d="M 73.832727 53.690552 
L 74.157707 84.06501 
L 74.482686 97.474739 
L 75.132645 116.255665 
L 77.082523 171.220251 
L 77.732482 182.264389 
L 78.382441 190.610149 
L 78.70742 192.581133 
L 79.0324 196.176148 
L 80.657297 206.916807 
L 81.307256 207.483547 
L 81.632236 209.753607 
L 81.957215 209.545115 
L 82.282195 210.734727 
L 82.607174 211.270392 
L 83.257133 213.35139 
L 84.232072 213.689669 
L 84.557052 215.659475 
L 84.882031 214.997735 
L 85.207011 216.62506 
L 85.53199 217.006978 
L 85.85697 217.634101 
L 86.181949 217.798258 
L 86.506929 218.765877 
L 86.831908 218.682332 
L 87.156888 219.755589 
L 87.481867 220.280661 
L 87.806847 220.486783 
L 88.131826 219.251886 
L 88.781785 220.577633 
L 89.431744 221.721719 
L 89.756724 220.279388 
L 90.081704 220.795413 
L 90.406683 221.096174 
L 90.731663 222.226259 
L 91.381622 223.551829 
L 91.706601 222.080684 
L 92.031581 222.860934 
L 92.35656 222.646607 
L 92.68154 222.835003 
L 93.331499 222.609006 
L 93.656478 222.884273 
L 93.981458 222.803212 
L 94.306437 224.795729 
L 94.956396 222.908823 
L 95.281376 222.808229 
L 95.606355 223.607175 
L 95.931335 222.254033 
L 96.256314 223.060809 
L 96.581294 224.202849 
L 96.906274 224.157342 
L 97.231253 223.903146 
L 97.556233 224.56609 
L 97.881212 224.097726 
L 98.206192 222.346872 
L 98.531171 224.478965 
L 99.50611 223.094476 
L 99.831089 224.351364 
L 100.156069 223.729341 
L 100.481048 223.961616 
L 101.131007 223.697201 
L 101.455987 224.092106 
L 101.780966 224.817257 
L 102.105946 224.413742 
L 102.430925 225.849168 
L 102.755905 224.042848 
L 103.080885 224.845583 
L 103.405864 225.002846 
L 103.730844 224.589436 
L 104.055823 224.873015 
L 104.380803 223.728112 
L 104.705782 224.354126 
L 105.355741 223.902836 
L 105.680721 223.85399 
L 106.33068 224.296303 
L 106.655659 224.554591 
L 106.980639 223.267819 
L 107.305618 223.201595 
L 107.630598 222.565045 
L 108.280557 224.767214 
L 108.605536 222.743602 
L 108.930516 222.789153 
L 109.580475 223.472098 
L 109.905455 222.806595 
L 110.230434 223.251619 
L 110.555414 222.619447 
L 110.880393 223.357623 
L 111.205373 223.451248 
L 111.530352 224.089027 
L 111.855332 222.995149 
L 112.180311 222.703042 
L 112.505291 224.02388 
L 112.83027 222.059606 
L 113.480229 224.007776 
L 113.805209 223.121293 
L 114.130188 223.222825 
L 114.455168 222.949743 
L 114.780147 223.341373 
L 115.105127 223.088577 
L 115.430106 222.115661 
L 115.755086 221.624794 
L 116.080066 222.304292 
L 116.405045 223.624426 
L 116.730025 222.509863 
L 117.055004 223.781538 
L 117.379984 222.34985 
L 117.704963 222.14929 
L 118.029943 223.02459 
L 119.004881 221.244486 
L 119.329861 221.469291 
L 119.65484 222.480264 
L 119.97982 221.299863 
L 120.304799 221.347379 
L 120.629779 220.712128 
L 120.954758 221.172763 
L 121.279738 220.97065 
L 121.604717 223.122028 
L 121.929697 222.198167 
L 122.254676 221.726236 
L 122.579656 220.808831 
L 122.904636 219.057496 
L 123.229615 221.324122 
L 123.554595 222.541756 
L 123.879574 220.720148 
L 124.204554 220.723962 
L 124.529533 219.684822 
L 124.854513 220.526741 
L 125.179492 222.684435 
L 125.504472 222.592572 
L 125.829451 220.283677 
L 126.47941 220.856309 
L 127.129369 218.631104 
L 127.454349 219.440459 
L 127.779328 219.237466 
L 128.104308 221.368058 
L 128.754267 220.829187 
L 129.079247 220.120958 
L 129.404226 220.102135 
L 129.729206 218.861783 
L 130.054185 219.245842 
L 130.379165 220.455974 
L 130.704144 220.439008 
L 131.029124 220.765294 
L 131.679083 219.878267 
L 132.004062 220.117784 
L 132.329042 218.804485 
L 132.654021 218.979919 
L 132.979001 218.716056 
L 133.30398 218.888297 
L 133.62896 219.536833 
L 133.953939 218.674895 
L 134.278919 220.198396 
L 134.603898 218.135561 
L 134.928878 217.859306 
L 135.253857 218.664137 
L 135.578837 218.221273 
L 135.903817 217.971031 
L 136.228796 216.933196 
L 136.553776 217.086532 
L 136.878755 220.238759 
L 137.203735 217.429056 
L 137.528714 218.401192 
L 137.853694 218.763204 
L 138.178673 217.425748 
L 138.503653 217.426825 
L 139.153612 217.987959 
L 139.478591 217.585692 
L 139.803571 218.109725 
L 140.12855 217.287896 
L 140.45353 217.058124 
L 141.103489 218.330743 
L 142.078428 216.903413 
L 142.403407 217.446738 
L 143.053366 215.661591 
L 143.378346 216.527546 
L 144.028305 215.80199 
L 144.353284 214.308506 
L 144.678264 214.621735 
L 145.003243 214.491048 
L 145.328223 215.630648 
L 145.653202 213.746435 
L 145.978182 214.382579 
L 146.303161 212.865572 
L 146.628141 214.628228 
L 146.95312 214.703721 
L 147.2781 214.153421 
L 147.603079 214.836378 
L 147.928059 214.344111 
L 148.253038 212.203249 
L 148.578018 213.296183 
L 148.902998 216.055634 
L 149.227977 214.306915 
L 149.552957 215.424577 
L 149.877936 214.517853 
L 150.202916 212.28293 
L 150.527895 211.315741 
L 150.852875 211.692115 
L 151.177854 213.095908 
L 151.502834 213.017806 
L 151.827813 212.697189 
L 152.152793 212.573858 
L 152.477772 210.008296 
L 152.802752 212.605301 
L 153.127731 212.505056 
L 153.452711 213.602779 
L 153.77769 211.084175 
L 154.10267 211.44746 
L 154.427649 211.553154 
L 154.752629 213.374514 
L 155.077609 213.060994 
L 155.727568 210.497745 
L 156.052547 211.994029 
L 156.377527 210.873048 
L 156.702506 211.792892 
L 157.027486 211.519652 
L 157.352465 213.694788 
L 157.677445 212.730843 
L 158.002424 209.146377 
L 158.652383 209.905922 
L 158.977363 209.994301 
L 159.302342 209.869754 
L 159.627322 208.667597 
L 160.277281 209.895767 
L 160.60226 209.645993 
L 161.252219 210.813685 
L 161.577199 209.970303 
L 161.902179 209.999262 
L 162.227158 210.232925 
L 162.552138 210.294055 
L 163.202097 207.745307 
L 163.527076 206.223143 
L 163.852056 207.063966 
L 164.177035 209.315614 
L 164.502015 207.25221 
L 165.151974 206.081255 
L 165.801933 207.574644 
L 166.126912 205.73844 
L 166.451892 204.65696 
L 166.776871 205.663061 
L 167.101851 205.190275 
L 167.42683 207.280358 
L 167.75181 206.174234 
L 168.07679 205.750319 
L 168.401769 205.685185 
L 169.051728 204.566985 
L 169.376708 205.304579 
L 169.701687 207.415473 
L 170.026667 205.95831 
L 170.351646 206.041545 
L 170.676626 204.867372 
L 171.001605 204.882615 
L 171.326585 207.500064 
L 171.651564 206.341203 
L 171.976544 204.461633 
L 172.301523 203.304598 
L 172.626503 205.875842 
L 172.951482 205.625055 
L 173.276462 202.80047 
L 173.601441 206.347571 
L 173.926421 204.340342 
L 174.2514 203.240192 
L 174.57638 204.338106 
L 175.226339 204.067666 
L 175.551319 205.605783 
L 175.876298 202.373514 
L 176.201278 205.290501 
L 176.526257 205.448266 
L 176.851237 204.171611 
L 177.176216 203.364309 
L 177.501196 200.511208 
L 177.826175 201.65373 
L 178.151155 204.552635 
L 178.476134 202.648756 
L 178.801114 204.349351 
L 179.126093 203.809676 
L 179.451073 201.655446 
L 179.776052 203.29811 
L 180.101032 203.561074 
L 180.426011 201.651386 
L 180.750991 202.879714 
L 181.075971 202.221598 
L 181.40095 201.266928 
L 181.72593 202.534459 
L 182.050909 202.198239 
L 182.375889 200.712541 
L 182.700868 202.042939 
L 183.025848 202.313714 
L 183.350827 200.479905 
L 183.675807 201.987542 
L 184.000786 200.798354 
L 184.325766 200.486551 
L 184.650745 199.459233 
L 184.975725 201.8458 
L 185.300704 200.491771 
L 185.625684 200.601792 
L 185.950663 198.973491 
L 186.275643 199.310769 
L 186.600622 198.160449 
L 186.925602 200.789149 
L 187.250581 198.69007 
L 187.575561 197.819179 
L 187.900541 198.751042 
L 188.5505 197.684077 
L 188.875479 198.466348 
L 189.200459 198.789118 
L 189.525438 197.791215 
L 189.850418 198.011136 
L 190.175397 196.592954 
L 190.500377 196.12537 
L 190.825356 199.314089 
L 191.150336 197.837165 
L 191.475315 198.274423 
L 191.800295 199.962619 
L 192.125274 196.284902 
L 192.450254 196.178397 
L 192.775233 196.793318 
L 193.100213 195.685433 
L 193.750172 199.424369 
L 194.075152 199.614336 
L 194.400131 197.95681 
L 194.725111 195.278617 
L 195.05009 195.160202 
L 195.37507 194.550501 
L 195.700049 197.396943 
L 196.025029 195.128208 
L 196.350008 195.781452 
L 196.674988 194.639919 
L 196.999967 193.019049 
L 197.324947 192.919697 
L 197.974906 197.577547 
L 198.299885 193.983868 
L 198.624865 195.437091 
L 198.949844 195.853042 
L 199.274824 193.747064 
L 199.599803 193.443838 
L 199.924783 193.683405 
L 200.249762 192.601609 
L 200.899722 193.687802 
L 201.224701 196.216276 
L 201.549681 194.483099 
L 201.87466 194.402639 
L 202.19964 195.17241 
L 202.524619 193.026043 
L 202.849599 195.015102 
L 203.174578 195.743307 
L 203.499558 191.993486 
L 203.824537 193.735584 
L 204.149517 194.239376 
L 204.474496 194.085184 
L 204.799476 191.972528 
L 205.124455 191.1684 
L 205.449435 189.985909 
L 205.774414 193.098749 
L 206.099394 194.628769 
L 206.424373 191.749522 
L 206.749353 192.199463 
L 207.074333 190.635377 
L 207.399312 190.828201 
L 207.724292 190.351563 
L 208.049271 190.780661 
L 208.374251 189.622991 
L 208.69923 190.570173 
L 209.349189 187.098052 
L 209.674169 191.590858 
L 209.999148 189.931095 
L 210.324128 191.503607 
L 210.649107 194.345113 
L 210.974087 191.717629 
L 211.299066 191.274911 
L 211.624046 192.384963 
L 211.949025 188.217912 
L 212.274005 190.575647 
L 212.598984 191.258807 
L 212.923964 191.009812 
L 213.248943 189.946933 
L 213.573923 189.886101 
L 213.898903 188.213033 
L 214.223882 189.197125 
L 214.548862 191.555734 
L 214.873841 188.181458 
L 215.198821 189.190321 
L 215.5238 187.957336 
L 215.84878 187.462604 
L 216.173759 189.687536 
L 216.498739 187.244666 
L 217.148698 187.527758 
L 217.473677 186.874425 
L 217.798657 186.482605 
L 218.123636 184.983115 
L 218.448616 186.213883 
L 218.773595 186.382189 
L 219.098575 189.247517 
L 219.423554 189.038423 
L 220.073514 184.730358 
L 220.398493 185.877346 
L 220.723473 188.048186 
L 221.048452 184.672604 
L 221.373432 186.746564 
L 221.698411 187.889649 
L 222.023391 186.524495 
L 222.34837 188.333102 
L 222.998329 184.448521 
L 223.323309 183.784279 
L 223.648288 188.558719 
L 223.973268 186.379908 
L 224.298247 185.353965 
L 224.623227 182.814999 
L 224.948206 184.563724 
L 225.273186 184.426765 
L 225.598165 183.781643 
L 225.923145 184.267176 
L 226.248124 183.743897 
L 226.898084 180.987931 
L 227.223063 180.692498 
L 227.548043 184.469555 
L 228.198002 180.250514 
L 228.522981 183.634611 
L 228.847961 180.424447 
L 229.17294 183.788156 
L 229.49792 180.354098 
L 229.822899 182.607388 
L 230.147879 182.544743 
L 230.472858 183.478912 
L 230.797838 182.529652 
L 231.122817 180.741154 
L 231.447797 181.141476 
L 231.772776 183.070785 
L 232.097756 179.218248 
L 232.422735 182.656196 
L 232.747715 184.454831 
L 233.072695 181.861837 
L 233.397674 180.495974 
L 233.722654 179.639743 
L 234.047633 181.025956 
L 234.372613 178.469682 
L 234.697592 181.428989 
L 235.022572 180.494567 
L 235.347551 182.256419 
L 235.672531 182.92559 
L 235.99751 182.081752 
L 236.32249 179.127335 
L 236.647469 179.096064 
L 236.972449 180.644488 
L 237.297428 177.694025 
L 237.622408 179.876611 
L 237.947387 179.578011 
L 238.272367 177.639274 
L 238.597346 179.525098 
L 238.922326 178.501118 
L 239.247305 178.105408 
L 239.572285 177.422832 
L 239.897265 179.434869 
L 240.222244 180.008933 
L 240.547224 178.215708 
L 240.872203 179.671458 
L 241.197183 182.214212 
L 241.522162 178.988945 
L 241.847142 181.692023 
L 242.172121 179.141096 
L 242.82208 175.958199 
L 243.14706 177.579088 
L 243.472039 176.418973 
L 243.797019 176.497064 
L 244.121998 177.465165 
L 244.446978 177.783544 
L 244.771957 176.54966 
L 245.096937 177.836166 
L 245.421916 176.602865 
L 245.746896 178.882345 
L 246.071876 176.022313 
L 246.396855 176.698593 
L 246.721835 174.408926 
L 247.046814 174.37626 
L 247.371794 172.982496 
L 247.696773 173.210608 
L 248.021753 176.556959 
L 248.671712 172.284916 
L 248.996691 174.73212 
L 249.321671 174.070121 
L 249.64665 177.25009 
L 249.97163 175.525681 
L 250.296609 179.917614 
L 250.621589 174.460268 
L 250.946568 175.844998 
L 251.271548 174.97042 
L 251.596527 174.479223 
L 251.921507 175.177613 
L 252.571466 177.614161 
L 253.221425 171.931603 
L 253.546405 169.335898 
L 254.196364 174.363741 
L 254.521343 172.006881 
L 255.171302 173.377521 
L 255.496282 171.137435 
L 255.821261 170.688381 
L 256.47122 175.018797 
L 256.7962 174.029245 
L 257.121179 171.291132 
L 257.446159 172.589016 
L 257.771138 174.35956 
L 258.096118 175.005962 
L 258.421097 171.880565 
L 258.746077 172.986918 
L 259.071057 172.648062 
L 259.396036 175.802285 
L 259.721016 168.612318 
L 260.045995 171.71008 
L 260.370975 170.746033 
L 260.695954 174.320027 
L 261.020934 172.077812 
L 261.345913 172.312273 
L 261.670893 174.252061 
L 261.995872 169.852006 
L 262.320852 172.804648 
L 262.645831 173.777589 
L 262.970811 169.672169 
L 263.62077 173.803235 
L 263.945749 172.761732 
L 264.270729 169.993678 
L 264.595708 169.387582 
L 264.920688 172.846145 
L 265.245667 171.708065 
L 265.570647 172.096185 
L 265.895627 171.808532 
L 266.220606 175.02123 
L 266.545586 169.856314 
L 266.870565 172.428781 
L 267.195545 171.826866 
L 267.520524 173.508765 
L 267.845504 173.671231 
L 268.170483 174.139747 
L 268.495463 173.766629 
L 268.820442 168.471735 
L 269.145422 170.279494 
L 269.470401 169.368741 
L 269.795381 169.993361 
L 270.12036 172.734654 
L 270.44534 169.440825 
L 270.770319 171.824484 
L 271.095299 172.403173 
L 271.420278 171.771102 
L 271.745258 167.242147 
L 272.070238 168.420849 
L 272.395217 168.160616 
L 272.720197 169.049069 
L 273.045176 164.831536 
L 273.370156 172.57148 
L 273.695135 171.182948 
L 274.020115 166.320395 
L 274.345094 170.180889 
L 274.670074 164.956103 
L 274.995053 166.590677 
L 275.320033 169.563706 
L 275.645012 168.243977 
L 275.969992 169.255755 
L 276.294971 168.017955 
L 276.619951 164.243509 
L 276.94493 168.34803 
L 277.26991 170.318431 
L 277.594889 167.392587 
L 277.919869 163.0004 
L 278.244848 167.798345 
L 278.569828 168.454959 
L 278.894808 168.147147 
L 279.219787 165.580394 
L 279.544767 164.121375 
L 279.869746 166.823034 
L 280.194726 163.904666 
L 280.519705 165.374924 
L 280.844685 170.048771 
L 281.169664 167.47012 
L 281.494644 166.787885 
L 281.819623 167.919858 
L 282.469582 166.5368 
L 282.794562 168.068563 
L 283.119541 167.296923 
L 283.444521 164.808437 
L 284.09448 166.850948 
L 284.419459 163.882986 
L 284.744439 165.493384 
L 285.069419 165.063133 
L 285.394398 162.997689 
L 285.719378 161.790046 
L 286.044357 162.416846 
L 286.694316 166.088773 
L 287.019296 163.527659 
L 287.344275 167.001084 
L 287.669255 165.279133 
L 287.994234 162.64392 
L 288.319214 161.578317 
L 288.644193 163.290752 
L 289.619132 163.365105 
L 289.944111 162.10693 
L 290.269091 161.468169 
L 290.59407 163.573831 
L 290.91905 161.708154 
L 291.244029 161.957947 
L 291.569009 164.376375 
L 291.893989 157.891109 
L 292.218968 160.470216 
L 292.543948 164.427793 
L 293.193907 161.270479 
L 293.518886 163.262205 
L 293.843866 158.711823 
L 294.493825 163.382033 
L 294.818804 163.722409 
L 295.143784 160.010962 
L 295.468763 163.941627 
L 295.793743 158.417835 
L 296.118722 160.752319 
L 296.443702 159.397872 
L 296.768681 162.862263 
L 297.093661 162.425069 
L 297.41864 164.453515 
L 298.0686 156.506543 
L 298.393579 157.622411 
L 298.718559 154.953849 
L 299.043538 159.431931 
L 299.368518 158.840318 
L 299.693497 159.910001 
L 300.018477 159.377966 
L 300.343456 161.00832 
L 300.668436 161.543497 
L 300.993415 159.572881 
L 301.318395 160.552652 
L 301.643374 157.293338 
L 301.968354 162.457139 
L 302.293333 160.960526 
L 302.618313 161.765959 
L 302.943292 163.742163 
L 303.268272 156.244042 
L 303.593251 157.438241 
L 303.918231 159.217008 
L 304.24321 154.908158 
L 304.89317 158.875391 
L 305.218149 155.304552 
L 305.543129 154.595581 
L 305.868108 156.159008 
L 306.193088 156.17752 
L 306.518067 156.800975 
L 306.843047 158.627575 
L 307.493006 157.244973 
L 307.817985 158.154434 
L 308.467944 155.634056 
L 308.792924 156.368913 
L 309.117903 156.67841 
L 309.442883 154.429682 
L 309.767862 156.412982 
L 310.417821 151.59555 
L 310.742801 148.294054 
L 311.39276 156.381888 
L 311.71774 158.505403 
L 312.042719 157.526785 
L 312.367699 155.540191 
L 312.692678 150.95931 
L 313.017658 150.632517 
L 313.342637 153.325294 
L 313.667617 153.973368 
L 313.992596 158.097314 
L 314.317576 157.213334 
L 314.642555 153.47448 
L 314.967535 156.348602 
L 315.292514 156.922552 
L 315.942473 152.701548 
L 316.267453 157.028518 
L 316.592432 156.629564 
L 316.917412 155.350471 
L 317.242391 155.057648 
L 317.567371 154.396333 
L 317.892351 154.852558 
L 318.21733 150.347563 
L 318.54231 147.708789 
L 318.867289 148.277671 
L 319.192269 154.179079 
L 319.517248 157.207049 
L 319.842228 153.34634 
L 320.167207 154.425577 
L 320.492187 153.27442 
L 320.817166 155.127604 
L 321.142146 154.610989 
L 321.467125 153.610856 
L 321.792105 156.027447 
L 322.117084 150.542998 
L 322.442064 148.32473 
L 322.767043 150.751293 
L 323.092023 151.930908 
L 323.417002 149.629622 
L 323.741982 150.198339 
L 324.066962 154.697594 
L 324.391941 157.275269 
L 324.716921 155.341107 
L 325.0419 155.359936 
L 325.36688 148.556391 
L 325.691859 151.480626 
L 326.016839 149.974078 
L 326.341818 153.803503 
L 326.666798 153.512239 
L 326.991777 150.695858 
L 327.316757 152.313339 
L 327.641736 150.196413 
L 327.966716 149.240032 
L 328.291695 151.82849 
L 328.616675 149.896989 
L 328.941654 151.572666 
L 329.266634 149.508464 
L 329.591613 148.66479 
L 329.916593 149.381464 
L 330.241572 149.098879 
L 330.566552 147.958734 
L 330.891532 150.746415 
L 331.216511 154.694984 
L 331.541491 150.800659 
L 331.86647 151.003278 
L 332.19145 149.397632 
L 332.516429 147.179593 
L 332.841409 148.594403 
L 333.166388 141.689391 
L 333.491368 148.16077 
L 333.816347 146.969739 
L 334.141327 149.461873 
L 334.791286 145.330249 
L 335.116265 147.663669 
L 335.441245 147.827236 
L 335.766224 145.203186 
L 336.091204 151.217415 
L 336.416183 146.326948 
L 336.741163 147.565191 
L 337.066143 150.02191 
L 337.391122 150.806171 
L 337.716102 147.340474 
L 338.041081 145.923535 
L 338.366061 143.072233 
L 338.69104 143.601493 
L 339.01602 146.595443 
L 339.340999 151.346644 
L 339.665979 146.984031 
L 339.990958 148.128979 
L 340.315938 148.104461 
L 340.965897 144.166662 
L 341.290876 148.384968 
L 341.615856 142.970208 
L 341.940835 144.497814 
L 342.265815 147.461886 
L 342.590794 144.400578 
L 342.915774 144.819678 
L 343.240753 143.684221 
L 343.565733 142.99617 
L 344.215692 144.651739 
L 344.540672 143.10889 
L 344.865651 143.570171 
L 345.190631 144.385044 
L 345.51561 140.93274 
L 345.84059 140.73538 
L 346.490549 146.831791 
L 346.815528 148.394623 
L 347.140508 140.715702 
L 347.465487 146.706718 
L 347.790467 141.128112 
L 348.115446 146.145692 
L 348.440426 140.803169 
L 348.765405 145.827959 
L 349.090385 144.758047 
L 349.415364 145.275954 
L 349.740344 147.810346 
L 350.065324 145.901361 
L 350.715283 140.79212 
L 351.040262 144.130132 
L 351.365242 143.472454 
L 351.690221 145.332264 
L 352.015201 145.049502 
L 352.34018 141.432566 
L 352.66516 143.754316 
L 352.990139 144.709696 
L 353.315119 138.646342 
L 353.640098 139.783371 
L 353.965078 143.487912 
L 354.290057 142.051358 
L 354.615037 145.926652 
L 354.940016 144.541605 
L 355.264996 139.287371 
L 355.589975 141.301613 
L 355.914955 145.780988 
L 356.239934 137.911473 
L 356.564914 141.518702 
L 356.889894 143.532906 
L 357.214873 141.979895 
L 357.539853 142.218613 
L 357.864832 143.819786 
L 358.189812 143.403676 
L 358.514791 137.664962 
L 358.839771 145.877223 
L 359.16475 143.082991 
L 359.48973 144.340582 
L 359.814709 143.712857 
L 360.139689 138.008721 
L 360.464668 143.419844 
L 360.789648 143.029723 
L 361.114627 139.935028 
L 361.439607 141.163337 
L 362.089566 140.568226 
L 362.414545 143.182875 
L 362.739525 140.716044 
L 363.064505 140.676891 
L 363.389484 140.383841 
L 363.714464 138.722202 
L 364.039443 140.278318 
L 364.364423 137.576925 
L 364.689402 141.076681 
L 365.014382 141.142569 
L 365.339361 137.724781 
L 365.664341 143.638454 
L 365.98932 139.323471 
L 366.3143 139.485834 
L 366.639279 141.898497 
L 366.964259 140.831222 
L 367.289238 143.166719 
L 367.939197 136.891751 
L 368.264177 139.397988 
L 368.589156 135.177364 
L 368.914136 140.362832 
L 369.239115 139.311256 
L 369.564095 140.113357 
L 369.889075 137.713453 
L 370.214054 137.239818 
L 370.539034 139.8792 
L 370.864013 137.612657 
L 371.188993 140.270614 
L 371.838952 132.475236 
L 372.81389 140.658531 
L 373.13887 140.93511 
L 373.463849 139.399166 
L 373.788829 136.239938 
L 374.113808 140.207399 
L 374.438788 135.310597 
L 374.763767 140.53157 
L 375.088747 137.551153 
L 375.413726 136.739359 
L 375.738706 136.832274 
L 376.063686 135.516397 
L 376.388665 139.155506 
L 376.713645 138.909515 
L 377.038624 137.799906 
L 377.363604 139.025681 
L 377.688583 133.132002 
L 378.338542 135.408581 
L 378.663522 140.913367 
L 378.988501 137.696614 
L 379.313481 137.406325 
L 379.96344 137.975954 
L 380.288419 136.20911 
L 380.613399 138.689651 
L 380.938378 138.401098 
L 381.263358 135.245596 
L 381.588337 137.178187 
L 381.913317 132.296134 
L 382.238296 135.086983 
L 382.563276 135.5964 
L 382.888256 133.742356 
L 383.213235 130.438313 
L 383.863194 135.9515 
L 384.188174 141.307404 
L 384.513153 141.726656 
L 384.838133 137.961827 
L 385.163112 137.559857 
L 385.488092 137.876235 
L 385.813071 130.667034 
L 386.138051 135.417945 
L 386.46303 134.526248 
L 386.78801 132.818805 
L 387.112989 134.940964 
L 387.762948 137.555271 
L 388.087928 135.089922 
L 388.412907 134.184567 
L 388.737887 133.831102 
L 389.062867 137.29339 
L 389.712826 133.671754 
L 390.362785 126.125408 
L 390.687764 128.807592 
L 391.012744 130.527668 
L 391.662703 124.486146 
L 391.987682 133.298928 
L 392.312662 127.303426 
L 392.637641 132.036661 
L 392.962621 131.180443 
L 393.2876 125.213286 
L 393.61258 130.661903 
L 393.937559 128.125572 
L 394.262539 133.580676 
L 394.587518 131.534719 
L 394.912498 130.427632 
L 395.237477 136.17604 
L 395.562457 130.302305 
L 395.887437 132.245109 
L 396.862375 128.121822 
L 397.187355 130.7832 
L 397.512334 134.584053 
L 397.837314 129.457655 
L 398.162293 128.926647 
L 398.487273 132.491188 
L 398.487273 132.491188 
" clip-path="url(#pd84bbc060c)" style="fill: none; stroke: #ff0000; stroke-width: 1.5; stroke-linecap: square"/>
   </g>
   <g id="patch_3">
    <path d="M 57.6 307.584 
L 57.6 41.472 
" style="fill: none; stroke: #000000; stroke-width: 0.8; stroke-linejoin: miter; stroke-linecap: square"/>
   </g>
   <g id="patch_4">
    <path d="M 414.72 307.584 
L 414.72 41.472 
" style="fill: none; stroke: #000000; stroke-width: 0.8; stroke-linejoin: miter; stroke-linecap: square"/>
   </g>
   <g id="patch_5">
    <path d="M 57.6 307.584 
L 414.72 307.584 
" style="fill: none; stroke: #000000; stroke-width: 0.8; stroke-linejoin: miter; stroke-linecap: square"/>
   </g>
   <g id="patch_6">
    <path d="M 57.6 41.472 
L 414.72 41.472 
" style="fill: none; stroke: #000000; stroke-width: 0.8; stroke-linejoin: miter; stroke-linecap: square"/>
   </g>
   <g id="text_14">
    <!-- spectrumGCN+WikiCs+WithGraph_WikiCs_WithOutGraph_Training and Validation loss -->
    <g transform="translate(-21.278437 35.472) scale(0.12 -0.12)">
     <defs>
      <path id="DejaVuSans-74" d="M 1172 4494 
L 1172 3500 
L 2356 3500 
L 2356 3053 
L 1172 3053 
L 1172 1153 
Q 1172 725 1289 603 
Q 1406 481 1766 481 
L 2356 481 
L 2356 0 
L 1766 0 
Q 1100 0 847 248 
Q 594 497 594 1153 
L 594 3053 
L 172 3053 
L 172 3500 
L 594 3500 
L 594 4494 
L 1172 4494 
z
" transform="scale(0.015625)"/>
      <path id="DejaVuSans-72" d="M 2631 2963 
Q 2534 3019 2420 3045 
Q 2306 3072 2169 3072 
Q 1681 3072 1420 2755 
Q 1159 2438 1159 1844 
L 1159 0 
L 581 0 
L 581 3500 
L 1159 3500 
L 1159 2956 
Q 1341 3275 1631 3429 
Q 1922 3584 2338 3584 
Q 2397 3584 2469 3576 
Q 2541 3569 2628 3553 
L 2631 2963 
z
" transform="scale(0.015625)"/>
      <path id="DejaVuSans-75" d="M 544 1381 
L 544 3500 
L 1119 3500 
L 1119 1403 
Q 1119 906 1312 657 
Q 1506 409 1894 409 
Q 2359 409 2629 706 
Q 2900 1003 2900 1516 
L 2900 3500 
L 3475 3500 
L 3475 0 
L 2900 0 
L 2900 538 
Q 2691 219 2414 64 
Q 2138 -91 1772 -91 
Q 1169 -91 856 284 
Q 544 659 544 1381 
z
M 1991 3584 
L 1991 3584 
z
" transform="scale(0.015625)"/>
      <path id="DejaVuSans-6d" d="M 3328 2828 
Q 3544 3216 3844 3400 
Q 4144 3584 4550 3584 
Q 5097 3584 5394 3201 
Q 5691 2819 5691 2113 
L 5691 0 
L 5113 0 
L 5113 2094 
Q 5113 2597 4934 2840 
Q 4756 3084 4391 3084 
Q 3944 3084 3684 2787 
Q 3425 2491 3425 1978 
L 3425 0 
L 2847 0 
L 2847 2094 
Q 2847 2600 2669 2842 
Q 2491 3084 2119 3084 
Q 1678 3084 1418 2786 
Q 1159 2488 1159 1978 
L 1159 0 
L 581 0 
L 581 3500 
L 1159 3500 
L 1159 2956 
Q 1356 3278 1631 3431 
Q 1906 3584 2284 3584 
Q 2666 3584 2933 3390 
Q 3200 3197 3328 2828 
z
" transform="scale(0.015625)"/>
      <path id="DejaVuSans-47" d="M 3809 666 
L 3809 1919 
L 2778 1919 
L 2778 2438 
L 4434 2438 
L 4434 434 
Q 4069 175 3628 42 
Q 3188 -91 2688 -91 
Q 1594 -91 976 548 
Q 359 1188 359 2328 
Q 359 3472 976 4111 
Q 1594 4750 2688 4750 
Q 3144 4750 3555 4637 
Q 3966 4525 4313 4306 
L 4313 3634 
Q 3963 3931 3569 4081 
Q 3175 4231 2741 4231 
Q 1884 4231 1454 3753 
Q 1025 3275 1025 2328 
Q 1025 1384 1454 906 
Q 1884 428 2741 428 
Q 3075 428 3337 486 
Q 3600 544 3809 666 
z
" transform="scale(0.015625)"/>
      <path id="DejaVuSans-43" d="M 4122 4306 
L 4122 3641 
Q 3803 3938 3442 4084 
Q 3081 4231 2675 4231 
Q 1875 4231 1450 3742 
Q 1025 3253 1025 2328 
Q 1025 1406 1450 917 
Q 1875 428 2675 428 
Q 3081 428 3442 575 
Q 3803 722 4122 1019 
L 4122 359 
Q 3791 134 3420 21 
Q 3050 -91 2638 -91 
Q 1578 -91 968 557 
Q 359 1206 359 2328 
Q 359 3453 968 4101 
Q 1578 4750 2638 4750 
Q 3056 4750 3426 4639 
Q 3797 4528 4122 4306 
z
" transform="scale(0.015625)"/>
      <path id="DejaVuSans-4e" d="M 628 4666 
L 1478 4666 
L 3547 763 
L 3547 4666 
L 4159 4666 
L 4159 0 
L 3309 0 
L 1241 3903 
L 1241 0 
L 628 0 
L 628 4666 
z
" transform="scale(0.015625)"/>
      <path id="DejaVuSans-2b" d="M 2944 4013 
L 2944 2272 
L 4684 2272 
L 4684 1741 
L 2944 1741 
L 2944 0 
L 2419 0 
L 2419 1741 
L 678 1741 
L 678 2272 
L 2419 2272 
L 2419 4013 
L 2944 4013 
z
" transform="scale(0.015625)"/>
      <path id="DejaVuSans-57" d="M 213 4666 
L 850 4666 
L 1831 722 
L 2809 4666 
L 3519 4666 
L 4500 722 
L 5478 4666 
L 6119 4666 
L 4947 0 
L 4153 0 
L 3169 4050 
L 2175 0 
L 1381 0 
L 213 4666 
z
" transform="scale(0.015625)"/>
      <path id="DejaVuSans-69" d="M 603 3500 
L 1178 3500 
L 1178 0 
L 603 0 
L 603 3500 
z
M 603 4863 
L 1178 4863 
L 1178 4134 
L 603 4134 
L 603 4863 
z
" transform="scale(0.015625)"/>
      <path id="DejaVuSans-6b" d="M 581 4863 
L 1159 4863 
L 1159 1991 
L 2875 3500 
L 3609 3500 
L 1753 1863 
L 3688 0 
L 2938 0 
L 1159 1709 
L 1159 0 
L 581 0 
L 581 4863 
z
" transform="scale(0.015625)"/>
      <path id="DejaVuSans-61" d="M 2194 1759 
Q 1497 1759 1228 1600 
Q 959 1441 959 1056 
Q 959 750 1161 570 
Q 1363 391 1709 391 
Q 2188 391 2477 730 
Q 2766 1069 2766 1631 
L 2766 1759 
L 2194 1759 
z
M 3341 1997 
L 3341 0 
L 2766 0 
L 2766 531 
Q 2569 213 2275 61 
Q 1981 -91 1556 -91 
Q 1019 -91 701 211 
Q 384 513 384 1019 
Q 384 1609 779 1909 
Q 1175 2209 1959 2209 
L 2766 2209 
L 2766 2266 
Q 2766 2663 2505 2880 
Q 2244 3097 1772 3097 
Q 1472 3097 1187 3025 
Q 903 2953 641 2809 
L 641 3341 
Q 956 3463 1253 3523 
Q 1550 3584 1831 3584 
Q 2591 3584 2966 3190 
Q 3341 2797 3341 1997 
z
" transform="scale(0.015625)"/>
      <path id="DejaVuSans-5f" d="M 3263 -1063 
L 3263 -1509 
L -63 -1509 
L -63 -1063 
L 3263 -1063 
z
" transform="scale(0.015625)"/>
      <path id="DejaVuSans-4f" d="M 2522 4238 
Q 1834 4238 1429 3725 
Q 1025 3213 1025 2328 
Q 1025 1447 1429 934 
Q 1834 422 2522 422 
Q 3209 422 3611 934 
Q 4013 1447 4013 2328 
Q 4013 3213 3611 3725 
Q 3209 4238 2522 4238 
z
M 2522 4750 
Q 3503 4750 4090 4092 
Q 4678 3434 4678 2328 
Q 4678 1225 4090 567 
Q 3503 -91 2522 -91 
Q 1538 -91 948 565 
Q 359 1222 359 2328 
Q 359 3434 948 4092 
Q 1538 4750 2522 4750 
z
" transform="scale(0.015625)"/>
      <path id="DejaVuSans-54" d="M -19 4666 
L 3928 4666 
L 3928 4134 
L 2272 4134 
L 2272 0 
L 1638 0 
L 1638 4134 
L -19 4134 
L -19 4666 
z
" transform="scale(0.015625)"/>
      <path id="DejaVuSans-6e" d="M 3513 2113 
L 3513 0 
L 2938 0 
L 2938 2094 
Q 2938 2591 2744 2837 
Q 2550 3084 2163 3084 
Q 1697 3084 1428 2787 
Q 1159 2491 1159 1978 
L 1159 0 
L 581 0 
L 581 3500 
L 1159 3500 
L 1159 2956 
Q 1366 3272 1645 3428 
Q 1925 3584 2291 3584 
Q 2894 3584 3203 3211 
Q 3513 2838 3513 2113 
z
" transform="scale(0.015625)"/>
      <path id="DejaVuSans-67" d="M 2906 1791 
Q 2906 2416 2648 2759 
Q 2391 3103 1925 3103 
Q 1463 3103 1205 2759 
Q 947 2416 947 1791 
Q 947 1169 1205 825 
Q 1463 481 1925 481 
Q 2391 481 2648 825 
Q 2906 1169 2906 1791 
z
M 3481 434 
Q 3481 -459 3084 -895 
Q 2688 -1331 1869 -1331 
Q 1566 -1331 1297 -1286 
Q 1028 -1241 775 -1147 
L 775 -588 
Q 1028 -725 1275 -790 
Q 1522 -856 1778 -856 
Q 2344 -856 2625 -561 
Q 2906 -266 2906 331 
L 2906 616 
Q 2728 306 2450 153 
Q 2172 0 1784 0 
Q 1141 0 747 490 
Q 353 981 353 1791 
Q 353 2603 747 3093 
Q 1141 3584 1784 3584 
Q 2172 3584 2450 3431 
Q 2728 3278 2906 2969 
L 2906 3500 
L 3481 3500 
L 3481 434 
z
" transform="scale(0.015625)"/>
      <path id="DejaVuSans-20" transform="scale(0.015625)"/>
      <path id="DejaVuSans-64" d="M 2906 2969 
L 2906 4863 
L 3481 4863 
L 3481 0 
L 2906 0 
L 2906 525 
Q 2725 213 2448 61 
Q 2172 -91 1784 -91 
Q 1150 -91 751 415 
Q 353 922 353 1747 
Q 353 2572 751 3078 
Q 1150 3584 1784 3584 
Q 2172 3584 2448 3432 
Q 2725 3281 2906 2969 
z
M 947 1747 
Q 947 1113 1208 752 
Q 1469 391 1925 391 
Q 2381 391 2643 752 
Q 2906 1113 2906 1747 
Q 2906 2381 2643 2742 
Q 2381 3103 1925 3103 
Q 1469 3103 1208 2742 
Q 947 2381 947 1747 
z
" transform="scale(0.015625)"/>
      <path id="DejaVuSans-56" d="M 1831 0 
L 50 4666 
L 709 4666 
L 2188 738 
L 3669 4666 
L 4325 4666 
L 2547 0 
L 1831 0 
z
" transform="scale(0.015625)"/>
     </defs>
     <use xlink:href="#DejaVuSans-73"/>
     <use xlink:href="#DejaVuSans-70" x="52.099609"/>
     <use xlink:href="#DejaVuSans-65" x="115.576172"/>
     <use xlink:href="#DejaVuSans-63" x="177.099609"/>
     <use xlink:href="#DejaVuSans-74" x="232.080078"/>
     <use xlink:href="#DejaVuSans-72" x="271.289062"/>
     <use xlink:href="#DejaVuSans-75" x="312.402344"/>
     <use xlink:href="#DejaVuSans-6d" x="375.78125"/>
     <use xlink:href="#DejaVuSans-47" x="473.193359"/>
     <use xlink:href="#DejaVuSans-43" x="550.683594"/>
     <use xlink:href="#DejaVuSans-4e" x="620.507812"/>
     <use xlink:href="#DejaVuSans-2b" x="695.3125"/>
     <use xlink:href="#DejaVuSans-57" x="779.101562"/>
     <use xlink:href="#DejaVuSans-69" x="875.728516"/>
     <use xlink:href="#DejaVuSans-6b" x="903.511719"/>
     <use xlink:href="#DejaVuSans-69" x="961.421875"/>
     <use xlink:href="#DejaVuSans-43" x="989.205078"/>
     <use xlink:href="#DejaVuSans-73" x="1059.029297"/>
     <use xlink:href="#DejaVuSans-2b" x="1111.128906"/>
     <use xlink:href="#DejaVuSans-57" x="1194.917969"/>
     <use xlink:href="#DejaVuSans-69" x="1291.544922"/>
     <use xlink:href="#DejaVuSans-74" x="1319.328125"/>
     <use xlink:href="#DejaVuSans-68" x="1358.537109"/>
     <use xlink:href="#DejaVuSans-47" x="1421.916016"/>
     <use xlink:href="#DejaVuSans-72" x="1499.40625"/>
     <use xlink:href="#DejaVuSans-61" x="1540.519531"/>
     <use xlink:href="#DejaVuSans-70" x="1601.798828"/>
     <use xlink:href="#DejaVuSans-68" x="1665.275391"/>
     <use xlink:href="#DejaVuSans-5f" x="1728.654297"/>
     <use xlink:href="#DejaVuSans-57" x="1778.654297"/>
     <use xlink:href="#DejaVuSans-69" x="1875.28125"/>
     <use xlink:href="#DejaVuSans-6b" x="1903.064453"/>
     <use xlink:href="#DejaVuSans-69" x="1960.974609"/>
     <use xlink:href="#DejaVuSans-43" x="1988.757812"/>
     <use xlink:href="#DejaVuSans-73" x="2058.582031"/>
     <use xlink:href="#DejaVuSans-5f" x="2110.681641"/>
     <use xlink:href="#DejaVuSans-57" x="2160.681641"/>
     <use xlink:href="#DejaVuSans-69" x="2257.308594"/>
     <use xlink:href="#DejaVuSans-74" x="2285.091797"/>
     <use xlink:href="#DejaVuSans-68" x="2324.300781"/>
     <use xlink:href="#DejaVuSans-4f" x="2387.679688"/>
     <use xlink:href="#DejaVuSans-75" x="2466.390625"/>
     <use xlink:href="#DejaVuSans-74" x="2529.769531"/>
     <use xlink:href="#DejaVuSans-47" x="2568.978516"/>
     <use xlink:href="#DejaVuSans-72" x="2646.46875"/>
     <use xlink:href="#DejaVuSans-61" x="2687.582031"/>
     <use xlink:href="#DejaVuSans-70" x="2748.861328"/>
     <use xlink:href="#DejaVuSans-68" x="2812.337891"/>
     <use xlink:href="#DejaVuSans-5f" x="2875.716797"/>
     <use xlink:href="#DejaVuSans-54" x="2925.716797"/>
     <use xlink:href="#DejaVuSans-72" x="2972.050781"/>
     <use xlink:href="#DejaVuSans-61" x="3013.164062"/>
     <use xlink:href="#DejaVuSans-69" x="3074.443359"/>
     <use xlink:href="#DejaVuSans-6e" x="3102.226562"/>
     <use xlink:href="#DejaVuSans-69" x="3165.605469"/>
     <use xlink:href="#DejaVuSans-6e" x="3193.388672"/>
     <use xlink:href="#DejaVuSans-67" x="3256.767578"/>
     <use xlink:href="#DejaVuSans-20" x="3320.244141"/>
     <use xlink:href="#DejaVuSans-61" x="3352.03125"/>
     <use xlink:href="#DejaVuSans-6e" x="3413.310547"/>
     <use xlink:href="#DejaVuSans-64" x="3476.689453"/>
     <use xlink:href="#DejaVuSans-20" x="3540.166016"/>
     <use xlink:href="#DejaVuSans-56" x="3571.953125"/>
     <use xlink:href="#DejaVuSans-61" x="3632.611328"/>
     <use xlink:href="#DejaVuSans-6c" x="3693.890625"/>
     <use xlink:href="#DejaVuSans-69" x="3721.673828"/>
     <use xlink:href="#DejaVuSans-64" x="3749.457031"/>
     <use xlink:href="#DejaVuSans-61" x="3812.933594"/>
     <use xlink:href="#DejaVuSans-74" x="3874.212891"/>
     <use xlink:href="#DejaVuSans-69" x="3913.421875"/>
     <use xlink:href="#DejaVuSans-6f" x="3941.205078"/>
     <use xlink:href="#DejaVuSans-6e" x="4002.386719"/>
     <use xlink:href="#DejaVuSans-20" x="4065.765625"/>
     <use xlink:href="#DejaVuSans-6c" x="4097.552734"/>
     <use xlink:href="#DejaVuSans-6f" x="4125.335938"/>
     <use xlink:href="#DejaVuSans-73" x="4186.517578"/>
     <use xlink:href="#DejaVuSans-73" x="4238.617188"/>
    </g>
   </g>
   <g id="legend_1">
    <g id="patch_7">
     <path d="M 308.024688 93.506375 
L 407.72 93.506375 
Q 409.72 93.506375 409.72 91.506375 
L 409.72 48.472 
Q 409.72 46.472 407.72 46.472 
L 308.024688 46.472 
Q 306.024688 46.472 306.024688 48.472 
L 306.024688 91.506375 
Q 306.024688 93.506375 308.024688 93.506375 
z
" style="fill: #ffffff; opacity: 0.8; stroke: #cccccc; stroke-linejoin: miter"/>
    </g>
    <g id="line2d_15">
     <path d="M 310.024688 54.570438 
L 320.024688 54.570438 
L 330.024688 54.570438 
" style="fill: none; stroke: #0000ff; stroke-width: 1.5; stroke-linecap: square"/>
    </g>
    <g id="text_15">
     <!-- training set -->
     <g transform="translate(338.024688 58.070438) scale(0.1 -0.1)">
      <use xlink:href="#DejaVuSans-74"/>
      <use xlink:href="#DejaVuSans-72" x="39.208984"/>
      <use xlink:href="#DejaVuSans-61" x="80.322266"/>
      <use xlink:href="#DejaVuSans-69" x="141.601562"/>
      <use xlink:href="#DejaVuSans-6e" x="169.384766"/>
      <use xlink:href="#DejaVuSans-69" x="232.763672"/>
      <use xlink:href="#DejaVuSans-6e" x="260.546875"/>
      <use xlink:href="#DejaVuSans-67" x="323.925781"/>
      <use xlink:href="#DejaVuSans-20" x="387.402344"/>
      <use xlink:href="#DejaVuSans-73" x="419.189453"/>
      <use xlink:href="#DejaVuSans-65" x="471.289062"/>
      <use xlink:href="#DejaVuSans-74" x="532.8125"/>
     </g>
    </g>
    <g id="line2d_16">
     <path d="M 310.024688 69.248563 
L 320.024688 69.248563 
L 330.024688 69.248563 
" style="fill: none; stroke: #008000; stroke-width: 1.5; stroke-linecap: square"/>
    </g>
    <g id="text_16">
     <!-- validation set -->
     <g transform="translate(338.024688 72.748563) scale(0.1 -0.1)">
      <defs>
       <path id="DejaVuSans-76" d="M 191 3500 
L 800 3500 
L 1894 563 
L 2988 3500 
L 3597 3500 
L 2284 0 
L 1503 0 
L 191 3500 
z
" transform="scale(0.015625)"/>
      </defs>
      <use xlink:href="#DejaVuSans-76"/>
      <use xlink:href="#DejaVuSans-61" x="59.179688"/>
      <use xlink:href="#DejaVuSans-6c" x="120.458984"/>
      <use xlink:href="#DejaVuSans-69" x="148.242188"/>
      <use xlink:href="#DejaVuSans-64" x="176.025391"/>
      <use xlink:href="#DejaVuSans-61" x="239.501953"/>
      <use xlink:href="#DejaVuSans-74" x="300.78125"/>
      <use xlink:href="#DejaVuSans-69" x="339.990234"/>
      <use xlink:href="#DejaVuSans-6f" x="367.773438"/>
      <use xlink:href="#DejaVuSans-6e" x="428.955078"/>
      <use xlink:href="#DejaVuSans-20" x="492.333984"/>
      <use xlink:href="#DejaVuSans-73" x="524.121094"/>
      <use xlink:href="#DejaVuSans-65" x="576.220703"/>
      <use xlink:href="#DejaVuSans-74" x="637.744141"/>
     </g>
    </g>
    <g id="line2d_17">
     <path d="M 310.024688 83.926688 
L 320.024688 83.926688 
L 330.024688 83.926688 
" style="fill: none; stroke: #ff0000; stroke-width: 1.5; stroke-linecap: square"/>
    </g>
    <g id="text_17">
     <!-- test set -->
     <g transform="translate(338.024688 87.426688) scale(0.1 -0.1)">
      <use xlink:href="#DejaVuSans-74"/>
      <use xlink:href="#DejaVuSans-65" x="39.208984"/>
      <use xlink:href="#DejaVuSans-73" x="100.732422"/>
      <use xlink:href="#DejaVuSans-74" x="152.832031"/>
      <use xlink:href="#DejaVuSans-20" x="192.041016"/>
      <use xlink:href="#DejaVuSans-73" x="223.828125"/>
      <use xlink:href="#DejaVuSans-65" x="275.927734"/>
      <use xlink:href="#DejaVuSans-74" x="337.451172"/>
     </g>
    </g>
   </g>
  </g>
 </g>
 <defs>
  <clipPath id="pd84bbc060c">
   <rect x="57.6" y="41.472" width="357.12" height="266.112"/>
  </clipPath>
 </defs>
</svg>
