<?xml version="1.0" encoding="utf-8" standalone="no"?>
<!DOCTYPE svg PUBLIC "-//W3C//DTD SVG 1.1//EN"
  "http://www.w3.org/Graphics/SVG/1.1/DTD/svg11.dtd">
<svg xmlns:xlink="http://www.w3.org/1999/xlink" width="460.8pt" height="345.6pt" viewBox="0 0 460.8 345.6" xmlns="http://www.w3.org/2000/svg" version="1.1">
 <metadata>
  <rdf:RDF xmlns:dc="http://purl.org/dc/elements/1.1/" xmlns:cc="http://creativecommons.org/ns#" xmlns:rdf="http://www.w3.org/1999/02/22-rdf-syntax-ns#">
   <cc:Work>
    <dc:type rdf:resource="http://purl.org/dc/dcmitype/StillImage"/>
    <dc:date>2023-04-09T03:59:52.961133</dc:date>
    <dc:format>image/svg+xml</dc:format>
    <dc:creator>
     <cc:Agent>
      <dc:title>Matplotlib v3.7.1, https://matplotlib.org/</dc:title>
     </cc:Agent>
    </dc:creator>
   </cc:Work>
  </rdf:RDF>
 </metadata>
 <defs>
  <style type="text/css">*{stroke-linejoin: round; stroke-linecap: butt}</style>
 </defs>
 <g id="figure_1">
  <g id="patch_1">
   <path d="M 0 345.6 
L 460.8 345.6 
L 460.8 0 
L 0 0 
z
" style="fill: #ffffff"/>
  </g>
  <g id="axes_1">
   <g id="patch_2">
    <path d="M 57.6 307.584 
L 414.72 307.584 
L 414.72 41.472 
L 57.6 41.472 
z
" style="fill: #ffffff"/>
   </g>
   <g id="matplotlib.axis_1">
    <g id="xtick_1">
     <g id="line2d_1">
      <defs>
       <path id="m88be9f4082" d="M 0 0 
L 0 3.5 
" style="stroke: #000000; stroke-width: 0.8"/>
      </defs>
      <g>
       <use xlink:href="#m88be9f4082" x="73.507748" y="307.584" style="stroke: #000000; stroke-width: 0.8"/>
      </g>
     </g>
     <g id="text_1">
      <!-- 0 -->
      <g transform="translate(70.326498 322.182437) scale(0.1 -0.1)">
       <defs>
        <path id="DejaVuSans-30" d="M 2034 4250 
Q 1547 4250 1301 3770 
Q 1056 3291 1056 2328 
Q 1056 1369 1301 889 
Q 1547 409 2034 409 
Q 2525 409 2770 889 
Q 3016 1369 3016 2328 
Q 3016 3291 2770 3770 
Q 2525 4250 2034 4250 
z
M 2034 4750 
Q 2819 4750 3233 4129 
Q 3647 3509 3647 2328 
Q 3647 1150 3233 529 
Q 2819 -91 2034 -91 
Q 1250 -91 836 529 
Q 422 1150 422 2328 
Q 422 3509 836 4129 
Q 1250 4750 2034 4750 
z
" transform="scale(0.015625)"/>
       </defs>
       <use xlink:href="#DejaVuSans-30"/>
      </g>
     </g>
    </g>
    <g id="xtick_2">
     <g id="line2d_2">
      <g>
       <use xlink:href="#m88be9f4082" x="138.503653" y="307.584" style="stroke: #000000; stroke-width: 0.8"/>
      </g>
     </g>
     <g id="text_2">
      <!-- 200 -->
      <g transform="translate(128.959903 322.182437) scale(0.1 -0.1)">
       <defs>
        <path id="DejaVuSans-32" d="M 1228 531 
L 3431 531 
L 3431 0 
L 469 0 
L 469 531 
Q 828 903 1448 1529 
Q 2069 2156 2228 2338 
Q 2531 2678 2651 2914 
Q 2772 3150 2772 3378 
Q 2772 3750 2511 3984 
Q 2250 4219 1831 4219 
Q 1534 4219 1204 4116 
Q 875 4013 500 3803 
L 500 4441 
Q 881 4594 1212 4672 
Q 1544 4750 1819 4750 
Q 2544 4750 2975 4387 
Q 3406 4025 3406 3419 
Q 3406 3131 3298 2873 
Q 3191 2616 2906 2266 
Q 2828 2175 2409 1742 
Q 1991 1309 1228 531 
z
" transform="scale(0.015625)"/>
       </defs>
       <use xlink:href="#DejaVuSans-32"/>
       <use xlink:href="#DejaVuSans-30" x="63.623047"/>
       <use xlink:href="#DejaVuSans-30" x="127.246094"/>
      </g>
     </g>
    </g>
    <g id="xtick_3">
     <g id="line2d_3">
      <g>
       <use xlink:href="#m88be9f4082" x="203.499558" y="307.584" style="stroke: #000000; stroke-width: 0.8"/>
      </g>
     </g>
     <g id="text_3">
      <!-- 400 -->
      <g transform="translate(193.955808 322.182437) scale(0.1 -0.1)">
       <defs>
        <path id="DejaVuSans-34" d="M 2419 4116 
L 825 1625 
L 2419 1625 
L 2419 4116 
z
M 2253 4666 
L 3047 4666 
L 3047 1625 
L 3713 1625 
L 3713 1100 
L 3047 1100 
L 3047 0 
L 2419 0 
L 2419 1100 
L 313 1100 
L 313 1709 
L 2253 4666 
z
" transform="scale(0.015625)"/>
       </defs>
       <use xlink:href="#DejaVuSans-34"/>
       <use xlink:href="#DejaVuSans-30" x="63.623047"/>
       <use xlink:href="#DejaVuSans-30" x="127.246094"/>
      </g>
     </g>
    </g>
    <g id="xtick_4">
     <g id="line2d_4">
      <g>
       <use xlink:href="#m88be9f4082" x="268.495463" y="307.584" style="stroke: #000000; stroke-width: 0.8"/>
      </g>
     </g>
     <g id="text_4">
      <!-- 600 -->
      <g transform="translate(258.951713 322.182437) scale(0.1 -0.1)">
       <defs>
        <path id="DejaVuSans-36" d="M 2113 2584 
Q 1688 2584 1439 2293 
Q 1191 2003 1191 1497 
Q 1191 994 1439 701 
Q 1688 409 2113 409 
Q 2538 409 2786 701 
Q 3034 994 3034 1497 
Q 3034 2003 2786 2293 
Q 2538 2584 2113 2584 
z
M 3366 4563 
L 3366 3988 
Q 3128 4100 2886 4159 
Q 2644 4219 2406 4219 
Q 1781 4219 1451 3797 
Q 1122 3375 1075 2522 
Q 1259 2794 1537 2939 
Q 1816 3084 2150 3084 
Q 2853 3084 3261 2657 
Q 3669 2231 3669 1497 
Q 3669 778 3244 343 
Q 2819 -91 2113 -91 
Q 1303 -91 875 529 
Q 447 1150 447 2328 
Q 447 3434 972 4092 
Q 1497 4750 2381 4750 
Q 2619 4750 2861 4703 
Q 3103 4656 3366 4563 
z
" transform="scale(0.015625)"/>
       </defs>
       <use xlink:href="#DejaVuSans-36"/>
       <use xlink:href="#DejaVuSans-30" x="63.623047"/>
       <use xlink:href="#DejaVuSans-30" x="127.246094"/>
      </g>
     </g>
    </g>
    <g id="xtick_5">
     <g id="line2d_5">
      <g>
       <use xlink:href="#m88be9f4082" x="333.491368" y="307.584" style="stroke: #000000; stroke-width: 0.8"/>
      </g>
     </g>
     <g id="text_5">
      <!-- 800 -->
      <g transform="translate(323.947618 322.182437) scale(0.1 -0.1)">
       <defs>
        <path id="DejaVuSans-38" d="M 2034 2216 
Q 1584 2216 1326 1975 
Q 1069 1734 1069 1313 
Q 1069 891 1326 650 
Q 1584 409 2034 409 
Q 2484 409 2743 651 
Q 3003 894 3003 1313 
Q 3003 1734 2745 1975 
Q 2488 2216 2034 2216 
z
M 1403 2484 
Q 997 2584 770 2862 
Q 544 3141 544 3541 
Q 544 4100 942 4425 
Q 1341 4750 2034 4750 
Q 2731 4750 3128 4425 
Q 3525 4100 3525 3541 
Q 3525 3141 3298 2862 
Q 3072 2584 2669 2484 
Q 3125 2378 3379 2068 
Q 3634 1759 3634 1313 
Q 3634 634 3220 271 
Q 2806 -91 2034 -91 
Q 1263 -91 848 271 
Q 434 634 434 1313 
Q 434 1759 690 2068 
Q 947 2378 1403 2484 
z
M 1172 3481 
Q 1172 3119 1398 2916 
Q 1625 2713 2034 2713 
Q 2441 2713 2670 2916 
Q 2900 3119 2900 3481 
Q 2900 3844 2670 4047 
Q 2441 4250 2034 4250 
Q 1625 4250 1398 4047 
Q 1172 3844 1172 3481 
z
" transform="scale(0.015625)"/>
       </defs>
       <use xlink:href="#DejaVuSans-38"/>
       <use xlink:href="#DejaVuSans-30" x="63.623047"/>
       <use xlink:href="#DejaVuSans-30" x="127.246094"/>
      </g>
     </g>
    </g>
    <g id="xtick_6">
     <g id="line2d_6">
      <g>
       <use xlink:href="#m88be9f4082" x="398.487273" y="307.584" style="stroke: #000000; stroke-width: 0.8"/>
      </g>
     </g>
     <g id="text_6">
      <!-- 1000 -->
      <g transform="translate(385.762273 322.182437) scale(0.1 -0.1)">
       <defs>
        <path id="DejaVuSans-31" d="M 794 531 
L 1825 531 
L 1825 4091 
L 703 3866 
L 703 4441 
L 1819 4666 
L 2450 4666 
L 2450 531 
L 3481 531 
L 3481 0 
L 794 0 
L 794 531 
z
" transform="scale(0.015625)"/>
       </defs>
       <use xlink:href="#DejaVuSans-31"/>
       <use xlink:href="#DejaVuSans-30" x="63.623047"/>
       <use xlink:href="#DejaVuSans-30" x="127.246094"/>
       <use xlink:href="#DejaVuSans-30" x="190.869141"/>
      </g>
     </g>
    </g>
    <g id="text_7">
     <!-- epoch -->
     <g transform="translate(220.931875 335.860562) scale(0.1 -0.1)">
      <defs>
       <path id="DejaVuSans-65" d="M 3597 1894 
L 3597 1613 
L 953 1613 
Q 991 1019 1311 708 
Q 1631 397 2203 397 
Q 2534 397 2845 478 
Q 3156 559 3463 722 
L 3463 178 
Q 3153 47 2828 -22 
Q 2503 -91 2169 -91 
Q 1331 -91 842 396 
Q 353 884 353 1716 
Q 353 2575 817 3079 
Q 1281 3584 2069 3584 
Q 2775 3584 3186 3129 
Q 3597 2675 3597 1894 
z
M 3022 2063 
Q 3016 2534 2758 2815 
Q 2500 3097 2075 3097 
Q 1594 3097 1305 2825 
Q 1016 2553 972 2059 
L 3022 2063 
z
" transform="scale(0.015625)"/>
       <path id="DejaVuSans-70" d="M 1159 525 
L 1159 -1331 
L 581 -1331 
L 581 3500 
L 1159 3500 
L 1159 2969 
Q 1341 3281 1617 3432 
Q 1894 3584 2278 3584 
Q 2916 3584 3314 3078 
Q 3713 2572 3713 1747 
Q 3713 922 3314 415 
Q 2916 -91 2278 -91 
Q 1894 -91 1617 61 
Q 1341 213 1159 525 
z
M 3116 1747 
Q 3116 2381 2855 2742 
Q 2594 3103 2138 3103 
Q 1681 3103 1420 2742 
Q 1159 2381 1159 1747 
Q 1159 1113 1420 752 
Q 1681 391 2138 391 
Q 2594 391 2855 752 
Q 3116 1113 3116 1747 
z
" transform="scale(0.015625)"/>
       <path id="DejaVuSans-6f" d="M 1959 3097 
Q 1497 3097 1228 2736 
Q 959 2375 959 1747 
Q 959 1119 1226 758 
Q 1494 397 1959 397 
Q 2419 397 2687 759 
Q 2956 1122 2956 1747 
Q 2956 2369 2687 2733 
Q 2419 3097 1959 3097 
z
M 1959 3584 
Q 2709 3584 3137 3096 
Q 3566 2609 3566 1747 
Q 3566 888 3137 398 
Q 2709 -91 1959 -91 
Q 1206 -91 779 398 
Q 353 888 353 1747 
Q 353 2609 779 3096 
Q 1206 3584 1959 3584 
z
" transform="scale(0.015625)"/>
       <path id="DejaVuSans-63" d="M 3122 3366 
L 3122 2828 
Q 2878 2963 2633 3030 
Q 2388 3097 2138 3097 
Q 1578 3097 1268 2742 
Q 959 2388 959 1747 
Q 959 1106 1268 751 
Q 1578 397 2138 397 
Q 2388 397 2633 464 
Q 2878 531 3122 666 
L 3122 134 
Q 2881 22 2623 -34 
Q 2366 -91 2075 -91 
Q 1284 -91 818 406 
Q 353 903 353 1747 
Q 353 2603 823 3093 
Q 1294 3584 2113 3584 
Q 2378 3584 2631 3529 
Q 2884 3475 3122 3366 
z
" transform="scale(0.015625)"/>
       <path id="DejaVuSans-68" d="M 3513 2113 
L 3513 0 
L 2938 0 
L 2938 2094 
Q 2938 2591 2744 2837 
Q 2550 3084 2163 3084 
Q 1697 3084 1428 2787 
Q 1159 2491 1159 1978 
L 1159 0 
L 581 0 
L 581 4863 
L 1159 4863 
L 1159 2956 
Q 1366 3272 1645 3428 
Q 1925 3584 2291 3584 
Q 2894 3584 3203 3211 
Q 3513 2838 3513 2113 
z
" transform="scale(0.015625)"/>
      </defs>
      <use xlink:href="#DejaVuSans-65"/>
      <use xlink:href="#DejaVuSans-70" x="61.523438"/>
      <use xlink:href="#DejaVuSans-6f" x="125"/>
      <use xlink:href="#DejaVuSans-63" x="186.181641"/>
      <use xlink:href="#DejaVuSans-68" x="241.162109"/>
     </g>
    </g>
   </g>
   <g id="matplotlib.axis_2">
    <g id="ytick_1">
     <g id="line2d_7">
      <defs>
       <path id="m58b78b63be" d="M 0 0 
L -3.5 0 
" style="stroke: #000000; stroke-width: 0.8"/>
      </defs>
      <g>
       <use xlink:href="#m58b78b63be" x="57.6" y="260.435237" style="stroke: #000000; stroke-width: 0.8"/>
      </g>
     </g>
     <g id="text_8">
      <!-- 0.2 -->
      <g transform="translate(34.696875 264.234456) scale(0.1 -0.1)">
       <defs>
        <path id="DejaVuSans-2e" d="M 684 794 
L 1344 794 
L 1344 0 
L 684 0 
L 684 794 
z
" transform="scale(0.015625)"/>
       </defs>
       <use xlink:href="#DejaVuSans-30"/>
       <use xlink:href="#DejaVuSans-2e" x="63.623047"/>
       <use xlink:href="#DejaVuSans-32" x="95.410156"/>
      </g>
     </g>
    </g>
    <g id="ytick_2">
     <g id="line2d_8">
      <g>
       <use xlink:href="#m58b78b63be" x="57.6" y="208.135769" style="stroke: #000000; stroke-width: 0.8"/>
      </g>
     </g>
     <g id="text_9">
      <!-- 0.4 -->
      <g transform="translate(34.696875 211.934988) scale(0.1 -0.1)">
       <use xlink:href="#DejaVuSans-30"/>
       <use xlink:href="#DejaVuSans-2e" x="63.623047"/>
       <use xlink:href="#DejaVuSans-34" x="95.410156"/>
      </g>
     </g>
    </g>
    <g id="ytick_3">
     <g id="line2d_9">
      <g>
       <use xlink:href="#m58b78b63be" x="57.6" y="155.836301" style="stroke: #000000; stroke-width: 0.8"/>
      </g>
     </g>
     <g id="text_10">
      <!-- 0.6 -->
      <g transform="translate(34.696875 159.635519) scale(0.1 -0.1)">
       <use xlink:href="#DejaVuSans-30"/>
       <use xlink:href="#DejaVuSans-2e" x="63.623047"/>
       <use xlink:href="#DejaVuSans-36" x="95.410156"/>
      </g>
     </g>
    </g>
    <g id="ytick_4">
     <g id="line2d_10">
      <g>
       <use xlink:href="#m58b78b63be" x="57.6" y="103.536832" style="stroke: #000000; stroke-width: 0.8"/>
      </g>
     </g>
     <g id="text_11">
      <!-- 0.8 -->
      <g transform="translate(34.696875 107.336051) scale(0.1 -0.1)">
       <use xlink:href="#DejaVuSans-30"/>
       <use xlink:href="#DejaVuSans-2e" x="63.623047"/>
       <use xlink:href="#DejaVuSans-38" x="95.410156"/>
      </g>
     </g>
    </g>
    <g id="ytick_5">
     <g id="line2d_11">
      <g>
       <use xlink:href="#m58b78b63be" x="57.6" y="51.237364" style="stroke: #000000; stroke-width: 0.8"/>
      </g>
     </g>
     <g id="text_12">
      <!-- 1.0 -->
      <g transform="translate(34.696875 55.036583) scale(0.1 -0.1)">
       <use xlink:href="#DejaVuSans-31"/>
       <use xlink:href="#DejaVuSans-2e" x="63.623047"/>
       <use xlink:href="#DejaVuSans-30" x="95.410156"/>
      </g>
     </g>
    </g>
    <g id="text_13">
     <!-- accuracy -->
     <g transform="translate(28.617187 197.087375) rotate(-90) scale(0.1 -0.1)">
      <defs>
       <path id="DejaVuSans-61" d="M 2194 1759 
Q 1497 1759 1228 1600 
Q 959 1441 959 1056 
Q 959 750 1161 570 
Q 1363 391 1709 391 
Q 2188 391 2477 730 
Q 2766 1069 2766 1631 
L 2766 1759 
L 2194 1759 
z
M 3341 1997 
L 3341 0 
L 2766 0 
L 2766 531 
Q 2569 213 2275 61 
Q 1981 -91 1556 -91 
Q 1019 -91 701 211 
Q 384 513 384 1019 
Q 384 1609 779 1909 
Q 1175 2209 1959 2209 
L 2766 2209 
L 2766 2266 
Q 2766 2663 2505 2880 
Q 2244 3097 1772 3097 
Q 1472 3097 1187 3025 
Q 903 2953 641 2809 
L 641 3341 
Q 956 3463 1253 3523 
Q 1550 3584 1831 3584 
Q 2591 3584 2966 3190 
Q 3341 2797 3341 1997 
z
" transform="scale(0.015625)"/>
       <path id="DejaVuSans-75" d="M 544 1381 
L 544 3500 
L 1119 3500 
L 1119 1403 
Q 1119 906 1312 657 
Q 1506 409 1894 409 
Q 2359 409 2629 706 
Q 2900 1003 2900 1516 
L 2900 3500 
L 3475 3500 
L 3475 0 
L 2900 0 
L 2900 538 
Q 2691 219 2414 64 
Q 2138 -91 1772 -91 
Q 1169 -91 856 284 
Q 544 659 544 1381 
z
M 1991 3584 
L 1991 3584 
z
" transform="scale(0.015625)"/>
       <path id="DejaVuSans-72" d="M 2631 2963 
Q 2534 3019 2420 3045 
Q 2306 3072 2169 3072 
Q 1681 3072 1420 2755 
Q 1159 2438 1159 1844 
L 1159 0 
L 581 0 
L 581 3500 
L 1159 3500 
L 1159 2956 
Q 1341 3275 1631 3429 
Q 1922 3584 2338 3584 
Q 2397 3584 2469 3576 
Q 2541 3569 2628 3553 
L 2631 2963 
z
" transform="scale(0.015625)"/>
       <path id="DejaVuSans-79" d="M 2059 -325 
Q 1816 -950 1584 -1140 
Q 1353 -1331 966 -1331 
L 506 -1331 
L 506 -850 
L 844 -850 
Q 1081 -850 1212 -737 
Q 1344 -625 1503 -206 
L 1606 56 
L 191 3500 
L 800 3500 
L 1894 763 
L 2988 3500 
L 3597 3500 
L 2059 -325 
z
" transform="scale(0.015625)"/>
      </defs>
      <use xlink:href="#DejaVuSans-61"/>
      <use xlink:href="#DejaVuSans-63" x="61.279297"/>
      <use xlink:href="#DejaVuSans-63" x="116.259766"/>
      <use xlink:href="#DejaVuSans-75" x="171.240234"/>
      <use xlink:href="#DejaVuSans-72" x="234.619141"/>
      <use xlink:href="#DejaVuSans-61" x="275.732422"/>
      <use xlink:href="#DejaVuSans-63" x="337.011719"/>
      <use xlink:href="#DejaVuSans-79" x="391.992188"/>
     </g>
    </g>
   </g>
   <g id="line2d_12">
    <path d="M 73.832727 295.488 
L 74.157707 230.230197 
L 74.482686 236.755977 
L 74.807666 184.549734 
L 75.132645 162.17563 
L 75.457625 162.17563 
L 75.782604 161.243376 
L 76.432563 150.522451 
L 76.757543 149.124069 
L 77.082523 145.861179 
L 77.407502 146.793434 
L 77.732482 136.538636 
L 78.057461 138.403145 
L 78.382441 130.94511 
L 78.70742 130.012855 
L 79.0324 128.148347 
L 79.357379 130.94511 
L 79.682359 124.885457 
L 80.007338 121.156439 
L 80.332318 122.554821 
L 80.982277 112.300023 
L 81.307256 114.164532 
L 81.632236 111.833896 
L 81.957215 115.096786 
L 82.607174 108.104879 
L 82.932154 106.24037 
L 83.582113 107.172624 
L 83.907093 108.104879 
L 84.557052 103.909734 
L 84.882031 105.308116 
L 85.207011 101.112971 
L 85.53199 103.909734 
L 85.85697 101.579098 
L 86.181949 103.443607 
L 86.506929 95.985572 
L 86.831908 103.443607 
L 87.156888 101.579098 
L 87.481867 97.850081 
L 88.131826 99.71459 
L 88.456806 99.248462 
L 89.106765 95.519445 
L 89.431744 99.248462 
L 89.756724 98.316208 
L 90.406683 98.316208 
L 90.731663 94.121064 
L 91.056642 97.850081 
L 91.381622 96.917827 
L 91.706601 94.587191 
L 92.031581 94.121064 
L 92.35656 96.451699 
L 92.68154 97.383954 
L 93.006519 97.383954 
L 93.331499 95.053318 
L 93.656478 95.053318 
L 93.981458 93.188809 
L 94.306437 97.383954 
L 94.631417 93.654936 
L 94.956396 94.587191 
L 95.281376 91.324301 
L 95.606355 91.324301 
L 95.931335 93.654936 
L 96.256314 92.256555 
L 96.581294 95.053318 
L 96.906274 93.188809 
L 97.231253 93.188809 
L 97.556233 90.858173 
L 97.881212 91.324301 
L 98.206192 92.256555 
L 99.18113 90.858173 
L 99.50611 94.121064 
L 99.831089 92.256555 
L 100.156069 87.595283 
L 100.481048 91.790428 
L 100.806028 90.392046 
L 101.455987 89.459792 
L 101.780966 90.392046 
L 102.105946 88.06141 
L 102.755905 90.392046 
L 103.080885 85.730775 
L 103.405864 86.196902 
L 103.730844 87.595283 
L 104.055823 86.663029 
L 104.380803 89.925919 
L 104.705782 89.459792 
L 105.030762 86.663029 
L 105.355741 85.730775 
L 105.680721 89.925919 
L 106.0057 88.527538 
L 106.33068 85.264647 
L 106.655659 87.129156 
L 106.980639 88.06141 
L 107.305618 88.06141 
L 107.630598 87.129156 
L 107.955577 85.264647 
L 108.280557 84.332393 
L 108.605536 89.925919 
L 108.930516 84.79852 
L 109.255495 86.663029 
L 109.580475 82.001757 
L 110.230434 89.459792 
L 110.555414 88.06141 
L 110.880393 83.400139 
L 111.530352 85.730775 
L 111.855332 84.79852 
L 112.180311 87.129156 
L 112.505291 84.79852 
L 113.15525 82.934012 
L 113.480229 84.332393 
L 113.805209 87.129156 
L 114.130188 82.934012 
L 114.455168 83.866266 
L 114.780147 86.196902 
L 115.105127 82.467884 
L 115.430106 82.467884 
L 115.755086 82.934012 
L 116.080066 82.001757 
L 116.405045 80.137249 
L 116.730025 83.400139 
L 117.055004 84.79852 
L 117.379984 81.53563 
L 117.704963 83.866266 
L 118.029943 84.332393 
L 118.354922 84.332393 
L 118.679902 85.730775 
L 119.004881 81.069503 
L 119.329861 84.79852 
L 119.65484 85.264647 
L 119.97982 81.53563 
L 120.304799 82.467884 
L 120.629779 83.866266 
L 120.954758 80.137249 
L 121.279738 81.53563 
L 121.604717 81.069503 
L 121.929697 84.332393 
L 122.254676 79.204994 
L 122.904636 82.934012 
L 123.229615 80.603376 
L 123.554595 80.137249 
L 123.879574 82.467884 
L 124.204554 82.001757 
L 124.529533 83.400139 
L 124.854513 82.467884 
L 125.179492 83.866266 
L 125.504472 79.671121 
L 125.829451 80.137249 
L 126.154431 82.934012 
L 126.47941 78.738867 
L 126.80439 82.467884 
L 127.129369 82.467884 
L 127.454349 78.738867 
L 127.779328 80.603376 
L 128.104308 80.603376 
L 128.429287 79.671121 
L 128.754267 80.137249 
L 129.079247 77.806613 
L 129.404226 77.806613 
L 129.729206 83.400139 
L 130.054185 80.137249 
L 130.379165 82.467884 
L 130.704144 79.671121 
L 131.029124 78.738867 
L 131.354103 78.738867 
L 131.679083 77.340486 
L 132.004062 79.204994 
L 132.329042 79.204994 
L 132.654021 80.137249 
L 132.979001 77.340486 
L 133.30398 78.27274 
L 133.62896 80.603376 
L 133.953939 81.069503 
L 134.278919 76.408231 
L 134.603898 78.738867 
L 134.928878 77.806613 
L 135.253857 78.27274 
L 135.578837 79.204994 
L 136.228796 76.874358 
L 136.553776 76.408231 
L 136.878755 77.806613 
L 137.203735 75.942104 
L 137.528714 76.408231 
L 137.853694 78.27274 
L 138.178673 74.543723 
L 138.503653 77.340486 
L 138.828632 75.942104 
L 139.153612 77.340486 
L 139.478591 74.543723 
L 139.803571 74.543723 
L 140.12855 76.408231 
L 140.45353 74.543723 
L 140.778509 76.408231 
L 141.103489 77.340486 
L 141.428468 76.408231 
L 141.753448 78.738867 
L 142.403407 75.475977 
L 142.728387 74.077595 
L 143.703325 77.806613 
L 144.028305 77.340486 
L 144.353284 73.611468 
L 144.678264 74.543723 
L 145.003243 72.679214 
L 145.328223 78.738867 
L 145.653202 77.806613 
L 145.978182 73.611468 
L 146.303161 75.942104 
L 146.628141 74.077595 
L 147.2781 77.806613 
L 147.603079 76.408231 
L 147.928059 72.213087 
L 148.253038 71.280832 
L 148.578018 76.874358 
L 149.227977 72.679214 
L 149.552957 73.611468 
L 149.877936 72.679214 
L 150.202916 74.543723 
L 150.527895 74.543723 
L 150.852875 76.874358 
L 151.177854 73.145341 
L 151.502834 77.806613 
L 151.827813 72.213087 
L 152.152793 74.077595 
L 152.477772 73.611468 
L 152.802752 75.475977 
L 153.127731 73.145341 
L 153.452711 73.611468 
L 153.77769 75.942104 
L 154.10267 73.145341 
L 154.427649 73.611468 
L 154.752629 72.679214 
L 155.077609 75.942104 
L 155.402588 75.942104 
L 155.727568 72.679214 
L 156.052547 70.814705 
L 156.377527 71.74696 
L 156.702506 71.74696 
L 157.027486 74.543723 
L 157.677445 71.280832 
L 158.002424 73.611468 
L 158.327404 72.679214 
L 158.977363 71.74696 
L 159.302342 72.213087 
L 159.627322 74.543723 
L 159.952301 72.213087 
L 160.277281 70.814705 
L 160.60226 71.74696 
L 160.92724 73.145341 
L 161.252219 72.679214 
L 161.577199 70.814705 
L 161.902179 73.611468 
L 162.227158 69.882451 
L 162.552138 72.679214 
L 162.877117 71.74696 
L 163.202097 69.416324 
L 163.527076 70.348578 
L 163.852056 70.814705 
L 164.177035 72.679214 
L 164.502015 70.348578 
L 164.826994 74.543723 
L 165.151974 71.280832 
L 165.476953 73.145341 
L 165.801933 70.814705 
L 166.126912 72.213087 
L 166.451892 69.416324 
L 166.776871 68.484069 
L 167.101851 70.348578 
L 167.42683 70.348578 
L 167.75181 72.213087 
L 168.07679 69.882451 
L 168.401769 69.882451 
L 168.726749 68.017942 
L 169.051728 68.484069 
L 170.026667 73.145341 
L 170.351646 72.213087 
L 170.676626 68.484069 
L 171.001605 66.619561 
L 171.326585 67.551815 
L 171.651564 69.882451 
L 171.976544 68.484069 
L 172.301523 71.74696 
L 172.626503 70.348578 
L 172.951482 69.882451 
L 173.601441 66.619561 
L 173.926421 68.017942 
L 174.2514 70.814705 
L 174.57638 69.416324 
L 174.90136 69.416324 
L 175.226339 66.153434 
L 175.551319 68.484069 
L 175.876298 68.950197 
L 176.201278 66.619561 
L 176.526257 69.416324 
L 176.851237 67.085688 
L 177.176216 69.416324 
L 177.501196 66.153434 
L 177.826175 70.348578 
L 178.151155 69.882451 
L 178.476134 65.687306 
L 178.801114 69.882451 
L 179.126093 68.017942 
L 179.451073 67.085688 
L 179.776052 68.017942 
L 180.101032 68.017942 
L 180.426011 69.882451 
L 180.750991 68.017942 
L 181.075971 68.950197 
L 181.40095 67.551815 
L 181.72593 68.950197 
L 182.375889 66.619561 
L 182.700868 69.882451 
L 183.025848 69.416324 
L 183.350827 67.085688 
L 183.675807 70.348578 
L 184.000786 69.416324 
L 184.325766 67.085688 
L 184.975725 67.085688 
L 185.300704 67.551815 
L 185.625684 65.221179 
L 185.950663 69.416324 
L 186.275643 68.484069 
L 186.600622 68.484069 
L 186.925602 65.687306 
L 187.250581 67.551815 
L 187.575561 65.221179 
L 187.900541 68.017942 
L 188.22552 65.687306 
L 188.5505 69.882451 
L 188.875479 71.280832 
L 189.200459 67.085688 
L 189.525438 66.619561 
L 189.850418 67.551815 
L 190.175397 67.085688 
L 190.500377 65.687306 
L 190.825356 63.356671 
L 191.150336 67.551815 
L 191.475315 64.755052 
L 191.800295 64.288925 
L 192.125274 64.288925 
L 192.450254 65.687306 
L 192.775233 66.153434 
L 193.100213 65.221179 
L 193.425192 66.619561 
L 193.750172 69.416324 
L 194.075152 67.085688 
L 194.400131 68.484069 
L 194.725111 65.221179 
L 195.05009 68.017942 
L 195.37507 65.221179 
L 195.700049 66.153434 
L 196.025029 69.416324 
L 196.350008 67.551815 
L 196.674988 69.416324 
L 197.324947 64.755052 
L 197.649926 70.814705 
L 198.299885 63.822798 
L 198.624865 66.153434 
L 198.949844 64.288925 
L 199.599803 69.416324 
L 199.924783 65.221179 
L 200.249762 67.085688 
L 200.574742 65.221179 
L 200.899722 67.085688 
L 201.224701 67.551815 
L 201.87466 63.356671 
L 202.19964 67.551815 
L 202.849599 65.221179 
L 203.174578 67.085688 
L 203.499558 63.356671 
L 203.824537 67.085688 
L 204.149517 65.221179 
L 204.474496 64.288925 
L 204.799476 65.687306 
L 205.449435 62.424416 
L 205.774414 63.356671 
L 206.099394 62.890543 
L 206.749353 66.153434 
L 207.074333 62.424416 
L 207.399312 65.687306 
L 208.049271 62.424416 
L 208.374251 64.755052 
L 208.69923 64.288925 
L 209.02421 66.153434 
L 209.349189 64.755052 
L 209.674169 66.619561 
L 209.999148 64.755052 
L 210.324128 63.822798 
L 210.649107 64.755052 
L 210.974087 62.424416 
L 211.299066 64.755052 
L 211.624046 62.424416 
L 211.949025 65.221179 
L 212.274005 64.755052 
L 212.598984 63.822798 
L 212.923964 63.822798 
L 213.248943 64.288925 
L 213.573923 63.356671 
L 213.898903 64.755052 
L 214.223882 64.288925 
L 214.548862 59.627653 
L 214.873841 62.890543 
L 215.198821 64.755052 
L 215.5238 63.822798 
L 215.84878 62.424416 
L 216.173759 62.424416 
L 216.498739 66.619561 
L 216.823718 62.424416 
L 217.148698 62.890543 
L 217.798657 65.687306 
L 218.123636 62.890543 
L 218.448616 63.356671 
L 219.098575 60.559908 
L 219.423554 63.822798 
L 220.398493 62.424416 
L 220.723473 62.424416 
L 221.048452 60.559908 
L 221.373432 62.890543 
L 221.698411 63.822798 
L 222.023391 61.958289 
L 222.34837 61.492162 
L 222.67335 63.822798 
L 222.998329 64.755052 
L 223.323309 61.492162 
L 223.648288 62.890543 
L 223.973268 60.559908 
L 224.298247 62.890543 
L 224.623227 62.424416 
L 224.948206 59.627653 
L 225.598165 65.221179 
L 225.923145 63.822798 
L 226.248124 61.492162 
L 226.573104 62.890543 
L 226.898084 60.09378 
L 227.223063 61.958289 
L 227.873022 62.890543 
L 228.198002 60.09378 
L 228.522981 60.559908 
L 228.847961 62.424416 
L 229.17294 62.424416 
L 229.49792 62.890543 
L 229.822899 58.229272 
L 230.147879 63.356671 
L 230.472858 63.822798 
L 230.797838 61.026035 
L 231.122817 61.492162 
L 231.447797 61.026035 
L 231.772776 61.026035 
L 232.097756 63.356671 
L 232.422735 61.026035 
L 232.747715 61.492162 
L 233.072695 62.424416 
L 233.397674 61.958289 
L 233.722654 61.958289 
L 234.047633 60.09378 
L 234.372613 62.424416 
L 234.697592 60.559908 
L 235.672531 64.755052 
L 235.99751 60.559908 
L 236.32249 60.09378 
L 236.647469 60.09378 
L 236.972449 61.026035 
L 237.622408 64.288925 
L 237.947387 59.161526 
L 238.272367 63.356671 
L 238.597346 61.958289 
L 238.922326 61.958289 
L 239.247305 62.424416 
L 239.572285 61.958289 
L 239.897265 63.356671 
L 240.547224 60.559908 
L 240.872203 64.755052 
L 241.197183 60.559908 
L 241.522162 59.627653 
L 242.172121 61.492162 
L 242.497101 58.695399 
L 242.82208 60.09378 
L 243.14706 62.890543 
L 243.472039 60.559908 
L 243.797019 61.026035 
L 244.121998 61.026035 
L 244.446978 60.559908 
L 244.771957 63.822798 
L 245.096937 60.09378 
L 245.421916 60.559908 
L 245.746896 61.958289 
L 246.071876 59.161526 
L 246.396855 64.755052 
L 246.721835 60.559908 
L 247.046814 59.627653 
L 247.371794 60.559908 
L 247.696773 57.763145 
L 248.021753 61.492162 
L 248.346732 63.356671 
L 248.671712 58.695399 
L 249.321671 61.958289 
L 249.64665 60.09378 
L 249.97163 60.559908 
L 250.621589 60.559908 
L 250.946568 63.356671 
L 251.271548 60.09378 
L 251.596527 65.221179 
L 251.921507 58.229272 
L 252.246486 59.627653 
L 252.571466 59.161526 
L 252.896446 62.424416 
L 253.221425 59.161526 
L 253.546405 62.424416 
L 253.871384 62.424416 
L 254.196364 61.026035 
L 254.521343 61.958289 
L 254.846323 64.288925 
L 255.171302 61.026035 
L 255.496282 60.09378 
L 255.821261 58.229272 
L 256.146241 62.890543 
L 256.47122 61.958289 
L 256.7962 62.424416 
L 257.121179 63.822798 
L 257.446159 58.695399 
L 257.771138 59.627653 
L 258.096118 63.822798 
L 258.421097 59.627653 
L 258.746077 60.559908 
L 259.071057 59.627653 
L 260.045995 61.026035 
L 260.370975 60.09378 
L 260.695954 62.890543 
L 261.020934 57.763145 
L 261.345913 61.492162 
L 261.670893 60.09378 
L 262.320852 59.161526 
L 262.970811 63.822798 
L 263.29579 61.958289 
L 263.62077 57.297017 
L 264.270729 61.958289 
L 264.595708 60.559908 
L 264.920688 61.026035 
L 265.245667 61.958289 
L 265.570647 60.559908 
L 265.895627 61.026035 
L 266.220606 59.627653 
L 266.545586 61.026035 
L 266.870565 58.695399 
L 267.195545 62.424416 
L 267.845504 57.297017 
L 268.170483 61.492162 
L 268.495463 60.09378 
L 268.820442 62.424416 
L 269.145422 62.890543 
L 269.470401 59.161526 
L 270.12036 61.492162 
L 270.44534 60.559908 
L 270.770319 61.492162 
L 271.095299 58.695399 
L 271.420278 59.627653 
L 272.395217 59.627653 
L 272.720197 60.559908 
L 273.045176 59.627653 
L 273.370156 61.026035 
L 273.695135 60.09378 
L 274.020115 61.026035 
L 274.345094 60.09378 
L 274.670074 59.627653 
L 274.995053 61.492162 
L 275.320033 58.229272 
L 275.645012 61.026035 
L 275.969992 60.09378 
L 276.294971 58.695399 
L 276.619951 59.627653 
L 276.94493 61.026035 
L 277.26991 60.09378 
L 277.594889 61.492162 
L 277.919869 60.559908 
L 278.244848 57.763145 
L 278.569828 60.09378 
L 278.894808 59.627653 
L 279.219787 62.890543 
L 279.544767 60.09378 
L 279.869746 59.161526 
L 280.194726 62.890543 
L 280.519705 61.026035 
L 280.844685 60.559908 
L 281.169664 59.161526 
L 281.494644 59.161526 
L 281.819623 58.695399 
L 282.144603 61.492162 
L 282.469582 61.958289 
L 282.794562 59.161526 
L 283.119541 58.695399 
L 283.444521 60.09378 
L 283.7695 59.627653 
L 284.09448 61.492162 
L 284.419459 58.695399 
L 284.744439 62.424416 
L 285.069419 60.09378 
L 285.394398 58.695399 
L 285.719378 59.161526 
L 286.044357 61.492162 
L 286.369337 60.09378 
L 286.694316 60.09378 
L 287.019296 57.297017 
L 287.344275 59.627653 
L 287.994234 57.763145 
L 288.319214 58.695399 
L 288.969173 61.026035 
L 289.294152 60.09378 
L 289.619132 57.763145 
L 289.944111 56.83089 
L 290.269091 59.161526 
L 290.59407 58.695399 
L 290.91905 58.695399 
L 291.569009 61.026035 
L 291.893989 58.229272 
L 292.218968 58.229272 
L 292.543948 57.297017 
L 292.868927 59.161526 
L 293.193907 60.09378 
L 293.518886 58.695399 
L 293.843866 60.559908 
L 294.168845 57.763145 
L 294.493825 59.161526 
L 294.818804 59.627653 
L 295.468763 57.763145 
L 295.793743 59.161526 
L 296.118722 59.627653 
L 296.443702 59.161526 
L 296.768681 58.229272 
L 297.093661 57.763145 
L 297.74362 59.627653 
L 298.0686 61.026035 
L 298.718559 58.695399 
L 299.043538 59.627653 
L 299.368518 57.763145 
L 299.693497 59.627653 
L 300.018477 56.83089 
L 300.343456 58.695399 
L 300.668436 57.763145 
L 300.993415 60.09378 
L 301.318395 58.695399 
L 301.643374 59.627653 
L 301.968354 57.297017 
L 302.293333 57.297017 
L 302.618313 58.229272 
L 302.943292 54.500254 
L 303.268272 58.695399 
L 303.593251 56.364763 
L 303.918231 56.364763 
L 304.56819 57.297017 
L 304.89317 59.627653 
L 305.218149 56.83089 
L 305.868108 60.09378 
L 306.193088 56.83089 
L 306.518067 57.763145 
L 306.843047 57.297017 
L 307.168026 59.627653 
L 307.817985 57.763145 
L 308.467944 59.627653 
L 308.792924 56.83089 
L 309.442883 61.026035 
L 309.767862 56.364763 
L 310.092842 57.763145 
L 310.417821 61.026035 
L 310.742801 60.559908 
L 311.39276 56.83089 
L 311.71774 57.297017 
L 312.042719 58.695399 
L 312.367699 57.297017 
L 312.692678 59.161526 
L 313.017658 56.83089 
L 313.342637 57.763145 
L 313.992596 57.763145 
L 314.317576 55.432509 
L 314.642555 56.364763 
L 315.292514 59.627653 
L 315.617494 56.83089 
L 315.942473 56.83089 
L 316.267453 58.229272 
L 316.592432 58.695399 
L 316.917412 58.695399 
L 317.242391 57.763145 
L 317.567371 56.364763 
L 317.892351 56.83089 
L 318.21733 56.83089 
L 318.54231 57.763145 
L 318.867289 59.627653 
L 319.192269 55.898636 
L 319.517248 57.763145 
L 320.492187 56.364763 
L 320.817166 56.364763 
L 321.142146 57.763145 
L 321.467125 54.966382 
L 321.792105 57.763145 
L 322.117084 56.83089 
L 322.442064 54.966382 
L 322.767043 56.364763 
L 323.417002 57.297017 
L 323.741982 59.161526 
L 324.066962 57.763145 
L 324.391941 57.297017 
L 324.716921 58.695399 
L 325.0419 55.432509 
L 325.36688 58.695399 
L 325.691859 58.229272 
L 326.016839 55.898636 
L 326.341818 55.898636 
L 326.666798 59.161526 
L 326.991777 56.83089 
L 327.316757 57.763145 
L 327.641736 56.364763 
L 327.966716 56.364763 
L 328.291695 58.695399 
L 328.616675 58.229272 
L 328.941654 58.229272 
L 329.266634 57.297017 
L 329.591613 59.161526 
L 329.916593 57.763145 
L 330.241572 57.297017 
L 330.566552 58.229272 
L 330.891532 57.763145 
L 331.541491 55.898636 
L 331.86647 57.763145 
L 332.19145 56.83089 
L 332.516429 55.432509 
L 332.841409 57.763145 
L 333.166388 56.83089 
L 333.491368 56.364763 
L 333.816347 56.364763 
L 334.141327 55.898636 
L 334.466306 60.09378 
L 334.791286 56.83089 
L 335.116265 57.763145 
L 335.441245 57.763145 
L 336.091204 55.432509 
L 336.416183 56.83089 
L 336.741163 56.83089 
L 337.066143 57.297017 
L 337.391122 56.83089 
L 338.041081 57.763145 
L 338.366061 57.297017 
L 338.69104 57.763145 
L 339.01602 56.83089 
L 339.340999 56.83089 
L 339.665979 58.229272 
L 339.990958 54.500254 
L 340.315938 54.966382 
L 340.640917 59.161526 
L 340.965897 55.898636 
L 341.290876 57.297017 
L 341.615856 57.763145 
L 341.940835 57.297017 
L 342.265815 57.763145 
L 342.590794 56.364763 
L 342.915774 57.763145 
L 343.240753 55.432509 
L 343.565733 57.763145 
L 343.890713 58.229272 
L 344.540672 57.297017 
L 344.865651 58.695399 
L 345.190631 54.966382 
L 345.51561 57.763145 
L 345.84059 57.297017 
L 346.165569 58.695399 
L 346.490549 58.229272 
L 346.815528 56.364763 
L 347.140508 58.229272 
L 347.465487 57.297017 
L 347.790467 58.229272 
L 348.115446 56.83089 
L 348.440426 56.83089 
L 348.765405 55.432509 
L 349.090385 55.898636 
L 349.415364 55.432509 
L 349.740344 53.568 
L 350.065324 56.83089 
L 350.390303 57.297017 
L 350.715283 55.432509 
L 351.040262 56.83089 
L 351.365242 54.966382 
L 352.015201 58.695399 
L 352.34018 57.297017 
L 352.66516 57.297017 
L 352.990139 56.83089 
L 353.315119 55.432509 
L 353.640098 56.364763 
L 353.965078 56.364763 
L 354.290057 55.432509 
L 354.615037 57.763145 
L 354.940016 55.432509 
L 355.264996 57.763145 
L 355.589975 58.229272 
L 355.914955 57.763145 
L 356.239934 58.229272 
L 356.564914 58.229272 
L 357.214873 56.364763 
L 357.539853 58.695399 
L 357.864832 55.432509 
L 358.514791 58.229272 
L 358.839771 55.898636 
L 359.16475 56.83089 
L 359.48973 54.966382 
L 360.139689 59.627653 
L 360.464668 54.500254 
L 360.789648 55.432509 
L 361.439607 59.627653 
L 361.764586 58.229272 
L 362.089566 55.432509 
L 362.414545 58.695399 
L 363.064505 55.898636 
L 363.389484 56.83089 
L 363.714464 56.83089 
L 364.039443 55.432509 
L 364.364423 59.627653 
L 364.689402 56.83089 
L 365.014382 56.83089 
L 365.339361 54.034127 
L 365.664341 55.432509 
L 365.98932 55.432509 
L 366.639279 56.364763 
L 366.964259 57.763145 
L 367.289238 54.966382 
L 367.939197 58.229272 
L 368.264177 57.763145 
L 368.589156 54.500254 
L 368.914136 56.83089 
L 369.239115 54.966382 
L 369.564095 54.966382 
L 369.889075 56.364763 
L 370.214054 54.500254 
L 370.539034 56.83089 
L 370.864013 55.898636 
L 371.188993 57.297017 
L 371.838952 56.364763 
L 372.163931 56.364763 
L 372.488911 57.763145 
L 373.463849 54.966382 
L 373.788829 54.500254 
L 374.113808 55.898636 
L 374.438788 56.364763 
L 374.763767 54.966382 
L 375.413726 55.898636 
L 375.738706 55.432509 
L 376.063686 57.763145 
L 376.388665 55.432509 
L 376.713645 56.364763 
L 377.038624 56.83089 
L 377.363604 56.83089 
L 378.013563 55.898636 
L 378.338542 57.297017 
L 378.663522 56.83089 
L 378.988501 55.898636 
L 379.313481 54.500254 
L 379.63846 55.432509 
L 380.288419 55.432509 
L 380.613399 56.364763 
L 380.938378 54.966382 
L 381.263358 54.966382 
L 381.588337 55.432509 
L 381.913317 57.763145 
L 382.563276 58.695399 
L 382.888256 53.568 
L 383.213235 56.83089 
L 383.538215 56.364763 
L 383.863194 55.432509 
L 384.188174 55.432509 
L 384.513153 57.297017 
L 384.838133 55.432509 
L 385.488092 56.364763 
L 386.138051 55.432509 
L 386.46303 54.034127 
L 386.78801 57.297017 
L 387.112989 54.034127 
L 387.437969 56.364763 
L 387.762948 54.500254 
L 388.087928 57.297017 
L 388.412907 54.500254 
L 388.737887 56.83089 
L 389.062867 56.83089 
L 389.712826 54.966382 
L 390.037805 56.364763 
L 390.362785 56.83089 
L 390.687764 56.83089 
L 391.012744 54.966382 
L 391.337723 55.432509 
L 391.662703 56.364763 
L 391.987682 54.966382 
L 392.312662 57.763145 
L 392.637641 54.500254 
L 392.962621 54.500254 
L 393.2876 55.898636 
L 393.61258 55.898636 
L 393.937559 56.364763 
L 394.262539 55.432509 
L 394.587518 56.83089 
L 394.912498 54.966382 
L 395.237477 56.83089 
L 395.562457 54.966382 
L 395.887437 57.297017 
L 396.212416 56.364763 
L 396.537396 56.364763 
L 396.862375 57.763145 
L 397.512334 55.898636 
L 397.837314 55.432509 
L 398.162293 56.364763 
L 398.487273 57.763145 
L 398.487273 57.763145 
" clip-path="url(#pcccae94932)" style="fill: none; stroke: #0000ff; stroke-width: 1.5; stroke-linecap: square"/>
   </g>
   <g id="line2d_13">
    <path d="M 73.832727 294.067253 
L 74.157707 235.92273 
L 74.482686 237.911885 
L 74.807666 180.838445 
L 75.132645 160.181839 
L 75.457625 155.897505 
L 75.782604 156.050517 
L 76.107584 149.164982 
L 76.432563 149.624017 
L 77.082523 142.58547 
L 77.407502 141.667398 
L 78.057461 133.71078 
L 78.70742 131.415601 
L 79.0324 127.590303 
L 79.357379 127.437292 
L 79.682359 121.010792 
L 80.007338 122.999946 
L 80.332318 118.256577 
L 80.657297 119.633684 
L 80.982277 115.043327 
L 81.632236 109.840923 
L 81.957215 111.21803 
L 82.282195 108.157792 
L 82.607174 108.463816 
L 82.932154 108.463816 
L 83.257133 106.474661 
L 83.582113 106.474661 
L 83.907093 106.933697 
L 84.232072 106.627673 
L 84.557052 104.485506 
L 84.882031 106.168637 
L 85.53199 105.403578 
L 85.85697 104.332494 
L 86.181949 100.507197 
L 86.506929 102.190328 
L 86.831908 101.731292 
L 87.156888 105.709601 
L 87.481867 105.403578 
L 87.806847 102.037316 
L 88.131826 102.496351 
L 88.456806 100.660209 
L 89.106765 99.895149 
L 89.431744 101.884304 
L 89.756724 102.34334 
L 90.081704 101.425268 
L 90.406683 99.742137 
L 90.731663 101.272256 
L 91.056642 100.966232 
L 91.381622 98.977078 
L 91.706601 101.119244 
L 92.031581 100.507197 
L 92.35656 100.660209 
L 92.68154 99.436113 
L 93.006519 98.977078 
L 93.331499 99.283101 
L 93.656478 101.425268 
L 93.981458 100.201173 
L 94.306437 100.201173 
L 94.631417 98.518042 
L 94.956396 102.190328 
L 95.281376 100.201173 
L 95.931335 100.201173 
L 96.256314 100.813221 
L 96.581294 99.742137 
L 96.906274 101.425268 
L 97.556233 100.048161 
L 97.881212 98.518042 
L 98.206192 99.589125 
L 98.531171 99.895149 
L 98.856151 97.905994 
L 99.18113 100.507197 
L 99.50611 101.119244 
L 99.831089 99.895149 
L 100.156069 97.446959 
L 100.481048 98.671054 
L 100.806028 97.446959 
L 101.131007 99.283101 
L 101.455987 98.518042 
L 101.780966 99.283101 
L 102.105946 98.671054 
L 102.430925 99.436113 
L 102.755905 97.293947 
L 103.080885 100.048161 
L 103.405864 98.059006 
L 103.730844 100.048161 
L 104.055823 99.283101 
L 104.380803 97.905994 
L 104.705782 99.895149 
L 105.030762 98.518042 
L 105.355741 98.671054 
L 105.680721 98.518042 
L 106.0057 100.966232 
L 106.33068 97.905994 
L 106.655659 98.824066 
L 106.980639 98.671054 
L 107.305618 99.742137 
L 107.630598 100.048161 
L 107.955577 99.589125 
L 108.280557 98.059006 
L 108.605536 98.977078 
L 108.930516 99.283101 
L 109.255495 98.824066 
L 109.580475 100.660209 
L 109.905455 99.895149 
L 110.230434 99.742137 
L 110.555414 100.660209 
L 110.880393 99.13009 
L 111.205373 98.977078 
L 111.530352 97.599971 
L 111.855332 99.589125 
L 112.180311 99.283101 
L 112.505291 100.048161 
L 112.83027 96.681899 
L 113.480229 101.119244 
L 113.805209 97.446959 
L 114.130188 97.599971 
L 114.455168 98.059006 
L 114.780147 99.436113 
L 115.105127 99.589125 
L 115.755086 98.977078 
L 116.080066 99.283101 
L 116.405045 99.436113 
L 116.730025 97.752982 
L 117.055004 96.834911 
L 117.379984 98.212018 
L 117.704963 96.987923 
L 118.029943 99.13009 
L 118.354922 99.589125 
L 118.679902 98.36503 
L 119.004881 98.671054 
L 119.329861 100.660209 
L 119.65484 98.824066 
L 119.97982 98.977078 
L 120.304799 98.824066 
L 120.629779 100.201173 
L 120.954758 100.201173 
L 121.279738 97.599971 
L 121.604717 100.507197 
L 121.929697 96.834911 
L 122.254676 99.13009 
L 122.579656 99.589125 
L 122.904636 98.212018 
L 123.229615 95.91684 
L 123.554595 99.13009 
L 123.879574 98.977078 
L 124.204554 99.742137 
L 124.529533 100.813221 
L 124.854513 100.048161 
L 125.179492 97.140935 
L 125.504472 99.283101 
L 125.829451 98.059006 
L 126.154431 99.436113 
L 126.80439 100.507197 
L 127.129369 98.212018 
L 127.779328 98.518042 
L 128.104308 97.905994 
L 128.429287 96.987923 
L 128.754267 97.599971 
L 129.079247 99.436113 
L 129.404226 98.059006 
L 129.729206 98.824066 
L 130.054185 98.36503 
L 130.379165 100.354185 
L 130.704144 98.212018 
L 131.029124 99.13009 
L 131.354103 97.446959 
L 131.679083 98.212018 
L 132.004062 98.518042 
L 132.329042 98.36503 
L 132.654021 99.13009 
L 132.979001 98.671054 
L 133.30398 99.742137 
L 133.62896 97.446959 
L 133.953939 96.069852 
L 134.278919 97.293947 
L 134.603898 98.059006 
L 134.928878 97.446959 
L 135.253857 97.905994 
L 135.578837 99.13009 
L 135.903817 97.752982 
L 136.228796 97.905994 
L 136.553776 97.752982 
L 136.878755 97.140935 
L 137.203735 97.599971 
L 137.528714 97.293947 
L 137.853694 97.446959 
L 138.178673 96.375875 
L 138.503653 97.293947 
L 138.828632 96.222863 
L 139.153612 98.518042 
L 139.478591 98.824066 
L 139.803571 99.283101 
L 140.12855 100.354185 
L 140.45353 100.201173 
L 140.778509 98.824066 
L 141.103489 96.681899 
L 141.428468 97.140935 
L 141.753448 98.212018 
L 142.078428 98.36503 
L 142.403407 98.059006 
L 142.728387 97.905994 
L 143.053366 99.13009 
L 143.378346 98.977078 
L 143.703325 99.895149 
L 144.028305 100.354185 
L 144.353284 97.140935 
L 145.003243 99.742137 
L 145.328223 97.752982 
L 145.653202 99.436113 
L 145.978182 100.354185 
L 146.303161 98.977078 
L 146.628141 100.966232 
L 146.95312 101.119244 
L 147.603079 99.436113 
L 147.928059 98.212018 
L 148.253038 97.599971 
L 148.578018 96.375875 
L 148.902998 98.36503 
L 149.227977 98.518042 
L 149.552957 97.140935 
L 149.877936 99.13009 
L 150.202916 97.293947 
L 150.527895 97.446959 
L 150.852875 98.059006 
L 151.177854 98.36503 
L 151.502834 100.813221 
L 151.827813 99.895149 
L 152.152793 100.354185 
L 152.477772 100.048161 
L 152.802752 100.048161 
L 153.127731 98.36503 
L 153.77769 100.201173 
L 154.10267 96.834911 
L 154.427649 96.987923 
L 154.752629 99.589125 
L 155.077609 100.201173 
L 155.402588 98.212018 
L 155.727568 99.742137 
L 156.052547 98.671054 
L 156.377527 101.425268 
L 156.702506 98.671054 
L 157.027486 98.977078 
L 157.352465 97.599971 
L 157.677445 100.507197 
L 158.002424 100.507197 
L 158.327404 99.13009 
L 158.652383 98.977078 
L 158.977363 98.059006 
L 159.302342 98.36503 
L 159.627322 99.895149 
L 159.952301 100.660209 
L 160.277281 98.059006 
L 160.60226 97.905994 
L 160.92724 100.354185 
L 161.252219 98.671054 
L 161.577199 98.671054 
L 161.902179 99.436113 
L 162.227158 98.212018 
L 162.552138 98.671054 
L 162.877117 100.048161 
L 163.202097 99.589125 
L 163.527076 99.895149 
L 163.852056 100.813221 
L 164.177035 97.446959 
L 164.502015 99.895149 
L 164.826994 100.354185 
L 165.151974 99.589125 
L 165.476953 99.895149 
L 165.801933 99.895149 
L 166.126912 100.201173 
L 166.451892 100.354185 
L 166.776871 98.824066 
L 167.101851 98.824066 
L 167.75181 99.436113 
L 168.07679 99.13009 
L 168.401769 99.283101 
L 168.726749 100.660209 
L 169.051728 100.048161 
L 169.376708 98.824066 
L 169.701687 100.660209 
L 170.026667 100.201173 
L 170.351646 101.272256 
L 170.676626 98.518042 
L 171.001605 100.354185 
L 171.326585 99.589125 
L 171.651564 97.599971 
L 171.976544 99.742137 
L 172.301523 99.436113 
L 172.626503 96.222863 
L 172.951482 99.895149 
L 173.276462 99.436113 
L 173.601441 98.212018 
L 173.926421 98.671054 
L 174.2514 98.212018 
L 174.57638 100.201173 
L 174.90136 100.048161 
L 175.226339 100.966232 
L 175.551319 99.589125 
L 175.876298 101.272256 
L 176.201278 97.752982 
L 176.526257 99.13009 
L 176.851237 97.293947 
L 177.176216 99.436113 
L 177.501196 97.752982 
L 177.826175 101.272256 
L 178.151155 99.589125 
L 178.476134 101.119244 
L 178.801114 102.037316 
L 179.126093 99.895149 
L 179.451073 100.507197 
L 179.776052 102.037316 
L 180.101032 101.731292 
L 180.426011 101.57828 
L 180.750991 100.813221 
L 181.075971 102.190328 
L 181.40095 101.884304 
L 181.72593 100.354185 
L 182.050909 100.201173 
L 182.375889 102.037316 
L 182.700868 101.119244 
L 183.025848 99.436113 
L 183.350827 101.884304 
L 183.675807 100.813221 
L 184.000786 102.190328 
L 184.650745 100.048161 
L 184.975725 100.507197 
L 185.300704 98.36503 
L 185.625684 101.57828 
L 185.950663 100.048161 
L 186.275643 100.201173 
L 186.600622 101.425268 
L 186.925602 100.660209 
L 187.250581 100.966232 
L 187.575561 99.895149 
L 187.900541 98.36503 
L 188.22552 100.966232 
L 188.5505 102.649363 
L 188.875479 102.649363 
L 189.200459 100.813221 
L 189.525438 100.354185 
L 189.850418 101.272256 
L 190.175397 99.742137 
L 190.500377 102.190328 
L 191.150336 99.589125 
L 191.800295 101.731292 
L 192.125274 101.884304 
L 192.450254 99.895149 
L 192.775233 99.436113 
L 193.100213 98.518042 
L 193.425192 98.36503 
L 193.750172 98.977078 
L 194.075152 100.507197 
L 194.400131 103.108399 
L 194.725111 100.813221 
L 195.05009 101.119244 
L 195.37507 100.966232 
L 195.700049 104.02647 
L 196.025029 102.802375 
L 196.350008 102.037316 
L 196.674988 100.966232 
L 196.999967 101.57828 
L 197.324947 103.720447 
L 197.974906 100.660209 
L 198.299885 100.507197 
L 198.624865 101.272256 
L 198.949844 101.119244 
L 199.274824 103.108399 
L 199.599803 102.34334 
L 199.924783 101.884304 
L 200.249762 99.895149 
L 200.574742 99.742137 
L 200.899722 103.414423 
L 201.87466 100.354185 
L 202.19964 102.34334 
L 202.849599 99.742137 
L 203.174578 100.354185 
L 203.499558 99.895149 
L 204.149517 100.660209 
L 204.474496 100.354185 
L 204.799476 102.190328 
L 205.124455 100.201173 
L 205.449435 100.507197 
L 205.774414 99.742137 
L 206.099394 103.261411 
L 206.424373 100.507197 
L 206.749353 100.813221 
L 207.074333 99.436113 
L 207.399312 102.955387 
L 207.724292 102.649363 
L 208.049271 100.966232 
L 208.374251 99.895149 
L 208.69923 100.048161 
L 209.02421 103.108399 
L 209.349189 102.037316 
L 209.674169 102.037316 
L 209.999148 99.895149 
L 210.324128 101.731292 
L 210.649107 101.731292 
L 210.974087 100.507197 
L 211.299066 100.966232 
L 211.624046 102.34334 
L 211.949025 101.731292 
L 212.274005 98.977078 
L 212.598984 102.649363 
L 212.923964 103.261411 
L 213.248943 99.589125 
L 213.573923 103.108399 
L 213.898903 103.414423 
L 214.223882 101.884304 
L 214.873841 100.813221 
L 215.198821 101.884304 
L 215.5238 101.425268 
L 215.84878 102.34334 
L 216.173759 100.966232 
L 216.498739 100.660209 
L 216.823718 102.802375 
L 217.148698 103.720447 
L 217.473677 102.190328 
L 217.798657 102.190328 
L 218.123636 104.332494 
L 218.448616 102.190328 
L 218.773595 102.496351 
L 219.098575 101.119244 
L 219.423554 103.414423 
L 219.748534 101.731292 
L 220.073514 98.36503 
L 220.723473 103.261411 
L 221.048452 102.802375 
L 221.373432 100.966232 
L 221.698411 105.097554 
L 222.023391 103.108399 
L 222.34837 102.955387 
L 222.67335 103.108399 
L 222.998329 103.567435 
L 223.648288 101.119244 
L 223.973268 103.567435 
L 224.298247 102.802375 
L 224.623227 103.567435 
L 224.948206 103.261411 
L 225.273186 103.720447 
L 225.598165 103.414423 
L 225.923145 102.190328 
L 226.248124 101.425268 
L 226.573104 101.119244 
L 226.898084 103.108399 
L 227.223063 103.108399 
L 227.548043 102.649363 
L 227.873022 101.425268 
L 228.198002 101.884304 
L 228.522981 103.567435 
L 228.847961 102.955387 
L 229.17294 102.802375 
L 229.49792 103.414423 
L 229.822899 104.638518 
L 230.472858 101.272256 
L 230.797838 103.261411 
L 231.447797 99.742137 
L 232.097756 103.720447 
L 232.422735 99.436113 
L 232.747715 100.660209 
L 233.072695 101.425268 
L 233.397674 100.813221 
L 233.722654 104.79153 
L 234.047633 104.485506 
L 234.372613 103.567435 
L 234.697592 103.414423 
L 235.022572 102.34334 
L 235.672531 102.649363 
L 235.99751 103.567435 
L 236.32249 102.955387 
L 236.647469 101.884304 
L 236.972449 103.873459 
L 237.297428 101.731292 
L 237.622408 102.802375 
L 237.947387 106.321649 
L 238.272367 103.414423 
L 238.597346 102.190328 
L 239.572285 104.638518 
L 239.897265 106.015625 
L 240.222244 102.34334 
L 241.197183 103.567435 
L 241.522162 104.485506 
L 241.847142 102.802375 
L 242.172121 103.108399 
L 242.497101 101.731292 
L 242.82208 103.873459 
L 243.14706 104.02647 
L 243.472039 104.02647 
L 243.797019 101.425268 
L 244.121998 102.496351 
L 244.446978 104.79153 
L 244.771957 105.862613 
L 245.096937 103.414423 
L 245.421916 104.02647 
L 245.746896 101.425268 
L 246.071876 104.638518 
L 246.396855 103.261411 
L 246.721835 103.414423 
L 247.046814 104.638518 
L 247.371794 102.955387 
L 247.696773 105.403578 
L 248.346732 102.037316 
L 248.671712 104.79153 
L 248.996691 104.179482 
L 249.321671 103.261411 
L 249.64665 101.731292 
L 249.97163 101.731292 
L 250.296609 104.02647 
L 250.621589 103.108399 
L 250.946568 103.720447 
L 251.271548 103.873459 
L 251.596527 103.261411 
L 251.921507 104.179482 
L 252.246486 105.862613 
L 252.571466 104.179482 
L 252.896446 105.097554 
L 253.221425 104.179482 
L 253.546405 104.02647 
L 253.871384 104.79153 
L 254.196364 106.015625 
L 254.521343 105.862613 
L 255.496282 101.57828 
L 255.821261 104.179482 
L 256.146241 109.840923 
L 256.47122 107.23972 
L 256.7962 101.884304 
L 257.121179 102.802375 
L 257.446159 102.190328 
L 257.771138 104.79153 
L 258.096118 104.79153 
L 258.421097 103.567435 
L 258.746077 103.108399 
L 259.071057 104.79153 
L 259.396036 104.485506 
L 259.721016 104.485506 
L 260.045995 104.179482 
L 260.370975 103.567435 
L 261.020934 104.179482 
L 261.345913 104.944542 
L 261.670893 103.261411 
L 261.995872 104.179482 
L 262.320852 103.414423 
L 262.645831 101.731292 
L 262.970811 105.556589 
L 263.29579 107.698756 
L 263.62077 104.332494 
L 263.945749 102.649363 
L 264.270729 105.250566 
L 264.595708 105.250566 
L 264.920688 103.873459 
L 265.245667 103.720447 
L 265.570647 104.02647 
L 265.895627 103.873459 
L 266.220606 105.556589 
L 266.870565 103.414423 
L 267.195545 102.037316 
L 267.520524 104.02647 
L 267.845504 102.802375 
L 268.170483 105.097554 
L 268.495463 104.944542 
L 269.145422 102.802375 
L 269.470401 102.34334 
L 269.795381 109.075863 
L 270.44534 103.414423 
L 270.770319 103.873459 
L 271.095299 103.261411 
L 271.420278 103.720447 
L 271.745258 104.638518 
L 272.070238 106.321649 
L 272.395217 104.638518 
L 272.720197 104.638518 
L 273.045176 103.261411 
L 273.370156 104.179482 
L 273.695135 106.627673 
L 274.345094 103.261411 
L 274.670074 104.332494 
L 274.995053 102.037316 
L 275.320033 103.873459 
L 275.645012 103.567435 
L 275.969992 105.250566 
L 276.294971 103.720447 
L 276.619951 104.638518 
L 276.94493 104.638518 
L 277.26991 102.802375 
L 277.594889 105.097554 
L 277.919869 103.261411 
L 278.569828 105.556589 
L 279.219787 102.34334 
L 279.869746 105.250566 
L 280.194726 107.851768 
L 280.519705 105.862613 
L 280.844685 102.802375 
L 281.494644 103.873459 
L 281.819623 103.720447 
L 282.144603 106.474661 
L 282.469582 105.403578 
L 282.794562 105.403578 
L 283.444521 103.567435 
L 283.7695 103.720447 
L 284.09448 106.321649 
L 284.419459 104.332494 
L 284.744439 103.873459 
L 285.069419 106.168637 
L 286.044357 104.332494 
L 286.369337 105.403578 
L 287.019296 105.403578 
L 287.344275 104.332494 
L 287.669255 104.638518 
L 287.994234 102.649363 
L 288.644193 106.321649 
L 288.969173 103.414423 
L 289.294152 106.474661 
L 289.619132 106.933697 
L 289.944111 105.097554 
L 290.269091 106.627673 
L 290.59407 102.955387 
L 290.91905 104.944542 
L 291.244029 105.862613 
L 291.569009 105.403578 
L 291.893989 103.873459 
L 292.218968 104.332494 
L 292.543948 105.556589 
L 292.868927 104.332494 
L 293.193907 105.556589 
L 293.843866 103.567435 
L 294.168845 104.332494 
L 294.493825 107.392732 
L 294.818804 105.709601 
L 295.143784 105.403578 
L 295.468763 101.57828 
L 296.118722 107.086709 
L 296.443702 104.79153 
L 296.768681 105.403578 
L 297.093661 102.649363 
L 297.41864 104.485506 
L 297.74362 103.261411 
L 298.0686 105.862613 
L 298.718559 107.392732 
L 299.043538 107.698756 
L 299.693497 102.190328 
L 300.018477 104.485506 
L 300.343456 103.108399 
L 300.668436 104.638518 
L 300.993415 108.463816 
L 301.968354 104.638518 
L 302.293333 106.321649 
L 302.618313 104.332494 
L 302.943292 103.108399 
L 303.593251 108.00478 
L 303.918231 104.638518 
L 304.24321 105.862613 
L 304.56819 103.567435 
L 304.89317 103.414423 
L 305.218149 104.944542 
L 305.543129 108.00478 
L 305.868108 106.627673 
L 306.193088 103.414423 
L 306.518067 104.02647 
L 306.843047 105.862613 
L 307.168026 106.627673 
L 307.493006 104.02647 
L 307.817985 106.321649 
L 308.142965 103.873459 
L 308.467944 105.709601 
L 308.792924 106.474661 
L 309.442883 104.179482 
L 309.767862 105.556589 
L 310.092842 105.862613 
L 310.417821 110.45297 
L 310.742801 106.474661 
L 311.067781 104.02647 
L 311.39276 104.638518 
L 311.71774 104.332494 
L 312.042719 107.23972 
L 312.367699 105.403578 
L 312.692678 106.015625 
L 313.017658 106.321649 
L 313.342637 105.862613 
L 313.667617 106.933697 
L 313.992596 107.086709 
L 314.317576 104.79153 
L 314.642555 105.556589 
L 314.967535 105.556589 
L 315.292514 104.638518 
L 315.617494 106.933697 
L 315.942473 105.862613 
L 316.267453 104.02647 
L 316.592432 107.086709 
L 316.917412 106.168637 
L 317.242391 106.474661 
L 317.567371 103.567435 
L 317.892351 106.627673 
L 318.21733 106.780685 
L 318.54231 105.097554 
L 318.867289 105.097554 
L 319.192269 103.261411 
L 319.517248 106.933697 
L 319.842228 106.780685 
L 320.167207 105.403578 
L 320.492187 103.414423 
L 320.817166 104.332494 
L 321.142146 106.627673 
L 321.467125 106.015625 
L 321.792105 104.79153 
L 322.117084 106.627673 
L 322.442064 103.873459 
L 322.767043 105.403578 
L 323.092023 108.616828 
L 323.417002 105.709601 
L 323.741982 106.780685 
L 324.066962 104.02647 
L 324.716921 106.474661 
L 325.691859 105.556589 
L 326.016839 106.933697 
L 326.341818 109.228875 
L 326.666798 106.015625 
L 326.991777 106.933697 
L 327.641736 103.108399 
L 327.966716 104.02647 
L 328.291695 104.332494 
L 328.616675 105.862613 
L 329.266634 106.933697 
L 329.591613 105.556589 
L 330.241572 106.474661 
L 330.566552 106.168637 
L 330.891532 103.414423 
L 331.216511 106.168637 
L 331.541491 106.933697 
L 331.86647 105.250566 
L 332.19145 106.474661 
L 332.516429 105.862613 
L 332.841409 106.015625 
L 333.166388 107.545744 
L 333.491368 103.873459 
L 333.816347 103.873459 
L 334.141327 104.638518 
L 334.466306 108.769839 
L 334.791286 108.616828 
L 335.116265 105.862613 
L 335.441245 105.097554 
L 335.766224 105.556589 
L 336.091204 107.086709 
L 336.416183 104.332494 
L 336.741163 105.403578 
L 337.066143 107.23972 
L 337.391122 105.403578 
L 337.716102 105.403578 
L 338.041081 105.862613 
L 338.366061 105.250566 
L 338.69104 107.23972 
L 339.01602 105.097554 
L 339.340999 107.392732 
L 339.665979 105.862613 
L 339.990958 103.261411 
L 340.640917 109.381887 
L 340.965897 105.709601 
L 341.290876 106.474661 
L 341.615856 105.709601 
L 341.940835 108.616828 
L 342.265815 107.545744 
L 342.590794 107.086709 
L 342.915774 105.556589 
L 343.240753 107.851768 
L 343.565733 107.086709 
L 343.890713 105.709601 
L 344.215692 105.862613 
L 344.540672 105.862613 
L 344.865651 108.00478 
L 345.190631 105.862613 
L 345.51561 107.086709 
L 345.84059 105.250566 
L 346.490549 106.474661 
L 347.140508 109.534899 
L 347.465487 105.250566 
L 347.790467 104.79153 
L 348.115446 103.720447 
L 348.440426 106.321649 
L 348.765405 106.321649 
L 349.090385 104.485506 
L 349.415364 108.769839 
L 350.065324 104.638518 
L 350.390303 105.709601 
L 350.715283 107.851768 
L 351.040262 108.922851 
L 351.365242 106.780685 
L 351.690221 106.627673 
L 352.015201 104.79153 
L 352.34018 106.933697 
L 352.66516 105.862613 
L 352.990139 108.310804 
L 353.640098 104.79153 
L 353.965078 103.873459 
L 354.290057 104.02647 
L 354.615037 106.474661 
L 354.940016 104.79153 
L 355.264996 107.086709 
L 355.589975 105.097554 
L 355.914955 105.097554 
L 356.239934 108.310804 
L 356.564914 107.23972 
L 356.889894 105.556589 
L 357.214873 105.862613 
L 357.539853 104.638518 
L 357.864832 108.157792 
L 358.189812 106.933697 
L 358.514791 108.922851 
L 358.839771 106.474661 
L 359.16475 107.698756 
L 359.48973 107.23972 
L 359.814709 104.332494 
L 360.464668 108.463816 
L 360.789648 106.321649 
L 361.114627 108.157792 
L 361.439607 107.086709 
L 361.764586 107.851768 
L 362.089566 112.136101 
L 362.414545 106.780685 
L 363.064505 102.955387 
L 363.389484 107.851768 
L 363.714464 108.769839 
L 364.039443 107.851768 
L 364.364423 106.015625 
L 364.689402 106.168637 
L 365.014382 106.933697 
L 365.339361 109.534899 
L 365.664341 109.840923 
L 365.98932 108.769839 
L 366.3143 106.321649 
L 366.639279 106.474661 
L 366.964259 107.851768 
L 367.289238 107.545744 
L 367.614218 106.168637 
L 367.939197 105.862613 
L 368.264177 104.79153 
L 368.589156 104.79153 
L 368.914136 110.45297 
L 369.564095 102.34334 
L 369.889075 105.250566 
L 370.539034 106.321649 
L 370.864013 108.00478 
L 371.188993 105.403578 
L 371.838952 106.474661 
L 372.163931 105.250566 
L 372.81389 108.922851 
L 373.13887 106.627673 
L 373.463849 105.250566 
L 373.788829 105.862613 
L 374.438788 110.299958 
L 374.763767 106.933697 
L 375.088747 106.168637 
L 375.413726 107.851768 
L 375.738706 106.933697 
L 376.063686 107.23972 
L 376.388665 108.00478 
L 376.713645 106.780685 
L 377.038624 106.933697 
L 377.363604 105.709601 
L 378.013563 107.392732 
L 378.338542 105.709601 
L 378.663522 108.310804 
L 379.313481 106.933697 
L 379.63846 105.556589 
L 379.96344 107.698756 
L 380.288419 108.157792 
L 380.613399 106.474661 
L 380.938378 106.627673 
L 381.263358 105.556589 
L 381.588337 106.168637 
L 381.913317 105.862613 
L 382.563276 107.086709 
L 383.213235 103.720447 
L 383.538215 107.851768 
L 383.863194 107.545744 
L 384.188174 108.463816 
L 384.513153 107.23972 
L 384.838133 104.332494 
L 385.163112 105.862613 
L 385.488092 109.993935 
L 385.813071 110.758994 
L 386.46303 104.332494 
L 386.78801 105.556589 
L 387.112989 108.00478 
L 387.437969 106.168637 
L 387.762948 106.780685 
L 388.087928 106.627673 
L 388.412907 104.485506 
L 388.737887 106.780685 
L 389.062867 106.168637 
L 389.387846 106.933697 
L 389.712826 105.862613 
L 390.037805 105.556589 
L 390.362785 107.851768 
L 390.687764 106.321649 
L 391.012744 107.086709 
L 391.337723 107.086709 
L 391.662703 107.851768 
L 391.987682 106.474661 
L 392.312662 106.933697 
L 392.637641 109.075863 
L 392.962621 106.933697 
L 393.2876 106.627673 
L 393.61258 103.261411 
L 394.262539 106.780685 
L 394.587518 106.627673 
L 394.912498 107.23972 
L 395.237477 105.556589 
L 395.562457 106.015625 
L 395.887437 107.545744 
L 396.212416 108.00478 
L 396.537396 107.545744 
L 396.862375 108.922851 
L 397.187355 106.474661 
L 397.837314 110.45297 
L 398.162293 106.933697 
L 398.487273 105.862613 
L 398.487273 105.862613 
" clip-path="url(#pcccae94932)" style="fill: none; stroke: #008000; stroke-width: 1.5; stroke-linecap: square"/>
   </g>
   <g id="line2d_14">
    <path d="M 73.832727 295.462081 
L 74.157707 236.327655 
L 74.482686 239.893317 
L 74.807666 182.84272 
L 75.132645 160.939365 
L 75.457625 156.632786 
L 75.782604 156.447557 
L 76.107584 153.48389 
L 76.432563 152.372514 
L 77.407502 146.213643 
L 78.057461 137.878328 
L 78.382441 135.424041 
L 78.70742 135.887114 
L 79.0324 133.38652 
L 79.357379 132.923447 
L 79.682359 128.200102 
L 80.007338 128.339024 
L 80.657297 122.041231 
L 80.982277 121.902309 
L 81.307256 120.605704 
L 81.632236 117.873573 
L 82.282195 115.558208 
L 82.607174 116.762198 
L 82.932154 114.168989 
L 83.257133 115.141443 
L 83.582113 114.307911 
L 83.907093 113.891145 
L 84.232072 113.891145 
L 84.557052 111.714702 
L 84.882031 113.659609 
L 85.207011 111.159014 
L 85.53199 110.649634 
L 85.85697 112.131468 
L 86.181949 110.325483 
L 86.506929 110.093946 
L 86.831908 110.093946 
L 87.156888 110.603327 
L 87.481867 109.630873 
L 87.806847 108.241654 
L 88.131826 109.075186 
L 88.456806 107.547045 
L 89.106765 108.65842 
L 89.431744 108.426884 
L 89.756724 110.093946 
L 90.406683 108.473191 
L 90.731663 108.65842 
L 91.381622 107.083972 
L 92.031581 108.334269 
L 92.35656 110.093946 
L 92.68154 106.759821 
L 93.006519 107.685967 
L 93.656478 107.315508 
L 93.981458 107.130279 
L 94.306437 107.824889 
L 94.631417 106.94505 
L 95.281376 108.612113 
L 95.606355 107.269201 
L 95.931335 108.426884 
L 96.256314 106.481977 
L 96.581294 106.296748 
L 96.906274 107.037664 
L 97.231253 106.574591 
L 97.556233 106.991357 
L 97.881212 106.667206 
L 98.206192 107.269201 
L 98.531171 106.620899 
L 98.856151 106.94505 
L 99.18113 106.343055 
L 99.50611 106.852435 
L 99.831089 105.787367 
L 100.156069 106.296748 
L 100.481048 105.879982 
L 101.131007 106.574591 
L 101.455987 106.296748 
L 101.780966 105.74106 
L 102.105946 105.694753 
L 102.430925 106.157826 
L 102.755905 106.852435 
L 103.080885 105.972597 
L 103.405864 105.972597 
L 103.730844 106.991357 
L 104.055823 106.343055 
L 104.380803 106.343055 
L 104.705782 105.648445 
L 105.355741 107.408123 
L 105.680721 106.852435 
L 106.0057 105.602138 
L 106.33068 106.018904 
L 106.655659 106.018904 
L 106.980639 107.685967 
L 107.305618 106.204133 
L 107.955577 107.732274 
L 108.280557 104.861221 
L 108.605536 106.667206 
L 108.930516 106.852435 
L 109.255495 106.759821 
L 109.580475 107.408123 
L 109.905455 106.898743 
L 110.230434 105.833675 
L 110.555414 106.43567 
L 110.880393 104.675992 
L 111.205373 105.787367 
L 111.530352 105.648445 
L 111.855332 106.204133 
L 112.505291 106.43567 
L 112.83027 105.879982 
L 113.15525 106.25044 
L 113.480229 105.04645 
L 113.805209 105.926289 
L 114.130188 105.416909 
L 114.455168 106.25044 
L 114.780147 106.157826 
L 115.105127 105.185372 
L 115.430106 105.416909 
L 115.755086 104.861221 
L 116.080066 107.361816 
L 116.405045 104.814914 
L 116.730025 106.204133 
L 117.055004 105.370602 
L 117.379984 105.694753 
L 117.704963 106.574591 
L 118.029943 105.463216 
L 118.354922 105.926289 
L 119.004881 105.185372 
L 119.65484 106.713513 
L 119.97982 106.667206 
L 120.304799 105.926289 
L 120.954758 105.463216 
L 121.279738 105.416909 
L 121.604717 104.490763 
L 121.929697 105.000143 
L 122.254676 105.277987 
L 122.579656 105.277987 
L 122.904636 105.787367 
L 123.554595 104.907529 
L 123.879574 106.018904 
L 124.204554 105.926289 
L 124.529533 106.157826 
L 124.854513 106.065211 
L 125.179492 104.675992 
L 125.504472 104.722299 
L 125.829451 108.380576 
L 126.154431 105.926289 
L 126.47941 104.722299 
L 127.129369 106.111518 
L 127.779328 106.296748 
L 128.104308 105.879982 
L 128.429287 104.259226 
L 128.754267 105.694753 
L 129.079247 105.74106 
L 129.404226 105.370602 
L 129.729206 106.25044 
L 130.054185 106.343055 
L 130.379165 105.04645 
L 130.704144 105.972597 
L 131.029124 105.000143 
L 131.679083 104.629685 
L 132.004062 106.157826 
L 132.329042 106.111518 
L 132.654021 105.23168 
L 132.979001 105.463216 
L 133.30398 105.000143 
L 133.62896 105.972597 
L 133.953939 105.694753 
L 134.278919 105.602138 
L 134.603898 105.277987 
L 134.928878 106.759821 
L 135.253857 106.065211 
L 135.578837 105.879982 
L 135.903817 106.25044 
L 136.228796 105.833675 
L 136.553776 105.694753 
L 136.878755 105.000143 
L 137.203735 106.065211 
L 137.528714 105.555831 
L 137.853694 105.509523 
L 138.178673 104.953836 
L 138.503653 106.111518 
L 138.828632 106.204133 
L 139.478591 105.463216 
L 139.803571 105.277987 
L 140.12855 105.324294 
L 140.45353 105.602138 
L 140.778509 105.04645 
L 141.103489 105.23168 
L 141.428468 104.444456 
L 141.753448 105.926289 
L 142.403407 104.53707 
L 142.728387 105.416909 
L 143.053366 105.416909 
L 143.378346 107.037664 
L 143.703325 106.667206 
L 144.028305 105.648445 
L 144.353284 105.694753 
L 144.678264 106.204133 
L 145.003243 106.25044 
L 145.328223 105.648445 
L 145.653202 106.389362 
L 145.978182 105.509523 
L 146.303161 106.713513 
L 146.628141 105.092758 
L 146.95312 105.416909 
L 147.2781 106.157826 
L 147.603079 105.277987 
L 147.928059 106.111518 
L 148.253038 105.926289 
L 148.578018 105.23168 
L 148.902998 104.953836 
L 149.227977 106.018904 
L 149.552957 105.648445 
L 149.877936 105.463216 
L 150.202916 106.343055 
L 150.527895 106.157826 
L 150.852875 107.130279 
L 151.177854 106.157826 
L 151.502834 106.806128 
L 151.827813 105.972597 
L 152.152793 105.833675 
L 152.477772 107.361816 
L 152.802752 105.879982 
L 153.127731 106.991357 
L 153.452711 106.43567 
L 153.77769 106.852435 
L 154.10267 106.111518 
L 154.752629 105.23168 
L 155.077609 106.620899 
L 155.402588 106.759821 
L 155.727568 106.389362 
L 156.052547 105.370602 
L 156.377527 105.509523 
L 156.702506 106.343055 
L 157.027486 105.000143 
L 157.352465 105.694753 
L 157.677445 105.74106 
L 158.002424 106.296748 
L 158.327404 106.43567 
L 158.652383 105.370602 
L 158.977363 106.528284 
L 159.302342 105.324294 
L 159.627322 106.481977 
L 160.277281 106.065211 
L 160.60226 105.463216 
L 160.92724 106.667206 
L 161.252219 105.694753 
L 161.577199 105.926289 
L 161.902179 106.389362 
L 162.227158 105.602138 
L 162.552138 105.787367 
L 162.877117 107.315508 
L 163.202097 106.43567 
L 163.527076 106.94505 
L 163.852056 106.157826 
L 164.502015 106.528284 
L 164.826994 106.389362 
L 165.151974 106.43567 
L 165.476953 106.111518 
L 165.801933 106.111518 
L 166.126912 107.45443 
L 166.451892 106.296748 
L 166.776871 107.083972 
L 167.101851 105.185372 
L 167.42683 106.806128 
L 167.75181 107.176586 
L 168.07679 106.065211 
L 168.726749 107.269201 
L 169.051728 107.361816 
L 169.376708 106.43567 
L 169.701687 107.037664 
L 170.026667 106.991357 
L 170.351646 107.083972 
L 171.001605 105.509523 
L 171.326585 105.324294 
L 171.651564 105.787367 
L 171.976544 106.94505 
L 172.301523 105.926289 
L 172.626503 105.416909 
L 172.951482 106.481977 
L 173.276462 105.463216 
L 173.601441 105.000143 
L 173.926421 106.528284 
L 174.2514 106.713513 
L 174.57638 106.481977 
L 174.90136 106.111518 
L 175.226339 106.157826 
L 175.551319 105.04645 
L 175.876298 104.583377 
L 176.201278 105.648445 
L 176.526257 105.463216 
L 176.851237 106.343055 
L 177.176216 107.963811 
L 177.501196 106.991357 
L 177.826175 107.315508 
L 178.151155 107.083972 
L 178.476134 107.547045 
L 178.801114 105.879982 
L 179.126093 106.806128 
L 179.451073 105.972597 
L 179.776052 106.806128 
L 180.101032 105.370602 
L 180.426011 107.871196 
L 180.750991 106.018904 
L 181.075971 106.620899 
L 181.40095 105.555831 
L 181.72593 105.74106 
L 182.050909 105.416909 
L 182.375889 107.130279 
L 182.700868 105.833675 
L 183.025848 107.361816 
L 183.350827 106.713513 
L 183.675807 106.389362 
L 184.000786 106.481977 
L 184.325766 106.991357 
L 184.650745 106.759821 
L 185.300704 105.602138 
L 185.625684 106.574591 
L 185.950663 106.713513 
L 186.275643 106.620899 
L 186.600622 106.296748 
L 186.925602 105.324294 
L 187.250581 107.963811 
L 187.575561 106.620899 
L 187.900541 106.481977 
L 188.5505 106.759821 
L 188.875479 106.713513 
L 189.200459 107.222894 
L 189.525438 107.500738 
L 189.850418 106.343055 
L 190.175397 107.176586 
L 190.500377 107.083972 
L 190.825356 106.667206 
L 191.150336 105.648445 
L 191.475315 106.620899 
L 191.800295 106.25044 
L 192.450254 107.732274 
L 192.775233 106.481977 
L 193.100213 106.389362 
L 193.425192 105.833675 
L 193.750172 106.25044 
L 194.075152 107.408123 
L 194.400131 106.343055 
L 194.725111 106.111518 
L 195.37507 107.361816 
L 195.700049 106.806128 
L 196.025029 109.816103 
L 196.350008 106.806128 
L 196.674988 107.222894 
L 196.999967 106.528284 
L 197.324947 108.010118 
L 197.649926 106.620899 
L 197.974906 107.269201 
L 198.299885 107.547045 
L 198.624865 107.037664 
L 198.949844 106.898743 
L 199.599803 107.732274 
L 199.924783 106.759821 
L 200.574742 106.620899 
L 200.899722 107.083972 
L 201.224701 106.574591 
L 201.549681 107.593352 
L 201.87466 107.176586 
L 202.19964 108.010118 
L 202.849599 106.204133 
L 203.174578 106.111518 
L 203.499558 107.639659 
L 203.824537 106.713513 
L 204.149517 106.806128 
L 204.799476 107.639659 
L 205.124455 107.222894 
L 205.449435 106.25044 
L 205.774414 106.111518 
L 206.424373 107.917503 
L 206.749353 106.43567 
L 207.074333 107.037664 
L 207.399312 107.963811 
L 207.724292 108.473191 
L 208.049271 106.759821 
L 208.374251 106.43567 
L 208.69923 106.713513 
L 209.349189 108.65842 
L 209.674169 106.481977 
L 209.999148 106.296748 
L 210.324128 106.806128 
L 210.649107 106.528284 
L 210.974087 106.667206 
L 211.299066 107.547045 
L 211.624046 106.620899 
L 211.949025 107.500738 
L 212.598984 106.574591 
L 212.923964 106.620899 
L 213.248943 106.343055 
L 213.573923 106.343055 
L 213.898903 107.408123 
L 214.223882 107.269201 
L 214.548862 106.389362 
L 214.873841 106.111518 
L 215.198821 106.43567 
L 215.5238 107.824889 
L 215.84878 107.130279 
L 216.173759 106.852435 
L 216.498739 106.806128 
L 216.823718 106.94505 
L 217.148698 107.685967 
L 217.473677 107.500738 
L 217.798657 106.852435 
L 218.123636 107.45443 
L 218.448616 106.991357 
L 218.773595 107.45443 
L 219.098575 107.083972 
L 219.423554 107.871196 
L 219.748534 106.806128 
L 220.398493 105.972597 
L 220.723473 106.343055 
L 221.048452 107.176586 
L 221.373432 106.667206 
L 221.698411 108.056425 
L 222.023391 107.500738 
L 222.34837 107.824889 
L 222.67335 107.130279 
L 222.998329 108.843649 
L 223.323309 107.593352 
L 223.648288 107.732274 
L 223.973268 107.361816 
L 224.298247 107.176586 
L 224.623227 108.241654 
L 224.948206 106.759821 
L 225.923145 107.917503 
L 226.248124 107.593352 
L 226.573104 107.871196 
L 226.898084 108.519498 
L 227.223063 107.778581 
L 227.548043 108.612113 
L 227.873022 107.963811 
L 228.198002 107.917503 
L 228.522981 106.528284 
L 228.847961 109.121493 
L 229.17294 108.010118 
L 229.49792 108.056425 
L 229.822899 107.408123 
L 230.147879 108.056425 
L 230.472858 106.898743 
L 230.797838 107.361816 
L 231.122817 107.361816 
L 231.447797 107.917503 
L 231.772776 107.037664 
L 232.422735 108.704727 
L 232.747715 108.287962 
L 233.072695 106.898743 
L 233.397674 106.481977 
L 233.722654 108.195347 
L 234.047633 107.963811 
L 234.372613 108.65842 
L 234.697592 107.639659 
L 235.022572 107.361816 
L 235.347551 106.713513 
L 235.672531 106.713513 
L 235.99751 107.45443 
L 236.32249 106.481977 
L 236.647469 108.102732 
L 236.972449 108.519498 
L 237.297428 109.538259 
L 237.622408 106.806128 
L 237.947387 108.612113 
L 238.272367 108.380576 
L 238.597346 107.176586 
L 239.247305 109.630873 
L 239.897265 108.473191 
L 240.547224 106.574591 
L 240.872203 106.759821 
L 241.197183 108.612113 
L 241.522162 109.630873 
L 241.847142 108.612113 
L 242.172121 106.759821 
L 242.497101 107.593352 
L 242.82208 107.963811 
L 243.472039 109.584566 
L 243.797019 108.473191 
L 244.121998 106.759821 
L 244.446978 108.797342 
L 244.771957 109.35303 
L 245.421916 106.852435 
L 246.071876 109.723488 
L 246.396855 107.824889 
L 246.721835 108.565805 
L 247.046814 108.380576 
L 247.371794 107.778581 
L 247.696773 109.723488 
L 248.021753 107.593352 
L 248.346732 106.991357 
L 248.671712 109.121493 
L 248.996691 109.028879 
L 249.321671 108.704727 
L 249.64665 107.871196 
L 249.97163 108.334269 
L 250.296609 108.473191 
L 250.621589 108.241654 
L 250.946568 107.361816 
L 251.271548 108.519498 
L 251.596527 107.547045 
L 251.921507 109.260415 
L 252.246486 108.751035 
L 252.571466 106.991357 
L 252.896446 109.630873 
L 253.221425 108.380576 
L 253.546405 108.565805 
L 253.871384 108.426884 
L 254.196364 110.973785 
L 254.521343 110.464405 
L 254.846323 108.241654 
L 255.171302 108.010118 
L 255.496282 108.241654 
L 255.821261 107.732274 
L 256.146241 111.112707 
L 256.47122 108.380576 
L 256.7962 107.222894 
L 257.446159 107.037664 
L 257.771138 108.936264 
L 258.096118 109.538259 
L 258.421097 109.075186 
L 258.746077 107.45443 
L 259.071057 108.056425 
L 259.396036 106.991357 
L 259.721016 108.519498 
L 260.045995 109.028879 
L 260.370975 108.704727 
L 260.695954 106.713513 
L 261.020934 109.491952 
L 261.345913 108.704727 
L 261.670893 108.612113 
L 261.995872 107.917503 
L 262.320852 108.426884 
L 262.645831 106.991357 
L 262.970811 109.86241 
L 263.29579 110.001332 
L 263.62077 107.871196 
L 263.945749 107.824889 
L 264.270729 109.260415 
L 264.595708 108.334269 
L 264.920688 109.908717 
L 265.245667 107.824889 
L 265.570647 107.037664 
L 265.895627 108.14904 
L 266.220606 107.824889 
L 266.545586 109.214108 
L 266.870565 107.732274 
L 267.520524 107.593352 
L 267.845504 108.195347 
L 268.170483 108.287962 
L 268.820442 106.898743 
L 269.470401 107.732274 
L 269.795381 111.529473 
L 270.12036 108.102732 
L 270.44534 108.65842 
L 270.770319 107.500738 
L 271.095299 107.778581 
L 271.420278 107.269201 
L 271.745258 109.538259 
L 272.070238 109.816103 
L 272.395217 108.241654 
L 272.720197 107.778581 
L 273.045176 108.334269 
L 273.370156 107.824889 
L 274.020115 110.325483 
L 274.345094 107.778581 
L 274.670074 108.426884 
L 275.320033 108.056425 
L 275.645012 109.445644 
L 275.969992 107.824889 
L 276.619951 108.473191 
L 276.94493 107.639659 
L 277.26991 108.380576 
L 277.594889 108.241654 
L 277.919869 108.565805 
L 278.244848 108.426884 
L 278.569828 109.955025 
L 278.894808 107.732274 
L 279.219787 107.361816 
L 279.544767 107.500738 
L 279.869746 108.195347 
L 280.194726 111.992546 
L 280.519705 110.742249 
L 280.844685 107.685967 
L 281.169664 108.473191 
L 281.494644 108.056425 
L 281.819623 108.473191 
L 282.144603 110.047639 
L 282.469582 111.020093 
L 283.119541 106.852435 
L 283.444521 108.565805 
L 283.7695 108.195347 
L 284.09448 109.584566 
L 284.419459 109.121493 
L 284.744439 110.186561 
L 285.069419 109.445644 
L 285.394398 110.047639 
L 286.044357 108.010118 
L 286.369337 109.35303 
L 286.694316 108.334269 
L 287.019296 108.473191 
L 287.344275 107.45443 
L 287.669255 108.704727 
L 287.994234 109.075186 
L 288.319214 107.917503 
L 289.294152 110.55702 
L 289.619132 110.37179 
L 289.944111 108.241654 
L 290.269091 108.612113 
L 290.91905 108.010118 
L 291.244029 110.140254 
L 291.569009 108.982571 
L 291.893989 108.519498 
L 292.218968 107.778581 
L 292.543948 108.473191 
L 293.193907 109.121493 
L 293.518886 107.732274 
L 294.168845 108.982571 
L 294.493825 109.028879 
L 294.818804 109.491952 
L 295.143784 109.723488 
L 295.468763 108.14904 
L 295.793743 109.445644 
L 296.443702 109.1678 
L 296.768681 110.140254 
L 297.093661 109.35303 
L 297.41864 109.121493 
L 298.0686 107.361816 
L 298.718559 110.186561 
L 299.043538 110.464405 
L 299.368518 108.797342 
L 299.693497 108.010118 
L 300.018477 108.519498 
L 300.343456 108.102732 
L 300.668436 108.982571 
L 300.993415 110.649634 
L 301.318395 110.047639 
L 301.643374 110.232868 
L 301.968354 107.917503 
L 302.293333 108.14904 
L 302.618313 109.723488 
L 302.943292 108.287962 
L 303.268272 109.677181 
L 303.593251 110.186561 
L 303.918231 109.445644 
L 304.24321 110.093946 
L 304.56819 108.65842 
L 304.89317 107.963811 
L 305.218149 110.047639 
L 305.543129 110.927478 
L 305.868108 110.279176 
L 306.518067 107.269201 
L 306.843047 109.35303 
L 307.168026 109.677181 
L 307.493006 108.241654 
L 307.817985 108.195347 
L 308.142965 107.732274 
L 308.467944 110.510712 
L 308.792924 109.955025 
L 309.117903 108.056425 
L 309.442883 109.214108 
L 309.767862 108.473191 
L 310.092842 108.889957 
L 310.417821 113.28915 
L 310.742801 110.788556 
L 311.39276 107.963811 
L 311.71774 109.306722 
L 312.042719 109.769795 
L 312.367699 109.214108 
L 312.692678 110.093946 
L 313.017658 109.630873 
L 313.342637 108.612113 
L 313.667617 109.584566 
L 313.992596 109.955025 
L 314.317576 108.751035 
L 314.642555 108.102732 
L 314.967535 108.473191 
L 315.292514 107.871196 
L 315.617494 109.399337 
L 315.942473 109.955025 
L 316.267453 111.205322 
L 316.592432 109.35303 
L 317.567371 109.630873 
L 317.892351 110.973785 
L 318.21733 111.483166 
L 318.54231 109.816103 
L 318.867289 109.955025 
L 319.192269 108.797342 
L 319.517248 108.287962 
L 319.842228 109.908717 
L 320.167207 110.140254 
L 320.492187 108.380576 
L 320.817166 108.195347 
L 321.142146 108.751035 
L 321.467125 108.14904 
L 321.792105 108.334269 
L 322.117084 109.445644 
L 322.442064 109.86241 
L 322.767043 110.047639 
L 323.092023 111.436858 
L 323.417002 109.584566 
L 323.741982 109.584566 
L 324.066962 108.010118 
L 324.391941 108.982571 
L 324.716921 108.519498 
L 325.0419 108.751035 
L 325.36688 110.047639 
L 326.016839 108.936264 
L 326.341818 109.028879 
L 326.666798 108.14904 
L 327.641736 109.723488 
L 327.966716 109.260415 
L 328.291695 109.723488 
L 328.616675 109.306722 
L 328.941654 108.241654 
L 329.266634 109.214108 
L 329.591613 109.306722 
L 329.916593 108.565805 
L 330.241572 110.279176 
L 330.566552 109.86241 
L 330.891532 110.140254 
L 331.216511 108.380576 
L 331.541491 108.14904 
L 331.86647 107.361816 
L 332.19145 109.35303 
L 332.516429 109.769795 
L 332.841409 108.843649 
L 333.166388 111.622088 
L 333.491368 109.723488 
L 333.816347 108.982571 
L 334.791286 110.881171 
L 335.116265 108.287962 
L 335.441245 108.612113 
L 335.766224 110.55702 
L 336.416183 108.889957 
L 336.741163 109.445644 
L 337.066143 109.399337 
L 337.391122 108.889957 
L 337.716102 109.445644 
L 338.041081 108.14904 
L 338.366061 109.816103 
L 338.69104 110.695941 
L 339.340999 108.241654 
L 339.665979 109.075186 
L 340.315938 109.35303 
L 340.640917 112.177775 
L 340.965897 110.742249 
L 341.290876 108.102732 
L 341.940835 110.55702 
L 342.265815 109.260415 
L 342.590794 111.57578 
L 342.915774 110.695941 
L 343.240753 108.936264 
L 343.565733 108.797342 
L 343.890713 108.334269 
L 344.215692 109.399337 
L 344.540672 109.445644 
L 344.865651 110.695941 
L 345.190631 109.816103 
L 345.84059 110.186561 
L 346.165569 108.797342 
L 346.490549 108.843649 
L 347.140508 111.807317 
L 347.465487 107.361816 
L 347.790467 109.214108 
L 348.115446 109.538259 
L 348.440426 111.112707 
L 348.765405 108.936264 
L 349.090385 109.630873 
L 349.415364 110.001332 
L 349.740344 109.491952 
L 350.065324 109.399337 
L 350.390303 111.159014 
L 350.715283 110.140254 
L 351.040262 110.186561 
L 352.015201 109.35303 
L 352.34018 111.251629 
L 352.66516 111.112707 
L 352.990139 109.816103 
L 353.315119 110.279176 
L 354.290057 109.1678 
L 354.615037 108.982571 
L 355.264996 110.140254 
L 355.589975 109.491952 
L 355.914955 108.519498 
L 356.239934 110.510712 
L 356.564914 108.426884 
L 356.889894 109.075186 
L 357.214873 108.797342 
L 357.539853 109.028879 
L 357.864832 109.028879 
L 358.514791 110.186561 
L 358.839771 109.677181 
L 359.16475 110.510712 
L 359.48973 109.908717 
L 359.814709 109.908717 
L 360.139689 110.464405 
L 360.464668 109.816103 
L 360.789648 109.816103 
L 361.114627 110.603327 
L 361.439607 110.186561 
L 361.764586 110.418098 
L 362.089566 110.973785 
L 362.414545 109.584566 
L 362.739525 110.140254 
L 363.064505 110.186561 
L 363.389484 110.649634 
L 363.714464 112.038853 
L 364.364423 109.214108 
L 364.689402 109.445644 
L 365.014382 108.612113 
L 365.339361 110.418098 
L 365.98932 110.325483 
L 366.3143 108.889957 
L 366.639279 108.704727 
L 366.964259 109.35303 
L 367.289238 108.936264 
L 367.614218 109.399337 
L 367.939197 111.112707 
L 368.264177 110.001332 
L 368.589156 109.723488 
L 368.914136 112.224082 
L 369.239115 109.538259 
L 369.564095 108.056425 
L 369.889075 108.889957 
L 370.539034 109.86241 
L 370.864013 111.483166 
L 371.513972 109.121493 
L 371.838952 109.769795 
L 372.163931 109.630873 
L 372.488911 110.788556 
L 372.81389 109.86241 
L 373.13887 109.445644 
L 373.463849 108.797342 
L 374.113808 110.047639 
L 374.438788 111.344244 
L 375.088747 109.306722 
L 375.413726 109.399337 
L 375.738706 110.140254 
L 376.063686 110.001332 
L 376.388665 109.214108 
L 376.713645 109.769795 
L 377.363604 107.963811 
L 377.688583 110.834863 
L 378.013563 111.205322 
L 378.338542 109.955025 
L 378.663522 110.232868 
L 378.988501 109.1678 
L 379.313481 110.093946 
L 379.63846 110.418098 
L 379.96344 109.630873 
L 380.288419 110.001332 
L 380.613399 110.047639 
L 380.938378 109.214108 
L 381.263358 109.723488 
L 381.588337 109.214108 
L 381.913317 109.491952 
L 382.238296 110.649634 
L 382.563276 108.889957 
L 383.213235 109.723488 
L 383.863194 109.399337 
L 384.188174 109.908717 
L 384.513153 109.445644 
L 385.163112 108.102732 
L 385.813071 112.733463 
L 386.138051 110.418098 
L 386.78801 108.241654 
L 387.112989 110.510712 
L 387.437969 110.232868 
L 387.762948 109.075186 
L 388.087928 110.001332 
L 388.412907 109.538259 
L 388.737887 108.380576 
L 389.062867 109.075186 
L 389.387846 109.445644 
L 389.712826 110.464405 
L 390.037805 110.742249 
L 390.362785 109.677181 
L 390.687764 110.232868 
L 391.012744 111.436858 
L 391.337723 111.899931 
L 391.662703 111.390551 
L 391.987682 109.769795 
L 392.312662 110.834863 
L 392.962621 109.955025 
L 393.2876 111.436858 
L 393.61258 108.797342 
L 393.937559 110.093946 
L 394.262539 109.677181 
L 394.587518 110.186561 
L 394.912498 109.538259 
L 395.237477 110.186561 
L 395.562457 111.436858 
L 395.887437 109.769795 
L 396.537396 111.714702 
L 396.862375 111.159014 
L 397.187355 109.121493 
L 397.512334 110.047639 
L 397.837314 112.27039 
L 398.162293 109.214108 
L 398.487273 110.510712 
L 398.487273 110.510712 
" clip-path="url(#pcccae94932)" style="fill: none; stroke: #ff0000; stroke-width: 1.5; stroke-linecap: square"/>
   </g>
   <g id="patch_3">
    <path d="M 57.6 307.584 
L 57.6 41.472 
" style="fill: none; stroke: #000000; stroke-width: 0.8; stroke-linejoin: miter; stroke-linecap: square"/>
   </g>
   <g id="patch_4">
    <path d="M 414.72 307.584 
L 414.72 41.472 
" style="fill: none; stroke: #000000; stroke-width: 0.8; stroke-linejoin: miter; stroke-linecap: square"/>
   </g>
   <g id="patch_5">
    <path d="M 57.6 307.584 
L 414.72 307.584 
" style="fill: none; stroke: #000000; stroke-width: 0.8; stroke-linejoin: miter; stroke-linecap: square"/>
   </g>
   <g id="patch_6">
    <path d="M 57.6 41.472 
L 414.72 41.472 
" style="fill: none; stroke: #000000; stroke-width: 0.8; stroke-linejoin: miter; stroke-linecap: square"/>
   </g>
   <g id="text_14">
    <!-- spectrumGCN+WikiCs+WithGraph_WikiCs_WithOutGraph_Training and Validation accuracy -->
    <g transform="translate(-36.760312 35.472) scale(0.12 -0.12)">
     <defs>
      <path id="DejaVuSans-73" d="M 2834 3397 
L 2834 2853 
Q 2591 2978 2328 3040 
Q 2066 3103 1784 3103 
Q 1356 3103 1142 2972 
Q 928 2841 928 2578 
Q 928 2378 1081 2264 
Q 1234 2150 1697 2047 
L 1894 2003 
Q 2506 1872 2764 1633 
Q 3022 1394 3022 966 
Q 3022 478 2636 193 
Q 2250 -91 1575 -91 
Q 1294 -91 989 -36 
Q 684 19 347 128 
L 347 722 
Q 666 556 975 473 
Q 1284 391 1588 391 
Q 1994 391 2212 530 
Q 2431 669 2431 922 
Q 2431 1156 2273 1281 
Q 2116 1406 1581 1522 
L 1381 1569 
Q 847 1681 609 1914 
Q 372 2147 372 2553 
Q 372 3047 722 3315 
Q 1072 3584 1716 3584 
Q 2034 3584 2315 3537 
Q 2597 3491 2834 3397 
z
" transform="scale(0.015625)"/>
      <path id="DejaVuSans-74" d="M 1172 4494 
L 1172 3500 
L 2356 3500 
L 2356 3053 
L 1172 3053 
L 1172 1153 
Q 1172 725 1289 603 
Q 1406 481 1766 481 
L 2356 481 
L 2356 0 
L 1766 0 
Q 1100 0 847 248 
Q 594 497 594 1153 
L 594 3053 
L 172 3053 
L 172 3500 
L 594 3500 
L 594 4494 
L 1172 4494 
z
" transform="scale(0.015625)"/>
      <path id="DejaVuSans-6d" d="M 3328 2828 
Q 3544 3216 3844 3400 
Q 4144 3584 4550 3584 
Q 5097 3584 5394 3201 
Q 5691 2819 5691 2113 
L 5691 0 
L 5113 0 
L 5113 2094 
Q 5113 2597 4934 2840 
Q 4756 3084 4391 3084 
Q 3944 3084 3684 2787 
Q 3425 2491 3425 1978 
L 3425 0 
L 2847 0 
L 2847 2094 
Q 2847 2600 2669 2842 
Q 2491 3084 2119 3084 
Q 1678 3084 1418 2786 
Q 1159 2488 1159 1978 
L 1159 0 
L 581 0 
L 581 3500 
L 1159 3500 
L 1159 2956 
Q 1356 3278 1631 3431 
Q 1906 3584 2284 3584 
Q 2666 3584 2933 3390 
Q 3200 3197 3328 2828 
z
" transform="scale(0.015625)"/>
      <path id="DejaVuSans-47" d="M 3809 666 
L 3809 1919 
L 2778 1919 
L 2778 2438 
L 4434 2438 
L 4434 434 
Q 4069 175 3628 42 
Q 3188 -91 2688 -91 
Q 1594 -91 976 548 
Q 359 1188 359 2328 
Q 359 3472 976 4111 
Q 1594 4750 2688 4750 
Q 3144 4750 3555 4637 
Q 3966 4525 4313 4306 
L 4313 3634 
Q 3963 3931 3569 4081 
Q 3175 4231 2741 4231 
Q 1884 4231 1454 3753 
Q 1025 3275 1025 2328 
Q 1025 1384 1454 906 
Q 1884 428 2741 428 
Q 3075 428 3337 486 
Q 3600 544 3809 666 
z
" transform="scale(0.015625)"/>
      <path id="DejaVuSans-43" d="M 4122 4306 
L 4122 3641 
Q 3803 3938 3442 4084 
Q 3081 4231 2675 4231 
Q 1875 4231 1450 3742 
Q 1025 3253 1025 2328 
Q 1025 1406 1450 917 
Q 1875 428 2675 428 
Q 3081 428 3442 575 
Q 3803 722 4122 1019 
L 4122 359 
Q 3791 134 3420 21 
Q 3050 -91 2638 -91 
Q 1578 -91 968 557 
Q 359 1206 359 2328 
Q 359 3453 968 4101 
Q 1578 4750 2638 4750 
Q 3056 4750 3426 4639 
Q 3797 4528 4122 4306 
z
" transform="scale(0.015625)"/>
      <path id="DejaVuSans-4e" d="M 628 4666 
L 1478 4666 
L 3547 763 
L 3547 4666 
L 4159 4666 
L 4159 0 
L 3309 0 
L 1241 3903 
L 1241 0 
L 628 0 
L 628 4666 
z
" transform="scale(0.015625)"/>
      <path id="DejaVuSans-2b" d="M 2944 4013 
L 2944 2272 
L 4684 2272 
L 4684 1741 
L 2944 1741 
L 2944 0 
L 2419 0 
L 2419 1741 
L 678 1741 
L 678 2272 
L 2419 2272 
L 2419 4013 
L 2944 4013 
z
" transform="scale(0.015625)"/>
      <path id="DejaVuSans-57" d="M 213 4666 
L 850 4666 
L 1831 722 
L 2809 4666 
L 3519 4666 
L 4500 722 
L 5478 4666 
L 6119 4666 
L 4947 0 
L 4153 0 
L 3169 4050 
L 2175 0 
L 1381 0 
L 213 4666 
z
" transform="scale(0.015625)"/>
      <path id="DejaVuSans-69" d="M 603 3500 
L 1178 3500 
L 1178 0 
L 603 0 
L 603 3500 
z
M 603 4863 
L 1178 4863 
L 1178 4134 
L 603 4134 
L 603 4863 
z
" transform="scale(0.015625)"/>
      <path id="DejaVuSans-6b" d="M 581 4863 
L 1159 4863 
L 1159 1991 
L 2875 3500 
L 3609 3500 
L 1753 1863 
L 3688 0 
L 2938 0 
L 1159 1709 
L 1159 0 
L 581 0 
L 581 4863 
z
" transform="scale(0.015625)"/>
      <path id="DejaVuSans-5f" d="M 3263 -1063 
L 3263 -1509 
L -63 -1509 
L -63 -1063 
L 3263 -1063 
z
" transform="scale(0.015625)"/>
      <path id="DejaVuSans-4f" d="M 2522 4238 
Q 1834 4238 1429 3725 
Q 1025 3213 1025 2328 
Q 1025 1447 1429 934 
Q 1834 422 2522 422 
Q 3209 422 3611 934 
Q 4013 1447 4013 2328 
Q 4013 3213 3611 3725 
Q 3209 4238 2522 4238 
z
M 2522 4750 
Q 3503 4750 4090 4092 
Q 4678 3434 4678 2328 
Q 4678 1225 4090 567 
Q 3503 -91 2522 -91 
Q 1538 -91 948 565 
Q 359 1222 359 2328 
Q 359 3434 948 4092 
Q 1538 4750 2522 4750 
z
" transform="scale(0.015625)"/>
      <path id="DejaVuSans-54" d="M -19 4666 
L 3928 4666 
L 3928 4134 
L 2272 4134 
L 2272 0 
L 1638 0 
L 1638 4134 
L -19 4134 
L -19 4666 
z
" transform="scale(0.015625)"/>
      <path id="DejaVuSans-6e" d="M 3513 2113 
L 3513 0 
L 2938 0 
L 2938 2094 
Q 2938 2591 2744 2837 
Q 2550 3084 2163 3084 
Q 1697 3084 1428 2787 
Q 1159 2491 1159 1978 
L 1159 0 
L 581 0 
L 581 3500 
L 1159 3500 
L 1159 2956 
Q 1366 3272 1645 3428 
Q 1925 3584 2291 3584 
Q 2894 3584 3203 3211 
Q 3513 2838 3513 2113 
z
" transform="scale(0.015625)"/>
      <path id="DejaVuSans-67" d="M 2906 1791 
Q 2906 2416 2648 2759 
Q 2391 3103 1925 3103 
Q 1463 3103 1205 2759 
Q 947 2416 947 1791 
Q 947 1169 1205 825 
Q 1463 481 1925 481 
Q 2391 481 2648 825 
Q 2906 1169 2906 1791 
z
M 3481 434 
Q 3481 -459 3084 -895 
Q 2688 -1331 1869 -1331 
Q 1566 -1331 1297 -1286 
Q 1028 -1241 775 -1147 
L 775 -588 
Q 1028 -725 1275 -790 
Q 1522 -856 1778 -856 
Q 2344 -856 2625 -561 
Q 2906 -266 2906 331 
L 2906 616 
Q 2728 306 2450 153 
Q 2172 0 1784 0 
Q 1141 0 747 490 
Q 353 981 353 1791 
Q 353 2603 747 3093 
Q 1141 3584 1784 3584 
Q 2172 3584 2450 3431 
Q 2728 3278 2906 2969 
L 2906 3500 
L 3481 3500 
L 3481 434 
z
" transform="scale(0.015625)"/>
      <path id="DejaVuSans-20" transform="scale(0.015625)"/>
      <path id="DejaVuSans-64" d="M 2906 2969 
L 2906 4863 
L 3481 4863 
L 3481 0 
L 2906 0 
L 2906 525 
Q 2725 213 2448 61 
Q 2172 -91 1784 -91 
Q 1150 -91 751 415 
Q 353 922 353 1747 
Q 353 2572 751 3078 
Q 1150 3584 1784 3584 
Q 2172 3584 2448 3432 
Q 2725 3281 2906 2969 
z
M 947 1747 
Q 947 1113 1208 752 
Q 1469 391 1925 391 
Q 2381 391 2643 752 
Q 2906 1113 2906 1747 
Q 2906 2381 2643 2742 
Q 2381 3103 1925 3103 
Q 1469 3103 1208 2742 
Q 947 2381 947 1747 
z
" transform="scale(0.015625)"/>
      <path id="DejaVuSans-56" d="M 1831 0 
L 50 4666 
L 709 4666 
L 2188 738 
L 3669 4666 
L 4325 4666 
L 2547 0 
L 1831 0 
z
" transform="scale(0.015625)"/>
      <path id="DejaVuSans-6c" d="M 603 4863 
L 1178 4863 
L 1178 0 
L 603 0 
L 603 4863 
z
" transform="scale(0.015625)"/>
     </defs>
     <use xlink:href="#DejaVuSans-73"/>
     <use xlink:href="#DejaVuSans-70" x="52.099609"/>
     <use xlink:href="#DejaVuSans-65" x="115.576172"/>
     <use xlink:href="#DejaVuSans-63" x="177.099609"/>
     <use xlink:href="#DejaVuSans-74" x="232.080078"/>
     <use xlink:href="#DejaVuSans-72" x="271.289062"/>
     <use xlink:href="#DejaVuSans-75" x="312.402344"/>
     <use xlink:href="#DejaVuSans-6d" x="375.78125"/>
     <use xlink:href="#DejaVuSans-47" x="473.193359"/>
     <use xlink:href="#DejaVuSans-43" x="550.683594"/>
     <use xlink:href="#DejaVuSans-4e" x="620.507812"/>
     <use xlink:href="#DejaVuSans-2b" x="695.3125"/>
     <use xlink:href="#DejaVuSans-57" x="779.101562"/>
     <use xlink:href="#DejaVuSans-69" x="875.728516"/>
     <use xlink:href="#DejaVuSans-6b" x="903.511719"/>
     <use xlink:href="#DejaVuSans-69" x="961.421875"/>
     <use xlink:href="#DejaVuSans-43" x="989.205078"/>
     <use xlink:href="#DejaVuSans-73" x="1059.029297"/>
     <use xlink:href="#DejaVuSans-2b" x="1111.128906"/>
     <use xlink:href="#DejaVuSans-57" x="1194.917969"/>
     <use xlink:href="#DejaVuSans-69" x="1291.544922"/>
     <use xlink:href="#DejaVuSans-74" x="1319.328125"/>
     <use xlink:href="#DejaVuSans-68" x="1358.537109"/>
     <use xlink:href="#DejaVuSans-47" x="1421.916016"/>
     <use xlink:href="#DejaVuSans-72" x="1499.40625"/>
     <use xlink:href="#DejaVuSans-61" x="1540.519531"/>
     <use xlink:href="#DejaVuSans-70" x="1601.798828"/>
     <use xlink:href="#DejaVuSans-68" x="1665.275391"/>
     <use xlink:href="#DejaVuSans-5f" x="1728.654297"/>
     <use xlink:href="#DejaVuSans-57" x="1778.654297"/>
     <use xlink:href="#DejaVuSans-69" x="1875.28125"/>
     <use xlink:href="#DejaVuSans-6b" x="1903.064453"/>
     <use xlink:href="#DejaVuSans-69" x="1960.974609"/>
     <use xlink:href="#DejaVuSans-43" x="1988.757812"/>
     <use xlink:href="#DejaVuSans-73" x="2058.582031"/>
     <use xlink:href="#DejaVuSans-5f" x="2110.681641"/>
     <use xlink:href="#DejaVuSans-57" x="2160.681641"/>
     <use xlink:href="#DejaVuSans-69" x="2257.308594"/>
     <use xlink:href="#DejaVuSans-74" x="2285.091797"/>
     <use xlink:href="#DejaVuSans-68" x="2324.300781"/>
     <use xlink:href="#DejaVuSans-4f" x="2387.679688"/>
     <use xlink:href="#DejaVuSans-75" x="2466.390625"/>
     <use xlink:href="#DejaVuSans-74" x="2529.769531"/>
     <use xlink:href="#DejaVuSans-47" x="2568.978516"/>
     <use xlink:href="#DejaVuSans-72" x="2646.46875"/>
     <use xlink:href="#DejaVuSans-61" x="2687.582031"/>
     <use xlink:href="#DejaVuSans-70" x="2748.861328"/>
     <use xlink:href="#DejaVuSans-68" x="2812.337891"/>
     <use xlink:href="#DejaVuSans-5f" x="2875.716797"/>
     <use xlink:href="#DejaVuSans-54" x="2925.716797"/>
     <use xlink:href="#DejaVuSans-72" x="2972.050781"/>
     <use xlink:href="#DejaVuSans-61" x="3013.164062"/>
     <use xlink:href="#DejaVuSans-69" x="3074.443359"/>
     <use xlink:href="#DejaVuSans-6e" x="3102.226562"/>
     <use xlink:href="#DejaVuSans-69" x="3165.605469"/>
     <use xlink:href="#DejaVuSans-6e" x="3193.388672"/>
     <use xlink:href="#DejaVuSans-67" x="3256.767578"/>
     <use xlink:href="#DejaVuSans-20" x="3320.244141"/>
     <use xlink:href="#DejaVuSans-61" x="3352.03125"/>
     <use xlink:href="#DejaVuSans-6e" x="3413.310547"/>
     <use xlink:href="#DejaVuSans-64" x="3476.689453"/>
     <use xlink:href="#DejaVuSans-20" x="3540.166016"/>
     <use xlink:href="#DejaVuSans-56" x="3571.953125"/>
     <use xlink:href="#DejaVuSans-61" x="3632.611328"/>
     <use xlink:href="#DejaVuSans-6c" x="3693.890625"/>
     <use xlink:href="#DejaVuSans-69" x="3721.673828"/>
     <use xlink:href="#DejaVuSans-64" x="3749.457031"/>
     <use xlink:href="#DejaVuSans-61" x="3812.933594"/>
     <use xlink:href="#DejaVuSans-74" x="3874.212891"/>
     <use xlink:href="#DejaVuSans-69" x="3913.421875"/>
     <use xlink:href="#DejaVuSans-6f" x="3941.205078"/>
     <use xlink:href="#DejaVuSans-6e" x="4002.386719"/>
     <use xlink:href="#DejaVuSans-20" x="4065.765625"/>
     <use xlink:href="#DejaVuSans-61" x="4097.552734"/>
     <use xlink:href="#DejaVuSans-63" x="4158.832031"/>
     <use xlink:href="#DejaVuSans-63" x="4213.8125"/>
     <use xlink:href="#DejaVuSans-75" x="4268.792969"/>
     <use xlink:href="#DejaVuSans-72" x="4332.171875"/>
     <use xlink:href="#DejaVuSans-61" x="4373.285156"/>
     <use xlink:href="#DejaVuSans-63" x="4434.564453"/>
     <use xlink:href="#DejaVuSans-79" x="4489.544922"/>
    </g>
   </g>
   <g id="legend_1">
    <g id="patch_7">
     <path d="M 308.024688 302.584 
L 407.72 302.584 
Q 409.72 302.584 409.72 300.584 
L 409.72 257.549625 
Q 409.72 255.549625 407.72 255.549625 
L 308.024688 255.549625 
Q 306.024688 255.549625 306.024688 257.549625 
L 306.024688 300.584 
Q 306.024688 302.584 308.024688 302.584 
z
" style="fill: #ffffff; opacity: 0.8; stroke: #cccccc; stroke-linejoin: miter"/>
    </g>
    <g id="line2d_15">
     <path d="M 310.024688 263.648062 
L 320.024688 263.648062 
L 330.024688 263.648062 
" style="fill: none; stroke: #0000ff; stroke-width: 1.5; stroke-linecap: square"/>
    </g>
    <g id="text_15">
     <!-- training set -->
     <g transform="translate(338.024688 267.148062) scale(0.1 -0.1)">
      <use xlink:href="#DejaVuSans-74"/>
      <use xlink:href="#DejaVuSans-72" x="39.208984"/>
      <use xlink:href="#DejaVuSans-61" x="80.322266"/>
      <use xlink:href="#DejaVuSans-69" x="141.601562"/>
      <use xlink:href="#DejaVuSans-6e" x="169.384766"/>
      <use xlink:href="#DejaVuSans-69" x="232.763672"/>
      <use xlink:href="#DejaVuSans-6e" x="260.546875"/>
      <use xlink:href="#DejaVuSans-67" x="323.925781"/>
      <use xlink:href="#DejaVuSans-20" x="387.402344"/>
      <use xlink:href="#DejaVuSans-73" x="419.189453"/>
      <use xlink:href="#DejaVuSans-65" x="471.289062"/>
      <use xlink:href="#DejaVuSans-74" x="532.8125"/>
     </g>
    </g>
    <g id="line2d_16">
     <path d="M 310.024688 278.326188 
L 320.024688 278.326188 
L 330.024688 278.326188 
" style="fill: none; stroke: #008000; stroke-width: 1.5; stroke-linecap: square"/>
    </g>
    <g id="text_16">
     <!-- validation set -->
     <g transform="translate(338.024688 281.826188) scale(0.1 -0.1)">
      <defs>
       <path id="DejaVuSans-76" d="M 191 3500 
L 800 3500 
L 1894 563 
L 2988 3500 
L 3597 3500 
L 2284 0 
L 1503 0 
L 191 3500 
z
" transform="scale(0.015625)"/>
      </defs>
      <use xlink:href="#DejaVuSans-76"/>
      <use xlink:href="#DejaVuSans-61" x="59.179688"/>
      <use xlink:href="#DejaVuSans-6c" x="120.458984"/>
      <use xlink:href="#DejaVuSans-69" x="148.242188"/>
      <use xlink:href="#DejaVuSans-64" x="176.025391"/>
      <use xlink:href="#DejaVuSans-61" x="239.501953"/>
      <use xlink:href="#DejaVuSans-74" x="300.78125"/>
      <use xlink:href="#DejaVuSans-69" x="339.990234"/>
      <use xlink:href="#DejaVuSans-6f" x="367.773438"/>
      <use xlink:href="#DejaVuSans-6e" x="428.955078"/>
      <use xlink:href="#DejaVuSans-20" x="492.333984"/>
      <use xlink:href="#DejaVuSans-73" x="524.121094"/>
      <use xlink:href="#DejaVuSans-65" x="576.220703"/>
      <use xlink:href="#DejaVuSans-74" x="637.744141"/>
     </g>
    </g>
    <g id="line2d_17">
     <path d="M 310.024688 293.004312 
L 320.024688 293.004312 
L 330.024688 293.004312 
" style="fill: none; stroke: #ff0000; stroke-width: 1.5; stroke-linecap: square"/>
    </g>
    <g id="text_17">
     <!-- test set -->
     <g transform="translate(338.024688 296.504312) scale(0.1 -0.1)">
      <use xlink:href="#DejaVuSans-74"/>
      <use xlink:href="#DejaVuSans-65" x="39.208984"/>
      <use xlink:href="#DejaVuSans-73" x="100.732422"/>
      <use xlink:href="#DejaVuSans-74" x="152.832031"/>
      <use xlink:href="#DejaVuSans-20" x="192.041016"/>
      <use xlink:href="#DejaVuSans-73" x="223.828125"/>
      <use xlink:href="#DejaVuSans-65" x="275.927734"/>
      <use xlink:href="#DejaVuSans-74" x="337.451172"/>
     </g>
    </g>
   </g>
  </g>
 </g>
 <defs>
  <clipPath id="pcccae94932">
   <rect x="57.6" y="41.472" width="357.12" height="266.112"/>
  </clipPath>
 </defs>
</svg>
