<?xml version="1.0" encoding="utf-8" standalone="no"?>
<!DOCTYPE svg PUBLIC "-//W3C//DTD SVG 1.1//EN"
  "http://www.w3.org/Graphics/SVG/1.1/DTD/svg11.dtd">
<svg xmlns:xlink="http://www.w3.org/1999/xlink" width="460.8pt" height="345.6pt" viewBox="0 0 460.8 345.6" xmlns="http://www.w3.org/2000/svg" version="1.1">
 <metadata>
  <rdf:RDF xmlns:dc="http://purl.org/dc/elements/1.1/" xmlns:cc="http://creativecommons.org/ns#" xmlns:rdf="http://www.w3.org/1999/02/22-rdf-syntax-ns#">
   <cc:Work>
    <dc:type rdf:resource="http://purl.org/dc/dcmitype/StillImage"/>
    <dc:date>2023-06-14T04:00:09.748383</dc:date>
    <dc:format>image/svg+xml</dc:format>
    <dc:creator>
     <cc:Agent>
      <dc:title>Matplotlib v3.7.1, https://matplotlib.org/</dc:title>
     </cc:Agent>
    </dc:creator>
   </cc:Work>
  </rdf:RDF>
 </metadata>
 <defs>
  <style type="text/css">*{stroke-linejoin: round; stroke-linecap: butt}</style>
 </defs>
 <g id="figure_1">
  <g id="patch_1">
   <path d="M 0 345.6 
L 460.8 345.6 
L 460.8 0 
L 0 0 
z
" style="fill: #ffffff"/>
  </g>
  <g id="axes_1">
   <g id="patch_2">
    <path d="M 57.6 307.584 
L 414.72 307.584 
L 414.72 41.472 
L 57.6 41.472 
z
" style="fill: #ffffff"/>
   </g>
   <g id="matplotlib.axis_1">
    <g id="xtick_1">
     <g id="line2d_1">
      <defs>
       <path id="m01df7c8af8" d="M 0 0 
L 0 3.5 
" style="stroke: #000000; stroke-width: 0.8"/>
      </defs>
      <g>
       <use xlink:href="#m01df7c8af8" x="73.767783" y="307.584" style="stroke: #000000; stroke-width: 0.8"/>
      </g>
     </g>
     <g id="text_1">
      <!-- 0 -->
      <g transform="translate(70.586533 322.182437) scale(0.1 -0.1)">
       <defs>
        <path id="DejaVuSans-30" d="M 2034 4250 
Q 1547 4250 1301 3770 
Q 1056 3291 1056 2328 
Q 1056 1369 1301 889 
Q 1547 409 2034 409 
Q 2525 409 2770 889 
Q 3016 1369 3016 2328 
Q 3016 3291 2770 3770 
Q 2525 4250 2034 4250 
z
M 2034 4750 
Q 2819 4750 3233 4129 
Q 3647 3509 3647 2328 
Q 3647 1150 3233 529 
Q 2819 -91 2034 -91 
Q 1250 -91 836 529 
Q 422 1150 422 2328 
Q 422 3509 836 4129 
Q 1250 4750 2034 4750 
z
" transform="scale(0.015625)"/>
       </defs>
       <use xlink:href="#DejaVuSans-30"/>
      </g>
     </g>
    </g>
    <g id="xtick_2">
     <g id="line2d_2">
      <g>
       <use xlink:href="#m01df7c8af8" x="138.711681" y="307.584" style="stroke: #000000; stroke-width: 0.8"/>
      </g>
     </g>
     <g id="text_2">
      <!-- 1000 -->
      <g transform="translate(125.986681 322.182437) scale(0.1 -0.1)">
       <defs>
        <path id="DejaVuSans-31" d="M 794 531 
L 1825 531 
L 1825 4091 
L 703 3866 
L 703 4441 
L 1819 4666 
L 2450 4666 
L 2450 531 
L 3481 531 
L 3481 0 
L 794 0 
L 794 531 
z
" transform="scale(0.015625)"/>
       </defs>
       <use xlink:href="#DejaVuSans-31"/>
       <use xlink:href="#DejaVuSans-30" x="63.623047"/>
       <use xlink:href="#DejaVuSans-30" x="127.246094"/>
       <use xlink:href="#DejaVuSans-30" x="190.869141"/>
      </g>
     </g>
    </g>
    <g id="xtick_3">
     <g id="line2d_3">
      <g>
       <use xlink:href="#m01df7c8af8" x="203.655579" y="307.584" style="stroke: #000000; stroke-width: 0.8"/>
      </g>
     </g>
     <g id="text_3">
      <!-- 2000 -->
      <g transform="translate(190.930579 322.182437) scale(0.1 -0.1)">
       <defs>
        <path id="DejaVuSans-32" d="M 1228 531 
L 3431 531 
L 3431 0 
L 469 0 
L 469 531 
Q 828 903 1448 1529 
Q 2069 2156 2228 2338 
Q 2531 2678 2651 2914 
Q 2772 3150 2772 3378 
Q 2772 3750 2511 3984 
Q 2250 4219 1831 4219 
Q 1534 4219 1204 4116 
Q 875 4013 500 3803 
L 500 4441 
Q 881 4594 1212 4672 
Q 1544 4750 1819 4750 
Q 2544 4750 2975 4387 
Q 3406 4025 3406 3419 
Q 3406 3131 3298 2873 
Q 3191 2616 2906 2266 
Q 2828 2175 2409 1742 
Q 1991 1309 1228 531 
z
" transform="scale(0.015625)"/>
       </defs>
       <use xlink:href="#DejaVuSans-32"/>
       <use xlink:href="#DejaVuSans-30" x="63.623047"/>
       <use xlink:href="#DejaVuSans-30" x="127.246094"/>
       <use xlink:href="#DejaVuSans-30" x="190.869141"/>
      </g>
     </g>
    </g>
    <g id="xtick_4">
     <g id="line2d_4">
      <g>
       <use xlink:href="#m01df7c8af8" x="268.599477" y="307.584" style="stroke: #000000; stroke-width: 0.8"/>
      </g>
     </g>
     <g id="text_4">
      <!-- 3000 -->
      <g transform="translate(255.874477 322.182437) scale(0.1 -0.1)">
       <defs>
        <path id="DejaVuSans-33" d="M 2597 2516 
Q 3050 2419 3304 2112 
Q 3559 1806 3559 1356 
Q 3559 666 3084 287 
Q 2609 -91 1734 -91 
Q 1441 -91 1130 -33 
Q 819 25 488 141 
L 488 750 
Q 750 597 1062 519 
Q 1375 441 1716 441 
Q 2309 441 2620 675 
Q 2931 909 2931 1356 
Q 2931 1769 2642 2001 
Q 2353 2234 1838 2234 
L 1294 2234 
L 1294 2753 
L 1863 2753 
Q 2328 2753 2575 2939 
Q 2822 3125 2822 3475 
Q 2822 3834 2567 4026 
Q 2313 4219 1838 4219 
Q 1578 4219 1281 4162 
Q 984 4106 628 3988 
L 628 4550 
Q 988 4650 1302 4700 
Q 1616 4750 1894 4750 
Q 2613 4750 3031 4423 
Q 3450 4097 3450 3541 
Q 3450 3153 3228 2886 
Q 3006 2619 2597 2516 
z
" transform="scale(0.015625)"/>
       </defs>
       <use xlink:href="#DejaVuSans-33"/>
       <use xlink:href="#DejaVuSans-30" x="63.623047"/>
       <use xlink:href="#DejaVuSans-30" x="127.246094"/>
       <use xlink:href="#DejaVuSans-30" x="190.869141"/>
      </g>
     </g>
    </g>
    <g id="xtick_5">
     <g id="line2d_5">
      <g>
       <use xlink:href="#m01df7c8af8" x="333.543375" y="307.584" style="stroke: #000000; stroke-width: 0.8"/>
      </g>
     </g>
     <g id="text_5">
      <!-- 4000 -->
      <g transform="translate(320.818375 322.182437) scale(0.1 -0.1)">
       <defs>
        <path id="DejaVuSans-34" d="M 2419 4116 
L 825 1625 
L 2419 1625 
L 2419 4116 
z
M 2253 4666 
L 3047 4666 
L 3047 1625 
L 3713 1625 
L 3713 1100 
L 3047 1100 
L 3047 0 
L 2419 0 
L 2419 1100 
L 313 1100 
L 313 1709 
L 2253 4666 
z
" transform="scale(0.015625)"/>
       </defs>
       <use xlink:href="#DejaVuSans-34"/>
       <use xlink:href="#DejaVuSans-30" x="63.623047"/>
       <use xlink:href="#DejaVuSans-30" x="127.246094"/>
       <use xlink:href="#DejaVuSans-30" x="190.869141"/>
      </g>
     </g>
    </g>
    <g id="xtick_6">
     <g id="line2d_6">
      <g>
       <use xlink:href="#m01df7c8af8" x="398.487273" y="307.584" style="stroke: #000000; stroke-width: 0.8"/>
      </g>
     </g>
     <g id="text_6">
      <!-- 5000 -->
      <g transform="translate(385.762273 322.182437) scale(0.1 -0.1)">
       <defs>
        <path id="DejaVuSans-35" d="M 691 4666 
L 3169 4666 
L 3169 4134 
L 1269 4134 
L 1269 2991 
Q 1406 3038 1543 3061 
Q 1681 3084 1819 3084 
Q 2600 3084 3056 2656 
Q 3513 2228 3513 1497 
Q 3513 744 3044 326 
Q 2575 -91 1722 -91 
Q 1428 -91 1123 -41 
Q 819 9 494 109 
L 494 744 
Q 775 591 1075 516 
Q 1375 441 1709 441 
Q 2250 441 2565 725 
Q 2881 1009 2881 1497 
Q 2881 1984 2565 2268 
Q 2250 2553 1709 2553 
Q 1456 2553 1204 2497 
Q 953 2441 691 2322 
L 691 4666 
z
" transform="scale(0.015625)"/>
       </defs>
       <use xlink:href="#DejaVuSans-35"/>
       <use xlink:href="#DejaVuSans-30" x="63.623047"/>
       <use xlink:href="#DejaVuSans-30" x="127.246094"/>
       <use xlink:href="#DejaVuSans-30" x="190.869141"/>
      </g>
     </g>
    </g>
    <g id="text_7">
     <!-- epoch -->
     <g transform="translate(220.931875 335.860562) scale(0.1 -0.1)">
      <defs>
       <path id="DejaVuSans-65" d="M 3597 1894 
L 3597 1613 
L 953 1613 
Q 991 1019 1311 708 
Q 1631 397 2203 397 
Q 2534 397 2845 478 
Q 3156 559 3463 722 
L 3463 178 
Q 3153 47 2828 -22 
Q 2503 -91 2169 -91 
Q 1331 -91 842 396 
Q 353 884 353 1716 
Q 353 2575 817 3079 
Q 1281 3584 2069 3584 
Q 2775 3584 3186 3129 
Q 3597 2675 3597 1894 
z
M 3022 2063 
Q 3016 2534 2758 2815 
Q 2500 3097 2075 3097 
Q 1594 3097 1305 2825 
Q 1016 2553 972 2059 
L 3022 2063 
z
" transform="scale(0.015625)"/>
       <path id="DejaVuSans-70" d="M 1159 525 
L 1159 -1331 
L 581 -1331 
L 581 3500 
L 1159 3500 
L 1159 2969 
Q 1341 3281 1617 3432 
Q 1894 3584 2278 3584 
Q 2916 3584 3314 3078 
Q 3713 2572 3713 1747 
Q 3713 922 3314 415 
Q 2916 -91 2278 -91 
Q 1894 -91 1617 61 
Q 1341 213 1159 525 
z
M 3116 1747 
Q 3116 2381 2855 2742 
Q 2594 3103 2138 3103 
Q 1681 3103 1420 2742 
Q 1159 2381 1159 1747 
Q 1159 1113 1420 752 
Q 1681 391 2138 391 
Q 2594 391 2855 752 
Q 3116 1113 3116 1747 
z
" transform="scale(0.015625)"/>
       <path id="DejaVuSans-6f" d="M 1959 3097 
Q 1497 3097 1228 2736 
Q 959 2375 959 1747 
Q 959 1119 1226 758 
Q 1494 397 1959 397 
Q 2419 397 2687 759 
Q 2956 1122 2956 1747 
Q 2956 2369 2687 2733 
Q 2419 3097 1959 3097 
z
M 1959 3584 
Q 2709 3584 3137 3096 
Q 3566 2609 3566 1747 
Q 3566 888 3137 398 
Q 2709 -91 1959 -91 
Q 1206 -91 779 398 
Q 353 888 353 1747 
Q 353 2609 779 3096 
Q 1206 3584 1959 3584 
z
" transform="scale(0.015625)"/>
       <path id="DejaVuSans-63" d="M 3122 3366 
L 3122 2828 
Q 2878 2963 2633 3030 
Q 2388 3097 2138 3097 
Q 1578 3097 1268 2742 
Q 959 2388 959 1747 
Q 959 1106 1268 751 
Q 1578 397 2138 397 
Q 2388 397 2633 464 
Q 2878 531 3122 666 
L 3122 134 
Q 2881 22 2623 -34 
Q 2366 -91 2075 -91 
Q 1284 -91 818 406 
Q 353 903 353 1747 
Q 353 2603 823 3093 
Q 1294 3584 2113 3584 
Q 2378 3584 2631 3529 
Q 2884 3475 3122 3366 
z
" transform="scale(0.015625)"/>
       <path id="DejaVuSans-68" d="M 3513 2113 
L 3513 0 
L 2938 0 
L 2938 2094 
Q 2938 2591 2744 2837 
Q 2550 3084 2163 3084 
Q 1697 3084 1428 2787 
Q 1159 2491 1159 1978 
L 1159 0 
L 581 0 
L 581 4863 
L 1159 4863 
L 1159 2956 
Q 1366 3272 1645 3428 
Q 1925 3584 2291 3584 
Q 2894 3584 3203 3211 
Q 3513 2838 3513 2113 
z
" transform="scale(0.015625)"/>
      </defs>
      <use xlink:href="#DejaVuSans-65"/>
      <use xlink:href="#DejaVuSans-70" x="61.523438"/>
      <use xlink:href="#DejaVuSans-6f" x="125"/>
      <use xlink:href="#DejaVuSans-63" x="186.181641"/>
      <use xlink:href="#DejaVuSans-68" x="241.162109"/>
     </g>
    </g>
   </g>
   <g id="matplotlib.axis_2">
    <g id="ytick_1">
     <g id="line2d_7">
      <defs>
       <path id="m7841afeaa3" d="M 0 0 
L -3.5 0 
" style="stroke: #000000; stroke-width: 0.8"/>
      </defs>
      <g>
       <use xlink:href="#m7841afeaa3" x="57.6" y="296.047557" style="stroke: #000000; stroke-width: 0.8"/>
      </g>
     </g>
     <g id="text_8">
      <!-- 0 -->
      <g transform="translate(44.2375 299.846776) scale(0.1 -0.1)">
       <use xlink:href="#DejaVuSans-30"/>
      </g>
     </g>
    </g>
    <g id="ytick_2">
     <g id="line2d_8">
      <g>
       <use xlink:href="#m7841afeaa3" x="57.6" y="258.203832" style="stroke: #000000; stroke-width: 0.8"/>
      </g>
     </g>
     <g id="text_9">
      <!-- 5 -->
      <g transform="translate(44.2375 262.003051) scale(0.1 -0.1)">
       <use xlink:href="#DejaVuSans-35"/>
      </g>
     </g>
    </g>
    <g id="ytick_3">
     <g id="line2d_9">
      <g>
       <use xlink:href="#m7841afeaa3" x="57.6" y="220.360107" style="stroke: #000000; stroke-width: 0.8"/>
      </g>
     </g>
     <g id="text_10">
      <!-- 10 -->
      <g transform="translate(37.875 224.159326) scale(0.1 -0.1)">
       <use xlink:href="#DejaVuSans-31"/>
       <use xlink:href="#DejaVuSans-30" x="63.623047"/>
      </g>
     </g>
    </g>
    <g id="ytick_4">
     <g id="line2d_10">
      <g>
       <use xlink:href="#m7841afeaa3" x="57.6" y="182.516382" style="stroke: #000000; stroke-width: 0.8"/>
      </g>
     </g>
     <g id="text_11">
      <!-- 15 -->
      <g transform="translate(37.875 186.315601) scale(0.1 -0.1)">
       <use xlink:href="#DejaVuSans-31"/>
       <use xlink:href="#DejaVuSans-35" x="63.623047"/>
      </g>
     </g>
    </g>
    <g id="ytick_5">
     <g id="line2d_11">
      <g>
       <use xlink:href="#m7841afeaa3" x="57.6" y="144.672657" style="stroke: #000000; stroke-width: 0.8"/>
      </g>
     </g>
     <g id="text_12">
      <!-- 20 -->
      <g transform="translate(37.875 148.471876) scale(0.1 -0.1)">
       <use xlink:href="#DejaVuSans-32"/>
       <use xlink:href="#DejaVuSans-30" x="63.623047"/>
      </g>
     </g>
    </g>
    <g id="ytick_6">
     <g id="line2d_12">
      <g>
       <use xlink:href="#m7841afeaa3" x="57.6" y="106.828932" style="stroke: #000000; stroke-width: 0.8"/>
      </g>
     </g>
     <g id="text_13">
      <!-- 25 -->
      <g transform="translate(37.875 110.62815) scale(0.1 -0.1)">
       <use xlink:href="#DejaVuSans-32"/>
       <use xlink:href="#DejaVuSans-35" x="63.623047"/>
      </g>
     </g>
    </g>
    <g id="ytick_7">
     <g id="line2d_13">
      <g>
       <use xlink:href="#m7841afeaa3" x="57.6" y="68.985207" style="stroke: #000000; stroke-width: 0.8"/>
      </g>
     </g>
     <g id="text_14">
      <!-- 30 -->
      <g transform="translate(37.875 72.784425) scale(0.1 -0.1)">
       <use xlink:href="#DejaVuSans-33"/>
       <use xlink:href="#DejaVuSans-30" x="63.623047"/>
      </g>
     </g>
    </g>
    <g id="text_15">
     <!-- loss -->
     <g transform="translate(31.795313 184.185812) rotate(-90) scale(0.1 -0.1)">
      <defs>
       <path id="DejaVuSans-6c" d="M 603 4863 
L 1178 4863 
L 1178 0 
L 603 0 
L 603 4863 
z
" transform="scale(0.015625)"/>
       <path id="DejaVuSans-73" d="M 2834 3397 
L 2834 2853 
Q 2591 2978 2328 3040 
Q 2066 3103 1784 3103 
Q 1356 3103 1142 2972 
Q 928 2841 928 2578 
Q 928 2378 1081 2264 
Q 1234 2150 1697 2047 
L 1894 2003 
Q 2506 1872 2764 1633 
Q 3022 1394 3022 966 
Q 3022 478 2636 193 
Q 2250 -91 1575 -91 
Q 1294 -91 989 -36 
Q 684 19 347 128 
L 347 722 
Q 666 556 975 473 
Q 1284 391 1588 391 
Q 1994 391 2212 530 
Q 2431 669 2431 922 
Q 2431 1156 2273 1281 
Q 2116 1406 1581 1522 
L 1381 1569 
Q 847 1681 609 1914 
Q 372 2147 372 2553 
Q 372 3047 722 3315 
Q 1072 3584 1716 3584 
Q 2034 3584 2315 3537 
Q 2597 3491 2834 3397 
z
" transform="scale(0.015625)"/>
      </defs>
      <use xlink:href="#DejaVuSans-6c"/>
      <use xlink:href="#DejaVuSans-6f" x="27.783203"/>
      <use xlink:href="#DejaVuSans-73" x="88.964844"/>
      <use xlink:href="#DejaVuSans-73" x="141.064453"/>
     </g>
    </g>
   </g>
   <g id="line2d_14">
    <path d="M 73.832727 282.509273 
L 74.287335 282.736347 
L 75.131605 283.150554 
L 75.975876 283.811187 
L 76.950034 284.883874 
L 79.482846 287.839421 
L 80.521949 288.626615 
L 81.625995 289.171982 
L 83.054761 289.608026 
L 85.327797 290.039582 
L 89.419263 290.558357 
L 96.822867 291.267324 
L 104.746023 291.772908 
L 118.838848 292.319779 
L 131.243133 292.66058 
L 144.556632 292.972784 
L 150.271695 293.10517 
L 165.208792 293.448231 
L 171.50835 293.582063 
L 205.019401 294.158154 
L 213.721883 294.287073 
L 223.528412 294.433387 
L 317.437288 295.226296 
L 380.562757 295.447001 
L 398.487273 295.488 
L 398.487273 295.488 
" clip-path="url(#p54311a8530)" style="fill: none; stroke: #0000ff; stroke-width: 1.5; stroke-linecap: square"/>
   </g>
   <g id="line2d_15">
    <path d="M 73.832727 282.480913 
L 74.222391 282.929132 
L 74.741942 283.053407 
L 75.326437 283.237999 
L 76.820147 284.19128 
L 77.859249 285.169123 
L 79.093183 286.302357 
L 80.197229 286.955644 
L 81.106444 287.225283 
L 82.21049 287.324868 
L 84.483527 287.201844 
L 94.354999 285.564554 
L 94.744662 285.45713 
L 96.887811 284.890798 
L 97.926913 284.550817 
L 98.70624 284.294157 
L 99.03096 284.162554 
L 99.485567 284.011758 
L 100.19995 283.751277 
L 100.589613 283.618272 
L 101.563772 283.253502 
L 101.888491 283.147868 
L 102.278155 282.977014 
L 102.667818 282.851744 
L 104.681079 282.083526 
L 105.525349 281.74788 
L 105.850069 281.643736 
L 106.36962 281.405037 
L 106.564452 281.347271 
L 106.824227 281.254649 
L 113.318617 278.653431 
L 113.383561 278.738643 
L 113.513449 278.605226 
L 113.578393 278.651621 
L 113.708281 278.569816 
L 114.35772 278.294064 
L 115.331878 277.902173 
L 115.461766 277.848604 
L 116.565812 277.436339 
L 117.085363 277.223482 
L 117.345139 277.134401 
L 117.539971 277.018664 
L 117.669858 277.019085 
L 117.929634 276.88645 
L 118.124466 276.838879 
L 118.773905 276.561593 
L 118.968736 276.503201 
L 119.488287 276.279735 
L 119.748063 276.197474 
L 120.072783 276.058725 
L 120.787165 275.780694 
L 121.631436 275.416518 
L 121.761324 275.367246 
L 122.150987 275.232624 
L 122.86537 274.904185 
L 122.930314 274.947911 
L 122.995258 274.810539 
L 123.060202 274.873729 
L 123.319977 274.69445 
L 123.449865 274.701104 
L 123.514809 274.581176 
L 123.579753 274.668763 
L 123.904473 274.470929 
L 124.099304 274.422982 
L 126.567172 273.322918 
L 126.69706 273.32522 
L 126.891892 273.223921 
L 127.151667 273.105961 
L 127.216611 273.162704 
L 127.346499 273.054974 
L 127.541331 272.986703 
L 128.060882 272.773282 
L 128.320658 272.646427 
L 128.515489 272.595918 
L 128.970097 272.412626 
L 133.711001 270.261602 
L 133.970777 270.102414 
L 134.100664 270.045939 
L 136.373701 269.030613 
L 137.347859 268.583899 
L 137.477747 268.520884 
L 137.997298 268.322825 
L 138.257074 268.166634 
L 138.451906 268.082389 
L 138.711681 268.019359 
L 138.971457 267.855794 
L 139.555952 267.54744 
L 139.68584 267.484058 
L 140.140447 267.338521 
L 140.270335 267.252667 
L 140.919774 266.94706 
L 141.374381 266.700407 
L 141.569213 266.661256 
L 141.828988 266.525356 
L 142.153708 266.337359 
L 142.608315 266.100895 
L 142.868091 265.98778 
L 143.582474 265.655716 
L 143.907193 265.500674 
L 145.530791 264.649099 
L 145.660678 264.608814 
L 145.85551 264.445292 
L 145.985398 264.483133 
L 146.18023 264.369155 
L 146.375061 264.243336 
L 146.634837 264.146014 
L 148.453266 263.180735 
L 148.648098 263.078804 
L 149.102705 262.850582 
L 149.36248 262.74785 
L 149.6872 262.55343 
L 149.882032 262.453423 
L 150.011919 262.390167 
L 150.271695 262.193271 
L 150.336639 262.238034 
L 150.466527 262.110627 
L 150.531471 262.114634 
L 150.726302 261.968052 
L 151.051022 261.786953 
L 153.453946 260.565672 
L 153.843609 260.333271 
L 155.337319 259.565703 
L 155.597095 259.324051 
L 155.662039 259.392277 
L 155.726982 259.318948 
L 155.921814 259.186286 
L 156.246534 259.016495 
L 159.169009 257.36836 
L 159.233953 257.394345 
L 159.428785 257.221107 
L 160.143168 256.840889 
L 161.571933 256.028591 
L 164.754184 254.20846 
L 164.819128 254.233849 
L 165.01396 254.113523 
L 165.338679 253.8486 
L 165.403623 253.893818 
L 165.598455 253.742144 
L 165.923174 253.517509 
L 166.053062 253.45614 
L 166.377782 253.276254 
L 167.806547 252.471369 
L 167.871491 252.326039 
L 167.936435 252.426263 
L 168.261155 252.142771 
L 168.391043 252.137708 
L 168.455986 252.013794 
L 168.52093 252.055277 
L 168.780706 251.88167 
L 169.040482 251.734045 
L 169.105425 251.754982 
L 169.300257 251.610453 
L 169.560033 251.440192 
L 169.884752 251.262663 
L 170.599135 250.838952 
L 170.793967 250.691829 
L 171.118686 250.519514 
L 179.041842 245.848273 
L 179.301617 245.71298 
L 179.561393 245.490013 
L 179.756225 245.420419 
L 180.990159 244.671799 
L 181.18499 244.599073 
L 181.834429 244.197161 
L 182.029261 244.10137 
L 183.587915 243.155071 
L 183.717802 243.097102 
L 183.977578 242.930717 
L 185.471288 242.069173 
L 185.666119 241.894802 
L 185.925895 241.782506 
L 186.185671 241.605186 
L 186.315558 241.540129 
L 186.575334 241.348845 
L 186.640278 241.382828 
L 186.900053 241.17805 
L 188.913314 239.998938 
L 189.043202 239.914804 
L 189.887473 239.383619 
L 190.082304 239.31321 
L 190.926575 238.782725 
L 192.355341 237.948884 
L 192.615116 237.833629 
L 192.874892 237.649968 
L 193.134668 237.545745 
L 193.524331 237.293407 
L 194.49849 236.772598 
L 194.758265 236.551738 
L 195.018041 236.385505 
L 195.147928 236.357304 
L 195.407704 236.150808 
L 195.537592 236.116543 
L 195.797367 235.948379 
L 195.927255 235.888844 
L 196.576694 235.52386 
L 196.706582 235.474802 
L 196.83647 235.369107 
L 197.096245 235.189701 
L 197.356021 235.055718 
L 197.550853 234.931855 
L 198.135348 234.574306 
L 198.265236 234.525858 
L 198.914675 234.122206 
L 199.239394 233.96605 
L 200.862992 233.001926 
L 201.902094 232.375877 
L 202.031982 232.30978 
L 202.226813 232.177631 
L 202.551533 232.003119 
L 207.682101 229.054626 
L 207.747045 229.125825 
L 207.941876 228.991561 
L 208.201652 228.796123 
L 208.33154 228.720333 
L 210.344801 227.71599 
L 210.474688 227.571541 
L 210.539632 227.618148 
L 210.799408 227.343311 
L 211.059183 227.32087 
L 211.578735 227.022451 
L 211.643679 227.032766 
L 211.773566 226.907929 
L 211.83851 226.922062 
L 212.033342 226.793897 
L 212.293118 226.584398 
L 212.423005 226.588534 
L 212.617837 226.496546 
L 212.877613 226.278415 
L 213.0075 226.249716 
L 214.241434 225.623161 
L 214.50121 225.45887 
L 214.82593 225.322498 
L 215.150649 225.133318 
L 215.540312 224.95672 
L 215.800088 224.774376 
L 216.124808 224.650614 
L 216.384583 224.475697 
L 216.514471 224.393707 
L 218.462788 223.412995 
L 218.722563 223.298826 
L 218.787507 223.317839 
L 218.917395 223.174632 
L 218.982339 223.2285 
L 219.047283 223.141868 
L 219.761666 222.820691 
L 220.021441 222.659857 
L 220.151329 222.588412 
L 221.190432 222.042195 
L 221.320319 222.034371 
L 222.489309 221.433448 
L 226.580775 219.315523 
L 226.710663 219.190498 
L 226.775607 219.209893 
L 226.970438 219.055309 
L 227.230214 218.861286 
L 227.360102 218.84838 
L 228.269316 218.304127 
L 228.399204 218.243755 
L 231.061904 216.76617 
L 231.32168 216.568921 
L 231.386624 216.64173 
L 231.451567 216.549959 
L 231.711343 216.353597 
L 231.841231 216.332152 
L 232.295838 216.062201 
L 232.425726 216.027879 
L 232.685501 215.810708 
L 232.815389 215.802443 
L 233.529772 215.426011 
L 234.698762 214.746714 
L 234.763706 214.775543 
L 234.893594 214.637598 
L 234.958538 214.667466 
L 235.023482 214.493784 
L 235.088426 214.521898 
L 235.15337 214.556553 
L 235.283257 214.447213 
L 235.348201 214.427919 
L 235.413145 214.285938 
L 235.478089 214.316413 
L 235.543033 214.331521 
L 235.672921 214.203175 
L 235.737865 214.222556 
L 235.932696 214.086408 
L 236.192472 213.855616 
L 236.32236 213.854497 
L 236.647079 213.64341 
L 236.841911 213.557789 
L 237.101687 213.4047 
L 237.361462 213.225077 
L 237.426406 213.252484 
L 237.686182 213.031913 
L 238.400564 212.709819 
L 238.595396 212.570899 
L 239.050003 212.297433 
L 239.244835 212.233892 
L 247.687542 207.592043 
L 247.947317 207.423327 
L 249.830691 206.383969 
L 250.090466 206.251155 
L 250.220354 206.17447 
L 250.480129 205.999279 
L 250.610017 205.931342 
L 250.739905 205.910179 
L 250.934737 205.78109 
L 251.259456 205.579827 
L 251.714064 205.358 
L 252.038783 205.13758 
L 252.947998 204.643637 
L 253.272717 204.407576 
L 253.467549 204.370446 
L 256.000361 202.903681 
L 256.195192 202.757074 
L 257.169351 202.180166 
L 257.364183 202.085024 
L 258.143509 201.636836 
L 258.403285 201.461588 
L 258.533173 201.448783 
L 258.792948 201.2497 
L 258.857892 201.278854 
L 259.052724 201.101591 
L 259.572275 200.802473 
L 260.48149 200.241286 
L 260.611378 200.241589 
L 260.871153 200.006437 
L 261.001041 199.996288 
L 261.260817 199.781275 
L 261.32576 199.856076 
L 261.585536 199.597617 
L 263.209133 198.702044 
L 263.468909 198.516798 
L 263.728685 198.430484 
L 263.98846 198.218747 
L 264.508011 197.943037 
L 264.767787 197.79726 
L 264.897675 197.772047 
L 265.092507 197.5935 
L 265.352282 197.431222 
L 265.612058 197.319254 
L 265.936777 197.09205 
L 266.196553 196.965054 
L 266.845992 196.543581 
L 267.105767 196.478567 
L 267.365543 196.241438 
L 267.625319 196.081196 
L 267.755206 196.054965 
L 268.14487 195.809975 
L 268.274757 195.750945 
L 268.729365 195.450686 
L 268.924196 195.379342 
L 269.183972 195.186763 
L 270.417906 194.448753 
L 270.677682 194.289478 
L 271.002401 194.150977 
L 271.262177 193.908087 
L 271.327121 193.983546 
L 271.392065 193.895232 
L 271.65184 193.716677 
L 271.846672 193.617392 
L 272.106447 193.483547 
L 272.431167 193.287517 
L 272.690943 193.137207 
L 272.950718 192.950676 
L 273.340382 192.786912 
L 273.535213 192.62659 
L 273.794989 192.446931 
L 273.924877 192.356459 
L 274.184652 192.205998 
L 274.31454 192.188147 
L 274.574316 191.980482 
L 274.834091 191.88547 
L 275.093867 191.668103 
L 275.288698 191.564177 
L 276.912296 190.585003 
L 277.042184 190.523606 
L 278.081286 189.960593 
L 278.276118 189.799138 
L 278.535893 189.614405 
L 278.600837 189.666837 
L 278.860613 189.403722 
L 278.990501 189.373348 
L 287.757927 184.128404 
L 287.887815 184.072059 
L 289.121749 183.351785 
L 289.446468 183.13784 
L 289.6413 183.038699 
L 290.225795 182.676444 
L 290.355683 182.613213 
L 290.550514 182.468916 
L 290.940178 182.297074 
L 291.13501 182.126004 
L 291.264897 182.070151 
L 291.654561 181.819833 
L 292.109168 181.632126 
L 292.628719 181.253803 
L 292.823551 181.201486 
L 293.47299 180.774751 
L 296.200634 179.161848 
L 296.460409 178.97832 
L 296.655241 178.929771 
L 296.785129 178.765538 
L 296.850073 178.817457 
L 297.044904 178.634976 
L 297.369624 178.492678 
L 297.629399 178.280855 
L 297.954119 178.049594 
L 298.019063 178.122952 
L 298.084007 178.046375 
L 298.278838 177.906286 
L 298.863333 177.539778 
L 299.188053 177.362696 
L 299.382885 177.263541 
L 299.837492 176.954173 
L 300.032324 176.887903 
L 300.292099 176.690653 
L 300.746706 176.476882 
L 301.006482 176.243267 
L 301.13637 176.191614 
L 303.279518 174.900993 
L 303.47435 174.775456 
L 303.669182 174.702582 
L 304.058845 174.434891 
L 304.188733 174.369393 
L 304.64334 174.061959 
L 304.838172 174.004965 
L 305.617499 173.510048 
L 306.526713 172.929249 
L 306.591657 172.954065 
L 306.786489 172.802643 
L 307.046265 172.688467 
L 307.241096 172.467087 
L 307.500872 172.421397 
L 307.695704 172.254687 
L 308.345142 171.887285 
L 310.358403 170.610255 
L 310.423347 170.685974 
L 310.553235 170.534075 
L 310.618179 170.557043 
L 310.813011 170.376764 
L 320.229876 164.772487 
L 320.424707 164.623707 
L 320.879315 164.391096 
L 321.074146 164.280861 
L 321.528754 164.007901 
L 322.243137 163.536182 
L 322.437968 163.45866 
L 323.671902 162.71427 
L 323.931678 162.599689 
L 324.256397 162.333514 
L 324.451229 162.290436 
L 324.711005 162.075827 
L 324.775949 162.11469 
L 324.97078 161.905985 
L 325.035724 161.970039 
L 325.165612 161.807487 
L 325.230556 161.837269 
L 325.425388 161.602521 
L 325.490332 161.717448 
L 325.620219 161.591997 
L 326.13977 161.286122 
L 326.204714 161.126861 
L 326.269658 161.21192 
L 326.46449 161.042857 
L 326.919097 160.816684 
L 327.113929 160.674704 
L 327.178873 160.721766 
L 327.373705 160.504645 
L 327.503592 160.439336 
L 327.828312 160.256717 
L 327.9582 160.198251 
L 328.282919 159.952026 
L 328.412807 159.911489 
L 328.607639 159.807043 
L 329.776629 159.166074 
L 329.97146 158.980901 
L 330.750787 158.498904 
L 330.815731 158.574405 
L 331.010563 158.377524 
L 331.854834 157.893188 
L 332.049665 157.773555 
L 333.023824 157.207755 
L 333.218655 157.107294 
L 333.933038 156.672965 
L 333.997982 156.659886 
L 334.192814 156.486391 
L 334.387646 156.434724 
L 334.647421 156.226467 
L 335.166972 155.938536 
L 335.426748 155.745033 
L 335.62158 155.672043 
L 335.946299 155.506604 
L 336.141131 155.31567 
L 336.46585 155.152974 
L 336.855514 154.875293 
L 336.920458 154.938451 
L 336.985401 154.755515 
L 337.050345 154.825214 
L 337.310121 154.621056 
L 337.440009 154.582555 
L 338.414167 153.994784 
L 338.673943 153.818763 
L 338.998662 153.606983 
L 339.063606 153.651923 
L 339.258438 153.456687 
L 339.323382 153.498928 
L 339.518213 153.30271 
L 339.648101 153.2757 
L 341.726306 152.021336 
L 341.79125 152.049818 
L 341.986082 151.78347 
L 342.051025 151.860718 
L 342.245857 151.655103 
L 342.375745 151.613122 
L 342.570577 151.514985 
L 342.635521 151.540133 
L 342.830352 151.319966 
L 343.220016 151.151841 
L 343.414847 151.024167 
L 343.479791 151.046053 
L 343.674623 150.80631 
L 343.739567 150.832295 
L 343.934399 150.658988 
L 344.194174 150.591759 
L 344.778669 150.157344 
L 345.29822 149.939587 
L 345.493052 149.69062 
L 345.687884 149.618511 
L 346.272379 149.329368 
L 346.467211 149.174958 
L 347.11665 148.81512 
L 347.96092 148.256308 
L 348.090808 148.226309 
L 349.45463 147.450333 
L 349.649462 147.250463 
L 349.779349 147.195923 
L 350.62362 146.744098 
L 350.818452 146.522733 
L 350.883396 146.594928 
L 351.143171 146.379467 
L 351.987442 145.867082 
L 352.182274 145.774777 
L 352.571937 145.510449 
L 353.156432 145.186601 
L 353.481152 145.005614 
L 353.675983 144.896765 
L 354.000703 144.711331 
L 354.065647 144.736277 
L 354.260478 144.543698 
L 354.325422 144.599248 
L 354.520254 144.447812 
L 354.585198 144.486877 
L 354.780029 144.266306 
L 354.844973 144.32714 
L 355.039805 144.179342 
L 355.104749 144.237577 
L 355.299581 144.014769 
L 355.364525 144.064054 
L 355.559356 143.882273 
L 355.6243 143.923142 
L 355.819132 143.789751 
L 356.273739 143.503726 
L 356.338683 143.55382 
L 356.533515 143.351683 
L 356.598459 143.467289 
L 356.79329 143.212792 
L 356.858234 143.313586 
L 357.053066 143.192466 
L 357.247898 142.979229 
L 357.312841 143.101706 
L 357.507673 142.846502 
L 357.637561 142.89264 
L 357.832393 142.765659 
L 357.897337 142.861386 
L 358.092168 142.623577 
L 358.222056 142.629771 
L 358.416888 142.494344 
L 358.481832 142.561632 
L 358.546776 142.405201 
L 358.611719 142.464288 
L 359.066327 142.208261 
L 359.520934 142.051469 
L 359.715766 141.868173 
L 359.975541 141.784139 
L 360.235317 141.635042 
L 360.430149 141.540138 
L 360.62498 141.395689 
L 361.014644 141.251875 
L 361.209475 141.079247 
L 361.469251 140.959874 
L 361.729027 140.783188 
L 362.313522 140.427032 
L 362.898017 140.074932 
L 363.677343 139.594639 
L 363.937119 139.47323 
L 364.261839 139.232708 
L 364.586558 139.069477 
L 370.366565 135.687645 
L 370.496453 135.633004 
L 370.691284 135.576674 
L 370.886116 135.352666 
L 370.95106 135.423563 
L 371.145892 135.20686 
L 371.210836 135.287602 
L 371.405667 135.074163 
L 371.470611 135.160116 
L 371.535555 134.969832 
L 371.600499 135.046575 
L 371.860275 134.823218 
L 372.055106 134.805475 
L 372.379826 134.571897 
L 372.899377 134.349622 
L 373.094209 134.154444 
L 373.353984 134.084905 
L 373.548816 133.906011 
L 373.61376 133.942419 
L 373.873535 133.76048 
L 374.328143 133.523927 
L 374.522974 133.3528 
L 374.587918 133.39852 
L 374.78275 133.216594 
L 375.042526 133.135145 
L 375.756908 132.696471 
L 375.95174 132.626874 
L 376.27646 132.408757 
L 376.601179 132.255704 
L 376.796011 132.134353 
L 377.835113 131.588303 
L 378.029945 131.439032 
L 378.094889 131.439797 
L 378.28972 131.2606 
L 378.354664 131.316281 
L 378.549496 131.092259 
L 378.61444 131.209799 
L 378.809272 130.935034 
L 378.874216 130.996099 
L 379.069047 130.879397 
L 379.393767 130.709959 
L 379.588598 130.644736 
L 379.78343 130.44335 
L 380.043206 130.333851 
L 380.432869 130.15669 
L 381.342084 129.623401 
L 381.407028 129.648318 
L 381.601859 129.454555 
L 381.666803 129.500491 
L 381.861635 129.333247 
L 381.991523 129.286228 
L 382.900737 128.790719 
L 383.225457 128.584324 
L 383.290401 128.637522 
L 383.485232 128.402529 
L 383.550176 128.48623 
L 383.745008 128.315016 
L 383.93984 128.228124 
L 385.173774 127.577353 
L 385.368605 127.44389 
L 385.9531 127.163596 
L 386.342764 126.906372 
L 386.407708 126.922612 
L 386.602539 126.704206 
L 386.667483 126.772909 
L 386.862315 126.560263 
L 386.927259 126.603961 
L 387.122091 126.435 
L 387.381866 126.388731 
L 387.576698 126.143243 
L 387.641642 126.233585 
L 387.706586 126.083578 
L 387.77153 126.127739 
L 388.161193 125.880677 
L 388.356025 125.867035 
L 388.550856 125.646074 
L 388.680744 125.610099 
L 389.330183 125.253293 
L 389.525015 125.176218 
L 389.719847 125.038063 
L 389.914678 124.954015 
L 390.369285 124.681979 
L 391.083668 124.32741 
L 391.733107 123.930645 
L 391.927939 123.856529 
L 392.122771 123.725506 
L 392.317602 123.655865 
L 392.512434 123.524005 
L 392.577378 123.531223 
L 392.77221 123.350279 
L 392.837154 123.3687 
L 393.031985 123.181346 
L 393.161873 123.146526 
L 393.486593 123.00892 
L 393.746368 122.84901 
L 394.330863 122.603435 
L 394.525695 122.350743 
L 394.590639 122.4206 
L 394.785471 122.268226 
L 394.980302 122.237592 
L 395.240078 122.04712 
L 396.149292 121.546717 
L 396.409068 121.425597 
L 397.967722 120.574148 
L 398.032665 120.577887 
L 398.227497 120.370279 
L 398.292441 120.410874 
L 398.487273 120.281107 
L 398.487273 120.281107 
" clip-path="url(#p54311a8530)" style="fill: none; stroke: #008000; stroke-width: 1.5; stroke-linecap: square"/>
   </g>
   <g id="line2d_16">
    <path d="M 73.832727 282.412581 
L 74.222391 282.755597 
L 76.495427 283.752017 
L 79.417902 285.475934 
L 80.262173 285.610807 
L 81.236332 285.559837 
L 83.184649 285.152114 
L 93.315897 282.653723 
L 94.225111 282.326442 
L 95.19927 281.96002 
L 96.563092 281.358469 
L 96.952755 281.182196 
L 98.316577 280.490886 
L 102.602874 278.123977 
L 104.616135 276.943683 
L 108.7076 274.49233 
L 109.421983 274.038664 
L 109.616815 273.947704 
L 109.941534 273.72863 
L 110.52603 273.390985 
L 110.785805 273.218311 
L 111.3703 272.85695 
L 121.111885 266.864805 
L 121.371661 266.713598 
L 121.631436 266.551867 
L 121.826268 266.434764 
L 122.215931 266.200074 
L 124.424024 264.833356 
L 124.553912 264.752686 
L 124.943575 264.497941 
L 125.073463 264.415098 
L 125.852789 263.956062 
L 131.827628 260.218051 
L 148.19349 249.2155 
L 148.713042 248.82666 
L 150.726302 247.370221 
L 151.115966 247.080677 
L 151.440685 246.872437 
L 152.284956 246.250683 
L 152.479788 246.10343 
L 152.804507 245.909721 
L 153.389002 245.47457 
L 154.233273 244.843074 
L 154.493048 244.637315 
L 154.752824 244.467574 
L 155.207431 244.112648 
L 155.532151 243.906787 
L 155.791926 243.641893 
L 155.921814 243.578785 
L 156.376421 243.219976 
L 156.571253 243.093479 
L 156.895973 242.873008 
L 157.805187 242.168239 
L 157.935075 242.077305 
L 160.467887 240.161367 
L 160.597775 240.107982 
L 160.85755 239.871444 
L 161.247214 239.574375 
L 162.156428 238.885413 
L 162.286316 238.790556 
L 162.740923 238.470559 
L 165.728343 236.195279 
L 166.312838 235.732987 
L 167.027221 235.211334 
L 167.286996 234.964698 
L 167.416884 234.929098 
L 167.871491 234.499945 
L 168.001379 234.467449 
L 168.326099 234.220748 
L 168.910594 233.825455 
L 169.170369 233.567299 
L 169.365201 233.416657 
L 169.754864 233.143242 
L 174.300937 229.689344 
L 174.430825 229.627477 
L 174.690601 229.379795 
L 174.820488 229.315229 
L 175.080264 229.067077 
L 175.210152 228.986963 
L 175.469927 228.774556 
L 175.599815 228.691237 
L 176.119366 228.296846 
L 176.379142 228.133717 
L 176.703861 227.87738 
L 177.67802 227.097101 
L 178.197571 226.715624 
L 178.84701 226.20549 
L 180.145888 225.288356 
L 180.405664 225.062097 
L 191.056463 217.205847 
L 191.316239 217.015563 
L 192.160509 216.393289 
L 192.485229 216.184072 
L 193.524331 215.458485 
L 196.187031 213.579097 
L 196.966358 212.999994 
L 197.420965 212.702002 
L 198.135348 212.145131 
L 198.330179 212.038353 
L 198.589955 211.870041 
L 199.823889 210.973984 
L 199.953777 210.883108 
L 200.538272 210.479623 
L 200.798048 210.294153 
L 207.292437 205.679921 
L 207.422325 205.571512 
L 210.279857 203.477204 
L 210.409744 203.383477 
L 210.734464 203.172505 
L 210.929296 203.013129 
L 211.383903 202.680562 
L 211.643679 202.533377 
L 211.903454 202.285175 
L 212.16323 202.125806 
L 213.072444 201.445946 
L 213.33222 201.265421 
L 213.591995 201.046893 
L 213.851771 200.868807 
L 215.150649 199.887677 
L 215.475369 199.65246 
L 216.254695 199.091461 
L 216.514471 198.858922 
L 218.852451 197.065227 
L 221.060544 195.33765 
L 221.320319 195.105292 
L 248.012261 172.203742 
L 248.142149 172.092929 
L 248.401925 171.825931 
L 248.466869 171.86013 
L 248.726644 171.559135 
L 253.012941 167.84986 
L 253.272717 167.640332 
L 253.467549 167.506306 
L 254.571595 166.50742 
L 254.701483 166.430099 
L 254.961258 166.184741 
L 255.350922 165.866436 
L 256.519912 164.861458 
L 262.559694 159.619256 
L 262.624638 159.626879 
L 262.884414 159.337909 
L 263.079246 159.16323 
L 263.728685 158.663664 
L 264.053404 158.359507 
L 264.31318 158.141087 
L 264.572955 157.875143 
L 264.702843 157.811883 
L 265.027563 157.553301 
L 265.352282 157.225887 
L 265.48217 157.15284 
L 265.871833 156.790779 
L 268.794309 154.307068 
L 269.054084 154.05621 
L 269.119028 154.059198 
L 269.378804 153.75673 
L 269.703523 153.540187 
L 269.963299 153.263877 
L 270.028243 153.290064 
L 270.417906 152.873738 
L 270.742626 152.641228 
L 270.872513 152.537864 
L 272.690943 151.005992 
L 273.015662 150.715217 
L 275.158811 148.923738 
L 275.48353 148.600771 
L 275.678362 148.520881 
L 277.237015 147.120595 
L 277.301959 147.155761 
L 277.626679 146.813623 
L 277.756567 146.720711 
L 278.016342 146.484938 
L 278.081286 146.483682 
L 278.276118 146.286267 
L 278.730725 145.894439 
L 279.510052 145.233144 
L 280.354323 144.508661 
L 280.614098 144.33622 
L 281.783088 143.349576 
L 285.095227 140.561159 
L 285.48489 140.229876 
L 285.744666 140.02058 
L 286.329161 139.561926 
L 286.588937 139.305077 
L 286.783768 139.191276 
L 287.108488 138.860845 
L 287.368263 138.689054 
L 303.928957 125.050305 
L 304.058845 124.953207 
L 304.188733 124.854737 
L 307.046265 122.597747 
L 307.241096 122.334372 
L 307.370984 122.300274 
L 307.890535 121.862423 
L 308.085367 121.752448 
L 308.47503 121.395858 
L 308.669862 121.265441 
L 309.254357 120.775678 
L 309.449189 120.704088 
L 309.64402 120.458124 
L 310.423347 119.919724 
L 310.618179 119.757504 
L 310.942898 119.440802 
L 311.13773 119.269632 
L 311.267618 119.190391 
L 311.527393 118.994751 
L 312.046945 118.572246 
L 312.111889 118.591374 
L 312.436608 118.237961 
L 313.215935 117.632851 
L 313.995262 117.092835 
L 314.190093 116.841255 
L 315.034364 116.224885 
L 315.229196 116.022403 
L 315.29414 116.062781 
L 315.553915 115.763677 
L 315.618859 115.824424 
L 315.813691 115.647884 
L 316.46313 115.066103 
L 316.528074 115.062537 
L 316.787849 114.793634 
L 317.047625 114.684452 
L 317.826952 113.993693 
L 317.956839 113.934678 
L 318.930998 113.209156 
L 319.12583 112.987184 
L 319.320661 112.883907 
L 321.593698 111.08189 
L 321.788529 110.952296 
L 322.113249 110.664437 
L 322.437968 110.424637 
L 323.217295 109.813797 
L 323.606958 109.504197 
L 324.711005 108.632248 
L 324.775949 108.650409 
L 324.97078 108.407332 
L 325.035724 108.428033 
L 325.2955 108.164038 
L 325.360444 108.211793 
L 325.555275 107.953644 
L 325.685163 107.914334 
L 325.879995 107.702512 
L 325.944939 107.72008 
L 326.204714 107.409355 
L 326.269658 107.452837 
L 326.46449 107.268717 
L 328.088087 106.060346 
L 328.347863 105.818554 
L 329.12719 105.232183 
L 336.920458 99.273425 
L 337.115289 99.065182 
L 337.375065 98.931647 
L 337.894616 98.453331 
L 338.089448 98.369096 
L 341.921138 95.437731 
L 342.115969 95.137039 
L 342.180913 95.181474 
L 342.440689 94.951995 
L 342.635521 94.884289 
L 342.895296 94.615212 
L 343.414847 94.233605 
L 343.609679 94.09623 
L 343.804511 93.856299 
L 343.869455 93.884392 
L 344.12923 93.667358 
L 344.324062 93.561714 
L 344.518894 93.304229 
L 344.583837 93.308531 
L 344.778669 93.112761 
L 345.29822 92.788032 
L 345.493052 92.514884 
L 345.62294 92.450528 
L 346.142491 92.134634 
L 346.337323 91.922277 
L 346.402267 91.932252 
L 346.662042 91.683949 
L 346.986762 91.440092 
L 347.441369 91.073152 
L 347.636201 90.946575 
L 347.96092 90.63315 
L 348.090808 90.581829 
L 348.350584 90.393191 
L 348.545415 90.139286 
L 348.610359 90.195775 
L 348.805191 90.019278 
L 355.039805 85.279025 
L 355.104749 85.296016 
L 355.429468 84.952852 
L 355.494412 84.973135 
L 355.689244 84.787427 
L 355.884076 84.650615 
L 356.273739 84.348898 
L 356.338683 84.356405 
L 356.533515 84.139399 
L 356.598459 84.201822 
L 356.79329 83.951656 
L 356.858234 83.999267 
L 357.11801 83.756608 
L 357.182954 83.753331 
L 357.377785 83.508204 
L 357.442729 83.562686 
L 357.507673 83.410788 
L 357.572617 83.448351 
L 358.287 82.920028 
L 358.351944 82.934089 
L 358.546776 82.697855 
L 358.676663 82.641611 
L 359.520934 82.060567 
L 359.715766 81.844182 
L 360.170373 81.541916 
L 360.819812 81.008902 
L 361.014644 80.903373 
L 361.209475 80.695043 
L 361.469251 80.536981 
L 361.79397 80.230124 
L 362.378466 79.777563 
L 363.872175 78.613367 
L 364.196895 78.362465 
L 364.521614 78.106756 
L 365.041165 77.717454 
L 365.62566 77.24588 
L 365.95038 76.996235 
L 371.27578 73.00515 
L 371.340723 73.086685 
L 371.535555 72.780565 
L 371.600499 72.828349 
L 371.860275 72.57622 
L 372.055106 72.511156 
L 372.379826 72.233634 
L 373.353984 71.561078 
L 373.548816 71.362306 
L 373.678704 71.278287 
L 373.938479 71.111245 
L 382.705906 64.817913 
L 383.030625 64.578127 
L 383.355345 64.293517 
L 383.420288 64.339539 
L 383.61512 64.094412 
L 383.680064 64.141503 
L 383.93984 63.933333 
L 391.473332 58.554305 
L 391.927939 58.221795 
L 392.187715 58.047737 
L 392.512434 57.78738 
L 392.707266 57.675672 
L 393.031985 57.376524 
L 393.096929 57.400965 
L 393.356705 57.183497 
L 393.811312 56.889157 
L 394.265919 56.532972 
L 394.330863 56.555276 
L 394.525695 56.301978 
L 394.590639 56.343337 
L 394.785471 56.161975 
L 394.980302 56.093836 
L 395.305022 55.81038 
L 395.564797 55.644739 
L 395.954461 55.352651 
L 396.993563 54.623707 
L 397.188395 54.526523 
L 397.383226 54.264621 
L 397.44817 54.360289 
L 397.643002 54.134045 
L 397.77289 54.07347 
L 398.487273 53.568 
L 398.487273 53.568 
" clip-path="url(#p54311a8530)" style="fill: none; stroke: #ff0000; stroke-width: 1.5; stroke-linecap: square"/>
   </g>
   <g id="patch_3">
    <path d="M 57.6 307.584 
L 57.6 41.472 
" style="fill: none; stroke: #000000; stroke-width: 0.8; stroke-linejoin: miter; stroke-linecap: square"/>
   </g>
   <g id="patch_4">
    <path d="M 414.72 307.584 
L 414.72 41.472 
" style="fill: none; stroke: #000000; stroke-width: 0.8; stroke-linejoin: miter; stroke-linecap: square"/>
   </g>
   <g id="patch_5">
    <path d="M 57.6 307.584 
L 414.72 307.584 
" style="fill: none; stroke: #000000; stroke-width: 0.8; stroke-linejoin: miter; stroke-linecap: square"/>
   </g>
   <g id="patch_6">
    <path d="M 57.6 41.472 
L 414.72 41.472 
" style="fill: none; stroke: #000000; stroke-width: 0.8; stroke-linejoin: miter; stroke-linecap: square"/>
   </g>
   <g id="text_16">
    <!-- Script19_loss -->
    <g transform="translate(196.532813 35.472) scale(0.12 -0.12)">
     <defs>
      <path id="DejaVuSans-53" d="M 3425 4513 
L 3425 3897 
Q 3066 4069 2747 4153 
Q 2428 4238 2131 4238 
Q 1616 4238 1336 4038 
Q 1056 3838 1056 3469 
Q 1056 3159 1242 3001 
Q 1428 2844 1947 2747 
L 2328 2669 
Q 3034 2534 3370 2195 
Q 3706 1856 3706 1288 
Q 3706 609 3251 259 
Q 2797 -91 1919 -91 
Q 1588 -91 1214 -16 
Q 841 59 441 206 
L 441 856 
Q 825 641 1194 531 
Q 1563 422 1919 422 
Q 2459 422 2753 634 
Q 3047 847 3047 1241 
Q 3047 1584 2836 1778 
Q 2625 1972 2144 2069 
L 1759 2144 
Q 1053 2284 737 2584 
Q 422 2884 422 3419 
Q 422 4038 858 4394 
Q 1294 4750 2059 4750 
Q 2388 4750 2728 4690 
Q 3069 4631 3425 4513 
z
" transform="scale(0.015625)"/>
      <path id="DejaVuSans-72" d="M 2631 2963 
Q 2534 3019 2420 3045 
Q 2306 3072 2169 3072 
Q 1681 3072 1420 2755 
Q 1159 2438 1159 1844 
L 1159 0 
L 581 0 
L 581 3500 
L 1159 3500 
L 1159 2956 
Q 1341 3275 1631 3429 
Q 1922 3584 2338 3584 
Q 2397 3584 2469 3576 
Q 2541 3569 2628 3553 
L 2631 2963 
z
" transform="scale(0.015625)"/>
      <path id="DejaVuSans-69" d="M 603 3500 
L 1178 3500 
L 1178 0 
L 603 0 
L 603 3500 
z
M 603 4863 
L 1178 4863 
L 1178 4134 
L 603 4134 
L 603 4863 
z
" transform="scale(0.015625)"/>
      <path id="DejaVuSans-74" d="M 1172 4494 
L 1172 3500 
L 2356 3500 
L 2356 3053 
L 1172 3053 
L 1172 1153 
Q 1172 725 1289 603 
Q 1406 481 1766 481 
L 2356 481 
L 2356 0 
L 1766 0 
Q 1100 0 847 248 
Q 594 497 594 1153 
L 594 3053 
L 172 3053 
L 172 3500 
L 594 3500 
L 594 4494 
L 1172 4494 
z
" transform="scale(0.015625)"/>
      <path id="DejaVuSans-39" d="M 703 97 
L 703 672 
Q 941 559 1184 500 
Q 1428 441 1663 441 
Q 2288 441 2617 861 
Q 2947 1281 2994 2138 
Q 2813 1869 2534 1725 
Q 2256 1581 1919 1581 
Q 1219 1581 811 2004 
Q 403 2428 403 3163 
Q 403 3881 828 4315 
Q 1253 4750 1959 4750 
Q 2769 4750 3195 4129 
Q 3622 3509 3622 2328 
Q 3622 1225 3098 567 
Q 2575 -91 1691 -91 
Q 1453 -91 1209 -44 
Q 966 3 703 97 
z
M 1959 2075 
Q 2384 2075 2632 2365 
Q 2881 2656 2881 3163 
Q 2881 3666 2632 3958 
Q 2384 4250 1959 4250 
Q 1534 4250 1286 3958 
Q 1038 3666 1038 3163 
Q 1038 2656 1286 2365 
Q 1534 2075 1959 2075 
z
" transform="scale(0.015625)"/>
      <path id="DejaVuSans-5f" d="M 3263 -1063 
L 3263 -1509 
L -63 -1509 
L -63 -1063 
L 3263 -1063 
z
" transform="scale(0.015625)"/>
     </defs>
     <use xlink:href="#DejaVuSans-53"/>
     <use xlink:href="#DejaVuSans-63" x="63.476562"/>
     <use xlink:href="#DejaVuSans-72" x="118.457031"/>
     <use xlink:href="#DejaVuSans-69" x="159.570312"/>
     <use xlink:href="#DejaVuSans-70" x="187.353516"/>
     <use xlink:href="#DejaVuSans-74" x="250.830078"/>
     <use xlink:href="#DejaVuSans-31" x="290.039062"/>
     <use xlink:href="#DejaVuSans-39" x="353.662109"/>
     <use xlink:href="#DejaVuSans-5f" x="417.285156"/>
     <use xlink:href="#DejaVuSans-6c" x="467.285156"/>
     <use xlink:href="#DejaVuSans-6f" x="495.068359"/>
     <use xlink:href="#DejaVuSans-73" x="556.25"/>
     <use xlink:href="#DejaVuSans-73" x="608.349609"/>
    </g>
   </g>
   <g id="legend_1">
    <g id="patch_7">
     <path d="M 64.6 93.506375 
L 164.295312 93.506375 
Q 166.295312 93.506375 166.295312 91.506375 
L 166.295312 48.472 
Q 166.295312 46.472 164.295312 46.472 
L 64.6 46.472 
Q 62.6 46.472 62.6 48.472 
L 62.6 91.506375 
Q 62.6 93.506375 64.6 93.506375 
z
" style="fill: #ffffff; opacity: 0.8; stroke: #cccccc; stroke-linejoin: miter"/>
    </g>
    <g id="line2d_17">
     <path d="M 66.6 54.570438 
L 76.6 54.570438 
L 86.6 54.570438 
" style="fill: none; stroke: #0000ff; stroke-width: 1.5; stroke-linecap: square"/>
    </g>
    <g id="text_17">
     <!-- training set -->
     <g transform="translate(94.6 58.070438) scale(0.1 -0.1)">
      <defs>
       <path id="DejaVuSans-61" d="M 2194 1759 
Q 1497 1759 1228 1600 
Q 959 1441 959 1056 
Q 959 750 1161 570 
Q 1363 391 1709 391 
Q 2188 391 2477 730 
Q 2766 1069 2766 1631 
L 2766 1759 
L 2194 1759 
z
M 3341 1997 
L 3341 0 
L 2766 0 
L 2766 531 
Q 2569 213 2275 61 
Q 1981 -91 1556 -91 
Q 1019 -91 701 211 
Q 384 513 384 1019 
Q 384 1609 779 1909 
Q 1175 2209 1959 2209 
L 2766 2209 
L 2766 2266 
Q 2766 2663 2505 2880 
Q 2244 3097 1772 3097 
Q 1472 3097 1187 3025 
Q 903 2953 641 2809 
L 641 3341 
Q 956 3463 1253 3523 
Q 1550 3584 1831 3584 
Q 2591 3584 2966 3190 
Q 3341 2797 3341 1997 
z
" transform="scale(0.015625)"/>
       <path id="DejaVuSans-6e" d="M 3513 2113 
L 3513 0 
L 2938 0 
L 2938 2094 
Q 2938 2591 2744 2837 
Q 2550 3084 2163 3084 
Q 1697 3084 1428 2787 
Q 1159 2491 1159 1978 
L 1159 0 
L 581 0 
L 581 3500 
L 1159 3500 
L 1159 2956 
Q 1366 3272 1645 3428 
Q 1925 3584 2291 3584 
Q 2894 3584 3203 3211 
Q 3513 2838 3513 2113 
z
" transform="scale(0.015625)"/>
       <path id="DejaVuSans-67" d="M 2906 1791 
Q 2906 2416 2648 2759 
Q 2391 3103 1925 3103 
Q 1463 3103 1205 2759 
Q 947 2416 947 1791 
Q 947 1169 1205 825 
Q 1463 481 1925 481 
Q 2391 481 2648 825 
Q 2906 1169 2906 1791 
z
M 3481 434 
Q 3481 -459 3084 -895 
Q 2688 -1331 1869 -1331 
Q 1566 -1331 1297 -1286 
Q 1028 -1241 775 -1147 
L 775 -588 
Q 1028 -725 1275 -790 
Q 1522 -856 1778 -856 
Q 2344 -856 2625 -561 
Q 2906 -266 2906 331 
L 2906 616 
Q 2728 306 2450 153 
Q 2172 0 1784 0 
Q 1141 0 747 490 
Q 353 981 353 1791 
Q 353 2603 747 3093 
Q 1141 3584 1784 3584 
Q 2172 3584 2450 3431 
Q 2728 3278 2906 2969 
L 2906 3500 
L 3481 3500 
L 3481 434 
z
" transform="scale(0.015625)"/>
       <path id="DejaVuSans-20" transform="scale(0.015625)"/>
      </defs>
      <use xlink:href="#DejaVuSans-74"/>
      <use xlink:href="#DejaVuSans-72" x="39.208984"/>
      <use xlink:href="#DejaVuSans-61" x="80.322266"/>
      <use xlink:href="#DejaVuSans-69" x="141.601562"/>
      <use xlink:href="#DejaVuSans-6e" x="169.384766"/>
      <use xlink:href="#DejaVuSans-69" x="232.763672"/>
      <use xlink:href="#DejaVuSans-6e" x="260.546875"/>
      <use xlink:href="#DejaVuSans-67" x="323.925781"/>
      <use xlink:href="#DejaVuSans-20" x="387.402344"/>
      <use xlink:href="#DejaVuSans-73" x="419.189453"/>
      <use xlink:href="#DejaVuSans-65" x="471.289062"/>
      <use xlink:href="#DejaVuSans-74" x="532.8125"/>
     </g>
    </g>
    <g id="line2d_18">
     <path d="M 66.6 69.248563 
L 76.6 69.248563 
L 86.6 69.248563 
" style="fill: none; stroke: #008000; stroke-width: 1.5; stroke-linecap: square"/>
    </g>
    <g id="text_18">
     <!-- validation set -->
     <g transform="translate(94.6 72.748563) scale(0.1 -0.1)">
      <defs>
       <path id="DejaVuSans-76" d="M 191 3500 
L 800 3500 
L 1894 563 
L 2988 3500 
L 3597 3500 
L 2284 0 
L 1503 0 
L 191 3500 
z
" transform="scale(0.015625)"/>
       <path id="DejaVuSans-64" d="M 2906 2969 
L 2906 4863 
L 3481 4863 
L 3481 0 
L 2906 0 
L 2906 525 
Q 2725 213 2448 61 
Q 2172 -91 1784 -91 
Q 1150 -91 751 415 
Q 353 922 353 1747 
Q 353 2572 751 3078 
Q 1150 3584 1784 3584 
Q 2172 3584 2448 3432 
Q 2725 3281 2906 2969 
z
M 947 1747 
Q 947 1113 1208 752 
Q 1469 391 1925 391 
Q 2381 391 2643 752 
Q 2906 1113 2906 1747 
Q 2906 2381 2643 2742 
Q 2381 3103 1925 3103 
Q 1469 3103 1208 2742 
Q 947 2381 947 1747 
z
" transform="scale(0.015625)"/>
      </defs>
      <use xlink:href="#DejaVuSans-76"/>
      <use xlink:href="#DejaVuSans-61" x="59.179688"/>
      <use xlink:href="#DejaVuSans-6c" x="120.458984"/>
      <use xlink:href="#DejaVuSans-69" x="148.242188"/>
      <use xlink:href="#DejaVuSans-64" x="176.025391"/>
      <use xlink:href="#DejaVuSans-61" x="239.501953"/>
      <use xlink:href="#DejaVuSans-74" x="300.78125"/>
      <use xlink:href="#DejaVuSans-69" x="339.990234"/>
      <use xlink:href="#DejaVuSans-6f" x="367.773438"/>
      <use xlink:href="#DejaVuSans-6e" x="428.955078"/>
      <use xlink:href="#DejaVuSans-20" x="492.333984"/>
      <use xlink:href="#DejaVuSans-73" x="524.121094"/>
      <use xlink:href="#DejaVuSans-65" x="576.220703"/>
      <use xlink:href="#DejaVuSans-74" x="637.744141"/>
     </g>
    </g>
    <g id="line2d_19">
     <path d="M 66.6 83.926688 
L 76.6 83.926688 
L 86.6 83.926688 
" style="fill: none; stroke: #ff0000; stroke-width: 1.5; stroke-linecap: square"/>
    </g>
    <g id="text_19">
     <!-- test set -->
     <g transform="translate(94.6 87.426688) scale(0.1 -0.1)">
      <use xlink:href="#DejaVuSans-74"/>
      <use xlink:href="#DejaVuSans-65" x="39.208984"/>
      <use xlink:href="#DejaVuSans-73" x="100.732422"/>
      <use xlink:href="#DejaVuSans-74" x="152.832031"/>
      <use xlink:href="#DejaVuSans-20" x="192.041016"/>
      <use xlink:href="#DejaVuSans-73" x="223.828125"/>
      <use xlink:href="#DejaVuSans-65" x="275.927734"/>
      <use xlink:href="#DejaVuSans-74" x="337.451172"/>
     </g>
    </g>
   </g>
  </g>
 </g>
 <defs>
  <clipPath id="p54311a8530">
   <rect x="57.6" y="41.472" width="357.12" height="266.112"/>
  </clipPath>
 </defs>
</svg>
