<?xml version="1.0" encoding="utf-8" standalone="no"?>
<!DOCTYPE svg PUBLIC "-//W3C//DTD SVG 1.1//EN"
  "http://www.w3.org/Graphics/SVG/1.1/DTD/svg11.dtd">
<svg xmlns:xlink="http://www.w3.org/1999/xlink" width="460.8pt" height="345.6pt" viewBox="0 0 460.8 345.6" xmlns="http://www.w3.org/2000/svg" version="1.1">
 <metadata>
  <rdf:RDF xmlns:dc="http://purl.org/dc/elements/1.1/" xmlns:cc="http://creativecommons.org/ns#" xmlns:rdf="http://www.w3.org/1999/02/22-rdf-syntax-ns#">
   <cc:Work>
    <dc:type rdf:resource="http://purl.org/dc/dcmitype/StillImage"/>
    <dc:date>2023-06-14T04:03:47.579550</dc:date>
    <dc:format>image/svg+xml</dc:format>
    <dc:creator>
     <cc:Agent>
      <dc:title>Matplotlib v3.7.1, https://matplotlib.org/</dc:title>
     </cc:Agent>
    </dc:creator>
   </cc:Work>
  </rdf:RDF>
 </metadata>
 <defs>
  <style type="text/css">*{stroke-linejoin: round; stroke-linecap: butt}</style>
 </defs>
 <g id="figure_1">
  <g id="patch_1">
   <path d="M 0 345.6 
L 460.8 345.6 
L 460.8 0 
L 0 0 
z
" style="fill: #ffffff"/>
  </g>
  <g id="axes_1">
   <g id="patch_2">
    <path d="M 57.6 307.584 
L 414.72 307.584 
L 414.72 41.472 
L 57.6 41.472 
z
" style="fill: #ffffff"/>
   </g>
   <g id="matplotlib.axis_1">
    <g id="xtick_1">
     <g id="line2d_1">
      <defs>
       <path id="mec16591d18" d="M 0 0 
L 0 3.5 
" style="stroke: #000000; stroke-width: 0.8"/>
      </defs>
      <g>
       <use xlink:href="#mec16591d18" x="73.767783" y="307.584" style="stroke: #000000; stroke-width: 0.8"/>
      </g>
     </g>
     <g id="text_1">
      <!-- 0 -->
      <g transform="translate(70.586533 322.182437) scale(0.1 -0.1)">
       <defs>
        <path id="DejaVuSans-30" d="M 2034 4250 
Q 1547 4250 1301 3770 
Q 1056 3291 1056 2328 
Q 1056 1369 1301 889 
Q 1547 409 2034 409 
Q 2525 409 2770 889 
Q 3016 1369 3016 2328 
Q 3016 3291 2770 3770 
Q 2525 4250 2034 4250 
z
M 2034 4750 
Q 2819 4750 3233 4129 
Q 3647 3509 3647 2328 
Q 3647 1150 3233 529 
Q 2819 -91 2034 -91 
Q 1250 -91 836 529 
Q 422 1150 422 2328 
Q 422 3509 836 4129 
Q 1250 4750 2034 4750 
z
" transform="scale(0.015625)"/>
       </defs>
       <use xlink:href="#DejaVuSans-30"/>
      </g>
     </g>
    </g>
    <g id="xtick_2">
     <g id="line2d_2">
      <g>
       <use xlink:href="#mec16591d18" x="138.711681" y="307.584" style="stroke: #000000; stroke-width: 0.8"/>
      </g>
     </g>
     <g id="text_2">
      <!-- 1000 -->
      <g transform="translate(125.986681 322.182437) scale(0.1 -0.1)">
       <defs>
        <path id="DejaVuSans-31" d="M 794 531 
L 1825 531 
L 1825 4091 
L 703 3866 
L 703 4441 
L 1819 4666 
L 2450 4666 
L 2450 531 
L 3481 531 
L 3481 0 
L 794 0 
L 794 531 
z
" transform="scale(0.015625)"/>
       </defs>
       <use xlink:href="#DejaVuSans-31"/>
       <use xlink:href="#DejaVuSans-30" x="63.623047"/>
       <use xlink:href="#DejaVuSans-30" x="127.246094"/>
       <use xlink:href="#DejaVuSans-30" x="190.869141"/>
      </g>
     </g>
    </g>
    <g id="xtick_3">
     <g id="line2d_3">
      <g>
       <use xlink:href="#mec16591d18" x="203.655579" y="307.584" style="stroke: #000000; stroke-width: 0.8"/>
      </g>
     </g>
     <g id="text_3">
      <!-- 2000 -->
      <g transform="translate(190.930579 322.182437) scale(0.1 -0.1)">
       <defs>
        <path id="DejaVuSans-32" d="M 1228 531 
L 3431 531 
L 3431 0 
L 469 0 
L 469 531 
Q 828 903 1448 1529 
Q 2069 2156 2228 2338 
Q 2531 2678 2651 2914 
Q 2772 3150 2772 3378 
Q 2772 3750 2511 3984 
Q 2250 4219 1831 4219 
Q 1534 4219 1204 4116 
Q 875 4013 500 3803 
L 500 4441 
Q 881 4594 1212 4672 
Q 1544 4750 1819 4750 
Q 2544 4750 2975 4387 
Q 3406 4025 3406 3419 
Q 3406 3131 3298 2873 
Q 3191 2616 2906 2266 
Q 2828 2175 2409 1742 
Q 1991 1309 1228 531 
z
" transform="scale(0.015625)"/>
       </defs>
       <use xlink:href="#DejaVuSans-32"/>
       <use xlink:href="#DejaVuSans-30" x="63.623047"/>
       <use xlink:href="#DejaVuSans-30" x="127.246094"/>
       <use xlink:href="#DejaVuSans-30" x="190.869141"/>
      </g>
     </g>
    </g>
    <g id="xtick_4">
     <g id="line2d_4">
      <g>
       <use xlink:href="#mec16591d18" x="268.599477" y="307.584" style="stroke: #000000; stroke-width: 0.8"/>
      </g>
     </g>
     <g id="text_4">
      <!-- 3000 -->
      <g transform="translate(255.874477 322.182437) scale(0.1 -0.1)">
       <defs>
        <path id="DejaVuSans-33" d="M 2597 2516 
Q 3050 2419 3304 2112 
Q 3559 1806 3559 1356 
Q 3559 666 3084 287 
Q 2609 -91 1734 -91 
Q 1441 -91 1130 -33 
Q 819 25 488 141 
L 488 750 
Q 750 597 1062 519 
Q 1375 441 1716 441 
Q 2309 441 2620 675 
Q 2931 909 2931 1356 
Q 2931 1769 2642 2001 
Q 2353 2234 1838 2234 
L 1294 2234 
L 1294 2753 
L 1863 2753 
Q 2328 2753 2575 2939 
Q 2822 3125 2822 3475 
Q 2822 3834 2567 4026 
Q 2313 4219 1838 4219 
Q 1578 4219 1281 4162 
Q 984 4106 628 3988 
L 628 4550 
Q 988 4650 1302 4700 
Q 1616 4750 1894 4750 
Q 2613 4750 3031 4423 
Q 3450 4097 3450 3541 
Q 3450 3153 3228 2886 
Q 3006 2619 2597 2516 
z
" transform="scale(0.015625)"/>
       </defs>
       <use xlink:href="#DejaVuSans-33"/>
       <use xlink:href="#DejaVuSans-30" x="63.623047"/>
       <use xlink:href="#DejaVuSans-30" x="127.246094"/>
       <use xlink:href="#DejaVuSans-30" x="190.869141"/>
      </g>
     </g>
    </g>
    <g id="xtick_5">
     <g id="line2d_5">
      <g>
       <use xlink:href="#mec16591d18" x="333.543375" y="307.584" style="stroke: #000000; stroke-width: 0.8"/>
      </g>
     </g>
     <g id="text_5">
      <!-- 4000 -->
      <g transform="translate(320.818375 322.182437) scale(0.1 -0.1)">
       <defs>
        <path id="DejaVuSans-34" d="M 2419 4116 
L 825 1625 
L 2419 1625 
L 2419 4116 
z
M 2253 4666 
L 3047 4666 
L 3047 1625 
L 3713 1625 
L 3713 1100 
L 3047 1100 
L 3047 0 
L 2419 0 
L 2419 1100 
L 313 1100 
L 313 1709 
L 2253 4666 
z
" transform="scale(0.015625)"/>
       </defs>
       <use xlink:href="#DejaVuSans-34"/>
       <use xlink:href="#DejaVuSans-30" x="63.623047"/>
       <use xlink:href="#DejaVuSans-30" x="127.246094"/>
       <use xlink:href="#DejaVuSans-30" x="190.869141"/>
      </g>
     </g>
    </g>
    <g id="xtick_6">
     <g id="line2d_6">
      <g>
       <use xlink:href="#mec16591d18" x="398.487273" y="307.584" style="stroke: #000000; stroke-width: 0.8"/>
      </g>
     </g>
     <g id="text_6">
      <!-- 5000 -->
      <g transform="translate(385.762273 322.182437) scale(0.1 -0.1)">
       <defs>
        <path id="DejaVuSans-35" d="M 691 4666 
L 3169 4666 
L 3169 4134 
L 1269 4134 
L 1269 2991 
Q 1406 3038 1543 3061 
Q 1681 3084 1819 3084 
Q 2600 3084 3056 2656 
Q 3513 2228 3513 1497 
Q 3513 744 3044 326 
Q 2575 -91 1722 -91 
Q 1428 -91 1123 -41 
Q 819 9 494 109 
L 494 744 
Q 775 591 1075 516 
Q 1375 441 1709 441 
Q 2250 441 2565 725 
Q 2881 1009 2881 1497 
Q 2881 1984 2565 2268 
Q 2250 2553 1709 2553 
Q 1456 2553 1204 2497 
Q 953 2441 691 2322 
L 691 4666 
z
" transform="scale(0.015625)"/>
       </defs>
       <use xlink:href="#DejaVuSans-35"/>
       <use xlink:href="#DejaVuSans-30" x="63.623047"/>
       <use xlink:href="#DejaVuSans-30" x="127.246094"/>
       <use xlink:href="#DejaVuSans-30" x="190.869141"/>
      </g>
     </g>
    </g>
    <g id="text_7">
     <!-- epoch -->
     <g transform="translate(220.931875 335.860562) scale(0.1 -0.1)">
      <defs>
       <path id="DejaVuSans-65" d="M 3597 1894 
L 3597 1613 
L 953 1613 
Q 991 1019 1311 708 
Q 1631 397 2203 397 
Q 2534 397 2845 478 
Q 3156 559 3463 722 
L 3463 178 
Q 3153 47 2828 -22 
Q 2503 -91 2169 -91 
Q 1331 -91 842 396 
Q 353 884 353 1716 
Q 353 2575 817 3079 
Q 1281 3584 2069 3584 
Q 2775 3584 3186 3129 
Q 3597 2675 3597 1894 
z
M 3022 2063 
Q 3016 2534 2758 2815 
Q 2500 3097 2075 3097 
Q 1594 3097 1305 2825 
Q 1016 2553 972 2059 
L 3022 2063 
z
" transform="scale(0.015625)"/>
       <path id="DejaVuSans-70" d="M 1159 525 
L 1159 -1331 
L 581 -1331 
L 581 3500 
L 1159 3500 
L 1159 2969 
Q 1341 3281 1617 3432 
Q 1894 3584 2278 3584 
Q 2916 3584 3314 3078 
Q 3713 2572 3713 1747 
Q 3713 922 3314 415 
Q 2916 -91 2278 -91 
Q 1894 -91 1617 61 
Q 1341 213 1159 525 
z
M 3116 1747 
Q 3116 2381 2855 2742 
Q 2594 3103 2138 3103 
Q 1681 3103 1420 2742 
Q 1159 2381 1159 1747 
Q 1159 1113 1420 752 
Q 1681 391 2138 391 
Q 2594 391 2855 752 
Q 3116 1113 3116 1747 
z
" transform="scale(0.015625)"/>
       <path id="DejaVuSans-6f" d="M 1959 3097 
Q 1497 3097 1228 2736 
Q 959 2375 959 1747 
Q 959 1119 1226 758 
Q 1494 397 1959 397 
Q 2419 397 2687 759 
Q 2956 1122 2956 1747 
Q 2956 2369 2687 2733 
Q 2419 3097 1959 3097 
z
M 1959 3584 
Q 2709 3584 3137 3096 
Q 3566 2609 3566 1747 
Q 3566 888 3137 398 
Q 2709 -91 1959 -91 
Q 1206 -91 779 398 
Q 353 888 353 1747 
Q 353 2609 779 3096 
Q 1206 3584 1959 3584 
z
" transform="scale(0.015625)"/>
       <path id="DejaVuSans-63" d="M 3122 3366 
L 3122 2828 
Q 2878 2963 2633 3030 
Q 2388 3097 2138 3097 
Q 1578 3097 1268 2742 
Q 959 2388 959 1747 
Q 959 1106 1268 751 
Q 1578 397 2138 397 
Q 2388 397 2633 464 
Q 2878 531 3122 666 
L 3122 134 
Q 2881 22 2623 -34 
Q 2366 -91 2075 -91 
Q 1284 -91 818 406 
Q 353 903 353 1747 
Q 353 2603 823 3093 
Q 1294 3584 2113 3584 
Q 2378 3584 2631 3529 
Q 2884 3475 3122 3366 
z
" transform="scale(0.015625)"/>
       <path id="DejaVuSans-68" d="M 3513 2113 
L 3513 0 
L 2938 0 
L 2938 2094 
Q 2938 2591 2744 2837 
Q 2550 3084 2163 3084 
Q 1697 3084 1428 2787 
Q 1159 2491 1159 1978 
L 1159 0 
L 581 0 
L 581 4863 
L 1159 4863 
L 1159 2956 
Q 1366 3272 1645 3428 
Q 1925 3584 2291 3584 
Q 2894 3584 3203 3211 
Q 3513 2838 3513 2113 
z
" transform="scale(0.015625)"/>
      </defs>
      <use xlink:href="#DejaVuSans-65"/>
      <use xlink:href="#DejaVuSans-70" x="61.523438"/>
      <use xlink:href="#DejaVuSans-6f" x="125"/>
      <use xlink:href="#DejaVuSans-63" x="186.181641"/>
      <use xlink:href="#DejaVuSans-68" x="241.162109"/>
     </g>
    </g>
   </g>
   <g id="matplotlib.axis_2">
    <g id="ytick_1">
     <g id="line2d_7">
      <defs>
       <path id="me6185d97e0" d="M 0 0 
L -3.5 0 
" style="stroke: #000000; stroke-width: 0.8"/>
      </defs>
      <g>
       <use xlink:href="#me6185d97e0" x="57.6" y="285.334823" style="stroke: #000000; stroke-width: 0.8"/>
      </g>
     </g>
     <g id="text_8">
      <!-- 0.4 -->
      <g transform="translate(34.696875 289.134042) scale(0.1 -0.1)">
       <defs>
        <path id="DejaVuSans-2e" d="M 684 794 
L 1344 794 
L 1344 0 
L 684 0 
L 684 794 
z
" transform="scale(0.015625)"/>
       </defs>
       <use xlink:href="#DejaVuSans-30"/>
       <use xlink:href="#DejaVuSans-2e" x="63.623047"/>
       <use xlink:href="#DejaVuSans-34" x="95.410156"/>
      </g>
     </g>
    </g>
    <g id="ytick_2">
     <g id="line2d_8">
      <g>
       <use xlink:href="#me6185d97e0" x="57.6" y="253.415148" style="stroke: #000000; stroke-width: 0.8"/>
      </g>
     </g>
     <g id="text_9">
      <!-- 0.6 -->
      <g transform="translate(34.696875 257.214367) scale(0.1 -0.1)">
       <defs>
        <path id="DejaVuSans-36" d="M 2113 2584 
Q 1688 2584 1439 2293 
Q 1191 2003 1191 1497 
Q 1191 994 1439 701 
Q 1688 409 2113 409 
Q 2538 409 2786 701 
Q 3034 994 3034 1497 
Q 3034 2003 2786 2293 
Q 2538 2584 2113 2584 
z
M 3366 4563 
L 3366 3988 
Q 3128 4100 2886 4159 
Q 2644 4219 2406 4219 
Q 1781 4219 1451 3797 
Q 1122 3375 1075 2522 
Q 1259 2794 1537 2939 
Q 1816 3084 2150 3084 
Q 2853 3084 3261 2657 
Q 3669 2231 3669 1497 
Q 3669 778 3244 343 
Q 2819 -91 2113 -91 
Q 1303 -91 875 529 
Q 447 1150 447 2328 
Q 447 3434 972 4092 
Q 1497 4750 2381 4750 
Q 2619 4750 2861 4703 
Q 3103 4656 3366 4563 
z
" transform="scale(0.015625)"/>
       </defs>
       <use xlink:href="#DejaVuSans-30"/>
       <use xlink:href="#DejaVuSans-2e" x="63.623047"/>
       <use xlink:href="#DejaVuSans-36" x="95.410156"/>
      </g>
     </g>
    </g>
    <g id="ytick_3">
     <g id="line2d_9">
      <g>
       <use xlink:href="#me6185d97e0" x="57.6" y="221.495474" style="stroke: #000000; stroke-width: 0.8"/>
      </g>
     </g>
     <g id="text_10">
      <!-- 0.8 -->
      <g transform="translate(34.696875 225.294692) scale(0.1 -0.1)">
       <defs>
        <path id="DejaVuSans-38" d="M 2034 2216 
Q 1584 2216 1326 1975 
Q 1069 1734 1069 1313 
Q 1069 891 1326 650 
Q 1584 409 2034 409 
Q 2484 409 2743 651 
Q 3003 894 3003 1313 
Q 3003 1734 2745 1975 
Q 2488 2216 2034 2216 
z
M 1403 2484 
Q 997 2584 770 2862 
Q 544 3141 544 3541 
Q 544 4100 942 4425 
Q 1341 4750 2034 4750 
Q 2731 4750 3128 4425 
Q 3525 4100 3525 3541 
Q 3525 3141 3298 2862 
Q 3072 2584 2669 2484 
Q 3125 2378 3379 2068 
Q 3634 1759 3634 1313 
Q 3634 634 3220 271 
Q 2806 -91 2034 -91 
Q 1263 -91 848 271 
Q 434 634 434 1313 
Q 434 1759 690 2068 
Q 947 2378 1403 2484 
z
M 1172 3481 
Q 1172 3119 1398 2916 
Q 1625 2713 2034 2713 
Q 2441 2713 2670 2916 
Q 2900 3119 2900 3481 
Q 2900 3844 2670 4047 
Q 2441 4250 2034 4250 
Q 1625 4250 1398 4047 
Q 1172 3844 1172 3481 
z
" transform="scale(0.015625)"/>
       </defs>
       <use xlink:href="#DejaVuSans-30"/>
       <use xlink:href="#DejaVuSans-2e" x="63.623047"/>
       <use xlink:href="#DejaVuSans-38" x="95.410156"/>
      </g>
     </g>
    </g>
    <g id="ytick_4">
     <g id="line2d_10">
      <g>
       <use xlink:href="#me6185d97e0" x="57.6" y="189.575799" style="stroke: #000000; stroke-width: 0.8"/>
      </g>
     </g>
     <g id="text_11">
      <!-- 1.0 -->
      <g transform="translate(34.696875 193.375017) scale(0.1 -0.1)">
       <use xlink:href="#DejaVuSans-31"/>
       <use xlink:href="#DejaVuSans-2e" x="63.623047"/>
       <use xlink:href="#DejaVuSans-30" x="95.410156"/>
      </g>
     </g>
    </g>
    <g id="ytick_5">
     <g id="line2d_11">
      <g>
       <use xlink:href="#me6185d97e0" x="57.6" y="157.656124" style="stroke: #000000; stroke-width: 0.8"/>
      </g>
     </g>
     <g id="text_12">
      <!-- 1.2 -->
      <g transform="translate(34.696875 161.455343) scale(0.1 -0.1)">
       <use xlink:href="#DejaVuSans-31"/>
       <use xlink:href="#DejaVuSans-2e" x="63.623047"/>
       <use xlink:href="#DejaVuSans-32" x="95.410156"/>
      </g>
     </g>
    </g>
    <g id="ytick_6">
     <g id="line2d_12">
      <g>
       <use xlink:href="#me6185d97e0" x="57.6" y="125.736449" style="stroke: #000000; stroke-width: 0.8"/>
      </g>
     </g>
     <g id="text_13">
      <!-- 1.4 -->
      <g transform="translate(34.696875 129.535668) scale(0.1 -0.1)">
       <use xlink:href="#DejaVuSans-31"/>
       <use xlink:href="#DejaVuSans-2e" x="63.623047"/>
       <use xlink:href="#DejaVuSans-34" x="95.410156"/>
      </g>
     </g>
    </g>
    <g id="ytick_7">
     <g id="line2d_13">
      <g>
       <use xlink:href="#me6185d97e0" x="57.6" y="93.816774" style="stroke: #000000; stroke-width: 0.8"/>
      </g>
     </g>
     <g id="text_14">
      <!-- 1.6 -->
      <g transform="translate(34.696875 97.615993) scale(0.1 -0.1)">
       <use xlink:href="#DejaVuSans-31"/>
       <use xlink:href="#DejaVuSans-2e" x="63.623047"/>
       <use xlink:href="#DejaVuSans-36" x="95.410156"/>
      </g>
     </g>
    </g>
    <g id="ytick_8">
     <g id="line2d_14">
      <g>
       <use xlink:href="#me6185d97e0" x="57.6" y="61.8971" style="stroke: #000000; stroke-width: 0.8"/>
      </g>
     </g>
     <g id="text_15">
      <!-- 1.8 -->
      <g transform="translate(34.696875 65.696318) scale(0.1 -0.1)">
       <use xlink:href="#DejaVuSans-31"/>
       <use xlink:href="#DejaVuSans-2e" x="63.623047"/>
       <use xlink:href="#DejaVuSans-38" x="95.410156"/>
      </g>
     </g>
    </g>
    <g id="text_16">
     <!-- loss -->
     <g transform="translate(28.617188 184.185812) rotate(-90) scale(0.1 -0.1)">
      <defs>
       <path id="DejaVuSans-6c" d="M 603 4863 
L 1178 4863 
L 1178 0 
L 603 0 
L 603 4863 
z
" transform="scale(0.015625)"/>
       <path id="DejaVuSans-73" d="M 2834 3397 
L 2834 2853 
Q 2591 2978 2328 3040 
Q 2066 3103 1784 3103 
Q 1356 3103 1142 2972 
Q 928 2841 928 2578 
Q 928 2378 1081 2264 
Q 1234 2150 1697 2047 
L 1894 2003 
Q 2506 1872 2764 1633 
Q 3022 1394 3022 966 
Q 3022 478 2636 193 
Q 2250 -91 1575 -91 
Q 1294 -91 989 -36 
Q 684 19 347 128 
L 347 722 
Q 666 556 975 473 
Q 1284 391 1588 391 
Q 1994 391 2212 530 
Q 2431 669 2431 922 
Q 2431 1156 2273 1281 
Q 2116 1406 1581 1522 
L 1381 1569 
Q 847 1681 609 1914 
Q 372 2147 372 2553 
Q 372 3047 722 3315 
Q 1072 3584 1716 3584 
Q 2034 3584 2315 3537 
Q 2597 3491 2834 3397 
z
" transform="scale(0.015625)"/>
      </defs>
      <use xlink:href="#DejaVuSans-6c"/>
      <use xlink:href="#DejaVuSans-6f" x="27.783203"/>
      <use xlink:href="#DejaVuSans-73" x="88.964844"/>
      <use xlink:href="#DejaVuSans-73" x="141.064453"/>
     </g>
    </g>
   </g>
   <g id="line2d_15">
    <path d="M 73.832727 173.199221 
L 74.092503 174.266481 
L 74.287335 174.536074 
L 74.676998 174.912191 
L 75.7161 176.462931 
L 76.365539 177.885513 
L 77.20981 180.317481 
L 78.638576 185.30649 
L 80.651837 192.151866 
L 82.470266 197.52076 
L 84.288695 202.231662 
L 86.04218 206.185926 
L 87.860609 209.744067 
L 91.887131 216.952784 
L 96.433204 224.618316 
L 97.082643 225.795259 
L 98.901072 229.042341 
L 103.447145 236.836457 
L 103.641976 237.955686 
L 103.771864 237.594694 
L 104.096584 238.434428 
L 104.161528 238.409761 
L 104.356359 238.848929 
L 104.551191 239.412801 
L 104.616135 239.361993 
L 104.681079 239.340237 
L 105.070742 239.998685 
L 105.265574 240.326876 
L 105.590293 240.844582 
L 106.304676 241.902634 
L 106.564452 242.217622 
L 110.20131 246.5799 
L 111.954795 248.395913 
L 112.993898 249.400551 
L 115.137046 251.333239 
L 118.514129 254.002427 
L 122.540651 256.673984 
L 126.307397 258.721035 
L 128.840209 259.829315 
L 131.567852 260.83244 
L 137.802467 262.64696 
L 141.309437 263.418201 
L 145.465847 264.157488 
L 156.116646 265.638261 
L 158.129907 265.881408 
L 167.806547 267 
L 185.406344 269.13513 
L 193.978938 270.331608 
L 201.577374 271.496079 
L 202.031982 271.528589 
L 202.161869 271.572543 
L 202.291757 271.548252 
L 202.486589 271.620516 
L 202.811308 271.67463 
L 203.460747 271.815025 
L 211.124127 273.079205 
L 211.383903 272.954059 
L 211.578735 273.177263 
L 211.708622 273.129352 
L 211.83851 273.258041 
L 211.968398 273.207043 
L 212.16323 273.279664 
L 212.747725 273.40549 
L 213.202332 273.496337 
L 216.384583 274.085807 
L 232.945277 277.252639 
L 235.283257 277.631196 
L 235.543033 277.687674 
L 235.867752 277.794512 
L 236.32236 277.901136 
L 237.101687 278.055372 
L 239.504611 278.522912 
L 240.218994 278.540168 
L 240.413825 278.621408 
L 240.673601 278.724137 
L 240.933376 278.783768 
L 241.452928 278.900085 
L 243.790908 279.347244 
L 246.518552 279.776329 
L 246.778327 279.51436 
L 246.973159 279.929085 
L 247.103047 279.765941 
L 247.232935 280.001031 
L 247.297878 279.96386 
L 247.427766 279.947612 
L 247.557654 280.043848 
L 247.687542 280.021945 
L 247.882374 280.076325 
L 258.273397 282.021213 
L 258.533173 281.993026 
L 258.792948 281.686528 
L 258.857892 281.821287 
L 258.98778 282.154497 
L 259.052724 282.08863 
L 259.182612 282.011029 
L 259.3125 282.210313 
L 259.507331 282.170944 
L 259.637219 282.247351 
L 259.767107 282.225258 
L 259.961939 282.285069 
L 260.611378 282.423286 
L 261.260817 282.550962 
L 265.547114 283.287514 
L 269.833411 283.928896 
L 270.093187 283.877042 
L 270.417906 284.05935 
L 270.612738 284.080055 
L 270.872513 284.145508 
L 271.392065 284.2385 
L 272.366223 284.414206 
L 276.132969 285.010245 
L 276.522633 284.977802 
L 276.782408 284.830529 
L 277.042184 285.130278 
L 277.237015 285.081548 
L 277.431847 285.188092 
L 277.626679 285.208026 
L 277.82151 285.241687 
L 278.276118 285.32149 
L 278.860613 285.423244 
L 281.718144 285.854492 
L 285.679722 286.344007 
L 285.939498 286.06659 
L 286.004442 286.151173 
L 286.134329 286.484416 
L 286.199273 286.461747 
L 286.329161 286.31963 
L 286.523993 286.534087 
L 286.718824 286.505691 
L 286.848712 286.578631 
L 287.043544 286.585599 
L 287.368263 286.648645 
L 288.082646 286.756102 
L 289.251637 286.914385 
L 294.9667 287.662953 
L 307.111208 289.026775 
L 307.435928 289.018465 
L 307.825591 289.14588 
L 308.150311 289.190086 
L 308.864694 289.27933 
L 312.956159 289.680485 
L 313.47571 289.732287 
L 316.203354 289.950677 
L 316.528074 289.940965 
L 316.852793 290.071661 
L 317.177513 290.093802 
L 317.697064 290.15291 
L 318.736166 290.259163 
L 322.697744 290.556781 
L 323.087407 290.530683 
L 323.347183 290.677917 
L 323.671902 290.675872 
L 323.996622 290.714156 
L 325.750107 290.888416 
L 329.451909 291.146908 
L 329.841573 291.15214 
L 330.231236 291.247786 
L 330.750787 291.306799 
L 333.283599 291.504223 
L 347.766088 292.565857 
L 352.9616 292.830027 
L 353.351264 292.823777 
L 353.611039 292.947125 
L 353.935759 292.940081 
L 354.325422 292.973224 
L 358.222056 293.244215 
L 364.78139 293.638183 
L 365.62566 293.671925 
L 365.885436 293.667706 
L 366.210155 293.727613 
L 368.418248 293.859508 
L 372.44477 294.042529 
L 372.899377 293.951577 
L 373.159153 294.121448 
L 373.418928 294.085698 
L 373.678704 294.147218 
L 374.003423 294.177535 
L 376.211516 294.304122 
L 398.487273 295.488 
L 398.487273 295.488 
" clip-path="url(#p265e7a9b3d)" style="fill: none; stroke: #0000ff; stroke-width: 1.5; stroke-linecap: square"/>
   </g>
   <g id="line2d_16">
    <path d="M 73.832727 169.364837 
L 74.157447 173.502375 
L 74.482166 175.051687 
L 74.676998 175.157584 
L 74.87183 174.76967 
L 75.196549 174.078109 
L 75.326437 174.123009 
L 75.521269 174.563966 
L 75.910932 175.563343 
L 76.04082 175.553621 
L 76.365539 175.377405 
L 76.560371 175.815204 
L 76.88509 176.547766 
L 77.20981 176.666714 
L 77.729361 177.72878 
L 77.924193 178.110967 
L 78.248912 178.790048 
L 78.443744 179.17817 
L 78.963295 180.328059 
L 82.21049 186.630235 
L 84.418583 189.881217 
L 85.262853 190.922089 
L 85.327797 190.874801 
L 85.392741 191.322216 
L 85.457685 190.705682 
L 85.522629 191.702063 
L 85.587573 190.962709 
L 85.652517 191.300366 
L 85.717461 191.784367 
L 85.782404 191.109282 
L 85.912292 191.866939 
L 85.977236 191.369923 
L 86.107124 191.952915 
L 86.172068 191.694243 
L 86.301956 192.130634 
L 86.3669 191.920315 
L 86.431843 192.276798 
L 86.496787 192.136322 
L 86.756563 192.556446 
L 86.886451 192.534833 
L 86.951395 192.729636 
L 87.016339 192.662428 
L 87.406002 193.074627 
L 87.470946 192.928549 
L 87.53589 193.348292 
L 87.600834 193.033123 
L 87.665778 193.241682 
L 87.730721 193.484153 
L 87.795665 193.147562 
L 87.860609 193.543941 
L 87.925553 193.384307 
L 88.055441 193.648097 
L 88.120385 193.454093 
L 88.185329 193.819042 
L 88.250273 193.603178 
L 88.38016 193.890636 
L 88.445104 193.74411 
L 88.510048 194.029836 
L 88.574992 193.621651 
L 88.70488 194.472696 
L 88.899712 193.693568 
L 88.964655 193.576466 
L 89.094543 194.726821 
L 89.159487 194.174374 
L 89.224431 194.437974 
L 89.289375 194.879025 
L 89.419263 194.433141 
L 89.484207 194.859981 
L 89.549151 194.574178 
L 89.614094 193.787745 
L 89.743982 195.322779 
L 89.808926 194.358875 
L 89.87387 194.505315 
L 89.938814 195.404579 
L 90.003758 194.938062 
L 90.068702 194.6294 
L 90.19859 195.381692 
L 90.328477 194.903673 
L 90.458365 195.289874 
L 90.523309 194.966096 
L 90.588253 195.174122 
L 90.653197 195.51176 
L 90.783085 195.026122 
L 90.848029 195.713517 
L 90.912972 195.58831 
L 90.977916 195.269146 
L 91.107804 195.738812 
L 91.237692 195.423557 
L 91.36758 195.79722 
L 91.432524 195.599953 
L 91.497467 195.652978 
L 91.562411 195.978534 
L 91.627355 195.874188 
L 91.692299 195.767835 
L 91.887131 195.990635 
L 92.017019 195.867625 
L 92.081963 196.211275 
L 92.146906 196.007862 
L 92.21185 196.028239 
L 92.276794 196.267847 
L 92.341738 196.233696 
L 92.406682 196.104084 
L 92.53657 196.405564 
L 92.666458 196.184724 
L 92.731402 196.527452 
L 92.796345 196.463792 
L 92.861289 196.405041 
L 93.056121 196.609148 
L 93.186009 196.629648 
L 93.315897 196.738398 
L 93.445784 196.815861 
L 93.510728 196.690891 
L 93.575672 196.933848 
L 93.640616 196.840452 
L 93.70556 196.855006 
L 93.770504 197.123324 
L 93.835448 196.857099 
L 93.900392 196.931499 
L 93.965336 197.326328 
L 94.03028 196.950886 
L 94.095223 197.144519 
L 94.160167 197.410735 
L 94.290055 197.083294 
L 94.354999 197.603645 
L 94.419943 197.279277 
L 94.484887 197.278706 
L 94.549831 197.646062 
L 94.614775 197.471731 
L 94.679718 197.350281 
L 94.744662 197.755793 
L 94.809606 197.667818 
L 94.87455 197.450955 
L 94.939494 197.831905 
L 95.004438 197.804184 
L 95.069382 197.568723 
L 95.134326 197.935623 
L 95.19927 197.888144 
L 95.264214 197.831315 
L 95.329157 198.154189 
L 95.394101 198.041652 
L 95.459045 197.896354 
L 95.588933 198.261912 
L 95.653877 198.058423 
L 95.783765 198.409436 
L 95.848709 198.258668 
L 95.978596 198.498267 
L 96.04354 198.448429 
L 96.173428 198.667034 
L 96.238372 198.144819 
L 96.303316 199.056887 
L 96.36826 198.971225 
L 96.433204 198.335646 
L 96.563092 199.24389 
L 96.628035 198.528632 
L 96.692979 198.881937 
L 96.822867 199.27064 
L 96.887811 199.123077 
L 96.952755 199.144272 
L 97.017699 199.545322 
L 97.082643 199.264228 
L 97.147587 199.17575 
L 97.212531 199.638757 
L 97.277474 199.10896 
L 97.407362 199.876035 
L 97.53725 199.408338 
L 97.602194 199.961146 
L 97.667138 199.860491 
L 97.732082 199.450175 
L 97.797026 199.946249 
L 97.861969 199.74473 
L 97.991857 200.131568 
L 98.056801 199.998322 
L 98.121745 200.041624 
L 98.186689 200.350771 
L 98.251633 200.303207 
L 98.381521 199.997494 
L 98.511408 200.781312 
L 98.576352 200.151992 
L 98.70624 201.04768 
L 98.836128 200.425999 
L 98.966016 201.010741 
L 99.095904 200.731236 
L 99.160847 201.171765 
L 99.225791 201.072708 
L 99.290735 200.931795 
L 99.420623 201.26772 
L 99.485567 201.229231 
L 99.550511 201.061483 
L 99.680399 201.617478 
L 99.745343 201.271972 
L 99.810286 201.338524 
L 99.87523 201.852891 
L 99.940174 201.175998 
L 100.005118 201.606566 
L 100.070062 202.171636 
L 100.19995 201.384699 
L 100.264894 202.109898 
L 100.329838 202.008701 
L 100.394782 201.663415 
L 100.524669 202.295312 
L 100.589613 201.902728 
L 100.654557 202.069126 
L 100.719501 202.493283 
L 100.784445 202.232642 
L 100.849389 201.819853 
L 100.979277 202.682398 
L 101.04422 202.084166 
L 101.109164 202.442628 
L 101.174108 202.896607 
L 101.303996 202.3184 
L 101.433884 202.974698 
L 101.498828 202.282765 
L 101.628716 203.345107 
L 101.758603 202.561433 
L 101.823547 203.252947 
L 101.888491 203.1209 
L 101.953435 203.053293 
L 102.148267 203.333939 
L 102.213211 203.250959 
L 102.343098 203.468251 
L 102.408042 203.128444 
L 102.53793 203.799563 
L 102.667818 203.463979 
L 102.732762 203.875703 
L 102.797706 203.616251 
L 102.86265 203.581149 
L 102.927594 204.013201 
L 102.992537 203.624708 
L 103.057481 203.826132 
L 103.187369 204.218545 
L 103.252313 203.918111 
L 103.317257 204.065997 
L 103.577032 204.833994 
L 103.641976 204.729772 
L 103.771864 203.538836 
L 103.901752 204.907205 
L 103.966696 204.542731 
L 104.03164 204.231663 
L 104.161528 205.541015 
L 104.226471 205.308969 
L 104.291415 204.747799 
L 104.356359 204.876669 
L 104.486247 205.562057 
L 104.616135 204.595975 
L 104.681079 204.729772 
L 104.87591 205.043371 
L 105.005798 205.865144 
L 105.135686 205.26813 
L 105.265574 205.924495 
L 105.395462 205.367872 
L 105.525349 205.872564 
L 105.655237 204.939729 
L 105.785125 206.152212 
L 105.915013 205.703741 
L 106.044901 206.330701 
L 106.109845 206.161582 
L 106.174788 205.842228 
L 106.239732 205.860417 
L 106.304676 206.027442 
L 106.36962 205.999732 
L 106.434564 205.502183 
L 106.564452 206.575418 
L 106.629396 206.549144 
L 106.759283 205.83009 
L 106.889171 206.695146 
L 107.019059 205.897364 
L 107.148947 206.472309 
L 107.213891 206.321502 
L 107.278835 206.241205 
L 107.343779 206.305492 
L 107.408722 206.634207 
L 107.473666 206.605907 
L 107.603554 206.529785 
L 107.733442 206.736279 
L 107.993218 206.3313 
L 108.123105 206.965947 
L 108.188049 206.859128 
L 108.252993 206.609217 
L 108.317937 206.636005 
L 108.447825 207.005796 
L 108.642657 206.54862 
L 108.837488 207.097557 
L 108.902432 206.881188 
L 108.967376 206.736812 
L 109.097264 207.143228 
L 109.162208 207.064899 
L 109.292096 206.635101 
L 109.421983 207.319281 
L 109.486927 207.217656 
L 109.616815 206.836934 
L 109.681759 207.148393 
L 109.746703 207.061912 
L 109.811647 207.034458 
L 110.006478 207.186958 
L 110.266254 207.265971 
L 110.331198 207.139432 
L 110.396142 207.178853 
L 110.52603 207.338744 
L 110.590973 207.023224 
L 110.655917 207.107631 
L 110.785805 207.470963 
L 110.915693 207.201104 
L 110.980637 207.368006 
L 111.045581 207.275227 
L 111.240412 207.476366 
L 111.305356 207.382884 
L 111.435244 207.41673 
L 111.500188 207.487962 
L 111.565132 207.403755 
L 111.630076 207.135418 
L 111.759964 207.694333 
L 111.824908 207.645371 
L 111.954795 207.282543 
L 112.019739 207.549853 
L 112.084683 207.44251 
L 112.149627 207.45423 
L 112.279515 207.685391 
L 112.409403 207.437135 
L 112.474347 207.501014 
L 112.53929 207.639387 
L 112.604234 207.587666 
L 112.734122 207.280773 
L 112.86401 207.822803 
L 112.928954 207.712455 
L 112.993898 207.426196 
L 113.058842 207.444907 
L 113.188729 207.784505 
L 113.318617 207.394689 
L 113.448505 207.871642 
L 113.578393 207.416103 
L 113.708281 207.813643 
L 113.838168 207.475567 
L 113.968056 207.822918 
L 114.033 207.729549 
L 114.097944 207.549006 
L 114.162888 207.583119 
L 114.292776 207.778968 
L 114.422663 207.394946 
L 114.552551 207.925875 
L 114.617495 207.818627 
L 114.682439 207.530789 
L 114.747383 207.556407 
L 114.877271 207.883391 
L 115.007159 207.541681 
L 115.072102 207.706918 
L 115.137046 207.653656 
L 115.331878 207.789052 
L 115.396822 207.716897 
L 115.461766 207.809799 
L 115.851429 207.713054 
L 115.916373 207.494602 
L 116.046261 207.918445 
L 116.111205 207.843437 
L 116.176149 207.607044 
L 116.241093 207.625708 
L 116.37098 207.887947 
L 116.500868 207.666679 
L 116.630756 207.827265 
L 116.760644 207.624794 
L 116.890532 207.799155 
L 117.020419 207.621893 
L 117.150307 207.814347 
L 117.215251 207.76938 
L 117.345139 207.716831 
L 117.929634 207.761512 
L 118.059522 207.622435 
L 118.18941 207.78538 
L 118.254353 207.693848 
L 118.319297 207.585269 
L 118.384241 207.690823 
L 118.449185 207.75005 
L 118.514129 207.663093 
L 118.579073 207.590948 
L 118.708961 207.731062 
L 118.838848 207.628343 
L 118.968736 207.669761 
L 119.163568 207.614397 
L 119.3584 207.636514 
L 119.618175 207.608195 
L 119.748063 207.611981 
L 120.007839 207.531778 
L 121.566492 207.36227 
L 121.631436 207.282524 
L 121.761324 207.426262 
L 121.891212 207.318083 
L 121.956156 207.421639 
L 122.021099 207.329555 
L 122.086043 207.199391 
L 122.150987 207.265382 
L 122.215931 207.413039 
L 122.280875 207.294938 
L 122.345819 207.147965 
L 122.475707 207.393757 
L 122.605595 207.138814 
L 122.735482 207.265096 
L 122.86537 207.161511 
L 122.930314 207.229442 
L 123.060202 207.120673 
L 123.255034 207.149801 
L 123.384921 207.137339 
L 123.514809 207.102104 
L 123.644697 207.044257 
L 123.709641 207.165183 
L 123.774585 207.128978 
L 123.839529 207.015185 
L 123.904473 207.086046 
L 124.164248 207.099355 
L 124.294136 206.996388 
L 124.488968 207.017564 
L 124.618855 206.953571 
L 124.813687 206.945761 
L 124.943575 206.866985 
L 125.268294 206.85519 
L 125.398182 206.939273 
L 125.52807 206.805809 
L 125.787846 206.817167 
L 125.852789 206.680354 
L 125.982677 206.867138 
L 126.112565 206.70385 
L 126.502228 206.684948 
L 126.632116 206.59685 
L 126.826948 206.639877 
L 127.02178 206.606877 
L 127.086724 206.453626 
L 127.151667 206.515002 
L 127.281555 206.554718 
L 127.411443 206.482135 
L 127.476387 206.513794 
L 127.541331 206.370417 
L 127.606275 206.435247 
L 127.671219 206.536568 
L 127.801106 206.40688 
L 127.930994 206.380691 
L 127.995938 206.30143 
L 128.125826 206.386018 
L 128.19077 206.264425 
L 128.255714 206.304046 
L 128.320658 206.395902 
L 128.450545 206.229932 
L 128.515489 206.334887 
L 128.645377 206.149292 
L 128.710321 206.306862 
L 128.775265 206.255892 
L 128.840209 206.084462 
L 128.905153 206.170524 
L 129.164928 206.123569 
L 129.294816 206.102546 
L 129.35976 206.156731 
L 129.489648 205.972706 
L 129.554592 206.120478 
L 129.619536 206.061546 
L 129.684479 205.904746 
L 129.749423 206.010481 
L 129.814367 206.093804 
L 129.944255 205.90838 
L 130.009199 206.046925 
L 130.074143 205.961823 
L 130.139087 205.841106 
L 130.268975 205.983969 
L 130.333918 205.836539 
L 130.398862 205.89823 
L 130.463806 205.950027 
L 130.52875 205.813252 
L 130.593694 205.876351 
L 130.658638 205.931296 
L 130.723582 205.853701 
L 132.347179 205.597026 
L 132.412123 205.540615 
L 132.477067 205.617517 
L 132.736843 205.587152 
L 132.86673 205.55906 
L 133.840889 205.418328 
L 133.905833 205.497475 
L 134.035721 205.336803 
L 134.100664 205.467947 
L 134.165608 205.364438 
L 134.230552 205.314068 
L 134.295496 205.401566 
L 134.555272 205.314001 
L 135.269655 205.289696 
L 135.52943 205.187776 
L 135.724262 205.214145 
L 135.789206 205.145919 
L 135.919094 205.240362 
L 135.984038 205.139945 
L 136.048981 205.237746 
L 136.503589 205.218902 
L 136.568533 205.071539 
L 136.633477 205.148783 
L 136.69842 205.271393 
L 136.828308 205.026752 
L 136.958196 205.187157 
L 137.02314 205.02152 
L 137.088084 205.144787 
L 137.153028 205.193455 
L 137.217972 205.056004 
L 137.282915 205.099002 
L 137.412803 205.058459 
L 138.127186 205.018039 
L 138.19213 204.870685 
L 138.322018 205.044094 
L 138.386962 204.905949 
L 138.451906 204.967811 
L 138.581793 204.994875 
L 138.711681 205.030481 
L 138.776625 205.009744 
L 138.906513 204.871637 
L 138.971457 204.981243 
L 139.036401 204.889958 
L 139.166289 204.963359 
L 139.231232 204.828011 
L 139.296176 204.965109 
L 139.36112 204.862447 
L 139.426064 204.808424 
L 139.491008 204.971416 
L 139.555952 204.906853 
L 139.620896 204.83682 
L 139.68584 204.964862 
L 139.750784 204.870476 
L 139.815728 204.83583 
L 139.880671 204.962693 
L 140.010559 204.796 
L 140.075503 204.91395 
L 140.140447 204.869078 
L 140.270335 204.842623 
L 140.53011 204.844392 
L 140.85483 204.798188 
L 141.114605 204.809832 
L 141.179549 204.865311 
L 141.244493 204.71615 
L 141.309437 204.818707 
L 141.374381 204.843336 
L 141.439325 204.689466 
L 141.569213 204.851812 
L 141.634157 204.712269 
L 141.699101 204.816938 
L 141.764044 204.885392 
L 141.893932 204.733977 
L 141.958876 204.84092 
L 142.088764 204.675711 
L 142.153708 204.851479 
L 142.218652 204.778963 
L 142.283596 204.711555 
L 142.34854 204.784357 
L 142.478427 204.758006 
L 142.673259 204.733311 
L 142.933035 204.755143 
L 143.062922 204.765303 
L 143.582474 204.736526 
L 143.842249 204.765074 
L 144.816408 204.794136 
L 144.881352 204.732845 
L 145.011239 204.838989 
L 145.076183 204.735879 
L 145.141127 204.829999 
L 145.206071 204.867955 
L 145.335959 204.801689 
L 145.400903 204.879684 
L 145.465847 204.808148 
L 145.725622 204.808529 
L 145.920454 204.859555 
L 146.18023 204.907091 
L 146.245173 204.799587 
L 146.375061 204.94459 
L 146.440005 204.835773 
L 146.504949 204.896208 
L 146.569893 204.975269 
L 146.634837 204.890367 
L 150.271695 205.343691 
L 150.401583 205.466434 
L 150.466527 205.381104 
L 150.596415 205.50849 
L 150.661358 205.426699 
L 150.726302 205.513741 
L 150.986078 205.58894 
L 151.115966 205.573796 
L 151.375741 205.661266 
L 151.505629 205.634411 
L 151.765405 205.721958 
L 151.830349 205.661856 
L 151.895293 205.73441 
L 152.155068 205.760266 
L 152.999339 205.948895 
L 153.129227 205.967769 
L 153.453946 206.080686 
L 153.778666 206.150471 
L 156.246534 206.848569 
L 156.311478 206.65388 
L 156.441365 206.891072 
L 156.506309 206.752118 
L 156.636197 206.935145 
L 156.701141 206.844811 
L 156.766085 207.019723 
L 156.831029 206.976097 
L 156.895973 206.925594 
L 156.960917 207.077456 
L 157.02586 207.015214 
L 157.090804 206.997539 
L 157.155748 207.128178 
L 157.220692 207.058897 
L 157.480468 207.142372 
L 157.545412 207.229785 
L 157.610356 207.170663 
L 157.935075 207.328071 
L 158.000019 207.2416 
L 158.064963 207.389105 
L 158.129907 207.323343 
L 159.363841 207.760904 
L 159.623616 207.819189 
L 159.883392 207.933 
L 159.948336 207.893788 
L 160.143168 208.014068 
L 160.467887 208.121325 
L 168.261155 211.150573 
L 168.326099 211.056529 
L 168.391043 211.204253 
L 168.455986 211.102571 
L 168.585874 211.200534 
L 169.105425 211.366856 
L 169.300257 211.477138 
L 169.430145 211.49212 
L 170.274416 211.740833 
L 170.469247 211.864138 
L 170.534191 211.824935 
L 170.599135 211.944207 
L 170.664079 211.809363 
L 170.729023 212.023601 
L 170.793967 211.893542 
L 170.988798 212.027501 
L 172.027901 212.410972 
L 172.092845 212.374595 
L 172.287676 212.496682 
L 172.482508 212.523099 
L 172.742284 212.634608 
L 173.261835 212.697222 
L 173.326779 212.947094 
L 173.391723 212.688327 
L 173.456667 213.041062 
L 173.521611 212.699904 
L 173.586554 213.104722 
L 173.651498 212.779992 
L 173.716442 213.105949 
L 173.781386 212.942519 
L 173.911274 213.107357 
L 173.976218 212.97139 
L 174.041162 213.205605 
L 174.106106 212.987181 
L 174.171049 213.231327 
L 174.235993 213.098357 
L 174.365881 213.238643 
L 174.430825 213.173223 
L 174.495769 213.340154 
L 174.560713 213.197253 
L 174.625657 213.380022 
L 174.690601 213.286226 
L 174.820488 213.393749 
L 174.885432 213.362414 
L 175.080264 213.521868 
L 175.145208 213.44958 
L 175.210152 213.537307 
L 175.469927 213.572304 
L 175.664759 213.713655 
L 175.859591 213.761619 
L 176.054423 213.797967 
L 176.249254 213.919645 
L 176.444086 213.969007 
L 176.963637 214.203346 
L 177.028581 213.969236 
L 177.093525 214.417755 
L 177.158469 213.984865 
L 177.223413 214.388446 
L 177.288357 214.282882 
L 177.3533 214.294745 
L 177.548132 214.508631 
L 177.613076 214.312363 
L 177.67802 214.588053 
L 177.742964 214.434669 
L 178.327459 214.769091 
L 178.392403 214.6629 
L 178.457347 214.854621 
L 178.522291 214.751883 
L 178.782066 214.912097 
L 178.84701 214.87768 
L 179.041842 215.01826 
L 179.301617 215.072084 
L 179.496449 215.203256 
L 179.626337 215.228988 
L 181.055103 215.794334 
L 181.379822 215.906547 
L 182.094205 216.209767 
L 182.289037 216.246611 
L 182.483868 216.414036 
L 182.548812 216.288952 
L 182.613756 216.508365 
L 182.6787 216.260433 
L 182.743644 216.614185 
L 182.808588 216.187289 
L 182.873532 216.717609 
L 182.938476 216.095557 
L 183.00342 216.741181 
L 183.068363 216.440053 
L 183.198251 216.768987 
L 183.263195 216.395857 
L 183.328139 216.822192 
L 183.393083 216.624583 
L 183.522971 216.862032 
L 183.587915 216.566155 
L 183.652859 216.875673 
L 183.717802 216.790315 
L 183.782746 216.704015 
L 183.84769 216.935452 
L 183.912634 216.720339 
L 183.977578 216.876406 
L 184.042522 216.925768 
L 184.107466 216.776997 
L 184.17241 216.986593 
L 184.237354 216.892073 
L 184.886793 217.135154 
L 184.951737 217.068583 
L 185.01668 217.186552 
L 185.081624 217.13856 
L 185.860951 217.403349 
L 185.990839 217.423278 
L 187.874212 217.938606 
L 189.108146 218.28275 
L 191.705902 218.813146 
L 191.770846 218.747042 
L 191.83579 218.847915 
L 191.900734 218.706022 
L 191.965677 218.891161 
L 192.030621 218.591593 
L 192.095565 218.915504 
L 192.160509 218.39269 
L 192.225453 218.909635 
L 192.290397 218.492508 
L 192.355341 218.919613 
L 192.420285 218.887926 
L 192.485229 218.633982 
L 192.550173 218.952775 
L 192.615116 218.664413 
L 192.745004 218.938515 
L 192.809948 218.670216 
L 192.874892 218.963553 
L 192.939836 218.833903 
L 193.00478 218.831059 
L 193.069724 218.971201 
L 193.134668 218.757877 
L 193.264555 218.939933 
L 193.329499 218.797041 
L 193.394443 218.980419 
L 193.459387 218.876711 
L 194.108826 218.986355 
L 194.17377 218.894614 
L 194.238714 218.976386 
L 194.693321 218.93002 
L 194.823209 218.963467 
L 195.407704 218.974968 
L 196.122087 218.975872 
L 196.51175 218.949075 
L 197.031302 218.935424 
L 198.654899 218.802111 
L 200.408384 218.523434 
L 201.577374 218.282436 
L 201.772206 217.927152 
L 201.83715 218.157305 
L 201.902094 217.718279 
L 201.967038 218.127473 
L 202.031982 217.942021 
L 202.161869 218.12908 
L 202.226813 217.818069 
L 202.291757 218.076522 
L 202.356701 217.941402 
L 202.486589 218.032934 
L 202.551533 217.795133 
L 202.616477 217.997404 
L 202.681421 217.93324 
L 202.876252 217.788788 
L 203.00614 217.872682 
L 203.071084 217.729524 
L 203.136028 217.841147 
L 203.395804 217.66262 
L 203.525691 217.701917 
L 203.720523 217.602956 
L 204.17513 217.507086 
L 204.434906 217.378435 
L 204.629738 217.336531 
L 205.019401 217.222834 
L 205.409064 217.071523 
L 205.863672 216.927832 
L 211.124127 214.975567 
L 211.318959 214.441137 
L 211.513791 214.846468 
L 211.578735 214.810329 
L 211.643679 214.526905 
L 211.708622 214.706801 
L 211.968398 214.483155 
L 212.033342 214.643189 
L 212.098286 214.612568 
L 212.16323 214.470437 
L 212.228174 214.55179 
L 212.487949 214.368146 
L 212.617837 214.411077 
L 212.812669 214.312753 
L 213.916715 213.8809 
L 214.371322 213.699614 
L 216.774246 212.70623 
L 219.891554 211.367293 
L 220.605936 211.051963 
L 221.190432 210.649077 
L 221.255375 210.683998 
L 221.320319 210.565792 
L 221.385263 210.638565 
L 221.580095 210.603139 
L 222.229534 210.268726 
L 222.489309 210.1841 
L 225.67156 208.661471 
L 226.126168 208.317251 
L 226.320999 208.34733 
L 228.074485 207.469936 
L 230.022802 206.460399 
L 231.32168 205.749183 
L 231.646399 205.57547 
L 233.140109 204.792776 
L 239.959218 200.832091 
L 240.348881 200.495442 
L 240.99832 200.231272 
L 246.518552 196.666129 
L 246.713383 196.110601 
L 246.778327 196.135077 
L 246.908215 196.485871 
L 246.973159 196.440847 
L 247.103047 196.151021 
L 247.232935 196.299924 
L 247.297878 196.197357 
L 247.362822 196.021922 
L 247.427766 196.076317 
L 247.557654 196.052087 
L 247.687542 195.892653 
L 247.752486 195.952888 
L 248.98642 195.141731 
L 258.598117 188.323723 
L 258.792948 187.857767 
L 258.857892 187.938188 
L 258.98778 188.233409 
L 259.182612 187.875803 
L 259.3125 188.001829 
L 259.507331 187.768975 
L 259.637219 187.746563 
L 259.767107 187.587965 
L 259.896995 187.582124 
L 260.15677 187.391069 
L 260.611378 187.049046 
L 261.390704 186.490834 
L 269.833411 180.193339 
L 270.093187 179.929054 
L 270.80757 179.569242 
L 273.080606 177.835495 
L 274.704203 176.56565 
L 276.587576 174.980455 
L 276.782408 174.598554 
L 276.97724 174.882264 
L 277.886454 174.14232 
L 278.016342 174.112849 
L 279.250276 173.147452 
L 279.769827 172.72729 
L 280.80893 171.906811 
L 282.562415 170.490583 
L 285.679722 167.92789 
L 285.874554 167.29137 
L 285.939498 167.479019 
L 286.004442 167.271659 
L 286.134329 167.656528 
L 286.329161 167.20935 
L 286.394105 167.440778 
L 286.459049 167.401433 
L 286.588937 167.314181 
L 286.653881 167.088728 
L 286.718824 167.246051 
L 290.225795 164.404595 
L 291.070066 163.715697 
L 293.537934 161.64885 
L 293.732765 161.517421 
L 294.252317 161.073763 
L 294.577036 160.822853 
L 295.875914 159.69686 
L 295.940858 159.717503 
L 296.13569 159.492887 
L 296.200634 159.497243 
L 296.525353 159.163154 
L 296.590297 159.175292 
L 296.785129 158.924668 
L 296.850073 158.967913 
L 297.044904 158.648473 
L 297.109848 158.751839 
L 297.30468 158.401102 
L 297.369624 158.546382 
L 297.434568 158.348363 
L 297.499512 158.456467 
L 297.694343 158.271119 
L 298.019063 157.911269 
L 298.084007 157.969088 
L 298.278838 157.74215 
L 298.408726 157.659636 
L 300.097267 156.123128 
L 300.162211 156.137188 
L 300.357043 155.865635 
L 300.421987 155.922236 
L 300.616819 155.566553 
L 300.681763 155.710101 
L 300.876594 155.340376 
L 300.941538 155.493057 
L 301.13637 155.270533 
L 301.396145 155.107731 
L 301.590977 154.807678 
L 301.655921 154.870957 
L 301.850753 154.635953 
L 302.110528 154.440845 
L 302.30536 154.187063 
L 302.370304 154.202302 
L 302.565136 153.95887 
L 302.759967 153.821162 
L 303.409406 153.158577 
L 303.47435 153.168299 
L 303.669182 152.858923 
L 303.734126 152.964173 
L 303.928957 152.555788 
L 303.993901 152.729054 
L 304.058845 152.462315 
L 304.123789 152.616898 
L 304.188733 152.405486 
L 304.253677 152.496752 
L 304.513453 152.191714 
L 304.578396 152.199819 
L 304.773228 151.899062 
L 304.838172 151.962417 
L 305.033004 151.693395 
L 305.162891 151.597944 
L 306.526713 150.271935 
L 306.851433 149.899071 
L 306.916377 149.942754 
L 307.111208 149.53865 
L 307.176152 149.718023 
L 307.370984 149.187647 
L 307.435928 149.477673 
L 307.500872 149.174918 
L 307.565816 149.386712 
L 307.825591 148.999693 
L 307.890535 149.090235 
L 308.085367 148.739498 
L 308.150311 148.832819 
L 308.410086 148.472931 
L 308.47503 148.518782 
L 308.669862 148.220879 
L 308.734806 148.24253 
L 309.124469 147.768812 
L 309.189413 147.791509 
L 309.384245 147.549389 
L 309.903796 147.065074 
L 310.228516 146.72052 
L 311.072786 145.835087 
L 311.13773 145.849661 
L 311.332562 145.578165 
L 311.397506 145.596011 
L 311.592337 145.325467 
L 311.657281 145.332716 
L 311.852113 145.065539 
L 311.917057 145.087019 
L 312.111889 144.786376 
L 312.176832 144.854907 
L 312.371664 144.467336 
L 312.436608 144.617581 
L 312.63144 144.13865 
L 312.696384 144.36865 
L 312.761328 144.028701 
L 312.826271 144.250387 
L 312.891215 143.974877 
L 312.956159 144.117132 
L 313.150991 143.879064 
L 313.47571 143.438888 
L 313.540654 143.536717 
L 313.735486 143.227342 
L 313.80043 143.243723 
L 314.190093 142.766713 
L 314.255037 142.788212 
L 314.449869 142.495332 
L 314.514813 142.517592 
L 314.709644 142.255856 
L 314.904476 142.089306 
L 315.748747 141.192667 
L 315.813691 141.229767 
L 316.008522 140.876405 
L 316.073466 141.007681 
L 316.268298 140.459801 
L 316.333242 140.773267 
L 316.398186 140.270115 
L 316.46313 140.65272 
L 316.528074 140.201833 
L 316.593018 140.544674 
L 316.657961 140.272227 
L 316.722905 140.390205 
L 317.3074 139.788311 
L 317.502232 139.650261 
L 317.697064 139.300913 
L 317.762008 139.355079 
L 318.021783 138.988874 
L 318.086727 139.027363 
L 318.281559 138.732865 
L 318.411447 138.635416 
L 320.229876 136.795583 
L 320.424707 136.51602 
L 320.489651 136.552911 
L 320.684483 136.221485 
L 320.749427 136.329018 
L 320.944259 135.952292 
L 321.009203 136.065703 
L 321.204034 135.734239 
L 321.268978 135.79124 
L 321.46381 135.521951 
L 321.593698 135.403079 
L 321.983361 135.02993 
L 322.308081 134.613326 
L 322.373024 134.656134 
L 322.567856 134.256729 
L 322.6328 134.434429 
L 322.827632 133.803311 
L 322.892576 134.193621 
L 322.95752 133.589235 
L 323.022463 134.076424 
L 323.087407 133.55126 
L 323.152351 133.980991 
L 323.217295 133.671977 
L 323.282239 133.786207 
L 323.347183 133.735371 
L 323.542015 133.275465 
L 323.606958 133.555331 
L 323.671902 133.221413 
L 323.736846 133.389789 
L 323.996622 132.9323 
L 324.061566 133.08694 
L 324.12651 132.803687 
L 324.191454 132.933879 
L 324.451229 132.523744 
L 324.516173 132.591113 
L 324.711005 132.265205 
L 324.840893 132.183775 
L 325.2955 131.682431 
L 325.555275 131.46455 
L 325.750107 131.198287 
L 325.879995 131.077093 
L 326.13977 130.838246 
L 326.46449 130.460169 
L 326.724266 130.20182 
L 328.088087 128.73721 
L 328.153031 128.787837 
L 328.347863 128.471175 
L 328.412807 128.527186 
L 328.607639 128.205159 
L 328.672583 128.252913 
L 328.867414 127.938591 
L 328.932358 127.980447 
L 329.12719 127.627998 
L 329.192134 127.756402 
L 329.386965 127.265579 
L 329.451909 127.516337 
L 329.516853 127.059513 
L 329.581797 127.411601 
L 329.646741 126.860029 
L 329.711685 127.285746 
L 329.776629 126.739883 
L 329.841573 127.159664 
L 329.906517 126.743459 
L 329.97146 127.007383 
L 330.101348 126.784897 
L 330.166292 126.770609 
L 330.361124 126.34434 
L 330.426068 126.565646 
L 330.491012 126.233535 
L 330.555956 126.409408 
L 330.750787 126.1362 
L 330.945619 125.818263 
L 331.010563 125.924293 
L 331.205395 125.567848 
L 331.270338 125.606204 
L 331.530114 125.249074 
L 331.595058 125.26359 
L 331.78989 124.951038 
L 331.854834 124.986635 
L 332.049665 124.714245 
L 332.309441 124.475493 
L 332.63416 124.059155 
L 332.699104 124.090947 
L 332.893936 123.774837 
L 332.95888 123.831495 
L 333.153711 123.516259 
L 333.218655 123.551019 
L 333.413487 123.241149 
L 333.478431 123.306065 
L 333.673263 122.970529 
L 333.738207 123.037556 
L 333.933038 122.709916 
L 333.997982 122.768382 
L 334.192814 122.438288 
L 334.257758 122.498732 
L 334.452589 122.13774 
L 334.517533 122.245063 
L 334.712365 121.785043 
L 334.777309 122.019553 
L 334.842253 121.580613 
L 334.907197 121.911316 
L 334.972141 121.375612 
L 335.037085 121.791588 
L 335.102028 121.198541 
L 335.166972 121.66756 
L 335.231916 121.135642 
L 335.29686 121.531527 
L 335.361804 121.163857 
L 335.426748 121.341176 
L 335.686523 120.86272 
L 335.751467 121.058094 
L 335.816411 120.688902 
L 335.881355 120.921166 
L 335.946299 120.604276 
L 336.011243 120.75357 
L 336.206075 120.496172 
L 336.400906 120.155576 
L 336.46585 120.270053 
L 336.660682 119.913608 
L 336.725626 119.944392 
L 336.985401 119.584522 
L 337.050345 119.602406 
L 337.245177 119.283861 
L 337.310121 119.322235 
L 337.504953 119.042369 
L 337.764728 118.800877 
L 338.089448 118.358607 
L 338.154392 118.46281 
L 338.349223 118.045997 
L 338.414167 118.21426 
L 338.608999 117.811355 
L 338.673943 117.932567 
L 338.868774 117.608408 
L 338.933718 117.623001 
L 339.193494 117.302648 
L 339.388326 117.146257 
L 339.583157 116.83732 
L 339.648101 116.878053 
L 339.842933 116.501251 
L 339.907877 116.647482 
L 340.102709 116.118018 
L 340.167652 116.426709 
L 340.232596 115.936552 
L 340.29754 116.301711 
L 340.362484 115.760565 
L 340.427428 116.176027 
L 340.492372 115.647154 
L 340.557316 116.051752 
L 340.62226 115.61188 
L 340.687204 115.884365 
L 340.752148 115.607048 
L 340.817091 115.681894 
L 341.206755 115.085441 
L 341.271699 115.284716 
L 341.46653 114.896232 
L 341.531474 114.934074 
L 341.79125 114.553676 
L 341.856194 114.60552 
L 342.051025 114.24607 
L 342.115969 114.323295 
L 342.310801 114.006157 
L 342.440689 113.893145 
L 343.090128 113.262598 
L 343.28496 112.869681 
L 343.349903 113.050158 
L 343.544735 112.566299 
L 343.609679 112.793388 
L 343.804511 112.329829 
L 343.869455 112.504884 
L 344.064286 112.135045 
L 344.12923 112.189325 
L 344.324062 111.924717 
L 344.778669 111.358096 
L 344.843613 111.436786 
L 345.038445 110.973817 
L 345.103389 111.236256 
L 345.168333 110.777834 
L 345.233276 111.113123 
L 345.29822 110.602342 
L 345.363164 110.989323 
L 345.428108 110.452097 
L 345.493052 110.863412 
L 345.557996 110.351566 
L 345.62294 110.724981 
L 345.687884 110.318499 
L 345.752828 110.553446 
L 345.817772 110.306361 
L 345.882715 110.347475 
L 348.350584 107.503318 
L 348.415527 107.726013 
L 348.480471 107.298051 
L 348.545415 107.623978 
L 348.610359 107.109469 
L 348.675303 107.506153 
L 348.740247 106.955913 
L 348.805191 107.376626 
L 348.870135 106.864685 
L 348.935079 107.231632 
L 349.000023 106.829621 
L 349.064966 107.055816 
L 349.12991 106.812555 
L 349.194854 106.850397 
L 350.818452 104.935393 
L 350.883396 105.081757 
L 351.078227 104.645424 
L 351.143171 104.822533 
L 351.338003 104.414777 
L 351.402947 104.535932 
L 351.597778 104.201576 
L 351.662722 104.227412 
L 351.922498 103.909609 
L 352.377105 103.449931 
L 352.571937 103.10844 
L 352.636881 103.198298 
L 352.831713 102.686833 
L 352.896656 103.021588 
L 352.9616 102.432536 
L 353.026544 102.918641 
L 353.091488 102.173655 
L 353.156432 102.80424 
L 353.221376 101.978471 
L 353.28632 102.690429 
L 353.351264 101.989183 
L 353.416208 102.543874 
L 353.481152 102.1552 
L 353.611039 102.258871 
L 353.675983 101.941657 
L 353.740927 102.227269 
L 353.805871 101.705016 
L 353.870815 102.099817 
L 353.935759 101.656919 
L 354.000703 101.902198 
L 354.13059 101.634013 
L 354.195534 101.688806 
L 354.390366 101.215221 
L 354.45531 101.421401 
L 354.520254 101.163091 
L 354.585198 101.200742 
L 355.884076 99.721159 
L 355.94902 99.719447 
L 356.143851 99.425311 
L 356.208795 99.423998 
L 356.468571 99.092876 
L 356.79329 98.758444 
L 357.11801 98.358145 
L 359.001383 96.395502 
L 359.196215 95.939001 
L 359.261158 96.203438 
L 359.326102 95.720111 
L 359.391046 96.099121 
L 359.45599 95.515929 
L 359.520934 95.97886 
L 359.585878 95.351833 
L 359.650822 95.847355 
L 359.715766 95.266237 
L 359.78071 95.697205 
L 359.845653 95.252538 
L 359.910597 95.507082 
L 359.975541 95.259654 
L 360.040485 95.27944 
L 360.105429 95.235796 
L 360.300261 94.826612 
L 360.365205 95.03888 
L 360.560036 94.561547 
L 360.62498 94.708006 
L 360.819812 94.398326 
L 361.144531 93.936289 
L 361.209475 94.035622 
L 361.404307 93.660589 
L 361.469251 93.718332 
L 361.664083 93.427316 
L 361.923858 93.205915 
L 362.11869 92.80984 
L 362.183634 93.025971 
L 362.378466 92.463536 
L 362.443409 92.787333 
L 362.508353 92.34377 
L 362.573297 92.643404 
L 362.638241 92.261199 
L 362.703185 92.483247 
L 362.768129 92.196683 
L 362.833073 92.303759 
L 363.092848 91.924883 
L 363.157792 91.946667 
L 363.352624 91.573899 
L 363.417568 91.689384 
L 363.6124 91.276985 
L 363.677343 91.384518 
L 363.872175 91.013728 
L 363.937119 91.058305 
L 364.131951 90.754751 
L 364.326782 90.570069 
L 364.846334 89.853432 
L 364.911278 90.067965 
L 364.976221 89.628454 
L 365.041165 89.976204 
L 365.106109 89.380645 
L 365.171053 89.880391 
L 365.235997 89.11794 
L 365.300941 89.778585 
L 365.365885 88.918894 
L 365.430829 89.664412 
L 365.495773 88.914499 
L 365.560717 89.512854 
L 365.62566 89.080916 
L 365.690604 89.248341 
L 365.755548 89.200587 
L 365.820492 88.904187 
L 365.885436 89.18023 
L 365.95038 88.645952 
L 366.015324 89.059759 
L 366.080268 88.576262 
L 366.145212 88.863472 
L 366.275099 88.592414 
L 366.340043 88.61378 
L 366.534875 88.134145 
L 366.599819 88.363651 
L 366.664763 88.063541 
L 366.729707 88.147862 
L 366.989482 87.693492 
L 367.054426 87.827376 
L 367.249258 87.460543 
L 367.379146 87.381701 
L 367.573977 87.083493 
L 367.638921 87.149208 
L 367.833753 86.832184 
L 367.963641 86.726554 
L 368.61308 85.997417 
L 372.249938 81.853201 
L 372.314882 82.037483 
L 372.379826 81.621089 
L 372.44477 81.957481 
L 372.509714 81.336295 
L 372.574657 81.873977 
L 372.639601 81.013011 
L 372.704545 81.774549 
L 372.769489 80.742848 
L 372.834433 81.6611 
L 372.899377 80.752456 
L 372.964321 81.521376 
L 373.029265 81.034701 
L 373.159153 81.226174 
L 373.224096 80.785579 
L 373.28904 81.209375 
L 373.353984 80.544144 
L 373.418928 81.067672 
L 373.483872 80.594638 
L 373.548816 80.803216 
L 373.678704 80.452745 
L 373.743648 80.683849 
L 373.808592 80.203377 
L 373.873535 80.53564 
L 373.938479 80.154823 
L 374.003423 80.293254 
L 374.263199 79.771343 
L 374.328143 79.982832 
L 374.393087 79.677261 
L 374.458031 79.772237 
L 374.717806 79.320836 
L 374.78275 79.448726 
L 374.977582 79.124777 
L 376.146572 77.852287 
L 376.471291 77.441334 
L 376.666123 77.244114 
L 378.744328 75.009462 
L 378.939159 74.679938 
L 379.004103 74.784484 
L 379.198935 74.375243 
L 379.263879 74.519552 
L 379.458711 74.105117 
L 379.523655 74.233921 
L 379.718486 73.848291 
L 379.78343 73.940926 
L 379.978262 73.582179 
L 380.043206 73.642985 
L 380.238037 73.267705 
L 380.302981 73.394397 
L 380.497813 72.916568 
L 380.562757 73.155074 
L 380.627701 72.710007 
L 380.692645 73.071494 
L 380.757589 72.487598 
L 380.822533 72.967633 
L 380.887476 72.251642 
L 380.95242 72.863449 
L 381.017364 72.066257 
L 381.082308 72.749866 
L 381.147252 71.990345 
L 381.212196 72.588072 
L 381.27714 72.028681 
L 381.342084 72.373654 
L 381.471971 72.100275 
L 381.536915 72.127576 
L 381.601859 71.809963 
L 381.666803 72.060625 
L 381.731747 71.594155 
L 381.796691 71.936674 
L 381.861635 71.477719 
L 381.926579 71.753019 
L 381.991523 71.428062 
L 382.056467 71.528327 
L 382.316242 71.060126 
L 382.381186 71.209344 
L 382.576018 70.762489 
L 382.640962 70.883283 
L 382.835793 70.580357 
L 383.290401 69.999676 
L 383.355345 70.062841 
L 383.550176 69.753371 
L 383.745008 69.554192 
L 384.524335 68.764743 
L 384.719166 68.410524 
L 384.78411 68.531318 
L 384.978942 68.081667 
L 385.043886 68.299529 
L 385.10883 67.903625 
L 385.173774 68.196753 
L 385.238718 67.731976 
L 385.303661 68.090038 
L 385.368605 67.547827 
L 385.433549 67.975523 
L 385.498493 67.378081 
L 385.563437 67.859619 
L 385.628381 67.258219 
L 385.693325 67.71432 
L 385.758269 67.176143 
L 385.823213 67.540008 
L 385.888157 67.13929 
L 385.9531 67.348286 
L 386.147932 67.048386 
L 386.342764 66.702843 
L 386.407708 66.853583 
L 386.602539 66.36881 
L 386.667483 66.564051 
L 386.862315 66.126519 
L 386.927259 66.217328 
L 387.122091 65.909456 
L 387.511754 65.536173 
L 387.706586 65.180052 
L 387.77153 65.285359 
L 387.966361 64.788581 
L 388.031305 65.101762 
L 388.096249 64.583447 
L 388.161193 65.001858 
L 388.226137 64.397814 
L 388.291081 64.88428 
L 388.356025 64.230046 
L 388.420969 64.766626 
L 388.485912 64.117224 
L 388.550856 64.630326 
L 388.6158 64.072077 
L 388.680744 64.449202 
L 388.745688 64.067625 
L 388.810632 64.235925 
L 389.070408 63.765707 
L 389.135351 63.929575 
L 389.330183 63.418109 
L 389.395127 63.646245 
L 389.589959 63.213204 
L 389.654903 63.270737 
L 389.914678 62.873901 
L 389.979622 62.905617 
L 390.174454 62.529994 
L 390.239398 62.631324 
L 390.434229 62.247996 
L 390.499173 62.322253 
L 390.694005 61.991931 
L 390.758949 61.998951 
L 391.018724 61.674222 
L 391.343444 61.247097 
L 391.408388 61.328888 
L 391.60322 60.903628 
L 391.668163 61.095672 
L 391.733107 60.71828 
L 391.798051 60.998699 
L 391.862995 60.500913 
L 391.927939 60.917402 
L 391.992883 60.258469 
L 392.057827 60.836296 
L 392.122771 60.02415 
L 392.187715 60.730324 
L 392.252659 59.873144 
L 392.317602 60.595851 
L 392.382546 59.864107 
L 392.44749 60.41349 
L 392.512434 59.955258 
L 392.577378 60.152896 
L 392.837154 59.570047 
L 392.902098 59.914163 
L 392.967041 59.397237 
L 393.031985 59.752369 
L 393.096929 59.330552 
L 393.161873 59.537817 
L 393.291761 59.285386 
L 393.356705 59.262783 
L 393.551536 58.836667 
L 393.61648 59.035218 
L 393.811312 58.605525 
L 393.876256 58.666464 
L 394.136032 58.266298 
L 394.200975 58.324669 
L 394.395807 57.954183 
L 394.460751 58.032454 
L 394.655583 57.717904 
L 394.915358 57.476659 
L 395.11019 57.138098 
L 395.175134 57.268196 
L 395.369966 56.810135 
L 395.43491 57.00334 
L 395.629741 56.575321 
L 395.694685 56.690426 
L 395.889517 56.366857 
L 396.019405 56.256851 
L 396.6039 55.452125 
L 396.668844 55.698906 
L 396.863675 55.075285 
L 396.928619 55.470732 
L 396.993563 54.884382 
L 397.058507 55.370163 
L 397.123451 54.71513 
L 397.188395 55.246477 
L 397.253339 54.603298 
L 397.318283 55.099447 
L 397.383226 54.557579 
L 397.44817 54.922224 
L 397.513114 54.547781 
L 397.578058 54.709099 
L 397.837834 54.253321 
L 397.902778 54.396242 
L 398.097609 53.894384 
L 398.162553 54.122596 
L 398.357385 53.664441 
L 398.422329 53.760425 
L 398.487273 53.568 
L 398.487273 53.568 
" clip-path="url(#p265e7a9b3d)" style="fill: none; stroke: #008000; stroke-width: 1.5; stroke-linecap: square"/>
   </g>
   <g id="line2d_17">
    <path d="M 73.832727 169.497884 
L 74.157447 173.435062 
L 74.482166 174.989055 
L 74.676998 175.154939 
L 74.87183 174.809662 
L 75.196549 174.103279 
L 75.326437 174.127347 
L 75.521269 174.546862 
L 75.910932 175.532331 
L 76.04082 175.511174 
L 76.365539 175.307734 
L 76.560371 175.757271 
L 76.88509 176.46567 
L 77.20981 176.485038 
L 77.664417 177.44488 
L 77.859249 177.672883 
L 78.313856 178.510961 
L 79.028239 179.948536 
L 80.067341 182.01759 
L 84.158807 189.902088 
L 85.392741 192.305127 
L 85.457685 191.709112 
L 85.522629 192.754236 
L 85.587573 192.041289 
L 85.717461 192.942247 
L 85.782404 192.299334 
L 85.912292 193.135852 
L 85.977236 192.672112 
L 86.107124 193.331073 
L 86.172068 193.10522 
L 86.301956 193.615649 
L 86.3669 193.443534 
L 86.561731 193.948112 
L 87.276114 195.062613 
L 87.341058 195.093806 
L 87.53589 195.607649 
L 87.600834 195.341766 
L 87.730721 195.858274 
L 87.795665 195.574345 
L 87.860609 196.003601 
L 87.925553 195.895431 
L 88.185329 196.496573 
L 88.250273 196.328339 
L 88.38016 196.685926 
L 88.445104 196.587582 
L 88.510048 196.904187 
L 88.574992 196.564457 
L 88.70488 197.460648 
L 88.769824 196.905215 
L 88.834768 197.28216 
L 88.964655 196.746665 
L 89.094543 197.888544 
L 89.159487 197.421037 
L 89.224431 197.738689 
L 89.289375 198.222966 
L 89.354319 197.878612 
L 89.419263 197.931275 
L 89.484207 198.403282 
L 89.549151 198.188701 
L 89.614094 197.463398 
L 89.743982 198.951742 
L 89.808926 198.070448 
L 89.87387 198.249488 
L 89.938814 199.144358 
L 90.003758 198.773178 
L 90.068702 198.554269 
L 90.19859 199.392147 
L 90.263533 199.044597 
L 90.328477 199.059694 
L 90.458365 199.499033 
L 90.523309 199.223666 
L 90.653197 199.802301 
L 90.718141 199.528884 
L 90.783085 199.467898 
L 90.848029 200.178542 
L 90.912972 200.138484 
L 90.977916 199.911356 
L 91.107804 200.463527 
L 91.172748 200.309353 
L 91.237692 200.248518 
L 91.36758 200.668138 
L 91.432524 200.529764 
L 91.497467 200.629202 
L 91.562411 200.989442 
L 91.627355 200.954682 
L 91.692299 200.920056 
L 91.887131 201.28394 
L 92.017019 201.263582 
L 92.081963 201.624469 
L 92.146906 201.492983 
L 92.21185 201.566203 
L 92.341738 201.865819 
L 92.406682 201.803234 
L 92.53657 202.188674 
L 92.601514 202.137019 
L 92.666458 202.093708 
L 92.796345 202.454557 
L 92.861289 202.456364 
L 93.056121 202.813237 
L 93.186009 202.938406 
L 93.380841 203.196232 
L 93.965336 204.189036 
L 94.03028 203.905887 
L 94.160167 204.440611 
L 94.225111 204.306234 
L 94.290055 204.255549 
L 94.354999 204.773436 
L 94.419943 204.53553 
L 94.484887 204.582276 
L 94.549831 204.972216 
L 94.614775 204.882843 
L 94.679718 204.825956 
L 94.744662 205.23553 
L 94.809606 205.20955 
L 94.87455 205.0717 
L 95.004438 205.485936 
L 95.069382 205.323019 
L 95.19927 205.722433 
L 95.264214 205.737064 
L 95.329157 206.081447 
L 95.394101 206.038715 
L 95.459045 205.963735 
L 95.588933 206.398565 
L 95.653877 206.280141 
L 95.783765 206.686023 
L 95.848709 206.592674 
L 96.04354 206.906644 
L 96.173428 207.249486 
L 96.238372 206.837096 
L 96.303316 207.66432 
L 96.36826 207.627249 
L 96.433204 207.121158 
L 96.563092 208.043482 
L 96.628035 207.489361 
L 96.692979 207.875419 
L 96.822867 208.297426 
L 96.887811 208.209366 
L 96.952755 208.271532 
L 97.017699 208.668758 
L 97.082643 208.491259 
L 97.147587 208.487045 
L 97.212531 208.971085 
L 97.277474 208.575 
L 97.407362 209.324637 
L 97.53725 208.980493 
L 97.667138 209.540388 
L 97.732082 209.26191 
L 97.797026 209.75572 
L 97.861969 209.590673 
L 97.991857 209.938261 
L 98.056801 209.885893 
L 98.251633 210.399394 
L 98.316577 210.353381 
L 98.381521 210.236887 
L 98.511408 210.97959 
L 98.576352 210.475363 
L 98.70624 211.369795 
L 98.836128 210.955598 
L 98.966016 211.519717 
L 99.03096 211.306259 
L 99.095904 211.330022 
L 99.225791 211.78853 
L 99.290735 211.722064 
L 99.485567 212.063555 
L 99.550511 212.000266 
L 99.680399 212.567686 
L 99.745343 212.307006 
L 99.810286 212.400745 
L 99.87523 212.903288 
L 99.940174 212.38288 
L 100.070062 213.326636 
L 100.135006 213.012181 
L 100.19995 212.729869 
L 100.329838 213.404936 
L 100.394782 213.16215 
L 100.524669 213.75359 
L 100.589613 213.435472 
L 100.654557 213.632235 
L 100.719501 214.078129 
L 100.784445 213.927455 
L 100.849389 213.585327 
L 100.979277 214.354514 
L 101.04422 213.901933 
L 101.174108 214.713793 
L 101.239052 214.464282 
L 101.303996 214.316158 
L 101.433884 214.942843 
L 101.498828 214.367993 
L 101.628716 215.344977 
L 101.693659 215.018365 
L 101.758603 214.804488 
L 101.823547 215.437176 
L 101.888491 215.347907 
L 101.953435 215.335617 
L 102.343098 215.941078 
L 102.408042 215.672646 
L 102.53793 216.291654 
L 102.667818 216.091828 
L 102.732762 216.50066 
L 102.797706 216.327755 
L 102.86265 216.317253 
L 102.927594 216.721547 
L 102.992537 216.422655 
L 103.057481 216.636093 
L 103.187369 217.005856 
L 103.252313 216.78124 
L 103.577032 217.551862 
L 103.641976 217.551472 
L 103.771864 216.580253 
L 103.901752 217.867916 
L 103.966696 217.584139 
L 104.03164 217.372137 
L 104.161528 218.514787 
L 104.226471 218.32083 
L 104.291415 217.859687 
L 104.356359 218.019112 
L 104.486247 218.764897 
L 104.616135 218.070672 
L 104.681079 218.202015 
L 104.87591 218.608326 
L 105.005798 219.280025 
L 105.135686 218.897915 
L 105.265574 219.554032 
L 105.330518 219.287968 
L 105.395462 219.146104 
L 105.525349 219.669651 
L 105.655237 219.021286 
L 105.785125 220.07717 
L 105.915013 219.673104 
L 106.044901 220.326595 
L 106.109845 220.266208 
L 106.174788 220.048717 
L 106.239732 220.090135 
L 106.36962 220.293234 
L 106.434564 219.97075 
L 106.564452 220.885596 
L 106.629396 220.806288 
L 106.759283 220.281866 
L 106.889171 221.197778 
L 107.019059 220.537808 
L 107.084003 220.745244 
L 107.148947 221.052194 
L 107.213891 221.026053 
L 107.343779 221.081712 
L 107.408722 221.330824 
L 107.473666 221.293401 
L 107.53861 221.247901 
L 107.733442 221.634102 
L 107.798386 221.525427 
L 107.86333 221.407088 
L 108.123105 221.991165 
L 108.188049 221.872512 
L 108.252993 221.69018 
L 108.317937 221.791491 
L 108.447825 222.228994 
L 108.642657 221.885592 
L 108.837488 222.474339 
L 108.967376 222.164108 
L 109.162208 222.611809 
L 109.292096 222.278138 
L 109.421983 222.876902 
L 109.486927 222.856859 
L 109.616815 222.620313 
L 109.681759 222.877939 
L 109.746703 222.822213 
L 109.811647 222.832763 
L 110.006478 223.067015 
L 110.52603 223.396625 
L 110.590973 223.177335 
L 110.655917 223.285753 
L 110.785805 223.630763 
L 110.915693 223.448384 
L 111.110525 223.663069 
L 111.240412 223.810336 
L 111.3703 223.765227 
L 111.500188 223.95105 
L 111.565132 223.902468 
L 111.630076 223.708264 
L 111.824908 224.203291 
L 111.954795 223.961952 
L 112.019739 224.203853 
L 112.084683 224.149991 
L 112.214571 224.305754 
L 112.279515 224.409025 
L 112.344459 224.346031 
L 112.409403 224.27282 
L 112.474347 224.358245 
L 112.604234 224.479115 
L 112.734122 224.287052 
L 112.86401 224.772823 
L 112.928954 224.70336 
L 112.993898 224.497741 
L 113.058842 224.547246 
L 113.188729 224.877055 
L 113.318617 224.609564 
L 113.448505 225.045641 
L 113.578393 224.736769 
L 113.708281 225.107046 
L 113.773224 224.964611 
L 113.838168 224.890972 
L 113.968056 225.214198 
L 114.033 225.166101 
L 114.097944 225.04859 
L 114.162888 225.104924 
L 114.292776 225.307585 
L 114.422663 225.050064 
L 114.552551 225.525029 
L 114.617495 225.45393 
L 114.682439 225.243545 
L 114.747383 225.297901 
L 114.877271 225.612585 
L 115.007159 225.372244 
L 115.20199 225.604737 
L 115.331878 225.678176 
L 115.396822 225.652158 
L 115.52671 225.783796 
L 115.656598 225.721126 
L 115.851429 225.829087 
L 115.916373 225.68023 
L 116.046261 226.051677 
L 116.111205 226.011609 
L 116.176149 225.850196 
L 116.241093 225.896 
L 116.37098 226.140155 
L 116.500868 226.004646 
L 116.630756 226.194854 
L 116.760644 226.0686 
L 116.890532 226.257353 
L 117.020419 226.16194 
L 117.215251 226.335606 
L 117.345139 226.345898 
L 117.929634 226.568764 
L 118.059522 226.513695 
L 118.18941 226.672787 
L 118.254353 226.616452 
L 118.319297 226.558043 
L 118.449185 226.732451 
L 118.514129 226.675574 
L 118.579073 226.635202 
L 118.708961 226.793352 
L 118.838848 226.742373 
L 118.968736 226.81682 
L 119.228512 226.866173 
L 119.683119 226.991371 
L 120.137726 227.040209 
L 121.306717 227.275756 
L 121.436604 227.253049 
L 121.501548 227.360173 
L 121.566492 227.282938 
L 121.631436 227.238875 
L 121.761324 227.386932 
L 121.891212 227.332528 
L 121.956156 227.427599 
L 122.021099 227.37741 
L 122.086043 227.297226 
L 122.150987 227.365585 
L 122.215931 227.485371 
L 122.280875 227.410486 
L 122.345819 227.323491 
L 122.475707 227.538252 
L 122.605595 227.374632 
L 122.735482 227.512615 
L 122.86537 227.449165 
L 122.930314 227.525686 
L 122.995258 227.460323 
L 123.774585 227.623753 
L 123.839529 227.560598 
L 123.969416 227.672497 
L 124.03436 227.585588 
L 124.099304 227.644748 
L 124.164248 227.723267 
L 124.294136 227.622716 
L 124.488968 227.676892 
L 125.787846 227.774474 
L 125.852789 227.67498 
L 125.982677 227.813258 
L 126.047621 227.695366 
L 126.112565 227.744918 
L 126.502228 227.762051 
L 126.632116 227.766826 
L 127.02178 227.795564 
L 127.151667 227.775977 
L 127.476387 227.800292 
L 127.606275 227.809139 
L 127.86605 227.847932 
L 127.995938 227.756923 
L 128.060882 227.890131 
L 128.125826 227.848636 
L 128.19077 227.727814 
L 128.255714 227.815227 
L 128.320658 227.930437 
L 128.450545 227.75465 
L 128.515489 227.879486 
L 128.580433 227.820345 
L 128.645377 227.758027 
L 128.775265 227.855504 
L 128.840209 227.755258 
L 128.905153 227.839523 
L 129.749423 227.854934 
L 129.814367 227.928819 
L 129.944255 227.806808 
L 130.009199 227.936848 
L 130.074143 227.865797 
L 130.139087 227.764657 
L 130.268975 227.926698 
L 130.333918 227.802775 
L 130.398862 227.858739 
L 130.593694 227.88819 
L 130.85347 227.899501 
L 130.983357 227.902783 
L 131.243133 227.928943 
L 131.373021 227.847447 
L 131.437965 227.928325 
L 131.502909 227.852432 
L 132.02246 227.889969 
L 132.282235 227.929999 
L 132.412123 227.852736 
L 132.542011 227.893118 
L 132.671899 227.867709 
L 132.86673 227.873074 
L 132.931674 227.900709 
L 133.061562 227.842662 
L 133.321338 227.867148 
L 133.451226 227.807626 
L 133.581113 227.798913 
L 134.100664 227.895934 
L 134.230552 227.792434 
L 134.295496 227.878411 
L 134.36044 227.814276 
L 134.620216 227.772267 
L 134.815047 227.77572 
L 135.074823 227.785072 
L 135.204711 227.790617 
L 135.399542 227.765209 
L 135.724262 227.740342 
L 135.85415 227.762051 
L 136.178869 227.664145 
L 136.308757 227.750331 
L 136.373701 227.658142 
L 136.438645 227.720993 
L 136.503589 227.762117 
L 136.568533 227.640296 
L 136.633477 227.676226 
L 136.69842 227.765285 
L 136.763364 227.666732 
L 136.828308 227.606678 
L 136.958196 227.709121 
L 137.02314 227.620633 
L 137.088084 227.677272 
L 137.282915 227.652083 
L 137.802467 227.511702 
L 137.932354 227.580584 
L 138.19213 227.42504 
L 138.322018 227.539156 
L 138.451906 227.466935 
L 138.711681 227.495216 
L 139.036401 227.363093 
L 139.166289 227.429036 
L 139.231232 227.31101 
L 139.296176 227.393258 
L 139.426064 227.307957 
L 139.491008 227.390005 
L 139.555952 227.328362 
L 141.179549 227.118604 
L 141.244493 227.016836 
L 141.309437 227.065038 
L 141.374381 227.078051 
L 141.439325 226.959779 
L 141.504269 227.043073 
L 141.569213 227.066208 
L 141.699101 226.997031 
L 141.828988 226.955117 
L 142.088764 226.853854 
L 142.218652 226.872813 
L 142.738203 226.742069 
L 143.19281 226.70865 
L 143.387642 226.605379 
L 143.51753 226.58114 
L 144.166969 226.478821 
L 144.68652 226.351473 
L 144.816408 226.375046 
L 144.881352 226.291114 
L 144.946295 226.347772 
L 145.206071 226.290543 
L 145.465847 226.204081 
L 148.648098 225.591419 
L 148.777985 225.536302 
L 148.842929 225.554766 
L 148.907873 225.440631 
L 148.972817 225.489518 
L 149.102705 225.443723 
L 150.011919 225.314891 
L 150.076863 225.22022 
L 150.141807 225.29637 
L 150.921134 225.13391 
L 151.635517 224.997011 
L 152.414844 224.865972 
L 152.999339 224.764252 
L 153.129227 224.745264 
L 155.726982 224.315523 
L 156.18159 224.182106 
L 156.246534 224.256906 
L 156.311478 224.142514 
L 156.376421 224.217989 
L 156.636197 224.19395 
L 156.895973 224.120644 
L 157.02586 224.104663 
L 157.675299 224.006614 
L 157.935075 223.983022 
L 158.129907 223.904922 
L 159.68856 223.720926 
L 159.948336 223.648115 
L 160.143168 223.664686 
L 160.402943 223.618463 
L 161.312158 223.491429 
L 162.026541 223.428036 
L 162.611036 223.310562 
L 163.260475 223.230398 
L 165.728343 222.953642 
L 165.923174 222.883076 
L 166.377782 222.885739 
L 167.35194 222.792628 
L 168.066323 222.728512 
L 177.028581 221.929997 
L 177.093525 222.063167 
L 177.158469 221.892441 
L 177.288357 222.061579 
L 177.418244 222.068104 
L 182.873532 221.765797 
L 182.938476 221.634549 
L 183.00342 221.752565 
L 183.84769 221.778183 
L 184.107466 221.747723 
L 184.562073 221.76437 
L 185.925895 221.690475 
L 189.367922 221.568558 
L 192.030621 221.42755 
L 192.225453 221.254084 
L 192.420285 221.458705 
L 192.615116 221.418979 
L 192.809948 221.407954 
L 193.069724 221.390859 
L 193.329499 221.419284 
L 193.654219 221.413757 
L 201.772206 220.667582 
L 201.83715 220.451727 
L 201.902094 220.554608 
L 201.967038 220.440835 
L 202.096926 220.686598 
L 202.291757 220.504275 
L 202.421645 220.648461 
L 202.486589 220.544029 
L 202.551533 220.592906 
L 202.681421 220.604141 
L 204.759625 220.224352 
L 205.214233 220.118436 
L 207.292437 219.639856 
L 210.929296 218.595569 
L 211.124127 218.358605 
L 211.189071 218.453077 
L 211.383903 217.97484 
L 211.513791 218.364808 
L 211.708622 218.069454 
L 211.773566 218.318518 
L 211.83851 218.292758 
L 211.903454 218.084808 
L 211.968398 218.22067 
L 212.098286 218.163412 
L 212.16323 218.173714 
L 212.228174 218.004815 
L 212.293118 218.142798 
L 212.942557 217.823834 
L 213.072444 217.829503 
L 213.656939 217.612535 
L 213.916715 217.539638 
L 214.176491 217.429433 
L 214.566154 217.303807 
L 214.955817 217.139035 
L 217.878293 216.003083 
L 218.267956 215.843096 
L 218.787507 215.596268 
L 220.151329 215.022665 
L 220.476049 214.817017 
L 220.67088 214.771327 
L 220.865712 214.579121 
L 220.930656 214.660436 
L 221.125488 214.332292 
L 221.190432 214.51957 
L 221.255375 214.195945 
L 221.320319 214.445732 
L 221.385263 214.158208 
L 221.450207 214.39599 
L 221.515151 214.241787 
L 221.645039 214.282159 
L 221.839871 214.008362 
L 221.904814 214.163668 
L 221.969758 214.018455 
L 222.034702 214.065657 
L 222.229534 213.989907 
L 222.294478 213.81939 
L 222.359422 213.918666 
L 222.554253 213.783527 
L 222.749085 213.604572 
L 222.814029 213.667223 
L 223.008861 213.526139 
L 223.6583 213.158003 
L 223.853131 213.085991 
L 224.047963 212.937115 
L 224.307739 212.81343 
L 225.152009 212.303629 
L 225.346841 212.246533 
L 225.541673 212.044253 
L 225.606617 212.110586 
L 225.801448 211.811522 
L 225.866392 211.969616 
L 226.061224 211.535756 
L 226.126168 211.808155 
L 226.191112 211.509976 
L 226.256056 211.741308 
L 226.320999 211.579086 
L 226.450887 211.602878 
L 226.645719 211.307001 
L 226.710663 211.466693 
L 226.775607 211.290849 
L 226.840551 211.360663 
L 227.230214 211.02292 
L 227.295158 211.087332 
L 227.360102 210.997721 
L 228.204373 210.512387 
L 228.399204 210.329827 
L 228.594036 210.241567 
L 230.152689 209.146215 
L 230.217633 209.228453 
L 230.412465 208.867547 
L 230.477409 209.065794 
L 230.542353 208.697458 
L 230.607297 208.970485 
L 230.672241 208.57128 
L 230.737185 208.887714 
L 230.802128 208.586263 
L 230.867072 208.800358 
L 230.99696 208.621993 
L 231.061904 208.664982 
L 231.256736 208.328314 
L 231.32168 208.487882 
L 231.451567 208.340528 
L 231.516511 208.33289 
L 231.711343 208.06187 
L 231.776287 208.166958 
L 231.971119 207.998467 
L 232.16595 207.774421 
L 232.230894 207.841258 
L 232.425726 207.654931 
L 233.464828 206.891129 
L 233.65966 206.792291 
L 234.179211 206.38734 
L 234.374043 206.278495 
L 234.698762 205.97946 
L 234.763706 206.009111 
L 234.958538 205.741221 
L 235.023482 205.838157 
L 235.218313 205.42414 
L 235.283257 205.650659 
L 235.348201 205.244719 
L 235.413145 205.546903 
L 235.478089 205.144959 
L 235.543033 205.459766 
L 235.607977 205.19237 
L 235.672921 205.342739 
L 235.932696 204.937056 
L 235.99764 205.118855 
L 236.062584 204.869972 
L 236.127528 205.003988 
L 236.387304 204.660614 
L 236.452248 204.764037 
L 236.517191 204.557942 
L 236.582135 204.652271 
L 236.841911 204.354197 
L 236.906855 204.398241 
L 237.101687 204.155532 
L 237.231574 204.09503 
L 238.270677 203.251311 
L 238.400564 203.1537 
L 238.595396 203.034638 
L 239.114947 202.594462 
L 239.439667 202.36857 
L 239.634499 202.138551 
L 239.699442 202.175927 
L 239.894274 201.855669 
L 239.959218 201.990722 
L 240.15405 201.451194 
L 240.218994 201.766144 
L 240.283938 201.268966 
L 240.348881 201.662121 
L 240.413825 201.280344 
L 240.478769 201.568582 
L 240.543713 201.407616 
L 241.193152 200.773045 
L 241.258096 200.917582 
L 241.32304 200.695439 
L 241.387984 200.780103 
L 241.647759 200.429576 
L 241.712703 200.519519 
L 241.907535 200.299545 
L 242.232254 199.973798 
L 242.362142 199.903013 
L 245.674281 197.008181 
L 246.258776 196.528432 
L 246.453608 196.109326 
L 246.518552 196.327616 
L 246.713383 195.191597 
L 246.778327 195.91379 
L 246.843271 195.402734 
L 246.908215 195.980741 
L 246.973159 195.915607 
L 247.038103 195.339673 
L 247.103047 195.759416 
L 247.167991 195.36395 
L 247.232935 195.64278 
L 247.297878 195.628691 
L 247.362822 195.10523 
L 247.427766 195.515052 
L 247.49271 195.311221 
L 247.557654 195.206285 
L 247.622598 195.32705 
L 247.687542 194.942152 
L 247.752486 195.189133 
L 247.81743 195.128679 
L 247.882374 194.815746 
L 247.947317 195.024971 
L 248.077205 194.781281 
L 248.142149 194.842924 
L 248.207093 194.553859 
L 248.272037 194.683404 
L 248.921476 193.958776 
L 248.98642 194.008946 
L 249.246195 193.652492 
L 249.311139 193.685901 
L 249.635859 193.358337 
L 258.338341 184.762415 
L 258.403285 184.856325 
L 258.598117 184.152644 
L 258.663061 184.543582 
L 258.728005 183.614942 
L 258.792948 184.295336 
L 258.857892 183.585396 
L 258.922836 184.3593 
L 258.98778 184.19821 
L 259.052724 183.857291 
L 259.117668 184.124144 
L 259.182612 183.52244 
L 259.247556 184.045587 
L 259.3125 183.905844 
L 259.377443 183.544072 
L 259.442387 183.818649 
L 259.507331 183.415383 
L 259.572275 183.667225 
L 259.637219 183.620555 
L 259.702163 183.204921 
L 259.767107 183.493216 
L 259.896995 183.23658 
L 259.961939 183.296244 
L 260.026882 182.935462 
L 260.091826 183.132091 
L 260.351602 182.692866 
L 260.416546 182.736111 
L 260.48149 182.707554 
L 260.546434 182.47371 
L 260.611378 182.589158 
L 260.871153 182.164886 
L 260.936097 182.221145 
L 261.390704 181.659205 
L 261.455648 181.681541 
L 261.715424 181.334609 
L 261.845312 181.23501 
L 262.884414 180.140067 
L 263.14419 179.882099 
L 263.98846 178.977793 
L 264.702843 178.221087 
L 265.222394 177.627203 
L 265.48217 177.371213 
L 266.781048 175.979452 
L 267.690262 174.944725 
L 267.755206 174.953077 
L 267.950038 174.622165 
L 268.014982 174.649238 
L 268.209814 174.342355 
L 268.339701 174.206893 
L 268.534533 174.032904 
L 269.573635 172.792853 
L 269.638579 172.87569 
L 269.833411 172.362018 
L 269.898355 172.588594 
L 270.093187 171.894311 
L 270.158131 172.289682 
L 270.223074 171.989915 
L 270.288018 172.11048 
L 270.352962 172.040028 
L 270.547794 171.527859 
L 270.612738 171.760447 
L 270.677682 171.545572 
L 270.742626 171.577173 
L 270.80757 171.543688 
L 271.002401 171.1674 
L 271.067345 171.283304 
L 271.327121 170.837153 
L 271.392065 170.911315 
L 271.586896 170.633979 
L 271.911616 170.231492 
L 272.041504 170.137715 
L 272.366223 169.735513 
L 272.625999 169.484489 
L 272.885774 169.18086 
L 273.989821 167.922202 
L 274.769147 167.054596 
L 275.938137 165.714889 
L 276.262857 165.40694 
L 276.457689 164.95453 
L 276.522633 165.084075 
L 276.717464 164.290099 
L 276.782408 164.678887 
L 276.847352 164.255244 
L 276.912296 164.662164 
L 276.97724 164.522706 
L 277.172072 163.990103 
L 277.237015 164.265061 
L 277.301959 164.047808 
L 277.366903 164.096418 
L 277.431847 164.06181 
L 277.496791 163.756792 
L 277.561735 163.92201 
L 277.626679 163.697185 
L 277.691623 163.777416 
L 278.211174 163.205182 
L 278.406006 162.939509 
L 278.730725 162.557969 
L 280.029603 161.081335 
L 280.289379 160.807918 
L 281.523313 159.409516 
L 283.666461 157.003291 
L 285.614778 154.85235 
L 285.80961 154.146196 
L 285.874554 154.327434 
L 285.939498 153.775482 
L 286.004442 154.223649 
L 286.069386 154.044009 
L 286.134329 154.270642 
L 286.199273 154.196994 
L 286.264217 153.786346 
L 286.329161 153.954532 
L 286.394105 153.706134 
L 286.459049 153.921884 
L 286.523993 153.843898 
L 286.718824 153.46624 
L 286.783768 153.592189 
L 286.848712 153.51953 
L 287.043544 153.190597 
L 287.173432 153.164836 
L 287.368263 152.856355 
L 287.498151 152.786569 
L 287.692983 152.509537 
L 288.14759 152.058991 
L 288.407366 151.733977 
L 288.667141 151.459837 
L 290.030963 149.982137 
L 297.044904 142.347731 
L 297.239736 141.999715 
L 297.30468 142.052358 
L 297.499512 141.806034 
L 297.629399 141.724319 
L 298.47367 140.85384 
L 299.188053 140.078889 
L 300.097267 139.139462 
L 300.551875 138.551057 
L 300.616819 138.56426 
L 300.81165 138.247826 
L 300.876594 138.283956 
L 301.071426 138.090675 
L 301.331202 137.873745 
L 301.655921 137.496562 
L 301.850753 137.345556 
L 302.759967 136.401791 
L 303.539294 135.630664 
L 303.864014 135.182344 
L 303.928957 135.187614 
L 304.123789 134.951659 
L 304.253677 134.87645 
L 304.448509 134.734919 
L 305.227835 133.979774 
L 306.656601 132.593377 
L 306.981321 132.277647 
L 307.30604 131.804557 
L 307.370984 131.81386 
L 307.565816 131.686788 
L 307.695704 131.631747 
L 308.47503 130.901259 
L 308.864694 130.567949 
L 310.033684 129.505902 
L 311.852113 127.90855 
L 312.891215 126.988738 
L 316.13841 124.212235 
L 316.528074 123.829668 
L 316.852793 123.677159 
L 317.177513 123.41354 
L 317.567176 123.095679 
L 320.944259 120.371231 
L 321.983361 119.633266 
L 322.892576 118.801333 
L 323.087407 118.651792 
L 323.282239 118.677572 
L 326.789209 116.285881 
L 330.361124 114.08068 
L 330.555956 114.030186 
L 331.400226 113.550208 
L 335.816411 111.315175 
L 336.011243 111.308116 
L 336.530794 111.029524 
L 336.725626 110.978859 
L 337.569897 110.611265 
L 339.193494 109.989984 
L 339.777989 109.773967 
L 340.102709 109.558597 
L 340.167652 109.608559 
L 340.362484 109.414136 
L 340.427428 109.497068 
L 340.492372 109.381241 
L 340.557316 109.480231 
L 340.62226 109.391629 
L 340.687204 109.461586 
L 340.946979 109.372413 
L 341.141811 109.328635 
L 341.336643 109.222148 
L 341.531474 109.204493 
L 342.635521 108.827652 
L 343.220016 108.671623 
L 343.414847 108.546321 
L 343.609679 108.553836 
L 343.804511 108.448225 
L 343.999342 108.469229 
L 344.259118 108.404466 
L 345.687884 107.970301 
L 345.817772 107.999011 
L 346.077547 107.989232 
L 346.272379 107.878845 
L 346.467211 107.904149 
L 346.726986 107.832309 
L 348.415527 107.493463 
L 348.610359 107.324173 
L 348.675303 107.426873 
L 348.740247 107.288405 
L 348.805191 107.409426 
L 348.870135 107.293408 
L 348.935079 107.411386 
L 349.000023 107.330775 
L 349.12991 107.371128 
L 349.389686 107.383875 
L 349.584518 107.284637 
L 349.779349 107.315364 
L 349.974181 107.253892 
L 350.363844 107.212626 
L 350.558676 107.145351 
L 350.753508 107.156253 
L 350.948339 107.075755 
L 351.143171 107.111276 
L 351.338003 107.043469 
L 351.532835 107.0784 
L 351.857554 107.04617 
L 352.766769 106.962401 
L 352.9616 106.770185 
L 353.026544 106.893756 
L 353.221376 106.633448 
L 353.416208 106.921343 
L 353.546095 106.931313 
L 353.740927 106.938238 
L 353.805871 106.806391 
L 354.000703 106.947637 
L 354.390366 106.841093 
L 354.520254 106.866493 
L 354.780029 106.884491 
L 354.974861 106.820774 
L 355.169693 106.842045 
L 356.338683 106.806695 
L 357.702505 106.739972 
L 357.897337 106.799389 
L 358.092168 106.769024 
L 358.351944 106.810329 
L 359.001383 106.847657 
L 359.196215 106.768701 
L 359.261158 106.854297 
L 359.326102 106.730498 
L 359.391046 106.84916 
L 359.45599 106.696328 
L 359.520934 106.842387 
L 359.585878 106.685483 
L 359.78071 106.887782 
L 359.845653 106.804393 
L 360.040485 106.924578 
L 360.365205 106.966434 
L 360.430149 106.885157 
L 360.495092 106.973017 
L 360.560036 106.907112 
L 360.62498 106.975566 
L 360.819812 106.962895 
L 361.664083 107.006407 
L 362.183634 107.081996 
L 362.248578 106.988789 
L 362.443409 107.104903 
L 362.508353 107.008785 
L 362.703185 107.150298 
L 362.833073 107.171074 
L 363.092848 107.192554 
L 363.28768 107.244455 
L 363.482512 107.207831 
L 363.677343 107.278245 
L 363.872175 107.25979 
L 364.131951 107.303416 
L 364.651502 107.385454 
L 364.846334 107.357334 
L 364.911278 107.435967 
L 364.976221 107.333495 
L 365.041165 107.445784 
L 365.106109 107.290345 
L 365.171053 107.43865 
L 365.235997 107.235723 
L 365.300941 107.43357 
L 365.365885 107.21898 
L 365.560717 107.55893 
L 365.62566 107.509444 
L 365.755548 107.623807 
L 365.95038 107.528793 
L 366.145212 107.714864 
L 366.404987 107.690301 
L 366.599819 107.787522 
L 366.729707 107.797701 
L 367.249258 107.84692 
L 367.638921 107.951485 
L 367.833753 107.964023 
L 368.353304 108.08651 
L 368.742968 108.147468 
L 369.652182 108.340083 
L 370.236677 108.426079 
L 370.431509 108.541717 
L 370.496453 108.49069 
L 370.691284 108.622461 
L 370.821172 108.660265 
L 371.016004 108.676056 
L 371.27578 108.762242 
L 371.795331 108.907084 
L 372.249938 108.97082 
L 372.44477 109.078867 
L 372.509714 108.921354 
L 372.574657 109.079285 
L 372.639601 108.84664 
L 372.704545 109.063665 
L 372.769489 108.79782 
L 372.964321 109.236931 
L 373.029265 109.198823 
L 373.159153 109.3465 
L 373.224096 109.242449 
L 373.28904 109.376351 
L 373.353984 109.233583 
L 373.548816 109.488374 
L 376.471291 110.325253 
L 377.250618 110.596045 
L 377.575338 110.685731 
L 377.965001 110.848762 
L 379.458711 111.388575 
L 379.653542 111.528471 
L 379.848374 111.571716 
L 380.043206 111.690721 
L 380.238037 111.722456 
L 380.432869 111.845342 
L 380.497813 111.793478 
L 380.692645 111.946102 
L 380.757589 111.829646 
L 380.822533 111.985827 
L 380.887476 111.827972 
L 380.95242 112.020644 
L 381.017364 111.855901 
L 381.212196 112.166228 
L 381.27714 112.09062 
L 381.471971 112.293129 
L 381.666803 112.400871 
L 381.731747 112.322828 
L 381.926579 112.514549 
L 382.056467 112.558346 
L 382.576018 112.708839 
L 382.835793 112.852938 
L 384.329503 113.500057 
L 384.78411 113.740788 
L 384.978942 113.771267 
L 385.173774 113.936371 
L 385.238718 113.866927 
L 385.433549 114.059581 
L 385.498493 113.955453 
L 385.693325 114.202101 
L 385.758269 114.119606 
L 385.9531 114.345212 
L 386.147932 114.424929 
L 386.472652 114.527972 
L 386.667483 114.688244 
L 386.797371 114.745111 
L 386.992203 114.803235 
L 387.381866 115.015541 
L 387.706586 115.140102 
L 387.901417 115.286219 
L 387.966361 115.228153 
L 388.161193 115.410741 
L 388.226137 115.300983 
L 388.420969 115.541086 
L 388.485912 115.43264 
L 388.680744 115.715551 
L 388.745688 115.682465 
L 388.94052 115.843859 
L 389.265239 116.041973 
L 389.330183 115.992316 
L 389.525015 116.167142 
L 389.719847 116.238736 
L 391.668163 117.295742 
L 391.733107 117.249814 
L 391.927939 117.444141 
L 391.992883 117.317697 
L 392.057827 117.507535 
L 392.122771 117.342126 
L 392.317602 117.663887 
L 392.382546 117.551275 
L 392.577378 117.860422 
L 393.551536 118.331857 
L 393.746368 118.504724 
L 393.9412 118.592185 
L 398.487273 121.372796 
L 398.487273 121.372796 
" clip-path="url(#p265e7a9b3d)" style="fill: none; stroke: #ff0000; stroke-width: 1.5; stroke-linecap: square"/>
   </g>
   <g id="patch_3">
    <path d="M 57.6 307.584 
L 57.6 41.472 
" style="fill: none; stroke: #000000; stroke-width: 0.8; stroke-linejoin: miter; stroke-linecap: square"/>
   </g>
   <g id="patch_4">
    <path d="M 414.72 307.584 
L 414.72 41.472 
" style="fill: none; stroke: #000000; stroke-width: 0.8; stroke-linejoin: miter; stroke-linecap: square"/>
   </g>
   <g id="patch_5">
    <path d="M 57.6 307.584 
L 414.72 307.584 
" style="fill: none; stroke: #000000; stroke-width: 0.8; stroke-linejoin: miter; stroke-linecap: square"/>
   </g>
   <g id="patch_6">
    <path d="M 57.6 41.472 
L 414.72 41.472 
" style="fill: none; stroke: #000000; stroke-width: 0.8; stroke-linejoin: miter; stroke-linecap: square"/>
   </g>
   <g id="text_17">
    <!-- Script19_loss -->
    <g transform="translate(196.532813 35.472) scale(0.12 -0.12)">
     <defs>
      <path id="DejaVuSans-53" d="M 3425 4513 
L 3425 3897 
Q 3066 4069 2747 4153 
Q 2428 4238 2131 4238 
Q 1616 4238 1336 4038 
Q 1056 3838 1056 3469 
Q 1056 3159 1242 3001 
Q 1428 2844 1947 2747 
L 2328 2669 
Q 3034 2534 3370 2195 
Q 3706 1856 3706 1288 
Q 3706 609 3251 259 
Q 2797 -91 1919 -91 
Q 1588 -91 1214 -16 
Q 841 59 441 206 
L 441 856 
Q 825 641 1194 531 
Q 1563 422 1919 422 
Q 2459 422 2753 634 
Q 3047 847 3047 1241 
Q 3047 1584 2836 1778 
Q 2625 1972 2144 2069 
L 1759 2144 
Q 1053 2284 737 2584 
Q 422 2884 422 3419 
Q 422 4038 858 4394 
Q 1294 4750 2059 4750 
Q 2388 4750 2728 4690 
Q 3069 4631 3425 4513 
z
" transform="scale(0.015625)"/>
      <path id="DejaVuSans-72" d="M 2631 2963 
Q 2534 3019 2420 3045 
Q 2306 3072 2169 3072 
Q 1681 3072 1420 2755 
Q 1159 2438 1159 1844 
L 1159 0 
L 581 0 
L 581 3500 
L 1159 3500 
L 1159 2956 
Q 1341 3275 1631 3429 
Q 1922 3584 2338 3584 
Q 2397 3584 2469 3576 
Q 2541 3569 2628 3553 
L 2631 2963 
z
" transform="scale(0.015625)"/>
      <path id="DejaVuSans-69" d="M 603 3500 
L 1178 3500 
L 1178 0 
L 603 0 
L 603 3500 
z
M 603 4863 
L 1178 4863 
L 1178 4134 
L 603 4134 
L 603 4863 
z
" transform="scale(0.015625)"/>
      <path id="DejaVuSans-74" d="M 1172 4494 
L 1172 3500 
L 2356 3500 
L 2356 3053 
L 1172 3053 
L 1172 1153 
Q 1172 725 1289 603 
Q 1406 481 1766 481 
L 2356 481 
L 2356 0 
L 1766 0 
Q 1100 0 847 248 
Q 594 497 594 1153 
L 594 3053 
L 172 3053 
L 172 3500 
L 594 3500 
L 594 4494 
L 1172 4494 
z
" transform="scale(0.015625)"/>
      <path id="DejaVuSans-39" d="M 703 97 
L 703 672 
Q 941 559 1184 500 
Q 1428 441 1663 441 
Q 2288 441 2617 861 
Q 2947 1281 2994 2138 
Q 2813 1869 2534 1725 
Q 2256 1581 1919 1581 
Q 1219 1581 811 2004 
Q 403 2428 403 3163 
Q 403 3881 828 4315 
Q 1253 4750 1959 4750 
Q 2769 4750 3195 4129 
Q 3622 3509 3622 2328 
Q 3622 1225 3098 567 
Q 2575 -91 1691 -91 
Q 1453 -91 1209 -44 
Q 966 3 703 97 
z
M 1959 2075 
Q 2384 2075 2632 2365 
Q 2881 2656 2881 3163 
Q 2881 3666 2632 3958 
Q 2384 4250 1959 4250 
Q 1534 4250 1286 3958 
Q 1038 3666 1038 3163 
Q 1038 2656 1286 2365 
Q 1534 2075 1959 2075 
z
" transform="scale(0.015625)"/>
      <path id="DejaVuSans-5f" d="M 3263 -1063 
L 3263 -1509 
L -63 -1509 
L -63 -1063 
L 3263 -1063 
z
" transform="scale(0.015625)"/>
     </defs>
     <use xlink:href="#DejaVuSans-53"/>
     <use xlink:href="#DejaVuSans-63" x="63.476562"/>
     <use xlink:href="#DejaVuSans-72" x="118.457031"/>
     <use xlink:href="#DejaVuSans-69" x="159.570312"/>
     <use xlink:href="#DejaVuSans-70" x="187.353516"/>
     <use xlink:href="#DejaVuSans-74" x="250.830078"/>
     <use xlink:href="#DejaVuSans-31" x="290.039062"/>
     <use xlink:href="#DejaVuSans-39" x="353.662109"/>
     <use xlink:href="#DejaVuSans-5f" x="417.285156"/>
     <use xlink:href="#DejaVuSans-6c" x="467.285156"/>
     <use xlink:href="#DejaVuSans-6f" x="495.068359"/>
     <use xlink:href="#DejaVuSans-73" x="556.25"/>
     <use xlink:href="#DejaVuSans-73" x="608.349609"/>
    </g>
   </g>
   <g id="legend_1">
    <g id="patch_7">
     <path d="M 64.6 93.506375 
L 164.295312 93.506375 
Q 166.295312 93.506375 166.295312 91.506375 
L 166.295312 48.472 
Q 166.295312 46.472 164.295312 46.472 
L 64.6 46.472 
Q 62.6 46.472 62.6 48.472 
L 62.6 91.506375 
Q 62.6 93.506375 64.6 93.506375 
z
" style="fill: #ffffff; opacity: 0.8; stroke: #cccccc; stroke-linejoin: miter"/>
    </g>
    <g id="line2d_18">
     <path d="M 66.6 54.570438 
L 76.6 54.570438 
L 86.6 54.570438 
" style="fill: none; stroke: #0000ff; stroke-width: 1.5; stroke-linecap: square"/>
    </g>
    <g id="text_18">
     <!-- training set -->
     <g transform="translate(94.6 58.070438) scale(0.1 -0.1)">
      <defs>
       <path id="DejaVuSans-61" d="M 2194 1759 
Q 1497 1759 1228 1600 
Q 959 1441 959 1056 
Q 959 750 1161 570 
Q 1363 391 1709 391 
Q 2188 391 2477 730 
Q 2766 1069 2766 1631 
L 2766 1759 
L 2194 1759 
z
M 3341 1997 
L 3341 0 
L 2766 0 
L 2766 531 
Q 2569 213 2275 61 
Q 1981 -91 1556 -91 
Q 1019 -91 701 211 
Q 384 513 384 1019 
Q 384 1609 779 1909 
Q 1175 2209 1959 2209 
L 2766 2209 
L 2766 2266 
Q 2766 2663 2505 2880 
Q 2244 3097 1772 3097 
Q 1472 3097 1187 3025 
Q 903 2953 641 2809 
L 641 3341 
Q 956 3463 1253 3523 
Q 1550 3584 1831 3584 
Q 2591 3584 2966 3190 
Q 3341 2797 3341 1997 
z
" transform="scale(0.015625)"/>
       <path id="DejaVuSans-6e" d="M 3513 2113 
L 3513 0 
L 2938 0 
L 2938 2094 
Q 2938 2591 2744 2837 
Q 2550 3084 2163 3084 
Q 1697 3084 1428 2787 
Q 1159 2491 1159 1978 
L 1159 0 
L 581 0 
L 581 3500 
L 1159 3500 
L 1159 2956 
Q 1366 3272 1645 3428 
Q 1925 3584 2291 3584 
Q 2894 3584 3203 3211 
Q 3513 2838 3513 2113 
z
" transform="scale(0.015625)"/>
       <path id="DejaVuSans-67" d="M 2906 1791 
Q 2906 2416 2648 2759 
Q 2391 3103 1925 3103 
Q 1463 3103 1205 2759 
Q 947 2416 947 1791 
Q 947 1169 1205 825 
Q 1463 481 1925 481 
Q 2391 481 2648 825 
Q 2906 1169 2906 1791 
z
M 3481 434 
Q 3481 -459 3084 -895 
Q 2688 -1331 1869 -1331 
Q 1566 -1331 1297 -1286 
Q 1028 -1241 775 -1147 
L 775 -588 
Q 1028 -725 1275 -790 
Q 1522 -856 1778 -856 
Q 2344 -856 2625 -561 
Q 2906 -266 2906 331 
L 2906 616 
Q 2728 306 2450 153 
Q 2172 0 1784 0 
Q 1141 0 747 490 
Q 353 981 353 1791 
Q 353 2603 747 3093 
Q 1141 3584 1784 3584 
Q 2172 3584 2450 3431 
Q 2728 3278 2906 2969 
L 2906 3500 
L 3481 3500 
L 3481 434 
z
" transform="scale(0.015625)"/>
       <path id="DejaVuSans-20" transform="scale(0.015625)"/>
      </defs>
      <use xlink:href="#DejaVuSans-74"/>
      <use xlink:href="#DejaVuSans-72" x="39.208984"/>
      <use xlink:href="#DejaVuSans-61" x="80.322266"/>
      <use xlink:href="#DejaVuSans-69" x="141.601562"/>
      <use xlink:href="#DejaVuSans-6e" x="169.384766"/>
      <use xlink:href="#DejaVuSans-69" x="232.763672"/>
      <use xlink:href="#DejaVuSans-6e" x="260.546875"/>
      <use xlink:href="#DejaVuSans-67" x="323.925781"/>
      <use xlink:href="#DejaVuSans-20" x="387.402344"/>
      <use xlink:href="#DejaVuSans-73" x="419.189453"/>
      <use xlink:href="#DejaVuSans-65" x="471.289062"/>
      <use xlink:href="#DejaVuSans-74" x="532.8125"/>
     </g>
    </g>
    <g id="line2d_19">
     <path d="M 66.6 69.248563 
L 76.6 69.248563 
L 86.6 69.248563 
" style="fill: none; stroke: #008000; stroke-width: 1.5; stroke-linecap: square"/>
    </g>
    <g id="text_19">
     <!-- validation set -->
     <g transform="translate(94.6 72.748563) scale(0.1 -0.1)">
      <defs>
       <path id="DejaVuSans-76" d="M 191 3500 
L 800 3500 
L 1894 563 
L 2988 3500 
L 3597 3500 
L 2284 0 
L 1503 0 
L 191 3500 
z
" transform="scale(0.015625)"/>
       <path id="DejaVuSans-64" d="M 2906 2969 
L 2906 4863 
L 3481 4863 
L 3481 0 
L 2906 0 
L 2906 525 
Q 2725 213 2448 61 
Q 2172 -91 1784 -91 
Q 1150 -91 751 415 
Q 353 922 353 1747 
Q 353 2572 751 3078 
Q 1150 3584 1784 3584 
Q 2172 3584 2448 3432 
Q 2725 3281 2906 2969 
z
M 947 1747 
Q 947 1113 1208 752 
Q 1469 391 1925 391 
Q 2381 391 2643 752 
Q 2906 1113 2906 1747 
Q 2906 2381 2643 2742 
Q 2381 3103 1925 3103 
Q 1469 3103 1208 2742 
Q 947 2381 947 1747 
z
" transform="scale(0.015625)"/>
      </defs>
      <use xlink:href="#DejaVuSans-76"/>
      <use xlink:href="#DejaVuSans-61" x="59.179688"/>
      <use xlink:href="#DejaVuSans-6c" x="120.458984"/>
      <use xlink:href="#DejaVuSans-69" x="148.242188"/>
      <use xlink:href="#DejaVuSans-64" x="176.025391"/>
      <use xlink:href="#DejaVuSans-61" x="239.501953"/>
      <use xlink:href="#DejaVuSans-74" x="300.78125"/>
      <use xlink:href="#DejaVuSans-69" x="339.990234"/>
      <use xlink:href="#DejaVuSans-6f" x="367.773438"/>
      <use xlink:href="#DejaVuSans-6e" x="428.955078"/>
      <use xlink:href="#DejaVuSans-20" x="492.333984"/>
      <use xlink:href="#DejaVuSans-73" x="524.121094"/>
      <use xlink:href="#DejaVuSans-65" x="576.220703"/>
      <use xlink:href="#DejaVuSans-74" x="637.744141"/>
     </g>
    </g>
    <g id="line2d_20">
     <path d="M 66.6 83.926688 
L 76.6 83.926688 
L 86.6 83.926688 
" style="fill: none; stroke: #ff0000; stroke-width: 1.5; stroke-linecap: square"/>
    </g>
    <g id="text_20">
     <!-- test set -->
     <g transform="translate(94.6 87.426688) scale(0.1 -0.1)">
      <use xlink:href="#DejaVuSans-74"/>
      <use xlink:href="#DejaVuSans-65" x="39.208984"/>
      <use xlink:href="#DejaVuSans-73" x="100.732422"/>
      <use xlink:href="#DejaVuSans-74" x="152.832031"/>
      <use xlink:href="#DejaVuSans-20" x="192.041016"/>
      <use xlink:href="#DejaVuSans-73" x="223.828125"/>
      <use xlink:href="#DejaVuSans-65" x="275.927734"/>
      <use xlink:href="#DejaVuSans-74" x="337.451172"/>
     </g>
    </g>
   </g>
  </g>
 </g>
 <defs>
  <clipPath id="p265e7a9b3d">
   <rect x="57.6" y="41.472" width="357.12" height="266.112"/>
  </clipPath>
 </defs>
</svg>
