<?xml version="1.0" encoding="utf-8" standalone="no"?>
<!DOCTYPE svg PUBLIC "-//W3C//DTD SVG 1.1//EN"
  "http://www.w3.org/Graphics/SVG/1.1/DTD/svg11.dtd">
<svg xmlns:xlink="http://www.w3.org/1999/xlink" width="460.8pt" height="345.6pt" viewBox="0 0 460.8 345.6" xmlns="http://www.w3.org/2000/svg" version="1.1">
 <metadata>
  <rdf:RDF xmlns:dc="http://purl.org/dc/elements/1.1/" xmlns:cc="http://creativecommons.org/ns#" xmlns:rdf="http://www.w3.org/1999/02/22-rdf-syntax-ns#">
   <cc:Work>
    <dc:type rdf:resource="http://purl.org/dc/dcmitype/StillImage"/>
    <dc:date>2023-06-14T03:52:22.803005</dc:date>
    <dc:format>image/svg+xml</dc:format>
    <dc:creator>
     <cc:Agent>
      <dc:title>Matplotlib v3.7.1, https://matplotlib.org/</dc:title>
     </cc:Agent>
    </dc:creator>
   </cc:Work>
  </rdf:RDF>
 </metadata>
 <defs>
  <style type="text/css">*{stroke-linejoin: round; stroke-linecap: butt}</style>
 </defs>
 <g id="figure_1">
  <g id="patch_1">
   <path d="M 0 345.6 
L 460.8 345.6 
L 460.8 0 
L 0 0 
z
" style="fill: #ffffff"/>
  </g>
  <g id="axes_1">
   <g id="patch_2">
    <path d="M 57.6 307.584 
L 414.72 307.584 
L 414.72 41.472 
L 57.6 41.472 
z
" style="fill: #ffffff"/>
   </g>
   <g id="matplotlib.axis_1">
    <g id="xtick_1">
     <g id="line2d_1">
      <defs>
       <path id="md1a39441cd" d="M 0 0 
L 0 3.5 
" style="stroke: #000000; stroke-width: 0.8"/>
      </defs>
      <g>
       <use xlink:href="#md1a39441cd" x="73.767783" y="307.584" style="stroke: #000000; stroke-width: 0.8"/>
      </g>
     </g>
     <g id="text_1">
      <!-- 0 -->
      <g transform="translate(70.586533 322.182437) scale(0.1 -0.1)">
       <defs>
        <path id="DejaVuSans-30" d="M 2034 4250 
Q 1547 4250 1301 3770 
Q 1056 3291 1056 2328 
Q 1056 1369 1301 889 
Q 1547 409 2034 409 
Q 2525 409 2770 889 
Q 3016 1369 3016 2328 
Q 3016 3291 2770 3770 
Q 2525 4250 2034 4250 
z
M 2034 4750 
Q 2819 4750 3233 4129 
Q 3647 3509 3647 2328 
Q 3647 1150 3233 529 
Q 2819 -91 2034 -91 
Q 1250 -91 836 529 
Q 422 1150 422 2328 
Q 422 3509 836 4129 
Q 1250 4750 2034 4750 
z
" transform="scale(0.015625)"/>
       </defs>
       <use xlink:href="#DejaVuSans-30"/>
      </g>
     </g>
    </g>
    <g id="xtick_2">
     <g id="line2d_2">
      <g>
       <use xlink:href="#md1a39441cd" x="138.711681" y="307.584" style="stroke: #000000; stroke-width: 0.8"/>
      </g>
     </g>
     <g id="text_2">
      <!-- 1000 -->
      <g transform="translate(125.986681 322.182437) scale(0.1 -0.1)">
       <defs>
        <path id="DejaVuSans-31" d="M 794 531 
L 1825 531 
L 1825 4091 
L 703 3866 
L 703 4441 
L 1819 4666 
L 2450 4666 
L 2450 531 
L 3481 531 
L 3481 0 
L 794 0 
L 794 531 
z
" transform="scale(0.015625)"/>
       </defs>
       <use xlink:href="#DejaVuSans-31"/>
       <use xlink:href="#DejaVuSans-30" x="63.623047"/>
       <use xlink:href="#DejaVuSans-30" x="127.246094"/>
       <use xlink:href="#DejaVuSans-30" x="190.869141"/>
      </g>
     </g>
    </g>
    <g id="xtick_3">
     <g id="line2d_3">
      <g>
       <use xlink:href="#md1a39441cd" x="203.655579" y="307.584" style="stroke: #000000; stroke-width: 0.8"/>
      </g>
     </g>
     <g id="text_3">
      <!-- 2000 -->
      <g transform="translate(190.930579 322.182437) scale(0.1 -0.1)">
       <defs>
        <path id="DejaVuSans-32" d="M 1228 531 
L 3431 531 
L 3431 0 
L 469 0 
L 469 531 
Q 828 903 1448 1529 
Q 2069 2156 2228 2338 
Q 2531 2678 2651 2914 
Q 2772 3150 2772 3378 
Q 2772 3750 2511 3984 
Q 2250 4219 1831 4219 
Q 1534 4219 1204 4116 
Q 875 4013 500 3803 
L 500 4441 
Q 881 4594 1212 4672 
Q 1544 4750 1819 4750 
Q 2544 4750 2975 4387 
Q 3406 4025 3406 3419 
Q 3406 3131 3298 2873 
Q 3191 2616 2906 2266 
Q 2828 2175 2409 1742 
Q 1991 1309 1228 531 
z
" transform="scale(0.015625)"/>
       </defs>
       <use xlink:href="#DejaVuSans-32"/>
       <use xlink:href="#DejaVuSans-30" x="63.623047"/>
       <use xlink:href="#DejaVuSans-30" x="127.246094"/>
       <use xlink:href="#DejaVuSans-30" x="190.869141"/>
      </g>
     </g>
    </g>
    <g id="xtick_4">
     <g id="line2d_4">
      <g>
       <use xlink:href="#md1a39441cd" x="268.599477" y="307.584" style="stroke: #000000; stroke-width: 0.8"/>
      </g>
     </g>
     <g id="text_4">
      <!-- 3000 -->
      <g transform="translate(255.874477 322.182437) scale(0.1 -0.1)">
       <defs>
        <path id="DejaVuSans-33" d="M 2597 2516 
Q 3050 2419 3304 2112 
Q 3559 1806 3559 1356 
Q 3559 666 3084 287 
Q 2609 -91 1734 -91 
Q 1441 -91 1130 -33 
Q 819 25 488 141 
L 488 750 
Q 750 597 1062 519 
Q 1375 441 1716 441 
Q 2309 441 2620 675 
Q 2931 909 2931 1356 
Q 2931 1769 2642 2001 
Q 2353 2234 1838 2234 
L 1294 2234 
L 1294 2753 
L 1863 2753 
Q 2328 2753 2575 2939 
Q 2822 3125 2822 3475 
Q 2822 3834 2567 4026 
Q 2313 4219 1838 4219 
Q 1578 4219 1281 4162 
Q 984 4106 628 3988 
L 628 4550 
Q 988 4650 1302 4700 
Q 1616 4750 1894 4750 
Q 2613 4750 3031 4423 
Q 3450 4097 3450 3541 
Q 3450 3153 3228 2886 
Q 3006 2619 2597 2516 
z
" transform="scale(0.015625)"/>
       </defs>
       <use xlink:href="#DejaVuSans-33"/>
       <use xlink:href="#DejaVuSans-30" x="63.623047"/>
       <use xlink:href="#DejaVuSans-30" x="127.246094"/>
       <use xlink:href="#DejaVuSans-30" x="190.869141"/>
      </g>
     </g>
    </g>
    <g id="xtick_5">
     <g id="line2d_5">
      <g>
       <use xlink:href="#md1a39441cd" x="333.543375" y="307.584" style="stroke: #000000; stroke-width: 0.8"/>
      </g>
     </g>
     <g id="text_5">
      <!-- 4000 -->
      <g transform="translate(320.818375 322.182437) scale(0.1 -0.1)">
       <defs>
        <path id="DejaVuSans-34" d="M 2419 4116 
L 825 1625 
L 2419 1625 
L 2419 4116 
z
M 2253 4666 
L 3047 4666 
L 3047 1625 
L 3713 1625 
L 3713 1100 
L 3047 1100 
L 3047 0 
L 2419 0 
L 2419 1100 
L 313 1100 
L 313 1709 
L 2253 4666 
z
" transform="scale(0.015625)"/>
       </defs>
       <use xlink:href="#DejaVuSans-34"/>
       <use xlink:href="#DejaVuSans-30" x="63.623047"/>
       <use xlink:href="#DejaVuSans-30" x="127.246094"/>
       <use xlink:href="#DejaVuSans-30" x="190.869141"/>
      </g>
     </g>
    </g>
    <g id="xtick_6">
     <g id="line2d_6">
      <g>
       <use xlink:href="#md1a39441cd" x="398.487273" y="307.584" style="stroke: #000000; stroke-width: 0.8"/>
      </g>
     </g>
     <g id="text_6">
      <!-- 5000 -->
      <g transform="translate(385.762273 322.182437) scale(0.1 -0.1)">
       <defs>
        <path id="DejaVuSans-35" d="M 691 4666 
L 3169 4666 
L 3169 4134 
L 1269 4134 
L 1269 2991 
Q 1406 3038 1543 3061 
Q 1681 3084 1819 3084 
Q 2600 3084 3056 2656 
Q 3513 2228 3513 1497 
Q 3513 744 3044 326 
Q 2575 -91 1722 -91 
Q 1428 -91 1123 -41 
Q 819 9 494 109 
L 494 744 
Q 775 591 1075 516 
Q 1375 441 1709 441 
Q 2250 441 2565 725 
Q 2881 1009 2881 1497 
Q 2881 1984 2565 2268 
Q 2250 2553 1709 2553 
Q 1456 2553 1204 2497 
Q 953 2441 691 2322 
L 691 4666 
z
" transform="scale(0.015625)"/>
       </defs>
       <use xlink:href="#DejaVuSans-35"/>
       <use xlink:href="#DejaVuSans-30" x="63.623047"/>
       <use xlink:href="#DejaVuSans-30" x="127.246094"/>
       <use xlink:href="#DejaVuSans-30" x="190.869141"/>
      </g>
     </g>
    </g>
    <g id="text_7">
     <!-- epoch -->
     <g transform="translate(220.931875 335.860562) scale(0.1 -0.1)">
      <defs>
       <path id="DejaVuSans-65" d="M 3597 1894 
L 3597 1613 
L 953 1613 
Q 991 1019 1311 708 
Q 1631 397 2203 397 
Q 2534 397 2845 478 
Q 3156 559 3463 722 
L 3463 178 
Q 3153 47 2828 -22 
Q 2503 -91 2169 -91 
Q 1331 -91 842 396 
Q 353 884 353 1716 
Q 353 2575 817 3079 
Q 1281 3584 2069 3584 
Q 2775 3584 3186 3129 
Q 3597 2675 3597 1894 
z
M 3022 2063 
Q 3016 2534 2758 2815 
Q 2500 3097 2075 3097 
Q 1594 3097 1305 2825 
Q 1016 2553 972 2059 
L 3022 2063 
z
" transform="scale(0.015625)"/>
       <path id="DejaVuSans-70" d="M 1159 525 
L 1159 -1331 
L 581 -1331 
L 581 3500 
L 1159 3500 
L 1159 2969 
Q 1341 3281 1617 3432 
Q 1894 3584 2278 3584 
Q 2916 3584 3314 3078 
Q 3713 2572 3713 1747 
Q 3713 922 3314 415 
Q 2916 -91 2278 -91 
Q 1894 -91 1617 61 
Q 1341 213 1159 525 
z
M 3116 1747 
Q 3116 2381 2855 2742 
Q 2594 3103 2138 3103 
Q 1681 3103 1420 2742 
Q 1159 2381 1159 1747 
Q 1159 1113 1420 752 
Q 1681 391 2138 391 
Q 2594 391 2855 752 
Q 3116 1113 3116 1747 
z
" transform="scale(0.015625)"/>
       <path id="DejaVuSans-6f" d="M 1959 3097 
Q 1497 3097 1228 2736 
Q 959 2375 959 1747 
Q 959 1119 1226 758 
Q 1494 397 1959 397 
Q 2419 397 2687 759 
Q 2956 1122 2956 1747 
Q 2956 2369 2687 2733 
Q 2419 3097 1959 3097 
z
M 1959 3584 
Q 2709 3584 3137 3096 
Q 3566 2609 3566 1747 
Q 3566 888 3137 398 
Q 2709 -91 1959 -91 
Q 1206 -91 779 398 
Q 353 888 353 1747 
Q 353 2609 779 3096 
Q 1206 3584 1959 3584 
z
" transform="scale(0.015625)"/>
       <path id="DejaVuSans-63" d="M 3122 3366 
L 3122 2828 
Q 2878 2963 2633 3030 
Q 2388 3097 2138 3097 
Q 1578 3097 1268 2742 
Q 959 2388 959 1747 
Q 959 1106 1268 751 
Q 1578 397 2138 397 
Q 2388 397 2633 464 
Q 2878 531 3122 666 
L 3122 134 
Q 2881 22 2623 -34 
Q 2366 -91 2075 -91 
Q 1284 -91 818 406 
Q 353 903 353 1747 
Q 353 2603 823 3093 
Q 1294 3584 2113 3584 
Q 2378 3584 2631 3529 
Q 2884 3475 3122 3366 
z
" transform="scale(0.015625)"/>
       <path id="DejaVuSans-68" d="M 3513 2113 
L 3513 0 
L 2938 0 
L 2938 2094 
Q 2938 2591 2744 2837 
Q 2550 3084 2163 3084 
Q 1697 3084 1428 2787 
Q 1159 2491 1159 1978 
L 1159 0 
L 581 0 
L 581 4863 
L 1159 4863 
L 1159 2956 
Q 1366 3272 1645 3428 
Q 1925 3584 2291 3584 
Q 2894 3584 3203 3211 
Q 3513 2838 3513 2113 
z
" transform="scale(0.015625)"/>
      </defs>
      <use xlink:href="#DejaVuSans-65"/>
      <use xlink:href="#DejaVuSans-70" x="61.523438"/>
      <use xlink:href="#DejaVuSans-6f" x="125"/>
      <use xlink:href="#DejaVuSans-63" x="186.181641"/>
      <use xlink:href="#DejaVuSans-68" x="241.162109"/>
     </g>
    </g>
   </g>
   <g id="matplotlib.axis_2">
    <g id="ytick_1">
     <g id="line2d_7">
      <defs>
       <path id="m24f21f704d" d="M 0 0 
L -3.5 0 
" style="stroke: #000000; stroke-width: 0.8"/>
      </defs>
      <g>
       <use xlink:href="#m24f21f704d" x="57.6" y="295.512741" style="stroke: #000000; stroke-width: 0.8"/>
      </g>
     </g>
     <g id="text_8">
      <!-- 0 -->
      <g transform="translate(44.2375 299.311959) scale(0.1 -0.1)">
       <use xlink:href="#DejaVuSans-30"/>
      </g>
     </g>
    </g>
    <g id="ytick_2">
     <g id="line2d_8">
      <g>
       <use xlink:href="#m24f21f704d" x="57.6" y="236.673443" style="stroke: #000000; stroke-width: 0.8"/>
      </g>
     </g>
     <g id="text_9">
      <!-- 5 -->
      <g transform="translate(44.2375 240.472661) scale(0.1 -0.1)">
       <use xlink:href="#DejaVuSans-35"/>
      </g>
     </g>
    </g>
    <g id="ytick_3">
     <g id="line2d_9">
      <g>
       <use xlink:href="#m24f21f704d" x="57.6" y="177.834145" style="stroke: #000000; stroke-width: 0.8"/>
      </g>
     </g>
     <g id="text_10">
      <!-- 10 -->
      <g transform="translate(37.875 181.633363) scale(0.1 -0.1)">
       <use xlink:href="#DejaVuSans-31"/>
       <use xlink:href="#DejaVuSans-30" x="63.623047"/>
      </g>
     </g>
    </g>
    <g id="ytick_4">
     <g id="line2d_10">
      <g>
       <use xlink:href="#m24f21f704d" x="57.6" y="118.994847" style="stroke: #000000; stroke-width: 0.8"/>
      </g>
     </g>
     <g id="text_11">
      <!-- 15 -->
      <g transform="translate(37.875 122.794065) scale(0.1 -0.1)">
       <use xlink:href="#DejaVuSans-31"/>
       <use xlink:href="#DejaVuSans-35" x="63.623047"/>
      </g>
     </g>
    </g>
    <g id="ytick_5">
     <g id="line2d_11">
      <g>
       <use xlink:href="#m24f21f704d" x="57.6" y="60.155549" style="stroke: #000000; stroke-width: 0.8"/>
      </g>
     </g>
     <g id="text_12">
      <!-- 20 -->
      <g transform="translate(37.875 63.954767) scale(0.1 -0.1)">
       <use xlink:href="#DejaVuSans-32"/>
       <use xlink:href="#DejaVuSans-30" x="63.623047"/>
      </g>
     </g>
    </g>
    <g id="text_13">
     <!-- loss -->
     <g transform="translate(31.795313 184.185812) rotate(-90) scale(0.1 -0.1)">
      <defs>
       <path id="DejaVuSans-6c" d="M 603 4863 
L 1178 4863 
L 1178 0 
L 603 0 
L 603 4863 
z
" transform="scale(0.015625)"/>
       <path id="DejaVuSans-73" d="M 2834 3397 
L 2834 2853 
Q 2591 2978 2328 3040 
Q 2066 3103 1784 3103 
Q 1356 3103 1142 2972 
Q 928 2841 928 2578 
Q 928 2378 1081 2264 
Q 1234 2150 1697 2047 
L 1894 2003 
Q 2506 1872 2764 1633 
Q 3022 1394 3022 966 
Q 3022 478 2636 193 
Q 2250 -91 1575 -91 
Q 1294 -91 989 -36 
Q 684 19 347 128 
L 347 722 
Q 666 556 975 473 
Q 1284 391 1588 391 
Q 1994 391 2212 530 
Q 2431 669 2431 922 
Q 2431 1156 2273 1281 
Q 2116 1406 1581 1522 
L 1381 1569 
Q 847 1681 609 1914 
Q 372 2147 372 2553 
Q 372 3047 722 3315 
Q 1072 3584 1716 3584 
Q 2034 3584 2315 3537 
Q 2597 3491 2834 3397 
z
" transform="scale(0.015625)"/>
      </defs>
      <use xlink:href="#DejaVuSans-6c"/>
      <use xlink:href="#DejaVuSans-6f" x="27.783203"/>
      <use xlink:href="#DejaVuSans-73" x="88.964844"/>
      <use xlink:href="#DejaVuSans-73" x="141.064453"/>
     </g>
    </g>
   </g>
   <g id="line2d_12">
    <path d="M 73.832727 272.396403 
L 74.287335 273.031709 
L 75.781044 274.481326 
L 76.430483 275.611336 
L 77.274754 277.568552 
L 79.87251 284.006381 
L 80.781724 285.52572 
L 81.690939 286.624629 
L 82.665097 287.449939 
L 83.834088 288.137891 
L 85.327797 288.749601 
L 87.470946 289.3651 
L 90.523309 290.001058 
L 94.744662 290.64773 
L 100.459725 291.283988 
L 110.266254 292.066049 
L 126.437285 292.883592 
L 168.391043 294.15662 
L 186.575334 294.570382 
L 191.056463 294.694276 
L 219.956497 295.078006 
L 273.405325 295.352929 
L 356.208795 295.469395 
L 398.487273 295.488 
L 398.487273 295.488 
" clip-path="url(#pc051df00cf)" style="fill: none; stroke: #0000ff; stroke-width: 1.5; stroke-linecap: square"/>
   </g>
   <g id="line2d_13">
    <path d="M 73.832727 272.429553 
L 74.352278 273.108897 
L 74.806886 273.282917 
L 75.066661 273.487032 
L 76.950034 276.01554 
L 78.443744 279.22173 
L 79.417902 281.215966 
L 80.262173 282.513066 
L 81.301276 283.5796 
L 82.080602 284.071343 
L 83.054761 284.399271 
L 83.899031 284.538352 
L 85.782404 284.528281 
L 87.081282 284.314491 
L 87.600834 284.203568 
L 88.445104 283.988201 
L 89.094543 283.795285 
L 91.36758 282.94398 
L 94.939494 281.192075 
L 95.783765 280.732323 
L 96.692979 280.22012 
L 96.887811 280.132038 
L 98.186689 279.451743 
L 98.641296 279.17645 
L 98.771184 279.142859 
L 98.966016 279.06423 
L 99.355679 278.785949 
L 100.459725 278.197659 
L 100.784445 277.968386 
L 101.239052 277.744789 
L 101.823547 277.411509 
L 102.278155 277.175857 
L 103.122425 276.70942 
L 103.382201 276.570377 
L 103.901752 276.291814 
L 104.421303 275.980433 
L 104.87591 275.774109 
L 105.330518 275.497319 
L 109.162208 273.497361 
L 109.292096 273.384497 
L 109.421983 273.335125 
L 109.811647 273.06218 
L 109.941534 273.0787 
L 110.071422 272.907544 
L 110.136366 272.954577 
L 110.266254 272.872598 
L 110.461086 272.766069 
L 110.590973 272.717389 
L 110.720861 272.59616 
L 110.850749 272.546523 
L 111.175469 272.335442 
L 111.630076 272.145679 
L 111.824908 272.052176 
L 112.279515 271.752357 
L 117.280195 269.04803 
L 117.410083 268.948788 
L 117.799746 268.740365 
L 117.994578 268.615591 
L 118.124466 268.625776 
L 118.18941 268.629886 
L 118.319297 268.372577 
L 118.449185 268.42813 
L 118.708961 268.249512 
L 118.838848 268.223175 
L 119.098624 268.039468 
L 120.20267 267.44703 
L 120.332558 267.359894 
L 121.241773 266.870258 
L 121.501548 266.76506 
L 121.956156 266.480112 
L 122.086043 266.425385 
L 123.644697 265.565178 
L 123.774585 265.545693 
L 123.904473 265.403785 
L 123.969416 265.467193 
L 124.03436 265.395463 
L 124.294136 265.233441 
L 124.683799 265.023237 
L 125.008519 264.858067 
L 125.138407 264.829095 
L 125.333238 264.742419 
L 125.463126 264.625838 
L 125.593014 264.59089 
L 125.722902 264.493707 
L 125.982677 264.359969 
L 126.502228 264.114596 
L 126.891892 263.918364 
L 127.671219 263.528748 
L 127.801106 263.432531 
L 127.86605 263.328134 
L 127.930994 263.379433 
L 127.995938 263.414198 
L 128.19077 263.239736 
L 128.580433 263.065469 
L 129.03504 262.820265 
L 130.204031 262.186367 
L 130.398862 262.122409 
L 132.412123 261.097439 
L 132.542011 261.006299 
L 145.985398 253.97489 
L 146.115286 253.890877 
L 146.245173 253.829626 
L 146.699781 253.59196 
L 147.0245 253.399059 
L 147.544051 253.096189 
L 148.323378 252.72011 
L 148.51821 252.597244 
L 150.596415 251.459615 
L 150.661358 251.464789 
L 150.791246 251.241244 
L 150.921134 251.294807 
L 151.115966 251.162668 
L 151.635517 250.863151 
L 152.02518 250.623209 
L 155.0126 248.968225 
L 155.142487 248.966466 
L 155.337319 248.890196 
L 157.935075 247.529805 
L 158.259795 247.299184 
L 158.649458 247.124099 
L 158.909233 246.906317 
L 159.948336 246.332562 
L 160.143168 246.212939 
L 160.467887 246.040002 
L 161.18227 245.628196 
L 161.701821 245.344268 
L 161.961597 245.216991 
L 162.286316 245.026951 
L 162.67598 244.784805 
L 163.000699 244.57861 
L 163.390362 244.368947 
L 163.52025 244.268263 
L 163.585194 244.307851 
L 163.715082 244.104254 
L 163.780026 244.153062 
L 163.909914 244.044729 
L 164.559353 243.694283 
L 164.68924 243.607223 
L 164.949016 243.445448 
L 165.273735 243.22881 
L 165.403623 243.187174 
L 165.728343 242.944275 
L 166.053062 242.787213 
L 167.092165 242.182192 
L 167.35194 242.031106 
L 168.261155 241.532622 
L 168.326099 241.534765 
L 168.52093 241.374701 
L 168.84565 241.215227 
L 169.040482 241.086704 
L 171.378462 239.560411 
L 171.768125 239.309297 
L 172.027901 239.144851 
L 172.35262 238.86398 
L 172.482508 238.85127 
L 172.872172 238.524471 
L 173.002059 238.510167 
L 173.391723 238.154217 
L 173.976218 237.810241 
L 176.18431 236.228603 
L 176.768805 235.775503 
L 177.093525 235.541307 
L 177.223413 235.448838 
L 177.548132 235.198038 
L 177.872852 234.976513 
L 179.366561 233.832617 
L 179.496449 233.789022 
L 179.821169 233.444586 
L 180.080944 233.338565 
L 182.289037 231.611907 
L 182.873532 231.220128 
L 183.263195 230.82955 
L 183.393083 230.777751 
L 183.717802 230.467758 
L 183.84769 230.464851 
L 184.17241 230.104311 
L 184.497129 229.945352 
L 184.951737 229.561575 
L 185.601176 229.181164 
L 185.860951 229.020859 
L 187.094885 227.872283 
L 187.484549 227.438548 
L 188.393763 226.394258 
L 188.783427 226.040137 
L 188.978258 225.840311 
L 189.627697 225.213046 
L 189.757585 225.074771 
L 190.017361 224.851411 
L 190.471968 224.360137 
L 190.6668 224.228764 
L 190.796687 224.111515 
L 191.381182 223.473734 
L 191.51107 223.378885 
L 191.83579 223.095815 
L 191.900734 223.126066 
L 192.225453 222.740297 
L 192.68006 222.339354 
L 192.939836 222.044422 
L 193.199612 221.862227 
L 193.589275 221.40512 
L 193.719163 221.340534 
L 195.147928 219.990554 
L 195.277816 219.870819 
L 195.537592 219.568928 
L 196.122087 218.99496 
L 196.576694 218.601475 
L 196.901414 218.248212 
L 197.356021 217.79601 
L 197.615797 217.546917 
L 197.875572 217.300562 
L 198.460067 216.723686 
L 199.49917 215.665503 
L 199.953777 215.215714 
L 200.148609 215.006192 
L 200.538272 214.667182 
L 200.66816 214.518133 
L 200.798048 214.401669 
L 200.862992 214.386878 
L 201.122767 214.068002 
L 201.51243 213.647509 
L 201.642318 213.543026 
L 202.031982 213.185852 
L 204.49985 210.660092 
L 204.694681 210.505427 
L 204.889513 210.292863 
L 208.851091 206.274568 
L 208.980979 206.135468 
L 209.045923 206.137151 
L 209.435586 205.647348 
L 209.565474 205.629127 
L 209.760306 205.400959 
L 210.085025 205.071819 
L 210.409744 204.694259 
L 210.604576 204.51606 
L 211.189071 203.914214 
L 211.448847 203.733265 
L 212.16323 202.958084 
L 212.423005 202.692622 
L 212.877613 202.202701 
L 213.0075 202.115893 
L 213.397164 201.68947 
L 213.527052 201.604458 
L 213.851771 201.229243 
L 214.436266 200.643575 
L 214.566154 200.592445 
L 214.760986 200.341673 
L 215.020761 200.095862 
L 215.150649 199.917433 
L 215.475369 199.5923 
L 216.319639 198.788316 
L 217.098966 197.948824 
L 217.228854 197.89105 
L 217.423685 197.652264 
L 217.488629 197.649144 
L 217.683461 197.434487 
L 217.748405 197.4201 
L 217.943237 197.162449 
L 219.372002 195.700041 
L 219.761666 195.259067 
L 219.891554 195.224748 
L 220.281217 194.730388 
L 220.865712 194.195379 
L 222.554253 192.479506 
L 222.749085 192.326496 
L 223.073805 191.904555 
L 223.203692 191.911413 
L 223.398524 191.65173 
L 223.528412 191.543308 
L 223.853131 191.222024 
L 224.762346 190.330683 
L 224.892234 190.202094 
L 225.022122 190.07962 
L 225.087065 190.086735 
L 225.281897 189.819074 
L 225.411785 189.690697 
L 225.801448 189.281271 
L 225.931336 189.180883 
L 226.580775 188.513705 
L 226.840551 188.313368 
L 227.230214 187.909564 
L 227.360102 187.783331 
L 228.33426 186.831331 
L 228.65898 186.525748 
L 229.568194 185.591582 
L 229.957858 185.228864 
L 230.347521 184.816732 
L 230.477409 184.770674 
L 230.737185 184.504135 
L 233.075165 182.154572 
L 233.594716 181.639068 
L 233.984379 181.259191 
L 234.374043 180.847059 
L 235.478089 179.833896 
L 236.127528 179.198579 
L 236.257416 179.058486 
L 236.517191 178.834088 
L 236.971799 178.340233 
L 237.16663 178.160333 
L 243.336301 172.125513 
L 243.66102 171.785567 
L 253.792268 162.082202 
L 253.922156 161.983027 
L 254.181932 161.71412 
L 254.701483 161.231072 
L 254.831371 161.127285 
L 255.221034 160.655359 
L 255.545754 160.436516 
L 256.714744 159.34348 
L 256.844631 159.240153 
L 257.234295 158.811188 
L 257.948678 158.229099 
L 258.468229 157.708265 
L 258.98778 157.23213 
L 259.442387 156.818607 
L 260.091826 156.242277 
L 260.48149 155.822054 
L 261.001041 155.385502 
L 261.390704 154.965133 
L 261.845312 154.596691 
L 262.494751 153.949096 
L 262.754526 153.748749 
L 267.170711 149.774497 
L 268.079926 148.924186 
L 274.769147 142.905056 
L 274.899035 142.775883 
L 275.288698 142.440807 
L 275.418586 142.361092 
L 275.743306 142.038506 
L 278.211174 139.883477 
L 278.470949 139.678764 
L 278.925557 139.215311 
L 279.185332 139.025457 
L 279.964659 138.330233 
L 280.549154 137.805201 
L 281.263537 137.210218 
L 281.588257 136.917799 
L 290.81029 129.080681 
L 291.459729 128.522261 
L 292.239056 127.88241 
L 295.291419 125.345719 
L 295.421307 125.248811 
L 295.746026 124.96041 
L 297.109848 123.832282 
L 297.629399 123.442472 
L 297.954119 123.149155 
L 298.668502 122.622182 
L 298.863333 122.435448 
L 299.058165 122.233506 
L 301.98064 119.889016 
L 302.370304 119.594801 
L 302.565136 119.433677 
L 302.954799 119.118207 
L 303.149631 118.982513 
L 313.215935 111.102423 
L 313.540654 110.86247 
L 314.709644 109.965237 
L 315.164252 109.584406 
L 315.488971 109.383093 
L 316.008522 108.976921 
L 316.203354 108.838511 
L 316.593018 108.505107 
L 317.047625 108.156676 
L 317.956839 107.457939 
L 318.80111 106.858433 
L 319.190773 106.568439 
L 319.775269 106.141729 
L 320.29482 105.713695 
L 320.489651 105.608987 
L 320.749427 105.43113 
L 321.46381 104.862183 
L 322.567856 104.040614 
L 322.827632 103.874496 
L 323.282239 103.47894 
L 323.931678 103.070411 
L 324.321341 102.757365 
L 324.711005 102.474979 
L 325.165612 102.142899 
L 326.074827 101.444062 
L 327.63348 100.332183 
L 328.347863 99.799598 
L 328.477751 99.736594 
L 328.737526 99.511579 
L 329.257078 99.149737 
L 329.516853 98.940815 
L 330.036404 98.554596 
L 332.699104 96.615156 
L 332.893936 96.503243 
L 333.478431 96.075321 
L 333.933038 95.778593 
L 334.192814 95.586011 
L 335.491692 94.665143 
L 336.011243 94.269027 
L 340.817091 90.925446 
L 341.011923 90.775668 
L 341.46653 90.432029 
L 341.661362 90.302137 
L 342.115969 89.986173 
L 342.635521 89.682015 
L 342.96024 89.420773 
L 343.28496 89.215689 
L 344.778669 88.165267 
L 345.29822 87.823782 
L 345.687884 87.537873 
L 346.337323 87.105843 
L 348.025864 85.971587 
L 348.350584 85.747537 
L 349.844293 84.715093 
L 350.104069 84.571667 
L 350.428788 84.360388 
L 353.870815 81.981489 
L 354.195534 81.783251 
L 354.715086 81.45162 
L 356.208795 80.437289 
L 357.702505 79.448591 
L 358.157112 79.129373 
L 361.79397 76.741158 
L 361.988802 76.615576 
L 362.443409 76.29959 
L 362.703185 76.150956 
L 363.157792 75.826463 
L 363.677343 75.538399 
L 364.261839 75.114001 
L 364.45667 75.037238 
L 364.911278 74.712048 
L 365.560717 74.283588 
L 366.015324 73.985603 
L 368.872855 72.155067 
L 369.587238 71.670022 
L 370.496453 71.129963 
L 370.886116 70.866274 
L 371.340723 70.583776 
L 373.224096 69.370602 
L 373.61376 69.110594 
L 374.522974 68.531817 
L 375.497133 67.907094 
L 376.081628 67.505859 
L 376.341404 67.396842 
L 376.990843 66.973544 
L 377.510394 66.648602 
L 377.770169 66.476558 
L 378.679384 65.903033 
L 379.133991 65.593914 
L 380.367925 64.836629 
L 385.758269 61.451906 
L 386.602539 60.923743 
L 387.576698 60.323844 
L 388.096249 59.973224 
L 388.6158 59.647564 
L 389.070408 59.384302 
L 389.330183 59.212482 
L 389.914678 58.828913 
L 390.369285 58.569735 
L 390.953781 58.182036 
L 391.213556 58.050393 
L 398.487273 53.568 
L 398.487273 53.568 
" clip-path="url(#pc051df00cf)" style="fill: none; stroke: #008000; stroke-width: 1.5; stroke-linecap: square"/>
   </g>
   <g id="line2d_14">
    <path d="M 73.832727 272.312968 
L 74.352278 273.072251 
L 74.806886 273.303342 
L 75.131605 273.584349 
L 76.755203 275.570742 
L 78.313856 278.844948 
L 79.87251 281.92196 
L 80.976556 283.302617 
L 81.820827 283.944399 
L 82.470266 284.246868 
L 83.119705 284.443863 
L 85.327797 284.69869 
L 86.626675 284.612248 
L 88.639936 284.306998 
L 89.289375 284.161281 
L 91.107804 283.690255 
L 91.692299 283.506058 
L 92.53657 283.250382 
L 93.186009 283.02459 
L 93.70556 282.857307 
L 96.628035 281.74331 
L 97.667138 281.359432 
L 97.797026 281.287611 
L 103.70692 278.789413 
L 104.03164 278.625136 
L 104.551191 278.434248 
L 104.810967 278.269456 
L 105.135686 278.160466 
L 105.460406 277.966098 
L 106.564452 277.457289 
L 107.798386 276.863235 
L 107.928274 276.82237 
L 109.03232 276.280846 
L 109.097264 276.347306 
L 109.292096 276.12985 
L 109.421983 276.080994 
L 109.876591 275.88648 
L 110.006478 275.75202 
L 110.136366 275.744554 
L 110.266254 275.669526 
L 110.461086 275.568087 
L 110.590973 275.525816 
L 110.720861 275.412529 
L 110.850749 275.370975 
L 111.110525 275.214483 
L 111.759964 274.885056 
L 111.889851 274.849557 
L 112.019739 274.762215 
L 112.149627 274.706844 
L 113.643337 273.959902 
L 113.838168 273.851463 
L 114.292776 273.55336 
L 114.682439 273.405591 
L 114.942215 273.246868 
L 115.721541 272.882192 
L 115.916373 272.769563 
L 116.241093 272.578692 
L 116.565812 272.44142 
L 116.6957 272.341167 
L 116.825588 272.310405 
L 117.020419 272.227435 
L 117.280195 272.072434 
L 117.345139 272.086909 
L 117.475027 271.918616 
L 117.539971 271.973385 
L 122.540651 269.297676 
L 122.670538 269.263054 
L 122.86537 269.174083 
L 123.904473 268.535079 
L 123.969416 268.614031 
L 124.03436 268.529544 
L 124.294136 268.364607 
L 124.683799 268.164781 
L 125.008519 267.990209 
L 125.138407 267.96698 
L 125.333238 267.87517 
L 125.463126 267.762144 
L 125.593014 267.726977 
L 125.722902 267.621958 
L 125.982677 267.492145 
L 126.242453 267.363269 
L 126.826948 267.034371 
L 126.956836 267.011892 
L 127.086724 266.943029 
L 127.151667 266.96683 
L 127.281555 266.79042 
L 127.411443 266.77291 
L 127.930994 266.499267 
L 127.995938 266.542154 
L 128.19077 266.367419 
L 128.580433 266.183398 
L 129.229872 265.800569 
L 129.489648 265.718859 
L 129.879311 265.48832 
L 130.139087 265.338974 
L 130.658638 265.063167 
L 130.983357 264.941485 
L 132.152348 264.321944 
L 133.061562 263.838773 
L 133.19145 263.768143 
L 134.944935 262.860403 
L 135.074823 262.869774 
L 135.464486 262.611719 
L 136.178869 262.183045 
L 136.503589 262.065829 
L 136.69842 261.929347 
L 137.217972 261.65034 
L 137.542691 261.468521 
L 137.672579 261.443707 
L 138.257074 261.094945 
L 138.51685 260.962949 
L 139.880671 260.223081 
L 140.010559 260.157414 
L 140.140447 260.078987 
L 140.205391 260.115278 
L 140.335279 259.923193 
L 140.400223 259.976142 
L 140.465166 259.964153 
L 140.595054 259.794418 
L 140.659998 259.863775 
L 140.724942 259.776137 
L 140.85483 259.721547 
L 140.919774 259.757224 
L 141.049662 259.506938 
L 141.114605 259.542126 
L 141.244493 259.474122 
L 141.634157 259.270217 
L 141.764044 259.211076 
L 141.958876 259.107564 
L 142.153708 258.968116 
L 143.257754 258.384625 
L 143.387642 258.284039 
L 143.51753 258.236216 
L 144.037081 257.9055 
L 144.166969 257.916099 
L 144.3618 257.787372 
L 144.621576 257.606451 
L 144.751464 257.555665 
L 145.076183 257.354773 
L 145.206071 257.306216 
L 145.595734 257.103862 
L 145.985398 256.883004 
L 146.115286 256.782023 
L 146.245173 256.718272 
L 146.699781 256.466485 
L 146.829668 256.399286 
L 147.154388 256.217184 
L 147.673939 255.959286 
L 147.998659 255.709637 
L 148.323378 255.582812 
L 148.51821 255.456228 
L 150.596415 254.298615 
L 150.661358 254.310735 
L 150.791246 254.066521 
L 150.921134 254.147501 
L 151.051022 253.992998 
L 151.18091 253.943441 
L 151.310797 253.835773 
L 151.375741 253.875695 
L 151.570573 253.705935 
L 151.765405 253.61534 
L 152.02518 253.452078 
L 154.038441 252.370366 
L 154.168329 252.358526 
L 154.298217 252.246111 
L 154.428105 252.203787 
L 154.622936 252.104082 
L 154.752824 252.006977 
L 154.947656 251.899091 
L 155.142487 252.014356 
L 155.272375 251.942809 
L 155.402263 251.948925 
L 155.726982 251.732947 
L 157.610356 250.716341 
L 158.000019 250.485035 
L 158.389682 250.297482 
L 158.714402 250.03751 
L 159.233953 249.742805 
L 159.493729 249.535595 
L 159.68856 249.502953 
L 160.143168 249.228926 
L 160.402943 249.109906 
L 161.636877 248.436544 
L 165.858231 246.074944 
L 165.988118 246.017781 
L 166.312838 245.815425 
L 166.442726 245.719701 
L 166.962277 245.435396 
L 167.027221 245.477111 
L 167.222052 245.31983 
L 167.546772 245.077919 
L 167.67666 245.087419 
L 167.806547 244.985601 
L 167.871491 244.996341 
L 168.001379 244.80087 
L 168.066323 244.893704 
L 168.131267 244.838758 
L 168.261155 244.748707 
L 168.326099 244.769093 
L 168.455986 244.560378 
L 168.52093 244.596241 
L 168.585874 244.596201 
L 168.715762 244.452152 
L 168.84565 244.467617 
L 168.975538 244.307104 
L 169.105425 244.295321 
L 169.300257 244.174845 
L 169.624977 243.950032 
L 169.884752 243.847518 
L 170.079584 243.706583 
L 170.599135 243.381534 
L 171.053742 243.110091 
L 171.313518 242.94033 
L 171.768125 242.679818 
L 171.962957 242.559707 
L 172.222733 242.439253 
L 172.35262 242.254343 
L 172.417564 242.289256 
L 172.807228 242.002887 
L 173.521611 241.576738 
L 173.911274 241.340321 
L 174.820488 240.80915 
L 174.950376 240.662492 
L 175.080264 240.590823 
L 175.34004 240.412624 
L 177.418244 239.068912 
L 177.807908 238.823438 
L 178.327459 238.550637 
L 178.457347 238.369143 
L 178.522291 238.405735 
L 178.652178 238.220481 
L 178.717122 238.313905 
L 178.782066 238.228349 
L 178.911954 238.100763 
L 178.976898 238.098838 
L 179.236674 237.855861 
L 179.626337 237.59646 
L 179.756225 237.51321 
L 180.016 237.368134 
L 180.275776 237.232008 
L 180.405664 237.092005 
L 180.535551 237.029887 
L 180.860271 236.805887 
L 180.990159 236.756407 
L 181.314878 236.476636 
L 181.50971 236.400591 
L 181.834429 236.184537 
L 183.782746 234.881884 
L 183.912634 234.746611 
L 184.107466 234.592938 
L 184.367241 234.459657 
L 185.3414 233.818403 
L 185.601176 233.751707 
L 185.796007 233.642027 
L 186.315558 233.356134 
L 186.770166 232.959737 
L 187.549492 232.212513 
L 187.809268 231.839633 
L 187.939156 231.803956 
L 188.263875 231.406767 
L 188.458707 231.326115 
L 188.653539 231.066321 
L 188.783427 230.97072 
L 188.978258 230.813496 
L 189.887473 229.989856 
L 190.082304 229.888447 
L 190.536912 229.359723 
L 190.926575 229.120904 
L 191.186351 228.845763 
L 191.316239 228.743597 
L 191.576014 228.496546 
L 191.965677 228.240382 
L 192.160509 228.038255 
L 192.355341 227.91636 
L 194.758265 225.88633 
L 195.018041 225.615733 
L 199.369282 222.018834 
L 199.758945 221.727936 
L 199.888833 221.652407 
L 200.213553 221.272288 
L 200.408384 221.231746 
L 200.603216 221.073338 
L 200.733104 220.806002 
L 200.798048 220.86152 
L 200.862992 220.875465 
L 200.992879 220.631528 
L 201.057823 220.660415 
L 201.51243 220.211866 
L 201.642318 220.138924 
L 201.967038 219.842847 
L 202.096926 219.788097 
L 202.551533 219.359305 
L 203.590635 218.50918 
L 203.915355 218.232203 
L 204.954457 217.359082 
L 205.409064 216.991746 
L 207.357381 215.340679 
L 207.552213 215.195423 
L 208.33154 214.533082 
L 208.526371 214.383101 
L 209.50053 213.5918 
L 210.085025 213.076571 
L 210.409744 212.755731 
L 210.604576 212.600397 
L 211.189071 212.102294 
L 211.448847 211.961253 
L 212.098286 211.356085 
L 212.747725 210.813995 
L 212.877613 210.661939 
L 213.0075 210.616099 
L 213.202332 210.51496 
L 213.916715 209.792813 
L 214.046603 209.747451 
L 214.371322 209.416459 
L 215.929976 208.146156 
L 216.189751 207.896254 
L 217.553573 206.760679 
L 217.618517 206.640243 
L 217.683461 206.686716 
L 217.748405 206.69272 
L 217.943237 206.449109 
L 218.3329 206.11364 
L 218.65762 205.800504 
L 219.112227 205.456674 
L 219.50189 205.067796 
L 219.631778 205.031939 
L 220.021441 204.655328 
L 220.476049 204.308518 
L 220.605936 204.147736 
L 220.735824 204.089294 
L 221.190432 203.686623 
L 224.762346 200.761829 
L 224.892234 200.666223 
L 225.022122 200.557116 
L 225.087065 200.581143 
L 225.281897 200.348687 
L 225.411785 200.235742 
L 225.736504 199.874674 
L 225.931336 199.801603 
L 226.385943 199.43902 
L 226.515831 199.317893 
L 226.905495 198.988978 
L 227.100326 198.844699 
L 227.425046 198.580157 
L 227.684821 198.397261 
L 228.074485 198.085921 
L 228.853811 197.441659 
L 229.243475 197.125414 
L 229.50325 196.884889 
L 231.906175 194.962283 
L 232.101006 194.814973 
L 233.919436 193.296766 
L 235.607977 191.968502 
L 235.737865 191.892177 
L 235.932696 191.72038 
L 236.647079 191.088182 
L 236.776967 191.022417 
L 236.971799 190.823281 
L 237.16663 190.679519 
L 238.530452 189.583734 
L 238.790228 189.382297 
L 239.050003 189.172455 
L 239.699442 188.680429 
L 239.959218 188.468937 
L 240.543713 187.957036 
L 240.933376 187.652497 
L 241.842591 186.922325 
L 242.102367 186.740293 
L 243.855852 185.329733 
L 244.050684 185.168385 
L 244.440347 184.822568 
L 244.635179 184.676471 
L 245.999001 183.601336 
L 246.713383 183.028271 
L 247.103047 182.715415 
L 247.297878 182.55942 
L 247.49271 182.463758 
L 248.856532 181.337009 
L 248.98642 181.26405 
L 249.376083 180.894677 
L 249.505971 180.841695 
L 249.895634 180.503207 
L 250.285298 180.241976 
L 255.091146 176.474054 
L 255.350922 176.254964 
L 256.844631 175.135937 
L 257.104407 174.916645 
L 257.623958 174.501046 
L 258.013622 174.213835 
L 258.208453 174.103403 
L 258.728005 173.622252 
L 258.857892 173.600794 
L 259.377443 173.119643 
L 259.572275 173.004465 
L 259.767107 172.858199 
L 259.896995 172.762604 
L 260.221714 172.443442 
L 260.416546 172.350327 
L 260.806209 171.990852 
L 260.936097 171.995487 
L 261.195873 171.772728 
L 268.14487 166.372362 
L 268.339701 166.239766 
L 268.599477 166.032426 
L 269.963299 164.97344 
L 271.457008 163.831429 
L 271.716784 163.655625 
L 272.366223 163.100371 
L 272.755886 162.855873 
L 273.14555 162.540998 
L 273.794989 162.04776 
L 274.769147 161.312403 
L 274.899035 161.197943 
L 275.028923 161.116342 
L 275.158811 161.037952 
L 275.353642 160.901708 
L 277.82151 159.024778 
L 278.211174 158.72594 
L 278.535893 158.477233 
L 278.730725 158.347275 
L 279.834771 157.4894 
L 280.289379 157.172897 
L 281.263537 156.44681 
L 281.393425 156.329163 
L 281.848032 156.008766 
L 282.042864 155.881556 
L 282.562415 155.459695 
L 282.692303 155.384985 
L 282.887135 155.223928 
L 283.017022 155.176041 
L 283.406686 154.853276 
L 284.056125 154.380643 
L 284.380844 154.145101 
L 287.887815 151.591464 
L 288.14759 151.360961 
L 288.991861 150.787043 
L 289.186693 150.650822 
L 289.576356 150.348134 
L 289.771188 150.227557 
L 290.225795 149.88917 
L 291.914336 148.69696 
L 292.109168 148.548472 
L 292.563775 148.241464 
L 292.888495 148.037547 
L 293.343102 147.605956 
L 293.537934 147.573489 
L 293.732765 147.378965 
L 293.862653 147.335893 
L 294.057485 147.175644 
L 294.187373 147.113223 
L 294.512092 146.818346 
L 295.031643 146.49979 
L 295.356363 146.301417 
L 295.746026 145.966161 
L 297.174792 144.979517 
L 297.629399 144.678098 
L 297.954119 144.420851 
L 298.668502 143.977543 
L 298.863333 143.815779 
L 298.993221 143.736625 
L 299.188053 143.60826 
L 299.317941 143.495337 
L 299.512772 143.382133 
L 299.64266 143.262915 
L 299.837492 143.152831 
L 300.097267 142.968251 
L 300.681763 142.518591 
L 301.201314 142.209585 
L 301.526033 141.994985 
L 302.175472 141.505641 
L 302.565136 141.233086 
L 302.954799 140.960072 
L 303.149631 140.847239 
L 305.487611 139.244176 
L 305.682443 139.12177 
L 306.266938 138.746561 
L 306.721545 138.368872 
L 308.47503 137.230789 
L 308.929638 136.900336 
L 310.033684 136.17746 
L 310.423347 135.938012 
L 311.787169 135.000557 
L 312.241776 134.703514 
L 313.215935 134.039501 
L 313.605598 133.80012 
L 313.995262 133.53293 
L 314.384925 133.293999 
L 315.29414 132.682586 
L 321.788529 128.435757 
L 321.983361 128.311544 
L 322.178193 128.208766 
L 322.567856 127.922902 
L 322.827632 127.786175 
L 328.542695 124.102614 
L 328.80247 123.976392 
L 329.257078 123.692604 
L 329.516853 123.505835 
L 330.101348 123.128719 
L 331.400226 122.320303 
L 331.854834 122.016818 
L 339.583157 117.276392 
L 339.972821 117.061264 
L 340.232596 116.90143 
L 340.492372 116.736827 
L 341.336643 116.168509 
L 341.726306 115.956142 
L 342.245857 115.711263 
L 345.493052 113.756088 
L 345.752828 113.607162 
L 346.337323 113.254152 
L 353.221376 109.239297 
L 354.195534 108.650419 
L 354.715086 108.368998 
L 356.208795 107.491944 
L 357.377785 106.83904 
L 358.092168 106.41893 
L 358.546776 106.145702 
L 359.45599 105.634867 
L 359.975541 105.290936 
L 360.235317 105.201625 
L 360.62498 104.91722 
L 361.014644 104.709128 
L 361.664083 104.358643 
L 362.11869 104.094797 
L 362.378466 103.958868 
L 362.898017 103.68665 
L 363.417568 103.387677 
L 364.196895 102.899534 
L 364.521614 102.763448 
L 365.300941 102.313664 
L 365.495773 102.235487 
L 366.015324 101.907671 
L 367.509033 101.079526 
L 367.703865 100.995557 
L 368.418248 100.554572 
L 369.002743 100.260537 
L 369.652182 99.870638 
L 369.976902 99.669258 
L 371.730387 98.715822 
L 372.184994 98.507169 
L 372.574657 98.281885 
L 373.678704 97.660259 
L 374.458031 97.232652 
L 375.432189 96.728438 
L 375.756908 96.537293 
L 376.016684 96.347584 
L 378.029945 95.286387 
L 378.224777 95.190635 
L 378.809272 94.837322 
L 379.133991 94.664515 
L 383.93984 92.094134 
L 384.199615 91.98175 
L 389.330183 89.206711 
L 389.589959 89.040323 
L 393.421649 87.025938 
L 393.9412 86.797937 
L 394.136032 86.64055 
L 394.330863 86.594514 
L 394.915358 86.256621 
L 395.175134 86.105878 
L 396.668844 85.318717 
L 396.863675 85.249473 
L 397.188395 85.05936 
L 397.513114 84.912298 
L 398.487273 84.378232 
L 398.487273 84.378232 
" clip-path="url(#pc051df00cf)" style="fill: none; stroke: #ff0000; stroke-width: 1.5; stroke-linecap: square"/>
   </g>
   <g id="patch_3">
    <path d="M 57.6 307.584 
L 57.6 41.472 
" style="fill: none; stroke: #000000; stroke-width: 0.8; stroke-linejoin: miter; stroke-linecap: square"/>
   </g>
   <g id="patch_4">
    <path d="M 414.72 307.584 
L 414.72 41.472 
" style="fill: none; stroke: #000000; stroke-width: 0.8; stroke-linejoin: miter; stroke-linecap: square"/>
   </g>
   <g id="patch_5">
    <path d="M 57.6 307.584 
L 414.72 307.584 
" style="fill: none; stroke: #000000; stroke-width: 0.8; stroke-linejoin: miter; stroke-linecap: square"/>
   </g>
   <g id="patch_6">
    <path d="M 57.6 41.472 
L 414.72 41.472 
" style="fill: none; stroke: #000000; stroke-width: 0.8; stroke-linejoin: miter; stroke-linecap: square"/>
   </g>
   <g id="text_14">
    <!-- Script19_loss -->
    <g transform="translate(196.532813 35.472) scale(0.12 -0.12)">
     <defs>
      <path id="DejaVuSans-53" d="M 3425 4513 
L 3425 3897 
Q 3066 4069 2747 4153 
Q 2428 4238 2131 4238 
Q 1616 4238 1336 4038 
Q 1056 3838 1056 3469 
Q 1056 3159 1242 3001 
Q 1428 2844 1947 2747 
L 2328 2669 
Q 3034 2534 3370 2195 
Q 3706 1856 3706 1288 
Q 3706 609 3251 259 
Q 2797 -91 1919 -91 
Q 1588 -91 1214 -16 
Q 841 59 441 206 
L 441 856 
Q 825 641 1194 531 
Q 1563 422 1919 422 
Q 2459 422 2753 634 
Q 3047 847 3047 1241 
Q 3047 1584 2836 1778 
Q 2625 1972 2144 2069 
L 1759 2144 
Q 1053 2284 737 2584 
Q 422 2884 422 3419 
Q 422 4038 858 4394 
Q 1294 4750 2059 4750 
Q 2388 4750 2728 4690 
Q 3069 4631 3425 4513 
z
" transform="scale(0.015625)"/>
      <path id="DejaVuSans-72" d="M 2631 2963 
Q 2534 3019 2420 3045 
Q 2306 3072 2169 3072 
Q 1681 3072 1420 2755 
Q 1159 2438 1159 1844 
L 1159 0 
L 581 0 
L 581 3500 
L 1159 3500 
L 1159 2956 
Q 1341 3275 1631 3429 
Q 1922 3584 2338 3584 
Q 2397 3584 2469 3576 
Q 2541 3569 2628 3553 
L 2631 2963 
z
" transform="scale(0.015625)"/>
      <path id="DejaVuSans-69" d="M 603 3500 
L 1178 3500 
L 1178 0 
L 603 0 
L 603 3500 
z
M 603 4863 
L 1178 4863 
L 1178 4134 
L 603 4134 
L 603 4863 
z
" transform="scale(0.015625)"/>
      <path id="DejaVuSans-74" d="M 1172 4494 
L 1172 3500 
L 2356 3500 
L 2356 3053 
L 1172 3053 
L 1172 1153 
Q 1172 725 1289 603 
Q 1406 481 1766 481 
L 2356 481 
L 2356 0 
L 1766 0 
Q 1100 0 847 248 
Q 594 497 594 1153 
L 594 3053 
L 172 3053 
L 172 3500 
L 594 3500 
L 594 4494 
L 1172 4494 
z
" transform="scale(0.015625)"/>
      <path id="DejaVuSans-39" d="M 703 97 
L 703 672 
Q 941 559 1184 500 
Q 1428 441 1663 441 
Q 2288 441 2617 861 
Q 2947 1281 2994 2138 
Q 2813 1869 2534 1725 
Q 2256 1581 1919 1581 
Q 1219 1581 811 2004 
Q 403 2428 403 3163 
Q 403 3881 828 4315 
Q 1253 4750 1959 4750 
Q 2769 4750 3195 4129 
Q 3622 3509 3622 2328 
Q 3622 1225 3098 567 
Q 2575 -91 1691 -91 
Q 1453 -91 1209 -44 
Q 966 3 703 97 
z
M 1959 2075 
Q 2384 2075 2632 2365 
Q 2881 2656 2881 3163 
Q 2881 3666 2632 3958 
Q 2384 4250 1959 4250 
Q 1534 4250 1286 3958 
Q 1038 3666 1038 3163 
Q 1038 2656 1286 2365 
Q 1534 2075 1959 2075 
z
" transform="scale(0.015625)"/>
      <path id="DejaVuSans-5f" d="M 3263 -1063 
L 3263 -1509 
L -63 -1509 
L -63 -1063 
L 3263 -1063 
z
" transform="scale(0.015625)"/>
     </defs>
     <use xlink:href="#DejaVuSans-53"/>
     <use xlink:href="#DejaVuSans-63" x="63.476562"/>
     <use xlink:href="#DejaVuSans-72" x="118.457031"/>
     <use xlink:href="#DejaVuSans-69" x="159.570312"/>
     <use xlink:href="#DejaVuSans-70" x="187.353516"/>
     <use xlink:href="#DejaVuSans-74" x="250.830078"/>
     <use xlink:href="#DejaVuSans-31" x="290.039062"/>
     <use xlink:href="#DejaVuSans-39" x="353.662109"/>
     <use xlink:href="#DejaVuSans-5f" x="417.285156"/>
     <use xlink:href="#DejaVuSans-6c" x="467.285156"/>
     <use xlink:href="#DejaVuSans-6f" x="495.068359"/>
     <use xlink:href="#DejaVuSans-73" x="556.25"/>
     <use xlink:href="#DejaVuSans-73" x="608.349609"/>
    </g>
   </g>
   <g id="legend_1">
    <g id="patch_7">
     <path d="M 64.6 93.506375 
L 164.295312 93.506375 
Q 166.295312 93.506375 166.295312 91.506375 
L 166.295312 48.472 
Q 166.295312 46.472 164.295312 46.472 
L 64.6 46.472 
Q 62.6 46.472 62.6 48.472 
L 62.6 91.506375 
Q 62.6 93.506375 64.6 93.506375 
z
" style="fill: #ffffff; opacity: 0.8; stroke: #cccccc; stroke-linejoin: miter"/>
    </g>
    <g id="line2d_15">
     <path d="M 66.6 54.570438 
L 76.6 54.570438 
L 86.6 54.570438 
" style="fill: none; stroke: #0000ff; stroke-width: 1.5; stroke-linecap: square"/>
    </g>
    <g id="text_15">
     <!-- training set -->
     <g transform="translate(94.6 58.070438) scale(0.1 -0.1)">
      <defs>
       <path id="DejaVuSans-61" d="M 2194 1759 
Q 1497 1759 1228 1600 
Q 959 1441 959 1056 
Q 959 750 1161 570 
Q 1363 391 1709 391 
Q 2188 391 2477 730 
Q 2766 1069 2766 1631 
L 2766 1759 
L 2194 1759 
z
M 3341 1997 
L 3341 0 
L 2766 0 
L 2766 531 
Q 2569 213 2275 61 
Q 1981 -91 1556 -91 
Q 1019 -91 701 211 
Q 384 513 384 1019 
Q 384 1609 779 1909 
Q 1175 2209 1959 2209 
L 2766 2209 
L 2766 2266 
Q 2766 2663 2505 2880 
Q 2244 3097 1772 3097 
Q 1472 3097 1187 3025 
Q 903 2953 641 2809 
L 641 3341 
Q 956 3463 1253 3523 
Q 1550 3584 1831 3584 
Q 2591 3584 2966 3190 
Q 3341 2797 3341 1997 
z
" transform="scale(0.015625)"/>
       <path id="DejaVuSans-6e" d="M 3513 2113 
L 3513 0 
L 2938 0 
L 2938 2094 
Q 2938 2591 2744 2837 
Q 2550 3084 2163 3084 
Q 1697 3084 1428 2787 
Q 1159 2491 1159 1978 
L 1159 0 
L 581 0 
L 581 3500 
L 1159 3500 
L 1159 2956 
Q 1366 3272 1645 3428 
Q 1925 3584 2291 3584 
Q 2894 3584 3203 3211 
Q 3513 2838 3513 2113 
z
" transform="scale(0.015625)"/>
       <path id="DejaVuSans-67" d="M 2906 1791 
Q 2906 2416 2648 2759 
Q 2391 3103 1925 3103 
Q 1463 3103 1205 2759 
Q 947 2416 947 1791 
Q 947 1169 1205 825 
Q 1463 481 1925 481 
Q 2391 481 2648 825 
Q 2906 1169 2906 1791 
z
M 3481 434 
Q 3481 -459 3084 -895 
Q 2688 -1331 1869 -1331 
Q 1566 -1331 1297 -1286 
Q 1028 -1241 775 -1147 
L 775 -588 
Q 1028 -725 1275 -790 
Q 1522 -856 1778 -856 
Q 2344 -856 2625 -561 
Q 2906 -266 2906 331 
L 2906 616 
Q 2728 306 2450 153 
Q 2172 0 1784 0 
Q 1141 0 747 490 
Q 353 981 353 1791 
Q 353 2603 747 3093 
Q 1141 3584 1784 3584 
Q 2172 3584 2450 3431 
Q 2728 3278 2906 2969 
L 2906 3500 
L 3481 3500 
L 3481 434 
z
" transform="scale(0.015625)"/>
       <path id="DejaVuSans-20" transform="scale(0.015625)"/>
      </defs>
      <use xlink:href="#DejaVuSans-74"/>
      <use xlink:href="#DejaVuSans-72" x="39.208984"/>
      <use xlink:href="#DejaVuSans-61" x="80.322266"/>
      <use xlink:href="#DejaVuSans-69" x="141.601562"/>
      <use xlink:href="#DejaVuSans-6e" x="169.384766"/>
      <use xlink:href="#DejaVuSans-69" x="232.763672"/>
      <use xlink:href="#DejaVuSans-6e" x="260.546875"/>
      <use xlink:href="#DejaVuSans-67" x="323.925781"/>
      <use xlink:href="#DejaVuSans-20" x="387.402344"/>
      <use xlink:href="#DejaVuSans-73" x="419.189453"/>
      <use xlink:href="#DejaVuSans-65" x="471.289062"/>
      <use xlink:href="#DejaVuSans-74" x="532.8125"/>
     </g>
    </g>
    <g id="line2d_16">
     <path d="M 66.6 69.248563 
L 76.6 69.248563 
L 86.6 69.248563 
" style="fill: none; stroke: #008000; stroke-width: 1.5; stroke-linecap: square"/>
    </g>
    <g id="text_16">
     <!-- validation set -->
     <g transform="translate(94.6 72.748563) scale(0.1 -0.1)">
      <defs>
       <path id="DejaVuSans-76" d="M 191 3500 
L 800 3500 
L 1894 563 
L 2988 3500 
L 3597 3500 
L 2284 0 
L 1503 0 
L 191 3500 
z
" transform="scale(0.015625)"/>
       <path id="DejaVuSans-64" d="M 2906 2969 
L 2906 4863 
L 3481 4863 
L 3481 0 
L 2906 0 
L 2906 525 
Q 2725 213 2448 61 
Q 2172 -91 1784 -91 
Q 1150 -91 751 415 
Q 353 922 353 1747 
Q 353 2572 751 3078 
Q 1150 3584 1784 3584 
Q 2172 3584 2448 3432 
Q 2725 3281 2906 2969 
z
M 947 1747 
Q 947 1113 1208 752 
Q 1469 391 1925 391 
Q 2381 391 2643 752 
Q 2906 1113 2906 1747 
Q 2906 2381 2643 2742 
Q 2381 3103 1925 3103 
Q 1469 3103 1208 2742 
Q 947 2381 947 1747 
z
" transform="scale(0.015625)"/>
      </defs>
      <use xlink:href="#DejaVuSans-76"/>
      <use xlink:href="#DejaVuSans-61" x="59.179688"/>
      <use xlink:href="#DejaVuSans-6c" x="120.458984"/>
      <use xlink:href="#DejaVuSans-69" x="148.242188"/>
      <use xlink:href="#DejaVuSans-64" x="176.025391"/>
      <use xlink:href="#DejaVuSans-61" x="239.501953"/>
      <use xlink:href="#DejaVuSans-74" x="300.78125"/>
      <use xlink:href="#DejaVuSans-69" x="339.990234"/>
      <use xlink:href="#DejaVuSans-6f" x="367.773438"/>
      <use xlink:href="#DejaVuSans-6e" x="428.955078"/>
      <use xlink:href="#DejaVuSans-20" x="492.333984"/>
      <use xlink:href="#DejaVuSans-73" x="524.121094"/>
      <use xlink:href="#DejaVuSans-65" x="576.220703"/>
      <use xlink:href="#DejaVuSans-74" x="637.744141"/>
     </g>
    </g>
    <g id="line2d_17">
     <path d="M 66.6 83.926688 
L 76.6 83.926688 
L 86.6 83.926688 
" style="fill: none; stroke: #ff0000; stroke-width: 1.5; stroke-linecap: square"/>
    </g>
    <g id="text_17">
     <!-- test set -->
     <g transform="translate(94.6 87.426688) scale(0.1 -0.1)">
      <use xlink:href="#DejaVuSans-74"/>
      <use xlink:href="#DejaVuSans-65" x="39.208984"/>
      <use xlink:href="#DejaVuSans-73" x="100.732422"/>
      <use xlink:href="#DejaVuSans-74" x="152.832031"/>
      <use xlink:href="#DejaVuSans-20" x="192.041016"/>
      <use xlink:href="#DejaVuSans-73" x="223.828125"/>
      <use xlink:href="#DejaVuSans-65" x="275.927734"/>
      <use xlink:href="#DejaVuSans-74" x="337.451172"/>
     </g>
    </g>
   </g>
  </g>
 </g>
 <defs>
  <clipPath id="pc051df00cf">
   <rect x="57.6" y="41.472" width="357.12" height="266.112"/>
  </clipPath>
 </defs>
</svg>
