<?xml version="1.0" encoding="utf-8" standalone="no"?>
<!DOCTYPE svg PUBLIC "-//W3C//DTD SVG 1.1//EN"
  "http://www.w3.org/Graphics/SVG/1.1/DTD/svg11.dtd">
<svg xmlns:xlink="http://www.w3.org/1999/xlink" width="460.8pt" height="345.6pt" viewBox="0 0 460.8 345.6" xmlns="http://www.w3.org/2000/svg" version="1.1">
 <metadata>
  <rdf:RDF xmlns:dc="http://purl.org/dc/elements/1.1/" xmlns:cc="http://creativecommons.org/ns#" xmlns:rdf="http://www.w3.org/1999/02/22-rdf-syntax-ns#">
   <cc:Work>
    <dc:type rdf:resource="http://purl.org/dc/dcmitype/StillImage"/>
    <dc:date>2023-06-14T04:02:12.112418</dc:date>
    <dc:format>image/svg+xml</dc:format>
    <dc:creator>
     <cc:Agent>
      <dc:title>Matplotlib v3.7.1, https://matplotlib.org/</dc:title>
     </cc:Agent>
    </dc:creator>
   </cc:Work>
  </rdf:RDF>
 </metadata>
 <defs>
  <style type="text/css">*{stroke-linejoin: round; stroke-linecap: butt}</style>
 </defs>
 <g id="figure_1">
  <g id="patch_1">
   <path d="M 0 345.6 
L 460.8 345.6 
L 460.8 0 
L 0 0 
z
" style="fill: #ffffff"/>
  </g>
  <g id="axes_1">
   <g id="patch_2">
    <path d="M 57.6 307.584 
L 414.72 307.584 
L 414.72 41.472 
L 57.6 41.472 
z
" style="fill: #ffffff"/>
   </g>
   <g id="matplotlib.axis_1">
    <g id="xtick_1">
     <g id="line2d_1">
      <defs>
       <path id="m0cfbdbfb32" d="M 0 0 
L 0 3.5 
" style="stroke: #000000; stroke-width: 0.8"/>
      </defs>
      <g>
       <use xlink:href="#m0cfbdbfb32" x="73.767783" y="307.584" style="stroke: #000000; stroke-width: 0.8"/>
      </g>
     </g>
     <g id="text_1">
      <!-- 0 -->
      <g transform="translate(70.586533 322.182437) scale(0.1 -0.1)">
       <defs>
        <path id="DejaVuSans-30" d="M 2034 4250 
Q 1547 4250 1301 3770 
Q 1056 3291 1056 2328 
Q 1056 1369 1301 889 
Q 1547 409 2034 409 
Q 2525 409 2770 889 
Q 3016 1369 3016 2328 
Q 3016 3291 2770 3770 
Q 2525 4250 2034 4250 
z
M 2034 4750 
Q 2819 4750 3233 4129 
Q 3647 3509 3647 2328 
Q 3647 1150 3233 529 
Q 2819 -91 2034 -91 
Q 1250 -91 836 529 
Q 422 1150 422 2328 
Q 422 3509 836 4129 
Q 1250 4750 2034 4750 
z
" transform="scale(0.015625)"/>
       </defs>
       <use xlink:href="#DejaVuSans-30"/>
      </g>
     </g>
    </g>
    <g id="xtick_2">
     <g id="line2d_2">
      <g>
       <use xlink:href="#m0cfbdbfb32" x="138.711681" y="307.584" style="stroke: #000000; stroke-width: 0.8"/>
      </g>
     </g>
     <g id="text_2">
      <!-- 1000 -->
      <g transform="translate(125.986681 322.182437) scale(0.1 -0.1)">
       <defs>
        <path id="DejaVuSans-31" d="M 794 531 
L 1825 531 
L 1825 4091 
L 703 3866 
L 703 4441 
L 1819 4666 
L 2450 4666 
L 2450 531 
L 3481 531 
L 3481 0 
L 794 0 
L 794 531 
z
" transform="scale(0.015625)"/>
       </defs>
       <use xlink:href="#DejaVuSans-31"/>
       <use xlink:href="#DejaVuSans-30" x="63.623047"/>
       <use xlink:href="#DejaVuSans-30" x="127.246094"/>
       <use xlink:href="#DejaVuSans-30" x="190.869141"/>
      </g>
     </g>
    </g>
    <g id="xtick_3">
     <g id="line2d_3">
      <g>
       <use xlink:href="#m0cfbdbfb32" x="203.655579" y="307.584" style="stroke: #000000; stroke-width: 0.8"/>
      </g>
     </g>
     <g id="text_3">
      <!-- 2000 -->
      <g transform="translate(190.930579 322.182437) scale(0.1 -0.1)">
       <defs>
        <path id="DejaVuSans-32" d="M 1228 531 
L 3431 531 
L 3431 0 
L 469 0 
L 469 531 
Q 828 903 1448 1529 
Q 2069 2156 2228 2338 
Q 2531 2678 2651 2914 
Q 2772 3150 2772 3378 
Q 2772 3750 2511 3984 
Q 2250 4219 1831 4219 
Q 1534 4219 1204 4116 
Q 875 4013 500 3803 
L 500 4441 
Q 881 4594 1212 4672 
Q 1544 4750 1819 4750 
Q 2544 4750 2975 4387 
Q 3406 4025 3406 3419 
Q 3406 3131 3298 2873 
Q 3191 2616 2906 2266 
Q 2828 2175 2409 1742 
Q 1991 1309 1228 531 
z
" transform="scale(0.015625)"/>
       </defs>
       <use xlink:href="#DejaVuSans-32"/>
       <use xlink:href="#DejaVuSans-30" x="63.623047"/>
       <use xlink:href="#DejaVuSans-30" x="127.246094"/>
       <use xlink:href="#DejaVuSans-30" x="190.869141"/>
      </g>
     </g>
    </g>
    <g id="xtick_4">
     <g id="line2d_4">
      <g>
       <use xlink:href="#m0cfbdbfb32" x="268.599477" y="307.584" style="stroke: #000000; stroke-width: 0.8"/>
      </g>
     </g>
     <g id="text_4">
      <!-- 3000 -->
      <g transform="translate(255.874477 322.182437) scale(0.1 -0.1)">
       <defs>
        <path id="DejaVuSans-33" d="M 2597 2516 
Q 3050 2419 3304 2112 
Q 3559 1806 3559 1356 
Q 3559 666 3084 287 
Q 2609 -91 1734 -91 
Q 1441 -91 1130 -33 
Q 819 25 488 141 
L 488 750 
Q 750 597 1062 519 
Q 1375 441 1716 441 
Q 2309 441 2620 675 
Q 2931 909 2931 1356 
Q 2931 1769 2642 2001 
Q 2353 2234 1838 2234 
L 1294 2234 
L 1294 2753 
L 1863 2753 
Q 2328 2753 2575 2939 
Q 2822 3125 2822 3475 
Q 2822 3834 2567 4026 
Q 2313 4219 1838 4219 
Q 1578 4219 1281 4162 
Q 984 4106 628 3988 
L 628 4550 
Q 988 4650 1302 4700 
Q 1616 4750 1894 4750 
Q 2613 4750 3031 4423 
Q 3450 4097 3450 3541 
Q 3450 3153 3228 2886 
Q 3006 2619 2597 2516 
z
" transform="scale(0.015625)"/>
       </defs>
       <use xlink:href="#DejaVuSans-33"/>
       <use xlink:href="#DejaVuSans-30" x="63.623047"/>
       <use xlink:href="#DejaVuSans-30" x="127.246094"/>
       <use xlink:href="#DejaVuSans-30" x="190.869141"/>
      </g>
     </g>
    </g>
    <g id="xtick_5">
     <g id="line2d_5">
      <g>
       <use xlink:href="#m0cfbdbfb32" x="333.543375" y="307.584" style="stroke: #000000; stroke-width: 0.8"/>
      </g>
     </g>
     <g id="text_5">
      <!-- 4000 -->
      <g transform="translate(320.818375 322.182437) scale(0.1 -0.1)">
       <defs>
        <path id="DejaVuSans-34" d="M 2419 4116 
L 825 1625 
L 2419 1625 
L 2419 4116 
z
M 2253 4666 
L 3047 4666 
L 3047 1625 
L 3713 1625 
L 3713 1100 
L 3047 1100 
L 3047 0 
L 2419 0 
L 2419 1100 
L 313 1100 
L 313 1709 
L 2253 4666 
z
" transform="scale(0.015625)"/>
       </defs>
       <use xlink:href="#DejaVuSans-34"/>
       <use xlink:href="#DejaVuSans-30" x="63.623047"/>
       <use xlink:href="#DejaVuSans-30" x="127.246094"/>
       <use xlink:href="#DejaVuSans-30" x="190.869141"/>
      </g>
     </g>
    </g>
    <g id="xtick_6">
     <g id="line2d_6">
      <g>
       <use xlink:href="#m0cfbdbfb32" x="398.487273" y="307.584" style="stroke: #000000; stroke-width: 0.8"/>
      </g>
     </g>
     <g id="text_6">
      <!-- 5000 -->
      <g transform="translate(385.762273 322.182437) scale(0.1 -0.1)">
       <defs>
        <path id="DejaVuSans-35" d="M 691 4666 
L 3169 4666 
L 3169 4134 
L 1269 4134 
L 1269 2991 
Q 1406 3038 1543 3061 
Q 1681 3084 1819 3084 
Q 2600 3084 3056 2656 
Q 3513 2228 3513 1497 
Q 3513 744 3044 326 
Q 2575 -91 1722 -91 
Q 1428 -91 1123 -41 
Q 819 9 494 109 
L 494 744 
Q 775 591 1075 516 
Q 1375 441 1709 441 
Q 2250 441 2565 725 
Q 2881 1009 2881 1497 
Q 2881 1984 2565 2268 
Q 2250 2553 1709 2553 
Q 1456 2553 1204 2497 
Q 953 2441 691 2322 
L 691 4666 
z
" transform="scale(0.015625)"/>
       </defs>
       <use xlink:href="#DejaVuSans-35"/>
       <use xlink:href="#DejaVuSans-30" x="63.623047"/>
       <use xlink:href="#DejaVuSans-30" x="127.246094"/>
       <use xlink:href="#DejaVuSans-30" x="190.869141"/>
      </g>
     </g>
    </g>
    <g id="text_7">
     <!-- epoch -->
     <g transform="translate(220.931875 335.860562) scale(0.1 -0.1)">
      <defs>
       <path id="DejaVuSans-65" d="M 3597 1894 
L 3597 1613 
L 953 1613 
Q 991 1019 1311 708 
Q 1631 397 2203 397 
Q 2534 397 2845 478 
Q 3156 559 3463 722 
L 3463 178 
Q 3153 47 2828 -22 
Q 2503 -91 2169 -91 
Q 1331 -91 842 396 
Q 353 884 353 1716 
Q 353 2575 817 3079 
Q 1281 3584 2069 3584 
Q 2775 3584 3186 3129 
Q 3597 2675 3597 1894 
z
M 3022 2063 
Q 3016 2534 2758 2815 
Q 2500 3097 2075 3097 
Q 1594 3097 1305 2825 
Q 1016 2553 972 2059 
L 3022 2063 
z
" transform="scale(0.015625)"/>
       <path id="DejaVuSans-70" d="M 1159 525 
L 1159 -1331 
L 581 -1331 
L 581 3500 
L 1159 3500 
L 1159 2969 
Q 1341 3281 1617 3432 
Q 1894 3584 2278 3584 
Q 2916 3584 3314 3078 
Q 3713 2572 3713 1747 
Q 3713 922 3314 415 
Q 2916 -91 2278 -91 
Q 1894 -91 1617 61 
Q 1341 213 1159 525 
z
M 3116 1747 
Q 3116 2381 2855 2742 
Q 2594 3103 2138 3103 
Q 1681 3103 1420 2742 
Q 1159 2381 1159 1747 
Q 1159 1113 1420 752 
Q 1681 391 2138 391 
Q 2594 391 2855 752 
Q 3116 1113 3116 1747 
z
" transform="scale(0.015625)"/>
       <path id="DejaVuSans-6f" d="M 1959 3097 
Q 1497 3097 1228 2736 
Q 959 2375 959 1747 
Q 959 1119 1226 758 
Q 1494 397 1959 397 
Q 2419 397 2687 759 
Q 2956 1122 2956 1747 
Q 2956 2369 2687 2733 
Q 2419 3097 1959 3097 
z
M 1959 3584 
Q 2709 3584 3137 3096 
Q 3566 2609 3566 1747 
Q 3566 888 3137 398 
Q 2709 -91 1959 -91 
Q 1206 -91 779 398 
Q 353 888 353 1747 
Q 353 2609 779 3096 
Q 1206 3584 1959 3584 
z
" transform="scale(0.015625)"/>
       <path id="DejaVuSans-63" d="M 3122 3366 
L 3122 2828 
Q 2878 2963 2633 3030 
Q 2388 3097 2138 3097 
Q 1578 3097 1268 2742 
Q 959 2388 959 1747 
Q 959 1106 1268 751 
Q 1578 397 2138 397 
Q 2388 397 2633 464 
Q 2878 531 3122 666 
L 3122 134 
Q 2881 22 2623 -34 
Q 2366 -91 2075 -91 
Q 1284 -91 818 406 
Q 353 903 353 1747 
Q 353 2603 823 3093 
Q 1294 3584 2113 3584 
Q 2378 3584 2631 3529 
Q 2884 3475 3122 3366 
z
" transform="scale(0.015625)"/>
       <path id="DejaVuSans-68" d="M 3513 2113 
L 3513 0 
L 2938 0 
L 2938 2094 
Q 2938 2591 2744 2837 
Q 2550 3084 2163 3084 
Q 1697 3084 1428 2787 
Q 1159 2491 1159 1978 
L 1159 0 
L 581 0 
L 581 4863 
L 1159 4863 
L 1159 2956 
Q 1366 3272 1645 3428 
Q 1925 3584 2291 3584 
Q 2894 3584 3203 3211 
Q 3513 2838 3513 2113 
z
" transform="scale(0.015625)"/>
      </defs>
      <use xlink:href="#DejaVuSans-65"/>
      <use xlink:href="#DejaVuSans-70" x="61.523438"/>
      <use xlink:href="#DejaVuSans-6f" x="125"/>
      <use xlink:href="#DejaVuSans-63" x="186.181641"/>
      <use xlink:href="#DejaVuSans-68" x="241.162109"/>
     </g>
    </g>
   </g>
   <g id="matplotlib.axis_2">
    <g id="ytick_1">
     <g id="line2d_7">
      <defs>
       <path id="mae6c3fe618" d="M 0 0 
L -3.5 0 
" style="stroke: #000000; stroke-width: 0.8"/>
      </defs>
      <g>
       <use xlink:href="#mae6c3fe618" x="57.6" y="295.78997" style="stroke: #000000; stroke-width: 0.8"/>
      </g>
     </g>
     <g id="text_8">
      <!-- 0 -->
      <g transform="translate(44.2375 299.589189) scale(0.1 -0.1)">
       <use xlink:href="#DejaVuSans-30"/>
      </g>
     </g>
    </g>
    <g id="ytick_2">
     <g id="line2d_8">
      <g>
       <use xlink:href="#mae6c3fe618" x="57.6" y="265.496071" style="stroke: #000000; stroke-width: 0.8"/>
      </g>
     </g>
     <g id="text_9">
      <!-- 5 -->
      <g transform="translate(44.2375 269.29529) scale(0.1 -0.1)">
       <use xlink:href="#DejaVuSans-35"/>
      </g>
     </g>
    </g>
    <g id="ytick_3">
     <g id="line2d_9">
      <g>
       <use xlink:href="#mae6c3fe618" x="57.6" y="235.202172" style="stroke: #000000; stroke-width: 0.8"/>
      </g>
     </g>
     <g id="text_10">
      <!-- 10 -->
      <g transform="translate(37.875 239.001391) scale(0.1 -0.1)">
       <use xlink:href="#DejaVuSans-31"/>
       <use xlink:href="#DejaVuSans-30" x="63.623047"/>
      </g>
     </g>
    </g>
    <g id="ytick_4">
     <g id="line2d_10">
      <g>
       <use xlink:href="#mae6c3fe618" x="57.6" y="204.908273" style="stroke: #000000; stroke-width: 0.8"/>
      </g>
     </g>
     <g id="text_11">
      <!-- 15 -->
      <g transform="translate(37.875 208.707492) scale(0.1 -0.1)">
       <use xlink:href="#DejaVuSans-31"/>
       <use xlink:href="#DejaVuSans-35" x="63.623047"/>
      </g>
     </g>
    </g>
    <g id="ytick_5">
     <g id="line2d_11">
      <g>
       <use xlink:href="#mae6c3fe618" x="57.6" y="174.614374" style="stroke: #000000; stroke-width: 0.8"/>
      </g>
     </g>
     <g id="text_12">
      <!-- 20 -->
      <g transform="translate(37.875 178.413593) scale(0.1 -0.1)">
       <use xlink:href="#DejaVuSans-32"/>
       <use xlink:href="#DejaVuSans-30" x="63.623047"/>
      </g>
     </g>
    </g>
    <g id="ytick_6">
     <g id="line2d_12">
      <g>
       <use xlink:href="#mae6c3fe618" x="57.6" y="144.320475" style="stroke: #000000; stroke-width: 0.8"/>
      </g>
     </g>
     <g id="text_13">
      <!-- 25 -->
      <g transform="translate(37.875 148.119694) scale(0.1 -0.1)">
       <use xlink:href="#DejaVuSans-32"/>
       <use xlink:href="#DejaVuSans-35" x="63.623047"/>
      </g>
     </g>
    </g>
    <g id="ytick_7">
     <g id="line2d_13">
      <g>
       <use xlink:href="#mae6c3fe618" x="57.6" y="114.026576" style="stroke: #000000; stroke-width: 0.8"/>
      </g>
     </g>
     <g id="text_14">
      <!-- 30 -->
      <g transform="translate(37.875 117.825795) scale(0.1 -0.1)">
       <use xlink:href="#DejaVuSans-33"/>
       <use xlink:href="#DejaVuSans-30" x="63.623047"/>
      </g>
     </g>
    </g>
    <g id="ytick_8">
     <g id="line2d_14">
      <g>
       <use xlink:href="#mae6c3fe618" x="57.6" y="83.732677" style="stroke: #000000; stroke-width: 0.8"/>
      </g>
     </g>
     <g id="text_15">
      <!-- 35 -->
      <g transform="translate(37.875 87.531896) scale(0.1 -0.1)">
       <use xlink:href="#DejaVuSans-33"/>
       <use xlink:href="#DejaVuSans-35" x="63.623047"/>
      </g>
     </g>
    </g>
    <g id="ytick_9">
     <g id="line2d_15">
      <g>
       <use xlink:href="#mae6c3fe618" x="57.6" y="53.438779" style="stroke: #000000; stroke-width: 0.8"/>
      </g>
     </g>
     <g id="text_16">
      <!-- 40 -->
      <g transform="translate(37.875 57.237997) scale(0.1 -0.1)">
       <use xlink:href="#DejaVuSans-34"/>
       <use xlink:href="#DejaVuSans-30" x="63.623047"/>
      </g>
     </g>
    </g>
    <g id="text_17">
     <!-- loss -->
     <g transform="translate(31.795313 184.185812) rotate(-90) scale(0.1 -0.1)">
      <defs>
       <path id="DejaVuSans-6c" d="M 603 4863 
L 1178 4863 
L 1178 0 
L 603 0 
L 603 4863 
z
" transform="scale(0.015625)"/>
       <path id="DejaVuSans-73" d="M 2834 3397 
L 2834 2853 
Q 2591 2978 2328 3040 
Q 2066 3103 1784 3103 
Q 1356 3103 1142 2972 
Q 928 2841 928 2578 
Q 928 2378 1081 2264 
Q 1234 2150 1697 2047 
L 1894 2003 
Q 2506 1872 2764 1633 
Q 3022 1394 3022 966 
Q 3022 478 2636 193 
Q 2250 -91 1575 -91 
Q 1294 -91 989 -36 
Q 684 19 347 128 
L 347 722 
Q 666 556 975 473 
Q 1284 391 1588 391 
Q 1994 391 2212 530 
Q 2431 669 2431 922 
Q 2431 1156 2273 1281 
Q 2116 1406 1581 1522 
L 1381 1569 
Q 847 1681 609 1914 
Q 372 2147 372 2553 
Q 372 3047 722 3315 
Q 1072 3584 1716 3584 
Q 2034 3584 2315 3537 
Q 2597 3491 2834 3397 
z
" transform="scale(0.015625)"/>
      </defs>
      <use xlink:href="#DejaVuSans-6c"/>
      <use xlink:href="#DejaVuSans-6f" x="27.783203"/>
      <use xlink:href="#DejaVuSans-73" x="88.964844"/>
      <use xlink:href="#DejaVuSans-73" x="141.064453"/>
     </g>
    </g>
   </g>
   <g id="line2d_16">
    <path d="M 73.832727 284.780423 
L 74.352278 285.125565 
L 76.04082 285.983213 
L 77.144866 286.941344 
L 79.417902 288.987557 
L 80.586893 289.717658 
L 81.820827 290.223961 
L 83.444424 290.634663 
L 86.107124 291.053663 
L 90.977916 291.566269 
L 98.316577 292.10006 
L 111.175469 292.683321 
L 165.728343 293.895289 
L 178.197571 294.071215 
L 225.931336 294.596064 
L 337.504953 295.285475 
L 398.487273 295.488 
L 398.487273 295.488 
" clip-path="url(#p4e0c59bd54)" style="fill: none; stroke: #0000ff; stroke-width: 1.5; stroke-linecap: square"/>
   </g>
   <g id="line2d_17">
    <path d="M 73.832727 284.782016 
L 74.417222 285.178385 
L 75.326437 285.537482 
L 76.04082 285.784015 
L 80.392061 288.378379 
L 81.366219 288.57664 
L 82.924873 288.609745 
L 86.691619 288.243829 
L 90.912972 287.631557 
L 91.757243 287.471344 
L 92.601514 287.30687 
L 93.056121 287.209144 
L 94.614775 286.847703 
L 94.809606 286.809677 
L 95.848709 286.588335 
L 96.563092 286.409033 
L 96.757923 286.377758 
L 98.641296 285.942944 
L 99.03096 285.853203 
L 99.680399 285.716165 
L 104.421303 284.573738 
L 104.746023 284.499592 
L 105.20063 284.392157 
L 105.785125 284.232615 
L 106.564452 284.027352 
L 108.837488 283.402178 
L 109.486927 283.19995 
L 110.006478 283.069032 
L 110.396142 282.930692 
L 110.655917 282.879436 
L 110.915693 282.78273 
L 111.3703 282.64867 
L 112.474347 282.297799 
L 112.604234 282.300738 
L 112.799066 282.239732 
L 113.448505 282.064095 
L 113.903112 282.017751 
L 114.747383 281.711941 
L 115.007159 281.637191 
L 115.266934 281.514945 
L 115.721541 281.408858 
L 116.046261 281.243305 
L 116.37098 281.163622 
L 121.501548 279.502831 
L 121.956156 279.340249 
L 122.540651 279.182819 
L 123.125146 278.979161 
L 126.307397 277.902796 
L 126.69706 277.760874 
L 126.956836 277.720058 
L 127.281555 277.554517 
L 127.411443 277.517365 
L 127.930994 277.358742 
L 129.164928 276.931159 
L 129.489648 276.803492 
L 129.684479 276.737574 
L 130.268975 276.569162 
L 130.983357 276.296837 
L 131.243133 276.225306 
L 131.502909 276.104906 
L 131.762684 276.049881 
L 131.892572 275.970945 
L 132.02246 275.916982 
L 132.736843 275.691269 
L 132.996618 275.554025 
L 133.126506 275.542752 
L 133.516169 275.41819 
L 134.425384 275.103389 
L 134.750103 274.974081 
L 139.36112 273.299726 
L 139.620896 273.157515 
L 139.750784 273.15382 
L 140.010559 273.043644 
L 140.400223 272.883192 
L 141.504269 272.457015 
L 141.764044 272.384035 
L 142.088764 272.238399 
L 142.34854 272.14673 
L 142.608315 272.011833 
L 142.868091 271.921297 
L 143.582474 271.656916 
L 144.037081 271.450779 
L 144.231913 271.381534 
L 144.621576 271.239066 
L 145.206071 270.975406 
L 145.530791 270.836682 
L 146.634837 270.372556 
L 146.699781 270.39629 
L 146.829668 270.31255 
L 146.959556 270.301072 
L 147.673939 269.977279 
L 147.868771 269.907699 
L 147.998659 269.814718 
L 149.427424 269.167651 
L 149.492368 269.186485 
L 149.752144 268.959937 
L 149.882032 268.994193 
L 150.141807 268.83368 
L 153.129227 267.625192 
L 153.259114 267.495133 
L 153.324058 267.537712 
L 153.453946 267.396738 
L 153.583834 267.404758 
L 153.713722 267.325687 
L 153.778666 267.369136 
L 153.908553 267.194689 
L 153.973497 267.297701 
L 154.038441 267.194562 
L 154.298217 267.038975 
L 154.428105 267.045392 
L 154.68788 266.92512 
L 155.337319 266.639523 
L 155.85687 266.433788 
L 156.311478 266.221688 
L 157.415524 265.784789 
L 157.675299 265.645586 
L 158.454626 265.344659 
L 160.85755 264.356826 
L 161.18227 264.198281 
L 161.701821 264.011059 
L 162.026541 263.811113 
L 162.156428 263.812517 
L 162.416204 263.665418 
L 162.67598 263.551038 
L 169.949696 260.511262 
L 170.01464 260.55939 
L 170.144528 260.413196 
L 170.209472 260.483538 
L 170.404303 260.377476 
L 170.729023 260.182349 
L 171.053742 260.078999 
L 171.378462 259.920448 
L 171.638237 259.812686 
L 172.092845 259.608826 
L 173.131947 259.139523 
L 173.391723 259.060204 
L 173.716442 258.899425 
L 176.314198 257.772305 
L 176.573974 257.585736 
L 176.703861 257.590165 
L 176.833749 257.517459 
L 176.898693 257.51253 
L 176.963637 257.393568 
L 177.028581 257.460684 
L 177.548132 257.182165 
L 177.67802 257.146496 
L 180.405664 255.887959 
L 180.535551 255.83281 
L 180.795327 255.740441 
L 187.614436 252.554338 
L 187.744324 252.514027 
L 188.0041 252.357507 
L 188.458707 252.18514 
L 188.783427 251.989387 
L 188.84837 252.024881 
L 189.043202 251.913919 
L 189.302978 251.749044 
L 189.887473 251.502492 
L 190.471968 251.217074 
L 190.731743 251.10959 
L 190.926575 251.022661 
L 191.186351 250.851808 
L 191.51107 250.745335 
L 191.770846 250.569094 
L 191.900734 250.538193 
L 192.355341 250.287195 
L 192.485229 250.276448 
L 192.745004 250.126558 
L 192.939836 250.026409 
L 193.849051 249.613289 
L 194.238714 249.394236 
L 194.49849 249.28494 
L 194.758265 249.154736 
L 194.888153 249.120605 
L 195.147928 248.974211 
L 195.407704 248.86807 
L 195.732424 248.692072 
L 208.201652 242.473972 
L 208.461428 242.31229 
L 209.370642 241.839808 
L 210.214913 241.35565 
L 210.539632 241.213127 
L 210.799408 241.032509 
L 211.059183 240.935836 
L 212.228174 240.299597 
L 212.487949 240.087489 
L 212.617837 240.06006 
L 212.877613 239.891842 
L 212.942557 239.93972 
L 213.0075 239.850835 
L 213.397164 239.641552 
L 213.916715 239.345494 
L 214.176491 239.263306 
L 214.436266 239.059501 
L 214.566154 239.022018 
L 214.82593 238.865443 
L 214.955817 238.834918 
L 215.345481 238.60462 
L 216.449527 238.053585 
L 216.709303 237.83151 
L 216.774246 237.882721 
L 216.969078 237.753892 
L 217.423685 237.490145 
L 218.462788 236.923741 
L 220.216273 235.9792 
L 220.346161 235.930872 
L 220.735824 235.729349 
L 221.060544 235.553903 
L 221.450207 235.346105 
L 224.697402 233.637942 
L 224.957178 233.468354 
L 225.606617 233.141129 
L 225.801448 232.986987 
L 226.061224 232.922127 
L 227.425046 232.141136 
L 227.554934 232.101793 
L 232.230894 229.580668 
L 232.360782 229.546092 
L 232.620558 229.394417 
L 232.685501 229.423215 
L 232.880333 229.288013 
L 233.075165 229.173832 
L 233.33494 229.016413 
L 233.399884 229.034175 
L 233.529772 228.93578 
L 233.594716 228.937016 
L 233.789548 228.800659 
L 233.984379 228.687645 
L 234.244155 228.506744 
L 234.374043 228.439163 
L 234.763706 228.265081 
L 235.218313 228.005378 
L 235.283257 228.038908 
L 235.543033 227.806397 
L 235.932696 227.654225 
L 236.582135 227.286351 
L 236.841911 227.178266 
L 237.101687 226.954832 
L 237.231574 226.928681 
L 237.49135 226.809513 
L 237.621238 226.721125 
L 261.780368 213.991139 
L 261.975199 213.85087 
L 262.949358 213.36444 
L 263.468909 213.024069 
L 263.598797 213.002893 
L 263.98846 212.720719 
L 264.248236 212.661563 
L 264.572955 212.4603 
L 267.430487 210.849428 
L 267.690262 210.696574 
L 267.885094 210.618466 
L 269.508692 209.685441 
L 270.677682 209.047169 
L 271.002401 208.852672 
L 271.262177 208.713229 
L 271.457008 208.564824 
L 271.65184 208.451972 
L 271.97656 208.304521 
L 272.366223 208.064845 
L 275.873194 206.035466 
L 276.003081 205.984705 
L 276.587576 205.648864 
L 276.717464 205.579302 
L 277.886454 204.88946 
L 278.081286 204.806533 
L 278.730725 204.430592 
L 280.159491 203.581609 
L 280.419266 203.434944 
L 281.068705 203.047043 
L 281.523313 202.769035 
L 281.718144 202.694116 
L 282.302639 202.30013 
L 282.497471 202.230718 
L 282.822191 202.005961 
L 283.341742 201.708909 
L 283.731405 201.506115 
L 283.991181 201.327127 
L 284.64062 200.978794 
L 285.030283 200.695707 
L 285.160171 200.668625 
L 285.419947 200.481218 
L 286.848712 199.648022 
L 287.043544 199.463296 
L 287.173432 199.443506 
L 289.966019 197.798757 
L 290.225795 197.690522 
L 290.485571 197.470642 
L 290.680402 197.376447 
L 291.97928 196.586592 
L 292.044224 196.595202 
L 292.239056 196.460757 
L 292.628719 196.209733 
L 292.953439 196.047773 
L 294.187373 195.299855 
L 294.447148 195.125934 
L 294.836812 194.865006 
L 294.9667 194.793034 
L 295.161531 194.693039 
L 295.356363 194.608829 
L 295.616139 194.413263 
L 295.746026 194.358625 
L 296.330521 194.033954 
L 296.590297 193.852429 
L 297.044904 193.584255 
L 297.30468 193.43124 
L 297.954119 193.032204 
L 298.343782 192.783133 
L 298.47367 192.720036 
L 299.902436 191.828902 
L 300.032324 191.777893 
L 301.461089 190.91253 
L 301.655921 190.782858 
L 301.98064 190.5875 
L 302.695023 190.139524 
L 302.889855 190.05484 
L 303.149631 189.869074 
L 304.903116 188.798912 
L 304.96806 188.806435 
L 305.162891 188.610083 
L 305.292779 188.606801 
L 305.552555 188.442426 
L 305.877274 188.222465 
L 306.591657 187.813086 
L 307.111208 187.455977 
L 307.435928 187.28179 
L 308.994581 186.3263 
L 309.124469 186.257298 
L 309.64402 185.936474 
L 309.903796 185.764333 
L 310.098628 185.65649 
L 311.397506 184.839779 
L 311.527393 184.776358 
L 311.917057 184.52961 
L 312.111889 184.426587 
L 312.371664 184.251776 
L 312.696384 184.062127 
L 313.086047 183.77759 
L 313.150991 183.830021 
L 313.345823 183.681651 
L 317.177513 181.261099 
L 317.437288 181.070873 
L 318.021783 180.747137 
L 318.216615 180.572673 
L 318.281559 180.586517 
L 318.476391 180.438771 
L 318.671222 180.314091 
L 318.736166 180.332593 
L 318.995942 180.07957 
L 319.190773 179.998896 
L 319.450549 179.811061 
L 319.840212 179.582491 
L 320.164932 179.348825 
L 320.29482 179.299537 
L 320.814371 178.955486 
L 321.853473 178.319976 
L 322.048305 178.143582 
L 323.412127 177.280691 
L 323.671902 177.134471 
L 326.789209 175.116827 
L 326.984041 174.94286 
L 327.113929 174.863388 
L 327.503592 174.671635 
L 327.698424 174.495704 
L 334.517533 169.96544 
L 334.712365 169.757128 
L 334.777309 169.857702 
L 334.972141 169.67442 
L 335.361804 169.384799 
L 335.686523 169.221232 
L 336.076187 168.907215 
L 336.595738 168.577332 
L 336.920458 168.313527 
L 337.050345 168.247795 
L 337.504953 167.976086 
L 337.829672 167.726633 
L 338.868774 167.080214 
L 339.063606 166.875785 
L 339.193494 166.828947 
L 339.518213 166.559179 
L 339.648101 166.496972 
L 340.037765 166.274169 
L 340.232596 166.098017 
L 340.362484 166.031951 
L 340.817091 165.699675 
L 341.076867 165.557557 
L 341.401586 165.306856 
L 341.596418 165.185447 
L 342.830352 164.35659 
L 343.025184 164.166594 
L 343.090128 164.199968 
L 343.349903 163.999607 
L 344.259118 163.373503 
L 344.908557 162.947634 
L 345.103389 162.754218 
L 345.168333 162.803667 
L 345.363164 162.633987 
L 345.557996 162.426565 
L 345.62294 162.476152 
L 345.817772 162.302601 
L 346.142491 162.052594 
L 346.272379 162.017775 
L 346.79193 161.617237 
L 346.986762 161.519275 
L 347.181593 161.345193 
L 347.311481 161.270493 
L 348.415527 160.463223 
L 348.480471 160.487468 
L 348.675303 160.310878 
L 349.12991 160.028097 
L 349.519574 159.770556 
L 350.363844 159.124321 
L 350.62362 158.999098 
L 350.948339 158.705675 
L 351.078227 158.634315 
L 351.338003 158.461446 
L 352.182274 157.880642 
L 352.701825 157.522516 
L 353.026544 157.246542 
L 353.156432 157.191581 
L 355.559356 155.508419 
L 355.884076 155.251051 
L 355.94902 155.274591 
L 356.208795 154.999646 
L 356.273739 155.032904 
L 356.468571 154.844585 
L 356.598459 154.787104 
L 356.858234 154.59868 
L 357.377785 154.206855 
L 357.832393 153.916275 
L 358.936439 153.153496 
L 359.131271 152.964459 
L 359.520934 152.73649 
L 359.78071 152.531344 
L 360.170373 152.285532 
L 360.365205 152.084651 
L 360.495092 152.009547 
L 360.689924 151.900271 
L 361.988802 150.96022 
L 362.248578 150.79336 
L 362.573297 150.543954 
L 362.833073 150.376528 
L 363.027904 150.19617 
L 363.157792 150.124695 
L 366.664763 147.727904 
L 366.859594 147.611105 
L 367.768809 147.014227 
L 368.158472 146.790094 
L 368.418248 146.605449 
L 368.937799 146.301394 
L 369.132631 146.128675 
L 369.262519 146.040524 
L 369.522294 145.884619 
L 369.847014 145.662012 
L 371.080948 144.787369 
L 371.27578 144.686507 
L 371.795331 144.311369 
L 372.184994 144.06142 
L 380.043206 138.517955 
L 380.238037 138.355336 
L 381.017364 137.821254 
L 382.056467 137.103394 
L 382.251298 136.905344 
L 382.381186 136.829651 
L 382.705906 136.546997 
L 382.835793 136.502102 
L 383.290401 136.180053 
L 383.874896 135.78861 
L 384.069727 135.645105 
L 386.407708 133.97788 
L 386.472652 133.980434 
L 386.667483 133.788231 
L 387.316922 133.36428 
L 387.641642 133.115579 
L 388.031305 132.827806 
L 389.460071 131.790579 
L 390.239398 131.224914 
L 390.823893 130.79158 
L 391.473332 130.267124 
L 391.538276 130.290422 
L 391.733107 130.060939 
L 391.798051 130.108215 
L 391.992883 129.941644 
L 392.317602 129.63678 
L 392.44749 129.564507 
L 393.226817 129.030067 
L 394.071088 128.410516 
L 394.590639 127.971449 
L 395.564797 127.288674 
L 397.837834 125.567181 
L 397.902778 125.567019 
L 398.097609 125.390937 
L 398.292441 125.285013 
L 398.487273 125.138596 
L 398.487273 125.138596 
" clip-path="url(#p4e0c59bd54)" style="fill: none; stroke: #008000; stroke-width: 1.5; stroke-linecap: square"/>
   </g>
   <g id="line2d_18">
    <path d="M 73.832727 284.734499 
L 74.287335 285.063785 
L 75.391381 285.426627 
L 76.300595 285.801289 
L 79.352959 287.26105 
L 80.521949 287.456154 
L 81.820827 287.402684 
L 84.288695 286.99968 
L 90.848029 285.469895 
L 101.953435 281.277137 
L 102.343098 281.11955 
L 104.03164 280.418053 
L 105.005798 280.039827 
L 106.36962 279.459169 
L 110.655917 277.524689 
L 111.110525 277.287928 
L 112.214571 276.809621 
L 112.669178 276.57861 
L 113.058842 276.447695 
L 113.838168 276.193044 
L 114.097944 276.119906 
L 114.487607 275.899209 
L 115.072102 275.570016 
L 115.721541 275.284174 
L 116.046261 275.07385 
L 116.500868 274.857954 
L 131.762684 267.140034 
L 132.02246 266.982433 
L 133.126506 266.415399 
L 133.775945 266.087353 
L 135.85415 265.01074 
L 137.02314 264.394008 
L 137.477747 264.162234 
L 139.555952 263.045356 
L 140.140447 262.740575 
L 140.984718 262.289479 
L 146.18023 259.29225 
L 146.829668 258.937711 
L 147.089444 258.894641 
L 147.608995 258.478829 
L 147.933715 258.35761 
L 148.258434 258.030402 
L 148.323378 258.099493 
L 148.51821 257.975963 
L 148.972817 257.622219 
L 149.492368 257.361266 
L 149.752144 257.093254 
L 149.882032 257.09868 
L 150.206751 256.862517 
L 150.466527 256.760464 
L 150.791246 256.525943 
L 151.505629 256.109073 
L 152.02518 255.78519 
L 152.3499 255.617408 
L 152.674619 255.387469 
L 152.934395 255.269292 
L 153.19417 255.057383 
L 154.038441 254.58879 
L 154.298217 254.391783 
L 154.493048 254.295791 
L 155.85687 253.499242 
L 156.376421 253.183339 
L 156.766085 252.94585 
L 157.090804 252.747942 
L 157.415524 252.579241 
L 157.675299 252.395056 
L 158.194851 252.108808 
L 158.84429 251.734795 
L 159.169009 251.534673 
L 159.428785 251.342392 
L 160.273055 250.88377 
L 160.792607 250.576048 
L 161.312158 250.265108 
L 161.636877 250.06618 
L 161.896653 249.923952 
L 162.935755 249.283186 
L 163.585194 248.899249 
L 164.104745 248.609341 
L 164.624296 248.28718 
L 164.949016 248.099675 
L 165.208792 247.959689 
L 165.468567 247.7556 
L 165.988118 247.479823 
L 166.832389 246.977293 
L 167.35194 246.679674 
L 167.741604 246.43626 
L 168.261155 246.135701 
L 168.52093 245.967471 
L 168.715762 245.857317 
L 169.235313 245.56294 
L 169.495089 245.398449 
L 169.819808 245.229723 
L 170.144528 244.99757 
L 170.209472 245.031239 
L 170.469247 244.836719 
L 171.248574 244.359841 
L 171.833069 244.018182 
L 172.482508 243.604054 
L 173.196891 243.198367 
L 173.716442 242.86281 
L 176.314198 241.285428 
L 176.573974 241.067178 
L 176.703861 241.033786 
L 176.963637 240.808613 
L 177.093525 240.790106 
L 177.3533 240.601041 
L 177.67802 240.4139 
L 186.51039 234.640304 
L 187.029941 234.279109 
L 187.67938 233.880489 
L 188.198931 233.480113 
L 188.458707 233.347471 
L 188.783427 233.091322 
L 188.913314 233.015172 
L 189.627697 232.550382 
L 191.965677 230.962305 
L 192.225453 230.817633 
L 193.134668 230.18359 
L 193.459387 229.966379 
L 206.188391 221.393882 
L 206.707942 221.022628 
L 207.032662 220.828304 
L 207.422325 220.549072 
L 208.591315 219.752421 
L 209.17581 219.321491 
L 212.423005 216.962453 
L 212.682781 216.740239 
L 212.812669 216.679632 
L 213.202332 216.403387 
L 214.306378 215.602611 
L 221.645039 210.242797 
L 222.099646 209.903218 
L 222.359422 209.721601 
L 222.684141 209.484825 
L 223.073805 209.210608 
L 223.528412 208.856341 
L 223.983019 208.529312 
L 224.892234 207.827377 
L 225.411785 207.484787 
L 225.801448 207.16193 
L 226.126168 206.960378 
L 226.840551 206.39688 
L 227.16527 206.185211 
L 227.944597 205.569756 
L 228.074485 205.525161 
L 228.529092 205.160597 
L 228.723924 205.026626 
L 230.477409 203.733932 
L 231.061904 203.273226 
L 231.191792 203.21121 
L 231.451567 203.011513 
L 231.711343 202.848911 
L 232.036062 202.570765 
L 232.360782 202.362464 
L 232.815389 202.023244 
L 233.010221 201.914939 
L 233.33494 201.642732 
L 233.594716 201.483644 
L 233.854492 201.220347 
L 233.984379 201.17585 
L 234.244155 200.949181 
L 234.374043 200.844909 
L 234.763706 200.608273 
L 235.218313 200.253168 
L 235.348201 200.156368 
L 236.582135 199.261241 
L 236.841911 199.090833 
L 237.101687 198.838862 
L 237.361462 198.723034 
L 237.816069 198.303463 
L 238.140789 198.134604 
L 238.66034 197.71702 
L 239.959218 196.767539 
L 240.413825 196.415248 
L 240.868433 196.069175 
L 241.32304 195.745936 
L 241.582815 195.542154 
L 242.556974 194.829841 
L 242.81675 194.672469 
L 243.271357 194.256226 
L 243.401245 194.196538 
L 244.570235 193.307669 
L 244.635179 193.323409 
L 244.959898 193.023213 
L 245.349562 192.773356 
L 246.193832 192.088744 
L 246.32372 192.030974 
L 246.778327 191.697347 
L 247.038103 191.496673 
L 247.297878 191.288234 
L 247.427766 191.202198 
L 247.687542 190.999502 
L 247.947317 190.848069 
L 248.207093 190.575031 
L 248.401925 190.485771 
L 249.051364 190.009933 
L 249.441027 189.682638 
L 249.765747 189.474164 
L 250.610017 188.845714 
L 252.558334 187.364544 
L 252.688222 187.280923 
L 252.947998 187.093897 
L 253.207773 186.861803 
L 253.792268 186.400976 
L 253.922156 186.346639 
L 254.311819 186.029386 
L 254.506651 185.93303 
L 257.169351 183.899705 
L 257.49407 183.647814 
L 257.81879 183.402765 
L 260.221714 181.550189 
L 260.936097 180.985738 
L 262.624638 179.693038 
L 263.274077 179.140489 
L 263.533853 179.001434 
L 266.196553 176.852915 
L 266.326441 176.77253 
L 266.97588 176.23103 
L 267.300599 176.008007 
L 267.690262 175.669491 
L 267.885094 175.548624 
L 268.794309 174.818145 
L 269.248916 174.448277 
L 272.885774 171.470058 
L 273.015662 171.381468 
L 274.054764 170.54028 
L 275.873194 169.028787 
L 276.003081 168.955347 
L 276.587576 168.463989 
L 276.717464 168.358353 
L 289.576356 157.61344 
L 289.966019 157.30096 
L 290.225795 157.105498 
L 290.485571 156.845958 
L 290.745346 156.642303 
L 291.199953 156.253228 
L 291.914336 155.640507 
L 292.693663 155.004257 
L 293.083326 154.64747 
L 293.343102 154.434859 
L 294.836812 153.137617 
L 295.096587 152.955237 
L 295.616139 152.479757 
L 295.875914 152.275536 
L 296.13569 152.032405 
L 296.460409 151.772564 
L 298.343782 150.140446 
L 298.538614 149.958806 
L 299.382885 149.246493 
L 299.64266 149.012029 
L 301.98064 146.97363 
L 302.500192 146.505604 
L 302.759967 146.27968 
L 303.344462 145.764955 
L 303.734126 145.400368 
L 304.64334 144.626761 
L 305.033004 144.209316 
L 305.097948 144.222178 
L 305.357723 143.94899 
L 305.422667 143.949579 
L 305.682443 143.621475 
L 305.81233 143.543552 
L 306.786489 142.655088 
L 311.527393 138.361553 
L 311.787169 138.132578 
L 313.086047 136.897231 
L 313.215935 136.794358 
L 313.47571 136.571161 
L 313.930318 136.123798 
L 314.255037 135.848298 
L 314.839532 135.285499 
L 317.697064 132.617622 
L 317.826952 132.512911 
L 318.346503 131.966383 
L 318.476391 131.872397 
L 319.255717 131.128397 
L 319.580437 130.850378 
L 320.035044 130.421099 
L 320.29482 130.187537 
L 320.814371 129.67436 
L 321.074146 129.451083 
L 321.918417 128.585327 
L 321.983361 128.620076 
L 322.243137 128.301021 
L 322.308081 128.310289 
L 322.502912 128.088549 
L 323.606958 127.035224 
L 326.13977 124.614372 
L 326.854153 123.909755 
L 327.243817 123.56924 
L 327.568536 123.22423 
L 327.763368 123.054758 
L 328.477751 122.362125 
L 328.737526 122.123282 
L 329.322021 121.505221 
L 329.386965 121.519216 
L 329.646741 121.168543 
L 329.711685 121.19934 
L 329.906517 120.949691 
L 330.166292 120.74577 
L 330.555956 120.33764 
L 331.46517 119.482145 
L 332.244497 118.697317 
L 334.647421 116.438784 
L 334.842253 116.213392 
L 335.102028 116.013562 
L 335.361804 115.718833 
L 335.686523 115.449261 
L 336.660682 114.471144 
L 337.115289 114.048383 
L 344.583837 106.824114 
L 344.973501 106.41915 
L 345.168333 106.282671 
L 345.428108 105.97182 
L 345.817772 105.616525 
L 346.662042 104.786859 
L 348.025864 103.463939 
L 348.28564 103.192229 
L 348.610359 102.900574 
L 349.000023 102.487625 
L 349.389686 102.139956 
L 349.649462 101.840997 
L 350.039125 101.507878 
L 350.428788 101.089104 
L 366.404987 85.262511 
L 367.509033 84.272144 
L 368.093529 83.701245 
L 368.483192 83.349797 
L 371.27578 80.644467 
L 371.795331 80.113205 
L 372.379826 79.557998 
L 373.28904 78.615705 
L 373.418928 78.516807 
L 375.756908 76.185458 
L 376.016684 75.946869 
L 387.511754 64.531187 
L 388.356025 63.665234 
L 388.94052 63.084789 
L 390.369285 61.680687 
L 391.018724 60.96723 
L 391.213556 60.795759 
L 394.980302 57.050093 
L 395.564797 56.472745 
L 396.6039 55.425082 
L 396.993563 55.038273 
L 398.487273 53.568 
L 398.487273 53.568 
" clip-path="url(#p4e0c59bd54)" style="fill: none; stroke: #ff0000; stroke-width: 1.5; stroke-linecap: square"/>
   </g>
   <g id="patch_3">
    <path d="M 57.6 307.584 
L 57.6 41.472 
" style="fill: none; stroke: #000000; stroke-width: 0.8; stroke-linejoin: miter; stroke-linecap: square"/>
   </g>
   <g id="patch_4">
    <path d="M 414.72 307.584 
L 414.72 41.472 
" style="fill: none; stroke: #000000; stroke-width: 0.8; stroke-linejoin: miter; stroke-linecap: square"/>
   </g>
   <g id="patch_5">
    <path d="M 57.6 307.584 
L 414.72 307.584 
" style="fill: none; stroke: #000000; stroke-width: 0.8; stroke-linejoin: miter; stroke-linecap: square"/>
   </g>
   <g id="patch_6">
    <path d="M 57.6 41.472 
L 414.72 41.472 
" style="fill: none; stroke: #000000; stroke-width: 0.8; stroke-linejoin: miter; stroke-linecap: square"/>
   </g>
   <g id="text_18">
    <!-- Script19_loss -->
    <g transform="translate(196.532813 35.472) scale(0.12 -0.12)">
     <defs>
      <path id="DejaVuSans-53" d="M 3425 4513 
L 3425 3897 
Q 3066 4069 2747 4153 
Q 2428 4238 2131 4238 
Q 1616 4238 1336 4038 
Q 1056 3838 1056 3469 
Q 1056 3159 1242 3001 
Q 1428 2844 1947 2747 
L 2328 2669 
Q 3034 2534 3370 2195 
Q 3706 1856 3706 1288 
Q 3706 609 3251 259 
Q 2797 -91 1919 -91 
Q 1588 -91 1214 -16 
Q 841 59 441 206 
L 441 856 
Q 825 641 1194 531 
Q 1563 422 1919 422 
Q 2459 422 2753 634 
Q 3047 847 3047 1241 
Q 3047 1584 2836 1778 
Q 2625 1972 2144 2069 
L 1759 2144 
Q 1053 2284 737 2584 
Q 422 2884 422 3419 
Q 422 4038 858 4394 
Q 1294 4750 2059 4750 
Q 2388 4750 2728 4690 
Q 3069 4631 3425 4513 
z
" transform="scale(0.015625)"/>
      <path id="DejaVuSans-72" d="M 2631 2963 
Q 2534 3019 2420 3045 
Q 2306 3072 2169 3072 
Q 1681 3072 1420 2755 
Q 1159 2438 1159 1844 
L 1159 0 
L 581 0 
L 581 3500 
L 1159 3500 
L 1159 2956 
Q 1341 3275 1631 3429 
Q 1922 3584 2338 3584 
Q 2397 3584 2469 3576 
Q 2541 3569 2628 3553 
L 2631 2963 
z
" transform="scale(0.015625)"/>
      <path id="DejaVuSans-69" d="M 603 3500 
L 1178 3500 
L 1178 0 
L 603 0 
L 603 3500 
z
M 603 4863 
L 1178 4863 
L 1178 4134 
L 603 4134 
L 603 4863 
z
" transform="scale(0.015625)"/>
      <path id="DejaVuSans-74" d="M 1172 4494 
L 1172 3500 
L 2356 3500 
L 2356 3053 
L 1172 3053 
L 1172 1153 
Q 1172 725 1289 603 
Q 1406 481 1766 481 
L 2356 481 
L 2356 0 
L 1766 0 
Q 1100 0 847 248 
Q 594 497 594 1153 
L 594 3053 
L 172 3053 
L 172 3500 
L 594 3500 
L 594 4494 
L 1172 4494 
z
" transform="scale(0.015625)"/>
      <path id="DejaVuSans-39" d="M 703 97 
L 703 672 
Q 941 559 1184 500 
Q 1428 441 1663 441 
Q 2288 441 2617 861 
Q 2947 1281 2994 2138 
Q 2813 1869 2534 1725 
Q 2256 1581 1919 1581 
Q 1219 1581 811 2004 
Q 403 2428 403 3163 
Q 403 3881 828 4315 
Q 1253 4750 1959 4750 
Q 2769 4750 3195 4129 
Q 3622 3509 3622 2328 
Q 3622 1225 3098 567 
Q 2575 -91 1691 -91 
Q 1453 -91 1209 -44 
Q 966 3 703 97 
z
M 1959 2075 
Q 2384 2075 2632 2365 
Q 2881 2656 2881 3163 
Q 2881 3666 2632 3958 
Q 2384 4250 1959 4250 
Q 1534 4250 1286 3958 
Q 1038 3666 1038 3163 
Q 1038 2656 1286 2365 
Q 1534 2075 1959 2075 
z
" transform="scale(0.015625)"/>
      <path id="DejaVuSans-5f" d="M 3263 -1063 
L 3263 -1509 
L -63 -1509 
L -63 -1063 
L 3263 -1063 
z
" transform="scale(0.015625)"/>
     </defs>
     <use xlink:href="#DejaVuSans-53"/>
     <use xlink:href="#DejaVuSans-63" x="63.476562"/>
     <use xlink:href="#DejaVuSans-72" x="118.457031"/>
     <use xlink:href="#DejaVuSans-69" x="159.570312"/>
     <use xlink:href="#DejaVuSans-70" x="187.353516"/>
     <use xlink:href="#DejaVuSans-74" x="250.830078"/>
     <use xlink:href="#DejaVuSans-31" x="290.039062"/>
     <use xlink:href="#DejaVuSans-39" x="353.662109"/>
     <use xlink:href="#DejaVuSans-5f" x="417.285156"/>
     <use xlink:href="#DejaVuSans-6c" x="467.285156"/>
     <use xlink:href="#DejaVuSans-6f" x="495.068359"/>
     <use xlink:href="#DejaVuSans-73" x="556.25"/>
     <use xlink:href="#DejaVuSans-73" x="608.349609"/>
    </g>
   </g>
   <g id="legend_1">
    <g id="patch_7">
     <path d="M 64.6 93.506375 
L 164.295312 93.506375 
Q 166.295312 93.506375 166.295312 91.506375 
L 166.295312 48.472 
Q 166.295312 46.472 164.295312 46.472 
L 64.6 46.472 
Q 62.6 46.472 62.6 48.472 
L 62.6 91.506375 
Q 62.6 93.506375 64.6 93.506375 
z
" style="fill: #ffffff; opacity: 0.8; stroke: #cccccc; stroke-linejoin: miter"/>
    </g>
    <g id="line2d_19">
     <path d="M 66.6 54.570438 
L 76.6 54.570438 
L 86.6 54.570438 
" style="fill: none; stroke: #0000ff; stroke-width: 1.5; stroke-linecap: square"/>
    </g>
    <g id="text_19">
     <!-- training set -->
     <g transform="translate(94.6 58.070438) scale(0.1 -0.1)">
      <defs>
       <path id="DejaVuSans-61" d="M 2194 1759 
Q 1497 1759 1228 1600 
Q 959 1441 959 1056 
Q 959 750 1161 570 
Q 1363 391 1709 391 
Q 2188 391 2477 730 
Q 2766 1069 2766 1631 
L 2766 1759 
L 2194 1759 
z
M 3341 1997 
L 3341 0 
L 2766 0 
L 2766 531 
Q 2569 213 2275 61 
Q 1981 -91 1556 -91 
Q 1019 -91 701 211 
Q 384 513 384 1019 
Q 384 1609 779 1909 
Q 1175 2209 1959 2209 
L 2766 2209 
L 2766 2266 
Q 2766 2663 2505 2880 
Q 2244 3097 1772 3097 
Q 1472 3097 1187 3025 
Q 903 2953 641 2809 
L 641 3341 
Q 956 3463 1253 3523 
Q 1550 3584 1831 3584 
Q 2591 3584 2966 3190 
Q 3341 2797 3341 1997 
z
" transform="scale(0.015625)"/>
       <path id="DejaVuSans-6e" d="M 3513 2113 
L 3513 0 
L 2938 0 
L 2938 2094 
Q 2938 2591 2744 2837 
Q 2550 3084 2163 3084 
Q 1697 3084 1428 2787 
Q 1159 2491 1159 1978 
L 1159 0 
L 581 0 
L 581 3500 
L 1159 3500 
L 1159 2956 
Q 1366 3272 1645 3428 
Q 1925 3584 2291 3584 
Q 2894 3584 3203 3211 
Q 3513 2838 3513 2113 
z
" transform="scale(0.015625)"/>
       <path id="DejaVuSans-67" d="M 2906 1791 
Q 2906 2416 2648 2759 
Q 2391 3103 1925 3103 
Q 1463 3103 1205 2759 
Q 947 2416 947 1791 
Q 947 1169 1205 825 
Q 1463 481 1925 481 
Q 2391 481 2648 825 
Q 2906 1169 2906 1791 
z
M 3481 434 
Q 3481 -459 3084 -895 
Q 2688 -1331 1869 -1331 
Q 1566 -1331 1297 -1286 
Q 1028 -1241 775 -1147 
L 775 -588 
Q 1028 -725 1275 -790 
Q 1522 -856 1778 -856 
Q 2344 -856 2625 -561 
Q 2906 -266 2906 331 
L 2906 616 
Q 2728 306 2450 153 
Q 2172 0 1784 0 
Q 1141 0 747 490 
Q 353 981 353 1791 
Q 353 2603 747 3093 
Q 1141 3584 1784 3584 
Q 2172 3584 2450 3431 
Q 2728 3278 2906 2969 
L 2906 3500 
L 3481 3500 
L 3481 434 
z
" transform="scale(0.015625)"/>
       <path id="DejaVuSans-20" transform="scale(0.015625)"/>
      </defs>
      <use xlink:href="#DejaVuSans-74"/>
      <use xlink:href="#DejaVuSans-72" x="39.208984"/>
      <use xlink:href="#DejaVuSans-61" x="80.322266"/>
      <use xlink:href="#DejaVuSans-69" x="141.601562"/>
      <use xlink:href="#DejaVuSans-6e" x="169.384766"/>
      <use xlink:href="#DejaVuSans-69" x="232.763672"/>
      <use xlink:href="#DejaVuSans-6e" x="260.546875"/>
      <use xlink:href="#DejaVuSans-67" x="323.925781"/>
      <use xlink:href="#DejaVuSans-20" x="387.402344"/>
      <use xlink:href="#DejaVuSans-73" x="419.189453"/>
      <use xlink:href="#DejaVuSans-65" x="471.289062"/>
      <use xlink:href="#DejaVuSans-74" x="532.8125"/>
     </g>
    </g>
    <g id="line2d_20">
     <path d="M 66.6 69.248563 
L 76.6 69.248563 
L 86.6 69.248563 
" style="fill: none; stroke: #008000; stroke-width: 1.5; stroke-linecap: square"/>
    </g>
    <g id="text_20">
     <!-- validation set -->
     <g transform="translate(94.6 72.748563) scale(0.1 -0.1)">
      <defs>
       <path id="DejaVuSans-76" d="M 191 3500 
L 800 3500 
L 1894 563 
L 2988 3500 
L 3597 3500 
L 2284 0 
L 1503 0 
L 191 3500 
z
" transform="scale(0.015625)"/>
       <path id="DejaVuSans-64" d="M 2906 2969 
L 2906 4863 
L 3481 4863 
L 3481 0 
L 2906 0 
L 2906 525 
Q 2725 213 2448 61 
Q 2172 -91 1784 -91 
Q 1150 -91 751 415 
Q 353 922 353 1747 
Q 353 2572 751 3078 
Q 1150 3584 1784 3584 
Q 2172 3584 2448 3432 
Q 2725 3281 2906 2969 
z
M 947 1747 
Q 947 1113 1208 752 
Q 1469 391 1925 391 
Q 2381 391 2643 752 
Q 2906 1113 2906 1747 
Q 2906 2381 2643 2742 
Q 2381 3103 1925 3103 
Q 1469 3103 1208 2742 
Q 947 2381 947 1747 
z
" transform="scale(0.015625)"/>
      </defs>
      <use xlink:href="#DejaVuSans-76"/>
      <use xlink:href="#DejaVuSans-61" x="59.179688"/>
      <use xlink:href="#DejaVuSans-6c" x="120.458984"/>
      <use xlink:href="#DejaVuSans-69" x="148.242188"/>
      <use xlink:href="#DejaVuSans-64" x="176.025391"/>
      <use xlink:href="#DejaVuSans-61" x="239.501953"/>
      <use xlink:href="#DejaVuSans-74" x="300.78125"/>
      <use xlink:href="#DejaVuSans-69" x="339.990234"/>
      <use xlink:href="#DejaVuSans-6f" x="367.773438"/>
      <use xlink:href="#DejaVuSans-6e" x="428.955078"/>
      <use xlink:href="#DejaVuSans-20" x="492.333984"/>
      <use xlink:href="#DejaVuSans-73" x="524.121094"/>
      <use xlink:href="#DejaVuSans-65" x="576.220703"/>
      <use xlink:href="#DejaVuSans-74" x="637.744141"/>
     </g>
    </g>
    <g id="line2d_21">
     <path d="M 66.6 83.926688 
L 76.6 83.926688 
L 86.6 83.926688 
" style="fill: none; stroke: #ff0000; stroke-width: 1.5; stroke-linecap: square"/>
    </g>
    <g id="text_21">
     <!-- test set -->
     <g transform="translate(94.6 87.426688) scale(0.1 -0.1)">
      <use xlink:href="#DejaVuSans-74"/>
      <use xlink:href="#DejaVuSans-65" x="39.208984"/>
      <use xlink:href="#DejaVuSans-73" x="100.732422"/>
      <use xlink:href="#DejaVuSans-74" x="152.832031"/>
      <use xlink:href="#DejaVuSans-20" x="192.041016"/>
      <use xlink:href="#DejaVuSans-73" x="223.828125"/>
      <use xlink:href="#DejaVuSans-65" x="275.927734"/>
      <use xlink:href="#DejaVuSans-74" x="337.451172"/>
     </g>
    </g>
   </g>
  </g>
 </g>
 <defs>
  <clipPath id="p4e0c59bd54">
   <rect x="57.6" y="41.472" width="357.12" height="266.112"/>
  </clipPath>
 </defs>
</svg>
