<?xml version="1.0" encoding="utf-8" standalone="no"?>
<!DOCTYPE svg PUBLIC "-//W3C//DTD SVG 1.1//EN"
  "http://www.w3.org/Graphics/SVG/1.1/DTD/svg11.dtd">
<svg xmlns:xlink="http://www.w3.org/1999/xlink" width="460.8pt" height="345.6pt" viewBox="0 0 460.8 345.6" xmlns="http://www.w3.org/2000/svg" version="1.1">
 <metadata>
  <rdf:RDF xmlns:dc="http://purl.org/dc/elements/1.1/" xmlns:cc="http://creativecommons.org/ns#" xmlns:rdf="http://www.w3.org/1999/02/22-rdf-syntax-ns#">
   <cc:Work>
    <dc:type rdf:resource="http://purl.org/dc/dcmitype/StillImage"/>
    <dc:date>2023-06-14T03:58:37.536330</dc:date>
    <dc:format>image/svg+xml</dc:format>
    <dc:creator>
     <cc:Agent>
      <dc:title>Matplotlib v3.7.1, https://matplotlib.org/</dc:title>
     </cc:Agent>
    </dc:creator>
   </cc:Work>
  </rdf:RDF>
 </metadata>
 <defs>
  <style type="text/css">*{stroke-linejoin: round; stroke-linecap: butt}</style>
 </defs>
 <g id="figure_1">
  <g id="patch_1">
   <path d="M 0 345.6 
L 460.8 345.6 
L 460.8 0 
L 0 0 
z
" style="fill: #ffffff"/>
  </g>
  <g id="axes_1">
   <g id="patch_2">
    <path d="M 57.6 307.584 
L 414.72 307.584 
L 414.72 41.472 
L 57.6 41.472 
z
" style="fill: #ffffff"/>
   </g>
   <g id="matplotlib.axis_1">
    <g id="xtick_1">
     <g id="line2d_1">
      <defs>
       <path id="mbafefa8467" d="M 0 0 
L 0 3.5 
" style="stroke: #000000; stroke-width: 0.8"/>
      </defs>
      <g>
       <use xlink:href="#mbafefa8467" x="73.767783" y="307.584" style="stroke: #000000; stroke-width: 0.8"/>
      </g>
     </g>
     <g id="text_1">
      <!-- 0 -->
      <g transform="translate(70.586533 322.182437) scale(0.1 -0.1)">
       <defs>
        <path id="DejaVuSans-30" d="M 2034 4250 
Q 1547 4250 1301 3770 
Q 1056 3291 1056 2328 
Q 1056 1369 1301 889 
Q 1547 409 2034 409 
Q 2525 409 2770 889 
Q 3016 1369 3016 2328 
Q 3016 3291 2770 3770 
Q 2525 4250 2034 4250 
z
M 2034 4750 
Q 2819 4750 3233 4129 
Q 3647 3509 3647 2328 
Q 3647 1150 3233 529 
Q 2819 -91 2034 -91 
Q 1250 -91 836 529 
Q 422 1150 422 2328 
Q 422 3509 836 4129 
Q 1250 4750 2034 4750 
z
" transform="scale(0.015625)"/>
       </defs>
       <use xlink:href="#DejaVuSans-30"/>
      </g>
     </g>
    </g>
    <g id="xtick_2">
     <g id="line2d_2">
      <g>
       <use xlink:href="#mbafefa8467" x="138.711681" y="307.584" style="stroke: #000000; stroke-width: 0.8"/>
      </g>
     </g>
     <g id="text_2">
      <!-- 1000 -->
      <g transform="translate(125.986681 322.182437) scale(0.1 -0.1)">
       <defs>
        <path id="DejaVuSans-31" d="M 794 531 
L 1825 531 
L 1825 4091 
L 703 3866 
L 703 4441 
L 1819 4666 
L 2450 4666 
L 2450 531 
L 3481 531 
L 3481 0 
L 794 0 
L 794 531 
z
" transform="scale(0.015625)"/>
       </defs>
       <use xlink:href="#DejaVuSans-31"/>
       <use xlink:href="#DejaVuSans-30" x="63.623047"/>
       <use xlink:href="#DejaVuSans-30" x="127.246094"/>
       <use xlink:href="#DejaVuSans-30" x="190.869141"/>
      </g>
     </g>
    </g>
    <g id="xtick_3">
     <g id="line2d_3">
      <g>
       <use xlink:href="#mbafefa8467" x="203.655579" y="307.584" style="stroke: #000000; stroke-width: 0.8"/>
      </g>
     </g>
     <g id="text_3">
      <!-- 2000 -->
      <g transform="translate(190.930579 322.182437) scale(0.1 -0.1)">
       <defs>
        <path id="DejaVuSans-32" d="M 1228 531 
L 3431 531 
L 3431 0 
L 469 0 
L 469 531 
Q 828 903 1448 1529 
Q 2069 2156 2228 2338 
Q 2531 2678 2651 2914 
Q 2772 3150 2772 3378 
Q 2772 3750 2511 3984 
Q 2250 4219 1831 4219 
Q 1534 4219 1204 4116 
Q 875 4013 500 3803 
L 500 4441 
Q 881 4594 1212 4672 
Q 1544 4750 1819 4750 
Q 2544 4750 2975 4387 
Q 3406 4025 3406 3419 
Q 3406 3131 3298 2873 
Q 3191 2616 2906 2266 
Q 2828 2175 2409 1742 
Q 1991 1309 1228 531 
z
" transform="scale(0.015625)"/>
       </defs>
       <use xlink:href="#DejaVuSans-32"/>
       <use xlink:href="#DejaVuSans-30" x="63.623047"/>
       <use xlink:href="#DejaVuSans-30" x="127.246094"/>
       <use xlink:href="#DejaVuSans-30" x="190.869141"/>
      </g>
     </g>
    </g>
    <g id="xtick_4">
     <g id="line2d_4">
      <g>
       <use xlink:href="#mbafefa8467" x="268.599477" y="307.584" style="stroke: #000000; stroke-width: 0.8"/>
      </g>
     </g>
     <g id="text_4">
      <!-- 3000 -->
      <g transform="translate(255.874477 322.182437) scale(0.1 -0.1)">
       <defs>
        <path id="DejaVuSans-33" d="M 2597 2516 
Q 3050 2419 3304 2112 
Q 3559 1806 3559 1356 
Q 3559 666 3084 287 
Q 2609 -91 1734 -91 
Q 1441 -91 1130 -33 
Q 819 25 488 141 
L 488 750 
Q 750 597 1062 519 
Q 1375 441 1716 441 
Q 2309 441 2620 675 
Q 2931 909 2931 1356 
Q 2931 1769 2642 2001 
Q 2353 2234 1838 2234 
L 1294 2234 
L 1294 2753 
L 1863 2753 
Q 2328 2753 2575 2939 
Q 2822 3125 2822 3475 
Q 2822 3834 2567 4026 
Q 2313 4219 1838 4219 
Q 1578 4219 1281 4162 
Q 984 4106 628 3988 
L 628 4550 
Q 988 4650 1302 4700 
Q 1616 4750 1894 4750 
Q 2613 4750 3031 4423 
Q 3450 4097 3450 3541 
Q 3450 3153 3228 2886 
Q 3006 2619 2597 2516 
z
" transform="scale(0.015625)"/>
       </defs>
       <use xlink:href="#DejaVuSans-33"/>
       <use xlink:href="#DejaVuSans-30" x="63.623047"/>
       <use xlink:href="#DejaVuSans-30" x="127.246094"/>
       <use xlink:href="#DejaVuSans-30" x="190.869141"/>
      </g>
     </g>
    </g>
    <g id="xtick_5">
     <g id="line2d_5">
      <g>
       <use xlink:href="#mbafefa8467" x="333.543375" y="307.584" style="stroke: #000000; stroke-width: 0.8"/>
      </g>
     </g>
     <g id="text_5">
      <!-- 4000 -->
      <g transform="translate(320.818375 322.182437) scale(0.1 -0.1)">
       <defs>
        <path id="DejaVuSans-34" d="M 2419 4116 
L 825 1625 
L 2419 1625 
L 2419 4116 
z
M 2253 4666 
L 3047 4666 
L 3047 1625 
L 3713 1625 
L 3713 1100 
L 3047 1100 
L 3047 0 
L 2419 0 
L 2419 1100 
L 313 1100 
L 313 1709 
L 2253 4666 
z
" transform="scale(0.015625)"/>
       </defs>
       <use xlink:href="#DejaVuSans-34"/>
       <use xlink:href="#DejaVuSans-30" x="63.623047"/>
       <use xlink:href="#DejaVuSans-30" x="127.246094"/>
       <use xlink:href="#DejaVuSans-30" x="190.869141"/>
      </g>
     </g>
    </g>
    <g id="xtick_6">
     <g id="line2d_6">
      <g>
       <use xlink:href="#mbafefa8467" x="398.487273" y="307.584" style="stroke: #000000; stroke-width: 0.8"/>
      </g>
     </g>
     <g id="text_6">
      <!-- 5000 -->
      <g transform="translate(385.762273 322.182437) scale(0.1 -0.1)">
       <defs>
        <path id="DejaVuSans-35" d="M 691 4666 
L 3169 4666 
L 3169 4134 
L 1269 4134 
L 1269 2991 
Q 1406 3038 1543 3061 
Q 1681 3084 1819 3084 
Q 2600 3084 3056 2656 
Q 3513 2228 3513 1497 
Q 3513 744 3044 326 
Q 2575 -91 1722 -91 
Q 1428 -91 1123 -41 
Q 819 9 494 109 
L 494 744 
Q 775 591 1075 516 
Q 1375 441 1709 441 
Q 2250 441 2565 725 
Q 2881 1009 2881 1497 
Q 2881 1984 2565 2268 
Q 2250 2553 1709 2553 
Q 1456 2553 1204 2497 
Q 953 2441 691 2322 
L 691 4666 
z
" transform="scale(0.015625)"/>
       </defs>
       <use xlink:href="#DejaVuSans-35"/>
       <use xlink:href="#DejaVuSans-30" x="63.623047"/>
       <use xlink:href="#DejaVuSans-30" x="127.246094"/>
       <use xlink:href="#DejaVuSans-30" x="190.869141"/>
      </g>
     </g>
    </g>
    <g id="text_7">
     <!-- epoch -->
     <g transform="translate(220.931875 335.860562) scale(0.1 -0.1)">
      <defs>
       <path id="DejaVuSans-65" d="M 3597 1894 
L 3597 1613 
L 953 1613 
Q 991 1019 1311 708 
Q 1631 397 2203 397 
Q 2534 397 2845 478 
Q 3156 559 3463 722 
L 3463 178 
Q 3153 47 2828 -22 
Q 2503 -91 2169 -91 
Q 1331 -91 842 396 
Q 353 884 353 1716 
Q 353 2575 817 3079 
Q 1281 3584 2069 3584 
Q 2775 3584 3186 3129 
Q 3597 2675 3597 1894 
z
M 3022 2063 
Q 3016 2534 2758 2815 
Q 2500 3097 2075 3097 
Q 1594 3097 1305 2825 
Q 1016 2553 972 2059 
L 3022 2063 
z
" transform="scale(0.015625)"/>
       <path id="DejaVuSans-70" d="M 1159 525 
L 1159 -1331 
L 581 -1331 
L 581 3500 
L 1159 3500 
L 1159 2969 
Q 1341 3281 1617 3432 
Q 1894 3584 2278 3584 
Q 2916 3584 3314 3078 
Q 3713 2572 3713 1747 
Q 3713 922 3314 415 
Q 2916 -91 2278 -91 
Q 1894 -91 1617 61 
Q 1341 213 1159 525 
z
M 3116 1747 
Q 3116 2381 2855 2742 
Q 2594 3103 2138 3103 
Q 1681 3103 1420 2742 
Q 1159 2381 1159 1747 
Q 1159 1113 1420 752 
Q 1681 391 2138 391 
Q 2594 391 2855 752 
Q 3116 1113 3116 1747 
z
" transform="scale(0.015625)"/>
       <path id="DejaVuSans-6f" d="M 1959 3097 
Q 1497 3097 1228 2736 
Q 959 2375 959 1747 
Q 959 1119 1226 758 
Q 1494 397 1959 397 
Q 2419 397 2687 759 
Q 2956 1122 2956 1747 
Q 2956 2369 2687 2733 
Q 2419 3097 1959 3097 
z
M 1959 3584 
Q 2709 3584 3137 3096 
Q 3566 2609 3566 1747 
Q 3566 888 3137 398 
Q 2709 -91 1959 -91 
Q 1206 -91 779 398 
Q 353 888 353 1747 
Q 353 2609 779 3096 
Q 1206 3584 1959 3584 
z
" transform="scale(0.015625)"/>
       <path id="DejaVuSans-63" d="M 3122 3366 
L 3122 2828 
Q 2878 2963 2633 3030 
Q 2388 3097 2138 3097 
Q 1578 3097 1268 2742 
Q 959 2388 959 1747 
Q 959 1106 1268 751 
Q 1578 397 2138 397 
Q 2388 397 2633 464 
Q 2878 531 3122 666 
L 3122 134 
Q 2881 22 2623 -34 
Q 2366 -91 2075 -91 
Q 1284 -91 818 406 
Q 353 903 353 1747 
Q 353 2603 823 3093 
Q 1294 3584 2113 3584 
Q 2378 3584 2631 3529 
Q 2884 3475 3122 3366 
z
" transform="scale(0.015625)"/>
       <path id="DejaVuSans-68" d="M 3513 2113 
L 3513 0 
L 2938 0 
L 2938 2094 
Q 2938 2591 2744 2837 
Q 2550 3084 2163 3084 
Q 1697 3084 1428 2787 
Q 1159 2491 1159 1978 
L 1159 0 
L 581 0 
L 581 4863 
L 1159 4863 
L 1159 2956 
Q 1366 3272 1645 3428 
Q 1925 3584 2291 3584 
Q 2894 3584 3203 3211 
Q 3513 2838 3513 2113 
z
" transform="scale(0.015625)"/>
      </defs>
      <use xlink:href="#DejaVuSans-65"/>
      <use xlink:href="#DejaVuSans-70" x="61.523438"/>
      <use xlink:href="#DejaVuSans-6f" x="125"/>
      <use xlink:href="#DejaVuSans-63" x="186.181641"/>
      <use xlink:href="#DejaVuSans-68" x="241.162109"/>
     </g>
    </g>
   </g>
   <g id="matplotlib.axis_2">
    <g id="ytick_1">
     <g id="line2d_7">
      <defs>
       <path id="m8dd8338477" d="M 0 0 
L -3.5 0 
" style="stroke: #000000; stroke-width: 0.8"/>
      </defs>
      <g>
       <use xlink:href="#m8dd8338477" x="57.6" y="295.741851" style="stroke: #000000; stroke-width: 0.8"/>
      </g>
     </g>
     <g id="text_8">
      <!-- 0 -->
      <g transform="translate(44.2375 299.54107) scale(0.1 -0.1)">
       <use xlink:href="#DejaVuSans-30"/>
      </g>
     </g>
    </g>
    <g id="ytick_2">
     <g id="line2d_8">
      <g>
       <use xlink:href="#m8dd8338477" x="57.6" y="259.088925" style="stroke: #000000; stroke-width: 0.8"/>
      </g>
     </g>
     <g id="text_9">
      <!-- 5 -->
      <g transform="translate(44.2375 262.888144) scale(0.1 -0.1)">
       <use xlink:href="#DejaVuSans-35"/>
      </g>
     </g>
    </g>
    <g id="ytick_3">
     <g id="line2d_9">
      <g>
       <use xlink:href="#m8dd8338477" x="57.6" y="222.435999" style="stroke: #000000; stroke-width: 0.8"/>
      </g>
     </g>
     <g id="text_10">
      <!-- 10 -->
      <g transform="translate(37.875 226.235218) scale(0.1 -0.1)">
       <use xlink:href="#DejaVuSans-31"/>
       <use xlink:href="#DejaVuSans-30" x="63.623047"/>
      </g>
     </g>
    </g>
    <g id="ytick_4">
     <g id="line2d_10">
      <g>
       <use xlink:href="#m8dd8338477" x="57.6" y="185.783073" style="stroke: #000000; stroke-width: 0.8"/>
      </g>
     </g>
     <g id="text_11">
      <!-- 15 -->
      <g transform="translate(37.875 189.582292) scale(0.1 -0.1)">
       <use xlink:href="#DejaVuSans-31"/>
       <use xlink:href="#DejaVuSans-35" x="63.623047"/>
      </g>
     </g>
    </g>
    <g id="ytick_5">
     <g id="line2d_11">
      <g>
       <use xlink:href="#m8dd8338477" x="57.6" y="149.130147" style="stroke: #000000; stroke-width: 0.8"/>
      </g>
     </g>
     <g id="text_12">
      <!-- 20 -->
      <g transform="translate(37.875 152.929366) scale(0.1 -0.1)">
       <use xlink:href="#DejaVuSans-32"/>
       <use xlink:href="#DejaVuSans-30" x="63.623047"/>
      </g>
     </g>
    </g>
    <g id="ytick_6">
     <g id="line2d_12">
      <g>
       <use xlink:href="#m8dd8338477" x="57.6" y="112.477221" style="stroke: #000000; stroke-width: 0.8"/>
      </g>
     </g>
     <g id="text_13">
      <!-- 25 -->
      <g transform="translate(37.875 116.27644) scale(0.1 -0.1)">
       <use xlink:href="#DejaVuSans-32"/>
       <use xlink:href="#DejaVuSans-35" x="63.623047"/>
      </g>
     </g>
    </g>
    <g id="ytick_7">
     <g id="line2d_13">
      <g>
       <use xlink:href="#m8dd8338477" x="57.6" y="75.824295" style="stroke: #000000; stroke-width: 0.8"/>
      </g>
     </g>
     <g id="text_14">
      <!-- 30 -->
      <g transform="translate(37.875 79.623513) scale(0.1 -0.1)">
       <use xlink:href="#DejaVuSans-33"/>
       <use xlink:href="#DejaVuSans-30" x="63.623047"/>
      </g>
     </g>
    </g>
    <g id="text_15">
     <!-- loss -->
     <g transform="translate(31.795313 184.185812) rotate(-90) scale(0.1 -0.1)">
      <defs>
       <path id="DejaVuSans-6c" d="M 603 4863 
L 1178 4863 
L 1178 0 
L 603 0 
L 603 4863 
z
" transform="scale(0.015625)"/>
       <path id="DejaVuSans-73" d="M 2834 3397 
L 2834 2853 
Q 2591 2978 2328 3040 
Q 2066 3103 1784 3103 
Q 1356 3103 1142 2972 
Q 928 2841 928 2578 
Q 928 2378 1081 2264 
Q 1234 2150 1697 2047 
L 1894 2003 
Q 2506 1872 2764 1633 
Q 3022 1394 3022 966 
Q 3022 478 2636 193 
Q 2250 -91 1575 -91 
Q 1294 -91 989 -36 
Q 684 19 347 128 
L 347 722 
Q 666 556 975 473 
Q 1284 391 1588 391 
Q 1994 391 2212 530 
Q 2431 669 2431 922 
Q 2431 1156 2273 1281 
Q 2116 1406 1581 1522 
L 1381 1569 
Q 847 1681 609 1914 
Q 372 2147 372 2553 
Q 372 3047 722 3315 
Q 1072 3584 1716 3584 
Q 2034 3584 2315 3537 
Q 2597 3491 2834 3397 
z
" transform="scale(0.015625)"/>
      </defs>
      <use xlink:href="#DejaVuSans-6c"/>
      <use xlink:href="#DejaVuSans-6f" x="27.783203"/>
      <use xlink:href="#DejaVuSans-73" x="88.964844"/>
      <use xlink:href="#DejaVuSans-73" x="141.064453"/>
     </g>
    </g>
   </g>
   <g id="line2d_14">
    <path d="M 73.832727 282.561654 
L 74.287335 282.835355 
L 75.521269 283.341374 
L 76.430483 284.019468 
L 77.664417 285.285417 
L 79.54779 287.178589 
L 80.781724 288.109744 
L 82.015658 288.755192 
L 83.509368 289.262349 
L 85.717461 289.748026 
L 89.289375 290.28492 
L 94.484887 290.828776 
L 101.823547 291.385444 
L 110.850749 291.852537 
L 140.789886 292.976864 
L 150.661358 293.206756 
L 153.843609 293.275387 
L 214.631098 294.258715 
L 253.727324 294.628975 
L 274.119708 294.792539 
L 366.729707 295.385987 
L 398.487273 295.488 
L 398.487273 295.488 
" clip-path="url(#p677f329177)" style="fill: none; stroke: #0000ff; stroke-width: 1.5; stroke-linecap: square"/>
   </g>
   <g id="line2d_15">
    <path d="M 73.832727 282.576062 
L 74.352278 283.0111 
L 74.87183 283.203131 
L 75.7161 283.424302 
L 77.079922 284.257805 
L 80.197229 286.598724 
L 81.366219 287.088937 
L 82.53521 287.332208 
L 83.963975 287.411275 
L 86.496787 287.260625 
L 91.04286 286.632928 
L 92.406682 286.391342 
L 92.53657 286.385928 
L 92.861289 286.293261 
L 94.419943 285.991853 
L 94.87455 285.896937 
L 95.459045 285.758212 
L 95.783765 285.683035 
L 98.056801 285.144451 
L 98.381521 285.076296 
L 98.836128 284.943283 
L 99.160847 284.868755 
L 100.589613 284.485947 
L 100.784445 284.41731 
L 101.628716 284.183951 
L 102.083323 284.022348 
L 102.472986 283.940373 
L 103.901752 283.536802 
L 104.161528 283.443034 
L 104.616135 283.318496 
L 105.265574 283.135028 
L 105.979957 282.933734 
L 106.304676 282.815937 
L 106.629396 282.739219 
L 107.019059 282.616174 
L 107.278835 282.543524 
L 108.7076 282.123177 
L 108.837488 282.077119 
L 111.630076 281.346589 
L 112.084683 281.353546 
L 112.799066 281.075378 
L 115.721541 280.202504 
L 116.241093 280.033628 
L 117.215251 279.730827 
L 117.410083 279.678748 
L 117.604914 279.665173 
L 118.968736 279.155253 
L 119.098624 279.147172 
L 119.488287 279.003348 
L 119.748063 278.966843 
L 120.462446 278.710864 
L 120.722222 278.65919 
L 121.046941 278.500629 
L 121.306717 278.45197 
L 122.086043 278.172121 
L 125.917733 276.830006 
L 126.177509 276.717637 
L 126.567172 276.610959 
L 127.736163 276.172324 
L 127.930994 276.12637 
L 128.515489 275.875205 
L 128.970097 275.727765 
L 129.229872 275.596904 
L 129.684479 275.425252 
L 130.398862 275.160662 
L 131.632796 274.715597 
L 131.762684 274.606205 
L 131.892572 274.57161 
L 132.152348 274.477141 
L 133.516169 273.972405 
L 133.775945 273.933291 
L 134.100664 273.807402 
L 134.230552 273.777112 
L 134.815047 273.555839 
L 139.620896 271.611436 
L 139.880671 271.51725 
L 141.114605 271.011859 
L 141.244493 270.960624 
L 141.374381 270.862608 
L 141.764044 270.79604 
L 141.893932 270.662388 
L 141.958876 270.724459 
L 142.02382 270.645133 
L 142.153708 270.613107 
L 142.283596 270.52583 
L 142.478427 270.45241 
L 142.997979 270.246139 
L 149.167649 267.640586 
L 149.36248 267.58214 
L 149.557312 267.499643 
L 149.882032 267.350577 
L 150.011919 267.257087 
L 150.076863 267.281826 
L 150.206751 267.113625 
L 150.336639 267.166393 
L 150.466527 267.054792 
L 150.596415 267.018675 
L 150.921134 266.846081 
L 151.051022 266.801304 
L 151.115966 266.706922 
L 151.18091 266.781441 
L 156.18159 264.478294 
L 156.311478 264.381853 
L 156.506309 264.315184 
L 158.194851 263.529725 
L 158.584514 263.296467 
L 158.714402 263.26816 
L 158.779346 263.279287 
L 158.974177 263.160684 
L 159.169009 263.036594 
L 159.493729 262.881901 
L 159.623616 262.778036 
L 159.753504 262.764606 
L 160.273055 262.477811 
L 160.597775 262.375516 
L 160.792607 262.267795 
L 168.001379 258.897358 
L 168.131267 258.815798 
L 168.326099 258.732196 
L 168.455986 258.651331 
L 168.585874 258.588901 
L 168.650818 258.627918 
L 168.780706 258.463836 
L 168.84565 258.514832 
L 168.975538 258.359377 
L 169.040482 258.424323 
L 169.170369 258.286345 
L 180.600495 253.013569 
L 180.730383 252.959787 
L 180.990159 252.825326 
L 181.249934 252.748607 
L 181.639598 252.498637 
L 181.769486 252.465933 
L 181.964317 252.394317 
L 182.289037 252.200426 
L 183.328139 251.801135 
L 184.821849 251.055529 
L 185.01668 250.984629 
L 185.146568 250.820114 
L 185.406344 250.668273 
L 185.601176 250.634161 
L 187.159829 249.885044 
L 187.289717 249.792655 
L 187.419605 249.810723 
L 189.757585 248.553512 
L 189.952417 248.496955 
L 191.121407 247.878994 
L 191.381182 247.68886 
L 191.640958 247.648165 
L 194.953097 245.966563 
L 195.082985 245.896848 
L 195.277816 245.711433 
L 195.66748 245.526148 
L 195.797367 245.483691 
L 196.057143 245.380232 
L 196.187031 245.309507 
L 196.316919 245.167216 
L 196.446806 245.103707 
L 196.771526 244.967931 
L 196.901414 244.944634 
L 197.096245 244.862923 
L 198.00546 244.369785 
L 198.265236 244.217945 
L 198.460067 244.102946 
L 198.784787 243.905671 
L 198.914675 243.905458 
L 199.239394 243.718854 
L 199.49917 243.598581 
L 200.278496 243.211193 
L 200.538272 243.022387 
L 200.927935 242.818963 
L 202.876252 241.82165 
L 203.071084 241.724985 
L 203.395804 241.576364 
L 203.655579 241.457775 
L 204.045243 241.197959 
L 204.305018 241.104937 
L 205.863672 240.293891 
L 206.188391 240.093242 
L 207.032662 239.685248 
L 207.292437 239.502245 
L 209.305698 238.522126 
L 209.435586 238.397403 
L 209.565474 238.334113 
L 209.695362 238.272572 
L 210.344801 237.975007 
L 210.734464 237.699821 
L 211.578735 237.265467 
L 211.83851 237.136085 
L 212.16323 236.964991 
L 213.527052 236.280629 
L 213.786827 236.090012 
L 214.046603 235.947438 
L 215.99492 234.933584 
L 216.384583 234.686655 
L 219.566834 232.932916 
L 219.891554 232.838363 
L 220.086385 232.737315 
L 220.476049 232.442875 
L 220.67088 232.354404 
L 220.930656 232.212711 
L 221.125488 232.170807 
L 221.904814 231.686925 
L 222.359422 231.43374 
L 222.619197 231.230428 
L 222.749085 231.204813 
L 222.943917 231.112741 
L 224.112907 230.465194 
L 224.50257 230.209023 
L 224.762346 230.059884 
L 225.541673 229.675946 
L 225.736504 229.534749 
L 226.191112 229.275334 
L 226.580775 229.096337 
L 227.230214 228.674095 
L 227.554934 228.549159 
L 228.204373 228.088117 
L 228.594036 227.952702 
L 249.116308 216.11148 
L 249.441027 215.901639 
L 253.272717 213.632244 
L 253.922156 213.25673 
L 254.246876 213.119735 
L 254.766427 212.709944 
L 255.415866 212.405172 
L 255.805529 212.121484 
L 256.130249 211.956217 
L 256.390024 211.823339 
L 256.714744 211.565239 
L 258.728005 210.395381 
L 259.247556 210.077123 
L 259.507331 209.980018 
L 261.001041 209.089477 
L 261.130929 209.038597 
L 261.32576 208.893212 
L 261.65048 208.667662 
L 262.105087 208.496453 
L 262.429807 208.231914 
L 263.98846 207.334277 
L 264.443068 207.092815 
L 264.702843 206.964908 
L 265.547114 206.462773 
L 265.871833 206.260685 
L 266.910936 205.6517 
L 267.235655 205.435685 
L 267.560375 205.278919 
L 269.833411 203.906119 
L 270.158131 203.74685 
L 271.067345 203.162452 
L 271.911616 202.719979 
L 272.236335 202.477314 
L 272.625999 202.273352 
L 273.340382 201.888219 
L 273.794989 201.542206 
L 274.834091 200.949482 
L 275.158811 200.737054 
L 275.80825 200.419167 
L 277.172072 199.634113 
L 277.756567 199.238801 
L 278.276118 198.946633 
L 279.055445 198.529019 
L 280.094547 197.885792 
L 280.80893 197.453651 
L 281.328481 197.141252 
L 282.367583 196.527904 
L 283.536573 195.888012 
L 283.991181 195.645627 
L 284.835451 195.078763 
L 285.160171 194.928568 
L 286.004442 194.406055 
L 286.718824 193.992887 
L 287.952759 193.317117 
L 289.771188 192.246684 
L 290.290739 191.920163 
L 291.199953 191.341253 
L 291.849392 191.014061 
L 292.628719 190.508584 
L 293.14827 190.180427 
L 293.47299 190.017488 
L 293.927597 189.783835 
L 296.460409 188.297306 
L 296.720185 188.0717 
L 296.97996 187.916276 
L 297.369624 187.683224 
L 297.629399 187.580436 
L 297.889175 187.395279 
L 298.084007 187.319273 
L 298.47367 187.078385 
L 298.733446 186.856127 
L 299.123109 186.661624 
L 299.707604 186.327993 
L 299.96738 186.216549 
L 301.850753 185.043929 
L 302.240416 184.793897 
L 302.824911 184.4998 
L 303.604238 183.972973 
L 304.188733 183.683161 
L 304.903116 183.184871 
L 305.162891 183.074064 
L 305.422667 182.907581 
L 305.617499 182.813132 
L 308.864694 180.86554 
L 309.124469 180.680167 
L 309.838852 180.270292 
L 310.163572 180.051467 
L 313.410767 178.076344 
L 313.670542 177.926877 
L 313.865374 177.835071 
L 314.384925 177.481076 
L 314.644701 177.361264 
L 318.541334 174.965745 
L 318.671222 174.911201 
L 318.995942 174.680401 
L 319.385605 174.489113 
L 319.710325 174.257977 
L 324.581117 171.306381 
L 324.711005 171.245489 
L 325.035724 171.069792 
L 325.2955 170.920115 
L 325.815051 170.587651 
L 326.46449 170.146254 
L 326.659322 170.055189 
L 327.373705 169.64444 
L 327.63348 169.466016 
L 328.217975 169.069851 
L 328.477751 168.924704 
L 328.607639 168.856346 
L 328.932358 168.690953 
L 330.361124 167.817751 
L 330.880675 167.441719 
L 331.010563 167.35759 
L 331.400226 167.192364 
L 331.724946 166.966499 
L 332.114609 166.731295 
L 332.569216 166.429661 
L 335.037085 164.943139 
L 335.29686 164.759388 
L 335.556636 164.587256 
L 335.686523 164.530978 
L 336.206075 164.223402 
L 336.79057 163.856613 
L 337.245177 163.543613 
L 337.375065 163.505064 
L 337.699784 163.251333 
L 337.829672 163.22246 
L 339.45327 162.239681 
L 339.972821 161.904239 
L 342.051025 160.658277 
L 342.440689 160.380091 
L 342.700464 160.235224 
L 343.414847 159.786906 
L 343.674623 159.662424 
L 347.051706 157.566469 
L 347.506313 157.286298 
L 347.636201 157.235963 
L 351.467891 154.897169 
L 351.727666 154.748457 
L 351.922498 154.633469 
L 352.247217 154.402165 
L 352.9616 153.965284 
L 353.091488 153.960139 
L 353.351264 153.770319 
L 354.065647 153.311025 
L 354.909917 152.80882 
L 355.494412 152.467744 
L 355.689244 152.333265 
L 356.663402 151.75332 
L 357.11801 151.513907 
L 357.377785 151.333078 
L 357.572617 151.219265 
L 357.832393 151.036702 
L 358.157112 150.882634 
L 359.131271 150.265358 
L 359.78071 149.889942 
L 360.105429 149.6801 
L 360.819812 149.290492 
L 361.274419 148.998688 
L 361.923858 148.581424 
L 362.053746 148.496106 
L 362.313522 148.359572 
L 366.015324 146.16001 
L 366.404987 145.900868 
L 368.807911 144.4796 
L 369.067687 144.308824 
L 369.45735 144.138537 
L 369.911958 143.806549 
L 370.301621 143.616926 
L 370.691284 143.333874 
L 371.016004 143.177863 
L 371.340723 142.935402 
L 371.730387 142.773127 
L 371.990162 142.563551 
L 372.639601 142.178152 
L 378.744328 138.548094 
L 379.004103 138.42385 
L 379.263879 138.267322 
L 379.848374 137.886005 
L 380.173094 137.724289 
L 380.497813 137.507387 
L 381.731747 136.777276 
L 382.186354 136.490925 
L 382.381186 136.388255 
L 383.160513 135.913301 
L 383.485232 135.731899 
L 384.849054 134.927655 
L 386.147932 134.149097 
L 386.537596 133.931984 
L 386.927259 133.692235 
L 387.316922 133.477193 
L 387.576698 133.300782 
L 388.161193 132.973813 
L 388.550856 132.723997 
L 389.005464 132.474433 
L 389.979622 131.85868 
L 390.304342 131.687904 
L 392.707266 130.265825 
L 393.356705 129.875546 
L 394.136032 129.40034 
L 394.590639 129.148357 
L 395.175134 128.782239 
L 395.43491 128.656373 
L 395.694685 128.472887 
L 397.253339 127.5286 
L 398.097609 126.988379 
L 398.487273 126.750951 
L 398.487273 126.750951 
" clip-path="url(#p677f329177)" style="fill: none; stroke: #008000; stroke-width: 1.5; stroke-linecap: square"/>
   </g>
   <g id="line2d_16">
    <path d="M 73.832727 282.601502 
L 74.287335 282.825947 
L 76.04082 283.44372 
L 79.87251 285.616581 
L 80.911612 285.836351 
L 82.145546 285.843111 
L 83.639256 285.652013 
L 89.549151 284.608042 
L 94.614775 283.376204 
L 95.134326 283.203878 
L 99.095904 281.834596 
L 100.005118 281.454663 
L 100.329838 281.309642 
L 101.109164 280.962225 
L 102.148267 280.509807 
L 102.472986 280.371586 
L 104.746023 279.330502 
L 105.395462 279.060267 
L 106.36962 278.604753 
L 109.292096 277.263512 
L 109.681759 277.075338 
L 111.69502 276.270199 
L 111.954795 276.26393 
L 112.734122 275.76367 
L 113.123785 275.662579 
L 114.033 275.176488 
L 114.292776 275.065678 
L 115.656598 274.41363 
L 116.046261 274.204354 
L 116.565812 273.984348 
L 116.825588 273.826325 
L 117.215251 273.639192 
L 117.410083 273.552271 
L 118.18941 273.153135 
L 118.384241 273.11363 
L 118.644017 273.009491 
L 119.488287 272.587733 
L 119.877951 272.415842 
L 121.371661 271.724746 
L 122.021099 271.400708 
L 123.255034 270.801201 
L 123.904473 270.457613 
L 124.878631 269.989895 
L 125.52807 269.619442 
L 126.242453 269.298741 
L 127.281555 268.763137 
L 130.983357 266.807491 
L 131.762684 266.36137 
L 131.892572 266.327656 
L 132.542011 265.988628 
L 132.801787 265.808089 
L 132.931674 265.758274 
L 133.19145 265.617203 
L 133.321338 265.600453 
L 133.581113 265.492218 
L 134.555272 265.062514 
L 134.750103 264.937955 
L 134.944935 264.833485 
L 135.399542 264.574025 
L 135.659318 264.481964 
L 135.984038 264.276212 
L 136.113925 264.235186 
L 136.373701 264.063092 
L 136.633477 263.91777 
L 136.958196 263.676602 
L 137.088084 263.699235 
L 137.347859 263.503037 
L 139.426064 262.278851 
L 139.945615 261.992846 
L 140.075503 261.913111 
L 140.335279 261.727891 
L 140.595054 261.5621 
L 140.85483 261.489226 
L 141.114605 261.281293 
L 141.439325 261.084594 
L 141.569213 261.023895 
L 141.893932 260.809107 
L 142.02382 260.757944 
L 142.413483 260.492328 
L 142.738203 260.352627 
L 142.933035 260.222556 
L 143.19281 260.069352 
L 143.387642 259.983094 
L 155.532151 252.554921 
L 155.85687 252.331049 
L 156.18159 252.144029 
L 156.376421 252.017552 
L 157.155748 251.497163 
L 158.324738 250.734275 
L 158.584514 250.54376 
L 158.909233 250.348271 
L 159.428785 250.038738 
L 159.68856 249.863058 
L 163.52025 247.347116 
L 163.780026 247.139224 
L 163.974858 247.034499 
L 164.104745 246.94952 
L 164.429465 246.695031 
L 164.624296 246.572549 
L 165.078904 246.264379 
L 165.728343 245.845611 
L 170.079584 242.95067 
L 170.404303 242.74791 
L 170.729023 242.52458 
L 170.988798 242.365521 
L 171.118686 242.295034 
L 171.443406 242.053995 
L 171.703181 241.870573 
L 172.612396 241.289765 
L 172.872172 241.095383 
L 173.196891 240.84592 
L 173.326779 240.799186 
L 173.651498 240.561265 
L 173.911274 240.417453 
L 174.560713 239.984805 
L 176.444086 238.691297 
L 176.963637 238.290088 
L 177.483188 237.951629 
L 178.84701 237.018171 
L 179.431505 236.634541 
L 179.951056 236.279517 
L 181.769486 235.274429 
L 182.224093 234.958653 
L 183.328139 234.261484 
L 185.081624 233.05558 
L 185.3414 232.810539 
L 185.666119 232.621998 
L 185.925895 232.488617 
L 186.185671 232.25637 
L 188.458707 230.579427 
L 188.653539 230.469528 
L 189.497809 229.839067 
L 190.017361 229.494928 
L 190.471968 229.151929 
L 190.991519 228.844158 
L 191.576014 228.334857 
L 191.770846 228.196219 
L 192.550173 227.565771 
L 194.108826 226.438187 
L 194.368602 226.217671 
L 198.00546 223.454034 
L 198.265236 223.229525 
L 198.525011 223.022606 
L 199.629057 222.188245 
L 200.66816 221.349208 
L 200.992879 221.09303 
L 213.786827 210.530279 
L 214.046603 210.312328 
L 214.371322 210.01124 
L 214.696042 209.819225 
L 215.99492 208.661412 
L 216.83919 207.974715 
L 217.098966 207.722571 
L 217.618517 207.264787 
L 218.527732 206.488633 
L 218.722563 206.34752 
L 219.047283 206.07599 
L 219.242115 205.913988 
L 220.151329 205.170845 
L 220.346161 205.010052 
L 221.969758 203.744285 
L 222.229534 203.580129 
L 223.073805 202.880806 
L 223.203692 202.827004 
L 223.528412 202.458096 
L 223.6583 202.435103 
L 223.983019 202.119494 
L 224.437626 201.777698 
L 225.087065 201.249612 
L 225.476729 200.99061 
L 226.061224 200.485854 
L 226.710663 199.987172 
L 227.425046 199.437191 
L 227.684821 199.228503 
L 228.33426 198.68336 
L 228.723924 198.362235 
L 229.243475 197.97153 
L 229.50325 197.816036 
L 229.892914 197.476225 
L 230.672241 196.815458 
L 231.256736 196.355157 
L 236.32236 192.321628 
L 236.582135 192.123671 
L 236.906855 191.863305 
L 238.98506 190.193885 
L 239.439667 189.798845 
L 243.466189 186.480613 
L 243.725964 186.309844 
L 243.920796 186.163124 
L 244.700123 185.491521 
L 244.959898 185.265418 
L 246.32372 184.136555 
L 247.882374 182.859161 
L 248.207093 182.581688 
L 249.246195 181.687247 
L 249.960578 181.115755 
L 258.857892 173.647789 
L 260.416546 172.34334 
L 260.676321 172.168859 
L 261.260817 171.677323 
L 261.715424 171.311652 
L 262.040143 171.077831 
L 263.468909 169.921997 
L 265.48217 168.244774 
L 266.97588 166.989234 
L 267.560375 166.515245 
L 268.14487 166.027106 
L 268.794309 165.504306 
L 269.248916 165.106518 
L 270.288018 164.283483 
L 272.301279 162.57701 
L 272.755886 162.219085 
L 273.470269 161.621915 
L 275.158811 160.189321 
L 275.80825 159.676364 
L 278.276118 157.579235 
L 278.925557 157.044368 
L 280.743986 155.518822 
L 281.328481 155.001223 
L 282.237696 154.255774 
L 284.64062 152.18651 
L 284.900395 151.979829 
L 286.394105 150.701218 
L 286.848712 150.325369 
L 288.667141 148.742049 
L 291.459729 146.332982 
L 291.849392 146.021085 
L 296.070746 142.365245 
L 296.655241 141.844807 
L 297.174792 141.367924 
L 298.408726 140.305908 
L 298.668502 140.068159 
L 299.058165 139.727334 
L 306.591657 133.168624 
L 306.851433 132.927785 
L 309.059525 131.004521 
L 311.397506 128.962047 
L 311.917057 128.521027 
L 312.696384 127.826682 
L 313.021103 127.551167 
L 313.410767 127.190894 
L 317.762008 123.392954 
L 318.021783 123.170039 
L 318.736166 122.527497 
L 319.710325 121.699946 
L 320.359764 121.106844 
L 320.554595 120.95465 
L 321.074146 120.507031 
L 322.567856 119.221136 
L 322.762688 119.086294 
L 323.542015 118.376023 
L 323.80179 118.173256 
L 326.854153 115.555102 
L 326.984041 115.462472 
L 334.257758 109.274452 
L 334.712365 108.865158 
L 335.037085 108.593641 
L 336.011243 107.747005 
L 336.206075 107.607828 
L 336.79057 107.1001 
L 339.713045 104.584993 
L 340.362484 103.973226 
L 340.62226 103.792816 
L 341.206755 103.27449 
L 342.115969 102.491234 
L 342.830352 101.85476 
L 343.090128 101.638165 
L 343.934399 100.916331 
L 344.389006 100.506449 
L 350.883396 94.854135 
L 351.078227 94.669475 
L 353.091488 92.928523 
L 353.481152 92.561188 
L 353.870815 92.225593 
L 354.780029 91.42704 
L 355.039805 91.211494 
L 355.494412 90.813231 
L 355.689244 90.637855 
L 356.598459 89.816693 
L 356.988122 89.500882 
L 357.767449 88.845085 
L 358.027224 88.598765 
L 359.45599 87.34658 
L 359.650822 87.185773 
L 360.560036 86.39403 
L 360.819812 86.195947 
L 361.404307 85.641422 
L 361.534195 85.543688 
L 362.508353 84.736242 
L 362.768129 84.474919 
L 362.833073 84.470067 
L 363.092848 84.191546 
L 363.352624 83.97765 
L 364.067007 83.371083 
L 367.509033 80.369473 
L 367.703865 80.224816 
L 370.041845 78.182006 
L 370.301621 77.993865 
L 370.756228 77.566268 
L 371.27578 77.157742 
L 371.600499 76.853425 
L 372.249938 76.29841 
L 387.251978 63.476807 
L 387.836473 62.981621 
L 388.226137 62.604051 
L 388.356025 62.501466 
L 388.6158 62.32093 
L 389.005464 61.970933 
L 389.979622 61.110916 
L 390.758949 60.449764 
L 391.473332 59.813528 
L 392.77221 58.703638 
L 393.746368 57.835273 
L 394.071088 57.560024 
L 394.525695 57.144535 
L 395.240078 56.518394 
L 397.44817 54.517432 
L 398.032665 53.960446 
L 398.357385 53.703933 
L 398.487273 53.568 
L 398.487273 53.568 
" clip-path="url(#p677f329177)" style="fill: none; stroke: #ff0000; stroke-width: 1.5; stroke-linecap: square"/>
   </g>
   <g id="patch_3">
    <path d="M 57.6 307.584 
L 57.6 41.472 
" style="fill: none; stroke: #000000; stroke-width: 0.8; stroke-linejoin: miter; stroke-linecap: square"/>
   </g>
   <g id="patch_4">
    <path d="M 414.72 307.584 
L 414.72 41.472 
" style="fill: none; stroke: #000000; stroke-width: 0.8; stroke-linejoin: miter; stroke-linecap: square"/>
   </g>
   <g id="patch_5">
    <path d="M 57.6 307.584 
L 414.72 307.584 
" style="fill: none; stroke: #000000; stroke-width: 0.8; stroke-linejoin: miter; stroke-linecap: square"/>
   </g>
   <g id="patch_6">
    <path d="M 57.6 41.472 
L 414.72 41.472 
" style="fill: none; stroke: #000000; stroke-width: 0.8; stroke-linejoin: miter; stroke-linecap: square"/>
   </g>
   <g id="text_16">
    <!-- Script19_loss -->
    <g transform="translate(196.532813 35.472) scale(0.12 -0.12)">
     <defs>
      <path id="DejaVuSans-53" d="M 3425 4513 
L 3425 3897 
Q 3066 4069 2747 4153 
Q 2428 4238 2131 4238 
Q 1616 4238 1336 4038 
Q 1056 3838 1056 3469 
Q 1056 3159 1242 3001 
Q 1428 2844 1947 2747 
L 2328 2669 
Q 3034 2534 3370 2195 
Q 3706 1856 3706 1288 
Q 3706 609 3251 259 
Q 2797 -91 1919 -91 
Q 1588 -91 1214 -16 
Q 841 59 441 206 
L 441 856 
Q 825 641 1194 531 
Q 1563 422 1919 422 
Q 2459 422 2753 634 
Q 3047 847 3047 1241 
Q 3047 1584 2836 1778 
Q 2625 1972 2144 2069 
L 1759 2144 
Q 1053 2284 737 2584 
Q 422 2884 422 3419 
Q 422 4038 858 4394 
Q 1294 4750 2059 4750 
Q 2388 4750 2728 4690 
Q 3069 4631 3425 4513 
z
" transform="scale(0.015625)"/>
      <path id="DejaVuSans-72" d="M 2631 2963 
Q 2534 3019 2420 3045 
Q 2306 3072 2169 3072 
Q 1681 3072 1420 2755 
Q 1159 2438 1159 1844 
L 1159 0 
L 581 0 
L 581 3500 
L 1159 3500 
L 1159 2956 
Q 1341 3275 1631 3429 
Q 1922 3584 2338 3584 
Q 2397 3584 2469 3576 
Q 2541 3569 2628 3553 
L 2631 2963 
z
" transform="scale(0.015625)"/>
      <path id="DejaVuSans-69" d="M 603 3500 
L 1178 3500 
L 1178 0 
L 603 0 
L 603 3500 
z
M 603 4863 
L 1178 4863 
L 1178 4134 
L 603 4134 
L 603 4863 
z
" transform="scale(0.015625)"/>
      <path id="DejaVuSans-74" d="M 1172 4494 
L 1172 3500 
L 2356 3500 
L 2356 3053 
L 1172 3053 
L 1172 1153 
Q 1172 725 1289 603 
Q 1406 481 1766 481 
L 2356 481 
L 2356 0 
L 1766 0 
Q 1100 0 847 248 
Q 594 497 594 1153 
L 594 3053 
L 172 3053 
L 172 3500 
L 594 3500 
L 594 4494 
L 1172 4494 
z
" transform="scale(0.015625)"/>
      <path id="DejaVuSans-39" d="M 703 97 
L 703 672 
Q 941 559 1184 500 
Q 1428 441 1663 441 
Q 2288 441 2617 861 
Q 2947 1281 2994 2138 
Q 2813 1869 2534 1725 
Q 2256 1581 1919 1581 
Q 1219 1581 811 2004 
Q 403 2428 403 3163 
Q 403 3881 828 4315 
Q 1253 4750 1959 4750 
Q 2769 4750 3195 4129 
Q 3622 3509 3622 2328 
Q 3622 1225 3098 567 
Q 2575 -91 1691 -91 
Q 1453 -91 1209 -44 
Q 966 3 703 97 
z
M 1959 2075 
Q 2384 2075 2632 2365 
Q 2881 2656 2881 3163 
Q 2881 3666 2632 3958 
Q 2384 4250 1959 4250 
Q 1534 4250 1286 3958 
Q 1038 3666 1038 3163 
Q 1038 2656 1286 2365 
Q 1534 2075 1959 2075 
z
" transform="scale(0.015625)"/>
      <path id="DejaVuSans-5f" d="M 3263 -1063 
L 3263 -1509 
L -63 -1509 
L -63 -1063 
L 3263 -1063 
z
" transform="scale(0.015625)"/>
     </defs>
     <use xlink:href="#DejaVuSans-53"/>
     <use xlink:href="#DejaVuSans-63" x="63.476562"/>
     <use xlink:href="#DejaVuSans-72" x="118.457031"/>
     <use xlink:href="#DejaVuSans-69" x="159.570312"/>
     <use xlink:href="#DejaVuSans-70" x="187.353516"/>
     <use xlink:href="#DejaVuSans-74" x="250.830078"/>
     <use xlink:href="#DejaVuSans-31" x="290.039062"/>
     <use xlink:href="#DejaVuSans-39" x="353.662109"/>
     <use xlink:href="#DejaVuSans-5f" x="417.285156"/>
     <use xlink:href="#DejaVuSans-6c" x="467.285156"/>
     <use xlink:href="#DejaVuSans-6f" x="495.068359"/>
     <use xlink:href="#DejaVuSans-73" x="556.25"/>
     <use xlink:href="#DejaVuSans-73" x="608.349609"/>
    </g>
   </g>
   <g id="legend_1">
    <g id="patch_7">
     <path d="M 64.6 93.506375 
L 164.295312 93.506375 
Q 166.295312 93.506375 166.295312 91.506375 
L 166.295312 48.472 
Q 166.295312 46.472 164.295312 46.472 
L 64.6 46.472 
Q 62.6 46.472 62.6 48.472 
L 62.6 91.506375 
Q 62.6 93.506375 64.6 93.506375 
z
" style="fill: #ffffff; opacity: 0.8; stroke: #cccccc; stroke-linejoin: miter"/>
    </g>
    <g id="line2d_17">
     <path d="M 66.6 54.570438 
L 76.6 54.570438 
L 86.6 54.570438 
" style="fill: none; stroke: #0000ff; stroke-width: 1.5; stroke-linecap: square"/>
    </g>
    <g id="text_17">
     <!-- training set -->
     <g transform="translate(94.6 58.070438) scale(0.1 -0.1)">
      <defs>
       <path id="DejaVuSans-61" d="M 2194 1759 
Q 1497 1759 1228 1600 
Q 959 1441 959 1056 
Q 959 750 1161 570 
Q 1363 391 1709 391 
Q 2188 391 2477 730 
Q 2766 1069 2766 1631 
L 2766 1759 
L 2194 1759 
z
M 3341 1997 
L 3341 0 
L 2766 0 
L 2766 531 
Q 2569 213 2275 61 
Q 1981 -91 1556 -91 
Q 1019 -91 701 211 
Q 384 513 384 1019 
Q 384 1609 779 1909 
Q 1175 2209 1959 2209 
L 2766 2209 
L 2766 2266 
Q 2766 2663 2505 2880 
Q 2244 3097 1772 3097 
Q 1472 3097 1187 3025 
Q 903 2953 641 2809 
L 641 3341 
Q 956 3463 1253 3523 
Q 1550 3584 1831 3584 
Q 2591 3584 2966 3190 
Q 3341 2797 3341 1997 
z
" transform="scale(0.015625)"/>
       <path id="DejaVuSans-6e" d="M 3513 2113 
L 3513 0 
L 2938 0 
L 2938 2094 
Q 2938 2591 2744 2837 
Q 2550 3084 2163 3084 
Q 1697 3084 1428 2787 
Q 1159 2491 1159 1978 
L 1159 0 
L 581 0 
L 581 3500 
L 1159 3500 
L 1159 2956 
Q 1366 3272 1645 3428 
Q 1925 3584 2291 3584 
Q 2894 3584 3203 3211 
Q 3513 2838 3513 2113 
z
" transform="scale(0.015625)"/>
       <path id="DejaVuSans-67" d="M 2906 1791 
Q 2906 2416 2648 2759 
Q 2391 3103 1925 3103 
Q 1463 3103 1205 2759 
Q 947 2416 947 1791 
Q 947 1169 1205 825 
Q 1463 481 1925 481 
Q 2391 481 2648 825 
Q 2906 1169 2906 1791 
z
M 3481 434 
Q 3481 -459 3084 -895 
Q 2688 -1331 1869 -1331 
Q 1566 -1331 1297 -1286 
Q 1028 -1241 775 -1147 
L 775 -588 
Q 1028 -725 1275 -790 
Q 1522 -856 1778 -856 
Q 2344 -856 2625 -561 
Q 2906 -266 2906 331 
L 2906 616 
Q 2728 306 2450 153 
Q 2172 0 1784 0 
Q 1141 0 747 490 
Q 353 981 353 1791 
Q 353 2603 747 3093 
Q 1141 3584 1784 3584 
Q 2172 3584 2450 3431 
Q 2728 3278 2906 2969 
L 2906 3500 
L 3481 3500 
L 3481 434 
z
" transform="scale(0.015625)"/>
       <path id="DejaVuSans-20" transform="scale(0.015625)"/>
      </defs>
      <use xlink:href="#DejaVuSans-74"/>
      <use xlink:href="#DejaVuSans-72" x="39.208984"/>
      <use xlink:href="#DejaVuSans-61" x="80.322266"/>
      <use xlink:href="#DejaVuSans-69" x="141.601562"/>
      <use xlink:href="#DejaVuSans-6e" x="169.384766"/>
      <use xlink:href="#DejaVuSans-69" x="232.763672"/>
      <use xlink:href="#DejaVuSans-6e" x="260.546875"/>
      <use xlink:href="#DejaVuSans-67" x="323.925781"/>
      <use xlink:href="#DejaVuSans-20" x="387.402344"/>
      <use xlink:href="#DejaVuSans-73" x="419.189453"/>
      <use xlink:href="#DejaVuSans-65" x="471.289062"/>
      <use xlink:href="#DejaVuSans-74" x="532.8125"/>
     </g>
    </g>
    <g id="line2d_18">
     <path d="M 66.6 69.248563 
L 76.6 69.248563 
L 86.6 69.248563 
" style="fill: none; stroke: #008000; stroke-width: 1.5; stroke-linecap: square"/>
    </g>
    <g id="text_18">
     <!-- validation set -->
     <g transform="translate(94.6 72.748563) scale(0.1 -0.1)">
      <defs>
       <path id="DejaVuSans-76" d="M 191 3500 
L 800 3500 
L 1894 563 
L 2988 3500 
L 3597 3500 
L 2284 0 
L 1503 0 
L 191 3500 
z
" transform="scale(0.015625)"/>
       <path id="DejaVuSans-64" d="M 2906 2969 
L 2906 4863 
L 3481 4863 
L 3481 0 
L 2906 0 
L 2906 525 
Q 2725 213 2448 61 
Q 2172 -91 1784 -91 
Q 1150 -91 751 415 
Q 353 922 353 1747 
Q 353 2572 751 3078 
Q 1150 3584 1784 3584 
Q 2172 3584 2448 3432 
Q 2725 3281 2906 2969 
z
M 947 1747 
Q 947 1113 1208 752 
Q 1469 391 1925 391 
Q 2381 391 2643 752 
Q 2906 1113 2906 1747 
Q 2906 2381 2643 2742 
Q 2381 3103 1925 3103 
Q 1469 3103 1208 2742 
Q 947 2381 947 1747 
z
" transform="scale(0.015625)"/>
      </defs>
      <use xlink:href="#DejaVuSans-76"/>
      <use xlink:href="#DejaVuSans-61" x="59.179688"/>
      <use xlink:href="#DejaVuSans-6c" x="120.458984"/>
      <use xlink:href="#DejaVuSans-69" x="148.242188"/>
      <use xlink:href="#DejaVuSans-64" x="176.025391"/>
      <use xlink:href="#DejaVuSans-61" x="239.501953"/>
      <use xlink:href="#DejaVuSans-74" x="300.78125"/>
      <use xlink:href="#DejaVuSans-69" x="339.990234"/>
      <use xlink:href="#DejaVuSans-6f" x="367.773438"/>
      <use xlink:href="#DejaVuSans-6e" x="428.955078"/>
      <use xlink:href="#DejaVuSans-20" x="492.333984"/>
      <use xlink:href="#DejaVuSans-73" x="524.121094"/>
      <use xlink:href="#DejaVuSans-65" x="576.220703"/>
      <use xlink:href="#DejaVuSans-74" x="637.744141"/>
     </g>
    </g>
    <g id="line2d_19">
     <path d="M 66.6 83.926688 
L 76.6 83.926688 
L 86.6 83.926688 
" style="fill: none; stroke: #ff0000; stroke-width: 1.5; stroke-linecap: square"/>
    </g>
    <g id="text_19">
     <!-- test set -->
     <g transform="translate(94.6 87.426688) scale(0.1 -0.1)">
      <use xlink:href="#DejaVuSans-74"/>
      <use xlink:href="#DejaVuSans-65" x="39.208984"/>
      <use xlink:href="#DejaVuSans-73" x="100.732422"/>
      <use xlink:href="#DejaVuSans-74" x="152.832031"/>
      <use xlink:href="#DejaVuSans-20" x="192.041016"/>
      <use xlink:href="#DejaVuSans-73" x="223.828125"/>
      <use xlink:href="#DejaVuSans-65" x="275.927734"/>
      <use xlink:href="#DejaVuSans-74" x="337.451172"/>
     </g>
    </g>
   </g>
  </g>
 </g>
 <defs>
  <clipPath id="p677f329177">
   <rect x="57.6" y="41.472" width="357.12" height="266.112"/>
  </clipPath>
 </defs>
</svg>
