<?xml version="1.0" encoding="utf-8" standalone="no"?>
<!DOCTYPE svg PUBLIC "-//W3C//DTD SVG 1.1//EN"
  "http://www.w3.org/Graphics/SVG/1.1/DTD/svg11.dtd">
<svg xmlns:xlink="http://www.w3.org/1999/xlink" width="460.8pt" height="345.6pt" viewBox="0 0 460.8 345.6" xmlns="http://www.w3.org/2000/svg" version="1.1">
 <metadata>
  <rdf:RDF xmlns:dc="http://purl.org/dc/elements/1.1/" xmlns:cc="http://creativecommons.org/ns#" xmlns:rdf="http://www.w3.org/1999/02/22-rdf-syntax-ns#">
   <cc:Work>
    <dc:type rdf:resource="http://purl.org/dc/dcmitype/StillImage"/>
    <dc:date>2023-06-14T03:57:03.496865</dc:date>
    <dc:format>image/svg+xml</dc:format>
    <dc:creator>
     <cc:Agent>
      <dc:title>Matplotlib v3.7.1, https://matplotlib.org/</dc:title>
     </cc:Agent>
    </dc:creator>
   </cc:Work>
  </rdf:RDF>
 </metadata>
 <defs>
  <style type="text/css">*{stroke-linejoin: round; stroke-linecap: butt}</style>
 </defs>
 <g id="figure_1">
  <g id="patch_1">
   <path d="M 0 345.6 
L 460.8 345.6 
L 460.8 0 
L 0 0 
z
" style="fill: #ffffff"/>
  </g>
  <g id="axes_1">
   <g id="patch_2">
    <path d="M 57.6 307.584 
L 414.72 307.584 
L 414.72 41.472 
L 57.6 41.472 
z
" style="fill: #ffffff"/>
   </g>
   <g id="matplotlib.axis_1">
    <g id="xtick_1">
     <g id="line2d_1">
      <defs>
       <path id="m0f1ad687d6" d="M 0 0 
L 0 3.5 
" style="stroke: #000000; stroke-width: 0.8"/>
      </defs>
      <g>
       <use xlink:href="#m0f1ad687d6" x="73.767783" y="307.584" style="stroke: #000000; stroke-width: 0.8"/>
      </g>
     </g>
     <g id="text_1">
      <!-- 0 -->
      <g transform="translate(70.586533 322.182437) scale(0.1 -0.1)">
       <defs>
        <path id="DejaVuSans-30" d="M 2034 4250 
Q 1547 4250 1301 3770 
Q 1056 3291 1056 2328 
Q 1056 1369 1301 889 
Q 1547 409 2034 409 
Q 2525 409 2770 889 
Q 3016 1369 3016 2328 
Q 3016 3291 2770 3770 
Q 2525 4250 2034 4250 
z
M 2034 4750 
Q 2819 4750 3233 4129 
Q 3647 3509 3647 2328 
Q 3647 1150 3233 529 
Q 2819 -91 2034 -91 
Q 1250 -91 836 529 
Q 422 1150 422 2328 
Q 422 3509 836 4129 
Q 1250 4750 2034 4750 
z
" transform="scale(0.015625)"/>
       </defs>
       <use xlink:href="#DejaVuSans-30"/>
      </g>
     </g>
    </g>
    <g id="xtick_2">
     <g id="line2d_2">
      <g>
       <use xlink:href="#m0f1ad687d6" x="138.711681" y="307.584" style="stroke: #000000; stroke-width: 0.8"/>
      </g>
     </g>
     <g id="text_2">
      <!-- 1000 -->
      <g transform="translate(125.986681 322.182437) scale(0.1 -0.1)">
       <defs>
        <path id="DejaVuSans-31" d="M 794 531 
L 1825 531 
L 1825 4091 
L 703 3866 
L 703 4441 
L 1819 4666 
L 2450 4666 
L 2450 531 
L 3481 531 
L 3481 0 
L 794 0 
L 794 531 
z
" transform="scale(0.015625)"/>
       </defs>
       <use xlink:href="#DejaVuSans-31"/>
       <use xlink:href="#DejaVuSans-30" x="63.623047"/>
       <use xlink:href="#DejaVuSans-30" x="127.246094"/>
       <use xlink:href="#DejaVuSans-30" x="190.869141"/>
      </g>
     </g>
    </g>
    <g id="xtick_3">
     <g id="line2d_3">
      <g>
       <use xlink:href="#m0f1ad687d6" x="203.655579" y="307.584" style="stroke: #000000; stroke-width: 0.8"/>
      </g>
     </g>
     <g id="text_3">
      <!-- 2000 -->
      <g transform="translate(190.930579 322.182437) scale(0.1 -0.1)">
       <defs>
        <path id="DejaVuSans-32" d="M 1228 531 
L 3431 531 
L 3431 0 
L 469 0 
L 469 531 
Q 828 903 1448 1529 
Q 2069 2156 2228 2338 
Q 2531 2678 2651 2914 
Q 2772 3150 2772 3378 
Q 2772 3750 2511 3984 
Q 2250 4219 1831 4219 
Q 1534 4219 1204 4116 
Q 875 4013 500 3803 
L 500 4441 
Q 881 4594 1212 4672 
Q 1544 4750 1819 4750 
Q 2544 4750 2975 4387 
Q 3406 4025 3406 3419 
Q 3406 3131 3298 2873 
Q 3191 2616 2906 2266 
Q 2828 2175 2409 1742 
Q 1991 1309 1228 531 
z
" transform="scale(0.015625)"/>
       </defs>
       <use xlink:href="#DejaVuSans-32"/>
       <use xlink:href="#DejaVuSans-30" x="63.623047"/>
       <use xlink:href="#DejaVuSans-30" x="127.246094"/>
       <use xlink:href="#DejaVuSans-30" x="190.869141"/>
      </g>
     </g>
    </g>
    <g id="xtick_4">
     <g id="line2d_4">
      <g>
       <use xlink:href="#m0f1ad687d6" x="268.599477" y="307.584" style="stroke: #000000; stroke-width: 0.8"/>
      </g>
     </g>
     <g id="text_4">
      <!-- 3000 -->
      <g transform="translate(255.874477 322.182437) scale(0.1 -0.1)">
       <defs>
        <path id="DejaVuSans-33" d="M 2597 2516 
Q 3050 2419 3304 2112 
Q 3559 1806 3559 1356 
Q 3559 666 3084 287 
Q 2609 -91 1734 -91 
Q 1441 -91 1130 -33 
Q 819 25 488 141 
L 488 750 
Q 750 597 1062 519 
Q 1375 441 1716 441 
Q 2309 441 2620 675 
Q 2931 909 2931 1356 
Q 2931 1769 2642 2001 
Q 2353 2234 1838 2234 
L 1294 2234 
L 1294 2753 
L 1863 2753 
Q 2328 2753 2575 2939 
Q 2822 3125 2822 3475 
Q 2822 3834 2567 4026 
Q 2313 4219 1838 4219 
Q 1578 4219 1281 4162 
Q 984 4106 628 3988 
L 628 4550 
Q 988 4650 1302 4700 
Q 1616 4750 1894 4750 
Q 2613 4750 3031 4423 
Q 3450 4097 3450 3541 
Q 3450 3153 3228 2886 
Q 3006 2619 2597 2516 
z
" transform="scale(0.015625)"/>
       </defs>
       <use xlink:href="#DejaVuSans-33"/>
       <use xlink:href="#DejaVuSans-30" x="63.623047"/>
       <use xlink:href="#DejaVuSans-30" x="127.246094"/>
       <use xlink:href="#DejaVuSans-30" x="190.869141"/>
      </g>
     </g>
    </g>
    <g id="xtick_5">
     <g id="line2d_5">
      <g>
       <use xlink:href="#m0f1ad687d6" x="333.543375" y="307.584" style="stroke: #000000; stroke-width: 0.8"/>
      </g>
     </g>
     <g id="text_5">
      <!-- 4000 -->
      <g transform="translate(320.818375 322.182437) scale(0.1 -0.1)">
       <defs>
        <path id="DejaVuSans-34" d="M 2419 4116 
L 825 1625 
L 2419 1625 
L 2419 4116 
z
M 2253 4666 
L 3047 4666 
L 3047 1625 
L 3713 1625 
L 3713 1100 
L 3047 1100 
L 3047 0 
L 2419 0 
L 2419 1100 
L 313 1100 
L 313 1709 
L 2253 4666 
z
" transform="scale(0.015625)"/>
       </defs>
       <use xlink:href="#DejaVuSans-34"/>
       <use xlink:href="#DejaVuSans-30" x="63.623047"/>
       <use xlink:href="#DejaVuSans-30" x="127.246094"/>
       <use xlink:href="#DejaVuSans-30" x="190.869141"/>
      </g>
     </g>
    </g>
    <g id="xtick_6">
     <g id="line2d_6">
      <g>
       <use xlink:href="#m0f1ad687d6" x="398.487273" y="307.584" style="stroke: #000000; stroke-width: 0.8"/>
      </g>
     </g>
     <g id="text_6">
      <!-- 5000 -->
      <g transform="translate(385.762273 322.182437) scale(0.1 -0.1)">
       <defs>
        <path id="DejaVuSans-35" d="M 691 4666 
L 3169 4666 
L 3169 4134 
L 1269 4134 
L 1269 2991 
Q 1406 3038 1543 3061 
Q 1681 3084 1819 3084 
Q 2600 3084 3056 2656 
Q 3513 2228 3513 1497 
Q 3513 744 3044 326 
Q 2575 -91 1722 -91 
Q 1428 -91 1123 -41 
Q 819 9 494 109 
L 494 744 
Q 775 591 1075 516 
Q 1375 441 1709 441 
Q 2250 441 2565 725 
Q 2881 1009 2881 1497 
Q 2881 1984 2565 2268 
Q 2250 2553 1709 2553 
Q 1456 2553 1204 2497 
Q 953 2441 691 2322 
L 691 4666 
z
" transform="scale(0.015625)"/>
       </defs>
       <use xlink:href="#DejaVuSans-35"/>
       <use xlink:href="#DejaVuSans-30" x="63.623047"/>
       <use xlink:href="#DejaVuSans-30" x="127.246094"/>
       <use xlink:href="#DejaVuSans-30" x="190.869141"/>
      </g>
     </g>
    </g>
    <g id="text_7">
     <!-- epoch -->
     <g transform="translate(220.931875 335.860562) scale(0.1 -0.1)">
      <defs>
       <path id="DejaVuSans-65" d="M 3597 1894 
L 3597 1613 
L 953 1613 
Q 991 1019 1311 708 
Q 1631 397 2203 397 
Q 2534 397 2845 478 
Q 3156 559 3463 722 
L 3463 178 
Q 3153 47 2828 -22 
Q 2503 -91 2169 -91 
Q 1331 -91 842 396 
Q 353 884 353 1716 
Q 353 2575 817 3079 
Q 1281 3584 2069 3584 
Q 2775 3584 3186 3129 
Q 3597 2675 3597 1894 
z
M 3022 2063 
Q 3016 2534 2758 2815 
Q 2500 3097 2075 3097 
Q 1594 3097 1305 2825 
Q 1016 2553 972 2059 
L 3022 2063 
z
" transform="scale(0.015625)"/>
       <path id="DejaVuSans-70" d="M 1159 525 
L 1159 -1331 
L 581 -1331 
L 581 3500 
L 1159 3500 
L 1159 2969 
Q 1341 3281 1617 3432 
Q 1894 3584 2278 3584 
Q 2916 3584 3314 3078 
Q 3713 2572 3713 1747 
Q 3713 922 3314 415 
Q 2916 -91 2278 -91 
Q 1894 -91 1617 61 
Q 1341 213 1159 525 
z
M 3116 1747 
Q 3116 2381 2855 2742 
Q 2594 3103 2138 3103 
Q 1681 3103 1420 2742 
Q 1159 2381 1159 1747 
Q 1159 1113 1420 752 
Q 1681 391 2138 391 
Q 2594 391 2855 752 
Q 3116 1113 3116 1747 
z
" transform="scale(0.015625)"/>
       <path id="DejaVuSans-6f" d="M 1959 3097 
Q 1497 3097 1228 2736 
Q 959 2375 959 1747 
Q 959 1119 1226 758 
Q 1494 397 1959 397 
Q 2419 397 2687 759 
Q 2956 1122 2956 1747 
Q 2956 2369 2687 2733 
Q 2419 3097 1959 3097 
z
M 1959 3584 
Q 2709 3584 3137 3096 
Q 3566 2609 3566 1747 
Q 3566 888 3137 398 
Q 2709 -91 1959 -91 
Q 1206 -91 779 398 
Q 353 888 353 1747 
Q 353 2609 779 3096 
Q 1206 3584 1959 3584 
z
" transform="scale(0.015625)"/>
       <path id="DejaVuSans-63" d="M 3122 3366 
L 3122 2828 
Q 2878 2963 2633 3030 
Q 2388 3097 2138 3097 
Q 1578 3097 1268 2742 
Q 959 2388 959 1747 
Q 959 1106 1268 751 
Q 1578 397 2138 397 
Q 2388 397 2633 464 
Q 2878 531 3122 666 
L 3122 134 
Q 2881 22 2623 -34 
Q 2366 -91 2075 -91 
Q 1284 -91 818 406 
Q 353 903 353 1747 
Q 353 2603 823 3093 
Q 1294 3584 2113 3584 
Q 2378 3584 2631 3529 
Q 2884 3475 3122 3366 
z
" transform="scale(0.015625)"/>
       <path id="DejaVuSans-68" d="M 3513 2113 
L 3513 0 
L 2938 0 
L 2938 2094 
Q 2938 2591 2744 2837 
Q 2550 3084 2163 3084 
Q 1697 3084 1428 2787 
Q 1159 2491 1159 1978 
L 1159 0 
L 581 0 
L 581 4863 
L 1159 4863 
L 1159 2956 
Q 1366 3272 1645 3428 
Q 1925 3584 2291 3584 
Q 2894 3584 3203 3211 
Q 3513 2838 3513 2113 
z
" transform="scale(0.015625)"/>
      </defs>
      <use xlink:href="#DejaVuSans-65"/>
      <use xlink:href="#DejaVuSans-70" x="61.523438"/>
      <use xlink:href="#DejaVuSans-6f" x="125"/>
      <use xlink:href="#DejaVuSans-63" x="186.181641"/>
      <use xlink:href="#DejaVuSans-68" x="241.162109"/>
     </g>
    </g>
   </g>
   <g id="matplotlib.axis_2">
    <g id="ytick_1">
     <g id="line2d_7">
      <defs>
       <path id="m6155d1a166" d="M 0 0 
L -3.5 0 
" style="stroke: #000000; stroke-width: 0.8"/>
      </defs>
      <g>
       <use xlink:href="#m6155d1a166" x="57.6" y="295.512401" style="stroke: #000000; stroke-width: 0.8"/>
      </g>
     </g>
     <g id="text_8">
      <!-- 0 -->
      <g transform="translate(44.2375 299.311619) scale(0.1 -0.1)">
       <use xlink:href="#DejaVuSans-30"/>
      </g>
     </g>
    </g>
    <g id="ytick_2">
     <g id="line2d_8">
      <g>
       <use xlink:href="#m6155d1a166" x="57.6" y="241.783907" style="stroke: #000000; stroke-width: 0.8"/>
      </g>
     </g>
     <g id="text_9">
      <!-- 5 -->
      <g transform="translate(44.2375 245.583126) scale(0.1 -0.1)">
       <use xlink:href="#DejaVuSans-35"/>
      </g>
     </g>
    </g>
    <g id="ytick_3">
     <g id="line2d_9">
      <g>
       <use xlink:href="#m6155d1a166" x="57.6" y="188.055414" style="stroke: #000000; stroke-width: 0.8"/>
      </g>
     </g>
     <g id="text_10">
      <!-- 10 -->
      <g transform="translate(37.875 191.854632) scale(0.1 -0.1)">
       <use xlink:href="#DejaVuSans-31"/>
       <use xlink:href="#DejaVuSans-30" x="63.623047"/>
      </g>
     </g>
    </g>
    <g id="ytick_4">
     <g id="line2d_10">
      <g>
       <use xlink:href="#m6155d1a166" x="57.6" y="134.32692" style="stroke: #000000; stroke-width: 0.8"/>
      </g>
     </g>
     <g id="text_11">
      <!-- 15 -->
      <g transform="translate(37.875 138.126139) scale(0.1 -0.1)">
       <use xlink:href="#DejaVuSans-31"/>
       <use xlink:href="#DejaVuSans-35" x="63.623047"/>
      </g>
     </g>
    </g>
    <g id="ytick_5">
     <g id="line2d_11">
      <g>
       <use xlink:href="#m6155d1a166" x="57.6" y="80.598427" style="stroke: #000000; stroke-width: 0.8"/>
      </g>
     </g>
     <g id="text_12">
      <!-- 20 -->
      <g transform="translate(37.875 84.397645) scale(0.1 -0.1)">
       <use xlink:href="#DejaVuSans-32"/>
       <use xlink:href="#DejaVuSans-30" x="63.623047"/>
      </g>
     </g>
    </g>
    <g id="text_13">
     <!-- loss -->
     <g transform="translate(31.795313 184.185812) rotate(-90) scale(0.1 -0.1)">
      <defs>
       <path id="DejaVuSans-6c" d="M 603 4863 
L 1178 4863 
L 1178 0 
L 603 0 
L 603 4863 
z
" transform="scale(0.015625)"/>
       <path id="DejaVuSans-73" d="M 2834 3397 
L 2834 2853 
Q 2591 2978 2328 3040 
Q 2066 3103 1784 3103 
Q 1356 3103 1142 2972 
Q 928 2841 928 2578 
Q 928 2378 1081 2264 
Q 1234 2150 1697 2047 
L 1894 2003 
Q 2506 1872 2764 1633 
Q 3022 1394 3022 966 
Q 3022 478 2636 193 
Q 2250 -91 1575 -91 
Q 1294 -91 989 -36 
Q 684 19 347 128 
L 347 722 
Q 666 556 975 473 
Q 1284 391 1588 391 
Q 1994 391 2212 530 
Q 2431 669 2431 922 
Q 2431 1156 2273 1281 
Q 2116 1406 1581 1522 
L 1381 1569 
Q 847 1681 609 1914 
Q 372 2147 372 2553 
Q 372 3047 722 3315 
Q 1072 3584 1716 3584 
Q 2034 3584 2315 3537 
Q 2597 3491 2834 3397 
z
" transform="scale(0.015625)"/>
      </defs>
      <use xlink:href="#DejaVuSans-6c"/>
      <use xlink:href="#DejaVuSans-6f" x="27.783203"/>
      <use xlink:href="#DejaVuSans-73" x="88.964844"/>
      <use xlink:href="#DejaVuSans-73" x="141.064453"/>
     </g>
    </g>
   </g>
   <g id="line2d_12">
    <path d="M 73.832727 274.658839 
L 74.352278 275.144708 
L 75.196549 275.898907 
L 75.910932 276.864064 
L 76.690259 278.288931 
L 78.183968 281.621534 
L 79.482846 284.253355 
L 80.521949 285.868395 
L 81.561051 287.071756 
L 82.600153 287.945755 
L 83.769144 288.642959 
L 85.262853 289.251815 
L 87.276114 289.811781 
L 90.133646 290.361306 
L 94.484887 290.951794 
L 100.005118 291.501139 
L 109.811647 292.225884 
L 132.347179 293.360333 
L 164.819128 294.406994 
L 186.640278 294.783484 
L 232.036062 295.188409 
L 263.598797 295.334103 
L 370.561397 295.477551 
L 398.487273 295.488 
L 398.487273 295.488 
" clip-path="url(#p5601d93412)" style="fill: none; stroke: #0000ff; stroke-width: 1.5; stroke-linecap: square"/>
   </g>
   <g id="line2d_13">
    <path d="M 73.832727 274.607591 
L 74.222391 275.016233 
L 75.326437 275.788373 
L 76.235651 276.683805 
L 77.534529 278.820046 
L 79.288015 281.982221 
L 80.457005 283.420679 
L 81.496107 284.181496 
L 83.054761 284.601725 
L 84.743302 284.444113 
L 86.107124 284.022109 
L 90.068702 282.169302 
L 90.653197 281.859882 
L 94.160167 279.974319 
L 94.744662 279.663261 
L 95.978596 279.010543 
L 97.147587 278.351071 
L 97.732082 278.049068 
L 97.991857 277.889647 
L 101.888491 275.620351 
L 102.213211 275.424047 
L 102.992537 274.921036 
L 103.057481 274.934973 
L 103.252313 274.759655 
L 103.447145 274.694841 
L 103.641976 274.541577 
L 104.161528 274.236507 
L 104.356359 274.069988 
L 104.421303 274.111422 
L 104.616135 273.912375 
L 104.746023 273.870854 
L 105.070742 273.673461 
L 106.239732 272.963584 
L 106.759283 272.655025 
L 107.408722 272.244728 
L 107.733442 272.053576 
L 108.123105 271.804967 
L 108.512769 271.577902 
L 108.902432 271.343515 
L 109.227152 271.167141 
L 109.421983 271.031751 
L 109.486927 271.030644 
L 109.681759 270.839877 
L 109.811647 270.809504 
L 110.20131 270.575486 
L 110.655917 270.286149 
L 110.850749 270.197405 
L 111.69502 269.674429 
L 111.889851 269.639274 
L 112.149627 269.449388 
L 112.86401 269.060547 
L 113.123785 268.904976 
L 113.448505 268.761795 
L 113.643337 268.577571 
L 113.838168 268.509167 
L 114.097944 268.326511 
L 114.162888 268.345495 
L 114.35772 268.200636 
L 117.345139 266.544709 
L 117.929634 266.234569 
L 118.124466 266.1176 
L 118.319297 265.996815 
L 121.69638 264.145402 
L 121.891212 264.018385 
L 122.150987 263.936476 
L 122.345819 263.724675 
L 122.475707 263.727964 
L 122.605595 263.579582 
L 122.670538 263.64429 
L 122.86537 263.440168 
L 122.930314 263.501081 
L 122.995258 263.412647 
L 123.644697 263.043769 
L 123.839529 262.975641 
L 124.424024 262.6292 
L 124.553912 262.58951 
L 124.748743 262.435451 
L 124.878631 262.395625 
L 125.138407 262.209808 
L 125.398182 262.15822 
L 125.52807 262.033787 
L 125.722902 261.972584 
L 125.982677 261.793535 
L 130.333918 259.566839 
L 130.593694 259.530346 
L 131.437965 259.248186 
L 131.69774 259.244927 
L 132.217291 259.070298 
L 132.996618 258.715992 
L 133.126506 258.660743 
L 133.386282 258.467071 
L 133.646057 258.400129 
L 133.711001 258.24173 
L 133.775945 258.285199 
L 135.074823 257.533754 
L 135.464486 257.28184 
L 135.52943 257.330197 
L 135.789206 257.069819 
L 135.85415 257.13704 
L 136.048981 256.96489 
L 136.69842 256.533487 
L 136.763364 256.551849 
L 137.02314 256.29146 
L 137.153028 256.322988 
L 137.412803 256.041265 
L 137.607635 256.010842 
L 138.322018 255.515617 
L 138.386962 255.563352 
L 138.646737 255.345584 
L 139.426064 254.862009 
L 139.555952 254.815517 
L 139.68584 254.624978 
L 139.815728 254.714055 
L 140.010559 254.45773 
L 140.205391 254.40236 
L 140.465166 254.238053 
L 140.595054 254.16692 
L 141.244493 253.789075 
L 141.309437 253.840717 
L 141.439325 253.616695 
L 141.504269 253.686493 
L 141.569213 253.606985 
L 141.828988 253.461898 
L 141.893932 253.483782 
L 142.02382 253.286246 
L 142.153708 253.314044 
L 142.34854 253.161345 
L 142.478427 253.098095 
L 142.608315 252.987169 
L 142.738203 252.931728 
L 142.933035 252.824968 
L 143.062922 252.779362 
L 143.19281 252.633929 
L 143.322698 252.600221 
L 143.712361 252.318602 
L 144.037081 252.171011 
L 144.426744 251.892755 
L 145.011239 251.570597 
L 145.076183 251.458408 
L 145.141127 251.534776 
L 145.660678 251.136999 
L 145.790566 251.189524 
L 145.985398 250.986324 
L 146.310117 250.868176 
L 146.569893 250.686972 
L 146.894612 250.570187 
L 147.219332 250.374294 
L 147.414164 250.407671 
L 147.673939 250.0678 
L 148.648098 249.303522 
L 148.777985 249.331222 
L 148.972817 249.123502 
L 149.232593 248.915772 
L 149.36248 248.910459 
L 149.557312 248.749387 
L 150.011919 248.445055 
L 150.661358 247.986657 
L 150.791246 247.977567 
L 151.051022 247.731279 
L 151.18091 247.66102 
L 151.505629 247.555225 
L 151.830349 247.247245 
L 151.895293 247.250007 
L 152.02518 247.168501 
L 152.284956 246.994604 
L 153.129227 246.421624 
L 153.259114 246.420173 
L 153.453946 246.257893 
L 153.713722 246.048451 
L 153.843609 246.101187 
L 153.973497 245.86132 
L 154.103385 245.887129 
L 154.298217 245.724623 
L 154.363161 245.761772 
L 154.622936 245.518297 
L 155.662039 244.858256 
L 155.791926 244.798864 
L 156.18159 244.527213 
L 156.376421 244.436027 
L 156.636197 244.21562 
L 156.895973 244.104369 
L 157.090804 243.879023 
L 157.155748 243.939813 
L 157.220692 243.920066 
L 157.415524 243.732417 
L 158.129907 243.331401 
L 158.389682 243.133417 
L 160.208111 241.927747 
L 160.337999 241.827112 
L 160.402943 241.714257 
L 160.467887 241.752815 
L 160.597775 241.680557 
L 160.727663 241.538306 
L 160.987438 241.41798 
L 161.312158 241.115114 
L 161.442046 241.128211 
L 161.636877 241.00604 
L 161.896653 240.80387 
L 161.961597 240.797583 
L 162.091484 240.616912 
L 162.156428 240.688817 
L 162.221372 240.602458 
L 162.611036 240.26771 
L 162.805867 240.210804 
L 163.130587 239.880155 
L 163.325419 239.846588 
L 165.858231 238.179824 
L 165.988118 237.886832 
L 166.118006 237.99612 
L 166.50767 237.636711 
L 166.832389 237.442242 
L 166.962277 237.317935 
L 167.092165 237.319892 
L 167.222052 237.135717 
L 167.286996 237.156828 
L 167.481828 236.9101 
L 167.67666 236.908527 
L 167.871491 236.671324 
L 167.936435 236.718279 
L 168.391043 236.303824 
L 168.650818 236.243484 
L 168.84565 235.986933 
L 168.975538 235.972878 
L 169.300257 235.720631 
L 169.495089 235.601018 
L 169.624977 235.455744 
L 169.754864 235.35719 
L 169.884752 235.341961 
L 170.469247 234.797214 
L 170.599135 234.789856 
L 170.793967 234.605614 
L 170.988798 234.498759 
L 171.638237 234.00046 
L 171.768125 233.939516 
L 171.962957 233.743981 
L 172.027901 233.736049 
L 172.157789 233.542912 
L 172.287676 233.538957 
L 172.807228 233.096196 
L 173.002059 232.972704 
L 173.131947 232.808937 
L 173.261835 232.78652 
L 173.456667 232.617993 
L 173.521611 232.623512 
L 173.781386 232.371906 
L 174.820488 231.476239 
L 174.950376 231.474308 
L 175.145208 231.286341 
L 175.664759 230.874396 
L 176.249254 230.386458 
L 176.379142 230.351604 
L 176.573974 230.112167 
L 176.768805 230.021515 
L 177.937796 229.091118 
L 178.067683 228.947709 
L 178.327459 228.695145 
L 178.587235 228.516718 
L 178.976898 228.210014 
L 179.821169 227.506301 
L 180.470608 227.007198 
L 181.249934 226.391351 
L 181.899373 225.789318 
L 182.094205 225.624788 
L 182.418925 225.377506 
L 182.613756 225.259747 
L 182.938476 224.915982 
L 184.042522 224.058607 
L 184.497129 223.647461 
L 184.886793 223.420055 
L 185.01668 223.191814 
L 185.081624 223.235639 
L 185.3414 223.023139 
L 185.406344 223.036886 
L 185.601176 222.740742 
L 185.731063 222.698116 
L 185.860951 222.517318 
L 185.925895 222.567092 
L 186.315558 222.169996 
L 186.770166 221.791813 
L 187.159829 221.478668 
L 187.289717 221.416007 
L 187.549492 221.167444 
L 187.67938 221.074875 
L 188.0041 220.767372 
L 188.653539 220.289676 
L 188.978258 220.039525 
L 189.108146 219.774878 
L 189.17309 219.833445 
L 189.302978 219.748618 
L 189.757585 219.3285 
L 190.212192 218.998713 
L 190.6668 218.524681 
L 190.796687 218.524824 
L 191.056463 218.291403 
L 191.51107 217.89567 
L 192.160509 217.346649 
L 192.355341 217.204998 
L 195.732424 214.409571 
L 195.992199 214.170816 
L 196.641638 213.595063 
L 197.031302 213.300964 
L 197.745684 212.673009 
L 197.875572 212.633119 
L 198.070404 212.410683 
L 200.538272 210.264599 
L 200.862992 209.957316 
L 203.265916 207.922325 
L 203.525691 207.736325 
L 204.49985 206.835494 
L 204.694681 206.650222 
L 205.084345 206.332989 
L 210.799408 201.442467 
L 210.864352 201.447263 
L 211.059183 201.16647 
L 211.124127 201.212658 
L 211.448847 200.884715 
L 212.228174 200.182898 
L 213.33222 199.174259 
L 213.527052 199.107996 
L 214.436266 198.204572 
L 214.566154 198.165261 
L 214.955817 197.769252 
L 216.254695 196.660901 
L 217.16391 195.876045 
L 217.293798 195.682237 
L 217.423685 195.653245 
L 218.008181 195.10694 
L 219.436946 193.872601 
L 219.891554 193.470771 
L 220.151329 193.232169 
L 220.540993 192.867211 
L 227.16527 186.910467 
L 227.619877 186.514878 
L 227.749765 186.4294 
L 228.139429 186.030388 
L 228.464148 185.778925 
L 228.853811 185.40622 
L 228.983699 185.297674 
L 229.50325 184.818482 
L 229.633138 184.730647 
L 229.892914 184.488848 
L 231.061904 183.413506 
L 231.646399 182.903806 
L 232.101006 182.480629 
L 232.685501 181.990298 
L 232.945277 181.732144 
L 233.529772 181.199591 
L 234.179211 180.620626 
L 234.958538 180.010528 
L 235.283257 179.705458 
L 241.972479 174.075796 
L 242.102367 173.909985 
L 242.232254 174.005147 
L 242.427086 173.600109 
L 242.49203 173.647834 
L 242.621918 173.56832 
L 242.946637 173.198402 
L 243.141469 173.077528 
L 243.336301 172.947954 
L 243.725964 172.549659 
L 244.570235 171.82956 
L 245.089786 171.305862 
L 245.219674 171.282271 
L 245.414505 171.06808 
L 245.479449 171.095913 
L 245.739225 170.748796 
L 245.869113 170.647742 
L 246.258776 170.220415 
L 246.388664 170.270281 
L 246.64844 169.979405 
L 246.778327 169.870111 
L 247.038103 169.637852 
L 247.557654 169.201118 
L 247.687542 168.982817 
L 247.752486 169.040595 
L 247.81743 169.027949 
L 248.077205 168.72252 
L 248.596756 168.271521 
L 248.791588 168.107431 
L 248.921476 167.983483 
L 249.051364 167.801419 
L 249.181252 167.815397 
L 249.376083 167.48768 
L 249.441027 167.52985 
L 249.505971 167.568945 
L 249.765747 167.165619 
L 249.830691 167.20701 
L 249.960578 167.092008 
L 250.15541 166.863767 
L 250.285298 166.802505 
L 250.610017 166.461384 
L 251.519232 165.715695 
L 252.168671 165.105505 
L 252.558334 164.733147 
L 253.012941 164.360903 
L 254.246876 163.318702 
L 254.376763 163.153352 
L 254.571595 162.978093 
L 254.701483 162.956429 
L 255.091146 162.482023 
L 258.273397 159.720266 
L 258.468229 159.572522 
L 258.922836 159.182067 
L 263.923516 154.88745 
L 264.053404 154.75475 
L 264.248236 154.54229 
L 264.443068 154.357388 
L 264.962619 153.883258 
L 265.15745 153.769865 
L 265.677002 153.298288 
L 266.456328 152.620174 
L 266.781048 152.316416 
L 266.97588 152.181575 
L 267.170711 151.983534 
L 267.495431 151.758613 
L 268.14487 151.120364 
L 268.339701 150.963807 
L 268.98914 150.393901 
L 269.963299 149.496831 
L 270.417906 149.197653 
L 270.612738 148.958058 
L 270.742626 148.915426 
L 271.132289 148.49765 
L 271.327121 148.437577 
L 271.65184 148.044755 
L 272.431167 147.374368 
L 272.625999 147.215751 
L 272.755886 147.201896 
L 273.080606 146.841898 
L 273.210494 146.799564 
L 273.470269 146.498337 
L 273.730045 146.284586 
L 274.249596 145.835011 
L 274.379484 145.763696 
L 274.639259 145.498019 
L 274.899035 145.245388 
L 275.353642 144.857403 
L 275.48353 144.807813 
L 275.743306 144.539492 
L 275.873194 144.498173 
L 276.068025 144.225927 
L 276.197913 144.205175 
L 276.522633 143.899091 
L 277.496791 143.040717 
L 277.691623 142.897626 
L 277.886454 142.609967 
L 278.016342 142.703069 
L 278.795669 141.914576 
L 279.834771 141.043433 
L 280.029603 140.828309 
L 280.224435 140.700938 
L 280.48421 140.442465 
L 280.938818 140.022681 
L 281.068705 140.051611 
L 281.523313 139.627829 
L 282.952078 138.394382 
L 283.341742 138.075683 
L 283.47163 137.859739 
L 283.666461 137.873533 
L 283.926237 137.577922 
L 285.225115 136.5431 
L 285.355003 136.452641 
L 285.614778 136.131349 
L 285.744666 136.100401 
L 286.199273 135.660131 
L 286.394105 135.502128 
L 286.783768 135.243379 
L 287.887815 134.260965 
L 288.082646 134.161232 
L 288.277478 133.924331 
L 288.602198 133.661493 
L 288.732085 133.614937 
L 288.991861 133.372072 
L 289.446468 132.982058 
L 289.6413 132.789244 
L 292.563775 130.431326 
L 292.693663 130.385292 
L 292.953439 130.082436 
L 293.14827 129.97803 
L 293.602878 129.623064 
L 293.797709 129.395232 
L 294.057485 129.177157 
L 294.317261 128.99869 
L 294.64198 128.762476 
L 294.836812 128.566803 
L 295.031643 128.41413 
L 295.161531 128.393941 
L 295.356363 128.14422 
L 295.875914 127.731579 
L 296.265577 127.393767 
L 296.460409 127.283735 
L 296.720185 127.038565 
L 297.109848 126.734592 
L 310.423347 116.155595 
L 310.618179 116.0144 
L 311.657281 115.18719 
L 312.371664 114.643272 
L 312.566496 114.497773 
L 312.696384 114.411526 
L 312.956159 114.174124 
L 313.215935 113.981176 
L 313.47571 113.816759 
L 313.605598 113.768204 
L 314.060205 113.332074 
L 314.839532 112.740156 
L 314.96942 112.68908 
L 315.29414 112.384636 
L 315.553915 112.190172 
L 316.528074 111.432975 
L 316.657961 111.372512 
L 317.047625 111.058189 
L 317.826952 110.448234 
L 318.021783 110.338561 
L 340.102709 93.999622 
L 340.427428 93.744367 
L 341.596418 92.920006 
L 341.921138 92.666514 
L 344.778669 90.658193 
L 344.973501 90.461331 
L 345.168333 90.347661 
L 345.29822 90.28685 
L 345.752828 89.871605 
L 346.337323 89.492638 
L 346.726986 89.23806 
L 347.506313 88.639254 
L 347.831032 88.435219 
L 348.480471 87.961541 
L 349.194854 87.469498 
L 349.45463 87.268988 
L 349.909237 86.985305 
L 350.169013 86.750547 
L 350.363844 86.6436 
L 350.558676 86.481642 
L 350.688564 86.439605 
L 351.013283 86.14301 
L 351.338003 85.951928 
L 352.701825 84.958558 
L 353.091488 84.693117 
L 354.13059 83.89704 
L 354.325422 83.840369 
L 354.45531 83.733381 
L 354.650142 83.552916 
L 355.039805 83.335927 
L 355.754188 82.762168 
L 357.572617 81.49895 
L 357.767449 81.414303 
L 358.157112 81.094978 
L 358.546776 80.807689 
L 360.040485 79.744613 
L 360.300261 79.575789 
L 360.560036 79.432687 
L 360.819812 79.190653 
L 361.014644 79.103156 
L 361.339363 78.866573 
L 362.768129 77.857668 
L 363.417568 77.379501 
L 363.6124 77.224676 
L 363.872175 77.119143 
L 364.391726 76.728349 
L 369.587238 73.09301 
L 370.041845 72.812833 
L 373.873535 70.210154 
L 374.587918 69.64941 
L 376.601179 68.309969 
L 376.796011 68.222902 
L 377.12073 67.921348 
L 377.250618 67.905955 
L 377.770169 67.410429 
L 378.029945 67.300571 
L 379.588598 66.203698 
L 379.78343 66.085458 
L 380.043206 65.973428 
L 380.692645 65.444308 
L 381.017364 65.317603 
L 381.471971 64.906007 
L 381.796691 64.717343 
L 383.420288 63.637071 
L 383.61512 63.506185 
L 384.199615 63.112317 
L 384.394447 62.986391 
L 385.10883 62.529847 
L 385.238718 62.454218 
L 385.498493 62.143112 
L 385.758269 62.0748 
L 389.914678 59.264068 
L 390.10951 59.105246 
L 391.018724 58.48201 
L 391.408388 58.222533 
L 392.057827 57.818233 
L 392.317602 57.636927 
L 393.226817 57.039905 
L 398.487273 53.568 
L 398.487273 53.568 
" clip-path="url(#p5601d93412)" style="fill: none; stroke: #008000; stroke-width: 1.5; stroke-linecap: square"/>
   </g>
   <g id="line2d_14">
    <path d="M 73.832727 274.588997 
L 74.222391 275.019283 
L 75.326437 275.74629 
L 76.235651 276.635056 
L 77.339698 278.373887 
L 78.183968 279.937815 
L 79.54779 282.267422 
L 80.327117 283.244669 
L 80.976556 283.854174 
L 82.015658 284.47362 
L 83.054761 284.7567 
L 85.068022 284.73201 
L 88.250273 283.902232 
L 98.056801 280.29878 
L 98.381521 280.143701 
L 98.771184 280.037198 
L 99.03096 279.87733 
L 99.160847 279.830505 
L 99.290735 279.791877 
L 100.005118 279.465232 
L 100.719501 279.125277 
L 100.914333 279.040529 
L 101.303996 278.839774 
L 101.758603 278.643001 
L 102.148267 278.433845 
L 102.927594 278.060537 
L 103.252313 277.857289 
L 103.447145 277.819646 
L 103.641976 277.682308 
L 104.161528 277.432915 
L 104.356359 277.279523 
L 104.421303 277.341531 
L 104.616135 277.150605 
L 104.746023 277.131085 
L 104.940854 276.981858 
L 105.070742 276.963218 
L 105.720181 276.605466 
L 105.785125 276.648797 
L 105.979957 276.519128 
L 106.239732 276.379727 
L 106.759283 276.120909 
L 107.213891 275.871876 
L 107.928274 275.544148 
L 108.123105 275.40129 
L 108.447825 275.239755 
L 113.448505 272.780042 
L 113.643337 272.599131 
L 113.838168 272.564485 
L 114.097944 272.382984 
L 114.162888 272.416943 
L 114.35772 272.278294 
L 117.929634 270.571956 
L 118.124466 270.458696 
L 118.254353 270.379295 
L 118.708961 270.186835 
L 119.098624 269.933924 
L 119.163568 269.998386 
L 119.3584 269.845469 
L 119.942895 269.574725 
L 120.137726 269.447943 
L 120.267614 269.402476 
L 121.69638 268.751294 
L 121.891212 268.622706 
L 122.150987 268.572624 
L 122.345819 268.365422 
L 122.475707 268.380927 
L 122.605595 268.238891 
L 122.670538 268.31129 
L 122.86537 268.101357 
L 122.930314 268.182904 
L 123.125146 268.027049 
L 123.969416 267.589303 
L 124.03436 267.615173 
L 124.294136 267.391003 
L 124.424024 267.365524 
L 124.553912 267.336513 
L 124.748743 267.187431 
L 124.878631 267.156882 
L 124.943575 267.0528 
L 125.008519 267.125816 
L 125.333238 266.885687 
L 125.398182 266.94441 
L 125.463126 266.78609 
L 125.52807 266.81747 
L 125.722902 266.763804 
L 125.982677 266.577794 
L 127.736163 265.759674 
L 127.995938 265.493444 
L 128.125826 265.538163 
L 128.385601 265.319324 
L 128.450545 265.36739 
L 128.580433 265.264547 
L 128.710321 265.198909 
L 129.164928 265.026263 
L 129.684479 264.700487 
L 129.814367 264.660157 
L 131.437965 263.954522 
L 131.632796 263.909844 
L 131.892572 263.82016 
L 132.087404 263.72715 
L 132.671899 263.471585 
L 132.801787 263.405163 
L 132.996618 263.311638 
L 133.126506 263.266063 
L 133.386282 263.077489 
L 133.451226 263.099153 
L 133.516169 263.003466 
L 133.581113 263.079803 
L 134.035721 262.759328 
L 134.165608 262.725559 
L 134.36044 262.585203 
L 134.490328 262.54641 
L 134.750103 262.350135 
L 134.879991 262.299187 
L 135.594374 261.919833 
L 135.789206 261.762723 
L 135.85415 261.846399 
L 136.113925 261.626587 
L 136.178869 261.6391 
L 136.308757 261.407215 
L 136.373701 261.554303 
L 136.438645 261.464665 
L 137.02314 261.06749 
L 137.153028 261.09839 
L 137.412803 260.854533 
L 137.607635 260.813903 
L 141.244493 258.767841 
L 141.309437 258.833038 
L 141.439325 258.606842 
L 141.504269 258.689007 
L 141.569213 258.6021 
L 141.828988 258.461829 
L 141.893932 258.504394 
L 142.02382 258.291975 
L 142.153708 258.333423 
L 142.34854 258.182727 
L 142.478427 258.126369 
L 142.608315 258.019189 
L 142.738203 257.977026 
L 142.933035 257.862445 
L 143.062922 257.842474 
L 143.19281 257.69958 
L 143.322698 257.667217 
L 143.712361 257.401356 
L 144.037081 257.288849 
L 144.296856 257.098925 
L 144.621576 256.990016 
L 144.751464 256.902893 
L 147.998659 255.112678 
L 148.19349 254.947233 
L 148.453266 254.731625 
L 149.427424 254.086674 
L 149.882032 253.830899 
L 150.011919 253.758785 
L 150.401583 253.538667 
L 150.596415 253.378075 
L 151.440685 252.913828 
L 151.570573 252.846786 
L 152.02518 252.583779 
L 152.284956 252.428269 
L 152.609675 252.238007 
L 152.674619 252.246513 
L 152.804507 252.092205 
L 152.869451 252.115524 
L 153.129227 251.890721 
L 153.259114 251.897715 
L 153.453946 251.748588 
L 153.713722 251.557009 
L 153.843609 251.599968 
L 153.973497 251.371353 
L 154.103385 251.402301 
L 154.298217 251.241737 
L 154.363161 251.293863 
L 154.622936 251.075327 
L 159.169009 248.439358 
L 159.428785 248.265046 
L 159.753504 248.072093 
L 160.078224 247.886181 
L 160.792607 247.475814 
L 161.052382 247.294632 
L 161.961597 246.821835 
L 162.091484 246.640206 
L 162.156428 246.717444 
L 162.221372 246.64242 
L 162.611036 246.330955 
L 162.805867 246.296292 
L 163.130587 245.991017 
L 163.260475 246.039305 
L 163.585194 245.823408 
L 163.974858 245.54489 
L 164.234633 245.375903 
L 164.364521 245.341885 
L 164.494409 245.226806 
L 164.624296 245.137951 
L 165.923174 244.298439 
L 165.988118 244.207745 
L 166.053062 244.304823 
L 166.18295 244.240625 
L 166.377782 244.10233 
L 166.832389 243.809619 
L 166.962277 243.712572 
L 167.092165 243.716732 
L 167.157109 243.513685 
L 167.222052 243.535667 
L 167.286996 243.567943 
L 167.481828 243.341019 
L 167.67666 243.319124 
L 167.871491 243.133166 
L 167.936435 243.194038 
L 168.001379 243.111614 
L 168.326099 242.853572 
L 169.495089 242.177846 
L 169.624977 242.064992 
L 169.754864 241.987072 
L 169.884752 241.961667 
L 170.209472 241.686788 
L 170.33936 241.59905 
L 170.534191 241.512225 
L 170.923855 241.300463 
L 171.18363 241.098113 
L 171.50835 240.893298 
L 171.898013 240.570259 
L 172.027901 240.584949 
L 172.157789 240.401076 
L 172.287676 240.404028 
L 172.872172 240.001782 
L 173.002059 239.92975 
L 173.131947 239.794872 
L 173.261835 239.776032 
L 173.456667 239.633652 
L 173.521611 239.651868 
L 173.716442 239.431364 
L 173.84633 239.388615 
L 174.171049 239.142261 
L 174.235993 239.149813 
L 174.495769 238.898084 
L 174.950376 238.698009 
L 175.145208 238.536641 
L 175.859591 238.061856 
L 176.054423 237.93184 
L 176.444086 237.664078 
L 176.638918 237.56576 
L 176.898693 237.383742 
L 177.158469 237.17716 
L 177.872852 236.711429 
L 178.002739 236.710957 
L 178.327459 236.405519 
L 178.587235 236.265425 
L 178.782066 236.18399 
L 179.17173 235.892837 
L 180.080944 235.249382 
L 180.210832 235.262965 
L 180.470608 235.05047 
L 180.795327 234.835623 
L 181.055103 234.651422 
L 181.314878 234.4899 
L 181.444766 234.38387 
L 181.704542 234.217516 
L 182.418925 233.733815 
L 182.808588 233.525824 
L 183.328139 233.093747 
L 183.522971 233.047186 
L 183.652859 232.900584 
L 183.782746 232.867094 
L 184.17241 232.595725 
L 184.302298 232.498488 
L 184.691961 232.185255 
L 184.951737 232.047155 
L 185.211512 231.835941 
L 185.471288 231.717987 
L 185.601176 231.599803 
L 185.731063 231.571068 
L 185.860951 231.404192 
L 185.925895 231.470895 
L 185.990839 231.387436 
L 186.120727 231.259194 
L 186.250614 231.228619 
L 186.51039 231.015402 
L 186.964997 230.775806 
L 187.159829 230.582346 
L 187.289717 230.544132 
L 187.549492 230.325749 
L 187.614436 230.349954 
L 187.874212 230.150643 
L 189.043202 229.32082 
L 189.108146 229.191614 
L 189.17309 229.273603 
L 189.302978 229.191922 
L 189.757585 228.833348 
L 190.082304 228.6404 
L 190.601856 228.288129 
L 190.6668 228.170693 
L 190.731743 228.212684 
L 190.861631 228.102709 
L 191.186351 227.918175 
L 191.446126 227.717716 
L 193.199612 226.559452 
L 193.719163 226.17717 
L 194.17377 225.874852 
L 194.563433 225.584811 
L 204.369962 218.803608 
L 204.694681 218.548143 
L 205.019401 218.360458 
L 205.538952 218.021181 
L 205.798728 217.821316 
L 206.123447 217.608196 
L 206.448167 217.415756 
L 206.83783 217.138986 
L 207.097606 216.926383 
L 207.227493 216.848397 
L 207.876932 216.380549 
L 208.136708 216.198285 
L 208.266596 216.123225 
L 208.396484 216.098215 
L 208.526371 215.925681 
L 208.656259 215.917662 
L 208.916035 215.665513 
L 210.409744 214.62098 
L 210.799408 214.388763 
L 210.864352 214.40623 
L 211.059183 214.158093 
L 211.124127 214.222552 
L 211.383903 213.965007 
L 211.578735 213.822377 
L 212.617837 213.093065 
L 212.942557 212.887046 
L 213.137388 212.768791 
L 213.267276 212.662935 
L 213.462108 212.521391 
L 213.591995 212.473385 
L 213.851771 212.26133 
L 214.046603 212.084785 
L 214.436266 211.803787 
L 214.566154 211.781462 
L 214.955817 211.457941 
L 216.319639 210.551187 
L 216.904134 210.097559 
L 217.034022 210.062316 
L 217.098966 210.090529 
L 217.358742 209.847192 
L 217.878293 209.471263 
L 219.372002 208.425363 
L 219.50189 208.392047 
L 219.761666 208.188278 
L 219.891554 208.10898 
L 220.086385 207.982039 
L 221.060544 207.250698 
L 221.190432 207.229915 
L 221.385263 207.066523 
L 221.515151 206.989858 
L 221.709983 206.86342 
L 223.723244 205.456445 
L 223.853131 205.362 
L 224.242795 205.11314 
L 224.372683 205.021985 
L 224.567514 204.907578 
L 225.087065 204.508555 
L 225.866392 203.966032 
L 225.99628 203.92047 
L 226.191112 203.765839 
L 226.320999 203.687689 
L 226.515831 203.535651 
L 228.853811 201.906338 
L 228.983699 201.8192 
L 229.892914 201.206693 
L 232.555614 199.375896 
L 232.750445 199.209235 
L 233.33494 198.852147 
L 237.556294 196.359459 
L 237.686182 196.311478 
L 237.816069 196.183881 
L 237.945957 196.185521 
L 238.140789 195.993752 
L 238.270677 196.004769 
L 238.465508 195.780094 
L 238.595396 195.832245 
L 238.790228 195.631428 
L 239.244835 195.4364 
L 239.82933 195.077221 
L 239.959218 195.099213 
L 240.15405 194.886969 
L 240.283938 194.902864 
L 240.478769 194.646092 
L 240.608657 194.679982 
L 240.738545 194.485006 
L 240.803489 194.523271 
L 240.868433 194.524634 
L 241.063264 194.31652 
L 241.193152 194.299795 
L 241.387984 194.109359 
L 241.517872 194.064985 
L 241.777647 193.918389 
L 241.972479 193.73738 
L 242.102367 193.599649 
L 242.232254 193.726507 
L 242.427086 193.374103 
L 242.556974 193.455522 
L 242.946637 193.093064 
L 243.141469 193.024619 
L 243.271357 192.910088 
L 243.401245 192.86468 
L 243.66102 192.663001 
L 244.245515 192.331738 
L 244.570235 192.113314 
L 244.83001 191.987029 
L 244.894954 191.960774 
L 245.089786 191.707887 
L 245.219674 191.708 
L 245.349562 191.504538 
L 245.414505 191.542619 
L 245.479449 191.592332 
L 245.739225 191.302019 
L 245.869113 191.232251 
L 246.258776 190.884807 
L 246.388664 190.971248 
L 246.64844 190.735485 
L 246.778327 190.653071 
L 247.038103 190.477309 
L 247.557654 190.160434 
L 247.687542 189.969444 
L 247.81743 190.045381 
L 248.077205 189.804012 
L 248.596756 189.475854 
L 248.791588 189.345798 
L 248.921476 189.257861 
L 249.051364 189.108754 
L 249.181252 189.141496 
L 249.376083 188.867898 
L 249.441027 188.92214 
L 249.505971 188.970817 
L 249.570915 188.881661 
L 249.765747 188.634502 
L 249.895634 188.684819 
L 250.220354 188.414008 
L 250.869793 187.975275 
L 251.194512 187.768636 
L 251.584176 187.548184 
L 251.843951 187.324595 
L 252.103727 187.192162 
L 252.623278 186.832296 
L 253.012941 186.589063 
L 253.857212 186.027078 
L 253.9871 185.95441 
L 254.181932 185.827869 
L 254.311819 185.799298 
L 254.571595 185.5563 
L 254.701483 185.557694 
L 255.091146 185.182897 
L 259.637219 182.283091 
L 259.832051 182.225631 
L 259.961939 182.105034 
L 260.351602 181.841386 
L 260.611378 181.69478 
L 261.260817 181.301517 
L 261.390704 181.174228 
L 261.520592 181.054214 
L 261.65048 181.102113 
L 262.040143 180.755652 
L 262.170031 180.763502 
L 262.559694 180.43063 
L 263.079246 180.107227 
L 263.923516 179.610019 
L 264.053404 179.50628 
L 264.248236 179.34299 
L 264.443068 179.203516 
L 264.962619 178.849451 
L 265.15745 178.779724 
L 265.677002 178.424061 
L 266.066665 178.130069 
L 266.261497 178.070365 
L 266.391384 178.047758 
L 266.65116 177.7849 
L 267.430487 177.333418 
L 267.560375 177.248402 
L 267.755206 177.051376 
L 267.885094 177.088924 
L 268.209814 176.827736 
L 270.158131 175.542547 
L 270.288018 175.465206 
L 270.417906 175.44058 
L 270.612738 175.250605 
L 270.742626 175.230109 
L 271.132289 174.899287 
L 271.327121 174.88991 
L 271.65184 174.574951 
L 272.366223 174.18303 
L 272.625999 173.984221 
L 272.755886 173.993055 
L 273.015662 173.667571 
L 273.210494 173.690014 
L 273.470269 173.446698 
L 273.730045 173.297807 
L 274.184652 172.95936 
L 274.379484 172.919957 
L 274.639259 172.724201 
L 275.223755 172.338204 
L 275.353642 172.237211 
L 275.48353 172.220866 
L 275.743306 172.008416 
L 275.873194 172.002298 
L 276.068025 171.773883 
L 276.262857 171.705827 
L 276.522633 171.545703 
L 277.496791 170.908858 
L 277.691623 170.816463 
L 277.886454 170.574715 
L 278.016342 170.690516 
L 278.081286 170.617439 
L 278.341062 170.336329 
L 278.665781 170.167535 
L 279.120388 169.867774 
L 281.003761 168.705622 
L 281.133649 168.636735 
L 281.393425 168.451833 
L 281.588257 168.339423 
L 281.912976 168.163385 
L 282.432527 167.814915 
L 282.627359 167.690824 
L 283.017022 167.434657 
L 283.211854 167.323754 
L 283.341742 167.233614 
L 283.47163 167.037848 
L 283.666461 167.085798 
L 283.926237 166.864351 
L 285.095227 166.072281 
L 285.355003 166.021421 
L 285.614778 165.762959 
L 285.744666 165.761893 
L 286.199273 165.410359 
L 286.329161 165.379831 
L 286.653881 165.095124 
L 286.913656 164.972087 
L 287.108488 164.874404 
L 287.30332 164.723064 
L 288.602198 163.907997 
L 288.732085 163.893998 
L 288.926917 163.724744 
L 289.576356 163.322688 
L 289.771188 163.221173 
L 289.901075 163.184106 
L 290.095907 162.925675 
L 290.225795 163.005414 
L 290.81029 162.496278 
L 291.199953 162.341514 
L 291.394785 162.152379 
L 295.031643 159.96104 
L 295.161531 159.965887 
L 295.356363 159.76345 
L 295.486251 159.678895 
L 295.681082 159.555121 
L 295.81097 159.536644 
L 296.13569 159.262953 
L 300.162211 156.814618 
L 300.357043 156.713789 
L 300.486931 156.643775 
L 300.876594 156.366662 
L 301.071426 156.29879 
L 301.396145 156.116162 
L 301.98064 155.714588 
L 303.149631 155.037243 
L 303.279518 155.005116 
L 303.539294 154.772673 
L 303.734126 154.721331 
L 303.928957 154.537453 
L 304.123789 154.4261 
L 304.318621 154.352038 
L 305.357723 153.701584 
L 305.487611 153.674673 
L 306.331882 153.069801 
L 306.721545 152.928759 
L 306.981321 152.69812 
L 307.370984 152.52242 
L 308.085367 152.055925 
L 308.539974 151.824876 
L 308.734806 151.628116 
L 308.929638 151.591132 
L 309.514133 151.198965 
L 309.64402 151.184352 
L 310.033684 150.882643 
L 310.228516 150.792032 
L 310.423347 150.664947 
L 310.618179 150.563852 
L 311.722225 149.898599 
L 311.917057 149.799717 
L 312.176832 149.651246 
L 312.371664 149.502621 
L 312.566496 149.403319 
L 312.696384 149.332711 
L 312.956159 149.150062 
L 313.215935 148.997512 
L 313.47571 148.869198 
L 313.605598 148.844367 
L 313.995262 148.564108 
L 314.255037 148.401484 
L 314.709644 148.127455 
L 314.904476 148.053076 
L 328.737526 139.993802 
L 328.867414 139.898322 
L 329.12719 139.700671 
L 329.906517 139.265996 
L 330.29618 139.055248 
L 330.491012 138.925377 
L 344.778669 130.810067 
L 344.908557 130.728392 
L 345.103389 130.542259 
L 345.29822 130.516281 
L 345.557996 130.348861 
L 346.921818 129.555858 
L 347.11665 129.452477 
L 347.571257 129.185038 
L 348.350584 128.742554 
L 348.740247 128.51913 
L 348.935079 128.419571 
L 349.389686 128.121901 
L 349.909237 127.890083 
L 350.169013 127.693303 
L 350.363844 127.612795 
L 350.558676 127.478466 
L 350.688564 127.460983 
L 351.013283 127.210535 
L 351.338003 127.061161 
L 353.805871 125.642986 
L 354.000703 125.573484 
L 354.260478 125.351904 
L 354.390366 125.361988 
L 354.780029 125.09251 
L 355.884076 124.45011 
L 356.143851 124.313126 
L 356.598459 124.013324 
L 356.988122 123.851561 
L 357.637561 123.493376 
L 358.351944 123.083379 
L 358.741607 122.855465 
L 363.222736 120.397958 
L 363.352624 120.304559 
L 363.6124 120.074227 
L 363.872175 119.999336 
L 364.391726 119.689788 
L 367.573977 117.883739 
L 367.703865 117.869925 
L 368.093529 117.587944 
L 368.742968 117.258597 
L 370.041845 116.547106 
L 371.27578 115.832971 
L 371.535555 115.706635 
L 372.184994 115.318937 
L 372.44477 115.245193 
L 373.743648 114.484532 
L 374.003423 114.377954 
L 374.263199 114.173406 
L 374.522974 114.077117 
L 374.717806 113.978225 
L 374.847694 113.917824 
L 375.107469 113.702044 
L 375.237357 113.706573 
L 375.756908 113.362367 
L 375.95174 113.285426 
L 378.549496 111.858099 
L 379.133991 111.49848 
L 379.328823 111.433856 
L 379.458711 111.420309 
L 379.78343 111.142078 
L 380.043206 111.068088 
L 380.692645 110.635873 
L 381.017364 110.546102 
L 381.536915 110.192467 
L 381.731747 110.132189 
L 381.926579 110.008415 
L 384.524335 108.578341 
L 385.043886 108.30876 
L 385.238718 108.264018 
L 385.498493 107.980008 
L 385.758269 107.950391 
L 387.511754 106.961756 
L 387.706586 106.889611 
L 388.356025 106.49066 
L 388.550856 106.42327 
L 389.460071 105.915671 
L 390.044566 105.634654 
L 390.304342 105.48856 
L 391.60322 104.766964 
L 391.862995 104.644891 
L 392.057827 104.537596 
L 392.317602 104.395252 
L 393.096929 103.960639 
L 393.421649 103.77505 
L 394.265919 103.308401 
L 394.460751 103.254928 
L 394.980302 102.912689 
L 395.499853 102.652905 
L 395.759629 102.554935 
L 395.889517 102.521855 
L 396.214236 102.26328 
L 397.318283 101.700629 
L 397.643002 101.531355 
L 398.032665 101.313833 
L 398.422329 101.136975 
L 398.487273 101.128592 
L 398.487273 101.128592 
" clip-path="url(#p5601d93412)" style="fill: none; stroke: #ff0000; stroke-width: 1.5; stroke-linecap: square"/>
   </g>
   <g id="patch_3">
    <path d="M 57.6 307.584 
L 57.6 41.472 
" style="fill: none; stroke: #000000; stroke-width: 0.8; stroke-linejoin: miter; stroke-linecap: square"/>
   </g>
   <g id="patch_4">
    <path d="M 414.72 307.584 
L 414.72 41.472 
" style="fill: none; stroke: #000000; stroke-width: 0.8; stroke-linejoin: miter; stroke-linecap: square"/>
   </g>
   <g id="patch_5">
    <path d="M 57.6 307.584 
L 414.72 307.584 
" style="fill: none; stroke: #000000; stroke-width: 0.8; stroke-linejoin: miter; stroke-linecap: square"/>
   </g>
   <g id="patch_6">
    <path d="M 57.6 41.472 
L 414.72 41.472 
" style="fill: none; stroke: #000000; stroke-width: 0.8; stroke-linejoin: miter; stroke-linecap: square"/>
   </g>
   <g id="text_14">
    <!-- Script19_loss -->
    <g transform="translate(196.532813 35.472) scale(0.12 -0.12)">
     <defs>
      <path id="DejaVuSans-53" d="M 3425 4513 
L 3425 3897 
Q 3066 4069 2747 4153 
Q 2428 4238 2131 4238 
Q 1616 4238 1336 4038 
Q 1056 3838 1056 3469 
Q 1056 3159 1242 3001 
Q 1428 2844 1947 2747 
L 2328 2669 
Q 3034 2534 3370 2195 
Q 3706 1856 3706 1288 
Q 3706 609 3251 259 
Q 2797 -91 1919 -91 
Q 1588 -91 1214 -16 
Q 841 59 441 206 
L 441 856 
Q 825 641 1194 531 
Q 1563 422 1919 422 
Q 2459 422 2753 634 
Q 3047 847 3047 1241 
Q 3047 1584 2836 1778 
Q 2625 1972 2144 2069 
L 1759 2144 
Q 1053 2284 737 2584 
Q 422 2884 422 3419 
Q 422 4038 858 4394 
Q 1294 4750 2059 4750 
Q 2388 4750 2728 4690 
Q 3069 4631 3425 4513 
z
" transform="scale(0.015625)"/>
      <path id="DejaVuSans-72" d="M 2631 2963 
Q 2534 3019 2420 3045 
Q 2306 3072 2169 3072 
Q 1681 3072 1420 2755 
Q 1159 2438 1159 1844 
L 1159 0 
L 581 0 
L 581 3500 
L 1159 3500 
L 1159 2956 
Q 1341 3275 1631 3429 
Q 1922 3584 2338 3584 
Q 2397 3584 2469 3576 
Q 2541 3569 2628 3553 
L 2631 2963 
z
" transform="scale(0.015625)"/>
      <path id="DejaVuSans-69" d="M 603 3500 
L 1178 3500 
L 1178 0 
L 603 0 
L 603 3500 
z
M 603 4863 
L 1178 4863 
L 1178 4134 
L 603 4134 
L 603 4863 
z
" transform="scale(0.015625)"/>
      <path id="DejaVuSans-74" d="M 1172 4494 
L 1172 3500 
L 2356 3500 
L 2356 3053 
L 1172 3053 
L 1172 1153 
Q 1172 725 1289 603 
Q 1406 481 1766 481 
L 2356 481 
L 2356 0 
L 1766 0 
Q 1100 0 847 248 
Q 594 497 594 1153 
L 594 3053 
L 172 3053 
L 172 3500 
L 594 3500 
L 594 4494 
L 1172 4494 
z
" transform="scale(0.015625)"/>
      <path id="DejaVuSans-39" d="M 703 97 
L 703 672 
Q 941 559 1184 500 
Q 1428 441 1663 441 
Q 2288 441 2617 861 
Q 2947 1281 2994 2138 
Q 2813 1869 2534 1725 
Q 2256 1581 1919 1581 
Q 1219 1581 811 2004 
Q 403 2428 403 3163 
Q 403 3881 828 4315 
Q 1253 4750 1959 4750 
Q 2769 4750 3195 4129 
Q 3622 3509 3622 2328 
Q 3622 1225 3098 567 
Q 2575 -91 1691 -91 
Q 1453 -91 1209 -44 
Q 966 3 703 97 
z
M 1959 2075 
Q 2384 2075 2632 2365 
Q 2881 2656 2881 3163 
Q 2881 3666 2632 3958 
Q 2384 4250 1959 4250 
Q 1534 4250 1286 3958 
Q 1038 3666 1038 3163 
Q 1038 2656 1286 2365 
Q 1534 2075 1959 2075 
z
" transform="scale(0.015625)"/>
      <path id="DejaVuSans-5f" d="M 3263 -1063 
L 3263 -1509 
L -63 -1509 
L -63 -1063 
L 3263 -1063 
z
" transform="scale(0.015625)"/>
     </defs>
     <use xlink:href="#DejaVuSans-53"/>
     <use xlink:href="#DejaVuSans-63" x="63.476562"/>
     <use xlink:href="#DejaVuSans-72" x="118.457031"/>
     <use xlink:href="#DejaVuSans-69" x="159.570312"/>
     <use xlink:href="#DejaVuSans-70" x="187.353516"/>
     <use xlink:href="#DejaVuSans-74" x="250.830078"/>
     <use xlink:href="#DejaVuSans-31" x="290.039062"/>
     <use xlink:href="#DejaVuSans-39" x="353.662109"/>
     <use xlink:href="#DejaVuSans-5f" x="417.285156"/>
     <use xlink:href="#DejaVuSans-6c" x="467.285156"/>
     <use xlink:href="#DejaVuSans-6f" x="495.068359"/>
     <use xlink:href="#DejaVuSans-73" x="556.25"/>
     <use xlink:href="#DejaVuSans-73" x="608.349609"/>
    </g>
   </g>
   <g id="legend_1">
    <g id="patch_7">
     <path d="M 64.6 93.506375 
L 164.295312 93.506375 
Q 166.295312 93.506375 166.295312 91.506375 
L 166.295312 48.472 
Q 166.295312 46.472 164.295312 46.472 
L 64.6 46.472 
Q 62.6 46.472 62.6 48.472 
L 62.6 91.506375 
Q 62.6 93.506375 64.6 93.506375 
z
" style="fill: #ffffff; opacity: 0.8; stroke: #cccccc; stroke-linejoin: miter"/>
    </g>
    <g id="line2d_15">
     <path d="M 66.6 54.570438 
L 76.6 54.570438 
L 86.6 54.570438 
" style="fill: none; stroke: #0000ff; stroke-width: 1.5; stroke-linecap: square"/>
    </g>
    <g id="text_15">
     <!-- training set -->
     <g transform="translate(94.6 58.070438) scale(0.1 -0.1)">
      <defs>
       <path id="DejaVuSans-61" d="M 2194 1759 
Q 1497 1759 1228 1600 
Q 959 1441 959 1056 
Q 959 750 1161 570 
Q 1363 391 1709 391 
Q 2188 391 2477 730 
Q 2766 1069 2766 1631 
L 2766 1759 
L 2194 1759 
z
M 3341 1997 
L 3341 0 
L 2766 0 
L 2766 531 
Q 2569 213 2275 61 
Q 1981 -91 1556 -91 
Q 1019 -91 701 211 
Q 384 513 384 1019 
Q 384 1609 779 1909 
Q 1175 2209 1959 2209 
L 2766 2209 
L 2766 2266 
Q 2766 2663 2505 2880 
Q 2244 3097 1772 3097 
Q 1472 3097 1187 3025 
Q 903 2953 641 2809 
L 641 3341 
Q 956 3463 1253 3523 
Q 1550 3584 1831 3584 
Q 2591 3584 2966 3190 
Q 3341 2797 3341 1997 
z
" transform="scale(0.015625)"/>
       <path id="DejaVuSans-6e" d="M 3513 2113 
L 3513 0 
L 2938 0 
L 2938 2094 
Q 2938 2591 2744 2837 
Q 2550 3084 2163 3084 
Q 1697 3084 1428 2787 
Q 1159 2491 1159 1978 
L 1159 0 
L 581 0 
L 581 3500 
L 1159 3500 
L 1159 2956 
Q 1366 3272 1645 3428 
Q 1925 3584 2291 3584 
Q 2894 3584 3203 3211 
Q 3513 2838 3513 2113 
z
" transform="scale(0.015625)"/>
       <path id="DejaVuSans-67" d="M 2906 1791 
Q 2906 2416 2648 2759 
Q 2391 3103 1925 3103 
Q 1463 3103 1205 2759 
Q 947 2416 947 1791 
Q 947 1169 1205 825 
Q 1463 481 1925 481 
Q 2391 481 2648 825 
Q 2906 1169 2906 1791 
z
M 3481 434 
Q 3481 -459 3084 -895 
Q 2688 -1331 1869 -1331 
Q 1566 -1331 1297 -1286 
Q 1028 -1241 775 -1147 
L 775 -588 
Q 1028 -725 1275 -790 
Q 1522 -856 1778 -856 
Q 2344 -856 2625 -561 
Q 2906 -266 2906 331 
L 2906 616 
Q 2728 306 2450 153 
Q 2172 0 1784 0 
Q 1141 0 747 490 
Q 353 981 353 1791 
Q 353 2603 747 3093 
Q 1141 3584 1784 3584 
Q 2172 3584 2450 3431 
Q 2728 3278 2906 2969 
L 2906 3500 
L 3481 3500 
L 3481 434 
z
" transform="scale(0.015625)"/>
       <path id="DejaVuSans-20" transform="scale(0.015625)"/>
      </defs>
      <use xlink:href="#DejaVuSans-74"/>
      <use xlink:href="#DejaVuSans-72" x="39.208984"/>
      <use xlink:href="#DejaVuSans-61" x="80.322266"/>
      <use xlink:href="#DejaVuSans-69" x="141.601562"/>
      <use xlink:href="#DejaVuSans-6e" x="169.384766"/>
      <use xlink:href="#DejaVuSans-69" x="232.763672"/>
      <use xlink:href="#DejaVuSans-6e" x="260.546875"/>
      <use xlink:href="#DejaVuSans-67" x="323.925781"/>
      <use xlink:href="#DejaVuSans-20" x="387.402344"/>
      <use xlink:href="#DejaVuSans-73" x="419.189453"/>
      <use xlink:href="#DejaVuSans-65" x="471.289062"/>
      <use xlink:href="#DejaVuSans-74" x="532.8125"/>
     </g>
    </g>
    <g id="line2d_16">
     <path d="M 66.6 69.248563 
L 76.6 69.248563 
L 86.6 69.248563 
" style="fill: none; stroke: #008000; stroke-width: 1.5; stroke-linecap: square"/>
    </g>
    <g id="text_16">
     <!-- validation set -->
     <g transform="translate(94.6 72.748563) scale(0.1 -0.1)">
      <defs>
       <path id="DejaVuSans-76" d="M 191 3500 
L 800 3500 
L 1894 563 
L 2988 3500 
L 3597 3500 
L 2284 0 
L 1503 0 
L 191 3500 
z
" transform="scale(0.015625)"/>
       <path id="DejaVuSans-64" d="M 2906 2969 
L 2906 4863 
L 3481 4863 
L 3481 0 
L 2906 0 
L 2906 525 
Q 2725 213 2448 61 
Q 2172 -91 1784 -91 
Q 1150 -91 751 415 
Q 353 922 353 1747 
Q 353 2572 751 3078 
Q 1150 3584 1784 3584 
Q 2172 3584 2448 3432 
Q 2725 3281 2906 2969 
z
M 947 1747 
Q 947 1113 1208 752 
Q 1469 391 1925 391 
Q 2381 391 2643 752 
Q 2906 1113 2906 1747 
Q 2906 2381 2643 2742 
Q 2381 3103 1925 3103 
Q 1469 3103 1208 2742 
Q 947 2381 947 1747 
z
" transform="scale(0.015625)"/>
      </defs>
      <use xlink:href="#DejaVuSans-76"/>
      <use xlink:href="#DejaVuSans-61" x="59.179688"/>
      <use xlink:href="#DejaVuSans-6c" x="120.458984"/>
      <use xlink:href="#DejaVuSans-69" x="148.242188"/>
      <use xlink:href="#DejaVuSans-64" x="176.025391"/>
      <use xlink:href="#DejaVuSans-61" x="239.501953"/>
      <use xlink:href="#DejaVuSans-74" x="300.78125"/>
      <use xlink:href="#DejaVuSans-69" x="339.990234"/>
      <use xlink:href="#DejaVuSans-6f" x="367.773438"/>
      <use xlink:href="#DejaVuSans-6e" x="428.955078"/>
      <use xlink:href="#DejaVuSans-20" x="492.333984"/>
      <use xlink:href="#DejaVuSans-73" x="524.121094"/>
      <use xlink:href="#DejaVuSans-65" x="576.220703"/>
      <use xlink:href="#DejaVuSans-74" x="637.744141"/>
     </g>
    </g>
    <g id="line2d_17">
     <path d="M 66.6 83.926688 
L 76.6 83.926688 
L 86.6 83.926688 
" style="fill: none; stroke: #ff0000; stroke-width: 1.5; stroke-linecap: square"/>
    </g>
    <g id="text_17">
     <!-- test set -->
     <g transform="translate(94.6 87.426688) scale(0.1 -0.1)">
      <use xlink:href="#DejaVuSans-74"/>
      <use xlink:href="#DejaVuSans-65" x="39.208984"/>
      <use xlink:href="#DejaVuSans-73" x="100.732422"/>
      <use xlink:href="#DejaVuSans-74" x="152.832031"/>
      <use xlink:href="#DejaVuSans-20" x="192.041016"/>
      <use xlink:href="#DejaVuSans-73" x="223.828125"/>
      <use xlink:href="#DejaVuSans-65" x="275.927734"/>
      <use xlink:href="#DejaVuSans-74" x="337.451172"/>
     </g>
    </g>
   </g>
  </g>
 </g>
 <defs>
  <clipPath id="p5601d93412">
   <rect x="57.6" y="41.472" width="357.12" height="266.112"/>
  </clipPath>
 </defs>
</svg>
