<?xml version="1.0" encoding="utf-8" standalone="no"?>
<!DOCTYPE svg PUBLIC "-//W3C//DTD SVG 1.1//EN"
  "http://www.w3.org/Graphics/SVG/1.1/DTD/svg11.dtd">
<svg xmlns:xlink="http://www.w3.org/1999/xlink" width="460.8pt" height="345.6pt" viewBox="0 0 460.8 345.6" xmlns="http://www.w3.org/2000/svg" version="1.1">
 <metadata>
  <rdf:RDF xmlns:dc="http://purl.org/dc/elements/1.1/" xmlns:cc="http://creativecommons.org/ns#" xmlns:rdf="http://www.w3.org/1999/02/22-rdf-syntax-ns#">
   <cc:Work>
    <dc:type rdf:resource="http://purl.org/dc/dcmitype/StillImage"/>
    <dc:date>2023-06-14T04:11:13.385342</dc:date>
    <dc:format>image/svg+xml</dc:format>
    <dc:creator>
     <cc:Agent>
      <dc:title>Matplotlib v3.7.1, https://matplotlib.org/</dc:title>
     </cc:Agent>
    </dc:creator>
   </cc:Work>
  </rdf:RDF>
 </metadata>
 <defs>
  <style type="text/css">*{stroke-linejoin: round; stroke-linecap: butt}</style>
 </defs>
 <g id="figure_1">
  <g id="patch_1">
   <path d="M 0 345.6 
L 460.8 345.6 
L 460.8 0 
L 0 0 
z
" style="fill: #ffffff"/>
  </g>
  <g id="axes_1">
   <g id="patch_2">
    <path d="M 57.6 307.584 
L 414.72 307.584 
L 414.72 41.472 
L 57.6 41.472 
z
" style="fill: #ffffff"/>
   </g>
   <g id="matplotlib.axis_1">
    <g id="xtick_1">
     <g id="line2d_1">
      <defs>
       <path id="m7aba838950" d="M 0 0 
L 0 3.5 
" style="stroke: #000000; stroke-width: 0.8"/>
      </defs>
      <g>
       <use xlink:href="#m7aba838950" x="73.767783" y="307.584" style="stroke: #000000; stroke-width: 0.8"/>
      </g>
     </g>
     <g id="text_1">
      <!-- 0 -->
      <g transform="translate(70.586533 322.182437) scale(0.1 -0.1)">
       <defs>
        <path id="DejaVuSans-30" d="M 2034 4250 
Q 1547 4250 1301 3770 
Q 1056 3291 1056 2328 
Q 1056 1369 1301 889 
Q 1547 409 2034 409 
Q 2525 409 2770 889 
Q 3016 1369 3016 2328 
Q 3016 3291 2770 3770 
Q 2525 4250 2034 4250 
z
M 2034 4750 
Q 2819 4750 3233 4129 
Q 3647 3509 3647 2328 
Q 3647 1150 3233 529 
Q 2819 -91 2034 -91 
Q 1250 -91 836 529 
Q 422 1150 422 2328 
Q 422 3509 836 4129 
Q 1250 4750 2034 4750 
z
" transform="scale(0.015625)"/>
       </defs>
       <use xlink:href="#DejaVuSans-30"/>
      </g>
     </g>
    </g>
    <g id="xtick_2">
     <g id="line2d_2">
      <g>
       <use xlink:href="#m7aba838950" x="138.711681" y="307.584" style="stroke: #000000; stroke-width: 0.8"/>
      </g>
     </g>
     <g id="text_2">
      <!-- 1000 -->
      <g transform="translate(125.986681 322.182437) scale(0.1 -0.1)">
       <defs>
        <path id="DejaVuSans-31" d="M 794 531 
L 1825 531 
L 1825 4091 
L 703 3866 
L 703 4441 
L 1819 4666 
L 2450 4666 
L 2450 531 
L 3481 531 
L 3481 0 
L 794 0 
L 794 531 
z
" transform="scale(0.015625)"/>
       </defs>
       <use xlink:href="#DejaVuSans-31"/>
       <use xlink:href="#DejaVuSans-30" x="63.623047"/>
       <use xlink:href="#DejaVuSans-30" x="127.246094"/>
       <use xlink:href="#DejaVuSans-30" x="190.869141"/>
      </g>
     </g>
    </g>
    <g id="xtick_3">
     <g id="line2d_3">
      <g>
       <use xlink:href="#m7aba838950" x="203.655579" y="307.584" style="stroke: #000000; stroke-width: 0.8"/>
      </g>
     </g>
     <g id="text_3">
      <!-- 2000 -->
      <g transform="translate(190.930579 322.182437) scale(0.1 -0.1)">
       <defs>
        <path id="DejaVuSans-32" d="M 1228 531 
L 3431 531 
L 3431 0 
L 469 0 
L 469 531 
Q 828 903 1448 1529 
Q 2069 2156 2228 2338 
Q 2531 2678 2651 2914 
Q 2772 3150 2772 3378 
Q 2772 3750 2511 3984 
Q 2250 4219 1831 4219 
Q 1534 4219 1204 4116 
Q 875 4013 500 3803 
L 500 4441 
Q 881 4594 1212 4672 
Q 1544 4750 1819 4750 
Q 2544 4750 2975 4387 
Q 3406 4025 3406 3419 
Q 3406 3131 3298 2873 
Q 3191 2616 2906 2266 
Q 2828 2175 2409 1742 
Q 1991 1309 1228 531 
z
" transform="scale(0.015625)"/>
       </defs>
       <use xlink:href="#DejaVuSans-32"/>
       <use xlink:href="#DejaVuSans-30" x="63.623047"/>
       <use xlink:href="#DejaVuSans-30" x="127.246094"/>
       <use xlink:href="#DejaVuSans-30" x="190.869141"/>
      </g>
     </g>
    </g>
    <g id="xtick_4">
     <g id="line2d_4">
      <g>
       <use xlink:href="#m7aba838950" x="268.599477" y="307.584" style="stroke: #000000; stroke-width: 0.8"/>
      </g>
     </g>
     <g id="text_4">
      <!-- 3000 -->
      <g transform="translate(255.874477 322.182437) scale(0.1 -0.1)">
       <defs>
        <path id="DejaVuSans-33" d="M 2597 2516 
Q 3050 2419 3304 2112 
Q 3559 1806 3559 1356 
Q 3559 666 3084 287 
Q 2609 -91 1734 -91 
Q 1441 -91 1130 -33 
Q 819 25 488 141 
L 488 750 
Q 750 597 1062 519 
Q 1375 441 1716 441 
Q 2309 441 2620 675 
Q 2931 909 2931 1356 
Q 2931 1769 2642 2001 
Q 2353 2234 1838 2234 
L 1294 2234 
L 1294 2753 
L 1863 2753 
Q 2328 2753 2575 2939 
Q 2822 3125 2822 3475 
Q 2822 3834 2567 4026 
Q 2313 4219 1838 4219 
Q 1578 4219 1281 4162 
Q 984 4106 628 3988 
L 628 4550 
Q 988 4650 1302 4700 
Q 1616 4750 1894 4750 
Q 2613 4750 3031 4423 
Q 3450 4097 3450 3541 
Q 3450 3153 3228 2886 
Q 3006 2619 2597 2516 
z
" transform="scale(0.015625)"/>
       </defs>
       <use xlink:href="#DejaVuSans-33"/>
       <use xlink:href="#DejaVuSans-30" x="63.623047"/>
       <use xlink:href="#DejaVuSans-30" x="127.246094"/>
       <use xlink:href="#DejaVuSans-30" x="190.869141"/>
      </g>
     </g>
    </g>
    <g id="xtick_5">
     <g id="line2d_5">
      <g>
       <use xlink:href="#m7aba838950" x="333.543375" y="307.584" style="stroke: #000000; stroke-width: 0.8"/>
      </g>
     </g>
     <g id="text_5">
      <!-- 4000 -->
      <g transform="translate(320.818375 322.182437) scale(0.1 -0.1)">
       <defs>
        <path id="DejaVuSans-34" d="M 2419 4116 
L 825 1625 
L 2419 1625 
L 2419 4116 
z
M 2253 4666 
L 3047 4666 
L 3047 1625 
L 3713 1625 
L 3713 1100 
L 3047 1100 
L 3047 0 
L 2419 0 
L 2419 1100 
L 313 1100 
L 313 1709 
L 2253 4666 
z
" transform="scale(0.015625)"/>
       </defs>
       <use xlink:href="#DejaVuSans-34"/>
       <use xlink:href="#DejaVuSans-30" x="63.623047"/>
       <use xlink:href="#DejaVuSans-30" x="127.246094"/>
       <use xlink:href="#DejaVuSans-30" x="190.869141"/>
      </g>
     </g>
    </g>
    <g id="xtick_6">
     <g id="line2d_6">
      <g>
       <use xlink:href="#m7aba838950" x="398.487273" y="307.584" style="stroke: #000000; stroke-width: 0.8"/>
      </g>
     </g>
     <g id="text_6">
      <!-- 5000 -->
      <g transform="translate(385.762273 322.182437) scale(0.1 -0.1)">
       <defs>
        <path id="DejaVuSans-35" d="M 691 4666 
L 3169 4666 
L 3169 4134 
L 1269 4134 
L 1269 2991 
Q 1406 3038 1543 3061 
Q 1681 3084 1819 3084 
Q 2600 3084 3056 2656 
Q 3513 2228 3513 1497 
Q 3513 744 3044 326 
Q 2575 -91 1722 -91 
Q 1428 -91 1123 -41 
Q 819 9 494 109 
L 494 744 
Q 775 591 1075 516 
Q 1375 441 1709 441 
Q 2250 441 2565 725 
Q 2881 1009 2881 1497 
Q 2881 1984 2565 2268 
Q 2250 2553 1709 2553 
Q 1456 2553 1204 2497 
Q 953 2441 691 2322 
L 691 4666 
z
" transform="scale(0.015625)"/>
       </defs>
       <use xlink:href="#DejaVuSans-35"/>
       <use xlink:href="#DejaVuSans-30" x="63.623047"/>
       <use xlink:href="#DejaVuSans-30" x="127.246094"/>
       <use xlink:href="#DejaVuSans-30" x="190.869141"/>
      </g>
     </g>
    </g>
    <g id="text_7">
     <!-- epoch -->
     <g transform="translate(220.931875 335.860562) scale(0.1 -0.1)">
      <defs>
       <path id="DejaVuSans-65" d="M 3597 1894 
L 3597 1613 
L 953 1613 
Q 991 1019 1311 708 
Q 1631 397 2203 397 
Q 2534 397 2845 478 
Q 3156 559 3463 722 
L 3463 178 
Q 3153 47 2828 -22 
Q 2503 -91 2169 -91 
Q 1331 -91 842 396 
Q 353 884 353 1716 
Q 353 2575 817 3079 
Q 1281 3584 2069 3584 
Q 2775 3584 3186 3129 
Q 3597 2675 3597 1894 
z
M 3022 2063 
Q 3016 2534 2758 2815 
Q 2500 3097 2075 3097 
Q 1594 3097 1305 2825 
Q 1016 2553 972 2059 
L 3022 2063 
z
" transform="scale(0.015625)"/>
       <path id="DejaVuSans-70" d="M 1159 525 
L 1159 -1331 
L 581 -1331 
L 581 3500 
L 1159 3500 
L 1159 2969 
Q 1341 3281 1617 3432 
Q 1894 3584 2278 3584 
Q 2916 3584 3314 3078 
Q 3713 2572 3713 1747 
Q 3713 922 3314 415 
Q 2916 -91 2278 -91 
Q 1894 -91 1617 61 
Q 1341 213 1159 525 
z
M 3116 1747 
Q 3116 2381 2855 2742 
Q 2594 3103 2138 3103 
Q 1681 3103 1420 2742 
Q 1159 2381 1159 1747 
Q 1159 1113 1420 752 
Q 1681 391 2138 391 
Q 2594 391 2855 752 
Q 3116 1113 3116 1747 
z
" transform="scale(0.015625)"/>
       <path id="DejaVuSans-6f" d="M 1959 3097 
Q 1497 3097 1228 2736 
Q 959 2375 959 1747 
Q 959 1119 1226 758 
Q 1494 397 1959 397 
Q 2419 397 2687 759 
Q 2956 1122 2956 1747 
Q 2956 2369 2687 2733 
Q 2419 3097 1959 3097 
z
M 1959 3584 
Q 2709 3584 3137 3096 
Q 3566 2609 3566 1747 
Q 3566 888 3137 398 
Q 2709 -91 1959 -91 
Q 1206 -91 779 398 
Q 353 888 353 1747 
Q 353 2609 779 3096 
Q 1206 3584 1959 3584 
z
" transform="scale(0.015625)"/>
       <path id="DejaVuSans-63" d="M 3122 3366 
L 3122 2828 
Q 2878 2963 2633 3030 
Q 2388 3097 2138 3097 
Q 1578 3097 1268 2742 
Q 959 2388 959 1747 
Q 959 1106 1268 751 
Q 1578 397 2138 397 
Q 2388 397 2633 464 
Q 2878 531 3122 666 
L 3122 134 
Q 2881 22 2623 -34 
Q 2366 -91 2075 -91 
Q 1284 -91 818 406 
Q 353 903 353 1747 
Q 353 2603 823 3093 
Q 1294 3584 2113 3584 
Q 2378 3584 2631 3529 
Q 2884 3475 3122 3366 
z
" transform="scale(0.015625)"/>
       <path id="DejaVuSans-68" d="M 3513 2113 
L 3513 0 
L 2938 0 
L 2938 2094 
Q 2938 2591 2744 2837 
Q 2550 3084 2163 3084 
Q 1697 3084 1428 2787 
Q 1159 2491 1159 1978 
L 1159 0 
L 581 0 
L 581 4863 
L 1159 4863 
L 1159 2956 
Q 1366 3272 1645 3428 
Q 1925 3584 2291 3584 
Q 2894 3584 3203 3211 
Q 3513 2838 3513 2113 
z
" transform="scale(0.015625)"/>
      </defs>
      <use xlink:href="#DejaVuSans-65"/>
      <use xlink:href="#DejaVuSans-70" x="61.523438"/>
      <use xlink:href="#DejaVuSans-6f" x="125"/>
      <use xlink:href="#DejaVuSans-63" x="186.181641"/>
      <use xlink:href="#DejaVuSans-68" x="241.162109"/>
     </g>
    </g>
   </g>
   <g id="matplotlib.axis_2">
    <g id="ytick_1">
     <g id="line2d_7">
      <defs>
       <path id="m25ab8d6354" d="M 0 0 
L -3.5 0 
" style="stroke: #000000; stroke-width: 0.8"/>
      </defs>
      <g>
       <use xlink:href="#m25ab8d6354" x="57.6" y="300.986726" style="stroke: #000000; stroke-width: 0.8"/>
      </g>
     </g>
     <g id="text_8">
      <!-- 0 -->
      <g transform="translate(44.2375 304.785945) scale(0.1 -0.1)">
       <use xlink:href="#DejaVuSans-30"/>
      </g>
     </g>
    </g>
    <g id="ytick_2">
     <g id="line2d_8">
      <g>
       <use xlink:href="#m25ab8d6354" x="57.6" y="258.273085" style="stroke: #000000; stroke-width: 0.8"/>
      </g>
     </g>
     <g id="text_9">
      <!-- 1 -->
      <g transform="translate(44.2375 262.072304) scale(0.1 -0.1)">
       <use xlink:href="#DejaVuSans-31"/>
      </g>
     </g>
    </g>
    <g id="ytick_3">
     <g id="line2d_9">
      <g>
       <use xlink:href="#m25ab8d6354" x="57.6" y="215.559444" style="stroke: #000000; stroke-width: 0.8"/>
      </g>
     </g>
     <g id="text_10">
      <!-- 2 -->
      <g transform="translate(44.2375 219.358663) scale(0.1 -0.1)">
       <use xlink:href="#DejaVuSans-32"/>
      </g>
     </g>
    </g>
    <g id="ytick_4">
     <g id="line2d_10">
      <g>
       <use xlink:href="#m25ab8d6354" x="57.6" y="172.845803" style="stroke: #000000; stroke-width: 0.8"/>
      </g>
     </g>
     <g id="text_11">
      <!-- 3 -->
      <g transform="translate(44.2375 176.645022) scale(0.1 -0.1)">
       <use xlink:href="#DejaVuSans-33"/>
      </g>
     </g>
    </g>
    <g id="ytick_5">
     <g id="line2d_11">
      <g>
       <use xlink:href="#m25ab8d6354" x="57.6" y="130.132162" style="stroke: #000000; stroke-width: 0.8"/>
      </g>
     </g>
     <g id="text_12">
      <!-- 4 -->
      <g transform="translate(44.2375 133.931381) scale(0.1 -0.1)">
       <use xlink:href="#DejaVuSans-34"/>
      </g>
     </g>
    </g>
    <g id="ytick_6">
     <g id="line2d_12">
      <g>
       <use xlink:href="#m25ab8d6354" x="57.6" y="87.418521" style="stroke: #000000; stroke-width: 0.8"/>
      </g>
     </g>
     <g id="text_13">
      <!-- 5 -->
      <g transform="translate(44.2375 91.217739) scale(0.1 -0.1)">
       <use xlink:href="#DejaVuSans-35"/>
      </g>
     </g>
    </g>
    <g id="ytick_7">
     <g id="line2d_13">
      <g>
       <use xlink:href="#m25ab8d6354" x="57.6" y="44.70488" style="stroke: #000000; stroke-width: 0.8"/>
      </g>
     </g>
     <g id="text_14">
      <!-- 6 -->
      <g transform="translate(44.2375 48.504098) scale(0.1 -0.1)">
       <defs>
        <path id="DejaVuSans-36" d="M 2113 2584 
Q 1688 2584 1439 2293 
Q 1191 2003 1191 1497 
Q 1191 994 1439 701 
Q 1688 409 2113 409 
Q 2538 409 2786 701 
Q 3034 994 3034 1497 
Q 3034 2003 2786 2293 
Q 2538 2584 2113 2584 
z
M 3366 4563 
L 3366 3988 
Q 3128 4100 2886 4159 
Q 2644 4219 2406 4219 
Q 1781 4219 1451 3797 
Q 1122 3375 1075 2522 
Q 1259 2794 1537 2939 
Q 1816 3084 2150 3084 
Q 2853 3084 3261 2657 
Q 3669 2231 3669 1497 
Q 3669 778 3244 343 
Q 2819 -91 2113 -91 
Q 1303 -91 875 529 
Q 447 1150 447 2328 
Q 447 3434 972 4092 
Q 1497 4750 2381 4750 
Q 2619 4750 2861 4703 
Q 3103 4656 3366 4563 
z
" transform="scale(0.015625)"/>
       </defs>
       <use xlink:href="#DejaVuSans-36"/>
      </g>
     </g>
    </g>
    <g id="text_15">
     <!-- loss -->
     <g transform="translate(38.157812 184.185812) rotate(-90) scale(0.1 -0.1)">
      <defs>
       <path id="DejaVuSans-6c" d="M 603 4863 
L 1178 4863 
L 1178 0 
L 603 0 
L 603 4863 
z
" transform="scale(0.015625)"/>
       <path id="DejaVuSans-73" d="M 2834 3397 
L 2834 2853 
Q 2591 2978 2328 3040 
Q 2066 3103 1784 3103 
Q 1356 3103 1142 2972 
Q 928 2841 928 2578 
Q 928 2378 1081 2264 
Q 1234 2150 1697 2047 
L 1894 2003 
Q 2506 1872 2764 1633 
Q 3022 1394 3022 966 
Q 3022 478 2636 193 
Q 2250 -91 1575 -91 
Q 1294 -91 989 -36 
Q 684 19 347 128 
L 347 722 
Q 666 556 975 473 
Q 1284 391 1588 391 
Q 1994 391 2212 530 
Q 2431 669 2431 922 
Q 2431 1156 2273 1281 
Q 2116 1406 1581 1522 
L 1381 1569 
Q 847 1681 609 1914 
Q 372 2147 372 2553 
Q 372 3047 722 3315 
Q 1072 3584 1716 3584 
Q 2034 3584 2315 3537 
Q 2597 3491 2834 3397 
z
" transform="scale(0.015625)"/>
      </defs>
      <use xlink:href="#DejaVuSans-6c"/>
      <use xlink:href="#DejaVuSans-6f" x="27.783203"/>
      <use xlink:href="#DejaVuSans-73" x="88.964844"/>
      <use xlink:href="#DejaVuSans-73" x="141.064453"/>
     </g>
    </g>
   </g>
   <g id="line2d_14">
    <path d="M 73.832727 203.797068 
L 74.352278 210.792218 
L 74.676998 212.77725 
L 74.87183 212.932715 
L 75.066661 213.065439 
L 75.456325 213.919813 
L 76.950034 217.218078 
L 77.664417 219.816939 
L 78.573632 224.109125 
L 79.937454 231.807731 
L 81.885771 242.586344 
L 83.119705 248.152188 
L 84.288695 252.410727 
L 85.457685 255.860286 
L 86.756563 259.001973 
L 88.055441 261.6088 
L 89.484207 264.002215 
L 90.912972 265.990717 
L 92.471626 267.78248 
L 94.484887 269.674214 
L 96.238372 271.02884 
L 98.381521 272.419431 
L 100.654557 273.656952 
L 103.447145 274.938403 
L 106.759283 276.212362 
L 111.240412 277.626405 
L 115.851429 278.820541 
L 121.956156 280.122382 
L 128.775265 281.325286 
L 155.85687 284.749286 
L 173.911274 286.321134 
L 214.371322 288.883208 
L 216.709303 289.000345 
L 218.592676 289.099701 
L 220.411105 289.185727 
L 226.970438 289.495676 
L 230.867072 289.676122 
L 237.101687 289.963383 
L 239.374723 290.057717 
L 242.751806 290.2204 
L 255.610697 290.840971 
L 258.98778 290.979348 
L 261.195873 291.074222 
L 342.96024 293.874354 
L 345.103389 293.934205 
L 356.598459 294.28191 
L 364.391726 294.514195 
L 375.497133 294.816559 
L 379.458711 294.912579 
L 389.78479 295.22348 
L 398.487273 295.488 
L 398.487273 295.488 
" clip-path="url(#p03eabd0ac8)" style="fill: none; stroke: #0000ff; stroke-width: 1.5; stroke-linecap: square"/>
   </g>
   <g id="line2d_15">
    <path d="M 73.832727 203.730863 
L 74.352278 210.655277 
L 74.612054 212.419333 
L 74.806886 212.715995 
L 75.066661 212.815144 
L 75.391381 213.461383 
L 75.845988 214.178673 
L 76.235651 214.86416 
L 76.950034 216.66141 
L 77.729361 219.265852 
L 78.638576 223.230778 
L 80.067341 230.711056 
L 81.950715 240.383288 
L 83.184649 245.466602 
L 84.223751 248.901761 
L 85.262853 251.638597 
L 86.301956 253.789761 
L 87.53589 255.746243 
L 89.094543 257.47349 
L 90.068702 258.239178 
L 91.237692 258.917134 
L 92.796345 259.551759 
L 93.380841 259.711885 
L 94.095223 259.876979 
L 95.588933 260.058178 
L 97.342418 260.027285 
L 101.758603 259.143384 
L 103.771864 258.502586 
L 105.265574 257.947868 
L 105.850069 257.722268 
L 108.382881 256.667234 
L 115.007159 253.421818 
L 116.176149 252.804099 
L 121.631436 250.093787 
L 122.735482 249.60622 
L 123.19009 249.386374 
L 123.579753 249.218108 
L 124.618855 248.746128 
L 125.20335 248.494539 
L 126.826948 247.800121 
L 127.151667 247.686705 
L 130.52875 246.268856 
L 131.048301 246.054824 
L 131.632796 245.793184 
L 138.581793 242.556923 
L 138.906513 242.374024 
L 139.166289 242.281397 
L 139.750784 241.990871 
L 140.140447 241.825604 
L 140.53011 241.614435 
L 141.114605 241.360712 
L 141.504269 241.154375 
L 142.153708 240.874831 
L 142.34854 240.73036 
L 142.478427 240.698291 
L 145.400903 239.454487 
L 146.959556 238.696018 
L 147.219332 238.540049 
L 148.907873 237.610988 
L 149.102705 237.530236 
L 149.492368 237.333278 
L 150.271695 236.930145 
L 150.531471 236.815283 
L 150.921134 236.59372 
L 154.103385 234.8873 
L 154.298217 234.805932 
L 154.947656 234.455861 
L 155.142487 234.385242 
L 155.337319 234.266403 
L 155.532151 234.218677 
L 155.726982 234.083361 
L 156.376421 233.793379 
L 158.000019 232.972551 
L 158.259795 232.808628 
L 158.649458 232.596119 
L 160.467887 231.59566 
L 161.377102 231.084916 
L 161.571933 230.956596 
L 161.831709 230.846046 
L 162.481148 230.480272 
L 162.935755 230.207654 
L 163.390362 229.965841 
L 164.169689 229.479614 
L 164.429465 229.392355 
L 164.68924 229.227272 
L 165.208792 228.927402 
L 165.403623 228.853631 
L 165.923174 228.51244 
L 166.118006 228.451272 
L 166.312838 228.326567 
L 166.702501 228.139263 
L 166.962277 227.959484 
L 167.741604 227.524206 
L 168.196211 227.24642 
L 168.326099 227.175628 
L 169.170369 226.714896 
L 170.144528 226.139271 
L 170.404303 226.026995 
L 170.664079 225.846876 
L 170.923855 225.743908 
L 171.118686 225.576997 
L 171.313518 225.485694 
L 172.612396 224.745394 
L 172.937115 224.567871 
L 175.080264 223.382765 
L 175.275096 223.21145 
L 178.132627 221.574319 
L 178.392403 221.408233 
L 184.302298 218.015641 
L 184.497129 217.88335 
L 185.146568 217.49536 
L 185.276456 217.444879 
L 185.666119 217.185362 
L 186.055783 217.003929 
L 186.575334 216.686014 
L 189.367922 215.092082 
L 189.432865 215.103763 
L 189.627697 214.949103 
L 197.096245 210.777421 
L 197.226133 210.702123 
L 197.485909 210.539672 
L 197.615797 210.473101 
L 197.810628 210.354185 
L 197.940516 210.322392 
L 198.135348 210.198374 
L 198.395123 210.040822 
L 199.17445 209.620509 
L 199.434226 209.452997 
L 199.629057 209.333491 
L 200.018721 209.087432 
L 200.148609 209.04743 
L 200.408384 208.872718 
L 200.603216 208.851027 
L 200.798048 208.728812 
L 201.187711 208.494688 
L 205.66884 205.895353 
L 205.928616 205.706078 
L 206.058503 205.638021 
L 206.123447 205.491538 
L 206.188391 205.540216 
L 206.448167 205.313577 
L 208.136708 204.218236 
L 208.33154 204.104178 
L 208.916035 203.774796 
L 209.110867 203.546915 
L 209.240754 203.573555 
L 209.370642 203.405921 
L 209.50053 203.352395 
L 209.760306 203.151216 
L 211.968398 201.661571 
L 212.098286 201.695921 
L 212.358061 201.448232 
L 212.487949 201.406459 
L 213.0075 201.049662 
L 213.137388 200.951246 
L 213.202332 200.876691 
L 213.33222 200.93982 
L 213.527052 200.771035 
L 213.981659 200.470595 
L 214.241434 200.222682 
L 214.371322 200.268804 
L 214.631098 200.049467 
L 215.085705 199.741114 
L 215.150649 199.762082 
L 215.345481 199.600619 
L 215.6702 199.418626 
L 215.929976 199.181376 
L 216.449527 198.916548 
L 216.644359 198.823978 
L 216.969078 198.59128 
L 222.684141 195.018778 
L 222.749085 195.023411 
L 222.943917 194.824136 
L 223.788187 194.294409 
L 224.112907 194.088311 
L 224.177851 194.122457 
L 224.307739 193.9885 
L 224.372683 194.026445 
L 224.567514 193.828667 
L 224.82729 193.683131 
L 225.216953 193.468153 
L 227.425046 192.160012 
L 227.48999 192.155277 
L 227.684821 192.007807 
L 228.074485 191.783724 
L 228.33426 191.665226 
L 228.594036 191.474118 
L 228.788868 191.386182 
L 229.568194 190.908769 
L 229.698082 190.923077 
L 229.892914 190.724535 
L 230.022802 190.745483 
L 230.217633 190.592136 
L 230.347521 190.568021 
L 230.542353 190.444992 
L 231.126848 190.091586 
L 231.451567 189.90836 
L 231.906175 189.615639 
L 232.295838 189.405926 
L 233.789548 188.620475 
L 233.984379 188.514402 
L 234.698762 188.084903 
L 234.763706 188.078375 
L 234.958538 187.943655 
L 235.348201 187.684846 
L 235.867752 187.413062 
L 235.932696 187.314168 
L 235.99764 187.388469 
L 238.205733 186.04162 
L 238.335621 186.02944 
L 238.595396 185.908346 
L 238.725284 185.789848 
L 238.920116 185.69241 
L 239.114947 185.552923 
L 240.218994 184.940576 
L 240.478769 184.77397 
L 240.673601 184.708978 
L 241.517872 184.202948 
L 241.647759 184.160737 
L 242.037423 183.908384 
L 242.167311 183.90758 
L 250.610017 179.123652 
L 250.804849 179.08083 
L 252.103727 178.259818 
L 252.168671 178.097978 
L 252.233615 178.129568 
L 252.49339 177.954184 
L 252.883054 177.699906 
L 253.142829 177.577508 
L 254.052044 176.981536 
L 254.116988 177.010886 
L 254.246876 176.797923 
L 254.311819 176.876471 
L 254.766427 176.497667 
L 255.026202 176.456534 
L 255.221034 176.244326 
L 255.675641 176.004367 
L 255.935417 175.806762 
L 257.169351 174.970515 
L 257.429127 174.746667 
L 257.81879 174.491208 
L 258.143509 174.27125 
L 261.195873 172.004098 
L 261.260817 172.054028 
L 261.520592 171.762041 
L 261.65048 171.643522 
L 261.910256 171.464207 
L 262.559694 170.888776 
L 262.81947 170.761347 
L 263.014302 170.561695 
L 263.209133 170.404927 
L 263.728685 169.969797 
L 263.858572 169.886321 
L 264.118348 169.644314 
L 265.871833 168.304045 
L 266.131609 168.060053 
L 269.638579 165.219302 
L 269.898355 164.884594 
L 270.223074 164.610346 
L 272.301279 162.815057 
L 272.561055 162.612452 
L 272.625999 162.650305 
L 272.82083 162.463179 
L 273.015662 162.259718 
L 273.080606 162.282632 
L 273.340382 162.012671 
L 273.924877 161.556216 
L 274.184652 161.260012 
L 274.379484 161.119487 
L 278.665781 157.517697 
L 278.860613 157.326212 
L 279.510052 156.732236 
L 279.63994 156.649147 
L 280.029603 156.321527 
L 280.354323 156.089297 
L 281.068705 155.461348 
L 281.198593 155.421509 
L 281.393425 155.206643 
L 281.97792 154.772053 
L 282.107808 154.59232 
L 282.432527 154.371343 
L 282.497471 154.20984 
L 282.562415 154.244311 
L 282.627359 154.220706 
L 282.822191 153.938616 
L 282.887135 153.99593 
L 283.14691 153.615762 
L 283.276798 153.639744 
L 284.250956 152.709461 
L 284.3159 152.787295 
L 284.705564 152.363469 
L 284.835451 152.283527 
L 284.900395 152.102256 
L 284.965339 152.179215 
L 285.80961 151.449195 
L 286.004442 151.261152 
L 286.394105 150.903917 
L 286.588937 150.834647 
L 286.783768 150.583619 
L 287.368263 150.156452 
L 287.692983 149.838088 
L 287.822871 149.809655 
L 288.017702 149.572996 
L 288.082646 149.551111 
L 288.342422 149.210465 
L 288.47231 149.226892 
L 288.732085 148.945576 
L 288.861973 148.903732 
L 289.056805 148.664322 
L 289.31658 148.418681 
L 289.511412 148.276322 
L 289.576356 148.292891 
L 289.836132 147.987461 
L 289.901075 147.999844 
L 290.095907 147.729711 
L 290.160851 147.768949 
L 290.355683 147.537167 
L 290.680402 147.284366 
L 290.875234 147.092505 
L 290.940178 147.12217 
L 291.13501 146.911744 
L 291.97928 146.184147 
L 292.044224 146.234597 
L 292.304 145.986471 
L 292.758607 145.65273 
L 293.018383 145.383116 
L 293.408046 145.121343 
L 293.667822 144.826504 
L 294.382204 144.216651 
L 294.577036 144.117391 
L 294.771868 143.930835 
L 294.901756 143.824619 
L 299.188053 140.44184 
L 299.317941 140.252789 
L 299.902436 139.850074 
L 300.032324 139.651196 
L 300.162211 139.622091 
L 300.486931 139.297474 
L 300.616819 139.260925 
L 301.006482 138.861753 
L 301.13637 138.788186 
L 301.266258 138.731819 
L 301.720865 138.34112 
L 301.850753 138.311435 
L 302.240416 138.040171 
L 302.435248 137.814449 
L 302.565136 137.752908 
L 303.149631 137.209586 
L 303.214575 137.262226 
L 303.47435 136.981827 
L 303.864014 136.791443 
L 304.058845 136.524863 
L 304.318621 136.395886 
L 304.708284 136.087727 
L 304.773228 136.13005 
L 305.033004 135.859621 
L 305.162891 135.815781 
L 305.552555 135.483007 
L 306.007162 135.109621 
L 306.13705 135.105007 
L 306.331882 134.886943 
L 306.396826 134.914266 
L 306.656601 134.655325 
L 307.435928 134.139274 
L 307.695704 133.941914 
L 307.890535 133.827388 
L 308.085367 133.628194 
L 308.150311 133.682239 
L 308.345142 133.498178 
L 308.539974 133.340341 
L 308.604918 133.401392 
L 308.79975 133.126065 
L 308.864694 133.034401 
L 308.929638 133.136951 
L 309.124469 132.892634 
L 309.319301 132.706648 
L 309.384245 132.75665 
L 309.514133 132.611767 
L 309.579077 132.596379 
L 309.773908 132.298362 
L 309.903796 132.274818 
L 310.358403 131.944356 
L 310.553235 131.646879 
L 310.618179 131.723929 
L 310.877954 131.478654 
L 310.942898 131.517902 
L 311.13773 131.302353 
L 311.397506 131.190791 
L 311.592337 130.969264 
L 311.657281 131.074676 
L 311.722225 130.973236 
L 311.917057 130.750976 
L 311.982001 130.800917 
L 312.241776 130.544613 
L 312.30672 130.565347 
L 312.566496 130.306568 
L 313.280879 129.79781 
L 313.47571 129.578941 
L 313.865374 129.318564 
L 314.644701 128.65823 
L 314.774588 128.618677 
L 315.618859 127.98417 
L 315.878635 127.692304 
L 316.008522 127.612077 
L 316.398186 127.300923 
L 325.035724 120.459313 
L 325.230556 120.227205 
L 325.360444 120.214313 
L 325.425388 120.038297 
L 325.490332 120.096467 
L 326.009883 119.617669 
L 326.074827 119.646631 
L 326.334602 119.369186 
L 327.373705 118.554325 
L 328.153031 117.812889 
L 328.347863 117.704473 
L 328.542695 117.482569 
L 328.80247 117.295128 
L 329.062246 117.071656 
L 329.451909 116.792479 
L 330.036404 116.269402 
L 332.179553 114.378631 
L 332.244497 114.548495 
L 332.309441 114.274472 
L 332.374385 114.322783 
L 332.63416 114.074932 
L 332.699104 114.131838 
L 332.893936 113.90466 
L 333.023824 113.815858 
L 333.283599 113.614016 
L 334.062926 112.988491 
L 334.257758 112.76948 
L 334.322702 112.817975 
L 334.517533 112.519164 
L 334.777309 112.384637 
L 334.972141 112.157295 
L 335.231916 112.047576 
L 335.426748 111.860501 
L 335.816411 111.523481 
L 335.881355 111.532198 
L 336.076187 111.238622 
L 336.141131 111.32777 
L 336.271019 111.162101 
L 336.335962 111.186542 
L 336.530794 110.886203 
L 336.660682 110.908689 
L 336.855514 110.604623 
L 336.920458 110.741045 
L 337.050345 110.565029 
L 337.115289 110.653791 
L 337.310121 110.323736 
L 337.440009 110.272512 
L 337.63484 110.099796 
L 337.699784 110.112872 
L 337.894616 109.950441 
L 343.544735 105.389476 
L 343.609679 105.578649 
L 343.674623 105.340208 
L 343.739567 105.359801 
L 344.259118 105.044859 
L 344.324062 104.784421 
L 344.389006 104.896401 
L 344.648781 104.641034 
L 344.713725 104.703888 
L 344.908557 104.472086 
L 345.103389 104.254093 
L 345.168333 104.317741 
L 345.233276 104.14085 
L 345.29822 104.242076 
L 345.62294 103.957298 
L 346.077547 103.531171 
L 346.207435 103.487523 
L 346.402267 103.301629 
L 346.726986 103.084512 
L 346.921818 102.86599 
L 347.376425 102.558991 
L 347.571257 102.399188 
L 347.636201 102.417967 
L 347.831032 102.134839 
L 348.090808 101.974568 
L 348.28564 101.753499 
L 348.415527 101.699322 
L 348.610359 101.467927 
L 349.324742 100.878575 
L 349.519574 100.67486 
L 349.844293 100.355641 
L 349.909237 100.385173 
L 350.169013 100.082981 
L 351.078227 99.237854 
L 351.273059 98.898492 
L 351.338003 98.965399 
L 351.467891 98.751887 
L 351.532835 98.838388 
L 351.727666 98.42448 
L 351.79261 98.507457 
L 352.182274 98.023608 
L 352.312161 97.93611 
L 352.506993 97.676445 
L 352.636881 97.577031 
L 352.896656 97.337306 
L 353.28632 96.849893 
L 353.481152 96.734308 
L 354.065647 96.023504 
L 354.13059 96.038026 
L 354.45531 95.614831 
L 354.909917 95.19184 
L 355.689244 94.337059 
L 355.754188 94.362742 
L 356.013964 94.020324 
L 356.208795 93.897651 
L 356.403627 93.594543 
L 356.533515 93.471361 
L 356.728346 93.224446 
L 356.79329 93.233672 
L 356.988122 93.05894 
L 357.182954 92.752695 
L 357.247898 92.874594 
L 357.442729 92.507491 
L 357.507673 92.538592 
L 357.702505 92.290761 
L 359.585878 90.314283 
L 359.650822 90.325486 
L 359.845653 89.945958 
L 359.910597 90.070872 
L 359.975541 89.813366 
L 360.040485 89.890355 
L 360.495092 89.364081 
L 361.988802 87.916342 
L 362.183634 87.732648 
L 362.248578 87.78318 
L 362.443409 87.463716 
L 363.742287 86.307884 
L 363.937119 86.134414 
L 370.106789 80.561065 
L 370.301621 80.226855 
L 370.366565 80.299363 
L 370.626341 79.928492 
L 370.691284 80.012304 
L 370.886116 79.637584 
L 370.95106 79.809119 
L 371.145892 79.545279 
L 371.340723 79.220357 
L 371.405667 79.383011 
L 371.600499 79.097297 
L 371.795331 78.822743 
L 371.860275 78.971548 
L 372.055106 78.667869 
L 372.249938 78.483381 
L 372.314882 78.523159 
L 372.574657 78.168643 
L 372.899377 77.878284 
L 373.938479 76.906594 
L 374.977582 75.958672 
L 375.237357 75.678131 
L 383.095569 68.366074 
L 383.160513 68.501537 
L 383.355345 68.145616 
L 383.420288 68.186921 
L 383.809952 67.741078 
L 383.93984 67.675821 
L 384.264559 67.307048 
L 384.329503 67.352976 
L 384.524335 67.079889 
L 384.654222 66.984549 
L 384.849054 66.740466 
L 384.913998 66.825785 
L 385.10883 66.54229 
L 385.303661 66.253847 
L 385.368605 66.405319 
L 385.563437 65.932428 
L 385.628381 66.119788 
L 385.693325 65.91589 
L 385.758269 65.955789 
L 385.888157 65.742359 
L 385.9531 65.866926 
L 386.147932 65.470677 
L 386.212876 65.613983 
L 386.407708 65.385053 
L 386.602539 65.128443 
L 386.667483 65.159626 
L 386.927259 64.865051 
L 386.992203 64.878616 
L 387.251978 64.554509 
L 387.44681 64.411651 
L 387.77153 64.072411 
L 388.291081 63.612005 
L 388.745688 63.204045 
L 388.94052 62.868186 
L 389.005464 62.970512 
L 389.200295 62.696855 
L 389.460071 62.497518 
L 389.849734 62.074303 
L 389.914678 62.071105 
L 390.174454 61.7471 
L 391.213556 60.749828 
L 391.538276 60.358732 
L 391.60322 60.519981 
L 391.668163 60.088843 
L 391.733107 60.356899 
L 391.927939 59.93067 
L 391.992883 60.006579 
L 392.057827 59.938593 
L 392.252659 59.636034 
L 392.317602 59.691413 
L 392.44749 59.474948 
L 392.512434 59.493625 
L 392.707266 59.227219 
L 392.77221 59.281742 
L 392.967041 58.996537 
L 394.006144 57.980629 
L 394.200975 57.572526 
L 394.265919 57.709823 
L 394.460751 57.406287 
L 394.655583 57.119432 
L 394.720527 57.131611 
L 394.980302 56.791699 
L 395.240078 56.685585 
L 395.499853 56.307931 
L 395.564797 56.432091 
L 395.629741 56.074398 
L 395.694685 56.373515 
L 395.759629 56.02352 
L 395.824573 56.261249 
L 395.889517 55.983661 
L 395.954461 56.029488 
L 396.019405 56.031077 
L 396.084349 55.791311 
L 396.149292 55.997898 
L 396.344124 55.657354 
L 396.474012 55.623096 
L 396.668844 55.333553 
L 396.733787 55.456796 
L 396.863675 55.212855 
L 396.928619 55.216582 
L 397.123451 54.947121 
L 397.188395 54.987896 
L 397.77289 54.315078 
L 398.097609 54.000238 
L 398.487273 53.568 
L 398.487273 53.568 
" clip-path="url(#p03eabd0ac8)" style="fill: none; stroke: #008000; stroke-width: 1.5; stroke-linecap: square"/>
   </g>
   <g id="line2d_16">
    <path d="M 73.832727 203.749194 
L 74.352278 210.616172 
L 74.612054 212.349686 
L 74.806886 212.634036 
L 75.066661 212.744489 
L 75.391381 213.434416 
L 75.845988 214.199886 
L 76.300595 215.022517 
L 77.079922 217.016022 
L 77.859249 219.719155 
L 78.768464 223.714882 
L 80.521949 232.681734 
L 81.950715 239.445607 
L 83.119705 243.844223 
L 84.093863 246.723355 
L 85.068022 248.962359 
L 85.977236 250.57289 
L 86.886451 251.811318 
L 88.120385 253.050596 
L 89.029599 253.691595 
L 90.393421 254.352631 
L 91.757243 254.723354 
L 92.796345 254.902038 
L 95.718821 254.989445 
L 98.186689 254.664742 
L 98.836128 254.529466 
L 100.005118 254.284461 
L 100.719501 254.113171 
L 101.239052 253.982396 
L 102.148267 253.754912 
L 103.577032 253.306981 
L 105.785125 252.423299 
L 107.408722 251.665757 
L 121.241773 244.324309 
L 121.566492 244.180611 
L 122.086043 243.901618 
L 122.410763 243.779688 
L 122.605595 243.649128 
L 122.86537 243.566548 
L 123.774585 243.12158 
L 124.164248 242.950377 
L 124.488968 242.790665 
L 125.398182 242.397237 
L 125.787846 242.207693 
L 126.307397 241.997185 
L 126.762004 241.790858 
L 127.151667 241.645083 
L 127.411443 241.519334 
L 127.541331 241.464077 
L 127.671219 241.434702 
L 128.385601 241.11727 
L 128.710321 240.977794 
L 142.673259 233.522523 
L 142.997979 233.392273 
L 148.388322 230.541685 
L 148.583154 230.390788 
L 148.777985 230.328687 
L 149.037761 230.151475 
L 149.36248 230.009025 
L 149.946976 229.670248 
L 151.115966 229.11662 
L 151.440685 228.925177 
L 152.155068 228.524819 
L 152.544731 228.265908 
L 152.609675 228.292945 
L 152.804507 228.137801 
L 153.19417 227.939239 
L 153.51889 227.73696 
L 153.908553 227.522847 
L 154.298217 227.323658 
L 155.597095 226.642642 
L 158.324738 225.226004 
L 158.584514 225.059154 
L 158.714402 224.979935 
L 160.208111 224.172793 
L 160.402943 224.030435 
L 160.662719 223.942122 
L 160.85755 223.790522 
L 161.117326 223.664982 
L 162.221372 223.076933 
L 162.611036 222.822798 
L 166.18295 220.99096 
L 166.442726 220.862706 
L 166.962277 220.610414 
L 167.157109 220.468545 
L 167.35194 220.410574 
L 168.650818 219.71028 
L 168.84565 219.634854 
L 169.754864 219.149324 
L 170.858911 218.59702 
L 170.988798 218.51304 
L 171.443406 218.333252 
L 171.703181 218.13336 
L 171.833069 218.09425 
L 172.612396 217.667842 
L 172.67734 217.755977 
L 172.807228 217.634281 
L 172.872172 217.648101 
L 172.937115 217.510982 
L 173.002059 217.567059 
L 173.261835 217.379688 
L 173.521611 217.290311 
L 174.041162 217.005126 
L 174.690601 216.70493 
L 174.950376 216.569364 
L 175.794647 216.186833 
L 176.054423 215.99571 
L 176.249254 215.941267 
L 177.093525 215.499238 
L 177.418244 215.356146 
L 178.002739 215.087337 
L 178.457347 214.832733 
L 178.717122 214.713696 
L 179.236674 214.471781 
L 179.626337 214.261681 
L 179.886112 214.196637 
L 180.275776 213.99057 
L 180.990159 213.625218 
L 181.769486 213.299767 
L 182.029261 213.112682 
L 182.353981 212.939283 
L 184.951737 211.683986 
L 185.081624 211.642243 
L 185.3414 211.505781 
L 187.159829 210.695707 
L 193.589275 207.988486 
L 193.784107 207.897138 
L 195.927255 207.038049 
L 196.122087 206.964023 
L 196.381863 206.87128 
L 196.576694 206.810391 
L 196.83647 206.726956 
L 197.031302 206.643663 
L 197.096245 206.584241 
L 197.161189 206.677972 
L 197.420965 206.469797 
L 198.654899 205.98444 
L 199.044562 205.807641 
L 199.369282 205.700498 
L 199.629057 205.517282 
L 200.083665 205.354424 
L 200.473328 205.207157 
L 200.66816 205.125433 
L 201.122767 204.889924 
L 201.252655 204.856735 
L 204.240074 203.60428 
L 204.49985 203.466779 
L 204.759625 203.368078 
L 205.019401 203.20077 
L 205.149289 203.222064 
L 205.409064 203.052006 
L 205.538952 203.018929 
L 206.318279 202.641286 
L 206.448167 202.581681 
L 206.772886 202.416592 
L 206.967718 202.351692 
L 209.370642 201.199047 
L 209.50053 201.189688 
L 209.630418 201.107637 
L 210.020081 200.938028 
L 210.149969 200.826801 
L 210.214913 200.884695 
L 210.279857 200.811261 
L 210.344801 200.709953 
L 210.409744 200.777726 
L 210.864352 200.53794 
L 211.124127 200.420786 
L 229.243475 192.384981 
L 229.373363 192.363952 
L 230.217633 192.018143 
L 230.347521 191.987113 
L 230.99696 191.711399 
L 232.230894 191.243762 
L 232.425726 191.134766 
L 232.750445 191.018203 
L 233.269997 190.78246 
L 233.399884 190.756257 
L 235.737865 189.814273 
L 235.802809 189.835597 
L 235.932696 189.672098 
L 235.99764 189.755003 
L 236.062584 189.697577 
L 236.257416 189.595669 
L 236.517191 189.525035 
L 236.906855 189.364906 
L 237.16663 189.229024 
L 237.881013 188.93446 
L 238.205733 188.784545 
L 238.400564 188.764779 
L 238.66034 188.563742 
L 238.855172 188.582928 
L 239.114947 188.377349 
L 239.309779 188.322265 
L 239.569555 188.14625 
L 239.699442 188.114752 
L 240.348881 187.814189 
L 240.478769 187.74273 
L 240.673601 187.714073 
L 240.933376 187.518678 
L 241.32304 187.330594 
L 241.647759 187.195528 
L 244.570235 185.887143 
L 244.635179 185.746394 
L 244.700123 185.777719 
L 244.959898 185.659384 
L 245.869113 185.221789 
L 245.999001 185.161807 
L 246.388664 184.98902 
L 249.830691 183.356029 
L 250.025522 183.232694 
L 250.674961 182.832443 
L 250.804849 182.829296 
L 258.663061 178.605514 
L 258.792948 178.477301 
L 258.922836 178.449683 
L 259.767107 177.948654 
L 260.026882 177.747627 
L 261.32576 176.992147 
L 261.455648 176.87367 
L 261.910256 176.591153 
L 263.14419 175.802464 
L 263.274077 175.713357 
L 263.728685 175.437948 
L 264.378124 175.029672 
L 264.702843 174.816507 
L 265.027563 174.616569 
L 265.15745 174.571333 
L 265.352282 174.454994 
L 265.806889 174.148811 
L 266.521272 173.693293 
L 267.300599 173.179014 
L 267.495431 173.071108 
L 267.885094 172.740147 
L 267.950038 172.75752 
L 268.209814 172.52249 
L 268.404645 172.363848 
L 269.054084 171.874275 
L 269.638579 171.353174 
L 269.963299 170.957343 
L 270.028243 171.011408 
L 270.093187 170.931639 
L 270.417906 170.619182 
L 270.547794 170.556837 
L 271.846672 169.660384 
L 272.041504 169.441414 
L 272.301279 169.199286 
L 272.561055 169.041784 
L 272.625999 169.089515 
L 272.82083 168.934987 
L 273.015662 168.74889 
L 273.210494 168.664691 
L 276.522633 166.248185 
L 276.587576 166.279805 
L 276.782408 166.087027 
L 277.107128 165.80725 
L 277.301959 165.699109 
L 277.951398 165.182132 
L 278.211174 165.072148 
L 278.406006 164.875551 
L 278.795669 164.596914 
L 280.48421 163.406925 
L 281.068705 163.007733 
L 281.198593 162.995228 
L 281.393425 162.818306 
L 282.042864 162.330342 
L 282.367583 162.104783 
L 282.627359 161.953046 
L 282.822191 161.751123 
L 282.887135 161.780981 
L 283.211854 161.450428 
L 283.276798 161.513496 
L 283.47163 161.334659 
L 284.056125 160.866035 
L 284.186012 160.75658 
L 284.965339 160.170955 
L 285.095227 160.067804 
L 288.082646 157.952613 
L 288.14759 157.815102 
L 288.212534 157.854065 
L 288.277478 157.824013 
L 288.407366 157.680596 
L 288.47231 157.720221 
L 288.602198 157.551772 
L 288.667141 157.58217 
L 288.926917 157.247665 
L 289.056805 157.24516 
L 289.186693 157.151816 
L 289.251637 157.141531 
L 289.381524 156.978876 
L 289.576356 156.863525 
L 289.836132 156.67149 
L 289.966019 156.586446 
L 290.225795 156.273185 
L 290.355683 156.282034 
L 291.524673 155.396549 
L 291.589617 155.489639 
L 291.654561 155.399889 
L 292.109168 155.090233 
L 292.239056 155.027216 
L 292.563775 154.738986 
L 292.693663 154.71981 
L 293.278158 154.270698 
L 293.602878 154.065424 
L 294.317261 153.501439 
L 294.512092 153.476968 
L 294.901756 153.185214 
L 295.486251 152.840994 
L 295.746026 152.664011 
L 295.875914 152.672576 
L 296.070746 152.462526 
L 296.850073 151.837398 
L 296.97996 151.803038 
L 297.30468 151.530023 
L 297.889175 151.211333 
L 298.538614 150.785389 
L 298.798389 150.608569 
L 298.928277 150.534502 
L 298.993221 150.522791 
L 299.123109 150.416218 
L 299.252997 150.318933 
L 299.837492 149.978176 
L 299.96738 149.808515 
L 300.681763 149.402266 
L 300.941538 149.199294 
L 302.370304 148.332343 
L 302.630079 148.143975 
L 302.695023 148.17145 
L 302.824911 148.038461 
L 302.954799 147.967725 
L 303.409406 147.626224 
L 304.903116 146.744507 
L 305.097948 146.616345 
L 305.162891 146.614063 
L 305.357723 146.464159 
L 305.682443 146.170796 
L 305.877274 146.120499 
L 306.201994 145.864032 
L 306.786489 145.497418 
L 306.916377 145.466042 
L 307.046265 145.369164 
L 308.604918 144.48039 
L 308.864694 144.236143 
L 308.929638 144.293457 
L 308.994581 144.209665 
L 310.877954 142.97937 
L 311.072786 142.877451 
L 311.267618 142.748056 
L 311.397506 142.692087 
L 311.592337 142.53264 
L 311.722225 142.503005 
L 312.046945 142.277772 
L 312.241776 142.158673 
L 312.566496 141.962351 
L 312.891215 141.706984 
L 312.956159 141.72949 
L 313.215935 141.49388 
L 313.280879 141.500723 
L 313.47571 141.291234 
L 313.605598 141.284726 
L 313.80043 141.136054 
L 313.865374 141.127133 
L 313.995262 140.988217 
L 314.060205 141.001018 
L 314.125149 140.853191 
L 314.190093 140.89141 
L 314.319981 140.77611 
L 314.644701 140.560551 
L 314.774588 140.483013 
L 315.553915 139.96628 
L 317.697064 138.53232 
L 317.891895 138.46637 
L 318.086727 138.293766 
L 318.216615 138.203426 
L 319.060886 137.690767 
L 319.515493 137.348228 
L 319.645381 137.298816 
L 319.775269 137.24139 
L 320.099988 136.974556 
L 320.164932 137.010169 
L 320.229876 136.854001 
L 320.29482 136.8955 
L 325.2955 133.457128 
L 325.360444 133.477393 
L 325.425388 133.283821 
L 325.490332 133.343121 
L 325.815051 133.143561 
L 326.009883 132.918358 
L 326.074827 132.98054 
L 326.334602 132.718085 
L 328.607639 131.105767 
L 328.997302 130.741352 
L 329.12719 130.708163 
L 329.257078 130.635961 
L 329.646741 130.346845 
L 330.101348 129.999529 
L 339.193494 123.842896 
L 339.323382 123.740143 
L 339.648101 123.542517 
L 341.79125 122.077324 
L 341.856194 122.102681 
L 342.051025 121.841815 
L 342.115969 121.887031 
L 342.505633 121.578464 
L 342.830352 121.405422 
L 343.090128 121.142559 
L 343.349903 121.11545 
L 343.544735 120.87654 
L 343.609679 120.939557 
L 343.804511 120.72075 
L 346.921818 118.618706 
L 347.246537 118.370122 
L 347.571257 118.191438 
L 347.96092 117.962691 
L 348.155752 117.698994 
L 348.28564 117.645 
L 348.415527 117.582451 
L 348.610359 117.411996 
L 349.12991 117.052694 
L 349.324742 116.872503 
L 349.714405 116.550412 
L 349.909237 116.53756 
L 350.104069 116.25484 
L 350.298901 116.173411 
L 350.688564 115.817123 
L 350.818452 115.801256 
L 351.467891 115.24718 
L 351.532835 115.26824 
L 351.727666 115.016641 
L 351.79261 115.0432 
L 352.052386 114.694998 
L 352.11733 114.766223 
L 352.182274 114.689357 
L 352.377105 114.530307 
L 353.546095 113.619638 
L 354.065647 113.176014 
L 354.195534 113.060918 
L 355.169693 112.308911 
L 355.364525 112.137763 
L 355.559356 112.040284 
L 355.819132 111.790661 
L 356.013964 111.62322 
L 357.11801 110.780211 
L 357.312841 110.5612 
L 357.377785 110.585417 
L 357.702505 110.275241 
L 359.650822 108.739209 
L 359.845653 108.484596 
L 359.910597 108.545515 
L 360.105429 108.310149 
L 360.300261 108.173727 
L 360.689924 107.837848 
L 360.884756 107.797072 
L 361.079588 107.617268 
L 363.157792 106.081929 
L 363.742287 105.604516 
L 363.872175 105.521824 
L 364.391726 105.206882 
L 364.586558 105.033474 
L 364.716446 104.968196 
L 365.300941 104.470599 
L 365.365885 104.477524 
L 365.560717 104.333893 
L 366.210155 103.804726 
L 367.314202 102.967114 
L 367.573977 102.783013 
L 367.768809 102.645329 
L 367.963641 102.421918 
L 368.093529 102.339023 
L 368.28836 102.212317 
L 369.132631 101.518296 
L 369.197575 101.539336 
L 369.392406 101.327942 
L 370.821172 100.202335 
L 370.886116 100.029578 
L 370.95106 100.153962 
L 371.210836 99.820384 
L 371.27578 99.900734 
L 371.470611 99.577787 
L 371.795331 99.331789 
L 371.860275 99.464055 
L 372.055106 99.156222 
L 372.704545 98.673432 
L 372.834433 98.573183 
L 373.483872 98.017376 
L 373.873535 97.689378 
L 374.003423 97.652615 
L 374.198255 97.463809 
L 374.393087 97.34859 
L 374.587918 97.161434 
L 374.847694 96.992343 
L 375.042526 96.763352 
L 375.107469 96.814942 
L 375.302301 96.588599 
L 375.691965 96.338487 
L 375.886796 96.121716 
L 376.016684 96.071795 
L 377.250618 94.997799 
L 377.575338 94.742778 
L 378.159833 94.324981 
L 378.484552 94.049206 
L 378.549496 94.091264 
L 378.874216 93.721514 
L 379.069047 93.624402 
L 379.263879 93.463315 
L 379.523655 93.213061 
L 379.848374 92.932886 
L 380.302981 92.575356 
L 381.147252 91.787237 
L 381.27714 91.751085 
L 381.342084 91.757888 
L 381.601859 91.47201 
L 381.731747 91.415653 
L 382.056467 91.017327 
L 382.12141 91.093562 
L 382.381186 90.772022 
L 383.030625 90.292042 
L 383.225457 90.033762 
L 383.290401 90.096698 
L 383.550176 89.727721 
L 383.61512 89.782469 
L 383.680064 89.692669 
L 383.93984 89.498852 
L 384.719166 88.831492 
L 384.78411 88.839191 
L 385.043886 88.540788 
L 385.433549 88.129304 
L 385.498493 88.200162 
L 385.693325 87.93233 
L 385.9531 87.806541 
L 386.147932 87.536245 
L 386.212876 87.588569 
L 386.472652 87.327315 
L 386.667483 87.164355 
L 386.927259 86.959031 
L 387.057147 86.852285 
L 387.251978 86.671076 
L 387.316922 86.672502 
L 387.511754 86.416707 
L 387.706586 86.285805 
L 388.550856 85.550113 
L 388.6158 85.529684 
L 388.810632 85.24179 
L 388.875576 85.243094 
L 389.070408 85.062719 
L 389.395127 84.843179 
L 391.60322 82.949087 
L 391.668163 82.679809 
L 391.733107 82.773011 
L 391.927939 82.508865 
L 392.057827 82.485768 
L 392.252659 82.258875 
L 392.317602 82.256859 
L 392.44749 82.059865 
L 392.512434 82.086444 
L 392.707266 81.87059 
L 392.77221 81.881018 
L 392.967041 81.662659 
L 393.551536 81.174695 
L 393.746368 80.973119 
L 394.136032 80.619112 
L 394.330863 80.341076 
L 394.460751 80.244941 
L 394.655583 79.948554 
L 394.915358 79.769097 
L 395.11019 79.564119 
L 395.564797 79.184856 
L 395.759629 78.982872 
L 395.824573 79.077031 
L 395.954461 78.888734 
L 396.27918 78.682758 
L 396.538956 78.365453 
L 396.6039 78.403805 
L 396.863675 78.110697 
L 396.928619 78.129741 
L 397.188395 77.905862 
L 397.902778 77.189111 
L 397.967722 77.21901 
L 398.162553 76.929385 
L 398.422329 76.722554 
L 398.487273 76.613303 
L 398.487273 76.613303 
" clip-path="url(#p03eabd0ac8)" style="fill: none; stroke: #ff0000; stroke-width: 1.5; stroke-linecap: square"/>
   </g>
   <g id="patch_3">
    <path d="M 57.6 307.584 
L 57.6 41.472 
" style="fill: none; stroke: #000000; stroke-width: 0.8; stroke-linejoin: miter; stroke-linecap: square"/>
   </g>
   <g id="patch_4">
    <path d="M 414.72 307.584 
L 414.72 41.472 
" style="fill: none; stroke: #000000; stroke-width: 0.8; stroke-linejoin: miter; stroke-linecap: square"/>
   </g>
   <g id="patch_5">
    <path d="M 57.6 307.584 
L 414.72 307.584 
" style="fill: none; stroke: #000000; stroke-width: 0.8; stroke-linejoin: miter; stroke-linecap: square"/>
   </g>
   <g id="patch_6">
    <path d="M 57.6 41.472 
L 414.72 41.472 
" style="fill: none; stroke: #000000; stroke-width: 0.8; stroke-linejoin: miter; stroke-linecap: square"/>
   </g>
   <g id="text_16">
    <!-- Script19_loss -->
    <g transform="translate(196.532813 35.472) scale(0.12 -0.12)">
     <defs>
      <path id="DejaVuSans-53" d="M 3425 4513 
L 3425 3897 
Q 3066 4069 2747 4153 
Q 2428 4238 2131 4238 
Q 1616 4238 1336 4038 
Q 1056 3838 1056 3469 
Q 1056 3159 1242 3001 
Q 1428 2844 1947 2747 
L 2328 2669 
Q 3034 2534 3370 2195 
Q 3706 1856 3706 1288 
Q 3706 609 3251 259 
Q 2797 -91 1919 -91 
Q 1588 -91 1214 -16 
Q 841 59 441 206 
L 441 856 
Q 825 641 1194 531 
Q 1563 422 1919 422 
Q 2459 422 2753 634 
Q 3047 847 3047 1241 
Q 3047 1584 2836 1778 
Q 2625 1972 2144 2069 
L 1759 2144 
Q 1053 2284 737 2584 
Q 422 2884 422 3419 
Q 422 4038 858 4394 
Q 1294 4750 2059 4750 
Q 2388 4750 2728 4690 
Q 3069 4631 3425 4513 
z
" transform="scale(0.015625)"/>
      <path id="DejaVuSans-72" d="M 2631 2963 
Q 2534 3019 2420 3045 
Q 2306 3072 2169 3072 
Q 1681 3072 1420 2755 
Q 1159 2438 1159 1844 
L 1159 0 
L 581 0 
L 581 3500 
L 1159 3500 
L 1159 2956 
Q 1341 3275 1631 3429 
Q 1922 3584 2338 3584 
Q 2397 3584 2469 3576 
Q 2541 3569 2628 3553 
L 2631 2963 
z
" transform="scale(0.015625)"/>
      <path id="DejaVuSans-69" d="M 603 3500 
L 1178 3500 
L 1178 0 
L 603 0 
L 603 3500 
z
M 603 4863 
L 1178 4863 
L 1178 4134 
L 603 4134 
L 603 4863 
z
" transform="scale(0.015625)"/>
      <path id="DejaVuSans-74" d="M 1172 4494 
L 1172 3500 
L 2356 3500 
L 2356 3053 
L 1172 3053 
L 1172 1153 
Q 1172 725 1289 603 
Q 1406 481 1766 481 
L 2356 481 
L 2356 0 
L 1766 0 
Q 1100 0 847 248 
Q 594 497 594 1153 
L 594 3053 
L 172 3053 
L 172 3500 
L 594 3500 
L 594 4494 
L 1172 4494 
z
" transform="scale(0.015625)"/>
      <path id="DejaVuSans-39" d="M 703 97 
L 703 672 
Q 941 559 1184 500 
Q 1428 441 1663 441 
Q 2288 441 2617 861 
Q 2947 1281 2994 2138 
Q 2813 1869 2534 1725 
Q 2256 1581 1919 1581 
Q 1219 1581 811 2004 
Q 403 2428 403 3163 
Q 403 3881 828 4315 
Q 1253 4750 1959 4750 
Q 2769 4750 3195 4129 
Q 3622 3509 3622 2328 
Q 3622 1225 3098 567 
Q 2575 -91 1691 -91 
Q 1453 -91 1209 -44 
Q 966 3 703 97 
z
M 1959 2075 
Q 2384 2075 2632 2365 
Q 2881 2656 2881 3163 
Q 2881 3666 2632 3958 
Q 2384 4250 1959 4250 
Q 1534 4250 1286 3958 
Q 1038 3666 1038 3163 
Q 1038 2656 1286 2365 
Q 1534 2075 1959 2075 
z
" transform="scale(0.015625)"/>
      <path id="DejaVuSans-5f" d="M 3263 -1063 
L 3263 -1509 
L -63 -1509 
L -63 -1063 
L 3263 -1063 
z
" transform="scale(0.015625)"/>
     </defs>
     <use xlink:href="#DejaVuSans-53"/>
     <use xlink:href="#DejaVuSans-63" x="63.476562"/>
     <use xlink:href="#DejaVuSans-72" x="118.457031"/>
     <use xlink:href="#DejaVuSans-69" x="159.570312"/>
     <use xlink:href="#DejaVuSans-70" x="187.353516"/>
     <use xlink:href="#DejaVuSans-74" x="250.830078"/>
     <use xlink:href="#DejaVuSans-31" x="290.039062"/>
     <use xlink:href="#DejaVuSans-39" x="353.662109"/>
     <use xlink:href="#DejaVuSans-5f" x="417.285156"/>
     <use xlink:href="#DejaVuSans-6c" x="467.285156"/>
     <use xlink:href="#DejaVuSans-6f" x="495.068359"/>
     <use xlink:href="#DejaVuSans-73" x="556.25"/>
     <use xlink:href="#DejaVuSans-73" x="608.349609"/>
    </g>
   </g>
   <g id="legend_1">
    <g id="patch_7">
     <path d="M 64.6 93.506375 
L 164.295312 93.506375 
Q 166.295312 93.506375 166.295312 91.506375 
L 166.295312 48.472 
Q 166.295312 46.472 164.295312 46.472 
L 64.6 46.472 
Q 62.6 46.472 62.6 48.472 
L 62.6 91.506375 
Q 62.6 93.506375 64.6 93.506375 
z
" style="fill: #ffffff; opacity: 0.8; stroke: #cccccc; stroke-linejoin: miter"/>
    </g>
    <g id="line2d_17">
     <path d="M 66.6 54.570438 
L 76.6 54.570438 
L 86.6 54.570438 
" style="fill: none; stroke: #0000ff; stroke-width: 1.5; stroke-linecap: square"/>
    </g>
    <g id="text_17">
     <!-- training set -->
     <g transform="translate(94.6 58.070438) scale(0.1 -0.1)">
      <defs>
       <path id="DejaVuSans-61" d="M 2194 1759 
Q 1497 1759 1228 1600 
Q 959 1441 959 1056 
Q 959 750 1161 570 
Q 1363 391 1709 391 
Q 2188 391 2477 730 
Q 2766 1069 2766 1631 
L 2766 1759 
L 2194 1759 
z
M 3341 1997 
L 3341 0 
L 2766 0 
L 2766 531 
Q 2569 213 2275 61 
Q 1981 -91 1556 -91 
Q 1019 -91 701 211 
Q 384 513 384 1019 
Q 384 1609 779 1909 
Q 1175 2209 1959 2209 
L 2766 2209 
L 2766 2266 
Q 2766 2663 2505 2880 
Q 2244 3097 1772 3097 
Q 1472 3097 1187 3025 
Q 903 2953 641 2809 
L 641 3341 
Q 956 3463 1253 3523 
Q 1550 3584 1831 3584 
Q 2591 3584 2966 3190 
Q 3341 2797 3341 1997 
z
" transform="scale(0.015625)"/>
       <path id="DejaVuSans-6e" d="M 3513 2113 
L 3513 0 
L 2938 0 
L 2938 2094 
Q 2938 2591 2744 2837 
Q 2550 3084 2163 3084 
Q 1697 3084 1428 2787 
Q 1159 2491 1159 1978 
L 1159 0 
L 581 0 
L 581 3500 
L 1159 3500 
L 1159 2956 
Q 1366 3272 1645 3428 
Q 1925 3584 2291 3584 
Q 2894 3584 3203 3211 
Q 3513 2838 3513 2113 
z
" transform="scale(0.015625)"/>
       <path id="DejaVuSans-67" d="M 2906 1791 
Q 2906 2416 2648 2759 
Q 2391 3103 1925 3103 
Q 1463 3103 1205 2759 
Q 947 2416 947 1791 
Q 947 1169 1205 825 
Q 1463 481 1925 481 
Q 2391 481 2648 825 
Q 2906 1169 2906 1791 
z
M 3481 434 
Q 3481 -459 3084 -895 
Q 2688 -1331 1869 -1331 
Q 1566 -1331 1297 -1286 
Q 1028 -1241 775 -1147 
L 775 -588 
Q 1028 -725 1275 -790 
Q 1522 -856 1778 -856 
Q 2344 -856 2625 -561 
Q 2906 -266 2906 331 
L 2906 616 
Q 2728 306 2450 153 
Q 2172 0 1784 0 
Q 1141 0 747 490 
Q 353 981 353 1791 
Q 353 2603 747 3093 
Q 1141 3584 1784 3584 
Q 2172 3584 2450 3431 
Q 2728 3278 2906 2969 
L 2906 3500 
L 3481 3500 
L 3481 434 
z
" transform="scale(0.015625)"/>
       <path id="DejaVuSans-20" transform="scale(0.015625)"/>
      </defs>
      <use xlink:href="#DejaVuSans-74"/>
      <use xlink:href="#DejaVuSans-72" x="39.208984"/>
      <use xlink:href="#DejaVuSans-61" x="80.322266"/>
      <use xlink:href="#DejaVuSans-69" x="141.601562"/>
      <use xlink:href="#DejaVuSans-6e" x="169.384766"/>
      <use xlink:href="#DejaVuSans-69" x="232.763672"/>
      <use xlink:href="#DejaVuSans-6e" x="260.546875"/>
      <use xlink:href="#DejaVuSans-67" x="323.925781"/>
      <use xlink:href="#DejaVuSans-20" x="387.402344"/>
      <use xlink:href="#DejaVuSans-73" x="419.189453"/>
      <use xlink:href="#DejaVuSans-65" x="471.289062"/>
      <use xlink:href="#DejaVuSans-74" x="532.8125"/>
     </g>
    </g>
    <g id="line2d_18">
     <path d="M 66.6 69.248563 
L 76.6 69.248563 
L 86.6 69.248563 
" style="fill: none; stroke: #008000; stroke-width: 1.5; stroke-linecap: square"/>
    </g>
    <g id="text_18">
     <!-- validation set -->
     <g transform="translate(94.6 72.748563) scale(0.1 -0.1)">
      <defs>
       <path id="DejaVuSans-76" d="M 191 3500 
L 800 3500 
L 1894 563 
L 2988 3500 
L 3597 3500 
L 2284 0 
L 1503 0 
L 191 3500 
z
" transform="scale(0.015625)"/>
       <path id="DejaVuSans-64" d="M 2906 2969 
L 2906 4863 
L 3481 4863 
L 3481 0 
L 2906 0 
L 2906 525 
Q 2725 213 2448 61 
Q 2172 -91 1784 -91 
Q 1150 -91 751 415 
Q 353 922 353 1747 
Q 353 2572 751 3078 
Q 1150 3584 1784 3584 
Q 2172 3584 2448 3432 
Q 2725 3281 2906 2969 
z
M 947 1747 
Q 947 1113 1208 752 
Q 1469 391 1925 391 
Q 2381 391 2643 752 
Q 2906 1113 2906 1747 
Q 2906 2381 2643 2742 
Q 2381 3103 1925 3103 
Q 1469 3103 1208 2742 
Q 947 2381 947 1747 
z
" transform="scale(0.015625)"/>
      </defs>
      <use xlink:href="#DejaVuSans-76"/>
      <use xlink:href="#DejaVuSans-61" x="59.179688"/>
      <use xlink:href="#DejaVuSans-6c" x="120.458984"/>
      <use xlink:href="#DejaVuSans-69" x="148.242188"/>
      <use xlink:href="#DejaVuSans-64" x="176.025391"/>
      <use xlink:href="#DejaVuSans-61" x="239.501953"/>
      <use xlink:href="#DejaVuSans-74" x="300.78125"/>
      <use xlink:href="#DejaVuSans-69" x="339.990234"/>
      <use xlink:href="#DejaVuSans-6f" x="367.773438"/>
      <use xlink:href="#DejaVuSans-6e" x="428.955078"/>
      <use xlink:href="#DejaVuSans-20" x="492.333984"/>
      <use xlink:href="#DejaVuSans-73" x="524.121094"/>
      <use xlink:href="#DejaVuSans-65" x="576.220703"/>
      <use xlink:href="#DejaVuSans-74" x="637.744141"/>
     </g>
    </g>
    <g id="line2d_19">
     <path d="M 66.6 83.926688 
L 76.6 83.926688 
L 86.6 83.926688 
" style="fill: none; stroke: #ff0000; stroke-width: 1.5; stroke-linecap: square"/>
    </g>
    <g id="text_19">
     <!-- test set -->
     <g transform="translate(94.6 87.426688) scale(0.1 -0.1)">
      <use xlink:href="#DejaVuSans-74"/>
      <use xlink:href="#DejaVuSans-65" x="39.208984"/>
      <use xlink:href="#DejaVuSans-73" x="100.732422"/>
      <use xlink:href="#DejaVuSans-74" x="152.832031"/>
      <use xlink:href="#DejaVuSans-20" x="192.041016"/>
      <use xlink:href="#DejaVuSans-73" x="223.828125"/>
      <use xlink:href="#DejaVuSans-65" x="275.927734"/>
      <use xlink:href="#DejaVuSans-74" x="337.451172"/>
     </g>
    </g>
   </g>
  </g>
 </g>
 <defs>
  <clipPath id="p03eabd0ac8">
   <rect x="57.6" y="41.472" width="357.12" height="266.112"/>
  </clipPath>
 </defs>
</svg>
