<?xml version="1.0" encoding="utf-8" standalone="no"?>
<!DOCTYPE svg PUBLIC "-//W3C//DTD SVG 1.1//EN"
  "http://www.w3.org/Graphics/SVG/1.1/DTD/svg11.dtd">
<svg xmlns:xlink="http://www.w3.org/1999/xlink" width="460.8pt" height="345.6pt" viewBox="0 0 460.8 345.6" xmlns="http://www.w3.org/2000/svg" version="1.1">
 <metadata>
  <rdf:RDF xmlns:dc="http://purl.org/dc/elements/1.1/" xmlns:cc="http://creativecommons.org/ns#" xmlns:rdf="http://www.w3.org/1999/02/22-rdf-syntax-ns#">
   <cc:Work>
    <dc:type rdf:resource="http://purl.org/dc/dcmitype/StillImage"/>
    <dc:date>2023-06-14T03:52:54.608195</dc:date>
    <dc:format>image/svg+xml</dc:format>
    <dc:creator>
     <cc:Agent>
      <dc:title>Matplotlib v3.7.1, https://matplotlib.org/</dc:title>
     </cc:Agent>
    </dc:creator>
   </cc:Work>
  </rdf:RDF>
 </metadata>
 <defs>
  <style type="text/css">*{stroke-linejoin: round; stroke-linecap: butt}</style>
 </defs>
 <g id="figure_1">
  <g id="patch_1">
   <path d="M 0 345.6 
L 460.8 345.6 
L 460.8 0 
L 0 0 
z
" style="fill: #ffffff"/>
  </g>
  <g id="axes_1">
   <g id="patch_2">
    <path d="M 57.6 307.584 
L 414.72 307.584 
L 414.72 41.472 
L 57.6 41.472 
z
" style="fill: #ffffff"/>
   </g>
   <g id="matplotlib.axis_1">
    <g id="xtick_1">
     <g id="line2d_1">
      <defs>
       <path id="mfd6a0a0781" d="M 0 0 
L 0 3.5 
" style="stroke: #000000; stroke-width: 0.8"/>
      </defs>
      <g>
       <use xlink:href="#mfd6a0a0781" x="73.767783" y="307.584" style="stroke: #000000; stroke-width: 0.8"/>
      </g>
     </g>
     <g id="text_1">
      <!-- 0 -->
      <g transform="translate(70.586533 322.182437) scale(0.1 -0.1)">
       <defs>
        <path id="DejaVuSans-30" d="M 2034 4250 
Q 1547 4250 1301 3770 
Q 1056 3291 1056 2328 
Q 1056 1369 1301 889 
Q 1547 409 2034 409 
Q 2525 409 2770 889 
Q 3016 1369 3016 2328 
Q 3016 3291 2770 3770 
Q 2525 4250 2034 4250 
z
M 2034 4750 
Q 2819 4750 3233 4129 
Q 3647 3509 3647 2328 
Q 3647 1150 3233 529 
Q 2819 -91 2034 -91 
Q 1250 -91 836 529 
Q 422 1150 422 2328 
Q 422 3509 836 4129 
Q 1250 4750 2034 4750 
z
" transform="scale(0.015625)"/>
       </defs>
       <use xlink:href="#DejaVuSans-30"/>
      </g>
     </g>
    </g>
    <g id="xtick_2">
     <g id="line2d_2">
      <g>
       <use xlink:href="#mfd6a0a0781" x="138.711681" y="307.584" style="stroke: #000000; stroke-width: 0.8"/>
      </g>
     </g>
     <g id="text_2">
      <!-- 1000 -->
      <g transform="translate(125.986681 322.182437) scale(0.1 -0.1)">
       <defs>
        <path id="DejaVuSans-31" d="M 794 531 
L 1825 531 
L 1825 4091 
L 703 3866 
L 703 4441 
L 1819 4666 
L 2450 4666 
L 2450 531 
L 3481 531 
L 3481 0 
L 794 0 
L 794 531 
z
" transform="scale(0.015625)"/>
       </defs>
       <use xlink:href="#DejaVuSans-31"/>
       <use xlink:href="#DejaVuSans-30" x="63.623047"/>
       <use xlink:href="#DejaVuSans-30" x="127.246094"/>
       <use xlink:href="#DejaVuSans-30" x="190.869141"/>
      </g>
     </g>
    </g>
    <g id="xtick_3">
     <g id="line2d_3">
      <g>
       <use xlink:href="#mfd6a0a0781" x="203.655579" y="307.584" style="stroke: #000000; stroke-width: 0.8"/>
      </g>
     </g>
     <g id="text_3">
      <!-- 2000 -->
      <g transform="translate(190.930579 322.182437) scale(0.1 -0.1)">
       <defs>
        <path id="DejaVuSans-32" d="M 1228 531 
L 3431 531 
L 3431 0 
L 469 0 
L 469 531 
Q 828 903 1448 1529 
Q 2069 2156 2228 2338 
Q 2531 2678 2651 2914 
Q 2772 3150 2772 3378 
Q 2772 3750 2511 3984 
Q 2250 4219 1831 4219 
Q 1534 4219 1204 4116 
Q 875 4013 500 3803 
L 500 4441 
Q 881 4594 1212 4672 
Q 1544 4750 1819 4750 
Q 2544 4750 2975 4387 
Q 3406 4025 3406 3419 
Q 3406 3131 3298 2873 
Q 3191 2616 2906 2266 
Q 2828 2175 2409 1742 
Q 1991 1309 1228 531 
z
" transform="scale(0.015625)"/>
       </defs>
       <use xlink:href="#DejaVuSans-32"/>
       <use xlink:href="#DejaVuSans-30" x="63.623047"/>
       <use xlink:href="#DejaVuSans-30" x="127.246094"/>
       <use xlink:href="#DejaVuSans-30" x="190.869141"/>
      </g>
     </g>
    </g>
    <g id="xtick_4">
     <g id="line2d_4">
      <g>
       <use xlink:href="#mfd6a0a0781" x="268.599477" y="307.584" style="stroke: #000000; stroke-width: 0.8"/>
      </g>
     </g>
     <g id="text_4">
      <!-- 3000 -->
      <g transform="translate(255.874477 322.182437) scale(0.1 -0.1)">
       <defs>
        <path id="DejaVuSans-33" d="M 2597 2516 
Q 3050 2419 3304 2112 
Q 3559 1806 3559 1356 
Q 3559 666 3084 287 
Q 2609 -91 1734 -91 
Q 1441 -91 1130 -33 
Q 819 25 488 141 
L 488 750 
Q 750 597 1062 519 
Q 1375 441 1716 441 
Q 2309 441 2620 675 
Q 2931 909 2931 1356 
Q 2931 1769 2642 2001 
Q 2353 2234 1838 2234 
L 1294 2234 
L 1294 2753 
L 1863 2753 
Q 2328 2753 2575 2939 
Q 2822 3125 2822 3475 
Q 2822 3834 2567 4026 
Q 2313 4219 1838 4219 
Q 1578 4219 1281 4162 
Q 984 4106 628 3988 
L 628 4550 
Q 988 4650 1302 4700 
Q 1616 4750 1894 4750 
Q 2613 4750 3031 4423 
Q 3450 4097 3450 3541 
Q 3450 3153 3228 2886 
Q 3006 2619 2597 2516 
z
" transform="scale(0.015625)"/>
       </defs>
       <use xlink:href="#DejaVuSans-33"/>
       <use xlink:href="#DejaVuSans-30" x="63.623047"/>
       <use xlink:href="#DejaVuSans-30" x="127.246094"/>
       <use xlink:href="#DejaVuSans-30" x="190.869141"/>
      </g>
     </g>
    </g>
    <g id="xtick_5">
     <g id="line2d_5">
      <g>
       <use xlink:href="#mfd6a0a0781" x="333.543375" y="307.584" style="stroke: #000000; stroke-width: 0.8"/>
      </g>
     </g>
     <g id="text_5">
      <!-- 4000 -->
      <g transform="translate(320.818375 322.182437) scale(0.1 -0.1)">
       <defs>
        <path id="DejaVuSans-34" d="M 2419 4116 
L 825 1625 
L 2419 1625 
L 2419 4116 
z
M 2253 4666 
L 3047 4666 
L 3047 1625 
L 3713 1625 
L 3713 1100 
L 3047 1100 
L 3047 0 
L 2419 0 
L 2419 1100 
L 313 1100 
L 313 1709 
L 2253 4666 
z
" transform="scale(0.015625)"/>
       </defs>
       <use xlink:href="#DejaVuSans-34"/>
       <use xlink:href="#DejaVuSans-30" x="63.623047"/>
       <use xlink:href="#DejaVuSans-30" x="127.246094"/>
       <use xlink:href="#DejaVuSans-30" x="190.869141"/>
      </g>
     </g>
    </g>
    <g id="xtick_6">
     <g id="line2d_6">
      <g>
       <use xlink:href="#mfd6a0a0781" x="398.487273" y="307.584" style="stroke: #000000; stroke-width: 0.8"/>
      </g>
     </g>
     <g id="text_6">
      <!-- 5000 -->
      <g transform="translate(385.762273 322.182437) scale(0.1 -0.1)">
       <defs>
        <path id="DejaVuSans-35" d="M 691 4666 
L 3169 4666 
L 3169 4134 
L 1269 4134 
L 1269 2991 
Q 1406 3038 1543 3061 
Q 1681 3084 1819 3084 
Q 2600 3084 3056 2656 
Q 3513 2228 3513 1497 
Q 3513 744 3044 326 
Q 2575 -91 1722 -91 
Q 1428 -91 1123 -41 
Q 819 9 494 109 
L 494 744 
Q 775 591 1075 516 
Q 1375 441 1709 441 
Q 2250 441 2565 725 
Q 2881 1009 2881 1497 
Q 2881 1984 2565 2268 
Q 2250 2553 1709 2553 
Q 1456 2553 1204 2497 
Q 953 2441 691 2322 
L 691 4666 
z
" transform="scale(0.015625)"/>
       </defs>
       <use xlink:href="#DejaVuSans-35"/>
       <use xlink:href="#DejaVuSans-30" x="63.623047"/>
       <use xlink:href="#DejaVuSans-30" x="127.246094"/>
       <use xlink:href="#DejaVuSans-30" x="190.869141"/>
      </g>
     </g>
    </g>
    <g id="text_7">
     <!-- epoch -->
     <g transform="translate(220.931875 335.860562) scale(0.1 -0.1)">
      <defs>
       <path id="DejaVuSans-65" d="M 3597 1894 
L 3597 1613 
L 953 1613 
Q 991 1019 1311 708 
Q 1631 397 2203 397 
Q 2534 397 2845 478 
Q 3156 559 3463 722 
L 3463 178 
Q 3153 47 2828 -22 
Q 2503 -91 2169 -91 
Q 1331 -91 842 396 
Q 353 884 353 1716 
Q 353 2575 817 3079 
Q 1281 3584 2069 3584 
Q 2775 3584 3186 3129 
Q 3597 2675 3597 1894 
z
M 3022 2063 
Q 3016 2534 2758 2815 
Q 2500 3097 2075 3097 
Q 1594 3097 1305 2825 
Q 1016 2553 972 2059 
L 3022 2063 
z
" transform="scale(0.015625)"/>
       <path id="DejaVuSans-70" d="M 1159 525 
L 1159 -1331 
L 581 -1331 
L 581 3500 
L 1159 3500 
L 1159 2969 
Q 1341 3281 1617 3432 
Q 1894 3584 2278 3584 
Q 2916 3584 3314 3078 
Q 3713 2572 3713 1747 
Q 3713 922 3314 415 
Q 2916 -91 2278 -91 
Q 1894 -91 1617 61 
Q 1341 213 1159 525 
z
M 3116 1747 
Q 3116 2381 2855 2742 
Q 2594 3103 2138 3103 
Q 1681 3103 1420 2742 
Q 1159 2381 1159 1747 
Q 1159 1113 1420 752 
Q 1681 391 2138 391 
Q 2594 391 2855 752 
Q 3116 1113 3116 1747 
z
" transform="scale(0.015625)"/>
       <path id="DejaVuSans-6f" d="M 1959 3097 
Q 1497 3097 1228 2736 
Q 959 2375 959 1747 
Q 959 1119 1226 758 
Q 1494 397 1959 397 
Q 2419 397 2687 759 
Q 2956 1122 2956 1747 
Q 2956 2369 2687 2733 
Q 2419 3097 1959 3097 
z
M 1959 3584 
Q 2709 3584 3137 3096 
Q 3566 2609 3566 1747 
Q 3566 888 3137 398 
Q 2709 -91 1959 -91 
Q 1206 -91 779 398 
Q 353 888 353 1747 
Q 353 2609 779 3096 
Q 1206 3584 1959 3584 
z
" transform="scale(0.015625)"/>
       <path id="DejaVuSans-63" d="M 3122 3366 
L 3122 2828 
Q 2878 2963 2633 3030 
Q 2388 3097 2138 3097 
Q 1578 3097 1268 2742 
Q 959 2388 959 1747 
Q 959 1106 1268 751 
Q 1578 397 2138 397 
Q 2388 397 2633 464 
Q 2878 531 3122 666 
L 3122 134 
Q 2881 22 2623 -34 
Q 2366 -91 2075 -91 
Q 1284 -91 818 406 
Q 353 903 353 1747 
Q 353 2603 823 3093 
Q 1294 3584 2113 3584 
Q 2378 3584 2631 3529 
Q 2884 3475 3122 3366 
z
" transform="scale(0.015625)"/>
       <path id="DejaVuSans-68" d="M 3513 2113 
L 3513 0 
L 2938 0 
L 2938 2094 
Q 2938 2591 2744 2837 
Q 2550 3084 2163 3084 
Q 1697 3084 1428 2787 
Q 1159 2491 1159 1978 
L 1159 0 
L 581 0 
L 581 4863 
L 1159 4863 
L 1159 2956 
Q 1366 3272 1645 3428 
Q 1925 3584 2291 3584 
Q 2894 3584 3203 3211 
Q 3513 2838 3513 2113 
z
" transform="scale(0.015625)"/>
      </defs>
      <use xlink:href="#DejaVuSans-65"/>
      <use xlink:href="#DejaVuSans-70" x="61.523438"/>
      <use xlink:href="#DejaVuSans-6f" x="125"/>
      <use xlink:href="#DejaVuSans-63" x="186.181641"/>
      <use xlink:href="#DejaVuSans-68" x="241.162109"/>
     </g>
    </g>
   </g>
   <g id="matplotlib.axis_2">
    <g id="ytick_1">
     <g id="line2d_7">
      <defs>
       <path id="m980689e9da" d="M 0 0 
L -3.5 0 
" style="stroke: #000000; stroke-width: 0.8"/>
      </defs>
      <g>
       <use xlink:href="#m980689e9da" x="57.6" y="295.520675" style="stroke: #000000; stroke-width: 0.8"/>
      </g>
     </g>
     <g id="text_8">
      <!-- 0.0 -->
      <g transform="translate(34.696875 299.319894) scale(0.1 -0.1)">
       <defs>
        <path id="DejaVuSans-2e" d="M 684 794 
L 1344 794 
L 1344 0 
L 684 0 
L 684 794 
z
" transform="scale(0.015625)"/>
       </defs>
       <use xlink:href="#DejaVuSans-30"/>
       <use xlink:href="#DejaVuSans-2e" x="63.623047"/>
       <use xlink:href="#DejaVuSans-30" x="95.410156"/>
      </g>
     </g>
    </g>
    <g id="ytick_2">
     <g id="line2d_8">
      <g>
       <use xlink:href="#m980689e9da" x="57.6" y="264.201815" style="stroke: #000000; stroke-width: 0.8"/>
      </g>
     </g>
     <g id="text_9">
      <!-- 2.5 -->
      <g transform="translate(34.696875 268.001034) scale(0.1 -0.1)">
       <use xlink:href="#DejaVuSans-32"/>
       <use xlink:href="#DejaVuSans-2e" x="63.623047"/>
       <use xlink:href="#DejaVuSans-35" x="95.410156"/>
      </g>
     </g>
    </g>
    <g id="ytick_3">
     <g id="line2d_9">
      <g>
       <use xlink:href="#m980689e9da" x="57.6" y="232.882955" style="stroke: #000000; stroke-width: 0.8"/>
      </g>
     </g>
     <g id="text_10">
      <!-- 5.0 -->
      <g transform="translate(34.696875 236.682174) scale(0.1 -0.1)">
       <use xlink:href="#DejaVuSans-35"/>
       <use xlink:href="#DejaVuSans-2e" x="63.623047"/>
       <use xlink:href="#DejaVuSans-30" x="95.410156"/>
      </g>
     </g>
    </g>
    <g id="ytick_4">
     <g id="line2d_10">
      <g>
       <use xlink:href="#m980689e9da" x="57.6" y="201.564095" style="stroke: #000000; stroke-width: 0.8"/>
      </g>
     </g>
     <g id="text_11">
      <!-- 7.5 -->
      <g transform="translate(34.696875 205.363313) scale(0.1 -0.1)">
       <defs>
        <path id="DejaVuSans-37" d="M 525 4666 
L 3525 4666 
L 3525 4397 
L 1831 0 
L 1172 0 
L 2766 4134 
L 525 4134 
L 525 4666 
z
" transform="scale(0.015625)"/>
       </defs>
       <use xlink:href="#DejaVuSans-37"/>
       <use xlink:href="#DejaVuSans-2e" x="63.623047"/>
       <use xlink:href="#DejaVuSans-35" x="95.410156"/>
      </g>
     </g>
    </g>
    <g id="ytick_5">
     <g id="line2d_11">
      <g>
       <use xlink:href="#m980689e9da" x="57.6" y="170.245234" style="stroke: #000000; stroke-width: 0.8"/>
      </g>
     </g>
     <g id="text_12">
      <!-- 10.0 -->
      <g transform="translate(28.334375 174.044453) scale(0.1 -0.1)">
       <use xlink:href="#DejaVuSans-31"/>
       <use xlink:href="#DejaVuSans-30" x="63.623047"/>
       <use xlink:href="#DejaVuSans-2e" x="127.246094"/>
       <use xlink:href="#DejaVuSans-30" x="159.033203"/>
      </g>
     </g>
    </g>
    <g id="ytick_6">
     <g id="line2d_12">
      <g>
       <use xlink:href="#m980689e9da" x="57.6" y="138.926374" style="stroke: #000000; stroke-width: 0.8"/>
      </g>
     </g>
     <g id="text_13">
      <!-- 12.5 -->
      <g transform="translate(28.334375 142.725593) scale(0.1 -0.1)">
       <use xlink:href="#DejaVuSans-31"/>
       <use xlink:href="#DejaVuSans-32" x="63.623047"/>
       <use xlink:href="#DejaVuSans-2e" x="127.246094"/>
       <use xlink:href="#DejaVuSans-35" x="159.033203"/>
      </g>
     </g>
    </g>
    <g id="ytick_7">
     <g id="line2d_13">
      <g>
       <use xlink:href="#m980689e9da" x="57.6" y="107.607514" style="stroke: #000000; stroke-width: 0.8"/>
      </g>
     </g>
     <g id="text_14">
      <!-- 15.0 -->
      <g transform="translate(28.334375 111.406733) scale(0.1 -0.1)">
       <use xlink:href="#DejaVuSans-31"/>
       <use xlink:href="#DejaVuSans-35" x="63.623047"/>
       <use xlink:href="#DejaVuSans-2e" x="127.246094"/>
       <use xlink:href="#DejaVuSans-30" x="159.033203"/>
      </g>
     </g>
    </g>
    <g id="ytick_8">
     <g id="line2d_14">
      <g>
       <use xlink:href="#m980689e9da" x="57.6" y="76.288654" style="stroke: #000000; stroke-width: 0.8"/>
      </g>
     </g>
     <g id="text_15">
      <!-- 17.5 -->
      <g transform="translate(28.334375 80.087872) scale(0.1 -0.1)">
       <use xlink:href="#DejaVuSans-31"/>
       <use xlink:href="#DejaVuSans-37" x="63.623047"/>
       <use xlink:href="#DejaVuSans-2e" x="127.246094"/>
       <use xlink:href="#DejaVuSans-35" x="159.033203"/>
      </g>
     </g>
    </g>
    <g id="ytick_9">
     <g id="line2d_15">
      <g>
       <use xlink:href="#m980689e9da" x="57.6" y="44.969793" style="stroke: #000000; stroke-width: 0.8"/>
      </g>
     </g>
     <g id="text_16">
      <!-- 20.0 -->
      <g transform="translate(28.334375 48.769012) scale(0.1 -0.1)">
       <use xlink:href="#DejaVuSans-32"/>
       <use xlink:href="#DejaVuSans-30" x="63.623047"/>
       <use xlink:href="#DejaVuSans-2e" x="127.246094"/>
       <use xlink:href="#DejaVuSans-30" x="159.033203"/>
      </g>
     </g>
    </g>
    <g id="text_17">
     <!-- loss -->
     <g transform="translate(22.254688 184.185812) rotate(-90) scale(0.1 -0.1)">
      <defs>
       <path id="DejaVuSans-6c" d="M 603 4863 
L 1178 4863 
L 1178 0 
L 603 0 
L 603 4863 
z
" transform="scale(0.015625)"/>
       <path id="DejaVuSans-73" d="M 2834 3397 
L 2834 2853 
Q 2591 2978 2328 3040 
Q 2066 3103 1784 3103 
Q 1356 3103 1142 2972 
Q 928 2841 928 2578 
Q 928 2378 1081 2264 
Q 1234 2150 1697 2047 
L 1894 2003 
Q 2506 1872 2764 1633 
Q 3022 1394 3022 966 
Q 3022 478 2636 193 
Q 2250 -91 1575 -91 
Q 1294 -91 989 -36 
Q 684 19 347 128 
L 347 722 
Q 666 556 975 473 
Q 1284 391 1588 391 
Q 1994 391 2212 530 
Q 2431 669 2431 922 
Q 2431 1156 2273 1281 
Q 2116 1406 1581 1522 
L 1381 1569 
Q 847 1681 609 1914 
Q 372 2147 372 2553 
Q 372 3047 722 3315 
Q 1072 3584 1716 3584 
Q 2034 3584 2315 3537 
Q 2597 3491 2834 3397 
z
" transform="scale(0.015625)"/>
      </defs>
      <use xlink:href="#DejaVuSans-6c"/>
      <use xlink:href="#DejaVuSans-6f" x="27.783203"/>
      <use xlink:href="#DejaVuSans-73" x="88.964844"/>
      <use xlink:href="#DejaVuSans-73" x="141.064453"/>
     </g>
    </g>
   </g>
   <g id="line2d_16">
    <path d="M 73.832727 270.860808 
L 74.287335 271.488339 
L 75.651156 272.850552 
L 76.365539 274.050766 
L 77.20981 275.93545 
L 80.002398 282.580711 
L 81.0415 284.325448 
L 82.015658 285.562075 
L 83.054761 286.52058 
L 84.223751 287.279557 
L 85.652517 287.936755 
L 87.600834 288.572816 
L 90.328477 289.213801 
L 94.095223 289.85202 
L 99.03096 290.459352 
L 106.239732 291.114655 
L 114.617495 291.703741 
L 125.398182 292.264195 
L 153.259114 293.368648 
L 186.315558 294.287563 
L 209.305698 294.72821 
L 227.100326 294.950466 
L 266.716104 295.237887 
L 312.30672 295.400971 
L 375.172413 295.475631 
L 398.487273 295.488 
L 398.487273 295.488 
" clip-path="url(#p18798550dc)" style="fill: none; stroke: #0000ff; stroke-width: 1.5; stroke-linecap: square"/>
   </g>
   <g id="line2d_17">
    <path d="M 73.832727 270.649105 
L 74.287335 271.513134 
L 74.806886 271.928714 
L 75.456325 272.422944 
L 76.430483 273.611802 
L 77.404642 275.411612 
L 79.87251 280.223311 
L 81.106444 281.77971 
L 82.145546 282.621458 
L 83.509368 283.1805 
L 85.068022 283.274936 
L 87.53589 282.975652 
L 89.679038 282.36537 
L 95.783765 279.726824 
L 96.108484 279.564792 
L 96.433204 279.409163 
L 97.277474 278.982941 
L 98.056801 278.589748 
L 99.160847 278.02366 
L 100.979277 277.016641 
L 101.823547 276.518727 
L 101.953435 276.462905 
L 102.992537 275.86724 
L 103.641976 275.517256 
L 103.966696 275.310407 
L 105.330518 274.519074 
L 105.915013 274.164998 
L 108.642657 272.541097 
L 108.772544 272.501537 
L 109.03232 272.340052 
L 109.292096 272.184051 
L 109.811647 271.837865 
L 111.954795 270.578158 
L 112.604234 270.165942 
L 112.734122 270.101362 
L 113.058842 269.86967 
L 113.188729 269.851585 
L 113.578393 269.560124 
L 113.708281 269.545916 
L 113.903112 269.401689 
L 114.487607 269.042933 
L 114.877271 268.790178 
L 116.306036 267.906566 
L 117.475027 267.201535 
L 124.424024 262.971929 
L 124.683799 262.807419 
L 127.606275 261.141051 
L 127.86605 260.98252 
L 129.489648 260.076788 
L 129.684479 259.926322 
L 130.139087 259.719092 
L 130.398862 259.525604 
L 130.593694 259.456179 
L 130.85347 259.284414 
L 130.918414 259.29468 
L 131.113245 259.17341 
L 131.373021 258.986269 
L 131.567852 258.913343 
L 133.775945 257.697211 
L 134.100664 257.512436 
L 134.425384 257.247916 
L 134.555272 257.226127 
L 134.879991 256.980837 
L 134.944935 256.991595 
L 135.139767 256.830141 
L 135.204711 256.854528 
L 135.399542 256.697778 
L 135.659318 256.570695 
L 136.178869 256.211996 
L 136.503589 256.042516 
L 136.958196 255.782389 
L 137.607635 255.396656 
L 137.737523 255.263983 
L 137.802467 255.267576 
L 137.997298 255.062926 
L 138.127186 254.964873 
L 138.971457 254.354995 
L 139.166289 254.256613 
L 139.36112 254.078083 
L 139.620896 253.944098 
L 139.750784 253.797249 
L 139.815728 253.857672 
L 139.880671 253.778719 
L 140.010559 253.633722 
L 140.205391 253.524076 
L 140.465166 253.333351 
L 140.789886 253.162202 
L 140.984718 252.940154 
L 141.049662 252.998331 
L 141.114605 252.911935 
L 141.309437 252.766104 
L 141.374381 252.801519 
L 141.569213 252.570418 
L 141.699101 252.557793 
L 141.893932 252.327717 
L 142.02382 252.320725 
L 142.218652 252.191405 
L 142.608315 251.918902 
L 142.997979 251.650735 
L 143.127866 251.627017 
L 143.257754 251.548088 
L 143.322698 251.388921 
L 143.387642 251.415922 
L 143.51753 251.360194 
L 143.842249 251.070764 
L 144.037081 251.057754 
L 144.166969 250.864905 
L 144.296856 250.926263 
L 144.426744 250.684228 
L 144.556632 250.772538 
L 144.751464 250.588307 
L 144.946295 250.390751 
L 145.011239 250.332741 
L 145.076183 250.446753 
L 145.141127 250.338936 
L 145.335959 250.14118 
L 145.400903 250.238445 
L 145.530791 249.976977 
L 145.595734 250.088442 
L 145.790566 249.907938 
L 146.18023 249.58841 
L 146.440005 249.452761 
L 146.569893 249.293469 
L 146.634837 249.380878 
L 146.699781 249.324463 
L 146.829668 249.175948 
L 147.0245 249.093784 
L 147.154388 248.924122 
L 147.219332 249.040198 
L 147.414164 248.797395 
L 147.738883 248.620272 
L 148.19349 248.330949 
L 148.323378 248.182138 
L 148.453266 248.108143 
L 148.583154 248.093391 
L 148.713042 247.904178 
L 148.777985 247.944093 
L 149.102705 247.657907 
L 149.36248 247.611331 
L 149.492368 247.396033 
L 149.557312 247.454174 
L 149.882032 247.137275 
L 150.011919 247.10692 
L 150.271695 246.916419 
L 150.336639 247.013093 
L 150.531471 246.813488 
L 150.661358 246.674629 
L 150.726302 246.721999 
L 150.85619 246.494134 
L 150.921134 246.566513 
L 151.245854 246.273615 
L 151.310797 246.346463 
L 151.375741 246.253648 
L 151.635517 246.04807 
L 151.960236 245.886696 
L 152.090124 245.795662 
L 152.479788 245.51056 
L 154.298217 244.316028 
L 154.557992 244.154651 
L 154.882712 243.957827 
L 155.077544 243.842095 
L 155.467207 243.518624 
L 155.597095 243.43963 
L 155.791926 243.327063 
L 155.921814 243.180596 
L 156.051702 243.20056 
L 156.246534 242.998169 
L 156.571253 242.838351 
L 156.766085 242.655248 
L 156.895973 242.621581 
L 157.02586 242.418867 
L 157.090804 242.497629 
L 157.155748 242.428371 
L 157.285636 242.298541 
L 157.675299 242.064023 
L 157.870131 241.886834 
L 158.974177 241.062107 
L 159.039121 241.105022 
L 159.363841 240.780118 
L 159.558672 240.692425 
L 159.623616 240.719772 
L 159.753504 240.464455 
L 159.818448 240.496193 
L 160.208111 240.249453 
L 160.402943 240.103321 
L 160.922494 239.666346 
L 161.052382 239.660606 
L 161.442046 239.332894 
L 161.636877 239.240363 
L 162.026541 238.897204 
L 162.221372 238.792457 
L 162.416204 238.660452 
L 162.481148 238.677728 
L 162.740923 238.44011 
L 163.455306 237.880163 
L 163.780026 237.686027 
L 163.84497 237.696295 
L 164.039801 237.491299 
L 164.364521 237.268693 
L 164.624296 237.098057 
L 165.01396 236.766744 
L 165.208792 236.632887 
L 167.67666 234.275012 
L 168.131267 233.96374 
L 168.391043 233.745566 
L 168.650818 233.582923 
L 168.780706 233.455022 
L 168.975538 233.34374 
L 170.858911 231.906552 
L 170.988798 231.7614 
L 171.118686 231.763628 
L 171.573294 231.317293 
L 171.703181 231.32335 
L 171.898013 231.142003 
L 172.547452 230.645711 
L 172.742284 230.499346 
L 172.872172 230.326858 
L 172.937115 230.365531 
L 173.067003 230.295031 
L 173.196891 230.051935 
L 173.261835 230.109712 
L 173.326779 230.137459 
L 173.586554 229.83047 
L 173.716442 229.75362 
L 174.106106 229.457299 
L 174.560713 229.057468 
L 174.625657 229.110735 
L 174.950376 228.757695 
L 175.080264 228.694244 
L 175.404984 228.386818 
L 175.599815 228.275488 
L 177.158469 226.978041 
L 177.223413 227.019061 
L 177.483188 226.713058 
L 177.613076 226.708864 
L 177.807908 226.458278 
L 178.132627 226.148224 
L 178.392403 226.021435 
L 178.522291 225.845166 
L 178.587235 225.869407 
L 178.911954 225.560727 
L 179.106786 225.388102 
L 179.236674 225.286126 
L 179.301617 225.317709 
L 179.496449 225.086238 
L 179.626337 225.032571 
L 180.275776 224.446722 
L 180.405664 224.230406 
L 180.535551 224.223399 
L 180.730383 223.97531 
L 180.860271 223.981905 
L 181.055103 223.779782 
L 181.120047 223.777237 
L 181.379822 223.48667 
L 181.50971 223.350221 
L 181.639598 223.210898 
L 181.769486 223.252582 
L 181.964317 222.995234 
L 182.159149 222.818409 
L 182.483868 222.534281 
L 182.743644 222.379021 
L 182.873532 222.235589 
L 183.00342 222.194837 
L 188.133988 218.008079 
L 188.263875 217.95498 
L 188.458707 217.769326 
L 189.108146 217.146161 
L 189.17309 217.133682 
L 189.367922 216.838658 
L 189.497809 216.838001 
L 189.757585 216.538879 
L 189.887473 216.392549 
L 190.017361 216.252666 
L 190.147248 216.25714 
L 190.34208 215.974003 
L 190.471968 215.945951 
L 190.796687 215.568981 
L 190.926575 215.507841 
L 191.121407 215.299948 
L 191.316239 215.119647 
L 191.446126 214.980289 
L 191.640958 214.880661 
L 192.160509 214.408879 
L 192.420285 214.15101 
L 192.615116 214.01931 
L 196.901414 210.03498 
L 197.031302 209.910568 
L 197.161189 209.746264 
L 197.291077 209.715918 
L 197.485909 209.394807 
L 197.615797 209.431085 
L 197.940516 209.028423 
L 198.135348 208.840117 
L 198.265236 208.732048 
L 198.525011 208.482651 
L 198.654899 208.354188 
L 198.849731 208.230702 
L 198.979618 208.072247 
L 199.17445 207.830985 
L 199.304338 207.802957 
L 199.564114 207.525818 
L 200.66816 206.539021 
L 200.798048 206.357639 
L 200.927935 206.317669 
L 201.122767 206.045602 
L 201.447487 205.904655 
L 201.83715 205.497363 
L 202.421645 204.930803 
L 203.200972 204.176785 
L 203.33086 204.116279 
L 203.525691 203.830872 
L 203.655579 203.77248 
L 212.293118 195.900323 
L 212.487949 195.712543 
L 212.617837 195.602228 
L 212.812669 195.327007 
L 212.877613 195.362018 
L 213.33222 194.820165 
L 213.527052 194.796378 
L 213.916715 194.360222 
L 214.046603 194.263509 
L 214.241434 194.032068 
L 214.306378 194.039547 
L 214.631098 193.678933 
L 215.150649 193.133985 
L 215.280537 193.093269 
L 215.605256 192.718474 
L 215.735144 192.660482 
L 216.059864 192.280238 
L 216.83919 191.607468 
L 216.904134 191.597205 
L 217.16391 191.258203 
L 217.293798 191.172781 
L 217.423685 191.006787 
L 217.553573 190.990586 
L 217.813349 190.679804 
L 217.878293 190.680138 
L 218.203012 190.291257 
L 218.397844 190.188882 
L 218.462788 190.174019 
L 218.65762 189.846379 
L 218.852451 189.765688 
L 219.047283 189.40996 
L 219.177171 189.477008 
L 219.50189 189.133299 
L 219.956497 188.716557 
L 220.216273 188.479489 
L 220.865712 187.915091 
L 221.060544 187.685872 
L 221.190432 187.628215 
L 221.385263 187.399283 
L 221.580095 187.254566 
L 222.16459 186.655438 
L 222.294478 186.644232 
L 222.489309 186.346042 
L 222.619197 186.35738 
L 222.878973 185.894247 
L 222.943917 185.944616 
L 223.008861 185.980601 
L 223.463468 185.407542 
L 223.6583 185.333947 
L 223.983019 185.019114 
L 224.242795 184.864243 
L 224.50257 184.495313 
L 224.632458 184.539219 
L 225.087065 184.007557 
L 225.216953 183.988692 
L 225.411785 183.654685 
L 225.476729 183.69595 
L 225.801448 183.430388 
L 225.99628 183.222208 
L 226.126168 183.115878 
L 226.385943 182.814653 
L 226.515831 182.756423 
L 226.970438 182.254473 
L 227.100326 182.247711 
L 227.425046 181.874278 
L 227.684821 181.695547 
L 228.139429 181.270825 
L 228.33426 181.121449 
L 228.399204 181.13287 
L 228.853811 180.597767 
L 229.048643 180.485177 
L 229.243475 180.174418 
L 229.373363 180.247487 
L 229.568194 179.860207 
L 229.633138 179.985999 
L 229.698082 179.944315 
L 229.892914 179.659136 
L 230.022802 179.604191 
L 230.217633 179.450657 
L 230.802128 178.905363 
L 230.867072 178.926832 
L 231.061904 178.567329 
L 231.126848 178.624604 
L 231.191792 178.609395 
L 231.516511 178.178783 
L 231.711343 178.043516 
L 233.919436 176.127377 
L 233.984379 176.120042 
L 234.179211 175.768364 
L 234.244155 175.819856 
L 234.309099 175.818279 
L 234.568875 175.441895 
L 234.633818 175.449039 
L 234.893594 175.216403 
L 235.023482 175.02268 
L 235.218313 174.917903 
L 235.672921 174.470922 
L 235.867752 174.335596 
L 235.99764 174.190593 
L 237.296518 172.975288 
L 237.426406 172.935217 
L 237.621238 172.69527 
L 237.751125 172.627231 
L 237.881013 172.433722 
L 237.945957 172.471451 
L 238.075845 172.317392 
L 238.205733 172.126392 
L 238.270677 172.156129 
L 238.400564 172.003479 
L 238.790228 171.561995 
L 238.920116 171.65627 
L 239.504611 170.879129 
L 239.569555 170.940466 
L 239.634499 170.991062 
L 239.82933 170.569625 
L 239.894274 170.611201 
L 240.024162 170.64071 
L 240.218994 170.318315 
L 240.348881 170.327754 
L 240.608657 169.984499 
L 246.64844 164.512217 
L 246.778327 164.423819 
L 246.843271 164.449147 
L 247.038103 164.085821 
L 247.103047 164.169404 
L 247.167991 164.202545 
L 247.687542 163.584039 
L 247.81743 163.525545 
L 248.077205 163.277426 
L 248.336981 163.036977 
L 248.791588 162.711511 
L 248.856532 162.688979 
L 249.051364 162.304972 
L 249.181252 162.42859 
L 249.376083 161.994787 
L 249.441027 162.063232 
L 249.505971 162.078011 
L 249.765747 161.761016 
L 249.895634 161.727074 
L 250.090466 161.364644 
L 250.15541 161.45101 
L 250.220354 161.454821 
L 250.415186 161.072487 
L 250.480129 161.125568 
L 250.610017 160.995272 
L 250.804849 160.857641 
L 250.934737 160.819768 
L 251.129568 160.50343 
L 251.259456 160.519595 
L 251.454288 160.139017 
L 251.584176 160.217964 
L 251.908895 159.826359 
L 252.038783 159.724676 
L 252.298559 159.452806 
L 252.49339 159.297719 
L 252.753166 159.090746 
L 253.272717 158.623527 
L 254.701483 157.297818 
L 255.545754 156.624976 
L 255.805529 156.29951 
L 256.974519 155.286053 
L 257.688902 154.591599 
L 258.078566 154.329262 
L 258.338341 154.035421 
L 258.728005 153.653875 
L 258.857892 153.627914 
L 259.052724 153.365064 
L 259.182612 153.348636 
L 259.702163 152.818193 
L 260.221714 152.361105 
L 260.351602 152.15136 
L 260.48149 152.168827 
L 260.936097 151.693746 
L 261.195873 151.468589 
L 261.390704 151.304459 
L 263.468909 149.349503 
L 263.598797 149.248812 
L 263.728685 149.205742 
L 263.923516 148.897409 
L 264.053404 148.974027 
L 264.508011 148.486294 
L 265.417226 147.696537 
L 265.48217 147.70539 
L 265.936777 147.146034 
L 266.131609 147.050886 
L 266.326441 146.759255 
L 266.521272 146.665517 
L 266.716104 146.445295 
L 266.845992 146.418151 
L 267.040823 146.12382 
L 267.170711 146.16622 
L 267.430487 145.756838 
L 267.560375 145.776467 
L 268.014982 145.254613 
L 268.209814 145.151867 
L 268.534533 144.853582 
L 268.924196 144.487699 
L 269.119028 144.283318 
L 269.31386 144.160453 
L 269.443748 143.985881 
L 269.638579 143.837258 
L 269.833411 143.622865 
L 270.417906 143.091717 
L 270.547794 143.086269 
L 270.80757 142.74649 
L 271.716784 141.936279 
L 271.911616 141.755327 
L 272.171391 141.458833 
L 272.301279 141.520875 
L 272.561055 141.201455 
L 274.054764 139.93964 
L 274.184652 139.840968 
L 274.574316 139.388456 
L 274.769147 139.327203 
L 275.028923 139.057901 
L 275.613418 138.457984 
L 275.743306 138.47121 
L 276.068025 138.088254 
L 276.782408 137.425543 
L 276.912296 137.363406 
L 277.042184 137.296143 
L 277.301959 136.940141 
L 281.588257 133.127611 
L 281.848032 132.963946 
L 281.912976 132.980194 
L 282.172752 132.591827 
L 282.237696 132.640691 
L 282.367583 132.505568 
L 282.497471 132.316241 
L 282.627359 132.302466 
L 282.887135 131.999294 
L 283.017022 132.03633 
L 283.276798 131.623769 
L 283.406686 131.63991 
L 283.666461 131.325113 
L 283.861293 131.126121 
L 284.056125 131.056767 
L 284.770508 130.396744 
L 284.900395 130.223642 
L 285.030283 130.065843 
L 285.160171 130.063346 
L 285.419947 129.724034 
L 285.549834 129.715169 
L 285.80961 129.481529 
L 285.939498 129.325439 
L 286.134329 129.179612 
L 286.264217 129.142779 
L 286.459049 128.875807 
L 286.588937 128.840801 
L 286.783768 128.617831 
L 286.913656 128.567724 
L 287.043544 128.342257 
L 287.108488 128.386007 
L 287.238376 128.199022 
L 287.368263 128.055177 
L 287.498151 127.997676 
L 287.628039 127.819722 
L 287.757927 127.88186 
L 287.952759 127.492082 
L 288.017702 127.554088 
L 288.082646 127.6111 
L 288.277478 127.243174 
L 288.342422 127.286375 
L 288.407366 127.336219 
L 288.47231 127.247177 
L 288.667141 126.922165 
L 288.797029 126.95232 
L 289.056805 126.680856 
L 289.31658 126.495805 
L 289.576356 126.235357 
L 289.836132 126.031908 
L 290.030963 125.841565 
L 290.160851 125.702404 
L 290.290739 125.58341 
L 290.420627 125.586552 
L 290.680402 125.312328 
L 291.199953 124.818431 
L 291.329841 124.828717 
L 291.459729 124.678697 
L 291.914336 124.209327 
L 292.109168 124.093117 
L 292.758607 123.542482 
L 292.888495 123.342653 
L 293.018383 123.50455 
L 293.083326 123.452042 
L 293.278158 123.019924 
L 293.408046 123.046363 
L 293.602878 122.826511 
L 293.797709 122.672702 
L 293.927597 122.672021 
L 294.187373 122.368097 
L 295.616139 121.224153 
L 296.005802 120.824985 
L 296.13569 120.779956 
L 296.330521 120.574082 
L 296.460409 120.453809 
L 296.785129 120.122788 
L 296.915016 120.036924 
L 300.097267 117.524022 
L 300.227155 117.44032 
L 300.357043 117.245999 
L 300.551875 117.262761 
L 300.746706 116.941883 
L 301.720865 116.230917 
L 302.110528 115.85685 
L 302.370304 115.694858 
L 302.500192 115.475496 
L 302.695023 115.484253 
L 302.889855 115.234366 
L 302.954799 115.251319 
L 303.149631 115.025469 
L 303.279518 115.004334 
L 303.47435 114.799117 
L 303.669182 114.708235 
L 303.79907 114.445516 
L 303.864014 114.490688 
L 303.993901 114.461633 
L 304.188733 114.207373 
L 304.318621 114.206226 
L 304.513453 113.916865 
L 304.64334 113.989587 
L 304.773228 113.770762 
L 304.903116 113.585557 
L 305.033004 113.716175 
L 305.357723 113.336565 
L 305.487611 113.254715 
L 305.747387 112.966692 
L 305.942218 112.842931 
L 306.13705 112.651668 
L 307.500872 111.649956 
L 307.63076 111.585799 
L 307.825591 111.37425 
L 307.955479 111.299747 
L 308.345142 110.945859 
L 308.669862 110.728002 
L 308.994581 110.507636 
L 309.124469 110.411497 
L 309.319301 110.209793 
L 309.579077 109.995926 
L 310.358403 109.358627 
L 310.618179 109.213432 
L 310.748067 109.067187 
L 310.942898 108.945194 
L 311.397506 108.611377 
L 311.527393 108.44874 
L 311.722225 108.457581 
L 311.917057 108.043945 
L 311.982001 108.088544 
L 312.111889 108.145926 
L 312.30672 107.959084 
L 312.501552 107.747284 
L 312.63144 107.617812 
L 312.761328 107.629306 
L 313.670542 106.936691 
L 313.865374 106.710972 
L 313.995262 106.533473 
L 314.125149 106.588741 
L 314.449869 106.36129 
L 314.514813 106.352258 
L 314.709644 106.026099 
L 314.839532 106.076266 
L 315.229196 105.661937 
L 316.268298 104.90378 
L 316.46313 104.713317 
L 316.722905 104.64854 
L 317.762008 103.844684 
L 318.021783 103.632204 
L 318.216615 103.39903 
L 318.346503 103.442578 
L 318.541334 103.231937 
L 318.671222 103.277551 
L 318.995942 102.969254 
L 319.12583 102.896901 
L 319.515493 102.527697 
L 319.645381 102.396708 
L 319.840212 102.25922 
L 319.9701 102.265169 
L 320.359764 101.886622 
L 320.684483 101.758656 
L 321.009203 101.383681 
L 322.178193 100.612275 
L 322.437968 100.426173 
L 322.567856 100.36817 
L 322.827632 100.116179 
L 323.087407 99.981666 
L 323.282239 99.750404 
L 323.477071 99.676439 
L 323.736846 99.466013 
L 323.866734 99.420064 
L 324.451229 98.971494 
L 324.97078 98.625838 
L 325.100668 98.382175 
L 325.165612 98.415986 
L 325.2955 98.405568 
L 325.490332 98.161068 
L 325.620219 98.217602 
L 325.879995 97.948121 
L 326.009883 97.896593 
L 326.204714 97.654197 
L 326.399546 97.571355 
L 326.594378 97.406794 
L 327.113929 97.058079 
L 327.828312 96.549224 
L 327.9582 96.599725 
L 328.477751 95.965448 
L 329.062246 95.68813 
L 329.257078 95.547535 
L 329.386965 95.525158 
L 329.711685 95.236036 
L 329.841573 95.120112 
L 329.97146 94.953114 
L 330.101348 95.017558 
L 330.491012 94.676178 
L 330.750787 94.5266 
L 330.880675 94.381107 
L 331.075507 94.227418 
L 331.270338 94.162449 
L 331.854834 93.64234 
L 332.179553 93.47257 
L 332.374385 93.302538 
L 332.504272 93.345547 
L 332.764048 93.058671 
L 332.893936 93.090833 
L 333.088768 92.753134 
L 333.153711 92.798653 
L 333.283599 92.843048 
L 333.543375 92.547953 
L 333.673263 92.509387 
L 333.868094 92.236967 
L 333.997982 92.373786 
L 334.062926 92.309964 
L 334.257758 92.012766 
L 334.452589 91.999481 
L 334.647421 91.779509 
L 334.907197 91.602093 
L 335.102028 91.418847 
L 335.29686 91.415573 
L 336.271019 90.657715 
L 336.400906 90.624406 
L 336.725626 90.349358 
L 337.310121 89.954933 
L 337.440009 89.940214 
L 337.63484 89.781675 
L 337.764728 89.683349 
L 338.024504 89.486531 
L 338.349223 89.330979 
L 343.739567 85.77284 
L 343.869455 85.721515 
L 344.12923 85.464961 
L 346.532154 83.93388 
L 346.662042 83.877155 
L 346.856874 83.75116 
L 346.986762 83.711423 
L 347.181593 83.398096 
L 347.376425 83.447295 
L 347.895976 83.038605 
L 348.090808 82.952346 
L 348.415527 82.639377 
L 348.740247 82.519141 
L 349.064966 82.31611 
L 350.104069 81.652157 
L 350.298901 81.454526 
L 350.428788 81.451683 
L 350.818452 81.213694 
L 351.013283 81.074868 
L 351.208115 80.91057 
L 351.532835 80.700323 
L 352.571937 80.029488 
L 352.701825 80.046477 
L 352.9616 79.820054 
L 353.221376 79.655828 
L 353.740927 79.320852 
L 353.870815 79.336001 
L 354.13059 79.073067 
L 354.260478 79.049627 
L 354.520254 78.776657 
L 354.715086 78.695942 
L 355.429468 78.31583 
L 355.559356 78.247158 
L 355.754188 77.959804 
L 355.94902 77.904632 
L 356.078907 77.769509 
L 356.273739 77.797895 
L 356.533515 77.51998 
L 356.663402 77.473481 
L 356.858234 77.299124 
L 356.988122 77.290976 
L 357.572617 76.819444 
L 357.767449 76.831606 
L 358.092168 76.563439 
L 358.222056 76.469367 
L 358.481832 76.313026 
L 358.611719 76.213625 
L 358.806551 76.103233 
L 358.936439 76.058551 
L 359.131271 75.865771 
L 359.326102 75.862808 
L 359.585878 75.60341 
L 359.715766 75.562407 
L 360.105429 75.277562 
L 360.300261 75.160575 
L 360.495092 75.023876 
L 360.62498 75.020865 
L 360.884756 74.810953 
L 371.210836 68.552413 
L 371.405667 68.407159 
L 371.600499 68.203245 
L 371.795331 68.137941 
L 372.379826 67.774245 
L 372.509714 67.77176 
L 372.769489 67.588179 
L 372.899377 67.61205 
L 373.224096 67.316882 
L 373.938479 66.968215 
L 374.198255 66.764276 
L 374.652862 66.536993 
L 375.107469 66.214992 
L 375.367245 66.129594 
L 375.562077 66.002738 
L 375.691965 65.972822 
L 375.886796 65.755145 
L 376.081628 65.74088 
L 376.341404 65.576056 
L 376.471291 65.475078 
L 376.731067 65.33121 
L 378.419608 64.391085 
L 378.549496 64.357872 
L 378.809272 64.193622 
L 379.004103 64.045238 
L 379.393767 63.776091 
L 379.78343 63.660514 
L 380.043206 63.525248 
L 380.562757 63.197202 
L 380.822533 63.002821 
L 381.017364 62.9633 
L 381.212196 62.78543 
L 381.342084 62.84151 
L 381.861635 62.471386 
L 382.12141 62.301138 
L 383.030625 61.866953 
L 383.225457 61.658642 
L 383.420288 61.619121 
L 384.069727 61.266439 
L 384.329503 61.169189 
L 384.524335 61.014449 
L 385.758269 60.296112 
L 385.888157 60.34347 
L 386.342764 59.936931 
L 386.537596 59.895188 
L 387.316922 59.456415 
L 387.641642 59.268271 
L 387.836473 59.177018 
L 387.966361 59.154844 
L 388.161193 58.961204 
L 388.420969 58.91805 
L 388.550856 58.788662 
L 388.680744 58.628857 
L 388.875576 58.709787 
L 389.200295 58.47911 
L 389.330183 58.436435 
L 389.589959 58.233548 
L 390.304342 57.853101 
L 390.499173 57.815061 
L 390.694005 57.567969 
L 390.953781 57.589689 
L 391.213556 57.404962 
L 391.343444 57.376384 
L 391.538276 57.209888 
L 391.668163 57.194046 
L 391.992883 56.961434 
L 392.187715 56.86698 
L 392.642322 56.614798 
L 392.902098 56.507703 
L 393.811312 55.985802 
L 394.330863 55.704278 
L 394.525695 55.600911 
L 394.655583 55.50617 
L 394.850414 55.566455 
L 395.11019 55.307942 
L 395.305022 55.238816 
L 395.889517 54.937244 
L 396.084349 54.845084 
L 396.344124 54.624061 
L 396.538956 54.571039 
L 396.733787 54.456107 
L 396.928619 54.447529 
L 397.188395 54.214033 
L 397.383226 54.163257 
L 397.643002 53.976833 
L 397.837834 53.974181 
L 398.162553 53.729383 
L 398.422329 53.627091 
L 398.487273 53.568 
L 398.487273 53.568 
" clip-path="url(#p18798550dc)" style="fill: none; stroke: #008000; stroke-width: 1.5; stroke-linecap: square"/>
   </g>
   <g id="line2d_18">
    <path d="M 73.832727 270.687739 
L 74.287335 271.516687 
L 74.806886 271.898177 
L 75.391381 272.30892 
L 76.430483 273.509245 
L 77.469586 275.334873 
L 79.807566 279.757121 
L 80.781724 281.074041 
L 81.690939 281.985213 
L 82.730041 282.654162 
L 84.028919 283.047735 
L 85.197909 283.101661 
L 86.691619 283.016513 
L 88.639936 282.688591 
L 93.186009 281.323121 
L 93.445784 281.210681 
L 93.900392 281.043344 
L 94.225111 280.935428 
L 94.939494 280.678186 
L 95.069382 280.622582 
L 96.108484 280.245519 
L 96.433204 280.12758 
L 97.017699 279.902344 
L 98.511408 279.330555 
L 99.485567 278.9279 
L 100.979277 278.304018 
L 101.628716 278.020052 
L 101.758603 277.988473 
L 102.018379 277.857304 
L 102.213211 277.786505 
L 107.993218 275.202655 
L 108.188049 275.102209 
L 109.357039 274.529968 
L 110.720861 273.87085 
L 111.175469 273.654873 
L 111.630076 273.41755 
L 112.409403 273.043087 
L 113.318617 272.527258 
L 113.448505 272.534314 
L 113.643337 272.418244 
L 114.033 272.183085 
L 115.786485 271.259101 
L 116.630756 270.773625 
L 117.085363 270.540693 
L 117.475027 270.325273 
L 124.424024 266.496274 
L 124.683799 266.343377 
L 125.722902 265.791351 
L 126.242453 265.503531 
L 126.437285 265.411322 
L 126.891892 265.153376 
L 129.03504 264.021117 
L 129.229872 263.886911 
L 129.489648 263.794192 
L 129.684479 263.632555 
L 129.944255 263.544594 
L 130.204031 263.367124 
L 130.463806 263.269931 
L 130.723582 263.076326 
L 130.918414 263.051473 
L 131.113245 262.925774 
L 131.373021 262.74098 
L 131.437965 262.762542 
L 131.632796 262.632891 
L 132.02246 262.378084 
L 132.152348 262.35091 
L 133.126506 261.838415 
L 133.19145 261.850186 
L 133.386282 261.700168 
L 133.840889 261.515413 
L 134.100664 261.362847 
L 134.425384 261.125143 
L 134.555272 261.106876 
L 134.750103 260.998661 
L 134.944935 260.908779 
L 135.139767 260.746805 
L 135.204711 260.792004 
L 135.399542 260.640338 
L 135.594374 260.533321 
L 135.789206 260.437782 
L 136.308757 260.150138 
L 136.503589 260.091725 
L 137.088084 259.815237 
L 137.347859 259.687217 
L 137.542691 259.540661 
L 137.607635 259.544839 
L 137.737523 259.423614 
L 137.802467 259.433315 
L 137.997298 259.249995 
L 138.127186 259.177798 
L 138.971457 258.629323 
L 139.166289 258.563903 
L 139.36112 258.376505 
L 139.620896 258.272502 
L 139.750784 258.128389 
L 139.815728 258.20325 
L 139.880671 258.112296 
L 140.010559 257.996154 
L 140.205391 257.891822 
L 140.335279 257.791723 
L 140.465166 257.720013 
L 140.789886 257.578104 
L 140.984718 257.368138 
L 141.049662 257.423612 
L 141.114605 257.344482 
L 141.309437 257.216014 
L 141.374381 257.26162 
L 141.569213 257.037828 
L 141.699101 257.033703 
L 141.893932 256.827868 
L 142.02382 256.818453 
L 142.153708 256.70238 
L 142.283596 256.621719 
L 142.608315 256.451845 
L 143.907193 255.684864 
L 144.037081 255.635478 
L 144.166969 255.463919 
L 144.296856 255.529942 
L 144.426744 255.299281 
L 144.556632 255.392263 
L 144.68652 255.181263 
L 144.751464 255.228443 
L 144.946295 255.025337 
L 145.011239 254.970509 
L 145.076183 255.096758 
L 145.141127 254.980676 
L 145.335959 254.792752 
L 145.400903 254.9145 
L 145.530791 254.644031 
L 145.595734 254.767134 
L 145.725622 254.597466 
L 145.920454 254.581881 
L 146.18023 254.294381 
L 146.440005 254.190888 
L 146.569893 254.042949 
L 146.634837 254.133643 
L 146.699781 254.059657 
L 146.764725 253.910192 
L 146.829668 253.940036 
L 147.0245 253.865724 
L 147.154388 253.688834 
L 147.219332 253.822138 
L 147.414164 253.59291 
L 147.738883 253.416343 
L 149.297537 252.495091 
L 149.36248 252.52107 
L 149.492368 252.312756 
L 149.557312 252.383191 
L 149.817088 252.125597 
L 150.076863 251.952883 
L 150.141807 252.050181 
L 150.271695 251.851842 
L 150.336639 251.983366 
L 150.466527 251.775736 
L 150.531471 251.78808 
L 150.661358 251.638513 
L 150.726302 251.700964 
L 150.85619 251.458027 
L 150.921134 251.561298 
L 150.986078 251.489454 
L 151.245854 251.268443 
L 151.310797 251.348393 
L 151.505629 251.153588 
L 151.570573 251.192859 
L 151.830349 250.928724 
L 151.960236 250.928345 
L 152.02518 250.810572 
L 152.090124 250.847847 
L 152.3499 250.686934 
L 152.609675 250.459068 
L 152.804507 250.414956 
L 153.324058 250.067884 
L 153.389002 250.114818 
L 153.51889 249.930631 
L 153.583834 249.982246 
L 153.908553 249.710621 
L 154.363161 249.411006 
L 154.493048 249.4027 
L 155.0126 249.012468 
L 155.142487 249.015843 
L 155.402263 248.862815 
L 155.597095 248.695802 
L 155.791926 248.581043 
L 155.921814 248.461738 
L 155.986758 248.537161 
L 156.051702 248.469295 
L 156.246534 248.285843 
L 156.376421 248.247137 
L 156.441365 248.096127 
L 156.506309 248.156237 
L 156.571253 248.154791 
L 156.766085 247.977934 
L 157.155748 247.759697 
L 157.220692 247.616411 
L 157.285636 247.676873 
L 157.740243 247.340879 
L 157.935075 247.228325 
L 158.194851 247.034556 
L 158.259795 247.07342 
L 158.389682 246.90725 
L 158.454626 246.964976 
L 158.779346 246.665059 
L 159.039121 246.593788 
L 159.169009 246.364975 
L 159.233953 246.441058 
L 159.558672 246.194534 
L 159.623616 246.244452 
L 159.753504 245.989048 
L 159.818448 246.040923 
L 160.208111 245.808042 
L 160.337999 245.643735 
L 160.467887 245.608909 
L 160.597775 245.524556 
L 160.922494 245.271965 
L 160.987438 245.335512 
L 161.052382 245.26092 
L 161.831709 244.739945 
L 161.961597 244.681983 
L 162.221372 244.481067 
L 162.611036 244.233676 
L 162.740923 244.197159 
L 163.780026 243.508212 
L 163.84497 243.536904 
L 164.039801 243.356316 
L 164.299577 243.123459 
L 164.494409 243.026113 
L 166.053062 241.897169 
L 166.118006 241.774017 
L 166.18295 241.823144 
L 166.442726 241.619958 
L 166.832389 241.168312 
L 167.157109 240.966154 
L 167.35194 240.892708 
L 168.261155 240.20771 
L 168.326099 240.242536 
L 168.585874 239.965456 
L 168.715762 239.978025 
L 168.910594 239.811732 
L 169.105425 239.666926 
L 169.235313 239.539055 
L 169.365201 239.573576 
L 169.624977 239.36508 
L 169.754864 239.23651 
L 170.209472 238.962316 
L 170.33936 238.902687 
L 170.599135 238.715463 
L 171.248574 238.322693 
L 172.742284 237.375806 
L 172.937115 237.268317 
L 173.131947 237.105136 
L 173.196891 236.987791 
L 173.261835 237.047425 
L 173.326779 237.066254 
L 173.586554 236.788135 
L 173.716442 236.72552 
L 174.171049 236.420042 
L 174.300937 236.287422 
L 174.365881 236.213087 
L 174.430825 236.315695 
L 174.560713 236.112432 
L 174.625657 236.186785 
L 174.950376 235.857126 
L 175.080264 235.829594 
L 175.34004 235.551953 
L 175.599815 235.443197 
L 176.119366 235.031097 
L 176.18431 235.108598 
L 176.444086 234.830688 
L 176.573974 234.743617 
L 176.898693 234.51275 
L 177.028581 234.439716 
L 177.3533 234.15882 
L 177.613076 234.111348 
L 177.807908 233.888544 
L 177.872852 233.767059 
L 177.937796 233.80498 
L 178.002739 233.788439 
L 178.197571 233.632098 
L 178.262515 233.517763 
L 178.327459 233.574674 
L 180.405664 231.990332 
L 180.470608 232.063658 
L 180.535551 231.973158 
L 180.730383 231.75137 
L 180.795327 231.844917 
L 180.860271 231.79711 
L 181.055103 231.606773 
L 181.120047 231.621862 
L 181.314878 231.323463 
L 181.379822 231.3594 
L 181.50971 231.247754 
L 181.639598 231.09029 
L 181.769486 231.177994 
L 181.964317 230.917928 
L 182.548812 230.521902 
L 183.263195 230.059856 
L 183.393083 230.026458 
L 183.652859 229.815249 
L 183.782746 229.747311 
L 183.912634 229.523319 
L 183.977578 229.583264 
L 184.042522 229.608174 
L 184.237354 229.37705 
L 184.367241 229.388955 
L 184.497129 229.140358 
L 184.562073 229.180955 
L 184.691961 229.129396 
L 184.886793 228.973151 
L 185.01668 228.908535 
L 185.211512 228.744171 
L 186.120727 228.067016 
L 186.315558 228.030218 
L 186.83511 227.60583 
L 186.964997 227.559851 
L 187.094885 227.397369 
L 187.159829 227.465445 
L 188.0041 226.803092 
L 188.198931 226.74568 
L 188.263875 226.734139 
L 188.458707 226.570683 
L 189.108146 226.031918 
L 189.17309 226.049349 
L 189.367922 225.790955 
L 189.497809 225.807066 
L 189.757585 225.536205 
L 189.887473 225.435484 
L 190.017361 225.282578 
L 190.147248 225.320325 
L 190.34208 225.095407 
L 190.536912 224.982572 
L 190.796687 224.759912 
L 190.926575 224.731729 
L 191.121407 224.526864 
L 191.316239 224.375571 
L 191.446126 224.256863 
L 191.640958 224.176041 
L 191.83579 224.018744 
L 192.290397 223.725566 
L 192.68006 223.359904 
L 192.874892 223.294326 
L 193.589275 222.701392 
L 193.654219 222.701416 
L 193.849051 222.519126 
L 194.043882 222.318013 
L 194.238714 222.218958 
L 194.49849 221.951395 
L 194.758265 221.841379 
L 194.888153 221.610966 
L 195.018041 221.656795 
L 195.992199 220.894552 
L 196.122087 220.6809 
L 196.381863 220.553967 
L 196.576694 220.462356 
L 196.641638 220.429107 
L 196.771526 220.15637 
L 196.83647 220.183503 
L 196.966358 220.178628 
L 197.485909 219.687467 
L 197.615797 219.724252 
L 197.940516 219.37233 
L 198.525011 218.909686 
L 198.654899 218.81967 
L 198.784787 218.763333 
L 198.979618 218.592996 
L 199.17445 218.419361 
L 199.304338 218.39978 
L 199.564114 218.142844 
L 200.148609 217.717022 
L 200.603216 217.438855 
L 201.577374 216.648178 
L 201.707262 216.503252 
L 201.902094 216.468313 
L 202.096926 216.295556 
L 209.435586 211.069308 
L 209.50053 211.055115 
L 209.695362 210.801285 
L 209.955137 210.612483 
L 210.474688 210.295369 
L 211.059183 209.816215 
L 211.383903 209.613943 
L 211.83851 209.199596 
L 212.098286 209.043834 
L 212.293118 208.920796 
L 212.423005 208.667342 
L 212.552893 208.730376 
L 212.812669 208.423572 
L 212.877613 208.485255 
L 213.137388 208.21986 
L 215.475369 206.3293 
L 215.605256 206.284074 
L 215.735144 206.272694 
L 216.254695 205.740518 
L 216.384583 205.708512 
L 216.579415 205.547451 
L 218.917395 203.760754 
L 219.112227 203.633445 
L 219.242115 203.586653 
L 219.50189 203.359866 
L 219.761666 203.201052 
L 219.956497 203.060146 
L 220.151329 202.84705 
L 220.281217 202.822696 
L 220.411105 202.624122 
L 220.476049 202.704329 
L 220.865712 202.388953 
L 220.9956 202.168312 
L 221.060544 202.219219 
L 221.125488 202.253573 
L 221.385263 201.988973 
L 221.580095 201.856795 
L 221.774927 201.654547 
L 221.969758 201.549388 
L 222.229534 201.444228 
L 222.359422 201.253396 
L 222.489309 201.133852 
L 222.619197 201.149151 
L 222.878973 200.790603 
L 223.008861 200.856169 
L 223.203692 200.587949 
L 223.33358 200.608743 
L 223.528412 200.39036 
L 223.6583 200.325278 
L 223.788187 200.242251 
L 223.918075 200.120999 
L 229.113587 196.302651 
L 229.243475 196.194164 
L 229.373363 196.300948 
L 229.568194 195.965339 
L 229.633138 196.098819 
L 229.698082 196.037596 
L 229.892914 195.798114 
L 230.022802 195.757548 
L 230.152689 195.641188 
L 230.282577 195.608751 
L 230.477409 195.447649 
L 230.607297 195.327443 
L 230.737185 195.148545 
L 230.802128 195.20214 
L 230.867072 195.232427 
L 231.061904 194.922015 
L 231.126848 194.995573 
L 231.191792 194.990006 
L 231.516511 194.62128 
L 231.906175 194.440507 
L 232.101006 194.234214 
L 232.230894 194.211969 
L 232.425726 194.049797 
L 232.815389 193.770185 
L 232.945277 193.523464 
L 233.075165 193.616258 
L 233.33494 193.39797 
L 233.529772 193.224222 
L 233.65966 193.135371 
L 233.854492 193.037392 
L 233.984379 193.013545 
L 234.179211 192.694519 
L 234.309099 192.802343 
L 234.568875 192.444715 
L 234.698762 192.392829 
L 234.893594 192.290477 
L 234.958538 192.280358 
L 235.15337 192.034198 
L 235.413145 191.895395 
L 235.802809 191.55938 
L 235.99764 191.480672 
L 236.32236 191.254177 
L 236.517191 191.084563 
L 237.49135 190.347935 
L 237.621238 190.322093 
L 237.751125 190.237602 
L 237.881013 190.049207 
L 238.010901 190.125191 
L 238.205733 189.837514 
L 238.335621 189.866044 
L 238.465508 189.653683 
L 238.530452 189.700707 
L 238.595396 189.698091 
L 238.790228 189.374919 
L 238.98506 189.42438 
L 239.179891 189.155999 
L 239.309779 189.240465 
L 239.504611 188.822397 
L 239.569555 188.91132 
L 239.634499 188.965154 
L 239.82933 188.56914 
L 239.894274 188.649378 
L 239.959218 188.738552 
L 240.024162 188.677991 
L 240.15405 188.398475 
L 240.218994 188.441628 
L 240.348881 188.443743 
L 240.608657 188.166663 
L 241.063264 187.880695 
L 241.193152 187.829776 
L 241.582815 187.433284 
L 241.777647 187.43798 
L 241.972479 187.122227 
L 242.037423 187.196121 
L 242.167311 187.174425 
L 242.297198 186.893785 
L 242.362142 186.936604 
L 242.427086 186.960725 
L 242.621918 186.621891 
L 242.686862 186.725497 
L 242.751806 186.760167 
L 242.946637 186.522096 
L 243.076525 186.430198 
L 243.271357 186.275864 
L 243.401245 186.186582 
L 243.531132 186.069309 
L 243.725964 185.961199 
L 243.855852 185.883183 
L 243.98574 185.866792 
L 244.245515 185.585603 
L 244.375403 185.568781 
L 244.765066 185.206733 
L 246.64844 183.835577 
L 246.778327 183.7662 
L 246.843271 183.834418 
L 246.908215 183.754396 
L 247.038103 183.50679 
L 247.167991 183.61422 
L 247.687542 183.120287 
L 247.81743 183.098519 
L 248.012261 182.872824 
L 248.207093 182.767713 
L 248.726644 182.395462 
L 248.856532 182.443956 
L 249.051364 182.080964 
L 249.181252 182.243123 
L 249.376083 181.844469 
L 249.441027 181.932914 
L 249.505971 181.960035 
L 249.830691 181.646815 
L 249.960578 181.585526 
L 250.090466 181.353033 
L 250.220354 181.465349 
L 250.415186 181.111819 
L 250.480129 181.174482 
L 250.545073 181.188508 
L 250.739905 180.933579 
L 250.934737 180.943388 
L 251.129568 180.700059 
L 251.259456 180.711349 
L 251.454288 180.38709 
L 251.584176 180.446755 
L 251.908895 180.133105 
L 252.038783 180.062581 
L 252.623278 179.605242 
L 252.947998 179.44828 
L 253.142829 179.314507 
L 253.66238 178.848136 
L 253.792268 178.880561 
L 254.116988 178.629359 
L 262.884414 172.376005 
L 262.949358 172.398657 
L 263.209133 172.116548 
L 263.339021 172.103095 
L 263.923516 171.489212 
L 264.053404 171.57976 
L 264.767787 170.984467 
L 264.962619 170.856799 
L 265.287338 170.544273 
L 265.417226 170.584009 
L 265.547114 170.522959 
L 265.806889 170.276763 
L 266.001721 170.131043 
L 266.131609 170.098833 
L 266.326441 169.823546 
L 266.521272 169.774909 
L 266.716104 169.595152 
L 266.845992 169.576992 
L 267.040823 169.344201 
L 267.170711 169.403303 
L 267.430487 169.03159 
L 267.560375 169.087491 
L 267.885094 168.799038 
L 268.209814 168.579293 
L 268.794309 168.097809 
L 269.054084 167.98535 
L 269.248916 167.773312 
L 269.378804 167.761233 
L 269.573635 167.512815 
L 269.703523 167.505646 
L 270.352962 166.969397 
L 270.612738 166.832195 
L 270.742626 166.649475 
L 270.872513 166.632366 
L 271.521952 166.158815 
L 271.65184 166.141838 
L 271.911616 165.892285 
L 273.730045 164.686777 
L 273.859933 164.611092 
L 273.989821 164.441609 
L 274.119708 164.491584 
L 274.574316 164.044771 
L 274.769147 163.996289 
L 275.028923 163.799375 
L 275.613418 163.302515 
L 275.743306 163.322156 
L 276.068025 163.035364 
L 276.522633 162.713028 
L 276.717464 162.633173 
L 276.847352 162.422019 
L 276.912296 162.47424 
L 277.042184 162.399283 
L 277.237015 162.150303 
L 277.82151 161.789892 
L 278.016342 161.595332 
L 278.14623 161.634304 
L 278.406006 161.386698 
L 278.795669 161.118352 
L 279.63994 160.477827 
L 279.899715 160.293482 
L 280.289379 160.033093 
L 280.48421 159.913466 
L 280.743986 159.722597 
L 281.718144 158.993818 
L 282.042864 158.757001 
L 282.172752 158.674195 
L 282.302639 158.706022 
L 282.497471 158.471977 
L 282.627359 158.480328 
L 282.822191 158.15816 
L 282.887135 158.206689 
L 283.017022 158.240141 
L 283.276798 157.914759 
L 283.406686 157.939167 
L 283.601517 157.640045 
L 283.666461 157.680343 
L 283.796349 157.59381 
L 283.991181 157.433395 
L 284.121069 157.423192 
L 284.3159 157.228656 
L 284.510732 157.102063 
L 284.705564 156.921218 
L 284.835451 156.93258 
L 285.030283 156.665525 
L 285.160171 156.707113 
L 285.419947 156.401766 
L 285.549834 156.394001 
L 285.80961 156.224171 
L 285.874554 156.216286 
L 286.069386 155.940055 
L 286.264217 155.957104 
L 286.394105 155.701003 
L 286.459049 155.731815 
L 286.588937 155.727347 
L 286.783768 155.512787 
L 286.913656 155.510063 
L 287.108488 155.329601 
L 287.498151 155.02607 
L 287.628039 154.851331 
L 287.757927 154.962989 
L 287.952759 154.620833 
L 288.017702 154.684978 
L 288.082646 154.73383 
L 288.277478 154.408102 
L 288.342422 154.459164 
L 288.47231 154.444003 
L 288.667141 154.172216 
L 288.797029 154.204509 
L 288.991861 154.019973 
L 289.6413 153.599372 
L 291.005122 152.609714 
L 291.13501 152.51115 
L 291.589617 152.252624 
L 291.784449 152.105877 
L 292.109168 151.866873 
L 292.758607 151.443548 
L 292.888495 151.268701 
L 293.018383 151.420394 
L 293.083326 151.364278 
L 293.278158 151.016734 
L 293.408046 151.045826 
L 293.797709 150.750061 
L 293.927597 150.754135 
L 294.122429 150.491775 
L 294.252317 150.466769 
L 294.382204 150.255889 
L 294.447148 150.292388 
L 294.577036 150.336162 
L 294.901756 150.09471 
L 296.655241 148.793433 
L 296.915016 148.595265 
L 297.759287 148.05064 
L 297.889175 147.878552 
L 298.084007 147.859747 
L 298.993221 147.236605 
L 299.317941 147.031878 
L 299.577716 146.857485 
L 300.032324 146.508185 
L 300.227155 146.486047 
L 300.357043 146.310841 
L 300.551875 146.346778 
L 300.746706 146.05584 
L 301.006482 145.974778 
L 301.201314 145.806359 
L 301.720865 145.519315 
L 302.110528 145.203802 
L 302.30536 145.222356 
L 302.500192 144.897786 
L 302.565136 144.948347 
L 302.695023 144.931788 
L 302.889855 144.734122 
L 303.019743 144.68147 
L 303.214575 144.567482 
L 303.669182 144.296723 
L 303.79907 144.077528 
L 303.993901 144.128375 
L 304.188733 143.920888 
L 304.318621 143.939932 
L 304.513453 143.651885 
L 304.708284 143.707033 
L 304.903116 143.406931 
L 305.033004 143.538685 
L 305.422667 143.208572 
L 306.981321 142.197684 
L 307.111208 142.115953 
L 307.435928 141.843772 
L 307.63076 141.839423 
L 307.825591 141.679128 
L 307.955479 141.605915 
L 308.280199 141.359361 
L 308.669862 141.163093 
L 308.994581 140.983992 
L 309.124469 140.901126 
L 309.319301 140.738609 
L 309.449189 140.670533 
L 310.488291 140.009507 
L 311.787169 139.239976 
L 311.917057 139.019909 
L 312.111889 139.110731 
L 312.30672 138.93224 
L 312.436608 138.911082 
L 312.63144 138.700787 
L 312.761328 138.702185 
L 313.345823 138.320376 
L 318.281559 135.359323 
L 318.411447 135.261775 
L 318.541334 135.151108 
L 318.736166 135.160271 
L 318.930998 134.954959 
L 319.060886 134.953907 
L 321.528754 133.484342 
L 321.658642 133.441882 
L 321.983361 133.230871 
L 323.736846 132.182122 
L 323.866734 132.152146 
L 324.451229 131.779776 
L 324.97078 131.532146 
L 325.165612 131.364336 
L 325.2955 131.364312 
L 325.490332 131.137244 
L 325.620219 131.214052 
L 325.944939 130.985132 
L 326.399546 130.685078 
L 326.594378 130.553683 
L 327.113929 130.291275 
L 327.828312 129.877065 
L 327.9582 129.933779 
L 328.347863 129.584634 
L 328.607639 129.397397 
L 328.737526 129.391746 
L 328.932358 129.232418 
L 329.12719 129.111525 
L 329.841573 128.753909 
L 329.97146 128.610256 
L 330.166292 128.602586 
L 330.555956 128.346952 
L 330.880675 128.155235 
L 331.075507 128.03114 
L 331.270338 127.986875 
L 331.724946 127.626034 
L 332.179553 127.424437 
L 332.309441 127.269243 
L 332.504272 127.360173 
L 332.699104 127.048172 
L 332.764048 127.09743 
L 332.893936 127.164191 
L 333.088768 126.860422 
L 333.153711 126.904818 
L 333.283599 126.941651 
L 333.543375 126.7142 
L 333.673263 126.692182 
L 333.868094 126.444863 
L 334.062926 126.521456 
L 334.257758 126.281305 
L 334.452589 126.274042 
L 334.647421 126.067307 
L 334.907197 125.962901 
L 335.102028 125.788018 
L 335.29686 125.801602 
L 336.271019 125.196858 
L 336.46585 125.078163 
L 336.79057 124.90371 
L 337.050345 124.77523 
L 337.245177 124.601291 
L 337.440009 124.625376 
L 337.63484 124.481663 
L 337.764728 124.42759 
L 338.024504 124.251286 
L 338.479111 124.054611 
L 338.868774 123.758416 
L 339.193494 123.6923 
L 339.45327 123.474288 
L 342.635521 121.815073 
L 342.765408 121.772744 
L 342.96024 121.576786 
L 343.090128 121.639007 
L 343.349903 121.420385 
L 343.479791 121.424459 
L 343.739567 121.249493 
L 343.869455 121.224081 
L 344.12923 121.00976 
L 345.947659 120.081535 
L 346.077547 120.020281 
L 346.79193 119.595092 
L 346.986762 119.589645 
L 347.181593 119.333449 
L 347.376425 119.378346 
L 347.895976 119.037947 
L 348.090808 118.962202 
L 348.480471 118.706627 
L 349.324742 118.27611 
L 349.45463 118.258858 
L 349.844293 117.982962 
L 350.104069 117.924934 
L 350.298901 117.761019 
L 350.428788 117.772452 
L 350.753508 117.55788 
L 350.948339 117.53886 
L 351.208115 117.3208 
L 351.532835 117.147661 
L 352.571937 116.601209 
L 352.701825 116.622952 
L 352.9616 116.433864 
L 353.156432 116.366566 
L 353.416208 116.196987 
L 353.546095 116.159604 
L 353.740927 116.021901 
L 353.870815 116.057946 
L 354.13059 115.823207 
L 354.260478 115.826277 
L 354.520254 115.577859 
L 354.715086 115.525901 
L 354.974861 115.438209 
L 355.104749 115.379739 
L 355.299581 115.159134 
L 355.494412 115.229634 
L 355.819132 114.951731 
L 355.94902 114.893034 
L 356.143851 114.782272 
L 356.273739 114.806751 
L 356.533515 114.575537 
L 356.663402 114.535944 
L 356.858234 114.382961 
L 356.988122 114.39443 
L 357.572617 113.990818 
L 357.767449 114.029539 
L 358.027224 113.777393 
L 358.157112 113.793653 
L 358.416888 113.610933 
L 358.611719 113.51232 
L 358.806551 113.418989 
L 358.936439 113.393362 
L 359.131271 113.225349 
L 359.326102 113.241585 
L 359.585878 113.017288 
L 359.715766 112.993585 
L 360.040485 112.783733 
L 361.404307 112.120364 
L 362.508353 111.528608 
L 362.768129 111.403103 
L 366.340043 109.607284 
L 366.534875 109.53836 
L 367.314202 109.157675 
L 367.573977 109.05457 
L 368.678024 108.54415 
L 368.807911 108.435144 
L 369.002743 108.263797 
L 369.847014 107.916433 
L 370.041845 107.806363 
L 370.431509 107.680917 
L 371.990162 106.834662 
L 372.12005 106.794567 
L 372.314882 106.61733 
L 372.509714 106.617796 
L 372.769489 106.441515 
L 372.899377 106.470726 
L 373.159153 106.261411 
L 373.548816 106.069671 
L 374.003423 105.864203 
L 374.328143 105.674063 
L 374.522974 105.647074 
L 374.912638 105.407951 
L 377.185674 104.328271 
L 377.770169 104.076807 
L 377.900057 104.064979 
L 378.159833 103.887432 
L 378.809272 103.59445 
L 378.939159 103.555383 
L 379.198935 103.388086 
L 380.562757 102.767238 
L 380.822533 102.598914 
L 381.017364 102.5633 
L 381.212196 102.403697 
L 381.342084 102.447902 
L 381.731747 102.174968 
L 382.705906 101.730365 
L 382.900737 101.69481 
L 383.030625 101.64609 
L 383.225457 101.466786 
L 383.420288 101.423131 
L 384.134671 101.065802 
L 384.329503 101.031167 
L 384.524335 100.901194 
L 385.303661 100.49622 
L 385.498493 100.487773 
L 385.758269 100.291038 
L 385.888157 100.317131 
L 386.342764 100.006528 
L 386.602539 99.913603 
L 387.576698 99.554589 
L 387.77153 99.334928 
L 387.966361 99.337258 
L 388.226137 99.182888 
L 388.550856 99.036153 
L 388.745688 98.90551 
L 388.94052 98.927278 
L 389.135351 98.758691 
L 389.330183 98.71825 
L 389.654903 98.52265 
L 390.10951 98.311926 
L 390.369285 98.22857 
L 390.499173 98.212716 
L 390.758949 98.019721 
L 390.953781 98.0407 
L 391.213556 97.836965 
L 391.343444 97.844026 
L 391.538276 97.704052 
L 391.668163 97.679525 
L 391.992883 97.476816 
L 392.187715 97.41223 
L 392.77221 97.14754 
L 393.681424 96.757261 
L 394.330863 96.42532 
L 394.525695 96.337209 
L 394.655583 96.246948 
L 394.850414 96.312036 
L 395.11019 96.098002 
L 395.305022 96.038732 
L 395.889517 95.777949 
L 396.084349 95.717914 
L 396.344124 95.508289 
L 396.538956 95.466043 
L 396.733787 95.362473 
L 396.928619 95.363919 
L 397.188395 95.167304 
L 397.383226 95.13507 
L 397.707946 94.986399 
L 397.837834 94.965181 
L 398.097609 94.756416 
L 398.422329 94.662487 
L 398.487273 94.614507 
L 398.487273 94.614507 
" clip-path="url(#p18798550dc)" style="fill: none; stroke: #ff0000; stroke-width: 1.5; stroke-linecap: square"/>
   </g>
   <g id="patch_3">
    <path d="M 57.6 307.584 
L 57.6 41.472 
" style="fill: none; stroke: #000000; stroke-width: 0.8; stroke-linejoin: miter; stroke-linecap: square"/>
   </g>
   <g id="patch_4">
    <path d="M 414.72 307.584 
L 414.72 41.472 
" style="fill: none; stroke: #000000; stroke-width: 0.8; stroke-linejoin: miter; stroke-linecap: square"/>
   </g>
   <g id="patch_5">
    <path d="M 57.6 307.584 
L 414.72 307.584 
" style="fill: none; stroke: #000000; stroke-width: 0.8; stroke-linejoin: miter; stroke-linecap: square"/>
   </g>
   <g id="patch_6">
    <path d="M 57.6 41.472 
L 414.72 41.472 
" style="fill: none; stroke: #000000; stroke-width: 0.8; stroke-linejoin: miter; stroke-linecap: square"/>
   </g>
   <g id="text_18">
    <!-- Script19_loss -->
    <g transform="translate(196.532813 35.472) scale(0.12 -0.12)">
     <defs>
      <path id="DejaVuSans-53" d="M 3425 4513 
L 3425 3897 
Q 3066 4069 2747 4153 
Q 2428 4238 2131 4238 
Q 1616 4238 1336 4038 
Q 1056 3838 1056 3469 
Q 1056 3159 1242 3001 
Q 1428 2844 1947 2747 
L 2328 2669 
Q 3034 2534 3370 2195 
Q 3706 1856 3706 1288 
Q 3706 609 3251 259 
Q 2797 -91 1919 -91 
Q 1588 -91 1214 -16 
Q 841 59 441 206 
L 441 856 
Q 825 641 1194 531 
Q 1563 422 1919 422 
Q 2459 422 2753 634 
Q 3047 847 3047 1241 
Q 3047 1584 2836 1778 
Q 2625 1972 2144 2069 
L 1759 2144 
Q 1053 2284 737 2584 
Q 422 2884 422 3419 
Q 422 4038 858 4394 
Q 1294 4750 2059 4750 
Q 2388 4750 2728 4690 
Q 3069 4631 3425 4513 
z
" transform="scale(0.015625)"/>
      <path id="DejaVuSans-72" d="M 2631 2963 
Q 2534 3019 2420 3045 
Q 2306 3072 2169 3072 
Q 1681 3072 1420 2755 
Q 1159 2438 1159 1844 
L 1159 0 
L 581 0 
L 581 3500 
L 1159 3500 
L 1159 2956 
Q 1341 3275 1631 3429 
Q 1922 3584 2338 3584 
Q 2397 3584 2469 3576 
Q 2541 3569 2628 3553 
L 2631 2963 
z
" transform="scale(0.015625)"/>
      <path id="DejaVuSans-69" d="M 603 3500 
L 1178 3500 
L 1178 0 
L 603 0 
L 603 3500 
z
M 603 4863 
L 1178 4863 
L 1178 4134 
L 603 4134 
L 603 4863 
z
" transform="scale(0.015625)"/>
      <path id="DejaVuSans-74" d="M 1172 4494 
L 1172 3500 
L 2356 3500 
L 2356 3053 
L 1172 3053 
L 1172 1153 
Q 1172 725 1289 603 
Q 1406 481 1766 481 
L 2356 481 
L 2356 0 
L 1766 0 
Q 1100 0 847 248 
Q 594 497 594 1153 
L 594 3053 
L 172 3053 
L 172 3500 
L 594 3500 
L 594 4494 
L 1172 4494 
z
" transform="scale(0.015625)"/>
      <path id="DejaVuSans-39" d="M 703 97 
L 703 672 
Q 941 559 1184 500 
Q 1428 441 1663 441 
Q 2288 441 2617 861 
Q 2947 1281 2994 2138 
Q 2813 1869 2534 1725 
Q 2256 1581 1919 1581 
Q 1219 1581 811 2004 
Q 403 2428 403 3163 
Q 403 3881 828 4315 
Q 1253 4750 1959 4750 
Q 2769 4750 3195 4129 
Q 3622 3509 3622 2328 
Q 3622 1225 3098 567 
Q 2575 -91 1691 -91 
Q 1453 -91 1209 -44 
Q 966 3 703 97 
z
M 1959 2075 
Q 2384 2075 2632 2365 
Q 2881 2656 2881 3163 
Q 2881 3666 2632 3958 
Q 2384 4250 1959 4250 
Q 1534 4250 1286 3958 
Q 1038 3666 1038 3163 
Q 1038 2656 1286 2365 
Q 1534 2075 1959 2075 
z
" transform="scale(0.015625)"/>
      <path id="DejaVuSans-5f" d="M 3263 -1063 
L 3263 -1509 
L -63 -1509 
L -63 -1063 
L 3263 -1063 
z
" transform="scale(0.015625)"/>
     </defs>
     <use xlink:href="#DejaVuSans-53"/>
     <use xlink:href="#DejaVuSans-63" x="63.476562"/>
     <use xlink:href="#DejaVuSans-72" x="118.457031"/>
     <use xlink:href="#DejaVuSans-69" x="159.570312"/>
     <use xlink:href="#DejaVuSans-70" x="187.353516"/>
     <use xlink:href="#DejaVuSans-74" x="250.830078"/>
     <use xlink:href="#DejaVuSans-31" x="290.039062"/>
     <use xlink:href="#DejaVuSans-39" x="353.662109"/>
     <use xlink:href="#DejaVuSans-5f" x="417.285156"/>
     <use xlink:href="#DejaVuSans-6c" x="467.285156"/>
     <use xlink:href="#DejaVuSans-6f" x="495.068359"/>
     <use xlink:href="#DejaVuSans-73" x="556.25"/>
     <use xlink:href="#DejaVuSans-73" x="608.349609"/>
    </g>
   </g>
   <g id="legend_1">
    <g id="patch_7">
     <path d="M 64.6 93.506375 
L 164.295312 93.506375 
Q 166.295312 93.506375 166.295312 91.506375 
L 166.295312 48.472 
Q 166.295312 46.472 164.295312 46.472 
L 64.6 46.472 
Q 62.6 46.472 62.6 48.472 
L 62.6 91.506375 
Q 62.6 93.506375 64.6 93.506375 
z
" style="fill: #ffffff; opacity: 0.8; stroke: #cccccc; stroke-linejoin: miter"/>
    </g>
    <g id="line2d_19">
     <path d="M 66.6 54.570438 
L 76.6 54.570438 
L 86.6 54.570438 
" style="fill: none; stroke: #0000ff; stroke-width: 1.5; stroke-linecap: square"/>
    </g>
    <g id="text_19">
     <!-- training set -->
     <g transform="translate(94.6 58.070438) scale(0.1 -0.1)">
      <defs>
       <path id="DejaVuSans-61" d="M 2194 1759 
Q 1497 1759 1228 1600 
Q 959 1441 959 1056 
Q 959 750 1161 570 
Q 1363 391 1709 391 
Q 2188 391 2477 730 
Q 2766 1069 2766 1631 
L 2766 1759 
L 2194 1759 
z
M 3341 1997 
L 3341 0 
L 2766 0 
L 2766 531 
Q 2569 213 2275 61 
Q 1981 -91 1556 -91 
Q 1019 -91 701 211 
Q 384 513 384 1019 
Q 384 1609 779 1909 
Q 1175 2209 1959 2209 
L 2766 2209 
L 2766 2266 
Q 2766 2663 2505 2880 
Q 2244 3097 1772 3097 
Q 1472 3097 1187 3025 
Q 903 2953 641 2809 
L 641 3341 
Q 956 3463 1253 3523 
Q 1550 3584 1831 3584 
Q 2591 3584 2966 3190 
Q 3341 2797 3341 1997 
z
" transform="scale(0.015625)"/>
       <path id="DejaVuSans-6e" d="M 3513 2113 
L 3513 0 
L 2938 0 
L 2938 2094 
Q 2938 2591 2744 2837 
Q 2550 3084 2163 3084 
Q 1697 3084 1428 2787 
Q 1159 2491 1159 1978 
L 1159 0 
L 581 0 
L 581 3500 
L 1159 3500 
L 1159 2956 
Q 1366 3272 1645 3428 
Q 1925 3584 2291 3584 
Q 2894 3584 3203 3211 
Q 3513 2838 3513 2113 
z
" transform="scale(0.015625)"/>
       <path id="DejaVuSans-67" d="M 2906 1791 
Q 2906 2416 2648 2759 
Q 2391 3103 1925 3103 
Q 1463 3103 1205 2759 
Q 947 2416 947 1791 
Q 947 1169 1205 825 
Q 1463 481 1925 481 
Q 2391 481 2648 825 
Q 2906 1169 2906 1791 
z
M 3481 434 
Q 3481 -459 3084 -895 
Q 2688 -1331 1869 -1331 
Q 1566 -1331 1297 -1286 
Q 1028 -1241 775 -1147 
L 775 -588 
Q 1028 -725 1275 -790 
Q 1522 -856 1778 -856 
Q 2344 -856 2625 -561 
Q 2906 -266 2906 331 
L 2906 616 
Q 2728 306 2450 153 
Q 2172 0 1784 0 
Q 1141 0 747 490 
Q 353 981 353 1791 
Q 353 2603 747 3093 
Q 1141 3584 1784 3584 
Q 2172 3584 2450 3431 
Q 2728 3278 2906 2969 
L 2906 3500 
L 3481 3500 
L 3481 434 
z
" transform="scale(0.015625)"/>
       <path id="DejaVuSans-20" transform="scale(0.015625)"/>
      </defs>
      <use xlink:href="#DejaVuSans-74"/>
      <use xlink:href="#DejaVuSans-72" x="39.208984"/>
      <use xlink:href="#DejaVuSans-61" x="80.322266"/>
      <use xlink:href="#DejaVuSans-69" x="141.601562"/>
      <use xlink:href="#DejaVuSans-6e" x="169.384766"/>
      <use xlink:href="#DejaVuSans-69" x="232.763672"/>
      <use xlink:href="#DejaVuSans-6e" x="260.546875"/>
      <use xlink:href="#DejaVuSans-67" x="323.925781"/>
      <use xlink:href="#DejaVuSans-20" x="387.402344"/>
      <use xlink:href="#DejaVuSans-73" x="419.189453"/>
      <use xlink:href="#DejaVuSans-65" x="471.289062"/>
      <use xlink:href="#DejaVuSans-74" x="532.8125"/>
     </g>
    </g>
    <g id="line2d_20">
     <path d="M 66.6 69.248563 
L 76.6 69.248563 
L 86.6 69.248563 
" style="fill: none; stroke: #008000; stroke-width: 1.5; stroke-linecap: square"/>
    </g>
    <g id="text_20">
     <!-- validation set -->
     <g transform="translate(94.6 72.748563) scale(0.1 -0.1)">
      <defs>
       <path id="DejaVuSans-76" d="M 191 3500 
L 800 3500 
L 1894 563 
L 2988 3500 
L 3597 3500 
L 2284 0 
L 1503 0 
L 191 3500 
z
" transform="scale(0.015625)"/>
       <path id="DejaVuSans-64" d="M 2906 2969 
L 2906 4863 
L 3481 4863 
L 3481 0 
L 2906 0 
L 2906 525 
Q 2725 213 2448 61 
Q 2172 -91 1784 -91 
Q 1150 -91 751 415 
Q 353 922 353 1747 
Q 353 2572 751 3078 
Q 1150 3584 1784 3584 
Q 2172 3584 2448 3432 
Q 2725 3281 2906 2969 
z
M 947 1747 
Q 947 1113 1208 752 
Q 1469 391 1925 391 
Q 2381 391 2643 752 
Q 2906 1113 2906 1747 
Q 2906 2381 2643 2742 
Q 2381 3103 1925 3103 
Q 1469 3103 1208 2742 
Q 947 2381 947 1747 
z
" transform="scale(0.015625)"/>
      </defs>
      <use xlink:href="#DejaVuSans-76"/>
      <use xlink:href="#DejaVuSans-61" x="59.179688"/>
      <use xlink:href="#DejaVuSans-6c" x="120.458984"/>
      <use xlink:href="#DejaVuSans-69" x="148.242188"/>
      <use xlink:href="#DejaVuSans-64" x="176.025391"/>
      <use xlink:href="#DejaVuSans-61" x="239.501953"/>
      <use xlink:href="#DejaVuSans-74" x="300.78125"/>
      <use xlink:href="#DejaVuSans-69" x="339.990234"/>
      <use xlink:href="#DejaVuSans-6f" x="367.773438"/>
      <use xlink:href="#DejaVuSans-6e" x="428.955078"/>
      <use xlink:href="#DejaVuSans-20" x="492.333984"/>
      <use xlink:href="#DejaVuSans-73" x="524.121094"/>
      <use xlink:href="#DejaVuSans-65" x="576.220703"/>
      <use xlink:href="#DejaVuSans-74" x="637.744141"/>
     </g>
    </g>
    <g id="line2d_21">
     <path d="M 66.6 83.926688 
L 76.6 83.926688 
L 86.6 83.926688 
" style="fill: none; stroke: #ff0000; stroke-width: 1.5; stroke-linecap: square"/>
    </g>
    <g id="text_21">
     <!-- test set -->
     <g transform="translate(94.6 87.426688) scale(0.1 -0.1)">
      <use xlink:href="#DejaVuSans-74"/>
      <use xlink:href="#DejaVuSans-65" x="39.208984"/>
      <use xlink:href="#DejaVuSans-73" x="100.732422"/>
      <use xlink:href="#DejaVuSans-74" x="152.832031"/>
      <use xlink:href="#DejaVuSans-20" x="192.041016"/>
      <use xlink:href="#DejaVuSans-73" x="223.828125"/>
      <use xlink:href="#DejaVuSans-65" x="275.927734"/>
      <use xlink:href="#DejaVuSans-74" x="337.451172"/>
     </g>
    </g>
   </g>
  </g>
 </g>
 <defs>
  <clipPath id="p18798550dc">
   <rect x="57.6" y="41.472" width="357.12" height="266.112"/>
  </clipPath>
 </defs>
</svg>
