<?xml version="1.0" encoding="utf-8" standalone="no"?>
<!DOCTYPE svg PUBLIC "-//W3C//DTD SVG 1.1//EN"
  "http://www.w3.org/Graphics/SVG/1.1/DTD/svg11.dtd">
<svg xmlns:xlink="http://www.w3.org/1999/xlink" width="460.8pt" height="345.6pt" viewBox="0 0 460.8 345.6" xmlns="http://www.w3.org/2000/svg" version="1.1">
 <metadata>
  <rdf:RDF xmlns:dc="http://purl.org/dc/elements/1.1/" xmlns:cc="http://creativecommons.org/ns#" xmlns:rdf="http://www.w3.org/1999/02/22-rdf-syntax-ns#">
   <cc:Work>
    <dc:type rdf:resource="http://purl.org/dc/dcmitype/StillImage"/>
    <dc:date>2023-06-14T03:53:56.623973</dc:date>
    <dc:format>image/svg+xml</dc:format>
    <dc:creator>
     <cc:Agent>
      <dc:title>Matplotlib v3.7.1, https://matplotlib.org/</dc:title>
     </cc:Agent>
    </dc:creator>
   </cc:Work>
  </rdf:RDF>
 </metadata>
 <defs>
  <style type="text/css">*{stroke-linejoin: round; stroke-linecap: butt}</style>
 </defs>
 <g id="figure_1">
  <g id="patch_1">
   <path d="M 0 345.6 
L 460.8 345.6 
L 460.8 0 
L 0 0 
z
" style="fill: #ffffff"/>
  </g>
  <g id="axes_1">
   <g id="patch_2">
    <path d="M 57.6 307.584 
L 414.72 307.584 
L 414.72 41.472 
L 57.6 41.472 
z
" style="fill: #ffffff"/>
   </g>
   <g id="matplotlib.axis_1">
    <g id="xtick_1">
     <g id="line2d_1">
      <defs>
       <path id="m185a681963" d="M 0 0 
L 0 3.5 
" style="stroke: #000000; stroke-width: 0.8"/>
      </defs>
      <g>
       <use xlink:href="#m185a681963" x="73.767783" y="307.584" style="stroke: #000000; stroke-width: 0.8"/>
      </g>
     </g>
     <g id="text_1">
      <!-- 0 -->
      <g transform="translate(70.586533 322.182437) scale(0.1 -0.1)">
       <defs>
        <path id="DejaVuSans-30" d="M 2034 4250 
Q 1547 4250 1301 3770 
Q 1056 3291 1056 2328 
Q 1056 1369 1301 889 
Q 1547 409 2034 409 
Q 2525 409 2770 889 
Q 3016 1369 3016 2328 
Q 3016 3291 2770 3770 
Q 2525 4250 2034 4250 
z
M 2034 4750 
Q 2819 4750 3233 4129 
Q 3647 3509 3647 2328 
Q 3647 1150 3233 529 
Q 2819 -91 2034 -91 
Q 1250 -91 836 529 
Q 422 1150 422 2328 
Q 422 3509 836 4129 
Q 1250 4750 2034 4750 
z
" transform="scale(0.015625)"/>
       </defs>
       <use xlink:href="#DejaVuSans-30"/>
      </g>
     </g>
    </g>
    <g id="xtick_2">
     <g id="line2d_2">
      <g>
       <use xlink:href="#m185a681963" x="138.711681" y="307.584" style="stroke: #000000; stroke-width: 0.8"/>
      </g>
     </g>
     <g id="text_2">
      <!-- 1000 -->
      <g transform="translate(125.986681 322.182437) scale(0.1 -0.1)">
       <defs>
        <path id="DejaVuSans-31" d="M 794 531 
L 1825 531 
L 1825 4091 
L 703 3866 
L 703 4441 
L 1819 4666 
L 2450 4666 
L 2450 531 
L 3481 531 
L 3481 0 
L 794 0 
L 794 531 
z
" transform="scale(0.015625)"/>
       </defs>
       <use xlink:href="#DejaVuSans-31"/>
       <use xlink:href="#DejaVuSans-30" x="63.623047"/>
       <use xlink:href="#DejaVuSans-30" x="127.246094"/>
       <use xlink:href="#DejaVuSans-30" x="190.869141"/>
      </g>
     </g>
    </g>
    <g id="xtick_3">
     <g id="line2d_3">
      <g>
       <use xlink:href="#m185a681963" x="203.655579" y="307.584" style="stroke: #000000; stroke-width: 0.8"/>
      </g>
     </g>
     <g id="text_3">
      <!-- 2000 -->
      <g transform="translate(190.930579 322.182437) scale(0.1 -0.1)">
       <defs>
        <path id="DejaVuSans-32" d="M 1228 531 
L 3431 531 
L 3431 0 
L 469 0 
L 469 531 
Q 828 903 1448 1529 
Q 2069 2156 2228 2338 
Q 2531 2678 2651 2914 
Q 2772 3150 2772 3378 
Q 2772 3750 2511 3984 
Q 2250 4219 1831 4219 
Q 1534 4219 1204 4116 
Q 875 4013 500 3803 
L 500 4441 
Q 881 4594 1212 4672 
Q 1544 4750 1819 4750 
Q 2544 4750 2975 4387 
Q 3406 4025 3406 3419 
Q 3406 3131 3298 2873 
Q 3191 2616 2906 2266 
Q 2828 2175 2409 1742 
Q 1991 1309 1228 531 
z
" transform="scale(0.015625)"/>
       </defs>
       <use xlink:href="#DejaVuSans-32"/>
       <use xlink:href="#DejaVuSans-30" x="63.623047"/>
       <use xlink:href="#DejaVuSans-30" x="127.246094"/>
       <use xlink:href="#DejaVuSans-30" x="190.869141"/>
      </g>
     </g>
    </g>
    <g id="xtick_4">
     <g id="line2d_4">
      <g>
       <use xlink:href="#m185a681963" x="268.599477" y="307.584" style="stroke: #000000; stroke-width: 0.8"/>
      </g>
     </g>
     <g id="text_4">
      <!-- 3000 -->
      <g transform="translate(255.874477 322.182437) scale(0.1 -0.1)">
       <defs>
        <path id="DejaVuSans-33" d="M 2597 2516 
Q 3050 2419 3304 2112 
Q 3559 1806 3559 1356 
Q 3559 666 3084 287 
Q 2609 -91 1734 -91 
Q 1441 -91 1130 -33 
Q 819 25 488 141 
L 488 750 
Q 750 597 1062 519 
Q 1375 441 1716 441 
Q 2309 441 2620 675 
Q 2931 909 2931 1356 
Q 2931 1769 2642 2001 
Q 2353 2234 1838 2234 
L 1294 2234 
L 1294 2753 
L 1863 2753 
Q 2328 2753 2575 2939 
Q 2822 3125 2822 3475 
Q 2822 3834 2567 4026 
Q 2313 4219 1838 4219 
Q 1578 4219 1281 4162 
Q 984 4106 628 3988 
L 628 4550 
Q 988 4650 1302 4700 
Q 1616 4750 1894 4750 
Q 2613 4750 3031 4423 
Q 3450 4097 3450 3541 
Q 3450 3153 3228 2886 
Q 3006 2619 2597 2516 
z
" transform="scale(0.015625)"/>
       </defs>
       <use xlink:href="#DejaVuSans-33"/>
       <use xlink:href="#DejaVuSans-30" x="63.623047"/>
       <use xlink:href="#DejaVuSans-30" x="127.246094"/>
       <use xlink:href="#DejaVuSans-30" x="190.869141"/>
      </g>
     </g>
    </g>
    <g id="xtick_5">
     <g id="line2d_5">
      <g>
       <use xlink:href="#m185a681963" x="333.543375" y="307.584" style="stroke: #000000; stroke-width: 0.8"/>
      </g>
     </g>
     <g id="text_5">
      <!-- 4000 -->
      <g transform="translate(320.818375 322.182437) scale(0.1 -0.1)">
       <defs>
        <path id="DejaVuSans-34" d="M 2419 4116 
L 825 1625 
L 2419 1625 
L 2419 4116 
z
M 2253 4666 
L 3047 4666 
L 3047 1625 
L 3713 1625 
L 3713 1100 
L 3047 1100 
L 3047 0 
L 2419 0 
L 2419 1100 
L 313 1100 
L 313 1709 
L 2253 4666 
z
" transform="scale(0.015625)"/>
       </defs>
       <use xlink:href="#DejaVuSans-34"/>
       <use xlink:href="#DejaVuSans-30" x="63.623047"/>
       <use xlink:href="#DejaVuSans-30" x="127.246094"/>
       <use xlink:href="#DejaVuSans-30" x="190.869141"/>
      </g>
     </g>
    </g>
    <g id="xtick_6">
     <g id="line2d_6">
      <g>
       <use xlink:href="#m185a681963" x="398.487273" y="307.584" style="stroke: #000000; stroke-width: 0.8"/>
      </g>
     </g>
     <g id="text_6">
      <!-- 5000 -->
      <g transform="translate(385.762273 322.182437) scale(0.1 -0.1)">
       <defs>
        <path id="DejaVuSans-35" d="M 691 4666 
L 3169 4666 
L 3169 4134 
L 1269 4134 
L 1269 2991 
Q 1406 3038 1543 3061 
Q 1681 3084 1819 3084 
Q 2600 3084 3056 2656 
Q 3513 2228 3513 1497 
Q 3513 744 3044 326 
Q 2575 -91 1722 -91 
Q 1428 -91 1123 -41 
Q 819 9 494 109 
L 494 744 
Q 775 591 1075 516 
Q 1375 441 1709 441 
Q 2250 441 2565 725 
Q 2881 1009 2881 1497 
Q 2881 1984 2565 2268 
Q 2250 2553 1709 2553 
Q 1456 2553 1204 2497 
Q 953 2441 691 2322 
L 691 4666 
z
" transform="scale(0.015625)"/>
       </defs>
       <use xlink:href="#DejaVuSans-35"/>
       <use xlink:href="#DejaVuSans-30" x="63.623047"/>
       <use xlink:href="#DejaVuSans-30" x="127.246094"/>
       <use xlink:href="#DejaVuSans-30" x="190.869141"/>
      </g>
     </g>
    </g>
    <g id="text_7">
     <!-- epoch -->
     <g transform="translate(220.931875 335.860562) scale(0.1 -0.1)">
      <defs>
       <path id="DejaVuSans-65" d="M 3597 1894 
L 3597 1613 
L 953 1613 
Q 991 1019 1311 708 
Q 1631 397 2203 397 
Q 2534 397 2845 478 
Q 3156 559 3463 722 
L 3463 178 
Q 3153 47 2828 -22 
Q 2503 -91 2169 -91 
Q 1331 -91 842 396 
Q 353 884 353 1716 
Q 353 2575 817 3079 
Q 1281 3584 2069 3584 
Q 2775 3584 3186 3129 
Q 3597 2675 3597 1894 
z
M 3022 2063 
Q 3016 2534 2758 2815 
Q 2500 3097 2075 3097 
Q 1594 3097 1305 2825 
Q 1016 2553 972 2059 
L 3022 2063 
z
" transform="scale(0.015625)"/>
       <path id="DejaVuSans-70" d="M 1159 525 
L 1159 -1331 
L 581 -1331 
L 581 3500 
L 1159 3500 
L 1159 2969 
Q 1341 3281 1617 3432 
Q 1894 3584 2278 3584 
Q 2916 3584 3314 3078 
Q 3713 2572 3713 1747 
Q 3713 922 3314 415 
Q 2916 -91 2278 -91 
Q 1894 -91 1617 61 
Q 1341 213 1159 525 
z
M 3116 1747 
Q 3116 2381 2855 2742 
Q 2594 3103 2138 3103 
Q 1681 3103 1420 2742 
Q 1159 2381 1159 1747 
Q 1159 1113 1420 752 
Q 1681 391 2138 391 
Q 2594 391 2855 752 
Q 3116 1113 3116 1747 
z
" transform="scale(0.015625)"/>
       <path id="DejaVuSans-6f" d="M 1959 3097 
Q 1497 3097 1228 2736 
Q 959 2375 959 1747 
Q 959 1119 1226 758 
Q 1494 397 1959 397 
Q 2419 397 2687 759 
Q 2956 1122 2956 1747 
Q 2956 2369 2687 2733 
Q 2419 3097 1959 3097 
z
M 1959 3584 
Q 2709 3584 3137 3096 
Q 3566 2609 3566 1747 
Q 3566 888 3137 398 
Q 2709 -91 1959 -91 
Q 1206 -91 779 398 
Q 353 888 353 1747 
Q 353 2609 779 3096 
Q 1206 3584 1959 3584 
z
" transform="scale(0.015625)"/>
       <path id="DejaVuSans-63" d="M 3122 3366 
L 3122 2828 
Q 2878 2963 2633 3030 
Q 2388 3097 2138 3097 
Q 1578 3097 1268 2742 
Q 959 2388 959 1747 
Q 959 1106 1268 751 
Q 1578 397 2138 397 
Q 2388 397 2633 464 
Q 2878 531 3122 666 
L 3122 134 
Q 2881 22 2623 -34 
Q 2366 -91 2075 -91 
Q 1284 -91 818 406 
Q 353 903 353 1747 
Q 353 2603 823 3093 
Q 1294 3584 2113 3584 
Q 2378 3584 2631 3529 
Q 2884 3475 3122 3366 
z
" transform="scale(0.015625)"/>
       <path id="DejaVuSans-68" d="M 3513 2113 
L 3513 0 
L 2938 0 
L 2938 2094 
Q 2938 2591 2744 2837 
Q 2550 3084 2163 3084 
Q 1697 3084 1428 2787 
Q 1159 2491 1159 1978 
L 1159 0 
L 581 0 
L 581 4863 
L 1159 4863 
L 1159 2956 
Q 1366 3272 1645 3428 
Q 1925 3584 2291 3584 
Q 2894 3584 3203 3211 
Q 3513 2838 3513 2113 
z
" transform="scale(0.015625)"/>
      </defs>
      <use xlink:href="#DejaVuSans-65"/>
      <use xlink:href="#DejaVuSans-70" x="61.523438"/>
      <use xlink:href="#DejaVuSans-6f" x="125"/>
      <use xlink:href="#DejaVuSans-63" x="186.181641"/>
      <use xlink:href="#DejaVuSans-68" x="241.162109"/>
     </g>
    </g>
   </g>
   <g id="matplotlib.axis_2">
    <g id="ytick_1">
     <g id="line2d_7">
      <defs>
       <path id="m7aa000ea84" d="M 0 0 
L -3.5 0 
" style="stroke: #000000; stroke-width: 0.8"/>
      </defs>
      <g>
       <use xlink:href="#m7aa000ea84" x="57.6" y="295.510225" style="stroke: #000000; stroke-width: 0.8"/>
      </g>
     </g>
     <g id="text_8">
      <!-- 0.0 -->
      <g transform="translate(34.696875 299.309444) scale(0.1 -0.1)">
       <defs>
        <path id="DejaVuSans-2e" d="M 684 794 
L 1344 794 
L 1344 0 
L 684 0 
L 684 794 
z
" transform="scale(0.015625)"/>
       </defs>
       <use xlink:href="#DejaVuSans-30"/>
       <use xlink:href="#DejaVuSans-2e" x="63.623047"/>
       <use xlink:href="#DejaVuSans-30" x="95.410156"/>
      </g>
     </g>
    </g>
    <g id="ytick_2">
     <g id="line2d_8">
      <g>
       <use xlink:href="#m7aa000ea84" x="57.6" y="262.797802" style="stroke: #000000; stroke-width: 0.8"/>
      </g>
     </g>
     <g id="text_9">
      <!-- 2.5 -->
      <g transform="translate(34.696875 266.597021) scale(0.1 -0.1)">
       <use xlink:href="#DejaVuSans-32"/>
       <use xlink:href="#DejaVuSans-2e" x="63.623047"/>
       <use xlink:href="#DejaVuSans-35" x="95.410156"/>
      </g>
     </g>
    </g>
    <g id="ytick_3">
     <g id="line2d_9">
      <g>
       <use xlink:href="#m7aa000ea84" x="57.6" y="230.085379" style="stroke: #000000; stroke-width: 0.8"/>
      </g>
     </g>
     <g id="text_10">
      <!-- 5.0 -->
      <g transform="translate(34.696875 233.884598) scale(0.1 -0.1)">
       <use xlink:href="#DejaVuSans-35"/>
       <use xlink:href="#DejaVuSans-2e" x="63.623047"/>
       <use xlink:href="#DejaVuSans-30" x="95.410156"/>
      </g>
     </g>
    </g>
    <g id="ytick_4">
     <g id="line2d_10">
      <g>
       <use xlink:href="#m7aa000ea84" x="57.6" y="197.372956" style="stroke: #000000; stroke-width: 0.8"/>
      </g>
     </g>
     <g id="text_11">
      <!-- 7.5 -->
      <g transform="translate(34.696875 201.172175) scale(0.1 -0.1)">
       <defs>
        <path id="DejaVuSans-37" d="M 525 4666 
L 3525 4666 
L 3525 4397 
L 1831 0 
L 1172 0 
L 2766 4134 
L 525 4134 
L 525 4666 
z
" transform="scale(0.015625)"/>
       </defs>
       <use xlink:href="#DejaVuSans-37"/>
       <use xlink:href="#DejaVuSans-2e" x="63.623047"/>
       <use xlink:href="#DejaVuSans-35" x="95.410156"/>
      </g>
     </g>
    </g>
    <g id="ytick_5">
     <g id="line2d_11">
      <g>
       <use xlink:href="#m7aa000ea84" x="57.6" y="164.660533" style="stroke: #000000; stroke-width: 0.8"/>
      </g>
     </g>
     <g id="text_12">
      <!-- 10.0 -->
      <g transform="translate(28.334375 168.459752) scale(0.1 -0.1)">
       <use xlink:href="#DejaVuSans-31"/>
       <use xlink:href="#DejaVuSans-30" x="63.623047"/>
       <use xlink:href="#DejaVuSans-2e" x="127.246094"/>
       <use xlink:href="#DejaVuSans-30" x="159.033203"/>
      </g>
     </g>
    </g>
    <g id="ytick_6">
     <g id="line2d_12">
      <g>
       <use xlink:href="#m7aa000ea84" x="57.6" y="131.94811" style="stroke: #000000; stroke-width: 0.8"/>
      </g>
     </g>
     <g id="text_13">
      <!-- 12.5 -->
      <g transform="translate(28.334375 135.747329) scale(0.1 -0.1)">
       <use xlink:href="#DejaVuSans-31"/>
       <use xlink:href="#DejaVuSans-32" x="63.623047"/>
       <use xlink:href="#DejaVuSans-2e" x="127.246094"/>
       <use xlink:href="#DejaVuSans-35" x="159.033203"/>
      </g>
     </g>
    </g>
    <g id="ytick_7">
     <g id="line2d_13">
      <g>
       <use xlink:href="#m7aa000ea84" x="57.6" y="99.235687" style="stroke: #000000; stroke-width: 0.8"/>
      </g>
     </g>
     <g id="text_14">
      <!-- 15.0 -->
      <g transform="translate(28.334375 103.034906) scale(0.1 -0.1)">
       <use xlink:href="#DejaVuSans-31"/>
       <use xlink:href="#DejaVuSans-35" x="63.623047"/>
       <use xlink:href="#DejaVuSans-2e" x="127.246094"/>
       <use xlink:href="#DejaVuSans-30" x="159.033203"/>
      </g>
     </g>
    </g>
    <g id="ytick_8">
     <g id="line2d_14">
      <g>
       <use xlink:href="#m7aa000ea84" x="57.6" y="66.523265" style="stroke: #000000; stroke-width: 0.8"/>
      </g>
     </g>
     <g id="text_15">
      <!-- 17.5 -->
      <g transform="translate(28.334375 70.322483) scale(0.1 -0.1)">
       <use xlink:href="#DejaVuSans-31"/>
       <use xlink:href="#DejaVuSans-37" x="63.623047"/>
       <use xlink:href="#DejaVuSans-2e" x="127.246094"/>
       <use xlink:href="#DejaVuSans-35" x="159.033203"/>
      </g>
     </g>
    </g>
    <g id="text_16">
     <!-- loss -->
     <g transform="translate(22.254688 184.185812) rotate(-90) scale(0.1 -0.1)">
      <defs>
       <path id="DejaVuSans-6c" d="M 603 4863 
L 1178 4863 
L 1178 0 
L 603 0 
L 603 4863 
z
" transform="scale(0.015625)"/>
       <path id="DejaVuSans-73" d="M 2834 3397 
L 2834 2853 
Q 2591 2978 2328 3040 
Q 2066 3103 1784 3103 
Q 1356 3103 1142 2972 
Q 928 2841 928 2578 
Q 928 2378 1081 2264 
Q 1234 2150 1697 2047 
L 1894 2003 
Q 2506 1872 2764 1633 
Q 3022 1394 3022 966 
Q 3022 478 2636 193 
Q 2250 -91 1575 -91 
Q 1294 -91 989 -36 
Q 684 19 347 128 
L 347 722 
Q 666 556 975 473 
Q 1284 391 1588 391 
Q 1994 391 2212 530 
Q 2431 669 2431 922 
Q 2431 1156 2273 1281 
Q 2116 1406 1581 1522 
L 1381 1569 
Q 847 1681 609 1914 
Q 372 2147 372 2553 
Q 372 3047 722 3315 
Q 1072 3584 1716 3584 
Q 2034 3584 2315 3537 
Q 2597 3491 2834 3397 
z
" transform="scale(0.015625)"/>
      </defs>
      <use xlink:href="#DejaVuSans-6c"/>
      <use xlink:href="#DejaVuSans-6f" x="27.783203"/>
      <use xlink:href="#DejaVuSans-73" x="88.964844"/>
      <use xlink:href="#DejaVuSans-73" x="141.064453"/>
     </g>
    </g>
   </g>
   <g id="line2d_15">
    <path d="M 73.832727 269.982443 
L 74.222391 270.53839 
L 75.326437 271.676638 
L 75.975876 272.86115 
L 76.755203 274.824335 
L 78.248912 279.436279 
L 79.417902 282.625902 
L 80.327117 284.495045 
L 81.171388 285.7425 
L 82.080602 286.675091 
L 83.119705 287.403695 
L 84.418583 288.031778 
L 86.237012 288.650698 
L 88.834768 289.287971 
L 92.471626 289.939121 
L 97.407362 290.583227 
L 104.940854 291.313176 
L 121.631436 292.578526 
L 131.437965 293.11971 
L 168.975538 294.408791 
L 208.721203 295.000239 
L 284.445788 295.387408 
L 398.487273 295.488 
L 398.487273 295.488 
" clip-path="url(#p57b4d4b037)" style="fill: none; stroke: #0000ff; stroke-width: 1.5; stroke-linecap: square"/>
   </g>
   <g id="line2d_16">
    <path d="M 73.832727 270.677852 
L 74.612054 270.611751 
L 75.521269 271.687539 
L 76.365539 272.935973 
L 77.924193 276.622842 
L 79.482846 280.249792 
L 80.327117 281.629133 
L 81.106444 282.472401 
L 81.950715 282.991449 
L 82.794985 283.221044 
L 83.834088 283.255714 
L 85.003078 283.076715 
L 87.21117 282.347971 
L 90.523309 280.820702 
L 91.822187 280.135159 
L 93.965336 278.929094 
L 94.419943 278.638043 
L 94.614775 278.550841 
L 100.070062 275.39167 
L 100.264894 275.323036 
L 100.654557 275.06332 
L 100.849389 274.984965 
L 101.693659 274.478953 
L 109.227152 269.62356 
L 109.421983 269.431825 
L 109.486927 269.473474 
L 109.746703 269.203656 
L 109.811647 269.263913 
L 110.006478 269.053954 
L 110.136366 269.004545 
L 110.461086 268.789538 
L 111.110525 268.317796 
L 112.993898 267.06333 
L 113.188729 266.917387 
L 114.422663 266.028576 
L 114.747383 265.810665 
L 114.812327 265.829152 
L 115.007159 265.662363 
L 115.851429 265.023883 
L 115.981317 264.99442 
L 116.176149 264.896911 
L 116.435924 264.659174 
L 116.500868 264.681021 
L 116.630756 264.546668 
L 116.955475 264.341763 
L 117.345139 264.065583 
L 117.604914 263.950222 
L 117.799746 263.833988 
L 118.18941 263.574273 
L 119.423344 262.868909 
L 119.748063 262.593677 
L 120.462446 262.129637 
L 120.52739 262.135683 
L 120.787165 261.877955 
L 121.501548 261.418495 
L 121.761324 261.191896 
L 122.280875 260.894408 
L 122.410763 260.660349 
L 122.475707 260.691958 
L 122.735482 260.474044 
L 122.86537 260.43569 
L 123.19009 260.118813 
L 123.774585 259.74526 
L 123.904473 259.627282 
L 124.294136 259.34217 
L 124.35908 259.395935 
L 124.618855 259.157574 
L 125.008519 258.774927 
L 125.852789 258.195409 
L 125.982677 258.1126 
L 126.437285 257.741914 
L 126.632116 257.681176 
L 126.891892 257.367478 
L 126.956836 257.365709 
L 127.216611 257.068473 
L 127.411443 257.046944 
L 127.736163 256.699113 
L 127.930994 256.679949 
L 128.060882 256.452164 
L 128.125826 256.485236 
L 128.515489 256.164515 
L 129.489648 255.457329 
L 129.684479 255.27226 
L 129.814367 255.18804 
L 130.074143 254.946513 
L 131.113245 254.174905 
L 131.502909 253.860848 
L 131.69774 253.795469 
L 131.957516 253.529857 
L 132.087404 253.469288 
L 132.347179 253.261285 
L 132.996618 252.778662 
L 133.126506 252.676997 
L 133.321338 252.562551 
L 135.789206 250.669089 
L 136.178869 250.402583 
L 136.308757 250.434978 
L 136.503589 250.105878 
L 136.568533 250.187863 
L 136.633477 250.132564 
L 136.828308 249.939404 
L 136.893252 249.989553 
L 137.153028 249.745864 
L 137.542691 249.474775 
L 138.451906 248.805774 
L 138.51685 248.861064 
L 138.711681 248.577321 
L 138.841569 248.63561 
L 139.036401 248.379111 
L 139.166289 248.380899 
L 139.296176 248.213075 
L 139.880671 247.858983 
L 140.075503 247.605819 
L 140.270335 247.501749 
L 140.53011 247.361209 
L 140.659998 247.229252 
L 140.789886 247.115068 
L 141.114605 246.825819 
L 141.569213 246.457844 
L 141.764044 246.297538 
L 141.828988 246.297495 
L 142.02382 246.04995 
L 142.153708 246.001067 
L 142.34854 245.783534 
L 142.478427 245.711678 
L 142.738203 245.480121 
L 142.933035 245.465798 
L 144.102025 244.397133 
L 144.946295 243.6514 
L 145.400903 243.202029 
L 145.465847 243.242189 
L 145.85551 242.837008 
L 146.440005 242.334518 
L 146.764725 241.975017 
L 146.959556 241.881869 
L 147.34922 241.507386 
L 147.479107 241.489304 
L 147.673939 241.254385 
L 147.738883 241.278856 
L 147.868771 240.983457 
L 147.933715 241.029504 
L 148.063603 240.948542 
L 148.19349 240.685595 
L 148.258434 240.801261 
L 148.323378 240.7085 
L 149.167649 239.949477 
L 149.232593 239.955984 
L 149.427424 239.690354 
L 149.557312 239.61658 
L 149.6872 239.477017 
L 149.817088 239.453395 
L 150.531471 238.748979 
L 151.700461 237.652504 
L 151.895293 237.474107 
L 152.609675 236.823924 
L 152.999339 236.488076 
L 153.259114 236.259215 
L 153.973497 235.555891 
L 154.038441 235.545964 
L 154.298217 235.233383 
L 154.752824 234.83778 
L 155.467207 234.166832 
L 155.597095 234.133608 
L 156.701141 233.049194 
L 156.766085 233.052395 
L 156.960917 232.807255 
L 157.155748 232.653759 
L 157.480468 232.3538 
L 158.194851 231.623709 
L 158.389682 231.590647 
L 158.909233 230.981145 
L 159.363841 230.594296 
L 159.623616 230.34729 
L 159.753504 230.249943 
L 160.467887 229.506906 
L 160.85755 229.192484 
L 161.442046 228.645538 
L 161.571933 228.604782 
L 161.766765 228.223243 
L 161.896653 228.265895 
L 162.091484 228.066877 
L 162.221372 227.9507 
L 162.416204 227.742497 
L 162.546092 227.666801 
L 162.740923 227.300573 
L 162.805867 227.335514 
L 163.52025 226.687178 
L 163.715082 226.517166 
L 163.84497 226.419832 
L 164.039801 226.202644 
L 164.494409 225.763016 
L 164.884072 225.329334 
L 165.01396 225.285871 
L 166.18295 224.126079 
L 166.312838 224.048667 
L 166.832389 223.504585 
L 167.027221 223.365065 
L 167.286996 223.112264 
L 167.416884 223.034671 
L 167.741604 222.645619 
L 167.936435 222.493247 
L 168.131267 222.24747 
L 168.261155 222.174732 
L 168.715762 221.696394 
L 168.910594 221.570751 
L 169.105425 221.339376 
L 169.300257 221.175791 
L 169.689921 220.735364 
L 169.884752 220.61457 
L 170.209472 220.255324 
L 171.18363 219.302805 
L 171.573294 218.958602 
L 172.157789 218.337744 
L 172.35262 218.233683 
L 172.67734 217.839041 
L 173.002059 217.514006 
L 173.391723 217.170209 
L 173.976218 216.557282 
L 174.235993 216.342347 
L 175.664759 214.915621 
L 175.859591 214.735302 
L 176.703861 213.909274 
L 176.833749 213.847716 
L 177.288357 213.292335 
L 178.067683 212.504885 
L 178.197571 212.450902 
L 178.457347 212.185366 
L 178.587235 212.072039 
L 178.911954 211.719844 
L 179.17173 211.475565 
L 179.301617 211.340595 
L 179.626337 210.985098 
L 180.080944 210.484649 
L 180.210832 210.447905 
L 180.990159 209.590318 
L 181.964317 208.610246 
L 182.353981 208.221406 
L 182.548812 208.083778 
L 182.808588 207.832717 
L 183.652859 206.940982 
L 183.84769 206.736766 
L 184.302298 206.203653 
L 184.497129 206.117325 
L 184.951737 205.620257 
L 185.601176 204.909957 
L 186.250614 204.290603 
L 186.83511 203.709528 
L 187.419605 203.119281 
L 187.874212 202.714282 
L 188.328819 202.082355 
L 188.523651 202.07138 
L 188.783427 201.666156 
L 189.562753 200.901418 
L 189.952417 200.517826 
L 190.277136 200.182146 
L 190.471968 200.082746 
L 191.251295 199.257629 
L 191.446126 199.063802 
L 191.576014 198.979358 
L 191.83579 198.724641 
L 192.290397 198.196894 
L 192.485229 198.059895 
L 193.00478 197.527849 
L 193.264555 197.259873 
L 194.368602 196.101922 
L 194.49849 196.048095 
L 195.018041 195.471031 
L 195.212872 195.271127 
L 195.472648 195.036975 
L 196.901414 193.545378 
L 197.096245 193.398128 
L 197.550853 192.874143 
L 198.070404 192.425393 
L 198.330179 192.125659 
L 198.460067 191.99528 
L 198.849731 191.551334 
L 199.044562 191.437484 
L 199.434226 191.039828 
L 200.018721 190.417561 
L 200.733104 189.737553 
L 200.798048 189.723752 
L 201.057823 189.329334 
L 201.187711 189.258605 
L 203.136028 187.347589 
L 203.265916 187.214253 
L 203.525691 186.937698 
L 203.980299 186.445534 
L 204.17513 186.287091 
L 205.084345 185.379196 
L 205.34412 185.152705 
L 205.928616 184.533657 
L 206.058503 184.466172 
L 206.318279 184.18631 
L 206.448167 184.055232 
L 206.642998 183.891274 
L 206.772886 183.729374 
L 206.902774 183.529713 
L 207.032662 183.573314 
L 207.357381 183.206524 
L 208.851091 181.713236 
L 209.17581 181.4403 
L 209.50053 181.130838 
L 209.630418 181.001184 
L 209.955137 180.65768 
L 210.149969 180.50736 
L 210.279857 180.401116 
L 210.474688 180.134431 
L 210.799408 179.881486 
L 211.903454 178.806175 
L 215.99492 174.903731 
L 216.124808 174.861964 
L 216.384583 174.564594 
L 216.514471 174.461083 
L 216.709303 174.255295 
L 216.83919 174.159395 
L 217.034022 173.920538 
L 217.16391 173.874205 
L 217.358742 173.620036 
L 217.553573 173.448553 
L 217.878293 173.16335 
L 218.397844 172.64382 
L 218.787507 172.298819 
L 219.047283 172.036365 
L 219.177171 171.976579 
L 220.021441 171.139488 
L 220.735824 170.500199 
L 220.930656 170.314552 
L 221.060544 170.242138 
L 221.320319 169.987433 
L 221.515151 169.736672 
L 224.567514 166.98164 
L 224.697402 166.921679 
L 224.957178 166.598616 
L 225.087065 166.553555 
L 225.67156 166.006247 
L 226.580775 165.156915 
L 227.230214 164.572433 
L 228.594036 163.372359 
L 228.788868 163.195248 
L 228.983699 163.02022 
L 229.763026 162.311337 
L 229.957858 162.168068 
L 230.412465 161.735902 
L 230.607297 161.608481 
L 230.802128 161.369624 
L 230.932016 161.360016 
L 231.191792 161.038362 
L 231.32168 161.01036 
L 231.646399 160.693598 
L 231.971119 160.372419 
L 232.880333 159.589287 
L 233.205053 159.322952 
L 234.438987 158.217093 
L 234.633818 158.078266 
L 235.088426 157.69176 
L 235.348201 157.40974 
L 235.543033 157.306702 
L 235.737865 157.105057 
L 235.932696 156.908042 
L 236.127528 156.839221 
L 236.387304 156.566809 
L 237.231574 155.881074 
L 237.556294 155.548814 
L 238.855172 154.43573 
L 239.050003 154.29593 
L 239.504611 153.870241 
L 243.141469 150.833313 
L 243.596076 150.472276 
L 244.635179 149.559714 
L 245.999001 148.462378 
L 246.258776 148.194721 
L 246.453608 148.079529 
L 246.778327 147.802499 
L 247.167991 147.48152 
L 247.752486 146.958359 
L 250.415186 144.801111 
L 251.064625 144.248887 
L 251.519232 143.951854 
L 252.233615 143.310019 
L 252.428446 143.192444 
L 257.104407 139.524513 
L 257.299239 139.345567 
L 257.623958 139.052952 
L 258.078566 138.683991 
L 258.273397 138.616356 
L 258.792948 138.19612 
L 258.98778 138.030302 
L 259.442387 137.687085 
L 259.832051 137.372133 
L 260.806209 136.623355 
L 261.910256 135.761581 
L 262.364863 135.390138 
L 262.689582 135.174541 
L 263.209133 134.741053 
L 263.403965 134.686421 
L 263.858572 134.297681 
L 264.443068 133.86423 
L 264.962619 133.477886 
L 265.806889 132.81676 
L 266.066665 132.632423 
L 267.365543 131.688252 
L 267.495431 131.636003 
L 268.079926 131.098828 
L 268.339701 130.972418 
L 268.599477 130.805527 
L 268.794309 130.619281 
L 268.98914 130.492034 
L 269.31386 130.250807 
L 271.262177 128.82418 
L 271.521952 128.626703 
L 273.470269 127.21575 
L 274.184652 126.695235 
L 274.509372 126.451661 
L 275.158811 126.001014 
L 275.353642 125.834135 
L 275.678362 125.639728 
L 276.262857 125.182243 
L 277.366903 124.459209 
L 277.756567 124.192125 
L 282.172752 121.05639 
L 282.367583 120.942059 
L 283.47163 120.200494 
L 283.861293 119.922267 
L 285.80961 118.607301 
L 286.004442 118.497225 
L 286.264217 118.257907 
L 286.523993 118.130186 
L 287.043544 117.796628 
L 287.887815 117.219122 
L 288.47231 116.78768 
L 288.797029 116.583377 
L 290.355683 115.54695 
L 290.615458 115.337531 
L 290.81029 115.253075 
L 291.329841 114.893461 
L 296.720185 111.361449 
L 297.109848 111.034941 
L 298.603558 110.076045 
L 298.798389 109.984176 
L 300.227155 109.041478 
L 301.266258 108.336488 
L 301.850753 107.995692 
L 302.045584 107.844611 
L 302.370304 107.660237 
L 303.864014 106.64732 
L 304.123789 106.539566 
L 304.448509 106.308571 
L 305.162891 105.852646 
L 305.357723 105.697497 
L 306.072106 105.238926 
L 306.331882 105.120489 
L 306.656601 104.908961 
L 309.319301 103.180361 
L 309.773908 102.908897 
L 311.007842 102.090026 
L 311.267618 101.951723 
L 311.657281 101.699289 
L 312.63144 101.040072 
L 313.605598 100.438394 
L 316.203354 98.791018 
L 334.712365 87.600792 
L 334.907197 87.477002 
L 336.920458 86.314041 
L 337.050345 86.244509 
L 337.310121 86.048816 
L 337.699784 85.868448 
L 338.219336 85.562667 
L 339.323382 84.911374 
L 339.907877 84.583181 
L 340.232596 84.418461 
L 340.687204 84.157155 
L 341.986082 83.406131 
L 343.025184 82.795818 
L 344.064286 82.214131 
L 344.713725 81.882071 
L 345.233276 81.556174 
L 350.039125 78.878274 
L 350.493732 78.613249 
L 350.688564 78.51886 
L 351.013283 78.35092 
L 352.377105 77.587891 
L 352.9616 77.239159 
L 355.494412 75.866466 
L 356.468571 75.352065 
L 356.728346 75.186246 
L 361.534195 72.635231 
L 361.858914 72.417151 
L 362.313522 72.18255 
L 363.352624 71.626295 
L 366.534875 69.933695 
L 366.924538 69.723602 
L 367.314202 69.5192 
L 367.703865 69.348789 
L 370.301621 67.929051 
L 370.496453 67.831791 
L 371.080948 67.527533 
L 372.704545 66.664025 
L 373.418928 66.279828 
L 373.678704 66.159907 
L 374.717806 65.588627 
L 375.107469 65.40474 
L 375.497133 65.239695 
L 376.925899 64.469978 
L 377.185674 64.328793 
L 377.44545 64.189854 
L 390.758949 57.43785 
L 391.473332 57.082304 
L 392.057827 56.781865 
L 393.031985 56.292746 
L 395.954461 54.823742 
L 397.253339 54.178088 
L 397.643002 53.985216 
L 398.487273 53.568 
L 398.487273 53.568 
" clip-path="url(#p57b4d4b037)" style="fill: none; stroke: #008000; stroke-width: 1.5; stroke-linecap: square"/>
   </g>
   <g id="line2d_17">
    <path d="M 73.832727 270.624867 
L 74.612054 270.596382 
L 75.456325 271.554849 
L 76.495427 273.154645 
L 77.404642 275.222986 
L 79.54779 280.464306 
L 80.327117 281.788185 
L 81.106444 282.702949 
L 82.015658 283.3368 
L 83.119705 283.687879 
L 84.483527 283.764466 
L 86.951395 283.390574 
L 88.055441 283.107826 
L 90.458365 282.356526 
L 92.081963 281.787639 
L 92.471626 281.623374 
L 93.121065 281.375187 
L 93.575672 281.169396 
L 93.70556 281.126175 
L 93.965336 281.063162 
L 94.290055 280.922593 
L 94.809606 280.729078 
L 96.563092 280.034978 
L 97.082643 279.810263 
L 97.277474 279.780835 
L 97.53725 279.635627 
L 97.602194 279.661356 
L 97.797026 279.52301 
L 97.991857 279.461727 
L 98.186689 279.435474 
L 98.381521 279.324912 
L 98.901072 279.104641 
L 99.160847 279.013735 
L 100.005118 278.709633 
L 100.19995 278.605101 
L 100.524669 278.495375 
L 100.979277 278.272299 
L 101.36894 278.131914 
L 101.953435 277.859606 
L 102.86265 277.465116 
L 103.122425 277.276034 
L 103.252313 277.224139 
L 103.512089 277.137597 
L 103.70692 276.982743 
L 103.901752 276.935222 
L 104.096584 276.786712 
L 104.226471 276.735596 
L 104.746023 276.492556 
L 105.005798 276.326627 
L 105.20063 276.275298 
L 105.460406 276.082242 
L 105.720181 275.998645 
L 106.239732 275.696095 
L 106.434564 275.634063 
L 106.759283 275.42007 
L 107.019059 275.309703 
L 107.278835 275.160537 
L 107.928274 274.781394 
L 108.123105 274.710965 
L 108.317937 274.529736 
L 108.447825 274.488852 
L 108.7076 274.361287 
L 118.449185 268.835398 
L 118.708961 268.844164 
L 118.903792 268.656174 
L 119.942895 267.93742 
L 120.072783 267.984758 
L 120.267614 267.756559 
L 120.397502 267.752815 
L 120.787165 267.457033 
L 121.176829 267.255625 
L 121.891212 266.736117 
L 121.956156 266.81795 
L 122.150987 266.63391 
L 123.384921 265.753315 
L 123.514809 265.734865 
L 123.774585 265.524881 
L 123.904473 265.420674 
L 124.294136 265.148031 
L 124.35908 265.202233 
L 124.553912 264.948411 
L 124.683799 264.937211 
L 124.813687 264.73941 
L 124.878631 264.77747 
L 125.268294 264.456765 
L 126.047621 263.919871 
L 126.307397 263.754389 
L 138.127186 255.31917 
L 138.257074 255.321217 
L 138.451906 255.155951 
L 138.51685 255.216414 
L 138.711681 254.920941 
L 138.841569 254.980605 
L 139.036401 254.741649 
L 139.166289 254.751335 
L 139.296176 254.593669 
L 140.53011 253.842133 
L 140.659998 253.70651 
L 140.85483 253.549742 
L 141.179549 253.314146 
L 141.309437 253.211735 
L 141.504269 253.069642 
L 142.02382 252.665442 
L 142.153708 252.630501 
L 142.34854 252.453286 
L 142.478427 252.405985 
L 142.738203 252.229972 
L 142.933035 252.222978 
L 143.322698 251.810678 
L 143.647417 251.490528 
L 143.907193 251.427255 
L 144.621576 250.811126 
L 144.881352 250.681238 
L 145.206071 250.413786 
L 145.530791 250.150477 
L 147.803827 248.348289 
L 147.868771 248.232645 
L 147.933715 248.29409 
L 148.063603 248.193748 
L 148.19349 247.951925 
L 148.258434 248.090271 
L 148.323378 247.992577 
L 148.972817 247.50937 
L 149.167649 247.319231 
L 149.232593 247.33872 
L 149.427424 247.098166 
L 149.882032 246.823248 
L 150.076863 246.611374 
L 150.206751 246.484586 
L 150.401583 246.37257 
L 151.570573 245.435996 
L 151.765405 245.165749 
L 151.830349 245.25875 
L 152.090124 244.943377 
L 152.220012 244.912769 
L 154.233273 243.302605 
L 154.428105 243.13051 
L 154.557992 243.098215 
L 154.817768 242.798386 
L 155.726982 242.180486 
L 156.051702 241.818564 
L 156.246534 241.775605 
L 156.376421 241.505914 
L 156.441365 241.594307 
L 156.701141 241.316479 
L 156.766085 241.364179 
L 156.960917 241.142494 
L 157.545412 240.699328 
L 157.805187 240.47134 
L 160.987438 237.941844 
L 161.052382 237.76837 
L 161.117326 237.865929 
L 161.247214 237.821261 
L 161.377102 237.582149 
L 161.442046 237.63086 
L 161.571933 237.600705 
L 161.766765 237.247998 
L 161.896653 237.324468 
L 162.091484 237.157283 
L 162.221372 237.061408 
L 162.35126 236.812506 
L 162.416204 236.87301 
L 162.546092 236.818958 
L 162.740923 236.471224 
L 162.805867 236.54035 
L 163.780026 235.814789 
L 163.909914 235.655828 
L 164.169689 235.470237 
L 164.559353 235.123482 
L 164.754184 235.100496 
L 165.01396 234.797186 
L 165.208792 234.620936 
L 165.598455 234.311774 
L 165.728343 234.278493 
L 165.988118 234.044234 
L 166.442726 233.657454 
L 166.637557 233.564755 
L 166.897333 233.322398 
L 167.027221 233.203357 
L 167.286996 233.015651 
L 167.416884 232.946206 
L 167.741604 232.613528 
L 167.936435 232.489451 
L 168.131267 232.283782 
L 168.196211 232.319427 
L 168.52093 232.035416 
L 171.313518 229.836858 
L 171.443406 229.767688 
L 171.638237 229.519909 
L 172.67734 228.687074 
L 172.807228 228.607272 
L 172.872172 228.628336 
L 173.131947 228.318419 
L 173.261835 228.290547 
L 173.521611 228.046169 
L 173.651498 227.928487 
L 174.885432 226.949975 
L 175.01532 226.779795 
L 175.080264 226.826803 
L 175.210152 226.726679 
L 175.924535 226.132526 
L 176.18431 225.889589 
L 176.638918 225.540101 
L 176.833749 225.477994 
L 177.3533 224.952144 
L 178.327459 224.210192 
L 178.457347 224.128169 
L 178.587235 224.030766 
L 179.106786 223.57567 
L 179.301617 223.459742 
L 179.561393 223.205761 
L 179.821169 223.023926 
L 180.080944 222.747839 
L 180.210832 222.738336 
L 181.120047 221.952478 
L 181.379822 221.789966 
L 181.704542 221.527344 
L 182.353981 220.947679 
L 182.548812 220.846962 
L 182.808588 220.645405 
L 183.00342 220.411565 
L 183.328139 220.195837 
L 183.458027 220.088819 
L 184.302298 219.354941 
L 184.497129 219.278408 
L 185.276456 218.567204 
L 185.406344 218.601172 
L 185.860951 218.136224 
L 186.120727 217.925295 
L 188.393763 216.061798 
L 188.523651 216.08197 
L 188.783427 215.714975 
L 189.108146 215.543791 
L 189.367922 215.330054 
L 189.497809 215.221095 
L 189.692641 215.036235 
L 189.822529 214.960825 
L 190.082304 214.778179 
L 190.277136 214.549486 
L 190.407024 214.476922 
L 190.601856 214.364145 
L 190.926575 214.066095 
L 196.51175 209.71593 
L 196.771526 209.424119 
L 196.966358 209.372576 
L 197.875572 208.611987 
L 198.135348 208.342756 
L 198.330179 208.272413 
L 198.395123 208.294894 
L 198.654899 207.93878 
L 198.784787 207.906791 
L 199.17445 207.533725 
L 199.369282 207.479704 
L 200.408384 206.675676 
L 200.733104 206.465689 
L 200.798048 206.467361 
L 201.057823 206.111023 
L 201.122767 206.163347 
L 201.187711 206.080082 
L 202.486589 205.05974 
L 202.616477 204.986633 
L 202.811308 204.862931 
L 202.876252 204.85273 
L 203.071084 204.62322 
L 203.200972 204.624761 
L 203.460747 204.348199 
L 203.590635 204.248806 
L 204.305018 203.715424 
L 204.49985 203.5644 
L 204.824569 203.320034 
L 205.279177 203.009162 
L 205.798728 202.607912 
L 206.318279 202.231346 
L 206.448167 202.128246 
L 206.578055 202.01774 
L 206.707942 202.019599 
L 206.902774 201.718523 
L 207.032662 201.796977 
L 207.422325 201.443372 
L 207.617157 201.287855 
L 207.682101 201.311022 
L 207.941876 201.032108 
L 208.00682 201.083764 
L 208.266596 200.762154 
L 208.396484 200.777491 
L 208.851091 200.376023 
L 209.110867 200.21982 
L 209.955137 199.580106 
L 210.149969 199.462275 
L 210.279857 199.405422 
L 210.474688 199.180248 
L 210.799408 199.000522 
L 211.124127 198.744744 
L 211.254015 198.65816 
L 211.513791 198.451156 
L 211.708622 198.310713 
L 211.903454 198.168592 
L 213.916715 196.672509 
L 214.111547 196.592351 
L 214.436266 196.321561 
L 214.82593 196.049898 
L 215.215593 195.754886 
L 215.800088 195.291025 
L 220.800768 191.724771 
L 221.255375 191.4024 
L 221.385263 191.395343 
L 221.904814 190.944553 
L 222.034702 190.943473 
L 222.359422 190.676209 
L 223.073805 190.157665 
L 223.268636 189.993257 
L 223.463468 189.913742 
L 223.983019 189.556099 
L 234.503931 182.416878 
L 234.698762 182.267382 
L 235.023482 182.056042 
L 235.218313 181.968116 
L 235.478089 181.718515 
L 235.607977 181.733664 
L 236.062584 181.449647 
L 237.101687 180.698099 
L 237.231574 180.659352 
L 237.49135 180.424139 
L 238.010901 180.13805 
L 238.270677 179.963085 
L 239.050003 179.442831 
L 239.504611 179.124672 
L 240.283938 178.611693 
L 240.413825 178.592626 
L 241.32304 177.96025 
L 241.842591 177.685554 
L 242.167311 177.463095 
L 242.362142 177.282901 
L 244.440347 175.98558 
L 244.635179 175.874157 
L 246.063944 174.947793 
L 246.258776 174.857883 
L 246.388664 174.811849 
L 247.81743 173.881567 
L 248.272037 173.612749 
L 249.181252 173.020156 
L 249.376083 172.950199 
L 249.830691 172.635122 
L 249.960578 172.601829 
L 252.49339 171.068284 
L 252.753166 170.887566 
L 252.947998 170.777204 
L 255.091146 169.474966 
L 255.221034 169.449085 
L 255.350922 169.386829 
L 257.039463 168.356204 
L 257.169351 168.367635 
L 257.429127 168.119132 
L 257.623958 168.021461 
L 258.013622 167.802682 
L 258.273397 167.721146 
L 268.534533 161.872532 
L 268.729365 161.812547 
L 268.98914 161.641675 
L 269.31386 161.461593 
L 270.872513 160.569596 
L 271.067345 160.52179 
L 271.197233 160.478164 
L 271.521952 160.257464 
L 272.431167 159.710194 
L 273.14555 159.361598 
L 273.470269 159.204465 
L 274.184652 158.806766 
L 274.509372 158.633598 
L 274.834091 158.475005 
L 275.093867 158.330313 
L 277.107128 157.251209 
L 277.431847 157.099691 
L 277.886454 156.852786 
L 278.211174 156.654098 
L 278.406006 156.609724 
L 278.665781 156.398508 
L 278.925557 156.327815 
L 284.186012 153.600237 
L 284.445788 153.462458 
L 285.030283 153.168895 
L 285.355003 153.050346 
L 285.614778 152.810641 
L 285.80961 152.781977 
L 286.004442 152.710274 
L 286.264217 152.51694 
L 286.459049 152.471355 
L 288.602198 151.397941 
L 288.732085 151.347701 
L 289.056805 151.144609 
L 290.290739 150.583512 
L 290.615458 150.350807 
L 290.81029 150.285319 
L 291.264897 150.049519 
L 295.746026 147.791818 
L 295.940858 147.745509 
L 296.13569 147.664671 
L 296.590297 147.405748 
L 296.915016 147.279925 
L 297.824231 146.833858 
L 298.863333 146.347846 
L 299.188053 146.186745 
L 299.382885 146.07919 
L 300.032324 145.749051 
L 300.551875 145.50947 
L 307.176152 142.346956 
L 307.695704 142.067019 
L 307.955479 142.012312 
L 308.345142 141.801507 
L 308.79975 141.597828 
L 310.488291 140.769735 
L 310.877954 140.582404 
L 311.657281 140.234682 
L 314.514813 138.868366 
L 314.904476 138.685464 
L 315.943579 138.165847 
L 316.333242 138.015839 
L 317.112569 137.651758 
L 318.086727 137.174244 
L 318.476391 137.01736 
L 318.80111 136.844629 
L 325.360444 133.891484 
L 325.620219 133.749275 
L 325.944939 133.629604 
L 328.088087 132.660088 
L 329.451909 132.042238 
L 330.101348 131.728296 
L 330.361124 131.673814 
L 330.880675 131.38191 
L 331.335282 131.189649 
L 334.257758 129.930925 
L 334.452589 129.854417 
L 335.166972 129.504911 
L 335.491692 129.395297 
L 336.141131 129.102882 
L 336.920458 128.784473 
L 337.050345 128.739362 
L 337.310121 128.582666 
L 337.699784 128.452175 
L 338.154392 128.235767 
L 338.479111 128.117668 
L 338.738887 128.009128 
L 339.323382 127.74454 
L 339.907877 127.496823 
L 340.167652 127.388045 
L 340.362484 127.286368 
L 341.726306 126.725047 
L 342.115969 126.529853 
L 342.440689 126.428363 
L 347.766088 124.22165 
L 359.326102 119.530358 
L 360.170373 119.175985 
L 360.884756 118.900765 
L 361.664083 118.6079 
L 361.988802 118.438675 
L 362.183634 118.353769 
L 364.391726 117.512137 
L 364.651502 117.406666 
L 366.534875 116.6655 
L 366.859594 116.528533 
L 367.314202 116.351958 
L 368.028585 116.049534 
L 368.418248 115.906577 
L 368.937799 115.691629 
L 370.171733 115.215601 
L 371.27578 114.808954 
L 371.665443 114.639193 
L 376.211516 112.914972 
L 376.471291 112.80728 
L 376.990843 112.62605 
L 377.44545 112.435025 
L 381.861635 110.774246 
L 382.705906 110.451432 
L 383.160513 110.276567 
L 383.809952 110.023821 
L 384.004784 109.958046 
L 385.10883 109.531283 
L 386.472652 109.038932 
L 387.187034 108.783566 
L 390.239398 107.640408 
L 390.499173 107.547391 
L 390.888837 107.43502 
L 394.655583 106.03662 
L 395.045246 105.897532 
L 396.344124 105.411844 
L 397.188395 105.099825 
L 398.487273 104.621812 
L 398.487273 104.621812 
" clip-path="url(#p57b4d4b037)" style="fill: none; stroke: #ff0000; stroke-width: 1.5; stroke-linecap: square"/>
   </g>
   <g id="patch_3">
    <path d="M 57.6 307.584 
L 57.6 41.472 
" style="fill: none; stroke: #000000; stroke-width: 0.8; stroke-linejoin: miter; stroke-linecap: square"/>
   </g>
   <g id="patch_4">
    <path d="M 414.72 307.584 
L 414.72 41.472 
" style="fill: none; stroke: #000000; stroke-width: 0.8; stroke-linejoin: miter; stroke-linecap: square"/>
   </g>
   <g id="patch_5">
    <path d="M 57.6 307.584 
L 414.72 307.584 
" style="fill: none; stroke: #000000; stroke-width: 0.8; stroke-linejoin: miter; stroke-linecap: square"/>
   </g>
   <g id="patch_6">
    <path d="M 57.6 41.472 
L 414.72 41.472 
" style="fill: none; stroke: #000000; stroke-width: 0.8; stroke-linejoin: miter; stroke-linecap: square"/>
   </g>
   <g id="text_17">
    <!-- Script19_loss -->
    <g transform="translate(196.532813 35.472) scale(0.12 -0.12)">
     <defs>
      <path id="DejaVuSans-53" d="M 3425 4513 
L 3425 3897 
Q 3066 4069 2747 4153 
Q 2428 4238 2131 4238 
Q 1616 4238 1336 4038 
Q 1056 3838 1056 3469 
Q 1056 3159 1242 3001 
Q 1428 2844 1947 2747 
L 2328 2669 
Q 3034 2534 3370 2195 
Q 3706 1856 3706 1288 
Q 3706 609 3251 259 
Q 2797 -91 1919 -91 
Q 1588 -91 1214 -16 
Q 841 59 441 206 
L 441 856 
Q 825 641 1194 531 
Q 1563 422 1919 422 
Q 2459 422 2753 634 
Q 3047 847 3047 1241 
Q 3047 1584 2836 1778 
Q 2625 1972 2144 2069 
L 1759 2144 
Q 1053 2284 737 2584 
Q 422 2884 422 3419 
Q 422 4038 858 4394 
Q 1294 4750 2059 4750 
Q 2388 4750 2728 4690 
Q 3069 4631 3425 4513 
z
" transform="scale(0.015625)"/>
      <path id="DejaVuSans-72" d="M 2631 2963 
Q 2534 3019 2420 3045 
Q 2306 3072 2169 3072 
Q 1681 3072 1420 2755 
Q 1159 2438 1159 1844 
L 1159 0 
L 581 0 
L 581 3500 
L 1159 3500 
L 1159 2956 
Q 1341 3275 1631 3429 
Q 1922 3584 2338 3584 
Q 2397 3584 2469 3576 
Q 2541 3569 2628 3553 
L 2631 2963 
z
" transform="scale(0.015625)"/>
      <path id="DejaVuSans-69" d="M 603 3500 
L 1178 3500 
L 1178 0 
L 603 0 
L 603 3500 
z
M 603 4863 
L 1178 4863 
L 1178 4134 
L 603 4134 
L 603 4863 
z
" transform="scale(0.015625)"/>
      <path id="DejaVuSans-74" d="M 1172 4494 
L 1172 3500 
L 2356 3500 
L 2356 3053 
L 1172 3053 
L 1172 1153 
Q 1172 725 1289 603 
Q 1406 481 1766 481 
L 2356 481 
L 2356 0 
L 1766 0 
Q 1100 0 847 248 
Q 594 497 594 1153 
L 594 3053 
L 172 3053 
L 172 3500 
L 594 3500 
L 594 4494 
L 1172 4494 
z
" transform="scale(0.015625)"/>
      <path id="DejaVuSans-39" d="M 703 97 
L 703 672 
Q 941 559 1184 500 
Q 1428 441 1663 441 
Q 2288 441 2617 861 
Q 2947 1281 2994 2138 
Q 2813 1869 2534 1725 
Q 2256 1581 1919 1581 
Q 1219 1581 811 2004 
Q 403 2428 403 3163 
Q 403 3881 828 4315 
Q 1253 4750 1959 4750 
Q 2769 4750 3195 4129 
Q 3622 3509 3622 2328 
Q 3622 1225 3098 567 
Q 2575 -91 1691 -91 
Q 1453 -91 1209 -44 
Q 966 3 703 97 
z
M 1959 2075 
Q 2384 2075 2632 2365 
Q 2881 2656 2881 3163 
Q 2881 3666 2632 3958 
Q 2384 4250 1959 4250 
Q 1534 4250 1286 3958 
Q 1038 3666 1038 3163 
Q 1038 2656 1286 2365 
Q 1534 2075 1959 2075 
z
" transform="scale(0.015625)"/>
      <path id="DejaVuSans-5f" d="M 3263 -1063 
L 3263 -1509 
L -63 -1509 
L -63 -1063 
L 3263 -1063 
z
" transform="scale(0.015625)"/>
     </defs>
     <use xlink:href="#DejaVuSans-53"/>
     <use xlink:href="#DejaVuSans-63" x="63.476562"/>
     <use xlink:href="#DejaVuSans-72" x="118.457031"/>
     <use xlink:href="#DejaVuSans-69" x="159.570312"/>
     <use xlink:href="#DejaVuSans-70" x="187.353516"/>
     <use xlink:href="#DejaVuSans-74" x="250.830078"/>
     <use xlink:href="#DejaVuSans-31" x="290.039062"/>
     <use xlink:href="#DejaVuSans-39" x="353.662109"/>
     <use xlink:href="#DejaVuSans-5f" x="417.285156"/>
     <use xlink:href="#DejaVuSans-6c" x="467.285156"/>
     <use xlink:href="#DejaVuSans-6f" x="495.068359"/>
     <use xlink:href="#DejaVuSans-73" x="556.25"/>
     <use xlink:href="#DejaVuSans-73" x="608.349609"/>
    </g>
   </g>
   <g id="legend_1">
    <g id="patch_7">
     <path d="M 64.6 93.506375 
L 164.295312 93.506375 
Q 166.295312 93.506375 166.295312 91.506375 
L 166.295312 48.472 
Q 166.295312 46.472 164.295312 46.472 
L 64.6 46.472 
Q 62.6 46.472 62.6 48.472 
L 62.6 91.506375 
Q 62.6 93.506375 64.6 93.506375 
z
" style="fill: #ffffff; opacity: 0.8; stroke: #cccccc; stroke-linejoin: miter"/>
    </g>
    <g id="line2d_18">
     <path d="M 66.6 54.570438 
L 76.6 54.570438 
L 86.6 54.570438 
" style="fill: none; stroke: #0000ff; stroke-width: 1.5; stroke-linecap: square"/>
    </g>
    <g id="text_18">
     <!-- training set -->
     <g transform="translate(94.6 58.070438) scale(0.1 -0.1)">
      <defs>
       <path id="DejaVuSans-61" d="M 2194 1759 
Q 1497 1759 1228 1600 
Q 959 1441 959 1056 
Q 959 750 1161 570 
Q 1363 391 1709 391 
Q 2188 391 2477 730 
Q 2766 1069 2766 1631 
L 2766 1759 
L 2194 1759 
z
M 3341 1997 
L 3341 0 
L 2766 0 
L 2766 531 
Q 2569 213 2275 61 
Q 1981 -91 1556 -91 
Q 1019 -91 701 211 
Q 384 513 384 1019 
Q 384 1609 779 1909 
Q 1175 2209 1959 2209 
L 2766 2209 
L 2766 2266 
Q 2766 2663 2505 2880 
Q 2244 3097 1772 3097 
Q 1472 3097 1187 3025 
Q 903 2953 641 2809 
L 641 3341 
Q 956 3463 1253 3523 
Q 1550 3584 1831 3584 
Q 2591 3584 2966 3190 
Q 3341 2797 3341 1997 
z
" transform="scale(0.015625)"/>
       <path id="DejaVuSans-6e" d="M 3513 2113 
L 3513 0 
L 2938 0 
L 2938 2094 
Q 2938 2591 2744 2837 
Q 2550 3084 2163 3084 
Q 1697 3084 1428 2787 
Q 1159 2491 1159 1978 
L 1159 0 
L 581 0 
L 581 3500 
L 1159 3500 
L 1159 2956 
Q 1366 3272 1645 3428 
Q 1925 3584 2291 3584 
Q 2894 3584 3203 3211 
Q 3513 2838 3513 2113 
z
" transform="scale(0.015625)"/>
       <path id="DejaVuSans-67" d="M 2906 1791 
Q 2906 2416 2648 2759 
Q 2391 3103 1925 3103 
Q 1463 3103 1205 2759 
Q 947 2416 947 1791 
Q 947 1169 1205 825 
Q 1463 481 1925 481 
Q 2391 481 2648 825 
Q 2906 1169 2906 1791 
z
M 3481 434 
Q 3481 -459 3084 -895 
Q 2688 -1331 1869 -1331 
Q 1566 -1331 1297 -1286 
Q 1028 -1241 775 -1147 
L 775 -588 
Q 1028 -725 1275 -790 
Q 1522 -856 1778 -856 
Q 2344 -856 2625 -561 
Q 2906 -266 2906 331 
L 2906 616 
Q 2728 306 2450 153 
Q 2172 0 1784 0 
Q 1141 0 747 490 
Q 353 981 353 1791 
Q 353 2603 747 3093 
Q 1141 3584 1784 3584 
Q 2172 3584 2450 3431 
Q 2728 3278 2906 2969 
L 2906 3500 
L 3481 3500 
L 3481 434 
z
" transform="scale(0.015625)"/>
       <path id="DejaVuSans-20" transform="scale(0.015625)"/>
      </defs>
      <use xlink:href="#DejaVuSans-74"/>
      <use xlink:href="#DejaVuSans-72" x="39.208984"/>
      <use xlink:href="#DejaVuSans-61" x="80.322266"/>
      <use xlink:href="#DejaVuSans-69" x="141.601562"/>
      <use xlink:href="#DejaVuSans-6e" x="169.384766"/>
      <use xlink:href="#DejaVuSans-69" x="232.763672"/>
      <use xlink:href="#DejaVuSans-6e" x="260.546875"/>
      <use xlink:href="#DejaVuSans-67" x="323.925781"/>
      <use xlink:href="#DejaVuSans-20" x="387.402344"/>
      <use xlink:href="#DejaVuSans-73" x="419.189453"/>
      <use xlink:href="#DejaVuSans-65" x="471.289062"/>
      <use xlink:href="#DejaVuSans-74" x="532.8125"/>
     </g>
    </g>
    <g id="line2d_19">
     <path d="M 66.6 69.248563 
L 76.6 69.248563 
L 86.6 69.248563 
" style="fill: none; stroke: #008000; stroke-width: 1.5; stroke-linecap: square"/>
    </g>
    <g id="text_19">
     <!-- validation set -->
     <g transform="translate(94.6 72.748563) scale(0.1 -0.1)">
      <defs>
       <path id="DejaVuSans-76" d="M 191 3500 
L 800 3500 
L 1894 563 
L 2988 3500 
L 3597 3500 
L 2284 0 
L 1503 0 
L 191 3500 
z
" transform="scale(0.015625)"/>
       <path id="DejaVuSans-64" d="M 2906 2969 
L 2906 4863 
L 3481 4863 
L 3481 0 
L 2906 0 
L 2906 525 
Q 2725 213 2448 61 
Q 2172 -91 1784 -91 
Q 1150 -91 751 415 
Q 353 922 353 1747 
Q 353 2572 751 3078 
Q 1150 3584 1784 3584 
Q 2172 3584 2448 3432 
Q 2725 3281 2906 2969 
z
M 947 1747 
Q 947 1113 1208 752 
Q 1469 391 1925 391 
Q 2381 391 2643 752 
Q 2906 1113 2906 1747 
Q 2906 2381 2643 2742 
Q 2381 3103 1925 3103 
Q 1469 3103 1208 2742 
Q 947 2381 947 1747 
z
" transform="scale(0.015625)"/>
      </defs>
      <use xlink:href="#DejaVuSans-76"/>
      <use xlink:href="#DejaVuSans-61" x="59.179688"/>
      <use xlink:href="#DejaVuSans-6c" x="120.458984"/>
      <use xlink:href="#DejaVuSans-69" x="148.242188"/>
      <use xlink:href="#DejaVuSans-64" x="176.025391"/>
      <use xlink:href="#DejaVuSans-61" x="239.501953"/>
      <use xlink:href="#DejaVuSans-74" x="300.78125"/>
      <use xlink:href="#DejaVuSans-69" x="339.990234"/>
      <use xlink:href="#DejaVuSans-6f" x="367.773438"/>
      <use xlink:href="#DejaVuSans-6e" x="428.955078"/>
      <use xlink:href="#DejaVuSans-20" x="492.333984"/>
      <use xlink:href="#DejaVuSans-73" x="524.121094"/>
      <use xlink:href="#DejaVuSans-65" x="576.220703"/>
      <use xlink:href="#DejaVuSans-74" x="637.744141"/>
     </g>
    </g>
    <g id="line2d_20">
     <path d="M 66.6 83.926688 
L 76.6 83.926688 
L 86.6 83.926688 
" style="fill: none; stroke: #ff0000; stroke-width: 1.5; stroke-linecap: square"/>
    </g>
    <g id="text_20">
     <!-- test set -->
     <g transform="translate(94.6 87.426688) scale(0.1 -0.1)">
      <use xlink:href="#DejaVuSans-74"/>
      <use xlink:href="#DejaVuSans-65" x="39.208984"/>
      <use xlink:href="#DejaVuSans-73" x="100.732422"/>
      <use xlink:href="#DejaVuSans-74" x="152.832031"/>
      <use xlink:href="#DejaVuSans-20" x="192.041016"/>
      <use xlink:href="#DejaVuSans-73" x="223.828125"/>
      <use xlink:href="#DejaVuSans-65" x="275.927734"/>
      <use xlink:href="#DejaVuSans-74" x="337.451172"/>
     </g>
    </g>
   </g>
  </g>
 </g>
 <defs>
  <clipPath id="p57b4d4b037">
   <rect x="57.6" y="41.472" width="357.12" height="266.112"/>
  </clipPath>
 </defs>
</svg>
