<?xml version="1.0" encoding="utf-8" standalone="no"?>
<!DOCTYPE svg PUBLIC "-//W3C//DTD SVG 1.1//EN"
  "http://www.w3.org/Graphics/SVG/1.1/DTD/svg11.dtd">
<svg xmlns:xlink="http://www.w3.org/1999/xlink" width="460.8pt" height="345.6pt" viewBox="0 0 460.8 345.6" xmlns="http://www.w3.org/2000/svg" version="1.1">
 <metadata>
  <rdf:RDF xmlns:dc="http://purl.org/dc/elements/1.1/" xmlns:cc="http://creativecommons.org/ns#" xmlns:rdf="http://www.w3.org/1999/02/22-rdf-syntax-ns#">
   <cc:Work>
    <dc:type rdf:resource="http://purl.org/dc/dcmitype/StillImage"/>
    <dc:date>2023-06-14T03:56:02.005124</dc:date>
    <dc:format>image/svg+xml</dc:format>
    <dc:creator>
     <cc:Agent>
      <dc:title>Matplotlib v3.7.1, https://matplotlib.org/</dc:title>
     </cc:Agent>
    </dc:creator>
   </cc:Work>
  </rdf:RDF>
 </metadata>
 <defs>
  <style type="text/css">*{stroke-linejoin: round; stroke-linecap: butt}</style>
 </defs>
 <g id="figure_1">
  <g id="patch_1">
   <path d="M 0 345.6 
L 460.8 345.6 
L 460.8 0 
L 0 0 
z
" style="fill: #ffffff"/>
  </g>
  <g id="axes_1">
   <g id="patch_2">
    <path d="M 57.6 307.584 
L 414.72 307.584 
L 414.72 41.472 
L 57.6 41.472 
z
" style="fill: #ffffff"/>
   </g>
   <g id="matplotlib.axis_1">
    <g id="xtick_1">
     <g id="line2d_1">
      <defs>
       <path id="mced2ec73f4" d="M 0 0 
L 0 3.5 
" style="stroke: #000000; stroke-width: 0.8"/>
      </defs>
      <g>
       <use xlink:href="#mced2ec73f4" x="73.767783" y="307.584" style="stroke: #000000; stroke-width: 0.8"/>
      </g>
     </g>
     <g id="text_1">
      <!-- 0 -->
      <g transform="translate(70.586533 322.182437) scale(0.1 -0.1)">
       <defs>
        <path id="DejaVuSans-30" d="M 2034 4250 
Q 1547 4250 1301 3770 
Q 1056 3291 1056 2328 
Q 1056 1369 1301 889 
Q 1547 409 2034 409 
Q 2525 409 2770 889 
Q 3016 1369 3016 2328 
Q 3016 3291 2770 3770 
Q 2525 4250 2034 4250 
z
M 2034 4750 
Q 2819 4750 3233 4129 
Q 3647 3509 3647 2328 
Q 3647 1150 3233 529 
Q 2819 -91 2034 -91 
Q 1250 -91 836 529 
Q 422 1150 422 2328 
Q 422 3509 836 4129 
Q 1250 4750 2034 4750 
z
" transform="scale(0.015625)"/>
       </defs>
       <use xlink:href="#DejaVuSans-30"/>
      </g>
     </g>
    </g>
    <g id="xtick_2">
     <g id="line2d_2">
      <g>
       <use xlink:href="#mced2ec73f4" x="138.711681" y="307.584" style="stroke: #000000; stroke-width: 0.8"/>
      </g>
     </g>
     <g id="text_2">
      <!-- 1000 -->
      <g transform="translate(125.986681 322.182437) scale(0.1 -0.1)">
       <defs>
        <path id="DejaVuSans-31" d="M 794 531 
L 1825 531 
L 1825 4091 
L 703 3866 
L 703 4441 
L 1819 4666 
L 2450 4666 
L 2450 531 
L 3481 531 
L 3481 0 
L 794 0 
L 794 531 
z
" transform="scale(0.015625)"/>
       </defs>
       <use xlink:href="#DejaVuSans-31"/>
       <use xlink:href="#DejaVuSans-30" x="63.623047"/>
       <use xlink:href="#DejaVuSans-30" x="127.246094"/>
       <use xlink:href="#DejaVuSans-30" x="190.869141"/>
      </g>
     </g>
    </g>
    <g id="xtick_3">
     <g id="line2d_3">
      <g>
       <use xlink:href="#mced2ec73f4" x="203.655579" y="307.584" style="stroke: #000000; stroke-width: 0.8"/>
      </g>
     </g>
     <g id="text_3">
      <!-- 2000 -->
      <g transform="translate(190.930579 322.182437) scale(0.1 -0.1)">
       <defs>
        <path id="DejaVuSans-32" d="M 1228 531 
L 3431 531 
L 3431 0 
L 469 0 
L 469 531 
Q 828 903 1448 1529 
Q 2069 2156 2228 2338 
Q 2531 2678 2651 2914 
Q 2772 3150 2772 3378 
Q 2772 3750 2511 3984 
Q 2250 4219 1831 4219 
Q 1534 4219 1204 4116 
Q 875 4013 500 3803 
L 500 4441 
Q 881 4594 1212 4672 
Q 1544 4750 1819 4750 
Q 2544 4750 2975 4387 
Q 3406 4025 3406 3419 
Q 3406 3131 3298 2873 
Q 3191 2616 2906 2266 
Q 2828 2175 2409 1742 
Q 1991 1309 1228 531 
z
" transform="scale(0.015625)"/>
       </defs>
       <use xlink:href="#DejaVuSans-32"/>
       <use xlink:href="#DejaVuSans-30" x="63.623047"/>
       <use xlink:href="#DejaVuSans-30" x="127.246094"/>
       <use xlink:href="#DejaVuSans-30" x="190.869141"/>
      </g>
     </g>
    </g>
    <g id="xtick_4">
     <g id="line2d_4">
      <g>
       <use xlink:href="#mced2ec73f4" x="268.599477" y="307.584" style="stroke: #000000; stroke-width: 0.8"/>
      </g>
     </g>
     <g id="text_4">
      <!-- 3000 -->
      <g transform="translate(255.874477 322.182437) scale(0.1 -0.1)">
       <defs>
        <path id="DejaVuSans-33" d="M 2597 2516 
Q 3050 2419 3304 2112 
Q 3559 1806 3559 1356 
Q 3559 666 3084 287 
Q 2609 -91 1734 -91 
Q 1441 -91 1130 -33 
Q 819 25 488 141 
L 488 750 
Q 750 597 1062 519 
Q 1375 441 1716 441 
Q 2309 441 2620 675 
Q 2931 909 2931 1356 
Q 2931 1769 2642 2001 
Q 2353 2234 1838 2234 
L 1294 2234 
L 1294 2753 
L 1863 2753 
Q 2328 2753 2575 2939 
Q 2822 3125 2822 3475 
Q 2822 3834 2567 4026 
Q 2313 4219 1838 4219 
Q 1578 4219 1281 4162 
Q 984 4106 628 3988 
L 628 4550 
Q 988 4650 1302 4700 
Q 1616 4750 1894 4750 
Q 2613 4750 3031 4423 
Q 3450 4097 3450 3541 
Q 3450 3153 3228 2886 
Q 3006 2619 2597 2516 
z
" transform="scale(0.015625)"/>
       </defs>
       <use xlink:href="#DejaVuSans-33"/>
       <use xlink:href="#DejaVuSans-30" x="63.623047"/>
       <use xlink:href="#DejaVuSans-30" x="127.246094"/>
       <use xlink:href="#DejaVuSans-30" x="190.869141"/>
      </g>
     </g>
    </g>
    <g id="xtick_5">
     <g id="line2d_5">
      <g>
       <use xlink:href="#mced2ec73f4" x="333.543375" y="307.584" style="stroke: #000000; stroke-width: 0.8"/>
      </g>
     </g>
     <g id="text_5">
      <!-- 4000 -->
      <g transform="translate(320.818375 322.182437) scale(0.1 -0.1)">
       <defs>
        <path id="DejaVuSans-34" d="M 2419 4116 
L 825 1625 
L 2419 1625 
L 2419 4116 
z
M 2253 4666 
L 3047 4666 
L 3047 1625 
L 3713 1625 
L 3713 1100 
L 3047 1100 
L 3047 0 
L 2419 0 
L 2419 1100 
L 313 1100 
L 313 1709 
L 2253 4666 
z
" transform="scale(0.015625)"/>
       </defs>
       <use xlink:href="#DejaVuSans-34"/>
       <use xlink:href="#DejaVuSans-30" x="63.623047"/>
       <use xlink:href="#DejaVuSans-30" x="127.246094"/>
       <use xlink:href="#DejaVuSans-30" x="190.869141"/>
      </g>
     </g>
    </g>
    <g id="xtick_6">
     <g id="line2d_6">
      <g>
       <use xlink:href="#mced2ec73f4" x="398.487273" y="307.584" style="stroke: #000000; stroke-width: 0.8"/>
      </g>
     </g>
     <g id="text_6">
      <!-- 5000 -->
      <g transform="translate(385.762273 322.182437) scale(0.1 -0.1)">
       <defs>
        <path id="DejaVuSans-35" d="M 691 4666 
L 3169 4666 
L 3169 4134 
L 1269 4134 
L 1269 2991 
Q 1406 3038 1543 3061 
Q 1681 3084 1819 3084 
Q 2600 3084 3056 2656 
Q 3513 2228 3513 1497 
Q 3513 744 3044 326 
Q 2575 -91 1722 -91 
Q 1428 -91 1123 -41 
Q 819 9 494 109 
L 494 744 
Q 775 591 1075 516 
Q 1375 441 1709 441 
Q 2250 441 2565 725 
Q 2881 1009 2881 1497 
Q 2881 1984 2565 2268 
Q 2250 2553 1709 2553 
Q 1456 2553 1204 2497 
Q 953 2441 691 2322 
L 691 4666 
z
" transform="scale(0.015625)"/>
       </defs>
       <use xlink:href="#DejaVuSans-35"/>
       <use xlink:href="#DejaVuSans-30" x="63.623047"/>
       <use xlink:href="#DejaVuSans-30" x="127.246094"/>
       <use xlink:href="#DejaVuSans-30" x="190.869141"/>
      </g>
     </g>
    </g>
    <g id="text_7">
     <!-- epoch -->
     <g transform="translate(220.931875 335.860562) scale(0.1 -0.1)">
      <defs>
       <path id="DejaVuSans-65" d="M 3597 1894 
L 3597 1613 
L 953 1613 
Q 991 1019 1311 708 
Q 1631 397 2203 397 
Q 2534 397 2845 478 
Q 3156 559 3463 722 
L 3463 178 
Q 3153 47 2828 -22 
Q 2503 -91 2169 -91 
Q 1331 -91 842 396 
Q 353 884 353 1716 
Q 353 2575 817 3079 
Q 1281 3584 2069 3584 
Q 2775 3584 3186 3129 
Q 3597 2675 3597 1894 
z
M 3022 2063 
Q 3016 2534 2758 2815 
Q 2500 3097 2075 3097 
Q 1594 3097 1305 2825 
Q 1016 2553 972 2059 
L 3022 2063 
z
" transform="scale(0.015625)"/>
       <path id="DejaVuSans-70" d="M 1159 525 
L 1159 -1331 
L 581 -1331 
L 581 3500 
L 1159 3500 
L 1159 2969 
Q 1341 3281 1617 3432 
Q 1894 3584 2278 3584 
Q 2916 3584 3314 3078 
Q 3713 2572 3713 1747 
Q 3713 922 3314 415 
Q 2916 -91 2278 -91 
Q 1894 -91 1617 61 
Q 1341 213 1159 525 
z
M 3116 1747 
Q 3116 2381 2855 2742 
Q 2594 3103 2138 3103 
Q 1681 3103 1420 2742 
Q 1159 2381 1159 1747 
Q 1159 1113 1420 752 
Q 1681 391 2138 391 
Q 2594 391 2855 752 
Q 3116 1113 3116 1747 
z
" transform="scale(0.015625)"/>
       <path id="DejaVuSans-6f" d="M 1959 3097 
Q 1497 3097 1228 2736 
Q 959 2375 959 1747 
Q 959 1119 1226 758 
Q 1494 397 1959 397 
Q 2419 397 2687 759 
Q 2956 1122 2956 1747 
Q 2956 2369 2687 2733 
Q 2419 3097 1959 3097 
z
M 1959 3584 
Q 2709 3584 3137 3096 
Q 3566 2609 3566 1747 
Q 3566 888 3137 398 
Q 2709 -91 1959 -91 
Q 1206 -91 779 398 
Q 353 888 353 1747 
Q 353 2609 779 3096 
Q 1206 3584 1959 3584 
z
" transform="scale(0.015625)"/>
       <path id="DejaVuSans-63" d="M 3122 3366 
L 3122 2828 
Q 2878 2963 2633 3030 
Q 2388 3097 2138 3097 
Q 1578 3097 1268 2742 
Q 959 2388 959 1747 
Q 959 1106 1268 751 
Q 1578 397 2138 397 
Q 2388 397 2633 464 
Q 2878 531 3122 666 
L 3122 134 
Q 2881 22 2623 -34 
Q 2366 -91 2075 -91 
Q 1284 -91 818 406 
Q 353 903 353 1747 
Q 353 2603 823 3093 
Q 1294 3584 2113 3584 
Q 2378 3584 2631 3529 
Q 2884 3475 3122 3366 
z
" transform="scale(0.015625)"/>
       <path id="DejaVuSans-68" d="M 3513 2113 
L 3513 0 
L 2938 0 
L 2938 2094 
Q 2938 2591 2744 2837 
Q 2550 3084 2163 3084 
Q 1697 3084 1428 2787 
Q 1159 2491 1159 1978 
L 1159 0 
L 581 0 
L 581 4863 
L 1159 4863 
L 1159 2956 
Q 1366 3272 1645 3428 
Q 1925 3584 2291 3584 
Q 2894 3584 3203 3211 
Q 3513 2838 3513 2113 
z
" transform="scale(0.015625)"/>
      </defs>
      <use xlink:href="#DejaVuSans-65"/>
      <use xlink:href="#DejaVuSans-70" x="61.523438"/>
      <use xlink:href="#DejaVuSans-6f" x="125"/>
      <use xlink:href="#DejaVuSans-63" x="186.181641"/>
      <use xlink:href="#DejaVuSans-68" x="241.162109"/>
     </g>
    </g>
   </g>
   <g id="matplotlib.axis_2">
    <g id="ytick_1">
     <g id="line2d_7">
      <defs>
       <path id="me3becc10e9" d="M 0 0 
L -3.5 0 
" style="stroke: #000000; stroke-width: 0.8"/>
      </defs>
      <g>
       <use xlink:href="#me3becc10e9" x="57.6" y="295.530969" style="stroke: #000000; stroke-width: 0.8"/>
      </g>
     </g>
     <g id="text_8">
      <!-- 0.0 -->
      <g transform="translate(34.696875 299.330188) scale(0.1 -0.1)">
       <defs>
        <path id="DejaVuSans-2e" d="M 684 794 
L 1344 794 
L 1344 0 
L 684 0 
L 684 794 
z
" transform="scale(0.015625)"/>
       </defs>
       <use xlink:href="#DejaVuSans-30"/>
       <use xlink:href="#DejaVuSans-2e" x="63.623047"/>
       <use xlink:href="#DejaVuSans-30" x="95.410156"/>
      </g>
     </g>
    </g>
    <g id="ytick_2">
     <g id="line2d_8">
      <g>
       <use xlink:href="#me3becc10e9" x="57.6" y="259.866939" style="stroke: #000000; stroke-width: 0.8"/>
      </g>
     </g>
     <g id="text_9">
      <!-- 2.5 -->
      <g transform="translate(34.696875 263.666158) scale(0.1 -0.1)">
       <use xlink:href="#DejaVuSans-32"/>
       <use xlink:href="#DejaVuSans-2e" x="63.623047"/>
       <use xlink:href="#DejaVuSans-35" x="95.410156"/>
      </g>
     </g>
    </g>
    <g id="ytick_3">
     <g id="line2d_9">
      <g>
       <use xlink:href="#me3becc10e9" x="57.6" y="224.202909" style="stroke: #000000; stroke-width: 0.8"/>
      </g>
     </g>
     <g id="text_10">
      <!-- 5.0 -->
      <g transform="translate(34.696875 228.002128) scale(0.1 -0.1)">
       <use xlink:href="#DejaVuSans-35"/>
       <use xlink:href="#DejaVuSans-2e" x="63.623047"/>
       <use xlink:href="#DejaVuSans-30" x="95.410156"/>
      </g>
     </g>
    </g>
    <g id="ytick_4">
     <g id="line2d_10">
      <g>
       <use xlink:href="#me3becc10e9" x="57.6" y="188.538879" style="stroke: #000000; stroke-width: 0.8"/>
      </g>
     </g>
     <g id="text_11">
      <!-- 7.5 -->
      <g transform="translate(34.696875 192.338098) scale(0.1 -0.1)">
       <defs>
        <path id="DejaVuSans-37" d="M 525 4666 
L 3525 4666 
L 3525 4397 
L 1831 0 
L 1172 0 
L 2766 4134 
L 525 4134 
L 525 4666 
z
" transform="scale(0.015625)"/>
       </defs>
       <use xlink:href="#DejaVuSans-37"/>
       <use xlink:href="#DejaVuSans-2e" x="63.623047"/>
       <use xlink:href="#DejaVuSans-35" x="95.410156"/>
      </g>
     </g>
    </g>
    <g id="ytick_5">
     <g id="line2d_11">
      <g>
       <use xlink:href="#me3becc10e9" x="57.6" y="152.87485" style="stroke: #000000; stroke-width: 0.8"/>
      </g>
     </g>
     <g id="text_12">
      <!-- 10.0 -->
      <g transform="translate(28.334375 156.674068) scale(0.1 -0.1)">
       <use xlink:href="#DejaVuSans-31"/>
       <use xlink:href="#DejaVuSans-30" x="63.623047"/>
       <use xlink:href="#DejaVuSans-2e" x="127.246094"/>
       <use xlink:href="#DejaVuSans-30" x="159.033203"/>
      </g>
     </g>
    </g>
    <g id="ytick_6">
     <g id="line2d_12">
      <g>
       <use xlink:href="#me3becc10e9" x="57.6" y="117.21082" style="stroke: #000000; stroke-width: 0.8"/>
      </g>
     </g>
     <g id="text_13">
      <!-- 12.5 -->
      <g transform="translate(28.334375 121.010038) scale(0.1 -0.1)">
       <use xlink:href="#DejaVuSans-31"/>
       <use xlink:href="#DejaVuSans-32" x="63.623047"/>
       <use xlink:href="#DejaVuSans-2e" x="127.246094"/>
       <use xlink:href="#DejaVuSans-35" x="159.033203"/>
      </g>
     </g>
    </g>
    <g id="ytick_7">
     <g id="line2d_13">
      <g>
       <use xlink:href="#me3becc10e9" x="57.6" y="81.54679" style="stroke: #000000; stroke-width: 0.8"/>
      </g>
     </g>
     <g id="text_14">
      <!-- 15.0 -->
      <g transform="translate(28.334375 85.346008) scale(0.1 -0.1)">
       <use xlink:href="#DejaVuSans-31"/>
       <use xlink:href="#DejaVuSans-35" x="63.623047"/>
       <use xlink:href="#DejaVuSans-2e" x="127.246094"/>
       <use xlink:href="#DejaVuSans-30" x="159.033203"/>
      </g>
     </g>
    </g>
    <g id="ytick_8">
     <g id="line2d_14">
      <g>
       <use xlink:href="#me3becc10e9" x="57.6" y="45.88276" style="stroke: #000000; stroke-width: 0.8"/>
      </g>
     </g>
     <g id="text_15">
      <!-- 17.5 -->
      <g transform="translate(28.334375 49.681978) scale(0.1 -0.1)">
       <use xlink:href="#DejaVuSans-31"/>
       <use xlink:href="#DejaVuSans-37" x="63.623047"/>
       <use xlink:href="#DejaVuSans-2e" x="127.246094"/>
       <use xlink:href="#DejaVuSans-35" x="159.033203"/>
      </g>
     </g>
    </g>
    <g id="text_16">
     <!-- loss -->
     <g transform="translate(22.254688 184.185812) rotate(-90) scale(0.1 -0.1)">
      <defs>
       <path id="DejaVuSans-6c" d="M 603 4863 
L 1178 4863 
L 1178 0 
L 603 0 
L 603 4863 
z
" transform="scale(0.015625)"/>
       <path id="DejaVuSans-73" d="M 2834 3397 
L 2834 2853 
Q 2591 2978 2328 3040 
Q 2066 3103 1784 3103 
Q 1356 3103 1142 2972 
Q 928 2841 928 2578 
Q 928 2378 1081 2264 
Q 1234 2150 1697 2047 
L 1894 2003 
Q 2506 1872 2764 1633 
Q 3022 1394 3022 966 
Q 3022 478 2636 193 
Q 2250 -91 1575 -91 
Q 1294 -91 989 -36 
Q 684 19 347 128 
L 347 722 
Q 666 556 975 473 
Q 1284 391 1588 391 
Q 1994 391 2212 530 
Q 2431 669 2431 922 
Q 2431 1156 2273 1281 
Q 2116 1406 1581 1522 
L 1381 1569 
Q 847 1681 609 1914 
Q 372 2147 372 2553 
Q 372 3047 722 3315 
Q 1072 3584 1716 3584 
Q 2034 3584 2315 3537 
Q 2597 3491 2834 3397 
z
" transform="scale(0.015625)"/>
      </defs>
      <use xlink:href="#DejaVuSans-6c"/>
      <use xlink:href="#DejaVuSans-6f" x="27.783203"/>
      <use xlink:href="#DejaVuSans-73" x="88.964844"/>
      <use xlink:href="#DejaVuSans-73" x="141.064453"/>
     </g>
    </g>
   </g>
   <g id="line2d_15">
    <path d="M 73.832727 267.608517 
L 74.287335 268.309968 
L 75.521269 269.912296 
L 76.235651 271.402762 
L 77.144866 273.861813 
L 79.742622 281.208874 
L 80.71678 283.173089 
L 81.625995 284.524223 
L 82.53521 285.500471 
L 83.574312 286.299005 
L 84.87319 287.008869 
L 86.626675 287.697089 
L 89.029599 288.389661 
L 93.186009 289.306569 
L 97.212531 289.942712 
L 102.992537 290.631836 
L 114.35772 291.597954 
L 123.255034 292.120617 
L 170.144528 294.012804 
L 193.00478 294.526304 
L 195.212872 294.56506 
L 206.83783 294.748605 
L 235.088426 295.056117 
L 303.604238 295.374827 
L 398.487273 295.488 
L 398.487273 295.488 
" clip-path="url(#pc0770a6f21)" style="fill: none; stroke: #0000ff; stroke-width: 1.5; stroke-linecap: square"/>
   </g>
   <g id="line2d_16">
    <path d="M 73.832727 267.488299 
L 74.157447 268.064011 
L 74.612054 268.511301 
L 75.001717 268.854064 
L 76.04082 270.23374 
L 76.495427 271.045325 
L 77.664417 273.733864 
L 79.352959 277.889659 
L 80.392061 279.818219 
L 81.0415 280.688865 
L 81.625995 281.2572 
L 82.340378 281.718713 
L 82.989817 281.97417 
L 83.963975 282.134334 
L 85.068022 282.10278 
L 86.301956 281.91133 
L 88.055441 281.388303 
L 90.19859 280.479508 
L 90.912972 280.248566 
L 91.04286 280.17276 
L 91.497467 279.911631 
L 92.276794 279.601441 
L 92.731402 279.380277 
L 93.510728 278.996568 
L 94.614775 278.438017 
L 94.87455 278.260115 
L 95.134326 278.177173 
L 95.394101 277.990013 
L 95.653877 277.899264 
L 95.913653 277.699033 
L 96.04354 277.643044 
L 99.03096 275.971753 
L 99.420623 275.723395 
L 99.680399 275.601844 
L 100.070062 275.321929 
L 100.264894 275.254137 
L 100.589613 275.035762 
L 100.784445 274.919884 
L 102.018379 274.163216 
L 102.148267 274.082977 
L 102.53793 273.852836 
L 103.122425 273.509716 
L 103.382201 273.290383 
L 104.096584 272.888414 
L 104.551191 272.553397 
L 104.681079 272.489872 
L 105.20063 272.14634 
L 105.395462 272.056282 
L 105.720181 271.841728 
L 106.239732 271.453261 
L 106.304676 271.530686 
L 106.564452 271.284047 
L 106.69434 271.240053 
L 107.084003 271.009337 
L 107.148947 271.049998 
L 107.408722 270.833897 
L 108.7076 270.16372 
L 109.097264 269.927531 
L 109.162208 269.934844 
L 109.292096 269.818363 
L 109.357039 269.8294 
L 109.551871 269.632468 
L 109.811647 269.448581 
L 109.876591 269.488996 
L 110.071422 269.342364 
L 110.720861 268.936669 
L 111.045581 268.661416 
L 111.175469 268.629589 
L 111.435244 268.448268 
L 111.500188 268.455708 
L 111.565132 268.329645 
L 111.630076 268.375262 
L 121.69638 262.174114 
L 121.761324 262.196286 
L 121.891212 261.985365 
L 121.956156 262.033285 
L 122.086043 261.833754 
L 122.150987 261.942891 
L 122.215931 261.838638 
L 122.345819 261.744986 
L 122.930314 261.432462 
L 123.125146 261.283187 
L 123.449865 261.021959 
L 123.709641 260.899519 
L 124.229192 260.580049 
L 124.488968 260.385066 
L 124.618855 260.349639 
L 124.943575 260.137701 
L 126.047621 259.448437 
L 126.437285 259.245682 
L 126.567172 259.144197 
L 126.69706 259.056964 
L 126.891892 258.955227 
L 126.956836 258.954816 
L 127.086724 258.806327 
L 127.151667 258.869501 
L 127.346499 258.67196 
L 127.476387 258.571352 
L 127.930994 258.301917 
L 128.515489 257.941789 
L 128.580433 258.01299 
L 128.775265 257.798341 
L 129.294816 257.490653 
L 129.619536 257.245335 
L 130.009199 257.052325 
L 130.139087 256.93364 
L 130.52875 256.727324 
L 130.723582 256.5719 
L 130.918414 256.447223 
L 131.048301 256.36636 
L 131.113245 256.277534 
L 131.178189 256.350204 
L 131.957516 255.800388 
L 132.282235 255.66194 
L 132.477067 255.496026 
L 132.671899 255.387386 
L 132.801787 255.329304 
L 133.061562 255.090064 
L 133.321338 254.978277 
L 133.581113 254.80147 
L 134.035721 254.552109 
L 134.620216 254.194229 
L 134.750103 254.168788 
L 135.074823 253.871977 
L 135.269655 253.829377 
L 135.594374 253.562659 
L 135.919094 253.451947 
L 136.763364 252.93578 
L 136.893252 252.854889 
L 136.958196 252.713859 
L 137.02314 252.748058 
L 137.088084 252.865593 
L 137.153028 252.814075 
L 137.217972 252.72613 
L 137.412803 252.914736 
L 137.542691 252.836836 
L 137.607635 252.928736 
L 137.672579 252.875517 
L 137.737523 252.766322 
L 137.802467 252.822115 
L 137.867411 252.811116 
L 137.997298 252.583471 
L 138.127186 252.633122 
L 138.451906 252.396338 
L 138.776625 252.273504 
L 138.906513 252.172111 
L 139.166289 251.986342 
L 139.555952 251.725882 
L 139.68584 251.741796 
L 139.945615 251.547582 
L 140.595054 251.173315 
L 140.724942 251.071759 
L 142.413483 249.979277 
L 142.673259 249.767132 
L 142.868091 249.74048 
L 143.19281 249.476521 
L 143.322698 249.523903 
L 143.452586 249.279517 
L 143.51753 249.315179 
L 143.842249 249.129209 
L 144.037081 248.971764 
L 145.271015 248.194386 
L 145.335959 248.192124 
L 145.465847 248.032914 
L 145.595734 247.971342 
L 145.790566 247.870797 
L 145.85551 247.884629 
L 146.050342 247.705111 
L 146.375061 247.504985 
L 146.504949 247.369856 
L 146.569893 247.414514 
L 146.699781 247.222092 
L 146.764725 247.253294 
L 147.544051 246.681177 
L 147.673939 246.634281 
L 147.998659 246.429639 
L 148.19349 246.30035 
L 149.882032 245.235343 
L 150.206751 244.964302 
L 151.375741 244.200453 
L 151.765405 243.947898 
L 151.830349 243.962795 
L 151.960236 243.757228 
L 152.02518 243.792352 
L 152.414844 243.52745 
L 152.609675 243.407511 
L 152.934395 243.235227 
L 153.259114 242.981053 
L 153.51889 242.830472 
L 154.038441 242.394994 
L 154.233273 242.332562 
L 154.622936 241.985179 
L 155.402263 241.453699 
L 155.532151 241.407953 
L 156.051702 241.022109 
L 156.18159 240.970904 
L 156.376421 240.811429 
L 156.506309 240.684789 
L 156.701141 240.588274 
L 157.285636 240.124498 
L 157.415524 240.107502 
L 157.675299 239.869627 
L 159.948336 238.291184 
L 160.078224 238.127559 
L 160.143168 238.161428 
L 160.402943 237.883565 
L 160.85755 237.598491 
L 161.052382 237.448145 
L 162.091484 236.676824 
L 162.416204 236.475453 
L 162.67598 236.265654 
L 162.805867 236.200936 
L 163.390362 235.764932 
L 164.494409 234.966993 
L 164.624296 234.860821 
L 164.884072 234.660974 
L 165.01396 234.578727 
L 165.143848 234.450012 
L 165.273735 234.420857 
L 165.403623 234.245723 
L 165.468567 234.337848 
L 165.598455 234.05259 
L 165.663399 234.099445 
L 165.728343 234.170843 
L 165.858231 233.892347 
L 165.923174 233.944399 
L 165.988118 233.954507 
L 166.118006 233.680895 
L 166.247894 233.740545 
L 166.442726 233.559275 
L 166.50767 233.557085 
L 166.637557 233.381305 
L 166.702501 233.462702 
L 166.897333 233.22549 
L 167.092165 233.075715 
L 167.936435 232.452665 
L 168.131267 232.333045 
L 168.455986 232.02315 
L 168.585874 232.024449 
L 168.84565 231.786339 
L 169.040482 231.669658 
L 171.443406 229.871722 
L 171.573294 229.801583 
L 171.962957 229.46141 
L 172.092845 229.441696 
L 172.157789 229.328587 
L 172.222733 229.409208 
L 173.196891 228.624588 
L 173.326779 228.572523 
L 173.586554 228.327277 
L 174.365881 227.782373 
L 174.820488 227.450009 
L 175.145208 227.244856 
L 175.34004 227.075443 
L 175.794647 226.715053 
L 175.859591 226.754351 
L 175.989479 226.515234 
L 176.054423 226.567714 
L 176.119366 226.5961 
L 176.249254 226.322407 
L 176.314198 226.398831 
L 176.379142 226.429102 
L 176.50903 226.166626 
L 176.573974 226.19325 
L 176.703861 226.093412 
L 177.742964 225.367598 
L 177.807908 225.390495 
L 177.937796 225.130019 
L 178.002739 225.199389 
L 178.132627 225.101197 
L 178.457347 224.812259 
L 178.587235 224.737147 
L 178.976898 224.467066 
L 179.106786 224.418402 
L 179.301617 224.275273 
L 179.756225 223.922291 
L 179.951056 223.782496 
L 180.405664 223.41578 
L 180.535551 223.372353 
L 180.860271 223.173982 
L 181.18499 222.931675 
L 181.314878 222.866107 
L 181.574654 222.692816 
L 181.964317 222.361446 
L 182.094205 222.318652 
L 182.353981 222.125566 
L 182.938476 221.70435 
L 183.068363 221.601348 
L 184.107466 220.849353 
L 184.237354 220.81494 
L 184.691961 220.481385 
L 184.756905 220.481113 
L 185.01668 220.185652 
L 185.146568 220.162735 
L 186.055783 219.548188 
L 186.445446 219.223803 
L 186.83511 219.003352 
L 187.159829 218.736474 
L 187.809268 218.314407 
L 188.069044 218.098071 
L 188.458707 217.763361 
L 188.523651 217.930828 
L 188.588595 217.604239 
L 188.653539 217.622912 
L 188.718483 217.799604 
L 188.84837 217.410297 
L 188.913314 217.507911 
L 188.978258 217.53876 
L 189.17309 217.314778 
L 189.238034 217.448404 
L 189.367922 217.030194 
L 189.432865 217.280181 
L 189.497809 217.177105 
L 189.562753 217.001767 
L 189.627697 217.059043 
L 189.822529 216.928859 
L 189.952417 216.766513 
L 190.017361 216.892337 
L 190.147248 216.559905 
L 190.212192 216.754732 
L 190.277136 216.654907 
L 190.471968 216.419252 
L 190.536912 216.491412 
L 190.6668 216.201889 
L 190.731743 216.274974 
L 190.796687 216.318999 
L 190.991519 216.037619 
L 191.121407 216.076141 
L 191.251295 215.823385 
L 191.316239 215.909319 
L 191.446126 215.755082 
L 191.576014 215.660862 
L 191.640958 215.726675 
L 191.770846 215.494531 
L 191.83579 215.533325 
L 191.900734 215.532644 
L 192.095565 215.292691 
L 193.069724 214.733719 
L 193.199612 214.525832 
L 193.264555 214.540614 
L 193.394443 214.400158 
L 193.459387 214.455502 
L 193.589275 214.253465 
L 193.654219 214.316142 
L 193.849051 214.066481 
L 193.913994 214.094031 
L 194.17377 213.861832 
L 194.303658 213.841275 
L 194.433546 213.583744 
L 194.49849 213.714166 
L 194.563433 213.610559 
L 194.628377 213.42231 
L 194.693321 213.507313 
L 194.758265 213.511904 
L 194.953097 213.232014 
L 195.018041 213.273229 
L 195.082985 213.295337 
L 195.212872 213.072566 
L 195.277816 213.143508 
L 195.34276 213.078389 
L 195.472648 212.828381 
L 195.602536 212.931219 
L 195.732424 212.729189 
L 195.862311 212.741542 
L 195.992199 212.414259 
L 196.057143 212.492874 
L 196.122087 212.520621 
L 196.251975 212.308972 
L 196.316919 212.348086 
L 196.446806 212.267036 
L 196.576694 212.039734 
L 196.641638 212.141566 
L 196.706582 212.087963 
L 196.83647 211.918387 
L 196.966358 211.889334 
L 197.096245 211.663311 
L 197.226133 211.727329 
L 197.420965 211.536937 
L 197.485909 211.534474 
L 197.615797 211.277794 
L 197.680741 211.317894 
L 197.745684 211.360442 
L 197.940516 211.118843 
L 198.070404 211.097388 
L 198.200292 210.820633 
L 198.265236 210.950654 
L 198.330179 210.902432 
L 198.525011 210.709326 
L 198.654899 210.585768 
L 198.784787 210.467604 
L 198.849731 210.542246 
L 198.979618 210.295612 
L 199.044562 210.341875 
L 199.109506 210.326978 
L 199.239394 210.045319 
L 199.369282 210.112118 
L 199.564114 209.9097 
L 199.629057 209.914115 
L 199.758945 209.642068 
L 199.823889 209.680617 
L 199.888833 209.745566 
L 200.148609 209.483484 
L 200.213553 209.483654 
L 200.34344 209.207335 
L 200.473328 209.260074 
L 200.66816 209.067981 
L 200.733104 209.053948 
L 200.927935 208.85421 
L 201.057823 208.721604 
L 202.161869 207.823929 
L 202.291757 207.759898 
L 202.356701 207.818684 
L 202.486589 207.499252 
L 202.551533 207.556916 
L 202.616477 207.592846 
L 202.811308 207.336301 
L 202.941196 207.254754 
L 203.071084 207.085389 
L 203.136028 207.173697 
L 203.525691 206.742862 
L 203.785467 206.548212 
L 204.045243 206.272396 
L 204.17513 206.281702 
L 204.629738 205.861478 
L 215.215593 196.821994 
L 215.475369 196.595747 
L 215.99492 196.104425 
L 216.124808 195.982221 
L 216.384583 195.714241 
L 216.514471 195.699147 
L 216.774246 195.398842 
L 217.16391 195.041731 
L 217.683461 194.552511 
L 220.346161 192.129798 
L 220.476049 192.020967 
L 220.800768 191.696235 
L 220.865712 191.699351 
L 221.125488 191.439752 
L 221.450207 191.092701 
L 221.709983 190.908486 
L 221.969758 190.586877 
L 224.697402 188.138934 
L 224.892234 187.957453 
L 226.840551 186.184496 
L 227.230214 185.780803 
L 227.295158 185.818726 
L 227.425046 185.57716 
L 227.48999 185.62913 
L 228.074485 185.068029 
L 228.983699 184.229072 
L 229.308419 183.968242 
L 229.892914 183.389687 
L 230.022802 183.306289 
L 230.347521 182.977123 
L 230.412465 182.975238 
L 230.672241 182.657758 
L 231.451567 182.034028 
L 231.711343 181.742451 
L 231.971119 181.554236 
L 232.750445 180.852904 
L 233.010221 180.616971 
L 233.33494 180.301232 
L 233.464828 180.214107 
L 234.114267 179.618831 
L 234.244155 179.534917 
L 234.503931 179.270142 
L 235.218313 178.66118 
L 235.543033 178.339849 
L 235.672921 178.213175 
L 236.062584 177.902565 
L 236.257416 177.727499 
L 239.504611 174.86887 
L 239.634499 174.766167 
L 239.894274 174.525921 
L 243.98574 170.924078 
L 244.115627 170.792724 
L 244.180571 170.795799 
L 244.375403 170.599455 
L 245.089786 169.958182 
L 245.609337 169.482315 
L 245.804169 169.312976 
L 246.518552 168.703497 
L 246.778327 168.470081 
L 257.299239 159.323922 
L 257.429127 159.237368 
L 257.688902 158.983925 
L 259.052724 157.792925 
L 259.572275 157.370307 
L 285.614778 135.393579 
L 285.939498 135.155808 
L 291.97928 130.245433 
L 292.109168 130.126909 
L 292.433888 129.925885 
L 292.693663 129.694332 
L 294.64198 128.136874 
L 294.9667 127.885948 
L 298.47367 125.107532 
L 298.863333 124.808119 
L 299.447828 124.326538 
L 299.64266 124.206068 
L 300.551875 123.444923 
L 300.746706 123.302468 
L 301.071426 123.082425 
L 301.331202 122.834845 
L 301.461089 122.785896 
L 301.850753 122.482605 
L 302.30536 122.063361 
L 302.435248 122.017418 
L 302.824911 121.686401 
L 303.993901 120.800704 
L 304.318621 120.560091 
L 304.773228 120.168424 
L 305.357723 119.769805 
L 305.617499 119.498485 
L 305.747387 119.453222 
L 306.007162 119.166869 
L 306.13705 119.148571 
L 306.396826 118.902815 
L 306.461769 118.907155 
L 306.721545 118.675384 
L 307.63076 117.983882 
L 307.890535 117.748806 
L 313.995262 112.993851 
L 314.255037 112.802541 
L 314.579757 112.534759 
L 315.488971 111.833693 
L 316.008522 111.423958 
L 320.554595 107.895363 
L 320.814371 107.703931 
L 321.074146 107.518811 
L 321.398866 107.264905 
L 323.606958 105.567128 
L 334.517533 97.301441 
L 334.777309 97.123137 
L 335.037085 96.908795 
L 338.479111 94.370652 
L 338.738887 94.104285 
L 338.868774 94.083973 
L 339.12855 93.834911 
L 339.258438 93.794069 
L 339.45327 93.663668 
L 339.842933 93.330487 
L 343.609679 90.598709 
L 343.739567 90.493775 
L 343.999342 90.302315 
L 344.324062 90.077279 
L 344.583837 89.874609 
L 344.908557 89.650417 
L 345.103389 89.525144 
L 345.428108 89.289075 
L 346.077547 88.818867 
L 346.337323 88.579682 
L 346.532154 88.473688 
L 347.051706 88.089503 
L 347.571257 87.712516 
L 350.428788 85.673559 
L 350.818452 85.386784 
L 351.273059 85.026802 
L 351.402947 84.973703 
L 351.857554 84.616878 
L 352.442049 84.230897 
L 353.481152 83.481426 
L 353.611039 83.406314 
L 353.870815 83.200787 
L 354.065647 83.080698 
L 354.780029 82.553677 
L 355.299581 82.213898 
L 355.559356 82.011909 
L 355.689244 81.964047 
L 356.013964 81.718114 
L 356.923178 81.053971 
L 357.182954 80.899612 
L 358.157112 80.217823 
L 358.611719 79.896234 
L 359.196215 79.468556 
L 359.715766 79.156408 
L 359.975541 78.893374 
L 360.105429 78.888898 
L 360.365205 78.643387 
L 360.884756 78.323566 
L 361.404307 77.930974 
L 361.664083 77.805253 
L 361.988802 77.520859 
L 363.027904 76.859723 
L 363.28768 76.625789 
L 364.261839 75.982733 
L 364.521614 75.791573 
L 365.041165 75.449686 
L 365.430829 75.188298 
L 366.015324 74.792617 
L 371.665443 70.936039 
L 371.730387 70.947956 
L 371.990162 70.689181 
L 373.094209 69.997801 
L 373.418928 69.772452 
L 374.393087 69.113764 
L 375.107469 68.612797 
L 375.302301 68.507115 
L 379.069047 65.999828 
L 379.393767 65.825878 
L 379.848374 65.498629 
L 382.576018 63.697333 
L 382.770849 63.567245 
L 384.199615 62.660053 
L 384.654222 62.307227 
L 385.043886 62.087021 
L 387.122091 60.761129 
L 387.901417 60.271413 
L 388.226137 60.074253 
L 388.550856 59.832524 
L 388.680744 59.783411 
L 388.94052 59.570714 
L 389.070408 59.554062 
L 389.330183 59.34961 
L 389.849734 59.051638 
L 390.174454 58.808984 
L 390.499173 58.640421 
L 391.018724 58.273937 
L 391.798051 57.786397 
L 392.642322 57.265471 
L 393.356705 56.795862 
L 393.681424 56.616008 
L 394.006144 56.395529 
L 394.265919 56.211756 
L 394.460751 56.086565 
L 395.045246 55.751698 
L 396.6039 54.763612 
L 397.123451 54.429425 
L 398.227497 53.763582 
L 398.487273 53.568 
L 398.487273 53.568 
" clip-path="url(#pc0770a6f21)" style="fill: none; stroke: #008000; stroke-width: 1.5; stroke-linecap: square"/>
   </g>
   <g id="line2d_17">
    <path d="M 73.832727 267.541321 
L 74.157447 268.09512 
L 74.612054 268.500153 
L 75.001717 268.793448 
L 76.755203 271.373655 
L 78.573632 275.725288 
L 80.002398 278.789096 
L 81.0415 280.287792 
L 81.625995 280.847015 
L 82.275434 281.261432 
L 82.924873 281.535262 
L 83.769144 281.715624 
L 85.327797 281.734492 
L 87.406002 281.418901 
L 89.419263 280.896573 
L 90.263533 280.63451 
L 90.458365 280.511306 
L 91.04286 280.44604 
L 91.432524 280.245416 
L 92.146906 280.152513 
L 92.406682 279.941777 
L 92.601514 279.935572 
L 93.250953 279.731565 
L 93.965336 279.486566 
L 94.614775 279.296909 
L 94.87455 279.15001 
L 95.004438 279.123688 
L 95.848709 278.865342 
L 96.04354 278.769109 
L 100.849389 277.058856 
L 101.303996 276.923064 
L 102.732762 276.283921 
L 102.86265 276.250714 
L 103.122425 276.158303 
L 103.382201 275.984489 
L 104.096584 275.71552 
L 104.421303 275.533352 
L 104.87591 275.325429 
L 105.20063 275.148656 
L 105.395462 275.094259 
L 105.655237 274.926443 
L 105.850069 274.870867 
L 106.109845 274.707184 
L 106.174788 274.735041 
L 106.239732 274.592409 
L 106.304676 274.698074 
L 106.434564 274.549721 
L 106.499508 274.604833 
L 106.69434 274.447697 
L 107.084003 274.243301 
L 107.148947 274.306017 
L 107.408722 274.10367 
L 107.668498 274.038432 
L 107.86333 273.923645 
L 108.123105 273.851726 
L 108.317937 273.742758 
L 108.772544 273.498177 
L 108.837488 273.540595 
L 109.03232 273.414246 
L 109.292096 273.292584 
L 109.357039 273.318996 
L 109.421983 273.155727 
L 109.486927 273.279404 
L 109.616815 273.074308 
L 109.681759 273.162689 
L 109.811647 272.995861 
L 109.876591 273.052814 
L 110.006478 272.933281 
L 110.396142 272.759453 
L 110.655917 272.607991 
L 110.915693 272.478825 
L 114.812327 270.401443 
L 115.007159 270.247364 
L 117.475027 268.914325 
L 117.604914 268.773 
L 117.799746 268.768499 
L 117.86469 268.584899 
L 117.929634 268.612308 
L 118.319297 268.509049 
L 118.384241 268.273104 
L 118.449185 268.308577 
L 118.514129 268.306163 
L 118.579073 268.176536 
L 118.644017 268.209461 
L 118.708961 268.226179 
L 118.838848 268.094491 
L 119.163568 267.905721 
L 119.228512 267.97878 
L 119.293456 267.742102 
L 119.3584 267.781304 
L 119.423344 267.773424 
L 119.488287 267.621792 
L 119.553231 267.659865 
L 119.618175 267.663788 
L 119.683119 267.537344 
L 119.748063 267.5852 
L 119.813007 267.593023 
L 120.007839 267.421511 
L 120.072783 267.294861 
L 120.137726 267.363087 
L 120.462446 267.1511 
L 120.852109 266.875272 
L 120.981997 266.871371 
L 124.099304 265.011796 
L 124.164248 265.039325 
L 124.424024 264.790814 
L 124.748743 264.590103 
L 125.463126 264.182161 
L 125.722902 263.982634 
L 125.982677 263.863749 
L 126.372341 263.645434 
L 127.216611 263.117641 
L 127.346499 263.041213 
L 127.541331 262.922899 
L 127.995938 262.623149 
L 128.840209 262.136412 
L 128.970097 261.991892 
L 129.03504 262.040706 
L 129.294816 261.861984 
L 129.619536 261.624792 
L 130.009199 261.432574 
L 130.074143 261.295033 
L 130.139087 261.332259 
L 132.152348 260.054872 
L 132.282235 260.054103 
L 132.477067 259.887782 
L 132.671899 259.769543 
L 132.801787 259.719913 
L 133.061562 259.467211 
L 133.256394 259.436159 
L 133.646057 259.166407 
L 133.775945 259.088653 
L 134.100664 258.882095 
L 134.230552 258.850321 
L 134.36044 258.706512 
L 134.425384 258.736677 
L 134.620216 258.573346 
L 134.815047 258.463926 
L 135.139767 258.258743 
L 135.269655 258.205966 
L 135.594374 257.933365 
L 135.789206 257.838594 
L 136.113925 257.683075 
L 136.69842 257.281388 
L 136.828308 257.285762 
L 137.02314 257.121811 
L 137.153028 257.199028 
L 137.217972 257.136572 
L 137.412803 257.294251 
L 137.542691 257.186828 
L 137.672579 257.207286 
L 137.802467 257.112233 
L 137.867411 257.093496 
L 137.997298 256.858209 
L 138.062242 256.893727 
L 138.19213 256.836693 
L 138.581793 256.682911 
L 138.906513 256.469045 
L 139.296176 256.187355 
L 139.491008 256.075153 
L 143.257754 253.84422 
L 143.322698 253.869657 
L 143.51753 253.645155 
L 143.842249 253.474718 
L 144.102025 253.287105 
L 144.621576 252.964853 
L 145.465847 252.412442 
L 145.595734 252.347422 
L 145.790566 252.251512 
L 145.85551 252.26414 
L 146.050342 252.069456 
L 146.310117 251.975339 
L 146.504949 251.76205 
L 146.569893 251.816211 
L 146.699781 251.621112 
L 146.829668 251.580451 
L 146.959556 251.486734 
L 147.219332 251.330134 
L 147.34922 251.244084 
L 148.128546 250.786573 
L 148.453266 250.555126 
L 148.648098 250.461804 
L 148.907873 250.264474 
L 149.037761 250.179277 
L 149.297537 250.034363 
L 149.427424 249.975111 
L 149.6872 249.768315 
L 150.141807 249.545694 
L 150.336639 249.399229 
L 150.726302 249.178039 
L 150.986078 248.994868 
L 151.765405 248.506849 
L 151.830349 248.525202 
L 151.960236 248.314907 
L 152.02518 248.35015 
L 152.3499 248.189838 
L 152.609675 248.004844 
L 152.739563 247.946296 
L 152.869451 247.829788 
L 152.999339 247.781536 
L 153.713722 247.308298 
L 153.843609 247.240611 
L 154.298217 246.962567 
L 154.428105 246.848876 
L 154.68788 246.69536 
L 156.18159 245.807099 
L 156.311478 245.662226 
L 156.506309 245.54765 
L 156.895973 245.298918 
L 160.078224 243.2424 
L 160.143168 243.288282 
L 160.402943 243.009188 
L 160.662719 242.896897 
L 160.922494 242.675337 
L 161.052382 242.627381 
L 161.506989 242.326243 
L 166.053062 239.30857 
L 166.118006 239.212643 
L 166.18295 239.31156 
L 166.50767 239.099357 
L 166.637557 238.952799 
L 166.702501 239.011137 
L 166.897333 238.796226 
L 167.092165 238.667021 
L 170.01464 236.751595 
L 170.209472 236.625908 
L 170.33936 236.513587 
L 170.664079 236.258934 
L 170.793967 236.269035 
L 170.988798 236.066283 
L 171.18363 235.981063 
L 171.378462 235.776734 
L 175.924535 232.758037 
L 175.989479 232.632527 
L 176.054423 232.699149 
L 176.119366 232.72276 
L 176.249254 232.443863 
L 176.314198 232.511404 
L 176.379142 232.542504 
L 176.573974 232.30319 
L 176.768805 232.191522 
L 176.963637 232.060821 
L 177.223413 231.870865 
L 177.872852 231.41746 
L 177.937796 231.291031 
L 178.002739 231.370482 
L 178.392403 231.080252 
L 178.717122 230.863644 
L 178.84701 230.785308 
L 179.17173 230.495092 
L 179.496449 230.352045 
L 180.210832 229.805685 
L 180.34072 229.786937 
L 180.535551 229.601226 
L 180.795327 229.467124 
L 181.18499 229.166697 
L 181.314878 229.131209 
L 181.50971 228.957089 
L 181.769486 228.81749 
L 182.289037 228.413769 
L 182.808588 228.0661 
L 183.00342 227.958085 
L 183.393083 227.616579 
L 183.652859 227.496442 
L 188.328819 224.227146 
L 188.393763 223.945746 
L 188.458707 224.006681 
L 188.523651 224.179666 
L 188.588595 223.837132 
L 188.653539 223.896442 
L 188.718483 224.1072 
L 188.84837 223.631673 
L 188.978258 223.822684 
L 189.17309 223.579628 
L 189.238034 223.680174 
L 189.367922 223.307703 
L 189.432865 223.525726 
L 189.497809 223.378713 
L 189.562753 223.257556 
L 189.627697 223.346436 
L 189.952417 222.990964 
L 190.017361 223.157854 
L 190.147248 222.756289 
L 190.212192 223.010331 
L 190.277136 222.938076 
L 190.471968 222.641826 
L 190.536912 222.738909 
L 190.6668 222.435421 
L 190.731743 222.529709 
L 190.796687 222.55934 
L 191.056463 222.261151 
L 191.121407 222.290796 
L 191.251295 222.037455 
L 191.381182 222.130464 
L 191.51107 221.832405 
L 191.576014 221.894524 
L 191.640958 221.965384 
L 191.770846 221.711853 
L 191.83579 221.782332 
L 191.900734 221.773163 
L 192.095565 221.499054 
L 193.069724 220.973904 
L 193.199612 220.729549 
L 193.264555 220.741209 
L 193.329499 220.573435 
L 193.394443 220.615929 
L 193.459387 220.679103 
L 193.589275 220.469515 
L 193.654219 220.563204 
L 193.784107 220.235656 
L 193.849051 220.284851 
L 193.913994 220.321291 
L 194.043882 220.107921 
L 194.108826 220.146817 
L 194.628377 219.626116 
L 194.693321 219.739525 
L 194.758265 219.752694 
L 194.953097 219.448519 
L 195.082985 219.514802 
L 195.212872 219.290589 
L 195.277816 219.395332 
L 195.472648 219.021432 
L 195.537592 219.150984 
L 195.602536 219.13693 
L 195.732424 218.948633 
L 195.797367 219.02131 
L 195.862311 218.954449 
L 195.992199 218.621432 
L 196.122087 218.716468 
L 196.251975 218.539858 
L 196.381863 218.547967 
L 196.83647 218.137906 
L 196.901414 218.190237 
L 196.966358 218.106663 
L 197.096245 217.849832 
L 197.226133 217.957174 
L 197.356021 217.732423 
L 197.485909 217.753735 
L 197.615797 217.489388 
L 197.680741 217.546032 
L 197.745684 217.582853 
L 197.940516 217.361456 
L 198.070404 217.319519 
L 198.200292 217.02514 
L 198.265236 217.193635 
L 198.330179 217.131672 
L 198.460067 216.95081 
L 198.589955 216.903867 
L 198.784787 216.708727 
L 198.849731 216.7969 
L 198.979618 216.535022 
L 199.109506 216.577217 
L 199.239394 216.283171 
L 199.369282 216.358079 
L 199.564114 216.181421 
L 199.694001 216.04621 
L 199.758945 215.892361 
L 199.823889 215.943385 
L 199.888833 216.006335 
L 200.148609 215.76049 
L 200.213553 215.769789 
L 200.34344 215.464097 
L 200.473328 215.550263 
L 200.603216 215.338294 
L 200.66816 215.372925 
L 200.733104 215.349382 
L 200.862992 215.111061 
L 200.927935 215.168976 
L 200.992879 215.155514 
L 201.122767 214.976571 
L 201.252655 214.965714 
L 201.707262 214.498017 
L 201.772206 214.617256 
L 201.83715 214.564585 
L 201.967038 214.287123 
L 202.096926 214.292245 
L 202.291757 214.127077 
L 202.356701 214.173877 
L 202.486589 213.849826 
L 202.551533 213.940304 
L 202.616477 213.973221 
L 202.811308 213.728131 
L 202.941196 213.613933 
L 203.00614 213.444064 
L 203.071084 213.470539 
L 203.136028 213.569078 
L 203.200972 213.468804 
L 203.460747 213.218008 
L 204.110186 212.758426 
L 204.434906 212.437986 
L 204.759625 212.289586 
L 204.824569 212.277947 
L 204.954457 212.015123 
L 205.019401 212.053979 
L 205.409064 211.738784 
L 205.993559 211.304486 
L 206.058503 211.324199 
L 206.448167 210.82398 
L 206.578055 210.896112 
L 206.902774 210.544443 
L 207.032662 210.457856 
L 207.422325 210.22129 
L 207.552213 210.086392 
L 208.136708 209.6497 
L 208.33154 209.45503 
L 208.656259 209.196859 
L 208.721203 209.209729 
L 208.851091 208.982319 
L 208.916035 209.040826 
L 210.799408 207.519196 
L 210.864352 207.629517 
L 210.99424 207.296473 
L 211.059183 207.394761 
L 211.318959 207.140304 
L 211.708622 206.858053 
L 211.968398 206.553688 
L 212.033342 206.607889 
L 212.228174 206.423028 
L 212.293118 206.433905 
L 212.423005 206.145294 
L 212.487949 206.196352 
L 213.267276 205.481062 
L 213.33222 205.564357 
L 213.397164 205.504925 
L 213.591995 205.322472 
L 214.046603 204.920363 
L 214.176491 204.895725 
L 214.436266 204.596073 
L 214.566154 204.561742 
L 214.631098 204.407886 
L 214.696042 204.448904 
L 214.760986 204.451428 
L 214.890873 204.212671 
L 215.020761 204.173034 
L 215.929976 203.405427 
L 216.124808 203.234109 
L 216.384583 202.997876 
L 216.514471 203.015406 
L 216.644359 202.760167 
L 216.709303 202.81294 
L 217.034022 202.460053 
L 217.098966 202.499065 
L 217.488629 202.100555 
L 217.618517 202.046 
L 217.943237 201.741695 
L 218.267956 201.544862 
L 218.397844 201.312955 
L 218.462788 201.342838 
L 218.65762 201.164711 
L 219.631778 200.266424 
L 219.761666 200.26641 
L 219.891554 200.120479 
L 219.956497 200.158613 
L 220.151329 199.893572 
L 220.281217 199.782714 
L 220.605936 199.539032 
L 221.645039 198.651078 
L 221.709983 198.650139 
L 221.969758 198.349603 
L 225.606617 195.292786 
L 225.866392 195.072934 
L 226.191112 194.837905 
L 226.385943 194.730938 
L 227.230214 193.888416 
L 227.295158 193.950154 
L 227.425046 193.673243 
L 227.48999 193.762402 
L 229.50325 192.013185 
L 229.633138 191.842833 
L 230.217633 191.392169 
L 230.282577 191.229803 
L 230.347521 191.257346 
L 230.412465 191.252911 
L 230.672241 190.930376 
L 231.191792 190.627888 
L 231.516511 190.220107 
L 231.906175 189.958514 
L 232.49067 189.388088 
L 232.620558 189.361389 
L 232.945277 189.033446 
L 233.269997 188.752719 
L 233.919436 188.207685 
L 234.049323 188.133356 
L 234.374043 187.845371 
L 234.633818 187.661543 
L 235.283257 187.033909 
L 237.361462 185.290889 
L 237.686182 184.973993 
L 237.816069 184.942553 
L 238.270677 184.483719 
L 239.504611 183.479736 
L 239.634499 183.371708 
L 239.82933 183.176303 
L 240.15405 182.9035 
L 240.543713 182.637575 
L 240.738545 182.442565 
L 242.037423 181.298474 
L 242.362142 181.033984 
L 242.49203 180.951729 
L 242.686862 180.756433 
L 242.81675 180.652506 
L 243.271357 180.21159 
L 243.466189 180.113718 
L 243.790908 179.813923 
L 244.115627 179.515571 
L 244.180571 179.537638 
L 244.375403 179.347335 
L 246.518552 177.490151 
L 246.713383 177.352158 
L 247.167991 176.931064 
L 247.81743 176.410546 
L 248.142149 176.114112 
L 248.791588 175.58199 
L 248.921476 175.417536 
L 249.181252 175.19654 
L 249.960578 174.57498 
L 250.220354 174.346679 
L 250.869793 173.827957 
L 251.064625 173.612362 
L 251.454288 173.28325 
L 251.64912 173.117653 
L 253.597437 171.448555 
L 253.857212 171.194921 
L 254.181932 170.903793 
L 254.506651 170.634691 
L 257.49407 168.010798 
L 258.078566 167.535516 
L 258.857892 166.952866 
L 259.117668 166.633467 
L 259.247556 166.57181 
L 260.286658 165.668809 
L 260.48149 165.487743 
L 260.871153 165.208193 
L 262.81947 163.505327 
L 263.014302 163.37898 
L 263.274077 163.079825 
L 263.403965 163.014509 
L 263.663741 162.747026 
L 263.793629 162.675955 
L 264.508011 162.046531 
L 264.572955 162.072217 
L 264.832731 161.772436 
L 265.417226 161.266122 
L 265.612058 161.138115 
L 271.781728 155.875513 
L 271.911616 155.758798 
L 272.236335 155.521381 
L 273.015662 154.793513 
L 273.14555 154.70862 
L 273.794989 154.152022 
L 273.924877 154.093862 
L 274.119708 153.871737 
L 274.639259 153.463024 
L 275.028923 153.084893 
L 275.158811 153.04499 
L 275.353642 152.871448 
L 275.613418 152.625978 
L 275.873194 152.398411 
L 276.003081 152.360073 
L 276.197913 152.124357 
L 276.522633 151.920232 
L 276.65252 151.709535 
L 276.717464 151.750227 
L 276.912296 151.583419 
L 277.237015 151.253667 
L 277.301959 151.254143 
L 277.561735 150.989993 
L 288.47231 141.799034 
L 288.732085 141.555291 
L 289.251637 141.099383 
L 289.6413 140.838865 
L 290.095907 140.411731 
L 290.420627 140.158954 
L 290.615458 139.969685 
L 290.745346 139.885921 
L 291.005122 139.662694 
L 291.524673 139.225805 
L 291.849392 138.954404 
L 295.421307 135.957318 
L 295.616139 135.80232 
L 296.395465 135.14321 
L 297.174792 134.522099 
L 297.369624 134.327075 
L 301.590977 130.825676 
L 302.045584 130.458932 
L 302.30536 130.157424 
L 302.435248 130.122773 
L 302.695023 129.887275 
L 302.954799 129.668102 
L 303.214575 129.444644 
L 303.344462 129.35556 
L 303.604238 129.111396 
L 303.734126 129.027931 
L 304.123789 128.706518 
L 304.708284 128.214108 
L 305.81233 127.268442 
L 305.942218 127.230757 
L 306.007162 127.075282 
L 306.072106 127.132027 
L 309.449189 124.285982 
L 309.514133 124.303546 
L 309.838852 123.967264 
L 309.96874 123.888288 
L 310.553235 123.380954 
L 311.917057 122.252562 
L 312.046945 122.16458 
L 318.80111 116.614251 
L 319.450549 116.09504 
L 319.905156 115.689265 
L 320.359764 115.341595 
L 321.204034 114.598844 
L 321.398866 114.497475 
L 323.217295 112.987375 
L 323.477071 112.809588 
L 323.996622 112.414969 
L 324.905836 111.639322 
L 325.035724 111.560264 
L 326.529434 110.356911 
L 326.789209 110.168104 
L 327.308761 109.724385 
L 328.217975 108.992273 
L 328.412807 108.843328 
L 329.12719 108.2648 
L 329.322021 108.117624 
L 329.451909 108.004936 
L 329.841573 107.692244 
L 329.97146 107.621853 
L 330.231236 107.42004 
L 330.491012 107.185318 
L 330.750787 106.949833 
L 330.880675 106.894584 
L 332.309441 105.753418 
L 332.569216 105.565087 
L 333.023824 105.198344 
L 337.375065 101.798273 
L 357.312841 86.638679 
L 357.637561 86.384543 
L 358.157112 86.026996 
L 358.546776 85.727188 
L 359.910597 84.740042 
L 360.040485 84.623585 
L 360.105429 84.626524 
L 360.300261 84.471497 
L 360.495092 84.337749 
L 360.819812 84.047165 
L 361.079588 83.904656 
L 361.404307 83.604834 
L 361.599139 83.509968 
L 361.858914 83.331596 
L 362.053746 83.139865 
L 362.768129 82.625483 
L 362.962961 82.51338 
L 363.417568 82.191301 
L 363.742287 81.884691 
L 364.002063 81.760085 
L 364.586558 81.324991 
L 371.665443 76.234272 
L 371.730387 76.258529 
L 371.990162 75.964952 
L 372.509714 75.628683 
L 372.964321 75.320305 
L 373.61376 74.869185 
L 374.458031 74.248183 
L 376.211516 73.007647 
L 376.731067 72.689446 
L 376.796011 72.67946 
L 377.055786 72.410467 
L 377.44545 72.183104 
L 378.094889 71.724719 
L 380.562757 69.997556 
L 380.692645 69.933573 
L 380.887476 69.792668 
L 381.407028 69.38624 
L 381.731747 69.219786 
L 382.056467 68.984927 
L 382.900737 68.363082 
L 384.199615 67.511628 
L 384.524335 67.29251 
L 386.927259 65.651574 
L 387.381866 65.339862 
L 388.875576 64.326526 
L 389.135351 64.143433 
L 389.460071 63.963388 
L 389.654903 63.855148 
L 389.979622 63.583951 
L 390.10951 63.515492 
L 390.434229 63.310251 
L 390.823893 63.013368 
L 392.707266 61.793131 
L 393.031985 61.559402 
L 393.291761 61.414919 
L 393.61648 61.154905 
L 393.9412 61.001335 
L 394.265919 60.711146 
L 394.395807 60.663202 
L 394.655583 60.502286 
L 395.694685 59.758323 
L 395.954461 59.617922 
L 398.422329 57.980727 
L 398.487273 57.93009 
L 398.487273 57.93009 
" clip-path="url(#pc0770a6f21)" style="fill: none; stroke: #ff0000; stroke-width: 1.5; stroke-linecap: square"/>
   </g>
   <g id="patch_3">
    <path d="M 57.6 307.584 
L 57.6 41.472 
" style="fill: none; stroke: #000000; stroke-width: 0.8; stroke-linejoin: miter; stroke-linecap: square"/>
   </g>
   <g id="patch_4">
    <path d="M 414.72 307.584 
L 414.72 41.472 
" style="fill: none; stroke: #000000; stroke-width: 0.8; stroke-linejoin: miter; stroke-linecap: square"/>
   </g>
   <g id="patch_5">
    <path d="M 57.6 307.584 
L 414.72 307.584 
" style="fill: none; stroke: #000000; stroke-width: 0.8; stroke-linejoin: miter; stroke-linecap: square"/>
   </g>
   <g id="patch_6">
    <path d="M 57.6 41.472 
L 414.72 41.472 
" style="fill: none; stroke: #000000; stroke-width: 0.8; stroke-linejoin: miter; stroke-linecap: square"/>
   </g>
   <g id="text_17">
    <!-- Script19_loss -->
    <g transform="translate(196.532813 35.472) scale(0.12 -0.12)">
     <defs>
      <path id="DejaVuSans-53" d="M 3425 4513 
L 3425 3897 
Q 3066 4069 2747 4153 
Q 2428 4238 2131 4238 
Q 1616 4238 1336 4038 
Q 1056 3838 1056 3469 
Q 1056 3159 1242 3001 
Q 1428 2844 1947 2747 
L 2328 2669 
Q 3034 2534 3370 2195 
Q 3706 1856 3706 1288 
Q 3706 609 3251 259 
Q 2797 -91 1919 -91 
Q 1588 -91 1214 -16 
Q 841 59 441 206 
L 441 856 
Q 825 641 1194 531 
Q 1563 422 1919 422 
Q 2459 422 2753 634 
Q 3047 847 3047 1241 
Q 3047 1584 2836 1778 
Q 2625 1972 2144 2069 
L 1759 2144 
Q 1053 2284 737 2584 
Q 422 2884 422 3419 
Q 422 4038 858 4394 
Q 1294 4750 2059 4750 
Q 2388 4750 2728 4690 
Q 3069 4631 3425 4513 
z
" transform="scale(0.015625)"/>
      <path id="DejaVuSans-72" d="M 2631 2963 
Q 2534 3019 2420 3045 
Q 2306 3072 2169 3072 
Q 1681 3072 1420 2755 
Q 1159 2438 1159 1844 
L 1159 0 
L 581 0 
L 581 3500 
L 1159 3500 
L 1159 2956 
Q 1341 3275 1631 3429 
Q 1922 3584 2338 3584 
Q 2397 3584 2469 3576 
Q 2541 3569 2628 3553 
L 2631 2963 
z
" transform="scale(0.015625)"/>
      <path id="DejaVuSans-69" d="M 603 3500 
L 1178 3500 
L 1178 0 
L 603 0 
L 603 3500 
z
M 603 4863 
L 1178 4863 
L 1178 4134 
L 603 4134 
L 603 4863 
z
" transform="scale(0.015625)"/>
      <path id="DejaVuSans-74" d="M 1172 4494 
L 1172 3500 
L 2356 3500 
L 2356 3053 
L 1172 3053 
L 1172 1153 
Q 1172 725 1289 603 
Q 1406 481 1766 481 
L 2356 481 
L 2356 0 
L 1766 0 
Q 1100 0 847 248 
Q 594 497 594 1153 
L 594 3053 
L 172 3053 
L 172 3500 
L 594 3500 
L 594 4494 
L 1172 4494 
z
" transform="scale(0.015625)"/>
      <path id="DejaVuSans-39" d="M 703 97 
L 703 672 
Q 941 559 1184 500 
Q 1428 441 1663 441 
Q 2288 441 2617 861 
Q 2947 1281 2994 2138 
Q 2813 1869 2534 1725 
Q 2256 1581 1919 1581 
Q 1219 1581 811 2004 
Q 403 2428 403 3163 
Q 403 3881 828 4315 
Q 1253 4750 1959 4750 
Q 2769 4750 3195 4129 
Q 3622 3509 3622 2328 
Q 3622 1225 3098 567 
Q 2575 -91 1691 -91 
Q 1453 -91 1209 -44 
Q 966 3 703 97 
z
M 1959 2075 
Q 2384 2075 2632 2365 
Q 2881 2656 2881 3163 
Q 2881 3666 2632 3958 
Q 2384 4250 1959 4250 
Q 1534 4250 1286 3958 
Q 1038 3666 1038 3163 
Q 1038 2656 1286 2365 
Q 1534 2075 1959 2075 
z
" transform="scale(0.015625)"/>
      <path id="DejaVuSans-5f" d="M 3263 -1063 
L 3263 -1509 
L -63 -1509 
L -63 -1063 
L 3263 -1063 
z
" transform="scale(0.015625)"/>
     </defs>
     <use xlink:href="#DejaVuSans-53"/>
     <use xlink:href="#DejaVuSans-63" x="63.476562"/>
     <use xlink:href="#DejaVuSans-72" x="118.457031"/>
     <use xlink:href="#DejaVuSans-69" x="159.570312"/>
     <use xlink:href="#DejaVuSans-70" x="187.353516"/>
     <use xlink:href="#DejaVuSans-74" x="250.830078"/>
     <use xlink:href="#DejaVuSans-31" x="290.039062"/>
     <use xlink:href="#DejaVuSans-39" x="353.662109"/>
     <use xlink:href="#DejaVuSans-5f" x="417.285156"/>
     <use xlink:href="#DejaVuSans-6c" x="467.285156"/>
     <use xlink:href="#DejaVuSans-6f" x="495.068359"/>
     <use xlink:href="#DejaVuSans-73" x="556.25"/>
     <use xlink:href="#DejaVuSans-73" x="608.349609"/>
    </g>
   </g>
   <g id="legend_1">
    <g id="patch_7">
     <path d="M 64.6 93.506375 
L 164.295312 93.506375 
Q 166.295312 93.506375 166.295312 91.506375 
L 166.295312 48.472 
Q 166.295312 46.472 164.295312 46.472 
L 64.6 46.472 
Q 62.6 46.472 62.6 48.472 
L 62.6 91.506375 
Q 62.6 93.506375 64.6 93.506375 
z
" style="fill: #ffffff; opacity: 0.8; stroke: #cccccc; stroke-linejoin: miter"/>
    </g>
    <g id="line2d_18">
     <path d="M 66.6 54.570438 
L 76.6 54.570438 
L 86.6 54.570438 
" style="fill: none; stroke: #0000ff; stroke-width: 1.5; stroke-linecap: square"/>
    </g>
    <g id="text_18">
     <!-- training set -->
     <g transform="translate(94.6 58.070438) scale(0.1 -0.1)">
      <defs>
       <path id="DejaVuSans-61" d="M 2194 1759 
Q 1497 1759 1228 1600 
Q 959 1441 959 1056 
Q 959 750 1161 570 
Q 1363 391 1709 391 
Q 2188 391 2477 730 
Q 2766 1069 2766 1631 
L 2766 1759 
L 2194 1759 
z
M 3341 1997 
L 3341 0 
L 2766 0 
L 2766 531 
Q 2569 213 2275 61 
Q 1981 -91 1556 -91 
Q 1019 -91 701 211 
Q 384 513 384 1019 
Q 384 1609 779 1909 
Q 1175 2209 1959 2209 
L 2766 2209 
L 2766 2266 
Q 2766 2663 2505 2880 
Q 2244 3097 1772 3097 
Q 1472 3097 1187 3025 
Q 903 2953 641 2809 
L 641 3341 
Q 956 3463 1253 3523 
Q 1550 3584 1831 3584 
Q 2591 3584 2966 3190 
Q 3341 2797 3341 1997 
z
" transform="scale(0.015625)"/>
       <path id="DejaVuSans-6e" d="M 3513 2113 
L 3513 0 
L 2938 0 
L 2938 2094 
Q 2938 2591 2744 2837 
Q 2550 3084 2163 3084 
Q 1697 3084 1428 2787 
Q 1159 2491 1159 1978 
L 1159 0 
L 581 0 
L 581 3500 
L 1159 3500 
L 1159 2956 
Q 1366 3272 1645 3428 
Q 1925 3584 2291 3584 
Q 2894 3584 3203 3211 
Q 3513 2838 3513 2113 
z
" transform="scale(0.015625)"/>
       <path id="DejaVuSans-67" d="M 2906 1791 
Q 2906 2416 2648 2759 
Q 2391 3103 1925 3103 
Q 1463 3103 1205 2759 
Q 947 2416 947 1791 
Q 947 1169 1205 825 
Q 1463 481 1925 481 
Q 2391 481 2648 825 
Q 2906 1169 2906 1791 
z
M 3481 434 
Q 3481 -459 3084 -895 
Q 2688 -1331 1869 -1331 
Q 1566 -1331 1297 -1286 
Q 1028 -1241 775 -1147 
L 775 -588 
Q 1028 -725 1275 -790 
Q 1522 -856 1778 -856 
Q 2344 -856 2625 -561 
Q 2906 -266 2906 331 
L 2906 616 
Q 2728 306 2450 153 
Q 2172 0 1784 0 
Q 1141 0 747 490 
Q 353 981 353 1791 
Q 353 2603 747 3093 
Q 1141 3584 1784 3584 
Q 2172 3584 2450 3431 
Q 2728 3278 2906 2969 
L 2906 3500 
L 3481 3500 
L 3481 434 
z
" transform="scale(0.015625)"/>
       <path id="DejaVuSans-20" transform="scale(0.015625)"/>
      </defs>
      <use xlink:href="#DejaVuSans-74"/>
      <use xlink:href="#DejaVuSans-72" x="39.208984"/>
      <use xlink:href="#DejaVuSans-61" x="80.322266"/>
      <use xlink:href="#DejaVuSans-69" x="141.601562"/>
      <use xlink:href="#DejaVuSans-6e" x="169.384766"/>
      <use xlink:href="#DejaVuSans-69" x="232.763672"/>
      <use xlink:href="#DejaVuSans-6e" x="260.546875"/>
      <use xlink:href="#DejaVuSans-67" x="323.925781"/>
      <use xlink:href="#DejaVuSans-20" x="387.402344"/>
      <use xlink:href="#DejaVuSans-73" x="419.189453"/>
      <use xlink:href="#DejaVuSans-65" x="471.289062"/>
      <use xlink:href="#DejaVuSans-74" x="532.8125"/>
     </g>
    </g>
    <g id="line2d_19">
     <path d="M 66.6 69.248563 
L 76.6 69.248563 
L 86.6 69.248563 
" style="fill: none; stroke: #008000; stroke-width: 1.5; stroke-linecap: square"/>
    </g>
    <g id="text_19">
     <!-- validation set -->
     <g transform="translate(94.6 72.748563) scale(0.1 -0.1)">
      <defs>
       <path id="DejaVuSans-76" d="M 191 3500 
L 800 3500 
L 1894 563 
L 2988 3500 
L 3597 3500 
L 2284 0 
L 1503 0 
L 191 3500 
z
" transform="scale(0.015625)"/>
       <path id="DejaVuSans-64" d="M 2906 2969 
L 2906 4863 
L 3481 4863 
L 3481 0 
L 2906 0 
L 2906 525 
Q 2725 213 2448 61 
Q 2172 -91 1784 -91 
Q 1150 -91 751 415 
Q 353 922 353 1747 
Q 353 2572 751 3078 
Q 1150 3584 1784 3584 
Q 2172 3584 2448 3432 
Q 2725 3281 2906 2969 
z
M 947 1747 
Q 947 1113 1208 752 
Q 1469 391 1925 391 
Q 2381 391 2643 752 
Q 2906 1113 2906 1747 
Q 2906 2381 2643 2742 
Q 2381 3103 1925 3103 
Q 1469 3103 1208 2742 
Q 947 2381 947 1747 
z
" transform="scale(0.015625)"/>
      </defs>
      <use xlink:href="#DejaVuSans-76"/>
      <use xlink:href="#DejaVuSans-61" x="59.179688"/>
      <use xlink:href="#DejaVuSans-6c" x="120.458984"/>
      <use xlink:href="#DejaVuSans-69" x="148.242188"/>
      <use xlink:href="#DejaVuSans-64" x="176.025391"/>
      <use xlink:href="#DejaVuSans-61" x="239.501953"/>
      <use xlink:href="#DejaVuSans-74" x="300.78125"/>
      <use xlink:href="#DejaVuSans-69" x="339.990234"/>
      <use xlink:href="#DejaVuSans-6f" x="367.773438"/>
      <use xlink:href="#DejaVuSans-6e" x="428.955078"/>
      <use xlink:href="#DejaVuSans-20" x="492.333984"/>
      <use xlink:href="#DejaVuSans-73" x="524.121094"/>
      <use xlink:href="#DejaVuSans-65" x="576.220703"/>
      <use xlink:href="#DejaVuSans-74" x="637.744141"/>
     </g>
    </g>
    <g id="line2d_20">
     <path d="M 66.6 83.926688 
L 76.6 83.926688 
L 86.6 83.926688 
" style="fill: none; stroke: #ff0000; stroke-width: 1.5; stroke-linecap: square"/>
    </g>
    <g id="text_20">
     <!-- test set -->
     <g transform="translate(94.6 87.426688) scale(0.1 -0.1)">
      <use xlink:href="#DejaVuSans-74"/>
      <use xlink:href="#DejaVuSans-65" x="39.208984"/>
      <use xlink:href="#DejaVuSans-73" x="100.732422"/>
      <use xlink:href="#DejaVuSans-74" x="152.832031"/>
      <use xlink:href="#DejaVuSans-20" x="192.041016"/>
      <use xlink:href="#DejaVuSans-73" x="223.828125"/>
      <use xlink:href="#DejaVuSans-65" x="275.927734"/>
      <use xlink:href="#DejaVuSans-74" x="337.451172"/>
     </g>
    </g>
   </g>
  </g>
 </g>
 <defs>
  <clipPath id="pc0770a6f21">
   <rect x="57.6" y="41.472" width="357.12" height="266.112"/>
  </clipPath>
 </defs>
</svg>
