<?xml version="1.0" encoding="utf-8" standalone="no"?>
<!DOCTYPE svg PUBLIC "-//W3C//DTD SVG 1.1//EN"
  "http://www.w3.org/Graphics/SVG/1.1/DTD/svg11.dtd">
<svg xmlns:xlink="http://www.w3.org/1999/xlink" width="460.8pt" height="345.6pt" viewBox="0 0 460.8 345.6" xmlns="http://www.w3.org/2000/svg" version="1.1">
 <metadata>
  <rdf:RDF xmlns:dc="http://purl.org/dc/elements/1.1/" xmlns:cc="http://creativecommons.org/ns#" xmlns:rdf="http://www.w3.org/1999/02/22-rdf-syntax-ns#">
   <cc:Work>
    <dc:type rdf:resource="http://purl.org/dc/dcmitype/StillImage"/>
    <dc:date>2023-05-02T21:01:00.888546</dc:date>
    <dc:format>image/svg+xml</dc:format>
    <dc:creator>
     <cc:Agent>
      <dc:title>Matplotlib v3.6.2, https://matplotlib.org/</dc:title>
     </cc:Agent>
    </dc:creator>
   </cc:Work>
  </rdf:RDF>
 </metadata>
 <defs>
  <style type="text/css">*{stroke-linejoin: round; stroke-linecap: butt}</style>
 </defs>
 <g id="figure_1">
  <g id="patch_1">
   <path d="M 0 345.6 
L 460.8 345.6 
L 460.8 0 
L 0 0 
z
" style="fill: #ffffff"/>
  </g>
  <g id="axes_1">
   <g id="patch_2">
    <path d="M 57.6 307.584 
L 414.72 307.584 
L 414.72 41.472 
L 57.6 41.472 
z
" style="fill: #ffffff"/>
   </g>
   <g id="matplotlib.axis_1">
    <g id="xtick_1">
     <g id="line2d_1">
      <defs>
       <path id="m55b8fc62c8" d="M 0 0 
L 0 3.5 
" style="stroke: #000000; stroke-width: 0.8"/>
      </defs>
      <g>
       <use xlink:href="#m55b8fc62c8" x="73.182117" y="307.584" style="stroke: #000000; stroke-width: 0.8"/>
      </g>
     </g>
     <g id="text_1">
      <!-- 0 -->
      <g transform="translate(70.000867 322.182437) scale(0.1 -0.1)">
       <defs>
        <path id="DejaVuSans-30" d="M 2034 4250 
Q 1547 4250 1301 3770 
Q 1056 3291 1056 2328 
Q 1056 1369 1301 889 
Q 1547 409 2034 409 
Q 2525 409 2770 889 
Q 3016 1369 3016 2328 
Q 3016 3291 2770 3770 
Q 2525 4250 2034 4250 
z
M 2034 4750 
Q 2819 4750 3233 4129 
Q 3647 3509 3647 2328 
Q 3647 1150 3233 529 
Q 2819 -91 2034 -91 
Q 1250 -91 836 529 
Q 422 1150 422 2328 
Q 422 3509 836 4129 
Q 1250 4750 2034 4750 
z
" transform="scale(0.015625)"/>
       </defs>
       <use xlink:href="#DejaVuSans-30"/>
      </g>
     </g>
    </g>
    <g id="xtick_2">
     <g id="line2d_2">
      <g>
       <use xlink:href="#m55b8fc62c8" x="138.243148" y="307.584" style="stroke: #000000; stroke-width: 0.8"/>
      </g>
     </g>
     <g id="text_2">
      <!-- 100 -->
      <g transform="translate(128.699398 322.182437) scale(0.1 -0.1)">
       <defs>
        <path id="DejaVuSans-31" d="M 794 531 
L 1825 531 
L 1825 4091 
L 703 3866 
L 703 4441 
L 1819 4666 
L 2450 4666 
L 2450 531 
L 3481 531 
L 3481 0 
L 794 0 
L 794 531 
z
" transform="scale(0.015625)"/>
       </defs>
       <use xlink:href="#DejaVuSans-31"/>
       <use xlink:href="#DejaVuSans-30" x="63.623047"/>
       <use xlink:href="#DejaVuSans-30" x="127.246094"/>
      </g>
     </g>
    </g>
    <g id="xtick_3">
     <g id="line2d_3">
      <g>
       <use xlink:href="#m55b8fc62c8" x="203.304179" y="307.584" style="stroke: #000000; stroke-width: 0.8"/>
      </g>
     </g>
     <g id="text_3">
      <!-- 200 -->
      <g transform="translate(193.760429 322.182437) scale(0.1 -0.1)">
       <defs>
        <path id="DejaVuSans-32" d="M 1228 531 
L 3431 531 
L 3431 0 
L 469 0 
L 469 531 
Q 828 903 1448 1529 
Q 2069 2156 2228 2338 
Q 2531 2678 2651 2914 
Q 2772 3150 2772 3378 
Q 2772 3750 2511 3984 
Q 2250 4219 1831 4219 
Q 1534 4219 1204 4116 
Q 875 4013 500 3803 
L 500 4441 
Q 881 4594 1212 4672 
Q 1544 4750 1819 4750 
Q 2544 4750 2975 4387 
Q 3406 4025 3406 3419 
Q 3406 3131 3298 2873 
Q 3191 2616 2906 2266 
Q 2828 2175 2409 1742 
Q 1991 1309 1228 531 
z
" transform="scale(0.015625)"/>
       </defs>
       <use xlink:href="#DejaVuSans-32"/>
       <use xlink:href="#DejaVuSans-30" x="63.623047"/>
       <use xlink:href="#DejaVuSans-30" x="127.246094"/>
      </g>
     </g>
    </g>
    <g id="xtick_4">
     <g id="line2d_4">
      <g>
       <use xlink:href="#m55b8fc62c8" x="268.36521" y="307.584" style="stroke: #000000; stroke-width: 0.8"/>
      </g>
     </g>
     <g id="text_4">
      <!-- 300 -->
      <g transform="translate(258.82146 322.182437) scale(0.1 -0.1)">
       <defs>
        <path id="DejaVuSans-33" d="M 2597 2516 
Q 3050 2419 3304 2112 
Q 3559 1806 3559 1356 
Q 3559 666 3084 287 
Q 2609 -91 1734 -91 
Q 1441 -91 1130 -33 
Q 819 25 488 141 
L 488 750 
Q 750 597 1062 519 
Q 1375 441 1716 441 
Q 2309 441 2620 675 
Q 2931 909 2931 1356 
Q 2931 1769 2642 2001 
Q 2353 2234 1838 2234 
L 1294 2234 
L 1294 2753 
L 1863 2753 
Q 2328 2753 2575 2939 
Q 2822 3125 2822 3475 
Q 2822 3834 2567 4026 
Q 2313 4219 1838 4219 
Q 1578 4219 1281 4162 
Q 984 4106 628 3988 
L 628 4550 
Q 988 4650 1302 4700 
Q 1616 4750 1894 4750 
Q 2613 4750 3031 4423 
Q 3450 4097 3450 3541 
Q 3450 3153 3228 2886 
Q 3006 2619 2597 2516 
z
" transform="scale(0.015625)"/>
       </defs>
       <use xlink:href="#DejaVuSans-33"/>
       <use xlink:href="#DejaVuSans-30" x="63.623047"/>
       <use xlink:href="#DejaVuSans-30" x="127.246094"/>
      </g>
     </g>
    </g>
    <g id="xtick_5">
     <g id="line2d_5">
      <g>
       <use xlink:href="#m55b8fc62c8" x="333.426242" y="307.584" style="stroke: #000000; stroke-width: 0.8"/>
      </g>
     </g>
     <g id="text_5">
      <!-- 400 -->
      <g transform="translate(323.882492 322.182437) scale(0.1 -0.1)">
       <defs>
        <path id="DejaVuSans-34" d="M 2419 4116 
L 825 1625 
L 2419 1625 
L 2419 4116 
z
M 2253 4666 
L 3047 4666 
L 3047 1625 
L 3713 1625 
L 3713 1100 
L 3047 1100 
L 3047 0 
L 2419 0 
L 2419 1100 
L 313 1100 
L 313 1709 
L 2253 4666 
z
" transform="scale(0.015625)"/>
       </defs>
       <use xlink:href="#DejaVuSans-34"/>
       <use xlink:href="#DejaVuSans-30" x="63.623047"/>
       <use xlink:href="#DejaVuSans-30" x="127.246094"/>
      </g>
     </g>
    </g>
    <g id="xtick_6">
     <g id="line2d_6">
      <g>
       <use xlink:href="#m55b8fc62c8" x="398.487273" y="307.584" style="stroke: #000000; stroke-width: 0.8"/>
      </g>
     </g>
     <g id="text_6">
      <!-- 500 -->
      <g transform="translate(388.943523 322.182437) scale(0.1 -0.1)">
       <defs>
        <path id="DejaVuSans-35" d="M 691 4666 
L 3169 4666 
L 3169 4134 
L 1269 4134 
L 1269 2991 
Q 1406 3038 1543 3061 
Q 1681 3084 1819 3084 
Q 2600 3084 3056 2656 
Q 3513 2228 3513 1497 
Q 3513 744 3044 326 
Q 2575 -91 1722 -91 
Q 1428 -91 1123 -41 
Q 819 9 494 109 
L 494 744 
Q 775 591 1075 516 
Q 1375 441 1709 441 
Q 2250 441 2565 725 
Q 2881 1009 2881 1497 
Q 2881 1984 2565 2268 
Q 2250 2553 1709 2553 
Q 1456 2553 1204 2497 
Q 953 2441 691 2322 
L 691 4666 
z
" transform="scale(0.015625)"/>
       </defs>
       <use xlink:href="#DejaVuSans-35"/>
       <use xlink:href="#DejaVuSans-30" x="63.623047"/>
       <use xlink:href="#DejaVuSans-30" x="127.246094"/>
      </g>
     </g>
    </g>
    <g id="text_7">
     <!-- epoch -->
     <g transform="translate(220.931875 335.860562) scale(0.1 -0.1)">
      <defs>
       <path id="DejaVuSans-65" d="M 3597 1894 
L 3597 1613 
L 953 1613 
Q 991 1019 1311 708 
Q 1631 397 2203 397 
Q 2534 397 2845 478 
Q 3156 559 3463 722 
L 3463 178 
Q 3153 47 2828 -22 
Q 2503 -91 2169 -91 
Q 1331 -91 842 396 
Q 353 884 353 1716 
Q 353 2575 817 3079 
Q 1281 3584 2069 3584 
Q 2775 3584 3186 3129 
Q 3597 2675 3597 1894 
z
M 3022 2063 
Q 3016 2534 2758 2815 
Q 2500 3097 2075 3097 
Q 1594 3097 1305 2825 
Q 1016 2553 972 2059 
L 3022 2063 
z
" transform="scale(0.015625)"/>
       <path id="DejaVuSans-70" d="M 1159 525 
L 1159 -1331 
L 581 -1331 
L 581 3500 
L 1159 3500 
L 1159 2969 
Q 1341 3281 1617 3432 
Q 1894 3584 2278 3584 
Q 2916 3584 3314 3078 
Q 3713 2572 3713 1747 
Q 3713 922 3314 415 
Q 2916 -91 2278 -91 
Q 1894 -91 1617 61 
Q 1341 213 1159 525 
z
M 3116 1747 
Q 3116 2381 2855 2742 
Q 2594 3103 2138 3103 
Q 1681 3103 1420 2742 
Q 1159 2381 1159 1747 
Q 1159 1113 1420 752 
Q 1681 391 2138 391 
Q 2594 391 2855 752 
Q 3116 1113 3116 1747 
z
" transform="scale(0.015625)"/>
       <path id="DejaVuSans-6f" d="M 1959 3097 
Q 1497 3097 1228 2736 
Q 959 2375 959 1747 
Q 959 1119 1226 758 
Q 1494 397 1959 397 
Q 2419 397 2687 759 
Q 2956 1122 2956 1747 
Q 2956 2369 2687 2733 
Q 2419 3097 1959 3097 
z
M 1959 3584 
Q 2709 3584 3137 3096 
Q 3566 2609 3566 1747 
Q 3566 888 3137 398 
Q 2709 -91 1959 -91 
Q 1206 -91 779 398 
Q 353 888 353 1747 
Q 353 2609 779 3096 
Q 1206 3584 1959 3584 
z
" transform="scale(0.015625)"/>
       <path id="DejaVuSans-63" d="M 3122 3366 
L 3122 2828 
Q 2878 2963 2633 3030 
Q 2388 3097 2138 3097 
Q 1578 3097 1268 2742 
Q 959 2388 959 1747 
Q 959 1106 1268 751 
Q 1578 397 2138 397 
Q 2388 397 2633 464 
Q 2878 531 3122 666 
L 3122 134 
Q 2881 22 2623 -34 
Q 2366 -91 2075 -91 
Q 1284 -91 818 406 
Q 353 903 353 1747 
Q 353 2603 823 3093 
Q 1294 3584 2113 3584 
Q 2378 3584 2631 3529 
Q 2884 3475 3122 3366 
z
" transform="scale(0.015625)"/>
       <path id="DejaVuSans-68" d="M 3513 2113 
L 3513 0 
L 2938 0 
L 2938 2094 
Q 2938 2591 2744 2837 
Q 2550 3084 2163 3084 
Q 1697 3084 1428 2787 
Q 1159 2491 1159 1978 
L 1159 0 
L 581 0 
L 581 4863 
L 1159 4863 
L 1159 2956 
Q 1366 3272 1645 3428 
Q 1925 3584 2291 3584 
Q 2894 3584 3203 3211 
Q 3513 2838 3513 2113 
z
" transform="scale(0.015625)"/>
      </defs>
      <use xlink:href="#DejaVuSans-65"/>
      <use xlink:href="#DejaVuSans-70" x="61.523438"/>
      <use xlink:href="#DejaVuSans-6f" x="125"/>
      <use xlink:href="#DejaVuSans-63" x="186.181641"/>
      <use xlink:href="#DejaVuSans-68" x="241.162109"/>
     </g>
    </g>
   </g>
   <g id="matplotlib.axis_2">
    <g id="ytick_1">
     <g id="line2d_7">
      <defs>
       <path id="me1e8800559" d="M 0 0 
L -3.5 0 
" style="stroke: #000000; stroke-width: 0.8"/>
      </defs>
      <g>
       <use xlink:href="#me1e8800559" x="57.6" y="285.464322" style="stroke: #000000; stroke-width: 0.8"/>
      </g>
     </g>
     <g id="text_8">
      <!-- 1.5 -->
      <g transform="translate(34.696875 289.263541) scale(0.1 -0.1)">
       <defs>
        <path id="DejaVuSans-2e" d="M 684 794 
L 1344 794 
L 1344 0 
L 684 0 
L 684 794 
z
" transform="scale(0.015625)"/>
       </defs>
       <use xlink:href="#DejaVuSans-31"/>
       <use xlink:href="#DejaVuSans-2e" x="63.623047"/>
       <use xlink:href="#DejaVuSans-35" x="95.410156"/>
      </g>
     </g>
    </g>
    <g id="ytick_2">
     <g id="line2d_8">
      <g>
       <use xlink:href="#me1e8800559" x="57.6" y="233.457132" style="stroke: #000000; stroke-width: 0.8"/>
      </g>
     </g>
     <g id="text_9">
      <!-- 1.6 -->
      <g transform="translate(34.696875 237.256351) scale(0.1 -0.1)">
       <defs>
        <path id="DejaVuSans-36" d="M 2113 2584 
Q 1688 2584 1439 2293 
Q 1191 2003 1191 1497 
Q 1191 994 1439 701 
Q 1688 409 2113 409 
Q 2538 409 2786 701 
Q 3034 994 3034 1497 
Q 3034 2003 2786 2293 
Q 2538 2584 2113 2584 
z
M 3366 4563 
L 3366 3988 
Q 3128 4100 2886 4159 
Q 2644 4219 2406 4219 
Q 1781 4219 1451 3797 
Q 1122 3375 1075 2522 
Q 1259 2794 1537 2939 
Q 1816 3084 2150 3084 
Q 2853 3084 3261 2657 
Q 3669 2231 3669 1497 
Q 3669 778 3244 343 
Q 2819 -91 2113 -91 
Q 1303 -91 875 529 
Q 447 1150 447 2328 
Q 447 3434 972 4092 
Q 1497 4750 2381 4750 
Q 2619 4750 2861 4703 
Q 3103 4656 3366 4563 
z
" transform="scale(0.015625)"/>
       </defs>
       <use xlink:href="#DejaVuSans-31"/>
       <use xlink:href="#DejaVuSans-2e" x="63.623047"/>
       <use xlink:href="#DejaVuSans-36" x="95.410156"/>
      </g>
     </g>
    </g>
    <g id="ytick_3">
     <g id="line2d_9">
      <g>
       <use xlink:href="#me1e8800559" x="57.6" y="181.449942" style="stroke: #000000; stroke-width: 0.8"/>
      </g>
     </g>
     <g id="text_10">
      <!-- 1.7 -->
      <g transform="translate(34.696875 185.24916) scale(0.1 -0.1)">
       <defs>
        <path id="DejaVuSans-37" d="M 525 4666 
L 3525 4666 
L 3525 4397 
L 1831 0 
L 1172 0 
L 2766 4134 
L 525 4134 
L 525 4666 
z
" transform="scale(0.015625)"/>
       </defs>
       <use xlink:href="#DejaVuSans-31"/>
       <use xlink:href="#DejaVuSans-2e" x="63.623047"/>
       <use xlink:href="#DejaVuSans-37" x="95.410156"/>
      </g>
     </g>
    </g>
    <g id="ytick_4">
     <g id="line2d_10">
      <g>
       <use xlink:href="#me1e8800559" x="57.6" y="129.442752" style="stroke: #000000; stroke-width: 0.8"/>
      </g>
     </g>
     <g id="text_11">
      <!-- 1.8 -->
      <g transform="translate(34.696875 133.24197) scale(0.1 -0.1)">
       <defs>
        <path id="DejaVuSans-38" d="M 2034 2216 
Q 1584 2216 1326 1975 
Q 1069 1734 1069 1313 
Q 1069 891 1326 650 
Q 1584 409 2034 409 
Q 2484 409 2743 651 
Q 3003 894 3003 1313 
Q 3003 1734 2745 1975 
Q 2488 2216 2034 2216 
z
M 1403 2484 
Q 997 2584 770 2862 
Q 544 3141 544 3541 
Q 544 4100 942 4425 
Q 1341 4750 2034 4750 
Q 2731 4750 3128 4425 
Q 3525 4100 3525 3541 
Q 3525 3141 3298 2862 
Q 3072 2584 2669 2484 
Q 3125 2378 3379 2068 
Q 3634 1759 3634 1313 
Q 3634 634 3220 271 
Q 2806 -91 2034 -91 
Q 1263 -91 848 271 
Q 434 634 434 1313 
Q 434 1759 690 2068 
Q 947 2378 1403 2484 
z
M 1172 3481 
Q 1172 3119 1398 2916 
Q 1625 2713 2034 2713 
Q 2441 2713 2670 2916 
Q 2900 3119 2900 3481 
Q 2900 3844 2670 4047 
Q 2441 4250 2034 4250 
Q 1625 4250 1398 4047 
Q 1172 3844 1172 3481 
z
" transform="scale(0.015625)"/>
       </defs>
       <use xlink:href="#DejaVuSans-31"/>
       <use xlink:href="#DejaVuSans-2e" x="63.623047"/>
       <use xlink:href="#DejaVuSans-38" x="95.410156"/>
      </g>
     </g>
    </g>
    <g id="ytick_5">
     <g id="line2d_11">
      <g>
       <use xlink:href="#me1e8800559" x="57.6" y="77.435561" style="stroke: #000000; stroke-width: 0.8"/>
      </g>
     </g>
     <g id="text_12">
      <!-- 1.9 -->
      <g transform="translate(34.696875 81.23478) scale(0.1 -0.1)">
       <defs>
        <path id="DejaVuSans-39" d="M 703 97 
L 703 672 
Q 941 559 1184 500 
Q 1428 441 1663 441 
Q 2288 441 2617 861 
Q 2947 1281 2994 2138 
Q 2813 1869 2534 1725 
Q 2256 1581 1919 1581 
Q 1219 1581 811 2004 
Q 403 2428 403 3163 
Q 403 3881 828 4315 
Q 1253 4750 1959 4750 
Q 2769 4750 3195 4129 
Q 3622 3509 3622 2328 
Q 3622 1225 3098 567 
Q 2575 -91 1691 -91 
Q 1453 -91 1209 -44 
Q 966 3 703 97 
z
M 1959 2075 
Q 2384 2075 2632 2365 
Q 2881 2656 2881 3163 
Q 2881 3666 2632 3958 
Q 2384 4250 1959 4250 
Q 1534 4250 1286 3958 
Q 1038 3666 1038 3163 
Q 1038 2656 1286 2365 
Q 1534 2075 1959 2075 
z
" transform="scale(0.015625)"/>
       </defs>
       <use xlink:href="#DejaVuSans-31"/>
       <use xlink:href="#DejaVuSans-2e" x="63.623047"/>
       <use xlink:href="#DejaVuSans-39" x="95.410156"/>
      </g>
     </g>
    </g>
    <g id="text_13">
     <!-- loss -->
     <g transform="translate(28.617188 184.185812) rotate(-90) scale(0.1 -0.1)">
      <defs>
       <path id="DejaVuSans-6c" d="M 603 4863 
L 1178 4863 
L 1178 0 
L 603 0 
L 603 4863 
z
" transform="scale(0.015625)"/>
       <path id="DejaVuSans-73" d="M 2834 3397 
L 2834 2853 
Q 2591 2978 2328 3040 
Q 2066 3103 1784 3103 
Q 1356 3103 1142 2972 
Q 928 2841 928 2578 
Q 928 2378 1081 2264 
Q 1234 2150 1697 2047 
L 1894 2003 
Q 2506 1872 2764 1633 
Q 3022 1394 3022 966 
Q 3022 478 2636 193 
Q 2250 -91 1575 -91 
Q 1294 -91 989 -36 
Q 684 19 347 128 
L 347 722 
Q 666 556 975 473 
Q 1284 391 1588 391 
Q 1994 391 2212 530 
Q 2431 669 2431 922 
Q 2431 1156 2273 1281 
Q 2116 1406 1581 1522 
L 1381 1569 
Q 847 1681 609 1914 
Q 372 2147 372 2553 
Q 372 3047 722 3315 
Q 1072 3584 1716 3584 
Q 2034 3584 2315 3537 
Q 2597 3491 2834 3397 
z
" transform="scale(0.015625)"/>
      </defs>
      <use xlink:href="#DejaVuSans-6c"/>
      <use xlink:href="#DejaVuSans-6f" x="27.783203"/>
      <use xlink:href="#DejaVuSans-73" x="88.964844"/>
      <use xlink:href="#DejaVuSans-73" x="141.064453"/>
     </g>
    </g>
   </g>
   <g id="line2d_12">
    <path d="M 73.832727 53.568 
L 94.652257 54.186796 
L 112.218736 55.531086 
L 119.375449 56.453793 
L 121.32728 56.828505 
L 123.279111 57.121009 
L 126.532163 57.752081 
L 129.134604 58.290404 
L 130.435824 58.626616 
L 131.737045 58.897235 
L 133.688876 59.472881 
L 135.640707 60.019388 
L 138.243148 60.752135 
L 140.194979 61.437206 
L 142.79742 62.339764 
L 146.050472 63.561547 
L 146.701082 63.909539 
L 148.002303 64.381773 
L 149.303523 64.995485 
L 151.255354 65.858489 
L 154.508406 67.70223 
L 155.159016 67.852263 
L 155.809627 68.378621 
L 157.110847 68.973672 
L 159.062678 70.13104 
L 160.363899 70.827085 
L 166.870002 75.095544 
L 167.520612 75.611858 
L 168.171222 75.91205 
L 168.821833 76.453783 
L 170.123053 77.226581 
L 172.074884 78.921218 
L 172.725495 79.147446 
L 177.279767 82.506713 
L 177.930377 83.308092 
L 179.231598 83.973758 
L 179.882208 84.714689 
L 180.532818 84.950899 
L 181.183429 85.484882 
L 181.834039 86.209322 
L 182.484649 86.633012 
L 183.13526 87.245609 
L 184.43648 88.21004 
L 186.388311 89.968101 
L 187.689532 90.958013 
L 188.340142 91.257337 
L 189.641363 92.831327 
L 190.291973 92.991776 
L 191.593194 93.81163 
L 192.243804 94.928141 
L 193.545025 95.76182 
L 194.846245 96.880253 
L 195.496856 97.820878 
L 197.448686 99.080975 
L 198.099297 100.106536 
L 198.749907 100.358989 
L 199.400517 100.796443 
L 201.352348 102.952216 
L 202.002959 103.315893 
L 202.653569 103.8115 
L 203.304179 104.615483 
L 203.95479 104.898811 
L 204.6054 105.49163 
L 205.25601 106.367963 
L 205.906621 106.64503 
L 206.557231 107.322103 
L 207.207841 108.420697 
L 208.509062 109.108063 
L 209.159672 110.227922 
L 209.810282 110.673497 
L 210.460893 110.900345 
L 211.111503 112.343831 
L 212.412724 113.450609 
L 213.063334 113.587809 
L 213.713944 114.445295 
L 216.316385 116.785139 
L 216.966996 117.797308 
L 217.617606 118.174253 
L 218.268216 118.70867 
L 219.569437 120.258667 
L 220.220047 120.913546 
L 220.870658 121.086767 
L 221.521268 121.94946 
L 222.171878 122.234586 
L 222.822489 123.093126 
L 223.473099 123.633992 
L 224.123709 123.96171 
L 224.77432 125.04995 
L 225.42493 125.544318 
L 226.07554 126.876332 
L 226.72615 127.359106 
L 227.376761 128.12031 
L 228.027371 128.248334 
L 228.677981 129.082633 
L 229.328592 129.514073 
L 230.629812 130.754393 
L 231.280423 131.364572 
L 233.232254 133.616131 
L 233.882864 134.143667 
L 234.533474 134.520612 
L 235.184085 135.799804 
L 235.834695 136.027458 
L 236.485305 137.053329 
L 237.135915 137.519984 
L 239.738357 140.154129 
L 240.388967 140.378684 
L 241.039577 140.880925 
L 241.690188 142.049762 
L 242.340798 142.787097 
L 242.991408 143.233168 
L 244.292629 144.829912 
L 245.59385 145.665699 
L 246.24446 146.982709 
L 246.89507 147.58489 
L 247.54568 147.685636 
L 248.196291 148.299162 
L 249.497511 149.892805 
L 250.148122 150.536834 
L 250.798732 150.912229 
L 251.449342 152.167676 
L 252.099953 152.560554 
L 252.750563 153.406508 
L 253.401173 153.831066 
L 254.702394 155.378955 
L 255.353004 155.876671 
L 257.304835 157.866725 
L 257.955445 159.018823 
L 258.606056 159.13544 
L 259.256666 159.403331 
L 259.907276 160.023305 
L 260.557887 161.130826 
L 261.208497 161.415456 
L 261.859107 161.899222 
L 262.509718 163.436758 
L 263.160328 163.881031 
L 263.810938 164.942799 
L 265.112159 166.041455 
L 265.762769 166.652625 
L 266.413379 167.417301 
L 267.06399 167.409365 
L 267.7146 168.460035 
L 268.36521 169.266807 
L 269.015821 169.772706 
L 269.666431 171.282901 
L 270.317041 171.480053 
L 272.268872 173.02199 
L 272.919483 174.080224 
L 274.220703 175.171068 
L 274.871314 176.563716 
L 275.521924 176.281504 
L 276.823144 178.630027 
L 277.473755 178.636289 
L 278.124365 179.866069 
L 278.774975 180.217285 
L 279.425586 180.85809 
L 280.076196 182.330156 
L 280.726806 182.796624 
L 281.377417 182.843743 
L 282.028027 183.653925 
L 282.678637 184.804968 
L 283.329248 184.415315 
L 284.630468 186.756461 
L 285.281079 187.122121 
L 285.931689 187.698387 
L 286.582299 188.620474 
L 287.88352 189.745541 
L 288.53413 190.20333 
L 289.18474 190.813199 
L 289.835351 192.68459 
L 290.485961 192.535238 
L 291.136571 193.159056 
L 291.787182 194.74867 
L 292.437792 194.025346 
L 293.088402 196.155453 
L 293.739013 196.281989 
L 294.389623 197.204573 
L 295.040233 197.003763 
L 295.690844 198.47056 
L 296.341454 199.055691 
L 296.992064 200.264888 
L 297.642674 201.234032 
L 298.293285 201.403533 
L 298.943895 201.930511 
L 299.594505 201.962315 
L 300.245116 203.135988 
L 300.895726 203.496441 
L 302.196947 205.737337 
L 302.847557 205.80324 
L 303.498167 206.653845 
L 304.148778 207.799681 
L 305.449998 208.56944 
L 308.052439 211.308672 
L 308.70305 212.338944 
L 309.35366 212.398524 
L 310.00427 212.592638 
L 310.654881 214.466571 
L 311.305491 214.380395 
L 311.956101 214.82814 
L 313.257322 217.721745 
L 313.907932 217.433271 
L 314.558543 218.195219 
L 315.209153 218.755676 
L 315.859763 219.142725 
L 316.510373 219.986014 
L 317.160984 220.397677 
L 317.811594 221.499185 
L 318.462204 222.874411 
L 319.112815 223.274232 
L 319.763425 223.165551 
L 321.064646 225.033285 
L 321.715256 225.617176 
L 322.365866 226.646333 
L 323.016477 225.674338 
L 323.667087 227.504687 
L 324.968308 228.54085 
L 325.618918 228.695905 
L 326.269528 229.840005 
L 326.920138 230.730226 
L 327.570749 232.052072 
L 328.221359 232.321265 
L 328.871969 232.142899 
L 330.17319 234.005363 
L 330.8238 234.397248 
L 331.474411 235.436387 
L 332.125021 236.145389 
L 332.775631 236.246259 
L 334.076852 237.567113 
L 334.727462 238.364338 
L 336.028683 240.605668 
L 336.679293 240.478325 
L 337.329903 241.336803 
L 337.980514 241.497625 
L 338.631124 242.367882 
L 339.281734 242.122 
L 339.932345 243.684831 
L 340.582955 244.086016 
L 341.233565 245.29106 
L 341.884176 245.532601 
L 342.534786 245.052308 
L 343.185396 246.238132 
L 343.836007 247.949012 
L 344.486617 247.677402 
L 345.137227 248.951138 
L 345.787837 249.757042 
L 346.438448 250.016316 
L 347.739668 249.812716 
L 348.390279 252.063346 
L 349.040889 252.740419 
L 349.691499 253.143898 
L 350.99272 253.643102 
L 351.64333 254.855833 
L 352.293941 255.424845 
L 352.944551 256.50236 
L 353.595161 256.416121 
L 354.245772 256.747993 
L 354.896382 258.146345 
L 355.546992 258.460362 
L 356.197602 259.13043 
L 356.848213 259.975454 
L 357.498823 260.522271 
L 358.149433 260.264858 
L 358.800044 261.329539 
L 359.450654 262.036372 
L 360.101264 262.328008 
L 360.751875 263.130564 
L 361.402485 263.730203 
L 362.053095 263.537329 
L 363.354316 265.424902 
L 364.004926 265.832969 
L 365.306147 267.392761 
L 365.956757 267.643355 
L 366.607367 267.453395 
L 368.559198 270.722642 
L 369.209809 269.9013 
L 369.860419 271.66835 
L 370.511029 271.378512 
L 371.16164 271.755953 
L 371.81225 272.756839 
L 373.113471 273.096894 
L 373.764081 274.215637 
L 374.414691 275.724344 
L 375.065302 275.026315 
L 375.715912 276.78388 
L 376.366522 276.299432 
L 377.017132 277.296846 
L 378.318353 278.710945 
L 378.968963 278.673871 
L 379.619574 279.34617 
L 380.270184 280.747002 
L 380.920794 280.566155 
L 381.571405 280.870563 
L 382.222015 282.200283 
L 382.872625 282.507294 
L 383.523236 282.94264 
L 384.173846 283.058885 
L 384.824456 284.344463 
L 386.125677 284.657116 
L 386.776287 285.47697 
L 387.426897 286.660066 
L 388.077508 286.788091 
L 388.728118 286.037426 
L 389.378728 288.120539 
L 390.029339 287.888172 
L 390.679949 289.028181 
L 391.330559 288.190968 
L 391.98117 289.450135 
L 392.63178 289.606926 
L 393.28239 290.929579 
L 393.933001 290.524116 
L 394.583611 292.185646 
L 395.234221 292.381434 
L 395.884831 292.853048 
L 396.535442 294.019282 
L 397.186052 294.088595 
L 397.836662 294.330323 
L 398.487273 295.488 
L 398.487273 295.488 
" clip-path="url(#p1fc8eda8fa)" style="fill: none; stroke: #0000ff; stroke-width: 1.5; stroke-linecap: square"/>
   </g>
   <g id="line2d_13">
    <path d="M 73.832727 53.582073 
L 93.351037 54.09256 
L 105.062022 54.75866 
L 110.266905 55.182598 
L 113.519956 55.514284 
L 123.279111 56.850638 
L 126.532163 57.432546 
L 129.134604 57.944025 
L 130.435824 58.263435 
L 131.737045 58.501071 
L 134.339486 59.169899 
L 138.893758 60.505323 
L 144.749251 62.445346 
L 146.050472 62.914418 
L 147.351692 63.447286 
L 148.652913 64.011524 
L 151.905965 65.402312 
L 154.508406 66.786838 
L 155.159016 66.940964 
L 155.809627 67.430557 
L 158.412068 68.675651 
L 159.062678 69.085578 
L 160.363899 69.740332 
L 162.31573 70.860315 
L 162.96634 71.186794 
L 164.267561 72.242423 
L 164.918171 72.492707 
L 165.568781 73.005611 
L 168.171222 74.513574 
L 168.821833 75.008252 
L 170.123053 75.734675 
L 171.424274 76.8094 
L 172.074884 77.314617 
L 172.725495 77.539915 
L 173.376105 78.070985 
L 174.026715 78.432244 
L 174.677326 79.005472 
L 175.978546 79.890051 
L 176.629156 80.470347 
L 177.279767 80.800669 
L 177.930377 81.545382 
L 179.231598 82.224315 
L 179.882208 82.897669 
L 180.532818 83.214414 
L 185.737701 87.368612 
L 187.038921 88.460138 
L 187.689532 88.932496 
L 188.340142 89.191707 
L 189.641363 90.766565 
L 190.291973 90.971157 
L 190.942583 91.448909 
L 191.593194 91.781525 
L 192.243804 92.807706 
L 193.545025 93.633573 
L 194.846245 94.703214 
L 195.496856 95.565288 
L 197.448686 96.944978 
L 198.099297 97.780331 
L 198.749907 98.055786 
L 199.400517 98.53484 
L 200.051128 99.253265 
L 200.701738 100.166549 
L 202.653569 101.52144 
L 203.304179 102.169003 
L 204.6054 103.10783 
L 205.25601 103.95955 
L 205.906621 104.283673 
L 206.557231 104.953741 
L 207.207841 106.006766 
L 208.509062 106.705105 
L 209.159672 107.777598 
L 210.460893 108.508858 
L 211.111503 109.819111 
L 212.412724 110.929918 
L 213.063334 111.035004 
L 213.713944 111.994662 
L 214.364555 112.389585 
L 215.015165 113.124502 
L 216.316385 114.243369 
L 216.966996 115.247169 
L 218.268216 116.060327 
L 218.918827 117.033624 
L 219.569437 117.61671 
L 220.220047 118.375434 
L 220.870658 118.612822 
L 221.521268 119.287478 
L 222.171878 119.792881 
L 222.822489 120.631272 
L 223.473099 121.176353 
L 224.123709 121.52608 
L 226.07554 124.102506 
L 227.376761 125.492488 
L 228.027371 125.616359 
L 228.677981 126.460143 
L 229.328592 126.804229 
L 230.629812 128.225457 
L 231.280423 128.748777 
L 231.931033 129.662371 
L 233.232254 131.012613 
L 233.882864 131.396996 
L 234.533474 131.953671 
L 235.184085 132.976876 
L 235.834695 133.263242 
L 236.485305 134.229162 
L 237.135915 134.762525 
L 238.437136 136.068377 
L 239.738357 137.294437 
L 241.039577 138.034066 
L 241.690188 139.218093 
L 242.340798 139.972601 
L 242.991408 140.441859 
L 243.642019 141.237596 
L 244.292629 141.729111 
L 244.943239 142.552313 
L 245.59385 142.735391 
L 246.24446 144.116135 
L 246.89507 144.696617 
L 247.54568 144.891847 
L 248.196291 145.387578 
L 249.497511 146.964358 
L 250.148122 147.639448 
L 250.798732 148.088619 
L 251.449342 149.302466 
L 252.099953 149.739114 
L 252.750563 150.472667 
L 253.401173 150.667215 
L 254.051784 151.656197 
L 257.304835 154.736104 
L 257.955445 155.795888 
L 259.907276 156.914879 
L 260.557887 157.755006 
L 261.859107 158.833265 
L 262.509718 160.145874 
L 263.160328 160.658778 
L 264.461549 162.226816 
L 265.762769 163.304765 
L 266.413379 164.04458 
L 267.06399 164.311293 
L 268.36521 165.76786 
L 269.015821 166.29738 
L 269.666431 167.702241 
L 270.317041 167.992823 
L 274.220703 171.638208 
L 274.871314 172.72713 
L 275.521924 172.595882 
L 276.823144 174.723633 
L 277.473755 175.025002 
L 278.124365 176.121488 
L 278.774975 176.437489 
L 279.425586 177.339365 
L 280.076196 178.442237 
L 280.726806 178.602686 
L 282.028027 179.824531 
L 282.678637 180.888468 
L 283.329248 180.734033 
L 283.979858 181.935729 
L 284.630468 182.540327 
L 285.931689 183.493909 
L 286.582299 184.463239 
L 287.232909 185.046882 
L 287.88352 185.338332 
L 288.53413 186.196004 
L 289.18474 186.660055 
L 289.835351 188.365231 
L 290.485961 188.480484 
L 291.136571 189.008082 
L 291.787182 190.362229 
L 292.437792 189.748455 
L 293.088402 191.549604 
L 293.739013 191.618049 
L 294.389623 192.84256 
L 295.040233 192.739644 
L 296.992064 195.710683 
L 297.642674 196.610762 
L 298.293285 196.75007 
L 299.594505 197.612206 
L 300.245116 198.678065 
L 300.895726 199.118495 
L 302.196947 201.118407 
L 302.847557 201.346123 
L 303.498167 201.85413 
L 304.148778 202.866981 
L 304.799388 203.622606 
L 305.449998 204.115113 
L 306.100608 204.335576 
L 306.751219 205.186738 
L 307.401829 206.309821 
L 308.052439 206.090226 
L 308.70305 207.435632 
L 309.35366 207.595213 
L 310.00427 208.233415 
L 310.654881 209.402128 
L 311.305491 209.438892 
L 311.956101 209.950247 
L 312.606712 211.045989 
L 313.257322 212.533802 
L 313.907932 212.617251 
L 314.558543 213.134991 
L 315.209153 213.796813 
L 315.859763 213.727128 
L 316.510373 214.68257 
L 317.160984 215.06993 
L 318.462204 217.612072 
L 319.763425 218.051447 
L 320.414035 218.854561 
L 321.064646 219.964377 
L 321.715256 220.166054 
L 322.365866 221.249335 
L 323.016477 220.301581 
L 323.667087 222.245943 
L 324.317697 222.764118 
L 324.968308 223.117937 
L 325.618918 223.142674 
L 326.269528 224.515854 
L 326.920138 225.074265 
L 327.570749 226.19958 
L 328.221359 226.588427 
L 328.871969 226.797731 
L 329.52258 227.672824 
L 330.17319 228.28821 
L 330.8238 228.465027 
L 331.474411 229.753209 
L 332.775631 230.528362 
L 333.426242 231.053418 
L 334.076852 231.873024 
L 334.727462 232.353628 
L 336.028683 234.34641 
L 336.679293 234.186519 
L 337.329903 235.209538 
L 338.631124 236.077936 
L 339.281734 236.204844 
L 339.932345 237.635868 
L 340.582955 237.904131 
L 341.233565 239.372912 
L 341.884176 239.448486 
L 342.534786 239.032546 
L 343.836007 241.374374 
L 344.486617 241.777357 
L 345.137227 242.317788 
L 345.787837 243.425868 
L 346.438448 243.750858 
L 347.089058 243.568958 
L 347.739668 243.785577 
L 348.390279 245.587035 
L 349.040889 246.206513 
L 350.34211 246.657358 
L 350.99272 247.166047 
L 351.64333 247.905366 
L 352.293941 248.216035 
L 352.944551 249.481278 
L 353.595161 250.2064 
L 354.245772 249.795729 
L 354.896382 250.911868 
L 355.546992 251.211377 
L 356.848213 253.376327 
L 357.498823 253.247186 
L 358.149433 253.280045 
L 358.800044 254.222963 
L 359.450654 254.691354 
L 360.751875 255.86856 
L 361.402485 256.380349 
L 362.053095 256.362494 
L 362.703706 256.97261 
L 363.354316 257.971698 
L 364.004926 258.266496 
L 364.655537 258.900419 
L 365.306147 260.131254 
L 366.607367 260.007817 
L 367.908588 262.011387 
L 368.559198 262.673271 
L 369.209809 262.164954 
L 369.860419 263.36262 
L 370.511029 263.394797 
L 371.16164 263.822021 
L 371.81225 264.640883 
L 372.46286 264.865685 
L 373.113471 264.708336 
L 373.764081 266.259015 
L 374.414691 267.430146 
L 375.065302 266.617608 
L 375.715912 268.594209 
L 376.366522 268.122161 
L 377.017132 268.62341 
L 378.318353 269.866458 
L 378.968963 269.84885 
L 379.619574 271.05129 
L 380.270184 271.776102 
L 380.920794 271.714228 
L 381.571405 272.294772 
L 382.222015 273.333166 
L 382.872625 273.408617 
L 384.173846 274.09995 
L 385.475066 275.396564 
L 386.125677 275.339712 
L 386.776287 276.037183 
L 387.426897 277.168326 
L 388.077508 277.327411 
L 388.728118 276.682452 
L 389.378728 278.159974 
L 390.029339 278.411126 
L 391.98117 279.556838 
L 392.63178 279.782818 
L 393.28239 280.755867 
L 393.933001 280.332549 
L 394.583611 282.171826 
L 395.234221 282.626887 
L 395.884831 282.78126 
L 396.535442 283.217784 
L 397.186052 283.902236 
L 397.836662 284.271244 
L 398.487273 284.869457 
L 398.487273 284.869457 
" clip-path="url(#p1fc8eda8fa)" style="fill: none; stroke: #008000; stroke-width: 1.5; stroke-linecap: square"/>
   </g>
   <g id="line2d_14">
    <path d="M 73.832727 53.591435 
L 94.652257 54.158153 
L 111.568125 55.312669 
L 125.881552 57.294106 
L 129.785214 58.09443 
L 133.688876 58.973305 
L 135.640707 59.472943 
L 138.243148 60.15262 
L 139.544369 60.598815 
L 142.14681 61.409493 
L 145.399862 62.483536 
L 149.954134 64.282019 
L 151.255354 64.849915 
L 153.857796 66.094451 
L 154.508406 66.504998 
L 155.159016 66.655962 
L 155.809627 67.131668 
L 158.412068 68.347623 
L 159.062678 68.750916 
L 160.363899 69.389117 
L 162.31573 70.472894 
L 162.96634 70.793792 
L 164.267561 71.823197 
L 164.918171 72.057733 
L 165.568781 72.556068 
L 168.171222 74.026647 
L 168.821833 74.499811 
L 170.123053 75.207635 
L 171.424274 76.250927 
L 172.074884 76.735685 
L 172.725495 76.949886 
L 173.376105 77.468494 
L 174.026715 77.816238 
L 174.677326 78.371735 
L 175.978546 79.226803 
L 176.629156 79.787507 
L 177.279767 80.1107 
L 177.930377 80.829002 
L 179.231598 81.482454 
L 179.882208 82.131133 
L 180.532818 82.437834 
L 185.737701 86.463573 
L 187.038921 87.517653 
L 187.689532 87.975938 
L 188.340142 88.228144 
L 189.641363 89.743236 
L 190.291973 89.927802 
L 190.942583 90.400656 
L 191.593194 90.719385 
L 192.243804 91.722193 
L 193.545025 92.50863 
L 194.846245 93.546281 
L 195.496856 94.383184 
L 197.448686 95.723071 
L 198.099297 96.532448 
L 198.749907 96.79823 
L 199.400517 97.258251 
L 200.051128 97.956466 
L 200.701738 98.837015 
L 202.653569 100.141998 
L 203.304179 100.775364 
L 204.6054 101.67724 
L 205.25601 102.506765 
L 205.906621 102.822146 
L 206.557231 103.459913 
L 207.207841 104.479646 
L 208.509062 105.175939 
L 209.159672 106.201128 
L 210.460893 106.905357 
L 211.111503 108.170166 
L 212.412724 109.253632 
L 213.063334 109.36064 
L 213.713944 110.295623 
L 214.364555 110.678581 
L 215.665775 111.940662 
L 216.316385 112.488347 
L 216.966996 113.450485 
L 218.268216 114.244361 
L 218.918827 115.189636 
L 219.569437 115.756726 
L 220.220047 116.488543 
L 220.870658 116.714834 
L 221.521268 117.386204 
L 222.171878 117.875611 
L 222.822489 118.680585 
L 223.473099 119.214941 
L 224.123709 119.546193 
L 224.77432 120.429656 
L 225.42493 121.112557 
L 226.07554 122.066325 
L 226.72615 122.660323 
L 227.376761 123.410801 
L 228.027371 123.528472 
L 228.677981 124.335182 
L 229.328592 124.671704 
L 229.979202 125.453988 
L 231.280423 126.575025 
L 231.931033 127.458983 
L 233.232254 128.764277 
L 234.533474 129.695788 
L 235.184085 130.714219 
L 235.834695 130.97994 
L 236.485305 131.920007 
L 237.135915 132.445373 
L 239.087746 134.361464 
L 239.738357 134.910327 
L 241.039577 135.641153 
L 241.690188 136.781285 
L 242.340798 137.51986 
L 242.991408 137.987134 
L 243.642019 138.747408 
L 244.292629 139.257089 
L 244.943239 140.038814 
L 245.59385 140.233176 
L 246.24446 141.565748 
L 246.89507 142.136558 
L 247.54568 142.339042 
L 248.196291 142.807122 
L 249.497511 144.349308 
L 250.148122 144.998048 
L 250.798732 145.458999 
L 251.449342 146.622132 
L 252.099953 147.061136 
L 252.750563 147.770572 
L 253.401173 147.992895 
L 254.051784 148.926328 
L 257.304835 151.969346 
L 257.955445 153.016234 
L 259.907276 154.145207 
L 260.557887 154.988 
L 261.208497 155.591235 
L 261.859107 156.032718 
L 262.509718 157.328526 
L 263.160328 157.827171 
L 264.461549 159.419388 
L 265.762769 160.504281 
L 266.413379 161.229712 
L 267.06399 161.510065 
L 268.36521 162.976799 
L 269.015821 163.486356 
L 269.666431 164.856126 
L 270.317041 165.157186 
L 274.220703 168.815652 
L 274.871314 169.904017 
L 275.521924 169.780766 
L 276.823144 171.867908 
L 277.473755 172.170704 
L 278.124365 173.269608 
L 278.774975 173.572651 
L 279.425586 174.458656 
L 280.076196 175.566921 
L 280.726806 175.719311 
L 282.028027 176.955539 
L 282.678637 178.019105 
L 283.329248 177.885562 
L 283.979858 179.052043 
L 285.281079 180.127512 
L 285.931689 180.641409 
L 286.582299 181.594805 
L 287.232909 182.194754 
L 287.88352 182.489427 
L 288.53413 183.343318 
L 289.18474 183.820202 
L 289.835351 185.497789 
L 290.485961 185.628294 
L 291.136571 186.170709 
L 291.787182 187.509481 
L 292.437792 186.91195 
L 293.088402 188.72494 
L 293.739013 188.792517 
L 294.389623 189.984169 
L 295.040233 189.885469 
L 295.690844 190.953809 
L 296.341454 191.7829 
L 297.642674 193.703021 
L 298.293285 193.853861 
L 299.594505 194.674335 
L 300.245116 195.735482 
L 300.895726 196.167666 
L 302.196947 198.1279 
L 302.847557 198.357724 
L 303.498167 198.869389 
L 304.148778 199.872631 
L 304.799388 200.589507 
L 305.449998 201.044072 
L 306.100608 201.298137 
L 306.751219 202.127786 
L 307.401829 203.218135 
L 308.052439 203.034746 
L 308.70305 204.360189 
L 309.35366 204.516546 
L 310.00427 205.120339 
L 310.654881 206.307527 
L 311.305491 206.326684 
L 311.956101 206.844673 
L 312.606712 207.912082 
L 313.257322 209.343602 
L 313.907932 209.462017 
L 314.558543 209.942001 
L 315.209153 210.612007 
L 315.859763 210.571337 
L 316.510373 211.540666 
L 317.160984 211.877994 
L 318.462204 214.357084 
L 319.763425 214.809293 
L 320.414035 215.616251 
L 321.064646 216.714783 
L 321.715256 216.911191 
L 322.365866 217.956653 
L 323.016477 217.043245 
L 323.667087 218.945202 
L 324.968308 219.789172 
L 325.618918 219.847078 
L 326.269528 221.165081 
L 326.920138 221.732233 
L 327.570749 222.808198 
L 328.221359 223.194132 
L 328.871969 223.410565 
L 329.52258 224.275428 
L 330.17319 224.871471 
L 330.8238 225.04618 
L 331.474411 226.317313 
L 332.775631 227.075417 
L 333.426242 227.644987 
L 334.076852 228.401355 
L 334.727462 228.884501 
L 336.028683 230.852423 
L 336.679293 230.68069 
L 337.329903 231.708669 
L 338.631124 232.610793 
L 339.281734 232.708997 
L 339.932345 234.077465 
L 340.582955 234.326757 
L 341.233565 235.754247 
L 341.884176 235.843895 
L 342.534786 235.437379 
L 343.836007 237.775301 
L 345.137227 238.709167 
L 345.787837 239.79561 
L 346.438448 240.096793 
L 347.089058 239.941924 
L 347.739668 240.151971 
L 348.390279 241.898934 
L 349.040889 242.516738 
L 350.34211 243.006827 
L 350.99272 243.489415 
L 351.64333 244.210693 
L 352.293941 244.530971 
L 352.944551 245.773275 
L 353.595161 246.456239 
L 354.245772 246.086548 
L 354.896382 247.163691 
L 355.546992 247.472562 
L 356.197602 248.407855 
L 356.848213 249.575266 
L 358.149433 249.51798 
L 358.800044 250.435604 
L 359.450654 250.878761 
L 360.751875 252.067066 
L 361.402485 252.560689 
L 362.053095 252.530062 
L 362.703706 253.135095 
L 363.354316 254.138585 
L 364.004926 254.445224 
L 364.655537 255.070468 
L 365.306147 256.239491 
L 366.607367 256.166458 
L 367.908588 258.184659 
L 368.559198 258.774193 
L 369.209809 258.317272 
L 369.860419 259.529507 
L 370.511029 259.530995 
L 371.16164 259.929266 
L 371.81225 260.757241 
L 372.46286 260.971876 
L 373.113471 260.863505 
L 373.764081 262.404946 
L 374.414691 263.535655 
L 375.065302 262.765585 
L 375.715912 264.66314 
L 376.366522 264.22767 
L 377.017132 264.745968 
L 378.318353 265.992488 
L 378.968963 265.975563 
L 379.619574 267.144028 
L 380.270184 267.85954 
L 380.920794 267.809074 
L 381.571405 268.389184 
L 382.222015 269.42299 
L 382.872625 269.53471 
L 384.173846 270.227159 
L 385.475066 271.515775 
L 386.125677 271.476406 
L 386.776287 272.169661 
L 387.426897 273.239488 
L 388.077508 273.441538 
L 388.728118 272.809784 
L 389.378728 274.264863 
L 390.679949 274.849871 
L 391.330559 275.190857 
L 391.98117 275.673072 
L 392.63178 275.904633 
L 393.28239 276.81866 
L 393.933001 276.411337 
L 394.583611 278.217756 
L 395.234221 278.68472 
L 395.884831 278.841636 
L 396.535442 279.288637 
L 397.186052 280.003095 
L 397.836662 280.36671 
L 398.487273 280.952337 
L 398.487273 280.952337 
" clip-path="url(#p1fc8eda8fa)" style="fill: none; stroke: #ff0000; stroke-width: 1.5; stroke-linecap: square"/>
   </g>
   <g id="patch_3">
    <path d="M 57.6 307.584 
L 57.6 41.472 
" style="fill: none; stroke: #000000; stroke-width: 0.8; stroke-linejoin: miter; stroke-linecap: square"/>
   </g>
   <g id="patch_4">
    <path d="M 414.72 307.584 
L 414.72 41.472 
" style="fill: none; stroke: #000000; stroke-width: 0.8; stroke-linejoin: miter; stroke-linecap: square"/>
   </g>
   <g id="patch_5">
    <path d="M 57.6 307.584 
L 414.72 307.584 
" style="fill: none; stroke: #000000; stroke-width: 0.8; stroke-linejoin: miter; stroke-linecap: square"/>
   </g>
   <g id="patch_6">
    <path d="M 57.6 41.472 
L 414.72 41.472 
" style="fill: none; stroke: #000000; stroke-width: 0.8; stroke-linejoin: miter; stroke-linecap: square"/>
   </g>
   <g id="text_14">
    <!-- spectrumGCN + WithOutGraph + muliple concatenation + eigenvectors as features  + dropout 0.5_loss -->
    <g transform="translate(-76.259062 35.472) scale(0.12 -0.12)">
     <defs>
      <path id="DejaVuSans-74" d="M 1172 4494 
L 1172 3500 
L 2356 3500 
L 2356 3053 
L 1172 3053 
L 1172 1153 
Q 1172 725 1289 603 
Q 1406 481 1766 481 
L 2356 481 
L 2356 0 
L 1766 0 
Q 1100 0 847 248 
Q 594 497 594 1153 
L 594 3053 
L 172 3053 
L 172 3500 
L 594 3500 
L 594 4494 
L 1172 4494 
z
" transform="scale(0.015625)"/>
      <path id="DejaVuSans-72" d="M 2631 2963 
Q 2534 3019 2420 3045 
Q 2306 3072 2169 3072 
Q 1681 3072 1420 2755 
Q 1159 2438 1159 1844 
L 1159 0 
L 581 0 
L 581 3500 
L 1159 3500 
L 1159 2956 
Q 1341 3275 1631 3429 
Q 1922 3584 2338 3584 
Q 2397 3584 2469 3576 
Q 2541 3569 2628 3553 
L 2631 2963 
z
" transform="scale(0.015625)"/>
      <path id="DejaVuSans-75" d="M 544 1381 
L 544 3500 
L 1119 3500 
L 1119 1403 
Q 1119 906 1312 657 
Q 1506 409 1894 409 
Q 2359 409 2629 706 
Q 2900 1003 2900 1516 
L 2900 3500 
L 3475 3500 
L 3475 0 
L 2900 0 
L 2900 538 
Q 2691 219 2414 64 
Q 2138 -91 1772 -91 
Q 1169 -91 856 284 
Q 544 659 544 1381 
z
M 1991 3584 
L 1991 3584 
z
" transform="scale(0.015625)"/>
      <path id="DejaVuSans-6d" d="M 3328 2828 
Q 3544 3216 3844 3400 
Q 4144 3584 4550 3584 
Q 5097 3584 5394 3201 
Q 5691 2819 5691 2113 
L 5691 0 
L 5113 0 
L 5113 2094 
Q 5113 2597 4934 2840 
Q 4756 3084 4391 3084 
Q 3944 3084 3684 2787 
Q 3425 2491 3425 1978 
L 3425 0 
L 2847 0 
L 2847 2094 
Q 2847 2600 2669 2842 
Q 2491 3084 2119 3084 
Q 1678 3084 1418 2786 
Q 1159 2488 1159 1978 
L 1159 0 
L 581 0 
L 581 3500 
L 1159 3500 
L 1159 2956 
Q 1356 3278 1631 3431 
Q 1906 3584 2284 3584 
Q 2666 3584 2933 3390 
Q 3200 3197 3328 2828 
z
" transform="scale(0.015625)"/>
      <path id="DejaVuSans-47" d="M 3809 666 
L 3809 1919 
L 2778 1919 
L 2778 2438 
L 4434 2438 
L 4434 434 
Q 4069 175 3628 42 
Q 3188 -91 2688 -91 
Q 1594 -91 976 548 
Q 359 1188 359 2328 
Q 359 3472 976 4111 
Q 1594 4750 2688 4750 
Q 3144 4750 3555 4637 
Q 3966 4525 4313 4306 
L 4313 3634 
Q 3963 3931 3569 4081 
Q 3175 4231 2741 4231 
Q 1884 4231 1454 3753 
Q 1025 3275 1025 2328 
Q 1025 1384 1454 906 
Q 1884 428 2741 428 
Q 3075 428 3337 486 
Q 3600 544 3809 666 
z
" transform="scale(0.015625)"/>
      <path id="DejaVuSans-43" d="M 4122 4306 
L 4122 3641 
Q 3803 3938 3442 4084 
Q 3081 4231 2675 4231 
Q 1875 4231 1450 3742 
Q 1025 3253 1025 2328 
Q 1025 1406 1450 917 
Q 1875 428 2675 428 
Q 3081 428 3442 575 
Q 3803 722 4122 1019 
L 4122 359 
Q 3791 134 3420 21 
Q 3050 -91 2638 -91 
Q 1578 -91 968 557 
Q 359 1206 359 2328 
Q 359 3453 968 4101 
Q 1578 4750 2638 4750 
Q 3056 4750 3426 4639 
Q 3797 4528 4122 4306 
z
" transform="scale(0.015625)"/>
      <path id="DejaVuSans-4e" d="M 628 4666 
L 1478 4666 
L 3547 763 
L 3547 4666 
L 4159 4666 
L 4159 0 
L 3309 0 
L 1241 3903 
L 1241 0 
L 628 0 
L 628 4666 
z
" transform="scale(0.015625)"/>
      <path id="DejaVuSans-20" transform="scale(0.015625)"/>
      <path id="DejaVuSans-2b" d="M 2944 4013 
L 2944 2272 
L 4684 2272 
L 4684 1741 
L 2944 1741 
L 2944 0 
L 2419 0 
L 2419 1741 
L 678 1741 
L 678 2272 
L 2419 2272 
L 2419 4013 
L 2944 4013 
z
" transform="scale(0.015625)"/>
      <path id="DejaVuSans-57" d="M 213 4666 
L 850 4666 
L 1831 722 
L 2809 4666 
L 3519 4666 
L 4500 722 
L 5478 4666 
L 6119 4666 
L 4947 0 
L 4153 0 
L 3169 4050 
L 2175 0 
L 1381 0 
L 213 4666 
z
" transform="scale(0.015625)"/>
      <path id="DejaVuSans-69" d="M 603 3500 
L 1178 3500 
L 1178 0 
L 603 0 
L 603 3500 
z
M 603 4863 
L 1178 4863 
L 1178 4134 
L 603 4134 
L 603 4863 
z
" transform="scale(0.015625)"/>
      <path id="DejaVuSans-4f" d="M 2522 4238 
Q 1834 4238 1429 3725 
Q 1025 3213 1025 2328 
Q 1025 1447 1429 934 
Q 1834 422 2522 422 
Q 3209 422 3611 934 
Q 4013 1447 4013 2328 
Q 4013 3213 3611 3725 
Q 3209 4238 2522 4238 
z
M 2522 4750 
Q 3503 4750 4090 4092 
Q 4678 3434 4678 2328 
Q 4678 1225 4090 567 
Q 3503 -91 2522 -91 
Q 1538 -91 948 565 
Q 359 1222 359 2328 
Q 359 3434 948 4092 
Q 1538 4750 2522 4750 
z
" transform="scale(0.015625)"/>
      <path id="DejaVuSans-61" d="M 2194 1759 
Q 1497 1759 1228 1600 
Q 959 1441 959 1056 
Q 959 750 1161 570 
Q 1363 391 1709 391 
Q 2188 391 2477 730 
Q 2766 1069 2766 1631 
L 2766 1759 
L 2194 1759 
z
M 3341 1997 
L 3341 0 
L 2766 0 
L 2766 531 
Q 2569 213 2275 61 
Q 1981 -91 1556 -91 
Q 1019 -91 701 211 
Q 384 513 384 1019 
Q 384 1609 779 1909 
Q 1175 2209 1959 2209 
L 2766 2209 
L 2766 2266 
Q 2766 2663 2505 2880 
Q 2244 3097 1772 3097 
Q 1472 3097 1187 3025 
Q 903 2953 641 2809 
L 641 3341 
Q 956 3463 1253 3523 
Q 1550 3584 1831 3584 
Q 2591 3584 2966 3190 
Q 3341 2797 3341 1997 
z
" transform="scale(0.015625)"/>
      <path id="DejaVuSans-6e" d="M 3513 2113 
L 3513 0 
L 2938 0 
L 2938 2094 
Q 2938 2591 2744 2837 
Q 2550 3084 2163 3084 
Q 1697 3084 1428 2787 
Q 1159 2491 1159 1978 
L 1159 0 
L 581 0 
L 581 3500 
L 1159 3500 
L 1159 2956 
Q 1366 3272 1645 3428 
Q 1925 3584 2291 3584 
Q 2894 3584 3203 3211 
Q 3513 2838 3513 2113 
z
" transform="scale(0.015625)"/>
      <path id="DejaVuSans-67" d="M 2906 1791 
Q 2906 2416 2648 2759 
Q 2391 3103 1925 3103 
Q 1463 3103 1205 2759 
Q 947 2416 947 1791 
Q 947 1169 1205 825 
Q 1463 481 1925 481 
Q 2391 481 2648 825 
Q 2906 1169 2906 1791 
z
M 3481 434 
Q 3481 -459 3084 -895 
Q 2688 -1331 1869 -1331 
Q 1566 -1331 1297 -1286 
Q 1028 -1241 775 -1147 
L 775 -588 
Q 1028 -725 1275 -790 
Q 1522 -856 1778 -856 
Q 2344 -856 2625 -561 
Q 2906 -266 2906 331 
L 2906 616 
Q 2728 306 2450 153 
Q 2172 0 1784 0 
Q 1141 0 747 490 
Q 353 981 353 1791 
Q 353 2603 747 3093 
Q 1141 3584 1784 3584 
Q 2172 3584 2450 3431 
Q 2728 3278 2906 2969 
L 2906 3500 
L 3481 3500 
L 3481 434 
z
" transform="scale(0.015625)"/>
      <path id="DejaVuSans-76" d="M 191 3500 
L 800 3500 
L 1894 563 
L 2988 3500 
L 3597 3500 
L 2284 0 
L 1503 0 
L 191 3500 
z
" transform="scale(0.015625)"/>
      <path id="DejaVuSans-66" d="M 2375 4863 
L 2375 4384 
L 1825 4384 
Q 1516 4384 1395 4259 
Q 1275 4134 1275 3809 
L 1275 3500 
L 2222 3500 
L 2222 3053 
L 1275 3053 
L 1275 0 
L 697 0 
L 697 3053 
L 147 3053 
L 147 3500 
L 697 3500 
L 697 3744 
Q 697 4328 969 4595 
Q 1241 4863 1831 4863 
L 2375 4863 
z
" transform="scale(0.015625)"/>
      <path id="DejaVuSans-64" d="M 2906 2969 
L 2906 4863 
L 3481 4863 
L 3481 0 
L 2906 0 
L 2906 525 
Q 2725 213 2448 61 
Q 2172 -91 1784 -91 
Q 1150 -91 751 415 
Q 353 922 353 1747 
Q 353 2572 751 3078 
Q 1150 3584 1784 3584 
Q 2172 3584 2448 3432 
Q 2725 3281 2906 2969 
z
M 947 1747 
Q 947 1113 1208 752 
Q 1469 391 1925 391 
Q 2381 391 2643 752 
Q 2906 1113 2906 1747 
Q 2906 2381 2643 2742 
Q 2381 3103 1925 3103 
Q 1469 3103 1208 2742 
Q 947 2381 947 1747 
z
" transform="scale(0.015625)"/>
      <path id="DejaVuSans-5f" d="M 3263 -1063 
L 3263 -1509 
L -63 -1509 
L -63 -1063 
L 3263 -1063 
z
" transform="scale(0.015625)"/>
     </defs>
     <use xlink:href="#DejaVuSans-73"/>
     <use xlink:href="#DejaVuSans-70" x="52.099609"/>
     <use xlink:href="#DejaVuSans-65" x="115.576172"/>
     <use xlink:href="#DejaVuSans-63" x="177.099609"/>
     <use xlink:href="#DejaVuSans-74" x="232.080078"/>
     <use xlink:href="#DejaVuSans-72" x="271.289062"/>
     <use xlink:href="#DejaVuSans-75" x="312.402344"/>
     <use xlink:href="#DejaVuSans-6d" x="375.78125"/>
     <use xlink:href="#DejaVuSans-47" x="473.193359"/>
     <use xlink:href="#DejaVuSans-43" x="550.683594"/>
     <use xlink:href="#DejaVuSans-4e" x="620.507812"/>
     <use xlink:href="#DejaVuSans-20" x="695.3125"/>
     <use xlink:href="#DejaVuSans-2b" x="727.099609"/>
     <use xlink:href="#DejaVuSans-20" x="810.888672"/>
     <use xlink:href="#DejaVuSans-57" x="842.675781"/>
     <use xlink:href="#DejaVuSans-69" x="939.302734"/>
     <use xlink:href="#DejaVuSans-74" x="967.085938"/>
     <use xlink:href="#DejaVuSans-68" x="1006.294922"/>
     <use xlink:href="#DejaVuSans-4f" x="1069.673828"/>
     <use xlink:href="#DejaVuSans-75" x="1148.384766"/>
     <use xlink:href="#DejaVuSans-74" x="1211.763672"/>
     <use xlink:href="#DejaVuSans-47" x="1250.972656"/>
     <use xlink:href="#DejaVuSans-72" x="1328.462891"/>
     <use xlink:href="#DejaVuSans-61" x="1369.576172"/>
     <use xlink:href="#DejaVuSans-70" x="1430.855469"/>
     <use xlink:href="#DejaVuSans-68" x="1494.332031"/>
     <use xlink:href="#DejaVuSans-20" x="1557.710938"/>
     <use xlink:href="#DejaVuSans-2b" x="1589.498047"/>
     <use xlink:href="#DejaVuSans-20" x="1673.287109"/>
     <use xlink:href="#DejaVuSans-6d" x="1705.074219"/>
     <use xlink:href="#DejaVuSans-75" x="1802.486328"/>
     <use xlink:href="#DejaVuSans-6c" x="1865.865234"/>
     <use xlink:href="#DejaVuSans-69" x="1893.648438"/>
     <use xlink:href="#DejaVuSans-70" x="1921.431641"/>
     <use xlink:href="#DejaVuSans-6c" x="1984.908203"/>
     <use xlink:href="#DejaVuSans-65" x="2012.691406"/>
     <use xlink:href="#DejaVuSans-20" x="2074.214844"/>
     <use xlink:href="#DejaVuSans-63" x="2106.001953"/>
     <use xlink:href="#DejaVuSans-6f" x="2160.982422"/>
     <use xlink:href="#DejaVuSans-6e" x="2222.164062"/>
     <use xlink:href="#DejaVuSans-63" x="2285.542969"/>
     <use xlink:href="#DejaVuSans-61" x="2340.523438"/>
     <use xlink:href="#DejaVuSans-74" x="2401.802734"/>
     <use xlink:href="#DejaVuSans-65" x="2441.011719"/>
     <use xlink:href="#DejaVuSans-6e" x="2502.535156"/>
     <use xlink:href="#DejaVuSans-61" x="2565.914062"/>
     <use xlink:href="#DejaVuSans-74" x="2627.193359"/>
     <use xlink:href="#DejaVuSans-69" x="2666.402344"/>
     <use xlink:href="#DejaVuSans-6f" x="2694.185547"/>
     <use xlink:href="#DejaVuSans-6e" x="2755.367188"/>
     <use xlink:href="#DejaVuSans-20" x="2818.746094"/>
     <use xlink:href="#DejaVuSans-2b" x="2850.533203"/>
     <use xlink:href="#DejaVuSans-20" x="2934.322266"/>
     <use xlink:href="#DejaVuSans-65" x="2966.109375"/>
     <use xlink:href="#DejaVuSans-69" x="3027.632812"/>
     <use xlink:href="#DejaVuSans-67" x="3055.416016"/>
     <use xlink:href="#DejaVuSans-65" x="3118.892578"/>
     <use xlink:href="#DejaVuSans-6e" x="3180.416016"/>
     <use xlink:href="#DejaVuSans-76" x="3243.794922"/>
     <use xlink:href="#DejaVuSans-65" x="3302.974609"/>
     <use xlink:href="#DejaVuSans-63" x="3364.498047"/>
     <use xlink:href="#DejaVuSans-74" x="3419.478516"/>
     <use xlink:href="#DejaVuSans-6f" x="3458.6875"/>
     <use xlink:href="#DejaVuSans-72" x="3519.869141"/>
     <use xlink:href="#DejaVuSans-73" x="3560.982422"/>
     <use xlink:href="#DejaVuSans-20" x="3613.082031"/>
     <use xlink:href="#DejaVuSans-61" x="3644.869141"/>
     <use xlink:href="#DejaVuSans-73" x="3706.148438"/>
     <use xlink:href="#DejaVuSans-20" x="3758.248047"/>
     <use xlink:href="#DejaVuSans-66" x="3790.035156"/>
     <use xlink:href="#DejaVuSans-65" x="3825.240234"/>
     <use xlink:href="#DejaVuSans-61" x="3886.763672"/>
     <use xlink:href="#DejaVuSans-74" x="3948.042969"/>
     <use xlink:href="#DejaVuSans-75" x="3987.251953"/>
     <use xlink:href="#DejaVuSans-72" x="4050.630859"/>
     <use xlink:href="#DejaVuSans-65" x="4089.494141"/>
     <use xlink:href="#DejaVuSans-73" x="4151.017578"/>
     <use xlink:href="#DejaVuSans-20" x="4203.117188"/>
     <use xlink:href="#DejaVuSans-20" x="4234.904297"/>
     <use xlink:href="#DejaVuSans-2b" x="4266.691406"/>
     <use xlink:href="#DejaVuSans-20" x="4350.480469"/>
     <use xlink:href="#DejaVuSans-64" x="4382.267578"/>
     <use xlink:href="#DejaVuSans-72" x="4445.744141"/>
     <use xlink:href="#DejaVuSans-6f" x="4484.607422"/>
     <use xlink:href="#DejaVuSans-70" x="4545.789062"/>
     <use xlink:href="#DejaVuSans-6f" x="4609.265625"/>
     <use xlink:href="#DejaVuSans-75" x="4670.447266"/>
     <use xlink:href="#DejaVuSans-74" x="4733.826172"/>
     <use xlink:href="#DejaVuSans-20" x="4773.035156"/>
     <use xlink:href="#DejaVuSans-30" x="4804.822266"/>
     <use xlink:href="#DejaVuSans-2e" x="4868.445312"/>
     <use xlink:href="#DejaVuSans-35" x="4900.232422"/>
     <use xlink:href="#DejaVuSans-5f" x="4963.855469"/>
     <use xlink:href="#DejaVuSans-6c" x="5013.855469"/>
     <use xlink:href="#DejaVuSans-6f" x="5041.638672"/>
     <use xlink:href="#DejaVuSans-73" x="5102.820312"/>
     <use xlink:href="#DejaVuSans-73" x="5154.919922"/>
    </g>
   </g>
   <g id="legend_1">
    <g id="patch_7">
     <path d="M 308.024688 93.506375 
L 407.72 93.506375 
Q 409.72 93.506375 409.72 91.506375 
L 409.72 48.472 
Q 409.72 46.472 407.72 46.472 
L 308.024688 46.472 
Q 306.024688 46.472 306.024688 48.472 
L 306.024688 91.506375 
Q 306.024688 93.506375 308.024688 93.506375 
z
" style="fill: #ffffff; opacity: 0.8; stroke: #cccccc; stroke-linejoin: miter"/>
    </g>
    <g id="line2d_15">
     <path d="M 310.024688 54.570438 
L 320.024688 54.570438 
L 330.024688 54.570438 
" style="fill: none; stroke: #0000ff; stroke-width: 1.5; stroke-linecap: square"/>
    </g>
    <g id="text_15">
     <!-- training set -->
     <g transform="translate(338.024688 58.070438) scale(0.1 -0.1)">
      <use xlink:href="#DejaVuSans-74"/>
      <use xlink:href="#DejaVuSans-72" x="39.208984"/>
      <use xlink:href="#DejaVuSans-61" x="80.322266"/>
      <use xlink:href="#DejaVuSans-69" x="141.601562"/>
      <use xlink:href="#DejaVuSans-6e" x="169.384766"/>
      <use xlink:href="#DejaVuSans-69" x="232.763672"/>
      <use xlink:href="#DejaVuSans-6e" x="260.546875"/>
      <use xlink:href="#DejaVuSans-67" x="323.925781"/>
      <use xlink:href="#DejaVuSans-20" x="387.402344"/>
      <use xlink:href="#DejaVuSans-73" x="419.189453"/>
      <use xlink:href="#DejaVuSans-65" x="471.289062"/>
      <use xlink:href="#DejaVuSans-74" x="532.8125"/>
     </g>
    </g>
    <g id="line2d_16">
     <path d="M 310.024688 69.248563 
L 320.024688 69.248563 
L 330.024688 69.248563 
" style="fill: none; stroke: #008000; stroke-width: 1.5; stroke-linecap: square"/>
    </g>
    <g id="text_16">
     <!-- validation set -->
     <g transform="translate(338.024688 72.748563) scale(0.1 -0.1)">
      <use xlink:href="#DejaVuSans-76"/>
      <use xlink:href="#DejaVuSans-61" x="59.179688"/>
      <use xlink:href="#DejaVuSans-6c" x="120.458984"/>
      <use xlink:href="#DejaVuSans-69" x="148.242188"/>
      <use xlink:href="#DejaVuSans-64" x="176.025391"/>
      <use xlink:href="#DejaVuSans-61" x="239.501953"/>
      <use xlink:href="#DejaVuSans-74" x="300.78125"/>
      <use xlink:href="#DejaVuSans-69" x="339.990234"/>
      <use xlink:href="#DejaVuSans-6f" x="367.773438"/>
      <use xlink:href="#DejaVuSans-6e" x="428.955078"/>
      <use xlink:href="#DejaVuSans-20" x="492.333984"/>
      <use xlink:href="#DejaVuSans-73" x="524.121094"/>
      <use xlink:href="#DejaVuSans-65" x="576.220703"/>
      <use xlink:href="#DejaVuSans-74" x="637.744141"/>
     </g>
    </g>
    <g id="line2d_17">
     <path d="M 310.024688 83.926688 
L 320.024688 83.926688 
L 330.024688 83.926688 
" style="fill: none; stroke: #ff0000; stroke-width: 1.5; stroke-linecap: square"/>
    </g>
    <g id="text_17">
     <!-- test set -->
     <g transform="translate(338.024688 87.426688) scale(0.1 -0.1)">
      <use xlink:href="#DejaVuSans-74"/>
      <use xlink:href="#DejaVuSans-65" x="39.208984"/>
      <use xlink:href="#DejaVuSans-73" x="100.732422"/>
      <use xlink:href="#DejaVuSans-74" x="152.832031"/>
      <use xlink:href="#DejaVuSans-20" x="192.041016"/>
      <use xlink:href="#DejaVuSans-73" x="223.828125"/>
      <use xlink:href="#DejaVuSans-65" x="275.927734"/>
      <use xlink:href="#DejaVuSans-74" x="337.451172"/>
     </g>
    </g>
   </g>
  </g>
 </g>
 <defs>
  <clipPath id="p1fc8eda8fa">
   <rect x="57.6" y="41.472" width="357.12" height="266.112"/>
  </clipPath>
 </defs>
</svg>
