<?xml version="1.0" encoding="utf-8" standalone="no"?>
<!DOCTYPE svg PUBLIC "-//W3C//DTD SVG 1.1//EN"
  "http://www.w3.org/Graphics/SVG/1.1/DTD/svg11.dtd">
<svg xmlns:xlink="http://www.w3.org/1999/xlink" width="460.8pt" height="345.6pt" viewBox="0 0 460.8 345.6" xmlns="http://www.w3.org/2000/svg" version="1.1">
 <metadata>
  <rdf:RDF xmlns:dc="http://purl.org/dc/elements/1.1/" xmlns:cc="http://creativecommons.org/ns#" xmlns:rdf="http://www.w3.org/1999/02/22-rdf-syntax-ns#">
   <cc:Work>
    <dc:type rdf:resource="http://purl.org/dc/dcmitype/StillImage"/>
    <dc:date>2023-04-08T15:36:02.909070</dc:date>
    <dc:format>image/svg+xml</dc:format>
    <dc:creator>
     <cc:Agent>
      <dc:title>Matplotlib v3.7.1, https://matplotlib.org/</dc:title>
     </cc:Agent>
    </dc:creator>
   </cc:Work>
  </rdf:RDF>
 </metadata>
 <defs>
  <style type="text/css">*{stroke-linejoin: round; stroke-linecap: butt}</style>
 </defs>
 <g id="figure_1">
  <g id="patch_1">
   <path d="M 0 345.6 
L 460.8 345.6 
L 460.8 0 
L 0 0 
z
" style="fill: #ffffff"/>
  </g>
  <g id="axes_1">
   <g id="patch_2">
    <path d="M 57.6 307.584 
L 414.72 307.584 
L 414.72 41.472 
L 57.6 41.472 
z
" style="fill: #ffffff"/>
   </g>
   <g id="matplotlib.axis_1">
    <g id="xtick_1">
     <g id="line2d_1">
      <defs>
       <path id="m261853b5aa" d="M 0 0 
L 0 3.5 
" style="stroke: #000000; stroke-width: 0.8"/>
      </defs>
      <g>
       <use xlink:href="#m261853b5aa" x="73.507748" y="307.584" style="stroke: #000000; stroke-width: 0.8"/>
      </g>
     </g>
     <g id="text_1">
      <!-- 0 -->
      <g transform="translate(70.326498 322.182437) scale(0.1 -0.1)">
       <defs>
        <path id="DejaVuSans-30" d="M 2034 4250 
Q 1547 4250 1301 3770 
Q 1056 3291 1056 2328 
Q 1056 1369 1301 889 
Q 1547 409 2034 409 
Q 2525 409 2770 889 
Q 3016 1369 3016 2328 
Q 3016 3291 2770 3770 
Q 2525 4250 2034 4250 
z
M 2034 4750 
Q 2819 4750 3233 4129 
Q 3647 3509 3647 2328 
Q 3647 1150 3233 529 
Q 2819 -91 2034 -91 
Q 1250 -91 836 529 
Q 422 1150 422 2328 
Q 422 3509 836 4129 
Q 1250 4750 2034 4750 
z
" transform="scale(0.015625)"/>
       </defs>
       <use xlink:href="#DejaVuSans-30"/>
      </g>
     </g>
    </g>
    <g id="xtick_2">
     <g id="line2d_2">
      <g>
       <use xlink:href="#m261853b5aa" x="138.503653" y="307.584" style="stroke: #000000; stroke-width: 0.8"/>
      </g>
     </g>
     <g id="text_2">
      <!-- 200 -->
      <g transform="translate(128.959903 322.182437) scale(0.1 -0.1)">
       <defs>
        <path id="DejaVuSans-32" d="M 1228 531 
L 3431 531 
L 3431 0 
L 469 0 
L 469 531 
Q 828 903 1448 1529 
Q 2069 2156 2228 2338 
Q 2531 2678 2651 2914 
Q 2772 3150 2772 3378 
Q 2772 3750 2511 3984 
Q 2250 4219 1831 4219 
Q 1534 4219 1204 4116 
Q 875 4013 500 3803 
L 500 4441 
Q 881 4594 1212 4672 
Q 1544 4750 1819 4750 
Q 2544 4750 2975 4387 
Q 3406 4025 3406 3419 
Q 3406 3131 3298 2873 
Q 3191 2616 2906 2266 
Q 2828 2175 2409 1742 
Q 1991 1309 1228 531 
z
" transform="scale(0.015625)"/>
       </defs>
       <use xlink:href="#DejaVuSans-32"/>
       <use xlink:href="#DejaVuSans-30" x="63.623047"/>
       <use xlink:href="#DejaVuSans-30" x="127.246094"/>
      </g>
     </g>
    </g>
    <g id="xtick_3">
     <g id="line2d_3">
      <g>
       <use xlink:href="#m261853b5aa" x="203.499558" y="307.584" style="stroke: #000000; stroke-width: 0.8"/>
      </g>
     </g>
     <g id="text_3">
      <!-- 400 -->
      <g transform="translate(193.955808 322.182437) scale(0.1 -0.1)">
       <defs>
        <path id="DejaVuSans-34" d="M 2419 4116 
L 825 1625 
L 2419 1625 
L 2419 4116 
z
M 2253 4666 
L 3047 4666 
L 3047 1625 
L 3713 1625 
L 3713 1100 
L 3047 1100 
L 3047 0 
L 2419 0 
L 2419 1100 
L 313 1100 
L 313 1709 
L 2253 4666 
z
" transform="scale(0.015625)"/>
       </defs>
       <use xlink:href="#DejaVuSans-34"/>
       <use xlink:href="#DejaVuSans-30" x="63.623047"/>
       <use xlink:href="#DejaVuSans-30" x="127.246094"/>
      </g>
     </g>
    </g>
    <g id="xtick_4">
     <g id="line2d_4">
      <g>
       <use xlink:href="#m261853b5aa" x="268.495463" y="307.584" style="stroke: #000000; stroke-width: 0.8"/>
      </g>
     </g>
     <g id="text_4">
      <!-- 600 -->
      <g transform="translate(258.951713 322.182437) scale(0.1 -0.1)">
       <defs>
        <path id="DejaVuSans-36" d="M 2113 2584 
Q 1688 2584 1439 2293 
Q 1191 2003 1191 1497 
Q 1191 994 1439 701 
Q 1688 409 2113 409 
Q 2538 409 2786 701 
Q 3034 994 3034 1497 
Q 3034 2003 2786 2293 
Q 2538 2584 2113 2584 
z
M 3366 4563 
L 3366 3988 
Q 3128 4100 2886 4159 
Q 2644 4219 2406 4219 
Q 1781 4219 1451 3797 
Q 1122 3375 1075 2522 
Q 1259 2794 1537 2939 
Q 1816 3084 2150 3084 
Q 2853 3084 3261 2657 
Q 3669 2231 3669 1497 
Q 3669 778 3244 343 
Q 2819 -91 2113 -91 
Q 1303 -91 875 529 
Q 447 1150 447 2328 
Q 447 3434 972 4092 
Q 1497 4750 2381 4750 
Q 2619 4750 2861 4703 
Q 3103 4656 3366 4563 
z
" transform="scale(0.015625)"/>
       </defs>
       <use xlink:href="#DejaVuSans-36"/>
       <use xlink:href="#DejaVuSans-30" x="63.623047"/>
       <use xlink:href="#DejaVuSans-30" x="127.246094"/>
      </g>
     </g>
    </g>
    <g id="xtick_5">
     <g id="line2d_5">
      <g>
       <use xlink:href="#m261853b5aa" x="333.491368" y="307.584" style="stroke: #000000; stroke-width: 0.8"/>
      </g>
     </g>
     <g id="text_5">
      <!-- 800 -->
      <g transform="translate(323.947618 322.182437) scale(0.1 -0.1)">
       <defs>
        <path id="DejaVuSans-38" d="M 2034 2216 
Q 1584 2216 1326 1975 
Q 1069 1734 1069 1313 
Q 1069 891 1326 650 
Q 1584 409 2034 409 
Q 2484 409 2743 651 
Q 3003 894 3003 1313 
Q 3003 1734 2745 1975 
Q 2488 2216 2034 2216 
z
M 1403 2484 
Q 997 2584 770 2862 
Q 544 3141 544 3541 
Q 544 4100 942 4425 
Q 1341 4750 2034 4750 
Q 2731 4750 3128 4425 
Q 3525 4100 3525 3541 
Q 3525 3141 3298 2862 
Q 3072 2584 2669 2484 
Q 3125 2378 3379 2068 
Q 3634 1759 3634 1313 
Q 3634 634 3220 271 
Q 2806 -91 2034 -91 
Q 1263 -91 848 271 
Q 434 634 434 1313 
Q 434 1759 690 2068 
Q 947 2378 1403 2484 
z
M 1172 3481 
Q 1172 3119 1398 2916 
Q 1625 2713 2034 2713 
Q 2441 2713 2670 2916 
Q 2900 3119 2900 3481 
Q 2900 3844 2670 4047 
Q 2441 4250 2034 4250 
Q 1625 4250 1398 4047 
Q 1172 3844 1172 3481 
z
" transform="scale(0.015625)"/>
       </defs>
       <use xlink:href="#DejaVuSans-38"/>
       <use xlink:href="#DejaVuSans-30" x="63.623047"/>
       <use xlink:href="#DejaVuSans-30" x="127.246094"/>
      </g>
     </g>
    </g>
    <g id="xtick_6">
     <g id="line2d_6">
      <g>
       <use xlink:href="#m261853b5aa" x="398.487273" y="307.584" style="stroke: #000000; stroke-width: 0.8"/>
      </g>
     </g>
     <g id="text_6">
      <!-- 1000 -->
      <g transform="translate(385.762273 322.182437) scale(0.1 -0.1)">
       <defs>
        <path id="DejaVuSans-31" d="M 794 531 
L 1825 531 
L 1825 4091 
L 703 3866 
L 703 4441 
L 1819 4666 
L 2450 4666 
L 2450 531 
L 3481 531 
L 3481 0 
L 794 0 
L 794 531 
z
" transform="scale(0.015625)"/>
       </defs>
       <use xlink:href="#DejaVuSans-31"/>
       <use xlink:href="#DejaVuSans-30" x="63.623047"/>
       <use xlink:href="#DejaVuSans-30" x="127.246094"/>
       <use xlink:href="#DejaVuSans-30" x="190.869141"/>
      </g>
     </g>
    </g>
    <g id="text_7">
     <!-- epoch -->
     <g transform="translate(220.931875 335.860562) scale(0.1 -0.1)">
      <defs>
       <path id="DejaVuSans-65" d="M 3597 1894 
L 3597 1613 
L 953 1613 
Q 991 1019 1311 708 
Q 1631 397 2203 397 
Q 2534 397 2845 478 
Q 3156 559 3463 722 
L 3463 178 
Q 3153 47 2828 -22 
Q 2503 -91 2169 -91 
Q 1331 -91 842 396 
Q 353 884 353 1716 
Q 353 2575 817 3079 
Q 1281 3584 2069 3584 
Q 2775 3584 3186 3129 
Q 3597 2675 3597 1894 
z
M 3022 2063 
Q 3016 2534 2758 2815 
Q 2500 3097 2075 3097 
Q 1594 3097 1305 2825 
Q 1016 2553 972 2059 
L 3022 2063 
z
" transform="scale(0.015625)"/>
       <path id="DejaVuSans-70" d="M 1159 525 
L 1159 -1331 
L 581 -1331 
L 581 3500 
L 1159 3500 
L 1159 2969 
Q 1341 3281 1617 3432 
Q 1894 3584 2278 3584 
Q 2916 3584 3314 3078 
Q 3713 2572 3713 1747 
Q 3713 922 3314 415 
Q 2916 -91 2278 -91 
Q 1894 -91 1617 61 
Q 1341 213 1159 525 
z
M 3116 1747 
Q 3116 2381 2855 2742 
Q 2594 3103 2138 3103 
Q 1681 3103 1420 2742 
Q 1159 2381 1159 1747 
Q 1159 1113 1420 752 
Q 1681 391 2138 391 
Q 2594 391 2855 752 
Q 3116 1113 3116 1747 
z
" transform="scale(0.015625)"/>
       <path id="DejaVuSans-6f" d="M 1959 3097 
Q 1497 3097 1228 2736 
Q 959 2375 959 1747 
Q 959 1119 1226 758 
Q 1494 397 1959 397 
Q 2419 397 2687 759 
Q 2956 1122 2956 1747 
Q 2956 2369 2687 2733 
Q 2419 3097 1959 3097 
z
M 1959 3584 
Q 2709 3584 3137 3096 
Q 3566 2609 3566 1747 
Q 3566 888 3137 398 
Q 2709 -91 1959 -91 
Q 1206 -91 779 398 
Q 353 888 353 1747 
Q 353 2609 779 3096 
Q 1206 3584 1959 3584 
z
" transform="scale(0.015625)"/>
       <path id="DejaVuSans-63" d="M 3122 3366 
L 3122 2828 
Q 2878 2963 2633 3030 
Q 2388 3097 2138 3097 
Q 1578 3097 1268 2742 
Q 959 2388 959 1747 
Q 959 1106 1268 751 
Q 1578 397 2138 397 
Q 2388 397 2633 464 
Q 2878 531 3122 666 
L 3122 134 
Q 2881 22 2623 -34 
Q 2366 -91 2075 -91 
Q 1284 -91 818 406 
Q 353 903 353 1747 
Q 353 2603 823 3093 
Q 1294 3584 2113 3584 
Q 2378 3584 2631 3529 
Q 2884 3475 3122 3366 
z
" transform="scale(0.015625)"/>
       <path id="DejaVuSans-68" d="M 3513 2113 
L 3513 0 
L 2938 0 
L 2938 2094 
Q 2938 2591 2744 2837 
Q 2550 3084 2163 3084 
Q 1697 3084 1428 2787 
Q 1159 2491 1159 1978 
L 1159 0 
L 581 0 
L 581 4863 
L 1159 4863 
L 1159 2956 
Q 1366 3272 1645 3428 
Q 1925 3584 2291 3584 
Q 2894 3584 3203 3211 
Q 3513 2838 3513 2113 
z
" transform="scale(0.015625)"/>
      </defs>
      <use xlink:href="#DejaVuSans-65"/>
      <use xlink:href="#DejaVuSans-70" x="61.523438"/>
      <use xlink:href="#DejaVuSans-6f" x="125"/>
      <use xlink:href="#DejaVuSans-63" x="186.181641"/>
      <use xlink:href="#DejaVuSans-68" x="241.162109"/>
     </g>
    </g>
   </g>
   <g id="matplotlib.axis_2">
    <g id="ytick_1">
     <g id="line2d_7">
      <defs>
       <path id="m866b16de1a" d="M 0 0 
L -3.5 0 
" style="stroke: #000000; stroke-width: 0.8"/>
      </defs>
      <g>
       <use xlink:href="#m866b16de1a" x="57.6" y="260.267107" style="stroke: #000000; stroke-width: 0.8"/>
      </g>
     </g>
     <g id="text_8">
      <!-- 0.2 -->
      <g transform="translate(34.696875 264.066326) scale(0.1 -0.1)">
       <defs>
        <path id="DejaVuSans-2e" d="M 684 794 
L 1344 794 
L 1344 0 
L 684 0 
L 684 794 
z
" transform="scale(0.015625)"/>
       </defs>
       <use xlink:href="#DejaVuSans-30"/>
       <use xlink:href="#DejaVuSans-2e" x="63.623047"/>
       <use xlink:href="#DejaVuSans-32" x="95.410156"/>
      </g>
     </g>
    </g>
    <g id="ytick_2">
     <g id="line2d_8">
      <g>
       <use xlink:href="#m866b16de1a" x="57.6" y="203.3432" style="stroke: #000000; stroke-width: 0.8"/>
      </g>
     </g>
     <g id="text_9">
      <!-- 0.4 -->
      <g transform="translate(34.696875 207.142418) scale(0.1 -0.1)">
       <use xlink:href="#DejaVuSans-30"/>
       <use xlink:href="#DejaVuSans-2e" x="63.623047"/>
       <use xlink:href="#DejaVuSans-34" x="95.410156"/>
      </g>
     </g>
    </g>
    <g id="ytick_3">
     <g id="line2d_9">
      <g>
       <use xlink:href="#m866b16de1a" x="57.6" y="146.419292" style="stroke: #000000; stroke-width: 0.8"/>
      </g>
     </g>
     <g id="text_10">
      <!-- 0.6 -->
      <g transform="translate(34.696875 150.218511) scale(0.1 -0.1)">
       <use xlink:href="#DejaVuSans-30"/>
       <use xlink:href="#DejaVuSans-2e" x="63.623047"/>
       <use xlink:href="#DejaVuSans-36" x="95.410156"/>
      </g>
     </g>
    </g>
    <g id="ytick_4">
     <g id="line2d_10">
      <g>
       <use xlink:href="#m866b16de1a" x="57.6" y="89.495384" style="stroke: #000000; stroke-width: 0.8"/>
      </g>
     </g>
     <g id="text_11">
      <!-- 0.8 -->
      <g transform="translate(34.696875 93.294603) scale(0.1 -0.1)">
       <use xlink:href="#DejaVuSans-30"/>
       <use xlink:href="#DejaVuSans-2e" x="63.623047"/>
       <use xlink:href="#DejaVuSans-38" x="95.410156"/>
      </g>
     </g>
    </g>
    <g id="text_12">
     <!-- accuracy -->
     <g transform="translate(28.617187 197.087375) rotate(-90) scale(0.1 -0.1)">
      <defs>
       <path id="DejaVuSans-61" d="M 2194 1759 
Q 1497 1759 1228 1600 
Q 959 1441 959 1056 
Q 959 750 1161 570 
Q 1363 391 1709 391 
Q 2188 391 2477 730 
Q 2766 1069 2766 1631 
L 2766 1759 
L 2194 1759 
z
M 3341 1997 
L 3341 0 
L 2766 0 
L 2766 531 
Q 2569 213 2275 61 
Q 1981 -91 1556 -91 
Q 1019 -91 701 211 
Q 384 513 384 1019 
Q 384 1609 779 1909 
Q 1175 2209 1959 2209 
L 2766 2209 
L 2766 2266 
Q 2766 2663 2505 2880 
Q 2244 3097 1772 3097 
Q 1472 3097 1187 3025 
Q 903 2953 641 2809 
L 641 3341 
Q 956 3463 1253 3523 
Q 1550 3584 1831 3584 
Q 2591 3584 2966 3190 
Q 3341 2797 3341 1997 
z
" transform="scale(0.015625)"/>
       <path id="DejaVuSans-75" d="M 544 1381 
L 544 3500 
L 1119 3500 
L 1119 1403 
Q 1119 906 1312 657 
Q 1506 409 1894 409 
Q 2359 409 2629 706 
Q 2900 1003 2900 1516 
L 2900 3500 
L 3475 3500 
L 3475 0 
L 2900 0 
L 2900 538 
Q 2691 219 2414 64 
Q 2138 -91 1772 -91 
Q 1169 -91 856 284 
Q 544 659 544 1381 
z
M 1991 3584 
L 1991 3584 
z
" transform="scale(0.015625)"/>
       <path id="DejaVuSans-72" d="M 2631 2963 
Q 2534 3019 2420 3045 
Q 2306 3072 2169 3072 
Q 1681 3072 1420 2755 
Q 1159 2438 1159 1844 
L 1159 0 
L 581 0 
L 581 3500 
L 1159 3500 
L 1159 2956 
Q 1341 3275 1631 3429 
Q 1922 3584 2338 3584 
Q 2397 3584 2469 3576 
Q 2541 3569 2628 3553 
L 2631 2963 
z
" transform="scale(0.015625)"/>
       <path id="DejaVuSans-79" d="M 2059 -325 
Q 1816 -950 1584 -1140 
Q 1353 -1331 966 -1331 
L 506 -1331 
L 506 -850 
L 844 -850 
Q 1081 -850 1212 -737 
Q 1344 -625 1503 -206 
L 1606 56 
L 191 3500 
L 800 3500 
L 1894 763 
L 2988 3500 
L 3597 3500 
L 2059 -325 
z
" transform="scale(0.015625)"/>
      </defs>
      <use xlink:href="#DejaVuSans-61"/>
      <use xlink:href="#DejaVuSans-63" x="61.279297"/>
      <use xlink:href="#DejaVuSans-63" x="116.259766"/>
      <use xlink:href="#DejaVuSans-75" x="171.240234"/>
      <use xlink:href="#DejaVuSans-72" x="234.619141"/>
      <use xlink:href="#DejaVuSans-61" x="275.732422"/>
      <use xlink:href="#DejaVuSans-63" x="337.011719"/>
      <use xlink:href="#DejaVuSans-79" x="391.992188"/>
     </g>
    </g>
   </g>
   <g id="line2d_11">
    <path d="M 73.832727 270.532074 
L 74.157707 270.532074 
L 74.482686 209.875451 
L 74.807666 228.539028 
L 76.107584 228.539028 
L 76.432563 223.873134 
L 76.757543 216.874292 
L 77.082523 214.541345 
L 77.407502 209.875451 
L 78.057461 186.545981 
L 78.382441 186.545981 
L 78.70742 181.880087 
L 79.0324 188.878928 
L 79.357379 186.545981 
L 79.682359 186.545981 
L 80.332318 181.880087 
L 80.657297 177.214193 
L 80.982277 177.214193 
L 81.307256 167.882405 
L 81.632236 172.548299 
L 81.957215 172.548299 
L 82.282195 156.21767 
L 82.607174 165.549458 
L 82.932154 163.216511 
L 83.257133 167.882405 
L 83.582113 156.21767 
L 83.907093 163.216511 
L 84.232072 142.219987 
L 84.557052 144.552934 
L 84.882031 135.221146 
L 85.207011 135.221146 
L 85.53199 132.888199 
L 85.85697 132.888199 
L 86.181949 137.554093 
L 86.506929 128.222305 
L 86.831908 135.221146 
L 87.156888 128.222305 
L 87.481867 130.555252 
L 87.806847 128.222305 
L 88.131826 128.222305 
L 88.456806 125.889358 
L 88.781785 116.55757 
L 89.106765 121.223464 
L 89.431744 118.890517 
L 89.756724 118.890517 
L 90.081704 116.55757 
L 90.406683 116.55757 
L 90.731663 111.891676 
L 91.056642 109.558729 
L 91.381622 109.558729 
L 91.706601 107.225782 
L 92.031581 107.225782 
L 92.68154 102.559888 
L 93.006519 109.558729 
L 93.331499 107.225782 
L 93.656478 102.559888 
L 93.981458 102.559888 
L 94.306437 111.891676 
L 94.631417 104.892835 
L 94.956396 107.225782 
L 95.281376 107.225782 
L 95.606355 104.892835 
L 95.931335 97.893994 
L 96.256314 102.559888 
L 96.906274 107.225782 
L 97.231253 100.226941 
L 97.556233 97.893994 
L 97.881212 104.892835 
L 98.206192 100.226941 
L 98.531171 102.559888 
L 98.856151 100.226941 
L 99.18113 102.559888 
L 99.50611 102.559888 
L 99.831089 100.226941 
L 100.156069 104.892835 
L 100.481048 97.893994 
L 100.806028 95.561047 
L 101.131007 100.226941 
L 101.455987 102.559888 
L 101.780966 93.2281 
L 102.105946 100.226941 
L 102.430925 100.226941 
L 102.755905 95.561047 
L 103.080885 104.892835 
L 103.405864 97.893994 
L 104.380803 97.893994 
L 104.705782 93.2281 
L 105.030762 97.893994 
L 105.355741 97.893994 
L 105.680721 100.226941 
L 106.0057 97.893994 
L 106.33068 93.2281 
L 106.655659 93.2281 
L 106.980639 100.226941 
L 107.305618 97.893994 
L 107.955577 97.893994 
L 108.280557 90.895153 
L 108.605536 97.893994 
L 108.930516 95.561047 
L 109.255495 95.561047 
L 109.580475 93.2281 
L 110.230434 93.2281 
L 110.555414 95.561047 
L 110.880393 88.562206 
L 111.530352 93.2281 
L 111.855332 93.2281 
L 112.180311 90.895153 
L 112.505291 93.2281 
L 112.83027 88.562206 
L 113.15525 86.229258 
L 113.480229 88.562206 
L 113.805209 86.229258 
L 114.130188 81.563364 
L 114.455168 81.563364 
L 114.780147 86.229258 
L 115.105127 86.229258 
L 115.430106 83.896311 
L 115.755086 83.896311 
L 116.080066 79.230417 
L 116.730025 74.564523 
L 117.055004 81.563364 
L 117.379984 81.563364 
L 117.704963 79.230417 
L 118.679902 79.230417 
L 119.004881 72.231576 
L 119.329861 69.898629 
L 119.65484 79.230417 
L 119.97982 81.563364 
L 120.304799 81.563364 
L 120.629779 74.564523 
L 120.954758 74.564523 
L 121.279738 65.232735 
L 121.604717 76.89747 
L 121.929697 72.231576 
L 122.254676 74.564523 
L 122.579656 69.898629 
L 123.229615 69.898629 
L 123.554595 67.565682 
L 123.879574 67.565682 
L 124.204554 72.231576 
L 124.529533 58.233894 
L 124.854513 62.899788 
L 125.504472 67.565682 
L 125.829451 58.233894 
L 126.154431 53.568 
L 126.47941 60.566841 
L 126.80439 55.900947 
L 127.129369 60.566841 
L 127.454349 62.899788 
L 127.779328 62.899788 
L 128.104308 53.568 
L 128.429287 62.899788 
L 128.754267 67.565682 
L 129.079247 58.233894 
L 129.404226 60.566841 
L 129.729206 53.568 
L 130.054185 272.865021 
L 398.487273 272.865021 
L 398.487273 272.865021 
" clip-path="url(#p73e07ed967)" style="fill: none; stroke: #0000ff; stroke-width: 1.5; stroke-linecap: square"/>
   </g>
   <g id="line2d_12">
    <path d="M 73.832727 269.444382 
L 74.157707 295.488 
L 74.482686 220.457577 
L 74.807666 236.579817 
L 75.132645 236.579817 
L 76.107584 238.440075 
L 76.432563 237.819989 
L 77.407502 225.418266 
L 77.732482 214.876802 
L 78.057461 214.876802 
L 78.382441 210.536199 
L 78.70742 209.916113 
L 79.0324 203.095165 
L 79.682359 198.754562 
L 80.007338 199.994734 
L 80.332318 202.475079 
L 80.982277 178.29172 
L 81.307256 170.850686 
L 81.632236 178.29172 
L 81.957215 181.39215 
L 82.282195 168.370341 
L 82.607174 164.029738 
L 82.932154 164.649824 
L 83.257133 165.889997 
L 83.582113 163.409652 
L 84.232072 154.728446 
L 84.557052 156.588705 
L 84.882031 147.287413 
L 85.207011 146.04724 
L 85.85697 148.527585 
L 86.506929 144.186982 
L 87.156888 145.427154 
L 87.481867 146.667326 
L 87.806847 149.767757 
L 88.131826 143.566896 
L 88.456806 147.287413 
L 89.106765 142.94681 
L 89.431744 142.326723 
L 89.756724 142.326723 
L 90.081704 140.466465 
L 90.406683 129.925001 
L 90.731663 129.925001 
L 91.056642 132.405345 
L 91.381622 131.165173 
L 91.706601 129.304915 
L 92.031581 123.724139 
L 92.35656 124.964312 
L 93.006519 124.964312 
L 93.331499 120.623709 
L 93.656478 121.863881 
L 93.981458 119.383536 
L 94.306437 128.064742 
L 94.631417 121.863881 
L 94.956396 123.104053 
L 95.281376 121.243795 
L 95.606355 125.584398 
L 95.931335 122.483967 
L 96.256314 126.82457 
L 96.581294 128.064742 
L 96.906274 120.623709 
L 97.231253 123.104053 
L 97.556233 132.405345 
L 98.206192 124.964312 
L 98.531171 126.204484 
L 98.856151 129.925001 
L 99.18113 128.064742 
L 99.50611 129.304915 
L 99.831089 128.684828 
L 100.156069 128.684828 
L 100.481048 129.304915 
L 100.806028 131.165173 
L 101.131007 125.584398 
L 101.455987 124.964312 
L 101.780966 128.684828 
L 102.105946 126.82457 
L 102.430925 128.064742 
L 102.755905 127.444656 
L 103.405864 124.964312 
L 103.730844 124.344225 
L 104.055823 126.82457 
L 104.380803 124.964312 
L 104.705782 126.204484 
L 105.030762 123.724139 
L 105.355741 126.204484 
L 105.680721 127.444656 
L 106.0057 124.344225 
L 106.33068 125.584398 
L 106.655659 124.964312 
L 106.980639 116.903192 
L 107.305618 118.143364 
L 107.630598 124.964312 
L 107.955577 123.724139 
L 108.280557 121.863881 
L 108.605536 123.724139 
L 108.930516 124.344225 
L 109.580475 123.104053 
L 109.905455 121.863881 
L 110.230434 125.584398 
L 110.555414 124.344225 
L 111.205373 121.243795 
L 111.530352 123.104053 
L 111.855332 122.483967 
L 112.180311 118.76345 
L 112.505291 121.243795 
L 112.83027 125.584398 
L 113.480229 117.523278 
L 113.805209 121.863881 
L 114.455168 116.283106 
L 114.780147 118.76345 
L 115.430106 120.003622 
L 116.080066 120.003622 
L 116.405045 115.663019 
L 116.730025 118.143364 
L 117.055004 124.344225 
L 117.379984 117.523278 
L 117.704963 114.422847 
L 118.029943 115.042933 
L 118.354922 120.623709 
L 118.679902 117.523278 
L 119.004881 113.182675 
L 119.329861 112.562589 
L 119.65484 119.383536 
L 119.97982 118.76345 
L 120.304799 115.042933 
L 120.954758 115.042933 
L 121.604717 118.76345 
L 121.929697 113.182675 
L 122.254676 117.523278 
L 122.579656 118.143364 
L 122.904636 114.422847 
L 123.229615 113.802761 
L 123.554595 113.802761 
L 124.529533 120.003622 
L 125.179492 111.942503 
L 125.504472 116.903192 
L 125.829451 111.322416 
L 126.154431 118.143364 
L 126.47941 121.243795 
L 126.80439 120.623709 
L 127.129369 116.283106 
L 127.454349 113.802761 
L 127.779328 116.283106 
L 128.104308 117.523278 
L 128.429287 112.562589 
L 128.754267 121.243795 
L 129.079247 118.76345 
L 129.404226 113.802761 
L 129.729206 116.903192 
L 130.054185 279.985847 
L 398.487273 279.985847 
L 398.487273 279.985847 
" clip-path="url(#p73e07ed967)" style="fill: none; stroke: #008000; stroke-width: 1.5; stroke-linecap: square"/>
   </g>
   <g id="line2d_13">
    <path d="M 73.832727 273.331611 
L 74.157707 289.50671 
L 74.482686 221.073597 
L 74.807666 237.248697 
L 75.457625 237.248697 
L 75.782604 234.44916 
L 76.757543 231.338564 
L 77.082523 228.227968 
L 77.732482 211.741809 
L 78.057461 211.11969 
L 78.382441 206.764855 
L 78.70742 205.209557 
L 79.0324 198.677306 
L 79.357379 197.433067 
L 79.682359 196.810948 
L 80.007338 197.433067 
L 80.332318 197.122008 
L 80.657297 191.211875 
L 80.982277 179.39161 
L 81.307256 171.61512 
L 81.632236 180.946908 
L 81.957215 180.324789 
L 82.282195 166.638166 
L 82.607174 162.594391 
L 82.932154 162.283332 
L 83.257133 163.52757 
L 83.582113 160.105915 
L 83.907093 161.972272 
L 84.232072 154.506842 
L 84.557052 154.817901 
L 84.882031 152.640484 
L 85.207011 147.97459 
L 85.53199 150.774126 
L 85.85697 151.396246 
L 86.181949 150.152007 
L 86.506929 146.419292 
L 86.831908 155.128961 
L 87.156888 147.041411 
L 87.481867 149.840948 
L 87.806847 153.884722 
L 88.131826 149.529888 
L 88.456806 148.907769 
L 88.781785 147.97459 
L 89.106765 144.863994 
L 89.431744 145.486113 
L 89.756724 144.552934 
L 90.081704 141.131279 
L 90.406683 135.221146 
L 90.731663 134.287967 
L 91.056642 135.843265 
L 91.381622 130.555252 
L 91.706601 127.444656 
L 92.031581 121.845583 
L 92.35656 126.200418 
L 92.68154 128.688895 
L 93.006519 127.755716 
L 93.331499 123.711941 
L 93.981458 120.290285 
L 94.306437 127.444656 
L 94.631417 123.400881 
L 94.956396 126.511477 
L 95.281376 123.711941 
L 95.606355 126.511477 
L 95.931335 122.467702 
L 96.256314 123.711941 
L 96.581294 130.555252 
L 96.906274 118.734987 
L 97.556233 128.999954 
L 97.881212 123.400881 
L 98.206192 124.023 
L 98.531171 123.089822 
L 98.856151 126.200418 
L 99.18113 126.200418 
L 100.156069 123.711941 
L 100.481048 127.133596 
L 100.806028 127.444656 
L 101.455987 121.223464 
L 101.780966 124.023 
L 102.105946 124.64512 
L 102.430925 125.889358 
L 102.755905 121.534524 
L 103.080885 118.734987 
L 103.405864 124.023 
L 103.730844 122.156643 
L 104.055823 121.223464 
L 104.380803 121.845583 
L 104.705782 122.778762 
L 105.030762 120.912404 
L 105.355741 121.223464 
L 106.0057 119.668166 
L 106.33068 121.534524 
L 106.655659 120.912404 
L 106.980639 116.86863 
L 107.630598 119.668166 
L 107.955577 118.112868 
L 108.605536 120.912404 
L 108.930516 119.979226 
L 109.255495 118.112868 
L 109.580475 119.357106 
L 109.905455 116.86863 
L 110.230434 119.357106 
L 110.555414 119.979226 
L 110.880393 121.534524 
L 111.205373 122.156643 
L 111.530352 122.156643 
L 111.855332 119.668166 
L 112.180311 115.313332 
L 112.83027 124.956179 
L 113.15525 122.156643 
L 113.480229 116.86863 
L 113.805209 118.112868 
L 114.130188 117.490749 
L 114.455168 118.734987 
L 114.780147 117.801808 
L 115.105127 118.112868 
L 115.430106 119.668166 
L 115.755086 118.423928 
L 116.080066 119.046047 
L 116.405045 120.290285 
L 116.730025 116.86863 
L 117.055004 121.534524 
L 117.379984 119.046047 
L 117.704963 115.624391 
L 118.029943 117.490749 
L 118.354922 117.801808 
L 119.004881 114.380153 
L 119.329861 115.624391 
L 119.65484 121.223464 
L 119.97982 119.668166 
L 120.304799 116.24651 
L 120.629779 118.112868 
L 120.954758 116.86863 
L 121.279738 118.112868 
L 121.604717 121.534524 
L 122.254676 117.490749 
L 122.579656 119.357106 
L 122.904636 119.046047 
L 123.229615 116.55757 
L 123.879574 120.912404 
L 124.204554 118.423928 
L 124.529533 121.845583 
L 124.854513 121.845583 
L 125.179492 116.24651 
L 125.504472 117.179689 
L 125.829451 114.069093 
L 126.154431 121.223464 
L 126.47941 120.912404 
L 126.80439 123.711941 
L 127.129369 119.357106 
L 127.454349 117.490749 
L 127.779328 124.023 
L 128.104308 122.467702 
L 128.429287 119.668166 
L 128.754267 126.200418 
L 129.079247 119.046047 
L 129.404226 116.24651 
L 129.729206 122.156643 
L 130.054185 277.686445 
L 398.487273 277.686445 
L 398.487273 277.686445 
" clip-path="url(#p73e07ed967)" style="fill: none; stroke: #ff0000; stroke-width: 1.5; stroke-linecap: square"/>
   </g>
   <g id="patch_3">
    <path d="M 57.6 307.584 
L 57.6 41.472 
" style="fill: none; stroke: #000000; stroke-width: 0.8; stroke-linejoin: miter; stroke-linecap: square"/>
   </g>
   <g id="patch_4">
    <path d="M 414.72 307.584 
L 414.72 41.472 
" style="fill: none; stroke: #000000; stroke-width: 0.8; stroke-linejoin: miter; stroke-linecap: square"/>
   </g>
   <g id="patch_5">
    <path d="M 57.6 307.584 
L 414.72 307.584 
" style="fill: none; stroke: #000000; stroke-width: 0.8; stroke-linejoin: miter; stroke-linecap: square"/>
   </g>
   <g id="patch_6">
    <path d="M 57.6 41.472 
L 414.72 41.472 
" style="fill: none; stroke: #000000; stroke-width: 0.8; stroke-linejoin: miter; stroke-linecap: square"/>
   </g>
   <g id="text_13">
    <!-- spectrumGCN+Cora+WithOutGraph_Cora_WithGraph_Training and Validation accuracy -->
    <g transform="translate(-24.927187 35.472) scale(0.12 -0.12)">
     <defs>
      <path id="DejaVuSans-73" d="M 2834 3397 
L 2834 2853 
Q 2591 2978 2328 3040 
Q 2066 3103 1784 3103 
Q 1356 3103 1142 2972 
Q 928 2841 928 2578 
Q 928 2378 1081 2264 
Q 1234 2150 1697 2047 
L 1894 2003 
Q 2506 1872 2764 1633 
Q 3022 1394 3022 966 
Q 3022 478 2636 193 
Q 2250 -91 1575 -91 
Q 1294 -91 989 -36 
Q 684 19 347 128 
L 347 722 
Q 666 556 975 473 
Q 1284 391 1588 391 
Q 1994 391 2212 530 
Q 2431 669 2431 922 
Q 2431 1156 2273 1281 
Q 2116 1406 1581 1522 
L 1381 1569 
Q 847 1681 609 1914 
Q 372 2147 372 2553 
Q 372 3047 722 3315 
Q 1072 3584 1716 3584 
Q 2034 3584 2315 3537 
Q 2597 3491 2834 3397 
z
" transform="scale(0.015625)"/>
      <path id="DejaVuSans-74" d="M 1172 4494 
L 1172 3500 
L 2356 3500 
L 2356 3053 
L 1172 3053 
L 1172 1153 
Q 1172 725 1289 603 
Q 1406 481 1766 481 
L 2356 481 
L 2356 0 
L 1766 0 
Q 1100 0 847 248 
Q 594 497 594 1153 
L 594 3053 
L 172 3053 
L 172 3500 
L 594 3500 
L 594 4494 
L 1172 4494 
z
" transform="scale(0.015625)"/>
      <path id="DejaVuSans-6d" d="M 3328 2828 
Q 3544 3216 3844 3400 
Q 4144 3584 4550 3584 
Q 5097 3584 5394 3201 
Q 5691 2819 5691 2113 
L 5691 0 
L 5113 0 
L 5113 2094 
Q 5113 2597 4934 2840 
Q 4756 3084 4391 3084 
Q 3944 3084 3684 2787 
Q 3425 2491 3425 1978 
L 3425 0 
L 2847 0 
L 2847 2094 
Q 2847 2600 2669 2842 
Q 2491 3084 2119 3084 
Q 1678 3084 1418 2786 
Q 1159 2488 1159 1978 
L 1159 0 
L 581 0 
L 581 3500 
L 1159 3500 
L 1159 2956 
Q 1356 3278 1631 3431 
Q 1906 3584 2284 3584 
Q 2666 3584 2933 3390 
Q 3200 3197 3328 2828 
z
" transform="scale(0.015625)"/>
      <path id="DejaVuSans-47" d="M 3809 666 
L 3809 1919 
L 2778 1919 
L 2778 2438 
L 4434 2438 
L 4434 434 
Q 4069 175 3628 42 
Q 3188 -91 2688 -91 
Q 1594 -91 976 548 
Q 359 1188 359 2328 
Q 359 3472 976 4111 
Q 1594 4750 2688 4750 
Q 3144 4750 3555 4637 
Q 3966 4525 4313 4306 
L 4313 3634 
Q 3963 3931 3569 4081 
Q 3175 4231 2741 4231 
Q 1884 4231 1454 3753 
Q 1025 3275 1025 2328 
Q 1025 1384 1454 906 
Q 1884 428 2741 428 
Q 3075 428 3337 486 
Q 3600 544 3809 666 
z
" transform="scale(0.015625)"/>
      <path id="DejaVuSans-43" d="M 4122 4306 
L 4122 3641 
Q 3803 3938 3442 4084 
Q 3081 4231 2675 4231 
Q 1875 4231 1450 3742 
Q 1025 3253 1025 2328 
Q 1025 1406 1450 917 
Q 1875 428 2675 428 
Q 3081 428 3442 575 
Q 3803 722 4122 1019 
L 4122 359 
Q 3791 134 3420 21 
Q 3050 -91 2638 -91 
Q 1578 -91 968 557 
Q 359 1206 359 2328 
Q 359 3453 968 4101 
Q 1578 4750 2638 4750 
Q 3056 4750 3426 4639 
Q 3797 4528 4122 4306 
z
" transform="scale(0.015625)"/>
      <path id="DejaVuSans-4e" d="M 628 4666 
L 1478 4666 
L 3547 763 
L 3547 4666 
L 4159 4666 
L 4159 0 
L 3309 0 
L 1241 3903 
L 1241 0 
L 628 0 
L 628 4666 
z
" transform="scale(0.015625)"/>
      <path id="DejaVuSans-2b" d="M 2944 4013 
L 2944 2272 
L 4684 2272 
L 4684 1741 
L 2944 1741 
L 2944 0 
L 2419 0 
L 2419 1741 
L 678 1741 
L 678 2272 
L 2419 2272 
L 2419 4013 
L 2944 4013 
z
" transform="scale(0.015625)"/>
      <path id="DejaVuSans-57" d="M 213 4666 
L 850 4666 
L 1831 722 
L 2809 4666 
L 3519 4666 
L 4500 722 
L 5478 4666 
L 6119 4666 
L 4947 0 
L 4153 0 
L 3169 4050 
L 2175 0 
L 1381 0 
L 213 4666 
z
" transform="scale(0.015625)"/>
      <path id="DejaVuSans-69" d="M 603 3500 
L 1178 3500 
L 1178 0 
L 603 0 
L 603 3500 
z
M 603 4863 
L 1178 4863 
L 1178 4134 
L 603 4134 
L 603 4863 
z
" transform="scale(0.015625)"/>
      <path id="DejaVuSans-4f" d="M 2522 4238 
Q 1834 4238 1429 3725 
Q 1025 3213 1025 2328 
Q 1025 1447 1429 934 
Q 1834 422 2522 422 
Q 3209 422 3611 934 
Q 4013 1447 4013 2328 
Q 4013 3213 3611 3725 
Q 3209 4238 2522 4238 
z
M 2522 4750 
Q 3503 4750 4090 4092 
Q 4678 3434 4678 2328 
Q 4678 1225 4090 567 
Q 3503 -91 2522 -91 
Q 1538 -91 948 565 
Q 359 1222 359 2328 
Q 359 3434 948 4092 
Q 1538 4750 2522 4750 
z
" transform="scale(0.015625)"/>
      <path id="DejaVuSans-5f" d="M 3263 -1063 
L 3263 -1509 
L -63 -1509 
L -63 -1063 
L 3263 -1063 
z
" transform="scale(0.015625)"/>
      <path id="DejaVuSans-54" d="M -19 4666 
L 3928 4666 
L 3928 4134 
L 2272 4134 
L 2272 0 
L 1638 0 
L 1638 4134 
L -19 4134 
L -19 4666 
z
" transform="scale(0.015625)"/>
      <path id="DejaVuSans-6e" d="M 3513 2113 
L 3513 0 
L 2938 0 
L 2938 2094 
Q 2938 2591 2744 2837 
Q 2550 3084 2163 3084 
Q 1697 3084 1428 2787 
Q 1159 2491 1159 1978 
L 1159 0 
L 581 0 
L 581 3500 
L 1159 3500 
L 1159 2956 
Q 1366 3272 1645 3428 
Q 1925 3584 2291 3584 
Q 2894 3584 3203 3211 
Q 3513 2838 3513 2113 
z
" transform="scale(0.015625)"/>
      <path id="DejaVuSans-67" d="M 2906 1791 
Q 2906 2416 2648 2759 
Q 2391 3103 1925 3103 
Q 1463 3103 1205 2759 
Q 947 2416 947 1791 
Q 947 1169 1205 825 
Q 1463 481 1925 481 
Q 2391 481 2648 825 
Q 2906 1169 2906 1791 
z
M 3481 434 
Q 3481 -459 3084 -895 
Q 2688 -1331 1869 -1331 
Q 1566 -1331 1297 -1286 
Q 1028 -1241 775 -1147 
L 775 -588 
Q 1028 -725 1275 -790 
Q 1522 -856 1778 -856 
Q 2344 -856 2625 -561 
Q 2906 -266 2906 331 
L 2906 616 
Q 2728 306 2450 153 
Q 2172 0 1784 0 
Q 1141 0 747 490 
Q 353 981 353 1791 
Q 353 2603 747 3093 
Q 1141 3584 1784 3584 
Q 2172 3584 2450 3431 
Q 2728 3278 2906 2969 
L 2906 3500 
L 3481 3500 
L 3481 434 
z
" transform="scale(0.015625)"/>
      <path id="DejaVuSans-20" transform="scale(0.015625)"/>
      <path id="DejaVuSans-64" d="M 2906 2969 
L 2906 4863 
L 3481 4863 
L 3481 0 
L 2906 0 
L 2906 525 
Q 2725 213 2448 61 
Q 2172 -91 1784 -91 
Q 1150 -91 751 415 
Q 353 922 353 1747 
Q 353 2572 751 3078 
Q 1150 3584 1784 3584 
Q 2172 3584 2448 3432 
Q 2725 3281 2906 2969 
z
M 947 1747 
Q 947 1113 1208 752 
Q 1469 391 1925 391 
Q 2381 391 2643 752 
Q 2906 1113 2906 1747 
Q 2906 2381 2643 2742 
Q 2381 3103 1925 3103 
Q 1469 3103 1208 2742 
Q 947 2381 947 1747 
z
" transform="scale(0.015625)"/>
      <path id="DejaVuSans-56" d="M 1831 0 
L 50 4666 
L 709 4666 
L 2188 738 
L 3669 4666 
L 4325 4666 
L 2547 0 
L 1831 0 
z
" transform="scale(0.015625)"/>
      <path id="DejaVuSans-6c" d="M 603 4863 
L 1178 4863 
L 1178 0 
L 603 0 
L 603 4863 
z
" transform="scale(0.015625)"/>
     </defs>
     <use xlink:href="#DejaVuSans-73"/>
     <use xlink:href="#DejaVuSans-70" x="52.099609"/>
     <use xlink:href="#DejaVuSans-65" x="115.576172"/>
     <use xlink:href="#DejaVuSans-63" x="177.099609"/>
     <use xlink:href="#DejaVuSans-74" x="232.080078"/>
     <use xlink:href="#DejaVuSans-72" x="271.289062"/>
     <use xlink:href="#DejaVuSans-75" x="312.402344"/>
     <use xlink:href="#DejaVuSans-6d" x="375.78125"/>
     <use xlink:href="#DejaVuSans-47" x="473.193359"/>
     <use xlink:href="#DejaVuSans-43" x="550.683594"/>
     <use xlink:href="#DejaVuSans-4e" x="620.507812"/>
     <use xlink:href="#DejaVuSans-2b" x="695.3125"/>
     <use xlink:href="#DejaVuSans-43" x="779.101562"/>
     <use xlink:href="#DejaVuSans-6f" x="848.925781"/>
     <use xlink:href="#DejaVuSans-72" x="910.107422"/>
     <use xlink:href="#DejaVuSans-61" x="951.220703"/>
     <use xlink:href="#DejaVuSans-2b" x="1012.5"/>
     <use xlink:href="#DejaVuSans-57" x="1096.289062"/>
     <use xlink:href="#DejaVuSans-69" x="1192.916016"/>
     <use xlink:href="#DejaVuSans-74" x="1220.699219"/>
     <use xlink:href="#DejaVuSans-68" x="1259.908203"/>
     <use xlink:href="#DejaVuSans-4f" x="1323.287109"/>
     <use xlink:href="#DejaVuSans-75" x="1401.998047"/>
     <use xlink:href="#DejaVuSans-74" x="1465.376953"/>
     <use xlink:href="#DejaVuSans-47" x="1504.585938"/>
     <use xlink:href="#DejaVuSans-72" x="1582.076172"/>
     <use xlink:href="#DejaVuSans-61" x="1623.189453"/>
     <use xlink:href="#DejaVuSans-70" x="1684.46875"/>
     <use xlink:href="#DejaVuSans-68" x="1747.945312"/>
     <use xlink:href="#DejaVuSans-5f" x="1811.324219"/>
     <use xlink:href="#DejaVuSans-43" x="1861.324219"/>
     <use xlink:href="#DejaVuSans-6f" x="1931.148438"/>
     <use xlink:href="#DejaVuSans-72" x="1992.330078"/>
     <use xlink:href="#DejaVuSans-61" x="2033.443359"/>
     <use xlink:href="#DejaVuSans-5f" x="2094.722656"/>
     <use xlink:href="#DejaVuSans-57" x="2144.722656"/>
     <use xlink:href="#DejaVuSans-69" x="2241.349609"/>
     <use xlink:href="#DejaVuSans-74" x="2269.132812"/>
     <use xlink:href="#DejaVuSans-68" x="2308.341797"/>
     <use xlink:href="#DejaVuSans-47" x="2371.720703"/>
     <use xlink:href="#DejaVuSans-72" x="2449.210938"/>
     <use xlink:href="#DejaVuSans-61" x="2490.324219"/>
     <use xlink:href="#DejaVuSans-70" x="2551.603516"/>
     <use xlink:href="#DejaVuSans-68" x="2615.080078"/>
     <use xlink:href="#DejaVuSans-5f" x="2678.458984"/>
     <use xlink:href="#DejaVuSans-54" x="2728.458984"/>
     <use xlink:href="#DejaVuSans-72" x="2774.792969"/>
     <use xlink:href="#DejaVuSans-61" x="2815.90625"/>
     <use xlink:href="#DejaVuSans-69" x="2877.185547"/>
     <use xlink:href="#DejaVuSans-6e" x="2904.96875"/>
     <use xlink:href="#DejaVuSans-69" x="2968.347656"/>
     <use xlink:href="#DejaVuSans-6e" x="2996.130859"/>
     <use xlink:href="#DejaVuSans-67" x="3059.509766"/>
     <use xlink:href="#DejaVuSans-20" x="3122.986328"/>
     <use xlink:href="#DejaVuSans-61" x="3154.773438"/>
     <use xlink:href="#DejaVuSans-6e" x="3216.052734"/>
     <use xlink:href="#DejaVuSans-64" x="3279.431641"/>
     <use xlink:href="#DejaVuSans-20" x="3342.908203"/>
     <use xlink:href="#DejaVuSans-56" x="3374.695312"/>
     <use xlink:href="#DejaVuSans-61" x="3435.353516"/>
     <use xlink:href="#DejaVuSans-6c" x="3496.632812"/>
     <use xlink:href="#DejaVuSans-69" x="3524.416016"/>
     <use xlink:href="#DejaVuSans-64" x="3552.199219"/>
     <use xlink:href="#DejaVuSans-61" x="3615.675781"/>
     <use xlink:href="#DejaVuSans-74" x="3676.955078"/>
     <use xlink:href="#DejaVuSans-69" x="3716.164062"/>
     <use xlink:href="#DejaVuSans-6f" x="3743.947266"/>
     <use xlink:href="#DejaVuSans-6e" x="3805.128906"/>
     <use xlink:href="#DejaVuSans-20" x="3868.507812"/>
     <use xlink:href="#DejaVuSans-61" x="3900.294922"/>
     <use xlink:href="#DejaVuSans-63" x="3961.574219"/>
     <use xlink:href="#DejaVuSans-63" x="4016.554688"/>
     <use xlink:href="#DejaVuSans-75" x="4071.535156"/>
     <use xlink:href="#DejaVuSans-72" x="4134.914062"/>
     <use xlink:href="#DejaVuSans-61" x="4176.027344"/>
     <use xlink:href="#DejaVuSans-63" x="4237.306641"/>
     <use xlink:href="#DejaVuSans-79" x="4292.287109"/>
    </g>
   </g>
   <g id="legend_1">
    <g id="patch_7">
     <path d="M 308.024688 93.506375 
L 407.72 93.506375 
Q 409.72 93.506375 409.72 91.506375 
L 409.72 48.472 
Q 409.72 46.472 407.72 46.472 
L 308.024688 46.472 
Q 306.024688 46.472 306.024688 48.472 
L 306.024688 91.506375 
Q 306.024688 93.506375 308.024688 93.506375 
z
" style="fill: #ffffff; opacity: 0.8; stroke: #cccccc; stroke-linejoin: miter"/>
    </g>
    <g id="line2d_14">
     <path d="M 310.024688 54.570438 
L 320.024688 54.570438 
L 330.024688 54.570438 
" style="fill: none; stroke: #0000ff; stroke-width: 1.5; stroke-linecap: square"/>
    </g>
    <g id="text_14">
     <!-- training set -->
     <g transform="translate(338.024688 58.070438) scale(0.1 -0.1)">
      <use xlink:href="#DejaVuSans-74"/>
      <use xlink:href="#DejaVuSans-72" x="39.208984"/>
      <use xlink:href="#DejaVuSans-61" x="80.322266"/>
      <use xlink:href="#DejaVuSans-69" x="141.601562"/>
      <use xlink:href="#DejaVuSans-6e" x="169.384766"/>
      <use xlink:href="#DejaVuSans-69" x="232.763672"/>
      <use xlink:href="#DejaVuSans-6e" x="260.546875"/>
      <use xlink:href="#DejaVuSans-67" x="323.925781"/>
      <use xlink:href="#DejaVuSans-20" x="387.402344"/>
      <use xlink:href="#DejaVuSans-73" x="419.189453"/>
      <use xlink:href="#DejaVuSans-65" x="471.289062"/>
      <use xlink:href="#DejaVuSans-74" x="532.8125"/>
     </g>
    </g>
    <g id="line2d_15">
     <path d="M 310.024688 69.248563 
L 320.024688 69.248563 
L 330.024688 69.248563 
" style="fill: none; stroke: #008000; stroke-width: 1.5; stroke-linecap: square"/>
    </g>
    <g id="text_15">
     <!-- validation set -->
     <g transform="translate(338.024688 72.748563) scale(0.1 -0.1)">
      <defs>
       <path id="DejaVuSans-76" d="M 191 3500 
L 800 3500 
L 1894 563 
L 2988 3500 
L 3597 3500 
L 2284 0 
L 1503 0 
L 191 3500 
z
" transform="scale(0.015625)"/>
      </defs>
      <use xlink:href="#DejaVuSans-76"/>
      <use xlink:href="#DejaVuSans-61" x="59.179688"/>
      <use xlink:href="#DejaVuSans-6c" x="120.458984"/>
      <use xlink:href="#DejaVuSans-69" x="148.242188"/>
      <use xlink:href="#DejaVuSans-64" x="176.025391"/>
      <use xlink:href="#DejaVuSans-61" x="239.501953"/>
      <use xlink:href="#DejaVuSans-74" x="300.78125"/>
      <use xlink:href="#DejaVuSans-69" x="339.990234"/>
      <use xlink:href="#DejaVuSans-6f" x="367.773438"/>
      <use xlink:href="#DejaVuSans-6e" x="428.955078"/>
      <use xlink:href="#DejaVuSans-20" x="492.333984"/>
      <use xlink:href="#DejaVuSans-73" x="524.121094"/>
      <use xlink:href="#DejaVuSans-65" x="576.220703"/>
      <use xlink:href="#DejaVuSans-74" x="637.744141"/>
     </g>
    </g>
    <g id="line2d_16">
     <path d="M 310.024688 83.926688 
L 320.024688 83.926688 
L 330.024688 83.926688 
" style="fill: none; stroke: #ff0000; stroke-width: 1.5; stroke-linecap: square"/>
    </g>
    <g id="text_16">
     <!-- test set -->
     <g transform="translate(338.024688 87.426688) scale(0.1 -0.1)">
      <use xlink:href="#DejaVuSans-74"/>
      <use xlink:href="#DejaVuSans-65" x="39.208984"/>
      <use xlink:href="#DejaVuSans-73" x="100.732422"/>
      <use xlink:href="#DejaVuSans-74" x="152.832031"/>
      <use xlink:href="#DejaVuSans-20" x="192.041016"/>
      <use xlink:href="#DejaVuSans-73" x="223.828125"/>
      <use xlink:href="#DejaVuSans-65" x="275.927734"/>
      <use xlink:href="#DejaVuSans-74" x="337.451172"/>
     </g>
    </g>
   </g>
  </g>
 </g>
 <defs>
  <clipPath id="p73e07ed967">
   <rect x="57.6" y="41.472" width="357.12" height="266.112"/>
  </clipPath>
 </defs>
</svg>
