<?xml version="1.0" encoding="utf-8" standalone="no"?>
<!DOCTYPE svg PUBLIC "-//W3C//DTD SVG 1.1//EN"
  "http://www.w3.org/Graphics/SVG/1.1/DTD/svg11.dtd">
<svg xmlns:xlink="http://www.w3.org/1999/xlink" width="460.8pt" height="345.6pt" viewBox="0 0 460.8 345.6" xmlns="http://www.w3.org/2000/svg" version="1.1">
 <metadata>
  <rdf:RDF xmlns:dc="http://purl.org/dc/elements/1.1/" xmlns:cc="http://creativecommons.org/ns#" xmlns:rdf="http://www.w3.org/1999/02/22-rdf-syntax-ns#">
   <cc:Work>
    <dc:type rdf:resource="http://purl.org/dc/dcmitype/StillImage"/>
    <dc:date>2023-04-08T15:36:02.017976</dc:date>
    <dc:format>image/svg+xml</dc:format>
    <dc:creator>
     <cc:Agent>
      <dc:title>Matplotlib v3.7.1, https://matplotlib.org/</dc:title>
     </cc:Agent>
    </dc:creator>
   </cc:Work>
  </rdf:RDF>
 </metadata>
 <defs>
  <style type="text/css">*{stroke-linejoin: round; stroke-linecap: butt}</style>
 </defs>
 <g id="figure_1">
  <g id="patch_1">
   <path d="M 0 345.6 
L 460.8 345.6 
L 460.8 0 
L 0 0 
z
" style="fill: #ffffff"/>
  </g>
  <g id="axes_1">
   <g id="patch_2">
    <path d="M 57.6 307.584 
L 414.72 307.584 
L 414.72 41.472 
L 57.6 41.472 
z
" style="fill: #ffffff"/>
   </g>
   <g id="matplotlib.axis_1">
    <g id="xtick_1">
     <g id="line2d_1">
      <defs>
       <path id="m6260350fb3" d="M 0 0 
L 0 3.5 
" style="stroke: #000000; stroke-width: 0.8"/>
      </defs>
      <g>
       <use xlink:href="#m6260350fb3" x="71.945201" y="307.584" style="stroke: #000000; stroke-width: 0.8"/>
      </g>
     </g>
     <g id="text_1">
      <!-- 0 -->
      <g transform="translate(68.763951 322.182437) scale(0.1 -0.1)">
       <defs>
        <path id="DejaVuSans-30" d="M 2034 4250 
Q 1547 4250 1301 3770 
Q 1056 3291 1056 2328 
Q 1056 1369 1301 889 
Q 1547 409 2034 409 
Q 2525 409 2770 889 
Q 3016 1369 3016 2328 
Q 3016 3291 2770 3770 
Q 2525 4250 2034 4250 
z
M 2034 4750 
Q 2819 4750 3233 4129 
Q 3647 3509 3647 2328 
Q 3647 1150 3233 529 
Q 2819 -91 2034 -91 
Q 1250 -91 836 529 
Q 422 1150 422 2328 
Q 422 3509 836 4129 
Q 1250 4750 2034 4750 
z
" transform="scale(0.015625)"/>
       </defs>
       <use xlink:href="#DejaVuSans-30"/>
      </g>
     </g>
    </g>
    <g id="xtick_2">
     <g id="line2d_2">
      <g>
       <use xlink:href="#m6260350fb3" x="119.133362" y="307.584" style="stroke: #000000; stroke-width: 0.8"/>
      </g>
     </g>
     <g id="text_2">
      <!-- 25 -->
      <g transform="translate(112.770862 322.182437) scale(0.1 -0.1)">
       <defs>
        <path id="DejaVuSans-32" d="M 1228 531 
L 3431 531 
L 3431 0 
L 469 0 
L 469 531 
Q 828 903 1448 1529 
Q 2069 2156 2228 2338 
Q 2531 2678 2651 2914 
Q 2772 3150 2772 3378 
Q 2772 3750 2511 3984 
Q 2250 4219 1831 4219 
Q 1534 4219 1204 4116 
Q 875 4013 500 3803 
L 500 4441 
Q 881 4594 1212 4672 
Q 1544 4750 1819 4750 
Q 2544 4750 2975 4387 
Q 3406 4025 3406 3419 
Q 3406 3131 3298 2873 
Q 3191 2616 2906 2266 
Q 2828 2175 2409 1742 
Q 1991 1309 1228 531 
z
" transform="scale(0.015625)"/>
        <path id="DejaVuSans-35" d="M 691 4666 
L 3169 4666 
L 3169 4134 
L 1269 4134 
L 1269 2991 
Q 1406 3038 1543 3061 
Q 1681 3084 1819 3084 
Q 2600 3084 3056 2656 
Q 3513 2228 3513 1497 
Q 3513 744 3044 326 
Q 2575 -91 1722 -91 
Q 1428 -91 1123 -41 
Q 819 9 494 109 
L 494 744 
Q 775 591 1075 516 
Q 1375 441 1709 441 
Q 2250 441 2565 725 
Q 2881 1009 2881 1497 
Q 2881 1984 2565 2268 
Q 2250 2553 1709 2553 
Q 1456 2553 1204 2497 
Q 953 2441 691 2322 
L 691 4666 
z
" transform="scale(0.015625)"/>
       </defs>
       <use xlink:href="#DejaVuSans-32"/>
       <use xlink:href="#DejaVuSans-35" x="63.623047"/>
      </g>
     </g>
    </g>
    <g id="xtick_3">
     <g id="line2d_3">
      <g>
       <use xlink:href="#m6260350fb3" x="166.321522" y="307.584" style="stroke: #000000; stroke-width: 0.8"/>
      </g>
     </g>
     <g id="text_3">
      <!-- 50 -->
      <g transform="translate(159.959022 322.182437) scale(0.1 -0.1)">
       <use xlink:href="#DejaVuSans-35"/>
       <use xlink:href="#DejaVuSans-30" x="63.623047"/>
      </g>
     </g>
    </g>
    <g id="xtick_4">
     <g id="line2d_4">
      <g>
       <use xlink:href="#m6260350fb3" x="213.509683" y="307.584" style="stroke: #000000; stroke-width: 0.8"/>
      </g>
     </g>
     <g id="text_4">
      <!-- 75 -->
      <g transform="translate(207.147183 322.182437) scale(0.1 -0.1)">
       <defs>
        <path id="DejaVuSans-37" d="M 525 4666 
L 3525 4666 
L 3525 4397 
L 1831 0 
L 1172 0 
L 2766 4134 
L 525 4134 
L 525 4666 
z
" transform="scale(0.015625)"/>
       </defs>
       <use xlink:href="#DejaVuSans-37"/>
       <use xlink:href="#DejaVuSans-35" x="63.623047"/>
      </g>
     </g>
    </g>
    <g id="xtick_5">
     <g id="line2d_5">
      <g>
       <use xlink:href="#m6260350fb3" x="260.697844" y="307.584" style="stroke: #000000; stroke-width: 0.8"/>
      </g>
     </g>
     <g id="text_5">
      <!-- 100 -->
      <g transform="translate(251.154094 322.182437) scale(0.1 -0.1)">
       <defs>
        <path id="DejaVuSans-31" d="M 794 531 
L 1825 531 
L 1825 4091 
L 703 3866 
L 703 4441 
L 1819 4666 
L 2450 4666 
L 2450 531 
L 3481 531 
L 3481 0 
L 794 0 
L 794 531 
z
" transform="scale(0.015625)"/>
       </defs>
       <use xlink:href="#DejaVuSans-31"/>
       <use xlink:href="#DejaVuSans-30" x="63.623047"/>
       <use xlink:href="#DejaVuSans-30" x="127.246094"/>
      </g>
     </g>
    </g>
    <g id="xtick_6">
     <g id="line2d_6">
      <g>
       <use xlink:href="#m6260350fb3" x="307.886004" y="307.584" style="stroke: #000000; stroke-width: 0.8"/>
      </g>
     </g>
     <g id="text_6">
      <!-- 125 -->
      <g transform="translate(298.342254 322.182437) scale(0.1 -0.1)">
       <use xlink:href="#DejaVuSans-31"/>
       <use xlink:href="#DejaVuSans-32" x="63.623047"/>
       <use xlink:href="#DejaVuSans-35" x="127.246094"/>
      </g>
     </g>
    </g>
    <g id="xtick_7">
     <g id="line2d_7">
      <g>
       <use xlink:href="#m6260350fb3" x="355.074165" y="307.584" style="stroke: #000000; stroke-width: 0.8"/>
      </g>
     </g>
     <g id="text_7">
      <!-- 150 -->
      <g transform="translate(345.530415 322.182437) scale(0.1 -0.1)">
       <use xlink:href="#DejaVuSans-31"/>
       <use xlink:href="#DejaVuSans-35" x="63.623047"/>
       <use xlink:href="#DejaVuSans-30" x="127.246094"/>
      </g>
     </g>
    </g>
    <g id="xtick_8">
     <g id="line2d_8">
      <g>
       <use xlink:href="#m6260350fb3" x="402.262326" y="307.584" style="stroke: #000000; stroke-width: 0.8"/>
      </g>
     </g>
     <g id="text_8">
      <!-- 175 -->
      <g transform="translate(392.718576 322.182437) scale(0.1 -0.1)">
       <use xlink:href="#DejaVuSans-31"/>
       <use xlink:href="#DejaVuSans-37" x="63.623047"/>
       <use xlink:href="#DejaVuSans-35" x="127.246094"/>
      </g>
     </g>
    </g>
    <g id="text_9">
     <!-- epoch -->
     <g transform="translate(220.931875 335.860562) scale(0.1 -0.1)">
      <defs>
       <path id="DejaVuSans-65" d="M 3597 1894 
L 3597 1613 
L 953 1613 
Q 991 1019 1311 708 
Q 1631 397 2203 397 
Q 2534 397 2845 478 
Q 3156 559 3463 722 
L 3463 178 
Q 3153 47 2828 -22 
Q 2503 -91 2169 -91 
Q 1331 -91 842 396 
Q 353 884 353 1716 
Q 353 2575 817 3079 
Q 1281 3584 2069 3584 
Q 2775 3584 3186 3129 
Q 3597 2675 3597 1894 
z
M 3022 2063 
Q 3016 2534 2758 2815 
Q 2500 3097 2075 3097 
Q 1594 3097 1305 2825 
Q 1016 2553 972 2059 
L 3022 2063 
z
" transform="scale(0.015625)"/>
       <path id="DejaVuSans-70" d="M 1159 525 
L 1159 -1331 
L 581 -1331 
L 581 3500 
L 1159 3500 
L 1159 2969 
Q 1341 3281 1617 3432 
Q 1894 3584 2278 3584 
Q 2916 3584 3314 3078 
Q 3713 2572 3713 1747 
Q 3713 922 3314 415 
Q 2916 -91 2278 -91 
Q 1894 -91 1617 61 
Q 1341 213 1159 525 
z
M 3116 1747 
Q 3116 2381 2855 2742 
Q 2594 3103 2138 3103 
Q 1681 3103 1420 2742 
Q 1159 2381 1159 1747 
Q 1159 1113 1420 752 
Q 1681 391 2138 391 
Q 2594 391 2855 752 
Q 3116 1113 3116 1747 
z
" transform="scale(0.015625)"/>
       <path id="DejaVuSans-6f" d="M 1959 3097 
Q 1497 3097 1228 2736 
Q 959 2375 959 1747 
Q 959 1119 1226 758 
Q 1494 397 1959 397 
Q 2419 397 2687 759 
Q 2956 1122 2956 1747 
Q 2956 2369 2687 2733 
Q 2419 3097 1959 3097 
z
M 1959 3584 
Q 2709 3584 3137 3096 
Q 3566 2609 3566 1747 
Q 3566 888 3137 398 
Q 2709 -91 1959 -91 
Q 1206 -91 779 398 
Q 353 888 353 1747 
Q 353 2609 779 3096 
Q 1206 3584 1959 3584 
z
" transform="scale(0.015625)"/>
       <path id="DejaVuSans-63" d="M 3122 3366 
L 3122 2828 
Q 2878 2963 2633 3030 
Q 2388 3097 2138 3097 
Q 1578 3097 1268 2742 
Q 959 2388 959 1747 
Q 959 1106 1268 751 
Q 1578 397 2138 397 
Q 2388 397 2633 464 
Q 2878 531 3122 666 
L 3122 134 
Q 2881 22 2623 -34 
Q 2366 -91 2075 -91 
Q 1284 -91 818 406 
Q 353 903 353 1747 
Q 353 2603 823 3093 
Q 1294 3584 2113 3584 
Q 2378 3584 2631 3529 
Q 2884 3475 3122 3366 
z
" transform="scale(0.015625)"/>
       <path id="DejaVuSans-68" d="M 3513 2113 
L 3513 0 
L 2938 0 
L 2938 2094 
Q 2938 2591 2744 2837 
Q 2550 3084 2163 3084 
Q 1697 3084 1428 2787 
Q 1159 2491 1159 1978 
L 1159 0 
L 581 0 
L 581 4863 
L 1159 4863 
L 1159 2956 
Q 1366 3272 1645 3428 
Q 1925 3584 2291 3584 
Q 2894 3584 3203 3211 
Q 3513 2838 3513 2113 
z
" transform="scale(0.015625)"/>
      </defs>
      <use xlink:href="#DejaVuSans-65"/>
      <use xlink:href="#DejaVuSans-70" x="61.523438"/>
      <use xlink:href="#DejaVuSans-6f" x="125"/>
      <use xlink:href="#DejaVuSans-63" x="186.181641"/>
      <use xlink:href="#DejaVuSans-68" x="241.162109"/>
     </g>
    </g>
   </g>
   <g id="matplotlib.axis_2">
    <g id="ytick_1">
     <g id="line2d_9">
      <defs>
       <path id="m1be240d9c6" d="M 0 0 
L -3.5 0 
" style="stroke: #000000; stroke-width: 0.8"/>
      </defs>
      <g>
       <use xlink:href="#m1be240d9c6" x="57.6" y="268.306377" style="stroke: #000000; stroke-width: 0.8"/>
      </g>
     </g>
     <g id="text_10">
      <!-- 0.5 -->
      <g transform="translate(34.696875 272.105596) scale(0.1 -0.1)">
       <defs>
        <path id="DejaVuSans-2e" d="M 684 794 
L 1344 794 
L 1344 0 
L 684 0 
L 684 794 
z
" transform="scale(0.015625)"/>
       </defs>
       <use xlink:href="#DejaVuSans-30"/>
       <use xlink:href="#DejaVuSans-2e" x="63.623047"/>
       <use xlink:href="#DejaVuSans-35" x="95.410156"/>
      </g>
     </g>
    </g>
    <g id="ytick_2">
     <g id="line2d_10">
      <g>
       <use xlink:href="#m1be240d9c6" x="57.6" y="210.097607" style="stroke: #000000; stroke-width: 0.8"/>
      </g>
     </g>
     <g id="text_11">
      <!-- 1.0 -->
      <g transform="translate(34.696875 213.896826) scale(0.1 -0.1)">
       <use xlink:href="#DejaVuSans-31"/>
       <use xlink:href="#DejaVuSans-2e" x="63.623047"/>
       <use xlink:href="#DejaVuSans-30" x="95.410156"/>
      </g>
     </g>
    </g>
    <g id="ytick_3">
     <g id="line2d_11">
      <g>
       <use xlink:href="#m1be240d9c6" x="57.6" y="151.888837" style="stroke: #000000; stroke-width: 0.8"/>
      </g>
     </g>
     <g id="text_12">
      <!-- 1.5 -->
      <g transform="translate(34.696875 155.688056) scale(0.1 -0.1)">
       <use xlink:href="#DejaVuSans-31"/>
       <use xlink:href="#DejaVuSans-2e" x="63.623047"/>
       <use xlink:href="#DejaVuSans-35" x="95.410156"/>
      </g>
     </g>
    </g>
    <g id="ytick_4">
     <g id="line2d_12">
      <g>
       <use xlink:href="#m1be240d9c6" x="57.6" y="93.680067" style="stroke: #000000; stroke-width: 0.8"/>
      </g>
     </g>
     <g id="text_13">
      <!-- 2.0 -->
      <g transform="translate(34.696875 97.479286) scale(0.1 -0.1)">
       <use xlink:href="#DejaVuSans-32"/>
       <use xlink:href="#DejaVuSans-2e" x="63.623047"/>
       <use xlink:href="#DejaVuSans-30" x="95.410156"/>
      </g>
     </g>
    </g>
    <g id="text_14">
     <!-- loss -->
     <g transform="translate(28.617188 184.185812) rotate(-90) scale(0.1 -0.1)">
      <defs>
       <path id="DejaVuSans-6c" d="M 603 4863 
L 1178 4863 
L 1178 0 
L 603 0 
L 603 4863 
z
" transform="scale(0.015625)"/>
       <path id="DejaVuSans-73" d="M 2834 3397 
L 2834 2853 
Q 2591 2978 2328 3040 
Q 2066 3103 1784 3103 
Q 1356 3103 1142 2972 
Q 928 2841 928 2578 
Q 928 2378 1081 2264 
Q 1234 2150 1697 2047 
L 1894 2003 
Q 2506 1872 2764 1633 
Q 3022 1394 3022 966 
Q 3022 478 2636 193 
Q 2250 -91 1575 -91 
Q 1294 -91 989 -36 
Q 684 19 347 128 
L 347 722 
Q 666 556 975 473 
Q 1284 391 1588 391 
Q 1994 391 2212 530 
Q 2431 669 2431 922 
Q 2431 1156 2273 1281 
Q 2116 1406 1581 1522 
L 1381 1569 
Q 847 1681 609 1914 
Q 372 2147 372 2553 
Q 372 3047 722 3315 
Q 1072 3584 1716 3584 
Q 2034 3584 2315 3537 
Q 2597 3491 2834 3397 
z
" transform="scale(0.015625)"/>
      </defs>
      <use xlink:href="#DejaVuSans-6c"/>
      <use xlink:href="#DejaVuSans-6f" x="27.783203"/>
      <use xlink:href="#DejaVuSans-73" x="88.964844"/>
      <use xlink:href="#DejaVuSans-73" x="141.064453"/>
     </g>
    </g>
   </g>
   <g id="line2d_13">
    <path d="M 73.832727 100.513495 
L 75.720254 103.524214 
L 77.60778 107.515486 
L 81.382833 116.365576 
L 88.932939 137.788098 
L 90.820465 141.372369 
L 92.707992 144.542824 
L 94.595518 146.841196 
L 96.483044 148.402907 
L 100.258097 150.90122 
L 102.145624 151.556472 
L 105.920677 153.678912 
L 107.808203 155.597844 
L 109.695729 157.06073 
L 111.583256 158.352402 
L 113.470782 159.80084 
L 117.245835 164.246882 
L 119.133362 167.227291 
L 121.020888 169.695711 
L 122.908414 172.958177 
L 124.795941 177.188124 
L 126.683467 180.191168 
L 130.45852 187.625766 
L 132.346047 189.917171 
L 134.233573 193.261573 
L 136.121099 195.304742 
L 138.008626 197.82755 
L 139.896152 199.976025 
L 141.783679 202.296393 
L 145.558732 204.964269 
L 147.446258 205.693741 
L 149.333784 206.697401 
L 153.108837 209.847442 
L 154.996364 210.917675 
L 156.88389 211.660693 
L 158.771416 213.043925 
L 160.658943 213.537491 
L 162.546469 214.943275 
L 164.433996 216.112092 
L 170.096575 220.144235 
L 171.984101 222.267563 
L 173.871628 223.665305 
L 175.759154 225.274229 
L 177.646681 226.177413 
L 179.534207 228.05324 
L 181.421734 230.359897 
L 185.196786 233.615806 
L 187.084313 234.730567 
L 190.859366 236.474796 
L 192.746892 236.885017 
L 194.634419 238.683502 
L 196.521945 239.914297 
L 200.296998 242.224854 
L 202.184524 243.054783 
L 204.072051 243.574377 
L 205.959577 241.614789 
L 207.847104 243.901635 
L 209.73463 245.903968 
L 211.622156 246.044733 
L 213.509683 247.894122 
L 217.284736 250.0583 
L 219.172262 250.588844 
L 221.059789 251.517806 
L 222.947315 252.237168 
L 224.834841 252.723788 
L 226.722368 253.898732 
L 228.609894 254.410985 
L 230.497421 255.040535 
L 232.384947 255.832007 
L 234.272474 256.433558 
L 236.16 257.1536 
L 238.047526 258.212398 
L 239.935053 258.43546 
L 241.822579 259.24777 
L 243.710106 259.860958 
L 245.597632 260.253547 
L 247.485159 261.15891 
L 249.372685 261.716953 
L 251.260211 261.827749 
L 253.147738 262.998703 
L 255.035264 263.852168 
L 256.922791 264.036649 
L 258.810317 264.907046 
L 260.697844 264.81137 
L 262.58537 265.06137 
L 264.472896 266.468299 
L 266.360423 266.027282 
L 268.247949 267.604266 
L 270.135476 267.389947 
L 272.023002 269.07526 
L 273.910529 268.964742 
L 275.798055 270.692924 
L 277.685581 270.259006 
L 279.573108 271.851849 
L 281.460634 271.469657 
L 283.348161 273.086114 
L 285.235687 272.53001 
L 287.123214 274.364217 
L 289.01074 274.100353 
L 290.898266 274.643856 
L 294.673319 276.391144 
L 296.560846 275.983227 
L 298.448372 276.37303 
L 300.335899 277.560863 
L 302.223425 278.563504 
L 305.998478 277.983831 
L 307.886004 279.391781 
L 309.773531 279.390268 
L 311.661057 280.032988 
L 313.548584 279.904176 
L 315.43611 280.873245 
L 317.323636 281.417615 
L 319.211163 281.67106 
L 321.098689 281.172199 
L 322.986216 282.087925 
L 324.873742 282.381051 
L 326.761268 283.060222 
L 328.648795 282.504131 
L 330.536321 283.662931 
L 332.423848 283.424274 
L 334.311374 284.059039 
L 336.198901 284.878812 
L 338.086427 285.049783 
L 339.973953 285.739782 
L 341.86148 285.663224 
L 343.749006 285.277018 
L 345.636533 286.613784 
L 347.524059 285.227061 
L 349.411586 287.712634 
L 351.299112 286.721377 
L 353.186638 286.724045 
L 355.074165 287.952981 
L 356.961691 287.559791 
L 358.849218 288.323535 
L 360.736744 288.238033 
L 362.624271 289.745651 
L 364.511797 289.892571 
L 366.399323 290.398537 
L 368.28685 291.238912 
L 370.174376 290.550016 
L 372.061903 291.751779 
L 373.949429 291.44219 
L 375.836956 292.501696 
L 379.612008 292.68683 
L 381.499535 294.000283 
L 383.387061 293.348334 
L 385.274588 294.307869 
L 387.162114 293.632969 
L 389.049641 294.477716 
L 390.937167 293.548622 
L 392.824693 293.320234 
L 394.71222 295.488 
L 396.599746 292.584604 
L 398.487273 295.02881 
L 398.487273 295.02881 
" clip-path="url(#p23988f22ff)" style="fill: none; stroke: #0000ff; stroke-width: 1.5; stroke-linecap: square"/>
   </g>
   <g id="line2d_14">
    <path d="M 73.832727 99.572702 
L 75.720254 100.497841 
L 77.60778 109.690496 
L 79.495307 115.583797 
L 81.382833 117.752118 
L 83.270359 120.780739 
L 85.157886 125.124653 
L 88.932939 135.091551 
L 90.820465 138.670159 
L 92.707992 141.827985 
L 96.483044 145.742082 
L 98.370571 146.069826 
L 100.258097 145.776347 
L 102.145624 146.22383 
L 104.03315 147.279798 
L 105.920677 147.986537 
L 107.808203 148.536774 
L 109.695729 148.52835 
L 111.583256 147.772149 
L 115.358309 153.749912 
L 117.245835 154.476928 
L 119.133362 154.188167 
L 121.020888 155.492315 
L 122.908414 160.582188 
L 124.795941 165.176767 
L 126.683467 166.98548 
L 128.570994 167.460262 
L 130.45852 170.452883 
L 132.346047 172.720987 
L 134.233573 173.281355 
L 136.121099 172.716879 
L 138.008626 173.170622 
L 139.896152 174.890516 
L 141.783679 176.766037 
L 143.671205 175.981622 
L 145.558732 173.366525 
L 147.446258 175.73097 
L 149.333784 179.430415 
L 151.221311 178.981765 
L 153.108837 175.763847 
L 154.996364 172.169904 
L 156.88389 169.86945 
L 158.771416 170.439047 
L 160.658943 171.245737 
L 162.546469 168.284979 
L 164.433996 167.864946 
L 166.321522 167.845711 
L 168.209049 172.388164 
L 170.096575 173.701985 
L 171.984101 171.211333 
L 175.759154 170.153464 
L 177.646681 173.797189 
L 179.534207 175.428887 
L 181.421734 171.45023 
L 183.30926 170.53289 
L 185.196786 170.297727 
L 187.084313 169.818615 
L 188.971839 168.455138 
L 190.859366 171.036691 
L 192.746892 166.073983 
L 194.634419 167.069053 
L 196.521945 166.281252 
L 198.409471 170.283849 
L 200.296998 168.973719 
L 202.184524 168.130044 
L 204.072051 168.650915 
L 205.959577 171.095201 
L 207.847104 171.300888 
L 209.73463 169.965764 
L 211.622156 165.499612 
L 213.509683 170.866671 
L 215.397209 172.831582 
L 217.284736 172.911533 
L 219.172262 170.081049 
L 221.059789 170.091957 
L 222.947315 170.224118 
L 224.834841 176.185962 
L 226.722368 174.197848 
L 228.609894 171.991418 
L 230.497421 174.804236 
L 232.384947 179.656364 
L 234.272474 178.101356 
L 236.16 179.023691 
L 238.047526 177.243484 
L 239.935053 176.914227 
L 241.822579 177.204584 
L 243.710106 175.029102 
L 245.597632 176.939249 
L 247.485159 174.365384 
L 251.260211 171.292755 
L 253.147738 175.527962 
L 255.035264 173.524665 
L 256.922791 170.907445 
L 258.810317 166.80247 
L 260.697844 165.305292 
L 262.58537 164.763798 
L 264.472896 164.61293 
L 266.360423 165.73998 
L 268.247949 164.595693 
L 270.135476 159.62853 
L 273.910529 154.436265 
L 275.798055 155.881345 
L 277.685581 152.913523 
L 279.573108 155.328291 
L 281.460634 149.264928 
L 283.348161 149.856674 
L 285.235687 147.04938 
L 287.123214 147.30518 
L 289.01074 145.870745 
L 290.898266 144.132339 
L 292.785793 142.74019 
L 294.673319 142.150289 
L 296.560846 136.936416 
L 298.448372 136.849622 
L 300.335899 129.880134 
L 302.223425 133.662514 
L 304.110951 133.346372 
L 305.998478 132.36951 
L 307.886004 127.802437 
L 309.773531 123.665889 
L 311.661057 125.957877 
L 313.548584 126.520091 
L 315.43611 121.908942 
L 317.323636 125.607026 
L 319.211163 122.451615 
L 321.098689 116.57816 
L 322.986216 120.439561 
L 324.873742 118.490999 
L 326.761268 121.956446 
L 328.648795 115.820557 
L 330.536321 113.442386 
L 332.423848 111.547865 
L 334.311374 114.182239 
L 336.198901 112.140972 
L 338.086427 109.537227 
L 339.973953 107.331921 
L 341.86148 104.061128 
L 343.749006 105.344959 
L 345.636533 97.315201 
L 347.524059 93.207103 
L 349.411586 97.12367 
L 351.299112 94.255604 
L 353.186638 98.780543 
L 355.074165 95.434295 
L 356.961691 97.544231 
L 358.849218 89.720853 
L 360.736744 92.676879 
L 362.624271 89.112773 
L 364.511797 88.262492 
L 366.399323 83.582119 
L 368.28685 82.731922 
L 370.174376 79.709199 
L 372.061903 76.109593 
L 373.949429 76.69322 
L 375.836956 77.025766 
L 377.724482 79.163292 
L 379.612008 71.289135 
L 381.499535 70.862468 
L 383.387061 69.091906 
L 385.274588 69.291722 
L 387.162114 64.24408 
L 389.049641 67.716591 
L 390.937167 67.050111 
L 392.824693 53.568 
L 394.71222 60.962504 
L 396.599746 63.005742 
L 398.487273 58.242822 
L 398.487273 58.242822 
" clip-path="url(#p23988f22ff)" style="fill: none; stroke: #008000; stroke-width: 1.5; stroke-linecap: square"/>
   </g>
   <g id="line2d_15">
    <path d="M 73.832727 99.5115 
L 75.720254 100.530829 
L 77.60778 109.292002 
L 79.495307 115.011605 
L 81.382833 117.230095 
L 83.270359 120.094817 
L 85.157886 124.083716 
L 88.932939 133.167775 
L 90.820465 136.450615 
L 92.707992 139.044547 
L 94.595518 140.532733 
L 96.483044 141.848358 
L 98.370571 142.085104 
L 100.258097 141.671468 
L 102.145624 142.065841 
L 104.03315 143.037138 
L 109.695729 145.410271 
L 111.583256 145.29865 
L 113.470782 148.627801 
L 115.358309 151.387382 
L 117.245835 152.620627 
L 119.133362 152.910623 
L 121.020888 154.950142 
L 122.908414 160.101522 
L 124.795941 164.397861 
L 126.683467 166.147121 
L 128.570994 167.004076 
L 130.45852 170.197944 
L 132.346047 172.818675 
L 134.233573 173.175202 
L 136.121099 172.633264 
L 138.008626 172.839006 
L 139.896152 174.297215 
L 141.783679 176.059394 
L 143.671205 175.756187 
L 145.558732 173.028192 
L 147.446258 174.8716 
L 149.333784 177.825404 
L 151.221311 178.01205 
L 153.108837 176.074619 
L 154.996364 172.677605 
L 156.88389 171.328436 
L 158.771416 172.300593 
L 160.658943 173.535476 
L 162.546469 171.040369 
L 164.433996 171.02001 
L 166.321522 171.669545 
L 168.209049 176.599112 
L 170.096575 177.385165 
L 171.984101 174.839361 
L 173.871628 174.45251 
L 175.759154 174.811758 
L 177.646681 179.236927 
L 179.534207 180.701201 
L 181.421734 176.851776 
L 183.30926 176.752048 
L 185.196786 177.213577 
L 187.084313 177.20253 
L 188.971839 177.394838 
L 190.859366 179.726059 
L 192.746892 173.978172 
L 194.634419 175.703825 
L 196.521945 175.721769 
L 198.409471 179.384354 
L 204.072051 175.307676 
L 205.959577 177.88186 
L 207.847104 179.282322 
L 209.73463 178.390796 
L 211.622156 173.550187 
L 213.509683 177.470903 
L 215.397209 180.634419 
L 217.284736 181.67519 
L 219.172262 178.937023 
L 221.059789 177.941522 
L 222.947315 177.078571 
L 224.834841 182.389146 
L 226.722368 179.30418 
L 228.609894 176.831195 
L 230.497421 179.400105 
L 232.384947 183.621975 
L 234.272474 182.167486 
L 236.16 183.398025 
L 238.047526 180.317903 
L 239.935053 179.60149 
L 241.822579 181.052371 
L 243.710106 177.831566 
L 245.597632 179.38255 
L 247.485159 176.505643 
L 249.372685 175.000277 
L 251.260211 173.655466 
L 253.147738 179.510366 
L 255.035264 176.334097 
L 256.922791 173.999489 
L 258.810317 171.403599 
L 260.697844 170.077135 
L 262.58537 170.915064 
L 264.472896 169.662112 
L 266.360423 169.964529 
L 270.135476 165.921977 
L 272.023002 162.520966 
L 273.910529 157.726626 
L 275.798055 161.737023 
L 277.685581 161.034751 
L 279.573108 163.20471 
L 281.460634 154.631057 
L 283.348161 157.516915 
L 285.235687 156.844926 
L 289.01074 152.756979 
L 290.898266 151.990661 
L 292.785793 152.14876 
L 294.673319 149.589272 
L 296.560846 144.90758 
L 298.448372 144.724307 
L 300.335899 137.079832 
L 302.223425 142.4704 
L 304.110951 143.311299 
L 305.998478 142.908752 
L 307.886004 137.128738 
L 309.773531 134.031698 
L 311.661057 135.915227 
L 313.548584 135.709291 
L 315.43611 129.677292 
L 317.323636 133.770194 
L 319.211163 130.687032 
L 321.098689 123.818298 
L 322.986216 128.323544 
L 324.873742 125.593162 
L 326.761268 130.980053 
L 328.648795 124.986414 
L 330.536321 121.700257 
L 332.423848 119.899677 
L 334.311374 123.366207 
L 338.086427 119.419552 
L 339.973953 116.913453 
L 341.86148 113.284773 
L 343.749006 116.295464 
L 345.636533 104.942551 
L 347.524059 102.046743 
L 349.411586 106.851408 
L 351.299112 108.482703 
L 353.186638 113.151669 
L 355.074165 106.208798 
L 356.961691 108.332154 
L 358.849218 101.069353 
L 360.736744 104.097364 
L 362.624271 100.387677 
L 364.511797 100.918402 
L 366.399323 93.852835 
L 368.28685 93.627331 
L 370.174376 91.873395 
L 372.061903 83.748711 
L 373.949429 84.798752 
L 375.836956 80.841703 
L 377.724482 85.00251 
L 379.612008 77.269604 
L 381.499535 81.768841 
L 383.387061 80.981011 
L 385.274588 79.518847 
L 387.162114 73.387163 
L 389.049641 80.691598 
L 390.937167 80.620487 
L 392.824693 62.126123 
L 394.71222 69.57353 
L 396.599746 74.285184 
L 398.487273 62.417507 
L 398.487273 62.417507 
" clip-path="url(#p23988f22ff)" style="fill: none; stroke: #ff0000; stroke-width: 1.5; stroke-linecap: square"/>
   </g>
   <g id="patch_3">
    <path d="M 57.6 307.584 
L 57.6 41.472 
" style="fill: none; stroke: #000000; stroke-width: 0.8; stroke-linejoin: miter; stroke-linecap: square"/>
   </g>
   <g id="patch_4">
    <path d="M 414.72 307.584 
L 414.72 41.472 
" style="fill: none; stroke: #000000; stroke-width: 0.8; stroke-linejoin: miter; stroke-linecap: square"/>
   </g>
   <g id="patch_5">
    <path d="M 57.6 307.584 
L 414.72 307.584 
" style="fill: none; stroke: #000000; stroke-width: 0.8; stroke-linejoin: miter; stroke-linecap: square"/>
   </g>
   <g id="patch_6">
    <path d="M 57.6 41.472 
L 414.72 41.472 
" style="fill: none; stroke: #000000; stroke-width: 0.8; stroke-linejoin: miter; stroke-linecap: square"/>
   </g>
   <g id="text_15">
    <!-- spectrumGCN+Cora+WithOutGraph_Cora_WithGraph_Training and Validation loss -->
    <g transform="translate(-9.445312 35.472) scale(0.12 -0.12)">
     <defs>
      <path id="DejaVuSans-74" d="M 1172 4494 
L 1172 3500 
L 2356 3500 
L 2356 3053 
L 1172 3053 
L 1172 1153 
Q 1172 725 1289 603 
Q 1406 481 1766 481 
L 2356 481 
L 2356 0 
L 1766 0 
Q 1100 0 847 248 
Q 594 497 594 1153 
L 594 3053 
L 172 3053 
L 172 3500 
L 594 3500 
L 594 4494 
L 1172 4494 
z
" transform="scale(0.015625)"/>
      <path id="DejaVuSans-72" d="M 2631 2963 
Q 2534 3019 2420 3045 
Q 2306 3072 2169 3072 
Q 1681 3072 1420 2755 
Q 1159 2438 1159 1844 
L 1159 0 
L 581 0 
L 581 3500 
L 1159 3500 
L 1159 2956 
Q 1341 3275 1631 3429 
Q 1922 3584 2338 3584 
Q 2397 3584 2469 3576 
Q 2541 3569 2628 3553 
L 2631 2963 
z
" transform="scale(0.015625)"/>
      <path id="DejaVuSans-75" d="M 544 1381 
L 544 3500 
L 1119 3500 
L 1119 1403 
Q 1119 906 1312 657 
Q 1506 409 1894 409 
Q 2359 409 2629 706 
Q 2900 1003 2900 1516 
L 2900 3500 
L 3475 3500 
L 3475 0 
L 2900 0 
L 2900 538 
Q 2691 219 2414 64 
Q 2138 -91 1772 -91 
Q 1169 -91 856 284 
Q 544 659 544 1381 
z
M 1991 3584 
L 1991 3584 
z
" transform="scale(0.015625)"/>
      <path id="DejaVuSans-6d" d="M 3328 2828 
Q 3544 3216 3844 3400 
Q 4144 3584 4550 3584 
Q 5097 3584 5394 3201 
Q 5691 2819 5691 2113 
L 5691 0 
L 5113 0 
L 5113 2094 
Q 5113 2597 4934 2840 
Q 4756 3084 4391 3084 
Q 3944 3084 3684 2787 
Q 3425 2491 3425 1978 
L 3425 0 
L 2847 0 
L 2847 2094 
Q 2847 2600 2669 2842 
Q 2491 3084 2119 3084 
Q 1678 3084 1418 2786 
Q 1159 2488 1159 1978 
L 1159 0 
L 581 0 
L 581 3500 
L 1159 3500 
L 1159 2956 
Q 1356 3278 1631 3431 
Q 1906 3584 2284 3584 
Q 2666 3584 2933 3390 
Q 3200 3197 3328 2828 
z
" transform="scale(0.015625)"/>
      <path id="DejaVuSans-47" d="M 3809 666 
L 3809 1919 
L 2778 1919 
L 2778 2438 
L 4434 2438 
L 4434 434 
Q 4069 175 3628 42 
Q 3188 -91 2688 -91 
Q 1594 -91 976 548 
Q 359 1188 359 2328 
Q 359 3472 976 4111 
Q 1594 4750 2688 4750 
Q 3144 4750 3555 4637 
Q 3966 4525 4313 4306 
L 4313 3634 
Q 3963 3931 3569 4081 
Q 3175 4231 2741 4231 
Q 1884 4231 1454 3753 
Q 1025 3275 1025 2328 
Q 1025 1384 1454 906 
Q 1884 428 2741 428 
Q 3075 428 3337 486 
Q 3600 544 3809 666 
z
" transform="scale(0.015625)"/>
      <path id="DejaVuSans-43" d="M 4122 4306 
L 4122 3641 
Q 3803 3938 3442 4084 
Q 3081 4231 2675 4231 
Q 1875 4231 1450 3742 
Q 1025 3253 1025 2328 
Q 1025 1406 1450 917 
Q 1875 428 2675 428 
Q 3081 428 3442 575 
Q 3803 722 4122 1019 
L 4122 359 
Q 3791 134 3420 21 
Q 3050 -91 2638 -91 
Q 1578 -91 968 557 
Q 359 1206 359 2328 
Q 359 3453 968 4101 
Q 1578 4750 2638 4750 
Q 3056 4750 3426 4639 
Q 3797 4528 4122 4306 
z
" transform="scale(0.015625)"/>
      <path id="DejaVuSans-4e" d="M 628 4666 
L 1478 4666 
L 3547 763 
L 3547 4666 
L 4159 4666 
L 4159 0 
L 3309 0 
L 1241 3903 
L 1241 0 
L 628 0 
L 628 4666 
z
" transform="scale(0.015625)"/>
      <path id="DejaVuSans-2b" d="M 2944 4013 
L 2944 2272 
L 4684 2272 
L 4684 1741 
L 2944 1741 
L 2944 0 
L 2419 0 
L 2419 1741 
L 678 1741 
L 678 2272 
L 2419 2272 
L 2419 4013 
L 2944 4013 
z
" transform="scale(0.015625)"/>
      <path id="DejaVuSans-61" d="M 2194 1759 
Q 1497 1759 1228 1600 
Q 959 1441 959 1056 
Q 959 750 1161 570 
Q 1363 391 1709 391 
Q 2188 391 2477 730 
Q 2766 1069 2766 1631 
L 2766 1759 
L 2194 1759 
z
M 3341 1997 
L 3341 0 
L 2766 0 
L 2766 531 
Q 2569 213 2275 61 
Q 1981 -91 1556 -91 
Q 1019 -91 701 211 
Q 384 513 384 1019 
Q 384 1609 779 1909 
Q 1175 2209 1959 2209 
L 2766 2209 
L 2766 2266 
Q 2766 2663 2505 2880 
Q 2244 3097 1772 3097 
Q 1472 3097 1187 3025 
Q 903 2953 641 2809 
L 641 3341 
Q 956 3463 1253 3523 
Q 1550 3584 1831 3584 
Q 2591 3584 2966 3190 
Q 3341 2797 3341 1997 
z
" transform="scale(0.015625)"/>
      <path id="DejaVuSans-57" d="M 213 4666 
L 850 4666 
L 1831 722 
L 2809 4666 
L 3519 4666 
L 4500 722 
L 5478 4666 
L 6119 4666 
L 4947 0 
L 4153 0 
L 3169 4050 
L 2175 0 
L 1381 0 
L 213 4666 
z
" transform="scale(0.015625)"/>
      <path id="DejaVuSans-69" d="M 603 3500 
L 1178 3500 
L 1178 0 
L 603 0 
L 603 3500 
z
M 603 4863 
L 1178 4863 
L 1178 4134 
L 603 4134 
L 603 4863 
z
" transform="scale(0.015625)"/>
      <path id="DejaVuSans-4f" d="M 2522 4238 
Q 1834 4238 1429 3725 
Q 1025 3213 1025 2328 
Q 1025 1447 1429 934 
Q 1834 422 2522 422 
Q 3209 422 3611 934 
Q 4013 1447 4013 2328 
Q 4013 3213 3611 3725 
Q 3209 4238 2522 4238 
z
M 2522 4750 
Q 3503 4750 4090 4092 
Q 4678 3434 4678 2328 
Q 4678 1225 4090 567 
Q 3503 -91 2522 -91 
Q 1538 -91 948 565 
Q 359 1222 359 2328 
Q 359 3434 948 4092 
Q 1538 4750 2522 4750 
z
" transform="scale(0.015625)"/>
      <path id="DejaVuSans-5f" d="M 3263 -1063 
L 3263 -1509 
L -63 -1509 
L -63 -1063 
L 3263 -1063 
z
" transform="scale(0.015625)"/>
      <path id="DejaVuSans-54" d="M -19 4666 
L 3928 4666 
L 3928 4134 
L 2272 4134 
L 2272 0 
L 1638 0 
L 1638 4134 
L -19 4134 
L -19 4666 
z
" transform="scale(0.015625)"/>
      <path id="DejaVuSans-6e" d="M 3513 2113 
L 3513 0 
L 2938 0 
L 2938 2094 
Q 2938 2591 2744 2837 
Q 2550 3084 2163 3084 
Q 1697 3084 1428 2787 
Q 1159 2491 1159 1978 
L 1159 0 
L 581 0 
L 581 3500 
L 1159 3500 
L 1159 2956 
Q 1366 3272 1645 3428 
Q 1925 3584 2291 3584 
Q 2894 3584 3203 3211 
Q 3513 2838 3513 2113 
z
" transform="scale(0.015625)"/>
      <path id="DejaVuSans-67" d="M 2906 1791 
Q 2906 2416 2648 2759 
Q 2391 3103 1925 3103 
Q 1463 3103 1205 2759 
Q 947 2416 947 1791 
Q 947 1169 1205 825 
Q 1463 481 1925 481 
Q 2391 481 2648 825 
Q 2906 1169 2906 1791 
z
M 3481 434 
Q 3481 -459 3084 -895 
Q 2688 -1331 1869 -1331 
Q 1566 -1331 1297 -1286 
Q 1028 -1241 775 -1147 
L 775 -588 
Q 1028 -725 1275 -790 
Q 1522 -856 1778 -856 
Q 2344 -856 2625 -561 
Q 2906 -266 2906 331 
L 2906 616 
Q 2728 306 2450 153 
Q 2172 0 1784 0 
Q 1141 0 747 490 
Q 353 981 353 1791 
Q 353 2603 747 3093 
Q 1141 3584 1784 3584 
Q 2172 3584 2450 3431 
Q 2728 3278 2906 2969 
L 2906 3500 
L 3481 3500 
L 3481 434 
z
" transform="scale(0.015625)"/>
      <path id="DejaVuSans-20" transform="scale(0.015625)"/>
      <path id="DejaVuSans-64" d="M 2906 2969 
L 2906 4863 
L 3481 4863 
L 3481 0 
L 2906 0 
L 2906 525 
Q 2725 213 2448 61 
Q 2172 -91 1784 -91 
Q 1150 -91 751 415 
Q 353 922 353 1747 
Q 353 2572 751 3078 
Q 1150 3584 1784 3584 
Q 2172 3584 2448 3432 
Q 2725 3281 2906 2969 
z
M 947 1747 
Q 947 1113 1208 752 
Q 1469 391 1925 391 
Q 2381 391 2643 752 
Q 2906 1113 2906 1747 
Q 2906 2381 2643 2742 
Q 2381 3103 1925 3103 
Q 1469 3103 1208 2742 
Q 947 2381 947 1747 
z
" transform="scale(0.015625)"/>
      <path id="DejaVuSans-56" d="M 1831 0 
L 50 4666 
L 709 4666 
L 2188 738 
L 3669 4666 
L 4325 4666 
L 2547 0 
L 1831 0 
z
" transform="scale(0.015625)"/>
     </defs>
     <use xlink:href="#DejaVuSans-73"/>
     <use xlink:href="#DejaVuSans-70" x="52.099609"/>
     <use xlink:href="#DejaVuSans-65" x="115.576172"/>
     <use xlink:href="#DejaVuSans-63" x="177.099609"/>
     <use xlink:href="#DejaVuSans-74" x="232.080078"/>
     <use xlink:href="#DejaVuSans-72" x="271.289062"/>
     <use xlink:href="#DejaVuSans-75" x="312.402344"/>
     <use xlink:href="#DejaVuSans-6d" x="375.78125"/>
     <use xlink:href="#DejaVuSans-47" x="473.193359"/>
     <use xlink:href="#DejaVuSans-43" x="550.683594"/>
     <use xlink:href="#DejaVuSans-4e" x="620.507812"/>
     <use xlink:href="#DejaVuSans-2b" x="695.3125"/>
     <use xlink:href="#DejaVuSans-43" x="779.101562"/>
     <use xlink:href="#DejaVuSans-6f" x="848.925781"/>
     <use xlink:href="#DejaVuSans-72" x="910.107422"/>
     <use xlink:href="#DejaVuSans-61" x="951.220703"/>
     <use xlink:href="#DejaVuSans-2b" x="1012.5"/>
     <use xlink:href="#DejaVuSans-57" x="1096.289062"/>
     <use xlink:href="#DejaVuSans-69" x="1192.916016"/>
     <use xlink:href="#DejaVuSans-74" x="1220.699219"/>
     <use xlink:href="#DejaVuSans-68" x="1259.908203"/>
     <use xlink:href="#DejaVuSans-4f" x="1323.287109"/>
     <use xlink:href="#DejaVuSans-75" x="1401.998047"/>
     <use xlink:href="#DejaVuSans-74" x="1465.376953"/>
     <use xlink:href="#DejaVuSans-47" x="1504.585938"/>
     <use xlink:href="#DejaVuSans-72" x="1582.076172"/>
     <use xlink:href="#DejaVuSans-61" x="1623.189453"/>
     <use xlink:href="#DejaVuSans-70" x="1684.46875"/>
     <use xlink:href="#DejaVuSans-68" x="1747.945312"/>
     <use xlink:href="#DejaVuSans-5f" x="1811.324219"/>
     <use xlink:href="#DejaVuSans-43" x="1861.324219"/>
     <use xlink:href="#DejaVuSans-6f" x="1931.148438"/>
     <use xlink:href="#DejaVuSans-72" x="1992.330078"/>
     <use xlink:href="#DejaVuSans-61" x="2033.443359"/>
     <use xlink:href="#DejaVuSans-5f" x="2094.722656"/>
     <use xlink:href="#DejaVuSans-57" x="2144.722656"/>
     <use xlink:href="#DejaVuSans-69" x="2241.349609"/>
     <use xlink:href="#DejaVuSans-74" x="2269.132812"/>
     <use xlink:href="#DejaVuSans-68" x="2308.341797"/>
     <use xlink:href="#DejaVuSans-47" x="2371.720703"/>
     <use xlink:href="#DejaVuSans-72" x="2449.210938"/>
     <use xlink:href="#DejaVuSans-61" x="2490.324219"/>
     <use xlink:href="#DejaVuSans-70" x="2551.603516"/>
     <use xlink:href="#DejaVuSans-68" x="2615.080078"/>
     <use xlink:href="#DejaVuSans-5f" x="2678.458984"/>
     <use xlink:href="#DejaVuSans-54" x="2728.458984"/>
     <use xlink:href="#DejaVuSans-72" x="2774.792969"/>
     <use xlink:href="#DejaVuSans-61" x="2815.90625"/>
     <use xlink:href="#DejaVuSans-69" x="2877.185547"/>
     <use xlink:href="#DejaVuSans-6e" x="2904.96875"/>
     <use xlink:href="#DejaVuSans-69" x="2968.347656"/>
     <use xlink:href="#DejaVuSans-6e" x="2996.130859"/>
     <use xlink:href="#DejaVuSans-67" x="3059.509766"/>
     <use xlink:href="#DejaVuSans-20" x="3122.986328"/>
     <use xlink:href="#DejaVuSans-61" x="3154.773438"/>
     <use xlink:href="#DejaVuSans-6e" x="3216.052734"/>
     <use xlink:href="#DejaVuSans-64" x="3279.431641"/>
     <use xlink:href="#DejaVuSans-20" x="3342.908203"/>
     <use xlink:href="#DejaVuSans-56" x="3374.695312"/>
     <use xlink:href="#DejaVuSans-61" x="3435.353516"/>
     <use xlink:href="#DejaVuSans-6c" x="3496.632812"/>
     <use xlink:href="#DejaVuSans-69" x="3524.416016"/>
     <use xlink:href="#DejaVuSans-64" x="3552.199219"/>
     <use xlink:href="#DejaVuSans-61" x="3615.675781"/>
     <use xlink:href="#DejaVuSans-74" x="3676.955078"/>
     <use xlink:href="#DejaVuSans-69" x="3716.164062"/>
     <use xlink:href="#DejaVuSans-6f" x="3743.947266"/>
     <use xlink:href="#DejaVuSans-6e" x="3805.128906"/>
     <use xlink:href="#DejaVuSans-20" x="3868.507812"/>
     <use xlink:href="#DejaVuSans-6c" x="3900.294922"/>
     <use xlink:href="#DejaVuSans-6f" x="3928.078125"/>
     <use xlink:href="#DejaVuSans-73" x="3989.259766"/>
     <use xlink:href="#DejaVuSans-73" x="4041.359375"/>
    </g>
   </g>
   <g id="legend_1">
    <g id="patch_7">
     <path d="M 64.6 93.506375 
L 164.295312 93.506375 
Q 166.295312 93.506375 166.295312 91.506375 
L 166.295312 48.472 
Q 166.295312 46.472 164.295312 46.472 
L 64.6 46.472 
Q 62.6 46.472 62.6 48.472 
L 62.6 91.506375 
Q 62.6 93.506375 64.6 93.506375 
z
" style="fill: #ffffff; opacity: 0.8; stroke: #cccccc; stroke-linejoin: miter"/>
    </g>
    <g id="line2d_16">
     <path d="M 66.6 54.570438 
L 76.6 54.570438 
L 86.6 54.570438 
" style="fill: none; stroke: #0000ff; stroke-width: 1.5; stroke-linecap: square"/>
    </g>
    <g id="text_16">
     <!-- training set -->
     <g transform="translate(94.6 58.070438) scale(0.1 -0.1)">
      <use xlink:href="#DejaVuSans-74"/>
      <use xlink:href="#DejaVuSans-72" x="39.208984"/>
      <use xlink:href="#DejaVuSans-61" x="80.322266"/>
      <use xlink:href="#DejaVuSans-69" x="141.601562"/>
      <use xlink:href="#DejaVuSans-6e" x="169.384766"/>
      <use xlink:href="#DejaVuSans-69" x="232.763672"/>
      <use xlink:href="#DejaVuSans-6e" x="260.546875"/>
      <use xlink:href="#DejaVuSans-67" x="323.925781"/>
      <use xlink:href="#DejaVuSans-20" x="387.402344"/>
      <use xlink:href="#DejaVuSans-73" x="419.189453"/>
      <use xlink:href="#DejaVuSans-65" x="471.289062"/>
      <use xlink:href="#DejaVuSans-74" x="532.8125"/>
     </g>
    </g>
    <g id="line2d_17">
     <path d="M 66.6 69.248563 
L 76.6 69.248563 
L 86.6 69.248563 
" style="fill: none; stroke: #008000; stroke-width: 1.5; stroke-linecap: square"/>
    </g>
    <g id="text_17">
     <!-- validation set -->
     <g transform="translate(94.6 72.748563) scale(0.1 -0.1)">
      <defs>
       <path id="DejaVuSans-76" d="M 191 3500 
L 800 3500 
L 1894 563 
L 2988 3500 
L 3597 3500 
L 2284 0 
L 1503 0 
L 191 3500 
z
" transform="scale(0.015625)"/>
      </defs>
      <use xlink:href="#DejaVuSans-76"/>
      <use xlink:href="#DejaVuSans-61" x="59.179688"/>
      <use xlink:href="#DejaVuSans-6c" x="120.458984"/>
      <use xlink:href="#DejaVuSans-69" x="148.242188"/>
      <use xlink:href="#DejaVuSans-64" x="176.025391"/>
      <use xlink:href="#DejaVuSans-61" x="239.501953"/>
      <use xlink:href="#DejaVuSans-74" x="300.78125"/>
      <use xlink:href="#DejaVuSans-69" x="339.990234"/>
      <use xlink:href="#DejaVuSans-6f" x="367.773438"/>
      <use xlink:href="#DejaVuSans-6e" x="428.955078"/>
      <use xlink:href="#DejaVuSans-20" x="492.333984"/>
      <use xlink:href="#DejaVuSans-73" x="524.121094"/>
      <use xlink:href="#DejaVuSans-65" x="576.220703"/>
      <use xlink:href="#DejaVuSans-74" x="637.744141"/>
     </g>
    </g>
    <g id="line2d_18">
     <path d="M 66.6 83.926688 
L 76.6 83.926688 
L 86.6 83.926688 
" style="fill: none; stroke: #ff0000; stroke-width: 1.5; stroke-linecap: square"/>
    </g>
    <g id="text_18">
     <!-- test set -->
     <g transform="translate(94.6 87.426688) scale(0.1 -0.1)">
      <use xlink:href="#DejaVuSans-74"/>
      <use xlink:href="#DejaVuSans-65" x="39.208984"/>
      <use xlink:href="#DejaVuSans-73" x="100.732422"/>
      <use xlink:href="#DejaVuSans-74" x="152.832031"/>
      <use xlink:href="#DejaVuSans-20" x="192.041016"/>
      <use xlink:href="#DejaVuSans-73" x="223.828125"/>
      <use xlink:href="#DejaVuSans-65" x="275.927734"/>
      <use xlink:href="#DejaVuSans-74" x="337.451172"/>
     </g>
    </g>
   </g>
  </g>
 </g>
 <defs>
  <clipPath id="p23988f22ff">
   <rect x="57.6" y="41.472" width="357.12" height="266.112"/>
  </clipPath>
 </defs>
</svg>
