<?xml version="1.0" encoding="utf-8" standalone="no"?>
<!DOCTYPE svg PUBLIC "-//W3C//DTD SVG 1.1//EN"
  "http://www.w3.org/Graphics/SVG/1.1/DTD/svg11.dtd">
<svg xmlns:xlink="http://www.w3.org/1999/xlink" width="460.8pt" height="345.6pt" viewBox="0 0 460.8 345.6" xmlns="http://www.w3.org/2000/svg" version="1.1">
 <metadata>
  <rdf:RDF xmlns:dc="http://purl.org/dc/elements/1.1/" xmlns:cc="http://creativecommons.org/ns#" xmlns:rdf="http://www.w3.org/1999/02/22-rdf-syntax-ns#">
   <cc:Work>
    <dc:type rdf:resource="http://purl.org/dc/dcmitype/StillImage"/>
    <dc:date>2023-04-08T15:36:20.065883</dc:date>
    <dc:format>image/svg+xml</dc:format>
    <dc:creator>
     <cc:Agent>
      <dc:title>Matplotlib v3.7.1, https://matplotlib.org/</dc:title>
     </cc:Agent>
    </dc:creator>
   </cc:Work>
  </rdf:RDF>
 </metadata>
 <defs>
  <style type="text/css">*{stroke-linejoin: round; stroke-linecap: butt}</style>
 </defs>
 <g id="figure_1">
  <g id="patch_1">
   <path d="M 0 345.6 
L 460.8 345.6 
L 460.8 0 
L 0 0 
z
" style="fill: #ffffff"/>
  </g>
  <g id="axes_1">
   <g id="patch_2">
    <path d="M 57.6 307.584 
L 414.72 307.584 
L 414.72 41.472 
L 57.6 41.472 
z
" style="fill: #ffffff"/>
   </g>
   <g id="matplotlib.axis_1">
    <g id="xtick_1">
     <g id="line2d_1">
      <defs>
       <path id="m183d2f4396" d="M 0 0 
L 0 3.5 
" style="stroke: #000000; stroke-width: 0.8"/>
      </defs>
      <g>
       <use xlink:href="#m183d2f4396" x="73.507748" y="307.584" style="stroke: #000000; stroke-width: 0.8"/>
      </g>
     </g>
     <g id="text_1">
      <!-- 0 -->
      <g transform="translate(70.326498 322.182437) scale(0.1 -0.1)">
       <defs>
        <path id="DejaVuSans-30" d="M 2034 4250 
Q 1547 4250 1301 3770 
Q 1056 3291 1056 2328 
Q 1056 1369 1301 889 
Q 1547 409 2034 409 
Q 2525 409 2770 889 
Q 3016 1369 3016 2328 
Q 3016 3291 2770 3770 
Q 2525 4250 2034 4250 
z
M 2034 4750 
Q 2819 4750 3233 4129 
Q 3647 3509 3647 2328 
Q 3647 1150 3233 529 
Q 2819 -91 2034 -91 
Q 1250 -91 836 529 
Q 422 1150 422 2328 
Q 422 3509 836 4129 
Q 1250 4750 2034 4750 
z
" transform="scale(0.015625)"/>
       </defs>
       <use xlink:href="#DejaVuSans-30"/>
      </g>
     </g>
    </g>
    <g id="xtick_2">
     <g id="line2d_2">
      <g>
       <use xlink:href="#m183d2f4396" x="138.503653" y="307.584" style="stroke: #000000; stroke-width: 0.8"/>
      </g>
     </g>
     <g id="text_2">
      <!-- 200 -->
      <g transform="translate(128.959903 322.182437) scale(0.1 -0.1)">
       <defs>
        <path id="DejaVuSans-32" d="M 1228 531 
L 3431 531 
L 3431 0 
L 469 0 
L 469 531 
Q 828 903 1448 1529 
Q 2069 2156 2228 2338 
Q 2531 2678 2651 2914 
Q 2772 3150 2772 3378 
Q 2772 3750 2511 3984 
Q 2250 4219 1831 4219 
Q 1534 4219 1204 4116 
Q 875 4013 500 3803 
L 500 4441 
Q 881 4594 1212 4672 
Q 1544 4750 1819 4750 
Q 2544 4750 2975 4387 
Q 3406 4025 3406 3419 
Q 3406 3131 3298 2873 
Q 3191 2616 2906 2266 
Q 2828 2175 2409 1742 
Q 1991 1309 1228 531 
z
" transform="scale(0.015625)"/>
       </defs>
       <use xlink:href="#DejaVuSans-32"/>
       <use xlink:href="#DejaVuSans-30" x="63.623047"/>
       <use xlink:href="#DejaVuSans-30" x="127.246094"/>
      </g>
     </g>
    </g>
    <g id="xtick_3">
     <g id="line2d_3">
      <g>
       <use xlink:href="#m183d2f4396" x="203.499558" y="307.584" style="stroke: #000000; stroke-width: 0.8"/>
      </g>
     </g>
     <g id="text_3">
      <!-- 400 -->
      <g transform="translate(193.955808 322.182437) scale(0.1 -0.1)">
       <defs>
        <path id="DejaVuSans-34" d="M 2419 4116 
L 825 1625 
L 2419 1625 
L 2419 4116 
z
M 2253 4666 
L 3047 4666 
L 3047 1625 
L 3713 1625 
L 3713 1100 
L 3047 1100 
L 3047 0 
L 2419 0 
L 2419 1100 
L 313 1100 
L 313 1709 
L 2253 4666 
z
" transform="scale(0.015625)"/>
       </defs>
       <use xlink:href="#DejaVuSans-34"/>
       <use xlink:href="#DejaVuSans-30" x="63.623047"/>
       <use xlink:href="#DejaVuSans-30" x="127.246094"/>
      </g>
     </g>
    </g>
    <g id="xtick_4">
     <g id="line2d_4">
      <g>
       <use xlink:href="#m183d2f4396" x="268.495463" y="307.584" style="stroke: #000000; stroke-width: 0.8"/>
      </g>
     </g>
     <g id="text_4">
      <!-- 600 -->
      <g transform="translate(258.951713 322.182437) scale(0.1 -0.1)">
       <defs>
        <path id="DejaVuSans-36" d="M 2113 2584 
Q 1688 2584 1439 2293 
Q 1191 2003 1191 1497 
Q 1191 994 1439 701 
Q 1688 409 2113 409 
Q 2538 409 2786 701 
Q 3034 994 3034 1497 
Q 3034 2003 2786 2293 
Q 2538 2584 2113 2584 
z
M 3366 4563 
L 3366 3988 
Q 3128 4100 2886 4159 
Q 2644 4219 2406 4219 
Q 1781 4219 1451 3797 
Q 1122 3375 1075 2522 
Q 1259 2794 1537 2939 
Q 1816 3084 2150 3084 
Q 2853 3084 3261 2657 
Q 3669 2231 3669 1497 
Q 3669 778 3244 343 
Q 2819 -91 2113 -91 
Q 1303 -91 875 529 
Q 447 1150 447 2328 
Q 447 3434 972 4092 
Q 1497 4750 2381 4750 
Q 2619 4750 2861 4703 
Q 3103 4656 3366 4563 
z
" transform="scale(0.015625)"/>
       </defs>
       <use xlink:href="#DejaVuSans-36"/>
       <use xlink:href="#DejaVuSans-30" x="63.623047"/>
       <use xlink:href="#DejaVuSans-30" x="127.246094"/>
      </g>
     </g>
    </g>
    <g id="xtick_5">
     <g id="line2d_5">
      <g>
       <use xlink:href="#m183d2f4396" x="333.491368" y="307.584" style="stroke: #000000; stroke-width: 0.8"/>
      </g>
     </g>
     <g id="text_5">
      <!-- 800 -->
      <g transform="translate(323.947618 322.182437) scale(0.1 -0.1)">
       <defs>
        <path id="DejaVuSans-38" d="M 2034 2216 
Q 1584 2216 1326 1975 
Q 1069 1734 1069 1313 
Q 1069 891 1326 650 
Q 1584 409 2034 409 
Q 2484 409 2743 651 
Q 3003 894 3003 1313 
Q 3003 1734 2745 1975 
Q 2488 2216 2034 2216 
z
M 1403 2484 
Q 997 2584 770 2862 
Q 544 3141 544 3541 
Q 544 4100 942 4425 
Q 1341 4750 2034 4750 
Q 2731 4750 3128 4425 
Q 3525 4100 3525 3541 
Q 3525 3141 3298 2862 
Q 3072 2584 2669 2484 
Q 3125 2378 3379 2068 
Q 3634 1759 3634 1313 
Q 3634 634 3220 271 
Q 2806 -91 2034 -91 
Q 1263 -91 848 271 
Q 434 634 434 1313 
Q 434 1759 690 2068 
Q 947 2378 1403 2484 
z
M 1172 3481 
Q 1172 3119 1398 2916 
Q 1625 2713 2034 2713 
Q 2441 2713 2670 2916 
Q 2900 3119 2900 3481 
Q 2900 3844 2670 4047 
Q 2441 4250 2034 4250 
Q 1625 4250 1398 4047 
Q 1172 3844 1172 3481 
z
" transform="scale(0.015625)"/>
       </defs>
       <use xlink:href="#DejaVuSans-38"/>
       <use xlink:href="#DejaVuSans-30" x="63.623047"/>
       <use xlink:href="#DejaVuSans-30" x="127.246094"/>
      </g>
     </g>
    </g>
    <g id="xtick_6">
     <g id="line2d_6">
      <g>
       <use xlink:href="#m183d2f4396" x="398.487273" y="307.584" style="stroke: #000000; stroke-width: 0.8"/>
      </g>
     </g>
     <g id="text_6">
      <!-- 1000 -->
      <g transform="translate(385.762273 322.182437) scale(0.1 -0.1)">
       <defs>
        <path id="DejaVuSans-31" d="M 794 531 
L 1825 531 
L 1825 4091 
L 703 3866 
L 703 4441 
L 1819 4666 
L 2450 4666 
L 2450 531 
L 3481 531 
L 3481 0 
L 794 0 
L 794 531 
z
" transform="scale(0.015625)"/>
       </defs>
       <use xlink:href="#DejaVuSans-31"/>
       <use xlink:href="#DejaVuSans-30" x="63.623047"/>
       <use xlink:href="#DejaVuSans-30" x="127.246094"/>
       <use xlink:href="#DejaVuSans-30" x="190.869141"/>
      </g>
     </g>
    </g>
    <g id="text_7">
     <!-- epoch -->
     <g transform="translate(220.931875 335.860562) scale(0.1 -0.1)">
      <defs>
       <path id="DejaVuSans-65" d="M 3597 1894 
L 3597 1613 
L 953 1613 
Q 991 1019 1311 708 
Q 1631 397 2203 397 
Q 2534 397 2845 478 
Q 3156 559 3463 722 
L 3463 178 
Q 3153 47 2828 -22 
Q 2503 -91 2169 -91 
Q 1331 -91 842 396 
Q 353 884 353 1716 
Q 353 2575 817 3079 
Q 1281 3584 2069 3584 
Q 2775 3584 3186 3129 
Q 3597 2675 3597 1894 
z
M 3022 2063 
Q 3016 2534 2758 2815 
Q 2500 3097 2075 3097 
Q 1594 3097 1305 2825 
Q 1016 2553 972 2059 
L 3022 2063 
z
" transform="scale(0.015625)"/>
       <path id="DejaVuSans-70" d="M 1159 525 
L 1159 -1331 
L 581 -1331 
L 581 3500 
L 1159 3500 
L 1159 2969 
Q 1341 3281 1617 3432 
Q 1894 3584 2278 3584 
Q 2916 3584 3314 3078 
Q 3713 2572 3713 1747 
Q 3713 922 3314 415 
Q 2916 -91 2278 -91 
Q 1894 -91 1617 61 
Q 1341 213 1159 525 
z
M 3116 1747 
Q 3116 2381 2855 2742 
Q 2594 3103 2138 3103 
Q 1681 3103 1420 2742 
Q 1159 2381 1159 1747 
Q 1159 1113 1420 752 
Q 1681 391 2138 391 
Q 2594 391 2855 752 
Q 3116 1113 3116 1747 
z
" transform="scale(0.015625)"/>
       <path id="DejaVuSans-6f" d="M 1959 3097 
Q 1497 3097 1228 2736 
Q 959 2375 959 1747 
Q 959 1119 1226 758 
Q 1494 397 1959 397 
Q 2419 397 2687 759 
Q 2956 1122 2956 1747 
Q 2956 2369 2687 2733 
Q 2419 3097 1959 3097 
z
M 1959 3584 
Q 2709 3584 3137 3096 
Q 3566 2609 3566 1747 
Q 3566 888 3137 398 
Q 2709 -91 1959 -91 
Q 1206 -91 779 398 
Q 353 888 353 1747 
Q 353 2609 779 3096 
Q 1206 3584 1959 3584 
z
" transform="scale(0.015625)"/>
       <path id="DejaVuSans-63" d="M 3122 3366 
L 3122 2828 
Q 2878 2963 2633 3030 
Q 2388 3097 2138 3097 
Q 1578 3097 1268 2742 
Q 959 2388 959 1747 
Q 959 1106 1268 751 
Q 1578 397 2138 397 
Q 2388 397 2633 464 
Q 2878 531 3122 666 
L 3122 134 
Q 2881 22 2623 -34 
Q 2366 -91 2075 -91 
Q 1284 -91 818 406 
Q 353 903 353 1747 
Q 353 2603 823 3093 
Q 1294 3584 2113 3584 
Q 2378 3584 2631 3529 
Q 2884 3475 3122 3366 
z
" transform="scale(0.015625)"/>
       <path id="DejaVuSans-68" d="M 3513 2113 
L 3513 0 
L 2938 0 
L 2938 2094 
Q 2938 2591 2744 2837 
Q 2550 3084 2163 3084 
Q 1697 3084 1428 2787 
Q 1159 2491 1159 1978 
L 1159 0 
L 581 0 
L 581 4863 
L 1159 4863 
L 1159 2956 
Q 1366 3272 1645 3428 
Q 1925 3584 2291 3584 
Q 2894 3584 3203 3211 
Q 3513 2838 3513 2113 
z
" transform="scale(0.015625)"/>
      </defs>
      <use xlink:href="#DejaVuSans-65"/>
      <use xlink:href="#DejaVuSans-70" x="61.523438"/>
      <use xlink:href="#DejaVuSans-6f" x="125"/>
      <use xlink:href="#DejaVuSans-63" x="186.181641"/>
      <use xlink:href="#DejaVuSans-68" x="241.162109"/>
     </g>
    </g>
   </g>
   <g id="matplotlib.axis_2">
    <g id="ytick_1">
     <g id="line2d_7">
      <defs>
       <path id="mc931d5eff3" d="M 0 0 
L -3.5 0 
" style="stroke: #000000; stroke-width: 0.8"/>
      </defs>
      <g>
       <use xlink:href="#mc931d5eff3" x="57.6" y="283.392" style="stroke: #000000; stroke-width: 0.8"/>
      </g>
     </g>
     <g id="text_8">
      <!-- 0.2 -->
      <g transform="translate(34.696875 287.191219) scale(0.1 -0.1)">
       <defs>
        <path id="DejaVuSans-2e" d="M 684 794 
L 1344 794 
L 1344 0 
L 684 0 
L 684 794 
z
" transform="scale(0.015625)"/>
       </defs>
       <use xlink:href="#DejaVuSans-30"/>
       <use xlink:href="#DejaVuSans-2e" x="63.623047"/>
       <use xlink:href="#DejaVuSans-32" x="95.410156"/>
      </g>
     </g>
    </g>
    <g id="ytick_2">
     <g id="line2d_8">
      <g>
       <use xlink:href="#mc931d5eff3" x="57.6" y="251.136" style="stroke: #000000; stroke-width: 0.8"/>
      </g>
     </g>
     <g id="text_9">
      <!-- 0.3 -->
      <g transform="translate(34.696875 254.935219) scale(0.1 -0.1)">
       <defs>
        <path id="DejaVuSans-33" d="M 2597 2516 
Q 3050 2419 3304 2112 
Q 3559 1806 3559 1356 
Q 3559 666 3084 287 
Q 2609 -91 1734 -91 
Q 1441 -91 1130 -33 
Q 819 25 488 141 
L 488 750 
Q 750 597 1062 519 
Q 1375 441 1716 441 
Q 2309 441 2620 675 
Q 2931 909 2931 1356 
Q 2931 1769 2642 2001 
Q 2353 2234 1838 2234 
L 1294 2234 
L 1294 2753 
L 1863 2753 
Q 2328 2753 2575 2939 
Q 2822 3125 2822 3475 
Q 2822 3834 2567 4026 
Q 2313 4219 1838 4219 
Q 1578 4219 1281 4162 
Q 984 4106 628 3988 
L 628 4550 
Q 988 4650 1302 4700 
Q 1616 4750 1894 4750 
Q 2613 4750 3031 4423 
Q 3450 4097 3450 3541 
Q 3450 3153 3228 2886 
Q 3006 2619 2597 2516 
z
" transform="scale(0.015625)"/>
       </defs>
       <use xlink:href="#DejaVuSans-30"/>
       <use xlink:href="#DejaVuSans-2e" x="63.623047"/>
       <use xlink:href="#DejaVuSans-33" x="95.410156"/>
      </g>
     </g>
    </g>
    <g id="ytick_3">
     <g id="line2d_9">
      <g>
       <use xlink:href="#mc931d5eff3" x="57.6" y="218.88" style="stroke: #000000; stroke-width: 0.8"/>
      </g>
     </g>
     <g id="text_10">
      <!-- 0.4 -->
      <g transform="translate(34.696875 222.679219) scale(0.1 -0.1)">
       <use xlink:href="#DejaVuSans-30"/>
       <use xlink:href="#DejaVuSans-2e" x="63.623047"/>
       <use xlink:href="#DejaVuSans-34" x="95.410156"/>
      </g>
     </g>
    </g>
    <g id="ytick_4">
     <g id="line2d_10">
      <g>
       <use xlink:href="#mc931d5eff3" x="57.6" y="186.624" style="stroke: #000000; stroke-width: 0.8"/>
      </g>
     </g>
     <g id="text_11">
      <!-- 0.5 -->
      <g transform="translate(34.696875 190.423219) scale(0.1 -0.1)">
       <defs>
        <path id="DejaVuSans-35" d="M 691 4666 
L 3169 4666 
L 3169 4134 
L 1269 4134 
L 1269 2991 
Q 1406 3038 1543 3061 
Q 1681 3084 1819 3084 
Q 2600 3084 3056 2656 
Q 3513 2228 3513 1497 
Q 3513 744 3044 326 
Q 2575 -91 1722 -91 
Q 1428 -91 1123 -41 
Q 819 9 494 109 
L 494 744 
Q 775 591 1075 516 
Q 1375 441 1709 441 
Q 2250 441 2565 725 
Q 2881 1009 2881 1497 
Q 2881 1984 2565 2268 
Q 2250 2553 1709 2553 
Q 1456 2553 1204 2497 
Q 953 2441 691 2322 
L 691 4666 
z
" transform="scale(0.015625)"/>
       </defs>
       <use xlink:href="#DejaVuSans-30"/>
       <use xlink:href="#DejaVuSans-2e" x="63.623047"/>
       <use xlink:href="#DejaVuSans-35" x="95.410156"/>
      </g>
     </g>
    </g>
    <g id="ytick_5">
     <g id="line2d_11">
      <g>
       <use xlink:href="#mc931d5eff3" x="57.6" y="154.368" style="stroke: #000000; stroke-width: 0.8"/>
      </g>
     </g>
     <g id="text_12">
      <!-- 0.6 -->
      <g transform="translate(34.696875 158.167219) scale(0.1 -0.1)">
       <use xlink:href="#DejaVuSans-30"/>
       <use xlink:href="#DejaVuSans-2e" x="63.623047"/>
       <use xlink:href="#DejaVuSans-36" x="95.410156"/>
      </g>
     </g>
    </g>
    <g id="ytick_6">
     <g id="line2d_12">
      <g>
       <use xlink:href="#mc931d5eff3" x="57.6" y="122.112" style="stroke: #000000; stroke-width: 0.8"/>
      </g>
     </g>
     <g id="text_13">
      <!-- 0.7 -->
      <g transform="translate(34.696875 125.911219) scale(0.1 -0.1)">
       <defs>
        <path id="DejaVuSans-37" d="M 525 4666 
L 3525 4666 
L 3525 4397 
L 1831 0 
L 1172 0 
L 2766 4134 
L 525 4134 
L 525 4666 
z
" transform="scale(0.015625)"/>
       </defs>
       <use xlink:href="#DejaVuSans-30"/>
       <use xlink:href="#DejaVuSans-2e" x="63.623047"/>
       <use xlink:href="#DejaVuSans-37" x="95.410156"/>
      </g>
     </g>
    </g>
    <g id="ytick_7">
     <g id="line2d_13">
      <g>
       <use xlink:href="#mc931d5eff3" x="57.6" y="89.856" style="stroke: #000000; stroke-width: 0.8"/>
      </g>
     </g>
     <g id="text_14">
      <!-- 0.8 -->
      <g transform="translate(34.696875 93.655219) scale(0.1 -0.1)">
       <use xlink:href="#DejaVuSans-30"/>
       <use xlink:href="#DejaVuSans-2e" x="63.623047"/>
       <use xlink:href="#DejaVuSans-38" x="95.410156"/>
      </g>
     </g>
    </g>
    <g id="ytick_8">
     <g id="line2d_14">
      <g>
       <use xlink:href="#mc931d5eff3" x="57.6" y="57.6" style="stroke: #000000; stroke-width: 0.8"/>
      </g>
     </g>
     <g id="text_15">
      <!-- 0.9 -->
      <g transform="translate(34.696875 61.399219) scale(0.1 -0.1)">
       <defs>
        <path id="DejaVuSans-39" d="M 703 97 
L 703 672 
Q 941 559 1184 500 
Q 1428 441 1663 441 
Q 2288 441 2617 861 
Q 2947 1281 2994 2138 
Q 2813 1869 2534 1725 
Q 2256 1581 1919 1581 
Q 1219 1581 811 2004 
Q 403 2428 403 3163 
Q 403 3881 828 4315 
Q 1253 4750 1959 4750 
Q 2769 4750 3195 4129 
Q 3622 3509 3622 2328 
Q 3622 1225 3098 567 
Q 2575 -91 1691 -91 
Q 1453 -91 1209 -44 
Q 966 3 703 97 
z
M 1959 2075 
Q 2384 2075 2632 2365 
Q 2881 2656 2881 3163 
Q 2881 3666 2632 3958 
Q 2384 4250 1959 4250 
Q 1534 4250 1286 3958 
Q 1038 3666 1038 3163 
Q 1038 2656 1286 2365 
Q 1534 2075 1959 2075 
z
" transform="scale(0.015625)"/>
       </defs>
       <use xlink:href="#DejaVuSans-30"/>
       <use xlink:href="#DejaVuSans-2e" x="63.623047"/>
       <use xlink:href="#DejaVuSans-39" x="95.410156"/>
      </g>
     </g>
    </g>
    <g id="text_16">
     <!-- accuracy -->
     <g transform="translate(28.617187 197.087375) rotate(-90) scale(0.1 -0.1)">
      <defs>
       <path id="DejaVuSans-61" d="M 2194 1759 
Q 1497 1759 1228 1600 
Q 959 1441 959 1056 
Q 959 750 1161 570 
Q 1363 391 1709 391 
Q 2188 391 2477 730 
Q 2766 1069 2766 1631 
L 2766 1759 
L 2194 1759 
z
M 3341 1997 
L 3341 0 
L 2766 0 
L 2766 531 
Q 2569 213 2275 61 
Q 1981 -91 1556 -91 
Q 1019 -91 701 211 
Q 384 513 384 1019 
Q 384 1609 779 1909 
Q 1175 2209 1959 2209 
L 2766 2209 
L 2766 2266 
Q 2766 2663 2505 2880 
Q 2244 3097 1772 3097 
Q 1472 3097 1187 3025 
Q 903 2953 641 2809 
L 641 3341 
Q 956 3463 1253 3523 
Q 1550 3584 1831 3584 
Q 2591 3584 2966 3190 
Q 3341 2797 3341 1997 
z
" transform="scale(0.015625)"/>
       <path id="DejaVuSans-75" d="M 544 1381 
L 544 3500 
L 1119 3500 
L 1119 1403 
Q 1119 906 1312 657 
Q 1506 409 1894 409 
Q 2359 409 2629 706 
Q 2900 1003 2900 1516 
L 2900 3500 
L 3475 3500 
L 3475 0 
L 2900 0 
L 2900 538 
Q 2691 219 2414 64 
Q 2138 -91 1772 -91 
Q 1169 -91 856 284 
Q 544 659 544 1381 
z
M 1991 3584 
L 1991 3584 
z
" transform="scale(0.015625)"/>
       <path id="DejaVuSans-72" d="M 2631 2963 
Q 2534 3019 2420 3045 
Q 2306 3072 2169 3072 
Q 1681 3072 1420 2755 
Q 1159 2438 1159 1844 
L 1159 0 
L 581 0 
L 581 3500 
L 1159 3500 
L 1159 2956 
Q 1341 3275 1631 3429 
Q 1922 3584 2338 3584 
Q 2397 3584 2469 3576 
Q 2541 3569 2628 3553 
L 2631 2963 
z
" transform="scale(0.015625)"/>
       <path id="DejaVuSans-79" d="M 2059 -325 
Q 1816 -950 1584 -1140 
Q 1353 -1331 966 -1331 
L 506 -1331 
L 506 -850 
L 844 -850 
Q 1081 -850 1212 -737 
Q 1344 -625 1503 -206 
L 1606 56 
L 191 3500 
L 800 3500 
L 1894 763 
L 2988 3500 
L 3597 3500 
L 2059 -325 
z
" transform="scale(0.015625)"/>
      </defs>
      <use xlink:href="#DejaVuSans-61"/>
      <use xlink:href="#DejaVuSans-63" x="61.279297"/>
      <use xlink:href="#DejaVuSans-63" x="116.259766"/>
      <use xlink:href="#DejaVuSans-75" x="171.240234"/>
      <use xlink:href="#DejaVuSans-72" x="234.619141"/>
      <use xlink:href="#DejaVuSans-61" x="275.732422"/>
      <use xlink:href="#DejaVuSans-63" x="337.011719"/>
      <use xlink:href="#DejaVuSans-79" x="391.992188"/>
     </g>
    </g>
   </g>
   <g id="line2d_15">
    <path d="M 73.832727 295.488 
L 74.157707 275.328 
L 74.482686 226.944 
L 74.807666 206.784 
L 75.132645 202.752 
L 75.457625 226.944 
L 75.782604 230.976 
L 76.107584 222.912 
L 76.432563 210.816 
L 76.757543 226.944 
L 77.082523 202.752 
L 77.407502 198.72 
L 77.732482 198.72 
L 79.0324 182.592 
L 79.357379 174.528 
L 79.682359 182.592 
L 80.007338 182.592 
L 80.982277 150.336 
L 81.632236 150.336 
L 81.957215 170.496 
L 82.282195 174.528 
L 82.607174 158.4 
L 82.932154 154.368 
L 83.257133 162.432 
L 83.907093 146.304 
L 84.232072 146.304 
L 84.557052 142.272 
L 85.207011 150.336 
L 85.53199 134.208 
L 86.181949 142.272 
L 87.156888 130.176 
L 87.481867 130.176 
L 87.806847 134.208 
L 88.131826 126.144 
L 88.456806 122.112 
L 89.106765 122.112 
L 89.431744 130.176 
L 89.756724 122.112 
L 90.081704 122.112 
L 90.406683 126.144 
L 90.731663 110.016 
L 91.381622 118.08 
L 91.706601 114.048 
L 92.031581 114.048 
L 92.35656 118.08 
L 92.68154 110.016 
L 93.006519 114.048 
L 94.306437 114.048 
L 94.631417 110.016 
L 95.281376 118.08 
L 95.606355 118.08 
L 95.931335 114.048 
L 96.256314 114.048 
L 96.581294 110.016 
L 96.906274 110.016 
L 97.231253 114.048 
L 97.556233 110.016 
L 97.881212 114.048 
L 98.206192 110.016 
L 99.50611 110.016 
L 99.831089 114.048 
L 100.156069 110.016 
L 100.481048 114.048 
L 100.806028 110.016 
L 101.780966 110.016 
L 102.105946 114.048 
L 102.755905 105.984 
L 103.080885 110.016 
L 104.055823 110.016 
L 104.380803 105.984 
L 104.705782 110.016 
L 105.355741 110.016 
L 105.680721 114.048 
L 106.33068 105.984 
L 106.655659 105.984 
L 106.980639 110.016 
L 107.305618 110.016 
L 107.630598 105.984 
L 107.955577 110.016 
L 108.280557 110.016 
L 108.605536 105.984 
L 108.930516 110.016 
L 109.255495 110.016 
L 109.580475 105.984 
L 109.905455 114.048 
L 110.230434 110.016 
L 111.205373 110.016 
L 111.530352 105.984 
L 111.855332 105.984 
L 112.180311 110.016 
L 112.83027 110.016 
L 113.15525 105.984 
L 113.805209 105.984 
L 114.455168 114.048 
L 114.780147 105.984 
L 115.755086 105.984 
L 116.080066 110.016 
L 116.405045 105.984 
L 117.704963 105.984 
L 118.029943 110.016 
L 118.679902 110.016 
L 119.004881 105.984 
L 119.329861 110.016 
L 119.65484 105.984 
L 120.954758 105.984 
L 121.279738 110.016 
L 121.929697 110.016 
L 122.254676 105.984 
L 123.554595 105.984 
L 123.879574 110.016 
L 124.204554 105.984 
L 124.529533 105.984 
L 124.854513 110.016 
L 125.179492 105.984 
L 128.104308 105.984 
L 128.429287 110.016 
L 128.754267 105.984 
L 129.729206 105.984 
L 130.054185 110.016 
L 130.379165 105.984 
L 131.029124 105.984 
L 131.354103 110.016 
L 131.679083 105.984 
L 143.378346 105.984 
L 143.703325 122.112 
L 144.028305 105.984 
L 145.653202 105.984 
L 145.978182 110.016 
L 146.303161 105.984 
L 146.95312 105.984 
L 147.2781 97.92 
L 147.928059 105.984 
L 148.902998 105.984 
L 149.227977 101.952 
L 149.552957 105.984 
L 149.877936 105.984 
L 150.202916 97.92 
L 150.527895 105.984 
L 150.852875 105.984 
L 151.177854 101.952 
L 151.502834 105.984 
L 152.152793 105.984 
L 152.477772 97.92 
L 152.802752 105.984 
L 153.127731 97.92 
L 153.77769 105.984 
L 154.10267 105.984 
L 154.427649 101.952 
L 154.752629 105.984 
L 155.077609 93.888 
L 155.402588 105.984 
L 156.052547 105.984 
L 156.377527 101.952 
L 156.702506 105.984 
L 157.352465 105.984 
L 157.677445 97.92 
L 158.002424 105.984 
L 158.652383 105.984 
L 158.977363 97.92 
L 159.302342 101.952 
L 160.60226 101.952 
L 160.92724 93.888 
L 161.252219 101.952 
L 161.577199 105.984 
L 161.902179 93.888 
L 162.227158 110.016 
L 162.552138 97.92 
L 162.877117 97.92 
L 163.202097 105.984 
L 164.177035 93.888 
L 164.502015 105.984 
L 164.826994 101.952 
L 165.151974 101.952 
L 165.476953 93.888 
L 165.801933 93.888 
L 166.126912 101.952 
L 166.451892 105.984 
L 167.101851 97.92 
L 168.07679 97.92 
L 168.401769 101.952 
L 168.726749 97.92 
L 169.051728 97.92 
L 169.376708 93.888 
L 169.701687 105.984 
L 170.026667 97.92 
L 170.676626 97.92 
L 171.001605 93.888 
L 171.326585 101.952 
L 171.651564 97.92 
L 171.976544 97.92 
L 172.301523 93.888 
L 172.626503 93.888 
L 172.951482 101.952 
L 173.276462 101.952 
L 173.601441 89.856 
L 173.926421 97.92 
L 174.2514 101.952 
L 174.90136 101.952 
L 175.226339 93.888 
L 175.551319 97.92 
L 175.876298 97.92 
L 176.201278 105.984 
L 176.526257 101.952 
L 176.851237 93.888 
L 177.176216 97.92 
L 178.801114 97.92 
L 179.126093 101.952 
L 179.451073 101.952 
L 180.101032 93.888 
L 180.426011 101.952 
L 180.750991 97.92 
L 181.075971 105.984 
L 181.40095 85.824 
L 181.72593 85.824 
L 182.050909 97.92 
L 182.375889 93.888 
L 182.700868 97.92 
L 183.025848 97.92 
L 183.350827 93.888 
L 183.675807 93.888 
L 184.000786 101.952 
L 184.325766 101.952 
L 184.650745 85.824 
L 184.975725 93.888 
L 185.300704 93.888 
L 185.950663 85.824 
L 186.275643 97.92 
L 186.600622 93.888 
L 186.925602 93.888 
L 187.250581 85.824 
L 187.575561 85.824 
L 187.900541 93.888 
L 188.5505 93.888 
L 188.875479 81.792 
L 189.525438 89.856 
L 189.850418 85.824 
L 190.175397 89.856 
L 190.500377 85.824 
L 190.825356 93.888 
L 191.150336 85.824 
L 191.475315 93.888 
L 191.800295 89.856 
L 192.450254 89.856 
L 192.775233 85.824 
L 193.100213 77.76 
L 193.425192 77.76 
L 194.400131 89.856 
L 194.725111 89.856 
L 195.05009 81.792 
L 195.37507 89.856 
L 195.700049 77.76 
L 196.025029 81.792 
L 196.350008 89.856 
L 196.674988 77.76 
L 197.324947 85.824 
L 197.974906 85.824 
L 198.299885 81.792 
L 198.624865 85.824 
L 199.274824 85.824 
L 199.599803 81.792 
L 199.924783 85.824 
L 200.249762 73.728 
L 200.574742 81.792 
L 200.899722 81.792 
L 201.224701 85.824 
L 201.87466 77.76 
L 202.19964 81.792 
L 202.849599 81.792 
L 203.174578 85.824 
L 203.824537 77.76 
L 204.149517 81.792 
L 204.474496 77.76 
L 205.124455 85.824 
L 205.449435 77.76 
L 205.774414 81.792 
L 206.099394 77.76 
L 206.424373 81.792 
L 206.749353 81.792 
L 207.074333 85.824 
L 207.399312 77.76 
L 207.724292 85.824 
L 208.049271 73.728 
L 208.374251 81.792 
L 208.69923 81.792 
L 209.02421 77.76 
L 209.349189 77.76 
L 210.324128 89.856 
L 210.649107 73.728 
L 210.974087 77.76 
L 211.299066 73.728 
L 211.949025 81.792 
L 212.274005 73.728 
L 212.598984 81.792 
L 212.923964 85.824 
L 213.898903 85.824 
L 214.223882 77.76 
L 214.548862 77.76 
L 214.873841 85.824 
L 215.198821 73.728 
L 215.5238 73.728 
L 215.84878 69.696 
L 216.173759 81.792 
L 216.823718 81.792 
L 217.148698 73.728 
L 217.473677 73.728 
L 218.123636 81.792 
L 218.448616 69.696 
L 218.773595 77.76 
L 219.098575 77.76 
L 219.423554 85.824 
L 219.748534 81.792 
L 220.073514 73.728 
L 221.048452 85.824 
L 221.373432 81.792 
L 221.698411 81.792 
L 222.023391 77.76 
L 222.34837 81.792 
L 222.998329 81.792 
L 223.323309 73.728 
L 223.648288 77.76 
L 225.273186 77.76 
L 225.598165 73.728 
L 226.248124 89.856 
L 226.898084 73.728 
L 227.223063 73.728 
L 227.548043 81.792 
L 227.873022 77.76 
L 228.198002 85.824 
L 228.522981 77.76 
L 228.847961 85.824 
L 229.17294 85.824 
L 229.49792 73.728 
L 230.147879 73.728 
L 230.797838 89.856 
L 231.122817 81.792 
L 231.447797 77.76 
L 232.097756 93.888 
L 232.422735 85.824 
L 232.747715 85.824 
L 233.072695 81.792 
L 233.397674 97.92 
L 233.722654 85.824 
L 234.372613 77.76 
L 234.697592 81.792 
L 235.022572 81.792 
L 235.347551 69.696 
L 235.672531 85.824 
L 235.99751 77.76 
L 236.972449 77.76 
L 237.297428 81.792 
L 237.622408 69.696 
L 237.947387 73.728 
L 238.272367 81.792 
L 238.597346 81.792 
L 238.922326 73.728 
L 239.247305 73.728 
L 239.572285 81.792 
L 239.897265 81.792 
L 240.222244 65.664 
L 240.547224 77.76 
L 241.197183 69.696 
L 241.522162 81.792 
L 241.847142 73.728 
L 242.172121 69.696 
L 242.82208 89.856 
L 243.14706 77.76 
L 243.472039 73.728 
L 243.797019 73.728 
L 244.121998 85.824 
L 244.446978 81.792 
L 244.771957 69.696 
L 245.096937 73.728 
L 245.421916 73.728 
L 245.746896 77.76 
L 246.396855 69.696 
L 246.721835 77.76 
L 247.046814 69.696 
L 247.371794 69.696 
L 247.696773 85.824 
L 248.021753 65.664 
L 248.671712 73.728 
L 248.996691 81.792 
L 249.321671 61.632 
L 250.296609 73.728 
L 250.946568 73.728 
L 251.271548 69.696 
L 251.596527 69.696 
L 252.246486 77.76 
L 252.571466 89.856 
L 252.896446 73.728 
L 253.221425 77.76 
L 253.546405 73.728 
L 253.871384 77.76 
L 254.196364 77.76 
L 254.521343 65.664 
L 255.496282 77.76 
L 255.821261 93.888 
L 256.47122 65.664 
L 257.121179 73.728 
L 257.446159 61.632 
L 258.096118 81.792 
L 258.421097 61.632 
L 258.746077 69.696 
L 259.071057 85.824 
L 259.396036 69.696 
L 259.721016 65.664 
L 260.045995 65.664 
L 260.370975 69.696 
L 260.695954 65.664 
L 261.345913 73.728 
L 261.670893 65.664 
L 262.645831 65.664 
L 262.970811 69.696 
L 263.29579 77.76 
L 263.62077 81.792 
L 263.945749 69.696 
L 264.595708 77.76 
L 264.920688 69.696 
L 265.245667 81.792 
L 265.570647 69.696 
L 265.895627 89.856 
L 266.220606 77.76 
L 266.545586 85.824 
L 266.870565 73.728 
L 267.195545 69.696 
L 267.520524 77.76 
L 267.845504 73.728 
L 268.170483 77.76 
L 268.495463 73.728 
L 268.820442 65.664 
L 269.145422 93.888 
L 269.470401 73.728 
L 269.795381 81.792 
L 270.44534 73.728 
L 271.745258 73.728 
L 272.070238 61.632 
L 272.395217 73.728 
L 272.720197 65.664 
L 273.045176 73.728 
L 273.370156 73.728 
L 273.695135 77.76 
L 274.020115 77.76 
L 274.345094 81.792 
L 274.670074 69.696 
L 274.995053 81.792 
L 275.320033 77.76 
L 275.645012 69.696 
L 275.969992 69.696 
L 276.294971 65.664 
L 276.619951 77.76 
L 276.94493 73.728 
L 277.26991 65.664 
L 277.594889 73.728 
L 277.919869 65.664 
L 278.244848 69.696 
L 278.569828 77.76 
L 278.894808 65.664 
L 279.219787 73.728 
L 279.544767 61.632 
L 279.869746 65.664 
L 280.519705 65.664 
L 280.844685 69.696 
L 281.169664 65.664 
L 281.494644 65.664 
L 281.819623 73.728 
L 282.144603 61.632 
L 282.469582 61.632 
L 282.794562 69.696 
L 283.119541 65.664 
L 283.444521 73.728 
L 283.7695 61.632 
L 284.09448 65.664 
L 284.419459 61.632 
L 284.744439 69.696 
L 285.069419 73.728 
L 285.394398 61.632 
L 285.719378 65.664 
L 286.044357 61.632 
L 286.694316 69.696 
L 287.019296 61.632 
L 287.344275 57.6 
L 287.669255 61.632 
L 287.994234 61.632 
L 288.319214 69.696 
L 288.969173 61.632 
L 289.294152 69.696 
L 289.619132 57.6 
L 289.944111 69.696 
L 290.269091 65.664 
L 290.59407 65.664 
L 290.91905 73.728 
L 291.244029 65.664 
L 291.569009 69.696 
L 291.893989 65.664 
L 292.543948 65.664 
L 292.868927 77.76 
L 293.518886 61.632 
L 294.168845 77.76 
L 294.493825 89.856 
L 294.818804 65.664 
L 295.468763 65.664 
L 295.793743 73.728 
L 296.118722 69.696 
L 296.443702 81.792 
L 296.768681 69.696 
L 297.093661 77.76 
L 297.74362 61.632 
L 298.393579 69.696 
L 298.718559 61.632 
L 299.043538 69.696 
L 299.368518 65.664 
L 299.693497 69.696 
L 300.018477 61.632 
L 300.343456 61.632 
L 300.668436 65.664 
L 300.993415 73.728 
L 301.318395 61.632 
L 301.968354 61.632 
L 302.293333 69.696 
L 302.943292 61.632 
L 303.268272 65.664 
L 303.593251 57.6 
L 303.918231 61.632 
L 304.56819 61.632 
L 304.89317 69.696 
L 305.218149 61.632 
L 305.543129 61.632 
L 305.868108 57.6 
L 306.843047 57.6 
L 307.168026 61.632 
L 307.493006 61.632 
L 307.817985 69.696 
L 308.142965 61.632 
L 308.467944 61.632 
L 309.117903 69.696 
L 309.442883 61.632 
L 309.767862 65.664 
L 310.092842 65.664 
L 310.417821 61.632 
L 310.742801 69.696 
L 311.067781 61.632 
L 311.39276 65.664 
L 311.71774 61.632 
L 312.692678 61.632 
L 313.017658 65.664 
L 313.342637 57.6 
L 313.992596 65.664 
L 314.317576 57.6 
L 314.642555 61.632 
L 314.967535 61.632 
L 315.292514 57.6 
L 315.617494 69.696 
L 315.942473 57.6 
L 316.267453 61.632 
L 318.21733 61.632 
L 318.54231 69.696 
L 318.867289 69.696 
L 319.192269 61.632 
L 319.517248 65.664 
L 319.842228 61.632 
L 320.492187 69.696 
L 320.817166 61.632 
L 321.142146 61.632 
L 321.467125 65.664 
L 321.792105 61.632 
L 322.442064 69.696 
L 322.767043 57.6 
L 323.092023 57.6 
L 323.417002 77.76 
L 323.741982 61.632 
L 324.066962 65.664 
L 324.391941 65.664 
L 324.716921 61.632 
L 325.0419 65.664 
L 325.36688 57.6 
L 325.691859 61.632 
L 326.016839 69.696 
L 326.341818 65.664 
L 326.666798 65.664 
L 326.991777 89.856 
L 327.316757 69.696 
L 327.641736 69.696 
L 327.966716 77.76 
L 328.291695 73.728 
L 328.616675 57.6 
L 328.941654 65.664 
L 329.266634 77.76 
L 329.591613 61.632 
L 329.916593 73.728 
L 330.241572 61.632 
L 330.566552 57.6 
L 330.891532 65.664 
L 331.216511 57.6 
L 331.541491 57.6 
L 331.86647 65.664 
L 332.516429 57.6 
L 332.841409 65.664 
L 333.491368 57.6 
L 334.466306 57.6 
L 334.791286 61.632 
L 335.116265 61.632 
L 335.441245 57.6 
L 336.091204 57.6 
L 336.416183 61.632 
L 336.741163 57.6 
L 337.066143 61.632 
L 337.391122 57.6 
L 337.716102 73.728 
L 338.041081 57.6 
L 338.366061 57.6 
L 338.69104 65.664 
L 339.01602 57.6 
L 340.315938 57.6 
L 340.640917 61.632 
L 341.290876 61.632 
L 341.615856 65.664 
L 341.940835 57.6 
L 342.265815 57.6 
L 342.590794 61.632 
L 343.565733 61.632 
L 343.890713 65.664 
L 344.215692 57.6 
L 344.540672 65.664 
L 344.865651 57.6 
L 345.190631 61.632 
L 345.51561 57.6 
L 345.84059 61.632 
L 346.165569 57.6 
L 346.490549 57.6 
L 346.815528 61.632 
L 347.140508 61.632 
L 347.465487 65.664 
L 347.790467 61.632 
L 348.115446 61.632 
L 348.440426 57.6 
L 349.090385 65.664 
L 349.415364 65.664 
L 349.740344 61.632 
L 350.065324 69.696 
L 350.715283 61.632 
L 351.040262 61.632 
L 351.365242 65.664 
L 351.690221 57.6 
L 352.015201 65.664 
L 352.66516 57.6 
L 352.990139 57.6 
L 353.315119 65.664 
L 353.965078 65.664 
L 354.290057 61.632 
L 354.615037 65.664 
L 354.940016 57.6 
L 355.264996 65.664 
L 355.589975 57.6 
L 355.914955 57.6 
L 356.239934 61.632 
L 356.564914 61.632 
L 356.889894 57.6 
L 357.214873 61.632 
L 357.539853 61.632 
L 357.864832 57.6 
L 358.189812 61.632 
L 358.514791 57.6 
L 359.16475 57.6 
L 359.48973 61.632 
L 360.139689 61.632 
L 360.464668 53.568 
L 360.789648 65.664 
L 361.114627 61.632 
L 361.439607 61.632 
L 361.764586 65.664 
L 362.089566 65.664 
L 362.739525 57.6 
L 363.389484 57.6 
L 363.714464 61.632 
L 364.039443 57.6 
L 364.364423 65.664 
L 365.339361 65.664 
L 365.664341 57.6 
L 365.98932 61.632 
L 366.3143 57.6 
L 366.639279 57.6 
L 366.964259 61.632 
L 367.289238 57.6 
L 367.939197 57.6 
L 368.264177 53.568 
L 368.914136 61.632 
L 369.239115 57.6 
L 369.564095 57.6 
L 369.889075 61.632 
L 370.214054 57.6 
L 370.539034 61.632 
L 370.864013 57.6 
L 372.163931 57.6 
L 372.488911 65.664 
L 373.13887 57.6 
L 373.463849 57.6 
L 373.788829 65.664 
L 374.113808 57.6 
L 374.438788 61.632 
L 375.088747 61.632 
L 375.413726 53.568 
L 375.738706 61.632 
L 376.063686 57.6 
L 376.713645 65.664 
L 377.038624 57.6 
L 377.363604 61.632 
L 377.688583 57.6 
L 378.013563 57.6 
L 378.338542 65.664 
L 378.663522 57.6 
L 378.988501 61.632 
L 379.313481 57.6 
L 379.96344 65.664 
L 380.288419 57.6 
L 380.613399 61.632 
L 380.938378 61.632 
L 381.263358 57.6 
L 381.588337 65.664 
L 382.238296 57.6 
L 383.213235 57.6 
L 383.538215 65.664 
L 383.863194 65.664 
L 384.513153 57.6 
L 384.838133 65.664 
L 385.488092 57.6 
L 386.138051 65.664 
L 386.78801 57.6 
L 387.112989 57.6 
L 387.437969 61.632 
L 387.762948 61.632 
L 388.087928 57.6 
L 388.412907 61.632 
L 388.737887 57.6 
L 389.062867 57.6 
L 389.387846 61.632 
L 390.037805 61.632 
L 390.362785 69.696 
L 391.012744 53.568 
L 391.337723 65.664 
L 391.662703 65.664 
L 391.987682 57.6 
L 392.312662 65.664 
L 392.637641 61.632 
L 392.962621 61.632 
L 393.2876 57.6 
L 393.937559 57.6 
L 394.262539 61.632 
L 394.587518 69.696 
L 394.912498 57.6 
L 395.237477 65.664 
L 395.562457 57.6 
L 396.212416 57.6 
L 396.862375 65.664 
L 397.512334 57.6 
L 397.837314 57.6 
L 398.162293 69.696 
L 398.487273 61.632 
L 398.487273 61.632 
" clip-path="url(#p04b3cebc88)" style="fill: none; stroke: #0000ff; stroke-width: 1.5; stroke-linecap: square"/>
   </g>
   <g id="line2d_16">
    <path d="M 73.832727 269.230829 
L 74.157707 257.429854 
L 74.482686 200.391805 
L 74.807666 179.740098 
L 75.132645 180.723512 
L 75.457625 191.541073 
L 75.782604 190.557659 
L 76.107584 191.541073 
L 76.432563 182.690341 
L 76.757543 197.441561 
L 77.082523 183.673756 
L 77.732482 176.789854 
L 78.057461 173.83961 
L 78.382441 172.856195 
L 78.70742 172.856195 
L 79.357379 155.154732 
L 79.682359 168.922537 
L 80.007338 169.905951 
L 80.332318 169.905951 
L 80.982277 150.237659 
L 81.632236 148.270829 
L 81.957215 153.187902 
L 82.282195 150.237659 
L 82.932154 138.436683 
L 83.257133 143.353756 
L 83.582113 136.469854 
L 83.907093 134.503024 
L 84.232072 134.503024 
L 84.557052 132.536195 
L 84.882031 134.503024 
L 85.207011 132.536195 
L 85.53199 134.503024 
L 85.85697 132.536195 
L 86.181949 128.602537 
L 86.506929 128.602537 
L 86.831908 126.635707 
L 87.156888 126.635707 
L 87.806847 124.668878 
L 88.131826 122.702049 
L 88.456806 125.652293 
L 88.781785 126.635707 
L 89.106765 129.585951 
L 89.431744 127.619122 
L 89.756724 127.619122 
L 90.081704 124.668878 
L 90.406683 124.668878 
L 90.731663 126.635707 
L 91.056642 127.619122 
L 91.381622 129.585951 
L 91.706601 121.718634 
L 92.031581 126.635707 
L 92.68154 126.635707 
L 93.006519 130.569366 
L 93.981458 124.668878 
L 94.306437 123.685463 
L 94.631417 126.635707 
L 94.956396 126.635707 
L 95.281376 124.668878 
L 95.606355 125.652293 
L 95.931335 124.668878 
L 96.256314 125.652293 
L 96.581294 125.652293 
L 97.231253 127.619122 
L 97.556233 125.652293 
L 97.881212 125.652293 
L 98.531171 127.619122 
L 98.856151 125.652293 
L 99.18113 127.619122 
L 99.50611 127.619122 
L 99.831089 124.668878 
L 100.156069 126.635707 
L 100.481048 127.619122 
L 100.806028 127.619122 
L 101.131007 126.635707 
L 101.455987 126.635707 
L 101.780966 123.685463 
L 102.105946 127.619122 
L 102.430925 127.619122 
L 103.080885 123.685463 
L 103.730844 129.585951 
L 104.055823 130.569366 
L 104.380803 126.635707 
L 104.705782 126.635707 
L 105.030762 131.55278 
L 105.355741 125.652293 
L 105.680721 130.569366 
L 106.0057 130.569366 
L 106.33068 128.602537 
L 106.655659 125.652293 
L 106.980639 126.635707 
L 107.305618 126.635707 
L 107.630598 125.652293 
L 108.280557 131.55278 
L 108.605536 130.569366 
L 108.930516 125.652293 
L 109.255495 125.652293 
L 109.580475 129.585951 
L 109.905455 131.55278 
L 110.230434 129.585951 
L 110.555414 125.652293 
L 110.880393 128.602537 
L 111.205373 125.652293 
L 111.530352 128.602537 
L 111.855332 128.602537 
L 112.180311 129.585951 
L 112.83027 127.619122 
L 113.15525 125.652293 
L 113.480229 124.668878 
L 113.805209 125.652293 
L 114.130188 128.602537 
L 114.455168 133.51961 
L 114.780147 126.635707 
L 115.430106 121.718634 
L 115.755086 127.619122 
L 116.080066 128.602537 
L 116.405045 128.602537 
L 116.730025 126.635707 
L 117.055004 122.702049 
L 117.379984 123.685463 
L 117.704963 126.635707 
L 118.029943 125.652293 
L 118.354922 127.619122 
L 118.679902 126.635707 
L 119.004881 127.619122 
L 119.329861 126.635707 
L 119.65484 127.619122 
L 119.97982 129.585951 
L 120.304799 126.635707 
L 120.629779 127.619122 
L 120.954758 125.652293 
L 121.279738 127.619122 
L 121.604717 130.569366 
L 122.254676 126.635707 
L 122.579656 123.685463 
L 122.904636 124.668878 
L 123.229615 128.602537 
L 123.554595 129.585951 
L 123.879574 127.619122 
L 124.204554 126.635707 
L 124.529533 128.602537 
L 124.854513 127.619122 
L 125.179492 125.652293 
L 125.504472 127.619122 
L 125.829451 131.55278 
L 126.154431 127.619122 
L 126.47941 125.652293 
L 126.80439 125.652293 
L 127.129369 126.635707 
L 127.454349 126.635707 
L 127.779328 127.619122 
L 128.104308 127.619122 
L 128.429287 131.55278 
L 128.754267 125.652293 
L 129.079247 127.619122 
L 129.404226 127.619122 
L 129.729206 129.585951 
L 130.054185 132.536195 
L 130.379165 126.635707 
L 130.704144 127.619122 
L 131.029124 127.619122 
L 131.354103 132.536195 
L 132.004062 124.668878 
L 132.654021 129.585951 
L 133.30398 127.619122 
L 133.62896 124.668878 
L 133.953939 124.668878 
L 134.278919 126.635707 
L 134.603898 127.619122 
L 135.253857 127.619122 
L 135.578837 126.635707 
L 135.903817 126.635707 
L 136.228796 128.602537 
L 136.553776 128.602537 
L 136.878755 125.652293 
L 137.528714 127.619122 
L 137.853694 130.569366 
L 138.178673 128.602537 
L 138.503653 127.619122 
L 138.828632 125.652293 
L 139.478591 129.585951 
L 139.803571 129.585951 
L 140.12855 128.602537 
L 140.45353 128.602537 
L 140.778509 127.619122 
L 141.428468 131.55278 
L 141.753448 132.536195 
L 142.078428 128.602537 
L 142.403407 128.602537 
L 142.728387 130.569366 
L 143.053366 128.602537 
L 143.378346 130.569366 
L 143.703325 138.436683 
L 144.028305 125.652293 
L 144.353284 133.51961 
L 144.678264 128.602537 
L 145.003243 128.602537 
L 145.328223 126.635707 
L 145.653202 129.585951 
L 145.978182 136.469854 
L 146.303161 129.585951 
L 146.628141 126.635707 
L 146.95312 125.652293 
L 147.603079 132.536195 
L 147.928059 127.619122 
L 148.253038 127.619122 
L 148.578018 126.635707 
L 148.902998 129.585951 
L 149.227977 128.602537 
L 149.552957 134.503024 
L 149.877936 129.585951 
L 150.202916 126.635707 
L 150.527895 125.652293 
L 151.177854 127.619122 
L 151.502834 131.55278 
L 151.827813 129.585951 
L 152.152793 130.569366 
L 152.477772 126.635707 
L 152.802752 125.652293 
L 153.127731 135.486439 
L 153.452711 130.569366 
L 153.77769 128.602537 
L 154.10267 127.619122 
L 154.427649 124.668878 
L 154.752629 133.51961 
L 155.402588 126.635707 
L 156.052547 128.602537 
L 156.377527 132.536195 
L 156.702506 128.602537 
L 157.027486 127.619122 
L 157.352465 128.602537 
L 158.002424 132.536195 
L 158.327404 127.619122 
L 158.652383 125.652293 
L 159.302342 129.585951 
L 159.627322 127.619122 
L 159.952301 128.602537 
L 160.277281 127.619122 
L 160.60226 128.602537 
L 160.92724 130.569366 
L 161.252219 124.668878 
L 161.577199 125.652293 
L 161.902179 129.585951 
L 162.227158 135.486439 
L 163.202097 123.685463 
L 163.527076 124.668878 
L 163.852056 134.503024 
L 164.177035 132.536195 
L 164.502015 127.619122 
L 164.826994 130.569366 
L 165.151974 125.652293 
L 165.476953 135.486439 
L 165.801933 131.55278 
L 166.126912 124.668878 
L 166.451892 126.635707 
L 166.776871 129.585951 
L 167.101851 135.486439 
L 167.42683 126.635707 
L 167.75181 124.668878 
L 168.07679 127.619122 
L 168.401769 124.668878 
L 169.051728 134.503024 
L 169.376708 128.602537 
L 169.701687 130.569366 
L 170.026667 125.652293 
L 170.351646 127.619122 
L 170.676626 130.569366 
L 171.001605 126.635707 
L 171.326585 127.619122 
L 171.651564 120.73522 
L 171.976544 120.73522 
L 172.301523 129.585951 
L 172.626503 129.585951 
L 172.951482 125.652293 
L 173.276462 125.652293 
L 173.601441 123.685463 
L 173.926421 123.685463 
L 174.2514 119.751805 
L 174.57638 127.619122 
L 174.90136 130.569366 
L 175.226339 124.668878 
L 175.551319 122.702049 
L 175.876298 121.718634 
L 176.201278 127.619122 
L 176.526257 125.652293 
L 176.851237 127.619122 
L 177.501196 120.73522 
L 177.826175 120.73522 
L 178.151155 126.635707 
L 178.476134 121.718634 
L 178.801114 124.668878 
L 179.126093 119.751805 
L 179.451073 119.751805 
L 180.101032 131.55278 
L 180.426011 119.751805 
L 180.750991 122.702049 
L 181.075971 118.76839 
L 181.40095 125.652293 
L 181.72593 128.602537 
L 182.050909 121.718634 
L 182.375889 123.685463 
L 182.700868 119.751805 
L 183.025848 122.702049 
L 183.350827 127.619122 
L 183.675807 128.602537 
L 184.000786 123.685463 
L 184.325766 121.718634 
L 184.650745 125.652293 
L 184.975725 120.73522 
L 185.300704 120.73522 
L 185.625684 127.619122 
L 185.950663 123.685463 
L 186.275643 121.718634 
L 186.600622 121.718634 
L 186.925602 125.652293 
L 187.250581 126.635707 
L 187.575561 125.652293 
L 187.900541 117.784976 
L 188.875479 133.51961 
L 189.200459 125.652293 
L 189.525438 124.668878 
L 190.175397 118.76839 
L 190.500377 130.569366 
L 190.825356 123.685463 
L 191.150336 128.602537 
L 191.475315 122.702049 
L 191.800295 123.685463 
L 192.125274 123.685463 
L 192.450254 125.652293 
L 193.100213 130.569366 
L 193.425192 125.652293 
L 193.750172 124.668878 
L 194.075152 125.652293 
L 194.725111 125.652293 
L 195.05009 132.536195 
L 195.37507 119.751805 
L 195.700049 126.635707 
L 196.025029 128.602537 
L 196.350008 124.668878 
L 196.674988 126.635707 
L 196.999967 127.619122 
L 197.324947 126.635707 
L 197.649926 120.73522 
L 197.974906 124.668878 
L 198.299885 131.55278 
L 198.624865 129.585951 
L 198.949844 126.635707 
L 199.274824 117.784976 
L 199.924783 132.536195 
L 200.249762 127.619122 
L 200.574742 128.602537 
L 200.899722 131.55278 
L 201.224701 127.619122 
L 201.549681 131.55278 
L 201.87466 128.602537 
L 202.19964 130.569366 
L 202.524619 129.585951 
L 202.849599 129.585951 
L 203.174578 122.702049 
L 203.499558 130.569366 
L 203.824537 131.55278 
L 204.474496 126.635707 
L 204.799476 131.55278 
L 205.124455 121.718634 
L 205.449435 131.55278 
L 206.424373 131.55278 
L 206.749353 124.668878 
L 207.074333 121.718634 
L 207.399312 129.585951 
L 207.724292 133.51961 
L 208.049271 132.536195 
L 208.374251 122.702049 
L 208.69923 131.55278 
L 209.02421 129.585951 
L 209.349189 128.602537 
L 209.999148 130.569366 
L 210.324128 124.668878 
L 210.649107 132.536195 
L 210.974087 130.569366 
L 211.299066 132.536195 
L 211.624046 131.55278 
L 212.274005 131.55278 
L 212.598984 132.536195 
L 212.923964 131.55278 
L 213.248943 129.585951 
L 213.573923 132.536195 
L 213.898903 126.635707 
L 214.548862 135.486439 
L 214.873841 129.585951 
L 215.198821 130.569366 
L 215.5238 133.51961 
L 215.84878 133.51961 
L 216.173759 131.55278 
L 216.498739 132.536195 
L 216.823718 131.55278 
L 217.148698 129.585951 
L 217.473677 133.51961 
L 217.798657 133.51961 
L 218.123636 128.602537 
L 218.448616 136.469854 
L 218.773595 135.486439 
L 219.098575 133.51961 
L 219.423554 133.51961 
L 219.748534 134.503024 
L 220.073514 133.51961 
L 220.398493 135.486439 
L 220.723473 135.486439 
L 221.048452 136.469854 
L 221.373432 126.635707 
L 221.698411 128.602537 
L 222.023391 133.51961 
L 222.34837 135.486439 
L 222.67335 135.486439 
L 222.998329 132.536195 
L 223.323309 134.503024 
L 223.648288 137.453268 
L 224.298247 133.51961 
L 224.623227 133.51961 
L 224.948206 132.536195 
L 225.598165 134.503024 
L 225.923145 132.536195 
L 226.248124 136.469854 
L 226.573104 131.55278 
L 226.898084 133.51961 
L 227.223063 133.51961 
L 227.548043 129.585951 
L 227.873022 133.51961 
L 228.198002 141.386927 
L 229.17294 123.685463 
L 229.49792 134.503024 
L 229.822899 139.420098 
L 230.147879 141.386927 
L 230.472858 137.453268 
L 230.797838 122.702049 
L 231.122817 135.486439 
L 231.447797 137.453268 
L 231.772776 141.386927 
L 232.097756 132.536195 
L 232.422735 133.51961 
L 232.747715 131.55278 
L 233.072695 128.602537 
L 233.397674 147.287415 
L 233.722654 139.420098 
L 234.697592 128.602537 
L 235.022572 135.486439 
L 235.347551 137.453268 
L 235.672531 143.353756 
L 235.99751 142.370341 
L 236.32249 129.585951 
L 236.647469 130.569366 
L 237.297428 136.469854 
L 237.622408 135.486439 
L 237.947387 140.403512 
L 238.272367 149.254244 
L 238.597346 135.486439 
L 238.922326 133.51961 
L 239.247305 133.51961 
L 239.572285 126.635707 
L 239.897265 137.453268 
L 240.222244 139.420098 
L 240.547224 144.337171 
L 240.872203 136.469854 
L 241.197183 134.503024 
L 241.522162 127.619122 
L 241.847142 128.602537 
L 242.172121 138.436683 
L 242.497101 139.420098 
L 243.14706 134.503024 
L 243.472039 135.486439 
L 243.797019 139.420098 
L 244.121998 139.420098 
L 244.446978 132.536195 
L 244.771957 133.51961 
L 245.096937 137.453268 
L 245.421916 143.353756 
L 246.071876 133.51961 
L 246.396855 133.51961 
L 246.721835 138.436683 
L 247.046814 134.503024 
L 247.371794 142.370341 
L 247.696773 143.353756 
L 248.346732 135.486439 
L 248.671712 136.469854 
L 248.996691 140.403512 
L 249.321671 135.486439 
L 249.64665 140.403512 
L 249.97163 143.353756 
L 250.296609 135.486439 
L 250.621589 143.353756 
L 250.946568 140.403512 
L 251.271548 133.51961 
L 251.596527 138.436683 
L 251.921507 132.536195 
L 252.246486 140.403512 
L 252.571466 138.436683 
L 252.896446 146.304 
L 253.221425 137.453268 
L 253.546405 135.486439 
L 254.196364 141.386927 
L 254.521343 139.420098 
L 254.846323 141.386927 
L 255.171302 148.270829 
L 255.496282 144.337171 
L 255.821261 130.569366 
L 256.146241 124.668878 
L 256.47122 132.536195 
L 256.7962 144.337171 
L 257.121179 142.370341 
L 257.446159 143.353756 
L 258.096118 132.536195 
L 258.421097 139.420098 
L 258.746077 140.403512 
L 259.071057 133.51961 
L 259.396036 140.403512 
L 259.721016 143.353756 
L 260.045995 134.503024 
L 260.370975 130.569366 
L 260.695954 141.386927 
L 261.020934 143.353756 
L 261.345913 137.453268 
L 261.670893 144.337171 
L 262.320852 137.453268 
L 262.645831 142.370341 
L 262.970811 145.320585 
L 263.29579 138.436683 
L 263.62077 135.486439 
L 263.945749 135.486439 
L 264.270729 138.436683 
L 264.595708 136.469854 
L 264.920688 144.337171 
L 265.245667 134.503024 
L 265.570647 136.469854 
L 265.895627 147.287415 
L 266.220606 142.370341 
L 266.545586 143.353756 
L 266.870565 142.370341 
L 267.195545 143.353756 
L 267.845504 137.453268 
L 268.170483 138.436683 
L 268.820442 144.337171 
L 269.145422 154.171317 
L 269.470401 139.420098 
L 269.795381 134.503024 
L 270.44534 136.469854 
L 271.095299 148.270829 
L 271.420278 141.386927 
L 271.745258 141.386927 
L 272.070238 143.353756 
L 272.395217 138.436683 
L 272.720197 138.436683 
L 273.045176 145.320585 
L 273.370156 143.353756 
L 273.695135 135.486439 
L 274.020115 137.453268 
L 274.345094 144.337171 
L 274.670074 145.320585 
L 274.995053 143.353756 
L 275.320033 137.453268 
L 275.645012 136.469854 
L 275.969992 137.453268 
L 276.294971 143.353756 
L 276.619951 146.304 
L 276.94493 145.320585 
L 277.594889 133.51961 
L 277.919869 136.469854 
L 278.244848 145.320585 
L 278.569828 144.337171 
L 279.219787 140.403512 
L 279.544767 144.337171 
L 279.869746 143.353756 
L 280.194726 144.337171 
L 280.519705 141.386927 
L 280.844685 136.469854 
L 281.169664 142.370341 
L 281.494644 141.386927 
L 281.819623 149.254244 
L 282.144603 143.353756 
L 282.469582 140.403512 
L 282.794562 134.503024 
L 283.444521 145.320585 
L 283.7695 141.386927 
L 284.09448 139.420098 
L 284.744439 141.386927 
L 285.069419 148.270829 
L 285.394398 143.353756 
L 285.719378 132.536195 
L 286.044357 137.453268 
L 286.369337 145.320585 
L 286.694316 148.270829 
L 287.344275 139.420098 
L 287.669255 139.420098 
L 287.994234 140.403512 
L 288.319214 145.320585 
L 288.644193 142.370341 
L 288.969173 137.453268 
L 289.294152 134.503024 
L 289.619132 144.337171 
L 289.944111 149.254244 
L 290.269091 148.270829 
L 290.59407 135.486439 
L 290.91905 135.486439 
L 291.244029 134.503024 
L 291.569009 143.353756 
L 291.893989 146.304 
L 292.218968 151.221073 
L 292.543948 139.420098 
L 292.868927 133.51961 
L 293.193907 135.486439 
L 293.518886 150.237659 
L 293.843866 158.104976 
L 294.168845 135.486439 
L 294.493825 130.569366 
L 294.818804 136.469854 
L 295.143784 150.237659 
L 295.793743 148.270829 
L 296.118722 136.469854 
L 296.443702 133.51961 
L 296.768681 136.469854 
L 297.093661 152.204488 
L 297.41864 151.221073 
L 297.74362 146.304 
L 298.0686 135.486439 
L 298.393579 135.486439 
L 299.043538 148.270829 
L 299.368518 151.221073 
L 299.693497 148.270829 
L 300.018477 137.453268 
L 300.668436 141.386927 
L 300.993415 149.254244 
L 301.318395 142.370341 
L 301.643374 140.403512 
L 301.968354 140.403512 
L 302.293333 139.420098 
L 302.618313 143.353756 
L 302.943292 142.370341 
L 303.268272 142.370341 
L 303.593251 140.403512 
L 304.24321 152.204488 
L 304.89317 138.436683 
L 305.218149 144.337171 
L 305.543129 140.403512 
L 305.868108 142.370341 
L 306.193088 143.353756 
L 306.518067 146.304 
L 306.843047 143.353756 
L 307.168026 138.436683 
L 307.493006 142.370341 
L 307.817985 153.187902 
L 308.142965 145.320585 
L 308.467944 144.337171 
L 308.792924 140.403512 
L 309.117903 140.403512 
L 309.442883 139.420098 
L 309.767862 147.287415 
L 310.092842 151.221073 
L 310.417821 143.353756 
L 310.742801 138.436683 
L 311.067781 139.420098 
L 311.71774 149.254244 
L 312.367699 147.287415 
L 312.692678 144.337171 
L 313.017658 137.453268 
L 313.992596 153.187902 
L 314.642555 138.436683 
L 314.967535 140.403512 
L 315.292514 145.320585 
L 315.617494 152.204488 
L 315.942473 150.237659 
L 316.267453 139.420098 
L 316.592432 140.403512 
L 316.917412 142.370341 
L 317.242391 147.287415 
L 317.567371 140.403512 
L 318.21733 142.370341 
L 318.54231 153.187902 
L 318.867289 149.254244 
L 319.192269 139.420098 
L 319.517248 134.503024 
L 319.842228 138.436683 
L 320.167207 148.270829 
L 320.492187 150.237659 
L 321.142146 138.436683 
L 321.467125 139.420098 
L 322.442064 150.237659 
L 322.767043 145.320585 
L 323.741982 142.370341 
L 324.066962 151.221073 
L 324.391941 151.221073 
L 324.716921 142.370341 
L 325.0419 139.420098 
L 325.36688 140.403512 
L 326.016839 149.254244 
L 326.341818 147.287415 
L 326.666798 146.304 
L 327.316757 139.420098 
L 327.641736 141.386927 
L 327.966716 142.370341 
L 328.291695 147.287415 
L 328.941654 145.320585 
L 329.266634 147.287415 
L 329.591613 146.304 
L 329.916593 138.436683 
L 330.241572 146.304 
L 330.566552 146.304 
L 330.891532 142.370341 
L 331.216511 143.353756 
L 331.541491 146.304 
L 331.86647 144.337171 
L 332.516429 144.337171 
L 332.841409 141.386927 
L 333.166388 146.304 
L 333.491368 144.337171 
L 333.816347 146.304 
L 334.141327 145.320585 
L 334.466306 147.287415 
L 334.791286 144.337171 
L 335.116265 139.420098 
L 335.441245 144.337171 
L 335.766224 147.287415 
L 336.091204 146.304 
L 336.416183 147.287415 
L 336.741163 146.304 
L 337.066143 141.386927 
L 337.391122 143.353756 
L 337.716102 147.287415 
L 338.041081 140.403512 
L 338.366061 148.270829 
L 338.69104 137.453268 
L 339.01602 148.270829 
L 339.340999 143.353756 
L 339.665979 145.320585 
L 339.990958 144.337171 
L 340.315938 147.287415 
L 340.640917 146.304 
L 340.965897 146.304 
L 341.290876 143.353756 
L 341.615856 137.453268 
L 342.590794 150.237659 
L 342.915774 144.337171 
L 343.240753 145.320585 
L 343.565733 140.403512 
L 343.890713 140.403512 
L 344.215692 145.320585 
L 344.540672 146.304 
L 344.865651 148.270829 
L 345.190631 144.337171 
L 345.51561 145.320585 
L 345.84059 139.420098 
L 346.165569 144.337171 
L 346.490549 145.320585 
L 346.815528 147.287415 
L 347.140508 150.237659 
L 347.465487 143.353756 
L 347.790467 141.386927 
L 348.115446 140.403512 
L 349.090385 151.221073 
L 349.415364 151.221073 
L 349.740344 139.420098 
L 350.065324 135.486439 
L 350.715283 147.287415 
L 351.040262 149.254244 
L 351.365242 144.337171 
L 351.690221 141.386927 
L 352.66516 144.337171 
L 352.990139 148.270829 
L 353.640098 143.353756 
L 353.965078 144.337171 
L 354.615037 139.420098 
L 354.940016 143.353756 
L 355.264996 149.254244 
L 355.914955 142.370341 
L 356.239934 139.420098 
L 356.564914 145.320585 
L 356.889894 147.287415 
L 357.214873 146.304 
L 357.539853 152.204488 
L 358.189812 142.370341 
L 358.514791 144.337171 
L 358.839771 143.353756 
L 359.48973 143.353756 
L 359.814709 145.320585 
L 360.139689 143.353756 
L 360.464668 145.320585 
L 360.789648 140.403512 
L 361.114627 141.386927 
L 361.439607 153.187902 
L 361.764586 149.254244 
L 362.089566 143.353756 
L 362.414545 141.386927 
L 362.739525 140.403512 
L 363.389484 148.270829 
L 363.714464 149.254244 
L 364.039443 147.287415 
L 364.364423 139.420098 
L 364.689402 138.436683 
L 365.014382 144.337171 
L 365.339361 145.320585 
L 365.664341 148.270829 
L 365.98932 153.187902 
L 366.3143 141.386927 
L 366.639279 141.386927 
L 366.964259 139.420098 
L 367.289238 146.304 
L 367.614218 146.304 
L 367.939197 147.287415 
L 368.264177 149.254244 
L 368.589156 140.403512 
L 368.914136 142.370341 
L 369.564095 149.254244 
L 369.889075 145.320585 
L 370.214054 148.270829 
L 370.539034 139.420098 
L 370.864013 141.386927 
L 371.188993 149.254244 
L 371.513972 148.270829 
L 371.838952 146.304 
L 372.163931 145.320585 
L 372.81389 149.254244 
L 373.13887 147.287415 
L 373.463849 144.337171 
L 373.788829 146.304 
L 374.113808 146.304 
L 374.438788 139.420098 
L 374.763767 141.386927 
L 375.088747 147.287415 
L 375.413726 148.270829 
L 375.738706 147.287415 
L 376.063686 149.254244 
L 376.388665 139.420098 
L 376.713645 151.221073 
L 377.038624 147.287415 
L 377.363604 150.237659 
L 378.013563 141.386927 
L 378.338542 140.403512 
L 378.663522 148.270829 
L 378.988501 148.270829 
L 379.313481 149.254244 
L 379.63846 147.287415 
L 379.96344 137.453268 
L 380.613399 147.287415 
L 380.938378 148.270829 
L 381.263358 148.270829 
L 381.588337 136.469854 
L 382.238296 146.304 
L 382.888256 152.204488 
L 383.538215 140.403512 
L 383.863194 140.403512 
L 384.188174 150.237659 
L 384.513153 146.304 
L 384.838133 150.237659 
L 385.163112 141.386927 
L 385.488092 140.403512 
L 385.813071 147.287415 
L 386.138051 147.287415 
L 386.46303 150.237659 
L 386.78801 147.287415 
L 387.112989 142.370341 
L 387.762948 148.270829 
L 388.087928 146.304 
L 388.412907 148.270829 
L 388.737887 149.254244 
L 389.062867 147.287415 
L 389.387846 139.420098 
L 389.712826 147.287415 
L 390.037805 148.270829 
L 390.362785 150.237659 
L 390.687764 146.304 
L 391.012744 139.420098 
L 391.337723 138.436683 
L 391.987682 147.287415 
L 392.312662 148.270829 
L 392.637641 148.270829 
L 392.962621 144.337171 
L 393.2876 142.370341 
L 393.61258 141.386927 
L 393.937559 145.320585 
L 394.262539 151.221073 
L 394.912498 146.304 
L 395.237477 138.436683 
L 395.562457 143.353756 
L 395.887437 143.353756 
L 396.212416 147.287415 
L 396.537396 149.254244 
L 396.862375 143.353756 
L 397.187355 142.370341 
L 397.512334 146.304 
L 397.837314 147.287415 
L 398.487273 145.320585 
L 398.487273 145.320585 
" clip-path="url(#p04b3cebc88)" style="fill: none; stroke: #008000; stroke-width: 1.5; stroke-linecap: square"/>
   </g>
   <g id="line2d_17">
    <path d="M 73.832727 282.710878 
L 74.157707 273.467077 
L 74.482686 215.085176 
L 74.807666 191.732416 
L 75.132645 199.030154 
L 75.457625 229.194136 
L 76.107584 216.544724 
L 76.432563 199.030154 
L 76.757543 210.220018 
L 77.082523 189.786353 
L 77.407502 188.326805 
L 77.732482 187.84029 
L 78.057461 181.515584 
L 78.382441 181.029068 
L 78.70742 187.353774 
L 79.357379 168.379656 
L 79.682359 179.56952 
L 80.007338 180.542552 
L 80.332318 183.461647 
L 80.982277 166.433593 
L 81.632236 163.027982 
L 81.957215 169.352688 
L 82.282195 165.460561 
L 82.607174 156.21676 
L 82.932154 153.784181 
L 83.257133 160.108887 
L 83.582113 153.297665 
L 83.907093 149.892054 
L 84.232072 142.107801 
L 84.557052 146.972959 
L 84.882031 148.919023 
L 85.207011 140.648253 
L 85.53199 141.621285 
L 85.85697 143.080833 
L 86.181949 143.080833 
L 86.831908 135.296579 
L 87.156888 139.188706 
L 87.481867 140.161738 
L 88.131826 134.323548 
L 88.456806 137.242643 
L 88.781785 136.756127 
L 89.106765 134.810063 
L 89.431744 136.269611 
L 89.756724 133.837032 
L 90.081704 135.783095 
L 90.406683 136.756127 
L 91.056642 133.350516 
L 91.381622 134.810063 
L 91.706601 134.810063 
L 92.031581 132.864 
L 92.35656 133.350516 
L 92.68154 133.350516 
L 93.006519 135.296579 
L 93.331499 133.350516 
L 93.656478 133.837032 
L 93.981458 132.377484 
L 94.306437 135.296579 
L 94.631417 136.756127 
L 94.956396 133.837032 
L 95.931335 135.296579 
L 96.256314 134.810063 
L 96.581294 134.810063 
L 96.906274 134.323548 
L 97.231253 131.890968 
L 97.556233 135.296579 
L 97.881212 134.810063 
L 98.206192 134.810063 
L 98.531171 134.323548 
L 98.856151 134.810063 
L 99.18113 134.810063 
L 99.50611 135.296579 
L 99.831089 135.296579 
L 100.156069 134.810063 
L 100.806028 134.810063 
L 101.131007 135.296579 
L 101.455987 134.810063 
L 101.780966 134.810063 
L 102.105946 135.296579 
L 102.430925 134.810063 
L 102.755905 133.350516 
L 103.080885 134.323548 
L 103.405864 134.810063 
L 103.730844 135.783095 
L 104.055823 134.810063 
L 104.380803 134.323548 
L 104.705782 134.810063 
L 105.030762 134.810063 
L 105.355741 135.296579 
L 105.680721 134.323548 
L 106.0057 135.783095 
L 106.33068 134.323548 
L 106.655659 134.323548 
L 106.980639 135.296579 
L 107.305618 134.810063 
L 107.630598 134.810063 
L 107.955577 135.296579 
L 108.280557 136.269611 
L 108.605536 134.323548 
L 108.930516 133.837032 
L 109.580475 134.810063 
L 109.905455 136.756127 
L 110.230434 134.323548 
L 110.555414 134.323548 
L 110.880393 136.269611 
L 111.205373 134.323548 
L 111.530352 135.296579 
L 111.855332 134.810063 
L 112.180311 135.296579 
L 112.505291 135.296579 
L 112.83027 136.269611 
L 113.15525 134.810063 
L 113.480229 134.810063 
L 113.805209 134.323548 
L 114.130188 135.296579 
L 114.455168 138.70219 
L 114.780147 134.810063 
L 115.105127 133.837032 
L 115.755086 135.783095 
L 116.080066 138.215674 
L 116.730025 134.810063 
L 117.055004 134.323548 
L 117.704963 136.756127 
L 118.029943 134.810063 
L 118.354922 135.783095 
L 118.679902 134.323548 
L 119.004881 136.269611 
L 119.329861 134.810063 
L 119.65484 135.296579 
L 119.97982 136.269611 
L 120.304799 134.810063 
L 120.954758 134.810063 
L 121.279738 135.296579 
L 121.604717 136.756127 
L 121.929697 135.783095 
L 122.254676 136.269611 
L 122.904636 134.323548 
L 123.229615 136.269611 
L 123.879574 136.269611 
L 124.204554 136.756127 
L 124.529533 135.783095 
L 124.854513 135.783095 
L 125.179492 135.296579 
L 125.504472 135.296579 
L 125.829451 137.729158 
L 126.154431 135.296579 
L 126.47941 135.783095 
L 126.80439 135.783095 
L 127.129369 134.810063 
L 127.454349 136.756127 
L 127.779328 135.783095 
L 128.429287 136.756127 
L 128.754267 136.269611 
L 129.079247 136.269611 
L 129.729206 137.242643 
L 130.054185 136.756127 
L 130.379165 135.783095 
L 130.704144 136.269611 
L 131.029124 137.729158 
L 131.354103 140.161738 
L 132.004062 136.269611 
L 132.329042 136.269611 
L 132.654021 137.242643 
L 132.979001 137.729158 
L 133.30398 137.729158 
L 133.62896 135.296579 
L 133.953939 135.783095 
L 134.278919 136.756127 
L 134.603898 136.756127 
L 134.928878 137.729158 
L 135.253857 137.242643 
L 135.578837 137.729158 
L 135.903817 137.242643 
L 136.228796 139.188706 
L 136.553776 138.215674 
L 136.878755 136.269611 
L 137.203735 136.269611 
L 137.528714 137.242643 
L 137.853694 138.70219 
L 138.178673 138.215674 
L 138.503653 136.269611 
L 138.828632 136.269611 
L 139.153612 135.296579 
L 139.478591 138.70219 
L 139.803571 138.70219 
L 140.12855 136.756127 
L 140.45353 137.729158 
L 140.778509 136.756127 
L 141.103489 137.242643 
L 141.428468 141.134769 
L 141.753448 142.107801 
L 142.078428 138.70219 
L 142.403407 137.242643 
L 142.728387 136.756127 
L 143.053366 138.70219 
L 143.703325 145.513412 
L 144.028305 138.215674 
L 144.353284 139.188706 
L 144.678264 137.729158 
L 145.003243 137.729158 
L 145.328223 139.675222 
L 145.653202 140.648253 
L 145.978182 142.107801 
L 146.303161 137.729158 
L 146.628141 135.296579 
L 146.95312 138.70219 
L 147.603079 140.648253 
L 148.253038 136.269611 
L 148.578018 136.269611 
L 149.227977 140.161738 
L 149.552957 144.54038 
L 149.877936 138.70219 
L 150.527895 135.296579 
L 150.852875 137.729158 
L 151.177854 138.215674 
L 151.502834 141.134769 
L 151.827813 137.242643 
L 152.152793 138.70219 
L 152.477772 136.756127 
L 152.802752 136.269611 
L 153.127731 141.134769 
L 153.452711 140.161738 
L 153.77769 137.729158 
L 154.427649 136.756127 
L 155.077609 139.675222 
L 155.402588 139.675222 
L 156.052547 137.242643 
L 156.377527 140.161738 
L 156.702506 137.242643 
L 157.027486 139.675222 
L 157.352465 138.70219 
L 157.677445 140.648253 
L 158.002424 140.648253 
L 158.327404 135.296579 
L 158.652383 135.783095 
L 158.977363 139.188706 
L 159.302342 139.675222 
L 159.627322 137.729158 
L 160.277281 136.756127 
L 160.60226 137.729158 
L 160.92724 141.134769 
L 161.252219 139.188706 
L 161.577199 138.215674 
L 161.902179 140.161738 
L 162.227158 138.70219 
L 162.552138 142.107801 
L 162.877117 135.296579 
L 163.202097 135.783095 
L 163.852056 140.161738 
L 164.177035 140.648253 
L 164.502015 137.729158 
L 164.826994 137.242643 
L 165.151974 136.269611 
L 165.476953 138.70219 
L 165.801933 140.161738 
L 166.451892 137.242643 
L 166.776871 138.70219 
L 167.101851 141.134769 
L 167.42683 137.729158 
L 167.75181 135.783095 
L 168.07679 139.675222 
L 168.401769 136.756127 
L 168.726749 141.621285 
L 169.051728 139.188706 
L 169.376708 142.107801 
L 169.701687 136.756127 
L 170.026667 136.756127 
L 170.351646 139.675222 
L 170.676626 138.215674 
L 171.001605 138.70219 
L 171.326585 140.648253 
L 171.651564 130.431421 
L 171.976544 129.944905 
L 172.301523 139.188706 
L 172.626503 138.70219 
L 172.951482 136.756127 
L 173.276462 136.756127 
L 173.601441 134.810063 
L 173.926421 134.323548 
L 174.2514 130.431421 
L 174.57638 135.296579 
L 174.90136 136.756127 
L 175.551319 134.810063 
L 175.876298 131.404452 
L 176.201278 137.729158 
L 176.526257 133.837032 
L 176.851237 134.323548 
L 177.176216 132.864 
L 177.501196 134.323548 
L 177.826175 133.837032 
L 178.151155 136.756127 
L 178.476134 129.944905 
L 178.801114 134.323548 
L 179.126093 129.944905 
L 179.451073 130.431421 
L 180.101032 139.188706 
L 180.426011 131.890968 
L 180.750991 136.269611 
L 181.075971 132.864 
L 181.40095 135.783095 
L 181.72593 135.783095 
L 182.050909 129.944905 
L 182.375889 132.377484 
L 182.700868 128.971873 
L 183.025848 131.890968 
L 183.350827 138.215674 
L 183.675807 136.269611 
L 184.000786 128.485357 
L 184.650745 135.783095 
L 184.975725 130.431421 
L 185.300704 136.269611 
L 185.625684 138.215674 
L 185.950663 131.404452 
L 186.600622 127.02581 
L 186.925602 135.783095 
L 187.250581 134.810063 
L 187.900541 130.917937 
L 188.22552 132.377484 
L 188.5505 138.70219 
L 188.875479 140.161738 
L 189.200459 135.296579 
L 189.525438 133.837032 
L 190.175397 135.783095 
L 190.500377 137.729158 
L 190.825356 130.917937 
L 191.150336 135.783095 
L 191.475315 131.404452 
L 191.800295 137.242643 
L 192.125274 137.729158 
L 192.450254 135.296579 
L 192.775233 133.837032 
L 193.425192 137.242643 
L 193.750172 135.783095 
L 194.075152 132.377484 
L 194.400131 133.837032 
L 194.725111 133.837032 
L 195.05009 140.161738 
L 195.37507 132.377484 
L 195.700049 135.783095 
L 196.025029 134.323548 
L 196.350008 136.269611 
L 196.674988 139.675222 
L 196.999967 137.242643 
L 197.324947 131.890968 
L 197.649926 131.404452 
L 197.974906 138.215674 
L 198.299885 139.675222 
L 198.624865 134.810063 
L 198.949844 134.323548 
L 199.274824 130.917937 
L 199.924783 139.675222 
L 200.249762 139.188706 
L 200.574742 137.242643 
L 200.899722 140.648253 
L 201.224701 135.783095 
L 201.549681 139.188706 
L 201.87466 138.70219 
L 202.19964 139.188706 
L 202.524619 138.215674 
L 202.849599 139.188706 
L 203.174578 135.296579 
L 203.499558 140.161738 
L 203.824537 139.675222 
L 204.149517 136.269611 
L 204.474496 137.242643 
L 204.799476 139.188706 
L 205.124455 137.242643 
L 205.449435 140.161738 
L 205.774414 139.675222 
L 206.099394 140.161738 
L 206.424373 137.242643 
L 206.749353 138.215674 
L 207.074333 135.296579 
L 207.399312 139.188706 
L 207.724292 141.134769 
L 208.049271 140.161738 
L 208.374251 134.810063 
L 208.69923 137.729158 
L 209.02421 138.215674 
L 209.349189 139.675222 
L 209.674169 139.188706 
L 209.999148 137.242643 
L 210.324128 137.242643 
L 210.649107 140.648253 
L 210.974087 140.161738 
L 211.624046 141.134769 
L 212.274005 140.161738 
L 212.598984 140.648253 
L 212.923964 140.161738 
L 213.248943 137.729158 
L 213.573923 140.161738 
L 213.898903 139.188706 
L 214.223882 139.188706 
L 214.548862 141.621285 
L 214.873841 141.134769 
L 215.198821 140.161738 
L 215.5238 139.675222 
L 215.84878 140.161738 
L 216.173759 141.621285 
L 216.498739 142.107801 
L 216.823718 141.134769 
L 217.148698 137.729158 
L 217.473677 141.621285 
L 217.798657 140.648253 
L 218.123636 137.242643 
L 218.448616 141.134769 
L 218.773595 141.134769 
L 219.098575 139.675222 
L 219.423554 143.567348 
L 220.073514 138.70219 
L 220.398493 138.215674 
L 221.048452 145.513412 
L 221.373432 138.215674 
L 221.698411 137.729158 
L 222.34837 141.134769 
L 222.67335 141.134769 
L 222.998329 140.161738 
L 223.323309 142.594317 
L 223.648288 141.134769 
L 223.973268 140.648253 
L 224.298247 138.70219 
L 224.623227 138.70219 
L 224.948206 139.675222 
L 225.273186 139.675222 
L 225.598165 139.188706 
L 225.923145 139.188706 
L 226.248124 145.026896 
L 226.573104 141.134769 
L 227.223063 139.188706 
L 227.548043 135.783095 
L 227.873022 141.134769 
L 228.198002 144.053864 
L 228.847961 135.783095 
L 229.17294 134.323548 
L 229.49792 141.134769 
L 229.822899 144.54038 
L 230.472858 141.134769 
L 230.797838 133.837032 
L 231.122817 139.675222 
L 231.447797 141.134769 
L 231.772776 144.053864 
L 232.097756 143.567348 
L 232.422735 137.729158 
L 232.747715 135.783095 
L 233.072695 137.242643 
L 233.397674 152.811149 
L 233.722654 145.999928 
L 234.047633 143.567348 
L 234.372613 138.215674 
L 234.697592 137.729158 
L 235.022572 140.648253 
L 235.347551 141.621285 
L 235.672531 143.567348 
L 235.99751 143.567348 
L 236.32249 137.729158 
L 236.647469 140.161738 
L 236.972449 139.675222 
L 237.297428 141.621285 
L 237.622408 141.621285 
L 237.947387 142.107801 
L 238.272367 147.459475 
L 238.597346 137.242643 
L 238.922326 138.70219 
L 239.247305 139.188706 
L 239.897265 141.134769 
L 240.222244 141.621285 
L 240.547224 143.567348 
L 240.872203 141.134769 
L 241.522162 139.188706 
L 241.847142 140.161738 
L 242.497101 143.567348 
L 242.82208 137.242643 
L 244.121998 142.594317 
L 244.446978 138.215674 
L 244.771957 138.70219 
L 245.096937 140.161738 
L 245.421916 145.999928 
L 245.746896 141.621285 
L 246.071876 140.648253 
L 246.396855 138.70219 
L 246.721835 141.621285 
L 247.046814 140.161738 
L 247.696773 143.080833 
L 248.021753 141.134769 
L 248.346732 141.134769 
L 248.671712 141.621285 
L 248.996691 144.053864 
L 249.321671 140.648253 
L 249.64665 142.594317 
L 250.296609 139.675222 
L 250.621589 142.594317 
L 250.946568 143.080833 
L 251.271548 140.648253 
L 251.596527 140.161738 
L 251.921507 140.648253 
L 252.246486 141.621285 
L 252.571466 138.70219 
L 252.896446 143.567348 
L 253.871384 140.648253 
L 254.196364 143.080833 
L 254.521343 141.134769 
L 254.846323 141.134769 
L 255.171302 144.54038 
L 255.496282 143.567348 
L 256.146241 137.242643 
L 256.47122 137.729158 
L 256.7962 143.080833 
L 257.121179 144.54038 
L 257.446159 144.54038 
L 257.771138 140.648253 
L 258.096118 138.215674 
L 258.421097 138.70219 
L 258.746077 144.053864 
L 259.071057 144.053864 
L 259.396036 144.54038 
L 259.721016 140.161738 
L 260.370975 135.296579 
L 260.695954 143.567348 
L 261.020934 145.513412 
L 261.345913 145.513412 
L 261.995872 140.648253 
L 262.320852 140.648253 
L 262.645831 141.134769 
L 262.970811 145.026896 
L 263.29579 143.567348 
L 263.62077 145.026896 
L 263.945749 139.675222 
L 264.270729 142.594317 
L 264.595708 136.756127 
L 264.920688 143.080833 
L 265.245667 143.567348 
L 265.570647 141.134769 
L 265.895627 149.405538 
L 266.220606 143.080833 
L 266.545586 140.161738 
L 266.870565 141.621285 
L 267.195545 149.405538 
L 267.520524 145.513412 
L 267.845504 144.54038 
L 268.170483 140.161738 
L 268.495463 139.188706 
L 268.820442 140.648253 
L 269.145422 154.757213 
L 269.470401 145.026896 
L 269.795381 143.567348 
L 270.12036 139.675222 
L 270.44534 139.675222 
L 270.770319 145.513412 
L 271.095299 146.972959 
L 271.420278 146.486443 
L 272.070238 143.080833 
L 272.720197 143.080833 
L 273.045176 145.513412 
L 273.370156 145.026896 
L 273.695135 142.107801 
L 274.345094 146.972959 
L 274.670074 145.513412 
L 274.995053 146.486443 
L 275.969992 142.594317 
L 276.294971 143.080833 
L 276.94493 147.459475 
L 277.26991 143.080833 
L 277.594889 146.486443 
L 277.919869 144.54038 
L 278.244848 143.567348 
L 278.569828 144.053864 
L 278.894808 143.080833 
L 279.219787 145.999928 
L 279.544767 145.999928 
L 279.869746 145.513412 
L 280.194726 144.54038 
L 280.519705 144.54038 
L 280.844685 143.567348 
L 281.169664 144.053864 
L 281.494644 144.053864 
L 281.819623 149.405538 
L 282.144603 146.972959 
L 282.469582 145.999928 
L 283.119541 145.026896 
L 283.444521 147.459475 
L 283.7695 145.026896 
L 284.09448 145.026896 
L 284.419459 146.972959 
L 284.744439 145.999928 
L 285.069419 147.459475 
L 285.394398 144.053864 
L 286.044357 145.999928 
L 286.694316 145.999928 
L 287.019296 144.053864 
L 287.344275 144.053864 
L 287.669255 146.972959 
L 287.994234 146.972959 
L 288.319214 145.026896 
L 288.644193 144.54038 
L 288.969173 148.919023 
L 289.294152 146.972959 
L 289.619132 146.486443 
L 289.944111 150.865086 
L 290.269091 151.351602 
L 290.59407 144.54038 
L 290.91905 142.594317 
L 292.218968 150.37857 
L 292.868927 143.567348 
L 293.518886 153.297665 
L 293.843866 155.730244 
L 294.168845 142.107801 
L 294.493825 138.215674 
L 295.143784 150.865086 
L 295.468763 152.811149 
L 295.793743 150.37857 
L 296.118722 145.513412 
L 296.443702 143.567348 
L 296.768681 145.026896 
L 297.093661 152.811149 
L 297.41864 148.432507 
L 298.0686 144.053864 
L 298.718559 145.999928 
L 299.043538 152.324633 
L 299.368518 150.865086 
L 299.693497 152.324633 
L 300.018477 144.053864 
L 300.343456 143.567348 
L 300.993415 149.405538 
L 301.318395 142.107801 
L 301.643374 145.026896 
L 301.968354 145.513412 
L 302.293333 145.026896 
L 302.618313 145.513412 
L 302.943292 146.486443 
L 303.268272 146.972959 
L 303.593251 145.513412 
L 303.918231 145.026896 
L 304.24321 148.919023 
L 304.56819 147.459475 
L 304.89317 148.432507 
L 305.218149 147.945991 
L 305.543129 143.567348 
L 305.868108 144.053864 
L 306.193088 143.567348 
L 306.518067 146.486443 
L 306.843047 147.459475 
L 307.168026 145.999928 
L 307.493006 146.972959 
L 307.817985 153.297665 
L 308.467944 144.54038 
L 308.792924 144.54038 
L 309.117903 144.053864 
L 309.767862 146.486443 
L 310.092842 149.892054 
L 310.417821 144.053864 
L 311.067781 146.486443 
L 311.39276 144.053864 
L 311.71774 146.972959 
L 312.042719 145.999928 
L 312.367699 145.513412 
L 312.692678 145.999928 
L 313.017658 148.432507 
L 313.342637 147.459475 
L 313.667617 148.919023 
L 313.992596 148.432507 
L 314.317576 145.026896 
L 314.642555 146.972959 
L 315.292514 143.567348 
L 315.617494 149.405538 
L 316.917412 143.567348 
L 317.242391 145.513412 
L 317.567371 143.080833 
L 318.21733 146.486443 
L 318.54231 149.892054 
L 318.867289 149.405538 
L 319.192269 144.053864 
L 319.517248 144.053864 
L 319.842228 144.54038 
L 320.167207 143.567348 
L 320.492187 149.405538 
L 320.817166 145.999928 
L 321.142146 144.053864 
L 321.467125 143.567348 
L 321.792105 142.594317 
L 322.442064 147.459475 
L 322.767043 142.107801 
L 323.092023 145.999928 
L 323.417002 148.432507 
L 323.741982 145.513412 
L 324.066962 149.405538 
L 324.391941 147.459475 
L 324.716921 144.54038 
L 325.0419 145.999928 
L 325.36688 143.567348 
L 325.691859 143.567348 
L 326.016839 146.972959 
L 326.341818 147.459475 
L 326.666798 143.567348 
L 326.991777 150.37857 
L 327.316757 145.513412 
L 327.641736 146.486443 
L 327.966716 147.945991 
L 328.291695 145.999928 
L 328.616675 143.080833 
L 329.266634 149.405538 
L 329.591613 144.053864 
L 329.916593 143.080833 
L 330.241572 145.026896 
L 330.566552 144.053864 
L 330.891532 146.972959 
L 331.541491 144.053864 
L 331.86647 145.999928 
L 332.19145 145.999928 
L 332.516429 142.594317 
L 332.841409 145.026896 
L 333.166388 144.54038 
L 333.491368 145.999928 
L 333.816347 144.053864 
L 334.141327 144.053864 
L 334.466306 143.080833 
L 334.791286 147.945991 
L 335.441245 143.567348 
L 335.766224 144.54038 
L 336.091204 144.54038 
L 336.416183 143.567348 
L 336.741163 146.486443 
L 337.066143 145.026896 
L 337.391122 144.54038 
L 337.716102 146.486443 
L 338.041081 144.54038 
L 338.366061 144.54038 
L 339.01602 148.919023 
L 339.340999 147.459475 
L 339.665979 146.972959 
L 339.990958 144.053864 
L 340.315938 142.594317 
L 340.640917 145.513412 
L 340.965897 144.053864 
L 341.290876 146.486443 
L 341.615856 149.892054 
L 341.940835 144.053864 
L 342.265815 142.107801 
L 342.590794 146.486443 
L 343.240753 145.513412 
L 343.565733 146.486443 
L 343.890713 145.999928 
L 344.215692 144.053864 
L 344.540672 144.053864 
L 344.865651 143.567348 
L 345.190631 144.54038 
L 345.51561 144.54038 
L 345.84059 145.026896 
L 346.165569 146.972959 
L 346.490549 145.999928 
L 346.815528 143.567348 
L 347.140508 147.945991 
L 347.465487 145.513412 
L 347.790467 148.919023 
L 348.115446 145.026896 
L 348.440426 145.999928 
L 348.765405 145.513412 
L 349.090385 145.513412 
L 349.415364 148.432507 
L 349.740344 144.54038 
L 350.065324 144.54038 
L 350.390303 146.972959 
L 350.715283 144.54038 
L 351.040262 145.026896 
L 351.690221 143.080833 
L 352.015201 144.053864 
L 352.66516 147.459475 
L 352.990139 143.567348 
L 353.640098 146.486443 
L 353.965078 146.486443 
L 354.290057 148.432507 
L 354.615037 148.432507 
L 354.940016 144.053864 
L 355.264996 146.972959 
L 355.589975 142.594317 
L 355.914955 143.567348 
L 356.239934 145.999928 
L 356.564914 146.972959 
L 356.889894 147.459475 
L 357.214873 148.432507 
L 357.539853 150.865086 
L 357.864832 145.999928 
L 358.189812 147.945991 
L 358.514791 145.513412 
L 358.839771 145.513412 
L 359.16475 147.945991 
L 359.48973 146.972959 
L 359.814709 144.54038 
L 360.139689 146.972959 
L 360.464668 145.026896 
L 360.789648 145.513412 
L 361.114627 146.972959 
L 361.439607 146.972959 
L 361.764586 145.026896 
L 362.089566 145.999928 
L 362.414545 147.459475 
L 362.739525 144.54038 
L 363.064505 144.053864 
L 363.389484 144.053864 
L 363.714464 145.999928 
L 364.039443 142.594317 
L 364.364423 146.972959 
L 364.689402 146.486443 
L 365.014382 146.486443 
L 365.664341 143.080833 
L 365.98932 146.972959 
L 366.3143 143.567348 
L 366.964259 145.999928 
L 367.289238 144.54038 
L 367.614218 145.513412 
L 367.939197 146.972959 
L 368.264177 142.107801 
L 368.589156 143.567348 
L 368.914136 148.432507 
L 369.239115 145.513412 
L 369.564095 146.972959 
L 369.889075 145.026896 
L 370.539034 144.053864 
L 370.864013 145.999928 
L 371.188993 145.026896 
L 371.513972 143.567348 
L 371.838952 145.513412 
L 372.163931 145.513412 
L 372.488911 147.459475 
L 372.81389 146.972959 
L 373.13887 144.54038 
L 373.463849 145.026896 
L 373.788829 143.567348 
L 374.113808 145.026896 
L 374.438788 145.513412 
L 374.763767 147.945991 
L 375.088747 147.459475 
L 375.413726 145.513412 
L 376.063686 145.513412 
L 376.388665 145.999928 
L 376.713645 151.838118 
L 377.038624 145.026896 
L 377.363604 145.999928 
L 377.688583 144.54038 
L 378.013563 145.999928 
L 378.338542 145.026896 
L 378.663522 146.486443 
L 378.988501 145.999928 
L 379.313481 148.432507 
L 379.63846 145.999928 
L 379.96344 147.459475 
L 380.288419 144.053864 
L 380.613399 144.54038 
L 380.938378 144.54038 
L 381.263358 145.026896 
L 381.913317 147.459475 
L 382.238296 142.107801 
L 382.563276 145.999928 
L 382.888256 146.972959 
L 383.213235 145.999928 
L 383.538215 149.405538 
L 383.863194 148.432507 
L 384.188174 145.026896 
L 384.513153 144.053864 
L 384.838133 150.37857 
L 385.163112 145.513412 
L 385.488092 144.053864 
L 385.813071 147.945991 
L 386.138051 145.999928 
L 386.46303 145.999928 
L 386.78801 145.026896 
L 387.112989 145.999928 
L 387.437969 145.026896 
L 387.762948 145.513412 
L 388.412907 143.080833 
L 388.737887 144.54038 
L 389.062867 143.080833 
L 389.387846 145.999928 
L 389.712826 145.026896 
L 390.037805 146.486443 
L 390.362785 151.838118 
L 390.687764 145.026896 
L 391.012744 143.567348 
L 391.337723 145.513412 
L 391.662703 143.080833 
L 391.987682 142.107801 
L 392.312662 143.080833 
L 392.637641 143.567348 
L 392.962621 145.026896 
L 393.2876 145.513412 
L 393.937559 143.080833 
L 394.262539 147.945991 
L 394.587518 147.459475 
L 394.912498 144.053864 
L 395.237477 142.594317 
L 395.562457 144.053864 
L 395.887437 142.107801 
L 397.187355 147.459475 
L 397.512334 145.999928 
L 397.837314 143.567348 
L 398.162293 145.999928 
L 398.487273 145.026896 
L 398.487273 145.026896 
" clip-path="url(#p04b3cebc88)" style="fill: none; stroke: #ff0000; stroke-width: 1.5; stroke-linecap: square"/>
   </g>
   <g id="patch_3">
    <path d="M 57.6 307.584 
L 57.6 41.472 
" style="fill: none; stroke: #000000; stroke-width: 0.8; stroke-linejoin: miter; stroke-linecap: square"/>
   </g>
   <g id="patch_4">
    <path d="M 414.72 307.584 
L 414.72 41.472 
" style="fill: none; stroke: #000000; stroke-width: 0.8; stroke-linejoin: miter; stroke-linecap: square"/>
   </g>
   <g id="patch_5">
    <path d="M 57.6 307.584 
L 414.72 307.584 
" style="fill: none; stroke: #000000; stroke-width: 0.8; stroke-linejoin: miter; stroke-linecap: square"/>
   </g>
   <g id="patch_6">
    <path d="M 57.6 41.472 
L 414.72 41.472 
" style="fill: none; stroke: #000000; stroke-width: 0.8; stroke-linejoin: miter; stroke-linecap: square"/>
   </g>
   <g id="text_17">
    <!-- spectrumGCN+CiteSeer+WithOutGraph_CiteSeer_WithGraph_Training and Validation accuracy -->
    <g transform="translate(-48.038438 35.472) scale(0.12 -0.12)">
     <defs>
      <path id="DejaVuSans-73" d="M 2834 3397 
L 2834 2853 
Q 2591 2978 2328 3040 
Q 2066 3103 1784 3103 
Q 1356 3103 1142 2972 
Q 928 2841 928 2578 
Q 928 2378 1081 2264 
Q 1234 2150 1697 2047 
L 1894 2003 
Q 2506 1872 2764 1633 
Q 3022 1394 3022 966 
Q 3022 478 2636 193 
Q 2250 -91 1575 -91 
Q 1294 -91 989 -36 
Q 684 19 347 128 
L 347 722 
Q 666 556 975 473 
Q 1284 391 1588 391 
Q 1994 391 2212 530 
Q 2431 669 2431 922 
Q 2431 1156 2273 1281 
Q 2116 1406 1581 1522 
L 1381 1569 
Q 847 1681 609 1914 
Q 372 2147 372 2553 
Q 372 3047 722 3315 
Q 1072 3584 1716 3584 
Q 2034 3584 2315 3537 
Q 2597 3491 2834 3397 
z
" transform="scale(0.015625)"/>
      <path id="DejaVuSans-74" d="M 1172 4494 
L 1172 3500 
L 2356 3500 
L 2356 3053 
L 1172 3053 
L 1172 1153 
Q 1172 725 1289 603 
Q 1406 481 1766 481 
L 2356 481 
L 2356 0 
L 1766 0 
Q 1100 0 847 248 
Q 594 497 594 1153 
L 594 3053 
L 172 3053 
L 172 3500 
L 594 3500 
L 594 4494 
L 1172 4494 
z
" transform="scale(0.015625)"/>
      <path id="DejaVuSans-6d" d="M 3328 2828 
Q 3544 3216 3844 3400 
Q 4144 3584 4550 3584 
Q 5097 3584 5394 3201 
Q 5691 2819 5691 2113 
L 5691 0 
L 5113 0 
L 5113 2094 
Q 5113 2597 4934 2840 
Q 4756 3084 4391 3084 
Q 3944 3084 3684 2787 
Q 3425 2491 3425 1978 
L 3425 0 
L 2847 0 
L 2847 2094 
Q 2847 2600 2669 2842 
Q 2491 3084 2119 3084 
Q 1678 3084 1418 2786 
Q 1159 2488 1159 1978 
L 1159 0 
L 581 0 
L 581 3500 
L 1159 3500 
L 1159 2956 
Q 1356 3278 1631 3431 
Q 1906 3584 2284 3584 
Q 2666 3584 2933 3390 
Q 3200 3197 3328 2828 
z
" transform="scale(0.015625)"/>
      <path id="DejaVuSans-47" d="M 3809 666 
L 3809 1919 
L 2778 1919 
L 2778 2438 
L 4434 2438 
L 4434 434 
Q 4069 175 3628 42 
Q 3188 -91 2688 -91 
Q 1594 -91 976 548 
Q 359 1188 359 2328 
Q 359 3472 976 4111 
Q 1594 4750 2688 4750 
Q 3144 4750 3555 4637 
Q 3966 4525 4313 4306 
L 4313 3634 
Q 3963 3931 3569 4081 
Q 3175 4231 2741 4231 
Q 1884 4231 1454 3753 
Q 1025 3275 1025 2328 
Q 1025 1384 1454 906 
Q 1884 428 2741 428 
Q 3075 428 3337 486 
Q 3600 544 3809 666 
z
" transform="scale(0.015625)"/>
      <path id="DejaVuSans-43" d="M 4122 4306 
L 4122 3641 
Q 3803 3938 3442 4084 
Q 3081 4231 2675 4231 
Q 1875 4231 1450 3742 
Q 1025 3253 1025 2328 
Q 1025 1406 1450 917 
Q 1875 428 2675 428 
Q 3081 428 3442 575 
Q 3803 722 4122 1019 
L 4122 359 
Q 3791 134 3420 21 
Q 3050 -91 2638 -91 
Q 1578 -91 968 557 
Q 359 1206 359 2328 
Q 359 3453 968 4101 
Q 1578 4750 2638 4750 
Q 3056 4750 3426 4639 
Q 3797 4528 4122 4306 
z
" transform="scale(0.015625)"/>
      <path id="DejaVuSans-4e" d="M 628 4666 
L 1478 4666 
L 3547 763 
L 3547 4666 
L 4159 4666 
L 4159 0 
L 3309 0 
L 1241 3903 
L 1241 0 
L 628 0 
L 628 4666 
z
" transform="scale(0.015625)"/>
      <path id="DejaVuSans-2b" d="M 2944 4013 
L 2944 2272 
L 4684 2272 
L 4684 1741 
L 2944 1741 
L 2944 0 
L 2419 0 
L 2419 1741 
L 678 1741 
L 678 2272 
L 2419 2272 
L 2419 4013 
L 2944 4013 
z
" transform="scale(0.015625)"/>
      <path id="DejaVuSans-69" d="M 603 3500 
L 1178 3500 
L 1178 0 
L 603 0 
L 603 3500 
z
M 603 4863 
L 1178 4863 
L 1178 4134 
L 603 4134 
L 603 4863 
z
" transform="scale(0.015625)"/>
      <path id="DejaVuSans-53" d="M 3425 4513 
L 3425 3897 
Q 3066 4069 2747 4153 
Q 2428 4238 2131 4238 
Q 1616 4238 1336 4038 
Q 1056 3838 1056 3469 
Q 1056 3159 1242 3001 
Q 1428 2844 1947 2747 
L 2328 2669 
Q 3034 2534 3370 2195 
Q 3706 1856 3706 1288 
Q 3706 609 3251 259 
Q 2797 -91 1919 -91 
Q 1588 -91 1214 -16 
Q 841 59 441 206 
L 441 856 
Q 825 641 1194 531 
Q 1563 422 1919 422 
Q 2459 422 2753 634 
Q 3047 847 3047 1241 
Q 3047 1584 2836 1778 
Q 2625 1972 2144 2069 
L 1759 2144 
Q 1053 2284 737 2584 
Q 422 2884 422 3419 
Q 422 4038 858 4394 
Q 1294 4750 2059 4750 
Q 2388 4750 2728 4690 
Q 3069 4631 3425 4513 
z
" transform="scale(0.015625)"/>
      <path id="DejaVuSans-57" d="M 213 4666 
L 850 4666 
L 1831 722 
L 2809 4666 
L 3519 4666 
L 4500 722 
L 5478 4666 
L 6119 4666 
L 4947 0 
L 4153 0 
L 3169 4050 
L 2175 0 
L 1381 0 
L 213 4666 
z
" transform="scale(0.015625)"/>
      <path id="DejaVuSans-4f" d="M 2522 4238 
Q 1834 4238 1429 3725 
Q 1025 3213 1025 2328 
Q 1025 1447 1429 934 
Q 1834 422 2522 422 
Q 3209 422 3611 934 
Q 4013 1447 4013 2328 
Q 4013 3213 3611 3725 
Q 3209 4238 2522 4238 
z
M 2522 4750 
Q 3503 4750 4090 4092 
Q 4678 3434 4678 2328 
Q 4678 1225 4090 567 
Q 3503 -91 2522 -91 
Q 1538 -91 948 565 
Q 359 1222 359 2328 
Q 359 3434 948 4092 
Q 1538 4750 2522 4750 
z
" transform="scale(0.015625)"/>
      <path id="DejaVuSans-5f" d="M 3263 -1063 
L 3263 -1509 
L -63 -1509 
L -63 -1063 
L 3263 -1063 
z
" transform="scale(0.015625)"/>
      <path id="DejaVuSans-54" d="M -19 4666 
L 3928 4666 
L 3928 4134 
L 2272 4134 
L 2272 0 
L 1638 0 
L 1638 4134 
L -19 4134 
L -19 4666 
z
" transform="scale(0.015625)"/>
      <path id="DejaVuSans-6e" d="M 3513 2113 
L 3513 0 
L 2938 0 
L 2938 2094 
Q 2938 2591 2744 2837 
Q 2550 3084 2163 3084 
Q 1697 3084 1428 2787 
Q 1159 2491 1159 1978 
L 1159 0 
L 581 0 
L 581 3500 
L 1159 3500 
L 1159 2956 
Q 1366 3272 1645 3428 
Q 1925 3584 2291 3584 
Q 2894 3584 3203 3211 
Q 3513 2838 3513 2113 
z
" transform="scale(0.015625)"/>
      <path id="DejaVuSans-67" d="M 2906 1791 
Q 2906 2416 2648 2759 
Q 2391 3103 1925 3103 
Q 1463 3103 1205 2759 
Q 947 2416 947 1791 
Q 947 1169 1205 825 
Q 1463 481 1925 481 
Q 2391 481 2648 825 
Q 2906 1169 2906 1791 
z
M 3481 434 
Q 3481 -459 3084 -895 
Q 2688 -1331 1869 -1331 
Q 1566 -1331 1297 -1286 
Q 1028 -1241 775 -1147 
L 775 -588 
Q 1028 -725 1275 -790 
Q 1522 -856 1778 -856 
Q 2344 -856 2625 -561 
Q 2906 -266 2906 331 
L 2906 616 
Q 2728 306 2450 153 
Q 2172 0 1784 0 
Q 1141 0 747 490 
Q 353 981 353 1791 
Q 353 2603 747 3093 
Q 1141 3584 1784 3584 
Q 2172 3584 2450 3431 
Q 2728 3278 2906 2969 
L 2906 3500 
L 3481 3500 
L 3481 434 
z
" transform="scale(0.015625)"/>
      <path id="DejaVuSans-20" transform="scale(0.015625)"/>
      <path id="DejaVuSans-64" d="M 2906 2969 
L 2906 4863 
L 3481 4863 
L 3481 0 
L 2906 0 
L 2906 525 
Q 2725 213 2448 61 
Q 2172 -91 1784 -91 
Q 1150 -91 751 415 
Q 353 922 353 1747 
Q 353 2572 751 3078 
Q 1150 3584 1784 3584 
Q 2172 3584 2448 3432 
Q 2725 3281 2906 2969 
z
M 947 1747 
Q 947 1113 1208 752 
Q 1469 391 1925 391 
Q 2381 391 2643 752 
Q 2906 1113 2906 1747 
Q 2906 2381 2643 2742 
Q 2381 3103 1925 3103 
Q 1469 3103 1208 2742 
Q 947 2381 947 1747 
z
" transform="scale(0.015625)"/>
      <path id="DejaVuSans-56" d="M 1831 0 
L 50 4666 
L 709 4666 
L 2188 738 
L 3669 4666 
L 4325 4666 
L 2547 0 
L 1831 0 
z
" transform="scale(0.015625)"/>
      <path id="DejaVuSans-6c" d="M 603 4863 
L 1178 4863 
L 1178 0 
L 603 0 
L 603 4863 
z
" transform="scale(0.015625)"/>
     </defs>
     <use xlink:href="#DejaVuSans-73"/>
     <use xlink:href="#DejaVuSans-70" x="52.099609"/>
     <use xlink:href="#DejaVuSans-65" x="115.576172"/>
     <use xlink:href="#DejaVuSans-63" x="177.099609"/>
     <use xlink:href="#DejaVuSans-74" x="232.080078"/>
     <use xlink:href="#DejaVuSans-72" x="271.289062"/>
     <use xlink:href="#DejaVuSans-75" x="312.402344"/>
     <use xlink:href="#DejaVuSans-6d" x="375.78125"/>
     <use xlink:href="#DejaVuSans-47" x="473.193359"/>
     <use xlink:href="#DejaVuSans-43" x="550.683594"/>
     <use xlink:href="#DejaVuSans-4e" x="620.507812"/>
     <use xlink:href="#DejaVuSans-2b" x="695.3125"/>
     <use xlink:href="#DejaVuSans-43" x="779.101562"/>
     <use xlink:href="#DejaVuSans-69" x="848.925781"/>
     <use xlink:href="#DejaVuSans-74" x="876.708984"/>
     <use xlink:href="#DejaVuSans-65" x="915.917969"/>
     <use xlink:href="#DejaVuSans-53" x="977.441406"/>
     <use xlink:href="#DejaVuSans-65" x="1040.917969"/>
     <use xlink:href="#DejaVuSans-65" x="1102.441406"/>
     <use xlink:href="#DejaVuSans-72" x="1163.964844"/>
     <use xlink:href="#DejaVuSans-2b" x="1205.078125"/>
     <use xlink:href="#DejaVuSans-57" x="1288.867188"/>
     <use xlink:href="#DejaVuSans-69" x="1385.494141"/>
     <use xlink:href="#DejaVuSans-74" x="1413.277344"/>
     <use xlink:href="#DejaVuSans-68" x="1452.486328"/>
     <use xlink:href="#DejaVuSans-4f" x="1515.865234"/>
     <use xlink:href="#DejaVuSans-75" x="1594.576172"/>
     <use xlink:href="#DejaVuSans-74" x="1657.955078"/>
     <use xlink:href="#DejaVuSans-47" x="1697.164062"/>
     <use xlink:href="#DejaVuSans-72" x="1774.654297"/>
     <use xlink:href="#DejaVuSans-61" x="1815.767578"/>
     <use xlink:href="#DejaVuSans-70" x="1877.046875"/>
     <use xlink:href="#DejaVuSans-68" x="1940.523438"/>
     <use xlink:href="#DejaVuSans-5f" x="2003.902344"/>
     <use xlink:href="#DejaVuSans-43" x="2053.902344"/>
     <use xlink:href="#DejaVuSans-69" x="2123.726562"/>
     <use xlink:href="#DejaVuSans-74" x="2151.509766"/>
     <use xlink:href="#DejaVuSans-65" x="2190.71875"/>
     <use xlink:href="#DejaVuSans-53" x="2252.242188"/>
     <use xlink:href="#DejaVuSans-65" x="2315.71875"/>
     <use xlink:href="#DejaVuSans-65" x="2377.242188"/>
     <use xlink:href="#DejaVuSans-72" x="2438.765625"/>
     <use xlink:href="#DejaVuSans-5f" x="2479.878906"/>
     <use xlink:href="#DejaVuSans-57" x="2529.878906"/>
     <use xlink:href="#DejaVuSans-69" x="2626.505859"/>
     <use xlink:href="#DejaVuSans-74" x="2654.289062"/>
     <use xlink:href="#DejaVuSans-68" x="2693.498047"/>
     <use xlink:href="#DejaVuSans-47" x="2756.876953"/>
     <use xlink:href="#DejaVuSans-72" x="2834.367188"/>
     <use xlink:href="#DejaVuSans-61" x="2875.480469"/>
     <use xlink:href="#DejaVuSans-70" x="2936.759766"/>
     <use xlink:href="#DejaVuSans-68" x="3000.236328"/>
     <use xlink:href="#DejaVuSans-5f" x="3063.615234"/>
     <use xlink:href="#DejaVuSans-54" x="3113.615234"/>
     <use xlink:href="#DejaVuSans-72" x="3159.949219"/>
     <use xlink:href="#DejaVuSans-61" x="3201.0625"/>
     <use xlink:href="#DejaVuSans-69" x="3262.341797"/>
     <use xlink:href="#DejaVuSans-6e" x="3290.125"/>
     <use xlink:href="#DejaVuSans-69" x="3353.503906"/>
     <use xlink:href="#DejaVuSans-6e" x="3381.287109"/>
     <use xlink:href="#DejaVuSans-67" x="3444.666016"/>
     <use xlink:href="#DejaVuSans-20" x="3508.142578"/>
     <use xlink:href="#DejaVuSans-61" x="3539.929688"/>
     <use xlink:href="#DejaVuSans-6e" x="3601.208984"/>
     <use xlink:href="#DejaVuSans-64" x="3664.587891"/>
     <use xlink:href="#DejaVuSans-20" x="3728.064453"/>
     <use xlink:href="#DejaVuSans-56" x="3759.851562"/>
     <use xlink:href="#DejaVuSans-61" x="3820.509766"/>
     <use xlink:href="#DejaVuSans-6c" x="3881.789062"/>
     <use xlink:href="#DejaVuSans-69" x="3909.572266"/>
     <use xlink:href="#DejaVuSans-64" x="3937.355469"/>
     <use xlink:href="#DejaVuSans-61" x="4000.832031"/>
     <use xlink:href="#DejaVuSans-74" x="4062.111328"/>
     <use xlink:href="#DejaVuSans-69" x="4101.320312"/>
     <use xlink:href="#DejaVuSans-6f" x="4129.103516"/>
     <use xlink:href="#DejaVuSans-6e" x="4190.285156"/>
     <use xlink:href="#DejaVuSans-20" x="4253.664062"/>
     <use xlink:href="#DejaVuSans-61" x="4285.451172"/>
     <use xlink:href="#DejaVuSans-63" x="4346.730469"/>
     <use xlink:href="#DejaVuSans-63" x="4401.710938"/>
     <use xlink:href="#DejaVuSans-75" x="4456.691406"/>
     <use xlink:href="#DejaVuSans-72" x="4520.070312"/>
     <use xlink:href="#DejaVuSans-61" x="4561.183594"/>
     <use xlink:href="#DejaVuSans-63" x="4622.462891"/>
     <use xlink:href="#DejaVuSans-79" x="4677.443359"/>
    </g>
   </g>
   <g id="legend_1">
    <g id="patch_7">
     <path d="M 64.6 93.506375 
L 164.295312 93.506375 
Q 166.295312 93.506375 166.295312 91.506375 
L 166.295312 48.472 
Q 166.295312 46.472 164.295312 46.472 
L 64.6 46.472 
Q 62.6 46.472 62.6 48.472 
L 62.6 91.506375 
Q 62.6 93.506375 64.6 93.506375 
z
" style="fill: #ffffff; opacity: 0.8; stroke: #cccccc; stroke-linejoin: miter"/>
    </g>
    <g id="line2d_18">
     <path d="M 66.6 54.570438 
L 76.6 54.570438 
L 86.6 54.570438 
" style="fill: none; stroke: #0000ff; stroke-width: 1.5; stroke-linecap: square"/>
    </g>
    <g id="text_18">
     <!-- training set -->
     <g transform="translate(94.6 58.070438) scale(0.1 -0.1)">
      <use xlink:href="#DejaVuSans-74"/>
      <use xlink:href="#DejaVuSans-72" x="39.208984"/>
      <use xlink:href="#DejaVuSans-61" x="80.322266"/>
      <use xlink:href="#DejaVuSans-69" x="141.601562"/>
      <use xlink:href="#DejaVuSans-6e" x="169.384766"/>
      <use xlink:href="#DejaVuSans-69" x="232.763672"/>
      <use xlink:href="#DejaVuSans-6e" x="260.546875"/>
      <use xlink:href="#DejaVuSans-67" x="323.925781"/>
      <use xlink:href="#DejaVuSans-20" x="387.402344"/>
      <use xlink:href="#DejaVuSans-73" x="419.189453"/>
      <use xlink:href="#DejaVuSans-65" x="471.289062"/>
      <use xlink:href="#DejaVuSans-74" x="532.8125"/>
     </g>
    </g>
    <g id="line2d_19">
     <path d="M 66.6 69.248563 
L 76.6 69.248563 
L 86.6 69.248563 
" style="fill: none; stroke: #008000; stroke-width: 1.5; stroke-linecap: square"/>
    </g>
    <g id="text_19">
     <!-- validation set -->
     <g transform="translate(94.6 72.748563) scale(0.1 -0.1)">
      <defs>
       <path id="DejaVuSans-76" d="M 191 3500 
L 800 3500 
L 1894 563 
L 2988 3500 
L 3597 3500 
L 2284 0 
L 1503 0 
L 191 3500 
z
" transform="scale(0.015625)"/>
      </defs>
      <use xlink:href="#DejaVuSans-76"/>
      <use xlink:href="#DejaVuSans-61" x="59.179688"/>
      <use xlink:href="#DejaVuSans-6c" x="120.458984"/>
      <use xlink:href="#DejaVuSans-69" x="148.242188"/>
      <use xlink:href="#DejaVuSans-64" x="176.025391"/>
      <use xlink:href="#DejaVuSans-61" x="239.501953"/>
      <use xlink:href="#DejaVuSans-74" x="300.78125"/>
      <use xlink:href="#DejaVuSans-69" x="339.990234"/>
      <use xlink:href="#DejaVuSans-6f" x="367.773438"/>
      <use xlink:href="#DejaVuSans-6e" x="428.955078"/>
      <use xlink:href="#DejaVuSans-20" x="492.333984"/>
      <use xlink:href="#DejaVuSans-73" x="524.121094"/>
      <use xlink:href="#DejaVuSans-65" x="576.220703"/>
      <use xlink:href="#DejaVuSans-74" x="637.744141"/>
     </g>
    </g>
    <g id="line2d_20">
     <path d="M 66.6 83.926688 
L 76.6 83.926688 
L 86.6 83.926688 
" style="fill: none; stroke: #ff0000; stroke-width: 1.5; stroke-linecap: square"/>
    </g>
    <g id="text_20">
     <!-- test set -->
     <g transform="translate(94.6 87.426688) scale(0.1 -0.1)">
      <use xlink:href="#DejaVuSans-74"/>
      <use xlink:href="#DejaVuSans-65" x="39.208984"/>
      <use xlink:href="#DejaVuSans-73" x="100.732422"/>
      <use xlink:href="#DejaVuSans-74" x="152.832031"/>
      <use xlink:href="#DejaVuSans-20" x="192.041016"/>
      <use xlink:href="#DejaVuSans-73" x="223.828125"/>
      <use xlink:href="#DejaVuSans-65" x="275.927734"/>
      <use xlink:href="#DejaVuSans-74" x="337.451172"/>
     </g>
    </g>
   </g>
  </g>
 </g>
 <defs>
  <clipPath id="p04b3cebc88">
   <rect x="57.6" y="41.472" width="357.12" height="266.112"/>
  </clipPath>
 </defs>
</svg>
