<?xml version="1.0" encoding="utf-8" standalone="no"?>
<!DOCTYPE svg PUBLIC "-//W3C//DTD SVG 1.1//EN"
  "http://www.w3.org/Graphics/SVG/1.1/DTD/svg11.dtd">
<svg xmlns:xlink="http://www.w3.org/1999/xlink" width="460.8pt" height="345.6pt" viewBox="0 0 460.8 345.6" xmlns="http://www.w3.org/2000/svg" version="1.1">
 <metadata>
  <rdf:RDF xmlns:dc="http://purl.org/dc/elements/1.1/" xmlns:cc="http://creativecommons.org/ns#" xmlns:rdf="http://www.w3.org/1999/02/22-rdf-syntax-ns#">
   <cc:Work>
    <dc:type rdf:resource="http://purl.org/dc/dcmitype/StillImage"/>
    <dc:date>2023-05-02T21:01:01.402029</dc:date>
    <dc:format>image/svg+xml</dc:format>
    <dc:creator>
     <cc:Agent>
      <dc:title>Matplotlib v3.6.2, https://matplotlib.org/</dc:title>
     </cc:Agent>
    </dc:creator>
   </cc:Work>
  </rdf:RDF>
 </metadata>
 <defs>
  <style type="text/css">*{stroke-linejoin: round; stroke-linecap: butt}</style>
 </defs>
 <g id="figure_1">
  <g id="patch_1">
   <path d="M 0 345.6 
L 460.8 345.6 
L 460.8 0 
L 0 0 
z
" style="fill: #ffffff"/>
  </g>
  <g id="axes_1">
   <g id="patch_2">
    <path d="M 57.6 307.584 
L 414.72 307.584 
L 414.72 41.472 
L 57.6 41.472 
z
" style="fill: #ffffff"/>
   </g>
   <g id="matplotlib.axis_1">
    <g id="xtick_1">
     <g id="line2d_1">
      <defs>
       <path id="m8b1aad2627" d="M 0 0 
L 0 3.5 
" style="stroke: #000000; stroke-width: 0.8"/>
      </defs>
      <g>
       <use xlink:href="#m8b1aad2627" x="73.182117" y="307.584" style="stroke: #000000; stroke-width: 0.8"/>
      </g>
     </g>
     <g id="text_1">
      <!-- 0 -->
      <g transform="translate(70.000867 322.182437) scale(0.1 -0.1)">
       <defs>
        <path id="DejaVuSans-30" d="M 2034 4250 
Q 1547 4250 1301 3770 
Q 1056 3291 1056 2328 
Q 1056 1369 1301 889 
Q 1547 409 2034 409 
Q 2525 409 2770 889 
Q 3016 1369 3016 2328 
Q 3016 3291 2770 3770 
Q 2525 4250 2034 4250 
z
M 2034 4750 
Q 2819 4750 3233 4129 
Q 3647 3509 3647 2328 
Q 3647 1150 3233 529 
Q 2819 -91 2034 -91 
Q 1250 -91 836 529 
Q 422 1150 422 2328 
Q 422 3509 836 4129 
Q 1250 4750 2034 4750 
z
" transform="scale(0.015625)"/>
       </defs>
       <use xlink:href="#DejaVuSans-30"/>
      </g>
     </g>
    </g>
    <g id="xtick_2">
     <g id="line2d_2">
      <g>
       <use xlink:href="#m8b1aad2627" x="138.243148" y="307.584" style="stroke: #000000; stroke-width: 0.8"/>
      </g>
     </g>
     <g id="text_2">
      <!-- 100 -->
      <g transform="translate(128.699398 322.182437) scale(0.1 -0.1)">
       <defs>
        <path id="DejaVuSans-31" d="M 794 531 
L 1825 531 
L 1825 4091 
L 703 3866 
L 703 4441 
L 1819 4666 
L 2450 4666 
L 2450 531 
L 3481 531 
L 3481 0 
L 794 0 
L 794 531 
z
" transform="scale(0.015625)"/>
       </defs>
       <use xlink:href="#DejaVuSans-31"/>
       <use xlink:href="#DejaVuSans-30" x="63.623047"/>
       <use xlink:href="#DejaVuSans-30" x="127.246094"/>
      </g>
     </g>
    </g>
    <g id="xtick_3">
     <g id="line2d_3">
      <g>
       <use xlink:href="#m8b1aad2627" x="203.304179" y="307.584" style="stroke: #000000; stroke-width: 0.8"/>
      </g>
     </g>
     <g id="text_3">
      <!-- 200 -->
      <g transform="translate(193.760429 322.182437) scale(0.1 -0.1)">
       <defs>
        <path id="DejaVuSans-32" d="M 1228 531 
L 3431 531 
L 3431 0 
L 469 0 
L 469 531 
Q 828 903 1448 1529 
Q 2069 2156 2228 2338 
Q 2531 2678 2651 2914 
Q 2772 3150 2772 3378 
Q 2772 3750 2511 3984 
Q 2250 4219 1831 4219 
Q 1534 4219 1204 4116 
Q 875 4013 500 3803 
L 500 4441 
Q 881 4594 1212 4672 
Q 1544 4750 1819 4750 
Q 2544 4750 2975 4387 
Q 3406 4025 3406 3419 
Q 3406 3131 3298 2873 
Q 3191 2616 2906 2266 
Q 2828 2175 2409 1742 
Q 1991 1309 1228 531 
z
" transform="scale(0.015625)"/>
       </defs>
       <use xlink:href="#DejaVuSans-32"/>
       <use xlink:href="#DejaVuSans-30" x="63.623047"/>
       <use xlink:href="#DejaVuSans-30" x="127.246094"/>
      </g>
     </g>
    </g>
    <g id="xtick_4">
     <g id="line2d_4">
      <g>
       <use xlink:href="#m8b1aad2627" x="268.36521" y="307.584" style="stroke: #000000; stroke-width: 0.8"/>
      </g>
     </g>
     <g id="text_4">
      <!-- 300 -->
      <g transform="translate(258.82146 322.182437) scale(0.1 -0.1)">
       <defs>
        <path id="DejaVuSans-33" d="M 2597 2516 
Q 3050 2419 3304 2112 
Q 3559 1806 3559 1356 
Q 3559 666 3084 287 
Q 2609 -91 1734 -91 
Q 1441 -91 1130 -33 
Q 819 25 488 141 
L 488 750 
Q 750 597 1062 519 
Q 1375 441 1716 441 
Q 2309 441 2620 675 
Q 2931 909 2931 1356 
Q 2931 1769 2642 2001 
Q 2353 2234 1838 2234 
L 1294 2234 
L 1294 2753 
L 1863 2753 
Q 2328 2753 2575 2939 
Q 2822 3125 2822 3475 
Q 2822 3834 2567 4026 
Q 2313 4219 1838 4219 
Q 1578 4219 1281 4162 
Q 984 4106 628 3988 
L 628 4550 
Q 988 4650 1302 4700 
Q 1616 4750 1894 4750 
Q 2613 4750 3031 4423 
Q 3450 4097 3450 3541 
Q 3450 3153 3228 2886 
Q 3006 2619 2597 2516 
z
" transform="scale(0.015625)"/>
       </defs>
       <use xlink:href="#DejaVuSans-33"/>
       <use xlink:href="#DejaVuSans-30" x="63.623047"/>
       <use xlink:href="#DejaVuSans-30" x="127.246094"/>
      </g>
     </g>
    </g>
    <g id="xtick_5">
     <g id="line2d_5">
      <g>
       <use xlink:href="#m8b1aad2627" x="333.426242" y="307.584" style="stroke: #000000; stroke-width: 0.8"/>
      </g>
     </g>
     <g id="text_5">
      <!-- 400 -->
      <g transform="translate(323.882492 322.182437) scale(0.1 -0.1)">
       <defs>
        <path id="DejaVuSans-34" d="M 2419 4116 
L 825 1625 
L 2419 1625 
L 2419 4116 
z
M 2253 4666 
L 3047 4666 
L 3047 1625 
L 3713 1625 
L 3713 1100 
L 3047 1100 
L 3047 0 
L 2419 0 
L 2419 1100 
L 313 1100 
L 313 1709 
L 2253 4666 
z
" transform="scale(0.015625)"/>
       </defs>
       <use xlink:href="#DejaVuSans-34"/>
       <use xlink:href="#DejaVuSans-30" x="63.623047"/>
       <use xlink:href="#DejaVuSans-30" x="127.246094"/>
      </g>
     </g>
    </g>
    <g id="xtick_6">
     <g id="line2d_6">
      <g>
       <use xlink:href="#m8b1aad2627" x="398.487273" y="307.584" style="stroke: #000000; stroke-width: 0.8"/>
      </g>
     </g>
     <g id="text_6">
      <!-- 500 -->
      <g transform="translate(388.943523 322.182437) scale(0.1 -0.1)">
       <defs>
        <path id="DejaVuSans-35" d="M 691 4666 
L 3169 4666 
L 3169 4134 
L 1269 4134 
L 1269 2991 
Q 1406 3038 1543 3061 
Q 1681 3084 1819 3084 
Q 2600 3084 3056 2656 
Q 3513 2228 3513 1497 
Q 3513 744 3044 326 
Q 2575 -91 1722 -91 
Q 1428 -91 1123 -41 
Q 819 9 494 109 
L 494 744 
Q 775 591 1075 516 
Q 1375 441 1709 441 
Q 2250 441 2565 725 
Q 2881 1009 2881 1497 
Q 2881 1984 2565 2268 
Q 2250 2553 1709 2553 
Q 1456 2553 1204 2497 
Q 953 2441 691 2322 
L 691 4666 
z
" transform="scale(0.015625)"/>
       </defs>
       <use xlink:href="#DejaVuSans-35"/>
       <use xlink:href="#DejaVuSans-30" x="63.623047"/>
       <use xlink:href="#DejaVuSans-30" x="127.246094"/>
      </g>
     </g>
    </g>
    <g id="text_7">
     <!-- epoch -->
     <g transform="translate(220.931875 335.860562) scale(0.1 -0.1)">
      <defs>
       <path id="DejaVuSans-65" d="M 3597 1894 
L 3597 1613 
L 953 1613 
Q 991 1019 1311 708 
Q 1631 397 2203 397 
Q 2534 397 2845 478 
Q 3156 559 3463 722 
L 3463 178 
Q 3153 47 2828 -22 
Q 2503 -91 2169 -91 
Q 1331 -91 842 396 
Q 353 884 353 1716 
Q 353 2575 817 3079 
Q 1281 3584 2069 3584 
Q 2775 3584 3186 3129 
Q 3597 2675 3597 1894 
z
M 3022 2063 
Q 3016 2534 2758 2815 
Q 2500 3097 2075 3097 
Q 1594 3097 1305 2825 
Q 1016 2553 972 2059 
L 3022 2063 
z
" transform="scale(0.015625)"/>
       <path id="DejaVuSans-70" d="M 1159 525 
L 1159 -1331 
L 581 -1331 
L 581 3500 
L 1159 3500 
L 1159 2969 
Q 1341 3281 1617 3432 
Q 1894 3584 2278 3584 
Q 2916 3584 3314 3078 
Q 3713 2572 3713 1747 
Q 3713 922 3314 415 
Q 2916 -91 2278 -91 
Q 1894 -91 1617 61 
Q 1341 213 1159 525 
z
M 3116 1747 
Q 3116 2381 2855 2742 
Q 2594 3103 2138 3103 
Q 1681 3103 1420 2742 
Q 1159 2381 1159 1747 
Q 1159 1113 1420 752 
Q 1681 391 2138 391 
Q 2594 391 2855 752 
Q 3116 1113 3116 1747 
z
" transform="scale(0.015625)"/>
       <path id="DejaVuSans-6f" d="M 1959 3097 
Q 1497 3097 1228 2736 
Q 959 2375 959 1747 
Q 959 1119 1226 758 
Q 1494 397 1959 397 
Q 2419 397 2687 759 
Q 2956 1122 2956 1747 
Q 2956 2369 2687 2733 
Q 2419 3097 1959 3097 
z
M 1959 3584 
Q 2709 3584 3137 3096 
Q 3566 2609 3566 1747 
Q 3566 888 3137 398 
Q 2709 -91 1959 -91 
Q 1206 -91 779 398 
Q 353 888 353 1747 
Q 353 2609 779 3096 
Q 1206 3584 1959 3584 
z
" transform="scale(0.015625)"/>
       <path id="DejaVuSans-63" d="M 3122 3366 
L 3122 2828 
Q 2878 2963 2633 3030 
Q 2388 3097 2138 3097 
Q 1578 3097 1268 2742 
Q 959 2388 959 1747 
Q 959 1106 1268 751 
Q 1578 397 2138 397 
Q 2388 397 2633 464 
Q 2878 531 3122 666 
L 3122 134 
Q 2881 22 2623 -34 
Q 2366 -91 2075 -91 
Q 1284 -91 818 406 
Q 353 903 353 1747 
Q 353 2603 823 3093 
Q 1294 3584 2113 3584 
Q 2378 3584 2631 3529 
Q 2884 3475 3122 3366 
z
" transform="scale(0.015625)"/>
       <path id="DejaVuSans-68" d="M 3513 2113 
L 3513 0 
L 2938 0 
L 2938 2094 
Q 2938 2591 2744 2837 
Q 2550 3084 2163 3084 
Q 1697 3084 1428 2787 
Q 1159 2491 1159 1978 
L 1159 0 
L 581 0 
L 581 4863 
L 1159 4863 
L 1159 2956 
Q 1366 3272 1645 3428 
Q 1925 3584 2291 3584 
Q 2894 3584 3203 3211 
Q 3513 2838 3513 2113 
z
" transform="scale(0.015625)"/>
      </defs>
      <use xlink:href="#DejaVuSans-65"/>
      <use xlink:href="#DejaVuSans-70" x="61.523438"/>
      <use xlink:href="#DejaVuSans-6f" x="125"/>
      <use xlink:href="#DejaVuSans-63" x="186.181641"/>
      <use xlink:href="#DejaVuSans-68" x="241.162109"/>
     </g>
    </g>
   </g>
   <g id="matplotlib.axis_2">
    <g id="ytick_1">
     <g id="line2d_7">
      <defs>
       <path id="m7a577b488f" d="M 0 0 
L -3.5 0 
" style="stroke: #000000; stroke-width: 0.8"/>
      </defs>
      <g>
       <use xlink:href="#m7a577b488f" x="57.6" y="287.513053" style="stroke: #000000; stroke-width: 0.8"/>
      </g>
     </g>
     <g id="text_8">
      <!-- 0.1 -->
      <g transform="translate(34.696875 291.312271) scale(0.1 -0.1)">
       <defs>
        <path id="DejaVuSans-2e" d="M 684 794 
L 1344 794 
L 1344 0 
L 684 0 
L 684 794 
z
" transform="scale(0.015625)"/>
       </defs>
       <use xlink:href="#DejaVuSans-30"/>
       <use xlink:href="#DejaVuSans-2e" x="63.623047"/>
       <use xlink:href="#DejaVuSans-31" x="95.410156"/>
      </g>
     </g>
    </g>
    <g id="ytick_2">
     <g id="line2d_8">
      <g>
       <use xlink:href="#m7a577b488f" x="57.6" y="234.462316" style="stroke: #000000; stroke-width: 0.8"/>
      </g>
     </g>
     <g id="text_9">
      <!-- 0.2 -->
      <g transform="translate(34.696875 238.261535) scale(0.1 -0.1)">
       <use xlink:href="#DejaVuSans-30"/>
       <use xlink:href="#DejaVuSans-2e" x="63.623047"/>
       <use xlink:href="#DejaVuSans-32" x="95.410156"/>
      </g>
     </g>
    </g>
    <g id="ytick_3">
     <g id="line2d_9">
      <g>
       <use xlink:href="#m7a577b488f" x="57.6" y="181.411579" style="stroke: #000000; stroke-width: 0.8"/>
      </g>
     </g>
     <g id="text_10">
      <!-- 0.3 -->
      <g transform="translate(34.696875 185.210798) scale(0.1 -0.1)">
       <use xlink:href="#DejaVuSans-30"/>
       <use xlink:href="#DejaVuSans-2e" x="63.623047"/>
       <use xlink:href="#DejaVuSans-33" x="95.410156"/>
      </g>
     </g>
    </g>
    <g id="ytick_4">
     <g id="line2d_10">
      <g>
       <use xlink:href="#m7a577b488f" x="57.6" y="128.360842" style="stroke: #000000; stroke-width: 0.8"/>
      </g>
     </g>
     <g id="text_11">
      <!-- 0.4 -->
      <g transform="translate(34.696875 132.160061) scale(0.1 -0.1)">
       <use xlink:href="#DejaVuSans-30"/>
       <use xlink:href="#DejaVuSans-2e" x="63.623047"/>
       <use xlink:href="#DejaVuSans-34" x="95.410156"/>
      </g>
     </g>
    </g>
    <g id="ytick_5">
     <g id="line2d_11">
      <g>
       <use xlink:href="#m7a577b488f" x="57.6" y="75.310105" style="stroke: #000000; stroke-width: 0.8"/>
      </g>
     </g>
     <g id="text_12">
      <!-- 0.5 -->
      <g transform="translate(34.696875 79.109324) scale(0.1 -0.1)">
       <use xlink:href="#DejaVuSans-30"/>
       <use xlink:href="#DejaVuSans-2e" x="63.623047"/>
       <use xlink:href="#DejaVuSans-35" x="95.410156"/>
      </g>
     </g>
    </g>
    <g id="text_13">
     <!-- accuracy -->
     <g transform="translate(28.617187 197.087375) rotate(-90) scale(0.1 -0.1)">
      <defs>
       <path id="DejaVuSans-61" d="M 2194 1759 
Q 1497 1759 1228 1600 
Q 959 1441 959 1056 
Q 959 750 1161 570 
Q 1363 391 1709 391 
Q 2188 391 2477 730 
Q 2766 1069 2766 1631 
L 2766 1759 
L 2194 1759 
z
M 3341 1997 
L 3341 0 
L 2766 0 
L 2766 531 
Q 2569 213 2275 61 
Q 1981 -91 1556 -91 
Q 1019 -91 701 211 
Q 384 513 384 1019 
Q 384 1609 779 1909 
Q 1175 2209 1959 2209 
L 2766 2209 
L 2766 2266 
Q 2766 2663 2505 2880 
Q 2244 3097 1772 3097 
Q 1472 3097 1187 3025 
Q 903 2953 641 2809 
L 641 3341 
Q 956 3463 1253 3523 
Q 1550 3584 1831 3584 
Q 2591 3584 2966 3190 
Q 3341 2797 3341 1997 
z
" transform="scale(0.015625)"/>
       <path id="DejaVuSans-75" d="M 544 1381 
L 544 3500 
L 1119 3500 
L 1119 1403 
Q 1119 906 1312 657 
Q 1506 409 1894 409 
Q 2359 409 2629 706 
Q 2900 1003 2900 1516 
L 2900 3500 
L 3475 3500 
L 3475 0 
L 2900 0 
L 2900 538 
Q 2691 219 2414 64 
Q 2138 -91 1772 -91 
Q 1169 -91 856 284 
Q 544 659 544 1381 
z
M 1991 3584 
L 1991 3584 
z
" transform="scale(0.015625)"/>
       <path id="DejaVuSans-72" d="M 2631 2963 
Q 2534 3019 2420 3045 
Q 2306 3072 2169 3072 
Q 1681 3072 1420 2755 
Q 1159 2438 1159 1844 
L 1159 0 
L 581 0 
L 581 3500 
L 1159 3500 
L 1159 2956 
Q 1341 3275 1631 3429 
Q 1922 3584 2338 3584 
Q 2397 3584 2469 3576 
Q 2541 3569 2628 3553 
L 2631 2963 
z
" transform="scale(0.015625)"/>
       <path id="DejaVuSans-79" d="M 2059 -325 
Q 1816 -950 1584 -1140 
Q 1353 -1331 966 -1331 
L 506 -1331 
L 506 -850 
L 844 -850 
Q 1081 -850 1212 -737 
Q 1344 -625 1503 -206 
L 1606 56 
L 191 3500 
L 800 3500 
L 1894 763 
L 2988 3500 
L 3597 3500 
L 2059 -325 
z
" transform="scale(0.015625)"/>
      </defs>
      <use xlink:href="#DejaVuSans-61"/>
      <use xlink:href="#DejaVuSans-63" x="61.279297"/>
      <use xlink:href="#DejaVuSans-63" x="116.259766"/>
      <use xlink:href="#DejaVuSans-75" x="171.240234"/>
      <use xlink:href="#DejaVuSans-72" x="234.619141"/>
      <use xlink:href="#DejaVuSans-61" x="275.732422"/>
      <use xlink:href="#DejaVuSans-63" x="337.011719"/>
      <use xlink:href="#DejaVuSans-79" x="391.992188"/>
     </g>
    </g>
   </g>
   <g id="line2d_12">
    <path d="M 73.832727 253.595368 
L 81.640051 253.595368 
L 82.290661 244.898526 
L 82.941272 227.504842 
L 83.591882 218.808 
L 84.242492 214.459579 
L 84.893103 214.459579 
L 85.543713 197.065895 
L 86.844934 197.065895 
L 87.495544 192.717474 
L 94.001647 192.717474 
L 94.652257 149.233263 
L 95.302868 127.491158 
L 95.953478 131.839579 
L 96.604088 118.794316 
L 97.254698 123.142737 
L 97.905309 66.613263 
L 98.555919 62.264842 
L 99.85714 62.264842 
L 100.50775 53.568 
L 101.15836 57.916421 
L 101.808971 57.916421 
L 102.459581 53.568 
L 103.110191 57.916421 
L 105.062022 57.916421 
L 105.712633 53.568 
L 106.363243 57.916421 
L 107.013853 66.613263 
L 107.664463 62.264842 
L 108.315074 62.264842 
L 108.965684 66.613263 
L 116.122398 66.613263 
L 116.773008 62.264842 
L 117.423618 66.613263 
L 118.724839 66.613263 
L 119.375449 70.961684 
L 120.026059 66.613263 
L 120.67667 66.613263 
L 121.32728 70.961684 
L 122.628501 62.264842 
L 123.279111 66.613263 
L 123.929721 66.613263 
L 124.580332 70.961684 
L 125.230942 66.613263 
L 125.881552 70.961684 
L 128.483993 70.961684 
L 129.785214 79.658526 
L 130.435824 79.658526 
L 131.086435 84.006947 
L 133.038266 84.006947 
L 133.688876 88.355368 
L 136.941927 88.355368 
L 137.592538 92.703789 
L 145.399862 92.703789 
L 146.050472 97.052211 
L 152.556575 97.052211 
L 153.207185 101.400632 
L 153.857796 101.400632 
L 154.508406 105.749053 
L 155.159016 105.749053 
L 155.809627 114.445895 
L 156.460237 118.794316 
L 159.062678 118.794316 
L 159.713288 114.445895 
L 179.882208 114.445895 
L 180.532818 118.794316 
L 181.183429 118.794316 
L 181.834039 114.445895 
L 182.484649 123.142737 
L 188.990752 123.142737 
L 189.641363 127.491158 
L 194.195635 127.491158 
L 194.846245 131.839579 
L 195.496856 127.491158 
L 196.147466 127.491158 
L 196.798076 131.839579 
L 197.448686 127.491158 
L 200.701738 127.491158 
L 201.352348 131.839579 
L 217.617606 131.839579 
L 218.268216 136.188 
L 219.569437 136.188 
L 220.220047 140.536421 
L 220.870658 140.536421 
L 221.521268 136.188 
L 222.171878 136.188 
L 222.822489 140.536421 
L 224.77432 140.536421 
L 225.42493 144.884842 
L 226.07554 136.188 
L 226.72615 140.536421 
L 228.027371 140.536421 
L 228.677981 144.884842 
L 229.328592 144.884842 
L 229.979202 140.536421 
L 230.629812 144.884842 
L 231.931033 144.884842 
L 232.581643 140.536421 
L 233.232254 144.884842 
L 234.533474 144.884842 
L 235.184085 140.536421 
L 235.834695 144.884842 
L 239.087746 144.884842 
L 239.738357 140.536421 
L 241.039577 140.536421 
L 241.690188 144.884842 
L 242.340798 144.884842 
L 242.991408 140.536421 
L 243.642019 144.884842 
L 244.292629 140.536421 
L 244.943239 144.884842 
L 252.099953 144.884842 
L 252.750563 140.536421 
L 256.654225 140.536421 
L 257.304835 136.188 
L 257.955445 144.884842 
L 258.606056 136.188 
L 260.557887 136.188 
L 261.208497 144.884842 
L 261.859107 144.884842 
L 262.509718 136.188 
L 264.461549 136.188 
L 265.112159 140.536421 
L 265.762769 136.188 
L 266.413379 140.536421 
L 267.7146 131.839579 
L 271.618262 131.839579 
L 272.919483 123.142737 
L 273.570093 127.491158 
L 280.726806 127.491158 
L 281.377417 131.839579 
L 283.329248 131.839579 
L 283.979858 127.491158 
L 285.281079 127.491158 
L 285.931689 131.839579 
L 287.232909 123.142737 
L 295.040233 123.142737 
L 295.690844 127.491158 
L 298.293285 127.491158 
L 298.943895 131.839579 
L 299.594505 123.142737 
L 301.546336 123.142737 
L 302.847557 131.839579 
L 303.498167 118.794316 
L 304.799388 127.491158 
L 305.449998 123.142737 
L 306.100608 127.491158 
L 306.751219 123.142737 
L 307.401829 105.749053 
L 308.70305 114.445895 
L 309.35366 105.749053 
L 310.00427 105.749053 
L 310.654881 88.355368 
L 311.305491 101.400632 
L 311.956101 84.006947 
L 312.606712 92.703789 
L 313.257322 66.613263 
L 313.907932 84.006947 
L 314.558543 84.006947 
L 315.209153 79.658526 
L 315.859763 79.658526 
L 316.510373 70.961684 
L 317.160984 66.613263 
L 317.811594 70.961684 
L 321.715256 70.961684 
L 322.365866 75.310105 
L 323.016477 92.703789 
L 323.667087 84.006947 
L 324.317697 101.400632 
L 324.968308 105.749053 
L 325.618918 92.703789 
L 326.269528 105.749053 
L 326.920138 105.749053 
L 327.570749 110.097474 
L 330.17319 110.097474 
L 330.8238 101.400632 
L 331.474411 101.400632 
L 332.125021 88.355368 
L 332.775631 101.400632 
L 333.426242 101.400632 
L 334.076852 110.097474 
L 334.727462 97.052211 
L 335.378073 110.097474 
L 336.028683 101.400632 
L 336.679293 101.400632 
L 337.329903 105.749053 
L 337.980514 88.355368 
L 338.631124 105.749053 
L 339.281734 97.052211 
L 340.582955 105.749053 
L 341.233565 97.052211 
L 341.884176 105.749053 
L 342.534786 105.749053 
L 343.185396 97.052211 
L 343.836007 101.400632 
L 344.486617 110.097474 
L 345.137227 110.097474 
L 345.787837 114.445895 
L 346.438448 101.400632 
L 347.089058 105.749053 
L 347.739668 114.445895 
L 348.390279 114.445895 
L 349.040889 105.749053 
L 349.691499 114.445895 
L 350.99272 114.445895 
L 351.64333 110.097474 
L 352.293941 114.445895 
L 352.944551 114.445895 
L 353.595161 105.749053 
L 354.245772 114.445895 
L 354.896382 105.749053 
L 355.546992 114.445895 
L 357.498823 114.445895 
L 358.149433 110.097474 
L 358.800044 114.445895 
L 363.354316 114.445895 
L 364.004926 110.097474 
L 364.655537 110.097474 
L 365.306147 114.445895 
L 365.956757 110.097474 
L 386.776287 110.097474 
L 387.426897 105.749053 
L 398.487273 105.749053 
L 398.487273 105.749053 
" clip-path="url(#p0ce1b851af)" style="fill: none; stroke: #0000ff; stroke-width: 1.5; stroke-linecap: square"/>
   </g>
   <g id="line2d_13">
    <path d="M 73.832727 294.332211 
L 78.386999 294.332211 
L 79.03761 295.488 
L 79.68822 295.488 
L 80.33883 294.332211 
L 80.989441 295.488 
L 81.640051 295.488 
L 82.290661 294.332211 
L 82.941272 276.995368 
L 83.591882 271.216421 
L 84.893103 268.904842 
L 85.543713 266.593263 
L 86.844934 266.593263 
L 87.495544 265.437474 
L 88.146154 267.749053 
L 88.796764 266.593263 
L 89.447375 266.593263 
L 90.097985 265.437474 
L 90.748595 266.593263 
L 91.399206 265.437474 
L 92.049816 266.593263 
L 92.700426 261.970105 
L 93.351037 261.970105 
L 94.001647 257.346947 
L 95.302868 190.311158 
L 95.953478 192.622737 
L 96.604088 169.506947 
L 97.254698 168.351158 
L 97.905309 147.546947 
L 99.206529 145.235368 
L 99.85714 139.456421 
L 100.50775 138.300632 
L 101.15836 138.300632 
L 101.808971 135.989053 
L 102.459581 135.989053 
L 103.110191 137.144842 
L 105.062022 137.144842 
L 105.712633 135.989053 
L 106.363243 137.144842 
L 107.664463 137.144842 
L 108.315074 134.833263 
L 108.965684 133.677474 
L 109.616294 133.677474 
L 110.266905 130.210105 
L 112.218736 133.677474 
L 113.519956 131.365895 
L 114.170567 133.677474 
L 114.821177 133.677474 
L 115.471787 134.833263 
L 116.122398 132.521684 
L 116.773008 132.521684 
L 117.423618 133.677474 
L 119.375449 133.677474 
L 120.026059 132.521684 
L 120.67667 132.521684 
L 121.32728 133.677474 
L 121.97789 132.521684 
L 123.929721 132.521684 
L 124.580332 133.677474 
L 125.230942 132.521684 
L 125.881552 133.677474 
L 126.532163 135.989053 
L 127.833383 135.989053 
L 128.483993 137.144842 
L 131.086435 137.144842 
L 131.737045 138.300632 
L 132.387655 137.144842 
L 133.038266 138.300632 
L 133.688876 138.300632 
L 134.339486 140.612211 
L 134.990097 139.456421 
L 135.640707 139.456421 
L 136.291317 140.612211 
L 138.243148 140.612211 
L 138.893758 141.768 
L 141.4962 141.768 
L 142.14681 140.612211 
L 143.448031 142.923789 
L 144.749251 142.923789 
L 145.399862 144.079579 
L 146.050472 144.079579 
L 146.701082 142.923789 
L 147.351692 142.923789 
L 148.002303 144.079579 
L 149.954134 144.079579 
L 150.604744 145.235368 
L 152.556575 145.235368 
L 153.207185 147.546947 
L 155.159016 147.546947 
L 155.809627 146.391158 
L 156.460237 146.391158 
L 157.110847 147.546947 
L 157.761457 146.391158 
L 159.062678 146.391158 
L 159.713288 147.546947 
L 160.363899 147.546947 
L 161.014509 146.391158 
L 162.31573 146.391158 
L 162.96634 147.546947 
L 163.61695 146.391158 
L 164.267561 147.546947 
L 164.918171 146.391158 
L 166.219392 146.391158 
L 167.520612 148.702737 
L 169.472443 148.702737 
L 170.123053 149.858526 
L 170.773664 147.546947 
L 171.424274 148.702737 
L 172.074884 147.546947 
L 172.725495 147.546947 
L 173.376105 149.858526 
L 174.026715 148.702737 
L 176.629156 148.702737 
L 177.279767 149.858526 
L 177.930377 149.858526 
L 178.580987 148.702737 
L 179.231598 149.858526 
L 179.882208 149.858526 
L 180.532818 151.014316 
L 181.183429 151.014316 
L 181.834039 149.858526 
L 182.484649 151.014316 
L 184.43648 151.014316 
L 185.087091 149.858526 
L 185.737701 151.014316 
L 188.340142 151.014316 
L 189.641363 153.325895 
L 190.291973 152.170105 
L 190.942583 153.325895 
L 191.593194 153.325895 
L 192.243804 154.481684 
L 192.894414 153.325895 
L 194.195635 153.325895 
L 194.846245 152.170105 
L 195.496856 154.481684 
L 196.147466 153.325895 
L 196.798076 156.793263 
L 197.448686 156.793263 
L 198.099297 154.481684 
L 198.749907 156.793263 
L 200.051128 156.793263 
L 200.701738 155.637474 
L 203.304179 155.637474 
L 203.95479 156.793263 
L 205.25601 156.793263 
L 205.906621 155.637474 
L 206.557231 156.793263 
L 207.207841 155.637474 
L 208.509062 157.949053 
L 209.159672 156.793263 
L 213.063334 156.793263 
L 213.713944 155.637474 
L 214.364555 156.793263 
L 215.015165 155.637474 
L 215.665775 156.793263 
L 217.617606 156.793263 
L 218.268216 160.260632 
L 221.521268 160.260632 
L 222.171878 161.416421 
L 224.123709 161.416421 
L 224.77432 160.260632 
L 225.42493 162.572211 
L 226.07554 160.260632 
L 227.376761 162.572211 
L 231.280423 162.572211 
L 231.931033 163.728 
L 233.882864 163.728 
L 234.533474 162.572211 
L 235.184085 162.572211 
L 235.834695 163.728 
L 239.738357 163.728 
L 240.388967 161.416421 
L 241.039577 163.728 
L 242.340798 163.728 
L 242.991408 162.572211 
L 243.642019 163.728 
L 244.292629 162.572211 
L 244.943239 166.039579 
L 246.24446 166.039579 
L 246.89507 167.195368 
L 247.54568 167.195368 
L 248.196291 166.039579 
L 248.846901 167.195368 
L 250.148122 167.195368 
L 250.798732 166.039579 
L 251.449342 167.195368 
L 254.051784 167.195368 
L 254.702394 166.039579 
L 255.353004 167.195368 
L 256.003615 167.195368 
L 256.654225 166.039579 
L 258.606056 166.039579 
L 259.256666 167.195368 
L 260.557887 164.883789 
L 262.509718 168.351158 
L 263.160328 168.351158 
L 263.810938 166.039579 
L 265.112159 166.039579 
L 265.762769 163.728 
L 266.413379 166.039579 
L 267.06399 164.883789 
L 267.7146 161.416421 
L 269.015821 161.416421 
L 269.666431 162.572211 
L 270.317041 161.416421 
L 270.967652 161.416421 
L 271.618262 160.260632 
L 272.919483 160.260632 
L 274.220703 162.572211 
L 274.871314 161.416421 
L 275.521924 161.416421 
L 276.172534 157.949053 
L 276.823144 157.949053 
L 277.473755 156.793263 
L 279.425586 156.793263 
L 280.076196 154.481684 
L 280.726806 155.637474 
L 281.377417 153.325895 
L 282.678637 153.325895 
L 283.329248 152.170105 
L 283.979858 152.170105 
L 285.281079 149.858526 
L 285.931689 149.858526 
L 286.582299 152.170105 
L 287.88352 149.858526 
L 288.53413 151.014316 
L 289.18474 149.858526 
L 289.835351 151.014316 
L 293.088402 151.014316 
L 293.739013 149.858526 
L 294.389623 151.014316 
L 295.040233 149.858526 
L 296.992064 149.858526 
L 297.642674 147.546947 
L 298.293285 148.702737 
L 298.943895 148.702737 
L 299.594505 141.768 
L 300.245116 132.521684 
L 300.895726 132.521684 
L 301.546336 139.456421 
L 302.196947 138.300632 
L 302.847557 144.079579 
L 303.498167 123.275368 
L 304.148778 129.054316 
L 304.799388 132.521684 
L 305.449998 125.586947 
L 306.100608 134.833263 
L 307.401829 119.808 
L 308.052439 120.963789 
L 308.70305 132.521684 
L 309.35366 124.431158 
L 310.00427 120.963789 
L 310.654881 108.250105 
L 311.305491 119.808 
L 311.956101 116.340632 
L 312.606712 122.119579 
L 313.257322 94.380632 
L 313.907932 115.184842 
L 314.558543 114.029053 
L 315.209153 124.431158 
L 315.859763 110.561684 
L 316.510373 103.626947 
L 317.160984 100.159579 
L 317.811594 104.782737 
L 318.462204 110.561684 
L 319.112815 104.782737 
L 319.763425 102.471158 
L 320.414035 90.913263 
L 321.064646 90.913263 
L 321.715256 95.536421 
L 322.365866 92.069053 
L 323.016477 111.717474 
L 323.667087 101.315368 
L 324.317697 115.184842 
L 324.968308 117.496421 
L 325.618918 109.405895 
L 326.269528 118.652211 
L 326.920138 120.963789 
L 327.570749 109.405895 
L 328.221359 108.250105 
L 328.871969 122.119579 
L 329.52258 120.963789 
L 330.17319 126.742737 
L 330.8238 115.184842 
L 331.474411 111.717474 
L 332.125021 93.224842 
L 332.775631 117.496421 
L 333.426242 108.250105 
L 334.076852 120.963789 
L 334.727462 105.938526 
L 335.378073 120.963789 
L 336.028683 116.340632 
L 336.679293 117.496421 
L 337.329903 117.496421 
L 337.980514 94.380632 
L 338.631124 114.029053 
L 339.281734 107.094316 
L 339.932345 112.873263 
L 340.582955 110.561684 
L 341.233565 104.782737 
L 341.884176 109.405895 
L 342.534786 108.250105 
L 343.185396 105.938526 
L 343.836007 105.938526 
L 344.486617 109.405895 
L 345.137227 115.184842 
L 345.787837 105.938526 
L 346.438448 102.471158 
L 347.089058 103.626947 
L 347.739668 109.405895 
L 348.390279 110.561684 
L 349.040889 102.471158 
L 349.691499 109.405895 
L 350.34211 108.250105 
L 350.99272 111.717474 
L 351.64333 102.471158 
L 352.293941 111.717474 
L 352.944551 109.405895 
L 353.595161 102.471158 
L 354.245772 109.405895 
L 354.896382 104.782737 
L 355.546992 110.561684 
L 356.197602 111.717474 
L 356.848213 110.561684 
L 357.498823 108.250105 
L 358.149433 107.094316 
L 358.800044 110.561684 
L 359.450654 112.873263 
L 360.101264 111.717474 
L 360.751875 111.717474 
L 361.402485 112.873263 
L 362.053095 111.717474 
L 362.703706 111.717474 
L 363.354316 112.873263 
L 364.004926 112.873263 
L 364.655537 115.184842 
L 365.306147 111.717474 
L 365.956757 112.873263 
L 366.607367 115.184842 
L 367.908588 115.184842 
L 368.559198 116.340632 
L 369.209809 116.340632 
L 369.860419 117.496421 
L 370.511029 115.184842 
L 371.16164 115.184842 
L 371.81225 117.496421 
L 372.46286 118.652211 
L 373.113471 117.496421 
L 373.764081 119.808 
L 374.414691 118.652211 
L 375.065302 118.652211 
L 376.366522 116.340632 
L 377.017132 118.652211 
L 377.667743 118.652211 
L 378.318353 116.340632 
L 378.968963 118.652211 
L 379.619574 116.340632 
L 380.270184 117.496421 
L 380.920794 119.808 
L 381.571405 117.496421 
L 382.222015 119.808 
L 382.872625 116.340632 
L 383.523236 119.808 
L 384.173846 120.963789 
L 384.824456 119.808 
L 385.475066 122.119579 
L 386.125677 120.963789 
L 386.776287 120.963789 
L 387.426897 119.808 
L 389.378728 119.808 
L 390.029339 120.963789 
L 390.679949 119.808 
L 391.330559 120.963789 
L 391.98117 119.808 
L 392.63178 120.963789 
L 393.933001 120.963789 
L 394.583611 122.119579 
L 395.234221 120.963789 
L 395.884831 122.119579 
L 398.487273 122.119579 
L 398.487273 122.119579 
" clip-path="url(#p0ce1b851af)" style="fill: none; stroke: #008000; stroke-width: 1.5; stroke-linecap: square"/>
   </g>
   <g id="line2d_14">
    <path d="M 73.832727 277.366737 
L 74.483338 277.366737 
L 75.133948 278.526316 
L 75.784558 278.526316 
L 76.435169 279.685895 
L 78.386999 279.685895 
L 79.03761 280.265684 
L 79.68822 280.265684 
L 80.33883 279.685895 
L 80.989441 281.425263 
L 81.640051 280.845474 
L 82.290661 277.366737 
L 82.941272 263.451789 
L 83.591882 255.914526 
L 84.242492 255.914526 
L 84.893103 254.754947 
L 85.543713 251.856 
L 86.194323 253.015579 
L 86.844934 250.696421 
L 87.495544 249.536842 
L 88.146154 250.696421 
L 89.447375 249.536842 
L 90.097985 249.536842 
L 90.748595 248.957053 
L 92.049816 248.957053 
L 92.700426 245.478316 
L 93.351037 245.478316 
L 94.001647 241.419789 
L 94.652257 201.414316 
L 95.302868 176.483368 
L 95.953478 189.238737 
L 96.604088 164.887579 
L 97.254698 162.568421 
L 97.905309 135.318316 
L 98.555919 135.898105 
L 100.50775 127.201263 
L 101.15836 127.781053 
L 101.808971 127.201263 
L 102.459581 125.461895 
L 103.110191 126.041684 
L 103.760802 126.041684 
L 104.411412 124.302316 
L 106.363243 126.041684 
L 107.013853 128.360842 
L 107.664463 127.781053 
L 108.315074 126.621474 
L 108.965684 127.201263 
L 109.616294 126.621474 
L 110.917515 126.621474 
L 111.568125 127.201263 
L 112.218736 127.201263 
L 112.869346 128.360842 
L 113.519956 127.201263 
L 114.170567 129.520421 
L 114.821177 128.360842 
L 115.471787 130.100211 
L 116.122398 129.520421 
L 116.773008 130.100211 
L 117.423618 129.520421 
L 118.074228 130.100211 
L 118.724839 128.940632 
L 120.026059 127.781053 
L 120.67667 128.360842 
L 121.32728 128.360842 
L 121.97789 128.940632 
L 122.628501 128.940632 
L 123.279111 130.100211 
L 125.230942 130.100211 
L 126.532163 131.259789 
L 127.182773 132.419368 
L 127.833383 132.419368 
L 129.134604 131.259789 
L 130.435824 132.419368 
L 131.086435 131.839579 
L 133.038266 131.839579 
L 135.640707 134.158737 
L 138.893758 134.158737 
L 139.544369 134.738526 
L 140.194979 134.738526 
L 140.845589 136.477895 
L 141.4962 136.477895 
L 142.14681 137.057684 
L 142.79742 136.477895 
L 143.448031 138.217263 
L 144.749251 138.217263 
L 145.399862 138.797053 
L 146.050472 140.536421 
L 146.701082 139.956632 
L 147.351692 139.956632 
L 148.002303 140.536421 
L 148.652913 139.956632 
L 149.303523 141.116211 
L 149.954134 141.116211 
L 150.604744 142.275789 
L 151.255354 142.855579 
L 151.905965 145.174737 
L 152.556575 144.015158 
L 153.857796 145.174737 
L 154.508406 146.334316 
L 155.159016 146.914105 
L 155.809627 146.914105 
L 156.460237 148.073684 
L 157.110847 146.914105 
L 157.761457 147.493895 
L 158.412068 146.334316 
L 159.062678 146.334316 
L 159.713288 146.914105 
L 160.363899 146.914105 
L 161.014509 148.073684 
L 161.665119 146.914105 
L 162.31573 147.493895 
L 162.96634 147.493895 
L 163.61695 148.073684 
L 165.568781 148.073684 
L 166.219392 148.653474 
L 170.123053 148.653474 
L 170.773664 151.552421 
L 171.424274 150.392842 
L 172.074884 152.132211 
L 172.725495 152.132211 
L 173.376105 151.552421 
L 174.026715 153.291789 
L 174.677326 153.291789 
L 175.327936 153.871579 
L 175.978546 153.291789 
L 176.629156 153.871579 
L 177.279767 153.871579 
L 177.930377 153.291789 
L 178.580987 155.031158 
L 179.231598 154.451368 
L 179.882208 155.031158 
L 181.834039 155.031158 
L 182.484649 155.610947 
L 184.43648 155.610947 
L 185.087091 156.190737 
L 188.340142 156.190737 
L 188.990752 156.770526 
L 189.641363 156.770526 
L 190.291973 157.930105 
L 190.942583 156.770526 
L 192.243804 157.930105 
L 194.195635 156.190737 
L 194.846245 156.770526 
L 195.496856 158.509895 
L 196.147466 156.190737 
L 196.798076 160.249263 
L 197.448686 159.089684 
L 198.099297 159.089684 
L 198.749907 160.829053 
L 199.400517 161.988632 
L 200.051128 160.249263 
L 200.701738 159.669474 
L 201.352348 160.249263 
L 202.002959 161.988632 
L 202.653569 161.408842 
L 203.304179 160.249263 
L 203.95479 163.728 
L 204.6054 161.988632 
L 205.25601 160.829053 
L 205.906621 161.988632 
L 206.557231 161.988632 
L 207.207841 162.568421 
L 207.858451 161.408842 
L 208.509062 160.829053 
L 209.810282 160.829053 
L 210.460893 161.408842 
L 211.111503 162.568421 
L 211.762113 161.408842 
L 212.412724 160.829053 
L 213.713944 161.988632 
L 214.364555 160.829053 
L 216.966996 160.829053 
L 217.617606 160.249263 
L 218.268216 162.568421 
L 218.918827 163.148211 
L 219.569437 163.148211 
L 220.220047 164.307789 
L 220.870658 163.728 
L 221.521268 162.568421 
L 222.822489 163.728 
L 223.473099 164.887579 
L 224.123709 164.307789 
L 224.77432 164.307789 
L 226.07554 163.148211 
L 226.72615 165.467368 
L 227.376761 164.887579 
L 228.027371 163.728 
L 228.677981 165.467368 
L 229.328592 165.467368 
L 229.979202 163.728 
L 231.280423 166.047158 
L 231.931033 164.887579 
L 232.581643 164.307789 
L 233.232254 165.467368 
L 234.533474 165.467368 
L 235.184085 164.307789 
L 235.834695 164.887579 
L 236.485305 164.887579 
L 237.135915 165.467368 
L 238.437136 165.467368 
L 240.388967 163.728 
L 241.690188 164.887579 
L 242.340798 164.887579 
L 242.991408 164.307789 
L 243.642019 165.467368 
L 244.292629 163.728 
L 244.943239 164.887579 
L 245.59385 165.467368 
L 246.89507 165.467368 
L 247.54568 164.887579 
L 248.196291 165.467368 
L 249.497511 164.307789 
L 250.148122 164.887579 
L 252.099953 164.887579 
L 252.750563 164.307789 
L 254.051784 164.307789 
L 254.702394 163.148211 
L 255.353004 164.307789 
L 256.003615 163.148211 
L 257.304835 161.988632 
L 257.955445 163.148211 
L 258.606056 161.408842 
L 259.256666 161.988632 
L 260.557887 161.988632 
L 261.208497 163.148211 
L 261.859107 161.988632 
L 262.509718 161.408842 
L 263.810938 161.408842 
L 264.461549 160.249263 
L 265.112159 161.408842 
L 265.762769 160.829053 
L 266.413379 160.829053 
L 267.06399 160.249263 
L 267.7146 158.509895 
L 268.36521 157.930105 
L 269.015821 158.509895 
L 269.666431 157.930105 
L 270.317041 158.509895 
L 270.967652 157.930105 
L 271.618262 157.930105 
L 272.268872 158.509895 
L 272.919483 155.610947 
L 273.570093 156.190737 
L 274.871314 155.031158 
L 275.521924 155.610947 
L 276.172534 153.291789 
L 276.823144 153.871579 
L 277.473755 152.132211 
L 278.124365 152.132211 
L 278.774975 152.712 
L 279.425586 152.712 
L 280.076196 152.132211 
L 280.726806 150.972632 
L 281.377417 150.972632 
L 282.028027 149.233263 
L 282.678637 149.813053 
L 283.329248 148.653474 
L 283.979858 149.813053 
L 284.630468 148.653474 
L 285.281079 145.754526 
L 285.931689 147.493895 
L 286.582299 145.174737 
L 287.232909 144.594947 
L 287.88352 144.594947 
L 288.53413 145.174737 
L 289.835351 144.015158 
L 290.485961 144.594947 
L 291.136571 143.435368 
L 291.787182 142.855579 
L 292.437792 144.594947 
L 293.088402 142.275789 
L 293.739013 142.275789 
L 294.389623 141.116211 
L 295.040233 141.116211 
L 295.690844 142.275789 
L 296.341454 141.116211 
L 296.992064 140.536421 
L 298.943895 140.536421 
L 299.594505 137.057684 
L 300.245116 131.259789 
L 300.895726 131.259789 
L 301.546336 133.578947 
L 302.196947 136.477895 
L 302.847557 140.536421 
L 303.498167 127.781053 
L 304.799388 134.158737 
L 305.449998 128.360842 
L 306.100608 134.158737 
L 306.751219 131.259789 
L 307.401829 120.243789 
L 308.052439 123.142737 
L 308.70305 129.520421 
L 309.35366 123.142737 
L 310.00427 119.664 
L 310.654881 115.025684 
L 311.305491 122.562947 
L 311.956101 120.243789 
L 312.606712 123.142737 
L 313.257322 97.052211 
L 313.907932 117.344842 
L 314.558543 116.185263 
L 315.209153 120.243789 
L 315.859763 111.546947 
L 316.510373 109.227789 
L 317.160984 104.589474 
L 317.811594 109.227789 
L 318.462204 109.807579 
L 319.112815 109.807579 
L 319.763425 105.749053 
L 320.414035 98.791579 
L 321.064646 98.791579 
L 321.715256 99.951158 
L 322.365866 95.892632 
L 323.016477 111.546947 
L 323.667087 104.009684 
L 324.317697 113.286316 
L 324.968308 115.025684 
L 325.618918 109.807579 
L 326.269528 117.924632 
L 326.920138 117.924632 
L 327.570749 118.504421 
L 328.221359 118.504421 
L 328.871969 127.201263 
L 329.52258 122.562947 
L 330.17319 129.520421 
L 330.8238 120.243789 
L 331.474411 120.243789 
L 332.125021 102.850105 
L 332.775631 121.983158 
L 333.426242 118.504421 
L 334.076852 128.360842 
L 334.727462 116.185263 
L 335.378073 129.520421 
L 336.028683 123.722526 
L 336.679293 124.302316 
L 337.329903 128.360842 
L 337.980514 111.546947 
L 338.631124 127.201263 
L 339.281734 120.243789 
L 339.932345 124.302316 
L 340.582955 121.403368 
L 341.233565 117.924632 
L 341.884176 123.142737 
L 342.534786 123.142737 
L 343.185396 115.605474 
L 343.836007 118.504421 
L 344.486617 119.664 
L 345.137227 123.142737 
L 345.787837 120.243789 
L 346.438448 113.286316 
L 347.089058 113.286316 
L 347.739668 118.504421 
L 348.390279 120.823579 
L 349.040889 113.866105 
L 349.691499 120.243789 
L 350.34211 120.243789 
L 350.99272 121.403368 
L 351.64333 114.445895 
L 352.293941 120.243789 
L 352.944551 119.084211 
L 353.595161 111.546947 
L 354.245772 119.084211 
L 354.896382 114.445895 
L 355.546992 119.664 
L 356.197602 118.504421 
L 356.848213 116.765053 
L 357.498823 117.344842 
L 358.149433 115.025684 
L 358.800044 117.344842 
L 359.450654 119.084211 
L 360.101264 118.504421 
L 360.751875 119.664 
L 361.402485 119.664 
L 362.053095 119.084211 
L 362.703706 117.924632 
L 363.354316 119.084211 
L 364.004926 119.664 
L 365.306147 118.504421 
L 365.956757 118.504421 
L 366.607367 119.084211 
L 367.257978 119.084211 
L 367.908588 118.504421 
L 369.860419 120.243789 
L 370.511029 119.084211 
L 371.81225 117.924632 
L 372.46286 119.084211 
L 373.113471 117.924632 
L 373.764081 119.084211 
L 374.414691 119.664 
L 375.065302 118.504421 
L 376.366522 117.344842 
L 377.017132 119.664 
L 377.667743 117.924632 
L 378.318353 118.504421 
L 378.968963 117.924632 
L 379.619574 118.504421 
L 380.270184 118.504421 
L 380.920794 119.084211 
L 381.571405 118.504421 
L 382.222015 119.084211 
L 382.872625 119.084211 
L 383.523236 120.243789 
L 384.173846 120.823579 
L 384.824456 120.243789 
L 385.475066 120.823579 
L 386.125677 118.504421 
L 387.426897 119.664 
L 389.378728 119.664 
L 390.029339 120.243789 
L 390.679949 119.664 
L 391.98117 119.664 
L 392.63178 120.243789 
L 393.28239 120.243789 
L 393.933001 120.823579 
L 394.583611 119.664 
L 395.234221 120.243789 
L 395.884831 119.664 
L 396.535442 120.243789 
L 397.836662 120.243789 
L 398.487273 119.664 
L 398.487273 119.664 
" clip-path="url(#p0ce1b851af)" style="fill: none; stroke: #ff0000; stroke-width: 1.5; stroke-linecap: square"/>
   </g>
   <g id="patch_3">
    <path d="M 57.6 307.584 
L 57.6 41.472 
" style="fill: none; stroke: #000000; stroke-width: 0.8; stroke-linejoin: miter; stroke-linecap: square"/>
   </g>
   <g id="patch_4">
    <path d="M 414.72 307.584 
L 414.72 41.472 
" style="fill: none; stroke: #000000; stroke-width: 0.8; stroke-linejoin: miter; stroke-linecap: square"/>
   </g>
   <g id="patch_5">
    <path d="M 57.6 307.584 
L 414.72 307.584 
" style="fill: none; stroke: #000000; stroke-width: 0.8; stroke-linejoin: miter; stroke-linecap: square"/>
   </g>
   <g id="patch_6">
    <path d="M 57.6 41.472 
L 414.72 41.472 
" style="fill: none; stroke: #000000; stroke-width: 0.8; stroke-linejoin: miter; stroke-linecap: square"/>
   </g>
   <g id="text_14">
    <!-- spectrumGCN + WithOutGraph + muliple concatenation + eigenvectors as features  + dropout 0.5_accuracy -->
    <g transform="translate(-91.740938 35.472) scale(0.12 -0.12)">
     <defs>
      <path id="DejaVuSans-73" d="M 2834 3397 
L 2834 2853 
Q 2591 2978 2328 3040 
Q 2066 3103 1784 3103 
Q 1356 3103 1142 2972 
Q 928 2841 928 2578 
Q 928 2378 1081 2264 
Q 1234 2150 1697 2047 
L 1894 2003 
Q 2506 1872 2764 1633 
Q 3022 1394 3022 966 
Q 3022 478 2636 193 
Q 2250 -91 1575 -91 
Q 1294 -91 989 -36 
Q 684 19 347 128 
L 347 722 
Q 666 556 975 473 
Q 1284 391 1588 391 
Q 1994 391 2212 530 
Q 2431 669 2431 922 
Q 2431 1156 2273 1281 
Q 2116 1406 1581 1522 
L 1381 1569 
Q 847 1681 609 1914 
Q 372 2147 372 2553 
Q 372 3047 722 3315 
Q 1072 3584 1716 3584 
Q 2034 3584 2315 3537 
Q 2597 3491 2834 3397 
z
" transform="scale(0.015625)"/>
      <path id="DejaVuSans-74" d="M 1172 4494 
L 1172 3500 
L 2356 3500 
L 2356 3053 
L 1172 3053 
L 1172 1153 
Q 1172 725 1289 603 
Q 1406 481 1766 481 
L 2356 481 
L 2356 0 
L 1766 0 
Q 1100 0 847 248 
Q 594 497 594 1153 
L 594 3053 
L 172 3053 
L 172 3500 
L 594 3500 
L 594 4494 
L 1172 4494 
z
" transform="scale(0.015625)"/>
      <path id="DejaVuSans-6d" d="M 3328 2828 
Q 3544 3216 3844 3400 
Q 4144 3584 4550 3584 
Q 5097 3584 5394 3201 
Q 5691 2819 5691 2113 
L 5691 0 
L 5113 0 
L 5113 2094 
Q 5113 2597 4934 2840 
Q 4756 3084 4391 3084 
Q 3944 3084 3684 2787 
Q 3425 2491 3425 1978 
L 3425 0 
L 2847 0 
L 2847 2094 
Q 2847 2600 2669 2842 
Q 2491 3084 2119 3084 
Q 1678 3084 1418 2786 
Q 1159 2488 1159 1978 
L 1159 0 
L 581 0 
L 581 3500 
L 1159 3500 
L 1159 2956 
Q 1356 3278 1631 3431 
Q 1906 3584 2284 3584 
Q 2666 3584 2933 3390 
Q 3200 3197 3328 2828 
z
" transform="scale(0.015625)"/>
      <path id="DejaVuSans-47" d="M 3809 666 
L 3809 1919 
L 2778 1919 
L 2778 2438 
L 4434 2438 
L 4434 434 
Q 4069 175 3628 42 
Q 3188 -91 2688 -91 
Q 1594 -91 976 548 
Q 359 1188 359 2328 
Q 359 3472 976 4111 
Q 1594 4750 2688 4750 
Q 3144 4750 3555 4637 
Q 3966 4525 4313 4306 
L 4313 3634 
Q 3963 3931 3569 4081 
Q 3175 4231 2741 4231 
Q 1884 4231 1454 3753 
Q 1025 3275 1025 2328 
Q 1025 1384 1454 906 
Q 1884 428 2741 428 
Q 3075 428 3337 486 
Q 3600 544 3809 666 
z
" transform="scale(0.015625)"/>
      <path id="DejaVuSans-43" d="M 4122 4306 
L 4122 3641 
Q 3803 3938 3442 4084 
Q 3081 4231 2675 4231 
Q 1875 4231 1450 3742 
Q 1025 3253 1025 2328 
Q 1025 1406 1450 917 
Q 1875 428 2675 428 
Q 3081 428 3442 575 
Q 3803 722 4122 1019 
L 4122 359 
Q 3791 134 3420 21 
Q 3050 -91 2638 -91 
Q 1578 -91 968 557 
Q 359 1206 359 2328 
Q 359 3453 968 4101 
Q 1578 4750 2638 4750 
Q 3056 4750 3426 4639 
Q 3797 4528 4122 4306 
z
" transform="scale(0.015625)"/>
      <path id="DejaVuSans-4e" d="M 628 4666 
L 1478 4666 
L 3547 763 
L 3547 4666 
L 4159 4666 
L 4159 0 
L 3309 0 
L 1241 3903 
L 1241 0 
L 628 0 
L 628 4666 
z
" transform="scale(0.015625)"/>
      <path id="DejaVuSans-20" transform="scale(0.015625)"/>
      <path id="DejaVuSans-2b" d="M 2944 4013 
L 2944 2272 
L 4684 2272 
L 4684 1741 
L 2944 1741 
L 2944 0 
L 2419 0 
L 2419 1741 
L 678 1741 
L 678 2272 
L 2419 2272 
L 2419 4013 
L 2944 4013 
z
" transform="scale(0.015625)"/>
      <path id="DejaVuSans-57" d="M 213 4666 
L 850 4666 
L 1831 722 
L 2809 4666 
L 3519 4666 
L 4500 722 
L 5478 4666 
L 6119 4666 
L 4947 0 
L 4153 0 
L 3169 4050 
L 2175 0 
L 1381 0 
L 213 4666 
z
" transform="scale(0.015625)"/>
      <path id="DejaVuSans-69" d="M 603 3500 
L 1178 3500 
L 1178 0 
L 603 0 
L 603 3500 
z
M 603 4863 
L 1178 4863 
L 1178 4134 
L 603 4134 
L 603 4863 
z
" transform="scale(0.015625)"/>
      <path id="DejaVuSans-4f" d="M 2522 4238 
Q 1834 4238 1429 3725 
Q 1025 3213 1025 2328 
Q 1025 1447 1429 934 
Q 1834 422 2522 422 
Q 3209 422 3611 934 
Q 4013 1447 4013 2328 
Q 4013 3213 3611 3725 
Q 3209 4238 2522 4238 
z
M 2522 4750 
Q 3503 4750 4090 4092 
Q 4678 3434 4678 2328 
Q 4678 1225 4090 567 
Q 3503 -91 2522 -91 
Q 1538 -91 948 565 
Q 359 1222 359 2328 
Q 359 3434 948 4092 
Q 1538 4750 2522 4750 
z
" transform="scale(0.015625)"/>
      <path id="DejaVuSans-6c" d="M 603 4863 
L 1178 4863 
L 1178 0 
L 603 0 
L 603 4863 
z
" transform="scale(0.015625)"/>
      <path id="DejaVuSans-6e" d="M 3513 2113 
L 3513 0 
L 2938 0 
L 2938 2094 
Q 2938 2591 2744 2837 
Q 2550 3084 2163 3084 
Q 1697 3084 1428 2787 
Q 1159 2491 1159 1978 
L 1159 0 
L 581 0 
L 581 3500 
L 1159 3500 
L 1159 2956 
Q 1366 3272 1645 3428 
Q 1925 3584 2291 3584 
Q 2894 3584 3203 3211 
Q 3513 2838 3513 2113 
z
" transform="scale(0.015625)"/>
      <path id="DejaVuSans-67" d="M 2906 1791 
Q 2906 2416 2648 2759 
Q 2391 3103 1925 3103 
Q 1463 3103 1205 2759 
Q 947 2416 947 1791 
Q 947 1169 1205 825 
Q 1463 481 1925 481 
Q 2391 481 2648 825 
Q 2906 1169 2906 1791 
z
M 3481 434 
Q 3481 -459 3084 -895 
Q 2688 -1331 1869 -1331 
Q 1566 -1331 1297 -1286 
Q 1028 -1241 775 -1147 
L 775 -588 
Q 1028 -725 1275 -790 
Q 1522 -856 1778 -856 
Q 2344 -856 2625 -561 
Q 2906 -266 2906 331 
L 2906 616 
Q 2728 306 2450 153 
Q 2172 0 1784 0 
Q 1141 0 747 490 
Q 353 981 353 1791 
Q 353 2603 747 3093 
Q 1141 3584 1784 3584 
Q 2172 3584 2450 3431 
Q 2728 3278 2906 2969 
L 2906 3500 
L 3481 3500 
L 3481 434 
z
" transform="scale(0.015625)"/>
      <path id="DejaVuSans-76" d="M 191 3500 
L 800 3500 
L 1894 563 
L 2988 3500 
L 3597 3500 
L 2284 0 
L 1503 0 
L 191 3500 
z
" transform="scale(0.015625)"/>
      <path id="DejaVuSans-66" d="M 2375 4863 
L 2375 4384 
L 1825 4384 
Q 1516 4384 1395 4259 
Q 1275 4134 1275 3809 
L 1275 3500 
L 2222 3500 
L 2222 3053 
L 1275 3053 
L 1275 0 
L 697 0 
L 697 3053 
L 147 3053 
L 147 3500 
L 697 3500 
L 697 3744 
Q 697 4328 969 4595 
Q 1241 4863 1831 4863 
L 2375 4863 
z
" transform="scale(0.015625)"/>
      <path id="DejaVuSans-64" d="M 2906 2969 
L 2906 4863 
L 3481 4863 
L 3481 0 
L 2906 0 
L 2906 525 
Q 2725 213 2448 61 
Q 2172 -91 1784 -91 
Q 1150 -91 751 415 
Q 353 922 353 1747 
Q 353 2572 751 3078 
Q 1150 3584 1784 3584 
Q 2172 3584 2448 3432 
Q 2725 3281 2906 2969 
z
M 947 1747 
Q 947 1113 1208 752 
Q 1469 391 1925 391 
Q 2381 391 2643 752 
Q 2906 1113 2906 1747 
Q 2906 2381 2643 2742 
Q 2381 3103 1925 3103 
Q 1469 3103 1208 2742 
Q 947 2381 947 1747 
z
" transform="scale(0.015625)"/>
      <path id="DejaVuSans-5f" d="M 3263 -1063 
L 3263 -1509 
L -63 -1509 
L -63 -1063 
L 3263 -1063 
z
" transform="scale(0.015625)"/>
     </defs>
     <use xlink:href="#DejaVuSans-73"/>
     <use xlink:href="#DejaVuSans-70" x="52.099609"/>
     <use xlink:href="#DejaVuSans-65" x="115.576172"/>
     <use xlink:href="#DejaVuSans-63" x="177.099609"/>
     <use xlink:href="#DejaVuSans-74" x="232.080078"/>
     <use xlink:href="#DejaVuSans-72" x="271.289062"/>
     <use xlink:href="#DejaVuSans-75" x="312.402344"/>
     <use xlink:href="#DejaVuSans-6d" x="375.78125"/>
     <use xlink:href="#DejaVuSans-47" x="473.193359"/>
     <use xlink:href="#DejaVuSans-43" x="550.683594"/>
     <use xlink:href="#DejaVuSans-4e" x="620.507812"/>
     <use xlink:href="#DejaVuSans-20" x="695.3125"/>
     <use xlink:href="#DejaVuSans-2b" x="727.099609"/>
     <use xlink:href="#DejaVuSans-20" x="810.888672"/>
     <use xlink:href="#DejaVuSans-57" x="842.675781"/>
     <use xlink:href="#DejaVuSans-69" x="939.302734"/>
     <use xlink:href="#DejaVuSans-74" x="967.085938"/>
     <use xlink:href="#DejaVuSans-68" x="1006.294922"/>
     <use xlink:href="#DejaVuSans-4f" x="1069.673828"/>
     <use xlink:href="#DejaVuSans-75" x="1148.384766"/>
     <use xlink:href="#DejaVuSans-74" x="1211.763672"/>
     <use xlink:href="#DejaVuSans-47" x="1250.972656"/>
     <use xlink:href="#DejaVuSans-72" x="1328.462891"/>
     <use xlink:href="#DejaVuSans-61" x="1369.576172"/>
     <use xlink:href="#DejaVuSans-70" x="1430.855469"/>
     <use xlink:href="#DejaVuSans-68" x="1494.332031"/>
     <use xlink:href="#DejaVuSans-20" x="1557.710938"/>
     <use xlink:href="#DejaVuSans-2b" x="1589.498047"/>
     <use xlink:href="#DejaVuSans-20" x="1673.287109"/>
     <use xlink:href="#DejaVuSans-6d" x="1705.074219"/>
     <use xlink:href="#DejaVuSans-75" x="1802.486328"/>
     <use xlink:href="#DejaVuSans-6c" x="1865.865234"/>
     <use xlink:href="#DejaVuSans-69" x="1893.648438"/>
     <use xlink:href="#DejaVuSans-70" x="1921.431641"/>
     <use xlink:href="#DejaVuSans-6c" x="1984.908203"/>
     <use xlink:href="#DejaVuSans-65" x="2012.691406"/>
     <use xlink:href="#DejaVuSans-20" x="2074.214844"/>
     <use xlink:href="#DejaVuSans-63" x="2106.001953"/>
     <use xlink:href="#DejaVuSans-6f" x="2160.982422"/>
     <use xlink:href="#DejaVuSans-6e" x="2222.164062"/>
     <use xlink:href="#DejaVuSans-63" x="2285.542969"/>
     <use xlink:href="#DejaVuSans-61" x="2340.523438"/>
     <use xlink:href="#DejaVuSans-74" x="2401.802734"/>
     <use xlink:href="#DejaVuSans-65" x="2441.011719"/>
     <use xlink:href="#DejaVuSans-6e" x="2502.535156"/>
     <use xlink:href="#DejaVuSans-61" x="2565.914062"/>
     <use xlink:href="#DejaVuSans-74" x="2627.193359"/>
     <use xlink:href="#DejaVuSans-69" x="2666.402344"/>
     <use xlink:href="#DejaVuSans-6f" x="2694.185547"/>
     <use xlink:href="#DejaVuSans-6e" x="2755.367188"/>
     <use xlink:href="#DejaVuSans-20" x="2818.746094"/>
     <use xlink:href="#DejaVuSans-2b" x="2850.533203"/>
     <use xlink:href="#DejaVuSans-20" x="2934.322266"/>
     <use xlink:href="#DejaVuSans-65" x="2966.109375"/>
     <use xlink:href="#DejaVuSans-69" x="3027.632812"/>
     <use xlink:href="#DejaVuSans-67" x="3055.416016"/>
     <use xlink:href="#DejaVuSans-65" x="3118.892578"/>
     <use xlink:href="#DejaVuSans-6e" x="3180.416016"/>
     <use xlink:href="#DejaVuSans-76" x="3243.794922"/>
     <use xlink:href="#DejaVuSans-65" x="3302.974609"/>
     <use xlink:href="#DejaVuSans-63" x="3364.498047"/>
     <use xlink:href="#DejaVuSans-74" x="3419.478516"/>
     <use xlink:href="#DejaVuSans-6f" x="3458.6875"/>
     <use xlink:href="#DejaVuSans-72" x="3519.869141"/>
     <use xlink:href="#DejaVuSans-73" x="3560.982422"/>
     <use xlink:href="#DejaVuSans-20" x="3613.082031"/>
     <use xlink:href="#DejaVuSans-61" x="3644.869141"/>
     <use xlink:href="#DejaVuSans-73" x="3706.148438"/>
     <use xlink:href="#DejaVuSans-20" x="3758.248047"/>
     <use xlink:href="#DejaVuSans-66" x="3790.035156"/>
     <use xlink:href="#DejaVuSans-65" x="3825.240234"/>
     <use xlink:href="#DejaVuSans-61" x="3886.763672"/>
     <use xlink:href="#DejaVuSans-74" x="3948.042969"/>
     <use xlink:href="#DejaVuSans-75" x="3987.251953"/>
     <use xlink:href="#DejaVuSans-72" x="4050.630859"/>
     <use xlink:href="#DejaVuSans-65" x="4089.494141"/>
     <use xlink:href="#DejaVuSans-73" x="4151.017578"/>
     <use xlink:href="#DejaVuSans-20" x="4203.117188"/>
     <use xlink:href="#DejaVuSans-20" x="4234.904297"/>
     <use xlink:href="#DejaVuSans-2b" x="4266.691406"/>
     <use xlink:href="#DejaVuSans-20" x="4350.480469"/>
     <use xlink:href="#DejaVuSans-64" x="4382.267578"/>
     <use xlink:href="#DejaVuSans-72" x="4445.744141"/>
     <use xlink:href="#DejaVuSans-6f" x="4484.607422"/>
     <use xlink:href="#DejaVuSans-70" x="4545.789062"/>
     <use xlink:href="#DejaVuSans-6f" x="4609.265625"/>
     <use xlink:href="#DejaVuSans-75" x="4670.447266"/>
     <use xlink:href="#DejaVuSans-74" x="4733.826172"/>
     <use xlink:href="#DejaVuSans-20" x="4773.035156"/>
     <use xlink:href="#DejaVuSans-30" x="4804.822266"/>
     <use xlink:href="#DejaVuSans-2e" x="4868.445312"/>
     <use xlink:href="#DejaVuSans-35" x="4900.232422"/>
     <use xlink:href="#DejaVuSans-5f" x="4963.855469"/>
     <use xlink:href="#DejaVuSans-61" x="5013.855469"/>
     <use xlink:href="#DejaVuSans-63" x="5075.134766"/>
     <use xlink:href="#DejaVuSans-63" x="5130.115234"/>
     <use xlink:href="#DejaVuSans-75" x="5185.095703"/>
     <use xlink:href="#DejaVuSans-72" x="5248.474609"/>
     <use xlink:href="#DejaVuSans-61" x="5289.587891"/>
     <use xlink:href="#DejaVuSans-63" x="5350.867188"/>
     <use xlink:href="#DejaVuSans-79" x="5405.847656"/>
    </g>
   </g>
   <g id="legend_1">
    <g id="patch_7">
     <path d="M 308.024688 302.584 
L 407.72 302.584 
Q 409.72 302.584 409.72 300.584 
L 409.72 257.549625 
Q 409.72 255.549625 407.72 255.549625 
L 308.024688 255.549625 
Q 306.024688 255.549625 306.024688 257.549625 
L 306.024688 300.584 
Q 306.024688 302.584 308.024688 302.584 
z
" style="fill: #ffffff; opacity: 0.8; stroke: #cccccc; stroke-linejoin: miter"/>
    </g>
    <g id="line2d_15">
     <path d="M 310.024688 263.648062 
L 320.024688 263.648062 
L 330.024688 263.648062 
" style="fill: none; stroke: #0000ff; stroke-width: 1.5; stroke-linecap: square"/>
    </g>
    <g id="text_15">
     <!-- training set -->
     <g transform="translate(338.024688 267.148062) scale(0.1 -0.1)">
      <use xlink:href="#DejaVuSans-74"/>
      <use xlink:href="#DejaVuSans-72" x="39.208984"/>
      <use xlink:href="#DejaVuSans-61" x="80.322266"/>
      <use xlink:href="#DejaVuSans-69" x="141.601562"/>
      <use xlink:href="#DejaVuSans-6e" x="169.384766"/>
      <use xlink:href="#DejaVuSans-69" x="232.763672"/>
      <use xlink:href="#DejaVuSans-6e" x="260.546875"/>
      <use xlink:href="#DejaVuSans-67" x="323.925781"/>
      <use xlink:href="#DejaVuSans-20" x="387.402344"/>
      <use xlink:href="#DejaVuSans-73" x="419.189453"/>
      <use xlink:href="#DejaVuSans-65" x="471.289062"/>
      <use xlink:href="#DejaVuSans-74" x="532.8125"/>
     </g>
    </g>
    <g id="line2d_16">
     <path d="M 310.024688 278.326188 
L 320.024688 278.326188 
L 330.024688 278.326188 
" style="fill: none; stroke: #008000; stroke-width: 1.5; stroke-linecap: square"/>
    </g>
    <g id="text_16">
     <!-- validation set -->
     <g transform="translate(338.024688 281.826188) scale(0.1 -0.1)">
      <use xlink:href="#DejaVuSans-76"/>
      <use xlink:href="#DejaVuSans-61" x="59.179688"/>
      <use xlink:href="#DejaVuSans-6c" x="120.458984"/>
      <use xlink:href="#DejaVuSans-69" x="148.242188"/>
      <use xlink:href="#DejaVuSans-64" x="176.025391"/>
      <use xlink:href="#DejaVuSans-61" x="239.501953"/>
      <use xlink:href="#DejaVuSans-74" x="300.78125"/>
      <use xlink:href="#DejaVuSans-69" x="339.990234"/>
      <use xlink:href="#DejaVuSans-6f" x="367.773438"/>
      <use xlink:href="#DejaVuSans-6e" x="428.955078"/>
      <use xlink:href="#DejaVuSans-20" x="492.333984"/>
      <use xlink:href="#DejaVuSans-73" x="524.121094"/>
      <use xlink:href="#DejaVuSans-65" x="576.220703"/>
      <use xlink:href="#DejaVuSans-74" x="637.744141"/>
     </g>
    </g>
    <g id="line2d_17">
     <path d="M 310.024688 293.004312 
L 320.024688 293.004312 
L 330.024688 293.004312 
" style="fill: none; stroke: #ff0000; stroke-width: 1.5; stroke-linecap: square"/>
    </g>
    <g id="text_17">
     <!-- test set -->
     <g transform="translate(338.024688 296.504312) scale(0.1 -0.1)">
      <use xlink:href="#DejaVuSans-74"/>
      <use xlink:href="#DejaVuSans-65" x="39.208984"/>
      <use xlink:href="#DejaVuSans-73" x="100.732422"/>
      <use xlink:href="#DejaVuSans-74" x="152.832031"/>
      <use xlink:href="#DejaVuSans-20" x="192.041016"/>
      <use xlink:href="#DejaVuSans-73" x="223.828125"/>
      <use xlink:href="#DejaVuSans-65" x="275.927734"/>
      <use xlink:href="#DejaVuSans-74" x="337.451172"/>
     </g>
    </g>
   </g>
  </g>
 </g>
 <defs>
  <clipPath id="p0ce1b851af">
   <rect x="57.6" y="41.472" width="357.12" height="266.112"/>
  </clipPath>
 </defs>
</svg>
