<?xml version="1.0" encoding="utf-8" standalone="no"?>
<!DOCTYPE svg PUBLIC "-//W3C//DTD SVG 1.1//EN"
  "http://www.w3.org/Graphics/SVG/1.1/DTD/svg11.dtd">
<svg xmlns:xlink="http://www.w3.org/1999/xlink" width="460.8pt" height="345.6pt" viewBox="0 0 460.8 345.6" xmlns="http://www.w3.org/2000/svg" version="1.1">
 <metadata>
  <rdf:RDF xmlns:dc="http://purl.org/dc/elements/1.1/" xmlns:cc="http://creativecommons.org/ns#" xmlns:rdf="http://www.w3.org/1999/02/22-rdf-syntax-ns#">
   <cc:Work>
    <dc:type rdf:resource="http://purl.org/dc/dcmitype/StillImage"/>
    <dc:date>2023-04-08T15:36:19.131133</dc:date>
    <dc:format>image/svg+xml</dc:format>
    <dc:creator>
     <cc:Agent>
      <dc:title>Matplotlib v3.7.1, https://matplotlib.org/</dc:title>
     </cc:Agent>
    </dc:creator>
   </cc:Work>
  </rdf:RDF>
 </metadata>
 <defs>
  <style type="text/css">*{stroke-linejoin: round; stroke-linecap: butt}</style>
 </defs>
 <g id="figure_1">
  <g id="patch_1">
   <path d="M 0 345.6 
L 460.8 345.6 
L 460.8 0 
L 0 0 
z
" style="fill: #ffffff"/>
  </g>
  <g id="axes_1">
   <g id="patch_2">
    <path d="M 57.6 307.584 
L 414.72 307.584 
L 414.72 41.472 
L 57.6 41.472 
z
" style="fill: #ffffff"/>
   </g>
   <g id="matplotlib.axis_1">
    <g id="xtick_1">
     <g id="line2d_1">
      <defs>
       <path id="m08ad8a0632" d="M 0 0 
L 0 3.5 
" style="stroke: #000000; stroke-width: 0.8"/>
      </defs>
      <g>
       <use xlink:href="#m08ad8a0632" x="73.507748" y="307.584" style="stroke: #000000; stroke-width: 0.8"/>
      </g>
     </g>
     <g id="text_1">
      <!-- 0 -->
      <g transform="translate(70.326498 322.182437) scale(0.1 -0.1)">
       <defs>
        <path id="DejaVuSans-30" d="M 2034 4250 
Q 1547 4250 1301 3770 
Q 1056 3291 1056 2328 
Q 1056 1369 1301 889 
Q 1547 409 2034 409 
Q 2525 409 2770 889 
Q 3016 1369 3016 2328 
Q 3016 3291 2770 3770 
Q 2525 4250 2034 4250 
z
M 2034 4750 
Q 2819 4750 3233 4129 
Q 3647 3509 3647 2328 
Q 3647 1150 3233 529 
Q 2819 -91 2034 -91 
Q 1250 -91 836 529 
Q 422 1150 422 2328 
Q 422 3509 836 4129 
Q 1250 4750 2034 4750 
z
" transform="scale(0.015625)"/>
       </defs>
       <use xlink:href="#DejaVuSans-30"/>
      </g>
     </g>
    </g>
    <g id="xtick_2">
     <g id="line2d_2">
      <g>
       <use xlink:href="#m08ad8a0632" x="138.503653" y="307.584" style="stroke: #000000; stroke-width: 0.8"/>
      </g>
     </g>
     <g id="text_2">
      <!-- 200 -->
      <g transform="translate(128.959903 322.182437) scale(0.1 -0.1)">
       <defs>
        <path id="DejaVuSans-32" d="M 1228 531 
L 3431 531 
L 3431 0 
L 469 0 
L 469 531 
Q 828 903 1448 1529 
Q 2069 2156 2228 2338 
Q 2531 2678 2651 2914 
Q 2772 3150 2772 3378 
Q 2772 3750 2511 3984 
Q 2250 4219 1831 4219 
Q 1534 4219 1204 4116 
Q 875 4013 500 3803 
L 500 4441 
Q 881 4594 1212 4672 
Q 1544 4750 1819 4750 
Q 2544 4750 2975 4387 
Q 3406 4025 3406 3419 
Q 3406 3131 3298 2873 
Q 3191 2616 2906 2266 
Q 2828 2175 2409 1742 
Q 1991 1309 1228 531 
z
" transform="scale(0.015625)"/>
       </defs>
       <use xlink:href="#DejaVuSans-32"/>
       <use xlink:href="#DejaVuSans-30" x="63.623047"/>
       <use xlink:href="#DejaVuSans-30" x="127.246094"/>
      </g>
     </g>
    </g>
    <g id="xtick_3">
     <g id="line2d_3">
      <g>
       <use xlink:href="#m08ad8a0632" x="203.499558" y="307.584" style="stroke: #000000; stroke-width: 0.8"/>
      </g>
     </g>
     <g id="text_3">
      <!-- 400 -->
      <g transform="translate(193.955808 322.182437) scale(0.1 -0.1)">
       <defs>
        <path id="DejaVuSans-34" d="M 2419 4116 
L 825 1625 
L 2419 1625 
L 2419 4116 
z
M 2253 4666 
L 3047 4666 
L 3047 1625 
L 3713 1625 
L 3713 1100 
L 3047 1100 
L 3047 0 
L 2419 0 
L 2419 1100 
L 313 1100 
L 313 1709 
L 2253 4666 
z
" transform="scale(0.015625)"/>
       </defs>
       <use xlink:href="#DejaVuSans-34"/>
       <use xlink:href="#DejaVuSans-30" x="63.623047"/>
       <use xlink:href="#DejaVuSans-30" x="127.246094"/>
      </g>
     </g>
    </g>
    <g id="xtick_4">
     <g id="line2d_4">
      <g>
       <use xlink:href="#m08ad8a0632" x="268.495463" y="307.584" style="stroke: #000000; stroke-width: 0.8"/>
      </g>
     </g>
     <g id="text_4">
      <!-- 600 -->
      <g transform="translate(258.951713 322.182437) scale(0.1 -0.1)">
       <defs>
        <path id="DejaVuSans-36" d="M 2113 2584 
Q 1688 2584 1439 2293 
Q 1191 2003 1191 1497 
Q 1191 994 1439 701 
Q 1688 409 2113 409 
Q 2538 409 2786 701 
Q 3034 994 3034 1497 
Q 3034 2003 2786 2293 
Q 2538 2584 2113 2584 
z
M 3366 4563 
L 3366 3988 
Q 3128 4100 2886 4159 
Q 2644 4219 2406 4219 
Q 1781 4219 1451 3797 
Q 1122 3375 1075 2522 
Q 1259 2794 1537 2939 
Q 1816 3084 2150 3084 
Q 2853 3084 3261 2657 
Q 3669 2231 3669 1497 
Q 3669 778 3244 343 
Q 2819 -91 2113 -91 
Q 1303 -91 875 529 
Q 447 1150 447 2328 
Q 447 3434 972 4092 
Q 1497 4750 2381 4750 
Q 2619 4750 2861 4703 
Q 3103 4656 3366 4563 
z
" transform="scale(0.015625)"/>
       </defs>
       <use xlink:href="#DejaVuSans-36"/>
       <use xlink:href="#DejaVuSans-30" x="63.623047"/>
       <use xlink:href="#DejaVuSans-30" x="127.246094"/>
      </g>
     </g>
    </g>
    <g id="xtick_5">
     <g id="line2d_5">
      <g>
       <use xlink:href="#m08ad8a0632" x="333.491368" y="307.584" style="stroke: #000000; stroke-width: 0.8"/>
      </g>
     </g>
     <g id="text_5">
      <!-- 800 -->
      <g transform="translate(323.947618 322.182437) scale(0.1 -0.1)">
       <defs>
        <path id="DejaVuSans-38" d="M 2034 2216 
Q 1584 2216 1326 1975 
Q 1069 1734 1069 1313 
Q 1069 891 1326 650 
Q 1584 409 2034 409 
Q 2484 409 2743 651 
Q 3003 894 3003 1313 
Q 3003 1734 2745 1975 
Q 2488 2216 2034 2216 
z
M 1403 2484 
Q 997 2584 770 2862 
Q 544 3141 544 3541 
Q 544 4100 942 4425 
Q 1341 4750 2034 4750 
Q 2731 4750 3128 4425 
Q 3525 4100 3525 3541 
Q 3525 3141 3298 2862 
Q 3072 2584 2669 2484 
Q 3125 2378 3379 2068 
Q 3634 1759 3634 1313 
Q 3634 634 3220 271 
Q 2806 -91 2034 -91 
Q 1263 -91 848 271 
Q 434 634 434 1313 
Q 434 1759 690 2068 
Q 947 2378 1403 2484 
z
M 1172 3481 
Q 1172 3119 1398 2916 
Q 1625 2713 2034 2713 
Q 2441 2713 2670 2916 
Q 2900 3119 2900 3481 
Q 2900 3844 2670 4047 
Q 2441 4250 2034 4250 
Q 1625 4250 1398 4047 
Q 1172 3844 1172 3481 
z
" transform="scale(0.015625)"/>
       </defs>
       <use xlink:href="#DejaVuSans-38"/>
       <use xlink:href="#DejaVuSans-30" x="63.623047"/>
       <use xlink:href="#DejaVuSans-30" x="127.246094"/>
      </g>
     </g>
    </g>
    <g id="xtick_6">
     <g id="line2d_6">
      <g>
       <use xlink:href="#m08ad8a0632" x="398.487273" y="307.584" style="stroke: #000000; stroke-width: 0.8"/>
      </g>
     </g>
     <g id="text_6">
      <!-- 1000 -->
      <g transform="translate(385.762273 322.182437) scale(0.1 -0.1)">
       <defs>
        <path id="DejaVuSans-31" d="M 794 531 
L 1825 531 
L 1825 4091 
L 703 3866 
L 703 4441 
L 1819 4666 
L 2450 4666 
L 2450 531 
L 3481 531 
L 3481 0 
L 794 0 
L 794 531 
z
" transform="scale(0.015625)"/>
       </defs>
       <use xlink:href="#DejaVuSans-31"/>
       <use xlink:href="#DejaVuSans-30" x="63.623047"/>
       <use xlink:href="#DejaVuSans-30" x="127.246094"/>
       <use xlink:href="#DejaVuSans-30" x="190.869141"/>
      </g>
     </g>
    </g>
    <g id="text_7">
     <!-- epoch -->
     <g transform="translate(220.931875 335.860562) scale(0.1 -0.1)">
      <defs>
       <path id="DejaVuSans-65" d="M 3597 1894 
L 3597 1613 
L 953 1613 
Q 991 1019 1311 708 
Q 1631 397 2203 397 
Q 2534 397 2845 478 
Q 3156 559 3463 722 
L 3463 178 
Q 3153 47 2828 -22 
Q 2503 -91 2169 -91 
Q 1331 -91 842 396 
Q 353 884 353 1716 
Q 353 2575 817 3079 
Q 1281 3584 2069 3584 
Q 2775 3584 3186 3129 
Q 3597 2675 3597 1894 
z
M 3022 2063 
Q 3016 2534 2758 2815 
Q 2500 3097 2075 3097 
Q 1594 3097 1305 2825 
Q 1016 2553 972 2059 
L 3022 2063 
z
" transform="scale(0.015625)"/>
       <path id="DejaVuSans-70" d="M 1159 525 
L 1159 -1331 
L 581 -1331 
L 581 3500 
L 1159 3500 
L 1159 2969 
Q 1341 3281 1617 3432 
Q 1894 3584 2278 3584 
Q 2916 3584 3314 3078 
Q 3713 2572 3713 1747 
Q 3713 922 3314 415 
Q 2916 -91 2278 -91 
Q 1894 -91 1617 61 
Q 1341 213 1159 525 
z
M 3116 1747 
Q 3116 2381 2855 2742 
Q 2594 3103 2138 3103 
Q 1681 3103 1420 2742 
Q 1159 2381 1159 1747 
Q 1159 1113 1420 752 
Q 1681 391 2138 391 
Q 2594 391 2855 752 
Q 3116 1113 3116 1747 
z
" transform="scale(0.015625)"/>
       <path id="DejaVuSans-6f" d="M 1959 3097 
Q 1497 3097 1228 2736 
Q 959 2375 959 1747 
Q 959 1119 1226 758 
Q 1494 397 1959 397 
Q 2419 397 2687 759 
Q 2956 1122 2956 1747 
Q 2956 2369 2687 2733 
Q 2419 3097 1959 3097 
z
M 1959 3584 
Q 2709 3584 3137 3096 
Q 3566 2609 3566 1747 
Q 3566 888 3137 398 
Q 2709 -91 1959 -91 
Q 1206 -91 779 398 
Q 353 888 353 1747 
Q 353 2609 779 3096 
Q 1206 3584 1959 3584 
z
" transform="scale(0.015625)"/>
       <path id="DejaVuSans-63" d="M 3122 3366 
L 3122 2828 
Q 2878 2963 2633 3030 
Q 2388 3097 2138 3097 
Q 1578 3097 1268 2742 
Q 959 2388 959 1747 
Q 959 1106 1268 751 
Q 1578 397 2138 397 
Q 2388 397 2633 464 
Q 2878 531 3122 666 
L 3122 134 
Q 2881 22 2623 -34 
Q 2366 -91 2075 -91 
Q 1284 -91 818 406 
Q 353 903 353 1747 
Q 353 2603 823 3093 
Q 1294 3584 2113 3584 
Q 2378 3584 2631 3529 
Q 2884 3475 3122 3366 
z
" transform="scale(0.015625)"/>
       <path id="DejaVuSans-68" d="M 3513 2113 
L 3513 0 
L 2938 0 
L 2938 2094 
Q 2938 2591 2744 2837 
Q 2550 3084 2163 3084 
Q 1697 3084 1428 2787 
Q 1159 2491 1159 1978 
L 1159 0 
L 581 0 
L 581 4863 
L 1159 4863 
L 1159 2956 
Q 1366 3272 1645 3428 
Q 1925 3584 2291 3584 
Q 2894 3584 3203 3211 
Q 3513 2838 3513 2113 
z
" transform="scale(0.015625)"/>
      </defs>
      <use xlink:href="#DejaVuSans-65"/>
      <use xlink:href="#DejaVuSans-70" x="61.523438"/>
      <use xlink:href="#DejaVuSans-6f" x="125"/>
      <use xlink:href="#DejaVuSans-63" x="186.181641"/>
      <use xlink:href="#DejaVuSans-68" x="241.162109"/>
     </g>
    </g>
   </g>
   <g id="matplotlib.axis_2">
    <g id="ytick_1">
     <g id="line2d_7">
      <defs>
       <path id="mc96a061d2a" d="M 0 0 
L -3.5 0 
" style="stroke: #000000; stroke-width: 0.8"/>
      </defs>
      <g>
       <use xlink:href="#mc96a061d2a" x="57.6" y="306.971393" style="stroke: #000000; stroke-width: 0.8"/>
      </g>
     </g>
     <g id="text_8">
      <!-- 0 -->
      <g transform="translate(44.2375 310.770611) scale(0.1 -0.1)">
       <use xlink:href="#DejaVuSans-30"/>
      </g>
     </g>
    </g>
    <g id="ytick_2">
     <g id="line2d_8">
      <g>
       <use xlink:href="#mc96a061d2a" x="57.6" y="267.259449" style="stroke: #000000; stroke-width: 0.8"/>
      </g>
     </g>
     <g id="text_9">
      <!-- 1 -->
      <g transform="translate(44.2375 271.058667) scale(0.1 -0.1)">
       <use xlink:href="#DejaVuSans-31"/>
      </g>
     </g>
    </g>
    <g id="ytick_3">
     <g id="line2d_9">
      <g>
       <use xlink:href="#mc96a061d2a" x="57.6" y="227.547505" style="stroke: #000000; stroke-width: 0.8"/>
      </g>
     </g>
     <g id="text_10">
      <!-- 2 -->
      <g transform="translate(44.2375 231.346724) scale(0.1 -0.1)">
       <use xlink:href="#DejaVuSans-32"/>
      </g>
     </g>
    </g>
    <g id="ytick_4">
     <g id="line2d_10">
      <g>
       <use xlink:href="#mc96a061d2a" x="57.6" y="187.835561" style="stroke: #000000; stroke-width: 0.8"/>
      </g>
     </g>
     <g id="text_11">
      <!-- 3 -->
      <g transform="translate(44.2375 191.63478) scale(0.1 -0.1)">
       <defs>
        <path id="DejaVuSans-33" d="M 2597 2516 
Q 3050 2419 3304 2112 
Q 3559 1806 3559 1356 
Q 3559 666 3084 287 
Q 2609 -91 1734 -91 
Q 1441 -91 1130 -33 
Q 819 25 488 141 
L 488 750 
Q 750 597 1062 519 
Q 1375 441 1716 441 
Q 2309 441 2620 675 
Q 2931 909 2931 1356 
Q 2931 1769 2642 2001 
Q 2353 2234 1838 2234 
L 1294 2234 
L 1294 2753 
L 1863 2753 
Q 2328 2753 2575 2939 
Q 2822 3125 2822 3475 
Q 2822 3834 2567 4026 
Q 2313 4219 1838 4219 
Q 1578 4219 1281 4162 
Q 984 4106 628 3988 
L 628 4550 
Q 988 4650 1302 4700 
Q 1616 4750 1894 4750 
Q 2613 4750 3031 4423 
Q 3450 4097 3450 3541 
Q 3450 3153 3228 2886 
Q 3006 2619 2597 2516 
z
" transform="scale(0.015625)"/>
       </defs>
       <use xlink:href="#DejaVuSans-33"/>
      </g>
     </g>
    </g>
    <g id="ytick_5">
     <g id="line2d_11">
      <g>
       <use xlink:href="#mc96a061d2a" x="57.6" y="148.123617" style="stroke: #000000; stroke-width: 0.8"/>
      </g>
     </g>
     <g id="text_12">
      <!-- 4 -->
      <g transform="translate(44.2375 151.922836) scale(0.1 -0.1)">
       <use xlink:href="#DejaVuSans-34"/>
      </g>
     </g>
    </g>
    <g id="ytick_6">
     <g id="line2d_12">
      <g>
       <use xlink:href="#mc96a061d2a" x="57.6" y="108.411673" style="stroke: #000000; stroke-width: 0.8"/>
      </g>
     </g>
     <g id="text_13">
      <!-- 5 -->
      <g transform="translate(44.2375 112.210892) scale(0.1 -0.1)">
       <defs>
        <path id="DejaVuSans-35" d="M 691 4666 
L 3169 4666 
L 3169 4134 
L 1269 4134 
L 1269 2991 
Q 1406 3038 1543 3061 
Q 1681 3084 1819 3084 
Q 2600 3084 3056 2656 
Q 3513 2228 3513 1497 
Q 3513 744 3044 326 
Q 2575 -91 1722 -91 
Q 1428 -91 1123 -41 
Q 819 9 494 109 
L 494 744 
Q 775 591 1075 516 
Q 1375 441 1709 441 
Q 2250 441 2565 725 
Q 2881 1009 2881 1497 
Q 2881 1984 2565 2268 
Q 2250 2553 1709 2553 
Q 1456 2553 1204 2497 
Q 953 2441 691 2322 
L 691 4666 
z
" transform="scale(0.015625)"/>
       </defs>
       <use xlink:href="#DejaVuSans-35"/>
      </g>
     </g>
    </g>
    <g id="ytick_7">
     <g id="line2d_13">
      <g>
       <use xlink:href="#mc96a061d2a" x="57.6" y="68.699729" style="stroke: #000000; stroke-width: 0.8"/>
      </g>
     </g>
     <g id="text_14">
      <!-- 6 -->
      <g transform="translate(44.2375 72.498948) scale(0.1 -0.1)">
       <use xlink:href="#DejaVuSans-36"/>
      </g>
     </g>
    </g>
    <g id="text_15">
     <!-- loss -->
     <g transform="translate(38.157812 184.185812) rotate(-90) scale(0.1 -0.1)">
      <defs>
       <path id="DejaVuSans-6c" d="M 603 4863 
L 1178 4863 
L 1178 0 
L 603 0 
L 603 4863 
z
" transform="scale(0.015625)"/>
       <path id="DejaVuSans-73" d="M 2834 3397 
L 2834 2853 
Q 2591 2978 2328 3040 
Q 2066 3103 1784 3103 
Q 1356 3103 1142 2972 
Q 928 2841 928 2578 
Q 928 2378 1081 2264 
Q 1234 2150 1697 2047 
L 1894 2003 
Q 2506 1872 2764 1633 
Q 3022 1394 3022 966 
Q 3022 478 2636 193 
Q 2250 -91 1575 -91 
Q 1294 -91 989 -36 
Q 684 19 347 128 
L 347 722 
Q 666 556 975 473 
Q 1284 391 1588 391 
Q 1994 391 2212 530 
Q 2431 669 2431 922 
Q 2431 1156 2273 1281 
Q 2116 1406 1581 1522 
L 1381 1569 
Q 847 1681 609 1914 
Q 372 2147 372 2553 
Q 372 3047 722 3315 
Q 1072 3584 1716 3584 
Q 2034 3584 2315 3537 
Q 2597 3491 2834 3397 
z
" transform="scale(0.015625)"/>
      </defs>
      <use xlink:href="#DejaVuSans-6c"/>
      <use xlink:href="#DejaVuSans-6f" x="27.783203"/>
      <use xlink:href="#DejaVuSans-73" x="88.964844"/>
      <use xlink:href="#DejaVuSans-73" x="141.064453"/>
     </g>
    </g>
   </g>
   <g id="line2d_14">
    <path d="M 73.832727 235.753378 
L 74.157707 232.850767 
L 74.482686 237.508847 
L 74.807666 238.261085 
L 76.757543 249.225038 
L 77.732482 252.919903 
L 79.682359 256.985055 
L 82.282195 260.599602 
L 82.607174 260.605444 
L 83.582113 262.56807 
L 83.907093 262.839993 
L 85.207011 265.241089 
L 85.53199 265.530793 
L 85.85697 266.330078 
L 86.181949 266.711977 
L 86.506929 267.378678 
L 86.831908 267.620289 
L 88.131826 269.042304 
L 88.456806 269.235761 
L 88.781785 269.707656 
L 89.106765 269.781621 
L 89.431744 270.086753 
L 89.756724 270.150094 
L 90.081704 270.377713 
L 90.406683 270.422923 
L 90.731663 270.734418 
L 91.056642 270.62202 
L 91.381622 270.889133 
L 91.706601 270.873215 
L 92.031581 271.048197 
L 92.35656 270.953485 
L 92.68154 271.689751 
L 93.006519 270.49294 
L 93.331499 271.853285 
L 93.656478 271.615417 
L 93.981458 271.752846 
L 94.306437 271.627687 
L 94.631417 271.781648 
L 94.956396 272.140854 
L 95.281376 271.835206 
L 95.606355 272.612887 
L 95.931335 272.552014 
L 96.256314 272.623614 
L 96.581294 272.969009 
L 96.906274 272.631534 
L 97.231253 272.930782 
L 97.881212 272.75718 
L 98.206192 273.213619 
L 98.531171 272.968275 
L 98.856151 273.490333 
L 99.18113 273.33192 
L 99.50611 273.552422 
L 100.481048 273.413116 
L 100.806028 273.667582 
L 101.131007 273.596747 
L 101.455987 273.979697 
L 101.780966 273.947463 
L 102.105946 273.709554 
L 102.430925 274.033807 
L 103.730844 274.063447 
L 104.055823 274.326588 
L 104.380803 274.422651 
L 104.705782 274.390126 
L 105.030762 274.580277 
L 105.355741 274.614495 
L 105.680721 274.801061 
L 106.0057 274.756665 
L 106.33068 274.843085 
L 106.980639 274.599457 
L 107.955577 275.041808 
L 108.280557 274.531877 
L 108.605536 275.180352 
L 108.930516 274.994025 
L 109.255495 275.174713 
L 109.580475 274.96804 
L 110.555414 275.420339 
L 110.880393 275.156106 
L 112.180311 275.541168 
L 112.505291 275.387802 
L 113.15525 275.564926 
L 113.480229 275.489119 
L 113.805209 275.8191 
L 114.130188 275.839267 
L 114.455168 274.845485 
L 114.780147 275.928168 
L 115.105127 274.735883 
L 115.430106 275.610517 
L 115.755086 275.372447 
L 116.080066 275.395184 
L 116.405045 274.972161 
L 116.730025 275.845171 
L 117.055004 275.886608 
L 117.379984 275.326169 
L 117.704963 275.727194 
L 118.029943 275.250373 
L 118.354922 276.02264 
L 118.679902 275.925155 
L 119.004881 275.475585 
L 119.329861 275.965529 
L 120.629779 275.946299 
L 120.954758 276.239054 
L 121.279738 276.054391 
L 121.604717 276.090952 
L 121.929697 275.898971 
L 122.254676 276.112776 
L 122.579656 276.120448 
L 122.904636 276.524637 
L 123.229615 276.329041 
L 123.554595 276.554147 
L 123.879574 276.360768 
L 124.204554 276.782083 
L 124.529533 276.541303 
L 124.854513 276.565234 
L 125.504472 276.760117 
L 126.154431 276.805784 
L 126.80439 277.064776 
L 127.129369 276.851172 
L 127.454349 277.123376 
L 127.779328 276.472979 
L 128.104308 277.066307 
L 128.429287 276.555027 
L 128.754267 277.196481 
L 129.079247 276.413432 
L 129.404226 277.026586 
L 130.054185 275.817084 
L 130.379165 276.808135 
L 130.704144 276.499899 
L 131.029124 276.828912 
L 131.679083 276.937359 
L 132.004062 277.258429 
L 132.329042 276.748301 
L 132.654021 276.562225 
L 133.30398 277.456737 
L 133.62896 277.020503 
L 134.278919 277.612267 
L 134.603898 277.433301 
L 134.928878 277.541441 
L 135.253857 277.289273 
L 135.578837 277.831486 
L 135.903817 277.347009 
L 136.228796 277.725313 
L 136.553776 277.6106 
L 136.878755 277.888012 
L 137.203735 277.523594 
L 137.528714 277.955839 
L 138.178673 277.571677 
L 138.503653 277.698807 
L 138.828632 277.602304 
L 139.153612 277.883645 
L 139.478591 277.364137 
L 139.803571 278.048314 
L 140.45353 277.417009 
L 140.778509 278.118702 
L 141.103489 277.114509 
L 141.428468 278.273741 
L 141.753448 276.878298 
L 142.078428 277.880123 
L 142.403407 277.844031 
L 142.728387 277.350988 
L 143.053366 278.260114 
L 143.378346 277.84983 
L 143.703325 276.481112 
L 144.028305 278.76837 
L 144.353284 277.529189 
L 145.003243 278.414373 
L 145.328223 277.181394 
L 145.653202 278.230214 
L 145.978182 277.35309 
L 146.303161 278.042403 
L 146.628141 278.277252 
L 146.95312 278.72773 
L 147.2781 278.329241 
L 147.603079 278.294325 
L 147.928059 278.767544 
L 148.253038 278.672458 
L 148.578018 278.873368 
L 149.227977 279.037684 
L 149.552957 278.466888 
L 149.877936 279.212602 
L 150.527895 278.795503 
L 150.852875 279.52591 
L 151.177854 279.495517 
L 151.502834 279.167477 
L 152.152793 279.642151 
L 152.477772 279.601798 
L 152.802752 279.161765 
L 153.127731 279.2445 
L 153.452711 279.559519 
L 153.77769 279.516489 
L 154.10267 279.157327 
L 154.427649 279.811213 
L 154.752629 279.474931 
L 155.077609 279.883909 
L 155.402588 279.912921 
L 155.727568 278.801513 
L 156.052547 280.067724 
L 156.377527 278.57124 
L 157.027486 279.919291 
L 157.352465 278.499822 
L 157.677445 280.25559 
L 158.002424 279.497583 
L 158.327404 280.316881 
L 158.652383 280.115931 
L 158.977363 280.393208 
L 159.302342 280.386052 
L 159.627322 280.684699 
L 159.952301 280.616212 
L 160.277281 280.71471 
L 160.92724 280.332106 
L 161.252219 280.629389 
L 161.577199 279.944696 
L 161.902179 280.879095 
L 162.227158 279.818773 
L 162.552138 280.696271 
L 162.877117 280.566564 
L 163.202097 280.250093 
L 163.527076 280.936755 
L 163.852056 280.583438 
L 164.177035 280.995737 
L 164.502015 281.135291 
L 164.826994 280.822658 
L 165.151974 280.842283 
L 165.476953 279.902173 
L 165.801933 281.060536 
L 166.126912 281.21327 
L 166.451892 280.681108 
L 166.776871 281.639541 
L 167.101851 280.865044 
L 167.42683 281.81329 
L 167.75181 281.840122 
L 168.07679 281.081103 
L 168.401769 281.55057 
L 168.726749 281.760406 
L 169.051728 281.307579 
L 169.376708 281.813276 
L 169.701687 280.602341 
L 170.026667 282.208844 
L 170.351646 281.549507 
L 170.676626 281.527402 
L 171.001605 282.091225 
L 171.326585 281.385293 
L 171.651564 281.752976 
L 172.301523 282.09104 
L 172.626503 282.351921 
L 173.276462 282.008673 
L 173.601441 282.529601 
L 174.2514 282.425542 
L 174.57638 282.049009 
L 174.90136 282.537315 
L 175.226339 282.654987 
L 175.551319 282.11664 
L 175.876298 283.25449 
L 176.201278 282.295806 
L 176.526257 282.900423 
L 176.851237 281.857087 
L 177.176216 283.466426 
L 177.501196 282.784098 
L 177.826175 283.258742 
L 178.151155 283.166253 
L 178.801114 283.445194 
L 179.126093 283.457315 
L 179.451073 283.787817 
L 179.776052 283.586772 
L 180.101032 282.456813 
L 180.426011 283.423675 
L 180.750991 283.857805 
L 181.075971 283.628997 
L 181.40095 283.806786 
L 181.72593 283.680752 
L 182.050909 284.007493 
L 182.375889 282.989491 
L 182.700868 283.807681 
L 183.025848 283.474737 
L 183.350827 284.281226 
L 183.675807 283.90012 
L 184.325766 284.169636 
L 184.650745 284.073035 
L 184.975725 283.40228 
L 185.300704 284.688928 
L 185.625684 284.59496 
L 185.950663 284.855509 
L 186.275643 284.230809 
L 186.600622 284.473258 
L 186.925602 284.86408 
L 187.250581 283.195722 
L 187.575561 284.835236 
L 187.900541 283.76338 
L 188.22552 285.084779 
L 188.5505 284.739689 
L 188.875479 284.161872 
L 189.200459 285.563588 
L 189.525438 284.756921 
L 190.175397 284.912375 
L 190.500377 285.436425 
L 190.825356 285.398146 
L 191.150336 284.647139 
L 191.475315 285.811455 
L 191.800295 285.328243 
L 192.125274 285.207452 
L 192.775233 285.590518 
L 193.100213 286.124486 
L 193.425192 285.137379 
L 193.750172 286.163868 
L 194.075152 286.133137 
L 194.400131 285.613686 
L 194.725111 286.186175 
L 195.05009 285.184709 
L 195.700049 286.53745 
L 196.025029 285.645953 
L 196.350008 286.706007 
L 196.674988 285.235248 
L 196.999967 286.81583 
L 197.324947 285.592307 
L 197.974906 287.014219 
L 198.299885 284.204954 
L 198.624865 286.757864 
L 198.949844 286.043775 
L 199.274824 286.488121 
L 199.599803 286.49922 
L 199.924783 286.309276 
L 200.249762 287.162357 
L 200.574742 287.064643 
L 200.899722 286.595946 
L 201.224701 286.991413 
L 201.549681 287.004464 
L 202.19964 287.754844 
L 202.524619 287.148173 
L 202.849599 287.625526 
L 203.174578 287.365804 
L 203.499558 287.577629 
L 203.824537 287.927882 
L 204.149517 287.632304 
L 204.474496 287.761974 
L 204.799476 287.288834 
L 205.124455 287.222709 
L 205.449435 287.875924 
L 205.774414 287.156941 
L 206.424373 287.654502 
L 206.749353 287.086242 
L 207.074333 287.142496 
L 207.399312 288.003207 
L 207.724292 285.891687 
L 208.374251 287.335863 
L 208.69923 287.511801 
L 209.02421 287.420849 
L 209.349189 287.917122 
L 209.674169 287.746079 
L 209.999148 287.055258 
L 210.324128 287.78931 
L 210.649107 288.053386 
L 210.974087 288.028225 
L 211.299066 288.415017 
L 211.624046 287.483949 
L 211.949025 288.120005 
L 212.274005 288.500175 
L 212.598984 286.673937 
L 212.923964 288.145534 
L 213.248943 287.580297 
L 213.573923 288.609087 
L 213.898903 287.649306 
L 214.223882 287.727197 
L 214.548862 288.588034 
L 214.873841 286.72706 
L 215.198821 288.592786 
L 215.5238 287.643635 
L 215.84878 288.832369 
L 216.173759 288.757471 
L 216.498739 288.158951 
L 216.823718 289.051053 
L 217.148698 288.358309 
L 217.473677 288.769454 
L 217.798657 288.516517 
L 218.123636 288.604646 
L 218.448616 288.823573 
L 218.773595 288.390125 
L 219.098575 289.124828 
L 219.423554 287.509529 
L 219.748534 288.755491 
L 220.073514 287.744738 
L 220.398493 287.893594 
L 220.723473 288.467789 
L 221.048452 286.613521 
L 221.373432 288.636011 
L 221.698411 287.522673 
L 222.023391 288.69944 
L 222.34837 288.003673 
L 222.67335 288.645126 
L 222.998329 288.64942 
L 223.323309 287.888123 
L 223.648288 289.054278 
L 223.973268 289.009921 
L 224.298247 289.334174 
L 224.623227 288.762442 
L 225.273186 289.050483 
L 225.598165 288.457573 
L 225.923145 288.60928 
L 226.248124 288.309518 
L 226.573104 288.938758 
L 226.898084 288.96822 
L 227.223063 289.276641 
L 227.548043 287.872669 
L 227.873022 289.40602 
L 228.198002 286.052971 
L 228.522981 289.426781 
L 228.847961 287.800636 
L 229.17294 287.459564 
L 229.49792 289.845791 
L 229.822899 286.741508 
L 230.147879 289.357951 
L 230.472858 289.373794 
L 230.797838 287.438168 
L 231.122817 288.68853 
L 231.447797 288.922697 
L 231.772776 286.875919 
L 232.097756 286.658023 
L 232.422735 288.587275 
L 232.747715 286.971213 
L 233.072695 289.239588 
L 233.397674 286.977731 
L 233.722654 287.197172 
L 234.047633 288.462961 
L 234.372613 288.498052 
L 234.697592 288.375984 
L 235.022572 287.111127 
L 235.347551 290.111274 
L 235.672531 288.216213 
L 235.99751 288.810261 
L 236.32249 289.164061 
L 236.647469 289.334482 
L 236.972449 288.838813 
L 237.622408 290.199802 
L 237.947387 289.747758 
L 238.272367 288.720614 
L 238.597346 288.992461 
L 238.922326 289.888354 
L 239.572285 289.540682 
L 240.222244 290.328545 
L 240.547224 289.694944 
L 240.872203 289.685483 
L 241.197183 290.45293 
L 241.522162 289.360429 
L 241.847142 289.853276 
L 242.172121 289.904152 
L 242.497101 289.453497 
L 242.82208 287.894097 
L 243.14706 289.431154 
L 243.472039 288.882874 
L 243.797019 289.109348 
L 244.121998 288.338939 
L 244.446978 289.546416 
L 244.771957 289.198001 
L 245.096937 289.960856 
L 245.421916 288.65938 
L 245.746896 290.876597 
L 246.071876 290.151123 
L 246.396855 290.204968 
L 246.721835 290.454571 
L 247.046814 290.310157 
L 247.371794 290.514163 
L 247.696773 289.96728 
L 248.021753 290.74685 
L 248.346732 290.61812 
L 248.671712 290.764572 
L 248.996691 290.052551 
L 249.321671 290.938448 
L 249.64665 291.057617 
L 249.97163 290.796465 
L 250.296609 288.87334 
L 250.621589 290.738609 
L 250.946568 290.128197 
L 251.596527 290.154052 
L 251.921507 290.370689 
L 252.246486 290.959698 
L 252.571466 289.093046 
L 252.896446 290.595891 
L 253.221425 290.180862 
L 253.546405 290.914724 
L 254.196364 290.037287 
L 254.521343 290.965811 
L 254.846323 290.791451 
L 255.171302 289.380014 
L 255.496282 290.193254 
L 255.821261 290.10203 
L 256.146241 289.497186 
L 256.7962 290.68252 
L 257.121179 289.971027 
L 257.446159 290.241867 
L 257.771138 290.691929 
L 258.096118 288.109362 
L 258.421097 289.900882 
L 258.746077 290.338145 
L 259.071057 288.36089 
L 259.396036 290.559673 
L 259.721016 291.008102 
L 260.370975 288.854894 
L 260.695954 291.575355 
L 261.020934 290.449738 
L 261.345913 290.257944 
L 261.670893 291.373579 
L 261.995872 291.213525 
L 262.320852 290.316514 
L 262.645831 291.271514 
L 262.970811 291.217542 
L 263.29579 290.682404 
L 263.62077 290.49499 
L 263.945749 290.599766 
L 264.270729 290.390658 
L 264.595708 289.815961 
L 264.920688 291.689855 
L 265.245667 289.262869 
L 265.570647 291.122295 
L 265.895627 287.671929 
L 266.220606 289.504031 
L 266.545586 287.777676 
L 266.870565 289.723397 
L 267.195545 289.297901 
L 267.520524 288.309643 
L 267.845504 291.349503 
L 268.170483 289.089515 
L 268.495463 288.921281 
L 268.820442 291.072154 
L 269.145422 287.722659 
L 269.470401 289.928891 
L 269.795381 290.125018 
L 270.12036 290.852002 
L 270.44534 289.825344 
L 270.770319 289.319675 
L 271.095299 291.765008 
L 271.745258 291.039306 
L 272.070238 291.617011 
L 272.395217 290.695302 
L 272.720197 291.501688 
L 273.045176 291.329967 
L 273.370156 290.099016 
L 273.695135 290.564129 
L 274.020115 290.824431 
L 274.345094 290.033968 
L 274.670074 291.906765 
L 274.995053 290.280295 
L 275.320033 291.187444 
L 275.645012 291.735548 
L 275.969992 290.214127 
L 276.294971 291.884846 
L 276.619951 291.384337 
L 276.94493 291.251378 
L 277.26991 292.20323 
L 277.919869 291.06154 
L 278.244848 291.898103 
L 278.569828 291.298566 
L 278.894808 291.54534 
L 279.219787 291.414444 
L 279.544767 292.036057 
L 279.869746 292.294793 
L 280.194726 291.988627 
L 280.519705 292.703603 
L 280.844685 292.147553 
L 281.169664 292.478536 
L 281.494644 292.619287 
L 281.819623 291.935419 
L 282.144603 292.478258 
L 282.469582 292.79149 
L 282.794562 291.599965 
L 283.119541 293.10965 
L 283.444521 291.634327 
L 283.7695 293.261622 
L 284.09448 290.609279 
L 284.419459 292.290265 
L 284.744439 290.98137 
L 285.069419 292.552781 
L 285.394398 292.65646 
L 285.719378 292.204437 
L 286.044357 293.10417 
L 286.369337 292.432852 
L 287.019296 293.255947 
L 287.344275 293.105106 
L 287.669255 293.268568 
L 287.994234 292.478113 
L 288.319214 292.725461 
L 288.644193 293.132213 
L 288.969173 293.016657 
L 289.294152 292.122145 
L 289.619132 293.276581 
L 290.269091 291.54814 
L 290.59407 292.606104 
L 290.91905 291.810334 
L 291.244029 292.366477 
L 291.569009 291.518504 
L 291.893989 292.143169 
L 292.218968 293.521374 
L 292.543948 291.584853 
L 292.868927 292.39984 
L 293.518886 289.44212 
L 293.843866 287.827578 
L 294.168845 290.652409 
L 294.493825 287.504579 
L 294.818804 292.206086 
L 295.143784 290.606283 
L 295.468763 290.444898 
L 295.793743 291.756692 
L 296.118722 292.025142 
L 296.443702 289.736014 
L 296.768681 292.66033 
L 297.093661 288.449407 
L 297.41864 291.48175 
L 297.74362 292.893421 
L 298.0686 292.162076 
L 298.393579 291.846465 
L 298.718559 293.735991 
L 299.043538 292.836374 
L 299.368518 293.350368 
L 299.693497 292.211903 
L 300.018477 293.449053 
L 300.343456 292.517006 
L 300.668436 292.551346 
L 300.993415 291.63815 
L 301.318395 293.250829 
L 301.643374 291.625668 
L 301.968354 293.133657 
L 302.293333 291.950972 
L 302.618313 293.094426 
L 302.943292 293.664182 
L 303.268272 293.140908 
L 303.593251 293.778466 
L 303.918231 293.797199 
L 304.24321 293.587081 
L 304.56819 293.915502 
L 305.218149 292.961004 
L 305.543129 293.598747 
L 305.868108 293.790991 
L 306.193088 293.76514 
L 306.518067 293.996354 
L 306.843047 293.952685 
L 307.168026 293.681711 
L 307.493006 293.942727 
L 308.142965 292.959856 
L 308.467944 294.199942 
L 308.792924 293.475438 
L 309.117903 290.807518 
L 309.442883 292.860624 
L 309.767862 291.774561 
L 310.417821 293.949329 
L 310.742801 292.811354 
L 311.067781 292.975546 
L 311.39276 294.262477 
L 311.71774 292.888633 
L 312.042719 293.778124 
L 312.367699 293.634366 
L 312.692678 293.807276 
L 313.017658 293.546303 
L 313.342637 294.020664 
L 313.667617 293.527734 
L 313.992596 293.455016 
L 314.317576 294.266997 
L 314.642555 293.271886 
L 314.967535 292.719009 
L 315.292514 294.262118 
L 315.617494 292.613416 
L 315.942473 293.930594 
L 316.267453 292.891923 
L 316.592432 294.196264 
L 316.917412 293.715734 
L 317.242391 293.674488 
L 317.892351 293.303888 
L 318.21733 293.704846 
L 318.54231 292.016193 
L 318.867289 293.02627 
L 319.192269 293.660333 
L 319.517248 292.614899 
L 319.842228 292.680927 
L 320.167207 292.929777 
L 320.492187 292.588296 
L 320.817166 293.450587 
L 321.142146 292.656982 
L 321.792105 294.394621 
L 322.117084 293.814354 
L 322.442064 292.68834 
L 322.767043 294.161374 
L 323.092023 293.570206 
L 323.417002 292.346662 
L 323.741982 292.846645 
L 324.066962 291.673273 
L 324.391941 292.529056 
L 324.716921 293.754558 
L 325.0419 291.161307 
L 325.36688 294.313889 
L 325.691859 294.201575 
L 326.016839 292.265686 
L 326.341818 293.066386 
L 326.666798 294.209747 
L 326.991777 290.63322 
L 327.316757 291.893926 
L 327.641736 292.383268 
L 327.966716 289.460808 
L 328.616675 293.966857 
L 328.941654 290.785142 
L 329.266634 290.424949 
L 329.591613 294.0983 
L 329.916593 289.791062 
L 330.241572 293.200921 
L 330.566552 294.461226 
L 330.891532 291.969036 
L 331.541491 294.411344 
L 331.86647 293.146266 
L 332.19145 293.298455 
L 332.516429 294.4618 
L 332.841409 292.092512 
L 333.166388 294.247767 
L 333.491368 294.714882 
L 333.816347 294.400073 
L 334.141327 294.395681 
L 334.466306 294.78232 
L 334.791286 294.055643 
L 335.441245 294.644846 
L 335.766224 294.326292 
L 336.091204 294.546435 
L 336.416183 294.632255 
L 336.741163 294.283947 
L 337.066143 293.284842 
L 337.391122 294.896274 
L 337.716102 291.831937 
L 338.041081 294.33661 
L 338.366061 294.696155 
L 339.01602 293.701021 
L 339.340999 294.512163 
L 339.665979 293.807268 
L 339.990958 294.560332 
L 340.315938 294.386619 
L 340.965897 294.636233 
L 341.290876 294.533534 
L 341.615856 294.262099 
L 341.940835 294.895473 
L 342.265815 294.536171 
L 342.590794 294.434717 
L 342.915774 293.515756 
L 343.240753 294.892351 
L 343.565733 294.524878 
L 343.890713 293.841528 
L 344.215692 294.781746 
L 344.540672 292.697321 
L 344.865651 294.096751 
L 345.190631 293.909318 
L 345.51561 294.539934 
L 345.84059 293.353544 
L 346.165569 294.186623 
L 346.490549 293.995462 
L 346.815528 293.131524 
L 347.140508 294.067735 
L 347.465487 292.862091 
L 347.790467 293.391676 
L 348.115446 293.436557 
L 348.440426 294.073769 
L 348.765405 294.431121 
L 349.090385 293.747271 
L 349.415364 293.765915 
L 349.740344 294.517664 
L 350.065324 292.057874 
L 350.390303 293.998456 
L 350.715283 294.700031 
L 351.040262 293.363556 
L 351.365242 293.73386 
L 351.690221 294.290223 
L 352.015201 293.847612 
L 352.34018 293.666521 
L 352.66516 294.910308 
L 352.990139 294.533335 
L 353.315119 293.764255 
L 353.640098 294.300509 
L 353.965078 293.606053 
L 354.940016 294.92085 
L 355.264996 293.279818 
L 355.589975 294.404323 
L 355.914955 294.910551 
L 356.239934 293.252011 
L 356.564914 294.418333 
L 356.889894 294.574423 
L 357.214873 294.063979 
L 357.539853 294.767106 
L 357.864832 294.776658 
L 358.189812 293.987894 
L 358.514791 294.038315 
L 358.839771 294.949971 
L 359.16475 293.980231 
L 359.48973 294.429306 
L 359.814709 294.534497 
L 360.139689 292.864654 
L 360.464668 295.150435 
L 360.789648 293.398157 
L 361.114627 294.74633 
L 361.764586 294.350483 
L 362.089566 295.08091 
L 362.414545 294.815071 
L 362.739525 294.744359 
L 363.064505 294.277446 
L 363.389484 294.841205 
L 363.714464 294.493914 
L 364.039443 295.129915 
L 364.364423 295.098284 
L 364.689402 294.546922 
L 365.014382 294.7594 
L 365.339361 295.243866 
L 365.98932 294.81654 
L 366.3143 295.402873 
L 366.964259 294.437324 
L 367.289238 295.264816 
L 367.939197 294.820226 
L 368.264177 295.426194 
L 368.589156 294.716056 
L 368.914136 295.16339 
L 369.239115 295.221031 
L 369.564095 295.14847 
L 369.889075 295.254366 
L 370.214054 294.924887 
L 370.539034 294.912574 
L 370.864013 295.348165 
L 371.188993 293.79493 
L 371.513972 295.280421 
L 371.838952 292.938061 
L 372.163931 294.15962 
L 372.488911 293.01667 
L 372.81389 293.85478 
L 373.13887 295.027134 
L 373.788829 294.626084 
L 374.113808 295.025774 
L 374.438788 294.859074 
L 374.763767 295.01953 
L 375.088747 294.429193 
L 375.413726 295.373833 
L 375.738706 294.819061 
L 376.388665 295.046159 
L 376.713645 293.448654 
L 377.038624 295.259463 
L 377.363604 294.085906 
L 377.688583 295.375061 
L 378.013563 295.309245 
L 378.338542 293.868502 
L 378.663522 295.366026 
L 378.988501 294.967267 
L 379.63846 295.263511 
L 379.96344 294.959104 
L 380.288419 295.047154 
L 380.613399 295.274796 
L 380.938378 295.178355 
L 381.263358 295.437126 
L 381.588337 294.907553 
L 381.913317 295.355963 
L 382.238296 295.04605 
L 382.563276 294.469104 
L 382.888256 294.455974 
L 383.213235 294.825045 
L 383.538215 294.345796 
L 383.863194 295.342905 
L 384.188174 294.931551 
L 384.513153 295.292958 
L 384.838133 294.950343 
L 385.163112 294.18492 
L 385.488092 295.095447 
L 385.813071 293.806266 
L 386.138051 294.767117 
L 386.46303 294.554093 
L 386.78801 294.034865 
L 387.112989 295.266213 
L 387.437969 294.787083 
L 387.762948 294.627164 
L 388.412907 294.844476 
L 388.737887 295.400714 
L 389.062867 295.420178 
L 389.387846 294.069356 
L 389.712826 294.367656 
L 390.037805 295.271812 
L 390.362785 291.759163 
L 390.687764 294.826859 
L 391.012744 295.446846 
L 391.337723 293.663117 
L 391.662703 293.900903 
L 391.987682 295.488 
L 392.312662 293.059903 
L 392.637641 294.687406 
L 392.962621 295.420173 
L 393.2876 294.614441 
L 393.61258 294.736967 
L 393.937559 294.379479 
L 394.262539 294.932158 
L 394.587518 292.787197 
L 394.912498 294.886403 
L 395.237477 293.621451 
L 395.562457 293.886883 
L 395.887437 293.740137 
L 396.212416 295.19813 
L 396.537396 293.323151 
L 396.862375 293.625608 
L 397.187355 295.454735 
L 397.512334 294.809322 
L 397.837314 295.307429 
L 398.162293 292.588041 
L 398.487273 294.950975 
L 398.487273 294.950975 
" clip-path="url(#p8c9157280c)" style="fill: none; stroke: #0000ff; stroke-width: 1.5; stroke-linecap: square"/>
   </g>
   <g id="line2d_15">
    <path d="M 73.832727 235.909776 
L 74.157707 238.216566 
L 74.482686 239.392774 
L 74.807666 238.433148 
L 75.132645 240.716504 
L 76.107584 249.044302 
L 76.432563 250.809078 
L 77.082523 252.349897 
L 77.407502 252.631955 
L 77.732482 252.621323 
L 78.057461 252.462387 
L 78.382441 252.123743 
L 78.70742 251.28082 
L 79.0324 251.5972 
L 79.357379 251.341373 
L 80.007338 249.137444 
L 80.332318 248.45598 
L 80.657297 247.144 
L 80.982277 246.788734 
L 81.307256 246.071614 
L 81.632236 246.063376 
L 81.957215 245.469752 
L 82.282195 245.137863 
L 82.607174 243.309291 
L 83.257133 245.112456 
L 83.582113 244.998536 
L 83.907093 243.672145 
L 84.232072 243.113151 
L 84.557052 243.372827 
L 84.882031 244.40058 
L 85.207011 244.848463 
L 85.53199 243.906329 
L 85.85697 244.321243 
L 86.181949 244.352038 
L 86.506929 244.103899 
L 86.831908 244.155575 
L 87.156888 242.899045 
L 87.481867 243.4307 
L 87.806847 243.635935 
L 88.131826 242.385885 
L 88.456806 241.732054 
L 88.781785 241.392074 
L 89.106765 242.008043 
L 89.431744 241.803325 
L 89.756724 242.43075 
L 90.081704 242.002088 
L 90.731663 240.810091 
L 91.056642 240.350341 
L 91.706601 240.856305 
L 92.35656 238.75991 
L 92.68154 238.754376 
L 93.006519 237.812346 
L 93.331499 238.96024 
L 93.656478 237.976588 
L 93.981458 238.795973 
L 94.306437 239.142846 
L 94.631417 238.396719 
L 94.956396 237.203289 
L 95.281376 237.236716 
L 95.606355 239.239372 
L 96.906274 236.337467 
L 97.231253 237.69025 
L 97.556233 238.021812 
L 97.881212 237.442821 
L 98.206192 235.904076 
L 98.531171 235.088303 
L 98.856151 236.077948 
L 99.18113 236.494102 
L 99.50611 236.4734 
L 99.831089 236.098498 
L 100.156069 233.348669 
L 100.481048 233.23535 
L 100.806028 234.51583 
L 101.131007 234.404874 
L 101.455987 233.687488 
L 101.780966 232.53923 
L 102.105946 232.208969 
L 102.430925 233.021197 
L 102.755905 232.191965 
L 103.080885 232.391845 
L 103.405864 232.427743 
L 103.730844 230.441443 
L 104.055823 230.473118 
L 104.380803 232.188339 
L 104.705782 231.840482 
L 105.030762 230.728869 
L 105.355741 230.255959 
L 105.680721 229.156385 
L 106.33068 229.393205 
L 106.655659 229.147759 
L 106.980639 228.544057 
L 107.305618 228.854524 
L 107.630598 228.744425 
L 107.955577 226.16797 
L 108.280557 225.579757 
L 108.605536 226.652233 
L 109.255495 227.177928 
L 109.905455 224.562385 
L 110.230434 225.092672 
L 110.555414 224.774621 
L 110.880393 224.065179 
L 111.205373 225.284514 
L 111.530352 224.421718 
L 111.855332 224.443523 
L 112.180311 223.237055 
L 112.505291 223.072433 
L 112.83027 223.211131 
L 113.15525 223.764445 
L 113.480229 223.992511 
L 113.805209 223.838191 
L 114.130188 222.632443 
L 114.455168 220.686765 
L 114.780147 222.68873 
L 115.105127 221.827667 
L 115.430106 222.434674 
L 115.755086 222.04974 
L 116.405045 219.660502 
L 116.730025 222.02411 
L 117.055004 222.980072 
L 117.379984 222.911684 
L 117.704963 222.049977 
L 118.029943 219.012139 
L 118.679902 221.666445 
L 119.004881 220.645371 
L 119.329861 220.812321 
L 119.65484 218.123087 
L 119.97982 218.167938 
L 120.304799 220.805523 
L 120.629779 219.932974 
L 120.954758 220.101108 
L 121.604717 218.387682 
L 122.254676 219.575962 
L 122.579656 221.296717 
L 123.229615 217.499312 
L 123.554595 218.328232 
L 124.204554 217.206465 
L 124.529533 218.701738 
L 124.854513 217.732681 
L 125.179492 217.93153 
L 125.504472 217.743835 
L 125.829451 216.610441 
L 126.154431 216.928795 
L 126.47941 217.700442 
L 126.80439 216.765357 
L 127.129369 217.181024 
L 127.454349 216.586761 
L 127.779328 216.494646 
L 128.429287 213.957101 
L 128.754267 215.191746 
L 129.079247 214.947811 
L 129.404226 214.104774 
L 129.729206 214.092665 
L 130.054185 211.967008 
L 130.379165 213.853852 
L 130.704144 214.643829 
L 131.029124 213.697449 
L 131.354103 213.142023 
L 131.679083 213.145072 
L 132.004062 213.687337 
L 132.329042 213.268176 
L 132.654021 213.241031 
L 132.979001 212.675674 
L 133.30398 211.811467 
L 133.62896 212.190426 
L 133.953939 210.955516 
L 134.278919 211.877743 
L 134.603898 211.456623 
L 134.928878 211.728063 
L 135.253857 209.308338 
L 135.578837 212.087887 
L 135.903817 212.278328 
L 136.228796 211.488615 
L 136.553776 209.767813 
L 137.203735 211.882989 
L 137.528714 210.486013 
L 137.853694 207.470662 
L 138.178673 209.955385 
L 138.503653 210.608284 
L 138.828632 210.912578 
L 139.478591 207.700244 
L 139.803571 209.578954 
L 140.45353 209.394819 
L 140.778509 206.862007 
L 141.103489 205.408669 
L 141.428468 207.313738 
L 141.753448 207.930109 
L 142.728387 205.260228 
L 143.053366 205.520884 
L 143.378346 206.707668 
L 143.703325 205.442612 
L 144.028305 206.212119 
L 144.353284 204.536811 
L 144.678264 206.118149 
L 145.003243 206.661758 
L 145.328223 205.382215 
L 145.653202 204.788899 
L 146.303161 202.903854 
L 146.628141 204.729515 
L 146.95312 205.838945 
L 147.2781 204.294467 
L 147.603079 204.49964 
L 147.928059 205.381126 
L 148.253038 203.353445 
L 148.578018 205.101544 
L 148.902998 204.824063 
L 149.227977 204.74509 
L 149.552957 203.330855 
L 149.877936 202.988262 
L 150.202916 202.917289 
L 150.527895 204.786238 
L 150.852875 203.418803 
L 151.177854 201.108302 
L 151.502834 201.751042 
L 151.827813 201.181263 
L 152.152793 200.370863 
L 152.477772 200.473572 
L 152.802752 200.289693 
L 153.127731 198.662388 
L 153.452711 198.507055 
L 153.77769 200.862454 
L 154.10267 199.68653 
L 154.427649 199.45674 
L 154.752629 197.614823 
L 155.402588 199.757247 
L 155.727568 197.230978 
L 156.052547 196.784019 
L 156.377527 194.934726 
L 156.702506 197.12734 
L 157.027486 197.76777 
L 157.352465 195.354019 
L 158.002424 195.039925 
L 158.327404 195.147076 
L 158.652383 195.566634 
L 158.977363 197.37902 
L 159.627322 195.459266 
L 159.952301 196.168623 
L 160.277281 196.090691 
L 160.60226 194.948114 
L 160.92724 194.639256 
L 161.252219 193.897196 
L 161.577199 192.514168 
L 161.902179 192.581173 
L 162.227158 190.530182 
L 162.552138 193.810062 
L 162.877117 193.87221 
L 163.202097 194.220379 
L 163.527076 196.053917 
L 163.852056 192.56325 
L 164.177035 192.83612 
L 164.502015 191.700738 
L 164.826994 191.545793 
L 165.151974 193.500229 
L 165.476953 190.959511 
L 165.801933 191.779521 
L 166.126912 192.12325 
L 166.451892 192.086438 
L 166.776871 192.354366 
L 167.101851 191.283234 
L 167.75181 192.158822 
L 168.07679 190.969954 
L 168.401769 191.912945 
L 168.726749 190.268125 
L 169.051728 191.617438 
L 169.376708 192.113006 
L 169.701687 189.240272 
L 170.026667 189.738017 
L 170.351646 190.560432 
L 170.676626 187.757468 
L 171.001605 190.445594 
L 171.326585 190.374943 
L 171.651564 192.778156 
L 171.976544 190.29579 
L 172.301523 189.633253 
L 172.626503 188.365839 
L 172.951482 189.602274 
L 173.276462 188.600997 
L 174.2514 190.580722 
L 174.57638 187.938564 
L 174.90136 187.178951 
L 175.226339 189.947167 
L 175.551319 189.208061 
L 175.876298 189.567999 
L 176.201278 186.23043 
L 176.526257 187.380052 
L 176.851237 187.902642 
L 177.176216 188.071354 
L 177.501196 187.267846 
L 177.826175 185.408943 
L 178.151155 185.432424 
L 178.476134 185.601173 
L 178.801114 186.629453 
L 179.126093 186.127484 
L 179.451073 186.786963 
L 179.776052 185.754556 
L 180.101032 185.489232 
L 180.426011 186.914044 
L 181.075971 186.136308 
L 181.40095 185.267197 
L 181.72593 185.388341 
L 182.050909 183.657304 
L 182.375889 183.449631 
L 182.700868 185.182372 
L 183.025848 184.848519 
L 183.350827 183.082753 
L 183.675807 182.982382 
L 184.000786 184.568132 
L 184.325766 185.105037 
L 184.650745 185.944315 
L 184.975725 184.54537 
L 185.300704 183.755459 
L 185.625684 180.684994 
L 185.950663 183.058913 
L 186.275643 183.798728 
L 186.600622 183.618844 
L 186.925602 184.221137 
L 187.250581 182.087981 
L 187.575561 185.819441 
L 187.900541 185.919414 
L 188.22552 185.194009 
L 188.875479 181.309356 
L 189.200459 184.477731 
L 189.525438 183.463833 
L 189.850418 182.908399 
L 190.175397 184.245848 
L 190.500377 182.550023 
L 190.825356 183.311379 
L 191.150336 183.128541 
L 191.475315 184.509373 
L 191.800295 182.20104 
L 192.125274 181.175762 
L 192.450254 182.902453 
L 192.775233 181.571319 
L 193.100213 181.056682 
L 193.425192 179.347308 
L 193.750172 180.965855 
L 194.075152 180.072363 
L 194.400131 179.68029 
L 194.725111 179.955839 
L 195.05009 176.678374 
L 195.37507 178.718193 
L 195.700049 178.001072 
L 196.025029 178.972931 
L 196.350008 178.768752 
L 196.674988 173.471474 
L 196.999967 175.888472 
L 197.324947 177.017586 
L 197.649926 175.090229 
L 197.974906 173.95194 
L 198.299885 170.87783 
L 198.624865 174.551496 
L 198.949844 175.381363 
L 199.274824 175.018764 
L 199.599803 170.91005 
L 200.249762 170.123405 
L 200.574742 171.430244 
L 200.899722 169.803205 
L 201.549681 171.279134 
L 201.87466 170.785005 
L 202.19964 170.764346 
L 202.524619 171.928265 
L 202.849599 168.023748 
L 203.174578 168.886488 
L 203.499558 167.440241 
L 203.824537 167.808444 
L 204.149517 169.746718 
L 204.474496 168.91742 
L 204.799476 167.652799 
L 205.124455 164.87395 
L 205.449435 167.074508 
L 205.774414 166.587708 
L 206.099394 165.308979 
L 206.424373 167.073571 
L 206.749353 167.621355 
L 207.074333 163.169509 
L 207.399312 163.876736 
L 208.049271 157.972677 
L 208.69923 165.498151 
L 209.02421 162.001907 
L 209.349189 163.770769 
L 209.674169 163.593868 
L 209.999148 161.906138 
L 210.324128 162.326463 
L 210.649107 161.828007 
L 210.974087 161.722031 
L 211.299066 160.731189 
L 211.624046 162.425849 
L 212.274005 160.610906 
L 212.598984 158.734127 
L 212.923964 162.477289 
L 213.248943 162.024829 
L 213.573923 160.949948 
L 213.898903 159.070376 
L 214.223882 158.623313 
L 214.548862 158.897149 
L 214.873841 161.711086 
L 215.198821 157.402444 
L 215.5238 157.459499 
L 215.84878 156.84167 
L 216.498739 159.208326 
L 217.148698 153.475659 
L 217.473677 156.270982 
L 218.123636 157.718176 
L 218.773595 150.621577 
L 219.098575 155.546258 
L 219.423554 153.834356 
L 219.748534 154.490247 
L 220.073514 152.871075 
L 220.398493 150.167422 
L 220.723473 153.006279 
L 221.048452 151.135409 
L 221.373432 150.672932 
L 221.698411 147.831111 
L 222.023391 149.280179 
L 222.34837 149.17426 
L 222.67335 153.229953 
L 222.998329 149.894751 
L 223.323309 148.366757 
L 223.648288 149.222822 
L 223.973268 148.949005 
L 224.298247 149.218296 
L 224.623227 149.738708 
L 224.948206 147.011669 
L 225.273186 148.229053 
L 225.598165 146.494371 
L 225.923145 147.752601 
L 226.248124 151.472235 
L 226.898084 146.927649 
L 227.223063 148.289337 
L 227.548043 147.191354 
L 227.873022 149.891949 
L 228.198002 143.670218 
L 228.522981 144.458226 
L 228.847961 149.820446 
L 229.17294 144.951796 
L 229.49792 146.748475 
L 229.822899 144.593089 
L 230.147879 145.502421 
L 230.472858 145.951283 
L 230.797838 145.671634 
L 231.122817 142.643463 
L 231.447797 144.31185 
L 231.772776 142.637801 
L 232.097756 143.007586 
L 232.422735 145.715434 
L 232.747715 146.951338 
L 233.397674 135.536733 
L 233.722654 139.78282 
L 234.047633 141.95432 
L 234.372613 142.833979 
L 234.697592 141.98369 
L 235.022572 139.275672 
L 235.347551 142.039514 
L 235.672531 142.217059 
L 235.99751 142.838221 
L 236.32249 140.037037 
L 236.647469 142.316038 
L 236.972449 142.477904 
L 237.297428 143.142544 
L 237.622408 145.143373 
L 237.947387 141.828225 
L 238.272367 142.704324 
L 238.597346 144.321905 
L 238.922326 141.496085 
L 239.247305 140.588325 
L 239.572285 137.679243 
L 239.897265 140.410969 
L 240.222244 137.691021 
L 240.547224 140.854056 
L 240.872203 140.023422 
L 241.522162 139.979831 
L 241.847142 142.304999 
L 242.172121 136.845618 
L 242.497101 138.625027 
L 242.82208 137.217391 
L 243.14706 134.256556 
L 243.472039 133.571277 
L 243.797019 134.399372 
L 244.121998 136.338716 
L 244.446978 136.421619 
L 244.771957 135.235857 
L 245.421916 131.028533 
L 245.746896 134.741908 
L 246.071876 132.272599 
L 246.396855 134.31202 
L 246.721835 132.714057 
L 247.046814 132.183997 
L 247.371794 133.480326 
L 247.696773 130.469027 
L 248.021753 130.470523 
L 248.346732 129.830311 
L 248.671712 134.2604 
L 248.996691 133.903208 
L 249.321671 131.47285 
L 249.64665 130.600671 
L 249.97163 130.95792 
L 250.621589 127.782142 
L 250.946568 130.615403 
L 251.271548 130.610688 
L 251.596527 126.389617 
L 251.921507 130.843016 
L 252.246486 128.008296 
L 252.571466 128.98612 
L 252.896446 124.713712 
L 253.221425 125.310882 
L 253.546405 124.499848 
L 253.871384 125.295298 
L 254.196364 124.261271 
L 254.521343 125.153068 
L 254.846323 125.484053 
L 255.171302 124.04218 
L 255.496282 127.965652 
L 255.821261 133.649691 
L 256.146241 131.457872 
L 256.47122 127.632111 
L 256.7962 128.031057 
L 257.121179 127.248484 
L 257.446159 124.891882 
L 257.771138 127.039694 
L 258.096118 122.886849 
L 258.421097 123.504735 
L 258.746077 126.156967 
L 259.071057 122.687016 
L 259.396036 125.670176 
L 260.045995 118.888618 
L 260.370975 118.82325 
L 260.695954 121.152602 
L 261.020934 120.877309 
L 261.345913 120.10053 
L 261.670893 120.079946 
L 261.995872 122.088199 
L 262.320852 117.957074 
L 262.645831 122.039912 
L 262.970811 124.46279 
L 263.29579 125.686461 
L 263.62077 120.955193 
L 264.270729 117.784509 
L 264.920688 120.971971 
L 265.245667 124.341977 
L 265.570647 119.506977 
L 265.895627 111.529753 
L 266.220606 117.658545 
L 266.545586 119.350659 
L 266.870565 116.930906 
L 267.520524 115.786444 
L 267.845504 122.866871 
L 268.170483 121.167562 
L 268.495463 115.934108 
L 268.820442 116.97906 
L 269.145422 109.410365 
L 269.470401 120.428201 
L 269.795381 119.58363 
L 270.12036 121.476865 
L 270.770319 112.016128 
L 271.095299 112.069054 
L 271.420278 119.562536 
L 272.070238 117.543262 
L 272.395217 118.38503 
L 272.720197 115.784285 
L 273.045176 118.894393 
L 273.370156 118.883865 
L 273.695135 122.132888 
L 274.020115 121.753654 
L 274.345094 115.089689 
L 274.670074 121.324827 
L 274.995053 121.995904 
L 275.645012 120.297125 
L 275.969992 113.988193 
L 276.294971 117.791439 
L 276.619951 119.586187 
L 276.94493 116.10103 
L 277.26991 116.478351 
L 277.594889 118.8245 
L 278.244848 116.588578 
L 278.569828 117.324039 
L 278.894808 119.561627 
L 279.219787 114.872605 
L 279.544767 115.972965 
L 279.869746 110.976458 
L 280.194726 113.904363 
L 280.844685 113.142449 
L 281.169664 110.356338 
L 281.494644 114.434688 
L 281.819623 113.798946 
L 282.144603 105.59445 
L 282.469582 111.029612 
L 282.794562 112.03317 
L 283.119541 110.269838 
L 283.444521 111.830819 
L 283.7695 112.758102 
L 284.09448 108.893484 
L 284.419459 112.00113 
L 285.069419 115.977131 
L 285.394398 110.044896 
L 285.719378 112.591957 
L 286.044357 112.281612 
L 286.369337 108.451231 
L 286.694316 109.976233 
L 287.019296 112.762609 
L 287.344275 109.648903 
L 287.669255 108.631749 
L 287.994234 104.527683 
L 288.319214 110.027815 
L 288.644193 111.194186 
L 288.969173 111.033797 
L 289.294152 109.728851 
L 289.944111 105.318968 
L 290.59407 107.340627 
L 290.91905 109.091405 
L 291.244029 108.232215 
L 291.569009 103.273354 
L 291.893989 104.323988 
L 292.218968 106.856487 
L 292.543948 108.280048 
L 292.868927 111.994635 
L 293.518886 100.664959 
L 293.843866 99.881874 
L 294.168845 107.905984 
L 294.493825 107.699277 
L 294.818804 106.585549 
L 295.143784 100.567116 
L 295.468763 100.761155 
L 296.118722 108.562784 
L 296.443702 103.094275 
L 296.768681 108.047342 
L 297.093661 100.014219 
L 297.41864 105.904132 
L 297.74362 109.289041 
L 298.0686 107.870403 
L 298.393579 108.753432 
L 298.718559 108.977807 
L 299.043538 110.176426 
L 299.693497 106.397607 
L 300.018477 108.265429 
L 300.343456 108.312467 
L 300.668436 110.075061 
L 300.993415 108.080045 
L 301.318395 109.300308 
L 301.643374 104.656544 
L 301.968354 106.103605 
L 302.293333 111.457569 
L 302.618313 114.312853 
L 302.943292 106.735712 
L 303.268272 109.660852 
L 303.593251 106.068706 
L 303.918231 108.569051 
L 304.24321 107.960652 
L 304.56819 112.307441 
L 304.89317 109.631596 
L 305.218149 108.471776 
L 305.543129 110.276371 
L 305.868108 104.177062 
L 306.193088 104.835415 
L 306.518067 103.966133 
L 306.843047 105.719372 
L 307.168026 106.205557 
L 307.817985 101.078903 
L 308.142965 101.107496 
L 308.467944 107.762751 
L 308.792924 105.897921 
L 309.117903 105.212414 
L 309.442883 103.309958 
L 309.767862 99.813647 
L 310.092842 101.652402 
L 310.417821 100.982423 
L 310.742801 102.94148 
L 311.067781 101.381881 
L 311.39276 102.588965 
L 311.71774 100.439032 
L 312.042719 99.97006 
L 312.367699 96.589506 
L 312.692678 97.289442 
L 313.342637 104.091849 
L 313.667617 99.598798 
L 313.992596 102.722957 
L 314.317576 98.722737 
L 314.642555 97.607759 
L 314.967535 97.542315 
L 315.292514 98.473859 
L 315.617494 96.289974 
L 315.942473 100.887307 
L 316.267453 97.255016 
L 316.592432 100.260673 
L 316.917412 100.769411 
L 317.242391 100.139254 
L 317.567371 95.299823 
L 317.892351 92.370479 
L 318.21733 91.678004 
L 318.867289 99.694785 
L 319.517248 95.377859 
L 319.842228 95.616776 
L 320.167207 93.293407 
L 320.492187 94.10643 
L 320.817166 97.223147 
L 321.142146 92.605212 
L 321.467125 93.459231 
L 321.792105 98.211234 
L 322.117084 96.486645 
L 322.442064 97.673751 
L 322.767043 94.379925 
L 323.092023 94.421452 
L 323.417002 90.203239 
L 323.741982 94.7723 
L 324.066962 94.372653 
L 324.391941 97.518456 
L 324.716921 92.850075 
L 325.0419 92.371332 
L 325.36688 92.485668 
L 325.691859 97.776801 
L 326.341818 95.370379 
L 326.666798 92.141617 
L 327.316757 91.247775 
L 327.641736 96.624576 
L 327.966716 93.484454 
L 328.616675 90.217006 
L 328.941654 81.092669 
L 329.266634 86.576308 
L 329.591613 94.495946 
L 329.916593 89.550909 
L 330.241572 90.757632 
L 330.566552 89.769299 
L 330.891532 82.440297 
L 331.216511 88.09864 
L 331.541491 90.302635 
L 332.19145 92.104692 
L 332.516429 90.017968 
L 332.841409 85.11529 
L 333.166388 89.379688 
L 333.491368 90.243706 
L 333.816347 94.010557 
L 334.141327 87.071866 
L 334.466306 90.543597 
L 334.791286 92.637479 
L 335.116265 83.962099 
L 335.441245 92.990922 
L 335.766224 89.301861 
L 336.091204 91.355427 
L 336.416183 86.116595 
L 336.741163 86.054466 
L 337.066143 89.21341 
L 337.391122 87.644476 
L 337.716102 90.272337 
L 338.041081 91.39222 
L 338.366061 91.678951 
L 338.69104 88.662709 
L 339.01602 84.457733 
L 339.340999 88.404723 
L 339.665979 88.659225 
L 339.990958 90.063358 
L 340.315938 90.463819 
L 340.640917 84.915893 
L 340.965897 89.931998 
L 341.290876 85.850183 
L 341.615856 85.834125 
L 341.940835 86.293118 
L 342.265815 87.24445 
L 342.590794 86.992107 
L 342.915774 88.317447 
L 343.240753 91.225847 
L 343.565733 87.425574 
L 343.890713 85.605471 
L 344.215692 87.414156 
L 344.540672 84.543211 
L 344.865651 83.506874 
L 345.190631 78.487077 
L 345.51561 84.194976 
L 345.84059 85.1283 
L 346.165569 86.431598 
L 346.490549 84.359209 
L 346.815528 79.64451 
L 347.140508 77.581418 
L 347.465487 82.547494 
L 347.790467 83.632213 
L 348.115446 85.246953 
L 348.440426 85.655141 
L 348.765405 76.155793 
L 349.090385 71.685919 
L 349.415364 79.526216 
L 349.740344 78.012026 
L 350.065324 80.551815 
L 350.390303 77.284916 
L 350.715283 79.614023 
L 351.040262 71.761399 
L 352.015201 86.200217 
L 352.66516 81.052411 
L 352.990139 76.879759 
L 353.315119 76.599277 
L 353.640098 75.219723 
L 353.965078 85.510563 
L 354.615037 82.6428 
L 354.940016 80.015393 
L 355.264996 81.177276 
L 355.589975 81.217951 
L 355.914955 85.877924 
L 356.239934 87.626259 
L 356.564914 85.612345 
L 356.889894 81.458421 
L 357.539853 78.143594 
L 357.864832 85.001333 
L 358.189812 87.717626 
L 358.514791 85.471006 
L 358.839771 84.965184 
L 359.16475 78.591415 
L 359.48973 82.275212 
L 359.814709 82.673931 
L 360.139689 78.99822 
L 360.464668 82.664823 
L 360.789648 74.918961 
L 361.114627 76.466573 
L 361.439607 84.414578 
L 361.764586 81.136374 
L 362.089566 84.341087 
L 362.414545 79.729931 
L 362.739525 76.951072 
L 363.064505 78.701472 
L 363.389484 75.863854 
L 363.714464 80.508774 
L 364.039443 82.393771 
L 364.364423 79.901965 
L 364.689402 80.300779 
L 365.014382 80.480767 
L 365.339361 75.671747 
L 365.664341 73.717861 
L 366.3143 75.210293 
L 366.639279 78.325741 
L 367.289238 72.98615 
L 367.614218 71.930176 
L 367.939197 70.363041 
L 368.264177 70.874658 
L 368.589156 75.019549 
L 368.914136 75.119267 
L 369.239115 70.391029 
L 369.564095 68.577383 
L 369.889075 71.005828 
L 370.214054 68.917362 
L 370.539034 68.647731 
L 370.864013 71.475577 
L 371.188993 65.510336 
L 371.838952 73.970715 
L 372.163931 72.993762 
L 372.488911 68.084873 
L 372.81389 70.399114 
L 373.13887 71.697262 
L 373.788829 75.091923 
L 374.438788 67.166566 
L 374.763767 71.937732 
L 375.088747 66.738439 
L 375.413726 68.498893 
L 375.738706 68.655229 
L 376.063686 66.516829 
L 376.388665 68.924274 
L 376.713645 65.709923 
L 377.363604 72.471238 
L 378.013563 66.647469 
L 378.338542 68.02157 
L 378.663522 67.919788 
L 378.988501 71.125864 
L 379.313481 71.907112 
L 379.63846 67.430857 
L 379.96344 65.66637 
L 380.288419 68.578917 
L 380.613399 68.853415 
L 380.938378 66.39577 
L 381.263358 68.001971 
L 381.588337 67.295842 
L 381.913317 64.568358 
L 382.238296 64.18492 
L 382.563276 67.009225 
L 382.888256 68.471663 
L 383.213235 66.097451 
L 383.538215 61.608717 
L 384.188174 68.864209 
L 384.513153 66.564131 
L 384.838133 68.345472 
L 385.163112 67.911683 
L 385.488092 67.954782 
L 385.813071 59.316119 
L 386.46303 66.467311 
L 386.78801 66.819012 
L 387.112989 65.658454 
L 387.437969 67.73518 
L 387.762948 63.701765 
L 388.087928 68.382057 
L 388.412907 70.880111 
L 388.737887 64.829052 
L 389.062867 64.696934 
L 389.387846 61.208804 
L 389.712826 62.499264 
L 390.037805 66.993357 
L 390.362785 68.738946 
L 390.687764 62.330903 
L 391.012744 62.989293 
L 391.337723 59.725859 
L 391.662703 59.60018 
L 391.987682 61.242302 
L 392.312662 66.735144 
L 392.637641 60.836198 
L 392.962621 65.373465 
L 393.2876 62.755621 
L 393.61258 62.527289 
L 393.937559 61.57092 
L 394.262539 64.696006 
L 394.587518 56.553414 
L 394.912498 65.594185 
L 395.237477 61.289737 
L 395.562457 64.067838 
L 395.887437 63.796502 
L 396.212416 59.982955 
L 396.537396 54.837308 
L 396.862375 53.568 
L 397.187355 55.129985 
L 397.512334 60.417161 
L 397.837314 69.898405 
L 398.162293 64.97272 
L 398.487273 57.896572 
L 398.487273 57.896572 
" clip-path="url(#p8c9157280c)" style="fill: none; stroke: #008000; stroke-width: 1.5; stroke-linecap: square"/>
   </g>
   <g id="line2d_16">
    <path d="M 73.832727 235.855249 
L 74.157707 234.846091 
L 74.482686 238.149286 
L 74.807666 238.073361 
L 75.782604 244.630489 
L 76.432563 249.168158 
L 77.407502 252.52384 
L 78.057461 253.829846 
L 78.382441 254.17348 
L 78.70742 254.012901 
L 79.0324 254.485116 
L 79.357379 254.569188 
L 80.007338 253.696824 
L 80.332318 253.479551 
L 80.657297 252.839907 
L 80.982277 252.460053 
L 81.307256 251.808295 
L 81.632236 251.851924 
L 82.282195 251.708166 
L 82.607174 250.536526 
L 83.257133 252.044263 
L 83.582113 252.252901 
L 83.907093 251.346557 
L 84.232072 251.230028 
L 84.557052 251.525205 
L 85.207011 252.473834 
L 85.53199 251.707872 
L 85.85697 252.013951 
L 86.181949 251.658676 
L 86.831908 252.040982 
L 87.156888 251.335971 
L 87.481867 252.337726 
L 87.806847 252.643246 
L 88.131826 251.250427 
L 88.456806 251.281842 
L 88.781785 251.145706 
L 89.431744 252.076336 
L 89.756724 252.187075 
L 90.081704 252.108466 
L 90.406683 250.966973 
L 90.731663 250.459053 
L 91.056642 250.283492 
L 91.381622 251.111824 
L 91.706601 250.873598 
L 93.006519 247.039624 
L 93.331499 248.445584 
L 93.656478 248.301239 
L 93.981458 248.538726 
L 94.306437 247.300407 
L 94.956396 246.471592 
L 95.281376 246.07035 
L 95.606355 247.22711 
L 95.931335 247.057107 
L 96.256314 247.1997 
L 96.581294 246.797639 
L 96.906274 245.953443 
L 97.231253 246.850523 
L 98.206192 245.567927 
L 98.531171 244.959035 
L 98.856151 244.66339 
L 99.18113 245.033109 
L 99.50611 244.000077 
L 99.831089 244.65333 
L 100.156069 242.705134 
L 100.481048 242.881027 
L 101.131007 242.013814 
L 101.455987 242.090557 
L 101.780966 241.561572 
L 102.105946 242.608759 
L 102.430925 242.666656 
L 102.755905 241.533347 
L 103.405864 241.29141 
L 103.730844 240.558151 
L 104.055823 240.55077 
L 104.380803 241.838389 
L 105.030762 239.528414 
L 105.355741 239.920666 
L 106.0057 238.239526 
L 106.33068 239.627724 
L 106.655659 239.999355 
L 106.980639 239.105466 
L 107.305618 237.80336 
L 107.630598 237.890438 
L 107.955577 235.803549 
L 108.280557 235.902623 
L 108.930516 236.986688 
L 109.255495 237.543509 
L 109.580475 234.647205 
L 109.905455 234.75897 
L 110.230434 234.215589 
L 110.555414 234.355541 
L 110.880393 233.646544 
L 111.205373 236.087354 
L 111.530352 234.684253 
L 111.855332 235.372757 
L 112.180311 233.132414 
L 112.505291 233.22868 
L 113.15525 233.716158 
L 113.480229 235.074304 
L 114.130188 233.418804 
L 114.455168 230.960212 
L 114.780147 233.410235 
L 115.105127 233.383232 
L 115.430106 234.238255 
L 115.755086 233.232988 
L 116.080066 231.439292 
L 116.405045 231.295902 
L 117.055004 233.616468 
L 117.379984 233.479205 
L 117.704963 233.138298 
L 118.029943 230.315489 
L 118.354922 231.029944 
L 118.679902 232.154433 
L 119.004881 230.078205 
L 119.329861 232.466998 
L 119.65484 229.917589 
L 119.97982 230.150267 
L 120.304799 231.439789 
L 120.629779 229.464513 
L 120.954758 230.702117 
L 121.279738 230.856944 
L 121.604717 230.076378 
L 121.929697 229.713931 
L 122.254676 229.888006 
L 122.579656 231.543218 
L 122.904636 230.695376 
L 123.229615 229.52038 
L 123.554595 230.102955 
L 123.879574 228.799069 
L 124.204554 228.069143 
L 124.529533 229.897005 
L 124.854513 229.944421 
L 125.179492 228.859471 
L 125.504472 229.925608 
L 125.829451 227.858346 
L 126.154431 228.197237 
L 126.47941 229.011348 
L 126.80439 227.808203 
L 127.129369 228.902963 
L 127.454349 227.422119 
L 127.779328 226.563536 
L 128.104308 225.362427 
L 128.429287 226.766626 
L 128.754267 227.166283 
L 129.404226 224.871091 
L 129.729206 227.189243 
L 130.054185 225.409152 
L 130.379165 224.456551 
L 130.704144 224.879537 
L 131.029124 224.620064 
L 131.354103 225.915504 
L 131.679083 225.336579 
L 132.004062 225.600369 
L 132.329042 221.87727 
L 132.654021 221.348791 
L 132.979001 223.056773 
L 133.30398 223.542229 
L 133.62896 224.427115 
L 133.953939 222.457984 
L 134.278919 222.331036 
L 134.603898 221.715925 
L 134.928878 221.765367 
L 135.253857 220.502706 
L 135.578837 223.209663 
L 135.903817 223.531189 
L 136.228796 222.954679 
L 136.553776 221.262793 
L 136.878755 221.323975 
L 137.203735 222.113659 
L 137.528714 220.93498 
L 137.853694 219.217709 
L 138.178673 222.32545 
L 138.503653 220.048996 
L 138.828632 221.000073 
L 139.478591 218.709416 
L 139.803571 220.969983 
L 140.12855 219.580232 
L 140.45353 218.950009 
L 140.778509 217.493272 
L 141.103489 218.545922 
L 142.078428 217.17683 
L 142.403407 217.041607 
L 142.728387 216.51238 
L 143.053366 215.491533 
L 143.378346 216.46985 
L 143.703325 214.743518 
L 144.028305 215.653229 
L 144.353284 215.672866 
L 144.678264 216.747841 
L 145.003243 217.244432 
L 145.328223 215.796594 
L 145.653202 214.871366 
L 145.978182 214.761422 
L 146.303161 213.012491 
L 146.628141 214.009081 
L 146.95312 215.732818 
L 147.2781 214.661629 
L 147.603079 214.327331 
L 147.928059 215.644528 
L 148.253038 212.206474 
L 148.578018 214.069865 
L 148.902998 213.441451 
L 149.227977 214.254862 
L 149.552957 212.973861 
L 149.877936 213.309798 
L 150.527895 214.863166 
L 150.852875 213.783087 
L 151.177854 210.764507 
L 151.502834 210.515194 
L 151.827813 209.69026 
L 152.152793 209.437558 
L 152.477772 210.663767 
L 152.802752 209.298775 
L 153.127731 210.009183 
L 153.452711 207.793655 
L 153.77769 210.279344 
L 154.10267 207.726678 
L 154.427649 209.835444 
L 154.752629 207.149089 
L 155.402588 209.776325 
L 155.727568 205.431297 
L 156.052547 205.426592 
L 156.377527 205.702122 
L 156.702506 206.611549 
L 157.027486 206.742094 
L 157.352465 203.277862 
L 158.002424 205.110444 
L 158.327404 204.748101 
L 158.652383 203.628493 
L 158.977363 206.750398 
L 159.302342 205.421848 
L 159.627322 203.542542 
L 159.952301 203.654037 
L 160.277281 203.073882 
L 160.60226 202.817657 
L 160.92724 204.185707 
L 161.252219 202.677407 
L 161.577199 199.852117 
L 161.902179 201.80393 
L 162.227158 198.390768 
L 162.552138 202.517567 
L 162.877117 201.957796 
L 163.202097 201.899955 
L 163.527076 204.325484 
L 163.852056 201.988406 
L 164.502015 199.940123 
L 165.151974 200.742891 
L 165.476953 200.242267 
L 165.801933 201.547383 
L 166.126912 200.247361 
L 166.451892 197.551936 
L 166.776871 199.524503 
L 167.101851 198.574051 
L 167.75181 197.872799 
L 168.401769 198.754162 
L 168.726749 197.374807 
L 169.376708 200.42751 
L 169.701687 196.365502 
L 170.026667 197.209267 
L 170.351646 196.634556 
L 170.676626 194.121504 
L 171.001605 197.597562 
L 171.326585 198.19334 
L 171.651564 197.668147 
L 171.976544 195.102187 
L 172.301523 195.844171 
L 172.626503 195.301443 
L 172.951482 198.007245 
L 173.276462 196.496975 
L 173.601441 198.752865 
L 173.926421 196.841225 
L 174.2514 196.481363 
L 174.57638 192.803644 
L 174.90136 194.152323 
L 175.226339 197.270194 
L 175.551319 195.509115 
L 175.876298 194.838729 
L 176.526257 191.381976 
L 176.851237 191.234426 
L 177.176216 194.188472 
L 177.501196 196.024121 
L 177.826175 192.613497 
L 178.476134 189.514116 
L 178.801114 193.000182 
L 179.126093 190.584623 
L 179.451073 191.167004 
L 179.776052 190.936854 
L 180.101032 193.438203 
L 180.426011 190.406699 
L 180.750991 191.037235 
L 181.075971 189.263487 
L 181.40095 189.356217 
L 181.72593 190.682173 
L 182.050909 189.141482 
L 182.700868 189.423166 
L 183.025848 187.59422 
L 183.350827 187.41979 
L 183.675807 187.456043 
L 184.000786 186.684756 
L 184.325766 188.25386 
L 184.650745 190.48429 
L 184.975725 188.220551 
L 185.300704 188.661896 
L 185.625684 184.335028 
L 185.950663 186.041864 
L 186.275643 184.210722 
L 186.925602 188.989245 
L 187.250581 189.225672 
L 187.575561 189.731494 
L 188.22552 184.544641 
L 188.5505 184.632505 
L 188.875479 183.353436 
L 189.200459 186.409339 
L 189.525438 186.732096 
L 189.850418 186.830346 
L 190.175397 188.871604 
L 190.500377 185.670612 
L 190.825356 184.111108 
L 191.150336 184.695117 
L 191.475315 186.196222 
L 191.800295 184.948559 
L 192.125274 185.38337 
L 192.450254 185.587066 
L 192.775233 183.014735 
L 193.100213 183.518634 
L 193.425192 182.958153 
L 193.750172 184.288322 
L 194.075152 182.988612 
L 194.400131 182.731829 
L 194.725111 183.325429 
L 195.05009 179.471879 
L 195.37507 178.786789 
L 195.700049 180.126104 
L 196.025029 180.812264 
L 196.350008 179.98662 
L 196.674988 178.00805 
L 196.999967 178.731353 
L 197.324947 179.120728 
L 197.649926 177.120703 
L 197.974906 177.801997 
L 198.299885 177.468834 
L 198.624865 178.392984 
L 198.949844 178.726894 
L 199.274824 176.915464 
L 199.599803 172.57962 
L 199.924783 175.873229 
L 200.574742 173.97153 
L 200.899722 172.308123 
L 201.224701 171.963599 
L 201.549681 176.295438 
L 201.87466 175.312842 
L 202.19964 173.799959 
L 202.524619 174.667603 
L 202.849599 170.345223 
L 203.174578 170.076169 
L 203.499558 168.922561 
L 204.149517 171.557741 
L 204.474496 172.205082 
L 205.124455 168.336592 
L 205.449435 170.583212 
L 205.774414 168.330741 
L 206.099394 167.170477 
L 206.749353 170.188829 
L 207.074333 164.075546 
L 207.399312 165.553 
L 207.724292 162.22257 
L 208.049271 161.729909 
L 208.374251 162.587346 
L 208.69923 166.515457 
L 209.02421 165.295998 
L 209.349189 167.38828 
L 209.674169 165.469633 
L 209.999148 160.527985 
L 210.974087 164.11855 
L 211.299066 161.695719 
L 211.624046 163.579741 
L 212.274005 161.949161 
L 212.598984 163.381082 
L 212.923964 163.175587 
L 213.248943 160.010612 
L 213.573923 160.885101 
L 213.898903 159.623368 
L 214.223882 162.414345 
L 214.548862 158.360877 
L 214.873841 160.205597 
L 215.198821 158.318498 
L 215.5238 161.533967 
L 215.84878 158.519723 
L 216.173759 158.437966 
L 216.498739 158.963652 
L 216.823718 155.596089 
L 217.148698 155.040976 
L 217.473677 158.345302 
L 217.798657 155.837685 
L 218.123636 155.318637 
L 218.773595 150.779031 
L 219.098575 153.627489 
L 219.423554 151.26799 
L 219.748534 153.633766 
L 220.073514 154.459608 
L 220.398493 151.218425 
L 220.723473 152.133598 
L 221.048452 150.599298 
L 221.373432 150.362635 
L 221.698411 146.650235 
L 222.34837 149.262 
L 222.67335 152.70973 
L 222.998329 148.949052 
L 223.323309 147.49115 
L 223.648288 146.69659 
L 223.973268 146.417926 
L 224.298247 146.795588 
L 224.623227 148.840151 
L 224.948206 145.353318 
L 225.273186 145.691896 
L 225.598165 146.402948 
L 225.923145 143.736646 
L 226.248124 149.213088 
L 226.573104 149.188273 
L 227.223063 147.047363 
L 227.548043 142.115145 
L 227.873022 148.936952 
L 228.198002 146.760254 
L 228.522981 145.372765 
L 228.847961 147.768716 
L 229.17294 141.215906 
L 229.49792 146.870329 
L 229.822899 148.697353 
L 230.472858 145.62507 
L 230.797838 142.979409 
L 231.122817 141.461678 
L 231.447797 142.996281 
L 231.772776 147.00773 
L 232.422735 143.424787 
L 232.747715 143.611895 
L 233.397674 137.322789 
L 233.722654 140.949134 
L 234.047633 141.052658 
L 234.372613 138.673674 
L 234.697592 137.765516 
L 235.022572 141.897739 
L 235.672531 140.087975 
L 235.99751 140.266278 
L 236.32249 138.931925 
L 236.647469 143.498978 
L 236.972449 141.949889 
L 237.297428 142.247793 
L 237.622408 144.783643 
L 237.947387 140.210379 
L 238.272367 144.582939 
L 238.597346 140.923646 
L 238.922326 139.091859 
L 239.247305 140.029842 
L 239.572285 138.031322 
L 239.897265 141.151126 
L 240.222244 136.54921 
L 240.547224 140.369859 
L 240.872203 136.99758 
L 241.197183 138.340265 
L 241.522162 141.274854 
L 241.847142 143.198633 
L 242.172121 137.478482 
L 242.497101 135.315787 
L 242.82208 131.298638 
L 243.14706 132.002664 
L 243.472039 135.691366 
L 243.797019 136.347465 
L 244.121998 134.246085 
L 244.446978 133.017603 
L 244.771957 134.907334 
L 245.096937 131.002837 
L 245.421916 132.276689 
L 245.746896 132.71169 
L 246.071876 134.206413 
L 246.396855 132.656586 
L 246.721835 132.322685 
L 247.046814 134.400698 
L 247.371794 134.478374 
L 247.696773 127.697516 
L 248.021753 129.634341 
L 248.346732 129.216459 
L 248.671712 133.04809 
L 248.996691 134.619126 
L 249.321671 131.947181 
L 249.97163 129.345963 
L 250.296609 125.90506 
L 250.946568 130.78278 
L 251.271548 130.098731 
L 251.596527 128.313717 
L 251.921507 129.275862 
L 252.246486 126.754913 
L 252.571466 125.950866 
L 252.896446 124.234041 
L 253.221425 125.581309 
L 253.546405 124.440994 
L 253.871384 122.3904 
L 254.196364 122.162163 
L 254.521343 122.417176 
L 254.846323 124.694587 
L 255.171302 125.960524 
L 255.496282 128.169632 
L 255.821261 132.865073 
L 256.146241 129.734646 
L 256.47122 124.480097 
L 256.7962 128.620671 
L 257.121179 128.62194 
L 257.446159 127.108243 
L 257.771138 126.41874 
L 258.096118 118.958662 
L 258.746077 128.119754 
L 259.071057 122.590915 
L 259.396036 128.055693 
L 260.045995 116.118053 
L 260.370975 113.857212 
L 260.695954 120.587965 
L 261.020934 121.902947 
L 261.345913 120.290573 
L 261.670893 120.721029 
L 261.995872 120.074569 
L 262.320852 116.339171 
L 262.970811 125.507288 
L 263.29579 127.010059 
L 263.62077 122.236696 
L 263.945749 115.157253 
L 264.270729 115.380378 
L 264.595708 114.13243 
L 265.245667 124.628708 
L 265.895627 117.219549 
L 266.220606 117.447976 
L 266.545586 117.099778 
L 266.870565 112.946289 
L 267.195545 119.2086 
L 267.520524 118.914409 
L 267.845504 119.775169 
L 268.170483 115.451842 
L 268.495463 109.581206 
L 268.820442 113.843578 
L 269.145422 111.92495 
L 269.470401 120.751573 
L 269.795381 118.738208 
L 270.12036 120.535076 
L 270.44534 112.120769 
L 270.770319 114.140307 
L 271.095299 111.80107 
L 271.420278 120.816997 
L 272.070238 115.628857 
L 272.395217 118.812267 
L 272.720197 115.325804 
L 273.045176 117.872713 
L 273.370156 116.512152 
L 274.020115 122.653423 
L 274.345094 117.782767 
L 274.670074 123.305167 
L 274.995053 121.634792 
L 275.320033 119.245469 
L 275.645012 120.924517 
L 275.969992 115.309746 
L 276.294971 117.070768 
L 276.619951 117.822835 
L 276.94493 115.558472 
L 277.26991 117.206938 
L 277.594889 122.309411 
L 278.244848 119.301785 
L 278.569828 115.70072 
L 278.894808 117.925753 
L 279.544767 116.049637 
L 279.869746 111.454671 
L 280.194726 116.627833 
L 280.519705 115.522152 
L 280.844685 115.274506 
L 281.169664 110.86252 
L 281.494644 116.951717 
L 281.819623 115.065489 
L 282.144603 108.959817 
L 282.469582 113.419068 
L 282.794562 112.31405 
L 283.119541 110.366526 
L 283.444521 112.993724 
L 283.7695 113.43149 
L 284.09448 114.531944 
L 284.419459 116.682445 
L 284.744439 112.46391 
L 285.069419 118.566703 
L 285.394398 110.883974 
L 285.719378 115.655254 
L 286.044357 113.65789 
L 286.369337 110.440585 
L 286.694316 109.508965 
L 287.019296 112.989748 
L 287.344275 109.8896 
L 287.669255 109.648638 
L 287.994234 107.852679 
L 288.319214 112.110998 
L 288.644193 114.02669 
L 288.969173 116.621773 
L 289.619132 108.470735 
L 289.944111 108.177774 
L 290.269091 111.572416 
L 290.59407 110.652991 
L 291.244029 106.40236 
L 291.569009 107.781517 
L 291.893989 107.019091 
L 292.218968 110.319772 
L 292.543948 110.188621 
L 292.868927 115.315805 
L 293.193907 114.339099 
L 293.843866 103.258111 
L 294.493825 109.197144 
L 294.818804 109.337252 
L 295.143784 106.951811 
L 295.793743 105.987034 
L 296.118722 107.752185 
L 296.443702 102.75316 
L 296.768681 110.921752 
L 297.093661 108.795584 
L 297.74362 111.737274 
L 298.0686 110.165973 
L 298.393579 109.663276 
L 299.043538 114.040855 
L 299.368518 111.841537 
L 299.693497 113.55965 
L 300.018477 112.630908 
L 300.343456 112.562833 
L 300.668436 115.033695 
L 300.993415 111.095415 
L 301.318395 113.464609 
L 301.643374 113.326849 
L 301.968354 111.252642 
L 302.293333 113.270457 
L 302.618313 118.215287 
L 302.943292 113.278505 
L 303.268272 117.105326 
L 303.593251 110.202709 
L 303.918231 111.926806 
L 304.24321 111.439598 
L 304.56819 117.949916 
L 304.89317 114.883948 
L 305.218149 117.413626 
L 305.543129 113.99768 
L 305.868108 108.39821 
L 306.193088 110.875396 
L 307.168026 112.640906 
L 307.493006 108.525612 
L 307.817985 108.485846 
L 308.142965 110.32089 
L 308.467944 113.779441 
L 308.792924 109.569599 
L 309.117903 107.68231 
L 309.442883 113.070397 
L 309.767862 108.321026 
L 310.092842 105.498861 
L 310.417821 104.371214 
L 310.742801 104.715738 
L 311.067781 109.326137 
L 311.39276 109.161582 
L 311.71774 109.621559 
L 312.042719 106.016366 
L 312.367699 103.75846 
L 312.692678 103.188312 
L 313.017658 108.107161 
L 313.342637 111.203181 
L 313.667617 101.035123 
L 313.992596 105.885915 
L 314.317576 102.595725 
L 314.642555 105.077627 
L 314.967535 99.574257 
L 315.292514 102.131695 
L 315.617494 100.139784 
L 315.942473 106.996993 
L 316.267453 106.654003 
L 316.592432 107.178799 
L 316.917412 105.54961 
L 317.242391 106.589165 
L 317.567371 101.619094 
L 317.892351 99.940103 
L 318.21733 99.820502 
L 318.54231 101.36588 
L 318.867289 104.553891 
L 319.192269 101.940743 
L 319.517248 102.740435 
L 319.842228 102.089751 
L 320.167207 95.012865 
L 320.817166 100.145295 
L 321.142146 99.369008 
L 321.467125 100.017343 
L 321.792105 102.81385 
L 322.117084 101.447343 
L 322.442064 102.300681 
L 322.767043 103.483451 
L 323.092023 103.034248 
L 323.417002 99.617658 
L 324.066962 95.994078 
L 324.391941 100.921506 
L 324.716921 99.333995 
L 325.0419 103.365592 
L 325.36688 99.716789 
L 325.691859 105.726871 
L 326.016839 102.244781 
L 326.341818 102.314012 
L 326.666798 100.923778 
L 326.991777 104.122393 
L 327.316757 100.689443 
L 327.641736 99.753544 
L 327.966716 93.997377 
L 328.291695 92.71826 
L 328.616675 93.805573 
L 328.941654 90.533334 
L 329.266634 98.361417 
L 329.591613 101.718452 
L 329.916593 93.11109 
L 330.241572 97.845559 
L 330.566552 96.984949 
L 330.891532 93.965659 
L 331.216511 98.05717 
L 331.86647 94.553455 
L 332.19145 96.473579 
L 332.516429 95.337279 
L 332.841409 96.570381 
L 333.166388 98.481282 
L 333.491368 98.178853 
L 333.816347 102.550846 
L 334.141327 93.564118 
L 334.791286 103.292101 
L 335.116265 93.504204 
L 335.441245 99.56975 
L 335.766224 94.684512 
L 336.091204 98.862315 
L 336.416183 91.860965 
L 336.741163 95.483769 
L 337.066143 101.958675 
L 337.391122 97.735123 
L 337.716102 95.555461 
L 338.041081 98.800091 
L 338.366061 100.49639 
L 339.01602 95.930131 
L 339.340999 97.733646 
L 339.665979 94.247921 
L 339.990958 97.139165 
L 340.315938 98.911587 
L 340.640917 94.994175 
L 340.965897 99.833568 
L 341.290876 95.913259 
L 341.940835 93.769689 
L 342.265815 94.559742 
L 342.590794 95.753646 
L 342.915774 93.397348 
L 343.240753 99.414436 
L 343.890713 95.048825 
L 344.215692 94.623784 
L 344.540672 88.24744 
L 344.865651 88.163117 
L 345.190631 89.051601 
L 345.51561 94.389639 
L 345.84059 96.528664 
L 346.165569 95.524652 
L 346.815528 86.436616 
L 347.140508 86.788941 
L 347.465487 95.089632 
L 347.790467 95.634784 
L 348.115446 95.374905 
L 348.440426 94.728747 
L 349.090385 82.816084 
L 349.415364 91.746382 
L 349.740344 87.409062 
L 350.065324 89.079399 
L 350.390303 87.867695 
L 350.715283 90.125639 
L 351.040262 83.219935 
L 351.365242 88.68619 
L 351.690221 88.799087 
L 352.015201 96.761446 
L 352.34018 95.152898 
L 352.66516 92.229935 
L 352.990139 85.350155 
L 353.315119 86.560931 
L 353.640098 85.261212 
L 353.965078 92.119822 
L 354.290057 92.513087 
L 354.615037 93.542096 
L 354.940016 89.717073 
L 355.264996 93.182063 
L 355.589975 93.389395 
L 355.914955 96.935034 
L 356.239934 94.740942 
L 356.564914 94.581632 
L 356.889894 93.862476 
L 357.539853 88.932947 
L 357.864832 95.87088 
L 358.189812 97.105762 
L 358.514791 93.680784 
L 358.839771 96.04318 
L 359.16475 92.401137 
L 359.48973 94.907978 
L 359.814709 92.135861 
L 360.139689 87.646407 
L 360.464668 95.793052 
L 360.789648 88.522847 
L 361.114627 89.549981 
L 361.439607 95.404445 
L 361.764586 92.362564 
L 362.089566 95.924734 
L 362.414545 93.153072 
L 362.739525 86.161587 
L 363.064505 91.031297 
L 363.389484 83.254967 
L 363.714464 90.778519 
L 364.039443 93.918091 
L 364.364423 93.053638 
L 364.689402 92.670769 
L 365.014382 92.644694 
L 365.339361 88.434074 
L 365.664341 87.503307 
L 365.98932 83.303955 
L 366.639279 88.467459 
L 366.964259 86.494485 
L 367.289238 82.337265 
L 367.614218 82.609662 
L 367.939197 82.121166 
L 368.264177 83.980581 
L 368.589156 87.304534 
L 368.914136 89.033157 
L 369.564095 80.166446 
L 369.889075 83.145952 
L 370.214054 76.617759 
L 370.539034 79.301898 
L 370.864013 84.491932 
L 371.188993 79.591242 
L 371.513972 82.007095 
L 372.163931 83.689968 
L 372.488911 85.950658 
L 372.81389 84.769005 
L 373.13887 81.920936 
L 373.788829 85.110234 
L 374.113808 83.468377 
L 374.438788 77.476796 
L 374.763767 84.027599 
L 375.088747 80.815653 
L 375.413726 80.32924 
L 375.738706 80.205133 
L 376.063686 79.355279 
L 376.388665 82.865508 
L 377.038624 82.828544 
L 377.363604 83.975866 
L 377.688583 81.824475 
L 378.013563 82.023702 
L 378.338542 85.878549 
L 378.663522 81.380385 
L 378.988501 83.511665 
L 379.313481 84.456578 
L 379.63846 82.776621 
L 379.96344 80.127589 
L 380.288419 80.10977 
L 380.613399 79.590182 
L 380.938378 77.786118 
L 381.263358 82.70688 
L 381.588337 81.248665 
L 381.913317 78.72927 
L 382.238296 80.117799 
L 382.888256 82.192688 
L 383.213235 79.771117 
L 383.538215 78.795205 
L 384.188174 80.645341 
L 384.513153 78.546972 
L 384.838133 83.062349 
L 385.163112 78.638925 
L 385.488092 81.888252 
L 385.813071 75.234664 
L 386.138051 77.884832 
L 386.46303 78.019297 
L 386.78801 77.856238 
L 387.112989 79.862446 
L 387.437969 83.956153 
L 387.762948 80.178225 
L 388.087928 84.002793 
L 388.412907 84.342564 
L 388.737887 77.098452 
L 389.062867 78.380921 
L 389.387846 72.999216 
L 389.712826 77.945503 
L 390.037805 81.049703 
L 390.362785 80.943964 
L 390.687764 73.179317 
L 391.012744 76.012181 
L 391.337723 74.145041 
L 391.662703 73.898833 
L 391.987682 74.185318 
L 392.312662 79.849796 
L 392.637641 74.418838 
L 392.962621 78.757125 
L 393.2876 74.259472 
L 393.61258 75.560744 
L 393.937559 72.603678 
L 394.262539 76.626034 
L 394.587518 69.925617 
L 394.912498 81.457947 
L 395.237477 78.440229 
L 395.562457 76.618213 
L 395.887437 75.652414 
L 396.537396 70.094319 
L 396.862375 69.901435 
L 397.187355 67.382797 
L 397.837314 84.531489 
L 398.487273 71.706503 
L 398.487273 71.706503 
" clip-path="url(#p8c9157280c)" style="fill: none; stroke: #ff0000; stroke-width: 1.5; stroke-linecap: square"/>
   </g>
   <g id="patch_3">
    <path d="M 57.6 307.584 
L 57.6 41.472 
" style="fill: none; stroke: #000000; stroke-width: 0.8; stroke-linejoin: miter; stroke-linecap: square"/>
   </g>
   <g id="patch_4">
    <path d="M 414.72 307.584 
L 414.72 41.472 
" style="fill: none; stroke: #000000; stroke-width: 0.8; stroke-linejoin: miter; stroke-linecap: square"/>
   </g>
   <g id="patch_5">
    <path d="M 57.6 307.584 
L 414.72 307.584 
" style="fill: none; stroke: #000000; stroke-width: 0.8; stroke-linejoin: miter; stroke-linecap: square"/>
   </g>
   <g id="patch_6">
    <path d="M 57.6 41.472 
L 414.72 41.472 
" style="fill: none; stroke: #000000; stroke-width: 0.8; stroke-linejoin: miter; stroke-linecap: square"/>
   </g>
   <g id="text_16">
    <!-- spectrumGCN+CiteSeer+WithOutGraph_CiteSeer_WithGraph_Training and Validation loss -->
    <g transform="translate(-32.556563 35.472) scale(0.12 -0.12)">
     <defs>
      <path id="DejaVuSans-74" d="M 1172 4494 
L 1172 3500 
L 2356 3500 
L 2356 3053 
L 1172 3053 
L 1172 1153 
Q 1172 725 1289 603 
Q 1406 481 1766 481 
L 2356 481 
L 2356 0 
L 1766 0 
Q 1100 0 847 248 
Q 594 497 594 1153 
L 594 3053 
L 172 3053 
L 172 3500 
L 594 3500 
L 594 4494 
L 1172 4494 
z
" transform="scale(0.015625)"/>
      <path id="DejaVuSans-72" d="M 2631 2963 
Q 2534 3019 2420 3045 
Q 2306 3072 2169 3072 
Q 1681 3072 1420 2755 
Q 1159 2438 1159 1844 
L 1159 0 
L 581 0 
L 581 3500 
L 1159 3500 
L 1159 2956 
Q 1341 3275 1631 3429 
Q 1922 3584 2338 3584 
Q 2397 3584 2469 3576 
Q 2541 3569 2628 3553 
L 2631 2963 
z
" transform="scale(0.015625)"/>
      <path id="DejaVuSans-75" d="M 544 1381 
L 544 3500 
L 1119 3500 
L 1119 1403 
Q 1119 906 1312 657 
Q 1506 409 1894 409 
Q 2359 409 2629 706 
Q 2900 1003 2900 1516 
L 2900 3500 
L 3475 3500 
L 3475 0 
L 2900 0 
L 2900 538 
Q 2691 219 2414 64 
Q 2138 -91 1772 -91 
Q 1169 -91 856 284 
Q 544 659 544 1381 
z
M 1991 3584 
L 1991 3584 
z
" transform="scale(0.015625)"/>
      <path id="DejaVuSans-6d" d="M 3328 2828 
Q 3544 3216 3844 3400 
Q 4144 3584 4550 3584 
Q 5097 3584 5394 3201 
Q 5691 2819 5691 2113 
L 5691 0 
L 5113 0 
L 5113 2094 
Q 5113 2597 4934 2840 
Q 4756 3084 4391 3084 
Q 3944 3084 3684 2787 
Q 3425 2491 3425 1978 
L 3425 0 
L 2847 0 
L 2847 2094 
Q 2847 2600 2669 2842 
Q 2491 3084 2119 3084 
Q 1678 3084 1418 2786 
Q 1159 2488 1159 1978 
L 1159 0 
L 581 0 
L 581 3500 
L 1159 3500 
L 1159 2956 
Q 1356 3278 1631 3431 
Q 1906 3584 2284 3584 
Q 2666 3584 2933 3390 
Q 3200 3197 3328 2828 
z
" transform="scale(0.015625)"/>
      <path id="DejaVuSans-47" d="M 3809 666 
L 3809 1919 
L 2778 1919 
L 2778 2438 
L 4434 2438 
L 4434 434 
Q 4069 175 3628 42 
Q 3188 -91 2688 -91 
Q 1594 -91 976 548 
Q 359 1188 359 2328 
Q 359 3472 976 4111 
Q 1594 4750 2688 4750 
Q 3144 4750 3555 4637 
Q 3966 4525 4313 4306 
L 4313 3634 
Q 3963 3931 3569 4081 
Q 3175 4231 2741 4231 
Q 1884 4231 1454 3753 
Q 1025 3275 1025 2328 
Q 1025 1384 1454 906 
Q 1884 428 2741 428 
Q 3075 428 3337 486 
Q 3600 544 3809 666 
z
" transform="scale(0.015625)"/>
      <path id="DejaVuSans-43" d="M 4122 4306 
L 4122 3641 
Q 3803 3938 3442 4084 
Q 3081 4231 2675 4231 
Q 1875 4231 1450 3742 
Q 1025 3253 1025 2328 
Q 1025 1406 1450 917 
Q 1875 428 2675 428 
Q 3081 428 3442 575 
Q 3803 722 4122 1019 
L 4122 359 
Q 3791 134 3420 21 
Q 3050 -91 2638 -91 
Q 1578 -91 968 557 
Q 359 1206 359 2328 
Q 359 3453 968 4101 
Q 1578 4750 2638 4750 
Q 3056 4750 3426 4639 
Q 3797 4528 4122 4306 
z
" transform="scale(0.015625)"/>
      <path id="DejaVuSans-4e" d="M 628 4666 
L 1478 4666 
L 3547 763 
L 3547 4666 
L 4159 4666 
L 4159 0 
L 3309 0 
L 1241 3903 
L 1241 0 
L 628 0 
L 628 4666 
z
" transform="scale(0.015625)"/>
      <path id="DejaVuSans-2b" d="M 2944 4013 
L 2944 2272 
L 4684 2272 
L 4684 1741 
L 2944 1741 
L 2944 0 
L 2419 0 
L 2419 1741 
L 678 1741 
L 678 2272 
L 2419 2272 
L 2419 4013 
L 2944 4013 
z
" transform="scale(0.015625)"/>
      <path id="DejaVuSans-69" d="M 603 3500 
L 1178 3500 
L 1178 0 
L 603 0 
L 603 3500 
z
M 603 4863 
L 1178 4863 
L 1178 4134 
L 603 4134 
L 603 4863 
z
" transform="scale(0.015625)"/>
      <path id="DejaVuSans-53" d="M 3425 4513 
L 3425 3897 
Q 3066 4069 2747 4153 
Q 2428 4238 2131 4238 
Q 1616 4238 1336 4038 
Q 1056 3838 1056 3469 
Q 1056 3159 1242 3001 
Q 1428 2844 1947 2747 
L 2328 2669 
Q 3034 2534 3370 2195 
Q 3706 1856 3706 1288 
Q 3706 609 3251 259 
Q 2797 -91 1919 -91 
Q 1588 -91 1214 -16 
Q 841 59 441 206 
L 441 856 
Q 825 641 1194 531 
Q 1563 422 1919 422 
Q 2459 422 2753 634 
Q 3047 847 3047 1241 
Q 3047 1584 2836 1778 
Q 2625 1972 2144 2069 
L 1759 2144 
Q 1053 2284 737 2584 
Q 422 2884 422 3419 
Q 422 4038 858 4394 
Q 1294 4750 2059 4750 
Q 2388 4750 2728 4690 
Q 3069 4631 3425 4513 
z
" transform="scale(0.015625)"/>
      <path id="DejaVuSans-57" d="M 213 4666 
L 850 4666 
L 1831 722 
L 2809 4666 
L 3519 4666 
L 4500 722 
L 5478 4666 
L 6119 4666 
L 4947 0 
L 4153 0 
L 3169 4050 
L 2175 0 
L 1381 0 
L 213 4666 
z
" transform="scale(0.015625)"/>
      <path id="DejaVuSans-4f" d="M 2522 4238 
Q 1834 4238 1429 3725 
Q 1025 3213 1025 2328 
Q 1025 1447 1429 934 
Q 1834 422 2522 422 
Q 3209 422 3611 934 
Q 4013 1447 4013 2328 
Q 4013 3213 3611 3725 
Q 3209 4238 2522 4238 
z
M 2522 4750 
Q 3503 4750 4090 4092 
Q 4678 3434 4678 2328 
Q 4678 1225 4090 567 
Q 3503 -91 2522 -91 
Q 1538 -91 948 565 
Q 359 1222 359 2328 
Q 359 3434 948 4092 
Q 1538 4750 2522 4750 
z
" transform="scale(0.015625)"/>
      <path id="DejaVuSans-61" d="M 2194 1759 
Q 1497 1759 1228 1600 
Q 959 1441 959 1056 
Q 959 750 1161 570 
Q 1363 391 1709 391 
Q 2188 391 2477 730 
Q 2766 1069 2766 1631 
L 2766 1759 
L 2194 1759 
z
M 3341 1997 
L 3341 0 
L 2766 0 
L 2766 531 
Q 2569 213 2275 61 
Q 1981 -91 1556 -91 
Q 1019 -91 701 211 
Q 384 513 384 1019 
Q 384 1609 779 1909 
Q 1175 2209 1959 2209 
L 2766 2209 
L 2766 2266 
Q 2766 2663 2505 2880 
Q 2244 3097 1772 3097 
Q 1472 3097 1187 3025 
Q 903 2953 641 2809 
L 641 3341 
Q 956 3463 1253 3523 
Q 1550 3584 1831 3584 
Q 2591 3584 2966 3190 
Q 3341 2797 3341 1997 
z
" transform="scale(0.015625)"/>
      <path id="DejaVuSans-5f" d="M 3263 -1063 
L 3263 -1509 
L -63 -1509 
L -63 -1063 
L 3263 -1063 
z
" transform="scale(0.015625)"/>
      <path id="DejaVuSans-54" d="M -19 4666 
L 3928 4666 
L 3928 4134 
L 2272 4134 
L 2272 0 
L 1638 0 
L 1638 4134 
L -19 4134 
L -19 4666 
z
" transform="scale(0.015625)"/>
      <path id="DejaVuSans-6e" d="M 3513 2113 
L 3513 0 
L 2938 0 
L 2938 2094 
Q 2938 2591 2744 2837 
Q 2550 3084 2163 3084 
Q 1697 3084 1428 2787 
Q 1159 2491 1159 1978 
L 1159 0 
L 581 0 
L 581 3500 
L 1159 3500 
L 1159 2956 
Q 1366 3272 1645 3428 
Q 1925 3584 2291 3584 
Q 2894 3584 3203 3211 
Q 3513 2838 3513 2113 
z
" transform="scale(0.015625)"/>
      <path id="DejaVuSans-67" d="M 2906 1791 
Q 2906 2416 2648 2759 
Q 2391 3103 1925 3103 
Q 1463 3103 1205 2759 
Q 947 2416 947 1791 
Q 947 1169 1205 825 
Q 1463 481 1925 481 
Q 2391 481 2648 825 
Q 2906 1169 2906 1791 
z
M 3481 434 
Q 3481 -459 3084 -895 
Q 2688 -1331 1869 -1331 
Q 1566 -1331 1297 -1286 
Q 1028 -1241 775 -1147 
L 775 -588 
Q 1028 -725 1275 -790 
Q 1522 -856 1778 -856 
Q 2344 -856 2625 -561 
Q 2906 -266 2906 331 
L 2906 616 
Q 2728 306 2450 153 
Q 2172 0 1784 0 
Q 1141 0 747 490 
Q 353 981 353 1791 
Q 353 2603 747 3093 
Q 1141 3584 1784 3584 
Q 2172 3584 2450 3431 
Q 2728 3278 2906 2969 
L 2906 3500 
L 3481 3500 
L 3481 434 
z
" transform="scale(0.015625)"/>
      <path id="DejaVuSans-20" transform="scale(0.015625)"/>
      <path id="DejaVuSans-64" d="M 2906 2969 
L 2906 4863 
L 3481 4863 
L 3481 0 
L 2906 0 
L 2906 525 
Q 2725 213 2448 61 
Q 2172 -91 1784 -91 
Q 1150 -91 751 415 
Q 353 922 353 1747 
Q 353 2572 751 3078 
Q 1150 3584 1784 3584 
Q 2172 3584 2448 3432 
Q 2725 3281 2906 2969 
z
M 947 1747 
Q 947 1113 1208 752 
Q 1469 391 1925 391 
Q 2381 391 2643 752 
Q 2906 1113 2906 1747 
Q 2906 2381 2643 2742 
Q 2381 3103 1925 3103 
Q 1469 3103 1208 2742 
Q 947 2381 947 1747 
z
" transform="scale(0.015625)"/>
      <path id="DejaVuSans-56" d="M 1831 0 
L 50 4666 
L 709 4666 
L 2188 738 
L 3669 4666 
L 4325 4666 
L 2547 0 
L 1831 0 
z
" transform="scale(0.015625)"/>
     </defs>
     <use xlink:href="#DejaVuSans-73"/>
     <use xlink:href="#DejaVuSans-70" x="52.099609"/>
     <use xlink:href="#DejaVuSans-65" x="115.576172"/>
     <use xlink:href="#DejaVuSans-63" x="177.099609"/>
     <use xlink:href="#DejaVuSans-74" x="232.080078"/>
     <use xlink:href="#DejaVuSans-72" x="271.289062"/>
     <use xlink:href="#DejaVuSans-75" x="312.402344"/>
     <use xlink:href="#DejaVuSans-6d" x="375.78125"/>
     <use xlink:href="#DejaVuSans-47" x="473.193359"/>
     <use xlink:href="#DejaVuSans-43" x="550.683594"/>
     <use xlink:href="#DejaVuSans-4e" x="620.507812"/>
     <use xlink:href="#DejaVuSans-2b" x="695.3125"/>
     <use xlink:href="#DejaVuSans-43" x="779.101562"/>
     <use xlink:href="#DejaVuSans-69" x="848.925781"/>
     <use xlink:href="#DejaVuSans-74" x="876.708984"/>
     <use xlink:href="#DejaVuSans-65" x="915.917969"/>
     <use xlink:href="#DejaVuSans-53" x="977.441406"/>
     <use xlink:href="#DejaVuSans-65" x="1040.917969"/>
     <use xlink:href="#DejaVuSans-65" x="1102.441406"/>
     <use xlink:href="#DejaVuSans-72" x="1163.964844"/>
     <use xlink:href="#DejaVuSans-2b" x="1205.078125"/>
     <use xlink:href="#DejaVuSans-57" x="1288.867188"/>
     <use xlink:href="#DejaVuSans-69" x="1385.494141"/>
     <use xlink:href="#DejaVuSans-74" x="1413.277344"/>
     <use xlink:href="#DejaVuSans-68" x="1452.486328"/>
     <use xlink:href="#DejaVuSans-4f" x="1515.865234"/>
     <use xlink:href="#DejaVuSans-75" x="1594.576172"/>
     <use xlink:href="#DejaVuSans-74" x="1657.955078"/>
     <use xlink:href="#DejaVuSans-47" x="1697.164062"/>
     <use xlink:href="#DejaVuSans-72" x="1774.654297"/>
     <use xlink:href="#DejaVuSans-61" x="1815.767578"/>
     <use xlink:href="#DejaVuSans-70" x="1877.046875"/>
     <use xlink:href="#DejaVuSans-68" x="1940.523438"/>
     <use xlink:href="#DejaVuSans-5f" x="2003.902344"/>
     <use xlink:href="#DejaVuSans-43" x="2053.902344"/>
     <use xlink:href="#DejaVuSans-69" x="2123.726562"/>
     <use xlink:href="#DejaVuSans-74" x="2151.509766"/>
     <use xlink:href="#DejaVuSans-65" x="2190.71875"/>
     <use xlink:href="#DejaVuSans-53" x="2252.242188"/>
     <use xlink:href="#DejaVuSans-65" x="2315.71875"/>
     <use xlink:href="#DejaVuSans-65" x="2377.242188"/>
     <use xlink:href="#DejaVuSans-72" x="2438.765625"/>
     <use xlink:href="#DejaVuSans-5f" x="2479.878906"/>
     <use xlink:href="#DejaVuSans-57" x="2529.878906"/>
     <use xlink:href="#DejaVuSans-69" x="2626.505859"/>
     <use xlink:href="#DejaVuSans-74" x="2654.289062"/>
     <use xlink:href="#DejaVuSans-68" x="2693.498047"/>
     <use xlink:href="#DejaVuSans-47" x="2756.876953"/>
     <use xlink:href="#DejaVuSans-72" x="2834.367188"/>
     <use xlink:href="#DejaVuSans-61" x="2875.480469"/>
     <use xlink:href="#DejaVuSans-70" x="2936.759766"/>
     <use xlink:href="#DejaVuSans-68" x="3000.236328"/>
     <use xlink:href="#DejaVuSans-5f" x="3063.615234"/>
     <use xlink:href="#DejaVuSans-54" x="3113.615234"/>
     <use xlink:href="#DejaVuSans-72" x="3159.949219"/>
     <use xlink:href="#DejaVuSans-61" x="3201.0625"/>
     <use xlink:href="#DejaVuSans-69" x="3262.341797"/>
     <use xlink:href="#DejaVuSans-6e" x="3290.125"/>
     <use xlink:href="#DejaVuSans-69" x="3353.503906"/>
     <use xlink:href="#DejaVuSans-6e" x="3381.287109"/>
     <use xlink:href="#DejaVuSans-67" x="3444.666016"/>
     <use xlink:href="#DejaVuSans-20" x="3508.142578"/>
     <use xlink:href="#DejaVuSans-61" x="3539.929688"/>
     <use xlink:href="#DejaVuSans-6e" x="3601.208984"/>
     <use xlink:href="#DejaVuSans-64" x="3664.587891"/>
     <use xlink:href="#DejaVuSans-20" x="3728.064453"/>
     <use xlink:href="#DejaVuSans-56" x="3759.851562"/>
     <use xlink:href="#DejaVuSans-61" x="3820.509766"/>
     <use xlink:href="#DejaVuSans-6c" x="3881.789062"/>
     <use xlink:href="#DejaVuSans-69" x="3909.572266"/>
     <use xlink:href="#DejaVuSans-64" x="3937.355469"/>
     <use xlink:href="#DejaVuSans-61" x="4000.832031"/>
     <use xlink:href="#DejaVuSans-74" x="4062.111328"/>
     <use xlink:href="#DejaVuSans-69" x="4101.320312"/>
     <use xlink:href="#DejaVuSans-6f" x="4129.103516"/>
     <use xlink:href="#DejaVuSans-6e" x="4190.285156"/>
     <use xlink:href="#DejaVuSans-20" x="4253.664062"/>
     <use xlink:href="#DejaVuSans-6c" x="4285.451172"/>
     <use xlink:href="#DejaVuSans-6f" x="4313.234375"/>
     <use xlink:href="#DejaVuSans-73" x="4374.416016"/>
     <use xlink:href="#DejaVuSans-73" x="4426.515625"/>
    </g>
   </g>
   <g id="legend_1">
    <g id="patch_7">
     <path d="M 64.6 93.506375 
L 164.295312 93.506375 
Q 166.295312 93.506375 166.295312 91.506375 
L 166.295312 48.472 
Q 166.295312 46.472 164.295312 46.472 
L 64.6 46.472 
Q 62.6 46.472 62.6 48.472 
L 62.6 91.506375 
Q 62.6 93.506375 64.6 93.506375 
z
" style="fill: #ffffff; opacity: 0.8; stroke: #cccccc; stroke-linejoin: miter"/>
    </g>
    <g id="line2d_17">
     <path d="M 66.6 54.570438 
L 76.6 54.570438 
L 86.6 54.570438 
" style="fill: none; stroke: #0000ff; stroke-width: 1.5; stroke-linecap: square"/>
    </g>
    <g id="text_17">
     <!-- training set -->
     <g transform="translate(94.6 58.070438) scale(0.1 -0.1)">
      <use xlink:href="#DejaVuSans-74"/>
      <use xlink:href="#DejaVuSans-72" x="39.208984"/>
      <use xlink:href="#DejaVuSans-61" x="80.322266"/>
      <use xlink:href="#DejaVuSans-69" x="141.601562"/>
      <use xlink:href="#DejaVuSans-6e" x="169.384766"/>
      <use xlink:href="#DejaVuSans-69" x="232.763672"/>
      <use xlink:href="#DejaVuSans-6e" x="260.546875"/>
      <use xlink:href="#DejaVuSans-67" x="323.925781"/>
      <use xlink:href="#DejaVuSans-20" x="387.402344"/>
      <use xlink:href="#DejaVuSans-73" x="419.189453"/>
      <use xlink:href="#DejaVuSans-65" x="471.289062"/>
      <use xlink:href="#DejaVuSans-74" x="532.8125"/>
     </g>
    </g>
    <g id="line2d_18">
     <path d="M 66.6 69.248563 
L 76.6 69.248563 
L 86.6 69.248563 
" style="fill: none; stroke: #008000; stroke-width: 1.5; stroke-linecap: square"/>
    </g>
    <g id="text_18">
     <!-- validation set -->
     <g transform="translate(94.6 72.748563) scale(0.1 -0.1)">
      <defs>
       <path id="DejaVuSans-76" d="M 191 3500 
L 800 3500 
L 1894 563 
L 2988 3500 
L 3597 3500 
L 2284 0 
L 1503 0 
L 191 3500 
z
" transform="scale(0.015625)"/>
      </defs>
      <use xlink:href="#DejaVuSans-76"/>
      <use xlink:href="#DejaVuSans-61" x="59.179688"/>
      <use xlink:href="#DejaVuSans-6c" x="120.458984"/>
      <use xlink:href="#DejaVuSans-69" x="148.242188"/>
      <use xlink:href="#DejaVuSans-64" x="176.025391"/>
      <use xlink:href="#DejaVuSans-61" x="239.501953"/>
      <use xlink:href="#DejaVuSans-74" x="300.78125"/>
      <use xlink:href="#DejaVuSans-69" x="339.990234"/>
      <use xlink:href="#DejaVuSans-6f" x="367.773438"/>
      <use xlink:href="#DejaVuSans-6e" x="428.955078"/>
      <use xlink:href="#DejaVuSans-20" x="492.333984"/>
      <use xlink:href="#DejaVuSans-73" x="524.121094"/>
      <use xlink:href="#DejaVuSans-65" x="576.220703"/>
      <use xlink:href="#DejaVuSans-74" x="637.744141"/>
     </g>
    </g>
    <g id="line2d_19">
     <path d="M 66.6 83.926688 
L 76.6 83.926688 
L 86.6 83.926688 
" style="fill: none; stroke: #ff0000; stroke-width: 1.5; stroke-linecap: square"/>
    </g>
    <g id="text_19">
     <!-- test set -->
     <g transform="translate(94.6 87.426688) scale(0.1 -0.1)">
      <use xlink:href="#DejaVuSans-74"/>
      <use xlink:href="#DejaVuSans-65" x="39.208984"/>
      <use xlink:href="#DejaVuSans-73" x="100.732422"/>
      <use xlink:href="#DejaVuSans-74" x="152.832031"/>
      <use xlink:href="#DejaVuSans-20" x="192.041016"/>
      <use xlink:href="#DejaVuSans-73" x="223.828125"/>
      <use xlink:href="#DejaVuSans-65" x="275.927734"/>
      <use xlink:href="#DejaVuSans-74" x="337.451172"/>
     </g>
    </g>
   </g>
  </g>
 </g>
 <defs>
  <clipPath id="p8c9157280c">
   <rect x="57.6" y="41.472" width="357.12" height="266.112"/>
  </clipPath>
 </defs>
</svg>
