<?xml version="1.0" encoding="utf-8" standalone="no"?>
<!DOCTYPE svg PUBLIC "-//W3C//DTD SVG 1.1//EN"
  "http://www.w3.org/Graphics/SVG/1.1/DTD/svg11.dtd">
<svg xmlns:xlink="http://www.w3.org/1999/xlink" width="460.8pt" height="345.6pt" viewBox="0 0 460.8 345.6" xmlns="http://www.w3.org/2000/svg" version="1.1">
 <metadata>
  <rdf:RDF xmlns:dc="http://purl.org/dc/elements/1.1/" xmlns:cc="http://creativecommons.org/ns#" xmlns:rdf="http://www.w3.org/1999/02/22-rdf-syntax-ns#">
   <cc:Work>
    <dc:type rdf:resource="http://purl.org/dc/dcmitype/StillImage"/>
    <dc:date>2023-06-14T03:56:32.730641</dc:date>
    <dc:format>image/svg+xml</dc:format>
    <dc:creator>
     <cc:Agent>
      <dc:title>Matplotlib v3.7.1, https://matplotlib.org/</dc:title>
     </cc:Agent>
    </dc:creator>
   </cc:Work>
  </rdf:RDF>
 </metadata>
 <defs>
  <style type="text/css">*{stroke-linejoin: round; stroke-linecap: butt}</style>
 </defs>
 <g id="figure_1">
  <g id="patch_1">
   <path d="M 0 345.6 
L 460.8 345.6 
L 460.8 0 
L 0 0 
z
" style="fill: #ffffff"/>
  </g>
  <g id="axes_1">
   <g id="patch_2">
    <path d="M 57.6 307.584 
L 414.72 307.584 
L 414.72 41.472 
L 57.6 41.472 
z
" style="fill: #ffffff"/>
   </g>
   <g id="matplotlib.axis_1">
    <g id="xtick_1">
     <g id="line2d_1">
      <defs>
       <path id="mb7ac9c295d" d="M 0 0 
L 0 3.5 
" style="stroke: #000000; stroke-width: 0.8"/>
      </defs>
      <g>
       <use xlink:href="#mb7ac9c295d" x="73.767783" y="307.584" style="stroke: #000000; stroke-width: 0.8"/>
      </g>
     </g>
     <g id="text_1">
      <!-- 0 -->
      <g transform="translate(70.586533 322.182437) scale(0.1 -0.1)">
       <defs>
        <path id="DejaVuSans-30" d="M 2034 4250 
Q 1547 4250 1301 3770 
Q 1056 3291 1056 2328 
Q 1056 1369 1301 889 
Q 1547 409 2034 409 
Q 2525 409 2770 889 
Q 3016 1369 3016 2328 
Q 3016 3291 2770 3770 
Q 2525 4250 2034 4250 
z
M 2034 4750 
Q 2819 4750 3233 4129 
Q 3647 3509 3647 2328 
Q 3647 1150 3233 529 
Q 2819 -91 2034 -91 
Q 1250 -91 836 529 
Q 422 1150 422 2328 
Q 422 3509 836 4129 
Q 1250 4750 2034 4750 
z
" transform="scale(0.015625)"/>
       </defs>
       <use xlink:href="#DejaVuSans-30"/>
      </g>
     </g>
    </g>
    <g id="xtick_2">
     <g id="line2d_2">
      <g>
       <use xlink:href="#mb7ac9c295d" x="138.711681" y="307.584" style="stroke: #000000; stroke-width: 0.8"/>
      </g>
     </g>
     <g id="text_2">
      <!-- 1000 -->
      <g transform="translate(125.986681 322.182437) scale(0.1 -0.1)">
       <defs>
        <path id="DejaVuSans-31" d="M 794 531 
L 1825 531 
L 1825 4091 
L 703 3866 
L 703 4441 
L 1819 4666 
L 2450 4666 
L 2450 531 
L 3481 531 
L 3481 0 
L 794 0 
L 794 531 
z
" transform="scale(0.015625)"/>
       </defs>
       <use xlink:href="#DejaVuSans-31"/>
       <use xlink:href="#DejaVuSans-30" x="63.623047"/>
       <use xlink:href="#DejaVuSans-30" x="127.246094"/>
       <use xlink:href="#DejaVuSans-30" x="190.869141"/>
      </g>
     </g>
    </g>
    <g id="xtick_3">
     <g id="line2d_3">
      <g>
       <use xlink:href="#mb7ac9c295d" x="203.655579" y="307.584" style="stroke: #000000; stroke-width: 0.8"/>
      </g>
     </g>
     <g id="text_3">
      <!-- 2000 -->
      <g transform="translate(190.930579 322.182437) scale(0.1 -0.1)">
       <defs>
        <path id="DejaVuSans-32" d="M 1228 531 
L 3431 531 
L 3431 0 
L 469 0 
L 469 531 
Q 828 903 1448 1529 
Q 2069 2156 2228 2338 
Q 2531 2678 2651 2914 
Q 2772 3150 2772 3378 
Q 2772 3750 2511 3984 
Q 2250 4219 1831 4219 
Q 1534 4219 1204 4116 
Q 875 4013 500 3803 
L 500 4441 
Q 881 4594 1212 4672 
Q 1544 4750 1819 4750 
Q 2544 4750 2975 4387 
Q 3406 4025 3406 3419 
Q 3406 3131 3298 2873 
Q 3191 2616 2906 2266 
Q 2828 2175 2409 1742 
Q 1991 1309 1228 531 
z
" transform="scale(0.015625)"/>
       </defs>
       <use xlink:href="#DejaVuSans-32"/>
       <use xlink:href="#DejaVuSans-30" x="63.623047"/>
       <use xlink:href="#DejaVuSans-30" x="127.246094"/>
       <use xlink:href="#DejaVuSans-30" x="190.869141"/>
      </g>
     </g>
    </g>
    <g id="xtick_4">
     <g id="line2d_4">
      <g>
       <use xlink:href="#mb7ac9c295d" x="268.599477" y="307.584" style="stroke: #000000; stroke-width: 0.8"/>
      </g>
     </g>
     <g id="text_4">
      <!-- 3000 -->
      <g transform="translate(255.874477 322.182437) scale(0.1 -0.1)">
       <defs>
        <path id="DejaVuSans-33" d="M 2597 2516 
Q 3050 2419 3304 2112 
Q 3559 1806 3559 1356 
Q 3559 666 3084 287 
Q 2609 -91 1734 -91 
Q 1441 -91 1130 -33 
Q 819 25 488 141 
L 488 750 
Q 750 597 1062 519 
Q 1375 441 1716 441 
Q 2309 441 2620 675 
Q 2931 909 2931 1356 
Q 2931 1769 2642 2001 
Q 2353 2234 1838 2234 
L 1294 2234 
L 1294 2753 
L 1863 2753 
Q 2328 2753 2575 2939 
Q 2822 3125 2822 3475 
Q 2822 3834 2567 4026 
Q 2313 4219 1838 4219 
Q 1578 4219 1281 4162 
Q 984 4106 628 3988 
L 628 4550 
Q 988 4650 1302 4700 
Q 1616 4750 1894 4750 
Q 2613 4750 3031 4423 
Q 3450 4097 3450 3541 
Q 3450 3153 3228 2886 
Q 3006 2619 2597 2516 
z
" transform="scale(0.015625)"/>
       </defs>
       <use xlink:href="#DejaVuSans-33"/>
       <use xlink:href="#DejaVuSans-30" x="63.623047"/>
       <use xlink:href="#DejaVuSans-30" x="127.246094"/>
       <use xlink:href="#DejaVuSans-30" x="190.869141"/>
      </g>
     </g>
    </g>
    <g id="xtick_5">
     <g id="line2d_5">
      <g>
       <use xlink:href="#mb7ac9c295d" x="333.543375" y="307.584" style="stroke: #000000; stroke-width: 0.8"/>
      </g>
     </g>
     <g id="text_5">
      <!-- 4000 -->
      <g transform="translate(320.818375 322.182437) scale(0.1 -0.1)">
       <defs>
        <path id="DejaVuSans-34" d="M 2419 4116 
L 825 1625 
L 2419 1625 
L 2419 4116 
z
M 2253 4666 
L 3047 4666 
L 3047 1625 
L 3713 1625 
L 3713 1100 
L 3047 1100 
L 3047 0 
L 2419 0 
L 2419 1100 
L 313 1100 
L 313 1709 
L 2253 4666 
z
" transform="scale(0.015625)"/>
       </defs>
       <use xlink:href="#DejaVuSans-34"/>
       <use xlink:href="#DejaVuSans-30" x="63.623047"/>
       <use xlink:href="#DejaVuSans-30" x="127.246094"/>
       <use xlink:href="#DejaVuSans-30" x="190.869141"/>
      </g>
     </g>
    </g>
    <g id="xtick_6">
     <g id="line2d_6">
      <g>
       <use xlink:href="#mb7ac9c295d" x="398.487273" y="307.584" style="stroke: #000000; stroke-width: 0.8"/>
      </g>
     </g>
     <g id="text_6">
      <!-- 5000 -->
      <g transform="translate(385.762273 322.182437) scale(0.1 -0.1)">
       <defs>
        <path id="DejaVuSans-35" d="M 691 4666 
L 3169 4666 
L 3169 4134 
L 1269 4134 
L 1269 2991 
Q 1406 3038 1543 3061 
Q 1681 3084 1819 3084 
Q 2600 3084 3056 2656 
Q 3513 2228 3513 1497 
Q 3513 744 3044 326 
Q 2575 -91 1722 -91 
Q 1428 -91 1123 -41 
Q 819 9 494 109 
L 494 744 
Q 775 591 1075 516 
Q 1375 441 1709 441 
Q 2250 441 2565 725 
Q 2881 1009 2881 1497 
Q 2881 1984 2565 2268 
Q 2250 2553 1709 2553 
Q 1456 2553 1204 2497 
Q 953 2441 691 2322 
L 691 4666 
z
" transform="scale(0.015625)"/>
       </defs>
       <use xlink:href="#DejaVuSans-35"/>
       <use xlink:href="#DejaVuSans-30" x="63.623047"/>
       <use xlink:href="#DejaVuSans-30" x="127.246094"/>
       <use xlink:href="#DejaVuSans-30" x="190.869141"/>
      </g>
     </g>
    </g>
    <g id="text_7">
     <!-- epoch -->
     <g transform="translate(220.931875 335.860562) scale(0.1 -0.1)">
      <defs>
       <path id="DejaVuSans-65" d="M 3597 1894 
L 3597 1613 
L 953 1613 
Q 991 1019 1311 708 
Q 1631 397 2203 397 
Q 2534 397 2845 478 
Q 3156 559 3463 722 
L 3463 178 
Q 3153 47 2828 -22 
Q 2503 -91 2169 -91 
Q 1331 -91 842 396 
Q 353 884 353 1716 
Q 353 2575 817 3079 
Q 1281 3584 2069 3584 
Q 2775 3584 3186 3129 
Q 3597 2675 3597 1894 
z
M 3022 2063 
Q 3016 2534 2758 2815 
Q 2500 3097 2075 3097 
Q 1594 3097 1305 2825 
Q 1016 2553 972 2059 
L 3022 2063 
z
" transform="scale(0.015625)"/>
       <path id="DejaVuSans-70" d="M 1159 525 
L 1159 -1331 
L 581 -1331 
L 581 3500 
L 1159 3500 
L 1159 2969 
Q 1341 3281 1617 3432 
Q 1894 3584 2278 3584 
Q 2916 3584 3314 3078 
Q 3713 2572 3713 1747 
Q 3713 922 3314 415 
Q 2916 -91 2278 -91 
Q 1894 -91 1617 61 
Q 1341 213 1159 525 
z
M 3116 1747 
Q 3116 2381 2855 2742 
Q 2594 3103 2138 3103 
Q 1681 3103 1420 2742 
Q 1159 2381 1159 1747 
Q 1159 1113 1420 752 
Q 1681 391 2138 391 
Q 2594 391 2855 752 
Q 3116 1113 3116 1747 
z
" transform="scale(0.015625)"/>
       <path id="DejaVuSans-6f" d="M 1959 3097 
Q 1497 3097 1228 2736 
Q 959 2375 959 1747 
Q 959 1119 1226 758 
Q 1494 397 1959 397 
Q 2419 397 2687 759 
Q 2956 1122 2956 1747 
Q 2956 2369 2687 2733 
Q 2419 3097 1959 3097 
z
M 1959 3584 
Q 2709 3584 3137 3096 
Q 3566 2609 3566 1747 
Q 3566 888 3137 398 
Q 2709 -91 1959 -91 
Q 1206 -91 779 398 
Q 353 888 353 1747 
Q 353 2609 779 3096 
Q 1206 3584 1959 3584 
z
" transform="scale(0.015625)"/>
       <path id="DejaVuSans-63" d="M 3122 3366 
L 3122 2828 
Q 2878 2963 2633 3030 
Q 2388 3097 2138 3097 
Q 1578 3097 1268 2742 
Q 959 2388 959 1747 
Q 959 1106 1268 751 
Q 1578 397 2138 397 
Q 2388 397 2633 464 
Q 2878 531 3122 666 
L 3122 134 
Q 2881 22 2623 -34 
Q 2366 -91 2075 -91 
Q 1284 -91 818 406 
Q 353 903 353 1747 
Q 353 2603 823 3093 
Q 1294 3584 2113 3584 
Q 2378 3584 2631 3529 
Q 2884 3475 3122 3366 
z
" transform="scale(0.015625)"/>
       <path id="DejaVuSans-68" d="M 3513 2113 
L 3513 0 
L 2938 0 
L 2938 2094 
Q 2938 2591 2744 2837 
Q 2550 3084 2163 3084 
Q 1697 3084 1428 2787 
Q 1159 2491 1159 1978 
L 1159 0 
L 581 0 
L 581 4863 
L 1159 4863 
L 1159 2956 
Q 1366 3272 1645 3428 
Q 1925 3584 2291 3584 
Q 2894 3584 3203 3211 
Q 3513 2838 3513 2113 
z
" transform="scale(0.015625)"/>
      </defs>
      <use xlink:href="#DejaVuSans-65"/>
      <use xlink:href="#DejaVuSans-70" x="61.523438"/>
      <use xlink:href="#DejaVuSans-6f" x="125"/>
      <use xlink:href="#DejaVuSans-63" x="186.181641"/>
      <use xlink:href="#DejaVuSans-68" x="241.162109"/>
     </g>
    </g>
   </g>
   <g id="matplotlib.axis_2">
    <g id="ytick_1">
     <g id="line2d_7">
      <defs>
       <path id="ma20b22abf7" d="M 0 0 
L -3.5 0 
" style="stroke: #000000; stroke-width: 0.8"/>
      </defs>
      <g>
       <use xlink:href="#ma20b22abf7" x="57.6" y="295.52185" style="stroke: #000000; stroke-width: 0.8"/>
      </g>
     </g>
     <g id="text_8">
      <!-- 0 -->
      <g transform="translate(44.2375 299.321068) scale(0.1 -0.1)">
       <use xlink:href="#DejaVuSans-30"/>
      </g>
     </g>
    </g>
    <g id="ytick_2">
     <g id="line2d_8">
      <g>
       <use xlink:href="#ma20b22abf7" x="57.6" y="263.093932" style="stroke: #000000; stroke-width: 0.8"/>
      </g>
     </g>
     <g id="text_9">
      <!-- 2 -->
      <g transform="translate(44.2375 266.89315) scale(0.1 -0.1)">
       <use xlink:href="#DejaVuSans-32"/>
      </g>
     </g>
    </g>
    <g id="ytick_3">
     <g id="line2d_9">
      <g>
       <use xlink:href="#ma20b22abf7" x="57.6" y="230.666014" style="stroke: #000000; stroke-width: 0.8"/>
      </g>
     </g>
     <g id="text_10">
      <!-- 4 -->
      <g transform="translate(44.2375 234.465232) scale(0.1 -0.1)">
       <use xlink:href="#DejaVuSans-34"/>
      </g>
     </g>
    </g>
    <g id="ytick_4">
     <g id="line2d_10">
      <g>
       <use xlink:href="#ma20b22abf7" x="57.6" y="198.238095" style="stroke: #000000; stroke-width: 0.8"/>
      </g>
     </g>
     <g id="text_11">
      <!-- 6 -->
      <g transform="translate(44.2375 202.037314) scale(0.1 -0.1)">
       <defs>
        <path id="DejaVuSans-36" d="M 2113 2584 
Q 1688 2584 1439 2293 
Q 1191 2003 1191 1497 
Q 1191 994 1439 701 
Q 1688 409 2113 409 
Q 2538 409 2786 701 
Q 3034 994 3034 1497 
Q 3034 2003 2786 2293 
Q 2538 2584 2113 2584 
z
M 3366 4563 
L 3366 3988 
Q 3128 4100 2886 4159 
Q 2644 4219 2406 4219 
Q 1781 4219 1451 3797 
Q 1122 3375 1075 2522 
Q 1259 2794 1537 2939 
Q 1816 3084 2150 3084 
Q 2853 3084 3261 2657 
Q 3669 2231 3669 1497 
Q 3669 778 3244 343 
Q 2819 -91 2113 -91 
Q 1303 -91 875 529 
Q 447 1150 447 2328 
Q 447 3434 972 4092 
Q 1497 4750 2381 4750 
Q 2619 4750 2861 4703 
Q 3103 4656 3366 4563 
z
" transform="scale(0.015625)"/>
       </defs>
       <use xlink:href="#DejaVuSans-36"/>
      </g>
     </g>
    </g>
    <g id="ytick_5">
     <g id="line2d_11">
      <g>
       <use xlink:href="#ma20b22abf7" x="57.6" y="165.810177" style="stroke: #000000; stroke-width: 0.8"/>
      </g>
     </g>
     <g id="text_12">
      <!-- 8 -->
      <g transform="translate(44.2375 169.609396) scale(0.1 -0.1)">
       <defs>
        <path id="DejaVuSans-38" d="M 2034 2216 
Q 1584 2216 1326 1975 
Q 1069 1734 1069 1313 
Q 1069 891 1326 650 
Q 1584 409 2034 409 
Q 2484 409 2743 651 
Q 3003 894 3003 1313 
Q 3003 1734 2745 1975 
Q 2488 2216 2034 2216 
z
M 1403 2484 
Q 997 2584 770 2862 
Q 544 3141 544 3541 
Q 544 4100 942 4425 
Q 1341 4750 2034 4750 
Q 2731 4750 3128 4425 
Q 3525 4100 3525 3541 
Q 3525 3141 3298 2862 
Q 3072 2584 2669 2484 
Q 3125 2378 3379 2068 
Q 3634 1759 3634 1313 
Q 3634 634 3220 271 
Q 2806 -91 2034 -91 
Q 1263 -91 848 271 
Q 434 634 434 1313 
Q 434 1759 690 2068 
Q 947 2378 1403 2484 
z
M 1172 3481 
Q 1172 3119 1398 2916 
Q 1625 2713 2034 2713 
Q 2441 2713 2670 2916 
Q 2900 3119 2900 3481 
Q 2900 3844 2670 4047 
Q 2441 4250 2034 4250 
Q 1625 4250 1398 4047 
Q 1172 3844 1172 3481 
z
" transform="scale(0.015625)"/>
       </defs>
       <use xlink:href="#DejaVuSans-38"/>
      </g>
     </g>
    </g>
    <g id="ytick_6">
     <g id="line2d_12">
      <g>
       <use xlink:href="#ma20b22abf7" x="57.6" y="133.382259" style="stroke: #000000; stroke-width: 0.8"/>
      </g>
     </g>
     <g id="text_13">
      <!-- 10 -->
      <g transform="translate(37.875 137.181478) scale(0.1 -0.1)">
       <use xlink:href="#DejaVuSans-31"/>
       <use xlink:href="#DejaVuSans-30" x="63.623047"/>
      </g>
     </g>
    </g>
    <g id="ytick_7">
     <g id="line2d_13">
      <g>
       <use xlink:href="#ma20b22abf7" x="57.6" y="100.954341" style="stroke: #000000; stroke-width: 0.8"/>
      </g>
     </g>
     <g id="text_14">
      <!-- 12 -->
      <g transform="translate(37.875 104.75356) scale(0.1 -0.1)">
       <use xlink:href="#DejaVuSans-31"/>
       <use xlink:href="#DejaVuSans-32" x="63.623047"/>
      </g>
     </g>
    </g>
    <g id="ytick_8">
     <g id="line2d_14">
      <g>
       <use xlink:href="#ma20b22abf7" x="57.6" y="68.526423" style="stroke: #000000; stroke-width: 0.8"/>
      </g>
     </g>
     <g id="text_15">
      <!-- 14 -->
      <g transform="translate(37.875 72.325642) scale(0.1 -0.1)">
       <use xlink:href="#DejaVuSans-31"/>
       <use xlink:href="#DejaVuSans-34" x="63.623047"/>
      </g>
     </g>
    </g>
    <g id="text_16">
     <!-- loss -->
     <g transform="translate(31.795313 184.185812) rotate(-90) scale(0.1 -0.1)">
      <defs>
       <path id="DejaVuSans-6c" d="M 603 4863 
L 1178 4863 
L 1178 0 
L 603 0 
L 603 4863 
z
" transform="scale(0.015625)"/>
       <path id="DejaVuSans-73" d="M 2834 3397 
L 2834 2853 
Q 2591 2978 2328 3040 
Q 2066 3103 1784 3103 
Q 1356 3103 1142 2972 
Q 928 2841 928 2578 
Q 928 2378 1081 2264 
Q 1234 2150 1697 2047 
L 1894 2003 
Q 2506 1872 2764 1633 
Q 3022 1394 3022 966 
Q 3022 478 2636 193 
Q 2250 -91 1575 -91 
Q 1294 -91 989 -36 
Q 684 19 347 128 
L 347 722 
Q 666 556 975 473 
Q 1284 391 1588 391 
Q 1994 391 2212 530 
Q 2431 669 2431 922 
Q 2431 1156 2273 1281 
Q 2116 1406 1581 1522 
L 1381 1569 
Q 847 1681 609 1914 
Q 372 2147 372 2553 
Q 372 3047 722 3315 
Q 1072 3584 1716 3584 
Q 2034 3584 2315 3537 
Q 2597 3491 2834 3397 
z
" transform="scale(0.015625)"/>
      </defs>
      <use xlink:href="#DejaVuSans-6c"/>
      <use xlink:href="#DejaVuSans-6f" x="27.783203"/>
      <use xlink:href="#DejaVuSans-73" x="88.964844"/>
      <use xlink:href="#DejaVuSans-73" x="141.064453"/>
     </g>
    </g>
   </g>
   <g id="line2d_15">
    <path d="M 73.832727 263.82659 
L 74.222391 264.441906 
L 75.586213 265.985271 
L 76.235651 267.292554 
L 77.014978 269.433368 
L 78.443744 274.23138 
L 79.742622 278.199592 
L 80.781724 280.651441 
L 81.755883 282.385359 
L 82.730041 283.667554 
L 83.769144 284.663388 
L 84.938134 285.476422 
L 86.431843 286.228607 
L 88.38016 286.943277 
L 91.107804 287.686977 
L 94.939494 288.485353 
L 100.005118 289.290305 
L 107.86333 290.292491 
L 118.903792 291.494242 
L 127.346499 292.187573 
L 158.000019 293.665316 
L 164.169689 293.878159 
L 178.392403 294.303774 
L 186.705222 294.497326 
L 195.277816 294.664256 
L 210.929296 294.900764 
L 283.991181 295.359402 
L 352.9616 295.461908 
L 398.487273 295.488 
L 398.487273 295.488 
" clip-path="url(#pc94ec851d5)" style="fill: none; stroke: #0000ff; stroke-width: 1.5; stroke-linecap: square"/>
   </g>
   <g id="line2d_16">
    <path d="M 73.832727 262.667675 
L 74.222391 264.17496 
L 74.612054 264.865383 
L 76.170708 266.409519 
L 76.88509 267.803129 
L 77.599473 269.56907 
L 79.54779 274.721515 
L 80.521949 276.785813 
L 81.561051 278.38133 
L 82.53521 279.362562 
L 83.314536 279.838908 
L 83.834088 280.0499 
L 85.717461 280.188356 
L 87.016339 279.950082 
L 88.120385 279.619781 
L 89.419263 279.16627 
L 95.913653 276.176384 
L 108.317937 269.160629 
L 108.382881 269.194017 
L 108.447825 268.949982 
L 108.512769 269.14556 
L 108.577713 268.990271 
L 108.642657 268.825147 
L 108.7076 269.043652 
L 108.772544 268.934382 
L 108.837488 268.703458 
L 108.902432 268.819934 
L 108.967376 268.822671 
L 109.03232 268.62775 
L 109.097264 268.693446 
L 109.162208 268.757304 
L 109.292096 268.538394 
L 109.357039 268.626637 
L 109.421983 268.54565 
L 109.746703 268.315003 
L 109.941534 268.295073 
L 110.785805 267.793872 
L 113.253673 266.304604 
L 113.383561 266.068245 
L 113.513449 266.130061 
L 113.773224 265.950233 
L 114.227832 265.603436 
L 114.35772 265.58449 
L 114.617495 265.353605 
L 115.137046 265.049524 
L 115.656598 264.695101 
L 115.721541 264.580604 
L 115.786485 264.646534 
L 116.435924 264.195462 
L 116.760644 264.041805 
L 117.020419 263.783843 
L 117.539971 263.490532 
L 117.994578 263.23377 
L 118.124466 263.015868 
L 118.18941 263.074545 
L 118.644017 262.763205 
L 118.773905 262.614738 
L 118.903792 262.58655 
L 119.3584 262.280335 
L 120.332558 261.577031 
L 120.657278 261.351602 
L 123.579753 259.290259 
L 123.709641 259.128151 
L 124.164248 258.791498 
L 124.229192 258.826993 
L 124.553912 258.459708 
L 124.683799 258.408909 
L 126.956836 256.765 
L 127.086724 256.623496 
L 127.606275 256.313462 
L 127.930994 256.059733 
L 128.645377 255.528959 
L 128.775265 255.520018 
L 129.03504 255.299526 
L 129.164928 255.224782 
L 129.424704 255.001773 
L 135.52943 250.95407 
L 135.594374 250.99739 
L 135.789206 250.754275 
L 135.984038 250.719747 
L 136.113925 250.49448 
L 136.178869 250.582889 
L 136.243813 250.496676 
L 136.308757 250.367581 
L 136.373701 250.441052 
L 136.438645 250.426962 
L 136.568533 250.196484 
L 136.69842 250.219868 
L 137.02314 249.896455 
L 137.088084 249.970727 
L 137.153028 249.962191 
L 137.347859 249.770108 
L 137.477747 249.694854 
L 137.737523 249.546171 
L 140.465166 247.7948 
L 140.595054 247.690005 
L 140.724942 247.55031 
L 140.85483 247.583992 
L 141.114605 247.329211 
L 142.088764 246.615056 
L 142.218652 246.554175 
L 142.34854 246.634028 
L 142.478427 246.315003 
L 142.543371 246.368218 
L 142.738203 246.259124 
L 142.868091 246.106572 
L 142.933035 246.187833 
L 142.997979 246.135731 
L 143.19281 245.887811 
L 143.387642 245.833788 
L 143.712361 245.584724 
L 143.777305 245.594787 
L 143.972137 245.382559 
L 144.102025 245.320905 
L 144.3618 245.092345 
L 144.491688 245.03664 
L 144.881352 244.658353 
L 145.141127 244.564622 
L 145.335959 244.424091 
L 145.465847 244.39068 
L 145.660678 244.178522 
L 145.725622 244.243505 
L 145.985398 243.9369 
L 146.115286 243.95965 
L 146.310117 243.678524 
L 146.440005 243.637497 
L 147.479107 242.873076 
L 147.608995 242.873614 
L 147.868771 242.589994 
L 148.063603 242.454184 
L 150.596415 240.679151 
L 150.661358 240.567544 
L 150.791246 240.678996 
L 150.921134 240.421022 
L 150.986078 240.455334 
L 151.115966 240.262331 
L 151.245854 240.211999 
L 151.440685 240.091389 
L 151.700461 239.86293 
L 151.830349 239.923014 
L 152.02518 239.622382 
L 152.220012 239.602532 
L 152.3499 239.325086 
L 152.479788 239.31732 
L 152.609675 239.322442 
L 152.739563 239.125863 
L 152.869451 239.106592 
L 153.129227 238.843623 
L 153.453946 238.631558 
L 153.583834 238.512989 
L 153.778666 238.512007 
L 153.973497 238.199612 
L 154.038441 238.260446 
L 154.103385 238.32476 
L 154.363161 238.026169 
L 154.882712 237.712745 
L 155.142487 237.467056 
L 155.337319 237.322614 
L 156.116646 236.801103 
L 156.246534 236.585671 
L 156.311478 236.673194 
L 156.376421 236.601311 
L 156.831029 236.230014 
L 156.960917 236.17371 
L 157.090804 236.153303 
L 157.220692 235.968444 
L 157.285636 235.996884 
L 157.415524 235.853037 
L 157.480468 235.882858 
L 157.740243 235.555351 
L 157.870131 235.634764 
L 158.129907 235.323111 
L 158.324738 235.201693 
L 158.389682 235.053075 
L 158.454626 235.146583 
L 159.233953 234.582035 
L 159.298897 234.622358 
L 159.558672 234.299695 
L 159.68856 234.312533 
L 160.078224 233.952129 
L 160.208111 233.915042 
L 160.402943 233.716062 
L 162.416204 232.204608 
L 162.481148 232.097227 
L 162.546092 232.179133 
L 162.611036 232.205122 
L 162.740923 231.924611 
L 162.805867 231.979222 
L 162.935755 231.861283 
L 163.000699 231.909458 
L 163.130587 231.633662 
L 163.195531 231.75326 
L 163.260475 231.703674 
L 163.390362 231.491149 
L 163.52025 231.433249 
L 163.650138 231.34247 
L 163.974858 231.070599 
L 164.234633 230.991046 
L 164.364521 230.739466 
L 164.494409 230.735577 
L 164.754184 230.500793 
L 165.858231 229.65902 
L 165.988118 229.569892 
L 166.053062 229.608046 
L 166.377782 229.288661 
L 166.572613 229.20636 
L 166.702501 228.979436 
L 166.832389 229.040297 
L 167.027221 228.794608 
L 167.157109 228.746024 
L 167.222052 228.79307 
L 167.35194 228.463843 
L 167.416884 228.513486 
L 167.546772 228.464044 
L 167.806547 228.249536 
L 167.871491 228.252466 
L 168.131267 227.918167 
L 168.261155 227.987518 
L 168.52093 227.693245 
L 168.650818 227.650041 
L 168.84565 227.381251 
L 168.975538 227.427895 
L 169.170369 227.134681 
L 169.300257 227.20874 
L 169.624977 226.806513 
L 169.754864 226.838127 
L 170.01464 226.587474 
L 170.144528 226.403745 
L 170.33936 226.266442 
L 170.729023 226.083262 
L 170.923855 225.795274 
L 171.053742 225.796241 
L 171.18363 225.616663 
L 171.443406 225.568373 
L 171.573294 225.289539 
L 171.638237 225.355542 
L 171.962957 224.960668 
L 172.092845 225.023393 
L 172.35262 224.682437 
L 172.482508 224.784739 
L 172.67734 224.383656 
L 172.872172 224.369647 
L 173.067003 224.12317 
L 173.261835 224.042593 
L 173.391723 223.869061 
L 173.456667 223.975948 
L 173.586554 223.666591 
L 173.651498 223.69999 
L 173.716442 223.719102 
L 173.976218 223.467422 
L 174.495769 223.10195 
L 174.625657 222.897199 
L 174.690601 222.927459 
L 175.080264 222.645494 
L 175.859591 221.893197 
L 176.054423 221.873396 
L 176.314198 221.51728 
L 178.587235 219.745231 
L 178.652178 219.628185 
L 178.717122 219.710896 
L 178.782066 219.777417 
L 179.041842 219.287144 
L 179.106786 219.339718 
L 179.17173 219.417767 
L 179.236674 219.340638 
L 179.431505 219.106531 
L 179.756225 218.806899 
L 179.886112 218.862017 
L 180.016 218.505034 
L 180.080944 218.560159 
L 180.145888 218.62385 
L 180.210832 218.555412 
L 180.405664 218.267169 
L 180.535551 218.271275 
L 181.834429 217.121582 
L 181.899373 217.20921 
L 181.964317 217.115976 
L 182.094205 216.918423 
L 182.289037 216.826257 
L 183.133307 216.038 
L 183.198251 216.137751 
L 183.263195 216.055759 
L 183.587915 215.712392 
L 184.367241 215.075601 
L 184.432185 215.105104 
L 184.691961 214.761783 
L 184.821849 214.804723 
L 185.081624 214.463853 
L 185.211512 214.443016 
L 185.601176 214.042614 
L 185.990839 213.767886 
L 186.185671 213.560947 
L 186.640278 213.182826 
L 186.770166 212.9724 
L 186.900053 212.988907 
L 188.0041 212.004836 
L 188.198931 211.881196 
L 188.328819 211.889422 
L 188.523651 211.538091 
L 188.718483 211.480608 
L 188.913314 211.301045 
L 188.978258 211.305429 
L 189.238034 210.928206 
L 189.432865 210.887747 
L 189.562753 210.672427 
L 189.627697 210.71938 
L 189.952417 210.391854 
L 190.082304 210.315862 
L 190.212192 210.125476 
L 190.277136 210.179634 
L 190.407024 209.993987 
L 190.471968 210.041002 
L 190.796687 209.602522 
L 190.926575 209.672275 
L 191.056463 209.485306 
L 191.121407 209.481711 
L 191.251295 209.252993 
L 191.316239 209.306834 
L 191.446126 209.038044 
L 191.51107 209.08877 
L 191.83579 208.804617 
L 192.095565 208.493335 
L 192.225453 208.527074 
L 192.939836 207.899268 
L 193.069724 207.762824 
L 193.329499 207.548849 
L 193.459387 207.393996 
L 194.368602 206.665055 
L 194.433546 206.671225 
L 194.628377 206.395577 
L 194.758265 206.351368 
L 195.407704 205.740849 
L 195.537592 205.66212 
L 195.797367 205.378555 
L 195.927255 205.373398 
L 196.057143 205.169281 
L 196.122087 205.205827 
L 197.680741 203.816244 
L 197.810628 203.759565 
L 198.135348 203.452898 
L 198.200292 203.47092 
L 198.525011 203.056887 
L 198.719843 202.906511 
L 198.849731 202.833279 
L 198.979618 202.767029 
L 199.17445 202.471604 
L 199.304338 202.516801 
L 199.564114 202.190335 
L 199.694001 202.183972 
L 199.953777 201.819961 
L 200.278496 201.624681 
L 200.538272 201.330524 
L 200.66816 201.27836 
L 201.057823 200.926928 
L 202.096926 200.006093 
L 202.226813 199.938049 
L 202.421645 199.763891 
L 202.876252 199.343456 
L 203.136028 199.117977 
L 203.265916 199.050041 
L 203.460747 198.835232 
L 203.785467 198.54075 
L 204.889513 197.634241 
L 205.603896 196.979305 
L 206.383223 196.299636 
L 206.513111 196.17826 
L 206.902774 195.799142 
L 207.422325 195.361815 
L 208.00682 194.779871 
L 208.33154 194.614094 
L 208.591315 194.314354 
L 208.851091 194.077286 
L 208.980979 193.996926 
L 209.50053 193.520423 
L 209.630418 193.449348 
L 209.825249 193.2179 
L 210.085025 192.993248 
L 210.734464 192.426303 
L 211.643679 191.641696 
L 211.903454 191.392597 
L 212.228174 191.163152 
L 212.552893 190.83892 
L 217.618517 186.42629 
L 217.878293 186.264556 
L 218.527732 185.633974 
L 218.592676 185.719352 
L 218.982339 185.261011 
L 219.436946 184.826613 
L 219.696722 184.653708 
L 219.891554 184.461976 
L 220.086385 184.363857 
L 220.346161 184.079495 
L 220.411105 184.09403 
L 220.67088 183.806197 
L 226.191112 179.032124 
L 226.385943 178.854124 
L 226.580775 178.716427 
L 226.775607 178.604453 
L 226.905495 178.436209 
L 227.295158 178.053844 
L 230.477409 175.322984 
L 230.672241 175.121434 
L 231.32168 174.630929 
L 231.711343 174.276753 
L 231.841231 174.121375 
L 232.036062 173.971826 
L 232.230894 173.82956 
L 232.49067 173.592994 
L 233.010221 173.065402 
L 233.269997 172.940694 
L 234.049323 172.166416 
L 234.179211 172.097552 
L 234.374043 171.962956 
L 235.023482 171.356179 
L 235.218313 171.18451 
L 235.348201 171.03367 
L 235.478089 170.967474 
L 235.737865 170.764718 
L 235.867752 170.693411 
L 236.062584 170.476011 
L 236.32236 170.21557 
L 236.712023 169.824306 
L 236.971799 169.727865 
L 237.16663 169.527273 
L 237.426406 169.268626 
L 237.816069 168.84312 
L 238.205733 168.57191 
L 242.362142 164.967577 
L 242.556974 164.776997 
L 242.751806 164.595711 
L 242.881693 164.425836 
L 243.076525 164.381458 
L 243.596076 163.849753 
L 243.790908 163.726962 
L 244.050684 163.434297 
L 244.180571 163.389919 
L 244.375403 163.19518 
L 245.284618 162.409482 
L 245.479449 162.210986 
L 245.739225 162.011902 
L 246.063944 161.721309 
L 246.32372 161.532183 
L 246.778327 161.044361 
L 247.103047 160.812279 
L 247.297878 160.695705 
L 247.49271 160.460902 
L 247.882374 160.121508 
L 248.401925 159.72167 
L 248.596756 159.534044 
L 248.726644 159.440045 
L 249.051364 159.14251 
L 249.181252 159.004102 
L 249.376083 158.848283 
L 249.505971 158.79124 
L 249.960578 158.315186 
L 250.350242 158.036144 
L 250.869793 157.633708 
L 256.195192 153.082825 
L 256.390024 152.90743 
L 257.559014 151.934199 
L 258.468229 151.165155 
L 258.663061 151.067012 
L 259.377443 150.454174 
L 259.637219 150.135438 
L 260.221714 149.692413 
L 262.299919 147.962075 
L 262.429807 147.936654 
L 262.81947 147.561216 
L 263.339021 147.153477 
L 263.728685 146.809939 
L 264.183292 146.45901 
L 264.443068 146.179983 
L 265.092507 145.697759 
L 265.741945 145.138808 
L 265.936777 145.033908 
L 266.261497 144.751681 
L 266.391384 144.684015 
L 266.716104 144.35594 
L 267.170711 143.972895 
L 267.885094 143.41631 
L 268.079926 143.213886 
L 268.664421 142.766515 
L 268.794309 142.73327 
L 269.183972 142.357369 
L 269.378804 142.189551 
L 269.898355 141.723996 
L 270.093187 141.654459 
L 271.197233 140.745909 
L 271.457008 140.552748 
L 271.781728 140.235806 
L 272.755886 139.481869 
L 273.015662 139.299206 
L 273.535213 138.842821 
L 274.639259 138.007457 
L 276.717464 136.317801 
L 276.912296 136.169358 
L 277.107128 136.032141 
L 277.301959 135.90581 
L 277.496791 135.693149 
L 277.691623 135.598269 
L 277.951398 135.385408 
L 278.081286 135.291162 
L 278.341062 135.071141 
L 278.470949 134.980235 
L 278.600837 134.7968 
L 278.730725 134.79833 
L 279.834771 133.849902 
L 280.224435 133.603486 
L 281.198593 132.750633 
L 281.588257 132.536782 
L 282.237696 132.003516 
L 283.991181 130.606556 
L 284.965339 129.889359 
L 285.095227 129.813792 
L 285.355003 129.609451 
L 285.939498 129.136721 
L 288.667141 126.961997 
L 288.861973 126.869158 
L 289.056805 126.74711 
L 289.31658 126.565762 
L 290.030963 125.987096 
L 290.745346 125.443732 
L 292.044224 124.457852 
L 292.823551 123.888202 
L 293.408046 123.445887 
L 293.602878 123.253777 
L 294.512092 122.592447 
L 294.706924 122.442086 
L 295.291419 122.016874 
L 295.81097 121.653126 
L 296.720185 120.914621 
L 297.044904 120.72432 
L 297.369624 120.447164 
L 298.084007 119.944343 
L 301.071426 117.707984 
L 301.396145 117.449724 
L 301.720865 117.211643 
L 302.630079 116.563904 
L 303.019743 116.290877 
L 303.928957 115.601281 
L 304.253677 115.388296 
L 304.578396 115.152704 
L 307.176152 113.250945 
L 307.370984 113.09975 
L 307.890535 112.717462 
L 308.280199 112.416663 
L 309.514133 111.571774 
L 309.903796 111.280562 
L 310.618179 110.738219 
L 311.527393 110.107938 
L 311.917057 109.794058 
L 312.111889 109.715399 
L 312.696384 109.29832 
L 312.891215 109.149985 
L 313.150991 108.969703 
L 313.280879 108.879246 
L 313.540654 108.670559 
L 313.80043 108.499803 
L 314.125149 108.287607 
L 315.618859 107.211935 
L 316.203354 106.742328 
L 316.46313 106.56865 
L 328.217975 98.401025 
L 328.347863 98.354374 
L 328.607639 98.098263 
L 328.80247 98.044869 
L 329.192134 97.752591 
L 329.97146 97.226128 
L 330.166292 97.078566 
L 330.426068 96.891914 
L 332.179553 95.656201 
L 332.828992 95.265332 
L 333.218655 94.987867 
L 333.608319 94.708793 
L 333.738207 94.64872 
L 333.933038 94.479201 
L 334.192814 94.346623 
L 335.361804 93.536587 
L 336.011243 93.072284 
L 336.595738 92.69997 
L 337.050345 92.383585 
L 337.95956 91.77554 
L 338.349223 91.492616 
L 338.608999 91.341189 
L 338.933718 91.10637 
L 339.842933 90.516818 
L 341.141811 89.66579 
L 342.570577 88.666041 
L 343.28496 88.200826 
L 343.479791 88.09724 
L 344.648781 87.309718 
L 345.168333 86.955789 
L 345.363164 86.857183 
L 345.687884 86.621081 
L 345.947659 86.476395 
L 346.402267 86.149634 
L 347.181593 85.663993 
L 347.506313 85.412629 
L 347.701145 85.318924 
L 348.155752 84.97851 
L 349.389686 84.177674 
L 350.039125 83.75223 
L 350.298901 83.588772 
L 350.493732 83.433819 
L 350.753508 83.308493 
L 351.273059 82.961661 
L 351.662722 82.687675 
L 353.481152 81.507722 
L 353.611039 81.464843 
L 353.870815 81.26429 
L 354.520254 80.840856 
L 354.844973 80.64924 
L 356.273739 79.71043 
L 356.923178 79.323333 
L 357.247898 79.071706 
L 357.897337 78.649401 
L 358.157112 78.489175 
L 359.650822 77.527433 
L 360.495092 77.017051 
L 360.819812 76.767435 
L 362.378466 75.794235 
L 362.703185 75.604676 
L 366.145212 73.40535 
L 366.340043 73.253428 
L 366.599819 73.119721 
L 366.794651 72.980601 
L 367.11937 72.757519 
L 369.067687 71.564855 
L 369.847014 71.08376 
L 370.236677 70.81565 
L 370.431509 70.714801 
L 371.145892 70.227567 
L 372.12005 69.636438 
L 374.977582 67.857702 
L 375.432189 67.561913 
L 376.860955 66.701345 
L 377.965001 65.981936 
L 378.419608 65.69558 
L 378.939159 65.376118 
L 379.718486 64.940143 
L 380.173094 64.643195 
L 381.082308 64.07959 
L 381.407028 63.895103 
L 384.134671 62.204458 
L 385.628381 61.309021 
L 386.342764 60.859763 
L 386.667483 60.682436 
L 390.953781 58.10608 
L 391.668163 57.642535 
L 392.057827 57.408458 
L 392.837154 56.916647 
L 398.487273 53.568 
L 398.487273 53.568 
" clip-path="url(#pc94ec851d5)" style="fill: none; stroke: #008000; stroke-width: 1.5; stroke-linecap: square"/>
   </g>
   <g id="line2d_17">
    <path d="M 73.832727 262.713418 
L 74.222391 264.161954 
L 74.612054 264.864351 
L 75.131605 265.213204 
L 75.651156 265.64726 
L 76.235651 266.496542 
L 77.079922 268.179581 
L 78.183968 271.100739 
L 79.937454 275.792359 
L 80.846668 277.631321 
L 81.885771 279.089986 
L 82.665097 279.806482 
L 84.288695 280.55791 
L 85.392741 280.67225 
L 87.341058 280.456979 
L 91.497467 279.343198 
L 94.354999 278.350768 
L 96.692979 277.453288 
L 101.174108 275.573913 
L 101.888491 275.254608 
L 108.382881 272.10586 
L 108.447825 271.865861 
L 108.512769 272.067771 
L 108.577713 271.914235 
L 108.642657 271.745141 
L 108.7076 271.961335 
L 108.772544 271.860627 
L 108.837488 271.635794 
L 108.902432 271.755695 
L 108.967376 271.756709 
L 109.03232 271.553321 
L 109.097264 271.623876 
L 109.162208 271.69895 
L 109.292096 271.480415 
L 109.357039 271.566151 
L 109.421983 271.48196 
L 109.746703 271.271404 
L 109.941534 271.259942 
L 110.980637 270.6319 
L 111.435244 270.406788 
L 111.630076 270.2579 
L 112.214571 269.913789 
L 112.799066 269.508067 
L 112.993898 269.429036 
L 113.188729 269.344149 
L 113.253673 269.330461 
L 113.383561 269.101408 
L 113.513449 269.164713 
L 113.773224 268.985282 
L 114.877271 268.29586 
L 115.007159 268.204329 
L 115.137046 268.127887 
L 115.591654 267.911628 
L 115.721541 267.672261 
L 115.786485 267.750331 
L 116.176149 267.499139 
L 116.306036 267.379236 
L 116.630756 267.180004 
L 116.760644 267.172143 
L 117.020419 266.927911 
L 117.475027 266.611831 
L 117.604914 266.636632 
L 117.929634 266.397339 
L 117.994578 266.430008 
L 118.124466 266.206287 
L 118.18941 266.278727 
L 118.449185 266.123115 
L 118.579073 265.99314 
L 118.644017 265.993356 
L 118.773905 265.84651 
L 118.903792 265.818201 
L 119.293456 265.492786 
L 119.423344 265.484125 
L 119.683119 265.328304 
L 119.813007 265.258273 
L 120.137726 265.001091 
L 120.332558 264.892895 
L 120.592334 264.736019 
L 121.111885 264.380992 
L 124.488968 262.15693 
L 124.683799 261.98387 
L 125.917733 261.194832 
L 126.632116 260.658334 
L 127.151667 260.327112 
L 127.216611 260.364208 
L 127.346499 260.143909 
L 127.411443 260.192628 
L 127.606275 260.067093 
L 127.801106 259.902812 
L 127.930994 259.831961 
L 128.19077 259.621671 
L 128.320658 259.604395 
L 128.450545 259.447188 
L 128.580433 259.379391 
L 128.905153 259.157496 
L 129.164928 259.037199 
L 129.424704 258.816374 
L 130.009199 258.487271 
L 130.398862 258.14679 
L 130.52875 258.211097 
L 130.788526 257.989661 
L 131.373021 257.618723 
L 131.69774 257.391145 
L 132.02246 257.212986 
L 132.477067 256.88754 
L 132.671899 256.751617 
L 132.931674 256.52443 
L 136.893252 254.11808 
L 137.02314 254.016644 
L 137.153028 254.05474 
L 137.347859 253.897205 
L 137.477747 253.833506 
L 137.737523 253.679859 
L 138.451906 253.194454 
L 138.51685 253.091846 
L 138.581793 253.169257 
L 138.646737 253.211768 
L 138.841569 252.888823 
L 138.906513 252.966709 
L 139.036401 252.871424 
L 139.491008 252.587487 
L 139.620896 252.529532 
L 139.815728 252.402126 
L 139.880671 252.312914 
L 139.945615 252.387066 
L 140.205391 252.235789 
L 140.335279 252.070248 
L 140.53011 252.072347 
L 140.724942 251.869822 
L 140.85483 251.896105 
L 141.049662 251.690778 
L 141.634157 251.396945 
L 141.828988 251.240952 
L 141.958876 251.240871 
L 142.218652 250.955412 
L 142.34854 251.023263 
L 142.478427 250.725333 
L 142.543371 250.795704 
L 142.673259 250.706008 
L 143.062922 250.4696 
L 143.257754 250.336349 
L 143.387642 250.320361 
L 143.712361 250.085871 
L 143.777305 250.106927 
L 143.972137 249.894808 
L 144.102025 249.848795 
L 144.3618 249.626945 
L 144.491688 249.60996 
L 144.881352 249.263062 
L 145.076183 249.249049 
L 145.335959 249.054225 
L 145.465847 249.023041 
L 145.660678 248.815518 
L 145.725622 248.906026 
L 145.790566 248.80871 
L 145.985398 248.600422 
L 146.115286 248.65477 
L 146.310117 248.372098 
L 146.440005 248.342154 
L 146.829668 248.023859 
L 146.894612 247.95687 
L 146.959556 248.078165 
L 147.0245 248.034849 
L 147.284276 247.781154 
L 147.414164 247.735342 
L 147.868771 247.408817 
L 148.258434 247.267324 
L 148.51821 247.021052 
L 148.713042 247.007015 
L 148.842929 246.773859 
L 149.037761 246.747282 
L 149.232593 246.607865 
L 149.36248 246.545001 
L 149.622256 246.354097 
L 149.946976 246.150861 
L 150.076863 246.072492 
L 150.206751 246.042405 
L 150.401583 245.877277 
L 150.661358 245.617877 
L 150.791246 245.756752 
L 150.921134 245.516004 
L 150.986078 245.562496 
L 151.115966 245.379165 
L 151.18091 245.42354 
L 151.440685 245.224494 
L 151.700461 244.995872 
L 151.830349 245.077876 
L 152.02518 244.822495 
L 152.220012 244.796437 
L 152.3499 244.540712 
L 152.479788 244.54031 
L 152.609675 244.561142 
L 152.739563 244.347191 
L 152.869451 244.34774 
L 153.19417 244.081911 
L 153.453946 243.940116 
L 153.583834 243.820121 
L 153.778666 243.823921 
L 154.493048 243.26526 
L 154.882712 243.088145 
L 155.077544 242.935275 
L 155.791926 242.4497 
L 155.921814 242.426861 
L 156.051702 242.265495 
L 156.116646 242.305768 
L 156.246534 242.05653 
L 156.311478 242.154414 
L 156.376421 242.086203 
L 156.831029 241.762006 
L 156.960917 241.706966 
L 157.090804 241.710159 
L 157.220692 241.525107 
L 157.285636 241.568523 
L 157.415524 241.412464 
L 157.480468 241.452366 
L 157.740243 241.145874 
L 157.935075 241.115903 
L 158.129907 240.93619 
L 158.324738 240.833126 
L 158.389682 240.68113 
L 158.454626 240.799444 
L 159.233953 240.278954 
L 159.298897 240.340619 
L 159.558672 240.014616 
L 159.753504 239.970655 
L 159.883392 239.72872 
L 159.948336 239.794657 
L 160.208111 239.681678 
L 160.402943 239.52952 
L 161.052382 239.096912 
L 161.247214 238.928058 
L 162.546092 238.139577 
L 162.611036 238.158434 
L 162.740923 237.865406 
L 162.805867 237.959745 
L 162.870811 237.862526 
L 163.000699 237.900023 
L 163.130587 237.601273 
L 163.195531 237.746392 
L 163.260475 237.709278 
L 163.390362 237.509478 
L 163.52025 237.448346 
L 163.650138 237.370205 
L 163.909914 237.124608 
L 164.039801 237.118211 
L 164.169689 237.009066 
L 164.234633 237.079921 
L 164.364521 236.8379 
L 164.494409 236.815166 
L 164.68924 236.694931 
L 165.273735 236.273252 
L 165.403623 236.253192 
L 165.533511 236.072289 
L 165.663399 236.051213 
L 165.988118 235.781584 
L 166.053062 235.837973 
L 166.377782 235.533792 
L 166.572613 235.478153 
L 166.702501 235.261051 
L 166.832389 235.326064 
L 167.027221 235.139288 
L 167.157109 235.057208 
L 167.222052 235.115429 
L 167.35194 234.786264 
L 167.416884 234.852314 
L 167.546772 234.825014 
L 167.806547 234.643233 
L 167.936435 234.522743 
L 168.131267 234.33352 
L 168.261155 234.398789 
L 168.455986 234.112668 
L 168.585874 234.200211 
L 168.84565 233.877401 
L 168.975538 233.918072 
L 169.170369 233.634739 
L 169.300257 233.739755 
L 169.560033 233.377167 
L 169.754864 233.358557 
L 169.949696 233.153729 
L 170.079584 233.141679 
L 170.274416 232.936719 
L 170.793967 232.548544 
L 170.923855 232.477454 
L 171.053742 232.499237 
L 171.18363 232.308047 
L 171.248574 232.319385 
L 171.378462 232.246976 
L 171.443406 232.290234 
L 171.573294 232.016719 
L 171.638237 232.109705 
L 171.962957 231.758873 
L 172.092845 231.824323 
L 172.287676 231.548907 
L 172.417564 231.577358 
L 172.482508 231.602911 
L 172.67734 231.263486 
L 172.807228 231.321 
L 173.131947 231.038618 
L 173.261835 230.968942 
L 173.391723 230.781177 
L 173.456667 230.9165 
L 173.586554 230.602075 
L 173.651498 230.65079 
L 173.716442 230.68349 
L 173.976218 230.436707 
L 174.495769 230.133365 
L 174.625657 229.957398 
L 174.755545 229.946497 
L 174.950376 229.773128 
L 175.145208 229.703591 
L 175.275096 229.47335 
L 175.34004 229.514295 
L 175.469927 229.418696 
L 175.794647 229.152233 
L 176.314198 228.785686 
L 176.50903 228.742004 
L 176.703861 228.534647 
L 177.028581 228.343967 
L 177.093525 228.360018 
L 177.223413 228.177417 
L 177.288357 228.210739 
L 177.613076 227.881597 
L 177.742964 227.935725 
L 177.937796 227.712047 
L 178.067683 227.619727 
L 178.652178 227.103237 
L 178.717122 227.203142 
L 178.782066 227.277998 
L 179.041842 226.843871 
L 179.17173 226.972073 
L 179.236674 226.871302 
L 179.366561 226.683282 
L 179.496449 226.596775 
L 179.756225 226.3934 
L 179.821169 226.490499 
L 179.886112 226.473235 
L 180.016 226.122677 
L 180.145888 226.275851 
L 180.210832 226.209516 
L 180.405664 225.942937 
L 180.535551 225.96443 
L 181.444766 225.253054 
L 181.574654 225.195788 
L 183.133307 224.003688 
L 183.198251 224.118306 
L 183.263195 224.02314 
L 183.522971 223.801689 
L 183.717802 223.695491 
L 183.84769 223.550264 
L 184.107466 223.368011 
L 184.237354 223.286097 
L 184.367241 223.179264 
L 184.432185 223.228451 
L 184.691961 222.901482 
L 184.821849 222.957882 
L 185.01668 222.654007 
L 185.146568 222.674835 
L 185.796007 222.166031 
L 186.120727 221.917311 
L 186.250614 221.87802 
L 186.445446 221.710712 
L 186.575334 221.712614 
L 186.770166 221.386541 
L 186.900053 221.419129 
L 188.198931 220.456467 
L 188.328819 220.464624 
L 188.458707 220.154888 
L 188.523651 220.18828 
L 188.653539 220.150226 
L 188.783427 220.010921 
L 188.84837 219.904189 
L 188.913314 219.959422 
L 188.978258 220.008091 
L 189.238034 219.635986 
L 189.367922 219.777409 
L 189.562753 219.405242 
L 189.627697 219.48588 
L 189.692641 219.395284 
L 190.017361 219.167446 
L 190.6668 218.730266 
L 190.796687 218.476698 
L 190.926575 218.606656 
L 191.056463 218.418489 
L 191.121407 218.420908 
L 191.251295 218.219497 
L 191.316239 218.325364 
L 191.446126 218.022841 
L 191.51107 218.088566 
L 192.030621 217.660956 
L 192.095565 217.555392 
L 192.160509 217.600752 
L 192.355341 217.504666 
L 192.550173 217.29482 
L 192.615116 217.366181 
L 192.874892 217.07309 
L 193.069724 216.952364 
L 193.329499 216.790128 
L 193.394443 216.778175 
L 193.524331 216.557869 
L 193.654219 216.537489 
L 193.978938 216.337887 
L 194.043882 216.296415 
L 194.17377 216.120185 
L 194.303658 216.031166 
L 194.49849 215.905066 
L 194.628377 215.796077 
L 194.758265 215.751257 
L 195.407704 215.229054 
L 195.537592 215.17914 
L 195.797367 214.905332 
L 195.927255 214.926996 
L 196.057143 214.735055 
L 196.122087 214.783238 
L 196.83647 214.216795 
L 199.044562 212.558012 
L 199.17445 212.401219 
L 199.304338 212.471482 
L 199.564114 212.15921 
L 199.694001 212.169941 
L 199.888833 211.893976 
L 200.66816 211.359279 
L 200.927935 211.128248 
L 201.122767 211.004638 
L 201.252655 210.928252 
L 201.447487 210.795573 
L 201.83715 210.479203 
L 209.695362 204.433258 
L 210.149969 204.107494 
L 210.279857 204.058578 
L 210.539632 203.812023 
L 212.033342 202.668963 
L 212.358061 202.409265 
L 212.487949 202.327768 
L 212.877613 202.011546 
L 218.527732 197.525212 
L 218.592676 197.638996 
L 218.917395 197.271467 
L 220.021441 196.402433 
L 220.476049 196.029013 
L 220.605936 195.895947 
L 220.800768 195.784221 
L 220.9956 195.592319 
L 221.060544 195.639365 
L 221.385263 195.293987 
L 221.450207 195.300265 
L 221.645039 195.07443 
L 221.774927 195.056594 
L 221.969758 194.795442 
L 222.034702 194.834455 
L 222.16459 194.749548 
L 222.359422 194.490028 
L 222.489309 194.46272 
L 224.50257 192.786843 
L 224.632458 192.776521 
L 224.892234 192.517913 
L 225.216953 192.230498 
L 225.541673 192.008405 
L 225.67156 191.910301 
L 225.736504 191.915983 
L 225.99628 191.655102 
L 229.698082 188.711728 
L 229.763026 188.714535 
L 229.892914 188.454272 
L 229.957858 188.496029 
L 230.152689 188.377708 
L 230.347521 188.137338 
L 230.412465 188.218379 
L 230.737185 187.862888 
L 230.867072 187.777448 
L 231.191792 187.498251 
L 231.516511 187.236798 
L 231.711343 187.148211 
L 231.841231 186.999219 
L 231.971119 186.790246 
L 232.101006 186.821304 
L 232.49067 186.488822 
L 232.815389 186.260265 
L 233.399884 185.741263 
L 235.023482 184.448423 
L 235.218313 184.294058 
L 235.348201 184.171422 
L 235.478089 184.111287 
L 235.737865 183.888019 
L 235.867752 183.838082 
L 236.062584 183.632635 
L 236.32236 183.408014 
L 236.712023 183.041985 
L 236.971799 182.951048 
L 237.16663 182.763299 
L 237.361462 182.613634 
L 237.881013 182.133698 
L 238.010901 182.119944 
L 238.270677 181.839966 
L 238.400564 181.787996 
L 238.66034 181.592174 
L 238.790228 181.462418 
L 238.920116 181.282848 
L 238.98506 181.316116 
L 239.050003 181.320353 
L 239.309779 181.040553 
L 239.504611 180.902965 
L 239.634499 180.733376 
L 239.764386 180.753942 
L 240.024162 180.431279 
L 240.15405 180.417648 
L 240.413825 180.157432 
L 241.517872 179.290554 
L 241.842591 179.018385 
L 241.972479 178.945091 
L 242.297198 178.673819 
L 242.686862 178.400908 
L 242.946637 178.151044 
L 243.076525 178.100527 
L 243.271357 177.843542 
L 243.336301 177.893155 
L 243.466189 177.751531 
L 243.66102 177.59824 
L 243.920796 177.367627 
L 244.310459 177.03496 
L 244.635179 176.79384 
L 245.089786 176.417668 
L 245.284618 176.3237 
L 245.479449 176.134489 
L 246.388664 175.432113 
L 246.713383 175.11395 
L 246.908215 175.028293 
L 247.038103 175.00656 
L 247.232935 174.754524 
L 247.427766 174.647196 
L 247.687542 174.415656 
L 248.401925 173.871719 
L 248.596756 173.702278 
L 248.726644 173.6216 
L 249.051364 173.363 
L 249.181252 173.238052 
L 249.376083 173.079999 
L 249.505971 173.035713 
L 249.765747 172.816651 
L 249.895634 172.690127 
L 250.090466 172.57588 
L 251.194512 171.664771 
L 251.389344 171.495383 
L 251.584176 171.394619 
L 251.714064 171.265752 
L 251.908895 171.117734 
L 252.233615 170.880016 
L 252.623278 170.551864 
L 254.831371 168.92965 
L 255.091146 168.686458 
L 255.805529 168.104646 
L 256.390024 167.704962 
L 258.468229 166.12541 
L 258.663061 166.027971 
L 259.702163 165.186932 
L 259.832051 165.119035 
L 259.961939 164.904009 
L 260.091826 164.959056 
L 260.351602 164.669871 
L 260.611378 164.468962 
L 261.195873 164.091499 
L 261.455648 163.894054 
L 262.364863 163.252825 
L 262.494751 163.141369 
L 262.81947 162.867971 
L 262.949358 162.767292 
L 263.403965 162.395829 
L 263.858572 162.118456 
L 264.118348 161.934186 
L 264.637899 161.507071 
L 264.832731 161.384559 
L 265.092507 161.205793 
L 265.48217 160.912865 
L 267.235655 159.595555 
L 267.560375 159.395714 
L 267.950038 159.138226 
L 268.664421 158.575766 
L 268.794309 158.569874 
L 269.119028 158.222347 
L 269.248916 158.225873 
L 269.898355 157.640357 
L 270.093187 157.601421 
L 270.80757 157.05348 
L 271.521952 156.500885 
L 271.911616 156.237074 
L 272.755886 155.650877 
L 272.950718 155.518052 
L 273.470269 155.125667 
L 275.353642 153.781312 
L 277.756567 152.112934 
L 277.886454 151.957022 
L 278.016342 152.003968 
L 278.341062 151.720998 
L 278.406006 151.747532 
L 278.600837 151.456614 
L 278.665781 151.502214 
L 278.860613 151.35159 
L 279.055445 151.162387 
L 279.185332 151.145564 
L 279.445108 150.949619 
L 280.679042 150.075937 
L 281.263537 149.637303 
L 281.458369 149.514404 
L 281.97792 149.173047 
L 282.952078 148.484456 
L 283.14691 148.407265 
L 283.731405 147.993341 
L 283.926237 147.816013 
L 284.186012 147.669302 
L 285.095227 147.059463 
L 285.290059 146.91088 
L 285.679722 146.647332 
L 286.523993 146.036086 
L 286.718824 145.955293 
L 286.913656 145.800309 
L 287.108488 145.684306 
L 287.563095 145.321053 
L 287.822871 145.209937 
L 288.082646 145.028388 
L 288.342422 144.810579 
L 289.31658 144.213976 
L 289.966019 143.743226 
L 290.875234 143.135134 
L 291.264897 142.887048 
L 291.654561 142.605748 
L 292.239056 142.232445 
L 292.628719 141.974463 
L 293.343102 141.481956 
L 293.537934 141.389705 
L 293.797709 141.196094 
L 294.122429 140.964477 
L 294.252317 140.899873 
L 294.512092 140.724138 
L 294.706924 140.592286 
L 295.031643 140.401459 
L 295.161531 140.322954 
L 295.486251 140.05956 
L 295.940858 139.77305 
L 296.265577 139.556493 
L 296.590297 139.39319 
L 296.850073 139.184797 
L 297.109848 139.008103 
L 298.019063 138.447915 
L 298.733446 138.013193 
L 298.993221 137.80729 
L 299.252997 137.587378 
L 300.357043 136.9029 
L 302.045584 135.798745 
L 302.240416 135.719683 
L 303.019743 135.213477 
L 303.604238 134.839709 
L 307.760647 132.197899 
L 308.020423 132.029261 
L 310.293459 130.573713 
L 310.553235 130.433605 
L 310.813011 130.293712 
L 311.397506 129.885834 
L 311.787169 129.678075 
L 312.046945 129.525658 
L 314.060205 128.247453 
L 314.255037 128.130755 
L 314.579757 127.925703 
L 314.839532 127.790898 
L 315.034364 127.6286 
L 315.424027 127.425526 
L 316.203354 126.912315 
L 316.398186 126.777463 
L 316.593018 126.681919 
L 317.177513 126.337669 
L 317.372344 126.255036 
L 318.021783 125.852863 
L 318.606278 125.482977 
L 319.320661 125.046956 
L 319.450549 124.978301 
L 319.710325 124.765053 
L 319.905156 124.707299 
L 320.164932 124.497298 
L 321.13909 123.925931 
L 321.788529 123.512625 
L 322.243137 123.233551 
L 322.437968 123.115802 
L 322.827632 122.851728 
L 323.087407 122.758301 
L 323.347183 122.536038 
L 323.542015 122.500288 
L 323.866734 122.245337 
L 324.516173 121.833654 
L 325.879995 121.060636 
L 326.074827 120.878623 
L 326.269658 120.825957 
L 326.594378 120.607158 
L 327.308761 120.145314 
L 327.503592 120.09005 
L 327.698424 119.934942 
L 327.893256 119.826346 
L 328.023144 119.777607 
L 328.282919 119.638798 
L 328.932358 119.17785 
L 329.12719 119.076925 
L 329.322021 118.982586 
L 329.97146 118.62674 
L 330.101348 118.561162 
L 330.426068 118.324487 
L 331.335282 117.8084 
L 331.595058 117.614388 
L 332.114609 117.310852 
L 332.309441 117.19352 
L 332.439329 117.168161 
L 332.63416 117.015481 
L 333.608319 116.403771 
L 333.738207 116.372505 
L 333.933038 116.226119 
L 334.192814 116.110658 
L 334.972141 115.616605 
L 335.102028 115.540759 
L 335.62158 115.210272 
L 335.881355 115.093064 
L 339.12855 113.212597 
L 339.45327 112.986314 
L 339.648101 112.890785 
L 339.842933 112.776654 
L 340.362484 112.500735 
L 340.752148 112.224584 
L 341.141811 112.034469 
L 341.856194 111.581361 
L 351.922498 105.877337 
L 352.442049 105.570168 
L 352.896656 105.247938 
L 353.28632 105.076161 
L 353.546095 104.980029 
L 357.897337 102.488981 
L 358.092168 102.373056 
L 383.680064 88.508614 
L 383.874896 88.388127 
L 384.978942 87.789545 
L 385.368605 87.585791 
L 387.057147 86.714151 
L 387.251978 86.598412 
L 387.44681 86.541772 
L 387.836473 86.303551 
L 388.745688 85.845851 
L 388.94052 85.706856 
L 389.135351 85.617171 
L 389.914678 85.194325 
L 390.174454 85.100032 
L 390.823893 84.725955 
L 391.083668 84.630441 
L 391.343444 84.461603 
L 391.668163 84.300665 
L 391.992883 84.127389 
L 392.837154 83.6657 
L 396.149292 81.97957 
L 396.538956 81.762379 
L 396.863675 81.640068 
L 397.058507 81.519906 
L 397.253339 81.401755 
L 397.513114 81.297875 
L 397.837834 81.113806 
L 398.487273 80.775695 
L 398.487273 80.775695 
" clip-path="url(#pc94ec851d5)" style="fill: none; stroke: #ff0000; stroke-width: 1.5; stroke-linecap: square"/>
   </g>
   <g id="patch_3">
    <path d="M 57.6 307.584 
L 57.6 41.472 
" style="fill: none; stroke: #000000; stroke-width: 0.8; stroke-linejoin: miter; stroke-linecap: square"/>
   </g>
   <g id="patch_4">
    <path d="M 414.72 307.584 
L 414.72 41.472 
" style="fill: none; stroke: #000000; stroke-width: 0.8; stroke-linejoin: miter; stroke-linecap: square"/>
   </g>
   <g id="patch_5">
    <path d="M 57.6 307.584 
L 414.72 307.584 
" style="fill: none; stroke: #000000; stroke-width: 0.8; stroke-linejoin: miter; stroke-linecap: square"/>
   </g>
   <g id="patch_6">
    <path d="M 57.6 41.472 
L 414.72 41.472 
" style="fill: none; stroke: #000000; stroke-width: 0.8; stroke-linejoin: miter; stroke-linecap: square"/>
   </g>
   <g id="text_17">
    <!-- Script19_loss -->
    <g transform="translate(196.532813 35.472) scale(0.12 -0.12)">
     <defs>
      <path id="DejaVuSans-53" d="M 3425 4513 
L 3425 3897 
Q 3066 4069 2747 4153 
Q 2428 4238 2131 4238 
Q 1616 4238 1336 4038 
Q 1056 3838 1056 3469 
Q 1056 3159 1242 3001 
Q 1428 2844 1947 2747 
L 2328 2669 
Q 3034 2534 3370 2195 
Q 3706 1856 3706 1288 
Q 3706 609 3251 259 
Q 2797 -91 1919 -91 
Q 1588 -91 1214 -16 
Q 841 59 441 206 
L 441 856 
Q 825 641 1194 531 
Q 1563 422 1919 422 
Q 2459 422 2753 634 
Q 3047 847 3047 1241 
Q 3047 1584 2836 1778 
Q 2625 1972 2144 2069 
L 1759 2144 
Q 1053 2284 737 2584 
Q 422 2884 422 3419 
Q 422 4038 858 4394 
Q 1294 4750 2059 4750 
Q 2388 4750 2728 4690 
Q 3069 4631 3425 4513 
z
" transform="scale(0.015625)"/>
      <path id="DejaVuSans-72" d="M 2631 2963 
Q 2534 3019 2420 3045 
Q 2306 3072 2169 3072 
Q 1681 3072 1420 2755 
Q 1159 2438 1159 1844 
L 1159 0 
L 581 0 
L 581 3500 
L 1159 3500 
L 1159 2956 
Q 1341 3275 1631 3429 
Q 1922 3584 2338 3584 
Q 2397 3584 2469 3576 
Q 2541 3569 2628 3553 
L 2631 2963 
z
" transform="scale(0.015625)"/>
      <path id="DejaVuSans-69" d="M 603 3500 
L 1178 3500 
L 1178 0 
L 603 0 
L 603 3500 
z
M 603 4863 
L 1178 4863 
L 1178 4134 
L 603 4134 
L 603 4863 
z
" transform="scale(0.015625)"/>
      <path id="DejaVuSans-74" d="M 1172 4494 
L 1172 3500 
L 2356 3500 
L 2356 3053 
L 1172 3053 
L 1172 1153 
Q 1172 725 1289 603 
Q 1406 481 1766 481 
L 2356 481 
L 2356 0 
L 1766 0 
Q 1100 0 847 248 
Q 594 497 594 1153 
L 594 3053 
L 172 3053 
L 172 3500 
L 594 3500 
L 594 4494 
L 1172 4494 
z
" transform="scale(0.015625)"/>
      <path id="DejaVuSans-39" d="M 703 97 
L 703 672 
Q 941 559 1184 500 
Q 1428 441 1663 441 
Q 2288 441 2617 861 
Q 2947 1281 2994 2138 
Q 2813 1869 2534 1725 
Q 2256 1581 1919 1581 
Q 1219 1581 811 2004 
Q 403 2428 403 3163 
Q 403 3881 828 4315 
Q 1253 4750 1959 4750 
Q 2769 4750 3195 4129 
Q 3622 3509 3622 2328 
Q 3622 1225 3098 567 
Q 2575 -91 1691 -91 
Q 1453 -91 1209 -44 
Q 966 3 703 97 
z
M 1959 2075 
Q 2384 2075 2632 2365 
Q 2881 2656 2881 3163 
Q 2881 3666 2632 3958 
Q 2384 4250 1959 4250 
Q 1534 4250 1286 3958 
Q 1038 3666 1038 3163 
Q 1038 2656 1286 2365 
Q 1534 2075 1959 2075 
z
" transform="scale(0.015625)"/>
      <path id="DejaVuSans-5f" d="M 3263 -1063 
L 3263 -1509 
L -63 -1509 
L -63 -1063 
L 3263 -1063 
z
" transform="scale(0.015625)"/>
     </defs>
     <use xlink:href="#DejaVuSans-53"/>
     <use xlink:href="#DejaVuSans-63" x="63.476562"/>
     <use xlink:href="#DejaVuSans-72" x="118.457031"/>
     <use xlink:href="#DejaVuSans-69" x="159.570312"/>
     <use xlink:href="#DejaVuSans-70" x="187.353516"/>
     <use xlink:href="#DejaVuSans-74" x="250.830078"/>
     <use xlink:href="#DejaVuSans-31" x="290.039062"/>
     <use xlink:href="#DejaVuSans-39" x="353.662109"/>
     <use xlink:href="#DejaVuSans-5f" x="417.285156"/>
     <use xlink:href="#DejaVuSans-6c" x="467.285156"/>
     <use xlink:href="#DejaVuSans-6f" x="495.068359"/>
     <use xlink:href="#DejaVuSans-73" x="556.25"/>
     <use xlink:href="#DejaVuSans-73" x="608.349609"/>
    </g>
   </g>
   <g id="legend_1">
    <g id="patch_7">
     <path d="M 64.6 93.506375 
L 164.295312 93.506375 
Q 166.295312 93.506375 166.295312 91.506375 
L 166.295312 48.472 
Q 166.295312 46.472 164.295312 46.472 
L 64.6 46.472 
Q 62.6 46.472 62.6 48.472 
L 62.6 91.506375 
Q 62.6 93.506375 64.6 93.506375 
z
" style="fill: #ffffff; opacity: 0.8; stroke: #cccccc; stroke-linejoin: miter"/>
    </g>
    <g id="line2d_18">
     <path d="M 66.6 54.570438 
L 76.6 54.570438 
L 86.6 54.570438 
" style="fill: none; stroke: #0000ff; stroke-width: 1.5; stroke-linecap: square"/>
    </g>
    <g id="text_18">
     <!-- training set -->
     <g transform="translate(94.6 58.070438) scale(0.1 -0.1)">
      <defs>
       <path id="DejaVuSans-61" d="M 2194 1759 
Q 1497 1759 1228 1600 
Q 959 1441 959 1056 
Q 959 750 1161 570 
Q 1363 391 1709 391 
Q 2188 391 2477 730 
Q 2766 1069 2766 1631 
L 2766 1759 
L 2194 1759 
z
M 3341 1997 
L 3341 0 
L 2766 0 
L 2766 531 
Q 2569 213 2275 61 
Q 1981 -91 1556 -91 
Q 1019 -91 701 211 
Q 384 513 384 1019 
Q 384 1609 779 1909 
Q 1175 2209 1959 2209 
L 2766 2209 
L 2766 2266 
Q 2766 2663 2505 2880 
Q 2244 3097 1772 3097 
Q 1472 3097 1187 3025 
Q 903 2953 641 2809 
L 641 3341 
Q 956 3463 1253 3523 
Q 1550 3584 1831 3584 
Q 2591 3584 2966 3190 
Q 3341 2797 3341 1997 
z
" transform="scale(0.015625)"/>
       <path id="DejaVuSans-6e" d="M 3513 2113 
L 3513 0 
L 2938 0 
L 2938 2094 
Q 2938 2591 2744 2837 
Q 2550 3084 2163 3084 
Q 1697 3084 1428 2787 
Q 1159 2491 1159 1978 
L 1159 0 
L 581 0 
L 581 3500 
L 1159 3500 
L 1159 2956 
Q 1366 3272 1645 3428 
Q 1925 3584 2291 3584 
Q 2894 3584 3203 3211 
Q 3513 2838 3513 2113 
z
" transform="scale(0.015625)"/>
       <path id="DejaVuSans-67" d="M 2906 1791 
Q 2906 2416 2648 2759 
Q 2391 3103 1925 3103 
Q 1463 3103 1205 2759 
Q 947 2416 947 1791 
Q 947 1169 1205 825 
Q 1463 481 1925 481 
Q 2391 481 2648 825 
Q 2906 1169 2906 1791 
z
M 3481 434 
Q 3481 -459 3084 -895 
Q 2688 -1331 1869 -1331 
Q 1566 -1331 1297 -1286 
Q 1028 -1241 775 -1147 
L 775 -588 
Q 1028 -725 1275 -790 
Q 1522 -856 1778 -856 
Q 2344 -856 2625 -561 
Q 2906 -266 2906 331 
L 2906 616 
Q 2728 306 2450 153 
Q 2172 0 1784 0 
Q 1141 0 747 490 
Q 353 981 353 1791 
Q 353 2603 747 3093 
Q 1141 3584 1784 3584 
Q 2172 3584 2450 3431 
Q 2728 3278 2906 2969 
L 2906 3500 
L 3481 3500 
L 3481 434 
z
" transform="scale(0.015625)"/>
       <path id="DejaVuSans-20" transform="scale(0.015625)"/>
      </defs>
      <use xlink:href="#DejaVuSans-74"/>
      <use xlink:href="#DejaVuSans-72" x="39.208984"/>
      <use xlink:href="#DejaVuSans-61" x="80.322266"/>
      <use xlink:href="#DejaVuSans-69" x="141.601562"/>
      <use xlink:href="#DejaVuSans-6e" x="169.384766"/>
      <use xlink:href="#DejaVuSans-69" x="232.763672"/>
      <use xlink:href="#DejaVuSans-6e" x="260.546875"/>
      <use xlink:href="#DejaVuSans-67" x="323.925781"/>
      <use xlink:href="#DejaVuSans-20" x="387.402344"/>
      <use xlink:href="#DejaVuSans-73" x="419.189453"/>
      <use xlink:href="#DejaVuSans-65" x="471.289062"/>
      <use xlink:href="#DejaVuSans-74" x="532.8125"/>
     </g>
    </g>
    <g id="line2d_19">
     <path d="M 66.6 69.248563 
L 76.6 69.248563 
L 86.6 69.248563 
" style="fill: none; stroke: #008000; stroke-width: 1.5; stroke-linecap: square"/>
    </g>
    <g id="text_19">
     <!-- validation set -->
     <g transform="translate(94.6 72.748563) scale(0.1 -0.1)">
      <defs>
       <path id="DejaVuSans-76" d="M 191 3500 
L 800 3500 
L 1894 563 
L 2988 3500 
L 3597 3500 
L 2284 0 
L 1503 0 
L 191 3500 
z
" transform="scale(0.015625)"/>
       <path id="DejaVuSans-64" d="M 2906 2969 
L 2906 4863 
L 3481 4863 
L 3481 0 
L 2906 0 
L 2906 525 
Q 2725 213 2448 61 
Q 2172 -91 1784 -91 
Q 1150 -91 751 415 
Q 353 922 353 1747 
Q 353 2572 751 3078 
Q 1150 3584 1784 3584 
Q 2172 3584 2448 3432 
Q 2725 3281 2906 2969 
z
M 947 1747 
Q 947 1113 1208 752 
Q 1469 391 1925 391 
Q 2381 391 2643 752 
Q 2906 1113 2906 1747 
Q 2906 2381 2643 2742 
Q 2381 3103 1925 3103 
Q 1469 3103 1208 2742 
Q 947 2381 947 1747 
z
" transform="scale(0.015625)"/>
      </defs>
      <use xlink:href="#DejaVuSans-76"/>
      <use xlink:href="#DejaVuSans-61" x="59.179688"/>
      <use xlink:href="#DejaVuSans-6c" x="120.458984"/>
      <use xlink:href="#DejaVuSans-69" x="148.242188"/>
      <use xlink:href="#DejaVuSans-64" x="176.025391"/>
      <use xlink:href="#DejaVuSans-61" x="239.501953"/>
      <use xlink:href="#DejaVuSans-74" x="300.78125"/>
      <use xlink:href="#DejaVuSans-69" x="339.990234"/>
      <use xlink:href="#DejaVuSans-6f" x="367.773438"/>
      <use xlink:href="#DejaVuSans-6e" x="428.955078"/>
      <use xlink:href="#DejaVuSans-20" x="492.333984"/>
      <use xlink:href="#DejaVuSans-73" x="524.121094"/>
      <use xlink:href="#DejaVuSans-65" x="576.220703"/>
      <use xlink:href="#DejaVuSans-74" x="637.744141"/>
     </g>
    </g>
    <g id="line2d_20">
     <path d="M 66.6 83.926688 
L 76.6 83.926688 
L 86.6 83.926688 
" style="fill: none; stroke: #ff0000; stroke-width: 1.5; stroke-linecap: square"/>
    </g>
    <g id="text_20">
     <!-- test set -->
     <g transform="translate(94.6 87.426688) scale(0.1 -0.1)">
      <use xlink:href="#DejaVuSans-74"/>
      <use xlink:href="#DejaVuSans-65" x="39.208984"/>
      <use xlink:href="#DejaVuSans-73" x="100.732422"/>
      <use xlink:href="#DejaVuSans-74" x="152.832031"/>
      <use xlink:href="#DejaVuSans-20" x="192.041016"/>
      <use xlink:href="#DejaVuSans-73" x="223.828125"/>
      <use xlink:href="#DejaVuSans-65" x="275.927734"/>
      <use xlink:href="#DejaVuSans-74" x="337.451172"/>
     </g>
    </g>
   </g>
  </g>
 </g>
 <defs>
  <clipPath id="pc94ec851d5">
   <rect x="57.6" y="41.472" width="357.12" height="266.112"/>
  </clipPath>
 </defs>
</svg>
