<?xml version="1.0" encoding="utf-8" standalone="no"?>
<!DOCTYPE svg PUBLIC "-//W3C//DTD SVG 1.1//EN"
  "http://www.w3.org/Graphics/SVG/1.1/DTD/svg11.dtd">
<svg xmlns:xlink="http://www.w3.org/1999/xlink" width="460.8pt" height="345.6pt" viewBox="0 0 460.8 345.6" xmlns="http://www.w3.org/2000/svg" version="1.1">
 <metadata>
  <rdf:RDF xmlns:dc="http://purl.org/dc/elements/1.1/" xmlns:cc="http://creativecommons.org/ns#" xmlns:rdf="http://www.w3.org/1999/02/22-rdf-syntax-ns#">
   <cc:Work>
    <dc:type rdf:resource="http://purl.org/dc/dcmitype/StillImage"/>
    <dc:date>2023-06-14T04:01:11.022715</dc:date>
    <dc:format>image/svg+xml</dc:format>
    <dc:creator>
     <cc:Agent>
      <dc:title>Matplotlib v3.7.1, https://matplotlib.org/</dc:title>
     </cc:Agent>
    </dc:creator>
   </cc:Work>
  </rdf:RDF>
 </metadata>
 <defs>
  <style type="text/css">*{stroke-linejoin: round; stroke-linecap: butt}</style>
 </defs>
 <g id="figure_1">
  <g id="patch_1">
   <path d="M 0 345.6 
L 460.8 345.6 
L 460.8 0 
L 0 0 
z
" style="fill: #ffffff"/>
  </g>
  <g id="axes_1">
   <g id="patch_2">
    <path d="M 57.6 307.584 
L 414.72 307.584 
L 414.72 41.472 
L 57.6 41.472 
z
" style="fill: #ffffff"/>
   </g>
   <g id="matplotlib.axis_1">
    <g id="xtick_1">
     <g id="line2d_1">
      <defs>
       <path id="m89ec045e0c" d="M 0 0 
L 0 3.5 
" style="stroke: #000000; stroke-width: 0.8"/>
      </defs>
      <g>
       <use xlink:href="#m89ec045e0c" x="73.767783" y="307.584" style="stroke: #000000; stroke-width: 0.8"/>
      </g>
     </g>
     <g id="text_1">
      <!-- 0 -->
      <g transform="translate(70.586533 322.182437) scale(0.1 -0.1)">
       <defs>
        <path id="DejaVuSans-30" d="M 2034 4250 
Q 1547 4250 1301 3770 
Q 1056 3291 1056 2328 
Q 1056 1369 1301 889 
Q 1547 409 2034 409 
Q 2525 409 2770 889 
Q 3016 1369 3016 2328 
Q 3016 3291 2770 3770 
Q 2525 4250 2034 4250 
z
M 2034 4750 
Q 2819 4750 3233 4129 
Q 3647 3509 3647 2328 
Q 3647 1150 3233 529 
Q 2819 -91 2034 -91 
Q 1250 -91 836 529 
Q 422 1150 422 2328 
Q 422 3509 836 4129 
Q 1250 4750 2034 4750 
z
" transform="scale(0.015625)"/>
       </defs>
       <use xlink:href="#DejaVuSans-30"/>
      </g>
     </g>
    </g>
    <g id="xtick_2">
     <g id="line2d_2">
      <g>
       <use xlink:href="#m89ec045e0c" x="138.711681" y="307.584" style="stroke: #000000; stroke-width: 0.8"/>
      </g>
     </g>
     <g id="text_2">
      <!-- 1000 -->
      <g transform="translate(125.986681 322.182437) scale(0.1 -0.1)">
       <defs>
        <path id="DejaVuSans-31" d="M 794 531 
L 1825 531 
L 1825 4091 
L 703 3866 
L 703 4441 
L 1819 4666 
L 2450 4666 
L 2450 531 
L 3481 531 
L 3481 0 
L 794 0 
L 794 531 
z
" transform="scale(0.015625)"/>
       </defs>
       <use xlink:href="#DejaVuSans-31"/>
       <use xlink:href="#DejaVuSans-30" x="63.623047"/>
       <use xlink:href="#DejaVuSans-30" x="127.246094"/>
       <use xlink:href="#DejaVuSans-30" x="190.869141"/>
      </g>
     </g>
    </g>
    <g id="xtick_3">
     <g id="line2d_3">
      <g>
       <use xlink:href="#m89ec045e0c" x="203.655579" y="307.584" style="stroke: #000000; stroke-width: 0.8"/>
      </g>
     </g>
     <g id="text_3">
      <!-- 2000 -->
      <g transform="translate(190.930579 322.182437) scale(0.1 -0.1)">
       <defs>
        <path id="DejaVuSans-32" d="M 1228 531 
L 3431 531 
L 3431 0 
L 469 0 
L 469 531 
Q 828 903 1448 1529 
Q 2069 2156 2228 2338 
Q 2531 2678 2651 2914 
Q 2772 3150 2772 3378 
Q 2772 3750 2511 3984 
Q 2250 4219 1831 4219 
Q 1534 4219 1204 4116 
Q 875 4013 500 3803 
L 500 4441 
Q 881 4594 1212 4672 
Q 1544 4750 1819 4750 
Q 2544 4750 2975 4387 
Q 3406 4025 3406 3419 
Q 3406 3131 3298 2873 
Q 3191 2616 2906 2266 
Q 2828 2175 2409 1742 
Q 1991 1309 1228 531 
z
" transform="scale(0.015625)"/>
       </defs>
       <use xlink:href="#DejaVuSans-32"/>
       <use xlink:href="#DejaVuSans-30" x="63.623047"/>
       <use xlink:href="#DejaVuSans-30" x="127.246094"/>
       <use xlink:href="#DejaVuSans-30" x="190.869141"/>
      </g>
     </g>
    </g>
    <g id="xtick_4">
     <g id="line2d_4">
      <g>
       <use xlink:href="#m89ec045e0c" x="268.599477" y="307.584" style="stroke: #000000; stroke-width: 0.8"/>
      </g>
     </g>
     <g id="text_4">
      <!-- 3000 -->
      <g transform="translate(255.874477 322.182437) scale(0.1 -0.1)">
       <defs>
        <path id="DejaVuSans-33" d="M 2597 2516 
Q 3050 2419 3304 2112 
Q 3559 1806 3559 1356 
Q 3559 666 3084 287 
Q 2609 -91 1734 -91 
Q 1441 -91 1130 -33 
Q 819 25 488 141 
L 488 750 
Q 750 597 1062 519 
Q 1375 441 1716 441 
Q 2309 441 2620 675 
Q 2931 909 2931 1356 
Q 2931 1769 2642 2001 
Q 2353 2234 1838 2234 
L 1294 2234 
L 1294 2753 
L 1863 2753 
Q 2328 2753 2575 2939 
Q 2822 3125 2822 3475 
Q 2822 3834 2567 4026 
Q 2313 4219 1838 4219 
Q 1578 4219 1281 4162 
Q 984 4106 628 3988 
L 628 4550 
Q 988 4650 1302 4700 
Q 1616 4750 1894 4750 
Q 2613 4750 3031 4423 
Q 3450 4097 3450 3541 
Q 3450 3153 3228 2886 
Q 3006 2619 2597 2516 
z
" transform="scale(0.015625)"/>
       </defs>
       <use xlink:href="#DejaVuSans-33"/>
       <use xlink:href="#DejaVuSans-30" x="63.623047"/>
       <use xlink:href="#DejaVuSans-30" x="127.246094"/>
       <use xlink:href="#DejaVuSans-30" x="190.869141"/>
      </g>
     </g>
    </g>
    <g id="xtick_5">
     <g id="line2d_5">
      <g>
       <use xlink:href="#m89ec045e0c" x="333.543375" y="307.584" style="stroke: #000000; stroke-width: 0.8"/>
      </g>
     </g>
     <g id="text_5">
      <!-- 4000 -->
      <g transform="translate(320.818375 322.182437) scale(0.1 -0.1)">
       <defs>
        <path id="DejaVuSans-34" d="M 2419 4116 
L 825 1625 
L 2419 1625 
L 2419 4116 
z
M 2253 4666 
L 3047 4666 
L 3047 1625 
L 3713 1625 
L 3713 1100 
L 3047 1100 
L 3047 0 
L 2419 0 
L 2419 1100 
L 313 1100 
L 313 1709 
L 2253 4666 
z
" transform="scale(0.015625)"/>
       </defs>
       <use xlink:href="#DejaVuSans-34"/>
       <use xlink:href="#DejaVuSans-30" x="63.623047"/>
       <use xlink:href="#DejaVuSans-30" x="127.246094"/>
       <use xlink:href="#DejaVuSans-30" x="190.869141"/>
      </g>
     </g>
    </g>
    <g id="xtick_6">
     <g id="line2d_6">
      <g>
       <use xlink:href="#m89ec045e0c" x="398.487273" y="307.584" style="stroke: #000000; stroke-width: 0.8"/>
      </g>
     </g>
     <g id="text_6">
      <!-- 5000 -->
      <g transform="translate(385.762273 322.182437) scale(0.1 -0.1)">
       <defs>
        <path id="DejaVuSans-35" d="M 691 4666 
L 3169 4666 
L 3169 4134 
L 1269 4134 
L 1269 2991 
Q 1406 3038 1543 3061 
Q 1681 3084 1819 3084 
Q 2600 3084 3056 2656 
Q 3513 2228 3513 1497 
Q 3513 744 3044 326 
Q 2575 -91 1722 -91 
Q 1428 -91 1123 -41 
Q 819 9 494 109 
L 494 744 
Q 775 591 1075 516 
Q 1375 441 1709 441 
Q 2250 441 2565 725 
Q 2881 1009 2881 1497 
Q 2881 1984 2565 2268 
Q 2250 2553 1709 2553 
Q 1456 2553 1204 2497 
Q 953 2441 691 2322 
L 691 4666 
z
" transform="scale(0.015625)"/>
       </defs>
       <use xlink:href="#DejaVuSans-35"/>
       <use xlink:href="#DejaVuSans-30" x="63.623047"/>
       <use xlink:href="#DejaVuSans-30" x="127.246094"/>
       <use xlink:href="#DejaVuSans-30" x="190.869141"/>
      </g>
     </g>
    </g>
    <g id="text_7">
     <!-- epoch -->
     <g transform="translate(220.931875 335.860562) scale(0.1 -0.1)">
      <defs>
       <path id="DejaVuSans-65" d="M 3597 1894 
L 3597 1613 
L 953 1613 
Q 991 1019 1311 708 
Q 1631 397 2203 397 
Q 2534 397 2845 478 
Q 3156 559 3463 722 
L 3463 178 
Q 3153 47 2828 -22 
Q 2503 -91 2169 -91 
Q 1331 -91 842 396 
Q 353 884 353 1716 
Q 353 2575 817 3079 
Q 1281 3584 2069 3584 
Q 2775 3584 3186 3129 
Q 3597 2675 3597 1894 
z
M 3022 2063 
Q 3016 2534 2758 2815 
Q 2500 3097 2075 3097 
Q 1594 3097 1305 2825 
Q 1016 2553 972 2059 
L 3022 2063 
z
" transform="scale(0.015625)"/>
       <path id="DejaVuSans-70" d="M 1159 525 
L 1159 -1331 
L 581 -1331 
L 581 3500 
L 1159 3500 
L 1159 2969 
Q 1341 3281 1617 3432 
Q 1894 3584 2278 3584 
Q 2916 3584 3314 3078 
Q 3713 2572 3713 1747 
Q 3713 922 3314 415 
Q 2916 -91 2278 -91 
Q 1894 -91 1617 61 
Q 1341 213 1159 525 
z
M 3116 1747 
Q 3116 2381 2855 2742 
Q 2594 3103 2138 3103 
Q 1681 3103 1420 2742 
Q 1159 2381 1159 1747 
Q 1159 1113 1420 752 
Q 1681 391 2138 391 
Q 2594 391 2855 752 
Q 3116 1113 3116 1747 
z
" transform="scale(0.015625)"/>
       <path id="DejaVuSans-6f" d="M 1959 3097 
Q 1497 3097 1228 2736 
Q 959 2375 959 1747 
Q 959 1119 1226 758 
Q 1494 397 1959 397 
Q 2419 397 2687 759 
Q 2956 1122 2956 1747 
Q 2956 2369 2687 2733 
Q 2419 3097 1959 3097 
z
M 1959 3584 
Q 2709 3584 3137 3096 
Q 3566 2609 3566 1747 
Q 3566 888 3137 398 
Q 2709 -91 1959 -91 
Q 1206 -91 779 398 
Q 353 888 353 1747 
Q 353 2609 779 3096 
Q 1206 3584 1959 3584 
z
" transform="scale(0.015625)"/>
       <path id="DejaVuSans-63" d="M 3122 3366 
L 3122 2828 
Q 2878 2963 2633 3030 
Q 2388 3097 2138 3097 
Q 1578 3097 1268 2742 
Q 959 2388 959 1747 
Q 959 1106 1268 751 
Q 1578 397 2138 397 
Q 2388 397 2633 464 
Q 2878 531 3122 666 
L 3122 134 
Q 2881 22 2623 -34 
Q 2366 -91 2075 -91 
Q 1284 -91 818 406 
Q 353 903 353 1747 
Q 353 2603 823 3093 
Q 1294 3584 2113 3584 
Q 2378 3584 2631 3529 
Q 2884 3475 3122 3366 
z
" transform="scale(0.015625)"/>
       <path id="DejaVuSans-68" d="M 3513 2113 
L 3513 0 
L 2938 0 
L 2938 2094 
Q 2938 2591 2744 2837 
Q 2550 3084 2163 3084 
Q 1697 3084 1428 2787 
Q 1159 2491 1159 1978 
L 1159 0 
L 581 0 
L 581 4863 
L 1159 4863 
L 1159 2956 
Q 1366 3272 1645 3428 
Q 1925 3584 2291 3584 
Q 2894 3584 3203 3211 
Q 3513 2838 3513 2113 
z
" transform="scale(0.015625)"/>
      </defs>
      <use xlink:href="#DejaVuSans-65"/>
      <use xlink:href="#DejaVuSans-70" x="61.523438"/>
      <use xlink:href="#DejaVuSans-6f" x="125"/>
      <use xlink:href="#DejaVuSans-63" x="186.181641"/>
      <use xlink:href="#DejaVuSans-68" x="241.162109"/>
     </g>
    </g>
   </g>
   <g id="matplotlib.axis_2">
    <g id="ytick_1">
     <g id="line2d_7">
      <defs>
       <path id="md1442ae053" d="M 0 0 
L -3.5 0 
" style="stroke: #000000; stroke-width: 0.8"/>
      </defs>
      <g>
       <use xlink:href="#md1442ae053" x="57.6" y="295.806495" style="stroke: #000000; stroke-width: 0.8"/>
      </g>
     </g>
     <g id="text_8">
      <!-- 0 -->
      <g transform="translate(44.2375 299.605713) scale(0.1 -0.1)">
       <use xlink:href="#DejaVuSans-30"/>
      </g>
     </g>
    </g>
    <g id="ytick_2">
     <g id="line2d_8">
      <g>
       <use xlink:href="#md1442ae053" x="57.6" y="265.076558" style="stroke: #000000; stroke-width: 0.8"/>
      </g>
     </g>
     <g id="text_9">
      <!-- 5 -->
      <g transform="translate(44.2375 268.875776) scale(0.1 -0.1)">
       <use xlink:href="#DejaVuSans-35"/>
      </g>
     </g>
    </g>
    <g id="ytick_3">
     <g id="line2d_9">
      <g>
       <use xlink:href="#md1442ae053" x="57.6" y="234.346621" style="stroke: #000000; stroke-width: 0.8"/>
      </g>
     </g>
     <g id="text_10">
      <!-- 10 -->
      <g transform="translate(37.875 238.14584) scale(0.1 -0.1)">
       <use xlink:href="#DejaVuSans-31"/>
       <use xlink:href="#DejaVuSans-30" x="63.623047"/>
      </g>
     </g>
    </g>
    <g id="ytick_4">
     <g id="line2d_10">
      <g>
       <use xlink:href="#md1442ae053" x="57.6" y="203.616684" style="stroke: #000000; stroke-width: 0.8"/>
      </g>
     </g>
     <g id="text_11">
      <!-- 15 -->
      <g transform="translate(37.875 207.415903) scale(0.1 -0.1)">
       <use xlink:href="#DejaVuSans-31"/>
       <use xlink:href="#DejaVuSans-35" x="63.623047"/>
      </g>
     </g>
    </g>
    <g id="ytick_5">
     <g id="line2d_11">
      <g>
       <use xlink:href="#md1442ae053" x="57.6" y="172.886747" style="stroke: #000000; stroke-width: 0.8"/>
      </g>
     </g>
     <g id="text_12">
      <!-- 20 -->
      <g transform="translate(37.875 176.685966) scale(0.1 -0.1)">
       <use xlink:href="#DejaVuSans-32"/>
       <use xlink:href="#DejaVuSans-30" x="63.623047"/>
      </g>
     </g>
    </g>
    <g id="ytick_6">
     <g id="line2d_12">
      <g>
       <use xlink:href="#md1442ae053" x="57.6" y="142.15681" style="stroke: #000000; stroke-width: 0.8"/>
      </g>
     </g>
     <g id="text_13">
      <!-- 25 -->
      <g transform="translate(37.875 145.956029) scale(0.1 -0.1)">
       <use xlink:href="#DejaVuSans-32"/>
       <use xlink:href="#DejaVuSans-35" x="63.623047"/>
      </g>
     </g>
    </g>
    <g id="ytick_7">
     <g id="line2d_13">
      <g>
       <use xlink:href="#md1442ae053" x="57.6" y="111.426873" style="stroke: #000000; stroke-width: 0.8"/>
      </g>
     </g>
     <g id="text_14">
      <!-- 30 -->
      <g transform="translate(37.875 115.226092) scale(0.1 -0.1)">
       <use xlink:href="#DejaVuSans-33"/>
       <use xlink:href="#DejaVuSans-30" x="63.623047"/>
      </g>
     </g>
    </g>
    <g id="ytick_8">
     <g id="line2d_14">
      <g>
       <use xlink:href="#md1442ae053" x="57.6" y="80.696937" style="stroke: #000000; stroke-width: 0.8"/>
      </g>
     </g>
     <g id="text_15">
      <!-- 35 -->
      <g transform="translate(37.875 84.496155) scale(0.1 -0.1)">
       <use xlink:href="#DejaVuSans-33"/>
       <use xlink:href="#DejaVuSans-35" x="63.623047"/>
      </g>
     </g>
    </g>
    <g id="ytick_9">
     <g id="line2d_15">
      <g>
       <use xlink:href="#md1442ae053" x="57.6" y="49.967" style="stroke: #000000; stroke-width: 0.8"/>
      </g>
     </g>
     <g id="text_16">
      <!-- 40 -->
      <g transform="translate(37.875 53.766218) scale(0.1 -0.1)">
       <use xlink:href="#DejaVuSans-34"/>
       <use xlink:href="#DejaVuSans-30" x="63.623047"/>
      </g>
     </g>
    </g>
    <g id="text_17">
     <!-- loss -->
     <g transform="translate(31.795313 184.185812) rotate(-90) scale(0.1 -0.1)">
      <defs>
       <path id="DejaVuSans-6c" d="M 603 4863 
L 1178 4863 
L 1178 0 
L 603 0 
L 603 4863 
z
" transform="scale(0.015625)"/>
       <path id="DejaVuSans-73" d="M 2834 3397 
L 2834 2853 
Q 2591 2978 2328 3040 
Q 2066 3103 1784 3103 
Q 1356 3103 1142 2972 
Q 928 2841 928 2578 
Q 928 2378 1081 2264 
Q 1234 2150 1697 2047 
L 1894 2003 
Q 2506 1872 2764 1633 
Q 3022 1394 3022 966 
Q 3022 478 2636 193 
Q 2250 -91 1575 -91 
Q 1294 -91 989 -36 
Q 684 19 347 128 
L 347 722 
Q 666 556 975 473 
Q 1284 391 1588 391 
Q 1994 391 2212 530 
Q 2431 669 2431 922 
Q 2431 1156 2273 1281 
Q 2116 1406 1581 1522 
L 1381 1569 
Q 847 1681 609 1914 
Q 372 2147 372 2553 
Q 372 3047 722 3315 
Q 1072 3584 1716 3584 
Q 2034 3584 2315 3537 
Q 2597 3491 2834 3397 
z
" transform="scale(0.015625)"/>
      </defs>
      <use xlink:href="#DejaVuSans-6c"/>
      <use xlink:href="#DejaVuSans-6f" x="27.783203"/>
      <use xlink:href="#DejaVuSans-73" x="88.964844"/>
      <use xlink:href="#DejaVuSans-73" x="141.064453"/>
     </g>
    </g>
   </g>
   <g id="line2d_16">
    <path d="M 73.832727 284.809559 
L 74.287335 285.00246 
L 75.261493 285.42132 
L 76.105764 286.016057 
L 77.144866 287.057999 
L 78.898351 288.85082 
L 79.937454 289.574159 
L 81.106444 290.100235 
L 82.665097 290.530588 
L 85.197909 290.964777 
L 92.53657 291.756182 
L 100.264894 292.331186 
L 108.447825 292.716086 
L 121.826268 293.133342 
L 183.652859 294.172452 
L 189.367922 294.239849 
L 202.876252 294.394455 
L 227.295158 294.650475 
L 239.569555 294.758863 
L 364.911278 295.424172 
L 398.487273 295.487909 
L 398.487273 295.487909 
" clip-path="url(#p127c293462)" style="fill: none; stroke: #0000ff; stroke-width: 1.5; stroke-linecap: square"/>
   </g>
   <g id="line2d_17">
    <path d="M 73.832727 284.930965 
L 74.222391 285.166383 
L 75.7161 285.666517 
L 76.950034 286.473975 
L 79.352959 288.217825 
L 80.067341 288.49348 
L 81.496107 288.698684 
L 84.678358 288.519549 
L 91.432524 287.607745 
L 91.822187 287.515824 
L 93.315897 287.207818 
L 100.654557 285.025171 
L 100.979277 284.912968 
L 101.563772 284.677647 
L 101.823547 284.608057 
L 102.53793 284.3491 
L 103.252313 284.108838 
L 104.356359 283.722879 
L 105.070742 283.488522 
L 105.655237 283.272814 
L 107.798386 282.489255 
L 108.123105 282.398248 
L 108.382881 282.275679 
L 108.837488 282.128489 
L 109.097264 282.003634 
L 109.357039 281.934084 
L 109.681759 281.799087 
L 109.746703 281.846877 
L 109.876591 281.726138 
L 109.941534 281.736874 
L 110.071422 281.639593 
L 110.20131 281.589095 
L 110.850749 281.339906 
L 110.980637 281.316073 
L 111.69502 281.023169 
L 111.824908 281.042655 
L 111.954795 280.937971 
L 112.084683 280.883675 
L 112.344459 280.753488 
L 112.474347 280.785354 
L 112.669178 280.695804 
L 112.799066 280.571723 
L 112.86401 280.640036 
L 117.215251 278.919447 
L 117.345139 278.856697 
L 118.124466 278.550282 
L 118.254353 278.513343 
L 118.579073 278.373028 
L 118.773905 278.312423 
L 119.3584 278.064084 
L 119.813007 277.919728 
L 120.20267 277.704372 
L 120.397502 277.665476 
L 120.52739 277.600004 
L 120.657278 277.563493 
L 121.241773 277.332805 
L 121.371661 277.249788 
L 121.69638 277.169635 
L 122.475707 276.810727 
L 122.670538 276.752677 
L 123.774585 276.359578 
L 123.904473 276.234088 
L 124.03436 276.220862 
L 124.164248 276.155236 
L 124.229192 276.187696 
L 124.35908 276.02322 
L 124.424024 276.078808 
L 126.047621 275.398668 
L 126.177509 275.327204 
L 126.502228 275.156124 
L 126.632116 275.182485 
L 126.826948 275.081658 
L 126.891892 275.093779 
L 127.02178 274.986773 
L 127.151667 274.929233 
L 127.411443 274.799281 
L 128.19077 274.510272 
L 128.450545 274.40217 
L 128.710321 274.314605 
L 128.970097 274.203464 
L 129.294816 274.02923 
L 136.178869 271.102703 
L 136.503589 270.933602 
L 136.763364 270.848702 
L 137.088084 270.653978 
L 137.217972 270.664705 
L 137.542691 270.474043 
L 142.478427 268.359977 
L 144.166969 267.597593 
L 144.491688 267.438389 
L 145.011239 267.222501 
L 145.141127 267.158088 
L 145.465847 267.009062 
L 145.725622 266.908489 
L 146.634837 266.448998 
L 146.894612 266.378053 
L 148.128546 265.766253 
L 148.388322 265.668139 
L 148.713042 265.494293 
L 148.842929 265.48224 
L 149.102705 265.289193 
L 150.271695 264.79129 
L 150.531471 264.67429 
L 150.85619 264.469383 
L 150.986078 264.464902 
L 151.245854 264.292349 
L 151.830349 264.064958 
L 152.155068 263.883229 
L 160.01328 260.201007 
L 160.337999 260.027044 
L 160.922494 259.744478 
L 170.404303 254.953672 
L 170.664079 254.782453 
L 171.962957 254.131054 
L 172.222733 253.93743 
L 172.35262 253.918575 
L 172.742284 253.693549 
L 173.261835 253.438915 
L 173.911274 253.064816 
L 174.171049 252.964562 
L 174.495769 252.750626 
L 174.755545 252.637248 
L 175.080264 252.419646 
L 175.210152 252.357147 
L 177.613076 251.131136 
L 177.937796 250.948836 
L 179.106786 250.323072 
L 179.366561 250.173879 
L 179.626337 250.058553 
L 179.886112 249.880546 
L 180.145888 249.783407 
L 181.899373 248.868572 
L 182.029261 248.768487 
L 183.522971 248.004614 
L 184.042522 247.746053 
L 184.302298 247.617615 
L 184.497129 247.510272 
L 184.821849 247.334235 
L 185.081624 247.192427 
L 185.666119 246.873624 
L 186.250614 246.61467 
L 186.964997 246.222674 
L 187.224773 246.135423 
L 187.484549 245.958542 
L 188.198931 245.62102 
L 188.458707 245.477736 
L 188.718483 245.368828 
L 188.978258 245.224418 
L 189.108146 245.156157 
L 190.601856 244.411876 
L 190.991519 244.201925 
L 191.446126 243.989981 
L 191.83579 243.769222 
L 191.965677 243.682775 
L 192.095565 243.662711 
L 192.355341 243.501374 
L 192.68006 243.354567 
L 193.134668 243.155694 
L 193.199612 243.155166 
L 193.329499 243.076543 
L 193.589275 242.92789 
L 193.849051 242.747843 
L 193.978938 242.706187 
L 194.238714 242.57983 
L 194.303658 242.603779 
L 194.433546 242.486015 
L 194.49849 242.484198 
L 194.563433 242.353134 
L 194.628377 242.401202 
L 195.277816 242.086088 
L 195.472648 241.983962 
L 195.862311 241.776678 
L 197.161189 241.145677 
L 197.485909 240.960584 
L 198.00546 240.714252 
L 198.460067 240.461743 
L 198.719843 240.370178 
L 199.17445 240.123284 
L 199.304338 240.069301 
L 199.564114 239.909353 
L 199.694001 239.894495 
L 199.953777 239.723826 
L 200.083665 239.699508 
L 200.66816 239.390174 
L 200.798048 239.383984 
L 201.057823 239.201646 
L 201.187711 239.163571 
L 201.577374 238.936634 
L 201.772206 238.872747 
L 203.200972 238.206795 
L 203.590635 238.004733 
L 204.045243 237.812525 
L 205.66884 236.976743 
L 205.863672 236.898161 
L 206.642998 236.542733 
L 207.292437 236.220446 
L 207.682101 236.021426 
L 208.201652 235.750149 
L 208.461428 235.68251 
L 208.721203 235.518301 
L 208.980979 235.427076 
L 209.50053 235.118808 
L 209.565474 235.162334 
L 209.695362 235.05148 
L 209.760306 235.065945 
L 209.890193 234.957137 
L 209.955137 234.974128 
L 210.020081 234.84715 
L 210.085025 234.889879 
L 211.513791 234.136764 
L 211.643679 234.112592 
L 211.903454 233.989845 
L 211.968398 234.00621 
L 212.098286 233.913356 
L 212.552893 233.678694 
L 212.747725 233.570401 
L 213.0075 233.412123 
L 213.072444 233.458808 
L 213.202332 233.351559 
L 213.267276 233.368463 
L 213.527052 233.14567 
L 213.656939 233.136386 
L 213.916715 232.939248 
L 213.981659 233.01259 
L 214.046603 232.918862 
L 214.82593 232.541361 
L 214.955817 232.488663 
L 225.866392 227.117811 
L 226.061224 226.992925 
L 226.450887 226.762225 
L 226.580775 226.700992 
L 226.905495 226.588983 
L 227.100326 226.44033 
L 228.399204 225.805396 
L 229.373363 225.322849 
L 229.438307 225.322117 
L 229.50325 225.196516 
L 229.568194 225.258721 
L 230.087746 224.942576 
L 230.217633 224.878448 
L 230.737185 224.618512 
L 234.82865 222.528465 
L 235.607977 222.100083 
L 235.737865 222.071415 
L 236.127528 221.880783 
L 236.452248 221.705062 
L 238.400564 220.710399 
L 252.363503 213.923359 
L 252.428446 213.811701 
L 252.49339 213.857009 
L 258.468229 210.635825 
L 258.728005 210.476855 
L 258.857892 210.428125 
L 259.117668 210.263388 
L 259.182612 210.301392 
L 259.377443 210.168863 
L 259.637219 209.987627 
L 259.896995 209.909186 
L 259.961939 209.799504 
L 260.026882 209.840468 
L 261.845312 208.816293 
L 262.299919 208.596109 
L 262.624638 208.380443 
L 263.468909 207.944845 
L 263.728685 207.76593 
L 263.923516 207.71462 
L 264.183292 207.518291 
L 265.352282 206.88174 
L 265.417226 206.909487 
L 265.677002 206.668601 
L 265.806889 206.631088 
L 266.131609 206.484029 
L 266.391384 206.295865 
L 266.521272 206.290678 
L 266.910936 206.053226 
L 267.105767 205.992948 
L 267.365543 205.879398 
L 267.625319 205.717985 
L 268.079926 205.511615 
L 269.443748 204.774174 
L 269.638579 204.678881 
L 270.093187 204.467406 
L 270.352962 204.257508 
L 270.677682 204.133666 
L 272.041504 203.370944 
L 272.171391 203.328896 
L 272.625999 203.03432 
L 272.690943 203.093947 
L 272.950718 202.856946 
L 274.444428 202.12509 
L 274.834091 201.874755 
L 286.653881 194.740505 
L 286.913656 194.640512 
L 287.173432 194.40585 
L 288.667141 193.350716 
L 289.31658 192.77773 
L 289.511412 192.694453 
L 290.095907 192.232808 
L 292.563775 190.452787 
L 292.758607 190.295306 
L 293.667822 189.57832 
L 293.797709 189.523529 
L 294.447148 189.065506 
L 294.577036 188.991021 
L 294.901756 188.752291 
L 295.161531 188.617541 
L 295.421307 188.388682 
L 296.330521 187.760787 
L 296.785129 187.445322 
L 297.044904 187.286716 
L 297.369624 187.038022 
L 304.64334 182.122468 
L 305.097948 181.805866 
L 305.357723 181.607344 
L 312.176832 177.015449 
L 312.436608 176.834922 
L 312.501552 176.839447 
L 312.761328 176.59638 
L 313.021103 176.479952 
L 339.648101 158.552495 
L 339.713045 158.590452 
L 339.842933 158.41717 
L 339.907877 158.469347 
L 340.037765 158.283462 
L 340.102709 158.323905 
L 340.427428 158.041275 
L 340.62226 157.953051 
L 341.46653 157.397602 
L 341.726306 157.186795 
L 342.051025 157.015506 
L 342.310801 156.845224 
L 342.765408 156.586847 
L 343.025184 156.317159 
L 343.155072 156.30424 
L 343.414847 156.069039 
L 343.739567 155.919647 
L 344.194174 155.569214 
L 344.324062 155.487883 
L 344.778669 155.157647 
L 344.908557 155.117169 
L 345.168333 154.918624 
L 345.29822 154.899235 
L 345.557996 154.708134 
L 346.012603 154.446253 
L 346.142491 154.311233 
L 346.272379 154.221063 
L 346.856874 153.818745 
L 346.986762 153.759418 
L 347.246537 153.547204 
L 347.376425 153.537932 
L 347.831032 153.189972 
L 347.96092 153.12592 
L 348.28564 152.90386 
L 348.870135 152.553438 
L 349.12991 152.290126 
L 349.324742 152.184611 
L 351.662722 150.676296 
L 351.922498 150.491021 
L 352.442049 150.135382 
L 352.766769 149.965839 
L 353.026544 149.804268 
L 353.416208 149.461137 
L 353.546095 149.455827 
L 353.870815 149.208141 
L 354.065647 149.109179 
L 362.11869 143.88551 
L 362.378466 143.716928 
L 362.833073 143.421157 
L 363.222736 143.16305 
L 363.482512 142.993108 
L 364.326782 142.440883 
L 364.651502 142.196116 
L 365.106109 141.969156 
L 365.365885 141.74699 
L 365.495773 141.665038 
L 373.224096 136.685385 
L 373.353984 136.638096 
L 373.483872 136.544738 
L 373.548816 136.56027 
L 373.678704 136.382416 
L 373.743648 136.41654 
L 374.003423 136.212204 
L 377.510394 133.9811 
L 377.705225 133.846561 
L 377.965001 133.639962 
L 378.094889 133.575348 
L 378.419608 133.362783 
L 378.874216 133.066355 
L 379.588598 132.632645 
L 380.887476 131.791001 
L 380.95242 131.660354 
L 381.017364 131.742306 
L 381.342084 131.465455 
L 381.666803 131.277835 
L 381.926579 131.049035 
L 382.056467 131.027395 
L 382.316242 130.850092 
L 383.874896 129.795204 
L 384.004784 129.771489 
L 384.199615 129.659468 
L 384.524335 129.45239 
L 384.78411 129.225043 
L 385.303661 128.937899 
L 385.563437 128.752683 
L 386.27782 128.310356 
L 386.537596 128.10411 
L 387.122091 127.748671 
L 391.148612 125.18828 
L 391.408388 124.964321 
L 391.733107 124.826265 
L 391.798051 124.695277 
L 391.862995 124.728675 
L 391.927939 124.707797 
L 391.992883 124.561992 
L 392.057827 124.598109 
L 392.122771 124.592904 
L 392.317602 124.453594 
L 392.44749 124.358371 
L 392.512434 124.377209 
L 392.642322 124.237066 
L 392.707266 124.254979 
L 392.967041 123.969195 
L 393.421649 123.683528 
L 393.551536 123.613099 
L 393.811312 123.43072 
L 393.876256 123.480037 
L 394.071088 123.32129 
L 394.136032 123.311537 
L 394.330863 123.129673 
L 395.045246 122.700476 
L 395.305022 122.484758 
L 396.474012 121.757878 
L 396.798731 121.577632 
L 397.188395 121.356205 
L 397.44817 121.150908 
L 398.487273 120.460802 
L 398.487273 120.460802 
" clip-path="url(#p127c293462)" style="fill: none; stroke: #008000; stroke-width: 1.5; stroke-linecap: square"/>
   </g>
   <g id="line2d_18">
    <path d="M 73.832727 284.803501 
L 74.222391 285.010813 
L 75.845988 285.531937 
L 79.482846 287.357959 
L 81.0415 287.410355 
L 85.977236 286.750018 
L 91.432524 285.722347 
L 92.21185 285.473518 
L 93.70556 284.984576 
L 98.251633 283.059533 
L 100.135006 282.130038 
L 100.459725 281.975262 
L 106.239732 279.065911 
L 106.824227 278.764332 
L 109.227152 277.443694 
L 109.681759 277.175805 
L 109.746703 277.210404 
L 110.006478 276.964002 
L 110.331198 276.871974 
L 110.655917 276.66212 
L 129.944255 265.608248 
L 130.268975 265.360545 
L 130.918414 265.024225 
L 131.243133 264.791741 
L 131.632796 264.611768 
L 131.892572 264.444681 
L 132.477067 264.095733 
L 132.801787 263.877869 
L 133.386282 263.507276 
L 133.775945 263.29178 
L 134.165608 263.035244 
L 134.490328 262.831817 
L 139.620896 259.61861 
L 139.945615 259.431082 
L 140.075503 259.384737 
L 140.270335 259.275741 
L 140.659998 258.962177 
L 140.789886 258.940373 
L 141.049662 258.757264 
L 141.374381 258.516952 
L 141.569213 258.3901 
L 142.803147 257.634136 
L 144.556632 256.476442 
L 144.68652 256.422175 
L 144.946295 256.237065 
L 145.271015 256.037359 
L 145.920454 255.605861 
L 146.245173 255.385542 
L 149.427424 253.311948 
L 149.6872 253.131649 
L 150.011919 252.874413 
L 150.271695 252.770276 
L 150.596415 252.497984 
L 150.85619 252.330581 
L 150.986078 252.295343 
L 151.245854 252.068265 
L 151.570573 251.85209 
L 152.999339 250.929775 
L 153.324058 250.66081 
L 153.453946 250.63005 
L 153.778666 250.34269 
L 153.908553 250.319828 
L 154.168329 250.094905 
L 154.557992 249.851489 
L 154.882712 249.633599 
L 155.207431 249.431567 
L 155.726982 249.040995 
L 156.246534 248.729202 
L 156.766085 248.324502 
L 157.02586 248.172241 
L 169.430145 239.096389 
L 170.729023 238.11421 
L 170.923855 237.98198 
L 171.638237 237.402095 
L 171.833069 237.238988 
L 172.35262 236.894257 
L 172.807228 236.536907 
L 173.261835 236.185606 
L 174.041162 235.56512 
L 174.625657 235.084871 
L 176.249254 233.864719 
L 176.314198 233.917382 
L 176.703861 233.518904 
L 177.418244 233.033907 
L 178.067683 232.51294 
L 178.327459 232.334957 
L 178.652178 232.046635 
L 178.976898 231.816434 
L 182.353981 229.353797 
L 182.613756 229.083095 
L 182.938476 228.896214 
L 183.263195 228.618917 
L 190.991519 222.887421 
L 191.770846 222.294343 
L 193.784107 220.840496 
L 194.238714 220.525716 
L 194.303658 220.531038 
L 194.563433 220.232113 
L 194.693321 220.238356 
L 194.888153 220.073771 
L 195.147928 219.88066 
L 195.277816 219.80917 
L 195.537592 219.597127 
L 195.66748 219.52981 
L 195.927255 219.323218 
L 196.057143 219.231518 
L 196.706582 218.755659 
L 196.966358 218.649219 
L 197.356021 218.292596 
L 199.109506 217.11104 
L 199.564114 216.743972 
L 199.694001 216.714912 
L 199.953777 216.479124 
L 200.083665 216.425951 
L 200.66816 216.009965 
L 200.798048 215.972898 
L 201.057823 215.769711 
L 201.187711 215.685684 
L 201.902094 215.193045 
L 202.486589 214.800175 
L 202.876252 214.545122 
L 203.136028 214.409615 
L 203.655579 214.034224 
L 203.915355 213.867249 
L 204.17513 213.646431 
L 204.305018 213.592244 
L 204.49985 213.45026 
L 205.019401 213.129379 
L 205.409064 212.847165 
L 205.733784 212.663191 
L 205.993559 212.445211 
L 206.123447 212.360527 
L 206.513111 212.118779 
L 206.83783 211.921231 
L 207.097606 211.744414 
L 207.292437 211.623935 
L 208.266596 210.966647 
L 208.980979 210.531137 
L 209.50053 210.131504 
L 209.565474 210.160247 
L 209.825249 209.889345 
L 210.149969 209.727041 
L 210.409744 209.518538 
L 210.539632 209.441655 
L 215.280537 206.332234 
L 215.540312 206.075551 
L 215.6702 206.045653 
L 215.929976 205.881508 
L 216.189751 205.712809 
L 216.514471 205.49368 
L 216.774246 205.338057 
L 217.423685 204.877408 
L 218.3329 204.286838 
L 219.242115 203.671018 
L 219.566834 203.464637 
L 220.281217 202.935921 
L 220.411105 202.896387 
L 220.9956 202.471439 
L 221.125488 202.433716 
L 221.320319 202.295671 
L 221.839871 201.955489 
L 222.943917 201.22331 
L 224.177851 200.441845 
L 225.866392 199.321076 
L 226.126168 199.088079 
L 226.191112 199.090377 
L 226.385943 198.916713 
L 226.905495 198.618245 
L 227.100326 198.468285 
L 235.088426 193.251637 
L 235.15337 193.307835 
L 235.413145 192.99516 
L 235.543033 192.981046 
L 235.802809 192.808935 
L 235.932696 192.718519 
L 236.32236 192.46734 
L 236.452248 192.394204 
L 237.296518 191.851192 
L 237.49135 191.737073 
L 238.075845 191.338471 
L 239.050003 190.680942 
L 239.244835 190.57279 
L 240.933376 189.500893 
L 240.99832 189.548451 
L 241.193152 189.405026 
L 241.387984 189.259584 
L 243.206413 188.117364 
L 243.336301 188.053194 
L 243.66102 187.887965 
L 243.920796 187.707907 
L 244.050684 187.611934 
L 245.479449 186.735921 
L 245.739225 186.581429 
L 246.193832 186.295493 
L 252.103727 182.47779 
L 252.233615 182.401347 
L 252.49339 182.248028 
L 253.077885 181.847586 
L 253.727324 181.366165 
L 253.9871 181.247333 
L 254.181932 181.080193 
L 254.441707 180.90221 
L 254.701483 180.761118 
L 254.961258 180.498896 
L 255.091146 180.469379 
L 255.610697 180.072758 
L 256.065305 179.785814 
L 256.390024 179.539934 
L 256.6498 179.381386 
L 256.909575 179.149163 
L 257.039463 179.090515 
L 257.299239 178.904326 
L 257.49407 178.783935 
L 258.468229 178.073385 
L 258.728005 177.885074 
L 258.857892 177.794881 
L 259.117668 177.603663 
L 259.182612 177.615303 
L 259.442387 177.360291 
L 259.702163 177.198204 
L 259.961939 176.969169 
L 260.091826 176.93767 
L 260.351602 176.676738 
L 260.416546 176.723441 
L 260.546434 176.577366 
L 260.611378 176.601491 
L 260.871153 176.286085 
L 261.001041 176.298956 
L 261.260817 176.033054 
L 261.32576 176.059148 
L 261.520592 175.876921 
L 261.845312 175.64601 
L 263.468909 174.488093 
L 263.728685 174.263876 
L 263.923516 174.185616 
L 264.248236 173.876176 
L 264.508011 173.72383 
L 264.767787 173.512004 
L 264.897675 173.446252 
L 265.352282 173.07793 
L 265.48217 172.994876 
L 265.936777 172.664382 
L 266.196553 172.502447 
L 266.456328 172.321228 
L 268.98914 170.537421 
L 269.443748 170.218779 
L 270.093187 169.78195 
L 270.352962 169.535261 
L 270.612738 169.4131 
L 271.197233 168.927471 
L 271.392065 168.848977 
L 271.65184 168.644113 
L 272.041504 168.368692 
L 272.171391 168.295731 
L 272.431167 168.037988 
L 272.561055 168.00343 
L 272.82083 167.799821 
L 272.885774 167.807886 
L 273.080606 167.659338 
L 273.665101 167.290488 
L 273.730045 167.294275 
L 273.989821 167.030224 
L 274.119708 166.988012 
L 274.379484 166.763959 
L 274.639259 166.569658 
L 275.288698 166.063595 
L 279.574996 162.504081 
L 279.769827 162.297354 
L 280.159491 161.93528 
L 280.743986 161.415983 
L 280.873874 161.349552 
L 281.328481 160.953506 
L 288.47231 154.829369 
L 288.732085 154.541686 
L 288.926917 154.339097 
L 289.446468 153.726231 
L 289.836132 153.295404 
L 291.524673 151.497436 
L 291.589617 151.492349 
L 291.849392 151.147178 
L 291.97928 151.075073 
L 292.304 150.696775 
L 292.433888 150.55451 
L 292.888495 150.125078 
L 293.278158 149.738481 
L 293.537934 149.435078 
L 293.862653 149.136423 
L 294.187373 148.829069 
L 294.577036 148.433375 
L 295.486251 147.54034 
L 295.746026 147.318972 
L 296.005802 147.039588 
L 296.330521 146.717547 
L 296.720185 146.316566 
L 297.694343 145.435663 
L 297.954119 145.114876 
L 298.278838 144.889815 
L 298.538614 144.543625 
L 298.668502 144.450595 
L 298.928277 144.218958 
L 305.097948 138.364146 
L 305.357723 138.119649 
L 305.747387 137.750084 
L 306.461769 137.076109 
L 306.721545 136.833628 
L 307.241096 136.36019 
L 307.760647 135.851642 
L 308.215255 135.396257 
L 308.345142 135.29481 
L 308.604918 134.996073 
L 308.669862 135.010785 
L 308.994581 134.645897 
L 309.319301 134.390955 
L 309.579077 134.06569 
L 309.708964 134.002154 
L 310.098628 133.589169 
L 310.618179 133.10715 
L 311.072786 132.691843 
L 311.592337 132.198242 
L 312.046945 131.730196 
L 312.111889 131.731146 
L 312.436608 131.366892 
L 312.501552 131.363433 
L 312.761328 131.049621 
L 313.086047 130.791033 
L 313.345823 130.504441 
L 313.47571 130.411024 
L 315.943579 128.05824 
L 316.203354 127.756337 
L 316.333242 127.680551 
L 316.593018 127.415504 
L 316.852793 127.206386 
L 317.3074 126.700605 
L 317.437288 126.583943 
L 327.503592 117.047187 
L 327.763368 116.778635 
L 328.088087 116.485665 
L 329.322021 115.330268 
L 329.776629 114.890673 
L 330.231236 114.483878 
L 330.880675 113.899567 
L 331.46517 113.329547 
L 331.660002 113.172852 
L 332.244497 112.61187 
L 333.283599 111.648265 
L 333.80315 111.148158 
L 333.868094 111.134865 
L 334.062926 110.952661 
L 334.387646 110.569041 
L 334.517533 110.494627 
L 334.972141 110.093411 
L 335.491692 109.627123 
L 335.816411 109.238814 
L 335.946299 109.154084 
L 336.271019 108.87218 
L 336.530794 108.593828 
L 336.660682 108.492065 
L 337.050345 108.128233 
L 339.518213 105.889919 
L 339.648101 105.668128 
L 339.713045 105.710927 
L 339.972821 105.399858 
L 340.427428 104.981914 
L 340.557316 104.862802 
L 340.882035 104.61079 
L 341.141811 104.32333 
L 341.271699 104.242339 
L 341.596418 103.971255 
L 342.505633 103.096402 
L 342.570577 103.095722 
L 342.700464 102.932709 
L 342.765408 102.942989 
L 343.025184 102.563085 
L 343.155072 102.554 
L 343.414847 102.227211 
L 343.739567 102.007988 
L 344.194174 101.520975 
L 344.324062 101.435881 
L 344.778669 100.974845 
L 344.908557 100.911813 
L 345.233276 100.636181 
L 346.986762 99.019736 
L 347.246537 98.756518 
L 347.376425 98.707049 
L 347.831032 98.23442 
L 348.28564 97.847482 
L 352.312161 94.175021 
L 352.442049 94.050997 
L 352.896656 93.620217 
L 353.351264 93.217243 
L 353.611039 92.994186 
L 354.260478 92.438749 
L 354.520254 92.187699 
L 354.974861 91.779895 
L 355.6243 91.248067 
L 355.884076 90.962272 
L 356.468571 90.440501 
L 356.858234 90.122844 
L 357.702505 89.33033 
L 357.832393 89.201569 
L 358.157112 89.012414 
L 358.416888 88.626063 
L 358.741607 88.453226 
L 359.520934 87.754117 
L 359.845653 87.453551 
L 373.483872 75.356194 
L 373.548816 75.354529 
L 373.808592 75.039404 
L 375.95174 73.172331 
L 376.471291 72.67539 
L 376.601179 72.588619 
L 376.860955 72.387671 
L 377.510394 71.846395 
L 377.705225 71.632271 
L 377.965001 71.365841 
L 378.094889 71.304251 
L 378.419608 70.999348 
L 378.939159 70.542895 
L 379.263879 70.220666 
L 379.458711 70.098048 
L 380.302981 69.316835 
L 380.562757 69.084846 
L 380.692645 68.983305 
L 380.95242 68.711084 
L 381.017364 68.780857 
L 381.407028 68.38705 
L 381.861635 67.998096 
L 382.12141 67.715934 
L 382.576018 67.368384 
L 385.303661 65.011966 
L 385.498493 64.870663 
L 386.082988 64.312248 
L 386.472652 63.966831 
L 386.797371 63.634193 
L 387.251978 63.317449 
L 388.420969 62.287015 
L 388.745688 61.99714 
L 389.395127 61.492695 
L 389.654903 61.16001 
L 389.78479 61.166035 
L 389.979622 60.976505 
L 390.239398 60.697649 
L 390.564117 60.47954 
L 390.823893 60.174636 
L 390.953781 60.151895 
L 391.213556 59.842724 
L 391.343444 59.826289 
L 391.60322 59.494377 
L 392.707266 58.681278 
L 392.967041 58.322287 
L 393.226817 58.06547 
L 393.291761 58.127553 
L 393.551536 57.819953 
L 393.811312 57.569067 
L 393.876256 57.619404 
L 394.071088 57.423473 
L 394.136032 57.397918 
L 394.330863 57.177487 
L 394.980302 56.590798 
L 395.11019 56.473643 
L 395.499853 56.189981 
L 395.759629 55.960641 
L 396.344124 55.446303 
L 396.993563 54.898532 
L 397.513114 54.432608 
L 397.77289 54.279113 
L 398.292441 53.708436 
L 398.422329 53.715352 
L 398.487273 53.568 
L 398.487273 53.568 
" clip-path="url(#p127c293462)" style="fill: none; stroke: #ff0000; stroke-width: 1.5; stroke-linecap: square"/>
   </g>
   <g id="patch_3">
    <path d="M 57.6 307.584 
L 57.6 41.472 
" style="fill: none; stroke: #000000; stroke-width: 0.8; stroke-linejoin: miter; stroke-linecap: square"/>
   </g>
   <g id="patch_4">
    <path d="M 414.72 307.584 
L 414.72 41.472 
" style="fill: none; stroke: #000000; stroke-width: 0.8; stroke-linejoin: miter; stroke-linecap: square"/>
   </g>
   <g id="patch_5">
    <path d="M 57.6 307.584 
L 414.72 307.584 
" style="fill: none; stroke: #000000; stroke-width: 0.8; stroke-linejoin: miter; stroke-linecap: square"/>
   </g>
   <g id="patch_6">
    <path d="M 57.6 41.472 
L 414.72 41.472 
" style="fill: none; stroke: #000000; stroke-width: 0.8; stroke-linejoin: miter; stroke-linecap: square"/>
   </g>
   <g id="text_18">
    <!-- Script19_loss -->
    <g transform="translate(196.532813 35.472) scale(0.12 -0.12)">
     <defs>
      <path id="DejaVuSans-53" d="M 3425 4513 
L 3425 3897 
Q 3066 4069 2747 4153 
Q 2428 4238 2131 4238 
Q 1616 4238 1336 4038 
Q 1056 3838 1056 3469 
Q 1056 3159 1242 3001 
Q 1428 2844 1947 2747 
L 2328 2669 
Q 3034 2534 3370 2195 
Q 3706 1856 3706 1288 
Q 3706 609 3251 259 
Q 2797 -91 1919 -91 
Q 1588 -91 1214 -16 
Q 841 59 441 206 
L 441 856 
Q 825 641 1194 531 
Q 1563 422 1919 422 
Q 2459 422 2753 634 
Q 3047 847 3047 1241 
Q 3047 1584 2836 1778 
Q 2625 1972 2144 2069 
L 1759 2144 
Q 1053 2284 737 2584 
Q 422 2884 422 3419 
Q 422 4038 858 4394 
Q 1294 4750 2059 4750 
Q 2388 4750 2728 4690 
Q 3069 4631 3425 4513 
z
" transform="scale(0.015625)"/>
      <path id="DejaVuSans-72" d="M 2631 2963 
Q 2534 3019 2420 3045 
Q 2306 3072 2169 3072 
Q 1681 3072 1420 2755 
Q 1159 2438 1159 1844 
L 1159 0 
L 581 0 
L 581 3500 
L 1159 3500 
L 1159 2956 
Q 1341 3275 1631 3429 
Q 1922 3584 2338 3584 
Q 2397 3584 2469 3576 
Q 2541 3569 2628 3553 
L 2631 2963 
z
" transform="scale(0.015625)"/>
      <path id="DejaVuSans-69" d="M 603 3500 
L 1178 3500 
L 1178 0 
L 603 0 
L 603 3500 
z
M 603 4863 
L 1178 4863 
L 1178 4134 
L 603 4134 
L 603 4863 
z
" transform="scale(0.015625)"/>
      <path id="DejaVuSans-74" d="M 1172 4494 
L 1172 3500 
L 2356 3500 
L 2356 3053 
L 1172 3053 
L 1172 1153 
Q 1172 725 1289 603 
Q 1406 481 1766 481 
L 2356 481 
L 2356 0 
L 1766 0 
Q 1100 0 847 248 
Q 594 497 594 1153 
L 594 3053 
L 172 3053 
L 172 3500 
L 594 3500 
L 594 4494 
L 1172 4494 
z
" transform="scale(0.015625)"/>
      <path id="DejaVuSans-39" d="M 703 97 
L 703 672 
Q 941 559 1184 500 
Q 1428 441 1663 441 
Q 2288 441 2617 861 
Q 2947 1281 2994 2138 
Q 2813 1869 2534 1725 
Q 2256 1581 1919 1581 
Q 1219 1581 811 2004 
Q 403 2428 403 3163 
Q 403 3881 828 4315 
Q 1253 4750 1959 4750 
Q 2769 4750 3195 4129 
Q 3622 3509 3622 2328 
Q 3622 1225 3098 567 
Q 2575 -91 1691 -91 
Q 1453 -91 1209 -44 
Q 966 3 703 97 
z
M 1959 2075 
Q 2384 2075 2632 2365 
Q 2881 2656 2881 3163 
Q 2881 3666 2632 3958 
Q 2384 4250 1959 4250 
Q 1534 4250 1286 3958 
Q 1038 3666 1038 3163 
Q 1038 2656 1286 2365 
Q 1534 2075 1959 2075 
z
" transform="scale(0.015625)"/>
      <path id="DejaVuSans-5f" d="M 3263 -1063 
L 3263 -1509 
L -63 -1509 
L -63 -1063 
L 3263 -1063 
z
" transform="scale(0.015625)"/>
     </defs>
     <use xlink:href="#DejaVuSans-53"/>
     <use xlink:href="#DejaVuSans-63" x="63.476562"/>
     <use xlink:href="#DejaVuSans-72" x="118.457031"/>
     <use xlink:href="#DejaVuSans-69" x="159.570312"/>
     <use xlink:href="#DejaVuSans-70" x="187.353516"/>
     <use xlink:href="#DejaVuSans-74" x="250.830078"/>
     <use xlink:href="#DejaVuSans-31" x="290.039062"/>
     <use xlink:href="#DejaVuSans-39" x="353.662109"/>
     <use xlink:href="#DejaVuSans-5f" x="417.285156"/>
     <use xlink:href="#DejaVuSans-6c" x="467.285156"/>
     <use xlink:href="#DejaVuSans-6f" x="495.068359"/>
     <use xlink:href="#DejaVuSans-73" x="556.25"/>
     <use xlink:href="#DejaVuSans-73" x="608.349609"/>
    </g>
   </g>
   <g id="legend_1">
    <g id="patch_7">
     <path d="M 64.6 93.506375 
L 164.295312 93.506375 
Q 166.295312 93.506375 166.295312 91.506375 
L 166.295312 48.472 
Q 166.295312 46.472 164.295312 46.472 
L 64.6 46.472 
Q 62.6 46.472 62.6 48.472 
L 62.6 91.506375 
Q 62.6 93.506375 64.6 93.506375 
z
" style="fill: #ffffff; opacity: 0.8; stroke: #cccccc; stroke-linejoin: miter"/>
    </g>
    <g id="line2d_19">
     <path d="M 66.6 54.570438 
L 76.6 54.570438 
L 86.6 54.570438 
" style="fill: none; stroke: #0000ff; stroke-width: 1.5; stroke-linecap: square"/>
    </g>
    <g id="text_19">
     <!-- training set -->
     <g transform="translate(94.6 58.070438) scale(0.1 -0.1)">
      <defs>
       <path id="DejaVuSans-61" d="M 2194 1759 
Q 1497 1759 1228 1600 
Q 959 1441 959 1056 
Q 959 750 1161 570 
Q 1363 391 1709 391 
Q 2188 391 2477 730 
Q 2766 1069 2766 1631 
L 2766 1759 
L 2194 1759 
z
M 3341 1997 
L 3341 0 
L 2766 0 
L 2766 531 
Q 2569 213 2275 61 
Q 1981 -91 1556 -91 
Q 1019 -91 701 211 
Q 384 513 384 1019 
Q 384 1609 779 1909 
Q 1175 2209 1959 2209 
L 2766 2209 
L 2766 2266 
Q 2766 2663 2505 2880 
Q 2244 3097 1772 3097 
Q 1472 3097 1187 3025 
Q 903 2953 641 2809 
L 641 3341 
Q 956 3463 1253 3523 
Q 1550 3584 1831 3584 
Q 2591 3584 2966 3190 
Q 3341 2797 3341 1997 
z
" transform="scale(0.015625)"/>
       <path id="DejaVuSans-6e" d="M 3513 2113 
L 3513 0 
L 2938 0 
L 2938 2094 
Q 2938 2591 2744 2837 
Q 2550 3084 2163 3084 
Q 1697 3084 1428 2787 
Q 1159 2491 1159 1978 
L 1159 0 
L 581 0 
L 581 3500 
L 1159 3500 
L 1159 2956 
Q 1366 3272 1645 3428 
Q 1925 3584 2291 3584 
Q 2894 3584 3203 3211 
Q 3513 2838 3513 2113 
z
" transform="scale(0.015625)"/>
       <path id="DejaVuSans-67" d="M 2906 1791 
Q 2906 2416 2648 2759 
Q 2391 3103 1925 3103 
Q 1463 3103 1205 2759 
Q 947 2416 947 1791 
Q 947 1169 1205 825 
Q 1463 481 1925 481 
Q 2391 481 2648 825 
Q 2906 1169 2906 1791 
z
M 3481 434 
Q 3481 -459 3084 -895 
Q 2688 -1331 1869 -1331 
Q 1566 -1331 1297 -1286 
Q 1028 -1241 775 -1147 
L 775 -588 
Q 1028 -725 1275 -790 
Q 1522 -856 1778 -856 
Q 2344 -856 2625 -561 
Q 2906 -266 2906 331 
L 2906 616 
Q 2728 306 2450 153 
Q 2172 0 1784 0 
Q 1141 0 747 490 
Q 353 981 353 1791 
Q 353 2603 747 3093 
Q 1141 3584 1784 3584 
Q 2172 3584 2450 3431 
Q 2728 3278 2906 2969 
L 2906 3500 
L 3481 3500 
L 3481 434 
z
" transform="scale(0.015625)"/>
       <path id="DejaVuSans-20" transform="scale(0.015625)"/>
      </defs>
      <use xlink:href="#DejaVuSans-74"/>
      <use xlink:href="#DejaVuSans-72" x="39.208984"/>
      <use xlink:href="#DejaVuSans-61" x="80.322266"/>
      <use xlink:href="#DejaVuSans-69" x="141.601562"/>
      <use xlink:href="#DejaVuSans-6e" x="169.384766"/>
      <use xlink:href="#DejaVuSans-69" x="232.763672"/>
      <use xlink:href="#DejaVuSans-6e" x="260.546875"/>
      <use xlink:href="#DejaVuSans-67" x="323.925781"/>
      <use xlink:href="#DejaVuSans-20" x="387.402344"/>
      <use xlink:href="#DejaVuSans-73" x="419.189453"/>
      <use xlink:href="#DejaVuSans-65" x="471.289062"/>
      <use xlink:href="#DejaVuSans-74" x="532.8125"/>
     </g>
    </g>
    <g id="line2d_20">
     <path d="M 66.6 69.248563 
L 76.6 69.248563 
L 86.6 69.248563 
" style="fill: none; stroke: #008000; stroke-width: 1.5; stroke-linecap: square"/>
    </g>
    <g id="text_20">
     <!-- validation set -->
     <g transform="translate(94.6 72.748563) scale(0.1 -0.1)">
      <defs>
       <path id="DejaVuSans-76" d="M 191 3500 
L 800 3500 
L 1894 563 
L 2988 3500 
L 3597 3500 
L 2284 0 
L 1503 0 
L 191 3500 
z
" transform="scale(0.015625)"/>
       <path id="DejaVuSans-64" d="M 2906 2969 
L 2906 4863 
L 3481 4863 
L 3481 0 
L 2906 0 
L 2906 525 
Q 2725 213 2448 61 
Q 2172 -91 1784 -91 
Q 1150 -91 751 415 
Q 353 922 353 1747 
Q 353 2572 751 3078 
Q 1150 3584 1784 3584 
Q 2172 3584 2448 3432 
Q 2725 3281 2906 2969 
z
M 947 1747 
Q 947 1113 1208 752 
Q 1469 391 1925 391 
Q 2381 391 2643 752 
Q 2906 1113 2906 1747 
Q 2906 2381 2643 2742 
Q 2381 3103 1925 3103 
Q 1469 3103 1208 2742 
Q 947 2381 947 1747 
z
" transform="scale(0.015625)"/>
      </defs>
      <use xlink:href="#DejaVuSans-76"/>
      <use xlink:href="#DejaVuSans-61" x="59.179688"/>
      <use xlink:href="#DejaVuSans-6c" x="120.458984"/>
      <use xlink:href="#DejaVuSans-69" x="148.242188"/>
      <use xlink:href="#DejaVuSans-64" x="176.025391"/>
      <use xlink:href="#DejaVuSans-61" x="239.501953"/>
      <use xlink:href="#DejaVuSans-74" x="300.78125"/>
      <use xlink:href="#DejaVuSans-69" x="339.990234"/>
      <use xlink:href="#DejaVuSans-6f" x="367.773438"/>
      <use xlink:href="#DejaVuSans-6e" x="428.955078"/>
      <use xlink:href="#DejaVuSans-20" x="492.333984"/>
      <use xlink:href="#DejaVuSans-73" x="524.121094"/>
      <use xlink:href="#DejaVuSans-65" x="576.220703"/>
      <use xlink:href="#DejaVuSans-74" x="637.744141"/>
     </g>
    </g>
    <g id="line2d_21">
     <path d="M 66.6 83.926688 
L 76.6 83.926688 
L 86.6 83.926688 
" style="fill: none; stroke: #ff0000; stroke-width: 1.5; stroke-linecap: square"/>
    </g>
    <g id="text_21">
     <!-- test set -->
     <g transform="translate(94.6 87.426688) scale(0.1 -0.1)">
      <use xlink:href="#DejaVuSans-74"/>
      <use xlink:href="#DejaVuSans-65" x="39.208984"/>
      <use xlink:href="#DejaVuSans-73" x="100.732422"/>
      <use xlink:href="#DejaVuSans-74" x="152.832031"/>
      <use xlink:href="#DejaVuSans-20" x="192.041016"/>
      <use xlink:href="#DejaVuSans-73" x="223.828125"/>
      <use xlink:href="#DejaVuSans-65" x="275.927734"/>
      <use xlink:href="#DejaVuSans-74" x="337.451172"/>
     </g>
    </g>
   </g>
  </g>
 </g>
 <defs>
  <clipPath id="p127c293462">
   <rect x="57.6" y="41.472" width="357.12" height="266.112"/>
  </clipPath>
 </defs>
</svg>
