<?xml version="1.0" encoding="utf-8" standalone="no"?>
<!DOCTYPE svg PUBLIC "-//W3C//DTD SVG 1.1//EN"
  "http://www.w3.org/Graphics/SVG/1.1/DTD/svg11.dtd">
<svg xmlns:xlink="http://www.w3.org/1999/xlink" width="460.8pt" height="345.6pt" viewBox="0 0 460.8 345.6" xmlns="http://www.w3.org/2000/svg" version="1.1">
 <metadata>
  <rdf:RDF xmlns:dc="http://purl.org/dc/elements/1.1/" xmlns:cc="http://creativecommons.org/ns#" xmlns:rdf="http://www.w3.org/1999/02/22-rdf-syntax-ns#">
   <cc:Work>
    <dc:type rdf:resource="http://purl.org/dc/dcmitype/StillImage"/>
    <dc:date>2023-06-14T03:55:30.481506</dc:date>
    <dc:format>image/svg+xml</dc:format>
    <dc:creator>
     <cc:Agent>
      <dc:title>Matplotlib v3.7.1, https://matplotlib.org/</dc:title>
     </cc:Agent>
    </dc:creator>
   </cc:Work>
  </rdf:RDF>
 </metadata>
 <defs>
  <style type="text/css">*{stroke-linejoin: round; stroke-linecap: butt}</style>
 </defs>
 <g id="figure_1">
  <g id="patch_1">
   <path d="M 0 345.6 
L 460.8 345.6 
L 460.8 0 
L 0 0 
z
" style="fill: #ffffff"/>
  </g>
  <g id="axes_1">
   <g id="patch_2">
    <path d="M 57.6 307.584 
L 414.72 307.584 
L 414.72 41.472 
L 57.6 41.472 
z
" style="fill: #ffffff"/>
   </g>
   <g id="matplotlib.axis_1">
    <g id="xtick_1">
     <g id="line2d_1">
      <defs>
       <path id="m8706173a29" d="M 0 0 
L 0 3.5 
" style="stroke: #000000; stroke-width: 0.8"/>
      </defs>
      <g>
       <use xlink:href="#m8706173a29" x="73.767783" y="307.584" style="stroke: #000000; stroke-width: 0.8"/>
      </g>
     </g>
     <g id="text_1">
      <!-- 0 -->
      <g transform="translate(70.586533 322.182437) scale(0.1 -0.1)">
       <defs>
        <path id="DejaVuSans-30" d="M 2034 4250 
Q 1547 4250 1301 3770 
Q 1056 3291 1056 2328 
Q 1056 1369 1301 889 
Q 1547 409 2034 409 
Q 2525 409 2770 889 
Q 3016 1369 3016 2328 
Q 3016 3291 2770 3770 
Q 2525 4250 2034 4250 
z
M 2034 4750 
Q 2819 4750 3233 4129 
Q 3647 3509 3647 2328 
Q 3647 1150 3233 529 
Q 2819 -91 2034 -91 
Q 1250 -91 836 529 
Q 422 1150 422 2328 
Q 422 3509 836 4129 
Q 1250 4750 2034 4750 
z
" transform="scale(0.015625)"/>
       </defs>
       <use xlink:href="#DejaVuSans-30"/>
      </g>
     </g>
    </g>
    <g id="xtick_2">
     <g id="line2d_2">
      <g>
       <use xlink:href="#m8706173a29" x="138.711681" y="307.584" style="stroke: #000000; stroke-width: 0.8"/>
      </g>
     </g>
     <g id="text_2">
      <!-- 1000 -->
      <g transform="translate(125.986681 322.182437) scale(0.1 -0.1)">
       <defs>
        <path id="DejaVuSans-31" d="M 794 531 
L 1825 531 
L 1825 4091 
L 703 3866 
L 703 4441 
L 1819 4666 
L 2450 4666 
L 2450 531 
L 3481 531 
L 3481 0 
L 794 0 
L 794 531 
z
" transform="scale(0.015625)"/>
       </defs>
       <use xlink:href="#DejaVuSans-31"/>
       <use xlink:href="#DejaVuSans-30" x="63.623047"/>
       <use xlink:href="#DejaVuSans-30" x="127.246094"/>
       <use xlink:href="#DejaVuSans-30" x="190.869141"/>
      </g>
     </g>
    </g>
    <g id="xtick_3">
     <g id="line2d_3">
      <g>
       <use xlink:href="#m8706173a29" x="203.655579" y="307.584" style="stroke: #000000; stroke-width: 0.8"/>
      </g>
     </g>
     <g id="text_3">
      <!-- 2000 -->
      <g transform="translate(190.930579 322.182437) scale(0.1 -0.1)">
       <defs>
        <path id="DejaVuSans-32" d="M 1228 531 
L 3431 531 
L 3431 0 
L 469 0 
L 469 531 
Q 828 903 1448 1529 
Q 2069 2156 2228 2338 
Q 2531 2678 2651 2914 
Q 2772 3150 2772 3378 
Q 2772 3750 2511 3984 
Q 2250 4219 1831 4219 
Q 1534 4219 1204 4116 
Q 875 4013 500 3803 
L 500 4441 
Q 881 4594 1212 4672 
Q 1544 4750 1819 4750 
Q 2544 4750 2975 4387 
Q 3406 4025 3406 3419 
Q 3406 3131 3298 2873 
Q 3191 2616 2906 2266 
Q 2828 2175 2409 1742 
Q 1991 1309 1228 531 
z
" transform="scale(0.015625)"/>
       </defs>
       <use xlink:href="#DejaVuSans-32"/>
       <use xlink:href="#DejaVuSans-30" x="63.623047"/>
       <use xlink:href="#DejaVuSans-30" x="127.246094"/>
       <use xlink:href="#DejaVuSans-30" x="190.869141"/>
      </g>
     </g>
    </g>
    <g id="xtick_4">
     <g id="line2d_4">
      <g>
       <use xlink:href="#m8706173a29" x="268.599477" y="307.584" style="stroke: #000000; stroke-width: 0.8"/>
      </g>
     </g>
     <g id="text_4">
      <!-- 3000 -->
      <g transform="translate(255.874477 322.182437) scale(0.1 -0.1)">
       <defs>
        <path id="DejaVuSans-33" d="M 2597 2516 
Q 3050 2419 3304 2112 
Q 3559 1806 3559 1356 
Q 3559 666 3084 287 
Q 2609 -91 1734 -91 
Q 1441 -91 1130 -33 
Q 819 25 488 141 
L 488 750 
Q 750 597 1062 519 
Q 1375 441 1716 441 
Q 2309 441 2620 675 
Q 2931 909 2931 1356 
Q 2931 1769 2642 2001 
Q 2353 2234 1838 2234 
L 1294 2234 
L 1294 2753 
L 1863 2753 
Q 2328 2753 2575 2939 
Q 2822 3125 2822 3475 
Q 2822 3834 2567 4026 
Q 2313 4219 1838 4219 
Q 1578 4219 1281 4162 
Q 984 4106 628 3988 
L 628 4550 
Q 988 4650 1302 4700 
Q 1616 4750 1894 4750 
Q 2613 4750 3031 4423 
Q 3450 4097 3450 3541 
Q 3450 3153 3228 2886 
Q 3006 2619 2597 2516 
z
" transform="scale(0.015625)"/>
       </defs>
       <use xlink:href="#DejaVuSans-33"/>
       <use xlink:href="#DejaVuSans-30" x="63.623047"/>
       <use xlink:href="#DejaVuSans-30" x="127.246094"/>
       <use xlink:href="#DejaVuSans-30" x="190.869141"/>
      </g>
     </g>
    </g>
    <g id="xtick_5">
     <g id="line2d_5">
      <g>
       <use xlink:href="#m8706173a29" x="333.543375" y="307.584" style="stroke: #000000; stroke-width: 0.8"/>
      </g>
     </g>
     <g id="text_5">
      <!-- 4000 -->
      <g transform="translate(320.818375 322.182437) scale(0.1 -0.1)">
       <defs>
        <path id="DejaVuSans-34" d="M 2419 4116 
L 825 1625 
L 2419 1625 
L 2419 4116 
z
M 2253 4666 
L 3047 4666 
L 3047 1625 
L 3713 1625 
L 3713 1100 
L 3047 1100 
L 3047 0 
L 2419 0 
L 2419 1100 
L 313 1100 
L 313 1709 
L 2253 4666 
z
" transform="scale(0.015625)"/>
       </defs>
       <use xlink:href="#DejaVuSans-34"/>
       <use xlink:href="#DejaVuSans-30" x="63.623047"/>
       <use xlink:href="#DejaVuSans-30" x="127.246094"/>
       <use xlink:href="#DejaVuSans-30" x="190.869141"/>
      </g>
     </g>
    </g>
    <g id="xtick_6">
     <g id="line2d_6">
      <g>
       <use xlink:href="#m8706173a29" x="398.487273" y="307.584" style="stroke: #000000; stroke-width: 0.8"/>
      </g>
     </g>
     <g id="text_6">
      <!-- 5000 -->
      <g transform="translate(385.762273 322.182437) scale(0.1 -0.1)">
       <defs>
        <path id="DejaVuSans-35" d="M 691 4666 
L 3169 4666 
L 3169 4134 
L 1269 4134 
L 1269 2991 
Q 1406 3038 1543 3061 
Q 1681 3084 1819 3084 
Q 2600 3084 3056 2656 
Q 3513 2228 3513 1497 
Q 3513 744 3044 326 
Q 2575 -91 1722 -91 
Q 1428 -91 1123 -41 
Q 819 9 494 109 
L 494 744 
Q 775 591 1075 516 
Q 1375 441 1709 441 
Q 2250 441 2565 725 
Q 2881 1009 2881 1497 
Q 2881 1984 2565 2268 
Q 2250 2553 1709 2553 
Q 1456 2553 1204 2497 
Q 953 2441 691 2322 
L 691 4666 
z
" transform="scale(0.015625)"/>
       </defs>
       <use xlink:href="#DejaVuSans-35"/>
       <use xlink:href="#DejaVuSans-30" x="63.623047"/>
       <use xlink:href="#DejaVuSans-30" x="127.246094"/>
       <use xlink:href="#DejaVuSans-30" x="190.869141"/>
      </g>
     </g>
    </g>
    <g id="text_7">
     <!-- epoch -->
     <g transform="translate(220.931875 335.860562) scale(0.1 -0.1)">
      <defs>
       <path id="DejaVuSans-65" d="M 3597 1894 
L 3597 1613 
L 953 1613 
Q 991 1019 1311 708 
Q 1631 397 2203 397 
Q 2534 397 2845 478 
Q 3156 559 3463 722 
L 3463 178 
Q 3153 47 2828 -22 
Q 2503 -91 2169 -91 
Q 1331 -91 842 396 
Q 353 884 353 1716 
Q 353 2575 817 3079 
Q 1281 3584 2069 3584 
Q 2775 3584 3186 3129 
Q 3597 2675 3597 1894 
z
M 3022 2063 
Q 3016 2534 2758 2815 
Q 2500 3097 2075 3097 
Q 1594 3097 1305 2825 
Q 1016 2553 972 2059 
L 3022 2063 
z
" transform="scale(0.015625)"/>
       <path id="DejaVuSans-70" d="M 1159 525 
L 1159 -1331 
L 581 -1331 
L 581 3500 
L 1159 3500 
L 1159 2969 
Q 1341 3281 1617 3432 
Q 1894 3584 2278 3584 
Q 2916 3584 3314 3078 
Q 3713 2572 3713 1747 
Q 3713 922 3314 415 
Q 2916 -91 2278 -91 
Q 1894 -91 1617 61 
Q 1341 213 1159 525 
z
M 3116 1747 
Q 3116 2381 2855 2742 
Q 2594 3103 2138 3103 
Q 1681 3103 1420 2742 
Q 1159 2381 1159 1747 
Q 1159 1113 1420 752 
Q 1681 391 2138 391 
Q 2594 391 2855 752 
Q 3116 1113 3116 1747 
z
" transform="scale(0.015625)"/>
       <path id="DejaVuSans-6f" d="M 1959 3097 
Q 1497 3097 1228 2736 
Q 959 2375 959 1747 
Q 959 1119 1226 758 
Q 1494 397 1959 397 
Q 2419 397 2687 759 
Q 2956 1122 2956 1747 
Q 2956 2369 2687 2733 
Q 2419 3097 1959 3097 
z
M 1959 3584 
Q 2709 3584 3137 3096 
Q 3566 2609 3566 1747 
Q 3566 888 3137 398 
Q 2709 -91 1959 -91 
Q 1206 -91 779 398 
Q 353 888 353 1747 
Q 353 2609 779 3096 
Q 1206 3584 1959 3584 
z
" transform="scale(0.015625)"/>
       <path id="DejaVuSans-63" d="M 3122 3366 
L 3122 2828 
Q 2878 2963 2633 3030 
Q 2388 3097 2138 3097 
Q 1578 3097 1268 2742 
Q 959 2388 959 1747 
Q 959 1106 1268 751 
Q 1578 397 2138 397 
Q 2388 397 2633 464 
Q 2878 531 3122 666 
L 3122 134 
Q 2881 22 2623 -34 
Q 2366 -91 2075 -91 
Q 1284 -91 818 406 
Q 353 903 353 1747 
Q 353 2603 823 3093 
Q 1294 3584 2113 3584 
Q 2378 3584 2631 3529 
Q 2884 3475 3122 3366 
z
" transform="scale(0.015625)"/>
       <path id="DejaVuSans-68" d="M 3513 2113 
L 3513 0 
L 2938 0 
L 2938 2094 
Q 2938 2591 2744 2837 
Q 2550 3084 2163 3084 
Q 1697 3084 1428 2787 
Q 1159 2491 1159 1978 
L 1159 0 
L 581 0 
L 581 4863 
L 1159 4863 
L 1159 2956 
Q 1366 3272 1645 3428 
Q 1925 3584 2291 3584 
Q 2894 3584 3203 3211 
Q 3513 2838 3513 2113 
z
" transform="scale(0.015625)"/>
      </defs>
      <use xlink:href="#DejaVuSans-65"/>
      <use xlink:href="#DejaVuSans-70" x="61.523438"/>
      <use xlink:href="#DejaVuSans-6f" x="125"/>
      <use xlink:href="#DejaVuSans-63" x="186.181641"/>
      <use xlink:href="#DejaVuSans-68" x="241.162109"/>
     </g>
    </g>
   </g>
   <g id="matplotlib.axis_2">
    <g id="ytick_1">
     <g id="line2d_7">
      <defs>
       <path id="m48657723f6" d="M 0 0 
L -3.5 0 
" style="stroke: #000000; stroke-width: 0.8"/>
      </defs>
      <g>
       <use xlink:href="#m48657723f6" x="57.6" y="295.509839" style="stroke: #000000; stroke-width: 0.8"/>
      </g>
     </g>
     <g id="text_8">
      <!-- 0.0 -->
      <g transform="translate(34.696875 299.309058) scale(0.1 -0.1)">
       <defs>
        <path id="DejaVuSans-2e" d="M 684 794 
L 1344 794 
L 1344 0 
L 684 0 
L 684 794 
z
" transform="scale(0.015625)"/>
       </defs>
       <use xlink:href="#DejaVuSans-30"/>
       <use xlink:href="#DejaVuSans-2e" x="63.623047"/>
       <use xlink:href="#DejaVuSans-30" x="95.410156"/>
      </g>
     </g>
    </g>
    <g id="ytick_2">
     <g id="line2d_8">
      <g>
       <use xlink:href="#m48657723f6" x="57.6" y="262.19988" style="stroke: #000000; stroke-width: 0.8"/>
      </g>
     </g>
     <g id="text_9">
      <!-- 2.5 -->
      <g transform="translate(34.696875 265.999098) scale(0.1 -0.1)">
       <use xlink:href="#DejaVuSans-32"/>
       <use xlink:href="#DejaVuSans-2e" x="63.623047"/>
       <use xlink:href="#DejaVuSans-35" x="95.410156"/>
      </g>
     </g>
    </g>
    <g id="ytick_3">
     <g id="line2d_9">
      <g>
       <use xlink:href="#m48657723f6" x="57.6" y="228.88992" style="stroke: #000000; stroke-width: 0.8"/>
      </g>
     </g>
     <g id="text_10">
      <!-- 5.0 -->
      <g transform="translate(34.696875 232.689139) scale(0.1 -0.1)">
       <use xlink:href="#DejaVuSans-35"/>
       <use xlink:href="#DejaVuSans-2e" x="63.623047"/>
       <use xlink:href="#DejaVuSans-30" x="95.410156"/>
      </g>
     </g>
    </g>
    <g id="ytick_4">
     <g id="line2d_10">
      <g>
       <use xlink:href="#m48657723f6" x="57.6" y="195.579961" style="stroke: #000000; stroke-width: 0.8"/>
      </g>
     </g>
     <g id="text_11">
      <!-- 7.5 -->
      <g transform="translate(34.696875 199.37918) scale(0.1 -0.1)">
       <defs>
        <path id="DejaVuSans-37" d="M 525 4666 
L 3525 4666 
L 3525 4397 
L 1831 0 
L 1172 0 
L 2766 4134 
L 525 4134 
L 525 4666 
z
" transform="scale(0.015625)"/>
       </defs>
       <use xlink:href="#DejaVuSans-37"/>
       <use xlink:href="#DejaVuSans-2e" x="63.623047"/>
       <use xlink:href="#DejaVuSans-35" x="95.410156"/>
      </g>
     </g>
    </g>
    <g id="ytick_5">
     <g id="line2d_11">
      <g>
       <use xlink:href="#m48657723f6" x="57.6" y="162.270002" style="stroke: #000000; stroke-width: 0.8"/>
      </g>
     </g>
     <g id="text_12">
      <!-- 10.0 -->
      <g transform="translate(28.334375 166.069221) scale(0.1 -0.1)">
       <use xlink:href="#DejaVuSans-31"/>
       <use xlink:href="#DejaVuSans-30" x="63.623047"/>
       <use xlink:href="#DejaVuSans-2e" x="127.246094"/>
       <use xlink:href="#DejaVuSans-30" x="159.033203"/>
      </g>
     </g>
    </g>
    <g id="ytick_6">
     <g id="line2d_12">
      <g>
       <use xlink:href="#m48657723f6" x="57.6" y="128.960043" style="stroke: #000000; stroke-width: 0.8"/>
      </g>
     </g>
     <g id="text_13">
      <!-- 12.5 -->
      <g transform="translate(28.334375 132.759261) scale(0.1 -0.1)">
       <use xlink:href="#DejaVuSans-31"/>
       <use xlink:href="#DejaVuSans-32" x="63.623047"/>
       <use xlink:href="#DejaVuSans-2e" x="127.246094"/>
       <use xlink:href="#DejaVuSans-35" x="159.033203"/>
      </g>
     </g>
    </g>
    <g id="ytick_7">
     <g id="line2d_13">
      <g>
       <use xlink:href="#m48657723f6" x="57.6" y="95.650083" style="stroke: #000000; stroke-width: 0.8"/>
      </g>
     </g>
     <g id="text_14">
      <!-- 15.0 -->
      <g transform="translate(28.334375 99.449302) scale(0.1 -0.1)">
       <use xlink:href="#DejaVuSans-31"/>
       <use xlink:href="#DejaVuSans-35" x="63.623047"/>
       <use xlink:href="#DejaVuSans-2e" x="127.246094"/>
       <use xlink:href="#DejaVuSans-30" x="159.033203"/>
      </g>
     </g>
    </g>
    <g id="ytick_8">
     <g id="line2d_14">
      <g>
       <use xlink:href="#m48657723f6" x="57.6" y="62.340124" style="stroke: #000000; stroke-width: 0.8"/>
      </g>
     </g>
     <g id="text_15">
      <!-- 17.5 -->
      <g transform="translate(28.334375 66.139343) scale(0.1 -0.1)">
       <use xlink:href="#DejaVuSans-31"/>
       <use xlink:href="#DejaVuSans-37" x="63.623047"/>
       <use xlink:href="#DejaVuSans-2e" x="127.246094"/>
       <use xlink:href="#DejaVuSans-35" x="159.033203"/>
      </g>
     </g>
    </g>
    <g id="text_16">
     <!-- loss -->
     <g transform="translate(22.254688 184.185812) rotate(-90) scale(0.1 -0.1)">
      <defs>
       <path id="DejaVuSans-6c" d="M 603 4863 
L 1178 4863 
L 1178 0 
L 603 0 
L 603 4863 
z
" transform="scale(0.015625)"/>
       <path id="DejaVuSans-73" d="M 2834 3397 
L 2834 2853 
Q 2591 2978 2328 3040 
Q 2066 3103 1784 3103 
Q 1356 3103 1142 2972 
Q 928 2841 928 2578 
Q 928 2378 1081 2264 
Q 1234 2150 1697 2047 
L 1894 2003 
Q 2506 1872 2764 1633 
Q 3022 1394 3022 966 
Q 3022 478 2636 193 
Q 2250 -91 1575 -91 
Q 1294 -91 989 -36 
Q 684 19 347 128 
L 347 722 
Q 666 556 975 473 
Q 1284 391 1588 391 
Q 1994 391 2212 530 
Q 2431 669 2431 922 
Q 2431 1156 2273 1281 
Q 2116 1406 1581 1522 
L 1381 1569 
Q 847 1681 609 1914 
Q 372 2147 372 2553 
Q 372 3047 722 3315 
Q 1072 3584 1716 3584 
Q 2034 3584 2315 3537 
Q 2597 3491 2834 3397 
z
" transform="scale(0.015625)"/>
      </defs>
      <use xlink:href="#DejaVuSans-6c"/>
      <use xlink:href="#DejaVuSans-6f" x="27.783203"/>
      <use xlink:href="#DejaVuSans-73" x="88.964844"/>
      <use xlink:href="#DejaVuSans-73" x="141.064453"/>
     </g>
    </g>
   </g>
   <g id="line2d_15">
    <path d="M 73.832727 269.575372 
L 74.222391 270.093461 
L 74.87183 270.65914 
L 75.586213 271.706213 
L 76.300595 273.257672 
L 77.20981 275.846059 
L 79.352959 282.181684 
L 80.262173 284.080916 
L 81.106444 285.347092 
L 82.015658 286.30582 
L 83.054761 287.069369 
L 84.353639 287.740271 
L 86.107124 288.386662 
L 88.639936 289.067128 
L 92.081963 289.746378 
L 96.757923 290.426503 
L 102.602874 291.066733 
L 111.759964 291.833074 
L 121.046941 292.437269 
L 160.85755 294.128499 
L 186.51039 294.699132 
L 197.680741 294.865193 
L 238.595396 295.238535 
L 277.691623 295.380102 
L 363.157792 295.475199 
L 398.487273 295.488 
L 398.487273 295.488 
" clip-path="url(#pf72b9c5067)" style="fill: none; stroke: #0000ff; stroke-width: 1.5; stroke-linecap: square"/>
   </g>
   <g id="line2d_16">
    <path d="M 73.832727 270.077968 
L 74.222391 270.139814 
L 74.612054 270.222754 
L 75.066661 270.651586 
L 76.235651 272.295076 
L 77.014978 273.999858 
L 77.794305 276.00519 
L 78.833407 278.676433 
L 79.742622 280.522981 
L 80.521949 281.591512 
L 81.431163 282.346535 
L 82.275434 282.694258 
L 83.7042 282.782593 
L 86.107124 282.216795 
L 90.848029 279.770655 
L 97.926913 275.315906 
L 98.121745 275.124956 
L 98.186689 275.175632 
L 98.381521 274.99671 
L 98.901072 274.589756 
L 98.966016 274.619096 
L 99.160847 274.408127 
L 99.290735 274.350974 
L 99.485567 274.181213 
L 99.745343 274.012323 
L 100.589613 273.413968 
L 106.174788 269.449393 
L 106.499508 269.198232 
L 108.7076 267.582004 
L 108.902432 267.442176 
L 109.292096 267.109269 
L 109.486927 267.087623 
L 109.681759 266.877139 
L 110.20131 266.505092 
L 110.52603 266.301892 
L 112.214571 265.246746 
L 112.279515 265.265047 
L 112.344459 265.118856 
L 112.409403 265.165598 
L 113.838168 264.340603 
L 114.162888 264.017248 
L 114.747383 263.685825 
L 114.812327 263.761757 
L 115.072102 263.517067 
L 115.137046 263.51551 
L 115.331878 263.312161 
L 115.656598 263.116982 
L 115.981317 262.856119 
L 116.435924 262.597226 
L 116.500868 262.42558 
L 116.565812 262.516052 
L 117.410083 261.94063 
L 117.604914 261.81909 
L 118.124466 261.449432 
L 118.514129 261.212023 
L 118.773905 261.038868 
L 118.903792 260.923729 
L 118.968736 261.013013 
L 119.163568 260.790527 
L 119.813007 260.427073 
L 119.877951 260.242034 
L 119.942895 260.31324 
L 120.20267 260.091946 
L 120.332558 260.056713 
L 120.981997 259.599096 
L 121.111885 259.642921 
L 121.241773 259.446329 
L 121.306717 259.487711 
L 121.566492 259.243837 
L 121.631436 259.320071 
L 121.761324 259.11419 
L 121.826268 259.131723 
L 122.021099 258.999919 
L 122.280875 258.806926 
L 122.410763 258.774063 
L 122.670538 258.58883 
L 123.579753 258.048476 
L 124.03436 257.746513 
L 124.294136 257.656495 
L 124.878631 257.268597 
L 124.943575 257.287396 
L 125.138407 257.115658 
L 125.268294 257.040593 
L 125.463126 256.892004 
L 125.52807 256.915746 
L 125.787846 256.680116 
L 125.852789 256.750251 
L 125.982677 256.641773 
L 126.372341 256.471887 
L 126.567172 256.337577 
L 126.891892 256.188508 
L 129.294816 254.657365 
L 129.424704 254.679233 
L 129.619536 254.455886 
L 129.749423 254.495951 
L 130.139087 254.178692 
L 130.463806 254.000499 
L 131.178189 253.538584 
L 131.827628 253.097018 
L 131.957516 253.161143 
L 132.477067 252.829776 
L 132.931674 252.541873 
L 132.996618 252.403938 
L 133.061562 252.484061 
L 133.19145 252.434647 
L 134.230552 251.70535 
L 134.36044 251.796813 
L 134.490328 251.549461 
L 134.68516 251.571869 
L 134.815047 251.38434 
L 134.879991 251.416764 
L 135.074823 251.252476 
L 135.204711 251.271825 
L 135.334599 250.987137 
L 135.52943 251.083949 
L 135.659318 250.858135 
L 135.724262 250.938397 
L 135.984038 250.657159 
L 136.048981 250.713351 
L 136.178869 250.508776 
L 136.373701 250.515431 
L 136.568533 250.34253 
L 136.69842 250.25803 
L 136.763364 250.118837 
L 136.828308 250.186177 
L 136.893252 250.201034 
L 137.153028 250.000509 
L 137.282915 249.912664 
L 137.347859 249.7789 
L 137.412803 249.828549 
L 137.802467 249.607982 
L 138.257074 249.239515 
L 138.386962 249.238352 
L 139.296176 248.584943 
L 139.36112 248.69823 
L 139.426064 248.632568 
L 139.620896 248.409549 
L 140.53011 247.912534 
L 140.659998 247.857168 
L 140.85483 247.702374 
L 141.049662 247.552714 
L 141.309437 247.414141 
L 141.569213 247.331388 
L 141.893932 247.129005 
L 142.02382 247.054232 
L 142.34854 246.781355 
L 142.478427 246.753333 
L 142.738203 246.582497 
L 142.933035 246.468045 
L 143.127866 246.368545 
L 145.595734 244.840162 
L 145.790566 244.685317 
L 145.920454 244.662445 
L 146.050342 244.471473 
L 146.245173 244.437485 
L 146.634837 244.131202 
L 146.829668 244.033481 
L 147.089444 243.815173 
L 147.219332 243.770715 
L 147.998659 243.233906 
L 148.258434 243.032564 
L 148.51821 242.815387 
L 148.583154 242.844463 
L 148.842929 242.547723 
L 149.037761 242.510441 
L 149.946976 241.8084 
L 150.076863 241.750839 
L 150.336639 241.480903 
L 150.466527 241.46711 
L 150.85619 241.127935 
L 151.440685 240.662608 
L 151.895293 240.33222 
L 152.02518 240.25516 
L 152.414844 239.93697 
L 152.674619 239.7283 
L 152.934395 239.533322 
L 153.908553 238.794412 
L 154.038441 238.710376 
L 154.233273 238.53102 
L 154.363161 238.454608 
L 154.557992 238.289192 
L 155.077544 237.937419 
L 155.337319 237.707217 
L 155.467207 237.614216 
L 155.597095 237.379758 
L 155.662039 237.408176 
L 155.791926 237.366104 
L 156.441365 236.768195 
L 156.571253 236.704483 
L 156.701141 236.563127 
L 156.960917 236.371993 
L 157.02586 236.357431 
L 157.220692 236.144345 
L 157.480468 235.92779 
L 157.545412 236.024037 
L 157.870131 235.537325 
L 158.000019 235.523449 
L 158.129907 235.447094 
L 158.324738 235.218163 
L 158.584514 235.0483 
L 158.909233 234.736648 
L 159.558672 234.244338 
L 159.753504 233.986702 
L 160.078224 233.748737 
L 160.402943 233.460884 
L 160.597775 233.387249 
L 161.117326 232.908395 
L 161.18227 232.883827 
L 161.312158 232.719853 
L 161.442046 232.658797 
L 162.935755 231.341051 
L 163.000699 231.335453 
L 163.195531 231.121637 
L 168.326099 226.669843 
L 168.52093 226.533982 
L 171.443406 223.869792 
L 171.50835 223.869589 
L 171.768125 223.547441 
L 172.67734 222.663395 
L 172.807228 222.545432 
L 173.456667 222.04382 
L 173.716442 221.685624 
L 174.430825 221.034295 
L 176.249254 219.326859 
L 176.379142 219.224347 
L 181.18499 214.563095 
L 181.444766 214.325657 
L 181.639598 214.126314 
L 182.224093 213.460817 
L 182.483868 213.253958 
L 183.133307 212.601441 
L 185.3414 210.471245 
L 185.666119 210.123798 
L 186.055783 209.763473 
L 186.640278 209.156644 
L 186.770166 209.09278 
L 187.094885 208.700834 
L 187.289717 208.545926 
L 187.614436 208.221497 
L 187.809268 208.044194 
L 188.0041 207.819469 
L 188.263875 207.554158 
L 188.783427 206.97233 
L 188.978258 206.884475 
L 191.186351 204.702315 
L 191.446126 204.444444 
L 191.640958 204.300432 
L 194.043882 201.942029 
L 194.17377 201.892035 
L 195.277816 200.773016 
L 195.407704 200.691451 
L 195.537592 200.548456 
L 195.862311 200.226206 
L 198.00546 198.210854 
L 198.135348 198.118209 
L 198.395123 197.834671 
L 198.460067 197.838425 
L 198.784787 197.427718 
L 198.979618 197.323885 
L 199.239394 197.031986 
L 199.369282 196.997112 
L 199.694001 196.576945 
L 199.953777 196.407977 
L 200.213553 196.128365 
L 200.473328 195.914352 
L 201.057823 195.316055 
L 201.187711 195.23038 
L 201.51243 194.914935 
L 202.421645 194.062833 
L 202.616477 193.91973 
L 203.460747 193.107147 
L 203.655579 192.87103 
L 204.629738 192.005917 
L 204.759625 191.841295 
L 204.954457 191.773784 
L 206.058503 190.656061 
L 216.904134 180.854195 
L 217.488629 180.334019 
L 217.748405 180.075895 
L 219.307059 178.648521 
L 220.411105 177.692847 
L 220.605936 177.548905 
L 220.930656 177.208987 
L 221.060544 177.147308 
L 222.554253 175.803875 
L 222.943917 175.446409 
L 224.762346 173.926531 
L 225.087065 173.66514 
L 225.541673 173.293951 
L 226.645719 172.325596 
L 226.970438 172.023328 
L 227.16527 171.841164 
L 247.427766 154.333918 
L 247.557654 154.19943 
L 247.947317 153.861583 
L 250.415186 151.764157 
L 250.545073 151.653037 
L 250.674961 151.570087 
L 251.194512 151.106406 
L 256.260136 146.848262 
L 256.844631 146.389917 
L 258.078566 145.311547 
L 258.273397 145.184924 
L 259.377443 144.261246 
L 259.507331 144.181422 
L 259.767107 143.918139 
L 260.026882 143.741921 
L 260.936097 142.972198 
L 261.65048 142.379403 
L 261.780368 142.326403 
L 262.105087 142.021861 
L 262.299919 141.913294 
L 262.81947 141.485433 
L 263.598797 140.786257 
L 263.728685 140.738188 
L 264.053404 140.459148 
L 264.31318 140.28936 
L 264.702843 139.931411 
L 264.897675 139.78137 
L 265.222394 139.538176 
L 266.001721 138.892305 
L 266.261497 138.692606 
L 266.586216 138.40246 
L 267.040823 138.054638 
L 268.599477 136.827421 
L 269.703523 135.899791 
L 270.028243 135.716026 
L 270.352962 135.419972 
L 270.547794 135.268088 
L 272.106447 134.058406 
L 272.366223 133.825225 
L 273.665101 132.803781 
L 274.963979 131.775983 
L 275.548474 131.372608 
L 276.068025 130.936487 
L 276.197913 130.85153 
L 276.522633 130.565908 
L 276.65252 130.485474 
L 277.042184 130.194414 
L 280.938818 127.187846 
L 281.198593 126.958807 
L 281.588257 126.686921 
L 282.107808 126.273634 
L 282.367583 126.06424 
L 282.757247 125.757893 
L 283.796349 124.990228 
L 283.991181 124.846782 
L 285.095227 124.012393 
L 285.419947 123.738207 
L 285.744666 123.483742 
L 287.952759 121.817367 
L 288.667141 121.282376 
L 288.926917 121.131928 
L 289.251637 120.836636 
L 289.446468 120.705845 
L 290.030963 120.282635 
L 290.160851 120.199342 
L 290.485571 119.936897 
L 291.97928 118.845312 
L 292.304 118.590897 
L 292.563775 118.36041 
L 293.278158 117.881315 
L 293.47299 117.762392 
L 293.992541 117.355484 
L 294.187373 117.228404 
L 308.79975 106.652787 
L 308.994581 106.530002 
L 311.592337 104.674601 
L 312.176832 104.252623 
L 312.63144 103.956302 
L 314.774588 102.472803 
L 315.229196 102.149912 
L 317.372344 100.692105 
L 317.567176 100.544072 
L 319.385605 99.298532 
L 320.554595 98.509888 
L 321.398866 97.949368 
L 321.658642 97.786099 
L 342.245857 84.676974 
L 342.895296 84.269291 
L 343.479791 83.898533 
L 345.62294 82.606004 
L 345.882715 82.467132 
L 346.077547 82.374678 
L 346.402267 82.155524 
L 348.090808 81.139061 
L 348.675303 80.804035 
L 348.935079 80.688175 
L 350.558676 79.679794 
L 351.143171 79.340854 
L 352.052386 78.765925 
L 352.442049 78.552325 
L 352.766769 78.373795 
L 353.091488 78.204262 
L 353.221376 78.167895 
L 353.546095 77.923646 
L 354.195534 77.52623 
L 354.520254 77.39718 
L 355.299581 76.906852 
L 355.6243 76.729416 
L 356.013964 76.489156 
L 361.209475 73.514788 
L 361.729027 73.229928 
L 362.183634 72.954268 
L 362.573297 72.745166 
L 363.027904 72.479824 
L 363.547456 72.171025 
L 365.041165 71.34224 
L 366.145212 70.724642 
L 366.469931 70.579048 
L 366.859594 70.317645 
L 367.11937 70.188087 
L 367.638921 69.884421 
L 368.353304 69.538239 
L 368.742968 69.278284 
L 369.002743 69.138307 
L 369.522294 68.861605 
L 370.561397 68.292673 
L 371.340723 67.864049 
L 379.328823 63.5049 
L 379.523655 63.384313 
L 380.432869 62.924355 
L 380.757589 62.771569 
L 381.27714 62.489225 
L 382.12141 62.026979 
L 384.849054 60.57221 
L 385.433549 60.285902 
L 386.147932 59.8771 
L 386.472652 59.743984 
L 387.057147 59.393228 
L 387.706586 59.075813 
L 388.161193 58.845974 
L 388.550856 58.641649 
L 390.369285 57.687678 
L 390.823893 57.43179 
L 391.60322 57.085251 
L 391.798051 56.965147 
L 391.992883 56.890203 
L 393.551536 56.053007 
L 393.811312 55.919179 
L 398.487273 53.568 
L 398.487273 53.568 
" clip-path="url(#pf72b9c5067)" style="fill: none; stroke: #008000; stroke-width: 1.5; stroke-linecap: square"/>
   </g>
   <g id="line2d_17">
    <path d="M 73.832727 269.945472 
L 74.222391 270.092657 
L 74.676998 270.231185 
L 75.131605 270.648701 
L 76.365539 272.384979 
L 77.859249 275.89118 
L 79.093183 278.870569 
L 79.87251 280.3026 
L 80.651837 281.282673 
L 81.236332 281.775816 
L 82.53521 282.313727 
L 84.353639 282.313919 
L 86.04218 281.956587 
L 87.665778 281.430801 
L 99.290735 276.180317 
L 99.485567 276.037681 
L 99.745343 275.927548 
L 100.264894 275.637025 
L 101.628716 274.931456 
L 102.018379 274.708522 
L 102.343098 274.557998 
L 102.53793 274.381173 
L 102.602874 274.427289 
L 102.797706 274.235457 
L 102.927594 274.202942 
L 103.382201 273.97995 
L 103.577032 273.829785 
L 103.641976 273.868299 
L 103.901752 273.660774 
L 104.03164 273.604296 
L 104.291415 273.536808 
L 104.486247 273.355709 
L 104.616135 273.309305 
L 112.86401 268.65878 
L 112.928954 268.749493 
L 112.993898 268.695959 
L 113.188729 268.586796 
L 113.253673 268.655238 
L 113.383561 268.48073 
L 113.578393 268.449067 
L 113.708281 268.322438 
L 113.773224 268.329999 
L 113.968056 268.149935 
L 114.097944 268.049949 
L 114.227832 267.915124 
L 114.35772 267.904695 
L 114.747383 267.655039 
L 114.812327 267.743103 
L 115.072102 267.507768 
L 115.137046 267.525033 
L 115.331878 267.346259 
L 115.591654 267.224811 
L 116.046261 266.917794 
L 116.111205 266.996366 
L 116.241093 266.770059 
L 116.37098 266.761835 
L 116.435924 266.737228 
L 116.500868 266.557777 
L 116.565812 266.65865 
L 117.410083 266.153299 
L 117.604914 266.032236 
L 118.124466 265.713598 
L 118.514129 265.494766 
L 118.838848 265.28575 
L 118.903792 265.232334 
L 118.968736 265.330258 
L 119.098624 265.116016 
L 119.293456 265.081543 
L 119.423344 264.922435 
L 119.488287 264.977456 
L 119.748063 264.76093 
L 119.813007 264.790797 
L 119.877951 264.603312 
L 119.942895 264.683158 
L 120.20267 264.46505 
L 120.332558 264.437587 
L 120.981997 264.008541 
L 121.111885 264.059101 
L 121.241773 263.868754 
L 121.371661 263.827578 
L 121.436604 263.863608 
L 121.566492 263.683023 
L 121.631436 263.767053 
L 121.761324 263.559981 
L 121.826268 263.592958 
L 121.891212 263.47124 
L 121.956156 263.557128 
L 122.280875 263.274377 
L 122.410763 263.257277 
L 122.670538 263.07809 
L 123.319977 262.720405 
L 124.878631 261.820787 
L 124.943575 261.828814 
L 125.138407 261.679399 
L 125.268294 261.601376 
L 125.463126 261.474445 
L 125.52807 261.488343 
L 125.787846 261.263548 
L 125.852789 261.318737 
L 125.917733 261.18483 
L 125.982677 261.219952 
L 126.372341 261.056956 
L 126.567172 260.916867 
L 126.69706 260.899462 
L 126.891892 260.767185 
L 129.554592 259.223888 
L 129.684479 259.164747 
L 129.814367 259.125862 
L 130.204031 258.862883 
L 131.243133 258.216335 
L 131.308077 258.292112 
L 131.373021 258.209038 
L 131.567852 258.044928 
L 131.762684 257.917555 
L 131.827628 257.835829 
L 131.892572 257.948782 
L 131.957516 257.904286 
L 132.412123 257.586773 
L 132.606955 257.519317 
L 132.736843 257.435271 
L 132.86673 257.394962 
L 132.996618 257.178808 
L 133.061562 257.249438 
L 133.19145 257.191816 
L 133.775945 256.753742 
L 133.840889 256.816164 
L 133.905833 256.747569 
L 134.425384 256.380214 
L 134.555272 256.392534 
L 135.204711 256.065691 
L 135.334599 255.785317 
L 135.52943 255.891478 
L 135.594374 255.641826 
L 135.659318 255.663491 
L 135.724262 255.754121 
L 135.984038 255.455958 
L 136.048981 255.544895 
L 136.178869 255.313299 
L 136.243813 255.373698 
L 136.373701 255.334462 
L 136.568533 255.157464 
L 136.69842 255.104769 
L 136.763364 254.940382 
L 136.828308 255.037455 
L 136.893252 255.046864 
L 137.02314 254.822898 
L 137.088084 254.861127 
L 137.282915 254.758316 
L 137.347859 254.627424 
L 137.412803 254.678378 
L 137.542691 254.572344 
L 138.062242 254.268151 
L 138.19213 254.186853 
L 138.257074 254.090183 
L 138.322018 254.138612 
L 138.581793 253.92382 
L 138.646737 253.852122 
L 138.711681 253.924351 
L 138.841569 253.82926 
L 139.101345 253.662694 
L 139.880671 253.176616 
L 140.010559 253.112031 
L 140.465166 252.81179 
L 140.659998 252.76413 
L 140.919774 252.600731 
L 141.828988 252.033089 
L 141.958876 252.066431 
L 142.283596 251.756994 
L 142.608315 251.558149 
L 142.673259 251.477001 
L 142.738203 251.531049 
L 142.933035 251.413689 
L 143.127866 251.316657 
L 144.166969 250.760137 
L 144.3618 250.639938 
L 145.595734 249.860935 
L 145.725622 249.724223 
L 145.920454 249.710011 
L 146.050342 249.520382 
L 146.245173 249.485826 
L 146.634837 249.21683 
L 146.829668 249.10361 
L 147.0245 248.953397 
L 148.51821 247.991453 
L 148.583154 248.015484 
L 148.777985 247.835163 
L 148.972817 247.708204 
L 150.141807 246.912422 
L 150.336639 246.733647 
L 150.466527 246.720794 
L 150.986078 246.305189 
L 151.570573 245.869589 
L 151.700461 245.795909 
L 154.038441 244.197792 
L 154.233273 244.040425 
L 154.363161 243.967361 
L 154.557992 243.829722 
L 158.129907 241.301287 
L 158.194851 241.136906 
L 158.259795 241.168349 
L 159.428785 240.312588 
L 159.558672 240.238031 
L 159.753504 240.015663 
L 160.01328 239.937987 
L 160.208111 239.727004 
L 160.337999 239.622453 
L 160.727663 239.312841 
L 160.85755 239.307961 
L 161.052382 239.112265 
L 161.18227 239.096629 
L 161.312158 238.939644 
L 161.442046 238.8759 
L 171.573294 231.404743 
L 171.768125 231.25237 
L 172.67734 230.541009 
L 172.807228 230.432049 
L 173.067003 230.240634 
L 176.249254 227.834524 
L 176.379142 227.73989 
L 177.158469 227.120367 
L 177.483188 226.858919 
L 177.67802 226.700866 
L 178.522291 226.02718 
L 178.652178 225.989092 
L 178.911954 225.764723 
L 179.17173 225.580958 
L 179.366561 225.423261 
L 179.496449 225.329809 
L 179.756225 225.098083 
L 179.886112 225.028653 
L 179.951056 224.872906 
L 180.016 224.926783 
L 182.353981 223.140978 
L 182.613756 222.830844 
L 182.743644 222.78463 
L 183.068363 222.559809 
L 184.17241 221.707651 
L 184.302298 221.628729 
L 184.562073 221.402645 
L 184.756905 221.236288 
L 185.3414 220.823865 
L 185.601176 220.565671 
L 185.731063 220.523573 
L 185.860951 220.407834 
L 186.055783 220.280188 
L 186.640278 219.793831 
L 186.770166 219.748926 
L 187.094885 219.461029 
L 187.289717 219.334413 
L 187.549492 219.108233 
L 187.809268 218.930732 
L 188.0041 218.769897 
L 188.718483 218.232249 
L 188.84837 218.121624 
L 188.978258 218.047061 
L 195.018041 213.559117 
L 195.147928 213.492889 
L 195.407704 213.283717 
L 195.537592 213.174699 
L 195.797367 212.921842 
L 195.927255 212.891244 
L 208.980979 203.633239 
L 209.110867 203.61301 
L 209.370642 203.36298 
L 209.50053 203.343462 
L 209.760306 203.086837 
L 209.890193 203.089232 
L 210.214913 202.800401 
L 211.513791 201.961496 
L 211.643679 201.812942 
L 211.773566 201.76545 
L 212.358061 201.345391 
L 212.617837 201.195947 
L 212.877613 201.015549 
L 213.656939 200.461554 
L 213.981659 200.263532 
L 214.760986 199.708756 
L 215.410425 199.337535 
L 215.6702 199.152436 
L 216.189751 198.830034 
L 216.83919 198.389879 
L 217.034022 198.27379 
L 217.943237 197.668924 
L 218.203012 197.516392 
L 218.3329 197.39726 
L 218.65762 197.243204 
L 220.476049 196.027816 
L 220.605936 195.927872 
L 220.930656 195.676176 
L 221.060544 195.63366 
L 222.619197 194.634319 
L 222.814029 194.529291 
L 223.6583 193.985303 
L 223.788187 193.922754 
L 224.242795 193.581451 
L 224.372683 193.587087 
L 224.632458 193.365506 
L 225.606617 192.819587 
L 226.061224 192.505387 
L 226.256056 192.350378 
L 227.619877 191.501034 
L 227.944597 191.242744 
L 228.269316 191.078166 
L 229.373363 190.313538 
L 229.568194 190.197602 
L 229.82797 189.993487 
L 229.957858 189.951224 
L 230.412465 189.635131 
L 230.542353 189.528141 
L 231.776287 188.721993 
L 232.555614 188.205807 
L 233.464828 187.632759 
L 234.82865 186.763427 
L 235.15337 186.552063 
L 235.283257 186.501045 
L 235.607977 186.271905 
L 235.867752 186.066411 
L 236.387304 185.755554 
L 236.647079 185.575957 
L 236.971799 185.364186 
L 237.16663 185.229431 
L 237.881013 184.764428 
L 238.010901 184.743131 
L 238.335621 184.468983 
L 238.465508 184.432375 
L 238.725284 184.250631 
L 238.920116 184.136753 
L 242.556974 181.830149 
L 242.686862 181.719829 
L 242.881693 181.64247 
L 243.206413 181.377052 
L 243.98574 180.894806 
L 244.375403 180.659261 
L 245.024842 180.242912 
L 245.284618 180.04395 
L 245.804169 179.726002 
L 246.258776 179.404127 
L 247.49271 178.672028 
L 247.752486 178.435963 
L 248.142149 178.211002 
L 248.6617 177.883842 
L 248.921476 177.727168 
L 249.246195 177.458967 
L 249.505971 177.305037 
L 250.285298 176.805789 
L 250.415186 176.746589 
L 250.545073 176.655481 
L 250.674961 176.587081 
L 251.194512 176.228865 
L 251.908895 175.77005 
L 252.233615 175.547441 
L 252.363503 175.449713 
L 252.883054 175.142655 
L 253.142829 175.030988 
L 253.337661 174.868507 
L 253.727324 174.628769 
L 254.311819 174.237388 
L 254.766427 173.941042 
L 254.961258 173.845169 
L 255.285978 173.602445 
L 256.584856 172.791781 
L 257.299239 172.341149 
L 257.49407 172.239126 
L 257.623958 172.115693 
L 258.338341 171.698022 
L 258.468229 171.648085 
L 258.728005 171.444205 
L 258.857892 171.435743 
L 259.117668 171.198559 
L 262.429807 169.149863 
L 262.624638 169.052365 
L 265.417226 167.352342 
L 265.677002 167.13601 
L 265.871833 167.030595 
L 266.131609 166.879969 
L 266.456328 166.702939 
L 266.781048 166.4885 
L 267.170711 166.264671 
L 267.495431 166.007296 
L 267.625319 165.994297 
L 267.885094 165.8086 
L 268.664421 165.318197 
L 268.98914 165.140455 
L 269.768467 164.636505 
L 270.158131 164.390643 
L 271.586896 163.547652 
L 272.690943 162.865173 
L 272.950718 162.707749 
L 273.535213 162.341439 
L 273.859933 162.149758 
L 274.379484 161.820336 
L 274.574316 161.733993 
L 275.093867 161.41339 
L 275.353642 161.248393 
L 276.522633 160.525557 
L 276.65252 160.463446 
L 276.97724 160.267013 
L 277.366903 160.044899 
L 278.081286 159.608372 
L 278.795669 159.175288 
L 279.055445 159.04099 
L 279.250276 158.948536 
L 280.354323 158.245879 
L 280.614098 158.139205 
L 281.003761 157.839885 
L 281.328481 157.702221 
L 281.588257 157.537567 
L 282.107808 157.210699 
L 282.237696 157.130062 
L 282.562415 156.920172 
L 282.757247 156.814655 
L 283.796349 156.230501 
L 283.926237 156.168987 
L 284.510732 155.785777 
L 285.614778 155.164977 
L 285.939498 154.945176 
L 286.069386 154.887792 
L 286.394105 154.663848 
L 286.523993 154.633238 
L 286.848712 154.404631 
L 286.9786 154.382991 
L 287.238376 154.212505 
L 287.757927 153.876818 
L 288.277478 153.590408 
L 288.732085 153.347011 
L 288.991861 153.161568 
L 289.31658 153.00952 
L 289.706244 152.770213 
L 290.030963 152.586347 
L 290.160851 152.525596 
L 290.420627 152.33948 
L 290.81029 152.128244 
L 291.589617 151.682809 
L 292.174112 151.326524 
L 294.512092 149.994489 
L 294.836812 149.763989 
L 295.031643 149.687711 
L 296.97996 148.635656 
L 297.30468 148.428333 
L 297.889175 148.114349 
L 298.343782 147.839629 
L 300.681763 146.514113 
L 300.876594 146.408393 
L 304.318621 144.502318 
L 304.64334 144.299392 
L 304.96806 144.14151 
L 305.877274 143.604384 
L 306.396826 143.29885 
L 306.786489 143.114895 
L 307.500872 142.715179 
L 308.280199 142.293722 
L 309.903796 141.379255 
L 314.319981 138.977732 
L 314.839532 138.707333 
L 317.242456 137.384828 
L 317.437288 137.239704 
L 320.229876 135.802102 
L 320.424707 135.703535 
L 326.204714 132.678175 
L 327.438648 132.228102 
L 328.023144 131.834168 
L 328.412807 131.561049 
L 328.607639 131.483042 
L 332.893936 129.239604 
L 333.348543 128.985113 
L 333.673263 128.840383 
L 333.80315 128.746938 
L 333.933038 128.749784 
L 334.257758 128.544189 
L 334.452589 128.447503 
L 336.725626 127.318789 
L 336.920458 127.216335 
L 337.375065 127.004983 
L 339.907877 125.716456 
L 340.167652 125.630508 
L 340.817091 125.277426 
L 341.076867 125.163891 
L 341.46653 124.974904 
L 342.895296 124.267748 
L 343.349903 124.05167 
L 346.986762 122.285357 
L 347.311481 122.151008 
L 351.338003 120.264871 
L 351.532835 120.155161 
L 352.182274 119.82664 
L 352.377105 119.765623 
L 352.636881 119.657539 
L 353.546095 119.225268 
L 353.935759 119.058721 
L 354.065647 119.002672 
L 354.325422 118.859543 
L 354.650142 118.689387 
L 355.169693 118.452991 
L 355.494412 118.332442 
L 356.013964 118.074749 
L 365.885436 113.634506 
L 366.340043 113.436103 
L 367.898697 112.726177 
L 368.28836 112.581282 
L 368.678024 112.386678 
L 370.431509 111.611491 
L 371.016004 111.375095 
L 371.535555 111.121671 
L 376.796011 108.870469 
L 378.549496 108.108624 
L 379.198935 107.818757 
L 381.212196 106.966681 
L 381.407028 106.894431 
L 381.796691 106.716028 
L 382.381186 106.493876 
L 385.9531 104.993439 
L 386.212876 104.89181 
L 387.251978 104.462894 
L 387.576698 104.28866 
L 388.356025 103.984384 
L 388.6158 103.874356 
L 391.213556 102.796977 
L 391.408388 102.736048 
L 391.60322 102.661396 
L 391.798051 102.562538 
L 391.992883 102.506488 
L 393.61648 101.830922 
L 393.9412 101.681884 
L 394.525695 101.472858 
L 394.915358 101.293808 
L 395.11019 101.194212 
L 395.629741 100.982416 
L 395.954461 100.867725 
L 396.149292 100.815717 
L 398.487273 99.862101 
L 398.487273 99.862101 
" clip-path="url(#pf72b9c5067)" style="fill: none; stroke: #ff0000; stroke-width: 1.5; stroke-linecap: square"/>
   </g>
   <g id="patch_3">
    <path d="M 57.6 307.584 
L 57.6 41.472 
" style="fill: none; stroke: #000000; stroke-width: 0.8; stroke-linejoin: miter; stroke-linecap: square"/>
   </g>
   <g id="patch_4">
    <path d="M 414.72 307.584 
L 414.72 41.472 
" style="fill: none; stroke: #000000; stroke-width: 0.8; stroke-linejoin: miter; stroke-linecap: square"/>
   </g>
   <g id="patch_5">
    <path d="M 57.6 307.584 
L 414.72 307.584 
" style="fill: none; stroke: #000000; stroke-width: 0.8; stroke-linejoin: miter; stroke-linecap: square"/>
   </g>
   <g id="patch_6">
    <path d="M 57.6 41.472 
L 414.72 41.472 
" style="fill: none; stroke: #000000; stroke-width: 0.8; stroke-linejoin: miter; stroke-linecap: square"/>
   </g>
   <g id="text_17">
    <!-- Script19_loss -->
    <g transform="translate(196.532813 35.472) scale(0.12 -0.12)">
     <defs>
      <path id="DejaVuSans-53" d="M 3425 4513 
L 3425 3897 
Q 3066 4069 2747 4153 
Q 2428 4238 2131 4238 
Q 1616 4238 1336 4038 
Q 1056 3838 1056 3469 
Q 1056 3159 1242 3001 
Q 1428 2844 1947 2747 
L 2328 2669 
Q 3034 2534 3370 2195 
Q 3706 1856 3706 1288 
Q 3706 609 3251 259 
Q 2797 -91 1919 -91 
Q 1588 -91 1214 -16 
Q 841 59 441 206 
L 441 856 
Q 825 641 1194 531 
Q 1563 422 1919 422 
Q 2459 422 2753 634 
Q 3047 847 3047 1241 
Q 3047 1584 2836 1778 
Q 2625 1972 2144 2069 
L 1759 2144 
Q 1053 2284 737 2584 
Q 422 2884 422 3419 
Q 422 4038 858 4394 
Q 1294 4750 2059 4750 
Q 2388 4750 2728 4690 
Q 3069 4631 3425 4513 
z
" transform="scale(0.015625)"/>
      <path id="DejaVuSans-72" d="M 2631 2963 
Q 2534 3019 2420 3045 
Q 2306 3072 2169 3072 
Q 1681 3072 1420 2755 
Q 1159 2438 1159 1844 
L 1159 0 
L 581 0 
L 581 3500 
L 1159 3500 
L 1159 2956 
Q 1341 3275 1631 3429 
Q 1922 3584 2338 3584 
Q 2397 3584 2469 3576 
Q 2541 3569 2628 3553 
L 2631 2963 
z
" transform="scale(0.015625)"/>
      <path id="DejaVuSans-69" d="M 603 3500 
L 1178 3500 
L 1178 0 
L 603 0 
L 603 3500 
z
M 603 4863 
L 1178 4863 
L 1178 4134 
L 603 4134 
L 603 4863 
z
" transform="scale(0.015625)"/>
      <path id="DejaVuSans-74" d="M 1172 4494 
L 1172 3500 
L 2356 3500 
L 2356 3053 
L 1172 3053 
L 1172 1153 
Q 1172 725 1289 603 
Q 1406 481 1766 481 
L 2356 481 
L 2356 0 
L 1766 0 
Q 1100 0 847 248 
Q 594 497 594 1153 
L 594 3053 
L 172 3053 
L 172 3500 
L 594 3500 
L 594 4494 
L 1172 4494 
z
" transform="scale(0.015625)"/>
      <path id="DejaVuSans-39" d="M 703 97 
L 703 672 
Q 941 559 1184 500 
Q 1428 441 1663 441 
Q 2288 441 2617 861 
Q 2947 1281 2994 2138 
Q 2813 1869 2534 1725 
Q 2256 1581 1919 1581 
Q 1219 1581 811 2004 
Q 403 2428 403 3163 
Q 403 3881 828 4315 
Q 1253 4750 1959 4750 
Q 2769 4750 3195 4129 
Q 3622 3509 3622 2328 
Q 3622 1225 3098 567 
Q 2575 -91 1691 -91 
Q 1453 -91 1209 -44 
Q 966 3 703 97 
z
M 1959 2075 
Q 2384 2075 2632 2365 
Q 2881 2656 2881 3163 
Q 2881 3666 2632 3958 
Q 2384 4250 1959 4250 
Q 1534 4250 1286 3958 
Q 1038 3666 1038 3163 
Q 1038 2656 1286 2365 
Q 1534 2075 1959 2075 
z
" transform="scale(0.015625)"/>
      <path id="DejaVuSans-5f" d="M 3263 -1063 
L 3263 -1509 
L -63 -1509 
L -63 -1063 
L 3263 -1063 
z
" transform="scale(0.015625)"/>
     </defs>
     <use xlink:href="#DejaVuSans-53"/>
     <use xlink:href="#DejaVuSans-63" x="63.476562"/>
     <use xlink:href="#DejaVuSans-72" x="118.457031"/>
     <use xlink:href="#DejaVuSans-69" x="159.570312"/>
     <use xlink:href="#DejaVuSans-70" x="187.353516"/>
     <use xlink:href="#DejaVuSans-74" x="250.830078"/>
     <use xlink:href="#DejaVuSans-31" x="290.039062"/>
     <use xlink:href="#DejaVuSans-39" x="353.662109"/>
     <use xlink:href="#DejaVuSans-5f" x="417.285156"/>
     <use xlink:href="#DejaVuSans-6c" x="467.285156"/>
     <use xlink:href="#DejaVuSans-6f" x="495.068359"/>
     <use xlink:href="#DejaVuSans-73" x="556.25"/>
     <use xlink:href="#DejaVuSans-73" x="608.349609"/>
    </g>
   </g>
   <g id="legend_1">
    <g id="patch_7">
     <path d="M 64.6 93.506375 
L 164.295312 93.506375 
Q 166.295312 93.506375 166.295312 91.506375 
L 166.295312 48.472 
Q 166.295312 46.472 164.295312 46.472 
L 64.6 46.472 
Q 62.6 46.472 62.6 48.472 
L 62.6 91.506375 
Q 62.6 93.506375 64.6 93.506375 
z
" style="fill: #ffffff; opacity: 0.8; stroke: #cccccc; stroke-linejoin: miter"/>
    </g>
    <g id="line2d_18">
     <path d="M 66.6 54.570438 
L 76.6 54.570438 
L 86.6 54.570438 
" style="fill: none; stroke: #0000ff; stroke-width: 1.5; stroke-linecap: square"/>
    </g>
    <g id="text_18">
     <!-- training set -->
     <g transform="translate(94.6 58.070438) scale(0.1 -0.1)">
      <defs>
       <path id="DejaVuSans-61" d="M 2194 1759 
Q 1497 1759 1228 1600 
Q 959 1441 959 1056 
Q 959 750 1161 570 
Q 1363 391 1709 391 
Q 2188 391 2477 730 
Q 2766 1069 2766 1631 
L 2766 1759 
L 2194 1759 
z
M 3341 1997 
L 3341 0 
L 2766 0 
L 2766 531 
Q 2569 213 2275 61 
Q 1981 -91 1556 -91 
Q 1019 -91 701 211 
Q 384 513 384 1019 
Q 384 1609 779 1909 
Q 1175 2209 1959 2209 
L 2766 2209 
L 2766 2266 
Q 2766 2663 2505 2880 
Q 2244 3097 1772 3097 
Q 1472 3097 1187 3025 
Q 903 2953 641 2809 
L 641 3341 
Q 956 3463 1253 3523 
Q 1550 3584 1831 3584 
Q 2591 3584 2966 3190 
Q 3341 2797 3341 1997 
z
" transform="scale(0.015625)"/>
       <path id="DejaVuSans-6e" d="M 3513 2113 
L 3513 0 
L 2938 0 
L 2938 2094 
Q 2938 2591 2744 2837 
Q 2550 3084 2163 3084 
Q 1697 3084 1428 2787 
Q 1159 2491 1159 1978 
L 1159 0 
L 581 0 
L 581 3500 
L 1159 3500 
L 1159 2956 
Q 1366 3272 1645 3428 
Q 1925 3584 2291 3584 
Q 2894 3584 3203 3211 
Q 3513 2838 3513 2113 
z
" transform="scale(0.015625)"/>
       <path id="DejaVuSans-67" d="M 2906 1791 
Q 2906 2416 2648 2759 
Q 2391 3103 1925 3103 
Q 1463 3103 1205 2759 
Q 947 2416 947 1791 
Q 947 1169 1205 825 
Q 1463 481 1925 481 
Q 2391 481 2648 825 
Q 2906 1169 2906 1791 
z
M 3481 434 
Q 3481 -459 3084 -895 
Q 2688 -1331 1869 -1331 
Q 1566 -1331 1297 -1286 
Q 1028 -1241 775 -1147 
L 775 -588 
Q 1028 -725 1275 -790 
Q 1522 -856 1778 -856 
Q 2344 -856 2625 -561 
Q 2906 -266 2906 331 
L 2906 616 
Q 2728 306 2450 153 
Q 2172 0 1784 0 
Q 1141 0 747 490 
Q 353 981 353 1791 
Q 353 2603 747 3093 
Q 1141 3584 1784 3584 
Q 2172 3584 2450 3431 
Q 2728 3278 2906 2969 
L 2906 3500 
L 3481 3500 
L 3481 434 
z
" transform="scale(0.015625)"/>
       <path id="DejaVuSans-20" transform="scale(0.015625)"/>
      </defs>
      <use xlink:href="#DejaVuSans-74"/>
      <use xlink:href="#DejaVuSans-72" x="39.208984"/>
      <use xlink:href="#DejaVuSans-61" x="80.322266"/>
      <use xlink:href="#DejaVuSans-69" x="141.601562"/>
      <use xlink:href="#DejaVuSans-6e" x="169.384766"/>
      <use xlink:href="#DejaVuSans-69" x="232.763672"/>
      <use xlink:href="#DejaVuSans-6e" x="260.546875"/>
      <use xlink:href="#DejaVuSans-67" x="323.925781"/>
      <use xlink:href="#DejaVuSans-20" x="387.402344"/>
      <use xlink:href="#DejaVuSans-73" x="419.189453"/>
      <use xlink:href="#DejaVuSans-65" x="471.289062"/>
      <use xlink:href="#DejaVuSans-74" x="532.8125"/>
     </g>
    </g>
    <g id="line2d_19">
     <path d="M 66.6 69.248563 
L 76.6 69.248563 
L 86.6 69.248563 
" style="fill: none; stroke: #008000; stroke-width: 1.5; stroke-linecap: square"/>
    </g>
    <g id="text_19">
     <!-- validation set -->
     <g transform="translate(94.6 72.748563) scale(0.1 -0.1)">
      <defs>
       <path id="DejaVuSans-76" d="M 191 3500 
L 800 3500 
L 1894 563 
L 2988 3500 
L 3597 3500 
L 2284 0 
L 1503 0 
L 191 3500 
z
" transform="scale(0.015625)"/>
       <path id="DejaVuSans-64" d="M 2906 2969 
L 2906 4863 
L 3481 4863 
L 3481 0 
L 2906 0 
L 2906 525 
Q 2725 213 2448 61 
Q 2172 -91 1784 -91 
Q 1150 -91 751 415 
Q 353 922 353 1747 
Q 353 2572 751 3078 
Q 1150 3584 1784 3584 
Q 2172 3584 2448 3432 
Q 2725 3281 2906 2969 
z
M 947 1747 
Q 947 1113 1208 752 
Q 1469 391 1925 391 
Q 2381 391 2643 752 
Q 2906 1113 2906 1747 
Q 2906 2381 2643 2742 
Q 2381 3103 1925 3103 
Q 1469 3103 1208 2742 
Q 947 2381 947 1747 
z
" transform="scale(0.015625)"/>
      </defs>
      <use xlink:href="#DejaVuSans-76"/>
      <use xlink:href="#DejaVuSans-61" x="59.179688"/>
      <use xlink:href="#DejaVuSans-6c" x="120.458984"/>
      <use xlink:href="#DejaVuSans-69" x="148.242188"/>
      <use xlink:href="#DejaVuSans-64" x="176.025391"/>
      <use xlink:href="#DejaVuSans-61" x="239.501953"/>
      <use xlink:href="#DejaVuSans-74" x="300.78125"/>
      <use xlink:href="#DejaVuSans-69" x="339.990234"/>
      <use xlink:href="#DejaVuSans-6f" x="367.773438"/>
      <use xlink:href="#DejaVuSans-6e" x="428.955078"/>
      <use xlink:href="#DejaVuSans-20" x="492.333984"/>
      <use xlink:href="#DejaVuSans-73" x="524.121094"/>
      <use xlink:href="#DejaVuSans-65" x="576.220703"/>
      <use xlink:href="#DejaVuSans-74" x="637.744141"/>
     </g>
    </g>
    <g id="line2d_20">
     <path d="M 66.6 83.926688 
L 76.6 83.926688 
L 86.6 83.926688 
" style="fill: none; stroke: #ff0000; stroke-width: 1.5; stroke-linecap: square"/>
    </g>
    <g id="text_20">
     <!-- test set -->
     <g transform="translate(94.6 87.426688) scale(0.1 -0.1)">
      <use xlink:href="#DejaVuSans-74"/>
      <use xlink:href="#DejaVuSans-65" x="39.208984"/>
      <use xlink:href="#DejaVuSans-73" x="100.732422"/>
      <use xlink:href="#DejaVuSans-74" x="152.832031"/>
      <use xlink:href="#DejaVuSans-20" x="192.041016"/>
      <use xlink:href="#DejaVuSans-73" x="223.828125"/>
      <use xlink:href="#DejaVuSans-65" x="275.927734"/>
      <use xlink:href="#DejaVuSans-74" x="337.451172"/>
     </g>
    </g>
   </g>
  </g>
 </g>
 <defs>
  <clipPath id="pf72b9c5067">
   <rect x="57.6" y="41.472" width="357.12" height="266.112"/>
  </clipPath>
 </defs>
</svg>
