<?xml version="1.0" encoding="utf-8" standalone="no"?>
<!DOCTYPE svg PUBLIC "-//W3C//DTD SVG 1.1//EN"
  "http://www.w3.org/Graphics/SVG/1.1/DTD/svg11.dtd">
<svg xmlns:xlink="http://www.w3.org/1999/xlink" width="460.8pt" height="345.6pt" viewBox="0 0 460.8 345.6" xmlns="http://www.w3.org/2000/svg" version="1.1">
 <metadata>
  <rdf:RDF xmlns:dc="http://purl.org/dc/elements/1.1/" xmlns:cc="http://creativecommons.org/ns#" xmlns:rdf="http://www.w3.org/1999/02/22-rdf-syntax-ns#">
   <cc:Work>
    <dc:type rdf:resource="http://purl.org/dc/dcmitype/StillImage"/>
    <dc:date>2023-06-14T03:54:27.764677</dc:date>
    <dc:format>image/svg+xml</dc:format>
    <dc:creator>
     <cc:Agent>
      <dc:title>Matplotlib v3.7.1, https://matplotlib.org/</dc:title>
     </cc:Agent>
    </dc:creator>
   </cc:Work>
  </rdf:RDF>
 </metadata>
 <defs>
  <style type="text/css">*{stroke-linejoin: round; stroke-linecap: butt}</style>
 </defs>
 <g id="figure_1">
  <g id="patch_1">
   <path d="M 0 345.6 
L 460.8 345.6 
L 460.8 0 
L 0 0 
z
" style="fill: #ffffff"/>
  </g>
  <g id="axes_1">
   <g id="patch_2">
    <path d="M 57.6 307.584 
L 414.72 307.584 
L 414.72 41.472 
L 57.6 41.472 
z
" style="fill: #ffffff"/>
   </g>
   <g id="matplotlib.axis_1">
    <g id="xtick_1">
     <g id="line2d_1">
      <defs>
       <path id="m8b85af74f5" d="M 0 0 
L 0 3.5 
" style="stroke: #000000; stroke-width: 0.8"/>
      </defs>
      <g>
       <use xlink:href="#m8b85af74f5" x="73.767783" y="307.584" style="stroke: #000000; stroke-width: 0.8"/>
      </g>
     </g>
     <g id="text_1">
      <!-- 0 -->
      <g transform="translate(70.586533 322.182437) scale(0.1 -0.1)">
       <defs>
        <path id="DejaVuSans-30" d="M 2034 4250 
Q 1547 4250 1301 3770 
Q 1056 3291 1056 2328 
Q 1056 1369 1301 889 
Q 1547 409 2034 409 
Q 2525 409 2770 889 
Q 3016 1369 3016 2328 
Q 3016 3291 2770 3770 
Q 2525 4250 2034 4250 
z
M 2034 4750 
Q 2819 4750 3233 4129 
Q 3647 3509 3647 2328 
Q 3647 1150 3233 529 
Q 2819 -91 2034 -91 
Q 1250 -91 836 529 
Q 422 1150 422 2328 
Q 422 3509 836 4129 
Q 1250 4750 2034 4750 
z
" transform="scale(0.015625)"/>
       </defs>
       <use xlink:href="#DejaVuSans-30"/>
      </g>
     </g>
    </g>
    <g id="xtick_2">
     <g id="line2d_2">
      <g>
       <use xlink:href="#m8b85af74f5" x="138.711681" y="307.584" style="stroke: #000000; stroke-width: 0.8"/>
      </g>
     </g>
     <g id="text_2">
      <!-- 1000 -->
      <g transform="translate(125.986681 322.182437) scale(0.1 -0.1)">
       <defs>
        <path id="DejaVuSans-31" d="M 794 531 
L 1825 531 
L 1825 4091 
L 703 3866 
L 703 4441 
L 1819 4666 
L 2450 4666 
L 2450 531 
L 3481 531 
L 3481 0 
L 794 0 
L 794 531 
z
" transform="scale(0.015625)"/>
       </defs>
       <use xlink:href="#DejaVuSans-31"/>
       <use xlink:href="#DejaVuSans-30" x="63.623047"/>
       <use xlink:href="#DejaVuSans-30" x="127.246094"/>
       <use xlink:href="#DejaVuSans-30" x="190.869141"/>
      </g>
     </g>
    </g>
    <g id="xtick_3">
     <g id="line2d_3">
      <g>
       <use xlink:href="#m8b85af74f5" x="203.655579" y="307.584" style="stroke: #000000; stroke-width: 0.8"/>
      </g>
     </g>
     <g id="text_3">
      <!-- 2000 -->
      <g transform="translate(190.930579 322.182437) scale(0.1 -0.1)">
       <defs>
        <path id="DejaVuSans-32" d="M 1228 531 
L 3431 531 
L 3431 0 
L 469 0 
L 469 531 
Q 828 903 1448 1529 
Q 2069 2156 2228 2338 
Q 2531 2678 2651 2914 
Q 2772 3150 2772 3378 
Q 2772 3750 2511 3984 
Q 2250 4219 1831 4219 
Q 1534 4219 1204 4116 
Q 875 4013 500 3803 
L 500 4441 
Q 881 4594 1212 4672 
Q 1544 4750 1819 4750 
Q 2544 4750 2975 4387 
Q 3406 4025 3406 3419 
Q 3406 3131 3298 2873 
Q 3191 2616 2906 2266 
Q 2828 2175 2409 1742 
Q 1991 1309 1228 531 
z
" transform="scale(0.015625)"/>
       </defs>
       <use xlink:href="#DejaVuSans-32"/>
       <use xlink:href="#DejaVuSans-30" x="63.623047"/>
       <use xlink:href="#DejaVuSans-30" x="127.246094"/>
       <use xlink:href="#DejaVuSans-30" x="190.869141"/>
      </g>
     </g>
    </g>
    <g id="xtick_4">
     <g id="line2d_4">
      <g>
       <use xlink:href="#m8b85af74f5" x="268.599477" y="307.584" style="stroke: #000000; stroke-width: 0.8"/>
      </g>
     </g>
     <g id="text_4">
      <!-- 3000 -->
      <g transform="translate(255.874477 322.182437) scale(0.1 -0.1)">
       <defs>
        <path id="DejaVuSans-33" d="M 2597 2516 
Q 3050 2419 3304 2112 
Q 3559 1806 3559 1356 
Q 3559 666 3084 287 
Q 2609 -91 1734 -91 
Q 1441 -91 1130 -33 
Q 819 25 488 141 
L 488 750 
Q 750 597 1062 519 
Q 1375 441 1716 441 
Q 2309 441 2620 675 
Q 2931 909 2931 1356 
Q 2931 1769 2642 2001 
Q 2353 2234 1838 2234 
L 1294 2234 
L 1294 2753 
L 1863 2753 
Q 2328 2753 2575 2939 
Q 2822 3125 2822 3475 
Q 2822 3834 2567 4026 
Q 2313 4219 1838 4219 
Q 1578 4219 1281 4162 
Q 984 4106 628 3988 
L 628 4550 
Q 988 4650 1302 4700 
Q 1616 4750 1894 4750 
Q 2613 4750 3031 4423 
Q 3450 4097 3450 3541 
Q 3450 3153 3228 2886 
Q 3006 2619 2597 2516 
z
" transform="scale(0.015625)"/>
       </defs>
       <use xlink:href="#DejaVuSans-33"/>
       <use xlink:href="#DejaVuSans-30" x="63.623047"/>
       <use xlink:href="#DejaVuSans-30" x="127.246094"/>
       <use xlink:href="#DejaVuSans-30" x="190.869141"/>
      </g>
     </g>
    </g>
    <g id="xtick_5">
     <g id="line2d_5">
      <g>
       <use xlink:href="#m8b85af74f5" x="333.543375" y="307.584" style="stroke: #000000; stroke-width: 0.8"/>
      </g>
     </g>
     <g id="text_5">
      <!-- 4000 -->
      <g transform="translate(320.818375 322.182437) scale(0.1 -0.1)">
       <defs>
        <path id="DejaVuSans-34" d="M 2419 4116 
L 825 1625 
L 2419 1625 
L 2419 4116 
z
M 2253 4666 
L 3047 4666 
L 3047 1625 
L 3713 1625 
L 3713 1100 
L 3047 1100 
L 3047 0 
L 2419 0 
L 2419 1100 
L 313 1100 
L 313 1709 
L 2253 4666 
z
" transform="scale(0.015625)"/>
       </defs>
       <use xlink:href="#DejaVuSans-34"/>
       <use xlink:href="#DejaVuSans-30" x="63.623047"/>
       <use xlink:href="#DejaVuSans-30" x="127.246094"/>
       <use xlink:href="#DejaVuSans-30" x="190.869141"/>
      </g>
     </g>
    </g>
    <g id="xtick_6">
     <g id="line2d_6">
      <g>
       <use xlink:href="#m8b85af74f5" x="398.487273" y="307.584" style="stroke: #000000; stroke-width: 0.8"/>
      </g>
     </g>
     <g id="text_6">
      <!-- 5000 -->
      <g transform="translate(385.762273 322.182437) scale(0.1 -0.1)">
       <defs>
        <path id="DejaVuSans-35" d="M 691 4666 
L 3169 4666 
L 3169 4134 
L 1269 4134 
L 1269 2991 
Q 1406 3038 1543 3061 
Q 1681 3084 1819 3084 
Q 2600 3084 3056 2656 
Q 3513 2228 3513 1497 
Q 3513 744 3044 326 
Q 2575 -91 1722 -91 
Q 1428 -91 1123 -41 
Q 819 9 494 109 
L 494 744 
Q 775 591 1075 516 
Q 1375 441 1709 441 
Q 2250 441 2565 725 
Q 2881 1009 2881 1497 
Q 2881 1984 2565 2268 
Q 2250 2553 1709 2553 
Q 1456 2553 1204 2497 
Q 953 2441 691 2322 
L 691 4666 
z
" transform="scale(0.015625)"/>
       </defs>
       <use xlink:href="#DejaVuSans-35"/>
       <use xlink:href="#DejaVuSans-30" x="63.623047"/>
       <use xlink:href="#DejaVuSans-30" x="127.246094"/>
       <use xlink:href="#DejaVuSans-30" x="190.869141"/>
      </g>
     </g>
    </g>
    <g id="text_7">
     <!-- epoch -->
     <g transform="translate(220.931875 335.860562) scale(0.1 -0.1)">
      <defs>
       <path id="DejaVuSans-65" d="M 3597 1894 
L 3597 1613 
L 953 1613 
Q 991 1019 1311 708 
Q 1631 397 2203 397 
Q 2534 397 2845 478 
Q 3156 559 3463 722 
L 3463 178 
Q 3153 47 2828 -22 
Q 2503 -91 2169 -91 
Q 1331 -91 842 396 
Q 353 884 353 1716 
Q 353 2575 817 3079 
Q 1281 3584 2069 3584 
Q 2775 3584 3186 3129 
Q 3597 2675 3597 1894 
z
M 3022 2063 
Q 3016 2534 2758 2815 
Q 2500 3097 2075 3097 
Q 1594 3097 1305 2825 
Q 1016 2553 972 2059 
L 3022 2063 
z
" transform="scale(0.015625)"/>
       <path id="DejaVuSans-70" d="M 1159 525 
L 1159 -1331 
L 581 -1331 
L 581 3500 
L 1159 3500 
L 1159 2969 
Q 1341 3281 1617 3432 
Q 1894 3584 2278 3584 
Q 2916 3584 3314 3078 
Q 3713 2572 3713 1747 
Q 3713 922 3314 415 
Q 2916 -91 2278 -91 
Q 1894 -91 1617 61 
Q 1341 213 1159 525 
z
M 3116 1747 
Q 3116 2381 2855 2742 
Q 2594 3103 2138 3103 
Q 1681 3103 1420 2742 
Q 1159 2381 1159 1747 
Q 1159 1113 1420 752 
Q 1681 391 2138 391 
Q 2594 391 2855 752 
Q 3116 1113 3116 1747 
z
" transform="scale(0.015625)"/>
       <path id="DejaVuSans-6f" d="M 1959 3097 
Q 1497 3097 1228 2736 
Q 959 2375 959 1747 
Q 959 1119 1226 758 
Q 1494 397 1959 397 
Q 2419 397 2687 759 
Q 2956 1122 2956 1747 
Q 2956 2369 2687 2733 
Q 2419 3097 1959 3097 
z
M 1959 3584 
Q 2709 3584 3137 3096 
Q 3566 2609 3566 1747 
Q 3566 888 3137 398 
Q 2709 -91 1959 -91 
Q 1206 -91 779 398 
Q 353 888 353 1747 
Q 353 2609 779 3096 
Q 1206 3584 1959 3584 
z
" transform="scale(0.015625)"/>
       <path id="DejaVuSans-63" d="M 3122 3366 
L 3122 2828 
Q 2878 2963 2633 3030 
Q 2388 3097 2138 3097 
Q 1578 3097 1268 2742 
Q 959 2388 959 1747 
Q 959 1106 1268 751 
Q 1578 397 2138 397 
Q 2388 397 2633 464 
Q 2878 531 3122 666 
L 3122 134 
Q 2881 22 2623 -34 
Q 2366 -91 2075 -91 
Q 1284 -91 818 406 
Q 353 903 353 1747 
Q 353 2603 823 3093 
Q 1294 3584 2113 3584 
Q 2378 3584 2631 3529 
Q 2884 3475 3122 3366 
z
" transform="scale(0.015625)"/>
       <path id="DejaVuSans-68" d="M 3513 2113 
L 3513 0 
L 2938 0 
L 2938 2094 
Q 2938 2591 2744 2837 
Q 2550 3084 2163 3084 
Q 1697 3084 1428 2787 
Q 1159 2491 1159 1978 
L 1159 0 
L 581 0 
L 581 4863 
L 1159 4863 
L 1159 2956 
Q 1366 3272 1645 3428 
Q 1925 3584 2291 3584 
Q 2894 3584 3203 3211 
Q 3513 2838 3513 2113 
z
" transform="scale(0.015625)"/>
      </defs>
      <use xlink:href="#DejaVuSans-65"/>
      <use xlink:href="#DejaVuSans-70" x="61.523438"/>
      <use xlink:href="#DejaVuSans-6f" x="125"/>
      <use xlink:href="#DejaVuSans-63" x="186.181641"/>
      <use xlink:href="#DejaVuSans-68" x="241.162109"/>
     </g>
    </g>
   </g>
   <g id="matplotlib.axis_2">
    <g id="ytick_1">
     <g id="line2d_7">
      <defs>
       <path id="m60b72e73e1" d="M 0 0 
L -3.5 0 
" style="stroke: #000000; stroke-width: 0.8"/>
      </defs>
      <g>
       <use xlink:href="#m60b72e73e1" x="57.6" y="295.51422" style="stroke: #000000; stroke-width: 0.8"/>
      </g>
     </g>
     <g id="text_8">
      <!-- 0 -->
      <g transform="translate(44.2375 299.313439) scale(0.1 -0.1)">
       <use xlink:href="#DejaVuSans-30"/>
      </g>
     </g>
    </g>
    <g id="ytick_2">
     <g id="line2d_8">
      <g>
       <use xlink:href="#m60b72e73e1" x="57.6" y="236.557165" style="stroke: #000000; stroke-width: 0.8"/>
      </g>
     </g>
     <g id="text_9">
      <!-- 5 -->
      <g transform="translate(44.2375 240.356384) scale(0.1 -0.1)">
       <use xlink:href="#DejaVuSans-35"/>
      </g>
     </g>
    </g>
    <g id="ytick_3">
     <g id="line2d_9">
      <g>
       <use xlink:href="#m60b72e73e1" x="57.6" y="177.60011" style="stroke: #000000; stroke-width: 0.8"/>
      </g>
     </g>
     <g id="text_10">
      <!-- 10 -->
      <g transform="translate(37.875 181.399329) scale(0.1 -0.1)">
       <use xlink:href="#DejaVuSans-31"/>
       <use xlink:href="#DejaVuSans-30" x="63.623047"/>
      </g>
     </g>
    </g>
    <g id="ytick_4">
     <g id="line2d_10">
      <g>
       <use xlink:href="#m60b72e73e1" x="57.6" y="118.643055" style="stroke: #000000; stroke-width: 0.8"/>
      </g>
     </g>
     <g id="text_11">
      <!-- 15 -->
      <g transform="translate(37.875 122.442274) scale(0.1 -0.1)">
       <use xlink:href="#DejaVuSans-31"/>
       <use xlink:href="#DejaVuSans-35" x="63.623047"/>
      </g>
     </g>
    </g>
    <g id="ytick_5">
     <g id="line2d_11">
      <g>
       <use xlink:href="#m60b72e73e1" x="57.6" y="59.686" style="stroke: #000000; stroke-width: 0.8"/>
      </g>
     </g>
     <g id="text_12">
      <!-- 20 -->
      <g transform="translate(37.875 63.485219) scale(0.1 -0.1)">
       <use xlink:href="#DejaVuSans-32"/>
       <use xlink:href="#DejaVuSans-30" x="63.623047"/>
      </g>
     </g>
    </g>
    <g id="text_13">
     <!-- loss -->
     <g transform="translate(31.795313 184.185812) rotate(-90) scale(0.1 -0.1)">
      <defs>
       <path id="DejaVuSans-6c" d="M 603 4863 
L 1178 4863 
L 1178 0 
L 603 0 
L 603 4863 
z
" transform="scale(0.015625)"/>
       <path id="DejaVuSans-73" d="M 2834 3397 
L 2834 2853 
Q 2591 2978 2328 3040 
Q 2066 3103 1784 3103 
Q 1356 3103 1142 2972 
Q 928 2841 928 2578 
Q 928 2378 1081 2264 
Q 1234 2150 1697 2047 
L 1894 2003 
Q 2506 1872 2764 1633 
Q 3022 1394 3022 966 
Q 3022 478 2636 193 
Q 2250 -91 1575 -91 
Q 1294 -91 989 -36 
Q 684 19 347 128 
L 347 722 
Q 666 556 975 473 
Q 1284 391 1588 391 
Q 1994 391 2212 530 
Q 2431 669 2431 922 
Q 2431 1156 2273 1281 
Q 2116 1406 1581 1522 
L 1381 1569 
Q 847 1681 609 1914 
Q 372 2147 372 2553 
Q 372 3047 722 3315 
Q 1072 3584 1716 3584 
Q 2034 3584 2315 3537 
Q 2597 3491 2834 3397 
z
" transform="scale(0.015625)"/>
      </defs>
      <use xlink:href="#DejaVuSans-6c"/>
      <use xlink:href="#DejaVuSans-6f" x="27.783203"/>
      <use xlink:href="#DejaVuSans-73" x="88.964844"/>
      <use xlink:href="#DejaVuSans-73" x="141.064453"/>
     </g>
    </g>
   </g>
   <g id="line2d_12">
    <path d="M 73.832727 272.487597 
L 74.417222 273.09392 
L 75.456325 274.013189 
L 76.170708 275.077225 
L 76.950034 276.675424 
L 78.3788 280.281372 
L 79.742622 283.448114 
L 80.71678 285.174103 
L 81.625995 286.357831 
L 82.600153 287.26024 
L 83.7042 287.974286 
L 85.068022 288.587132 
L 86.951395 289.174012 
L 89.614094 289.752928 
L 93.445784 290.33985 
L 99.355679 290.977067 
L 107.993218 291.654453 
L 117.085363 292.201484 
L 131.437965 292.883948 
L 156.895973 293.862194 
L 202.486589 294.809198 
L 236.647079 295.11553 
L 292.174112 295.373173 
L 372.704545 295.476961 
L 398.487273 295.488 
L 398.487273 295.488 
" clip-path="url(#p7c85bbb93c)" style="fill: none; stroke: #0000ff; stroke-width: 1.5; stroke-linecap: square"/>
   </g>
   <g id="line2d_13">
    <path d="M 73.832727 272.538045 
L 74.222391 272.939063 
L 75.196549 273.641166 
L 76.430483 274.899381 
L 77.20981 276.241844 
L 80.262173 282.026352 
L 81.106444 282.947557 
L 81.885771 283.468956 
L 82.600153 283.743785 
L 83.444424 283.868212 
L 85.652517 283.528464 
L 86.886451 283.081619 
L 88.250273 282.472943 
L 88.769824 282.198832 
L 89.224431 281.952142 
L 91.887131 280.384998 
L 92.017019 280.322937 
L 92.861289 279.823754 
L 93.121065 279.703951 
L 93.250953 279.587238 
L 93.315897 279.596862 
L 93.510728 279.457661 
L 93.770504 279.247738 
L 94.160167 279.047707 
L 94.419943 278.856469 
L 94.549831 278.809471 
L 94.809606 278.625368 
L 95.134326 278.470549 
L 95.394101 278.276237 
L 98.771184 276.185679 
L 99.225791 275.886328 
L 99.615455 275.690885 
L 99.87523 275.510254 
L 102.148267 274.040797 
L 102.667818 273.694875 
L 105.590293 271.755065 
L 105.720181 271.703824 
L 105.979957 271.507835 
L 106.044901 271.523286 
L 106.239732 271.376089 
L 106.759283 270.961587 
L 106.889171 270.914441 
L 115.461766 265.370735 
L 115.591654 265.328253 
L 115.851429 265.169275 
L 116.241093 264.925539 
L 119.293456 263.064582 
L 119.553231 262.883141 
L 119.683119 262.811611 
L 120.137726 262.477452 
L 120.267614 262.465395 
L 120.787165 262.088347 
L 121.306717 261.796937 
L 121.69638 261.5524 
L 122.150987 261.279831 
L 122.280875 261.219976 
L 123.384921 260.570126 
L 124.03436 260.196148 
L 124.488968 259.973435 
L 124.813687 259.803253 
L 125.073463 259.711009 
L 127.086724 258.617971 
L 127.411443 258.370914 
L 127.606275 258.277026 
L 128.125826 257.891137 
L 128.255714 257.865281 
L 128.450545 257.71287 
L 128.580433 257.663163 
L 128.905153 257.457335 
L 129.03504 257.394809 
L 129.294816 257.239232 
L 129.749423 257.01452 
L 130.009199 256.814583 
L 130.463806 256.458868 
L 130.723582 256.355207 
L 131.243133 255.937941 
L 131.373021 255.944581 
L 131.567852 255.733583 
L 131.69774 255.752185 
L 131.892572 255.534465 
L 132.02246 255.546486 
L 132.087404 255.368652 
L 132.152348 255.448231 
L 132.217291 255.430691 
L 132.282235 255.242442 
L 132.347179 255.281007 
L 132.542011 255.197337 
L 132.801787 254.998469 
L 132.996618 254.91297 
L 133.321338 254.693751 
L 133.516169 254.577358 
L 135.659318 253.236515 
L 135.724262 253.275378 
L 135.789206 253.057655 
L 135.85415 253.092428 
L 135.919094 253.124583 
L 136.113925 252.923753 
L 136.373701 252.745813 
L 136.893252 252.311167 
L 136.958196 252.377323 
L 137.088084 252.126915 
L 137.153028 252.167198 
L 137.217972 252.16816 
L 137.347859 251.962173 
L 137.412803 252.0005 
L 137.542691 251.863064 
L 137.607635 251.900289 
L 137.867411 251.618856 
L 137.997298 251.536527 
L 138.062242 251.343695 
L 138.127186 251.386421 
L 138.19213 251.444918 
L 138.386962 251.208258 
L 139.296176 250.606931 
L 139.491008 250.407006 
L 140.140447 249.952918 
L 140.400223 249.760154 
L 141.049662 249.30333 
L 141.114605 249.116039 
L 141.179549 249.187752 
L 141.244493 249.271484 
L 141.374381 248.982525 
L 141.439325 249.018302 
L 142.218652 248.423365 
L 142.34854 248.348882 
L 142.543371 248.179859 
L 142.673259 248.083544 
L 142.868091 247.944824 
L 142.997979 247.911909 
L 143.19281 247.681265 
L 165.988118 231.198281 
L 166.18295 231.11559 
L 166.312838 231.012798 
L 166.50767 230.824559 
L 167.092165 230.398958 
L 167.35194 230.178794 
L 167.871491 229.815795 
L 168.066323 229.613421 
L 168.196211 229.526215 
L 168.391043 229.41757 
L 169.300257 228.647209 
L 169.430145 228.639865 
L 169.624977 228.428715 
L 169.949696 228.194782 
L 170.793967 227.493775 
L 170.923855 227.532042 
L 171.313518 227.114352 
L 174.625657 224.657491 
L 174.950376 224.385757 
L 175.080264 224.351195 
L 175.34004 224.157048 
L 175.469927 223.998271 
L 175.859591 223.763405 
L 175.989479 223.632163 
L 176.379142 223.271013 
L 176.50903 223.288522 
L 176.963637 222.843477 
L 177.158469 222.751126 
L 177.3533 222.540656 
L 177.418244 222.615633 
L 177.483188 222.533842 
L 177.872852 222.131231 
L 178.002739 222.162026 
L 178.262515 221.878749 
L 179.431505 220.984544 
L 179.626337 220.799764 
L 179.756225 220.792235 
L 180.470608 220.124593 
L 180.600495 220.114174 
L 180.860271 219.897221 
L 181.834429 219.151352 
L 191.576014 211.083952 
L 191.770846 210.866414 
L 191.900734 210.790054 
L 192.160509 210.564268 
L 192.615116 210.140021 
L 192.745004 210.096733 
L 193.069724 209.767818 
L 193.978938 209.008094 
L 194.108826 208.898038 
L 194.238714 208.705903 
L 194.368602 208.717463 
L 194.693321 208.379799 
L 200.66816 203.132023 
L 200.798048 203.032734 
L 201.057823 202.797322 
L 201.187711 202.676093 
L 201.382543 202.509592 
L 201.83715 202.127177 
L 202.551533 201.490948 
L 210.734464 194.310775 
L 210.929296 194.095126 
L 211.383903 193.706269 
L 211.773566 193.378697 
L 212.228174 192.945252 
L 212.423005 192.822151 
L 213.656939 191.770481 
L 213.851771 191.544341 
L 213.981659 191.557374 
L 214.241434 191.238337 
L 214.371322 191.117452 
L 214.631098 190.897001 
L 215.150649 190.446284 
L 215.475369 190.150322 
L 215.865032 189.773778 
L 216.124808 189.561548 
L 216.254695 189.447061 
L 216.384583 189.468775 
L 216.644359 189.158847 
L 216.774246 189.039244 
L 217.358742 188.52399 
L 217.878293 188.100036 
L 219.50189 186.60922 
L 219.696722 186.523475 
L 219.891554 186.306893 
L 220.086385 186.102445 
L 225.736504 181.154786 
L 225.931336 181.068524 
L 228.788868 178.464425 
L 228.983699 178.300324 
L 232.750445 174.96304 
L 232.880333 174.897481 
L 233.269997 174.43861 
L 233.724604 174.065496 
L 234.179211 173.66239 
L 234.309099 173.606569 
L 234.633818 173.25599 
L 235.413145 172.591266 
L 236.776967 171.31865 
L 237.036743 171.134376 
L 237.231574 170.935494 
L 237.945957 170.280485 
L 238.205733 170.068267 
L 239.699442 168.736175 
L 240.089106 168.417859 
L 243.66102 165.225109 
L 243.790908 165.167556 
L 244.050684 164.8972 
L 245.15473 163.92465 
L 245.544393 163.573666 
L 246.063944 163.13199 
L 246.258776 162.935031 
L 247.167991 162.149724 
L 247.947317 161.513979 
L 248.466869 160.991641 
L 249.051364 160.603492 
L 249.246195 160.509864 
L 249.635859 160.329593 
L 249.895634 160.152381 
L 252.753166 157.582703 
L 252.947998 157.351851 
L 253.077885 157.312965 
L 253.467549 156.931237 
L 253.66238 156.738978 
L 253.922156 156.511961 
L 254.116988 156.322232 
L 255.350922 155.219385 
L 255.610697 154.973442 
L 255.870473 154.730209 
L 257.688902 153.133677 
L 258.013622 152.848207 
L 259.247556 151.789317 
L 259.507331 151.519579 
L 259.896995 151.181178 
L 260.15677 151.014671 
L 260.286658 150.869114 
L 260.611378 150.591549 
L 261.195873 150.065174 
L 261.780368 149.558501 
L 262.299919 149.088307 
L 262.429807 149.030664 
L 262.949358 148.530243 
L 264.31318 147.37514 
L 264.572955 147.166564 
L 266.456328 145.505406 
L 266.716104 145.355609 
L 267.82015 144.359332 
L 269.963299 142.50117 
L 270.288018 142.253596 
L 270.48285 142.033585 
L 270.937457 141.639464 
L 272.625999 140.241139 
L 272.885774 139.982635 
L 273.14555 139.800868 
L 273.470269 139.521729 
L 274.054764 139.009849 
L 274.31454 138.786037 
L 274.509372 138.593239 
L 274.704203 138.465426 
L 274.963979 138.220877 
L 275.743306 137.604417 
L 275.938137 137.361454 
L 276.132969 137.274496 
L 276.847352 136.60461 
L 277.431847 136.147381 
L 278.016342 135.600709 
L 291.914336 123.935648 
L 292.433888 123.527235 
L 292.758607 123.224976 
L 293.47299 122.631041 
L 293.797709 122.354466 
L 294.317261 121.921943 
L 294.512092 121.787732 
L 295.031643 121.374157 
L 295.161531 121.281171 
L 295.356363 121.06216 
L 295.486251 121.05846 
L 295.746026 120.749331 
L 295.875914 120.714145 
L 296.200634 120.434646 
L 297.239736 119.551799 
L 297.499512 119.333396 
L 298.213894 118.781528 
L 298.863333 118.219708 
L 300.292099 117.10114 
L 300.486931 116.940042 
L 300.876594 116.59034 
L 308.539974 110.615097 
L 308.734806 110.454483 
L 308.994581 110.272311 
L 310.163572 109.329775 
L 310.942898 108.725437 
L 312.566496 107.527445 
L 313.930318 106.477517 
L 314.125149 106.393224 
L 314.384925 106.175697 
L 314.514813 106.105527 
L 314.839532 105.823071 
L 316.13841 104.887181 
L 316.333242 104.758379 
L 316.593018 104.575285 
L 317.112569 104.194006 
L 317.697064 103.722542 
L 317.956839 103.560859 
L 318.281559 103.345986 
L 319.060886 102.76686 
L 320.099988 101.986693 
L 320.814371 101.459295 
L 321.009203 101.293181 
L 321.204034 101.245839 
L 321.723585 100.805253 
L 324.256397 98.989429 
L 324.451229 98.885546 
L 324.711005 98.640491 
L 325.360444 98.177753 
L 325.815051 97.872447 
L 328.80247 95.773244 
L 329.062246 95.589723 
L 329.257078 95.490113 
L 329.581797 95.238244 
L 329.841573 95.084208 
L 330.620899 94.518238 
L 330.880675 94.330916 
L 331.140451 94.169526 
L 334.517533 91.855113 
L 334.907197 91.543487 
L 335.166972 91.340962 
L 335.491692 91.027379 
L 335.62158 91.020924 
L 335.946299 90.84478 
L 336.141131 90.753537 
L 336.400906 90.568486 
L 337.180233 90.057753 
L 338.349223 89.131782 
L 338.608999 88.942076 
L 338.933718 88.78082 
L 339.12855 88.756193 
L 339.648101 88.254501 
L 339.907877 88.132626 
L 340.946979 87.480676 
L 341.336643 87.140757 
L 341.596418 87.125419 
L 341.856194 86.931238 
L 342.440689 86.391942 
L 342.635521 86.303937 
L 342.765408 86.258237 
L 343.025184 86.097768 
L 343.220016 86.054047 
L 343.544735 85.812164 
L 343.739567 85.69373 
L 344.324062 85.300419 
L 345.947659 84.247354 
L 346.142491 84.181997 
L 346.402267 83.984239 
L 346.921818 83.481963 
L 347.181593 83.379317 
L 347.441369 83.279505 
L 347.636201 83.268687 
L 348.610359 82.52853 
L 351.597778 80.725053 
L 351.727666 80.671593 
L 351.987442 80.404228 
L 352.182274 80.376453 
L 352.571937 80.006464 
L 353.611039 79.421356 
L 354.065647 79.12012 
L 354.390366 79.005802 
L 354.909917 78.646744 
L 355.234637 78.325402 
L 355.364525 78.322793 
L 355.689244 78.145007 
L 355.884076 78.076209 
L 356.923178 77.304274 
L 357.312841 77.179969 
L 357.832393 76.706773 
L 358.676663 76.323897 
L 359.715766 75.658633 
L 359.975541 75.618781 
L 360.495092 75.166635 
L 360.754868 75.025193 
L 361.858914 74.366699 
L 362.378466 74.021832 
L 363.027904 73.709127 
L 363.742287 73.18987 
L 363.937119 73.20793 
L 364.261839 72.969465 
L 365.041165 72.503465 
L 365.235997 72.395916 
L 365.430829 72.297746 
L 365.690604 72.056177 
L 365.885436 71.963405 
L 366.080268 71.828013 
L 366.599819 71.575244 
L 366.729707 71.529319 
L 367.11937 71.207145 
L 367.249258 71.149727 
L 367.509033 70.988291 
L 367.703865 71.019148 
L 368.093529 70.666297 
L 368.28836 70.450637 
L 368.483192 70.381884 
L 369.002743 70.174569 
L 369.327463 69.92153 
L 370.431509 69.324052 
L 370.561397 69.286943 
L 370.886116 68.96252 
L 371.080948 68.922194 
L 371.340723 68.725314 
L 371.535555 68.751853 
L 371.860275 68.476121 
L 376.341404 65.854716 
L 376.601179 65.738126 
L 376.990843 65.490934 
L 377.44545 65.218284 
L 377.705225 65.125579 
L 377.900057 64.953573 
L 378.419608 64.651888 
L 378.874216 64.433709 
L 379.198935 64.253944 
L 380.10815 63.73986 
L 380.367925 63.573296 
L 380.692645 63.337305 
L 381.147252 63.093308 
L 381.601859 62.883518 
L 382.381186 62.372245 
L 382.835793 62.164794 
L 383.550176 61.757787 
L 385.563437 60.62911 
L 385.823213 60.481326 
L 386.992203 59.792986 
L 392.44749 56.858021 
L 392.642322 56.771973 
L 393.031985 56.485536 
L 393.226817 56.381743 
L 393.876256 56.030601 
L 394.330863 55.811658 
L 395.43491 55.198189 
L 395.759629 55.036911 
L 396.474012 54.608088 
L 396.798731 54.461518 
L 396.993563 54.385591 
L 397.707946 53.941632 
L 397.902778 53.897663 
L 398.227497 53.679057 
L 398.422329 53.645682 
L 398.487273 53.568 
L 398.487273 53.568 
" clip-path="url(#p7c85bbb93c)" style="fill: none; stroke: #008000; stroke-width: 1.5; stroke-linecap: square"/>
   </g>
   <g id="line2d_14">
    <path d="M 73.832727 272.51505 
L 74.287335 272.971596 
L 75.066661 273.498446 
L 76.560371 275.053139 
L 77.599473 276.964384 
L 80.262173 282.04901 
L 81.171388 283.08525 
L 82.015658 283.67153 
L 82.924873 284.018497 
L 84.418583 284.154482 
L 87.081282 283.691893 
L 88.639936 283.215202 
L 89.094543 283.02997 
L 89.419263 282.925417 
L 91.692299 282.06149 
L 91.822187 282.018233 
L 92.081963 281.90492 
L 92.21185 281.868703 
L 93.056121 281.549581 
L 93.121065 281.559156 
L 93.250953 281.469694 
L 93.315897 281.496653 
L 93.445784 281.397177 
L 93.70556 281.32604 
L 93.835448 281.235308 
L 93.965336 281.179016 
L 94.225111 281.052857 
L 94.354999 281.044613 
L 94.614775 280.889369 
L 94.744662 280.918487 
L 95.004438 280.765707 
L 98.771184 279.135882 
L 99.095904 279.007549 
L 99.355679 278.905047 
L 99.550511 278.813577 
L 100.459725 278.311691 
L 100.654557 278.224474 
L 101.498828 277.776479 
L 101.628716 277.723153 
L 102.53793 277.245342 
L 102.797706 277.152108 
L 103.122425 276.970448 
L 103.836808 276.555271 
L 103.966696 276.520313 
L 104.03164 276.411825 
L 104.096584 276.469891 
L 119.293456 268.228697 
L 119.488287 268.124831 
L 119.748063 267.919083 
L 120.007839 267.838526 
L 120.137726 267.678693 
L 120.20267 267.727601 
L 121.176829 267.117992 
L 121.306717 267.061477 
L 121.761324 266.783859 
L 122.021099 266.661461 
L 123.125146 266.040356 
L 123.319977 265.970501 
L 123.839529 265.682819 
L 124.03436 265.561467 
L 124.683799 265.205133 
L 124.813687 265.181212 
L 125.20335 264.982861 
L 125.917733 264.663479 
L 126.891892 264.180428 
L 127.151667 263.974428 
L 128.710321 263.113341 
L 128.970097 262.980817 
L 129.35976 262.751449 
L 129.749423 262.568915 
L 130.074143 262.321004 
L 130.52875 262.052733 
L 130.788526 261.91798 
L 130.918414 261.801888 
L 130.983357 261.841074 
L 131.243133 261.582719 
L 131.373021 261.595058 
L 131.567852 261.397989 
L 131.69774 261.432872 
L 131.892572 261.212866 
L 132.02246 261.257973 
L 132.087404 261.069341 
L 132.152348 261.153269 
L 132.217291 261.141608 
L 132.282235 260.951489 
L 132.347179 261.009458 
L 132.542011 260.931978 
L 132.86673 260.669277 
L 133.061562 260.643751 
L 133.386282 260.380282 
L 133.516169 260.363561 
L 134.230552 260.004643 
L 134.425384 259.91995 
L 134.68516 259.843764 
L 134.750103 259.724577 
L 134.815047 259.765242 
L 134.879991 259.799202 
L 135.009879 259.628298 
L 135.074823 259.646327 
L 135.334599 259.402296 
L 135.659318 259.283308 
L 135.724262 259.326678 
L 135.789206 259.09512 
L 135.85415 259.137894 
L 135.919094 259.175683 
L 136.113925 258.964946 
L 136.308757 258.837482 
L 136.438645 258.73693 
L 136.503589 258.607763 
L 136.568533 258.673958 
L 136.633477 258.678076 
L 136.828308 258.462155 
L 137.153028 258.257785 
L 137.217972 258.287835 
L 137.347859 258.079102 
L 137.412803 258.123737 
L 137.542691 257.986757 
L 137.607635 258.030841 
L 137.802467 257.825901 
L 138.51685 257.322356 
L 138.841569 257.117466 
L 139.101345 256.910755 
L 140.140447 256.246537 
L 140.400223 256.0794 
L 141.049662 255.675369 
L 141.114605 255.463404 
L 141.179549 255.537962 
L 141.244493 255.642314 
L 141.374381 255.364876 
L 141.504269 255.340612 
L 141.699101 255.22407 
L 141.828988 255.13825 
L 141.958876 254.967835 
L 142.088764 254.975335 
L 142.478427 254.617132 
L 142.608315 254.650943 
L 142.868091 254.413431 
L 142.997979 254.412922 
L 143.19281 254.18832 
L 144.102025 253.628049 
L 144.166969 253.630259 
L 144.296856 253.358463 
L 144.3618 253.438835 
L 144.426744 253.440477 
L 144.556632 253.269376 
L 144.68652 253.228542 
L 144.881352 252.996698 
L 144.946295 253.096035 
L 145.011239 253.086004 
L 145.141127 252.813598 
L 145.206071 252.852124 
L 145.335959 252.783922 
L 145.465847 252.627156 
L 145.595734 252.706685 
L 145.920454 252.367174 
L 146.050342 252.326205 
L 146.245173 252.153038 
L 147.219332 251.538217 
L 147.544051 251.32324 
L 147.803827 251.173913 
L 147.933715 251.084224 
L 148.19349 250.961455 
L 148.388322 250.84665 
L 149.102705 250.324273 
L 149.232593 250.317799 
L 149.427424 250.1119 
L 149.557312 250.10436 
L 149.817088 249.916079 
L 149.882032 249.924845 
L 150.011919 249.707462 
L 150.076863 249.779189 
L 150.141807 249.712471 
L 150.336639 249.554935 
L 151.245854 248.934576 
L 151.375741 248.896668 
L 152.869451 247.90234 
L 152.999339 247.807526 
L 153.064283 247.86622 
L 153.129227 247.792975 
L 153.324058 247.631382 
L 153.453946 247.569348 
L 153.583834 247.383701 
L 153.648778 247.444172 
L 153.713722 247.486831 
L 153.973497 247.216193 
L 157.675299 244.821204 
L 157.805187 244.790161 
L 158.000019 244.632847 
L 158.51957 244.280902 
L 159.948336 243.423823 
L 160.143168 243.275145 
L 162.091484 241.988844 
L 162.221372 242.03906 
L 162.416204 241.748299 
L 162.611036 241.749199 
L 162.740923 241.579554 
L 162.870811 241.553145 
L 163.065643 241.442762 
L 163.260475 241.240681 
L 163.390362 241.215059 
L 163.455306 241.231016 
L 163.715082 241.011049 
L 163.909914 240.81653 
L 164.039801 240.846937 
L 164.169689 240.642702 
L 164.299577 240.662989 
L 164.819128 240.275643 
L 164.949016 240.264111 
L 165.143848 240.06158 
L 165.793287 239.630935 
L 166.118006 239.430957 
L 166.312838 239.345477 
L 166.442726 239.183181 
L 166.572613 239.156924 
L 166.832389 239.012716 
L 167.611716 238.499396 
L 167.806547 238.350865 
L 167.936435 238.209057 
L 170.858911 236.332678 
L 170.923855 236.335781 
L 171.18363 236.088444 
L 173.131947 234.808536 
L 173.261835 234.762105 
L 173.521611 234.542515 
L 173.716442 234.435573 
L 174.235993 234.041846 
L 175.729703 233.056927 
L 176.054423 232.806104 
L 176.249254 232.6921 
L 176.444086 232.593508 
L 176.573974 232.492206 
L 176.768805 232.320841 
L 176.898693 232.278587 
L 177.028581 232.180591 
L 177.158469 232.102837 
L 177.3533 231.884152 
L 177.418244 231.979387 
L 177.483188 231.892035 
L 177.872852 231.55197 
L 178.002739 231.584513 
L 178.262515 231.310733 
L 178.717122 231.072959 
L 179.041842 230.846937 
L 179.366561 230.616895 
L 179.691281 230.389208 
L 180.145888 230.061187 
L 183.717802 227.585721 
L 183.912634 227.448856 
L 184.432185 227.033522 
L 187.419605 224.939779 
L 187.484549 224.797319 
L 187.549492 224.833309 
L 187.67938 224.818781 
L 188.069044 224.44105 
L 188.198931 224.467898 
L 188.458707 224.181646 
L 188.588595 224.140894 
L 188.84837 223.91346 
L 188.978258 223.829881 
L 189.497809 223.443199 
L 190.082304 223.028353 
L 190.471968 222.734995 
L 192.809948 221.048827 
L 193.00478 220.881314 
L 193.524331 220.489279 
L 193.913994 220.170029 
L 194.043882 220.160741 
L 194.563433 219.726818 
L 194.953097 219.470732 
L 195.212872 219.273801 
L 195.862311 218.781459 
L 196.187031 218.495135 
L 196.381863 218.416582 
L 196.576694 218.225031 
L 196.706582 218.17526 
L 197.031302 217.906304 
L 204.629738 212.184606 
L 204.824569 212.029783 
L 205.279177 211.701042 
L 205.34412 211.584424 
L 205.409064 211.623967 
L 206.123447 211.058673 
L 206.578055 210.676939 
L 206.772886 210.592274 
L 207.16255 210.283139 
L 207.747045 209.865386 
L 208.786147 209.056938 
L 208.916035 208.955602 
L 209.110867 208.855374 
L 209.240754 208.702749 
L 209.435586 208.586536 
L 209.955137 208.174586 
L 211.383903 207.100644 
L 211.708622 206.868876 
L 212.487949 206.281501 
L 215.99492 203.646523 
L 216.059864 203.631921 
L 216.254695 203.402806 
L 216.384583 203.436356 
L 216.579415 203.124168 
L 216.709303 203.146664 
L 216.969078 202.920057 
L 217.423685 202.570704 
L 218.008181 202.082062 
L 240.024162 185.657507 
L 240.413825 185.414162 
L 240.673601 185.172638 
L 240.868433 185.013362 
L 241.193152 184.791765 
L 241.387984 184.645532 
L 241.842591 184.327632 
L 243.011581 183.47102 
L 243.141469 183.414131 
L 243.336301 183.224717 
L 243.466189 183.194119 
L 243.66102 183.005571 
L 243.790908 182.968316 
L 244.050684 182.74077 
L 244.570235 182.324665 
L 244.894954 182.103147 
L 245.479449 181.725275 
L 245.869113 181.404586 
L 246.388664 181.074147 
L 246.583496 180.914364 
L 246.843271 180.70327 
L 247.038103 180.575581 
L 247.427766 180.277247 
L 247.687542 180.115361 
L 249.116308 179.231244 
L 249.376083 179.196822 
L 249.830691 178.966398 
L 250.025522 178.824304 
L 250.220354 178.687574 
L 250.415186 178.438628 
L 251.908895 177.340875 
L 252.038783 177.24781 
L 252.233615 177.10792 
L 252.363503 177.056519 
L 252.883054 176.56425 
L 253.142829 176.4566 
L 253.467549 176.211006 
L 253.66238 176.061142 
L 253.922156 175.889675 
L 254.052044 175.799826 
L 254.376763 175.53344 
L 255.610697 174.644296 
L 255.870473 174.428377 
L 258.273397 172.755479 
L 258.468229 172.60359 
L 258.598117 172.5438 
L 259.052724 172.169201 
L 259.247556 172.088843 
L 259.507331 171.864198 
L 259.896995 171.586521 
L 260.091826 171.47263 
L 260.221714 171.451276 
L 260.48149 171.193031 
L 260.741265 171.006496 
L 261.585536 170.408703 
L 262.105087 170.113618 
L 262.364863 169.929321 
L 263.923516 168.832839 
L 265.936777 167.49463 
L 266.391384 167.189639 
L 266.65116 167.021895 
L 266.781048 166.952501 
L 267.105767 166.70793 
L 267.430487 166.502481 
L 267.560375 166.405727 
L 267.885094 166.165666 
L 268.534533 165.705468 
L 270.223074 164.569324 
L 270.352962 164.544607 
L 270.937457 164.092563 
L 273.405325 162.44798 
L 273.665101 162.326645 
L 273.924877 162.117822 
L 274.054764 162.039072 
L 274.31454 161.866155 
L 274.444428 161.780962 
L 274.704203 161.617075 
L 275.093867 161.36281 
L 277.496791 159.767627 
L 277.951398 159.455743 
L 278.211174 159.30851 
L 278.730725 158.951903 
L 279.055445 158.715844 
L 279.250276 158.64636 
L 279.574996 158.377489 
L 279.899715 158.185837 
L 280.289379 157.935857 
L 280.419266 157.865316 
L 280.614098 157.674531 
L 280.743986 157.638827 
L 281.198593 157.322962 
L 281.458369 157.128027 
L 283.276798 155.934195 
L 283.601517 155.728442 
L 284.575676 155.069352 
L 284.835451 154.902991 
L 285.744666 154.298293 
L 285.939498 154.202305 
L 286.264217 153.941867 
L 286.9786 153.464071 
L 290.875234 150.876716 
L 291.13501 150.72305 
L 291.719505 150.319934 
L 291.97928 150.173994 
L 295.226475 147.997582 
L 295.356363 147.923611 
L 295.486251 147.94085 
L 295.746026 147.681244 
L 295.875914 147.665265 
L 296.200634 147.425563 
L 298.213894 146.124722 
L 299.317941 145.419988 
L 299.577716 145.250287 
L 299.707604 145.200291 
L 299.96738 144.989084 
L 300.162211 144.856088 
L 313.280879 136.761738 
L 313.47571 136.638255 
L 313.930318 136.329396 
L 314.190093 136.183107 
L 314.384925 136.093022 
L 314.514813 136.045804 
L 314.839532 135.7957 
L 316.203354 135.043724 
L 316.398186 134.874102 
L 316.593018 134.809937 
L 317.112569 134.494308 
L 317.697064 134.12721 
L 317.956839 133.989198 
L 318.281559 133.819115 
L 319.255717 133.203554 
L 320.424707 132.529272 
L 320.619539 132.429527 
L 320.814371 132.313848 
L 321.009203 132.180447 
L 321.204034 132.142528 
L 321.593698 131.858835 
L 322.762688 131.183304 
L 323.412127 130.784483 
L 326.984041 128.770811 
L 327.243817 128.631382 
L 327.763368 128.344507 
L 328.217975 128.029552 
L 328.80247 127.731432 
L 329.062246 127.582175 
L 329.257078 127.509846 
L 329.581797 127.2954 
L 329.841573 127.176325 
L 330.555956 126.742105 
L 331.530114 126.191395 
L 331.724946 126.086635 
L 331.919777 126.006198 
L 332.439329 125.552411 
L 332.63416 125.439048 
L 333.80315 124.872494 
L 333.997982 124.68912 
L 334.192814 124.625292 
L 334.387646 124.552243 
L 334.582477 124.543787 
L 334.907197 124.316005 
L 335.102028 124.195614 
L 335.491692 123.878872 
L 335.62158 123.890016 
L 335.946299 123.735968 
L 336.141131 123.680125 
L 336.400906 123.5261 
L 337.245177 123.043963 
L 337.569897 122.879547 
L 338.933718 122.061833 
L 339.12855 122.057436 
L 340.232596 121.389439 
L 340.427428 121.327793 
L 341.531474 120.68078 
L 341.661362 120.696703 
L 342.180913 120.33444 
L 343.090128 119.875345 
L 343.28496 119.76918 
L 345.947659 118.328157 
L 346.207435 118.273797 
L 347.376425 117.512443 
L 347.636201 117.548079 
L 348.480471 116.975397 
L 348.675303 116.891542 
L 348.935079 116.807045 
L 349.12991 116.733536 
L 350.104069 116.09544 
L 350.948339 115.707111 
L 351.338003 115.461494 
L 352.182274 115.157076 
L 352.571937 114.834239 
L 353.546095 114.417774 
L 353.870815 114.16722 
L 354.065647 114.102111 
L 354.325422 114.004177 
L 354.520254 113.937954 
L 355.234637 113.443942 
L 355.364525 113.458876 
L 355.689244 113.28651 
L 355.884076 113.242575 
L 356.923178 112.593189 
L 357.312841 112.512359 
L 357.507673 112.387111 
L 358.416888 111.957883 
L 359.001383 111.622214 
L 359.261158 111.432418 
L 359.391046 111.422197 
L 359.715766 111.231512 
L 360.040485 111.169619 
L 360.365205 110.904402 
L 361.079588 110.559141 
L 361.664083 110.281656 
L 362.053746 110.067368 
L 362.313522 109.89544 
L 363.872175 109.231312 
L 364.002063 109.127429 
L 364.976221 108.604968 
L 365.235997 108.525341 
L 365.430829 108.425956 
L 365.62566 108.297244 
L 365.820492 108.123483 
L 366.015324 108.097777 
L 366.275099 107.954086 
L 366.469931 107.933429 
L 366.664763 107.822293 
L 367.573977 107.368674 
L 367.703865 107.379256 
L 368.093529 107.061861 
L 368.223416 106.977815 
L 368.418248 106.833044 
L 368.61308 106.802008 
L 372.055106 105.057005 
L 372.249938 104.981258 
L 373.094209 104.610078 
L 373.353984 104.474393 
L 373.548816 104.436452 
L 373.873535 104.233679 
L 374.328143 104.026476 
L 374.587918 103.864028 
L 374.78275 103.797434 
L 375.107469 103.676459 
L 376.016684 103.188734 
L 376.341404 103.063148 
L 376.536235 102.987423 
L 377.510394 102.526911 
L 377.705225 102.45168 
L 377.900057 102.277718 
L 378.419608 102.049193 
L 378.874216 101.877997 
L 379.198935 101.703967 
L 380.10815 101.293833 
L 380.238037 101.209 
L 380.757589 100.885656 
L 381.471971 100.609857 
L 382.381186 100.132163 
L 382.835793 99.949406 
L 383.680064 99.5621 
L 384.329503 99.224588 
L 384.78411 99.025773 
L 385.563437 98.662779 
L 385.823213 98.542186 
L 387.966361 97.558054 
L 388.291081 97.360746 
L 389.005464 97.093359 
L 389.460071 96.843986 
L 390.044566 96.579612 
L 390.694005 96.249904 
L 391.343444 95.98553 
L 395.175134 94.200877 
L 395.43491 94.091799 
L 395.694685 93.981507 
L 396.798731 93.464094 
L 396.993563 93.408228 
L 397.707946 93.02081 
L 397.902778 92.998567 
L 398.227497 92.804745 
L 398.422329 92.775058 
L 398.487273 92.704056 
L 398.487273 92.704056 
" clip-path="url(#p7c85bbb93c)" style="fill: none; stroke: #ff0000; stroke-width: 1.5; stroke-linecap: square"/>
   </g>
   <g id="patch_3">
    <path d="M 57.6 307.584 
L 57.6 41.472 
" style="fill: none; stroke: #000000; stroke-width: 0.8; stroke-linejoin: miter; stroke-linecap: square"/>
   </g>
   <g id="patch_4">
    <path d="M 414.72 307.584 
L 414.72 41.472 
" style="fill: none; stroke: #000000; stroke-width: 0.8; stroke-linejoin: miter; stroke-linecap: square"/>
   </g>
   <g id="patch_5">
    <path d="M 57.6 307.584 
L 414.72 307.584 
" style="fill: none; stroke: #000000; stroke-width: 0.8; stroke-linejoin: miter; stroke-linecap: square"/>
   </g>
   <g id="patch_6">
    <path d="M 57.6 41.472 
L 414.72 41.472 
" style="fill: none; stroke: #000000; stroke-width: 0.8; stroke-linejoin: miter; stroke-linecap: square"/>
   </g>
   <g id="text_14">
    <!-- Script19_loss -->
    <g transform="translate(196.532813 35.472) scale(0.12 -0.12)">
     <defs>
      <path id="DejaVuSans-53" d="M 3425 4513 
L 3425 3897 
Q 3066 4069 2747 4153 
Q 2428 4238 2131 4238 
Q 1616 4238 1336 4038 
Q 1056 3838 1056 3469 
Q 1056 3159 1242 3001 
Q 1428 2844 1947 2747 
L 2328 2669 
Q 3034 2534 3370 2195 
Q 3706 1856 3706 1288 
Q 3706 609 3251 259 
Q 2797 -91 1919 -91 
Q 1588 -91 1214 -16 
Q 841 59 441 206 
L 441 856 
Q 825 641 1194 531 
Q 1563 422 1919 422 
Q 2459 422 2753 634 
Q 3047 847 3047 1241 
Q 3047 1584 2836 1778 
Q 2625 1972 2144 2069 
L 1759 2144 
Q 1053 2284 737 2584 
Q 422 2884 422 3419 
Q 422 4038 858 4394 
Q 1294 4750 2059 4750 
Q 2388 4750 2728 4690 
Q 3069 4631 3425 4513 
z
" transform="scale(0.015625)"/>
      <path id="DejaVuSans-72" d="M 2631 2963 
Q 2534 3019 2420 3045 
Q 2306 3072 2169 3072 
Q 1681 3072 1420 2755 
Q 1159 2438 1159 1844 
L 1159 0 
L 581 0 
L 581 3500 
L 1159 3500 
L 1159 2956 
Q 1341 3275 1631 3429 
Q 1922 3584 2338 3584 
Q 2397 3584 2469 3576 
Q 2541 3569 2628 3553 
L 2631 2963 
z
" transform="scale(0.015625)"/>
      <path id="DejaVuSans-69" d="M 603 3500 
L 1178 3500 
L 1178 0 
L 603 0 
L 603 3500 
z
M 603 4863 
L 1178 4863 
L 1178 4134 
L 603 4134 
L 603 4863 
z
" transform="scale(0.015625)"/>
      <path id="DejaVuSans-74" d="M 1172 4494 
L 1172 3500 
L 2356 3500 
L 2356 3053 
L 1172 3053 
L 1172 1153 
Q 1172 725 1289 603 
Q 1406 481 1766 481 
L 2356 481 
L 2356 0 
L 1766 0 
Q 1100 0 847 248 
Q 594 497 594 1153 
L 594 3053 
L 172 3053 
L 172 3500 
L 594 3500 
L 594 4494 
L 1172 4494 
z
" transform="scale(0.015625)"/>
      <path id="DejaVuSans-39" d="M 703 97 
L 703 672 
Q 941 559 1184 500 
Q 1428 441 1663 441 
Q 2288 441 2617 861 
Q 2947 1281 2994 2138 
Q 2813 1869 2534 1725 
Q 2256 1581 1919 1581 
Q 1219 1581 811 2004 
Q 403 2428 403 3163 
Q 403 3881 828 4315 
Q 1253 4750 1959 4750 
Q 2769 4750 3195 4129 
Q 3622 3509 3622 2328 
Q 3622 1225 3098 567 
Q 2575 -91 1691 -91 
Q 1453 -91 1209 -44 
Q 966 3 703 97 
z
M 1959 2075 
Q 2384 2075 2632 2365 
Q 2881 2656 2881 3163 
Q 2881 3666 2632 3958 
Q 2384 4250 1959 4250 
Q 1534 4250 1286 3958 
Q 1038 3666 1038 3163 
Q 1038 2656 1286 2365 
Q 1534 2075 1959 2075 
z
" transform="scale(0.015625)"/>
      <path id="DejaVuSans-5f" d="M 3263 -1063 
L 3263 -1509 
L -63 -1509 
L -63 -1063 
L 3263 -1063 
z
" transform="scale(0.015625)"/>
     </defs>
     <use xlink:href="#DejaVuSans-53"/>
     <use xlink:href="#DejaVuSans-63" x="63.476562"/>
     <use xlink:href="#DejaVuSans-72" x="118.457031"/>
     <use xlink:href="#DejaVuSans-69" x="159.570312"/>
     <use xlink:href="#DejaVuSans-70" x="187.353516"/>
     <use xlink:href="#DejaVuSans-74" x="250.830078"/>
     <use xlink:href="#DejaVuSans-31" x="290.039062"/>
     <use xlink:href="#DejaVuSans-39" x="353.662109"/>
     <use xlink:href="#DejaVuSans-5f" x="417.285156"/>
     <use xlink:href="#DejaVuSans-6c" x="467.285156"/>
     <use xlink:href="#DejaVuSans-6f" x="495.068359"/>
     <use xlink:href="#DejaVuSans-73" x="556.25"/>
     <use xlink:href="#DejaVuSans-73" x="608.349609"/>
    </g>
   </g>
   <g id="legend_1">
    <g id="patch_7">
     <path d="M 64.6 93.506375 
L 164.295312 93.506375 
Q 166.295312 93.506375 166.295312 91.506375 
L 166.295312 48.472 
Q 166.295312 46.472 164.295312 46.472 
L 64.6 46.472 
Q 62.6 46.472 62.6 48.472 
L 62.6 91.506375 
Q 62.6 93.506375 64.6 93.506375 
z
" style="fill: #ffffff; opacity: 0.8; stroke: #cccccc; stroke-linejoin: miter"/>
    </g>
    <g id="line2d_15">
     <path d="M 66.6 54.570438 
L 76.6 54.570438 
L 86.6 54.570438 
" style="fill: none; stroke: #0000ff; stroke-width: 1.5; stroke-linecap: square"/>
    </g>
    <g id="text_15">
     <!-- training set -->
     <g transform="translate(94.6 58.070438) scale(0.1 -0.1)">
      <defs>
       <path id="DejaVuSans-61" d="M 2194 1759 
Q 1497 1759 1228 1600 
Q 959 1441 959 1056 
Q 959 750 1161 570 
Q 1363 391 1709 391 
Q 2188 391 2477 730 
Q 2766 1069 2766 1631 
L 2766 1759 
L 2194 1759 
z
M 3341 1997 
L 3341 0 
L 2766 0 
L 2766 531 
Q 2569 213 2275 61 
Q 1981 -91 1556 -91 
Q 1019 -91 701 211 
Q 384 513 384 1019 
Q 384 1609 779 1909 
Q 1175 2209 1959 2209 
L 2766 2209 
L 2766 2266 
Q 2766 2663 2505 2880 
Q 2244 3097 1772 3097 
Q 1472 3097 1187 3025 
Q 903 2953 641 2809 
L 641 3341 
Q 956 3463 1253 3523 
Q 1550 3584 1831 3584 
Q 2591 3584 2966 3190 
Q 3341 2797 3341 1997 
z
" transform="scale(0.015625)"/>
       <path id="DejaVuSans-6e" d="M 3513 2113 
L 3513 0 
L 2938 0 
L 2938 2094 
Q 2938 2591 2744 2837 
Q 2550 3084 2163 3084 
Q 1697 3084 1428 2787 
Q 1159 2491 1159 1978 
L 1159 0 
L 581 0 
L 581 3500 
L 1159 3500 
L 1159 2956 
Q 1366 3272 1645 3428 
Q 1925 3584 2291 3584 
Q 2894 3584 3203 3211 
Q 3513 2838 3513 2113 
z
" transform="scale(0.015625)"/>
       <path id="DejaVuSans-67" d="M 2906 1791 
Q 2906 2416 2648 2759 
Q 2391 3103 1925 3103 
Q 1463 3103 1205 2759 
Q 947 2416 947 1791 
Q 947 1169 1205 825 
Q 1463 481 1925 481 
Q 2391 481 2648 825 
Q 2906 1169 2906 1791 
z
M 3481 434 
Q 3481 -459 3084 -895 
Q 2688 -1331 1869 -1331 
Q 1566 -1331 1297 -1286 
Q 1028 -1241 775 -1147 
L 775 -588 
Q 1028 -725 1275 -790 
Q 1522 -856 1778 -856 
Q 2344 -856 2625 -561 
Q 2906 -266 2906 331 
L 2906 616 
Q 2728 306 2450 153 
Q 2172 0 1784 0 
Q 1141 0 747 490 
Q 353 981 353 1791 
Q 353 2603 747 3093 
Q 1141 3584 1784 3584 
Q 2172 3584 2450 3431 
Q 2728 3278 2906 2969 
L 2906 3500 
L 3481 3500 
L 3481 434 
z
" transform="scale(0.015625)"/>
       <path id="DejaVuSans-20" transform="scale(0.015625)"/>
      </defs>
      <use xlink:href="#DejaVuSans-74"/>
      <use xlink:href="#DejaVuSans-72" x="39.208984"/>
      <use xlink:href="#DejaVuSans-61" x="80.322266"/>
      <use xlink:href="#DejaVuSans-69" x="141.601562"/>
      <use xlink:href="#DejaVuSans-6e" x="169.384766"/>
      <use xlink:href="#DejaVuSans-69" x="232.763672"/>
      <use xlink:href="#DejaVuSans-6e" x="260.546875"/>
      <use xlink:href="#DejaVuSans-67" x="323.925781"/>
      <use xlink:href="#DejaVuSans-20" x="387.402344"/>
      <use xlink:href="#DejaVuSans-73" x="419.189453"/>
      <use xlink:href="#DejaVuSans-65" x="471.289062"/>
      <use xlink:href="#DejaVuSans-74" x="532.8125"/>
     </g>
    </g>
    <g id="line2d_16">
     <path d="M 66.6 69.248563 
L 76.6 69.248563 
L 86.6 69.248563 
" style="fill: none; stroke: #008000; stroke-width: 1.5; stroke-linecap: square"/>
    </g>
    <g id="text_16">
     <!-- validation set -->
     <g transform="translate(94.6 72.748563) scale(0.1 -0.1)">
      <defs>
       <path id="DejaVuSans-76" d="M 191 3500 
L 800 3500 
L 1894 563 
L 2988 3500 
L 3597 3500 
L 2284 0 
L 1503 0 
L 191 3500 
z
" transform="scale(0.015625)"/>
       <path id="DejaVuSans-64" d="M 2906 2969 
L 2906 4863 
L 3481 4863 
L 3481 0 
L 2906 0 
L 2906 525 
Q 2725 213 2448 61 
Q 2172 -91 1784 -91 
Q 1150 -91 751 415 
Q 353 922 353 1747 
Q 353 2572 751 3078 
Q 1150 3584 1784 3584 
Q 2172 3584 2448 3432 
Q 2725 3281 2906 2969 
z
M 947 1747 
Q 947 1113 1208 752 
Q 1469 391 1925 391 
Q 2381 391 2643 752 
Q 2906 1113 2906 1747 
Q 2906 2381 2643 2742 
Q 2381 3103 1925 3103 
Q 1469 3103 1208 2742 
Q 947 2381 947 1747 
z
" transform="scale(0.015625)"/>
      </defs>
      <use xlink:href="#DejaVuSans-76"/>
      <use xlink:href="#DejaVuSans-61" x="59.179688"/>
      <use xlink:href="#DejaVuSans-6c" x="120.458984"/>
      <use xlink:href="#DejaVuSans-69" x="148.242188"/>
      <use xlink:href="#DejaVuSans-64" x="176.025391"/>
      <use xlink:href="#DejaVuSans-61" x="239.501953"/>
      <use xlink:href="#DejaVuSans-74" x="300.78125"/>
      <use xlink:href="#DejaVuSans-69" x="339.990234"/>
      <use xlink:href="#DejaVuSans-6f" x="367.773438"/>
      <use xlink:href="#DejaVuSans-6e" x="428.955078"/>
      <use xlink:href="#DejaVuSans-20" x="492.333984"/>
      <use xlink:href="#DejaVuSans-73" x="524.121094"/>
      <use xlink:href="#DejaVuSans-65" x="576.220703"/>
      <use xlink:href="#DejaVuSans-74" x="637.744141"/>
     </g>
    </g>
    <g id="line2d_17">
     <path d="M 66.6 83.926688 
L 76.6 83.926688 
L 86.6 83.926688 
" style="fill: none; stroke: #ff0000; stroke-width: 1.5; stroke-linecap: square"/>
    </g>
    <g id="text_17">
     <!-- test set -->
     <g transform="translate(94.6 87.426688) scale(0.1 -0.1)">
      <use xlink:href="#DejaVuSans-74"/>
      <use xlink:href="#DejaVuSans-65" x="39.208984"/>
      <use xlink:href="#DejaVuSans-73" x="100.732422"/>
      <use xlink:href="#DejaVuSans-74" x="152.832031"/>
      <use xlink:href="#DejaVuSans-20" x="192.041016"/>
      <use xlink:href="#DejaVuSans-73" x="223.828125"/>
      <use xlink:href="#DejaVuSans-65" x="275.927734"/>
      <use xlink:href="#DejaVuSans-74" x="337.451172"/>
     </g>
    </g>
   </g>
  </g>
 </g>
 <defs>
  <clipPath id="p7c85bbb93c">
   <rect x="57.6" y="41.472" width="357.12" height="266.112"/>
  </clipPath>
 </defs>
</svg>
