<?xml version="1.0" encoding="utf-8" standalone="no"?>
<!DOCTYPE svg PUBLIC "-//W3C//DTD SVG 1.1//EN"
  "http://www.w3.org/Graphics/SVG/1.1/DTD/svg11.dtd">
<svg xmlns:xlink="http://www.w3.org/1999/xlink" width="460.8pt" height="345.6pt" viewBox="0 0 460.8 345.6" xmlns="http://www.w3.org/2000/svg" version="1.1">
 <metadata>
  <rdf:RDF xmlns:dc="http://purl.org/dc/elements/1.1/" xmlns:cc="http://creativecommons.org/ns#" xmlns:rdf="http://www.w3.org/1999/02/22-rdf-syntax-ns#">
   <cc:Work>
    <dc:type rdf:resource="http://purl.org/dc/dcmitype/StillImage"/>
    <dc:date>2023-06-14T04:07:26.705359</dc:date>
    <dc:format>image/svg+xml</dc:format>
    <dc:creator>
     <cc:Agent>
      <dc:title>Matplotlib v3.7.1, https://matplotlib.org/</dc:title>
     </cc:Agent>
    </dc:creator>
   </cc:Work>
  </rdf:RDF>
 </metadata>
 <defs>
  <style type="text/css">*{stroke-linejoin: round; stroke-linecap: butt}</style>
 </defs>
 <g id="figure_1">
  <g id="patch_1">
   <path d="M 0 345.6 
L 460.8 345.6 
L 460.8 0 
L 0 0 
z
" style="fill: #ffffff"/>
  </g>
  <g id="axes_1">
   <g id="patch_2">
    <path d="M 57.6 307.584 
L 414.72 307.584 
L 414.72 41.472 
L 57.6 41.472 
z
" style="fill: #ffffff"/>
   </g>
   <g id="matplotlib.axis_1">
    <g id="xtick_1">
     <g id="line2d_1">
      <defs>
       <path id="m2a96de10f4" d="M 0 0 
L 0 3.5 
" style="stroke: #000000; stroke-width: 0.8"/>
      </defs>
      <g>
       <use xlink:href="#m2a96de10f4" x="73.767783" y="307.584" style="stroke: #000000; stroke-width: 0.8"/>
      </g>
     </g>
     <g id="text_1">
      <!-- 0 -->
      <g transform="translate(70.586533 322.182437) scale(0.1 -0.1)">
       <defs>
        <path id="DejaVuSans-30" d="M 2034 4250 
Q 1547 4250 1301 3770 
Q 1056 3291 1056 2328 
Q 1056 1369 1301 889 
Q 1547 409 2034 409 
Q 2525 409 2770 889 
Q 3016 1369 3016 2328 
Q 3016 3291 2770 3770 
Q 2525 4250 2034 4250 
z
M 2034 4750 
Q 2819 4750 3233 4129 
Q 3647 3509 3647 2328 
Q 3647 1150 3233 529 
Q 2819 -91 2034 -91 
Q 1250 -91 836 529 
Q 422 1150 422 2328 
Q 422 3509 836 4129 
Q 1250 4750 2034 4750 
z
" transform="scale(0.015625)"/>
       </defs>
       <use xlink:href="#DejaVuSans-30"/>
      </g>
     </g>
    </g>
    <g id="xtick_2">
     <g id="line2d_2">
      <g>
       <use xlink:href="#m2a96de10f4" x="138.711681" y="307.584" style="stroke: #000000; stroke-width: 0.8"/>
      </g>
     </g>
     <g id="text_2">
      <!-- 1000 -->
      <g transform="translate(125.986681 322.182437) scale(0.1 -0.1)">
       <defs>
        <path id="DejaVuSans-31" d="M 794 531 
L 1825 531 
L 1825 4091 
L 703 3866 
L 703 4441 
L 1819 4666 
L 2450 4666 
L 2450 531 
L 3481 531 
L 3481 0 
L 794 0 
L 794 531 
z
" transform="scale(0.015625)"/>
       </defs>
       <use xlink:href="#DejaVuSans-31"/>
       <use xlink:href="#DejaVuSans-30" x="63.623047"/>
       <use xlink:href="#DejaVuSans-30" x="127.246094"/>
       <use xlink:href="#DejaVuSans-30" x="190.869141"/>
      </g>
     </g>
    </g>
    <g id="xtick_3">
     <g id="line2d_3">
      <g>
       <use xlink:href="#m2a96de10f4" x="203.655579" y="307.584" style="stroke: #000000; stroke-width: 0.8"/>
      </g>
     </g>
     <g id="text_3">
      <!-- 2000 -->
      <g transform="translate(190.930579 322.182437) scale(0.1 -0.1)">
       <defs>
        <path id="DejaVuSans-32" d="M 1228 531 
L 3431 531 
L 3431 0 
L 469 0 
L 469 531 
Q 828 903 1448 1529 
Q 2069 2156 2228 2338 
Q 2531 2678 2651 2914 
Q 2772 3150 2772 3378 
Q 2772 3750 2511 3984 
Q 2250 4219 1831 4219 
Q 1534 4219 1204 4116 
Q 875 4013 500 3803 
L 500 4441 
Q 881 4594 1212 4672 
Q 1544 4750 1819 4750 
Q 2544 4750 2975 4387 
Q 3406 4025 3406 3419 
Q 3406 3131 3298 2873 
Q 3191 2616 2906 2266 
Q 2828 2175 2409 1742 
Q 1991 1309 1228 531 
z
" transform="scale(0.015625)"/>
       </defs>
       <use xlink:href="#DejaVuSans-32"/>
       <use xlink:href="#DejaVuSans-30" x="63.623047"/>
       <use xlink:href="#DejaVuSans-30" x="127.246094"/>
       <use xlink:href="#DejaVuSans-30" x="190.869141"/>
      </g>
     </g>
    </g>
    <g id="xtick_4">
     <g id="line2d_4">
      <g>
       <use xlink:href="#m2a96de10f4" x="268.599477" y="307.584" style="stroke: #000000; stroke-width: 0.8"/>
      </g>
     </g>
     <g id="text_4">
      <!-- 3000 -->
      <g transform="translate(255.874477 322.182437) scale(0.1 -0.1)">
       <defs>
        <path id="DejaVuSans-33" d="M 2597 2516 
Q 3050 2419 3304 2112 
Q 3559 1806 3559 1356 
Q 3559 666 3084 287 
Q 2609 -91 1734 -91 
Q 1441 -91 1130 -33 
Q 819 25 488 141 
L 488 750 
Q 750 597 1062 519 
Q 1375 441 1716 441 
Q 2309 441 2620 675 
Q 2931 909 2931 1356 
Q 2931 1769 2642 2001 
Q 2353 2234 1838 2234 
L 1294 2234 
L 1294 2753 
L 1863 2753 
Q 2328 2753 2575 2939 
Q 2822 3125 2822 3475 
Q 2822 3834 2567 4026 
Q 2313 4219 1838 4219 
Q 1578 4219 1281 4162 
Q 984 4106 628 3988 
L 628 4550 
Q 988 4650 1302 4700 
Q 1616 4750 1894 4750 
Q 2613 4750 3031 4423 
Q 3450 4097 3450 3541 
Q 3450 3153 3228 2886 
Q 3006 2619 2597 2516 
z
" transform="scale(0.015625)"/>
       </defs>
       <use xlink:href="#DejaVuSans-33"/>
       <use xlink:href="#DejaVuSans-30" x="63.623047"/>
       <use xlink:href="#DejaVuSans-30" x="127.246094"/>
       <use xlink:href="#DejaVuSans-30" x="190.869141"/>
      </g>
     </g>
    </g>
    <g id="xtick_5">
     <g id="line2d_5">
      <g>
       <use xlink:href="#m2a96de10f4" x="333.543375" y="307.584" style="stroke: #000000; stroke-width: 0.8"/>
      </g>
     </g>
     <g id="text_5">
      <!-- 4000 -->
      <g transform="translate(320.818375 322.182437) scale(0.1 -0.1)">
       <defs>
        <path id="DejaVuSans-34" d="M 2419 4116 
L 825 1625 
L 2419 1625 
L 2419 4116 
z
M 2253 4666 
L 3047 4666 
L 3047 1625 
L 3713 1625 
L 3713 1100 
L 3047 1100 
L 3047 0 
L 2419 0 
L 2419 1100 
L 313 1100 
L 313 1709 
L 2253 4666 
z
" transform="scale(0.015625)"/>
       </defs>
       <use xlink:href="#DejaVuSans-34"/>
       <use xlink:href="#DejaVuSans-30" x="63.623047"/>
       <use xlink:href="#DejaVuSans-30" x="127.246094"/>
       <use xlink:href="#DejaVuSans-30" x="190.869141"/>
      </g>
     </g>
    </g>
    <g id="xtick_6">
     <g id="line2d_6">
      <g>
       <use xlink:href="#m2a96de10f4" x="398.487273" y="307.584" style="stroke: #000000; stroke-width: 0.8"/>
      </g>
     </g>
     <g id="text_6">
      <!-- 5000 -->
      <g transform="translate(385.762273 322.182437) scale(0.1 -0.1)">
       <defs>
        <path id="DejaVuSans-35" d="M 691 4666 
L 3169 4666 
L 3169 4134 
L 1269 4134 
L 1269 2991 
Q 1406 3038 1543 3061 
Q 1681 3084 1819 3084 
Q 2600 3084 3056 2656 
Q 3513 2228 3513 1497 
Q 3513 744 3044 326 
Q 2575 -91 1722 -91 
Q 1428 -91 1123 -41 
Q 819 9 494 109 
L 494 744 
Q 775 591 1075 516 
Q 1375 441 1709 441 
Q 2250 441 2565 725 
Q 2881 1009 2881 1497 
Q 2881 1984 2565 2268 
Q 2250 2553 1709 2553 
Q 1456 2553 1204 2497 
Q 953 2441 691 2322 
L 691 4666 
z
" transform="scale(0.015625)"/>
       </defs>
       <use xlink:href="#DejaVuSans-35"/>
       <use xlink:href="#DejaVuSans-30" x="63.623047"/>
       <use xlink:href="#DejaVuSans-30" x="127.246094"/>
       <use xlink:href="#DejaVuSans-30" x="190.869141"/>
      </g>
     </g>
    </g>
    <g id="text_7">
     <!-- epoch -->
     <g transform="translate(220.931875 335.860562) scale(0.1 -0.1)">
      <defs>
       <path id="DejaVuSans-65" d="M 3597 1894 
L 3597 1613 
L 953 1613 
Q 991 1019 1311 708 
Q 1631 397 2203 397 
Q 2534 397 2845 478 
Q 3156 559 3463 722 
L 3463 178 
Q 3153 47 2828 -22 
Q 2503 -91 2169 -91 
Q 1331 -91 842 396 
Q 353 884 353 1716 
Q 353 2575 817 3079 
Q 1281 3584 2069 3584 
Q 2775 3584 3186 3129 
Q 3597 2675 3597 1894 
z
M 3022 2063 
Q 3016 2534 2758 2815 
Q 2500 3097 2075 3097 
Q 1594 3097 1305 2825 
Q 1016 2553 972 2059 
L 3022 2063 
z
" transform="scale(0.015625)"/>
       <path id="DejaVuSans-70" d="M 1159 525 
L 1159 -1331 
L 581 -1331 
L 581 3500 
L 1159 3500 
L 1159 2969 
Q 1341 3281 1617 3432 
Q 1894 3584 2278 3584 
Q 2916 3584 3314 3078 
Q 3713 2572 3713 1747 
Q 3713 922 3314 415 
Q 2916 -91 2278 -91 
Q 1894 -91 1617 61 
Q 1341 213 1159 525 
z
M 3116 1747 
Q 3116 2381 2855 2742 
Q 2594 3103 2138 3103 
Q 1681 3103 1420 2742 
Q 1159 2381 1159 1747 
Q 1159 1113 1420 752 
Q 1681 391 2138 391 
Q 2594 391 2855 752 
Q 3116 1113 3116 1747 
z
" transform="scale(0.015625)"/>
       <path id="DejaVuSans-6f" d="M 1959 3097 
Q 1497 3097 1228 2736 
Q 959 2375 959 1747 
Q 959 1119 1226 758 
Q 1494 397 1959 397 
Q 2419 397 2687 759 
Q 2956 1122 2956 1747 
Q 2956 2369 2687 2733 
Q 2419 3097 1959 3097 
z
M 1959 3584 
Q 2709 3584 3137 3096 
Q 3566 2609 3566 1747 
Q 3566 888 3137 398 
Q 2709 -91 1959 -91 
Q 1206 -91 779 398 
Q 353 888 353 1747 
Q 353 2609 779 3096 
Q 1206 3584 1959 3584 
z
" transform="scale(0.015625)"/>
       <path id="DejaVuSans-63" d="M 3122 3366 
L 3122 2828 
Q 2878 2963 2633 3030 
Q 2388 3097 2138 3097 
Q 1578 3097 1268 2742 
Q 959 2388 959 1747 
Q 959 1106 1268 751 
Q 1578 397 2138 397 
Q 2388 397 2633 464 
Q 2878 531 3122 666 
L 3122 134 
Q 2881 22 2623 -34 
Q 2366 -91 2075 -91 
Q 1284 -91 818 406 
Q 353 903 353 1747 
Q 353 2603 823 3093 
Q 1294 3584 2113 3584 
Q 2378 3584 2631 3529 
Q 2884 3475 3122 3366 
z
" transform="scale(0.015625)"/>
       <path id="DejaVuSans-68" d="M 3513 2113 
L 3513 0 
L 2938 0 
L 2938 2094 
Q 2938 2591 2744 2837 
Q 2550 3084 2163 3084 
Q 1697 3084 1428 2787 
Q 1159 2491 1159 1978 
L 1159 0 
L 581 0 
L 581 4863 
L 1159 4863 
L 1159 2956 
Q 1366 3272 1645 3428 
Q 1925 3584 2291 3584 
Q 2894 3584 3203 3211 
Q 3513 2838 3513 2113 
z
" transform="scale(0.015625)"/>
      </defs>
      <use xlink:href="#DejaVuSans-65"/>
      <use xlink:href="#DejaVuSans-70" x="61.523438"/>
      <use xlink:href="#DejaVuSans-6f" x="125"/>
      <use xlink:href="#DejaVuSans-63" x="186.181641"/>
      <use xlink:href="#DejaVuSans-68" x="241.162109"/>
     </g>
    </g>
   </g>
   <g id="matplotlib.axis_2">
    <g id="ytick_1">
     <g id="line2d_7">
      <defs>
       <path id="m211eba0d87" d="M 0 0 
L -3.5 0 
" style="stroke: #000000; stroke-width: 0.8"/>
      </defs>
      <g>
       <use xlink:href="#m211eba0d87" x="57.6" y="280.670128" style="stroke: #000000; stroke-width: 0.8"/>
      </g>
     </g>
     <g id="text_8">
      <!-- 0.5 -->
      <g transform="translate(34.696875 284.469347) scale(0.1 -0.1)">
       <defs>
        <path id="DejaVuSans-2e" d="M 684 794 
L 1344 794 
L 1344 0 
L 684 0 
L 684 794 
z
" transform="scale(0.015625)"/>
       </defs>
       <use xlink:href="#DejaVuSans-30"/>
       <use xlink:href="#DejaVuSans-2e" x="63.623047"/>
       <use xlink:href="#DejaVuSans-35" x="95.410156"/>
      </g>
     </g>
    </g>
    <g id="ytick_2">
     <g id="line2d_8">
      <g>
       <use xlink:href="#m211eba0d87" x="57.6" y="225.963351" style="stroke: #000000; stroke-width: 0.8"/>
      </g>
     </g>
     <g id="text_9">
      <!-- 1.0 -->
      <g transform="translate(34.696875 229.76257) scale(0.1 -0.1)">
       <use xlink:href="#DejaVuSans-31"/>
       <use xlink:href="#DejaVuSans-2e" x="63.623047"/>
       <use xlink:href="#DejaVuSans-30" x="95.410156"/>
      </g>
     </g>
    </g>
    <g id="ytick_3">
     <g id="line2d_9">
      <g>
       <use xlink:href="#m211eba0d87" x="57.6" y="171.256574" style="stroke: #000000; stroke-width: 0.8"/>
      </g>
     </g>
     <g id="text_10">
      <!-- 1.5 -->
      <g transform="translate(34.696875 175.055793) scale(0.1 -0.1)">
       <use xlink:href="#DejaVuSans-31"/>
       <use xlink:href="#DejaVuSans-2e" x="63.623047"/>
       <use xlink:href="#DejaVuSans-35" x="95.410156"/>
      </g>
     </g>
    </g>
    <g id="ytick_4">
     <g id="line2d_10">
      <g>
       <use xlink:href="#m211eba0d87" x="57.6" y="116.549797" style="stroke: #000000; stroke-width: 0.8"/>
      </g>
     </g>
     <g id="text_11">
      <!-- 2.0 -->
      <g transform="translate(34.696875 120.349016) scale(0.1 -0.1)">
       <use xlink:href="#DejaVuSans-32"/>
       <use xlink:href="#DejaVuSans-2e" x="63.623047"/>
       <use xlink:href="#DejaVuSans-30" x="95.410156"/>
      </g>
     </g>
    </g>
    <g id="ytick_5">
     <g id="line2d_11">
      <g>
       <use xlink:href="#m211eba0d87" x="57.6" y="61.84302" style="stroke: #000000; stroke-width: 0.8"/>
      </g>
     </g>
     <g id="text_12">
      <!-- 2.5 -->
      <g transform="translate(34.696875 65.642239) scale(0.1 -0.1)">
       <use xlink:href="#DejaVuSans-32"/>
       <use xlink:href="#DejaVuSans-2e" x="63.623047"/>
       <use xlink:href="#DejaVuSans-35" x="95.410156"/>
      </g>
     </g>
    </g>
    <g id="text_13">
     <!-- loss -->
     <g transform="translate(28.617188 184.185812) rotate(-90) scale(0.1 -0.1)">
      <defs>
       <path id="DejaVuSans-6c" d="M 603 4863 
L 1178 4863 
L 1178 0 
L 603 0 
L 603 4863 
z
" transform="scale(0.015625)"/>
       <path id="DejaVuSans-73" d="M 2834 3397 
L 2834 2853 
Q 2591 2978 2328 3040 
Q 2066 3103 1784 3103 
Q 1356 3103 1142 2972 
Q 928 2841 928 2578 
Q 928 2378 1081 2264 
Q 1234 2150 1697 2047 
L 1894 2003 
Q 2506 1872 2764 1633 
Q 3022 1394 3022 966 
Q 3022 478 2636 193 
Q 2250 -91 1575 -91 
Q 1294 -91 989 -36 
Q 684 19 347 128 
L 347 722 
Q 666 556 975 473 
Q 1284 391 1588 391 
Q 1994 391 2212 530 
Q 2431 669 2431 922 
Q 2431 1156 2273 1281 
Q 2116 1406 1581 1522 
L 1381 1569 
Q 847 1681 609 1914 
Q 372 2147 372 2553 
Q 372 3047 722 3315 
Q 1072 3584 1716 3584 
Q 2034 3584 2315 3537 
Q 2597 3491 2834 3397 
z
" transform="scale(0.015625)"/>
      </defs>
      <use xlink:href="#DejaVuSans-6c"/>
      <use xlink:href="#DejaVuSans-6f" x="27.783203"/>
      <use xlink:href="#DejaVuSans-73" x="88.964844"/>
      <use xlink:href="#DejaVuSans-73" x="141.064453"/>
     </g>
    </g>
   </g>
   <g id="line2d_12">
    <path d="M 73.832727 211.320253 
L 74.157447 215.0918 
L 74.352278 215.641058 
L 74.482166 215.598733 
L 74.676998 215.489002 
L 74.936774 215.736599 
L 75.586213 216.52529 
L 76.105764 217.056001 
L 77.079922 218.633774 
L 77.924193 220.538903 
L 79.288015 224.269677 
L 82.015658 231.671219 
L 88.445104 248.246641 
L 90.523309 252.750675 
L 92.21185 255.835664 
L 93.770504 258.294865 
L 95.459045 260.567777 
L 97.277474 262.651343 
L 102.018379 266.734319 
L 104.681079 268.395888 
L 107.603554 269.840647 
L 111.240412 271.226791 
L 114.877271 272.283179 
L 123.384921 273.942549 
L 128.060882 274.585751 
L 133.711001 275.266895 
L 147.738883 276.627448 
L 171.703181 279.054536 
L 175.34004 279.444506 
L 183.84769 280.356246 
L 192.030621 281.207918 
L 195.992199 281.594451 
L 196.122087 281.60123 
L 196.251975 281.575059 
L 196.446806 281.646363 
L 196.641638 281.688156 
L 200.018721 282.028506 
L 204.369962 282.363029 
L 204.564794 282.236762 
L 204.824569 282.453487 
L 204.954457 282.411106 
L 205.149289 282.496744 
L 205.279177 282.492838 
L 205.474008 282.527122 
L 206.123447 282.605292 
L 206.902774 282.693151 
L 209.630418 282.949885 
L 213.981659 283.255684 
L 214.241434 283.141433 
L 214.371322 283.384709 
L 214.436266 283.353859 
L 214.566154 283.269372 
L 214.760986 283.387357 
L 214.890873 283.367594 
L 215.085705 283.408908 
L 215.6702 283.481763 
L 221.320319 283.994025 
L 224.567514 284.186812 
L 224.82729 284.026144 
L 225.022122 284.303831 
L 225.216953 284.214219 
L 225.411785 284.294108 
L 225.541673 284.296071 
L 225.736504 284.328 
L 226.385943 284.40099 
L 227.230214 284.486321 
L 232.101006 284.881902 
L 234.438987 284.975822 
L 234.698762 284.990757 
L 234.958538 285.091831 
L 235.218313 285.098561 
L 235.543033 285.124608 
L 237.751125 285.320989 
L 240.543713 285.461587 
L 240.868433 285.432155 
L 241.128208 285.555236 
L 241.32304 285.533516 
L 241.582815 285.591549 
L 242.037423 285.627746 
L 243.98574 285.784499 
L 247.622598 285.981296 
L 247.947317 285.909853 
L 248.207093 286.07072 
L 248.401925 286.035132 
L 248.6617 286.097455 
L 248.98642 286.143562 
L 249.635859 286.182946 
L 250.999681 286.283821 
L 258.273397 286.774014 
L 260.221714 286.902596 
L 261.910256 287.016707 
L 325.035724 290.611053 
L 325.2955 290.690218 
L 325.555275 290.758091 
L 325.944939 290.783907 
L 326.789209 290.839327 
L 329.581797 291.008291 
L 338.349223 291.529872 
L 338.608999 291.072483 
L 338.673943 291.198244 
L 338.803831 291.568982 
L 338.998662 291.339178 
L 339.193494 291.565108 
L 339.323382 291.459919 
L 339.518213 291.589994 
L 339.648101 291.541418 
L 339.842933 291.609093 
L 340.037765 291.633979 
L 341.011923 291.702866 
L 343.025184 291.826088 
L 355.429468 292.555344 
L 355.689244 292.160347 
L 355.884076 292.632269 
L 356.078907 292.432097 
L 356.273739 292.636169 
L 356.403627 292.537889 
L 356.663402 292.625591 
L 356.858234 292.688785 
L 360.235317 292.907019 
L 371.210836 293.535573 
L 371.405667 293.194998 
L 371.535555 293.481963 
L 371.665443 293.633351 
L 371.795331 293.443231 
L 371.860275 293.49514 
L 372.055106 293.643192 
L 372.184994 293.576519 
L 372.379826 293.688983 
L 372.574657 293.678144 
L 372.769489 293.696711 
L 373.28904 293.760091 
L 377.965001 294.075578 
L 386.797371 294.609651 
L 386.992203 294.256818 
L 387.057147 294.314006 
L 387.251978 294.69895 
L 387.44681 294.539707 
L 387.641642 294.714107 
L 387.77153 294.63172 
L 388.031305 294.720309 
L 388.226137 294.767251 
L 389.005464 294.826929 
L 389.849734 294.885278 
L 393.031985 295.107682 
L 398.487273 295.488 
L 398.487273 295.488 
" clip-path="url(#p102506b4e7)" style="fill: none; stroke: #0000ff; stroke-width: 1.5; stroke-linecap: square"/>
   </g>
   <g id="line2d_13">
    <path d="M 73.832727 213.764767 
L 74.157447 215.558939 
L 74.287335 215.592355 
L 74.482166 215.100134 
L 74.806886 214.267436 
L 74.936774 214.267084 
L 75.131605 214.605018 
L 75.910932 216.534864 
L 76.235651 216.654886 
L 76.495427 216.453853 
L 76.690259 216.358195 
L 76.88509 216.534798 
L 77.404642 217.41796 
L 78.054081 218.180448 
L 78.963295 219.657111 
L 79.417902 220.423693 
L 79.742622 221.046085 
L 87.081282 235.099777 
L 87.146226 235.163056 
L 87.341058 235.615952 
L 87.470946 235.765211 
L 87.665778 236.216607 
L 87.730721 236.171582 
L 87.990497 236.726051 
L 88.055441 236.753813 
L 88.250273 237.222739 
L 88.315216 237.137679 
L 88.510048 237.769141 
L 88.574992 237.363944 
L 88.639936 238.002561 
L 88.70488 237.777691 
L 88.769824 237.807384 
L 88.834768 238.236737 
L 88.899712 237.94253 
L 89.029599 238.433981 
L 89.094543 238.234898 
L 89.159487 238.66474 
L 89.224431 238.575851 
L 89.289375 238.649153 
L 89.354319 238.973829 
L 89.419263 238.775476 
L 89.679038 239.380057 
L 89.808926 239.370151 
L 90.003758 239.747755 
L 91.562411 241.540851 
L 91.627355 241.471761 
L 91.822187 241.836694 
L 91.887131 241.672651 
L 91.952075 242.001755 
L 92.017019 241.756016 
L 92.081963 242.171387 
L 92.146906 241.757855 
L 92.21185 242.361341 
L 92.276794 241.89773 
L 92.341738 242.368886 
L 92.406682 242.223788 
L 92.471626 242.190495 
L 92.53657 242.5564 
L 92.601514 242.215323 
L 92.666458 242.614168 
L 92.731402 242.445416 
L 92.861289 242.727317 
L 92.926233 242.527092 
L 92.991177 242.837512 
L 93.056121 242.693007 
L 93.186009 242.929153 
L 93.250953 242.797111 
L 93.315897 243.058149 
L 93.380841 242.911727 
L 93.510728 243.098622 
L 93.575672 243.068636 
L 93.770504 243.332661 
L 93.835448 243.21961 
L 93.900392 243.396005 
L 93.965336 243.328324 
L 94.225111 243.571096 
L 94.290055 243.494891 
L 94.354999 243.667217 
L 94.419943 243.512793 
L 94.484887 243.790077 
L 94.549831 243.539518 
L 94.614775 243.891213 
L 94.679718 243.581432 
L 94.744662 243.929938 
L 94.809606 243.681571 
L 94.87455 243.969426 
L 94.939494 243.781429 
L 95.069382 243.936244 
L 95.264214 243.924577 
L 95.329157 244.156268 
L 95.394101 243.955444 
L 95.459045 244.223512 
L 95.523989 243.986936 
L 95.588933 244.286113 
L 95.653877 244.057265 
L 95.718821 244.311788 
L 95.783765 244.11408 
L 95.848709 244.365545 
L 95.913653 244.172298 
L 95.978596 244.389114 
L 96.04354 244.244818 
L 96.108484 244.412598 
L 96.173428 244.317573 
L 96.36826 244.452941 
L 96.628035 244.451199 
L 96.692979 244.614727 
L 96.757923 244.429046 
L 96.822867 244.728698 
L 96.887811 244.335109 
L 96.952755 244.909749 
L 97.017699 244.201417 
L 97.082643 244.998853 
L 97.147587 244.366693 
L 97.212531 244.735246 
L 97.277474 244.81535 
L 97.342418 244.409553 
L 97.407362 244.978734 
L 97.472306 244.567785 
L 97.53725 244.700955 
L 97.602194 244.930468 
L 97.667138 244.5114 
L 97.732082 244.945898 
L 97.797026 244.765369 
L 97.861969 244.657972 
L 97.926913 245.003719 
L 97.991857 244.653896 
L 98.056801 244.873744 
L 98.121745 244.916154 
L 98.186689 244.682636 
L 98.251633 245.000295 
L 98.316577 244.813948 
L 98.381521 244.810002 
L 98.446465 245.00201 
L 98.511408 244.754562 
L 98.576352 244.974313 
L 98.641296 244.91226 
L 98.70624 244.811333 
L 98.771184 245.031898 
L 98.836128 244.842101 
L 98.901072 244.936188 
L 98.966016 244.981871 
L 99.03096 244.835052 
L 99.095904 245.045867 
L 99.160847 244.886722 
L 99.290735 245.020218 
L 99.355679 244.872459 
L 99.420623 245.031357 
L 99.485567 244.918123 
L 99.615455 245.008701 
L 99.680399 244.908667 
L 99.745343 245.028103 
L 99.810286 244.92726 
L 99.940174 244.978598 
L 100.135006 244.933925 
L 100.264894 244.961596 
L 100.979277 244.959457 
L 101.563772 244.898258 
L 101.628716 244.973028 
L 101.693659 244.864275 
L 101.758603 244.996088 
L 101.823547 244.819745 
L 101.888491 245.017857 
L 101.953435 244.775118 
L 102.018379 245.04157 
L 102.083323 244.723168 
L 102.148267 245.063704 
L 102.213211 244.673395 
L 102.278155 245.080158 
L 102.343098 244.654183 
L 102.408042 245.032609 
L 102.472986 244.730485 
L 102.53793 244.913115 
L 102.667818 244.775595 
L 102.732762 244.933997 
L 102.797706 244.685291 
L 102.86265 244.951168 
L 102.927594 244.661272 
L 102.992537 244.920751 
L 103.057481 244.68998 
L 103.122425 244.842551 
L 103.252313 244.748047 
L 103.317257 244.807628 
L 103.382201 244.669117 
L 103.447145 244.826724 
L 103.512089 244.63332 
L 103.577032 244.80877 
L 103.641976 244.631109 
L 103.70692 244.759493 
L 103.771864 244.653172 
L 103.836808 244.699325 
L 104.226471 244.554064 
L 104.291415 244.680862 
L 104.356359 244.518684 
L 104.421303 244.669456 
L 104.486247 244.477885 
L 104.551191 244.664226 
L 104.616135 244.441078 
L 104.681079 244.653178 
L 104.746023 244.390073 
L 104.810967 244.662074 
L 104.87591 244.335748 
L 104.940854 244.651894 
L 105.005798 244.299325 
L 105.070742 244.630822 
L 105.135686 244.296019 
L 105.20063 244.556242 
L 105.265574 244.351041 
L 105.330518 244.449406 
L 105.590293 244.259752 
L 105.655237 244.458203 
L 105.720181 244.217558 
L 105.785125 244.427154 
L 105.850069 244.216743 
L 105.915013 244.361632 
L 105.979957 244.228788 
L 106.044901 244.300858 
L 106.304676 244.169527 
L 106.36962 244.253394 
L 106.434564 244.093805 
L 106.499508 244.26647 
L 106.564452 244.027611 
L 106.629396 244.260718 
L 106.69434 243.978054 
L 106.759283 244.237527 
L 106.824227 243.955091 
L 106.889171 244.187807 
L 106.954115 243.958744 
L 107.019059 244.116806 
L 107.084003 243.980715 
L 107.148947 244.033846 
L 107.408722 243.888174 
L 107.473666 244.006983 
L 107.53861 243.825045 
L 107.603554 244.007636 
L 107.668498 243.753308 
L 107.733442 244.007466 
L 107.798386 243.695377 
L 107.86333 243.983369 
L 107.928274 243.671925 
L 107.993218 243.924414 
L 108.058161 243.688986 
L 108.123105 243.834045 
L 108.252993 243.732309 
L 108.317937 243.758088 
L 108.382881 243.643061 
L 108.447825 243.766573 
L 108.512769 243.576913 
L 108.577713 243.750452 
L 108.642657 243.529762 
L 108.7076 243.724685 
L 108.772544 243.490998 
L 108.837488 243.687479 
L 108.902432 243.474538 
L 108.967376 243.625727 
L 109.03232 243.479416 
L 109.097264 243.550129 
L 109.357039 243.406218 
L 109.421983 243.483655 
L 109.616815 243.299329 
L 109.681759 243.440097 
L 109.746703 243.256437 
L 109.811647 243.409537 
L 109.876591 243.21138 
L 109.941534 243.388231 
L 110.006478 243.154218 
L 110.071422 243.372273 
L 110.136366 243.103318 
L 110.20131 243.340657 
L 110.266254 243.074121 
L 110.331198 243.28883 
L 110.396142 243.068629 
L 110.461086 243.217177 
L 110.52603 243.079273 
L 110.590973 243.135769 
L 110.850749 242.987319 
L 110.915693 243.082168 
L 110.980637 242.928396 
L 111.045581 243.06244 
L 111.110525 242.878735 
L 111.175469 243.034456 
L 111.240412 242.830038 
L 111.305356 243.012916 
L 111.3703 242.773307 
L 111.435244 242.992595 
L 111.500188 242.727741 
L 111.565132 242.953172 
L 111.630076 242.707635 
L 111.69502 242.891889 
L 111.759964 242.709716 
L 111.824908 242.814087 
L 112.019739 242.728419 
L 112.214571 242.592745 
L 112.279515 242.706787 
L 112.344459 242.540162 
L 112.409403 242.680179 
L 112.604234 242.463494 
L 112.669178 242.603036 
L 112.86401 242.391288 
L 112.928954 242.528358 
L 113.123785 242.338587 
L 113.188729 242.433736 
L 113.383561 242.285482 
L 113.448505 242.351584 
L 113.643337 242.203675 
L 113.708281 242.287999 
L 113.903112 242.110117 
L 113.968056 242.238533 
L 114.033 242.053836 
L 114.097944 242.222158 
L 114.162888 241.99207 
L 114.227832 242.210067 
L 114.292776 241.917933 
L 114.35772 242.208358 
L 114.422663 241.839068 
L 114.487607 242.193424 
L 114.552551 241.80828 
L 114.617495 242.119723 
L 114.682439 241.863296 
L 114.747383 241.983495 
L 115.007159 241.747297 
L 115.072102 241.96751 
L 115.137046 241.741043 
L 115.20199 241.878217 
L 115.331878 241.761227 
L 115.396822 241.82328 
L 115.461766 241.670956 
L 115.52671 241.813836 
L 115.591654 241.63495 
L 115.656598 241.756134 
L 115.786485 241.670375 
L 116.111205 241.630052 
L 116.176149 241.510147 
L 116.241093 241.574691 
L 116.500868 241.447573 
L 116.565812 241.487746 
L 116.760644 241.33728 
L 116.825588 241.453579 
L 116.890532 241.298125 
L 116.955475 241.413322 
L 117.020419 241.280517 
L 117.085363 241.358527 
L 117.280195 241.267741 
L 117.734802 241.102263 
L 117.799746 241.182419 
L 117.994578 241.035508 
L 118.059522 241.116376 
L 118.254353 240.972099 
L 118.319297 241.051166 
L 118.514129 240.902364 
L 118.579073 240.994801 
L 118.773905 240.818882 
L 118.838848 240.952965 
L 118.903792 240.762725 
L 118.968736 240.951106 
L 119.03368 240.684107 
L 119.098624 240.958521 
L 119.163568 240.612892 
L 119.228512 240.939667 
L 119.293456 240.596021 
L 119.3584 240.871472 
L 119.423344 240.649882 
L 119.488287 240.752244 
L 119.748063 240.547468 
L 119.813007 240.746923 
L 119.877951 240.53914 
L 119.942895 240.674599 
L 120.072783 240.576671 
L 120.137726 240.6143 
L 120.20267 240.494004 
L 120.267614 240.615024 
L 120.332558 240.455729 
L 120.397502 240.575119 
L 120.462446 240.458514 
L 120.52739 240.507621 
L 120.917053 240.356001 
L 120.981997 240.428417 
L 121.046941 240.349264 
L 121.306717 240.343486 
L 121.501548 240.248259 
L 121.69638 240.267099 
L 121.891212 240.196856 
L 122.670538 240.08115 
L 122.86537 239.977673 
L 122.930314 240.04433 
L 123.125146 239.905623 
L 123.19009 240.022345 
L 123.255034 239.860761 
L 123.319977 240.019345 
L 123.384921 239.808699 
L 123.449865 240.019958 
L 123.514809 239.746262 
L 123.579753 240.028202 
L 123.644697 239.688376 
L 123.709641 240.009739 
L 123.774585 239.699033 
L 123.839529 239.937409 
L 123.904473 239.768976 
L 124.03436 239.849094 
L 124.099304 239.712911 
L 124.164248 239.877626 
L 124.229192 239.664795 
L 124.294136 239.850281 
L 124.35908 239.683994 
L 124.424024 239.772309 
L 124.683799 239.627635 
L 124.748743 239.757211 
L 124.813687 239.621035 
L 124.878631 239.706232 
L 125.138407 239.586634 
L 125.20335 239.667768 
L 125.398182 239.563065 
L 125.657958 239.577608 
L 125.852789 239.493538 
L 126.047621 239.511336 
L 126.437285 239.425212 
L 126.632116 239.439768 
L 126.891892 239.395102 
L 127.541331 239.295896 
L 127.86605 239.292277 
L 128.19077 239.246613 
L 128.385601 239.288122 
L 128.580433 239.189367 
L 128.645377 239.368318 
L 128.710321 239.113899 
L 128.775265 239.430201 
L 128.840209 239.003646 
L 128.905153 239.482967 
L 128.970097 239.000828 
L 129.03504 239.430592 
L 129.099984 239.22262 
L 129.164928 239.232983 
L 129.229872 239.358718 
L 129.294816 239.096271 
L 129.35976 239.395891 
L 129.424704 239.084415 
L 129.489648 239.284894 
L 129.619536 239.124321 
L 129.684479 239.281281 
L 129.749423 239.059098 
L 129.814367 239.223279 
L 129.944255 239.082296 
L 130.009199 239.226383 
L 130.074143 239.073061 
L 130.139087 239.177621 
L 130.398862 239.020008 
L 130.463806 239.188949 
L 130.52875 239.027352 
L 130.593694 239.134266 
L 130.85347 239.007676 
L 130.983357 239.059731 
L 131.178189 239.001441 
L 131.243133 238.979992 
L 131.308077 239.097987 
L 131.373021 238.858919 
L 131.437965 239.101984 
L 131.502909 238.911809 
L 131.567852 238.955706 
L 131.632796 239.041086 
L 131.69774 238.838911 
L 131.762684 239.026582 
L 131.827628 238.926039 
L 131.892572 238.90114 
L 131.957516 239.013956 
L 132.02246 238.856213 
L 132.087404 238.98144 
L 132.217291 238.817925 
L 132.282235 239.037838 
L 132.347179 238.762407 
L 132.412123 238.971847 
L 132.477067 238.900266 
L 132.542011 238.795067 
L 132.606955 238.976379 
L 132.671899 238.788134 
L 132.736843 238.87913 
L 132.801787 238.920659 
L 132.86673 238.771733 
L 132.931674 238.92973 
L 132.996618 238.845544 
L 133.19145 238.748092 
L 133.256394 238.930122 
L 133.321338 238.796886 
L 133.451226 238.870984 
L 133.516169 238.763392 
L 133.581113 238.861567 
L 133.711001 238.785852 
L 133.775945 238.859467 
L 133.840889 238.772541 
L 133.970777 238.834842 
L 134.035721 238.721236 
L 134.100664 238.885821 
L 134.165608 238.752214 
L 134.295496 238.840248 
L 134.36044 238.724367 
L 134.425384 238.851022 
L 134.490328 238.733138 
L 134.555272 238.792986 
L 134.879991 238.7729 
L 135.269655 238.74144 
L 135.334599 238.782004 
L 135.399542 238.688172 
L 135.464486 238.788356 
L 135.594374 238.741081 
L 135.85415 238.734599 
L 136.113925 238.743566 
L 136.503589 238.741923 
L 136.568533 238.645488 
L 136.633477 238.735023 
L 136.893252 238.678807 
L 137.02314 238.724738 
L 137.088084 238.63583 
L 137.153028 238.795321 
L 137.217972 238.604194 
L 137.282915 238.763065 
L 137.347859 238.695711 
L 137.412803 238.65008 
L 137.477747 238.770389 
L 137.542691 238.626935 
L 137.607635 238.722123 
L 137.997298 238.743116 
L 138.062242 238.611074 
L 138.127186 238.792341 
L 138.19213 238.608374 
L 138.257074 238.735981 
L 138.581793 238.697263 
L 138.646737 238.723995 
L 138.711681 238.624313 
L 138.776625 238.737051 
L 138.841569 238.647164 
L 139.036401 238.682753 
L 139.296176 238.700628 
L 139.491008 238.638543 
L 139.555952 238.732655 
L 139.620896 238.68647 
L 140.010559 238.650653 
L 140.075503 238.771557 
L 140.140447 238.631454 
L 140.205391 238.747218 
L 140.465166 238.63191 
L 140.53011 238.768224 
L 140.595054 238.682166 
L 140.85483 238.75595 
L 140.984718 238.725299 
L 141.049662 238.760026 
L 141.114605 238.668477 
L 141.179549 238.790873 
L 141.244493 238.6893 
L 141.374381 238.7576 
L 141.569213 238.690435 
L 141.634157 238.795021 
L 141.699101 238.72541 
L 141.958876 238.792647 
L 142.153708 238.767989 
L 142.543371 238.809799 
L 142.608315 238.75899 
L 142.673259 238.858535 
L 142.738203 238.74022 
L 142.803147 238.856532 
L 142.868091 238.80288 
L 143.712361 238.816771 
L 143.777305 238.920509 
L 143.842249 238.865173 
L 148.128546 239.253082 
L 148.323378 239.341332 
L 148.583154 239.320711 
L 148.777985 239.39085 
L 149.037761 239.39055 
L 149.232593 239.445403 
L 149.492368 239.454611 
L 149.752144 239.505682 
L 151.570573 239.720997 
L 151.765405 239.844581 
L 151.960236 239.832933 
L 152.609675 239.898168 
L 152.674619 240.003465 
L 152.739563 239.88883 
L 152.804507 240.030869 
L 152.869451 239.923648 
L 152.934395 240.034391 
L 152.999339 239.989927 
L 153.259114 240.100845 
L 153.324058 240.004952 
L 153.389002 240.11876 
L 153.453946 240.063992 
L 153.713722 240.194423 
L 153.778666 240.054353 
L 153.843609 240.219166 
L 153.908553 240.109245 
L 154.038441 240.209123 
L 154.103385 240.169941 
L 154.298217 240.285203 
L 154.557992 240.293264 
L 154.752824 240.382511 
L 155.402263 240.533929 
L 155.597095 240.655367 
L 155.726982 240.66736 
L 156.571253 240.934678 
L 157.090804 241.07795 
L 157.285636 241.177919 
L 157.35058 241.08802 
L 157.415524 241.191732 
L 157.480468 241.142905 
L 157.740243 241.241968 
L 157.805187 241.165359 
L 157.870131 241.275665 
L 157.935075 241.198391 
L 158.064963 241.261689 
L 158.454626 241.333752 
L 159.039121 241.386557 
L 159.233953 241.476555 
L 159.298897 241.386361 
L 159.363841 241.493341 
L 159.428785 241.435723 
L 159.68856 241.513427 
L 159.883392 241.466407 
L 160.078224 241.515945 
L 160.597775 241.496784 
L 160.662719 241.587212 
L 160.727663 241.486109 
L 160.922494 241.632328 
L 161.052382 241.613775 
L 161.247214 241.676238 
L 161.312158 241.584584 
L 161.442046 241.652278 
L 161.831709 241.764527 
L 161.896653 241.696187 
L 161.961597 241.786296 
L 162.091484 241.797813 
L 162.35126 241.76261 
L 162.546092 241.905119 
L 162.611036 241.843464 
L 162.67598 241.913981 
L 163.325419 242.053412 
L 163.52025 242.160411 
L 163.715082 242.187104 
L 164.104745 242.30879 
L 164.949016 242.514375 
L 165.208792 242.617579 
L 168.975538 243.762621 
L 169.170369 243.784025 
L 169.430145 243.893293 
L 172.937115 244.992091 
L 173.651498 245.241155 
L 173.911274 245.317268 
L 174.495769 245.473642 
L 174.885432 245.624897 
L 175.599815 245.830476 
L 175.989479 245.981111 
L 178.002739 246.620732 
L 178.717122 246.824596 
L 179.626337 247.018671 
L 181.18499 246.799905 
L 181.899373 246.536206 
L 184.302298 245.456732 
L 185.731063 244.75095 
L 185.990839 244.650002 
L 191.770846 241.724504 
L 191.965677 241.575656 
L 192.160509 241.515919 
L 192.355341 241.37652 
L 192.550173 241.314455 
L 193.459387 240.777763 
L 193.654219 240.717439 
L 193.913994 240.577278 
L 194.303658 240.359634 
L 195.797367 239.385841 
L 195.862311 239.16075 
L 195.927255 239.367268 
L 195.992199 239.336297 
L 196.122087 239.343119 
L 196.187031 239.135212 
L 196.251975 239.238956 
L 196.51175 239.015417 
L 196.576694 239.09423 
L 197.031302 238.813229 
L 197.226133 238.743762 
L 199.17445 237.688933 
L 201.057823 236.748674 
L 203.850411 235.297145 
L 204.17513 235.146256 
L 204.369962 234.832465 
L 204.434906 234.8971 
L 204.49985 234.56859 
L 204.564794 234.744991 
L 204.629738 234.580531 
L 204.694681 234.855675 
L 204.759625 234.831715 
L 204.954457 234.51647 
L 205.019401 234.699177 
L 205.084345 234.664026 
L 205.279177 234.436998 
L 205.409064 234.502168 
L 205.603896 234.330181 
L 205.733784 234.330044 
L 205.798728 234.203591 
L 205.863672 234.258998 
L 206.188391 234.086184 
L 206.967718 233.634214 
L 207.227493 233.525643 
L 207.617157 233.293626 
L 208.00682 233.102524 
L 208.721203 232.70182 
L 209.695362 232.173574 
L 213.462108 230.076953 
L 213.981659 229.742971 
L 214.176491 229.140757 
L 214.371322 229.572008 
L 214.436266 229.534092 
L 214.50121 229.225877 
L 214.566154 229.388492 
L 214.631098 229.277775 
L 214.696042 229.386105 
L 214.760986 229.356627 
L 214.82593 229.116575 
L 214.890873 229.264237 
L 215.150649 228.990299 
L 215.215593 229.103826 
L 215.280537 229.050036 
L 215.475369 228.86665 
L 215.605256 228.87921 
L 215.800088 228.727023 
L 216.254695 228.513019 
L 216.514471 228.32225 
L 216.709303 228.238924 
L 217.618517 227.713097 
L 224.50257 223.705014 
L 224.697402 223.146691 
L 224.762346 223.345598 
L 224.82729 222.994634 
L 224.892234 223.394106 
L 224.957178 223.336742 
L 225.087065 223.351207 
L 225.152009 223.025507 
L 225.216953 223.251584 
L 225.346841 223.196085 
L 225.411785 223.183538 
L 225.476729 222.93654 
L 225.541673 223.101979 
L 225.801448 222.807948 
L 225.866392 222.924515 
L 225.931336 222.860303 
L 226.126168 222.666274 
L 226.256056 222.683008 
L 226.450887 222.512078 
L 226.580775 222.497561 
L 226.775607 222.344826 
L 227.230214 222.116102 
L 227.48999 221.939434 
L 227.879653 221.726009 
L 228.269316 221.471642 
L 228.65898 221.259718 
L 229.50325 220.750084 
L 234.114267 217.981319 
L 234.309099 217.710165 
L 234.374043 217.799276 
L 234.568875 217.385887 
L 234.633818 217.59086 
L 234.698762 217.373418 
L 234.763706 217.572143 
L 234.82865 217.474189 
L 234.958538 217.467485 
L 235.15337 217.190345 
L 235.218313 217.307903 
L 235.283257 217.210718 
L 235.413145 217.189341 
L 235.607977 216.968364 
L 235.672921 217.032432 
L 235.737865 216.949987 
L 236.192472 216.679851 
L 236.776967 216.344995 
L 237.231574 216.057525 
L 240.543713 213.98637 
L 240.738545 213.515722 
L 240.803489 213.750524 
L 240.868433 213.49574 
L 240.933376 213.743272 
L 240.99832 213.636997 
L 241.128208 213.640832 
L 241.32304 213.336562 
L 241.387984 213.475158 
L 241.452928 213.386661 
L 243.271357 212.255418 
L 243.66102 211.995782 
L 247.622598 209.368052 
L 247.81743 208.859892 
L 247.882374 209.094159 
L 247.947317 208.801642 
L 248.012261 209.090246 
L 248.077205 208.971515 
L 248.207093 209.003484 
L 248.401925 208.671523 
L 248.466869 208.828002 
L 248.531813 208.738826 
L 254.701483 204.519797 
L 254.896315 204.22497 
L 254.961258 204.337036 
L 255.15609 204.141729 
L 255.285978 204.096104 
L 256.000361 203.564532 
L 256.195192 203.459444 
L 258.143509 202.074174 
L 258.468229 201.748331 
L 258.533173 201.792964 
L 258.728005 201.444596 
L 258.792948 201.563327 
L 258.98778 201.208607 
L 259.052724 201.390871 
L 259.117668 201.241436 
L 259.182612 201.323517 
L 259.767107 200.888151 
L 260.416546 200.436363 
L 260.741265 200.161688 
L 260.936097 200.047522 
L 261.65048 199.525302 
L 263.079246 198.465771 
L 263.663741 198.054782 
L 263.858572 197.794168 
L 263.923516 197.849588 
L 264.118348 197.500998 
L 264.183292 197.623747 
L 264.248236 197.386858 
L 264.31318 197.533319 
L 264.378124 197.348341 
L 264.443068 197.466851 
L 264.702843 197.215771 
L 264.767787 197.231488 
L 264.962619 196.983695 
L 265.027563 197.040706 
L 265.287338 196.812452 
L 265.48217 196.707259 
L 265.677002 196.500761 
L 265.806889 196.427654 
L 266.066665 196.262581 
L 266.391384 195.979375 
L 266.586216 195.872461 
L 266.97588 195.562726 
L 267.430487 195.239727 
L 267.625319 195.021137 
L 267.690262 195.040402 
L 267.885094 194.816491 
L 267.950038 194.844116 
L 268.14487 194.634422 
L 268.209814 194.648926 
L 268.404645 194.456488 
L 268.599477 194.350147 
L 268.924196 194.067373 
L 269.119028 193.953389 
L 269.31386 193.726243 
L 269.378804 193.751221 
L 269.573635 193.452755 
L 269.638579 193.52697 
L 269.833411 193.197671 
L 269.898355 193.322037 
L 269.963299 193.155803 
L 270.028243 193.249596 
L 270.288018 193.00475 
L 270.352962 193.006589 
L 270.547794 192.762031 
L 270.612738 192.808191 
L 270.80757 192.637887 
L 272.431167 191.404152 
L 272.755886 191.116825 
L 272.950718 190.995068 
L 273.405325 190.5972 
L 273.600157 190.488838 
L 273.794989 190.229202 
L 273.859933 190.273197 
L 274.054764 189.956888 
L 274.119708 190.045672 
L 274.31454 189.786741 
L 274.379484 189.866851 
L 274.574316 189.701634 
L 275.48353 188.979763 
L 275.80825 188.743918 
L 276.003081 188.521767 
L 276.068025 188.533402 
L 276.262857 188.328677 
L 276.457689 188.214928 
L 277.107128 187.654792 
L 277.172072 187.65067 
L 277.366903 187.403281 
L 277.431847 187.432368 
L 277.626679 187.134293 
L 277.691623 187.203357 
L 277.886454 186.936403 
L 277.951398 187.00874 
L 278.14623 186.828002 
L 278.535893 186.544053 
L 278.730725 186.328399 
L 278.860613 186.241844 
L 279.055445 186.113252 
L 281.6532 183.970152 
L 281.848032 183.617336 
L 281.912976 183.703042 
L 282.107808 183.41578 
L 282.172752 183.530768 
L 282.237696 183.421689 
L 282.367583 183.383225 
L 282.692303 183.019296 
L 282.757247 183.062142 
L 283.017022 182.814167 
L 283.211854 182.692566 
L 283.406686 182.498341 
L 283.666461 182.313768 
L 284.121069 181.907527 
L 284.510732 181.603636 
L 285.095227 181.092489 
L 285.549834 180.722339 
L 287.173432 179.150031 
L 287.238376 179.245428 
L 287.433207 179.089537 
L 291.719505 175.390132 
L 291.784449 175.438874 
L 292.044224 175.22751 
L 292.498831 174.866816 
L 292.758607 174.657918 
L 293.537934 173.978006 
L 293.732765 173.856249 
L 294.057485 173.573252 
L 294.64198 173.09384 
L 295.486251 172.383212 
L 295.681082 172.036695 
L 295.746026 172.076881 
L 295.940858 171.749956 
L 296.005802 171.883348 
L 296.070746 171.784624 
L 296.200634 171.790533 
L 296.525353 171.416548 
L 296.655241 171.386222 
L 296.915016 171.188385 
L 297.109848 171.005129 
L 297.369624 170.823986 
L 297.629399 170.604614 
L 298.343782 169.976171 
L 299.512772 168.973273 
L 301.071426 167.584064 
L 301.655921 167.073987 
L 301.98064 166.657547 
L 302.045584 166.662477 
L 302.240416 166.343508 
L 302.30536 166.399658 
L 302.500192 166.243115 
L 302.630079 166.187512 
L 303.214575 165.652862 
L 307.500872 161.552329 
L 307.695704 161.217434 
L 307.760647 161.274093 
L 307.955479 161.156001 
L 308.085367 161.075864 
L 308.410086 160.69014 
L 308.539974 160.61989 
L 309.189413 160.015616 
L 311.722225 157.530825 
L 314.319981 154.908989 
L 314.709644 154.543039 
L 315.164252 154.054587 
L 315.553915 153.682598 
L 320.489651 148.746093 
L 320.879315 148.398742 
L 321.333922 147.982471 
L 324.321341 145.136255 
L 324.775949 144.655095 
L 325.100668 144.185543 
L 325.425388 144.08515 
L 328.737526 140.88124 
L 331.140451 138.397531 
L 331.335282 138.294047 
L 334.257758 135.343187 
L 336.141131 133.403337 
L 337.375065 132.131842 
L 338.349223 131.087963 
L 338.608999 130.139872 
L 338.673943 130.343853 
L 338.803831 130.601976 
L 339.063606 130.074265 
L 339.12855 130.208622 
L 339.193494 130.112155 
L 339.323382 129.847667 
L 342.115969 127.116257 
L 343.414847 125.72963 
L 349.194854 119.391982 
L 355.429468 112.072279 
L 355.6243 111.225833 
L 355.689244 111.263397 
L 355.754188 111.28471 
L 355.819132 111.568058 
L 355.884076 111.551181 
L 356.078907 110.918851 
L 356.143851 111.095846 
L 356.208795 111.06376 
L 356.728346 110.359588 
L 356.858234 110.336189 
L 357.897337 109.123492 
L 358.416888 108.520796 
L 359.78071 106.885555 
L 361.404307 104.933653 
L 367.184314 97.682518 
L 369.522294 94.590231 
L 370.171733 93.763245 
L 371.145892 92.456717 
L 371.340723 91.769058 
L 371.405667 91.459962 
L 371.470611 91.630175 
L 371.535555 91.663565 
L 371.600499 91.856629 
L 371.665443 91.750484 
L 371.860275 91.13678 
L 371.925218 91.319697 
L 371.990162 91.258916 
L 372.184994 90.784799 
L 372.249938 90.90863 
L 372.314882 90.830528 
L 372.964321 89.948344 
L 381.212196 78.792674 
L 385.173774 73.133451 
L 385.563437 72.590179 
L 386.147932 71.736455 
L 386.732427 70.886018 
L 386.927259 70.230158 
L 386.992203 69.868081 
L 387.057147 70.036572 
L 387.122091 70.044503 
L 387.187034 70.25434 
L 387.251978 70.152082 
L 387.44681 69.507857 
L 387.511754 69.704573 
L 387.576698 69.640114 
L 387.901417 69.184988 
L 388.356025 68.552292 
L 388.550856 68.238188 
L 388.94052 67.733654 
L 391.018724 64.758416 
L 392.837154 62.10923 
L 397.578058 54.980699 
L 398.487273 53.568 
L 398.487273 53.568 
" clip-path="url(#p102506b4e7)" style="fill: none; stroke: #008000; stroke-width: 1.5; stroke-linecap: square"/>
   </g>
   <g id="line2d_14">
    <path d="M 73.832727 212.760369 
L 74.222391 215.395469 
L 74.352278 215.50704 
L 74.482166 215.305028 
L 74.806886 214.542672 
L 75.001717 214.507455 
L 75.196549 214.845037 
L 75.845988 216.40528 
L 76.300595 216.590675 
L 76.755203 216.38042 
L 76.950034 216.70342 
L 77.339698 217.382105 
L 77.924193 217.908408 
L 78.768464 219.172311 
L 81.496107 224.024166 
L 83.119705 227.212946 
L 85.522629 232.29963 
L 85.782404 232.949372 
L 86.237012 233.891183 
L 88.510048 238.852613 
L 88.574992 238.415604 
L 88.639936 239.085706 
L 88.70488 238.901805 
L 88.769824 238.982385 
L 88.834768 239.440864 
L 88.899712 239.128762 
L 89.029599 239.668362 
L 89.094543 239.511838 
L 89.159487 239.97912 
L 89.224431 239.888217 
L 89.289375 239.962823 
L 89.484207 240.42106 
L 89.743982 240.827353 
L 89.808926 240.89478 
L 90.003758 241.315733 
L 90.848029 242.662245 
L 90.912972 242.650109 
L 91.107804 243.020474 
L 91.36758 243.32299 
L 91.562411 243.697633 
L 91.627355 243.65073 
L 91.822187 244.082764 
L 91.887131 243.947063 
L 92.081963 244.506815 
L 92.146906 244.142228 
L 92.21185 244.755254 
L 92.276794 244.299293 
L 92.341738 244.797103 
L 92.406682 244.701457 
L 92.471626 244.696684 
L 92.53657 245.064656 
L 92.601514 244.745093 
L 92.666458 245.179142 
L 92.731402 245.0426 
L 93.186009 245.688475 
L 93.250953 245.588826 
L 93.315897 245.871516 
L 93.380841 245.750358 
L 93.640616 246.186983 
L 93.70556 246.083323 
L 93.900392 246.429265 
L 93.965336 246.394773 
L 94.225111 246.733157 
L 94.290055 246.68328 
L 94.484887 247.053307 
L 94.549831 246.82742 
L 94.744662 247.299437 
L 94.809606 247.070954 
L 94.87455 247.381589 
L 94.939494 247.244903 
L 95.069382 247.428524 
L 95.264214 247.514407 
L 95.459045 247.878473 
L 95.523989 247.67907 
L 95.718821 248.065909 
L 95.783765 247.899263 
L 95.978596 248.243634 
L 96.04354 248.129389 
L 96.238372 248.383554 
L 96.36826 248.456406 
L 96.628035 248.565942 
L 96.692979 248.743094 
L 96.757923 248.591846 
L 96.822867 248.902644 
L 96.887811 248.556375 
L 96.952755 249.123535 
L 97.017699 248.488669 
L 97.082643 249.25878 
L 97.147587 248.693263 
L 97.212531 249.066772 
L 97.277474 249.170882 
L 97.342418 248.817688 
L 97.407362 249.371022 
L 97.472306 249.016973 
L 97.602194 249.411443 
L 97.667138 249.041905 
L 97.732082 249.474852 
L 97.797026 249.343397 
L 97.861969 249.27059 
L 97.926913 249.609802 
L 97.991857 249.309022 
L 98.121745 249.623445 
L 98.186689 249.428523 
L 98.251633 249.740038 
L 98.316577 249.602022 
L 98.381521 249.634675 
L 98.446465 249.835337 
L 98.511408 249.62368 
L 98.641296 249.840796 
L 98.70624 249.774817 
L 98.771184 249.992128 
L 98.836128 249.8463 
L 98.966016 250.042403 
L 99.03096 249.923561 
L 99.095904 250.142294 
L 99.160847 250.037864 
L 99.420623 250.277316 
L 99.485567 250.203805 
L 99.550511 250.27144 
L 99.745343 250.414243 
L 99.810286 250.344873 
L 100.070062 250.543311 
L 100.135006 250.492397 
L 100.329838 250.609218 
L 100.654557 250.784048 
L 100.719501 250.73991 
L 100.914333 250.865371 
L 101.433884 251.02241 
L 101.628716 251.158874 
L 101.693659 251.089315 
L 101.888491 251.304787 
L 101.953435 251.119288 
L 102.018379 251.378924 
L 102.083323 251.130036 
L 102.148267 251.450818 
L 102.213211 251.134562 
L 102.278155 251.517925 
L 102.343098 251.180571 
L 102.408042 251.530668 
L 102.472986 251.29312 
L 102.53793 251.481352 
L 102.602874 251.45177 
L 102.667818 251.417108 
L 102.732762 251.576084 
L 102.797706 251.391589 
L 102.86265 251.649412 
L 102.927594 251.421882 
L 102.992537 251.670953 
L 103.057481 251.50213 
L 103.122425 251.662371 
L 103.187369 251.609624 
L 104.421303 252.039578 
L 104.486247 251.904412 
L 104.551191 252.080755 
L 104.616135 251.920644 
L 104.681079 252.128799 
L 104.746023 251.931013 
L 104.810967 252.182047 
L 104.87591 251.939543 
L 104.940854 252.229322 
L 105.005798 251.955528 
L 105.070742 252.258441 
L 105.135686 252.012735 
L 105.20063 252.252702 
L 105.265574 252.10356 
L 105.395462 252.21236 
L 105.460406 252.175578 
L 105.525349 252.293768 
L 105.590293 252.158211 
L 105.655237 252.350584 
L 105.720181 252.178063 
L 105.785125 252.371623 
L 105.850069 252.225722 
L 105.915013 252.372959 
L 105.979957 252.286418 
L 106.174788 252.36979 
L 106.36962 252.459937 
L 106.434564 252.355227 
L 106.499508 252.517027 
L 106.564452 252.349404 
L 106.629396 252.563454 
L 106.69434 252.360562 
L 106.759283 252.591947 
L 106.824227 252.390437 
L 106.889171 252.603223 
L 106.954115 252.444618 
L 107.019059 252.594425 
L 107.084003 252.510753 
L 107.343779 252.63272 
L 107.408722 252.560611 
L 107.473666 252.678723 
L 107.53861 252.554722 
L 107.603554 252.72605 
L 107.668498 252.549518 
L 107.733442 252.773461 
L 107.798386 252.551089 
L 107.86333 252.801197 
L 107.928274 252.580991 
L 107.993218 252.803376 
L 108.058161 252.642698 
L 108.123105 252.780244 
L 108.188049 252.720865 
L 108.447825 252.845244 
L 108.512769 252.721308 
L 108.577713 252.878954 
L 108.642657 252.727941 
L 108.7076 252.905073 
L 108.772544 252.747336 
L 108.837488 252.922042 
L 108.902432 252.781274 
L 108.967376 252.920581 
L 109.03232 252.831112 
L 109.227152 252.89576 
L 109.421983 252.970712 
L 109.486927 252.890249 
L 109.681759 253.026811 
L 109.746703 252.910029 
L 109.811647 253.047869 
L 109.876591 252.917183 
L 109.941534 253.075585 
L 110.006478 252.920659 
L 110.071422 253.106315 
L 110.136366 252.926437 
L 110.20131 253.125938 
L 110.266254 252.947802 
L 110.331198 253.130464 
L 110.396142 252.988177 
L 110.461086 253.120799 
L 110.52603 253.039534 
L 110.720861 253.087533 
L 110.915693 253.169718 
L 110.980637 253.077177 
L 111.045581 253.196639 
L 111.110525 253.082537 
L 111.175469 253.217964 
L 111.240412 253.085289 
L 111.305356 253.242831 
L 111.3703 253.087507 
L 111.435244 253.268304 
L 111.500188 253.095711 
L 111.565132 253.280127 
L 111.630076 253.121778 
L 111.69502 253.276658 
L 111.759964 253.165218 
L 111.824908 253.261104 
L 111.889851 253.21439 
L 112.149627 253.295525 
L 112.214571 253.221336 
L 112.409403 253.342552 
L 112.474347 253.231751 
L 112.53929 253.356593 
L 112.604234 253.246639 
L 112.799066 253.379549 
L 112.86401 253.275582 
L 113.058842 253.394209 
L 113.123785 253.314294 
L 113.188729 253.397065 
L 113.383561 253.348369 
L 113.578393 253.427978 
L 113.773224 253.372564 
L 113.968056 253.480131 
L 114.033 253.372094 
L 114.097944 253.503758 
L 114.162888 253.363147 
L 114.227832 253.530183 
L 114.292776 253.344867 
L 114.35772 253.561904 
L 114.422663 253.326131 
L 114.487607 253.584782 
L 114.552551 253.341991 
L 114.617495 253.571224 
L 114.682439 253.415554 
L 114.812327 253.510241 
L 114.877271 253.450979 
L 114.942215 253.571256 
L 115.007159 253.422708 
L 115.072102 253.588219 
L 115.137046 253.453079 
L 115.20199 253.56208 
L 115.266934 253.518725 
L 116.500868 253.597955 
L 116.6957 253.659695 
L 116.890532 253.59118 
L 117.085363 253.673899 
L 117.280195 253.659252 
L 117.994578 253.667117 
L 118.18941 253.737823 
L 118.384241 253.688253 
L 118.579073 253.762416 
L 118.773905 253.692838 
L 118.838848 253.787818 
L 118.903792 253.679684 
L 118.968736 253.810897 
L 119.03368 253.658078 
L 119.098624 253.836481 
L 119.163568 253.638311 
L 119.228512 253.84912 
L 119.293456 253.652547 
L 119.3584 253.834531 
L 119.423344 253.715011 
L 119.553231 253.785926 
L 119.618175 253.737432 
L 119.683119 253.831955 
L 119.748063 253.71192 
L 119.813007 253.843277 
L 119.877951 253.731282 
L 119.942895 253.825623 
L 120.007839 253.779829 
L 120.852109 253.857624 
L 121.046941 253.821247 
L 121.306717 253.859692 
L 121.501548 253.835484 
L 121.69638 253.876674 
L 122.021099 253.877424 
L 122.86537 253.884363 
L 123.060202 253.940057 
L 123.255034 253.871646 
L 123.319977 253.966665 
L 123.384921 253.859079 
L 123.449865 253.982232 
L 123.514809 253.835092 
L 123.579753 254.000551 
L 123.644697 253.825114 
L 123.709641 254.004509 
L 123.774585 253.843316 
L 123.839529 253.989249 
L 123.904473 253.909092 
L 124.164248 253.997016 
L 124.229192 253.885452 
L 124.294136 253.995738 
L 124.35908 253.917577 
L 124.553912 253.939815 
L 124.748743 253.999312 
L 124.878631 253.990703 
L 125.138407 253.955285 
L 125.333238 254.004496 
L 125.593014 253.984384 
L 125.917733 254.014246 
L 126.242453 254.014494 
L 126.826948 254.020213 
L 127.606275 254.052951 
L 128.060882 254.046912 
L 128.515489 254.067618 
L 128.710321 253.950009 
L 128.775265 254.098876 
L 128.840209 253.878793 
L 128.905153 254.0996 
L 128.970097 253.867198 
L 129.03504 254.085905 
L 129.099984 253.989594 
L 131.308077 254.102365 
L 131.373021 253.997512 
L 131.437965 254.127356 
L 131.502909 254.049488 
L 131.827628 254.08027 
L 132.347179 254.021876 
L 132.477067 254.111998 
L 132.671899 254.072829 
L 132.801787 254.13663 
L 132.86673 254.068786 
L 132.931674 254.14409 
L 133.19145 254.068538 
L 133.386282 254.12806 
L 133.775945 254.158509 
L 134.035721 254.111919 
L 134.100664 254.17883 
L 134.165608 254.112911 
L 134.425384 254.167737 
L 134.68516 254.144671 
L 134.879991 254.152477 
L 135.204711 254.192408 
L 135.724262 254.183643 
L 135.984038 254.218032 
L 136.113925 254.23367 
L 137.088084 254.225381 
L 137.282915 254.286449 
L 137.607635 254.280084 
L 139.68584 254.348769 
L 139.945615 254.368275 
L 140.335279 254.362634 
L 140.53011 254.404183 
L 140.789886 254.384312 
L 141.049662 254.422495 
L 141.309437 254.435186 
L 142.738203 254.459042 
L 142.997979 254.514149 
L 143.19281 254.502606 
L 148.063603 254.718183 
L 148.713042 254.733984 
L 149.102705 254.761388 
L 151.245854 254.809348 
L 151.635517 254.831312 
L 152.02518 254.82901 
L 152.544731 254.856831 
L 152.739563 254.830425 
L 153.583834 254.84997 
L 154.103385 254.843684 
L 154.752824 254.840821 
L 157.090804 254.800341 
L 157.935075 254.739619 
L 158.194851 254.742821 
L 158.454626 254.711648 
L 159.039121 254.680227 
L 164.494409 254.20283 
L 166.312838 254.013933 
L 166.50767 253.963476 
L 166.702501 253.984547 
L 174.235993 253.126486 
L 174.430825 253.024326 
L 174.625657 253.072553 
L 175.01532 252.985516 
L 175.210152 252.993544 
L 175.404984 252.917685 
L 175.599815 252.933624 
L 175.794647 252.883832 
L 176.18431 252.847031 
L 176.379142 252.764559 
L 176.573974 252.795974 
L 176.768805 252.718935 
L 176.963637 252.735414 
L 177.158469 252.634669 
L 177.3533 252.673336 
L 177.548132 252.601201 
L 177.807908 252.591086 
L 178.132627 252.502588 
L 178.327459 252.520386 
L 178.522291 252.42371 
L 178.717122 252.458998 
L 178.976898 252.41218 
L 179.431505 252.319711 
L 179.626337 252.32258 
L 179.821169 252.192958 
L 179.886112 252.275795 
L 180.080944 252.076672 
L 180.145888 252.231592 
L 180.210832 252.132627 
L 180.34072 252.195841 
L 180.535551 252.062018 
L 180.600495 252.164185 
L 180.665439 252.078309 
L 180.795327 252.115449 
L 180.990159 252.013485 
L 181.055103 252.091743 
L 181.120047 252.012239 
L 181.249934 252.029247 
L 184.691961 251.433666 
L 184.886793 251.29507 
L 184.951737 251.3884 
L 185.146568 251.197925 
L 185.211512 251.335341 
L 185.276456 251.18918 
L 185.3414 251.312352 
L 185.471288 251.267706 
L 187.939156 250.749594 
L 188.263875 250.595327 
L 188.328819 250.671792 
L 188.523651 250.493532 
L 188.588595 250.603811 
L 188.653539 250.459802 
L 188.718483 250.568745 
L 188.783427 250.443068 
L 188.84837 250.531429 
L 189.043202 250.44509 
L 190.471968 249.990909 
L 190.536912 250.064355 
L 190.731743 249.911268 
L 190.796687 249.988522 
L 190.861631 249.895205 
L 190.991519 249.883505 
L 191.251295 249.842531 
L 191.446126 249.730392 
L 191.51107 249.779304 
L 191.705902 249.626765 
L 191.770846 249.709308 
L 191.965677 249.541691 
L 192.030621 249.633586 
L 192.225453 249.456715 
L 192.290397 249.555791 
L 192.485229 249.425431 
L 192.615116 249.413393 
L 193.134668 249.294439 
L 193.329499 249.137205 
L 193.394443 249.219435 
L 193.589275 249.056357 
L 193.654219 249.138646 
L 193.849051 248.995406 
L 193.913994 249.051557 
L 193.978938 248.968296 
L 194.17377 248.95871 
L 194.49849 248.837076 
L 195.407704 248.580486 
L 195.602536 248.310069 
L 195.66748 248.487423 
L 195.732424 248.091682 
L 195.797367 248.382667 
L 195.862311 247.944158 
L 195.927255 248.378285 
L 195.992199 248.221539 
L 196.122087 248.360683 
L 196.187031 248.032284 
L 196.251975 248.304356 
L 196.316919 248.146835 
L 196.446806 248.255914 
L 196.51175 248.002571 
L 196.576694 248.211757 
L 196.641638 248.100395 
L 196.771526 248.145882 
L 196.83647 247.946082 
L 196.901414 248.096788 
L 197.161189 247.882633 
L 197.291077 247.937806 
L 197.485909 247.807003 
L 197.615797 247.833461 
L 197.810628 247.718962 
L 198.265236 247.611095 
L 198.460067 247.514694 
L 202.096926 246.213806 
L 204.110186 245.385353 
L 204.17513 245.466227 
L 204.369962 245.057156 
L 204.434906 245.321468 
L 204.49985 244.762767 
L 204.564794 245.210778 
L 204.629738 244.812891 
L 204.694681 245.276946 
L 204.759625 245.204726 
L 204.824569 245.001684 
L 204.889513 245.181079 
L 204.954457 244.82345 
L 205.019401 245.156434 
L 205.084345 245.083595 
L 205.149289 244.911139 
L 205.214233 245.074217 
L 205.279177 244.815617 
L 205.34412 245.011799 
L 205.409064 244.978982 
L 205.474008 244.778575 
L 205.538952 244.947829 
L 205.603896 244.775399 
L 205.66884 244.842838 
L 205.733784 244.856977 
L 205.798728 244.662576 
L 205.863672 244.808887 
L 205.993559 244.676141 
L 206.058503 244.725724 
L 206.123447 244.563266 
L 206.188391 244.661735 
L 206.513111 244.514804 
L 213.851771 241.425328 
L 213.916715 241.135549 
L 213.981659 241.358156 
L 214.176491 240.54227 
L 214.241434 241.162581 
L 214.306378 240.878528 
L 214.436266 241.180613 
L 214.50121 240.728467 
L 214.566154 241.093896 
L 214.631098 240.831116 
L 214.760986 241.038312 
L 214.82593 240.675877 
L 214.890873 240.977388 
L 214.955817 240.809504 
L 215.085705 240.887782 
L 215.150649 240.599686 
L 215.215593 240.818901 
L 215.280537 240.735275 
L 215.345481 240.605372 
L 215.410425 240.732549 
L 215.475369 240.531066 
L 215.540312 240.632098 
L 215.605256 240.616348 
L 215.6702 240.444264 
L 215.735144 240.575015 
L 215.865032 240.445816 
L 215.929976 240.477954 
L 215.99492 240.319813 
L 216.059864 240.413274 
L 216.319639 240.206136 
L 216.449527 240.217229 
L 216.644359 240.085298 
L 216.904134 240.025932 
L 217.16391 239.848833 
L 217.293798 239.810597 
L 223.463468 236.924032 
L 224.437626 236.336349 
L 224.50257 236.501996 
L 224.567514 236.122742 
L 224.632458 236.407923 
L 224.697402 235.782382 
L 224.762346 236.252664 
L 224.82729 235.634577 
L 224.892234 236.288598 
L 224.957178 236.093545 
L 225.087065 236.24433 
L 225.152009 235.754091 
L 225.216953 236.174556 
L 225.281897 235.959462 
L 225.411785 236.100053 
L 225.476729 235.726577 
L 225.541673 236.036586 
L 225.606617 235.876292 
L 225.736504 235.940021 
L 225.801448 235.648331 
L 225.866392 235.868936 
L 225.931336 235.769782 
L 225.99628 235.66637 
L 226.061224 235.778775 
L 226.126168 235.558992 
L 226.191112 235.690545 
L 226.645719 235.368798 
L 226.710663 235.464965 
L 226.840551 235.35507 
L 226.905495 235.362028 
L 227.100326 235.221058 
L 227.879653 234.8962 
L 228.139429 234.745317 
L 228.399204 234.624623 
L 230.542353 233.626114 
L 231.776287 233.031413 
L 233.205053 232.358637 
L 233.65966 232.106865 
L 233.854492 232.067482 
L 234.049323 231.877248 
L 234.114267 231.9651 
L 234.309099 231.629774 
L 234.374043 231.855538 
L 234.438987 231.452753 
L 234.503931 231.776816 
L 234.568875 231.297606 
L 234.633818 231.710727 
L 234.698762 231.320353 
L 234.763706 231.675582 
L 234.82865 231.497719 
L 234.958538 231.571465 
L 235.023482 231.312253 
L 235.088426 231.523427 
L 235.15337 231.22386 
L 235.218313 231.456145 
L 235.283257 231.29741 
L 235.413145 231.337987 
L 235.607977 231.074497 
L 235.672921 231.218316 
L 235.737865 231.099305 
L 235.867752 231.106374 
L 236.062584 230.896491 
L 236.127528 230.986384 
L 236.192472 230.89145 
L 236.452248 230.834966 
L 236.647079 230.677132 
L 236.906855 230.60696 
L 237.101687 230.456044 
L 237.296518 230.383192 
L 237.621238 230.251972 
L 237.881013 230.111811 
L 238.790228 229.665873 
L 240.283938 228.992972 
L 240.478769 228.648504 
L 240.543713 228.883293 
L 240.608657 228.454416 
L 240.673601 228.797469 
L 240.738545 228.26623 
L 240.803489 228.723665 
L 240.868433 228.282384 
L 240.933376 228.704224 
L 240.99832 228.510469 
L 241.128208 228.605625 
L 241.193152 228.300011 
L 241.258096 228.550067 
L 241.32304 228.227342 
L 241.387984 228.482087 
L 241.452928 228.344475 
L 241.582815 228.378342 
L 241.647759 228.130125 
L 241.712703 228.321696 
L 241.777647 228.10713 
L 241.842591 228.226592 
L 242.102367 227.951963 
L 242.167311 228.082237 
L 242.297198 227.975694 
L 242.49203 227.919205 
L 242.556974 227.770213 
L 242.621918 227.846561 
L 242.881693 227.639123 
L 242.946637 227.689189 
L 243.141469 227.54145 
L 243.855852 227.218385 
L 244.050684 227.078909 
L 244.245515 227.008691 
L 246.193832 226.045412 
L 246.778327 225.741788 
L 247.232935 225.553041 
L 247.427766 225.317913 
L 247.49271 225.454617 
L 247.557654 225.170082 
L 247.622598 225.39531 
L 247.687542 224.961823 
L 247.752486 225.304478 
L 247.81743 224.733085 
L 247.882374 225.213215 
L 247.947317 224.705747 
L 248.012261 225.20359 
L 248.077205 224.969361 
L 248.207093 225.109145 
L 248.272037 224.787188 
L 248.336981 225.051716 
L 248.401925 224.697765 
L 248.466869 224.986109 
L 248.531813 224.842595 
L 248.6617 224.881164 
L 248.726644 224.600907 
L 248.791588 224.820931 
L 248.856532 224.603072 
L 248.921476 224.714016 
L 249.830691 224.220817 
L 249.895634 224.262516 
L 250.090466 224.099764 
L 250.220354 224.080043 
L 250.415186 223.931638 
L 250.545073 223.892522 
L 250.934737 223.744405 
L 251.194512 223.584926 
L 251.584176 223.39674 
L 252.103727 223.17536 
L 252.298559 223.043037 
L 252.81811 222.829026 
L 253.012941 222.687013 
L 253.207773 222.625762 
L 253.727324 222.355222 
L 254.052044 222.236308 
L 254.246876 222.028961 
L 254.311819 222.129902 
L 254.506651 221.842471 
L 254.571595 222.01961 
L 254.636539 221.741869 
L 254.701483 221.960798 
L 254.766427 221.645755 
L 254.831371 221.899248 
L 254.896315 221.585339 
L 254.961258 221.83818 
L 255.026202 221.57797 
L 255.091146 221.768138 
L 255.15609 221.600273 
L 255.221034 221.673432 
L 255.48081 221.441774 
L 255.545754 221.542232 
L 255.740585 221.280704 
L 255.805529 221.415413 
L 255.870473 221.239605 
L 255.935417 221.341029 
L 256.130249 221.182776 
L 256.390024 221.105509 
L 256.584856 220.924953 
L 256.6498 221.000629 
L 256.844631 220.774149 
L 256.909575 220.881298 
L 257.104407 220.651296 
L 257.169351 220.752654 
L 257.364183 220.559107 
L 257.429127 220.614671 
L 257.623958 220.46864 
L 257.81879 220.401377 
L 258.468229 219.960154 
L 258.533173 220.11298 
L 258.598117 219.83378 
L 258.663061 220.057834 
L 258.728005 219.683953 
L 258.792948 219.989606 
L 258.857892 219.543466 
L 258.922836 219.923555 
L 258.98778 219.505276 
L 259.052724 219.877813 
L 259.117668 219.612881 
L 259.182612 219.79632 
L 259.247556 219.721244 
L 259.442387 219.45206 
L 259.507331 219.666019 
L 259.572275 219.402887 
L 259.637219 219.593682 
L 259.702163 219.445695 
L 259.767107 219.476216 
L 259.832051 219.467738 
L 260.026882 219.230157 
L 260.091826 219.374179 
L 260.15677 219.202819 
L 260.221714 219.292921 
L 260.48149 219.081649 
L 260.546434 219.15602 
L 260.741265 218.973117 
L 260.871153 218.950135 
L 261.390704 218.755114 
L 261.585536 218.601832 
L 261.845312 218.519816 
L 262.170031 218.336235 
L 262.364863 218.29314 
L 262.689582 218.105463 
L 262.949358 217.99007 
L 263.274077 217.869343 
L 263.468909 217.726065 
L 263.533853 217.768585 
L 263.728685 217.548926 
L 263.793629 217.674675 
L 263.858572 217.436038 
L 263.923516 217.622855 
L 263.98846 217.309807 
L 264.053404 217.564643 
L 264.118348 217.186289 
L 264.183292 217.502936 
L 264.248236 217.107169 
L 264.31318 217.44912 
L 264.378124 217.12766 
L 264.443068 217.394652 
L 264.508011 217.21454 
L 264.637899 217.264143 
L 264.832731 217.003803 
L 264.897675 217.187958 
L 264.962619 216.953717 
L 265.027563 217.118086 
L 265.092507 216.964804 
L 265.15745 217.023537 
L 265.547114 216.728632 
L 265.612058 216.848198 
L 265.677002 216.692933 
L 265.741945 216.776278 
L 265.936777 216.651482 
L 266.391384 216.399633 
L 266.456328 216.455953 
L 266.65116 216.307639 
L 266.845992 216.249219 
L 267.560375 215.975744 
L 267.755206 215.739716 
L 267.82015 215.868269 
L 268.014982 215.637458 
L 268.079926 215.754625 
L 268.274757 215.551374 
L 268.339701 215.632398 
L 268.534533 215.464259 
L 268.599477 215.503858 
L 268.794309 215.35411 
L 268.859253 215.384005 
L 269.054084 215.217353 
L 269.119028 215.281264 
L 269.31386 215.051796 
L 269.378804 215.18858 
L 269.443748 214.950751 
L 269.508692 215.14015 
L 269.573635 214.83742 
L 269.638579 215.085813 
L 269.703523 214.722458 
L 269.768467 215.027145 
L 269.833411 214.655534 
L 269.898355 214.977516 
L 269.963299 214.679533 
L 270.028243 214.921939 
L 270.093187 214.753083 
L 270.223074 214.792069 
L 270.417906 214.557697 
L 270.48285 214.721845 
L 270.547794 214.496069 
L 270.612738 214.658455 
L 270.677682 214.490943 
L 270.742626 214.577627 
L 271.002401 214.37812 
L 271.067345 214.451683 
L 271.262177 214.236119 
L 271.327121 214.344703 
L 271.521952 214.16716 
L 271.65184 214.137018 
L 271.911616 214.063924 
L 272.106447 213.929463 
L 272.171391 213.968096 
L 272.366223 213.819627 
L 272.431167 213.856473 
L 272.625999 213.705082 
L 272.690943 213.744003 
L 272.885774 213.59955 
L 273.080606 213.575512 
L 273.275438 213.425242 
L 273.340382 213.475784 
L 273.535213 213.282146 
L 273.600157 213.382317 
L 273.794989 213.103025 
L 273.859933 213.286659 
L 273.924877 213.000219 
L 273.989821 213.23283 
L 274.054764 212.902944 
L 274.119708 213.178166 
L 274.184652 212.842254 
L 274.249596 213.126764 
L 274.31454 212.844667 
L 274.379484 213.071956 
L 274.444428 212.889118 
L 274.509372 212.988533 
L 274.769147 212.756 
L 274.834091 212.872997 
L 275.028923 212.623665 
L 275.093867 212.756039 
L 275.158811 212.603604 
L 275.223755 212.684106 
L 275.418586 212.568036 
L 275.743306 212.370237 
L 275.80825 212.450817 
L 276.003081 212.238345 
L 276.068025 212.346394 
L 276.262857 212.157308 
L 276.327801 212.225119 
L 276.522633 212.100375 
L 276.912296 211.979218 
L 277.107128 211.80744 
L 277.172072 211.887798 
L 277.366903 211.633419 
L 277.431847 211.79484 
L 277.496791 211.537252 
L 277.561735 211.745133 
L 277.626679 211.445167 
L 277.691623 211.694095 
L 277.756567 211.379847 
L 277.82151 211.64474 
L 277.886454 211.363465 
L 277.951398 211.593794 
L 278.016342 211.389786 
L 278.081286 211.524261 
L 278.211174 211.427716 
L 278.406006 211.393673 
L 278.600837 211.162862 
L 278.665781 211.289511 
L 278.730725 211.127346 
L 278.795669 211.225769 
L 278.990501 211.083325 
L 279.250276 211.021136 
L 279.445108 210.863144 
L 279.510052 210.937647 
L 279.704884 210.72554 
L 279.769827 210.841819 
L 279.964659 210.619525 
L 280.029603 210.737357 
L 280.224435 210.550527 
L 280.289379 210.622056 
L 280.48421 210.478855 
L 280.679042 210.437078 
L 281.328481 210.098505 
L 281.393425 210.185424 
L 281.588257 209.919084 
L 281.6532 210.107231 
L 281.718144 209.798944 
L 281.783088 210.057002 
L 281.848032 209.665878 
L 281.912976 209.998738 
L 281.97792 209.570194 
L 282.042864 209.950388 
L 282.107808 209.589706 
L 282.172752 209.914506 
L 282.237696 209.706299 
L 282.302639 209.824913 
L 282.367583 209.788027 
L 282.432527 209.664652 
L 282.497471 209.780592 
L 282.562415 209.52423 
L 282.627359 209.732215 
L 282.692303 209.484879 
L 282.757247 209.671343 
L 282.822191 209.522378 
L 282.887135 209.577446 
L 286.653881 208.010968 
L 286.718824 208.183763 
L 286.783768 207.903675 
L 286.848712 208.138725 
L 286.913656 207.786 
L 286.9786 208.08684 
L 287.043544 207.690721 
L 287.108488 208.038998 
L 287.173432 207.67593 
L 287.238376 208.002151 
L 287.30332 207.755793 
L 287.368263 207.939387 
L 287.498151 207.8169 
L 287.563095 207.864585 
L 287.628039 207.678003 
L 287.692983 207.833321 
L 287.757927 207.592102 
L 287.822871 207.78377 
L 287.887815 207.583154 
L 287.952759 207.718737 
L 288.082646 207.627983 
L 288.277478 207.601766 
L 288.47231 207.392659 
L 288.537254 207.512004 
L 288.602198 207.370147 
L 288.667141 207.450232 
L 288.861973 207.342104 
L 289.576356 207.070077 
L 289.771188 207.031613 
L 290.290739 206.822754 
L 290.485571 206.796798 
L 290.680402 206.669706 
L 290.745346 206.725869 
L 290.940178 206.546814 
L 291.005122 206.657823 
L 291.199953 206.394418 
L 291.264897 206.585291 
L 291.329841 206.305594 
L 291.394785 206.543801 
L 291.459729 206.225836 
L 291.524673 206.503015 
L 291.589617 206.181476 
L 291.654561 206.46442 
L 291.719505 206.190567 
L 291.784449 206.4222 
L 291.849392 206.236687 
L 291.914336 206.356006 
L 292.174112 206.160985 
L 292.239056 206.261482 
L 292.433888 206.028115 
L 292.498831 206.176624 
L 292.563775 206.00782 
L 292.628719 206.123565 
L 292.693663 206.004429 
L 292.758607 206.063084 
L 293.018383 205.934218 
L 293.083326 205.964152 
L 293.278158 205.812956 
L 293.343102 205.897619 
L 293.537934 205.720193 
L 293.602878 205.813491 
L 293.797709 205.653817 
L 293.862653 205.721863 
L 293.927597 205.62957 
L 294.057485 205.60604 
L 294.252317 205.576289 
L 295.031643 205.295496 
L 295.226475 205.303361 
L 295.421307 205.083637 
L 295.486251 205.249467 
L 295.551195 204.963028 
L 295.616139 205.209425 
L 295.681082 204.808845 
L 295.746026 205.15184 
L 295.81097 204.661275 
L 295.875914 205.100267 
L 295.940858 204.642245 
L 296.005802 205.092963 
L 296.070746 204.812836 
L 296.13569 205.053208 
L 296.200634 204.983505 
L 296.265577 204.883112 
L 296.330521 205.008052 
L 296.395465 204.708661 
L 296.460409 204.967267 
L 296.525353 204.693766 
L 296.590297 204.917585 
L 296.655241 204.788067 
L 296.785129 204.838048 
L 296.850073 204.670575 
L 296.915016 204.820832 
L 296.97996 204.612142 
L 297.044904 204.778207 
L 297.109848 204.646236 
L 297.239736 204.68594 
L 297.434568 204.529292 
L 297.499512 204.649315 
L 297.564455 204.507823 
L 297.629399 204.592499 
L 297.889175 204.429877 
L 297.954119 204.489615 
L 298.148951 204.353419 
L 298.278838 204.352923 
L 299.382885 204.064018 
L 299.577716 203.97779 
L 299.96738 203.892123 
L 300.681763 203.671812 
L 301.006482 203.605383 
L 301.201314 203.511355 
L 301.396145 203.523251 
L 301.590977 203.370385 
L 301.655921 203.471417 
L 301.720865 203.299118 
L 301.785809 203.443961 
L 301.850753 203.209655 
L 301.915697 203.413049 
L 301.98064 203.102219 
L 302.045584 203.37495 
L 302.110528 202.990152 
L 302.175472 203.333421 
L 302.240416 202.917724 
L 302.30536 203.303018 
L 302.370304 202.943954 
L 302.435248 203.282788 
L 302.500192 203.062177 
L 302.565136 203.222242 
L 302.630079 203.163756 
L 302.824911 202.964705 
L 302.889855 203.158252 
L 302.954799 202.911672 
L 303.019743 203.117258 
L 303.084687 202.939937 
L 303.149631 203.054077 
L 303.409406 202.871186 
L 303.47435 202.987426 
L 303.539294 202.817462 
L 303.604238 202.954519 
L 303.669182 202.808605 
L 303.734126 202.906742 
L 303.928957 202.818779 
L 304.253677 202.668718 
L 304.318621 202.750368 
L 304.513453 202.624619 
L 304.64334 202.618385 
L 305.033004 202.563147 
L 305.227835 202.442446 
L 305.292779 202.497149 
L 305.487611 202.364031 
L 305.552555 202.427551 
L 305.747387 202.307633 
L 305.942218 202.331828 
L 306.13705 202.252591 
L 306.396826 202.19044 
L 306.721545 202.139089 
L 306.916377 202.034614 
L 306.981321 202.100482 
L 307.176152 201.916065 
L 307.241096 202.068591 
L 307.30604 201.82792 
L 307.370984 202.044983 
L 307.435928 201.712671 
L 307.500872 202.009284 
L 307.565816 201.588018 
L 307.63076 201.967077 
L 307.695704 201.518824 
L 307.760647 201.946234 
L 307.825591 201.592818 
L 307.890535 201.939204 
L 307.955479 201.759822 
L 308.085367 201.861728 
L 308.150311 201.703019 
L 308.215255 201.862536 
L 308.280199 201.58854 
L 308.345142 201.831807 
L 308.410086 201.596835 
L 308.47503 201.788817 
L 308.539974 201.67435 
L 308.669862 201.723171 
L 308.734806 201.599183 
L 308.79975 201.723262 
L 308.864694 201.538428 
L 308.929638 201.698232 
L 308.994581 201.541428 
L 309.059525 201.65412 
L 309.189413 201.586531 
L 309.384245 201.587353 
L 309.579077 201.431253 
L 309.64402 201.524641 
L 309.708964 201.436587 
L 309.838852 201.446657 
L 310.293459 201.323269 
L 310.488291 201.330221 
L 310.877954 201.209455 
L 311.072786 201.22178 
L 311.267618 201.133166 
L 311.46245 201.143717 
L 311.787169 201.061598 
L 312.111889 201.02946 
L 312.30672 200.954984 
L 312.501552 200.987904 
L 312.696384 200.834191 
L 312.761328 200.966292 
L 312.826271 200.77821 
L 312.891215 200.953614 
L 312.956159 200.711703 
L 313.021103 200.937532 
L 313.086047 200.639053 
L 313.150991 200.916728 
L 313.215935 200.573838 
L 313.280879 200.895611 
L 313.345823 200.55529 
L 313.410767 200.88129 
L 313.47571 200.606719 
L 313.540654 200.861751 
L 313.605598 200.698791 
L 313.670542 200.80774 
L 313.735486 200.767515 
L 313.930318 200.631227 
L 313.995262 200.78121 
L 314.060205 200.582864 
L 314.125149 200.76055 
L 314.190093 200.580711 
L 314.255037 200.730812 
L 314.319981 200.606928 
L 314.384925 200.69043 
L 314.449869 200.636732 
L 314.709644 200.656909 
L 314.904476 200.498749 
L 314.96942 200.628162 
L 315.034364 200.480645 
L 315.099308 200.604189 
L 315.164252 200.475819 
L 315.229196 200.575872 
L 315.424027 200.486045 
L 315.683803 200.487792 
L 315.878635 200.418912 
L 316.073466 200.452015 
L 316.268298 200.32924 
L 316.333242 200.419655 
L 316.528074 200.267572 
L 316.593018 200.39233 
L 316.657961 200.242686 
L 316.722905 200.380408 
L 316.787849 200.219691 
L 316.852793 200.368552 
L 316.917737 200.196422 
L 316.982681 200.354753 
L 317.047625 200.174314 
L 317.112569 200.339205 
L 317.177513 200.154606 
L 317.242456 200.321271 
L 317.3074 200.138798 
L 317.372344 200.301811 
L 317.437288 200.126733 
L 317.502232 200.280576 
L 317.567176 200.118737 
L 317.63212 200.258573 
L 317.697064 200.116364 
L 317.762008 200.235865 
L 317.826952 200.117029 
L 317.891895 200.212883 
L 318.086727 200.114251 
L 318.281559 200.145111 
L 318.476391 200.072278 
L 318.671222 200.099799 
L 318.866054 199.988776 
L 318.930998 200.085517 
L 318.995942 199.946542 
L 319.060886 200.081043 
L 319.12583 199.890105 
L 319.190773 200.074639 
L 319.255717 199.815055 
L 319.320661 200.062117 
L 319.385605 199.729335 
L 319.450549 200.046831 
L 319.515493 199.652824 
L 319.580437 200.033214 
L 319.645381 199.646955 
L 319.710325 200.038822 
L 319.775269 199.7546 
L 319.840212 200.037179 
L 319.905156 199.904739 
L 320.035044 199.992402 
L 320.099988 199.857145 
L 320.164932 200.009032 
L 320.229876 199.778064 
L 320.29482 199.999484 
L 320.359764 199.786647 
L 320.424707 199.982059 
L 320.489651 199.85704 
L 320.619539 199.92416 
L 320.814371 199.822985 
L 320.879315 199.96222 
L 320.944259 199.803512 
L 321.009203 199.952503 
L 321.074146 199.820494 
L 321.13909 199.93003 
L 321.268978 199.895752 
L 321.788529 199.815537 
L 321.983361 199.868088 
L 322.243137 199.826115 
L 322.437968 199.854523 
L 322.6328 199.766573 
L 322.827632 199.843919 
L 323.022463 199.762739 
L 323.217295 199.820702 
L 323.412127 199.783803 
L 323.736846 199.793129 
L 324.061566 199.760861 
L 324.256397 199.809355 
L 324.451229 199.712862 
L 324.516173 199.824459 
L 324.581117 199.672441 
L 324.646061 199.829402 
L 324.711005 199.60926 
L 324.775949 199.828933 
L 324.840893 199.521885 
L 324.905836 199.816959 
L 324.97078 199.420422 
L 325.035724 199.798607 
L 325.100668 199.362876 
L 325.165612 199.799181 
L 325.230556 199.438748 
L 325.2955 199.826167 
L 325.360444 199.628838 
L 325.490332 199.774386 
L 325.555275 199.671398 
L 325.620219 199.81135 
L 325.685163 199.559788 
L 325.750107 199.803916 
L 325.815051 199.563179 
L 325.879995 199.79146 
L 325.944939 199.657846 
L 326.074827 199.743944 
L 326.13977 199.66815 
L 326.204714 199.779017 
L 326.269658 199.61633 
L 326.334602 199.784534 
L 326.399546 199.630012 
L 326.46449 199.772508 
L 326.529434 199.682484 
L 326.659322 199.728318 
L 326.854153 199.656437 
L 326.919097 199.754482 
L 326.984041 199.645768 
L 327.048985 199.746604 
L 327.113929 199.659281 
L 327.178873 199.730496 
L 327.373705 199.710788 
L 327.698424 199.669715 
L 327.893256 199.721901 
L 328.088087 199.680906 
L 328.477751 199.703849 
L 328.672583 199.668763 
L 328.867414 199.71311 
L 329.062246 199.641255 
L 329.257078 199.712353 
L 329.451909 199.652055 
L 329.646741 199.708388 
L 329.841573 199.649825 
L 330.036404 199.708401 
L 330.231236 199.618743 
L 330.29618 199.719227 
L 330.361124 199.594222 
L 330.426068 199.727653 
L 330.491012 199.559514 
L 330.555956 199.7357 
L 330.620899 199.511111 
L 330.685843 199.740096 
L 330.750787 199.45123 
L 330.815731 199.738022 
L 330.880675 199.39911 
L 330.945619 199.737018 
L 331.010563 199.393436 
L 331.075507 199.74517 
L 331.140451 199.465799 
L 331.205395 199.752487 
L 331.270338 199.585509 
L 331.335282 199.722436 
L 331.400226 199.682419 
L 331.595058 199.570796 
L 331.660002 199.733483 
L 331.724946 199.534367 
L 331.78989 199.731696 
L 331.854834 199.553227 
L 331.919777 199.725318 
L 331.984721 199.610108 
L 332.114609 199.669702 
L 333.738207 199.726218 
L 333.933038 199.647803 
L 334.12787 199.72824 
L 334.322702 199.652146 
L 334.517533 199.745339 
L 334.712365 199.65379 
L 334.777309 199.753191 
L 334.842253 199.646746 
L 334.907197 199.756974 
L 334.972141 199.637877 
L 335.037085 199.761721 
L 335.102028 199.623947 
L 335.166972 199.767852 
L 335.231916 199.602439 
L 335.29686 199.77406 
L 335.361804 199.574318 
L 335.426748 199.780856 
L 335.491692 199.550697 
L 335.556636 199.790012 
L 335.62158 199.53901 
L 335.686523 199.80012 
L 335.751467 199.545062 
L 335.816411 199.807477 
L 335.881355 199.580448 
L 335.946299 199.813503 
L 336.011243 199.643968 
L 336.076187 199.806994 
L 336.141131 199.713214 
L 336.271019 199.76583 
L 336.46585 199.713214 
L 336.530794 199.817715 
L 336.595738 199.691484 
L 336.660682 199.830289 
L 336.725626 199.682563 
L 336.79057 199.838819 
L 336.855514 199.687963 
L 336.920458 199.845797 
L 336.985401 199.705832 
L 337.050345 199.849436 
L 337.115289 199.73107 
L 337.180233 199.849828 
L 337.245177 199.760208 
L 337.440009 199.839928 
L 337.699784 199.824746 
L 337.894616 199.874127 
L 338.089448 199.805781 
L 338.154392 199.898426 
L 338.219336 199.795777 
L 338.284279 199.910152 
L 338.349223 199.782682 
L 338.414167 199.919021 
L 338.608999 198.793636 
L 338.673943 199.777217 
L 338.738887 199.469295 
L 338.868774 199.902326 
L 338.933718 199.195507 
L 338.998662 199.769926 
L 339.063606 199.337194 
L 339.193494 199.773643 
L 339.258438 199.28853 
L 339.323382 199.758982 
L 339.388326 199.410601 
L 339.518213 199.775899 
L 339.583157 199.421231 
L 339.648101 199.829311 
L 339.713045 199.579835 
L 339.842933 199.833628 
L 339.907877 199.53125 
L 339.972821 199.846762 
L 340.037765 199.669389 
L 340.167652 199.817846 
L 340.232596 199.562214 
L 340.29754 199.802012 
L 340.362484 199.693102 
L 340.427428 199.68045 
L 340.492372 199.798881 
L 340.557316 199.610356 
L 340.62226 199.795881 
L 340.687204 199.741087 
L 340.752148 199.707032 
L 340.817091 199.826846 
L 340.882035 199.690584 
L 341.011923 199.791825 
L 341.076867 199.745483 
L 341.141811 199.847441 
L 341.206755 199.738648 
L 341.271699 199.822659 
L 341.726306 199.775495 
L 341.921138 199.839967 
L 342.505633 199.850271 
L 342.765408 199.894787 
L 343.025184 199.899274 
L 344.778669 200.036227 
L 345.557996 200.083899 
L 346.402267 200.161793 
L 347.246537 200.216548 
L 348.350584 200.298159 
L 348.675303 200.308802 
L 349.974181 200.324714 
L 350.558676 200.250199 
L 350.883396 200.243547 
L 351.078227 200.161754 
L 351.273059 200.193188 
L 351.467891 200.028544 
L 351.532835 200.150341 
L 351.597778 199.973594 
L 351.662722 200.129759 
L 351.727666 199.913595 
L 351.79261 200.107781 
L 351.857554 199.843893 
L 351.922498 200.081539 
L 351.987442 199.765947 
L 352.052386 200.049492 
L 352.11733 199.698436 
L 352.182274 200.016427 
L 352.247217 199.667694 
L 352.312161 199.984902 
L 352.377105 199.690402 
L 352.442049 199.946477 
L 352.506993 199.747113 
L 352.571937 199.883479 
L 352.701825 199.792008 
L 352.766769 199.809003 
L 352.9616 199.614712 
L 353.026544 199.766573 
L 353.091488 199.567757 
L 353.156432 199.731957 
L 353.221376 199.549614 
L 353.28632 199.691145 
L 353.351264 199.545754 
L 353.416208 199.642364 
L 353.611039 199.539949 
L 354.13059 199.447408 
L 354.325422 199.267153 
L 354.390366 199.378906 
L 354.585198 199.20392 
L 354.650142 199.309517 
L 354.844973 199.166799 
L 354.909917 199.229615 
L 354.974861 199.143308 
L 355.169693 199.139917 
L 355.364525 199.05648 
L 355.429468 199.122518 
L 355.6243 197.897887 
L 355.689244 198.796922 
L 355.754188 198.150414 
L 355.819132 198.948027 
L 355.884076 198.828539 
L 355.94902 198.402707 
L 356.013964 198.755302 
L 356.078907 198.016423 
L 356.143851 198.715833 
L 356.208795 198.480457 
L 356.273739 198.398351 
L 356.338683 198.633675 
L 356.403627 198.055291 
L 356.468571 198.600167 
L 356.533515 198.391295 
L 356.598459 198.38639 
L 356.663402 198.569229 
L 356.728346 198.133758 
L 356.79329 198.538473 
L 356.858234 198.348435 
L 356.923178 198.310245 
L 356.988122 198.460436 
L 357.053066 198.109785 
L 357.11801 198.392508 
L 357.182954 198.239473 
L 357.247898 198.190652 
L 357.312841 198.31901 
L 357.377785 198.049735 
L 357.442729 198.266955 
L 357.507673 198.160379 
L 357.572617 198.11765 
L 357.637561 198.229117 
L 357.702505 198.028722 
L 357.767449 198.190561 
L 357.832393 198.103172 
L 358.027224 197.98118 
L 358.092168 198.09309 
L 358.157112 198.011557 
L 358.546776 197.890504 
L 358.741607 197.894196 
L 359.001383 197.780303 
L 359.131271 197.764977 
L 359.391046 197.73473 
L 359.650822 197.624542 
L 360.040485 197.551462 
L 360.430149 197.447234 
L 361.404307 197.202167 
L 367.509033 195.591473 
L 367.573977 195.655006 
L 367.768809 195.501841 
L 367.833753 195.60449 
L 368.028585 195.4141 
L 368.093529 195.556022 
L 368.158472 195.351467 
L 368.223416 195.529166 
L 368.28836 195.275921 
L 368.353304 195.500993 
L 368.418248 195.194832 
L 368.483192 195.473485 
L 368.548136 195.120643 
L 368.61308 195.446121 
L 368.678024 195.07224 
L 368.742968 195.419904 
L 368.807911 195.068744 
L 368.872855 195.390544 
L 368.937799 195.108969 
L 369.002743 195.343145 
L 369.067687 195.164259 
L 369.132631 195.267143 
L 369.197575 195.201171 
L 369.522294 195.007364 
L 369.587238 195.177237 
L 369.652182 194.96003 
L 369.717126 195.149716 
L 369.78207 194.93457 
L 369.847014 195.1154 
L 369.911958 194.924579 
L 369.976902 195.072644 
L 370.041845 194.923888 
L 370.106789 195.021489 
L 370.301621 194.924657 
L 371.145892 194.6387 
L 371.210836 194.776579 
L 371.27578 193.994188 
L 371.340723 194.571841 
L 371.405667 193.511945 
L 371.470611 194.537968 
L 371.535555 193.992649 
L 371.600499 194.561446 
L 371.665443 194.517151 
L 371.730387 193.892947 
L 371.795331 194.40202 
L 371.860275 193.700287 
L 371.925218 194.348452 
L 371.990162 194.1803 
L 372.055106 193.963589 
L 372.12005 194.289223 
L 372.184994 193.718835 
L 372.249938 194.266437 
L 372.314882 194.077377 
L 372.379826 194.008339 
L 372.44477 194.233594 
L 372.509714 193.78585 
L 372.574657 194.177783 
L 372.639601 193.985749 
L 372.704545 193.939837 
L 372.769489 194.088789 
L 372.834433 193.734252 
L 372.899377 194.027474 
L 372.964321 193.857965 
L 373.029265 193.842248 
L 373.094209 193.961306 
L 373.159153 193.701435 
L 373.224096 193.933655 
L 373.28904 193.795893 
L 373.418928 193.885773 
L 373.483872 193.686918 
L 373.548816 193.858474 
L 373.61376 193.728552 
L 373.743648 193.781259 
L 373.808592 193.624833 
L 373.873535 193.749668 
L 374.003423 193.655771 
L 374.068367 193.673692 
L 374.263199 193.557061 
L 374.393087 193.581191 
L 374.587918 193.472737 
L 374.717806 193.483315 
L 375.107469 193.393213 
L 375.302301 193.370675 
L 375.562077 193.255935 
L 375.756908 193.24593 
L 376.016684 193.155516 
L 376.211516 193.13646 
L 376.796011 192.964395 
L 377.055786 192.899153 
L 377.44545 192.817829 
L 377.965001 192.67832 
L 378.484552 192.540311 
L 381.666803 191.728638 
L 383.485232 191.332923 
L 383.550176 191.111895 
L 383.61512 191.312993 
L 383.680064 191.031836 
L 383.745008 191.290572 
L 383.809952 190.935643 
L 383.874896 191.262921 
L 383.93984 190.834924 
L 384.004784 191.2324 
L 384.069727 190.760905 
L 384.134671 191.203418 
L 384.199615 190.755035 
L 384.264559 191.175584 
L 384.329503 190.829042 
L 384.394447 191.124442 
L 384.459391 190.9292 
L 384.589279 190.991898 
L 384.654222 190.892483 
L 384.719166 191.004002 
L 384.78411 190.778774 
L 384.849054 190.987503 
L 384.913998 190.722271 
L 384.978942 190.959616 
L 385.043886 190.726419 
L 385.10883 190.918178 
L 385.173774 190.757305 
L 385.238718 190.854658 
L 385.498493 190.692976 
L 385.563437 190.773243 
L 385.758269 190.568884 
L 385.823213 190.715475 
L 385.888157 190.53865 
L 385.9531 190.679842 
L 386.018044 190.528946 
L 386.082988 190.639251 
L 386.27782 190.52009 
L 386.537596 190.486804 
L 386.732427 190.368985 
L 386.797371 190.491095 
L 386.862315 189.701843 
L 386.927259 190.311282 
L 386.992203 189.166228 
L 387.057147 190.24205 
L 387.122091 189.60535 
L 387.187034 190.256345 
L 387.251978 190.179286 
L 387.316922 189.595476 
L 387.381866 190.105436 
L 387.44681 189.327793 
L 387.511754 190.052038 
L 387.576698 189.823196 
L 387.641642 189.693365 
L 387.706586 189.999878 
L 387.77153 189.387778 
L 387.836473 189.970935 
L 387.901417 189.710725 
L 387.966361 189.727447 
L 388.031305 189.904298 
L 388.096249 189.431694 
L 388.161193 189.851526 
L 388.226137 189.582446 
L 388.356025 189.732481 
L 388.420969 189.376887 
L 388.485912 189.69973 
L 388.550856 189.46871 
L 388.680744 189.615158 
L 388.745688 189.365213 
L 388.810632 189.610646 
L 388.875576 189.411882 
L 388.94052 189.486371 
L 389.005464 189.512731 
L 389.070408 189.325914 
L 389.135351 189.498644 
L 389.200295 189.316889 
L 389.265239 189.388 
L 389.330183 189.382026 
L 389.395127 189.25419 
L 389.460071 189.3811 
L 389.525015 189.229148 
L 389.589959 189.308645 
L 390.174454 189.077326 
L 390.304342 189.058778 
L 390.758949 188.964712 
L 391.408388 188.755787 
L 391.668163 188.698462 
L 392.44749 188.464756 
L 393.746368 188.107818 
L 394.330863 187.922867 
L 396.149292 187.37966 
L 398.227497 186.768682 
L 398.487273 186.681358 
L 398.487273 186.681358 
" clip-path="url(#p102506b4e7)" style="fill: none; stroke: #ff0000; stroke-width: 1.5; stroke-linecap: square"/>
   </g>
   <g id="patch_3">
    <path d="M 57.6 307.584 
L 57.6 41.472 
" style="fill: none; stroke: #000000; stroke-width: 0.8; stroke-linejoin: miter; stroke-linecap: square"/>
   </g>
   <g id="patch_4">
    <path d="M 414.72 307.584 
L 414.72 41.472 
" style="fill: none; stroke: #000000; stroke-width: 0.8; stroke-linejoin: miter; stroke-linecap: square"/>
   </g>
   <g id="patch_5">
    <path d="M 57.6 307.584 
L 414.72 307.584 
" style="fill: none; stroke: #000000; stroke-width: 0.8; stroke-linejoin: miter; stroke-linecap: square"/>
   </g>
   <g id="patch_6">
    <path d="M 57.6 41.472 
L 414.72 41.472 
" style="fill: none; stroke: #000000; stroke-width: 0.8; stroke-linejoin: miter; stroke-linecap: square"/>
   </g>
   <g id="text_14">
    <!-- Script19_loss -->
    <g transform="translate(196.532813 35.472) scale(0.12 -0.12)">
     <defs>
      <path id="DejaVuSans-53" d="M 3425 4513 
L 3425 3897 
Q 3066 4069 2747 4153 
Q 2428 4238 2131 4238 
Q 1616 4238 1336 4038 
Q 1056 3838 1056 3469 
Q 1056 3159 1242 3001 
Q 1428 2844 1947 2747 
L 2328 2669 
Q 3034 2534 3370 2195 
Q 3706 1856 3706 1288 
Q 3706 609 3251 259 
Q 2797 -91 1919 -91 
Q 1588 -91 1214 -16 
Q 841 59 441 206 
L 441 856 
Q 825 641 1194 531 
Q 1563 422 1919 422 
Q 2459 422 2753 634 
Q 3047 847 3047 1241 
Q 3047 1584 2836 1778 
Q 2625 1972 2144 2069 
L 1759 2144 
Q 1053 2284 737 2584 
Q 422 2884 422 3419 
Q 422 4038 858 4394 
Q 1294 4750 2059 4750 
Q 2388 4750 2728 4690 
Q 3069 4631 3425 4513 
z
" transform="scale(0.015625)"/>
      <path id="DejaVuSans-72" d="M 2631 2963 
Q 2534 3019 2420 3045 
Q 2306 3072 2169 3072 
Q 1681 3072 1420 2755 
Q 1159 2438 1159 1844 
L 1159 0 
L 581 0 
L 581 3500 
L 1159 3500 
L 1159 2956 
Q 1341 3275 1631 3429 
Q 1922 3584 2338 3584 
Q 2397 3584 2469 3576 
Q 2541 3569 2628 3553 
L 2631 2963 
z
" transform="scale(0.015625)"/>
      <path id="DejaVuSans-69" d="M 603 3500 
L 1178 3500 
L 1178 0 
L 603 0 
L 603 3500 
z
M 603 4863 
L 1178 4863 
L 1178 4134 
L 603 4134 
L 603 4863 
z
" transform="scale(0.015625)"/>
      <path id="DejaVuSans-74" d="M 1172 4494 
L 1172 3500 
L 2356 3500 
L 2356 3053 
L 1172 3053 
L 1172 1153 
Q 1172 725 1289 603 
Q 1406 481 1766 481 
L 2356 481 
L 2356 0 
L 1766 0 
Q 1100 0 847 248 
Q 594 497 594 1153 
L 594 3053 
L 172 3053 
L 172 3500 
L 594 3500 
L 594 4494 
L 1172 4494 
z
" transform="scale(0.015625)"/>
      <path id="DejaVuSans-39" d="M 703 97 
L 703 672 
Q 941 559 1184 500 
Q 1428 441 1663 441 
Q 2288 441 2617 861 
Q 2947 1281 2994 2138 
Q 2813 1869 2534 1725 
Q 2256 1581 1919 1581 
Q 1219 1581 811 2004 
Q 403 2428 403 3163 
Q 403 3881 828 4315 
Q 1253 4750 1959 4750 
Q 2769 4750 3195 4129 
Q 3622 3509 3622 2328 
Q 3622 1225 3098 567 
Q 2575 -91 1691 -91 
Q 1453 -91 1209 -44 
Q 966 3 703 97 
z
M 1959 2075 
Q 2384 2075 2632 2365 
Q 2881 2656 2881 3163 
Q 2881 3666 2632 3958 
Q 2384 4250 1959 4250 
Q 1534 4250 1286 3958 
Q 1038 3666 1038 3163 
Q 1038 2656 1286 2365 
Q 1534 2075 1959 2075 
z
" transform="scale(0.015625)"/>
      <path id="DejaVuSans-5f" d="M 3263 -1063 
L 3263 -1509 
L -63 -1509 
L -63 -1063 
L 3263 -1063 
z
" transform="scale(0.015625)"/>
     </defs>
     <use xlink:href="#DejaVuSans-53"/>
     <use xlink:href="#DejaVuSans-63" x="63.476562"/>
     <use xlink:href="#DejaVuSans-72" x="118.457031"/>
     <use xlink:href="#DejaVuSans-69" x="159.570312"/>
     <use xlink:href="#DejaVuSans-70" x="187.353516"/>
     <use xlink:href="#DejaVuSans-74" x="250.830078"/>
     <use xlink:href="#DejaVuSans-31" x="290.039062"/>
     <use xlink:href="#DejaVuSans-39" x="353.662109"/>
     <use xlink:href="#DejaVuSans-5f" x="417.285156"/>
     <use xlink:href="#DejaVuSans-6c" x="467.285156"/>
     <use xlink:href="#DejaVuSans-6f" x="495.068359"/>
     <use xlink:href="#DejaVuSans-73" x="556.25"/>
     <use xlink:href="#DejaVuSans-73" x="608.349609"/>
    </g>
   </g>
   <g id="legend_1">
    <g id="patch_7">
     <path d="M 64.6 93.506375 
L 164.295312 93.506375 
Q 166.295312 93.506375 166.295312 91.506375 
L 166.295312 48.472 
Q 166.295312 46.472 164.295312 46.472 
L 64.6 46.472 
Q 62.6 46.472 62.6 48.472 
L 62.6 91.506375 
Q 62.6 93.506375 64.6 93.506375 
z
" style="fill: #ffffff; opacity: 0.8; stroke: #cccccc; stroke-linejoin: miter"/>
    </g>
    <g id="line2d_15">
     <path d="M 66.6 54.570438 
L 76.6 54.570438 
L 86.6 54.570438 
" style="fill: none; stroke: #0000ff; stroke-width: 1.5; stroke-linecap: square"/>
    </g>
    <g id="text_15">
     <!-- training set -->
     <g transform="translate(94.6 58.070438) scale(0.1 -0.1)">
      <defs>
       <path id="DejaVuSans-61" d="M 2194 1759 
Q 1497 1759 1228 1600 
Q 959 1441 959 1056 
Q 959 750 1161 570 
Q 1363 391 1709 391 
Q 2188 391 2477 730 
Q 2766 1069 2766 1631 
L 2766 1759 
L 2194 1759 
z
M 3341 1997 
L 3341 0 
L 2766 0 
L 2766 531 
Q 2569 213 2275 61 
Q 1981 -91 1556 -91 
Q 1019 -91 701 211 
Q 384 513 384 1019 
Q 384 1609 779 1909 
Q 1175 2209 1959 2209 
L 2766 2209 
L 2766 2266 
Q 2766 2663 2505 2880 
Q 2244 3097 1772 3097 
Q 1472 3097 1187 3025 
Q 903 2953 641 2809 
L 641 3341 
Q 956 3463 1253 3523 
Q 1550 3584 1831 3584 
Q 2591 3584 2966 3190 
Q 3341 2797 3341 1997 
z
" transform="scale(0.015625)"/>
       <path id="DejaVuSans-6e" d="M 3513 2113 
L 3513 0 
L 2938 0 
L 2938 2094 
Q 2938 2591 2744 2837 
Q 2550 3084 2163 3084 
Q 1697 3084 1428 2787 
Q 1159 2491 1159 1978 
L 1159 0 
L 581 0 
L 581 3500 
L 1159 3500 
L 1159 2956 
Q 1366 3272 1645 3428 
Q 1925 3584 2291 3584 
Q 2894 3584 3203 3211 
Q 3513 2838 3513 2113 
z
" transform="scale(0.015625)"/>
       <path id="DejaVuSans-67" d="M 2906 1791 
Q 2906 2416 2648 2759 
Q 2391 3103 1925 3103 
Q 1463 3103 1205 2759 
Q 947 2416 947 1791 
Q 947 1169 1205 825 
Q 1463 481 1925 481 
Q 2391 481 2648 825 
Q 2906 1169 2906 1791 
z
M 3481 434 
Q 3481 -459 3084 -895 
Q 2688 -1331 1869 -1331 
Q 1566 -1331 1297 -1286 
Q 1028 -1241 775 -1147 
L 775 -588 
Q 1028 -725 1275 -790 
Q 1522 -856 1778 -856 
Q 2344 -856 2625 -561 
Q 2906 -266 2906 331 
L 2906 616 
Q 2728 306 2450 153 
Q 2172 0 1784 0 
Q 1141 0 747 490 
Q 353 981 353 1791 
Q 353 2603 747 3093 
Q 1141 3584 1784 3584 
Q 2172 3584 2450 3431 
Q 2728 3278 2906 2969 
L 2906 3500 
L 3481 3500 
L 3481 434 
z
" transform="scale(0.015625)"/>
       <path id="DejaVuSans-20" transform="scale(0.015625)"/>
      </defs>
      <use xlink:href="#DejaVuSans-74"/>
      <use xlink:href="#DejaVuSans-72" x="39.208984"/>
      <use xlink:href="#DejaVuSans-61" x="80.322266"/>
      <use xlink:href="#DejaVuSans-69" x="141.601562"/>
      <use xlink:href="#DejaVuSans-6e" x="169.384766"/>
      <use xlink:href="#DejaVuSans-69" x="232.763672"/>
      <use xlink:href="#DejaVuSans-6e" x="260.546875"/>
      <use xlink:href="#DejaVuSans-67" x="323.925781"/>
      <use xlink:href="#DejaVuSans-20" x="387.402344"/>
      <use xlink:href="#DejaVuSans-73" x="419.189453"/>
      <use xlink:href="#DejaVuSans-65" x="471.289062"/>
      <use xlink:href="#DejaVuSans-74" x="532.8125"/>
     </g>
    </g>
    <g id="line2d_16">
     <path d="M 66.6 69.248563 
L 76.6 69.248563 
L 86.6 69.248563 
" style="fill: none; stroke: #008000; stroke-width: 1.5; stroke-linecap: square"/>
    </g>
    <g id="text_16">
     <!-- validation set -->
     <g transform="translate(94.6 72.748563) scale(0.1 -0.1)">
      <defs>
       <path id="DejaVuSans-76" d="M 191 3500 
L 800 3500 
L 1894 563 
L 2988 3500 
L 3597 3500 
L 2284 0 
L 1503 0 
L 191 3500 
z
" transform="scale(0.015625)"/>
       <path id="DejaVuSans-64" d="M 2906 2969 
L 2906 4863 
L 3481 4863 
L 3481 0 
L 2906 0 
L 2906 525 
Q 2725 213 2448 61 
Q 2172 -91 1784 -91 
Q 1150 -91 751 415 
Q 353 922 353 1747 
Q 353 2572 751 3078 
Q 1150 3584 1784 3584 
Q 2172 3584 2448 3432 
Q 2725 3281 2906 2969 
z
M 947 1747 
Q 947 1113 1208 752 
Q 1469 391 1925 391 
Q 2381 391 2643 752 
Q 2906 1113 2906 1747 
Q 2906 2381 2643 2742 
Q 2381 3103 1925 3103 
Q 1469 3103 1208 2742 
Q 947 2381 947 1747 
z
" transform="scale(0.015625)"/>
      </defs>
      <use xlink:href="#DejaVuSans-76"/>
      <use xlink:href="#DejaVuSans-61" x="59.179688"/>
      <use xlink:href="#DejaVuSans-6c" x="120.458984"/>
      <use xlink:href="#DejaVuSans-69" x="148.242188"/>
      <use xlink:href="#DejaVuSans-64" x="176.025391"/>
      <use xlink:href="#DejaVuSans-61" x="239.501953"/>
      <use xlink:href="#DejaVuSans-74" x="300.78125"/>
      <use xlink:href="#DejaVuSans-69" x="339.990234"/>
      <use xlink:href="#DejaVuSans-6f" x="367.773438"/>
      <use xlink:href="#DejaVuSans-6e" x="428.955078"/>
      <use xlink:href="#DejaVuSans-20" x="492.333984"/>
      <use xlink:href="#DejaVuSans-73" x="524.121094"/>
      <use xlink:href="#DejaVuSans-65" x="576.220703"/>
      <use xlink:href="#DejaVuSans-74" x="637.744141"/>
     </g>
    </g>
    <g id="line2d_17">
     <path d="M 66.6 83.926688 
L 76.6 83.926688 
L 86.6 83.926688 
" style="fill: none; stroke: #ff0000; stroke-width: 1.5; stroke-linecap: square"/>
    </g>
    <g id="text_17">
     <!-- test set -->
     <g transform="translate(94.6 87.426688) scale(0.1 -0.1)">
      <use xlink:href="#DejaVuSans-74"/>
      <use xlink:href="#DejaVuSans-65" x="39.208984"/>
      <use xlink:href="#DejaVuSans-73" x="100.732422"/>
      <use xlink:href="#DejaVuSans-74" x="152.832031"/>
      <use xlink:href="#DejaVuSans-20" x="192.041016"/>
      <use xlink:href="#DejaVuSans-73" x="223.828125"/>
      <use xlink:href="#DejaVuSans-65" x="275.927734"/>
      <use xlink:href="#DejaVuSans-74" x="337.451172"/>
     </g>
    </g>
   </g>
  </g>
 </g>
 <defs>
  <clipPath id="p102506b4e7">
   <rect x="57.6" y="41.472" width="357.12" height="266.112"/>
  </clipPath>
 </defs>
</svg>
