<?xml version="1.0" encoding="utf-8" standalone="no"?>
<!DOCTYPE svg PUBLIC "-//W3C//DTD SVG 1.1//EN"
  "http://www.w3.org/Graphics/SVG/1.1/DTD/svg11.dtd">
<svg xmlns:xlink="http://www.w3.org/1999/xlink" width="460.8pt" height="345.6pt" viewBox="0 0 460.8 345.6" xmlns="http://www.w3.org/2000/svg" version="1.1">
 <metadata>
  <rdf:RDF xmlns:dc="http://purl.org/dc/elements/1.1/" xmlns:cc="http://creativecommons.org/ns#" xmlns:rdf="http://www.w3.org/1999/02/22-rdf-syntax-ns#">
   <cc:Work>
    <dc:type rdf:resource="http://purl.org/dc/dcmitype/StillImage"/>
    <dc:date>2023-06-14T04:06:24.071073</dc:date>
    <dc:format>image/svg+xml</dc:format>
    <dc:creator>
     <cc:Agent>
      <dc:title>Matplotlib v3.7.1, https://matplotlib.org/</dc:title>
     </cc:Agent>
    </dc:creator>
   </cc:Work>
  </rdf:RDF>
 </metadata>
 <defs>
  <style type="text/css">*{stroke-linejoin: round; stroke-linecap: butt}</style>
 </defs>
 <g id="figure_1">
  <g id="patch_1">
   <path d="M 0 345.6 
L 460.8 345.6 
L 460.8 0 
L 0 0 
z
" style="fill: #ffffff"/>
  </g>
  <g id="axes_1">
   <g id="patch_2">
    <path d="M 57.6 307.584 
L 414.72 307.584 
L 414.72 41.472 
L 57.6 41.472 
z
" style="fill: #ffffff"/>
   </g>
   <g id="matplotlib.axis_1">
    <g id="xtick_1">
     <g id="line2d_1">
      <defs>
       <path id="m0b9e321693" d="M 0 0 
L 0 3.5 
" style="stroke: #000000; stroke-width: 0.8"/>
      </defs>
      <g>
       <use xlink:href="#m0b9e321693" x="73.767783" y="307.584" style="stroke: #000000; stroke-width: 0.8"/>
      </g>
     </g>
     <g id="text_1">
      <!-- 0 -->
      <g transform="translate(70.586533 322.182437) scale(0.1 -0.1)">
       <defs>
        <path id="DejaVuSans-30" d="M 2034 4250 
Q 1547 4250 1301 3770 
Q 1056 3291 1056 2328 
Q 1056 1369 1301 889 
Q 1547 409 2034 409 
Q 2525 409 2770 889 
Q 3016 1369 3016 2328 
Q 3016 3291 2770 3770 
Q 2525 4250 2034 4250 
z
M 2034 4750 
Q 2819 4750 3233 4129 
Q 3647 3509 3647 2328 
Q 3647 1150 3233 529 
Q 2819 -91 2034 -91 
Q 1250 -91 836 529 
Q 422 1150 422 2328 
Q 422 3509 836 4129 
Q 1250 4750 2034 4750 
z
" transform="scale(0.015625)"/>
       </defs>
       <use xlink:href="#DejaVuSans-30"/>
      </g>
     </g>
    </g>
    <g id="xtick_2">
     <g id="line2d_2">
      <g>
       <use xlink:href="#m0b9e321693" x="138.711681" y="307.584" style="stroke: #000000; stroke-width: 0.8"/>
      </g>
     </g>
     <g id="text_2">
      <!-- 1000 -->
      <g transform="translate(125.986681 322.182437) scale(0.1 -0.1)">
       <defs>
        <path id="DejaVuSans-31" d="M 794 531 
L 1825 531 
L 1825 4091 
L 703 3866 
L 703 4441 
L 1819 4666 
L 2450 4666 
L 2450 531 
L 3481 531 
L 3481 0 
L 794 0 
L 794 531 
z
" transform="scale(0.015625)"/>
       </defs>
       <use xlink:href="#DejaVuSans-31"/>
       <use xlink:href="#DejaVuSans-30" x="63.623047"/>
       <use xlink:href="#DejaVuSans-30" x="127.246094"/>
       <use xlink:href="#DejaVuSans-30" x="190.869141"/>
      </g>
     </g>
    </g>
    <g id="xtick_3">
     <g id="line2d_3">
      <g>
       <use xlink:href="#m0b9e321693" x="203.655579" y="307.584" style="stroke: #000000; stroke-width: 0.8"/>
      </g>
     </g>
     <g id="text_3">
      <!-- 2000 -->
      <g transform="translate(190.930579 322.182437) scale(0.1 -0.1)">
       <defs>
        <path id="DejaVuSans-32" d="M 1228 531 
L 3431 531 
L 3431 0 
L 469 0 
L 469 531 
Q 828 903 1448 1529 
Q 2069 2156 2228 2338 
Q 2531 2678 2651 2914 
Q 2772 3150 2772 3378 
Q 2772 3750 2511 3984 
Q 2250 4219 1831 4219 
Q 1534 4219 1204 4116 
Q 875 4013 500 3803 
L 500 4441 
Q 881 4594 1212 4672 
Q 1544 4750 1819 4750 
Q 2544 4750 2975 4387 
Q 3406 4025 3406 3419 
Q 3406 3131 3298 2873 
Q 3191 2616 2906 2266 
Q 2828 2175 2409 1742 
Q 1991 1309 1228 531 
z
" transform="scale(0.015625)"/>
       </defs>
       <use xlink:href="#DejaVuSans-32"/>
       <use xlink:href="#DejaVuSans-30" x="63.623047"/>
       <use xlink:href="#DejaVuSans-30" x="127.246094"/>
       <use xlink:href="#DejaVuSans-30" x="190.869141"/>
      </g>
     </g>
    </g>
    <g id="xtick_4">
     <g id="line2d_4">
      <g>
       <use xlink:href="#m0b9e321693" x="268.599477" y="307.584" style="stroke: #000000; stroke-width: 0.8"/>
      </g>
     </g>
     <g id="text_4">
      <!-- 3000 -->
      <g transform="translate(255.874477 322.182437) scale(0.1 -0.1)">
       <defs>
        <path id="DejaVuSans-33" d="M 2597 2516 
Q 3050 2419 3304 2112 
Q 3559 1806 3559 1356 
Q 3559 666 3084 287 
Q 2609 -91 1734 -91 
Q 1441 -91 1130 -33 
Q 819 25 488 141 
L 488 750 
Q 750 597 1062 519 
Q 1375 441 1716 441 
Q 2309 441 2620 675 
Q 2931 909 2931 1356 
Q 2931 1769 2642 2001 
Q 2353 2234 1838 2234 
L 1294 2234 
L 1294 2753 
L 1863 2753 
Q 2328 2753 2575 2939 
Q 2822 3125 2822 3475 
Q 2822 3834 2567 4026 
Q 2313 4219 1838 4219 
Q 1578 4219 1281 4162 
Q 984 4106 628 3988 
L 628 4550 
Q 988 4650 1302 4700 
Q 1616 4750 1894 4750 
Q 2613 4750 3031 4423 
Q 3450 4097 3450 3541 
Q 3450 3153 3228 2886 
Q 3006 2619 2597 2516 
z
" transform="scale(0.015625)"/>
       </defs>
       <use xlink:href="#DejaVuSans-33"/>
       <use xlink:href="#DejaVuSans-30" x="63.623047"/>
       <use xlink:href="#DejaVuSans-30" x="127.246094"/>
       <use xlink:href="#DejaVuSans-30" x="190.869141"/>
      </g>
     </g>
    </g>
    <g id="xtick_5">
     <g id="line2d_5">
      <g>
       <use xlink:href="#m0b9e321693" x="333.543375" y="307.584" style="stroke: #000000; stroke-width: 0.8"/>
      </g>
     </g>
     <g id="text_5">
      <!-- 4000 -->
      <g transform="translate(320.818375 322.182437) scale(0.1 -0.1)">
       <defs>
        <path id="DejaVuSans-34" d="M 2419 4116 
L 825 1625 
L 2419 1625 
L 2419 4116 
z
M 2253 4666 
L 3047 4666 
L 3047 1625 
L 3713 1625 
L 3713 1100 
L 3047 1100 
L 3047 0 
L 2419 0 
L 2419 1100 
L 313 1100 
L 313 1709 
L 2253 4666 
z
" transform="scale(0.015625)"/>
       </defs>
       <use xlink:href="#DejaVuSans-34"/>
       <use xlink:href="#DejaVuSans-30" x="63.623047"/>
       <use xlink:href="#DejaVuSans-30" x="127.246094"/>
       <use xlink:href="#DejaVuSans-30" x="190.869141"/>
      </g>
     </g>
    </g>
    <g id="xtick_6">
     <g id="line2d_6">
      <g>
       <use xlink:href="#m0b9e321693" x="398.487273" y="307.584" style="stroke: #000000; stroke-width: 0.8"/>
      </g>
     </g>
     <g id="text_6">
      <!-- 5000 -->
      <g transform="translate(385.762273 322.182437) scale(0.1 -0.1)">
       <defs>
        <path id="DejaVuSans-35" d="M 691 4666 
L 3169 4666 
L 3169 4134 
L 1269 4134 
L 1269 2991 
Q 1406 3038 1543 3061 
Q 1681 3084 1819 3084 
Q 2600 3084 3056 2656 
Q 3513 2228 3513 1497 
Q 3513 744 3044 326 
Q 2575 -91 1722 -91 
Q 1428 -91 1123 -41 
Q 819 9 494 109 
L 494 744 
Q 775 591 1075 516 
Q 1375 441 1709 441 
Q 2250 441 2565 725 
Q 2881 1009 2881 1497 
Q 2881 1984 2565 2268 
Q 2250 2553 1709 2553 
Q 1456 2553 1204 2497 
Q 953 2441 691 2322 
L 691 4666 
z
" transform="scale(0.015625)"/>
       </defs>
       <use xlink:href="#DejaVuSans-35"/>
       <use xlink:href="#DejaVuSans-30" x="63.623047"/>
       <use xlink:href="#DejaVuSans-30" x="127.246094"/>
       <use xlink:href="#DejaVuSans-30" x="190.869141"/>
      </g>
     </g>
    </g>
    <g id="text_7">
     <!-- epoch -->
     <g transform="translate(220.931875 335.860562) scale(0.1 -0.1)">
      <defs>
       <path id="DejaVuSans-65" d="M 3597 1894 
L 3597 1613 
L 953 1613 
Q 991 1019 1311 708 
Q 1631 397 2203 397 
Q 2534 397 2845 478 
Q 3156 559 3463 722 
L 3463 178 
Q 3153 47 2828 -22 
Q 2503 -91 2169 -91 
Q 1331 -91 842 396 
Q 353 884 353 1716 
Q 353 2575 817 3079 
Q 1281 3584 2069 3584 
Q 2775 3584 3186 3129 
Q 3597 2675 3597 1894 
z
M 3022 2063 
Q 3016 2534 2758 2815 
Q 2500 3097 2075 3097 
Q 1594 3097 1305 2825 
Q 1016 2553 972 2059 
L 3022 2063 
z
" transform="scale(0.015625)"/>
       <path id="DejaVuSans-70" d="M 1159 525 
L 1159 -1331 
L 581 -1331 
L 581 3500 
L 1159 3500 
L 1159 2969 
Q 1341 3281 1617 3432 
Q 1894 3584 2278 3584 
Q 2916 3584 3314 3078 
Q 3713 2572 3713 1747 
Q 3713 922 3314 415 
Q 2916 -91 2278 -91 
Q 1894 -91 1617 61 
Q 1341 213 1159 525 
z
M 3116 1747 
Q 3116 2381 2855 2742 
Q 2594 3103 2138 3103 
Q 1681 3103 1420 2742 
Q 1159 2381 1159 1747 
Q 1159 1113 1420 752 
Q 1681 391 2138 391 
Q 2594 391 2855 752 
Q 3116 1113 3116 1747 
z
" transform="scale(0.015625)"/>
       <path id="DejaVuSans-6f" d="M 1959 3097 
Q 1497 3097 1228 2736 
Q 959 2375 959 1747 
Q 959 1119 1226 758 
Q 1494 397 1959 397 
Q 2419 397 2687 759 
Q 2956 1122 2956 1747 
Q 2956 2369 2687 2733 
Q 2419 3097 1959 3097 
z
M 1959 3584 
Q 2709 3584 3137 3096 
Q 3566 2609 3566 1747 
Q 3566 888 3137 398 
Q 2709 -91 1959 -91 
Q 1206 -91 779 398 
Q 353 888 353 1747 
Q 353 2609 779 3096 
Q 1206 3584 1959 3584 
z
" transform="scale(0.015625)"/>
       <path id="DejaVuSans-63" d="M 3122 3366 
L 3122 2828 
Q 2878 2963 2633 3030 
Q 2388 3097 2138 3097 
Q 1578 3097 1268 2742 
Q 959 2388 959 1747 
Q 959 1106 1268 751 
Q 1578 397 2138 397 
Q 2388 397 2633 464 
Q 2878 531 3122 666 
L 3122 134 
Q 2881 22 2623 -34 
Q 2366 -91 2075 -91 
Q 1284 -91 818 406 
Q 353 903 353 1747 
Q 353 2603 823 3093 
Q 1294 3584 2113 3584 
Q 2378 3584 2631 3529 
Q 2884 3475 3122 3366 
z
" transform="scale(0.015625)"/>
       <path id="DejaVuSans-68" d="M 3513 2113 
L 3513 0 
L 2938 0 
L 2938 2094 
Q 2938 2591 2744 2837 
Q 2550 3084 2163 3084 
Q 1697 3084 1428 2787 
Q 1159 2491 1159 1978 
L 1159 0 
L 581 0 
L 581 4863 
L 1159 4863 
L 1159 2956 
Q 1366 3272 1645 3428 
Q 1925 3584 2291 3584 
Q 2894 3584 3203 3211 
Q 3513 2838 3513 2113 
z
" transform="scale(0.015625)"/>
      </defs>
      <use xlink:href="#DejaVuSans-65"/>
      <use xlink:href="#DejaVuSans-70" x="61.523438"/>
      <use xlink:href="#DejaVuSans-6f" x="125"/>
      <use xlink:href="#DejaVuSans-63" x="186.181641"/>
      <use xlink:href="#DejaVuSans-68" x="241.162109"/>
     </g>
    </g>
   </g>
   <g id="matplotlib.axis_2">
    <g id="ytick_1">
     <g id="line2d_7">
      <defs>
       <path id="me38d1a9e72" d="M 0 0 
L -3.5 0 
" style="stroke: #000000; stroke-width: 0.8"/>
      </defs>
      <g>
       <use xlink:href="#me38d1a9e72" x="57.6" y="264.200791" style="stroke: #000000; stroke-width: 0.8"/>
      </g>
     </g>
     <g id="text_8">
      <!-- 0.6 -->
      <g transform="translate(34.696875 268.000009) scale(0.1 -0.1)">
       <defs>
        <path id="DejaVuSans-2e" d="M 684 794 
L 1344 794 
L 1344 0 
L 684 0 
L 684 794 
z
" transform="scale(0.015625)"/>
        <path id="DejaVuSans-36" d="M 2113 2584 
Q 1688 2584 1439 2293 
Q 1191 2003 1191 1497 
Q 1191 994 1439 701 
Q 1688 409 2113 409 
Q 2538 409 2786 701 
Q 3034 994 3034 1497 
Q 3034 2003 2786 2293 
Q 2538 2584 2113 2584 
z
M 3366 4563 
L 3366 3988 
Q 3128 4100 2886 4159 
Q 2644 4219 2406 4219 
Q 1781 4219 1451 3797 
Q 1122 3375 1075 2522 
Q 1259 2794 1537 2939 
Q 1816 3084 2150 3084 
Q 2853 3084 3261 2657 
Q 3669 2231 3669 1497 
Q 3669 778 3244 343 
Q 2819 -91 2113 -91 
Q 1303 -91 875 529 
Q 447 1150 447 2328 
Q 447 3434 972 4092 
Q 1497 4750 2381 4750 
Q 2619 4750 2861 4703 
Q 3103 4656 3366 4563 
z
" transform="scale(0.015625)"/>
       </defs>
       <use xlink:href="#DejaVuSans-30"/>
       <use xlink:href="#DejaVuSans-2e" x="63.623047"/>
       <use xlink:href="#DejaVuSans-36" x="95.410156"/>
      </g>
     </g>
    </g>
    <g id="ytick_2">
     <g id="line2d_8">
      <g>
       <use xlink:href="#me38d1a9e72" x="57.6" y="219.93279" style="stroke: #000000; stroke-width: 0.8"/>
      </g>
     </g>
     <g id="text_9">
      <!-- 0.8 -->
      <g transform="translate(34.696875 223.732008) scale(0.1 -0.1)">
       <defs>
        <path id="DejaVuSans-38" d="M 2034 2216 
Q 1584 2216 1326 1975 
Q 1069 1734 1069 1313 
Q 1069 891 1326 650 
Q 1584 409 2034 409 
Q 2484 409 2743 651 
Q 3003 894 3003 1313 
Q 3003 1734 2745 1975 
Q 2488 2216 2034 2216 
z
M 1403 2484 
Q 997 2584 770 2862 
Q 544 3141 544 3541 
Q 544 4100 942 4425 
Q 1341 4750 2034 4750 
Q 2731 4750 3128 4425 
Q 3525 4100 3525 3541 
Q 3525 3141 3298 2862 
Q 3072 2584 2669 2484 
Q 3125 2378 3379 2068 
Q 3634 1759 3634 1313 
Q 3634 634 3220 271 
Q 2806 -91 2034 -91 
Q 1263 -91 848 271 
Q 434 634 434 1313 
Q 434 1759 690 2068 
Q 947 2378 1403 2484 
z
M 1172 3481 
Q 1172 3119 1398 2916 
Q 1625 2713 2034 2713 
Q 2441 2713 2670 2916 
Q 2900 3119 2900 3481 
Q 2900 3844 2670 4047 
Q 2441 4250 2034 4250 
Q 1625 4250 1398 4047 
Q 1172 3844 1172 3481 
z
" transform="scale(0.015625)"/>
       </defs>
       <use xlink:href="#DejaVuSans-30"/>
       <use xlink:href="#DejaVuSans-2e" x="63.623047"/>
       <use xlink:href="#DejaVuSans-38" x="95.410156"/>
      </g>
     </g>
    </g>
    <g id="ytick_3">
     <g id="line2d_9">
      <g>
       <use xlink:href="#me38d1a9e72" x="57.6" y="175.664789" style="stroke: #000000; stroke-width: 0.8"/>
      </g>
     </g>
     <g id="text_10">
      <!-- 1.0 -->
      <g transform="translate(34.696875 179.464007) scale(0.1 -0.1)">
       <use xlink:href="#DejaVuSans-31"/>
       <use xlink:href="#DejaVuSans-2e" x="63.623047"/>
       <use xlink:href="#DejaVuSans-30" x="95.410156"/>
      </g>
     </g>
    </g>
    <g id="ytick_4">
     <g id="line2d_10">
      <g>
       <use xlink:href="#me38d1a9e72" x="57.6" y="131.396788" style="stroke: #000000; stroke-width: 0.8"/>
      </g>
     </g>
     <g id="text_11">
      <!-- 1.2 -->
      <g transform="translate(34.696875 135.196006) scale(0.1 -0.1)">
       <use xlink:href="#DejaVuSans-31"/>
       <use xlink:href="#DejaVuSans-2e" x="63.623047"/>
       <use xlink:href="#DejaVuSans-32" x="95.410156"/>
      </g>
     </g>
    </g>
    <g id="ytick_5">
     <g id="line2d_11">
      <g>
       <use xlink:href="#me38d1a9e72" x="57.6" y="87.128787" style="stroke: #000000; stroke-width: 0.8"/>
      </g>
     </g>
     <g id="text_12">
      <!-- 1.4 -->
      <g transform="translate(34.696875 90.928005) scale(0.1 -0.1)">
       <use xlink:href="#DejaVuSans-31"/>
       <use xlink:href="#DejaVuSans-2e" x="63.623047"/>
       <use xlink:href="#DejaVuSans-34" x="95.410156"/>
      </g>
     </g>
    </g>
    <g id="ytick_6">
     <g id="line2d_12">
      <g>
       <use xlink:href="#me38d1a9e72" x="57.6" y="42.860786" style="stroke: #000000; stroke-width: 0.8"/>
      </g>
     </g>
     <g id="text_13">
      <!-- 1.6 -->
      <g transform="translate(34.696875 46.660005) scale(0.1 -0.1)">
       <use xlink:href="#DejaVuSans-31"/>
       <use xlink:href="#DejaVuSans-2e" x="63.623047"/>
       <use xlink:href="#DejaVuSans-36" x="95.410156"/>
      </g>
     </g>
    </g>
    <g id="text_14">
     <!-- loss -->
     <g transform="translate(28.617188 184.185812) rotate(-90) scale(0.1 -0.1)">
      <defs>
       <path id="DejaVuSans-6c" d="M 603 4863 
L 1178 4863 
L 1178 0 
L 603 0 
L 603 4863 
z
" transform="scale(0.015625)"/>
       <path id="DejaVuSans-73" d="M 2834 3397 
L 2834 2853 
Q 2591 2978 2328 3040 
Q 2066 3103 1784 3103 
Q 1356 3103 1142 2972 
Q 928 2841 928 2578 
Q 928 2378 1081 2264 
Q 1234 2150 1697 2047 
L 1894 2003 
Q 2506 1872 2764 1633 
Q 3022 1394 3022 966 
Q 3022 478 2636 193 
Q 2250 -91 1575 -91 
Q 1294 -91 989 -36 
Q 684 19 347 128 
L 347 722 
Q 666 556 975 473 
Q 1284 391 1588 391 
Q 1994 391 2212 530 
Q 2431 669 2431 922 
Q 2431 1156 2273 1281 
Q 2116 1406 1581 1522 
L 1381 1569 
Q 847 1681 609 1914 
Q 372 2147 372 2553 
Q 372 3047 722 3315 
Q 1072 3584 1716 3584 
Q 2034 3584 2315 3537 
Q 2597 3491 2834 3397 
z
" transform="scale(0.015625)"/>
      </defs>
      <use xlink:href="#DejaVuSans-6c"/>
      <use xlink:href="#DejaVuSans-6f" x="27.783203"/>
      <use xlink:href="#DejaVuSans-73" x="88.964844"/>
      <use xlink:href="#DejaVuSans-73" x="141.064453"/>
     </g>
    </g>
   </g>
   <g id="line2d_13">
    <path d="M 73.832727 153.158664 
L 74.027559 153.852769 
L 75.066661 154.502255 
L 75.845988 155.280055 
L 76.560371 156.423799 
L 77.20981 157.92618 
L 77.989137 160.426761 
L 78.963295 164.454076 
L 83.963975 186.787505 
L 90.588253 214.001922 
L 92.471626 220.581917 
L 94.744662 227.4573 
L 96.563092 232.212758 
L 98.576352 236.828608 
L 100.394782 240.520243 
L 102.213211 243.828097 
L 104.810967 248.000797 
L 106.69434 250.665986 
L 108.772544 253.290197 
L 110.52603 255.28929 
L 112.409403 257.226007 
L 114.877271 259.481477 
L 117.539971 261.605757 
L 121.371661 264.180323 
L 124.229192 265.801611 
L 127.216611 267.267605 
L 131.373021 268.990491 
L 135.074823 270.263579 
L 145.400903 272.973531 
L 151.245854 274.112104 
L 158.649458 275.310665 
L 167.416884 276.503606 
L 169.170369 276.728756 
L 172.612396 277.154055 
L 182.029261 278.182045 
L 182.289037 278.242944 
L 182.548812 278.262311 
L 183.912634 278.448634 
L 190.926575 279.201803 
L 191.705902 279.257635 
L 192.030621 279.307808 
L 192.615116 279.387124 
L 201.642318 280.315019 
L 202.031982 280.374585 
L 202.486589 280.407528 
L 203.265916 280.497992 
L 206.513111 280.823381 
L 212.617837 281.324619 
L 212.812669 281.282283 
L 213.0075 281.446112 
L 213.202332 281.428222 
L 213.397164 281.451191 
L 214.631098 281.605509 
L 216.059864 281.743955 
L 225.216953 282.540819 
L 225.606617 282.518325 
L 225.736504 282.609461 
L 225.931336 282.57706 
L 226.126168 282.608089 
L 226.580775 282.689252 
L 232.750445 283.209791 
L 238.725284 283.590524 
L 238.920116 283.492475 
L 239.179891 283.673244 
L 239.309779 283.65199 
L 239.504611 283.716253 
L 239.699442 283.764116 
L 241.972479 283.94131 
L 250.220354 284.56197 
L 252.947998 284.68469 
L 253.207773 284.556218 
L 253.402605 284.779771 
L 253.532493 284.680943 
L 253.727324 284.805524 
L 253.857212 284.761182 
L 254.052044 284.818796 
L 254.376763 284.839812 
L 257.623958 285.098208 
L 268.274757 285.771613 
L 268.534533 285.654869 
L 268.729365 285.878066 
L 268.924196 285.823263 
L 269.054084 285.908265 
L 269.248916 285.8887 
L 269.443748 285.902935 
L 276.65252 286.448712 
L 283.14691 286.837803 
L 283.406686 286.67338 
L 283.601517 286.946038 
L 283.666461 286.899025 
L 283.796349 286.846392 
L 283.991181 286.947317 
L 284.121069 286.920641 
L 284.3159 286.972555 
L 284.64062 286.997714 
L 285.939498 287.10893 
L 289.121749 287.338467 
L 297.889175 287.879078 
L 298.148951 287.770409 
L 298.343782 288.003303 
L 298.538614 287.921342 
L 298.733446 288.013066 
L 298.928277 288.027564 
L 299.317941 288.078548 
L 299.902436 288.119117 
L 309.903796 288.854099 
L 312.30672 288.94009 
L 312.566496 288.671853 
L 312.761328 289.054803 
L 312.891215 288.877721 
L 313.086047 289.067052 
L 313.215935 288.994036 
L 313.410767 289.06291 
L 313.540654 289.092706 
L 313.865374 289.146803 
L 314.384925 289.183374 
L 318.281559 289.469462 
L 330.036404 290.270099 
L 330.361124 290.105709 
L 330.555956 290.354672 
L 330.685843 290.236015 
L 330.880675 290.396744 
L 331.075507 290.379521 
L 331.270338 290.387318 
L 337.569897 290.905165 
L 344.583837 291.339356 
L 344.843613 291.291433 
L 345.103389 291.46455 
L 345.363164 291.447024 
L 345.62294 291.4818 
L 346.207435 291.547059 
L 347.246537 291.631065 
L 354.45531 292.152157 
L 354.650142 292.14349 
L 354.844973 292.167494 
L 355.104749 292.196123 
L 355.819132 292.278598 
L 357.767449 292.424254 
L 363.482512 292.756009 
L 363.742287 292.660229 
L 364.002063 292.884244 
L 364.196895 292.820859 
L 364.45667 292.902167 
L 364.651502 292.922114 
L 365.106109 292.978171 
L 367.379146 293.14766 
L 374.587918 293.643845 
L 374.977582 293.45865 
L 375.172413 293.734064 
L 375.367245 293.620869 
L 375.562077 293.757224 
L 375.756908 293.72667 
L 375.95174 293.772317 
L 376.211516 293.814125 
L 376.860955 293.861857 
L 381.601859 294.215987 
L 387.706586 294.568548 
L 387.966361 294.404956 
L 388.226137 294.695912 
L 388.420969 294.624024 
L 388.6158 294.726401 
L 388.810632 294.71958 
L 389.005464 294.749112 
L 389.395127 294.781369 
L 394.136032 295.158455 
L 398.487273 295.488 
L 398.487273 295.488 
" clip-path="url(#pea062c9ecf)" style="fill: none; stroke: #0000ff; stroke-width: 1.5; stroke-linecap: square"/>
   </g>
   <g id="line2d_14">
    <path d="M 73.832727 149.692627 
L 74.222391 155.342668 
L 74.352278 155.783496 
L 74.417222 155.749405 
L 74.612054 154.958043 
L 75.001717 153.192834 
L 75.131605 153.295343 
L 75.391381 154.376658 
L 75.651156 155.317945 
L 75.781044 155.345597 
L 75.975876 154.909757 
L 76.235651 154.491278 
L 76.430483 154.902949 
L 76.820147 155.769406 
L 77.274754 156.497706 
L 77.469586 156.430422 
L 77.989137 157.32928 
L 78.573632 158.735036 
L 78.768464 158.88124 
L 79.028239 159.684001 
L 79.093183 159.645583 
L 79.223071 160.137704 
L 79.417902 160.801096 
L 79.482846 160.731068 
L 79.612734 161.181077 
L 79.807566 161.72977 
L 79.87251 161.704993 
L 79.937454 161.858348 
L 80.132285 163.069007 
L 80.197229 162.952065 
L 80.262173 162.903594 
L 81.950715 168.230304 
L 82.080602 168.559018 
L 83.509368 172.839768 
L 83.899031 174.004991 
L 86.107124 181.040747 
L 86.172068 180.874873 
L 86.3669 181.756791 
L 86.561731 182.442334 
L 86.626675 182.368889 
L 86.821507 183.323764 
L 86.886451 183.196017 
L 87.081282 184.100047 
L 87.146226 184.078107 
L 87.406002 185.033734 
L 87.470946 185.147919 
L 87.665778 186.161001 
L 87.730721 185.553627 
L 87.795665 186.762914 
L 87.860609 186.035946 
L 87.990497 187.082643 
L 88.055441 186.623333 
L 88.120385 187.569672 
L 88.185329 187.425184 
L 88.250273 187.391819 
L 88.315216 188.188379 
L 88.38016 187.871473 
L 88.70488 189.228137 
L 88.769824 189.041669 
L 88.899712 189.68977 
L 88.964655 189.716077 
L 89.029599 190.287276 
L 89.094543 190.177683 
L 89.549151 191.795303 
L 89.614094 191.769009 
L 90.068702 193.226547 
L 90.133646 193.294833 
L 90.393421 194.095787 
L 91.172748 196.168892 
L 91.36758 196.873775 
L 91.432524 196.717703 
L 91.497467 197.344101 
L 91.562411 196.592779 
L 91.627355 198.329848 
L 91.692299 196.678863 
L 91.757243 197.710653 
L 91.822187 198.582558 
L 91.887131 197.440977 
L 91.952075 198.030277 
L 92.017019 198.965521 
L 92.081963 198.049842 
L 92.146906 198.423821 
L 92.21185 199.387588 
L 92.276794 198.811718 
L 92.341738 198.589616 
L 92.471626 199.705669 
L 92.53657 199.098162 
L 92.666458 200.123342 
L 92.731402 199.934552 
L 92.796345 200.015227 
L 92.861289 200.430341 
L 92.926233 200.328215 
L 93.056121 200.901169 
L 93.121065 200.824927 
L 93.186009 200.70631 
L 93.315897 201.451049 
L 93.380841 201.135541 
L 93.510728 201.899409 
L 93.575672 201.705738 
L 93.640616 201.818035 
L 93.70556 202.241633 
L 93.770504 202.083767 
L 94.095223 203.000607 
L 94.160167 202.777027 
L 94.290055 203.375417 
L 94.354999 203.188764 
L 95.069382 204.705287 
L 95.134326 204.564492 
L 95.394101 205.092419 
L 95.848709 205.897106 
L 95.913653 205.858095 
L 96.303316 206.559455 
L 96.433204 206.564983 
L 96.498148 206.921706 
L 96.563092 206.825714 
L 96.628035 206.862193 
L 96.692979 207.166065 
L 96.757923 207.074137 
L 97.472306 208.065925 
L 97.732082 208.265138 
L 97.797026 208.575 
L 97.861969 208.417226 
L 97.926913 208.489628 
L 97.991857 208.863119 
L 98.056801 208.553693 
L 98.121745 208.775677 
L 98.186689 209.069548 
L 98.251633 208.633998 
L 98.316577 209.246848 
L 98.381521 209.043176 
L 98.446465 208.971499 
L 98.511408 209.482011 
L 98.576352 209.10699 
L 98.641296 209.358248 
L 98.836128 209.627489 
L 98.901072 209.539413 
L 99.03096 209.759853 
L 99.095904 209.741911 
L 99.420623 210.205905 
L 99.485567 210.058435 
L 99.680399 210.426028 
L 99.810286 210.406951 
L 99.940174 210.602826 
L 100.005118 210.570359 
L 100.264894 210.912147 
L 100.329838 210.790653 
L 100.394782 211.059564 
L 100.459725 210.926448 
L 100.654557 211.184461 
L 100.784445 211.200649 
L 100.849389 211.403068 
L 100.914333 211.222074 
L 101.109164 211.634313 
L 101.174108 211.416933 
L 101.36894 211.721491 
L 101.498828 211.711491 
L 101.563772 211.913012 
L 101.628716 211.692163 
L 101.693659 212.044532 
L 101.758603 211.712349 
L 101.823547 212.203335 
L 101.888491 211.788221 
L 101.953435 212.16373 
L 102.018379 212.089217 
L 102.083323 212.039915 
L 102.148267 212.332995 
L 102.213211 211.941232 
L 102.278155 212.568805 
L 102.343098 211.952011 
L 102.408042 212.535097 
L 102.472986 212.296345 
L 102.53793 212.325317 
L 102.602874 212.569293 
L 102.667818 212.306345 
L 102.732762 212.668279 
L 102.797706 212.356439 
L 102.86265 212.752133 
L 102.927594 212.470465 
L 103.057481 212.761144 
L 103.122425 212.544741 
L 103.187369 212.947797 
L 103.252313 212.507814 
L 103.317257 213.092919 
L 103.382201 212.578528 
L 103.447145 212.990107 
L 103.512089 212.937322 
L 103.577032 212.781738 
L 103.641976 213.182881 
L 103.70692 212.684797 
L 103.771864 213.346354 
L 103.836808 212.780379 
L 103.901752 213.173501 
L 103.966696 213.155413 
L 104.03164 212.999737 
L 104.096584 213.346513 
L 104.161528 212.937546 
L 104.226471 213.470737 
L 104.291415 213.063248 
L 104.356359 213.325364 
L 104.486247 213.268213 
L 104.551191 213.440736 
L 104.616135 213.209808 
L 104.681079 213.579433 
L 104.746023 213.274268 
L 104.810967 213.532374 
L 104.87591 213.407411 
L 105.005798 213.525725 
L 105.070742 213.451554 
L 105.135686 213.705795 
L 105.20063 213.418546 
L 105.265574 213.76098 
L 105.330518 213.462808 
L 105.395462 213.799306 
L 105.460406 213.519207 
L 105.525349 213.813303 
L 105.590293 213.585066 
L 105.655237 213.838858 
L 105.720181 213.666414 
L 105.850069 213.865415 
L 105.915013 213.664989 
L 105.979957 213.985088 
L 106.044901 213.620133 
L 106.109845 214.099734 
L 106.174788 213.625687 
L 106.239732 214.045525 
L 106.304676 213.854571 
L 106.564452 214.084048 
L 106.629396 213.868463 
L 106.69434 214.06848 
L 106.759283 214.005115 
L 106.954115 214.0291 
L 107.148947 214.192217 
L 107.213891 213.95109 
L 107.278835 214.327259 
L 107.343779 213.829201 
L 107.408722 214.497685 
L 107.473666 213.703974 
L 107.53861 214.597331 
L 107.603554 213.733829 
L 107.668498 214.491695 
L 107.733442 214.057794 
L 107.798386 214.133587 
L 107.86333 214.442037 
L 107.928274 213.90221 
L 107.993218 214.530403 
L 108.058161 213.991619 
L 108.123105 214.377366 
L 108.252993 214.076766 
L 108.317937 214.559296 
L 108.382881 213.958122 
L 108.447825 214.533015 
L 108.512769 214.158324 
L 108.642657 214.437499 
L 108.7076 214.073863 
L 108.772544 214.585642 
L 108.837488 214.126529 
L 108.902432 214.402379 
L 108.967376 214.379503 
L 109.03232 214.235331 
L 109.097264 214.489413 
L 109.162208 214.185963 
L 109.227152 214.503239 
L 109.292096 214.293512 
L 109.357039 214.312588 
L 109.421983 214.521524 
L 109.486927 214.185356 
L 109.551871 214.541248 
L 109.616815 214.248313 
L 109.681759 214.45746 
L 109.811647 214.276888 
L 109.876591 214.571736 
L 109.941534 214.168971 
L 110.006478 214.588109 
L 110.071422 214.234856 
L 110.136366 214.481919 
L 110.266254 214.271242 
L 110.331198 214.595945 
L 110.396142 214.17971 
L 110.461086 214.560945 
L 110.52603 214.284052 
L 110.655917 214.423369 
L 110.720861 214.267324 
L 110.785805 214.581829 
L 110.850749 214.194591 
L 110.915693 214.533226 
L 110.980637 214.288947 
L 111.045581 214.436575 
L 111.110525 214.39639 
L 111.175469 214.276954 
L 111.240412 214.549243 
L 111.305356 214.192995 
L 111.3703 214.492526 
L 111.435244 214.303921 
L 111.565132 214.392999 
L 111.630076 214.251373 
L 111.69502 214.515271 
L 111.759964 214.17376 
L 111.824908 214.486035 
L 111.889851 214.217613 
L 111.954795 214.430203 
L 112.019739 214.280015 
L 112.084683 214.285108 
L 112.149627 214.439016 
L 112.214571 214.151899 
L 112.279515 214.469848 
L 112.344459 214.122545 
L 112.409403 214.466642 
L 112.474347 214.154841 
L 112.53929 214.320663 
L 112.604234 214.336257 
L 112.669178 214.144722 
L 112.734122 214.421707 
L 112.799066 214.046514 
L 112.86401 214.469544 
L 112.928954 214.037701 
L 112.993898 214.340003 
L 113.123785 214.138112 
L 113.188729 214.347444 
L 113.253673 213.990128 
L 113.318617 214.432934 
L 113.383561 213.91729 
L 113.448505 214.394688 
L 113.513449 213.979626 
L 113.578393 214.273762 
L 113.708281 214.057979 
L 113.773224 214.295359 
L 113.838168 213.891828 
L 113.903112 214.317166 
L 113.968056 213.885614 
L 114.033 214.248115 
L 114.097944 213.977159 
L 114.162888 214.065657 
L 114.227832 214.13364 
L 114.292776 213.910139 
L 114.35772 214.180937 
L 114.422663 213.839689 
L 114.487607 214.183047 
L 114.552551 213.859703 
L 114.617495 214.030221 
L 114.877271 213.795849 
L 114.942215 214.085473 
L 115.007159 213.752722 
L 115.072102 213.985101 
L 115.20199 213.82457 
L 115.266934 213.949652 
L 115.331878 213.68834 
L 115.396822 214.020841 
L 115.461766 213.613998 
L 115.52671 213.966235 
L 115.591654 213.646347 
L 115.656598 213.880666 
L 115.721541 213.697734 
L 115.786485 213.722484 
L 115.851429 213.832565 
L 115.916373 213.562124 
L 115.981317 213.867592 
L 116.046261 213.489444 
L 116.111205 213.86622 
L 116.176149 213.479405 
L 116.241093 213.753685 
L 116.37098 213.596703 
L 116.435924 213.660424 
L 116.500868 213.445433 
L 116.565812 213.74722 
L 116.630756 213.34328 
L 116.6957 213.689844 
L 116.760644 213.392886 
L 116.825588 213.58194 
L 116.955475 213.425855 
L 117.020419 213.560448 
L 117.085363 213.271894 
L 117.150307 213.582613 
L 117.215251 213.20304 
L 117.280195 213.57004 
L 117.345139 213.188396 
L 117.410083 213.459787 
L 117.475027 213.279387 
L 117.539971 213.304005 
L 117.604914 213.34894 
L 117.669858 213.152102 
L 117.734802 213.43067 
L 117.799746 213.039659 
L 117.86469 213.402833 
L 117.929634 213.026044 
L 117.994578 213.337066 
L 118.059522 213.053921 
L 118.124466 213.177142 
L 118.18941 213.187156 
L 118.254353 212.993378 
L 118.319297 213.242698 
L 118.384241 212.876714 
L 118.449185 213.263371 
L 118.514129 212.831594 
L 118.579073 213.14263 
L 118.708961 212.945145 
L 118.773905 213.050913 
L 118.838848 212.771949 
L 118.903792 213.125136 
L 118.968736 212.672303 
L 119.03368 213.065003 
L 119.098624 212.698398 
L 119.163568 212.949406 
L 119.293456 212.759442 
L 119.3584 212.895395 
L 119.423344 212.586457 
L 119.488287 212.913614 
L 119.553231 212.518896 
L 119.618175 212.870539 
L 119.683119 212.536337 
L 119.748063 212.719534 
L 119.877951 212.549385 
L 119.942895 212.695826 
L 120.007839 212.414382 
L 120.072783 212.72551 
L 120.137726 212.356439 
L 120.20267 212.636273 
L 120.267614 212.410648 
L 120.332558 212.488882 
L 120.397502 212.479331 
L 120.462446 212.319947 
L 120.52739 212.554398 
L 120.592334 212.204734 
L 120.657278 212.521732 
L 120.722222 212.178585 
L 120.787165 212.445346 
L 120.852109 212.20794 
L 120.917053 212.279933 
L 120.981997 212.316411 
L 121.046941 212.106644 
L 121.111885 212.35252 
L 121.176829 211.998621 
L 121.241773 212.342876 
L 121.306717 211.971299 
L 121.371661 212.229431 
L 121.436604 212.041696 
L 121.501548 212.070813 
L 121.566492 212.109758 
L 121.631436 211.912656 
L 121.69638 212.170709 
L 121.761324 211.809171 
L 121.826268 212.13026 
L 121.891212 211.793867 
L 121.956156 212.046313 
L 122.021099 211.826757 
L 122.086043 211.884503 
L 122.150987 211.93019 
L 122.215931 211.716531 
L 122.280875 211.962961 
L 122.345819 211.638798 
L 122.410763 211.915308 
L 122.475707 211.640883 
L 122.540651 211.797245 
L 122.670538 211.661173 
L 122.735482 211.734658 
L 122.800426 211.531777 
L 122.86537 211.76892 
L 122.930314 211.443715 
L 122.995258 211.703852 
L 123.060202 211.479296 
L 123.125146 211.568942 
L 123.384921 211.396814 
L 123.449865 211.481407 
L 123.644697 211.307142 
L 123.709641 211.376853 
L 123.774585 211.284463 
L 123.969416 211.282933 
L 124.164248 211.171532 
L 124.943575 210.841578 
L 125.008519 210.944641 
L 125.073463 210.776049 
L 125.138407 210.92402 
L 125.20335 210.674147 
L 125.268294 210.957108 
L 125.333238 210.50727 
L 125.398182 211.037215 
L 125.463126 210.284046 
L 125.52807 211.117692 
L 125.593014 210.133581 
L 125.657958 211.034234 
L 125.722902 210.343771 
L 125.787846 210.628895 
L 125.852789 210.732895 
L 125.917733 210.217647 
L 125.982677 210.840364 
L 126.047621 210.230839 
L 126.112565 210.559686 
L 126.177509 210.5402 
L 126.242453 210.196287 
L 126.307397 210.650967 
L 126.372341 210.178292 
L 126.437285 210.421635 
L 126.502228 210.410843 
L 126.567172 210.130745 
L 126.632116 210.480818 
L 126.69706 210.120943 
L 126.762004 210.280181 
L 126.826948 210.292186 
L 126.891892 210.052749 
L 126.956836 210.323612 
L 127.02178 210.025782 
L 127.086724 210.182329 
L 127.216611 210.020901 
L 127.281555 210.13969 
L 127.346499 209.95491 
L 127.411443 210.050691 
L 127.671219 209.854024 
L 127.736163 209.928142 
L 127.801106 209.843905 
L 127.930994 209.829973 
L 128.125826 209.681527 
L 128.19077 209.759761 
L 128.255714 209.694799 
L 128.450545 209.577369 
L 128.515489 209.643993 
L 128.580433 209.558108 
L 128.840209 209.522236 
L 129.03504 209.372365 
L 129.164928 209.409833 
L 129.35976 209.230937 
L 129.424704 209.304263 
L 129.489648 209.235898 
L 130.009199 209.014336 
L 130.074143 209.103151 
L 130.139087 208.917184 
L 130.204031 209.066554 
L 130.268975 208.893845 
L 130.333918 208.97485 
L 130.52875 208.855705 
L 131.69774 208.536292 
L 131.762684 208.286946 
L 131.827628 208.520157 
L 131.892572 208.22523 
L 131.957516 208.465314 
L 132.02246 208.20362 
L 132.087404 208.379969 
L 132.152348 208.209174 
L 132.217291 208.277869 
L 132.477067 208.092747 
L 132.542011 208.203725 
L 132.736843 207.976293 
L 132.801787 208.121098 
L 132.996618 207.886687 
L 133.061562 208.039434 
L 133.126506 207.793967 
L 133.19145 208.044421 
L 133.256394 207.698952 
L 133.321338 208.021096 
L 133.386282 207.6418 
L 133.451226 207.96558 
L 133.516169 207.62337 
L 133.581113 207.876687 
L 133.646057 207.640996 
L 133.711001 207.76332 
L 133.840889 207.649465 
L 133.905833 207.685667 
L 133.970777 207.549239 
L 134.035721 207.681907 
L 134.100664 207.473459 
L 134.165608 207.653648 
L 134.230552 207.422178 
L 134.295496 207.605823 
L 134.36044 207.391175 
L 134.425384 207.541244 
L 134.490328 207.375119 
L 134.555272 207.467878 
L 134.750103 207.349855 
L 134.944935 207.159547 
L 135.009879 207.418959 
L 135.074823 207.020059 
L 135.139767 207.43049 
L 135.204711 206.93168 
L 135.269655 207.39012 
L 135.334599 206.919397 
L 135.399542 207.280896 
L 135.464486 206.988897 
L 135.52943 207.113069 
L 135.659318 206.948487 
L 135.724262 207.127146 
L 135.789206 206.836955 
L 135.85415 207.110311 
L 135.919094 206.803075 
L 135.984038 207.025982 
L 136.048981 206.832535 
L 136.113925 206.903091 
L 137.02314 206.553822 
L 137.088084 206.60848 
L 137.153028 206.456445 
L 137.217972 206.596105 
L 137.282915 206.392618 
L 137.347859 206.556856 
L 137.412803 206.35395 
L 137.477747 206.498016 
L 137.542691 206.337538 
L 137.607635 206.423067 
L 137.802467 206.320677 
L 137.997298 206.210332 
L 138.062242 206.280901 
L 138.257074 206.108905 
L 138.322018 206.211532 
L 138.51685 206.028837 
L 138.581793 206.127956 
L 138.776625 205.95278 
L 138.841569 206.044893 
L 139.036401 205.869586 
L 139.101345 205.972293 
L 139.296176 205.743238 
L 139.36112 205.959852 
L 139.426064 205.601427 
L 139.491008 206.01947 
L 139.555952 205.436885 
L 139.620896 206.042307 
L 139.68584 205.36352 
L 139.750784 205.963189 
L 139.815728 205.464102 
L 139.880671 205.748858 
L 140.010559 205.483628 
L 140.075503 205.785613 
L 140.140447 205.34811 
L 140.205391 205.739042 
L 140.270335 205.411529 
L 140.335279 205.557627 
L 140.400223 205.548959 
L 140.465166 205.361 
L 140.53011 205.609343 
L 140.595054 205.288096 
L 140.659998 205.531993 
L 140.724942 205.355551 
L 140.85483 205.436938 
L 140.919774 205.24353 
L 140.984718 205.439326 
L 141.049662 205.216999 
L 141.114605 205.348889 
L 141.244493 205.2213 
L 141.309437 205.305207 
L 141.374381 205.139254 
L 141.439325 205.277093 
L 141.504269 205.127816 
L 141.569213 205.193701 
L 141.828988 205.035716 
L 141.893932 205.129267 
L 142.02382 205.059991 
L 142.543371 204.868338 
L 142.608315 204.917969 
L 142.673259 204.791647 
L 142.738203 204.923906 
L 142.803147 204.728071 
L 142.868091 204.876689 
L 142.933035 204.727147 
L 142.997979 204.789312 
L 143.257754 204.633913 
L 143.322698 204.731198 
L 143.387642 204.59601 
L 143.452586 204.681698 
L 143.647417 204.582395 
L 144.296856 204.42507 
L 145.335959 204.153045 
L 145.660678 204.093427 
L 146.375061 203.911497 
L 146.569893 203.905718 
L 146.764725 203.78565 
L 146.829668 203.888594 
L 146.894612 203.690608 
L 146.959556 203.943133 
L 147.0245 203.498493 
L 147.089444 204.063413 
L 147.154388 203.230229 
L 147.219332 204.12509 
L 147.284276 203.209028 
L 147.34922 203.937249 
L 147.414164 203.619749 
L 147.479107 203.487952 
L 147.544051 203.913726 
L 147.608995 203.270138 
L 147.673939 203.819938 
L 147.738883 203.564933 
L 147.803827 203.425457 
L 147.868771 203.807708 
L 147.933715 203.306959 
L 147.998659 203.644631 
L 148.063603 203.590883 
L 148.128546 203.3313 
L 148.19349 203.687574 
L 148.258434 203.364203 
L 148.323378 203.478163 
L 148.388322 203.569854 
L 148.453266 203.28709 
L 148.51821 203.560883 
L 148.583154 203.388227 
L 148.648098 203.34878 
L 148.713042 203.521264 
L 148.777985 203.265071 
L 148.842929 203.427951 
L 149.167649 203.309004 
L 149.232593 203.35944 
L 149.297537 203.208263 
L 149.36248 203.338556 
L 149.492368 203.222287 
L 149.557312 203.302618 
L 149.622256 203.167695 
L 149.6872 203.249148 
L 150.141807 203.097865 
L 150.206751 203.161771 
L 150.271695 203.095477 
L 150.726302 203.060331 
L 150.921134 203.002533 
L 151.635517 202.880683 
L 152.02518 202.837477 
L 152.414844 202.763042 
L 152.999339 202.688225 
L 154.233273 202.524396 
L 155.0126 202.337268 
L 155.077544 202.501863 
L 155.142487 202.2898 
L 155.207431 202.461347 
L 155.272375 202.328627 
L 155.402263 202.383602 
L 155.467207 202.292465 
L 155.532151 202.40157 
L 155.597095 202.26166 
L 155.662039 202.376438 
L 155.726982 202.273085 
L 155.791926 202.320962 
L 156.506309 202.198123 
L 156.701141 202.234627 
L 156.895973 202.189824 
L 157.675299 202.114862 
L 158.000019 202.109902 
L 158.324738 202.069637 
L 159.623616 202.012776 
L 159.818448 201.945505 
L 159.883392 202.017855 
L 159.948336 201.923473 
L 160.01328 202.028792 
L 160.078224 201.892654 
L 160.143168 202.04899 
L 160.208111 201.847931 
L 160.273055 202.081313 
L 160.337999 201.784209 
L 160.402943 202.124572 
L 160.467887 201.705553 
L 160.532831 202.164125 
L 160.597775 201.651436 
L 160.662719 202.162396 
L 160.727663 201.702307 
L 160.792607 202.075257 
L 160.85755 201.863999 
L 160.987438 202.016496 
L 161.052382 201.77405 
L 161.117326 202.075732 
L 161.18227 201.756649 
L 161.247214 202.028858 
L 161.312158 201.858762 
L 161.442046 201.974041 
L 161.506989 201.806597 
L 161.571933 202.018449 
L 161.636877 201.797613 
L 161.701821 201.978382 
L 161.766765 201.871506 
L 162.026541 201.976086 
L 162.091484 201.822112 
L 162.156428 201.943065 
L 162.286316 201.8809 
L 162.35126 201.927101 
L 162.416204 201.835582 
L 162.481148 201.944489 
L 162.546092 201.834751 
L 162.611036 201.922246 
L 162.740923 201.880319 
L 162.935755 201.920966 
L 163.000699 201.84169 
L 163.065643 201.910834 
L 163.260475 201.885319 
L 163.585194 201.854316 
L 163.84497 201.888921 
L 164.169689 201.87367 
L 164.494409 201.890755 
L 164.949016 201.918552 
L 165.468567 201.924806 
L 166.053062 201.963804 
L 166.50767 201.969714 
L 166.832389 202.016074 
L 167.027221 201.976377 
L 167.222052 202.07659 
L 167.286996 201.949766 
L 167.35194 202.112725 
L 167.416884 201.91528 
L 167.481828 202.161367 
L 167.546772 201.858472 
L 167.611716 202.219297 
L 167.67666 201.788114 
L 167.741604 202.265842 
L 167.806547 201.765712 
L 167.871491 202.258243 
L 167.936435 201.881559 
L 168.001379 202.155048 
L 168.131267 201.994609 
L 168.196211 202.214891 
L 168.261155 201.910927 
L 168.326099 202.234852 
L 168.391043 201.985809 
L 168.455986 202.150232 
L 168.585874 202.03432 
L 168.650818 202.225472 
L 168.715762 202.003831 
L 168.780706 202.219047 
L 168.84565 202.086656 
L 168.975538 202.192239 
L 169.040482 202.075178 
L 169.105425 202.239166 
L 169.170369 202.087579 
L 169.235313 202.215458 
L 169.365201 202.15894 
L 169.430145 202.233335 
L 169.495089 202.130404 
L 169.560033 202.254232 
L 169.624977 202.159705 
L 169.754864 202.219733 
L 169.949696 202.189772 
L 170.01464 202.277768 
L 170.079584 202.219073 
L 170.33936 202.29798 
L 170.534191 202.270618 
L 170.793967 202.332532 
L 170.988798 202.320408 
L 171.248574 202.369498 
L 171.833069 202.430819 
L 173.651498 202.646734 
L 173.976218 202.726392 
L 174.171049 202.681022 
L 174.235993 202.791658 
L 174.300937 202.669887 
L 174.365881 202.836962 
L 174.430825 202.637604 
L 174.495769 202.892161 
L 174.560713 202.57602 
L 174.625657 202.950184 
L 174.690601 202.508446 
L 174.755545 202.993021 
L 174.820488 202.541771 
L 174.885432 202.981556 
L 174.950376 202.735192 
L 175.080264 202.932624 
L 175.145208 202.70878 
L 175.210152 203.023364 
L 175.275096 202.714466 
L 175.34004 202.997058 
L 175.404984 202.877583 
L 175.469927 202.877966 
L 175.534871 203.020185 
L 175.599815 202.803333 
L 175.664759 203.054473 
L 175.729703 202.878572 
L 175.859591 203.013575 
L 175.924535 202.914629 
L 175.989479 203.084078 
L 176.054423 202.925025 
L 176.119366 203.071255 
L 176.18431 203.018773 
L 176.703861 203.08958 
L 176.898693 203.178632 
L 177.093525 203.190083 
L 177.288357 203.187999 
L 177.483188 203.256668 
L 178.782066 203.471765 
L 179.236674 203.567057 
L 181.704542 203.993187 
L 181.769486 204.144932 
L 181.834429 203.962184 
L 181.899373 204.212031 
L 181.964317 203.882103 
L 182.029261 204.282626 
L 182.094205 203.776243 
L 182.159149 204.34334 
L 182.224093 203.833157 
L 182.289037 204.337825 
L 182.353981 204.12823 
L 182.418925 204.147755 
L 182.483868 204.360504 
L 182.548812 203.987725 
L 182.613756 204.410122 
L 182.6787 204.145974 
L 182.808588 204.384396 
L 182.873532 204.143111 
L 182.938476 204.447959 
L 183.00342 204.235818 
L 183.133307 204.422523 
L 183.198251 204.273958 
L 183.263195 204.484293 
L 183.328139 204.329527 
L 183.458027 204.465321 
L 183.522971 204.386256 
L 183.587915 204.532724 
L 183.652859 204.413038 
L 183.782746 204.515349 
L 183.84769 204.482749 
L 184.042522 204.605614 
L 184.17241 204.569321 
L 184.367241 204.676539 
L 184.497129 204.653201 
L 184.691961 204.744021 
L 184.821849 204.738612 
L 185.211512 204.834538 
L 185.731063 204.937521 
L 185.990839 205.012206 
L 187.354661 205.338585 
L 190.212192 206.077057 
L 190.6668 206.156531 
L 190.861631 206.312194 
L 190.926575 206.140634 
L 190.991519 206.384979 
L 191.056463 206.066912 
L 191.121407 206.458319 
L 191.186351 205.949746 
L 191.251295 206.517251 
L 191.316239 205.983929 
L 191.381182 206.536223 
L 191.446126 206.309925 
L 191.576014 206.563123 
L 191.640958 206.189632 
L 191.705902 206.615657 
L 191.770846 206.360375 
L 191.900734 206.607082 
L 191.965677 206.370071 
L 192.030621 206.672954 
L 192.095565 206.471644 
L 192.225453 206.665817 
L 192.290397 206.51014 
L 192.355341 206.743826 
L 192.420285 206.580617 
L 192.550173 206.744024 
L 192.615116 206.625314 
L 192.68006 206.819355 
L 192.745004 206.690237 
L 192.874892 206.82867 
L 192.939836 206.737005 
L 193.00478 206.889647 
L 193.069724 206.798102 
L 193.199612 206.906745 
L 193.264555 206.849277 
L 193.329499 206.964688 
L 193.394443 206.89594 
L 193.654219 207.04783 
L 193.784107 207.061287 
L 194.49849 207.236844 
L 195.537592 207.55321 
L 195.927255 207.649479 
L 196.51175 207.822701 
L 197.485909 208.117549 
L 199.044562 208.584367 
L 200.798048 209.199261 
L 200.862992 208.998821 
L 200.927935 209.279104 
L 200.992879 208.890864 
L 201.057823 209.345768 
L 201.122767 208.742549 
L 201.187711 209.396204 
L 201.252655 208.895547 
L 201.317599 209.396204 
L 201.382543 209.323802 
L 201.447487 209.136449 
L 201.51243 209.493053 
L 201.577374 209.082121 
L 201.642318 209.482855 
L 201.707262 209.411983 
L 201.772206 209.291717 
L 201.83715 209.567237 
L 201.902094 209.276993 
L 201.967038 209.55316 
L 202.031982 209.53221 
L 202.096926 209.399107 
L 202.161869 209.654099 
L 202.226813 209.448118 
L 202.356701 209.657542 
L 202.421645 209.507302 
L 202.486589 209.730446 
L 202.551533 209.608531 
L 202.681421 209.763283 
L 202.746365 209.632172 
L 202.811308 209.804669 
L 202.876252 209.744061 
L 203.590635 209.953287 
L 203.785467 210.087855 
L 211.968398 214.021276 
L 212.293118 214.292245 
L 212.358061 214.193641 
L 212.423005 214.410216 
L 212.487949 214.181003 
L 212.552893 214.534176 
L 212.617837 214.071356 
L 212.682781 214.631408 
L 212.747725 213.952172 
L 212.812669 214.72331 
L 212.877613 214.284778 
L 213.0075 214.779577 
L 213.072444 214.434873 
L 213.137388 214.927232 
L 213.202332 214.571565 
L 213.33222 214.974621 
L 213.397164 214.709259 
L 213.462108 215.11341 
L 213.527052 214.888709 
L 213.656939 215.196671 
L 213.721883 214.952338 
L 213.786827 215.286066 
L 213.851771 215.188623 
L 213.916715 215.20675 
L 213.981659 215.402559 
L 214.046603 215.216302 
L 214.176491 215.447916 
L 214.241434 215.385434 
L 214.306378 215.596349 
L 214.371322 215.478537 
L 214.50121 215.680942 
L 214.566154 215.591824 
L 214.631098 215.7782 
L 214.696042 215.73097 
L 215.99492 216.598125 
L 216.189751 216.695264 
L 218.65762 218.238846 
L 219.891554 218.884955 
L 220.735824 219.120039 
L 221.385263 219.085447 
L 222.619197 218.655834 
L 224.242795 217.851146 
L 225.216953 217.165235 
L 225.281897 217.340898 
L 225.346841 216.926008 
L 225.411785 217.235091 
L 225.476729 216.668021 
L 225.541673 217.157609 
L 225.606617 216.813314 
L 225.67156 217.106962 
L 225.736504 217.072053 
L 225.801448 216.755002 
L 225.866392 217.013042 
L 225.931336 216.704038 
L 225.99628 216.921206 
L 226.061224 216.886152 
L 226.126168 216.630883 
L 226.191112 216.840848 
L 226.256056 216.620725 
L 226.320999 216.706083 
L 226.385943 216.716162 
L 226.450887 216.478914 
L 226.515831 216.65157 
L 226.645719 216.485075 
L 226.710663 216.536976 
L 226.775607 216.338133 
L 226.840551 216.450088 
L 227.16527 216.240941 
L 227.554934 216.037348 
L 227.749765 215.890683 
L 228.33426 215.570676 
L 230.217633 214.476827 
L 232.555614 213.095993 
L 238.335621 209.549493 
L 238.530452 209.313036 
L 238.595396 209.413302 
L 238.790228 208.835849 
L 238.855172 209.174208 
L 238.920116 208.656888 
L 238.98506 209.142663 
L 239.050003 208.945799 
L 239.179891 209.048875 
L 239.244835 208.657112 
L 239.309779 208.960272 
L 239.374723 208.76788 
L 239.504611 208.846377 
L 239.569555 208.544405 
L 239.634499 208.765531 
L 239.764386 208.577071 
L 239.82933 208.642244 
L 239.894274 208.4084 
L 239.959218 208.548996 
L 240.283938 208.317672 
L 240.673601 208.092113 
L 240.868433 207.93054 
L 241.258096 207.658001 
L 241.387984 207.583237 
L 241.647759 207.461862 
L 242.037423 207.188466 
L 246.713383 204.161924 
L 252.81811 200.218595 
L 253.012941 199.726368 
L 253.077885 199.955001 
L 253.142829 199.432906 
L 253.207773 199.856556 
L 253.272717 199.599888 
L 253.337661 199.872572 
L 253.402605 199.833758 
L 253.467549 199.511746 
L 253.532493 199.716051 
L 253.597437 199.469621 
L 253.66238 199.656077 
L 253.727324 199.621445 
L 253.792268 199.3583 
L 253.857212 199.533435 
L 253.922156 199.364369 
L 253.9871 199.411348 
L 254.052044 199.412826 
L 254.116988 199.182979 
L 254.181932 199.328312 
L 254.441707 199.023148 
L 254.571595 199.048135 
L 254.766427 198.86168 
L 254.896315 198.847497 
L 255.091146 198.683193 
L 255.805529 198.196125 
L 255.935417 198.129026 
L 259.961939 195.433955 
L 268.209814 189.690496 
L 268.404645 189.077118 
L 268.469589 189.37132 
L 268.534533 188.968963 
L 268.599477 189.386083 
L 268.664421 189.27736 
L 268.794309 189.265618 
L 268.859253 188.911693 
L 268.924196 189.1753 
L 268.98914 189.046893 
L 269.119028 189.051643 
L 269.183972 188.781756 
L 269.248916 188.962248 
L 269.508692 188.619694 
L 269.573635 188.729974 
L 269.638579 188.659431 
L 269.833411 188.4432 
L 269.963299 188.443345 
L 270.158131 188.251507 
L 270.288018 188.218367 
L 270.48285 188.045012 
L 283.081966 178.746332 
L 283.276798 178.157797 
L 283.341742 178.40296 
L 283.406686 177.95869 
L 283.47163 178.376601 
L 283.536573 178.234052 
L 283.666461 178.300821 
L 283.731405 177.94836 
L 283.796349 178.170422 
L 283.861293 177.994574 
L 283.926237 178.086713 
L 283.991181 178.061475 
L 284.056125 177.795507 
L 284.121069 177.952753 
L 284.250956 177.824452 
L 284.3159 177.814373 
L 284.380844 177.598603 
L 284.445788 177.715175 
L 284.705564 177.393137 
L 284.770508 177.46484 
L 284.835451 177.386356 
L 285.095227 177.208014 
L 286.718824 175.940111 
L 287.108488 175.65492 
L 287.692983 175.190319 
L 288.732085 174.384313 
L 291.849392 171.91558 
L 297.499512 167.318437 
L 297.694343 167.064527 
L 297.759287 167.111335 
L 297.954119 166.590216 
L 298.019063 166.777977 
L 298.084007 166.31459 
L 298.148951 166.666049 
L 298.213894 166.431901 
L 298.278838 166.685864 
L 298.343782 166.625256 
L 298.538614 166.204271 
L 298.603558 166.418946 
L 298.668502 166.334617 
L 298.863333 166.01395 
L 298.928277 166.153426 
L 298.993221 166.0682 
L 299.188053 165.800859 
L 299.252997 165.882945 
L 299.317941 165.807139 
L 299.512772 165.570907 
L 299.64266 165.544838 
L 299.837492 165.328817 
L 299.96738 165.279872 
L 300.227155 165.06393 
L 303.928957 161.945526 
L 307.825591 158.571523 
L 312.111889 154.773791 
L 312.30672 154.350906 
L 312.371664 154.454998 
L 312.566496 153.658094 
L 312.63144 154.181113 
L 312.696384 154.108816 
L 312.826271 154.089607 
L 312.891215 153.658543 
L 312.956159 153.980027 
L 313.021103 153.893403 
L 313.215935 153.528118 
L 313.280879 153.741236 
L 313.345823 153.673952 
L 313.540654 153.384975 
L 313.670542 153.395529 
L 313.735486 153.17563 
L 313.80043 153.280672 
L 314.125149 152.979769 
L 314.514813 152.650738 
L 314.774588 152.35556 
L 314.904476 152.262629 
L 316.073466 151.23514 
L 316.852793 150.531405 
L 320.035044 147.649893 
L 326.13977 142.046027 
L 329.906517 138.459803 
L 330.101348 137.980875 
L 330.166292 138.070666 
L 330.231236 137.597199 
L 330.29618 137.83293 
L 330.361124 137.525667 
L 330.426068 137.911375 
L 330.491012 137.85636 
L 330.685843 137.384978 
L 330.750787 137.619363 
L 330.815731 137.534665 
L 332.049665 136.402873 
L 332.439329 136.044607 
L 332.699104 135.764759 
L 332.95888 135.529609 
L 333.673263 134.827167 
L 334.12787 134.390086 
L 335.491692 133.061087 
L 344.389006 123.956936 
L 344.583837 123.534605 
L 344.648781 123.610886 
L 344.843613 123.152486 
L 344.908557 123.359878 
L 344.973501 123.223569 
L 345.103389 123.2094 
L 345.29822 122.823904 
L 345.363164 122.923378 
L 345.62294 122.5587 
L 345.687884 122.582553 
L 345.882715 122.36181 
L 346.726986 121.475986 
L 347.506313 120.6518 
L 349.844293 118.117339 
L 351.857554 115.901092 
L 354.065647 113.37935 
L 354.260478 112.878415 
L 354.325422 113.060055 
L 354.390366 112.884616 
L 354.45531 113.002297 
L 355.299581 111.999927 
L 355.429468 111.906469 
L 355.754188 111.519468 
L 356.663402 110.504592 
L 358.351944 108.568852 
L 359.45599 107.296661 
L 363.547456 102.364577 
L 363.742287 101.838841 
L 363.807231 102.058555 
L 363.872175 101.936468 
L 363.937119 102.003805 
L 364.002063 101.928631 
L 364.196895 101.498227 
L 364.261839 101.601632 
L 364.326782 101.498411 
L 365.235997 100.459049 
L 365.495773 100.136773 
L 366.469931 98.97403 
L 367.11937 98.180583 
L 369.002743 95.872329 
L 373.548816 90.145716 
L 374.717806 88.553967 
L 374.912638 87.884929 
L 375.107469 88.147389 
L 375.302301 87.820179 
L 375.367245 87.572812 
L 375.432189 87.706219 
L 387.576698 71.46152 
L 387.901417 70.554139 
L 387.966361 70.67116 
L 388.031305 70.503452 
L 388.096249 70.707599 
L 388.161193 70.649049 
L 388.550856 70.121439 
L 393.61648 62.476421 
L 396.474012 57.355178 
L 398.487273 53.568 
L 398.487273 53.568 
" clip-path="url(#pea062c9ecf)" style="fill: none; stroke: #008000; stroke-width: 1.5; stroke-linecap: square"/>
   </g>
   <g id="line2d_15">
    <path d="M 73.832727 149.861101 
L 74.222391 155.287786 
L 74.417222 155.836927 
L 74.54711 155.451536 
L 75.066661 153.122753 
L 75.196549 153.396928 
L 75.7161 155.434702 
L 75.781044 155.401614 
L 75.975876 154.89725 
L 76.170708 154.414707 
L 76.300595 154.506081 
L 77.20981 156.494276 
L 77.534529 156.421346 
L 77.729361 156.693911 
L 77.989137 157.1521 
L 78.573632 158.479199 
L 78.768464 158.53899 
L 79.028239 159.346289 
L 79.093183 159.258081 
L 79.223071 159.719041 
L 79.352959 160.357445 
L 79.417902 160.339081 
L 79.482846 160.224382 
L 79.612734 160.690539 
L 79.742622 161.260789 
L 79.87251 161.108991 
L 79.937454 161.229706 
L 80.132285 162.476751 
L 80.262173 162.212603 
L 80.392061 162.882116 
L 80.521949 163.417959 
L 80.651837 163.389145 
L 80.781724 163.877124 
L 80.976556 164.335788 
L 81.0415 164.416397 
L 81.561051 166.195142 
L 81.690939 166.480372 
L 82.015658 167.326933 
L 82.53521 168.927706 
L 83.314536 171.211185 
L 84.678358 175.436631 
L 87.665778 186.062767 
L 87.730721 185.380879 
L 87.795665 186.72728 
L 87.860609 185.916524 
L 87.990497 187.092749 
L 88.055441 186.58159 
L 88.120385 187.630016 
L 88.185329 187.473747 
L 88.250273 187.442031 
L 88.315216 188.328884 
L 88.38016 187.967411 
L 88.70488 189.467654 
L 88.769824 189.259946 
L 88.899712 189.983985 
L 88.964655 190.012336 
L 89.029599 190.6426 
L 89.094543 190.523073 
L 89.549151 192.329734 
L 89.614094 192.302517 
L 90.068702 193.944069 
L 90.133646 194.024809 
L 90.393421 194.931649 
L 91.172748 197.300064 
L 91.36758 198.096162 
L 91.432524 197.939154 
L 91.497467 198.627493 
L 91.562411 197.719043 
L 91.627355 199.673003 
L 91.692299 198.004617 
L 91.757243 199.104284 
L 91.822187 200.002918 
L 91.887131 198.806428 
L 91.952075 199.470967 
L 92.017019 200.499116 
L 92.081963 199.478012 
L 92.146906 199.885646 
L 92.21185 200.983664 
L 92.276794 200.45236 
L 92.341738 200.205772 
L 92.471626 201.333342 
L 92.53657 200.779676 
L 92.666458 201.83607 
L 92.731402 201.633559 
L 92.796345 201.804473 
L 92.861289 202.321529 
L 92.926233 202.159982 
L 94.095223 205.364707 
L 94.160167 205.121417 
L 94.290055 205.833147 
L 94.354999 205.690967 
L 96.887811 211.046226 
L 96.952755 210.864428 
L 97.147587 211.37122 
L 97.991857 212.99293 
L 98.056801 212.763439 
L 98.186689 213.322172 
L 98.251633 212.911226 
L 98.316577 213.568747 
L 98.381521 213.43658 
L 98.446465 213.380946 
L 98.511408 213.876986 
L 98.576352 213.563588 
L 98.70624 214.002503 
L 98.771184 213.923609 
L 98.966016 214.364859 
L 100.264894 216.2642 
L 100.329838 216.123234 
L 100.524669 216.543784 
L 100.589613 216.521976 
L 100.849389 216.980125 
L 100.914333 216.876469 
L 101.109164 217.347851 
L 101.174108 217.231925 
L 101.36894 217.577156 
L 101.563772 217.85612 
L 101.628716 217.726355 
L 101.693659 218.125163 
L 101.758603 217.788823 
L 101.823547 218.278477 
L 101.888491 217.987535 
L 101.953435 218.350313 
L 102.018379 218.294032 
L 102.083323 218.305892 
L 102.148267 218.636823 
L 102.213211 218.262712 
L 102.278155 218.888979 
L 102.343098 218.397213 
L 102.408042 218.941737 
L 102.472986 218.74515 
L 102.732762 219.267562 
L 102.797706 218.987477 
L 102.86265 219.404913 
L 102.927594 219.207521 
L 103.057481 219.514744 
L 103.122425 219.388448 
L 103.187369 219.792916 
L 103.252313 219.363263 
L 103.317257 219.97197 
L 103.382201 219.589376 
L 103.447145 219.951086 
L 103.512089 219.916784 
L 103.577032 219.861295 
L 103.641976 220.286858 
L 103.70692 219.793206 
L 103.771864 220.447323 
L 103.836808 220.0299 
L 103.901752 220.395726 
L 103.966696 220.356398 
L 104.03164 220.308085 
L 104.096584 220.716629 
L 104.161528 220.303085 
L 104.226471 220.805259 
L 104.291415 220.539238 
L 104.356359 220.837767 
L 104.421303 220.774375 
L 104.486247 220.778372 
L 104.681079 221.177642 
L 104.746023 220.962782 
L 104.810967 221.276998 
L 104.87591 221.153974 
L 105.135686 221.576991 
L 105.20063 221.364269 
L 105.265574 221.725028 
L 105.330518 221.459191 
L 105.525349 221.920059 
L 105.590293 221.722482 
L 105.655237 222.002791 
L 105.720181 221.910692 
L 105.979957 222.343353 
L 106.044901 222.000905 
L 106.109845 222.497446 
L 106.174788 222.153837 
L 106.239732 222.520441 
L 106.304676 222.370266 
L 106.564452 222.754245 
L 106.629396 222.614533 
L 106.824227 222.843746 
L 107.019059 223.04623 
L 107.084003 222.994659 
L 107.148947 223.180903 
L 107.213891 223.004528 
L 107.278835 223.401198 
L 107.343779 222.971796 
L 107.408722 223.605464 
L 107.473666 222.938392 
L 107.53861 223.789874 
L 107.603554 223.036705 
L 107.668498 223.756008 
L 107.733442 223.428745 
L 107.86333 223.821603 
L 107.928274 223.385327 
L 107.993218 223.997082 
L 108.058161 223.528919 
L 108.123105 223.917383 
L 108.188049 223.894744 
L 108.252993 223.721772 
L 108.317937 224.186281 
L 108.382881 223.697128 
L 108.447825 224.264172 
L 108.512769 223.944798 
L 108.642657 224.294252 
L 108.7076 223.986739 
L 108.772544 224.475878 
L 108.837488 224.130251 
L 108.902432 224.41089 
L 108.967376 224.390085 
L 109.03232 224.323382 
L 109.097264 224.617346 
L 109.162208 224.346799 
L 109.227152 224.655671 
L 109.292096 224.547595 
L 109.357039 224.587846 
L 109.421983 224.793774 
L 109.486927 224.551078 
L 109.551871 224.912642 
L 109.616815 224.661397 
L 109.746703 224.90189 
L 109.811647 224.808537 
L 109.876591 225.09886 
L 109.941534 224.795146 
L 110.006478 225.219773 
L 110.071422 224.921086 
L 110.20131 225.173043 
L 110.266254 225.072685 
L 110.331198 225.388945 
L 110.396142 225.086129 
L 110.461086 225.455411 
L 110.52603 225.216474 
L 110.655917 225.46516 
L 110.720861 225.327136 
L 110.785805 225.631272 
L 110.850749 225.372256 
L 110.915693 225.702078 
L 110.980637 225.477469 
L 111.110525 225.713358 
L 111.175469 225.603593 
L 111.240412 225.858757 
L 111.305356 225.633489 
L 111.3703 225.919893 
L 111.435244 225.758346 
L 111.565132 225.970672 
L 111.630076 225.838295 
L 111.69502 226.098987 
L 111.759964 225.8898 
L 111.824908 226.189397 
L 111.889851 225.941041 
L 111.954795 226.190295 
L 112.019739 226.146639 
L 112.084683 226.138038 
L 112.149627 226.288397 
L 112.214571 226.131124 
L 112.279515 226.445933 
L 112.344459 226.126586 
L 112.409403 226.475261 
L 112.474347 226.302157 
L 112.604234 226.463374 
L 112.669178 226.381723 
L 112.734122 226.667416 
L 112.799066 226.330786 
L 112.86401 226.736362 
L 112.928954 226.460709 
L 112.993898 226.717601 
L 113.058842 226.632613 
L 113.123785 226.635238 
L 113.188729 226.862512 
L 113.253673 226.54831 
L 113.318617 226.967567 
L 113.383561 226.601728 
L 113.448505 227.03993 
L 113.513449 226.688234 
L 113.578393 226.9939 
L 113.643337 226.927223 
L 113.708281 226.881576 
L 113.773224 227.107596 
L 113.838168 226.847551 
L 113.903112 227.239301 
L 113.968056 226.865823 
L 114.033 227.228522 
L 114.097944 227.08348 
L 114.227832 227.224195 
L 114.292776 227.107583 
L 114.35772 227.392748 
L 114.422663 227.098467 
L 114.487607 227.420334 
L 114.552551 227.234406 
L 114.682439 227.360742 
L 114.747383 227.357641 
L 114.812327 227.539954 
L 114.877271 227.313933 
L 114.942215 227.593332 
L 115.007159 227.411033 
L 115.072102 227.608596 
L 115.137046 227.524056 
L 115.20199 227.555482 
L 115.266934 227.712319 
L 115.331878 227.486641 
L 115.396822 227.802189 
L 115.461766 227.549413 
L 115.52671 227.857177 
L 115.591654 227.581775 
L 115.656598 227.848945 
L 115.721541 227.774866 
L 115.786485 227.772888 
L 115.851429 227.889948 
L 115.916373 227.761528 
L 115.981317 228.040519 
L 116.046261 227.706277 
L 116.111205 228.078395 
L 116.176149 227.85405 
L 116.241093 228.073316 
L 116.306036 227.931677 
L 116.435924 228.134808 
L 116.500868 227.93859 
L 116.565812 228.218174 
L 116.630756 227.982879 
L 116.6957 228.268492 
L 116.760644 228.023764 
L 116.825588 228.260827 
L 116.890532 228.215232 
L 116.955475 228.170469 
L 117.020419 228.315749 
L 117.085363 228.179611 
L 117.150307 228.447598 
L 117.215251 228.115441 
L 117.280195 228.484169 
L 117.345139 228.267159 
L 117.410083 228.471029 
L 117.475027 228.326422 
L 117.604914 228.523985 
L 117.669858 228.338533 
L 117.734802 228.600306 
L 117.799746 228.384009 
L 117.86469 228.686126 
L 117.929634 228.360895 
L 117.994578 228.685453 
L 118.059522 228.545806 
L 118.18941 228.639687 
L 118.254353 228.584066 
L 118.319297 228.814757 
L 118.384241 228.492058 
L 118.449185 228.855391 
L 118.514129 228.61189 
L 118.579073 228.839203 
L 118.644017 228.699253 
L 118.773905 228.908584 
L 118.838848 228.661561 
L 118.903792 228.982359 
L 118.968736 228.721325 
L 119.03368 229.036542 
L 119.098624 228.725771 
L 119.163568 229.002412 
L 119.228512 228.939535 
L 119.293456 228.903558 
L 119.3584 229.026978 
L 119.423344 228.885893 
L 119.488287 229.170833 
L 119.553231 228.829585 
L 119.618175 229.161242 
L 119.683119 228.998402 
L 119.748063 229.136676 
L 119.813007 229.061437 
L 119.877951 229.067823 
L 119.942895 229.245927 
L 120.007839 229.005763 
L 120.072783 229.269661 
L 120.137726 229.07715 
L 120.20267 229.316825 
L 120.267614 229.130397 
L 120.332558 229.237576 
L 120.397502 229.303223 
L 120.462446 229.179276 
L 120.52739 229.373212 
L 120.592334 229.177785 
L 120.657278 229.455021 
L 120.722222 229.180596 
L 120.787165 229.433292 
L 120.852109 229.327353 
L 121.111885 229.553691 
L 121.176829 229.269872 
L 121.241773 229.581066 
L 121.306717 229.376352 
L 121.371661 229.574364 
L 121.436604 229.432448 
L 121.566492 229.598692 
L 121.631436 229.431947 
L 121.69638 229.662044 
L 121.761324 229.46266 
L 121.826268 229.720554 
L 121.891212 229.447422 
L 121.956156 229.706939 
L 122.021099 229.609668 
L 122.215931 229.607715 
L 122.280875 229.815675 
L 122.345819 229.556527 
L 122.410763 229.808274 
L 122.475707 229.67269 
L 122.540651 229.796347 
L 122.605595 229.721003 
L 122.86537 229.900241 
L 122.930314 229.727758 
L 122.995258 229.919938 
L 123.060202 229.770687 
L 123.19009 229.870228 
L 123.514809 229.887603 
L 123.709641 229.997895 
L 123.904473 229.974161 
L 124.099304 230.043107 
L 124.683799 230.134877 
L 124.878631 230.219958 
L 125.073463 230.146949 
L 125.138407 230.293614 
L 125.20335 230.116024 
L 125.268294 230.354196 
L 125.333238 230.064361 
L 125.398182 230.469554 
L 125.463126 229.93825 
L 125.52807 230.571628 
L 125.593014 229.896534 
L 125.657958 230.567986 
L 125.722902 230.109797 
L 125.852789 230.441651 
L 125.917733 230.09737 
L 125.982677 230.566786 
L 126.047621 230.161487 
L 126.112565 230.424065 
L 126.177509 230.435794 
L 126.242453 230.215314 
L 126.307397 230.562511 
L 126.372341 230.253362 
L 126.437285 230.45367 
L 126.502228 230.471269 
L 126.567172 230.295949 
L 126.632116 230.567986 
L 126.69706 230.339829 
L 126.762004 230.478182 
L 126.826948 230.510531 
L 126.891892 230.36537 
L 126.956836 230.580784 
L 127.02178 230.380159 
L 127.086724 230.53544 
L 127.216611 230.465214 
L 127.281555 230.578739 
L 127.346499 230.472549 
L 127.476387 230.544028 
L 127.671219 230.518368 
L 127.86605 230.593581 
L 128.385601 230.684255 
L 128.450545 230.601233 
L 128.515489 230.673424 
L 128.775265 230.657039 
L 128.970097 230.730945 
L 129.229872 230.696129 
L 129.294816 230.779205 
L 129.35976 230.670377 
L 129.424704 230.769693 
L 129.879311 230.793136 
L 131.892572 230.816633 
L 131.957516 230.996096 
L 132.02246 230.84637 
L 132.087404 230.972217 
L 132.152348 230.885368 
L 132.217291 230.950831 
L 132.477067 230.901688 
L 132.671899 231.003326 
L 132.736843 230.895012 
L 132.801787 231.003932 
L 132.86673 230.909893 
L 132.931674 231.002402 
L 132.996618 230.887149 
L 133.061562 231.032363 
L 133.126506 230.879286 
L 133.19145 231.051809 
L 133.256394 230.867808 
L 133.321338 231.07933 
L 133.386282 230.848784 
L 133.451226 231.07962 
L 133.516169 230.886846 
L 133.581113 231.050028 
L 133.646057 230.9231 
L 133.711001 231.025556 
L 133.775945 230.975858 
L 134.944935 230.929102 
L 135.009879 231.107325 
L 135.074823 230.894431 
L 135.139767 231.142629 
L 135.204711 230.848573 
L 135.269655 231.158184 
L 135.334599 230.884405 
L 135.399542 231.107457 
L 135.464486 230.956887 
L 135.594374 231.034606 
L 135.659318 230.970607 
L 135.724262 231.101718 
L 135.789206 230.932678 
L 135.85415 231.105768 
L 135.919094 230.944446 
L 135.984038 231.092101 
L 136.048981 230.981782 
L 136.178869 231.044197 
L 136.373701 230.975159 
L 136.438645 231.086916 
L 136.503589 230.971372 
L 136.568533 231.076282 
L 136.69842 231.044936 
L 137.153028 230.994711 
L 137.217972 231.077892 
L 137.282915 230.963589 
L 137.347859 231.087219 
L 137.412803 230.978628 
L 137.607635 231.058498 
L 137.802467 231.034619 
L 138.127186 230.985753 
L 138.322018 231.051334 
L 138.51685 230.980832 
L 138.711681 231.046862 
L 138.906513 230.980898 
L 139.101345 231.046031 
L 139.296176 230.922902 
L 139.36112 231.091335 
L 139.426064 230.86951 
L 139.491008 231.121415 
L 139.555952 230.821699 
L 139.620896 231.146825 
L 139.68584 230.77307 
L 139.750784 231.147484 
L 139.815728 230.867887 
L 139.880671 231.031743 
L 140.140447 230.853916 
L 140.205391 231.090874 
L 140.270335 230.903403 
L 140.335279 231.001637 
L 140.400223 231.016598 
L 140.465166 230.907703 
L 140.53011 231.052192 
L 140.595054 230.893455 
L 140.659998 231.034672 
L 140.724942 230.939076 
L 140.984718 231.025846 
L 141.049662 230.915606 
L 141.114605 230.99004 
L 141.374381 230.907242 
L 141.439325 230.997534 
L 141.504269 230.921292 
L 141.764044 230.969816 
L 141.958876 230.915593 
L 142.218652 230.947863 
L 142.413483 230.905078 
L 142.608315 230.95277 
L 142.673259 230.861106 
L 142.738203 230.950594 
L 142.933035 230.865104 
L 143.062922 230.895249 
L 143.387642 230.861396 
L 143.582474 230.890117 
L 144.816408 230.818994 
L 145.141127 230.822121 
L 145.725622 230.786672 
L 146.699781 230.764521 
L 146.894612 230.647302 
L 146.959556 230.826409 
L 147.0245 230.558567 
L 147.089444 230.849312 
L 147.154388 230.464633 
L 147.219332 230.848296 
L 147.284276 230.430266 
L 147.34922 230.847306 
L 147.414164 230.662276 
L 147.479107 230.607315 
L 147.544051 230.843137 
L 147.608995 230.491916 
L 147.673939 230.77555 
L 147.738883 230.695984 
L 147.803827 230.60494 
L 147.868771 230.775352 
L 147.933715 230.564609 
L 147.998659 230.734402 
L 148.063603 230.690522 
L 148.128546 230.586166 
L 148.19349 230.765365 
L 148.258434 230.588607 
L 148.323378 230.669638 
L 148.388322 230.724032 
L 148.453266 230.562643 
L 148.51821 230.711947 
L 148.583154 230.645983 
L 148.777985 230.590652 
L 148.907873 230.645759 
L 149.102705 230.590005 
L 149.232593 230.650548 
L 149.297537 230.569398 
L 149.36248 230.645099 
L 149.622256 230.573818 
L 149.882032 230.607961 
L 150.141807 230.551733 
L 150.336639 230.558092 
L 150.726302 230.551034 
L 151.115966 230.511455 
L 151.570573 230.497233 
L 154.168329 230.341926 
L 157.415524 230.061498 
L 157.935075 229.980507 
L 158.584514 229.889305 
L 160.467887 229.451446 
L 160.532831 229.60794 
L 160.597775 229.401761 
L 160.662719 229.584377 
L 160.727663 229.404123 
L 160.792607 229.542714 
L 160.922494 229.46477 
L 160.987438 229.489309 
L 161.18227 229.349399 
L 161.247214 229.444506 
L 161.312158 229.371352 
L 161.571933 229.379135 
L 161.766765 229.290031 
L 162.611036 229.142613 
L 163.000699 229.034471 
L 163.260475 228.998177 
L 164.039801 228.827316 
L 164.559353 228.728937 
L 165.663399 228.497824 
L 167.027221 228.199955 
L 167.35194 228.165838 
L 167.546772 228.033289 
L 167.611716 228.125164 
L 167.806547 227.928801 
L 167.871491 228.073342 
L 167.936435 227.950794 
L 168.066323 227.995913 
L 168.261155 227.887204 
L 168.326099 227.976019 
L 168.391043 227.887244 
L 168.52093 227.909487 
L 168.715762 227.817862 
L 168.84565 227.819234 
L 169.300257 227.73943 
L 170.404303 227.50742 
L 171.053742 227.383367 
L 174.171049 226.809503 
L 174.625657 226.720016 
L 174.820488 226.650634 
L 175.01532 226.717205 
L 175.599815 226.600013 
L 175.859591 226.607968 
L 176.18431 226.562215 
L 176.833749 226.474747 
L 179.236674 226.179344 
L 184.302298 225.561376 
L 184.821849 225.50656 
L 186.055783 225.35967 
L 188.84837 225.016167 
L 191.770846 224.753232 
L 192.225453 224.752203 
L 192.939836 224.723166 
L 195.018041 224.662373 
L 200.927935 224.418318 
L 201.252655 224.347432 
L 201.382543 224.457909 
L 201.642318 224.423819 
L 201.83715 224.393739 
L 202.616477 224.413357 
L 203.720523 224.374055 
L 208.136708 224.214501 
L 212.552893 223.953057 
L 212.812669 223.819796 
L 213.0075 223.997557 
L 213.202332 223.951579 
L 213.33222 223.986409 
L 213.527052 223.972411 
L 213.916715 223.965511 
L 214.306378 223.929877 
L 215.020761 223.911486 
L 225.216953 223.252053 
L 225.541673 223.028235 
L 225.736504 223.23605 
L 225.931336 223.174373 
L 226.061224 223.216313 
L 226.256056 223.190455 
L 226.580775 223.182539 
L 233.140109 222.604203 
L 238.530452 221.983807 
L 238.98506 221.763578 
L 239.114947 221.932961 
L 239.309779 221.79028 
L 239.439667 221.896034 
L 239.634499 221.810874 
L 239.764386 221.846957 
L 239.959218 221.804647 
L 240.348881 221.761863 
L 242.167311 221.534496 
L 244.635179 221.199371 
L 252.883054 219.89462 
L 253.207773 219.575009 
L 253.402605 219.828946 
L 253.532493 219.661976 
L 253.597437 219.757084 
L 253.727324 219.780528 
L 253.922156 219.752467 
L 254.311819 219.695354 
L 254.506651 219.652346 
L 255.675641 219.470073 
L 257.883734 219.086028 
L 262.429807 218.258147 
L 268.14487 217.123677 
L 268.469589 216.71888 
L 268.534533 216.80995 
L 268.729365 217.005627 
L 268.924196 216.847708 
L 269.054084 216.933818 
L 269.248916 216.822417 
L 269.378804 216.843605 
L 269.573635 216.772918 
L 269.898355 216.706386 
L 272.431167 216.07446 
L 275.158811 215.364141 
L 283.017022 213.18176 
L 283.341742 212.734455 
L 283.406686 212.816646 
L 283.47163 212.823837 
L 283.601517 213.042482 
L 283.796349 212.812675 
L 283.926237 212.94785 
L 284.121069 212.787648 
L 284.250956 212.851515 
L 284.445788 212.734798 
L 284.575676 212.751236 
L 284.770508 212.668015 
L 285.095227 212.592776 
L 286.523993 212.193467 
L 287.887815 211.792825 
L 292.174112 210.509803 
L 297.824231 208.702852 
L 298.019063 208.347158 
L 298.084007 208.411579 
L 298.148951 208.300284 
L 298.343782 208.572941 
L 298.603558 208.434917 
L 298.733446 208.456026 
L 298.798389 208.329994 
L 298.863333 208.377792 
L 299.447828 208.171112 
L 299.64266 208.157919 
L 300.681763 207.837926 
L 301.201314 207.662988 
L 311.917057 204.049494 
L 312.30672 203.845018 
L 312.501552 203.262604 
L 312.761328 203.771349 
L 312.826271 203.524444 
L 312.891215 203.556687 
L 312.956159 203.491673 
L 313.021103 203.684315 
L 313.086047 203.653088 
L 313.150991 203.443202 
L 313.215935 203.532557 
L 316.46313 202.46611 
L 317.372344 202.136077 
L 319.12583 201.511076 
L 329.97146 197.413127 
L 330.166292 196.967919 
L 330.231236 197.077579 
L 330.29618 196.74273 
L 330.491012 197.248057 
L 330.555956 197.217502 
L 330.620899 196.950887 
L 330.685843 197.061747 
L 330.750787 196.953354 
L 330.815731 197.123397 
L 330.880675 197.095323 
L 330.945619 196.903274 
L 331.010563 196.987946 
L 331.075507 196.893749 
L 331.140451 196.979569 
L 331.205395 196.954779 
L 331.270338 196.799037 
L 331.335282 196.883801 
L 331.595058 196.70232 
L 331.724946 196.726331 
L 335.231916 195.377529 
L 338.673943 194.001036 
L 344.583837 191.520785 
L 344.778669 191.12174 
L 344.843613 191.363645 
L 344.908557 191.195976 
L 344.973501 191.40701 
L 345.038445 191.35313 
L 345.363164 191.110948 
L 345.428108 191.218773 
L 345.493052 191.171728 
L 345.687884 190.979151 
L 345.752828 191.071541 
L 345.817772 190.982911 
L 345.947659 190.988201 
L 346.142491 190.835612 
L 346.272379 190.832894 
L 349.389686 189.522326 
L 350.883396 188.875373 
L 353.740927 187.644449 
L 353.935759 187.399695 
L 354.000703 187.505462 
L 354.195534 187.076073 
L 354.260478 187.319377 
L 354.325422 187.070691 
L 354.390366 187.340406 
L 354.45531 187.238148 
L 354.585198 187.286592 
L 354.780029 187.004964 
L 354.844973 187.160943 
L 354.909917 187.067986 
L 355.039805 187.074028 
L 355.234637 186.874262 
L 355.299581 186.958155 
L 355.364525 186.898246 
L 356.208795 186.549954 
L 357.767449 185.865757 
L 358.287 185.621808 
L 358.936439 185.340205 
L 359.975541 184.867016 
L 363.092848 183.463899 
L 363.28768 183.259726 
L 363.352624 183.346086 
L 363.547456 182.908887 
L 363.6124 183.124987 
L 363.677343 182.717379 
L 363.742287 183.055368 
L 363.807231 182.800178 
L 363.872175 183.117599 
L 363.937119 183.043349 
L 364.261839 182.778871 
L 364.326782 182.908122 
L 364.391726 182.87043 
L 364.586558 182.620187 
L 364.651502 182.758277 
L 364.716446 182.679423 
L 366.794651 181.760881 
L 367.054426 181.651301 
L 374.522974 178.1888 
L 374.717806 177.743236 
L 374.78275 177.969165 
L 374.847694 177.4467 
L 374.912638 177.823687 
L 374.977582 177.406541 
L 375.042526 177.90262 
L 375.107469 177.784306 
L 375.237357 177.863028 
L 375.302301 177.493508 
L 375.367245 177.759253 
L 375.432189 177.543021 
L 375.497133 177.728038 
L 375.562077 177.695254 
L 375.756908 177.402187 
L 375.821852 177.567797 
L 375.886796 177.516807 
L 376.081628 177.294559 
L 376.146572 177.423322 
L 376.211516 177.365498 
L 376.406347 177.188779 
L 376.471291 177.281551 
L 376.536235 177.218384 
L 376.860955 177.061454 
L 377.380506 176.787623 
L 377.510394 176.749033 
L 377.965001 176.560401 
L 378.354664 176.360067 
L 378.744328 176.195473 
L 379.263879 175.937499 
L 379.848374 175.667995 
L 382.316242 174.488748 
L 387.122091 172.15131 
L 387.316922 171.997903 
L 387.381866 172.040332 
L 387.576698 171.762041 
L 387.641642 171.918561 
L 387.836473 171.251344 
L 387.901417 171.648397 
L 387.966361 171.10609 
L 388.031305 171.663675 
L 388.096249 171.438419 
L 388.226137 171.657105 
L 388.420969 171.217412 
L 388.485912 171.521059 
L 388.550856 171.426018 
L 388.745688 171.114138 
L 388.810632 171.349605 
L 388.875576 171.223401 
L 389.005464 171.257677 
L 389.070408 171.029994 
L 389.135351 171.201237 
L 389.265239 171.091182 
L 389.330183 171.109758 
L 389.395127 170.948857 
L 389.460071 171.067409 
L 389.589959 170.977908 
L 389.78479 170.927881 
L 389.914678 170.846032 
L 394.590639 168.675353 
L 398.487273 166.393932 
L 398.487273 166.393932 
" clip-path="url(#pea062c9ecf)" style="fill: none; stroke: #ff0000; stroke-width: 1.5; stroke-linecap: square"/>
   </g>
   <g id="patch_3">
    <path d="M 57.6 307.584 
L 57.6 41.472 
" style="fill: none; stroke: #000000; stroke-width: 0.8; stroke-linejoin: miter; stroke-linecap: square"/>
   </g>
   <g id="patch_4">
    <path d="M 414.72 307.584 
L 414.72 41.472 
" style="fill: none; stroke: #000000; stroke-width: 0.8; stroke-linejoin: miter; stroke-linecap: square"/>
   </g>
   <g id="patch_5">
    <path d="M 57.6 307.584 
L 414.72 307.584 
" style="fill: none; stroke: #000000; stroke-width: 0.8; stroke-linejoin: miter; stroke-linecap: square"/>
   </g>
   <g id="patch_6">
    <path d="M 57.6 41.472 
L 414.72 41.472 
" style="fill: none; stroke: #000000; stroke-width: 0.8; stroke-linejoin: miter; stroke-linecap: square"/>
   </g>
   <g id="text_15">
    <!-- Script19_loss -->
    <g transform="translate(196.532813 35.472) scale(0.12 -0.12)">
     <defs>
      <path id="DejaVuSans-53" d="M 3425 4513 
L 3425 3897 
Q 3066 4069 2747 4153 
Q 2428 4238 2131 4238 
Q 1616 4238 1336 4038 
Q 1056 3838 1056 3469 
Q 1056 3159 1242 3001 
Q 1428 2844 1947 2747 
L 2328 2669 
Q 3034 2534 3370 2195 
Q 3706 1856 3706 1288 
Q 3706 609 3251 259 
Q 2797 -91 1919 -91 
Q 1588 -91 1214 -16 
Q 841 59 441 206 
L 441 856 
Q 825 641 1194 531 
Q 1563 422 1919 422 
Q 2459 422 2753 634 
Q 3047 847 3047 1241 
Q 3047 1584 2836 1778 
Q 2625 1972 2144 2069 
L 1759 2144 
Q 1053 2284 737 2584 
Q 422 2884 422 3419 
Q 422 4038 858 4394 
Q 1294 4750 2059 4750 
Q 2388 4750 2728 4690 
Q 3069 4631 3425 4513 
z
" transform="scale(0.015625)"/>
      <path id="DejaVuSans-72" d="M 2631 2963 
Q 2534 3019 2420 3045 
Q 2306 3072 2169 3072 
Q 1681 3072 1420 2755 
Q 1159 2438 1159 1844 
L 1159 0 
L 581 0 
L 581 3500 
L 1159 3500 
L 1159 2956 
Q 1341 3275 1631 3429 
Q 1922 3584 2338 3584 
Q 2397 3584 2469 3576 
Q 2541 3569 2628 3553 
L 2631 2963 
z
" transform="scale(0.015625)"/>
      <path id="DejaVuSans-69" d="M 603 3500 
L 1178 3500 
L 1178 0 
L 603 0 
L 603 3500 
z
M 603 4863 
L 1178 4863 
L 1178 4134 
L 603 4134 
L 603 4863 
z
" transform="scale(0.015625)"/>
      <path id="DejaVuSans-74" d="M 1172 4494 
L 1172 3500 
L 2356 3500 
L 2356 3053 
L 1172 3053 
L 1172 1153 
Q 1172 725 1289 603 
Q 1406 481 1766 481 
L 2356 481 
L 2356 0 
L 1766 0 
Q 1100 0 847 248 
Q 594 497 594 1153 
L 594 3053 
L 172 3053 
L 172 3500 
L 594 3500 
L 594 4494 
L 1172 4494 
z
" transform="scale(0.015625)"/>
      <path id="DejaVuSans-39" d="M 703 97 
L 703 672 
Q 941 559 1184 500 
Q 1428 441 1663 441 
Q 2288 441 2617 861 
Q 2947 1281 2994 2138 
Q 2813 1869 2534 1725 
Q 2256 1581 1919 1581 
Q 1219 1581 811 2004 
Q 403 2428 403 3163 
Q 403 3881 828 4315 
Q 1253 4750 1959 4750 
Q 2769 4750 3195 4129 
Q 3622 3509 3622 2328 
Q 3622 1225 3098 567 
Q 2575 -91 1691 -91 
Q 1453 -91 1209 -44 
Q 966 3 703 97 
z
M 1959 2075 
Q 2384 2075 2632 2365 
Q 2881 2656 2881 3163 
Q 2881 3666 2632 3958 
Q 2384 4250 1959 4250 
Q 1534 4250 1286 3958 
Q 1038 3666 1038 3163 
Q 1038 2656 1286 2365 
Q 1534 2075 1959 2075 
z
" transform="scale(0.015625)"/>
      <path id="DejaVuSans-5f" d="M 3263 -1063 
L 3263 -1509 
L -63 -1509 
L -63 -1063 
L 3263 -1063 
z
" transform="scale(0.015625)"/>
     </defs>
     <use xlink:href="#DejaVuSans-53"/>
     <use xlink:href="#DejaVuSans-63" x="63.476562"/>
     <use xlink:href="#DejaVuSans-72" x="118.457031"/>
     <use xlink:href="#DejaVuSans-69" x="159.570312"/>
     <use xlink:href="#DejaVuSans-70" x="187.353516"/>
     <use xlink:href="#DejaVuSans-74" x="250.830078"/>
     <use xlink:href="#DejaVuSans-31" x="290.039062"/>
     <use xlink:href="#DejaVuSans-39" x="353.662109"/>
     <use xlink:href="#DejaVuSans-5f" x="417.285156"/>
     <use xlink:href="#DejaVuSans-6c" x="467.285156"/>
     <use xlink:href="#DejaVuSans-6f" x="495.068359"/>
     <use xlink:href="#DejaVuSans-73" x="556.25"/>
     <use xlink:href="#DejaVuSans-73" x="608.349609"/>
    </g>
   </g>
   <g id="legend_1">
    <g id="patch_7">
     <path d="M 64.6 93.506375 
L 164.295312 93.506375 
Q 166.295312 93.506375 166.295312 91.506375 
L 166.295312 48.472 
Q 166.295312 46.472 164.295312 46.472 
L 64.6 46.472 
Q 62.6 46.472 62.6 48.472 
L 62.6 91.506375 
Q 62.6 93.506375 64.6 93.506375 
z
" style="fill: #ffffff; opacity: 0.8; stroke: #cccccc; stroke-linejoin: miter"/>
    </g>
    <g id="line2d_16">
     <path d="M 66.6 54.570438 
L 76.6 54.570438 
L 86.6 54.570438 
" style="fill: none; stroke: #0000ff; stroke-width: 1.5; stroke-linecap: square"/>
    </g>
    <g id="text_16">
     <!-- training set -->
     <g transform="translate(94.6 58.070438) scale(0.1 -0.1)">
      <defs>
       <path id="DejaVuSans-61" d="M 2194 1759 
Q 1497 1759 1228 1600 
Q 959 1441 959 1056 
Q 959 750 1161 570 
Q 1363 391 1709 391 
Q 2188 391 2477 730 
Q 2766 1069 2766 1631 
L 2766 1759 
L 2194 1759 
z
M 3341 1997 
L 3341 0 
L 2766 0 
L 2766 531 
Q 2569 213 2275 61 
Q 1981 -91 1556 -91 
Q 1019 -91 701 211 
Q 384 513 384 1019 
Q 384 1609 779 1909 
Q 1175 2209 1959 2209 
L 2766 2209 
L 2766 2266 
Q 2766 2663 2505 2880 
Q 2244 3097 1772 3097 
Q 1472 3097 1187 3025 
Q 903 2953 641 2809 
L 641 3341 
Q 956 3463 1253 3523 
Q 1550 3584 1831 3584 
Q 2591 3584 2966 3190 
Q 3341 2797 3341 1997 
z
" transform="scale(0.015625)"/>
       <path id="DejaVuSans-6e" d="M 3513 2113 
L 3513 0 
L 2938 0 
L 2938 2094 
Q 2938 2591 2744 2837 
Q 2550 3084 2163 3084 
Q 1697 3084 1428 2787 
Q 1159 2491 1159 1978 
L 1159 0 
L 581 0 
L 581 3500 
L 1159 3500 
L 1159 2956 
Q 1366 3272 1645 3428 
Q 1925 3584 2291 3584 
Q 2894 3584 3203 3211 
Q 3513 2838 3513 2113 
z
" transform="scale(0.015625)"/>
       <path id="DejaVuSans-67" d="M 2906 1791 
Q 2906 2416 2648 2759 
Q 2391 3103 1925 3103 
Q 1463 3103 1205 2759 
Q 947 2416 947 1791 
Q 947 1169 1205 825 
Q 1463 481 1925 481 
Q 2391 481 2648 825 
Q 2906 1169 2906 1791 
z
M 3481 434 
Q 3481 -459 3084 -895 
Q 2688 -1331 1869 -1331 
Q 1566 -1331 1297 -1286 
Q 1028 -1241 775 -1147 
L 775 -588 
Q 1028 -725 1275 -790 
Q 1522 -856 1778 -856 
Q 2344 -856 2625 -561 
Q 2906 -266 2906 331 
L 2906 616 
Q 2728 306 2450 153 
Q 2172 0 1784 0 
Q 1141 0 747 490 
Q 353 981 353 1791 
Q 353 2603 747 3093 
Q 1141 3584 1784 3584 
Q 2172 3584 2450 3431 
Q 2728 3278 2906 2969 
L 2906 3500 
L 3481 3500 
L 3481 434 
z
" transform="scale(0.015625)"/>
       <path id="DejaVuSans-20" transform="scale(0.015625)"/>
      </defs>
      <use xlink:href="#DejaVuSans-74"/>
      <use xlink:href="#DejaVuSans-72" x="39.208984"/>
      <use xlink:href="#DejaVuSans-61" x="80.322266"/>
      <use xlink:href="#DejaVuSans-69" x="141.601562"/>
      <use xlink:href="#DejaVuSans-6e" x="169.384766"/>
      <use xlink:href="#DejaVuSans-69" x="232.763672"/>
      <use xlink:href="#DejaVuSans-6e" x="260.546875"/>
      <use xlink:href="#DejaVuSans-67" x="323.925781"/>
      <use xlink:href="#DejaVuSans-20" x="387.402344"/>
      <use xlink:href="#DejaVuSans-73" x="419.189453"/>
      <use xlink:href="#DejaVuSans-65" x="471.289062"/>
      <use xlink:href="#DejaVuSans-74" x="532.8125"/>
     </g>
    </g>
    <g id="line2d_17">
     <path d="M 66.6 69.248563 
L 76.6 69.248563 
L 86.6 69.248563 
" style="fill: none; stroke: #008000; stroke-width: 1.5; stroke-linecap: square"/>
    </g>
    <g id="text_17">
     <!-- validation set -->
     <g transform="translate(94.6 72.748563) scale(0.1 -0.1)">
      <defs>
       <path id="DejaVuSans-76" d="M 191 3500 
L 800 3500 
L 1894 563 
L 2988 3500 
L 3597 3500 
L 2284 0 
L 1503 0 
L 191 3500 
z
" transform="scale(0.015625)"/>
       <path id="DejaVuSans-64" d="M 2906 2969 
L 2906 4863 
L 3481 4863 
L 3481 0 
L 2906 0 
L 2906 525 
Q 2725 213 2448 61 
Q 2172 -91 1784 -91 
Q 1150 -91 751 415 
Q 353 922 353 1747 
Q 353 2572 751 3078 
Q 1150 3584 1784 3584 
Q 2172 3584 2448 3432 
Q 2725 3281 2906 2969 
z
M 947 1747 
Q 947 1113 1208 752 
Q 1469 391 1925 391 
Q 2381 391 2643 752 
Q 2906 1113 2906 1747 
Q 2906 2381 2643 2742 
Q 2381 3103 1925 3103 
Q 1469 3103 1208 2742 
Q 947 2381 947 1747 
z
" transform="scale(0.015625)"/>
      </defs>
      <use xlink:href="#DejaVuSans-76"/>
      <use xlink:href="#DejaVuSans-61" x="59.179688"/>
      <use xlink:href="#DejaVuSans-6c" x="120.458984"/>
      <use xlink:href="#DejaVuSans-69" x="148.242188"/>
      <use xlink:href="#DejaVuSans-64" x="176.025391"/>
      <use xlink:href="#DejaVuSans-61" x="239.501953"/>
      <use xlink:href="#DejaVuSans-74" x="300.78125"/>
      <use xlink:href="#DejaVuSans-69" x="339.990234"/>
      <use xlink:href="#DejaVuSans-6f" x="367.773438"/>
      <use xlink:href="#DejaVuSans-6e" x="428.955078"/>
      <use xlink:href="#DejaVuSans-20" x="492.333984"/>
      <use xlink:href="#DejaVuSans-73" x="524.121094"/>
      <use xlink:href="#DejaVuSans-65" x="576.220703"/>
      <use xlink:href="#DejaVuSans-74" x="637.744141"/>
     </g>
    </g>
    <g id="line2d_18">
     <path d="M 66.6 83.926688 
L 76.6 83.926688 
L 86.6 83.926688 
" style="fill: none; stroke: #ff0000; stroke-width: 1.5; stroke-linecap: square"/>
    </g>
    <g id="text_18">
     <!-- test set -->
     <g transform="translate(94.6 87.426688) scale(0.1 -0.1)">
      <use xlink:href="#DejaVuSans-74"/>
      <use xlink:href="#DejaVuSans-65" x="39.208984"/>
      <use xlink:href="#DejaVuSans-73" x="100.732422"/>
      <use xlink:href="#DejaVuSans-74" x="152.832031"/>
      <use xlink:href="#DejaVuSans-20" x="192.041016"/>
      <use xlink:href="#DejaVuSans-73" x="223.828125"/>
      <use xlink:href="#DejaVuSans-65" x="275.927734"/>
      <use xlink:href="#DejaVuSans-74" x="337.451172"/>
     </g>
    </g>
   </g>
  </g>
 </g>
 <defs>
  <clipPath id="pea062c9ecf">
   <rect x="57.6" y="41.472" width="357.12" height="266.112"/>
  </clipPath>
 </defs>
</svg>
